mtllib new-15.mtl
v 0.338436 -0.020369 -0.226111
v 0.282978 -0.029901 -0.210991
v 0.338436 -0.029908 -0.211157
v 0.282978 -0.037173 -0.194813
v 0.338436 -0.037180 -0.194979
v 0.282978 0.022596 -0.207115
v 0.282978 -0.042024 -0.177752
v 0.282978 0.017452 -0.199415
v 0.338436 -0.042030 -0.177918
v 0.282978 0.013425 -0.191076
v 0.338436 0.013419 -0.191242
v 0.282978 -0.069218 -0.046497
v 0.282978 0.010595 -0.182259
v 0.338436 0.010588 -0.182425
v 0.338436 -0.069225 -0.046663
v 0.282978 -0.022435 -0.047899
v 0.338436 -0.022442 -0.048066
v 0.282978 -0.070976 -0.035760
v 0.282978 -0.023777 -0.041403
v 0.338436 -0.023784 -0.041570
v 0.338436 -0.070982 -0.035926
v 0.282978 -0.071826 -0.024913
v 0.282978 -0.024630 -0.034826
v 0.338436 -0.024637 -0.034992
v 0.338436 -0.071833 -0.025079
v 0.282978 -0.071762 -0.014033
v 0.282978 -0.024990 -0.028203
v 0.338436 -0.024997 -0.028369
v 0.338436 -0.071769 -0.014200
v 0.282978 -0.024856 -0.021571
v 0.338436 -0.024862 -0.021737
v 0.282978 -0.070786 -0.003197
v 0.282978 -0.024226 -0.014968
v 0.338436 -0.024233 -0.015135
v 0.338436 -0.070792 -0.003364
v 0.282978 -0.023106 -0.008430
v 0.338436 -0.023113 -0.008597
v 0.282978 -0.068903 0.007519
v 0.282978 -0.021501 -0.001995
v 0.338436 -0.021508 -0.002161
v 0.338436 -0.068910 0.007352
v 0.282978 -0.066127 0.018039
v 0.282978 -0.019420 0.004303
v 0.338436 -0.019427 0.004137
v 0.338436 -0.066134 0.017872
v 0.282978 -0.016875 0.010429
v 0.338436 -0.016882 0.010262
v 0.282978 -0.062478 0.028289
v 0.282978 -0.013881 0.016347
v 0.338436 -0.013887 0.016181
v 0.338436 -0.062484 0.028122
v 0.282978 -0.010453 0.022025
v 0.338436 -0.010459 0.021859
v 0.282978 -0.057981 0.038196
v 0.282978 -0.006610 0.027432
v 0.338436 -0.006617 0.027266
v 0.338436 -0.057988 0.038029
v 0.282978 0.022150 0.063785
v 0.338436 0.022143 0.063618
v 0.282978 -0.052668 0.047690
v 0.338436 -0.052675 0.047524
v 0.282978 -0.046577 0.056706
v 0.338436 0.025069 0.068679
v 0.338436 -0.046584 0.056539
v 0.282978 -0.039750 0.065178
v 0.282978 0.025076 0.068845
v 0.338436 -0.039757 0.065011
v 0.338436 0.026586 0.074324
v 0.338436 -0.032244 0.072880
v 0.282978 -0.032237 0.073047
v 0.282978 0.026592 0.074491
v 0.338436 0.026590 0.080170
v 0.338436 -0.013369 0.090905
v 0.282978 -0.013362 0.091072
v 0.282978 0.026596 0.080336
v 0.338436 0.025080 0.085817
v 0.338436 -0.009233 0.095036
v 0.282978 0.025087 0.085984
v 0.338436 0.022161 0.090882
v 0.282978 -0.009226 0.095202
v 0.338436 0.018030 0.095018
v 0.282978 0.022168 0.091048
v 0.338436 -0.004168 0.097955
v 0.282978 0.018037 0.095184
v 0.338436 0.012970 0.097944
v 0.282978 -0.004161 0.098122
v 0.282978 0.012977 0.098110
v 0.338436 0.001479 0.099465
v 0.338436 0.007325 0.099461
v 0.282978 0.007331 0.099627
v 0.282978 0.001486 0.099631
vn -1.000000 0.000000 0.000000
vn 1.000000 0.000000 0.000000
vn -0.001893 -0.801770 -0.597630
vn 0.001893 0.801770 0.597630
vn -0.001535 -0.879907 -0.475143
vn 0.001535 0.879907 0.475143
vn -0.001145 -0.939471 -0.342627
vn 0.001145 0.939471 0.342627
vn -0.000940 -0.961879 -0.273475
vn 0.000940 0.961879 0.273475
vn -0.000730 -0.979204 -0.202878
vn 0.000730 0.979204 0.202878
vn -0.000607 -0.986863 -0.161559
vn -0.000483 -0.992779 -0.119954
vn 0.000607 0.986863 0.161559
vn 0.000483 0.992779 0.119954
vn 0.000837 0.971087 0.238723
vn -0.000837 -0.971087 -0.238723
vn 0.000619 0.986193 0.165600
vn 0.000729 0.979323 0.202303
vn -0.000619 -0.986193 -0.165600
vn -0.000729 -0.979323 -0.202303
vn -0.000232 -0.999345 -0.036184
vn 0.000232 0.999345 0.036184
vn 0.000398 0.995800 0.091554
vn -0.000398 -0.995800 -0.091554
vn 0.000020 -0.998855 0.047841
vn -0.000020 0.998855 -0.047841
vn 0.000175 0.999856 0.016997
vn -0.000175 -0.999856 -0.016997
vn 0.000272 -0.991312 0.131529
vn -0.000272 0.991312 -0.131529
vn -0.000049 0.998337 -0.057655
vn 0.000049 -0.998337 0.057655
vn -0.000273 0.991252 -0.131986
vn 0.000273 -0.991252 0.131986
vn 0.000522 -0.976770 0.214288
vn -0.000522 0.976770 -0.214288
vn -0.000496 0.978640 -0.205580
vn 0.000496 -0.978640 0.205580
vn -0.000715 0.960573 -0.278028
vn 0.000715 -0.960573 0.278028
vn 0.000769 -0.955332 0.295534
vn -0.000769 0.955332 -0.295534
vn -0.000931 0.937150 -0.348927
vn 0.000931 -0.937150 0.348927
vn 0.001010 -0.927148 0.374694
vn -0.001010 0.927148 -0.374694
vn -0.001142 0.908502 -0.417880
vn 0.001142 -0.908502 0.417880
vn -0.001346 0.874789 -0.484503
vn 0.001346 -0.874789 0.484503
vn 0.001244 -0.892418 0.451208
vn -0.001244 0.892418 -0.451208
vn -0.001542 0.836199 -0.548425
vn 0.001542 -0.836199 0.548425
vn -0.001638 0.815141 -0.579261
vn 0.001638 -0.815141 0.579261
vn 0.001469 -0.851387 0.524536
vn -0.001469 0.851387 -0.524536
vn -0.001765 0.784248 -0.620445
vn 0.001765 -0.784248 0.620445
vn -0.001395 0.865691 -0.500576
vn -0.001036 0.923624 -0.383299
vn 0.001395 -0.865691 0.500576
vn 0.001036 -0.923624 0.383299
vn 0.001684 -0.804345 0.594161
vn -0.001684 0.804345 -0.594161
vn 0.001887 -0.751623 0.659590
vn -0.001887 0.751623 -0.659590
vn -0.000271 0.991357 -0.131188
vn 0.000271 -0.991357 0.131188
vn 0.001983 -0.723248 0.690586
vn -0.001983 0.723248 -0.690586
vn 0.000513 0.991532 0.129863
vn -0.000513 -0.991532 -0.129863
vn 0.002085 -0.690643 0.723193
vn -0.002085 0.690643 -0.723193
vn 0.001261 0.924135 0.382064
vn -0.001261 -0.924135 -0.382064
vn 0.002307 -0.608231 0.793756
vn 0.002036 -0.706634 0.707576
vn -0.002036 0.706634 -0.707576
vn -0.002307 0.608231 -0.793756
vn 0.001924 0.793760 0.608228
vn -0.001924 -0.793760 -0.608228
vn 0.002726 -0.382066 0.924131
vn -0.002726 0.382066 -0.924131
vn 0.002456 0.609291 0.792943
vn -0.002456 -0.609291 -0.792943
vn 0.002820 0.383301 0.923619
vn -0.002820 -0.383301 -0.923619
vn 0.002960 -0.129864 0.991527
vn -0.002960 0.129864 -0.991527
vn 0.002992 0.131188 0.991353
vn -0.002992 -0.131188 -0.991353
usemtl material-0
f 2//5 1//3 3//5
f 3//6 1//4 2//6
f 3//5 4//7 2//5
f 2//6 4//8 3//6
f 4//7 3//5 5//7
f 5//8 3//6 4//8
f 6//1 2//1 4//1
f 4//2 2//2 6//2
f 5//7 7//9 4//7
f 4//8 7//10 5//8
f 6//1 4//1 8//1
f 8//2 4//2 6//2
f 7//9 5//7 9//9
f 9//10 5//8 7//10
f 10//1 4//1 7//1
f 7//2 4//2 10//2
f 8//1 4//1 10//1
f 10//2 4//2 8//2
f 5//2 11//2 9//2
f 9//1 11//1 5//1
f 9//11 12//11 7//11
f 7//12 12//12 9//12
f 10//1 7//1 13//1
f 13//2 7//2 10//2
f 9//2 11//2 14//2
f 14//1 11//1 9//1
f 12//11 9//11 15//11
f 15//12 9//12 12//12
f 16//1 7//1 12//1
f 12//2 7//2 16//2
f 13//1 7//1 16//1
f 16//2 7//2 13//2
f 9//2 14//2 17//2
f 17//1 14//1 9//1
f 9//2 17//2 15//2
f 15//1 17//1 9//1
f 15//13 18//14 12//13
f 12//15 18//16 15//15
f 16//1 12//1 19//1
f 19//2 12//2 16//2
f 17//17 13//17 16//17
f 16//18 13//18 17//18
f 13//17 17//17 14//17
f 14//18 17//18 13//18
f 15//2 17//2 20//2
f 20//1 17//1 15//1
f 18//14 15//13 21//14
f 21//16 15//15 18//16
f 19//1 12//1 18//1
f 18//2 12//2 19//2
f 20//19 16//20 19//19
f 19//21 16//22 20//21
f 16//20 20//19 17//20
f 17//22 20//21 16//22
f 15//2 20//2 21//2
f 21//1 20//1 15//1
f 21//14 22//23 18//14
f 18//16 22//24 21//16
f 19//1 18//1 23//1
f 23//2 18//2 19//2
f 19//19 24//25 20//19
f 20//21 24//26 19//21
f 21//2 20//2 24//2
f 24//1 20//1 21//1
f 22//23 21//14 25//23
f 25//24 21//16 22//24
f 23//1 18//1 22//1
f 22//2 18//2 23//2
f 24//25 19//19 23//25
f 23//26 19//21 24//26
f 21//2 24//2 25//2
f 25//1 24//1 21//1
f 25//23 26//27 22//23
f 22//24 26//28 25//24
f 23//1 22//1 27//1
f 27//2 22//2 23//2
f 23//25 28//29 24//25
f 24//26 28//30 23//26
f 25//2 24//2 28//2
f 28//1 24//1 25//1
f 26//27 25//23 29//27
f 29//28 25//24 26//28
f 30//1 22//1 26//1
f 26//2 22//2 30//2
f 27//1 22//1 30//1
f 30//2 22//2 27//2
f 28//29 23//25 27//29
f 27//30 23//26 28//30
f 25//2 28//2 31//2
f 31//1 28//1 25//1
f 25//2 31//2 29//2
f 29//1 31//1 25//1
f 29//27 32//31 26//27
f 26//28 32//32 29//28
f 30//1 26//1 33//1
f 33//2 26//2 30//2
f 31//33 27//29 30//33
f 30//34 27//30 31//34
f 27//29 31//33 28//29
f 28//30 31//34 27//30
f 29//2 31//2 34//2
f 34//1 31//1 29//1
f 32//31 29//27 35//31
f 35//32 29//28 32//32
f 36//1 26//1 32//1
f 32//2 26//2 36//2
f 33//1 26//1 36//1
f 36//2 26//2 33//2
f 34//35 30//33 33//35
f 33//36 30//34 34//36
f 30//33 34//35 31//33
f 31//34 34//36 30//34
f 29//2 34//2 37//2
f 37//1 34//1 29//1
f 29//2 37//2 35//2
f 35//1 37//1 29//1
f 35//31 38//37 32//31
f 32//32 38//38 35//32
f 36//1 32//1 39//1
f 39//2 32//2 36//2
f 37//39 33//35 36//39
f 36//40 33//36 37//40
f 33//35 37//39 34//35
f 34//36 37//40 33//36
f 35//2 37//2 40//2
f 40//1 37//1 35//1
f 38//37 35//31 41//37
f 41//38 35//32 38//38
f 39//1 32//1 38//1
f 38//2 32//2 39//2
f 40//41 36//39 39//41
f 39//42 36//40 40//42
f 36//39 40//41 37//39
f 37//40 40//42 36//40
f 35//2 40//2 41//2
f 41//1 40//1 35//1
f 41//37 42//43 38//37
f 38//38 42//44 41//38
f 39//1 38//1 43//1
f 43//2 38//2 39//2
f 39//41 44//45 40//41
f 40//42 44//46 39//42
f 41//2 40//2 44//2
f 44//1 40//1 41//1
f 42//43 41//37 45//43
f 45//44 41//38 42//44
f 46//1 38//1 42//1
f 42//2 38//2 46//2
f 43//1 38//1 46//1
f 46//2 38//2 43//2
f 44//45 39//41 43//45
f 43//46 39//42 44//46
f 41//2 44//2 47//2
f 47//1 44//1 41//1
f 41//2 47//2 45//2
f 45//1 47//1 41//1
f 45//43 48//47 42//43
f 42//44 48//48 45//44
f 46//1 42//1 49//1
f 49//2 42//2 46//2
f 47//49 43//45 46//49
f 46//50 43//46 47//50
f 43//45 47//49 44//45
f 44//46 47//50 43//46
f 45//2 47//2 50//2
f 50//1 47//1 45//1
f 48//47 45//43 51//47
f 51//48 45//44 48//48
f 52//1 42//1 48//1
f 48//2 42//2 52//2
f 49//1 42//1 52//1
f 52//2 42//2 49//2
f 50//51 46//49 49//51
f 49//52 46//50 50//52
f 46//49 50//51 47//49
f 47//50 50//52 46//50
f 45//2 50//2 53//2
f 53//1 50//1 45//1
f 45//2 53//2 51//2
f 51//1 53//1 45//1
f 51//47 54//53 48//47
f 48//48 54//54 51//48
f 52//1 48//1 55//1
f 55//2 48//2 52//2
f 53//55 49//51 52//55
f 52//56 49//52 53//56
f 49//51 53//55 50//51
f 50//52 53//56 49//52
f 51//2 53//2 56//2
f 56//1 53//1 51//1
f 54//53 51//47 57//53
f 57//54 51//48 54//54
f 58//1 48//1 54//1
f 54//2 48//2 58//2
f 55//1 48//1 58//1
f 58//2 48//2 55//2
f 56//57 52//55 55//57
f 55//58 52//56 56//58
f 52//55 56//57 53//55
f 53//56 56//58 52//56
f 51//2 56//2 59//2
f 59//1 56//1 51//1
f 51//2 59//2 57//2
f 57//1 59//1 51//1
f 57//53 60//59 54//53
f 54//54 60//60 57//54
f 58//1 54//1 60//1
f 60//2 54//2 58//2
f 59//61 55//61 58//61
f 58//62 55//62 59//62
f 55//61 59//61 56//61
f 56//62 59//62 55//62
f 57//2 59//2 61//2
f 61//1 59//1 57//1
f 60//59 57//53 61//59
f 61//60 57//54 60//60
f 58//1 60//1 62//1
f 62//2 60//2 58//2
f 58//63 63//64 59//63
f 59//65 63//66 58//65
f 61//2 59//2 64//2
f 64//1 59//1 61//1
f 64//67 60//59 61//59
f 61//60 60//60 64//68
f 60//59 64//67 62//67
f 62//68 64//68 60//60
f 58//1 62//1 65//1
f 65//2 62//2 58//2
f 63//64 58//63 66//64
f 66//66 58//65 63//66
f 67//2 59//2 63//2
f 63//1 59//1 67//1
f 64//2 59//2 67//2
f 67//1 59//1 64//1
f 64//67 65//69 62//67
f 62//68 65//70 64//68
f 58//1 65//1 66//1
f 66//2 65//2 58//2
f 66//64 68//71 63//64
f 63//66 68//72 66//66
f 67//2 63//2 69//2
f 69//1 63//1 67//1
f 65//69 64//67 67//69
f 67//70 64//68 65//70
f 66//1 65//1 70//1
f 70//2 65//2 66//2
f 68//71 66//64 71//71
f 71//72 66//66 68//72
f 69//2 63//2 68//2
f 68//1 63//1 69//1
f 70//73 67//69 69//73
f 69//74 67//70 70//74
f 67//69 70//73 65//69
f 65//70 70//74 67//70
f 66//1 70//1 71//1
f 71//2 70//2 66//2
f 71//71 72//75 68//71
f 68//72 72//76 71//72
f 69//2 68//2 73//2
f 73//1 68//1 69//1
f 73//77 70//77 69//77
f 69//78 70//78 73//78
f 71//1 70//1 74//1
f 74//2 70//2 71//2
f 72//75 71//71 75//75
f 75//76 71//72 72//76
f 73//2 68//2 72//2
f 72//1 68//1 73//1
f 70//77 73//77 74//77
f 74//78 73//78 70//78
f 71//1 74//1 75//1
f 75//2 74//2 71//2
f 75//75 76//79 72//75
f 72//76 76//80 75//76
f 73//2 72//2 76//2
f 76//1 72//1 73//1
f 77//81 74//82 73//82
f 73//83 74//83 77//84
f 75//1 74//1 78//1
f 78//2 74//2 75//2
f 76//79 75//75 78//79
f 78//80 75//76 76//80
f 73//2 76//2 79//2
f 79//1 76//1 73//1
f 74//82 77//81 80//81
f 80//84 77//84 74//83
f 73//2 81//2 77//2
f 77//1 81//1 73//1
f 78//1 74//1 82//1
f 82//2 74//2 78//2
f 78//79 79//85 76//79
f 76//80 79//86 78//80
f 73//2 79//2 81//2
f 81//1 79//1 73//1
f 83//87 80//81 77//81
f 77//84 80//84 83//88
f 84//1 74//1 80//1
f 80//2 74//2 84//2
f 77//2 81//2 85//2
f 85//1 81//1 77//1
f 82//1 74//1 84//1
f 84//2 74//2 82//2
f 79//85 78//79 82//85
f 82//86 78//80 79//86
f 82//85 81//89 79//85
f 79//86 81//90 82//86
f 80//81 83//87 86//87
f 86//88 83//88 80//84
f 77//2 85//2 83//2
f 83//1 85//1 77//1
f 84//1 80//1 87//1
f 87//2 80//2 84//2
f 81//89 87//91 85//91
f 85//92 87//92 81//90
f 81//89 82//85 84//89
f 84//90 82//86 81//90
f 88//93 86//87 83//87
f 83//88 86//88 88//94
f 87//1 80//1 86//1
f 86//2 80//2 87//2
f 83//2 85//2 89//2
f 89//1 85//1 83//1
f 87//91 81//89 84//89
f 84//90 81//90 87//92
f 90//95 85//91 87//91
f 87//92 85//92 90//96
f 86//87 88//93 91//93
f 91//94 88//94 86//88
f 83//2 89//2 88//2
f 88//1 89//1 83//1
f 87//1 86//1 90//1
f 90//2 86//2 87//2
f 85//91 90//95 89//95
f 89//96 90//96 85//92
f 89//95 91//93 88//93
f 88//94 91//94 89//96
f 90//1 86//1 91//1
f 91//2 86//2 90//2
f 91//93 89//95 90//95
f 90//96 89//96 91//94