mtllib new-4.mtl
v 0.022998 -0.671694 0.059120
v 0.019303 -0.671694 0.068042
v 0.013423 -0.671694 0.075704
v 0.038692 -0.673556 0.066255
v 0.037334 -0.673775 0.074829
v 0.037633 -0.673962 0.078626
v 0.005762 -0.671694 0.081583
v 0.037676 -0.673629 0.070489
v 0.038692 -0.601118 0.066255
v 0.037676 -0.674001 0.079170
v 0.079236 -0.681666 0.141517
v 0.037676 -0.601253 0.070489
v 0.037334 -0.601520 0.074829
v 0.038692 -0.674367 0.083403
v 0.037633 -0.601862 0.078626
v 0.084592 -0.688586 0.218122
v 0.042633 -0.675213 0.091138
v -0.003161 -0.671694 0.085279
v 0.040359 -0.674774 0.087426
v 0.037676 -0.601934 0.079170
v 0.249713 -0.718536 0.440753
v 0.009711 -0.675199 0.115057
v 0.079236 -0.615987 0.141517
v 0.003573 -0.674332 0.108919
v 0.038692 -0.602605 0.083403
v 0.013423 -0.597704 0.075704
v 0.249852 -0.718090 0.435443
v 0.250953 -0.719061 0.445918
v 0.006884 -0.674752 0.111747
v 0.009711 -0.604131 0.115057
v 0.042633 -0.604157 0.091138
v 0.286409 -0.719743 0.426666
v 0.003095 -0.674283 0.108626
v -0.012736 -0.671694 0.086540
v 0.040359 -0.603352 0.087426
v 0.251360 -0.717753 0.430350
v 0.249713 -0.734122 0.440753
v 0.253487 -0.719628 0.450586
v 0.084592 -0.628674 0.218122
v 0.286409 -0.685794 0.426666
v 0.282753 -0.719172 0.422813
v 0.006884 -0.603311 0.111747
v -0.000139 -0.674025 0.106644
v 0.003573 -0.602542 0.108919
v -0.004162 -0.673790 0.104978
v 0.254136 -0.717547 0.425821
v 0.249852 -0.734122 0.435443
v 0.253487 -0.734122 0.450586
v 0.250953 -0.734122 0.445918
v 0.005762 -0.597704 0.081583
v 0.285761 -0.689608 0.451431
v 0.288944 -0.686834 0.431334
v 0.278224 -0.718636 0.420038
v 0.285761 -0.721823 0.451431
v 0.282753 -0.734122 0.422813
v -0.008395 -0.673622 0.103962
v -0.022311 -0.671694 0.085279
v 0.257988 -0.717487 0.422165
v 0.251360 -0.734122 0.430350
v 0.253487 -0.685583 0.450586
v 0.257143 -0.720198 0.454439
v 0.288536 -0.689231 0.446902
v 0.281908 -0.689718 0.455087
v 0.288944 -0.720310 0.431334
v 0.273131 -0.718172 0.418530
v 0.281908 -0.721883 0.455087
v 0.288536 -0.721618 0.446902
v 0.286409 -0.734122 0.426666
v -0.000139 -0.601979 0.106644
v -0.012736 -0.673524 0.103620
v -0.004162 -0.601548 0.104978
v 0.262656 -0.717577 0.419631
v 0.257988 -0.734122 0.422165
v 0.254136 -0.734122 0.425821
v 0.257143 -0.734122 0.454439
v 0.277240 -0.689554 0.457622
v 0.290184 -0.687795 0.436499
v 0.288944 -0.734122 0.431334
v 0.290045 -0.688613 0.441809
v 0.267821 -0.717810 0.418391
v 0.278224 -0.734122 0.420038
v 0.277240 -0.721793 0.457622
v 0.288536 -0.734122 0.446902
v 0.281908 -0.734122 0.455087
v 0.285761 -0.734122 0.451431
v -0.003161 -0.597704 0.085279
v 0.003095 -0.602452 0.108626
v -0.008395 -0.601239 0.103962
v -0.017076 -0.673622 0.103962
v 0.262656 -0.734122 0.419631
v 0.261672 -0.720734 0.457214
v 0.257143 -0.686630 0.454439
v 0.290045 -0.721280 0.441809
v 0.272075 -0.689126 0.458862
v 0.290184 -0.720834 0.436499
v 0.272075 -0.721560 0.458862
v 0.273131 -0.734122 0.418530
v 0.277240 -0.734122 0.457622
v -0.012736 -0.601059 0.103620
v -0.021310 -0.673790 0.104978
v 0.266765 -0.721199 0.458723
v 0.267821 -0.734122 0.418391
v 0.261672 -0.687612 0.457214
v 0.261672 -0.734122 0.457214
v 0.266765 -0.688464 0.458723
v 0.290184 -0.734122 0.436499
v 0.272075 -0.734122 0.458862
v 0.290045 -0.734122 0.441809
v -0.025332 -0.674025 0.106644
v 0.266765 -0.734122 0.458723
vn 0.707107 0.000000 -0.707107
vn -0.707107 0.000000 0.707107
vn 1.000000 0.000000 0.000000
vn -1.000000 0.000000 0.000000
vn 0.000000 -1.000000 0.000000
vn 0.000000 1.000000 0.000000
vn 0.102903 0.994309 0.027573
vn -0.102903 -0.994309 -0.027573
vn 0.156434 0.000000 -0.987688
vn -0.156434 0.000000 0.987688
vn 0.309017 0.000000 -0.951057
vn -0.309017 0.000000 0.951057
vn -0.951057 0.000000 0.309017
vn 0.951057 0.000000 -0.309017
vn 0.000000 0.000000 -1.000000
vn 0.000000 0.000000 1.000000
vn 0.099263 0.994211 0.041116
vn -0.099263 -0.994211 -0.041116
vn 0.587785 0.000000 0.809017
vn -0.587785 0.000000 -0.809017
vn 0.092260 0.994309 0.053267
vn -0.092260 -0.994309 -0.053267
vn 0.075330 0.994309 0.075330
vn -0.075330 -0.994309 -0.075330
vn 0.760406 0.000000 -0.649448
vn -0.760406 0.000000 0.649448
vn 0.809017 0.000000 -0.587785
vn -0.809017 0.000000 0.587785
vn 0.453990 0.000000 -0.891007
vn -0.453990 0.000000 0.891007
vn 0.951057 0.000000 0.309017
vn -0.951057 0.000000 -0.309017
vn 0.085239 0.994211 0.065406
vn -0.085239 -0.994211 -0.065406
vn 0.053267 0.994309 0.092260
vn -0.053267 -0.994309 -0.092260
vn 0.587785 0.000000 -0.809017
vn -0.587785 0.000000 0.809017
vn 0.891007 0.000000 -0.453990
vn -0.891007 0.000000 0.453990
vn 0.987688 0.000000 0.156434
vn -0.987688 0.000000 -0.156434
vn 0.996917 0.000000 -0.078459
vn -0.996917 0.000000 0.078459
vn 0.987688 0.000000 -0.156434
vn -0.987688 0.000000 0.156434
vn 0.065406 0.994211 0.085239
vn -0.065406 -0.994211 -0.085239
vn 0.041116 0.994211 0.099263
vn -0.041116 -0.994211 -0.099263
vn 0.027573 0.994309 0.102903
vn -0.027573 -0.994309 -0.102903
vn 0.136292 0.981249 0.136292
vn 0.154185 0.980933 0.118310
vn -0.154185 -0.980933 -0.118310
vn -0.136292 -0.981249 -0.136292
vn 0.852640 0.000000 -0.522499
vn -0.852640 0.000000 0.522499
vn -0.994522 0.000000 0.104528
vn 0.994522 0.000000 -0.104528
vn -0.933580 0.000000 0.358368
vn 0.933580 0.000000 -0.358368
vn 0.014024 0.994211 0.106523
vn -0.014024 -0.994211 -0.106523
vn -0.522499 0.000000 0.852640
vn 0.522499 0.000000 -0.852640
vn 0.000000 0.994309 0.106533
vn 0.000000 -0.994309 -0.106533
vn -0.913545 0.000000 -0.406737
vn 0.913545 0.000000 0.406737
vn -0.878817 0.000000 0.477159
vn 0.878817 0.000000 -0.477159
vn 0.096373 0.981249 0.166922
vn 0.074373 0.980933 0.179552
vn -0.096373 -0.981249 -0.166922
vn -0.074373 -0.980933 -0.179552
vn 0.118310 0.980933 0.154185
vn -0.118310 -0.980933 -0.154185
vn 0.725374 0.000000 -0.688355
vn 0.629320 0.000000 -0.777146
vn -0.629320 0.000000 0.777146
vn -0.725374 0.000000 0.688355
vn -0.777146 0.000000 -0.629320
vn 0.777146 0.000000 0.629320
vn 0.406737 0.000000 -0.913545
vn -0.406737 0.000000 0.913545
vn -0.027573 0.994309 0.102903
vn 0.027573 -0.994309 -0.102903
vn 0.049886 0.981249 0.186178
vn -0.049886 -0.981249 -0.186178
vn -0.014024 0.994211 0.106523
vn 0.014024 -0.994211 -0.106523
vn -0.358368 0.000000 -0.933580
vn 0.358368 0.000000 0.933580
vn -0.104528 0.000000 -0.994522
vn 0.104528 0.000000 0.994522
vn 0.025367 0.980933 0.192683
vn -0.025367 -0.980933 -0.192683
usemtl material-0
f 5//17 2//21 6//21
f 6//22 2//22 5//18
f 8//17 1//7 5//17
f 5//18 1//8 8//18
f 3//23 10//33 6//21
f 6//22 10//34 3//24
f 7//35 11//23 3//23
f 3//24 11//24 7//36
f 4//31 12//41 8//41
f 8//42 12//42 4//32
f 12//41 4//31 9//31
f 9//32 4//32 12//42
f 13//3 6//43 5//3
f 5//4 6//44 13//4
f 12//41 5//3 8//41
f 8//42 5//4 12//42
f 3//23 14//33 10//33
f 10//34 14//34 3//24
f 6//43 15//43 10//45
f 10//46 15//44 6//44
f 16//35 11//23 7//35
f 7//36 11//24 16//36
f 17//33 3//23 11//23
f 11//24 3//24 17//34
f 6//43 13//3 15//43
f 15//44 13//4 6//44
f 5//3 12//41 13//3
f 13//4 12//42 5//4
f 3//23 19//33 14//33
f 14//34 19//34 3//24
f 20//45 14//14 10//45
f 10//46 14//13 20//46
f 10//45 15//43 20//45
f 20//46 15//44 10//46
f 21//47 11//23 16//35
f 16//36 11//24 21//48
f 7//35 22//49 16//35
f 16//36 22//50 7//36
f 3//23 17//33 19//33
f 19//34 17//34 3//24
f 17//27 23//27 11//27
f 11//28 23//28 17//28
f 24//49 7//35 18//51
f 18//52 7//36 24//50
f 25//14 19//39 14//14
f 14//13 19//40 25//13
f 14//14 20//45 25//14
f 25//13 20//46 14//13
f 27//47 11//23 21//47
f 21//48 11//24 27//48
f 16//35 28//47 21//47
f 21//48 28//48 16//36
f 22//49 7//35 29//49
f 29//50 7//36 22//50
f 16//28 30//28 22//28
f 22//27 30//27 16//27
f 19//39 31//57 17//57
f 17//58 31//58 19//40
f 23//27 17//27 31//27
f 31//28 17//28 23//28
f 11//27 23//27 32//27
f 32//28 23//28 11//28
f 29//49 7//35 24//49
f 24//50 7//36 29//50
f 24//49 18//51 33//51
f 33//52 18//52 24//50
f 19//39 25//14 35//39
f 35//40 25//13 19//40
f 26//53 25//54 20//54
f 20//55 25//55 26//56
f 36//47 11//23 27//47
f 27//48 11//24 36//48
f 27//42 37//59 21//59
f 21//60 37//60 27//41
f 28//47 27//47 21//47
f 21//48 27//48 28//48
f 28//47 16//35 38//47
f 38//48 16//36 28//48
f 37//59 28//61 21//59
f 21//60 28//62 37//60
f 30//26 29//2 22//26
f 22//25 29//1 30//25
f 30//28 16//28 39//28
f 39//27 16//27 30//27
f 31//57 19//39 35//39
f 35//40 19//40 31//58
f 31//54 26//53 23//53
f 23//56 26//56 31//55
f 32//27 23//27 40//27
f 40//28 23//28 32//28
f 11//23 41//47 32//47
f 32//48 41//48 11//24
f 42//2 24//38 29//2
f 29//1 24//37 42//1
f 18//51 43//63 33//51
f 33//52 43//64 18//52
f 44//38 33//65 24//38
f 24//37 33//66 44//37
f 45//63 18//51 34//67
f 34//68 18//52 45//64
f 26//53 35//54 25//54
f 25//55 35//55 26//56
f 46//47 11//23 36//47
f 36//48 11//24 46//48
f 36//69 47//42 27//42
f 27//41 47//41 36//70
f 28//47 36//47 27//47
f 27//48 36//48 28//48
f 37//59 27//42 47//42
f 47//41 27//41 37//60
f 39//28 16//28 38//28
f 38//27 16//27 39//27
f 38//47 36//47 28//47
f 28//48 36//48 38//48
f 28//61 48//71 38//71
f 38//72 48//72 28//62
f 28//61 37//59 49//61
f 49//62 37//60 28//62
f 29//2 30//26 42//2
f 42//1 30//25 29//1
f 50//73 30//74 39//73
f 39//75 30//76 50//75
f 26//53 31//54 35//54
f 35//55 31//55 26//56
f 50//73 23//53 26//53
f 26//56 23//56 50//75
f 51//77 40//77 23//53
f 23//56 40//78 51//78
f 52//62 32//72 40//72
f 40//71 32//71 52//61
f 41//47 11//23 53//47
f 53//48 11//24 41//48
f 54//47 32//47 41//47
f 41//48 32//48 54//48
f 32//79 55//80 41//80
f 41//81 55//81 32//82
f 24//38 42//2 44//38
f 44//37 42//1 24//37
f 43//63 18//51 45//63
f 45//64 18//52 43//64
f 33//65 44//38 43//30
f 43//29 44//37 33//66
f 45//63 34//67 56//63
f 56//64 34//68 45//64
f 58//47 11//23 46//47
f 46//48 11//24 58//48
f 46//83 59//69 36//69
f 36//70 59//70 46//84
f 38//47 46//47 36//47
f 36//48 46//48 38//48
f 47//42 36//69 59//69
f 59//70 36//70 47//41
f 47//5 49//5 37//5
f 37//6 49//6 47//6
f 39//28 38//28 60//28
f 60//27 38//27 39//27
f 48//71 28//61 49//61
f 49//62 28//62 48//72
f 48//82 61//81 38//82
f 38//79 61//80 48//79
f 30//74 50//73 42//74
f 42//76 50//75 30//76
f 39//73 23//53 50//73
f 50//75 23//56 39//75
f 62//77 40//77 51//77
f 51//78 40//78 62//78
f 51//77 23//53 63//77
f 63//78 23//56 51//78
f 32//72 52//62 64//62
f 64//61 52//61 32//71
f 62//77 52//77 40//77
f 40//78 52//78 62//78
f 53//47 11//23 65//47
f 65//48 11//24 53//48
f 55//80 53//85 41//80
f 41//81 53//86 55//81
f 66//47 41//47 53//47
f 53//48 41//48 66//48
f 67//47 32//47 54//47
f 54//48 32//48 67//48
f 54//47 41//47 66//47
f 66//48 41//48 54//48
f 55//80 32//79 68//79
f 68//82 32//82 55//81
f 42//74 50//73 44//74
f 44//76 50//75 42//76
f 69//30 45//12 43//30
f 43//29 45//11 69//29
f 43//30 44//38 69//30
f 69//29 44//37 43//29
f 56//63 34//67 70//67
f 70//68 34//68 56//64
f 71//12 56//10 45//12
f 45//11 56//9 71//11
f 57//87 70//67 34//67
f 34//68 70//68 57//88
f 72//47 11//23 58//47
f 58//48 11//24 72//48
f 61//47 58//47 46//47
f 46//48 58//48 61//48
f 73//20 46//83 58//20
f 58//19 46//84 73//19
f 59//69 46//83 74//83
f 74//84 46//84 59//70
f 61//47 46//47 38//47
f 38//48 46//48 61//48
f 59//5 49//5 47//5
f 47//6 49//6 59//6
f 61//81 60//82 38//82
f 38//79 60//79 61//80
f 60//77 23//53 39//73
f 39//75 23//56 60//78
f 59//5 48//5 49//5
f 49//6 48//6 59//6
f 61//81 48//82 75//81
f 75//80 48//79 61//80
f 51//84 67//70 62//70
f 62//69 67//69 51//83
f 63//77 23//53 76//77
f 76//78 23//56 63//78
f 63//19 54//84 51//84
f 51//83 54//83 63//20
f 77//60 64//62 52//62
f 52//61 64//61 77//59
f 78//62 32//72 64//62
f 64//61 32//71 78//61
f 67//47 64//47 32//47
f 32//48 64//48 67//48
f 79//77 52//77 62//77
f 62//78 52//78 79//78
f 65//47 11//23 80//47
f 80//48 11//24 65//48
f 81//85 65//9 53//85
f 53//86 65//10 81//86
f 82//47 53//47 65//47
f 65//48 53//48 82//48
f 53//85 55//80 81//85
f 81//86 55//81 53//86
f 66//47 53//47 82//47
f 82//48 53//48 66//48
f 67//70 51//84 54//84
f 54//83 51//83 67//69
f 54//84 83//70 67//70
f 67//69 83//69 54//83
f 54//84 63//19 66//19
f 66//20 63//20 54//83
f 84//19 54//84 66//19
f 66//20 54//83 84//20
f 32//72 78//62 68//72
f 68//71 78//61 32//71
f 68//5 85//5 55//5
f 55//6 85//6 68//6
f 44//74 50//73 86//89
f 86//90 50//75 44//76
f 45//12 69//30 71//12
f 71//11 69//29 45//11
f 69//30 44//38 87//65
f 87//66 44//37 69//29
f 88//10 70//16 56//10
f 56//9 70//15 88//9
f 56//10 71//12 88//10
f 88//9 71//11 56//9
f 70//67 57//87 89//91
f 89//92 57//88 70//68
f 80//47 11//23 72//47
f 72//48 11//24 80//48
f 90//93 58//20 72//93
f 72//94 58//19 90//94
f 91//47 72//47 58//47
f 58//48 72//48 91//48
f 91//47 58//47 61//47
f 61//48 58//48 91//48
f 46//83 73//20 74//83
f 74//84 73//19 46//84
f 58//20 90//93 73//20
f 73//19 90//94 58//19
f 74//5 48//5 59//5
f 59//6 48//6 74//6
f 60//82 61//81 92//81
f 92//80 61//80 60//79
f 92//77 23//53 60//77
f 60//78 23//56 92//78
f 74//5 75//5 48//5
f 48//6 75//6 74//6
f 75//81 91//86 61//81
f 61//80 91//85 75//80
f 93//41 62//70 67//70
f 67//69 62//69 93//42
f 76//77 23//53 94//77
f 94//78 23//56 76//78
f 82//94 63//19 76//94
f 76//93 63//20 82//93
f 64//62 77//60 95//60
f 95//59 77//59 64//61
f 52//77 79//77 77//77
f 77//78 79//78 52//78
f 95//60 78//62 64//62
f 64//61 78//61 95//59
f 93//47 64//47 67//47
f 67//48 64//48 93//48
f 62//70 93//41 79//41
f 79//42 93//42 62//69
f 96//47 65//47 80//47
f 80//48 65//48 96//48
f 97//9 80//95 65//9
f 65//10 80//96 97//10
f 65//9 81//85 97//9
f 97//10 81//86 65//10
f 82//47 65//47 96//47
f 96//48 65//48 82//48
f 55//5 84//5 81//5
f 81//6 84//6 55//6
f 63//19 82//94 66//19
f 66//20 82//93 63//20
f 98//94 66//19 82//94
f 82//93 66//20 98//93
f 83//70 54//84 85//84
f 85//83 54//83 83//69
f 83//70 93//41 67//70
f 67//69 93//42 83//69
f 54//84 84//19 85//84
f 85//83 84//20 54//83
f 66//19 98//94 84//19
f 84//20 98//93 66//20
f 78//5 83//5 68//5
f 68//6 83//6 78//6
f 68//5 83//5 85//5
f 85//6 83//6 68//6
f 55//5 85//5 84//5
f 84//6 85//6 55//6
f 44//74 86//89 87//89
f 87//90 86//90 44//76
f 86//89 69//97 87//89
f 87//90 69//98 86//90
f 70//16 88//10 99//16
f 99//15 88//9 70//15
f 89//91 57//87 100//91
f 100//92 57//88 89//92
f 101//47 80//47 72//47
f 72//48 80//48 101//48
f 102//95 72//93 80//95
f 80//96 72//94 102//96
f 72//93 102//95 90//93
f 90//94 102//96 72//94
f 101//47 72//47 91//47
f 91//48 72//48 101//48
f 103//86 61//81 91//86
f 91//85 61//80 103//85
f 73//5 75//5 74//5
f 74//6 75//6 73//6
f 90//5 104//5 73//5
f 73//6 104//6 90//6
f 61//81 103//86 92//81
f 92//80 103//85 61//80
f 103//77 23//53 92//77
f 92//78 23//56 103//78
f 91//86 75//81 104//86
f 104//85 75//80 91//85
f 94//77 23//53 105//77
f 105//78 23//56 94//78
f 96//96 76//94 94//96
f 94//95 76//93 96//95
f 76//94 96//96 82//94
f 82//93 96//95 76//93
f 79//41 95//60 77//60
f 77//59 95//59 79//42
f 64//47 93//47 95//47
f 95//48 93//48 64//48
f 78//62 95//60 106//60
f 106//59 95//59 78//61
f 95//60 79//41 93//41
f 93//42 79//42 95//59
f 96//47 80//47 101//47
f 101//48 80//48 96//48
f 80//95 97//9 102//95
f 102//96 97//10 80//96
f 81//5 98//5 97//5
f 97//6 98//6 81//6
f 107//96 82//94 96//96
f 96//95 82//93 107//95
f 81//5 84//5 98//5
f 98//6 84//6 81//6
f 82//94 107//96 98//94
f 98//93 107//95 82//93
f 93//41 83//70 108//41
f 108//42 83//69 93//42
f 78//5 108//5 83//5
f 83//6 108//6 78//6
f 100//91 57//87 109//91
f 109//92 57//88 100//92
f 102//5 110//5 90//5
f 90//6 110//6 102//6
f 105//10 91//86 101//10
f 101//9 91//85 105//9
f 104//86 101//10 91//86
f 91//85 101//9 104//85
f 91//86 105//10 103//86
f 103//85 105//9 91//85
f 73//5 104//5 75//5
f 75//6 104//6 73//6
f 90//5 110//5 104//5
f 104//6 110//6 90//6
f 105//77 23//53 103//77
f 103//78 23//56 105//78
f 101//10 94//96 105//10
f 105//9 94//95 101//9
f 94//96 101//10 96//96
f 96//95 101//9 94//95
f 93//41 106//60 95//60
f 95//59 106//59 93//42
f 108//5 78//5 106//5
f 106//6 78//6 108//6
f 110//10 96//96 101//10
f 101//9 96//95 110//9
f 97//5 107//5 102//5
f 102//6 107//6 97//6
f 97//5 98//5 107//5
f 107//6 98//6 97//6
f 96//96 110//10 107//96
f 107//95 110//9 96//95
f 106//60 93//41 108//41
f 108//42 93//42 106//59
f 102//5 107//5 110//5
f 110//6 107//6 102//6
f 101//10 104//86 110//10
f 110//9 104//85 101//9