mtllib new-11.mtl
v 0.040949 0.112866 -0.238187
v 0.095920 0.073615 -0.273671
v 0.041620 0.073615 -0.275149
v 0.094579 0.112866 -0.236727
v 0.095920 0.067193 -0.273671
v -0.012698 0.112866 -0.238674
v 0.041460 0.068023 -0.266328
v 0.150185 0.073615 -0.271207
v 0.041620 0.067193 -0.275149
v 0.150185 0.067193 -0.271207
v -0.012698 0.073615 -0.275642
v -0.012698 0.068023 -0.266819
v 0.095600 0.068023 -0.264854
v 0.148173 0.112866 -0.234294
v 0.149705 0.068023 -0.262398
v -0.066345 0.112866 -0.238187
v -0.066856 0.068023 -0.266328
v -0.012698 0.067193 -0.275642
v 0.204395 0.073615 -0.267760
v 0.204395 0.067193 -0.267760
v 0.203755 0.068023 -0.258960
v -0.067016 0.073615 -0.275149
v -0.067016 0.067193 -0.275149
v 0.201714 0.112866 -0.230889
v -0.119974 0.112866 -0.236727
v -0.120996 0.068023 -0.264854
v 0.258535 0.073615 -0.263329
v 0.258535 0.067193 -0.263329
v 0.257735 0.068023 -0.254542
v 0.255185 0.112866 -0.226513
v -0.121316 0.073615 -0.273671
v -0.121316 0.067193 -0.273671
v -0.173569 0.112866 -0.234294
v -0.175100 0.068023 -0.262398
v 0.282978 0.090761 -0.244652
v 0.282978 0.067193 -0.260881
v 0.282978 0.090761 -0.237672
v -0.175580 0.073615 -0.271207
v -0.175580 0.067193 -0.271207
v 0.282978 0.073615 -0.260881
v 0.282970 0.096141 -0.239560
v 0.282978 0.068023 -0.252014
v 0.282970 0.096141 -0.234279
v -0.227110 0.112866 -0.230889
v -0.229151 0.068023 -0.258960
v 0.282947 0.101522 -0.234469
v 0.282947 0.101522 -0.230888
v -0.229791 0.073615 -0.267760
v -0.229791 0.067193 -0.267760
v 0.282908 0.106902 -0.229381
v 0.282908 0.106902 -0.227498
v -0.280580 0.112866 -0.226513
v -0.283131 0.068023 -0.254542
v 0.282853 0.112283 -0.224294
v 0.282853 0.112283 -0.224110
v -0.283930 0.073615 -0.263329
v -0.283930 0.067193 -0.263329
v 0.282845 0.112866 -0.223743
v -0.308450 0.090761 -0.244644
v -0.308450 0.090761 -0.237664
v -0.308450 0.068023 -0.252007
v -0.308450 0.073615 -0.260873
v -0.308442 0.096141 -0.239552
v -0.308442 0.096141 -0.234271
v -0.308450 0.067193 -0.260873
v -0.308418 0.101522 -0.234462
v -0.308418 0.101522 -0.230880
v -0.308379 0.106902 -0.229373
v -0.308379 0.106902 -0.227490
v -0.308324 0.112283 -0.224286
v -0.308324 0.112283 -0.224102
vn 0.013210 0.685620 -0.727840
vn 0.026415 0.685620 -0.727480
vn -0.013210 -0.685620 0.727840
vn -0.026415 -0.685620 0.727480
vn 0.036286 0.000000 -0.999341
vn 0.018146 0.000000 -0.999835
vn -0.036286 0.000000 0.999341
vn -0.018146 0.000000 0.999835
vn 0.000000 0.685620 -0.727959
vn 0.000000 -0.685620 0.727959
vn -0.015370 -0.531604 0.846853
vn -0.030734 -0.531604 0.846435
vn 0.015370 0.531604 -0.846853
vn 0.030734 0.531604 -0.846435
vn 0.039612 0.685620 -0.726881
vn -0.039612 -0.685620 0.726881
vn 0.054415 0.000000 -0.998518
vn -0.054415 0.000000 0.998518
vn 0.000000 -0.531604 0.846993
vn 0.000000 0.531604 -0.846993
vn -0.003397 -0.995609 0.093545
vn -0.001699 -0.995609 0.093591
vn 0.003397 0.995609 -0.093545
vn 0.001699 0.995609 -0.093591
vn 0.000000 0.000000 -1.000000
vn 0.000000 0.000000 1.000000
vn -0.005094 -0.995609 0.093468
vn 0.005094 0.995609 -0.093468
vn -0.013210 0.685620 -0.727840
vn 0.013210 -0.685620 0.727840
vn 0.015370 -0.531604 0.846853
vn -0.015370 0.531604 -0.846853
vn -0.046089 -0.531604 0.845738
vn 0.046089 0.531604 -0.845738
vn 0.000000 -0.995609 0.093606
vn 0.000000 0.995609 -0.093606
vn 0.052795 0.685620 -0.726042
vn -0.052795 -0.685620 0.726042
vn 0.072525 0.000000 -0.997367
vn -0.072525 0.000000 0.997367
vn -0.006789 -0.995609 0.093360
vn 0.006789 0.995609 -0.093360
vn 0.001699 -0.995609 0.093591
vn -0.001699 0.995609 -0.093591
vn -0.018146 0.000000 -0.999835
vn 0.018146 0.000000 0.999835
vn -0.061428 -0.531604 0.844762
vn 0.061428 0.531604 -0.844762
vn -0.026415 0.685620 -0.727480
vn 0.026415 -0.685620 0.727480
vn 0.030734 -0.531604 0.846435
vn -0.030734 0.531604 -0.846435
vn 0.003397 -0.995609 0.093545
vn -0.003397 0.995609 -0.093545
vn 0.065961 0.685620 -0.724965
vn -0.065961 -0.685620 0.724965
vn 0.090611 0.000000 -0.995886
vn -0.090611 0.000000 0.995886
vn -0.008482 -0.995609 0.093221
vn 0.008482 0.995609 -0.093221
vn -0.076747 -0.531604 0.843509
vn 0.076747 0.531604 -0.843509
vn -0.036286 0.000000 -0.999341
vn 0.036286 0.000000 0.999341
vn -0.039612 0.685620 -0.726881
vn 0.039612 -0.685620 0.726881
vn 0.046089 -0.531604 0.845738
vn -0.046089 0.531604 -0.845738
vn 0.005094 -0.995609 0.093468
vn -0.005094 0.995609 -0.093468
vn 0.072538 0.685605 -0.724351
vn -0.072538 -0.685605 0.724351
vn 0.099644 0.000000 -0.995023
vn -0.099644 0.000000 0.995023
vn -0.009328 -0.995609 0.093144
vn 0.009328 0.995609 -0.093144
vn -0.084399 -0.531589 0.842787
vn 0.084399 0.531589 -0.842787
vn -0.054415 0.000000 -0.998518
vn 0.054415 0.000000 0.998518
vn -0.052795 0.685620 -0.726042
vn 0.052795 -0.685620 0.726042
vn 0.061428 -0.531604 0.844762
vn -0.061428 0.531604 -0.844762
vn 0.006789 -0.995609 0.093360
vn -0.006789 0.995609 -0.093360
vn -1.000000 0.000000 0.000000
vn 1.000000 0.000000 0.000000
vn -0.072525 0.000000 -0.997367
vn 0.072525 0.000000 0.997367
vn -0.065961 0.685620 -0.724965
vn 0.065961 -0.685620 0.724965
vn 0.076747 -0.531604 0.843509
vn -0.076747 0.531604 -0.843509
vn 0.008482 -0.995609 0.093221
vn -0.008482 0.995609 -0.093221
vn -0.090611 0.000000 -0.995886
vn 0.090611 0.000000 0.995886
vn -0.072538 0.685605 -0.724351
vn 0.072538 -0.685605 0.724351
vn 0.084399 -0.531589 0.842787
vn -0.084399 0.531589 -0.842787
vn 0.009328 -0.995609 0.093144
vn -0.009328 0.995609 -0.093144
vn -0.099644 0.000000 -0.995023
vn 0.099644 0.000000 0.995023
usemtl material-0
f 1//1 2//2 3//1
f 2//2 1//1 4//2
f 3//3 2//4 1//3
f 4//4 1//3 2//4
f 5//5 3//6 2//5
f 2//7 3//8 5//7
f 3//1 6//9 1//1
f 1//3 6//10 3//3
f 7//11 4//12 1//11
f 1//13 4//14 7//13
f 4//2 8//15 2//2
f 2//4 8//16 4//4
f 3//6 5//5 9//6
f 9//8 5//7 3//8
f 2//5 10//17 5//5
f 5//7 10//18 2//7
f 6//9 3//1 11//9
f 11//10 3//3 6//10
f 12//19 1//11 6//19
f 6//20 1//13 12//20
f 4//12 7//11 13//12
f 13//14 7//13 4//14
f 1//11 12//19 7//11
f 7//13 12//20 1//13
f 8//15 4//2 14//15
f 14//16 4//4 8//16
f 10//17 2//5 8//17
f 8//18 2//7 10//18
f 13//21 9//22 5//21
f 5//23 9//24 13//23
f 9//6 11//25 3//6
f 3//8 11//26 9//8
f 15//27 5//21 10//27
f 10//28 5//23 15//28
f 11//9 16//29 6//9
f 6//10 16//30 11//10
f 6//19 17//31 12//19
f 12//20 17//32 6//20
f 9//22 13//21 7//22
f 7//24 13//23 9//24
f 13//12 14//33 4//12
f 4//14 14//34 13//14
f 18//35 7//22 12//35
f 12//36 7//24 18//36
f 14//15 19//37 8//15
f 8//16 19//38 14//16
f 8//17 20//39 10//17
f 10//18 20//40 8//18
f 5//21 15//27 13//21
f 13//23 15//28 5//23
f 11//25 9//6 18//25
f 18//26 9//8 11//26
f 10//27 21//41 15//27
f 15//28 21//42 10//28
f 16//29 11//9 22//29
f 22//30 11//10 16//30
f 17//31 6//19 16//31
f 16//32 6//20 17//32
f 23//43 12//35 17//43
f 17//44 12//36 23//44
f 7//22 18//35 9//22
f 9//24 18//36 7//24
f 14//33 13//12 15//33
f 15//34 13//14 14//34
f 12//35 23//43 18//35
f 18//36 23//44 12//36
f 19//37 14//15 24//37
f 24//38 14//16 19//38
f 20//39 8//17 19//39
f 19//40 8//18 20//40
f 21//41 10//27 20//41
f 20//42 10//28 21//42
f 18//25 22//45 11//25
f 11//26 22//46 18//26
f 24//47 15//33 21//47
f 21//48 15//34 24//48
f 22//29 25//49 16//29
f 16//30 25//50 22//30
f 16//31 26//51 17//31
f 17//32 26//52 16//32
f 26//53 23//43 17//43
f 17//44 23//44 26//54
f 15//33 24//47 14//33
f 14//34 24//48 15//34
f 22//45 18//25 23//45
f 23//46 18//26 22//46
f 24//37 27//55 19//37
f 19//38 27//56 24//38
f 19//39 28//57 20//39
f 20//40 28//58 19//40
f 20//41 29//59 21//41
f 21//42 29//60 20//42
f 21//47 30//61 24//47
f 24//48 30//62 21//48
f 25//49 22//29 31//49
f 31//50 22//30 25//50
f 26//51 16//31 25//51
f 25//52 16//32 26//52
f 23//43 26//53 32//53
f 32//54 26//54 23//44
f 23//45 31//63 22//45
f 22//46 31//64 23//46
f 27//55 24//37 30//55
f 30//56 24//38 27//56
f 28//57 19//39 27//57
f 27//58 19//40 28//58
f 29//59 20//41 28//59
f 28//60 20//42 29//60
f 30//61 21//47 29//61
f 29//62 21//48 30//62
f 31//49 33//65 25//49
f 25//50 33//66 31//50
f 25//51 34//67 26//51
f 26//52 34//68 25//52
f 34//69 32//53 26//53
f 26//54 32//54 34//70
f 31//63 23//45 32//63
f 32//64 23//46 31//64
f 35//71 27//55 30//55
f 30//56 27//56 35//72
f 27//57 36//73 28//57
f 28//58 36//74 27//58
f 36//75 29//59 28//59
f 28//60 29//60 36//76
f 29//61 37//77 30//61
f 30//62 37//78 29//62
f 33//65 31//49 38//65
f 38//66 31//50 33//66
f 34//67 25//51 33//67
f 33//68 25//52 34//68
f 32//53 34//69 39//69
f 39//70 34//70 32//54
f 32//63 38//79 31//63
f 31//64 38//80 32//64
f 27//55 35//71 40//71
f 40//72 35//72 27//56
f 35//71 30//55 41//71
f 41//72 30//56 35//72
f 36//73 27//57 40//73
f 40//74 27//58 36//74
f 29//59 36//75 42//75
f 42//76 36//76 29//60
f 37//77 29//61 42//77
f 42//78 29//62 37//78
f 30//61 37//77 43//77
f 43//78 37//78 30//62
f 38//65 44//81 33//65
f 33//66 44//82 38//66
f 33//67 45//83 34//67
f 34//68 45//84 33//68
f 45//85 39//69 34//69
f 34//70 39//70 45//86
f 38//79 32//63 39//79
f 39//80 32//64 38//80
f 40//87 42//87 35//87
f 35//88 42//88 40//88
f 41//71 30//55 46//71
f 46//72 30//56 41//72
f 42//87 40//87 36//87
f 36//88 40//88 42//88
f 35//87 42//87 37//87
f 37//88 42//88 35//88
f 30//61 43//77 47//77
f 47//78 43//78 30//62
f 44//81 38//65 48//81
f 48//82 38//66 44//82
f 45//83 33//67 44//83
f 44//84 33//68 45//84
f 39//69 45//85 49//85
f 49//86 45//86 39//70
f 39//79 48//89 38//79
f 38//80 48//90 39//80
f 46//71 30//55 50//71
f 50//72 30//56 46//72
f 30//61 47//77 51//77
f 51//78 47//78 30//62
f 48//81 52//91 44//81
f 44//82 52//92 48//82
f 44//83 53//93 45//83
f 45//84 53//94 44//84
f 53//95 49//85 45//85
f 45//86 49//86 53//96
f 48//89 39//79 49//89
f 49//90 39//80 48//90
f 50//71 30//55 54//71
f 54//72 30//56 50//72
f 30//61 51//77 55//77
f 55//78 51//78 30//62
f 52//91 48//81 56//91
f 56//92 48//82 52//92
f 53//93 44//83 52//93
f 52//94 44//84 53//94
f 49//85 53//95 57//95
f 57//96 53//96 49//86
f 49//89 56//97 48//89
f 48//90 56//98 49//90
f 54//71 30//55 58//71
f 58//72 30//56 54//72
f 30//61 55//77 58//77
f 58//78 55//78 30//62
f 56//91 59//99 52//91
f 52//92 59//100 56//92
f 60//101 53//93 52//93
f 52//94 53//94 60//102
f 61//103 57//95 53//95
f 53//96 57//96 61//104
f 56//97 49//89 57//97
f 57//98 49//90 56//98
f 59//99 56//91 62//99
f 62//100 56//92 59//100
f 52//91 59//99 63//99
f 63//100 59//100 52//92
f 53//93 60//101 61//101
f 61//102 60//102 53//94
f 60//101 52//93 64//101
f 64//102 52//94 60//102
f 57//95 61//103 65//103
f 65//104 61//104 57//96
f 57//97 62//105 56//97
f 56//98 62//106 57//98
f 59//88 65//88 62//88
f 62//87 65//87 59//87
f 52//91 63//99 66//99
f 66//100 63//100 52//92
f 61//88 59//88 60//88
f 60//87 59//87 61//87
f 64//101 52//93 67//101
f 67//102 52//94 64//102
f 65//88 59//88 61//88
f 61//87 59//87 65//87
f 52//91 66//99 68//99
f 68//100 66//100 52//92
f 67//101 52//93 69//101
f 69//102 52//94 67//102
f 52//91 68//99 70//99
f 70//100 68//100 52//92
f 69//101 52//93 71//101
f 71//102 52//94 69//102