mtllib new-3.mtl
v -0.031233 -0.671694 0.081583
v -0.021310 -0.673790 0.104978
v -0.028566 -0.674283 0.108626
v -0.025332 -0.674025 0.106644
v -0.021310 -0.601548 0.104978
v -0.029044 -0.674332 0.108919
v -0.038895 -0.671694 0.075704
v -0.022311 -0.597704 0.085279
v -0.025332 -0.601979 0.106644
v -0.032355 -0.674752 0.111747
v -0.029044 -0.602542 0.108919
v -0.110064 -0.688586 0.218122
v -0.044774 -0.671694 0.068042
v -0.035183 -0.675199 0.115057
v -0.032355 -0.603311 0.111747
v -0.104707 -0.681666 0.141517
v -0.028566 -0.602452 0.108626
v -0.035183 -0.604131 0.115057
v -0.031233 -0.597704 0.081583
v -0.308224 -0.719172 0.422813
v -0.110064 -0.628674 0.218122
v -0.068105 -0.675213 0.091138
v -0.311881 -0.719743 0.426666
v -0.303696 -0.718636 0.420038
v -0.278959 -0.685583 0.450586
v -0.063105 -0.673962 0.078626
v -0.065830 -0.674774 0.087426
v -0.068105 -0.604157 0.091138
v -0.104707 -0.615987 0.141517
v -0.311232 -0.721823 0.451431
v -0.311881 -0.734122 0.426666
v -0.307379 -0.721883 0.455087
v -0.303696 -0.734122 0.420038
v -0.298603 -0.718172 0.418530
v -0.311881 -0.685794 0.426666
v -0.278959 -0.719628 0.450586
v -0.062806 -0.673775 0.074829
v -0.063148 -0.674001 0.079170
v -0.064164 -0.674367 0.083403
v -0.038895 -0.597704 0.075704
v -0.314008 -0.721618 0.446902
v -0.308224 -0.734122 0.422813
v -0.314415 -0.734122 0.431334
v -0.302711 -0.721793 0.457622
v -0.298603 -0.734122 0.418530
v -0.293293 -0.717810 0.418391
v -0.282615 -0.686630 0.454439
v -0.276424 -0.719061 0.445918
v -0.063105 -0.601862 0.078626
v -0.065830 -0.603352 0.087426
v -0.044774 -0.597704 0.068042
v -0.314415 -0.686834 0.431334
v -0.307379 -0.689718 0.455087
v -0.311232 -0.734122 0.451431
v -0.314415 -0.720310 0.431334
v -0.314008 -0.689231 0.446902
v -0.314008 -0.734122 0.446902
v -0.307379 -0.734122 0.455087
v -0.302711 -0.734122 0.457622
v -0.297547 -0.721560 0.458862
v -0.293293 -0.734122 0.418391
v -0.288128 -0.717577 0.419631
v -0.287144 -0.687612 0.457214
v -0.282615 -0.720198 0.454439
v -0.275184 -0.718536 0.440753
v -0.276832 -0.717753 0.430350
v -0.276424 -0.734122 0.445918
v -0.063148 -0.601934 0.079170
v -0.064164 -0.602605 0.083403
v -0.311232 -0.689608 0.451431
v -0.315516 -0.721280 0.441809
v -0.315516 -0.688613 0.441809
v -0.315516 -0.734122 0.441809
v -0.315655 -0.734122 0.436499
v -0.302711 -0.689554 0.457622
v -0.297547 -0.734122 0.458862
v -0.292237 -0.721199 0.458723
v -0.288128 -0.734122 0.419631
v -0.283460 -0.717487 0.422165
v -0.292237 -0.688464 0.458723
v -0.282615 -0.734122 0.454439
v -0.279607 -0.717547 0.425821
v -0.275323 -0.718090 0.435443
v -0.278959 -0.734122 0.450586
v -0.315655 -0.720834 0.436499
v -0.297547 -0.689126 0.458862
v -0.292237 -0.734122 0.458723
v -0.287144 -0.720734 0.457214
v -0.283460 -0.734122 0.422165
v -0.287144 -0.734122 0.457214
v -0.275323 -0.734122 0.435443
v -0.275184 -0.734122 0.440753
v -0.276832 -0.734122 0.430350
v -0.279607 -0.734122 0.425821
v -0.315655 -0.687795 0.436499
vn 1.000000 0.000000 0.000000
vn -1.000000 0.000000 0.000000
vn 0.000000 -1.000000 0.000000
vn 0.000000 1.000000 0.000000
vn -0.309017 0.000000 -0.951057
vn 0.309017 0.000000 0.951057
vn 0.707107 0.000000 0.707107
vn -0.707107 0.000000 -0.707107
vn -0.156434 0.000000 -0.987688
vn 0.156434 0.000000 0.987688
vn 0.453990 0.000000 0.891007
vn -0.453990 0.000000 -0.891007
vn 0.587785 0.000000 0.809017
vn -0.587785 0.000000 -0.809017
vn -0.891007 0.000000 -0.453990
vn 0.891007 0.000000 0.453990
vn 0.951057 0.000000 0.309017
vn -0.951057 0.000000 -0.309017
vn 0.587785 0.000000 -0.809017
vn -0.587785 0.000000 0.809017
vn 0.809017 0.000000 0.587785
vn -0.809017 0.000000 -0.587785
vn 0.987688 0.000000 0.156434
vn -0.987688 0.000000 -0.156434
vn 0.987688 0.000000 -0.156434
vn -0.987688 0.000000 0.156434
vn -0.053267 0.994309 0.092260
vn 0.053267 -0.994309 -0.092260
vn -0.996917 0.000000 -0.078459
vn 0.996917 0.000000 0.078459
vn -0.041116 0.994211 0.099263
vn 0.041116 -0.994211 -0.099263
vn -0.760406 0.000000 -0.649448
vn 0.760406 0.000000 0.649448
vn -0.049886 0.981249 0.186178
vn 0.049886 -0.981249 -0.186178
vn -0.025367 0.980933 0.192683
vn 0.025367 -0.980933 -0.192683
vn 0.522499 0.000000 0.852640
vn -0.522499 0.000000 -0.852640
vn -0.075330 0.994309 0.075330
vn 0.075330 -0.994309 -0.075330
vn -0.092260 0.994309 0.053267
vn 0.092260 -0.994309 -0.053267
vn -0.074373 0.980933 0.179552
vn -0.096373 0.981249 0.166922
vn 0.074373 -0.980933 -0.179552
vn 0.096373 -0.981249 -0.166922
vn -0.065406 0.994211 0.085239
vn 0.065406 -0.994211 -0.085239
vn -0.085239 0.994211 0.065406
vn 0.085239 -0.994211 -0.065406
vn -0.629320 0.000000 -0.777146
vn -0.725374 0.000000 -0.688355
vn 0.725374 0.000000 0.688355
vn 0.629320 0.000000 0.777146
vn -0.406737 0.000000 -0.913545
vn 0.406737 0.000000 0.913545
vn -0.118310 0.980933 0.154185
vn 0.118310 -0.980933 -0.154185
vn -0.852640 0.000000 -0.522499
vn 0.852640 0.000000 0.522499
vn -0.136292 0.981249 0.136292
vn 0.136292 -0.981249 -0.136292
vn -0.933580 0.000000 -0.358368
vn -0.878817 0.000000 -0.477159
vn 0.878817 0.000000 0.477159
vn 0.933580 0.000000 0.358368
vn -0.166922 0.981249 0.096373
vn -0.154185 0.980933 0.118310
vn 0.154185 -0.980933 -0.118310
vn 0.166922 -0.981249 -0.096373
vn -0.777146 0.000000 0.629320
vn 0.777146 0.000000 -0.629320
vn -0.913545 0.000000 0.406737
vn 0.913545 0.000000 -0.406737
vn -0.358368 0.000000 0.933580
vn 0.358368 0.000000 -0.933580
vn 0.104528 0.000000 -0.994522
vn -0.104528 0.000000 0.994522
vn -0.994522 0.000000 -0.104528
vn 0.994522 0.000000 0.104528
usemtl material-0
f 2//6 9//11 4//11
f 4//12 9//12 2//5
f 3//39 11//13 6//13
f 6//14 11//14 3//40
f 11//13 3//39 4//11
f 4//12 3//40 11//14
f 7//41 12//27 1//27
f 1//28 12//28 7//42
f 11//13 4//11 9//11
f 9//12 4//12 11//14
f 5//37 8//35 9//37
f 9//38 8//36 5//38
f 6//13 15//7 10//7
f 10//8 15//8 6//14
f 15//7 6//13 11//13
f 11//14 6//14 15//8
f 12//27 7//41 16//41
f 16//42 7//42 12//28
f 14//31 1//27 12//27
f 12//28 1//28 14//32
f 13//43 16//41 7//41
f 7//42 16//42 13//44
f 11//13 9//11 17//39
f 17//40 9//12 11//14
f 9//37 8//35 17//35
f 17//36 8//36 9//38
f 10//7 18//34 14//34
f 14//33 18//33 10//8
f 18//34 10//7 15//7
f 15//8 10//8 18//33
f 11//45 19//46 15//45
f 15//47 19//48 11//47
f 12//27 16//41 20//49
f 20//50 16//42 12//28
f 14//21 21//21 12//21
f 12//22 21//22 14//22
f 16//41 13//43 22//51
f 22//52 13//44 16//42
f 17//35 19//46 11//45
f 11//47 19//48 17//36
f 19//46 17//35 8//35
f 8//36 17//36 19//48
f 21//21 14//21 18//21
f 18//22 14//22 21//22
f 15//45 19//46 18//45
f 18//47 19//48 15//47
f 20//49 16//41 23//49
f 23//50 16//42 20//50
f 12//27 20//49 24//49
f 24//50 20//50 12//28
f 12//21 21//21 25//21
f 25//22 21//22 12//22
f 16//22 28//22 22//22
f 22//21 28//21 16//21
f 18//45 19//46 21//46
f 21//48 19//48 18//47
f 29//22 16//22 23//22
f 23//21 16//21 29//21
f 30//49 20//49 23//49
f 23//50 20//50 30//50
f 20//53 31//54 23//54
f 23//55 31//55 20//56
f 32//49 24//49 20//49
f 20//50 24//50 32//50
f 33//57 20//53 24//57
f 24//58 20//56 33//58
f 12//27 24//49 34//49
f 34//50 24//50 12//28
f 21//46 35//59 25//59
f 25//60 35//60 21//48
f 12//21 25//21 36//21
f 36//22 25//22 12//22
f 28//61 27//15 22//61
f 22//62 27//16 28//62
f 28//22 16//22 29//22
f 29//21 16//21 28//21
f 40//63 21//46 19//46
f 19//48 21//48 40//64
f 29//22 23//22 35//22
f 35//21 23//21 29//21
f 32//49 20//49 30//49
f 30//50 20//50 32//50
f 30//49 23//49 41//49
f 41//50 23//50 30//50
f 31//54 20//53 42//53
f 42//56 20//56 31//55
f 43//65 23//66 31//66
f 31//67 23//67 43//68
f 44//49 24//49 32//49
f 32//50 24//50 44//50
f 20//53 33//57 42//53
f 42//56 33//58 20//56
f 24//57 45//9 33//57
f 33//58 45//10 24//58
f 44//49 34//49 24//49
f 24//50 34//50 44//50
f 45//9 24//57 34//9
f 34//10 24//58 45//10
f 12//27 34//49 46//49
f 46//50 34//50 12//28
f 21//46 29//63 35//59
f 35//60 29//64 21//48
f 25//59 35//59 47//59
f 47//60 35//60 25//60
f 47//56 36//55 25//55
f 25//54 36//54 47//53
f 12//27 48//49 36//49
f 36//50 48//50 12//28
f 49//29 37//2 26//29
f 26//30 37//1 49//30
f 49//29 26//29 38//24
f 38//23 26//30 49//30
f 50//15 39//18 27//15
f 27//16 39//17 50//16
f 27//15 28//61 50//15
f 50//16 28//62 27//16
f 29//63 51//69 28//70
f 28//71 51//72 29//64
f 21//46 40//63 29//63
f 29//64 40//64 21//48
f 23//66 52//65 35//66
f 35//67 52//68 23//67
f 53//20 30//73 32//20
f 32//19 30//74 53//19
f 54//73 32//20 30//73
f 30//74 32//19 54//74
f 41//49 23//49 55//49
f 55//50 23//50 41//50
f 30//73 56//75 41//75
f 41//76 56//76 30//74
f 57//75 30//73 41//75
f 41//76 30//74 57//76
f 42//3 54//3 31//3
f 31//4 54//4 42//4
f 23//66 43//65 55//65
f 55//68 43//68 23//67
f 31//3 57//3 43//3
f 43//4 57//4 31//4
f 44//77 53//20 32//20
f 32//19 53//19 44//78
f 58//20 44//77 32//20
f 32//19 44//78 58//19
f 33//3 58//3 42//3
f 42//4 58//4 33//4
f 45//3 59//3 33//3
f 33//4 59//4 45//4
f 60//49 34//49 44//49
f 44//50 34//50 60//50
f 34//9 61//79 45//9
f 45//10 61//80 34//10
f 60//49 46//49 34//49
f 34//50 46//50 60//50
f 61//79 34//9 46//79
f 46//80 34//10 61//80
f 12//27 46//49 62//49
f 62//50 46//50 12//28
f 47//59 35//59 63//59
f 63//60 35//60 47//60
f 36//55 47//56 64//56
f 64//53 47//53 36//54
f 48//49 12//27 65//49
f 65//50 12//28 48//50
f 48//49 66//49 36//49
f 36//50 66//50 48//50
f 36//67 67//68 48//68
f 48//65 67//65 36//66
f 39//18 68//24 38//24
f 38//23 68//23 39//17
f 49//29 38//24 68//24
f 68//23 38//23 49//30
f 39//18 50//15 69//18
f 69//17 50//16 39//17
f 28//70 51//69 50//70
f 50//71 51//72 28//71
f 51//69 29//63 40//63
f 40//64 29//64 51//72
f 52//65 23//66 55//65
f 55//68 23//67 52//68
f 56//59 35//59 52//59
f 52//60 35//60 56//60
f 30//73 53//20 70//73
f 70//74 53//19 30//74
f 32//20 54//73 58//20
f 58//19 54//74 32//19
f 30//73 57//75 54//73
f 54//74 57//76 30//74
f 41//49 55//49 71//49
f 71//50 55//50 41//50
f 56//75 30//73 70//73
f 70//74 30//74 56//76
f 72//26 41//75 56//75
f 56//76 41//76 72//25
f 41//75 73//26 57//75
f 57//76 73//25 41//76
f 42//3 58//3 54//3
f 54//4 58//4 42//4
f 31//3 54//3 57//3
f 57//4 54//4 31//4
f 74//81 55//65 43//65
f 43//68 55//68 74//82
f 43//3 57//3 73//3
f 73//4 57//4 43//4
f 53//20 44//77 75//77
f 75//78 44//78 53//19
f 44//77 58//20 59//77
f 59//78 58//19 44//78
f 33//3 59//3 58//3
f 58//4 59//4 33//4
f 45//3 76//3 59//3
f 59//4 76//4 45//4
f 44//77 76//80 60//80
f 60//79 76//79 44//78
f 60//80 75//77 44//77
f 44//78 75//78 60//79
f 61//3 76//3 45//3
f 45//4 76//4 61//4
f 77//49 46//49 60//49
f 60//50 46//50 77//50
f 46//79 78//78 61//79
f 61//80 78//77 46//80
f 77//49 62//49 46//49
f 46//50 62//50 77//50
f 78//78 46//79 62//78
f 62//77 46//80 78//77
f 12//27 62//49 79//49
f 79//50 62//50 12//28
f 63//59 35//59 80//59
f 80//60 35//60 63//60
f 63//58 64//56 47//56
f 47//53 64//53 63//57
f 81//56 36//55 64//56
f 64//53 36//54 81//53
f 36//49 82//49 64//49
f 64//50 82//50 36//50
f 12//27 83//49 65//49
f 65//50 83//50 12//28
f 83//49 48//49 65//49
f 65//50 48//50 83//50
f 67//68 65//82 48//68
f 48//65 65//81 67//65
f 48//49 83//49 66//49
f 66//50 83//50 48//50
f 36//49 66//49 82//49
f 82//50 66//50 36//50
f 67//68 36//67 84//67
f 84//66 36//66 67//65
f 68//24 39//18 69//18
f 69//17 39//17 68//23
f 50//70 51//69 69//70
f 69//71 51//72 50//71
f 85//81 52//65 55//65
f 55//68 52//68 85//82
f 70//59 35//59 56//59
f 56//60 35//60 70//60
f 56//59 52//59 72//59
f 72//60 52//60 56//60
f 53//59 35//59 70//59
f 70//60 35//60 53//60
f 71//49 55//49 85//49
f 85//50 55//50 71//50
f 41//75 72//26 71//26
f 71//25 72//25 41//76
f 73//26 41//75 71//26
f 71//25 41//76 73//25
f 55//65 74//81 85//81
f 85//82 74//82 55//68
f 43//3 73//3 74//3
f 74//4 73//4 43//4
f 75//59 35//59 53//59
f 53//60 35//60 75//60
f 76//80 44//77 59//77
f 59//78 44//78 76//79
f 76//80 77//10 60//80
f 60//79 77//9 76//79
f 75//77 60//80 86//80
f 86//79 60//79 75//78
f 61//3 87//3 76//3
f 76//4 87//4 61//4
f 77//10 86//80 60//80
f 60//79 86//79 77//9
f 78//3 87//3 61//3
f 61//4 87//4 78//4
f 88//49 62//49 77//49
f 77//50 62//50 88//50
f 62//78 89//19 78//78
f 78//77 89//20 62//77
f 88//49 79//49 62//49
f 62//50 79//50 88//50
f 89//19 62//78 79//19
f 79//20 62//77 89//20
f 12//27 79//49 82//49
f 82//50 79//50 12//28
f 80//59 35//59 86//59
f 86//60 35//60 80//60
f 80//10 88//58 63//58
f 63//57 88//57 80//9
f 64//56 63//58 88//58
f 88//57 63//57 64//53
f 36//55 81//56 84//55
f 84//54 81//53 36//54
f 64//56 90//58 81//56
f 81//53 90//57 64//53
f 64//49 82//49 79//49
f 79//50 82//50 64//50
f 12//27 66//49 83//49
f 83//50 66//50 12//28
f 65//82 91//25 83//25
f 83//26 91//26 65//81
f 65//82 67//68 92//82
f 92//81 67//65 65//81
f 83//25 93//76 66//76
f 66//75 93//75 83//26
f 12//27 82//49 66//49
f 66//50 82//50 12//28
f 66//76 94//74 82//74
f 82//73 94//73 66//75
f 93//3 67//3 84//3
f 84//4 67//4 93//4
f 69//70 51//69 68//70
f 68//71 51//72 69//71
f 52//65 85//81 95//81
f 95//82 85//82 52//68
f 72//59 52//59 95//59
f 95//60 52//60 72//60
f 71//26 95//81 85//81
f 85//82 95//82 71//25
f 74//81 71//26 85//81
f 85//82 71//25 74//82
f 95//81 71//26 72//26
f 72//25 71//25 95//82
f 71//26 74//81 73//26
f 73//25 74//82 71//25
f 86//59 35//59 75//59
f 75//60 35//60 86//60
f 77//10 76//80 87//10
f 87//9 76//79 77//9
f 86//80 77//10 80//10
f 80//9 77//9 86//79
f 78//3 90//3 87//3
f 87//4 90//4 78//4
f 88//58 80//10 77//10
f 77//9 80//9 88//57
f 87//10 88//58 77//10
f 77//9 88//57 87//9
f 89//3 90//3 78//3
f 78//4 90//4 89//4
f 64//49 79//49 88//49
f 88//50 79//50 64//50
f 79//19 94//74 89//19
f 89//20 94//73 79//20
f 94//74 79//19 82//74
f 82//73 79//20 94//73
f 90//58 64//56 88//58
f 88//57 64//53 90//57
f 94//3 84//3 81//3
f 81//4 84//4 94//4
f 89//3 81//3 90//3
f 90//4 81//4 89//4
f 91//25 65//82 92//82
f 92//81 65//81 91//26
f 93//76 83//25 91//25
f 91//26 83//26 93//75
f 67//3 91//3 92//3
f 92//4 91//4 67//4
f 94//74 66//76 93//76
f 93//75 66//75 94//73
f 91//3 67//3 93//3
f 93//4 67//4 91//4
f 93//3 84//3 94//3
f 94//4 84//4 93//4
f 88//58 87//10 90//58
f 90//57 87//9 88//57
f 94//3 81//3 89//3
f 89//4 81//4 94//4