mtllib new-1.mtl
v -0.003161 -0.671694 0.013811
v 0.007611 -0.675180 -0.016649
v 0.010635 -0.674048 -0.004053
v -0.012736 -0.671694 0.012550
v 0.007611 -0.676153 -0.026391
v 0.007953 -0.674761 -0.012309
v 0.012910 -0.601513 -0.000341
v 0.008969 -0.674381 -0.008075
v -0.007470 -0.717227 -0.411732
v 0.007611 -0.605880 -0.026391
v 0.006918 -0.718971 -0.426119
v 0.007953 -0.603328 -0.012309
v 0.010635 -0.602020 -0.004053
v 0.008969 -0.602630 -0.008075
v 0.005762 -0.597704 0.017507
v -0.022311 -0.671694 0.013811
v -0.002562 -0.717514 -0.413764
v -0.012736 -0.717078 -0.411038
v 0.007611 -0.719545 -0.431385
v 0.007611 -0.604097 -0.016649
v 0.004885 -0.718417 -0.421212
v -0.018002 -0.717227 -0.411732
v 0.001652 -0.717920 -0.416998
v -0.007470 -0.734122 -0.411732
v -0.007470 -0.721438 -0.451039
v -0.012736 -0.734122 -0.411038
v -0.012736 -0.721438 -0.451733
v 0.007611 -0.685432 -0.431385
v -0.003161 -0.597704 0.013811
v 0.007611 -0.734122 -0.431385
v 0.006918 -0.720100 -0.436652
v 0.006918 -0.734122 -0.426119
v 0.004885 -0.720597 -0.441559
v -0.031233 -0.671694 0.017507
v -0.022909 -0.717514 -0.413764
v -0.002562 -0.734122 -0.413764
v -0.002562 -0.721290 -0.449007
v -0.018002 -0.734122 -0.411732
v -0.018002 -0.721438 -0.451039
v 0.006918 -0.686449 -0.436652
v 0.006918 -0.734122 -0.436652
v 0.004885 -0.734122 -0.421212
v 0.001652 -0.721003 -0.445773
v 0.001652 -0.734122 -0.416998
v -0.033083 -0.676153 -0.026391
v -0.022909 -0.734122 -0.413764
v -0.022909 -0.721290 -0.449007
v -0.002562 -0.734122 -0.449007
v -0.012736 -0.734122 -0.451733
v -0.007470 -0.688903 -0.451039
v -0.007470 -0.734122 -0.451039
v -0.018002 -0.734122 -0.451039
v -0.012736 -0.688903 -0.451733
v 0.004885 -0.687360 -0.441559
v 0.004885 -0.734122 -0.441559
v -0.033083 -0.675180 -0.016649
v -0.027123 -0.734122 -0.416998
v -0.027123 -0.721003 -0.445773
v -0.027123 -0.717920 -0.416998
v -0.002562 -0.688630 -0.449007
v 0.001652 -0.734122 -0.445773
v -0.022909 -0.734122 -0.449007
v -0.018002 -0.688903 -0.451039
v 0.001652 -0.688104 -0.445773
v -0.033083 -0.604097 -0.016649
v -0.033424 -0.674761 -0.012309
v -0.027123 -0.734122 -0.445773
v -0.022909 -0.688630 -0.449007
v -0.030357 -0.718417 -0.421212
v -0.012736 -0.597704 0.012550
v -0.038382 -0.673771 -0.000341
v -0.033083 -0.605880 -0.026391
v -0.034441 -0.674381 -0.008075
v -0.030357 -0.734122 -0.421212
v -0.030357 -0.734122 -0.441559
v -0.027123 -0.688104 -0.445773
v -0.030357 -0.720597 -0.441559
v -0.032389 -0.718971 -0.426119
v -0.022311 -0.597704 0.013811
v -0.036107 -0.674048 -0.004053
v -0.033083 -0.685432 -0.431385
v -0.031233 -0.597704 0.017507
v -0.033424 -0.603328 -0.012309
v -0.034441 -0.602630 -0.008075
v -0.032389 -0.720100 -0.436652
v -0.033083 -0.719545 -0.431385
v -0.036107 -0.602020 -0.004053
v -0.032389 -0.686449 -0.436652
v -0.032389 -0.734122 -0.436652
v -0.030357 -0.687360 -0.441559
v -0.032389 -0.734122 -0.426119
v -0.033083 -0.734122 -0.431385
vn 0.965926 0.000000 -0.258819
vn 0.866025 0.000000 -0.500000
vn -0.866025 0.000000 0.500000
vn -0.965926 0.000000 0.258819
vn 0.707107 0.000000 -0.707107
vn -0.707107 0.000000 0.707107
vn 1.000000 0.000000 0.000000
vn -1.000000 0.000000 0.000000
vn 0.000000 -1.000000 0.000000
vn 0.000000 1.000000 0.000000
vn 0.500000 0.000000 -0.866025
vn -0.500000 0.000000 0.866025
vn 0.965926 0.000000 0.258819
vn -0.965926 0.000000 -0.258819
vn 0.866025 0.000000 0.500000
vn -0.866025 0.000000 -0.500000
vn 0.707107 0.000000 0.707107
vn -0.707107 0.000000 -0.707107
vn 0.500000 0.000000 0.866025
vn -0.500000 0.000000 -0.866025
vn 0.258819 0.000000 -0.965926
vn -0.258819 0.000000 0.965926
vn 0.041116 0.994211 -0.099263
vn -0.041116 -0.994211 0.099263
vn -0.951057 0.000000 0.309017
vn 0.951057 0.000000 -0.309017
vn 0.000000 0.000000 -1.000000
vn 0.000000 0.000000 1.000000
vn 0.027573 0.994309 -0.102903
vn -0.027573 -0.994309 0.102903
vn 0.809017 0.000000 -0.587785
vn -0.809017 0.000000 0.587785
vn -0.891007 0.000000 -0.453990
vn 0.891007 0.000000 0.453990
vn 0.951057 0.000000 0.309017
vn -0.951057 0.000000 -0.309017
vn 0.258819 0.000000 0.965926
vn -0.258819 0.000000 -0.965926
vn 0.891007 0.000000 -0.453990
vn -0.891007 0.000000 0.453990
vn 0.809017 0.000000 0.587785
vn -0.809017 0.000000 -0.587785
vn 0.987688 0.000000 0.156434
vn -0.987688 0.000000 -0.156434
vn 0.996917 0.000000 -0.078459
vn -0.996917 0.000000 0.078459
vn 0.987688 0.000000 -0.156434
vn -0.987688 0.000000 0.156434
vn 0.014024 0.994211 -0.106523
vn 0.000000 0.994309 -0.106533
vn 0.000000 -0.994309 0.106533
vn -0.014024 -0.994211 0.106523
vn 0.096373 0.981249 -0.166922
vn -0.096373 -0.981249 0.166922
vn 0.074373 0.980933 -0.179552
vn -0.074373 -0.980933 0.179552
vn -0.014024 0.994211 -0.106523
vn -0.027573 0.994309 -0.102903
vn 0.027573 -0.994309 0.102903
vn 0.014024 -0.994211 0.106523
vn 0.049886 0.981249 -0.186178
vn -0.049886 -0.981249 0.186178
vn 0.991445 0.000000 0.130526
vn -0.991445 0.000000 -0.130526
vn 0.991445 0.000000 -0.130526
vn -0.991445 0.000000 0.130526
vn 0.025367 0.980933 -0.192683
vn -0.025367 -0.980933 0.192683
vn -0.053267 0.994309 -0.092260
vn 0.053267 -0.994309 0.092260
vn -0.041116 0.994211 -0.099263
vn 0.041116 -0.994211 0.099263
vn 0.000000 0.981249 -0.192745
vn 0.000000 -0.981249 0.192745
vn -0.025367 0.980933 -0.192683
vn 0.025367 -0.980933 0.192683
vn -0.996917 0.000000 -0.078459
vn 0.996917 0.000000 0.078459
vn -0.049886 0.981249 -0.186178
vn 0.049886 -0.981249 0.186178
vn -0.096373 0.981249 -0.166922
vn -0.074373 0.980933 -0.179552
vn 0.074373 -0.980933 0.179552
vn 0.096373 -0.981249 0.166922
usemtl material-0
f 1//29 2//23 5//29
f 5//30 2//24 1//30
f 1//29 9//49 4//50
f 4//51 9//52 1//30
f 5//7 10//7 2//7
f 2//8 10//8 5//8
f 5//29 11//49 1//29
f 1//30 11//52 5//30
f 2//45 12//47 6//47
f 6//48 12//48 2//46
f 7//31 3//39 13//39
f 13//40 3//40 7//32
f 14//26 3//39 8//26
f 8//25 3//40 14//25
f 1//29 17//49 9//49
f 9//52 17//52 1//30
f 4//50 9//49 18//50
f 18//51 9//52 4//51
f 19//7 10//7 5//7
f 5//8 10//8 19//8
f 2//7 10//7 20//7
f 20//8 10//8 2//8
f 11//49 5//29 19//49
f 19//52 5//30 11//52
f 1//29 11//49 21//49
f 21//52 11//52 1//30
f 6//47 14//26 8//26
f 8//25 14//25 6//48
f 12//47 2//45 20//45
f 20//46 2//46 12//48
f 14//26 6//47 12//47
f 12//48 6//48 14//25
f 3//39 14//26 13//39
f 13//40 14//25 3//40
f 15//53 7//55 13//55
f 13//56 7//56 15//54
f 4//50 22//57 16//58
f 16//59 22//60 4//51
f 1//29 23//49 17//49
f 17//52 23//52 1//30
f 24//37 17//19 9//37
f 9//38 17//20 24//38
f 17//49 25//49 9//49
f 9//52 25//52 17//52
f 26//28 9//37 18//28
f 18//27 9//38 26//27
f 9//49 27//50 18//50
f 18//51 27//51 9//52
f 22//57 4//50 18//50
f 18//51 4//51 22//60
f 10//7 19//7 28//7
f 28//8 19//8 10//8
f 29//61 20//55 10//61
f 10//62 20//56 29//62
f 11//13 30//63 19//63
f 19//64 30//64 11//14
f 31//49 11//49 19//49
f 19//52 11//52 31//52
f 21//15 32//13 11//13
f 11//14 32//14 21//16
f 11//49 33//49 21//49
f 21//52 33//52 11//52
f 1//29 21//49 23//49
f 23//52 21//52 1//30
f 15//53 12//55 20//55
f 20//56 12//56 15//54
f 15//53 14//55 12//55
f 12//56 14//56 15//54
f 15//53 13//55 14//55
f 14//56 13//56 15//54
f 16//58 22//57 35//57
f 35//60 22//60 16//59
f 36//19 23//17 17//19
f 17//20 23//18 36//20
f 23//49 37//49 17//49
f 17//52 37//52 23//52
f 17//19 24//37 36//19
f 36//20 24//38 17//20
f 9//37 26//28 24//37
f 24//38 26//27 9//38
f 17//49 37//49 25//49
f 25//52 37//52 17//52
f 9//49 25//49 27//50
f 27//51 25//52 9//52
f 18//28 38//22 26//28
f 26//27 38//21 18//27
f 39//57 18//50 27//50
f 27//51 18//51 39//60
f 38//22 18//28 22//22
f 22//21 18//27 38//21
f 18//50 39//57 22//57
f 22//60 39//60 18//51
f 31//1 28//65 19//65
f 19//66 28//66 31//4
f 40//67 10//61 28//67
f 28//68 10//62 40//68
f 20//55 29//61 15//53
f 15//54 29//62 20//56
f 10//61 40//67 29//61
f 29//62 40//68 10//62
f 30//63 11//13 32//13
f 32//14 11//14 30//64
f 41//1 19//65 30//65
f 30//66 19//66 41//4
f 11//49 31//49 33//49
f 33//52 31//52 11//52
f 19//65 41//1 31//1
f 31//4 41//4 19//66
f 32//13 21//15 42//15
f 42//16 21//16 32//14
f 21//49 33//49 43//49
f 43//52 33//52 21//52
f 44//17 21//15 23//17
f 23//18 21//16 44//18
f 21//49 43//49 23//49
f 23//52 43//52 21//52
f 46//12 22//22 35//12
f 35//11 22//21 46//11
f 22//57 47//57 35//57
f 35//60 47//60 22//60
f 16//58 35//57 45//58
f 45//59 35//60 16//59
f 23//17 36//19 44//17
f 44//18 36//20 23//18
f 23//49 43//49 37//49
f 37//52 43//52 23//52
f 48//9 36//9 24//9
f 24//10 36//10 48//10
f 49//9 24//9 26//9
f 26//10 24//10 49//10
f 50//21 37//11 25//21
f 25//22 37//12 50//22
f 48//11 25//21 37//11
f 37//12 25//22 48//12
f 27//27 50//21 25//21
f 25//22 50//22 27//28
f 51//21 27//27 25//21
f 25//22 27//28 51//22
f 52//9 26//9 38//9
f 38//10 26//10 52//10
f 39//38 53//27 27//27
f 27//28 53//28 39//37
f 49//27 39//38 27//27
f 27//28 39//37 49//28
f 22//22 46//12 38//22
f 38//21 46//11 22//21
f 22//57 39//57 47//57
f 47//60 39//60 22//60
f 28//65 31//1 40//1
f 40//4 31//4 28//66
f 29//61 40//67 54//67
f 54//68 40//68 29//62
f 32//9 41//9 30//9
f 30//10 41//10 32//10
f 33//2 40//1 31//1
f 31//4 40//4 33//3
f 31//1 55//2 33//2
f 33//3 55//3 31//4
f 55//2 31//1 41//1
f 41//4 31//4 55//3
f 21//15 44//17 42//15
f 42//16 44//18 21//16
f 55//9 32//9 42//9
f 42//10 32//10 55//10
f 43//5 54//2 33//2
f 33//3 54//3 43//6
f 55//2 43//5 33//2
f 33//3 43//6 55//3
f 34//69 45//58 56//71
f 56//72 45//59 34//70
f 35//12 57//6 46//12
f 46//11 57//5 35//11
f 35//57 47//57 58//57
f 58//60 47//60 35//60
f 45//58 35//57 59//57
f 59//60 35//60 45//59
f 48//9 44//9 36//9
f 36//10 44//10 48//10
f 60//11 43//5 37//11
f 37//12 43//6 60//12
f 61//5 37//11 43//5
f 43//6 37//12 61//6
f 48//9 24//9 51//9
f 51//10 24//10 48//10
f 51//9 24//9 49//9
f 49//10 24//10 51//10
f 49//9 26//9 52//9
f 52//10 26//10 49//10
f 37//11 50//21 60//11
f 60//12 50//22 37//12
f 25//21 48//11 51//21
f 51//22 48//12 25//22
f 37//11 61//5 48//11
f 48//12 61//6 37//12
f 50//21 27//27 53//27
f 53//28 27//28 50//22
f 27//27 51//21 49//27
f 49//28 51//22 27//28
f 52//9 38//9 62//9
f 62//10 38//10 52//10
f 53//27 39//38 63//38
f 63//37 39//37 53//28
f 39//38 49//27 52//38
f 52//37 49//28 39//37
f 62//9 38//9 46//9
f 46//10 38//10 62//10
f 47//20 63//38 39//38
f 39//37 63//37 47//19
f 52//38 47//20 39//38
f 39//37 47//19 52//37
f 40//1 33//2 54//2
f 54//3 33//3 40//4
f 29//61 54//67 64//67
f 64//68 54//68 29//62
f 41//9 32//9 55//9
f 55//10 32//10 41//10
f 61//9 42//9 44//9
f 44//10 42//10 61//10
f 55//9 42//9 61//9
f 61//10 42//10 55//10
f 54//2 43//5 64//5
f 64//6 43//6 54//3
f 43//5 55//2 61//5
f 61//6 55//3 43//6
f 65//8 45//8 56//8
f 56//7 45//7 65//7
f 57//6 35//12 59//6
f 59//5 35//11 57//5
f 67//9 46//9 57//9
f 57//10 46//10 67//10
f 58//18 68//20 47//20
f 47//19 68//19 58//17
f 62//20 58//18 47//20
f 47//19 58//17 62//19
f 35//57 58//57 59//57
f 59//60 58//60 35//60
f 45//58 59//57 69//57
f 69//60 59//60 45//59
f 61//9 44//9 48//9
f 48//10 44//10 61//10
f 43//5 60//11 64//5
f 64//6 60//12 43//6
f 29//61 60//67 50//67
f 50//68 60//68 29//62
f 70//73 50//67 53//73
f 53//74 50//68 70//74
f 47//20 52//38 62//20
f 62//19 52//37 47//19
f 63//75 70//73 53//73
f 53//74 70//74 63//76
f 62//9 46//9 67//9
f 67//10 46//10 62//10
f 63//38 47//20 68//20
f 68//19 47//19 63//37
f 29//61 64//67 60//67
f 60//68 64//68 29//62
f 72//8 45//8 65//8
f 65//7 45//7 72//7
f 66//44 65//77 56//77
f 56//78 65//78 66//43
f 59//6 74//3 57//6
f 57//5 74//2 59//5
f 67//9 57//9 75//9
f 75//10 57//10 67//10
f 68//20 58//18 76//18
f 76//17 58//17 68//19
f 58//18 62//20 67//18
f 67//17 62//19 58//17
f 59//57 58//57 77//57
f 77//60 58//60 59//60
f 74//3 59//6 69//3
f 69//2 59//5 74//2
f 59//57 77//57 69//57
f 69//60 77//60 59//60
f 45//58 69//57 78//57
f 78//60 69//60 45//59
f 29//61 50//67 70//73
f 70//74 50//68 29//62
f 70//73 63//75 79//79
f 79//80 63//76 70//74
f 79//79 63//75 68//75
f 68//76 63//76 79//80
f 81//8 45//8 72//8
f 72//7 45//7 81//7
f 82//81 72//79 65//82
f 65//83 72//80 82//84
f 65//77 66//44 83//44
f 83//43 66//43 65//78
f 84//36 66//44 73//36
f 73//35 66//43 84//35
f 75//9 57//9 74//9
f 74//10 57//10 75//10
f 75//16 58//18 67//18
f 67//17 58//17 75//15
f 77//16 76//18 58//18
f 58//17 76//17 77//15
f 72//79 68//75 76//75
f 76//76 68//76 72//80
f 58//18 75//16 77//16
f 77//15 75//15 58//17
f 78//4 74//3 69//3
f 69//2 74//2 78//1
f 69//57 77//57 85//57
f 85//60 77//60 69//60
f 69//57 85//57 78//57
f 78//60 85//60 69//60
f 45//58 78//57 86//57
f 86//60 78//60 45//59
f 79//79 68//75 72//79
f 72//80 68//76 79//80
f 71//42 87//33 80//33
f 80//34 87//34 71//41
f 45//8 81//8 86//8
f 86//7 81//7 45//7
f 72//79 88//75 81//75
f 81//76 88//76 72//80
f 72//79 82//81 79//79
f 79//80 82//84 72//80
f 82//81 65//82 83//82
f 83//83 65//83 82//84
f 66//44 84//36 83//44
f 83//43 84//35 66//43
f 80//33 84//36 73//36
f 73//35 84//35 80//34
f 75//9 74//9 89//9
f 89//10 74//10 75//10
f 76//18 77//16 90//16
f 90//15 77//15 76//17
f 72//79 76//75 90//75
f 90//76 76//76 72//80
f 89//14 77//16 75//16
f 75//15 77//15 89//13
f 74//3 78//4 91//4
f 91//1 78//1 74//2
f 88//14 77//16 85//14
f 85//13 77//15 88//13
f 77//16 89//14 85//14
f 85//13 89//13 77//15
f 78//57 85//57 86//57
f 86//60 85//60 78//60
f 86//66 91//4 78//4
f 78//1 91//1 86//65
f 84//36 80//33 87//33
f 87//34 80//34 84//35
f 81//64 85//14 86//64
f 86//63 85//13 81//63
f 72//79 90//75 88//75
f 88//76 90//76 72//80
f 85//14 81//64 88//14
f 88//13 81//63 85//13
f 82//81 83//82 84//82
f 84//83 83//83 82//84
f 89//9 74//9 91//9
f 91//10 74//10 89//10
f 77//16 88//14 90//16
f 90//15 88//13 77//15
f 92//64 85//14 89//14
f 89//13 85//13 92//63
f 85//14 92//64 86//64
f 86//63 92//63 85//13
f 91//4 86//66 92//66
f 92//65 86//65 91//1
f 89//9 91//9 92//9
f 92//10 91//10 89//10