# SSTK version 0.8.0
# 29
mtllib original-29.mtl
o mesh54/mesh54-geometry#mesh54-geometry
v 0.282978 0.003823 0.009063
v 0.282978 0.046483 0.006496
v 0.282978 0.011087 0.006496
v 0.282978 0.046483 0.231410
v 0.282978 -0.052037 0.054180
v 0.282978 -0.055204 0.058190
v 0.282978 -0.056334 0.063173
v 0.282978 -0.056334 0.174185
v 0.282978 -0.052947 0.182360
v 0.282978 -0.009624 0.225684
v 0.282978 -0.002009 0.229056
vn -1 0 0
vn 1 0 0
usemtl material_0_0
f 1//1 2//1 3//1
f 2//1 1//1 4//1
f 3//2 2//2 1//2
f 4//2 1//2 2//2
f 4//1 1//1 5//1
f 5//2 1//2 4//2
f 4//1 5//1 6//1
f 6//2 5//2 4//2
f 4//1 6//1 7//1
f 7//2 6//2 4//2
f 4//1 7//1 8//1
f 8//2 7//2 4//2
f 4//1 8//1 9//1
f 9//2 8//2 4//2
f 4//1 9//1 10//1
f 10//2 9//2 4//2
f 4//1 10//1 11//1
f 11//2 10//2 4//2
