# SSTK version 0.8.0
# 24
mtllib original-24.mtl
o Group14/mesh45/mesh45-geometry#mesh45-geometry
v -0.440167 -0.032155 -0.010451
v -0.440167 -0.032155 -0.072407
v -0.436876 -0.031697 -0.010336
v -0.443487 -0.032017 -0.072373
v -0.436876 -0.031697 -0.072293
v -0.443487 -0.032017 -0.010416
v -0.433719 -0.030658 -0.010077
v -0.446729 -0.031287 -0.010234
v -0.446729 -0.031287 -0.072191
v -0.433719 -0.030658 -0.072034
v -0.430800 -0.029070 -0.009681
v -0.449788 -0.029988 -0.009910
v -0.449788 -0.029988 -0.071867
v -0.430800 -0.029070 -0.071638
v -0.385568 0.001084 -0.002163
v -0.452566 -0.028163 -0.009455
v -0.452566 -0.028163 -0.071412
v -0.385568 0.001084 -0.064120
v -0.311579 0.001084 -0.002163
v -0.454972 -0.025871 -0.008884
v -0.454972 -0.025871 -0.070840
v -0.311579 0.001084 -0.064120
v -0.385568 0.028830 0.004755
v -0.456928 -0.023185 -0.008214
v -0.456928 -0.023185 -0.070171
v -0.311579 0.028830 -0.057202
v -0.311579 0.028830 0.004755
v -0.432433 -0.002413 -0.003035
v -0.458373 -0.020192 -0.007468
v -0.458373 -0.020192 -0.069425
v -0.385568 0.028830 -0.057202
v -0.433309 -0.002889 -0.003154
v -0.459259 -0.016989 -0.006669
v -0.459259 -0.016989 -0.068626
v -0.432433 -0.002413 -0.064992
v -0.434256 -0.003201 -0.003232
v -0.459558 -0.013680 -0.005844
v -0.459558 -0.013680 -0.067801
v -0.433309 -0.002889 -0.065110
v -0.435243 -0.003339 -0.003266
v -0.435243 -0.003339 -0.065223
v -0.434256 -0.003201 -0.065188
v -0.459558 0.093571 -0.041060
v -0.436239 -0.003297 -0.003255
v -0.436239 -0.003297 -0.065212
v -0.459558 0.093571 0.020896
v -0.440971 0.001211 -0.064088
v -0.437212 -0.003078 -0.003201
v -0.437212 -0.003078 -0.065158
v -0.441060 0.093571 -0.041060
v -0.440971 0.001211 -0.002131
v -0.441060 0.002204 -0.063841
v -0.440705 0.000250 -0.064328
v -0.438130 -0.002688 -0.003104
v -0.438130 -0.002688 -0.065060
v -0.441060 0.093571 0.020896
v -0.440705 0.000250 -0.002371
v -0.441060 0.002204 -0.001884
v -0.440272 -0.000647 -0.064552
v -0.438963 -0.002141 -0.002967
v -0.438963 -0.002141 -0.064924
v -0.440272 -0.000647 -0.002595
v -0.439684 -0.001453 -0.064752
v -0.439684 -0.001453 -0.002796
vn 0.04828398299892288 -0.9988336483047414 0
vn 0.2262269139032562 -0.9740746292896705 0
vn -0.2262269139032562 0.9740746292896705 0
vn -0.04828398299892288 0.9988336483047414 0
vn -0.1312179398470858 -0.9913535455438118 0
vn 0.1312179398470858 0.9913535455438118 0
vn 0 -0.24192192963701717 0.9702957177895314
vn 0 0.24192192963701717 -0.9702957177895314
vn 0.396869095489494 -0.91787522084723 0
vn -0.396869095489494 0.91787522084723 0
vn -0.30648394458280404 -0.9518758278856357 0
vn 0.30648394458280404 0.9518758278856357 0
vn 0.47771571769851834 -0.8785144808503669 0
vn -0.47771571769851834 0.8785144808503669 0
vn -0.47185781649712605 -0.8816746571216416 0
vn 0.47185781649712605 0.8816746571216416 0
vn 0.5547001962252291 -0.8320502943378437 0
vn -0.5547001962252291 0.8320502943378437 0
vn -0.6220018307346649 -0.7830157869179429 0
vn 0.6220018307346649 0.7830157869179429 0
vn 0 -1 0
vn 0 1 0
vn -0.7520696224776897 -0.6590836691545809 0
vn 0.7520696224776897 0.6590836691545809 0
vn 1 0 0
vn -1 0 0
vn -0.8578632034624426 -0.5138781218782871 0
vn 0.8578632034624426 0.5138781218782871 0
vn -0.9359672430435817 -0.35208709142681904 0
vn 0.9359672430435817 0.35208709142681904 0
vn -0.9838616370510495 -0.17893093399194332 0
vn 0.9838616370510495 0.17893093399194332 0
vn -0.9959572016365358 -0.08982901818633574 0
vn 0.9959572016365358 0.08982901818633574 0
usemtl material_0_0
f 1//1 2//1 3//2
f 3//3 2//4 1//4
f 2//1 1//1 4//5
f 4//6 1//4 2//4
f 5//2 3//2 2//1
f 2//4 3//3 5//3
f 1//7 3//7 6//7
f 6//8 3//8 1//8
f 6//5 4//5 1//1
f 1//4 4//6 6//6
f 2//8 4//8 5//8
f 5//7 4//7 2//7
f 3//2 5//2 7//9
f 7//10 5//3 3//3
f 8//7 6//7 3//7
f 3//8 6//8 8//8
f 4//5 6//5 9//11
f 9//12 6//6 4//6
f 9//8 5//8 4//8
f 4//7 5//7 9//7
f 10//9 7//9 5//2
f 5//3 7//10 10//10
f 7//7 8//7 3//7
f 3//8 8//8 7//8
f 8//11 9//11 6//5
f 6//6 9//12 8//12
f 10//8 5//8 9//8
f 9//7 5//7 10//7
f 7//9 10//9 11//13
f 11//14 10//10 7//10
f 12//7 8//7 7//7
f 7//8 8//8 12//8
f 9//11 8//11 13//15
f 13//16 8//12 9//12
f 13//8 10//8 9//8
f 9//7 10//7 13//7
f 14//13 11//13 10//9
f 10//10 11//14 14//14
f 11//7 12//7 7//7
f 7//8 12//8 11//8
f 12//15 13//15 8//11
f 8//12 13//16 12//16
f 14//8 10//8 13//8
f 13//7 10//7 14//7
f 11//17 14//17 15//17
f 15//18 14//18 11//18
f 16//7 12//7 11//7
f 11//8 12//8 16//8
f 13//15 12//15 17//19
f 17//20 12//16 13//16
f 17//8 14//8 13//8
f 13//7 14//7 17//7
f 18//17 15//17 14//17
f 14//18 15//18 18//18
f 15//7 16//7 11//7
f 11//8 16//8 15//8
f 16//19 17//19 12//15
f 12//16 17//20 16//20
f 18//8 14//8 17//8
f 17//7 14//7 18//7
f 15//21 18//21 19//21
f 19//22 18//22 15//22
f 20//7 16//7 15//7
f 15//8 16//8 20//8
f 17//19 16//19 21//23
f 21//24 16//20 17//20
f 21//8 18//8 17//8
f 17//7 18//7 21//7
f 22//21 19//21 18//21
f 18//22 19//22 22//22
f 19//7 23//7 15//7
f 15//8 23//8 19//8
f 20//23 21//23 16//19
f 16//20 21//24 20//24
f 24//7 20//7 15//7
f 15//8 20//8 24//8
f 25//8 18//8 21//8
f 21//7 18//7 25//7
f 22//25 26//25 19//25
f 19//26 26//26 22//26
f 22//8 18//8 26//8
f 26//7 18//7 22//7
f 27//7 23//7 19//7
f 19//8 23//8 27//8
f 23//7 28//7 15//7
f 15//8 28//8 23//8
f 21//23 20//23 25//27
f 25//28 20//24 21//24
f 24//27 25//27 20//23
f 20//24 25//28 24//28
f 29//7 24//7 15//7
f 15//8 24//8 29//8
f 30//8 18//8 25//8
f 25//7 18//7 30//7
f 27//25 19//25 26//25
f 26//26 19//26 27//26
f 31//8 26//8 18//8
f 18//7 26//7 31//7
f 27//22 26//22 23//22
f 23//21 26//21 27//21
f 23//18 31//18 28//18
f 28//17 31//17 23//17
f 28//7 32//7 15//7
f 15//8 32//8 28//8
f 25//27 24//27 30//29
f 30//30 24//28 25//28
f 29//29 30//29 24//27
f 24//28 30//30 29//30
f 33//7 29//7 15//7
f 15//8 29//8 33//8
f 34//8 18//8 30//8
f 30//7 18//7 34//7
f 31//22 23//22 26//22
f 26//21 23//21 31//21
f 31//8 18//8 35//8
f 35//7 18//7 31//7
f 35//18 28//18 31//18
f 31//17 28//17 35//17
f 28//14 35//14 32//10
f 32//9 35//13 28//13
f 32//7 36//7 15//7
f 15//8 36//8 32//8
f 30//29 29//29 34//31
f 34//32 29//30 30//30
f 33//31 34//31 29//29
f 29//30 34//32 33//32
f 37//7 33//7 15//7
f 15//8 33//8 37//8
f 38//8 18//8 34//8
f 34//7 18//7 38//7
f 35//8 18//8 39//8
f 39//7 18//7 35//7
f 39//10 32//10 35//14
f 35//13 32//9 39//9
f 32//10 39//10 36//3
f 36//2 39//9 32//9
f 36//7 40//7 15//7
f 15//8 40//8 36//8
f 34//31 33//31 38//33
f 38//34 33//32 34//32
f 37//33 38//33 33//31
f 33//32 38//34 37//34
f 40//7 37//7 15//7
f 15//8 37//8 40//8
f 41//8 18//8 38//8
f 38//7 18//7 41//7
f 39//8 18//8 42//8
f 42//7 18//7 39//7
f 42//3 36//3 39//10
f 39//9 36//2 42//2
f 36//3 42//3 40//4
f 40//1 42//2 36//2
f 38//26 37//26 43//26
f 43//25 37//25 38//25
f 40//7 44//7 37//7
f 37//8 44//8 40//8
f 42//8 18//8 41//8
f 41//7 18//7 42//7
f 41//8 38//8 45//8
f 45//7 38//7 41//7
f 41//4 40//4 42//3
f 42//2 40//1 41//1
f 46//26 43//26 37//26
f 37//25 43//25 46//25
f 43//8 47//8 38//8
f 38//7 47//7 43//7
f 40//4 41//4 44//6
f 44//5 41//1 40//1
f 48//7 37//7 44//7
f 44//8 37//8 48//8
f 45//8 38//8 49//8
f 49//7 38//7 45//7
f 45//6 44//6 41//4
f 41//1 44//5 45//5
f 43//22 46//22 50//22
f 50//21 46//21 43//21
f 46//7 37//7 51//7
f 51//8 37//8 46//8
f 52//8 47//8 43//8
f 43//7 47//7 52//7
f 53//8 38//8 47//8
f 47//7 38//7 53//7
f 54//7 37//7 48//7
f 48//8 37//8 54//8
f 44//6 45//6 48//12
f 48//11 45//5 44//5
f 49//8 38//8 55//8
f 55//7 38//7 49//7
f 49//12 48//12 45//6
f 45//5 48//11 49//11
f 56//22 50//22 46//22
f 46//21 50//21 56//21
f 50//8 52//8 43//8
f 43//7 52//7 50//7
f 51//7 37//7 57//7
f 57//8 37//8 51//8
f 58//7 46//7 51//7
f 51//8 46//8 58//8
f 47//32 52//34 51//32
f 51//31 52//33 47//31
f 59//8 38//8 53//8
f 53//7 38//7 59//7
f 53//30 47//32 57//30
f 57//29 47//31 53//29
f 60//7 37//7 54//7
f 54//8 37//8 60//8
f 48//12 49//12 54//16
f 54//15 49//11 48//11
f 55//8 38//8 61//8
f 61//7 38//7 55//7
f 55//16 54//16 49//12
f 49//11 54//15 55//15
f 56//25 58//25 50//25
f 50//26 58//26 56//26
f 56//7 46//7 58//7
f 58//8 46//8 56//8
f 52//25 50//25 58//25
f 58//26 50//26 52//26
f 57//7 37//7 62//7
f 62//8 37//8 57//8
f 51//32 57//30 47//32
f 47//31 57//29 51//31
f 58//34 51//32 52//34
f 52//33 51//31 58//33
f 63//8 38//8 59//8
f 59//7 38//7 63//7
f 59//28 53//30 62//28
f 62//27 53//29 59//27
f 57//30 62//28 53//30
f 53//29 62//27 57//29
f 64//7 37//7 60//7
f 60//8 37//8 64//8
f 54//16 55//16 60//20
f 60//19 55//15 54//15
f 61//8 38//8 63//8
f 63//7 38//7 61//7
f 61//20 60//20 55//16
f 55//15 60//19 61//19
f 62//7 37//7 64//7
f 64//8 37//8 62//8
f 63//24 59//28 64//24
f 64//23 59//27 63//23
f 62//28 64//24 59//28
f 59//27 64//23 62//27
f 60//20 61//20 64//24
f 64//23 61//19 60//19
f 63//24 64//24 61//20
f 61//19 64//23 63//23
