# SSTK version 0.8.0
# 32
mtllib original-32.mtl
o Group18/mesh68/mesh68-geometry#mesh68-geometry
v 0.411331 -0.031697 -0.010336
v 0.414622 -0.032155 -0.072407
v 0.414622 -0.032155 -0.010451
v 0.411331 -0.031697 -0.072293
v 0.417943 -0.032017 -0.072373
v 0.417943 -0.032017 -0.010416
v 0.408174 -0.030658 -0.010077
v 0.421185 -0.031287 -0.010234
v 0.408174 -0.030658 -0.072034
v 0.421185 -0.031287 -0.072191
v 0.405255 -0.029070 -0.009681
v 0.424244 -0.029988 -0.009910
v 0.424244 -0.029988 -0.071867
v 0.405255 -0.029070 -0.071638
v 0.360023 0.001084 -0.002163
v 0.427021 -0.028163 -0.009455
v 0.427021 -0.028163 -0.071412
v 0.360023 0.001084 -0.064120
v 0.286034 0.001084 -0.002163
v 0.429427 -0.025871 -0.008884
v 0.429427 -0.025871 -0.070840
v 0.286034 0.001084 -0.064120
v 0.360023 0.028830 0.004755
v 0.431384 -0.023185 -0.008214
v 0.286034 0.028830 -0.057202
v 0.406888 -0.002413 -0.003035
v 0.286034 0.028830 0.004755
v 0.431384 -0.023185 -0.070171
v 0.432828 -0.020192 -0.007468
v 0.360023 0.028830 -0.057202
v 0.407764 -0.002889 -0.003154
v 0.432828 -0.020192 -0.069425
v 0.433714 -0.016989 -0.006669
v 0.406888 -0.002413 -0.064992
v 0.408711 -0.003201 -0.003232
v 0.433714 -0.016989 -0.068626
v 0.434013 -0.013680 -0.005844
v 0.407764 -0.002889 -0.065110
v 0.409698 -0.003339 -0.003266
v 0.434013 -0.013680 -0.067801
v 0.408711 -0.003201 -0.065188
v 0.409698 -0.003339 -0.065223
v 0.434013 0.093571 -0.041060
v 0.410694 -0.003297 -0.003255
v 0.410694 -0.003297 -0.065212
v 0.434013 0.093571 0.020896
v 0.415426 0.001211 -0.064088
v 0.411667 -0.003078 -0.003201
v 0.411667 -0.003078 -0.065158
v 0.415515 0.093571 -0.041060
v 0.415426 0.001211 -0.002131
v 0.415160 0.000250 -0.064328
v 0.415515 0.002204 -0.063841
v 0.412585 -0.002688 -0.003104
v 0.412585 -0.002688 -0.065060
v 0.415515 0.093571 0.020896
v 0.415160 0.000250 -0.002371
v 0.415515 0.002204 -0.001884
v 0.414727 -0.000647 -0.064552
v 0.413418 -0.002141 -0.002967
v 0.413418 -0.002141 -0.064924
v 0.414727 -0.000647 -0.002595
v 0.414140 -0.001453 -0.064752
v 0.414140 -0.001453 -0.002796
vn -0.2262269139032562 -0.9740746292896705 0
vn -0.04828398299892288 -0.9988336483047414 0
vn 0.04828398299892288 0.9988336483047414 0
vn 0.2262269139032562 0.9740746292896705 0
vn 0.1312179398470858 -0.9913535455438118 0
vn -0.1312179398470858 0.9913535455438118 0
vn 0 -0.24192192963701717 0.9702957177895314
vn 0 0.24192192963701717 -0.9702957177895314
vn -0.396869095489494 -0.91787522084723 0
vn 0.396869095489494 0.91787522084723 0
vn 0.30648394458280404 -0.9518758278856357 0
vn -0.30648394458280404 0.9518758278856357 0
vn -0.47771571769851834 -0.8785144808503669 0
vn 0.47771571769851834 0.8785144808503669 0
vn 0.47185781649712605 -0.8816746571216416 0
vn -0.47185781649712605 0.8816746571216416 0
vn -0.5547001962252291 -0.8320502943378437 0
vn 0.5547001962252291 0.8320502943378437 0
vn 0.6220018307346649 -0.7830157869179429 0
vn -0.6220018307346649 0.7830157869179429 0
vn 0 -1 0
vn 0 1 0
vn 0.7520696224776897 -0.6590836691545809 0
vn -0.7520696224776897 0.6590836691545809 0
vn -1 0 0
vn 1 0 0
vn 0.8578632034624426 -0.5138781218782871 0
vn -0.8578632034624426 0.5138781218782871 0
vn 0.9359672430435817 -0.35208709142681904 0
vn -0.9359672430435817 0.35208709142681904 0
vn 0.9838616370510495 -0.17893093399194332 0
vn -0.9838616370510495 0.17893093399194332 0
vn 0.9959572016365358 -0.08982901818633574 0
vn -0.9959572016365358 0.08982901818633574 0
usemtl material_0_0
f 1//1 2//2 3//2
f 2//2 1//1 4//1
f 3//3 2//3 1//4
f 4//4 1//4 2//3
f 5//5 3//2 2//2
f 2//3 3//3 5//6
f 6//7 1//7 3//7
f 3//8 1//8 6//8
f 7//9 4//1 1//1
f 1//4 4//4 7//10
f 4//8 5//8 2//8
f 2//7 5//7 4//7
f 3//2 5//5 6//5
f 6//6 5//6 3//3
f 1//7 6//7 8//7
f 8//8 6//8 1//8
f 4//1 7//9 9//9
f 9//10 7//10 4//4
f 1//7 8//7 7//7
f 7//8 8//8 1//8
f 5//8 4//8 10//8
f 10//7 4//7 5//7
f 10//11 6//5 5//5
f 5//6 6//6 10//12
f 6//5 10//11 8//11
f 8//12 10//12 6//6
f 11//13 9//9 7//9
f 7//10 9//10 11//14
f 10//8 4//8 9//8
f 9//7 4//7 10//7
f 7//7 8//7 12//7
f 12//8 8//8 7//8
f 13//15 8//11 10//11
f 10//12 8//12 13//16
f 9//9 11//13 14//13
f 14//14 11//14 9//10
f 7//7 12//7 11//7
f 11//8 12//8 7//8
f 10//8 9//8 13//8
f 13//7 9//7 10//7
f 8//11 13//15 12//15
f 12//16 13//16 8//12
f 15//17 14//17 11//17
f 11//18 14//18 15//18
f 13//8 9//8 14//8
f 14//7 9//7 13//7
f 11//7 12//7 16//7
f 16//8 12//8 11//8
f 17//19 12//15 13//15
f 13//16 12//16 17//20
f 14//17 15//17 18//17
f 18//18 15//18 14//18
f 11//7 16//7 15//7
f 15//8 16//8 11//8
f 13//8 14//8 17//8
f 17//7 14//7 13//7
f 12//15 17//19 16//19
f 16//20 17//20 12//16
f 19//21 18//21 15//21
f 15//22 18//22 19//22
f 17//8 14//8 18//8
f 18//7 14//7 17//7
f 15//7 16//7 20//7
f 20//8 16//8 15//8
f 21//23 16//19 17//19
f 17//20 16//20 21//24
f 18//21 19//21 22//21
f 22//22 19//22 18//22
f 15//7 23//7 19//7
f 19//8 23//8 15//8
f 17//8 18//8 21//8
f 21//7 18//7 17//7
f 16//19 21//23 20//23
f 20//24 21//24 16//20
f 15//7 20//7 24//7
f 24//8 20//8 15//8
f 19//25 25//25 22//25
f 22//26 25//26 19//26
f 25//8 18//8 22//8
f 22//7 18//7 25//7
f 15//7 26//7 23//7
f 23//8 26//8 15//8
f 19//7 23//7 27//7
f 27//8 23//8 19//8
f 21//8 18//8 28//8
f 28//7 18//7 21//7
f 28//27 20//23 21//23
f 21//24 20//24 28//28
f 20//23 28//27 24//27
f 24//28 28//28 20//24
f 15//7 24//7 29//7
f 29//8 24//8 15//8
f 25//25 19//25 27//25
f 27//26 19//26 25//26
f 18//8 25//8 30//8
f 30//7 25//7 18//7
f 15//7 31//7 26//7
f 26//8 31//8 15//8
f 26//18 30//18 23//18
f 23//17 30//17 26//17
f 23//22 25//22 27//22
f 27//21 25//21 23//21
f 28//8 18//8 32//8
f 32//7 18//7 28//7
f 32//29 24//27 28//27
f 28//28 24//28 32//30
f 24//27 32//29 29//29
f 29//30 32//30 24//28
f 15//7 29//7 33//7
f 33//8 29//8 15//8
f 25//22 23//22 30//22
f 30//21 23//21 25//21
f 34//8 18//8 30//8
f 30//7 18//7 34//7
f 15//7 35//7 31//7
f 31//8 35//8 15//8
f 31//10 34//14 26//14
f 26//13 34//13 31//9
f 30//18 26//18 34//18
f 34//17 26//17 30//17
f 32//8 18//8 36//8
f 36//7 18//7 32//7
f 36//31 29//29 32//29
f 32//30 29//30 36//32
f 29//29 36//31 33//31
f 33//32 36//32 29//30
f 15//7 33//7 37//7
f 37//8 33//8 15//8
f 38//8 18//8 34//8
f 34//7 18//7 38//7
f 15//7 39//7 35//7
f 35//8 39//8 15//8
f 35//4 38//10 31//10
f 31//9 38//9 35//1
f 34//14 31//10 38//10
f 38//9 31//9 34//13
f 36//8 18//8 40//8
f 40//7 18//7 36//7
f 40//33 33//31 36//31
f 36//32 33//32 40//34
f 33//31 40//33 37//33
f 37//34 40//34 33//32
f 15//7 37//7 39//7
f 39//8 37//8 15//8
f 41//8 18//8 38//8
f 38//7 18//7 41//7
f 39//3 41//4 35//4
f 35//1 41//1 39//2
f 38//10 35//4 41//4
f 41//1 35//1 38//9
f 40//8 18//8 42//8
f 42//7 18//7 40//7
f 43//26 37//26 40//26
f 40//25 37//25 43//25
f 37//7 44//7 39//7
f 39//8 44//8 37//8
f 42//8 18//8 41//8
f 41//7 18//7 42//7
f 41//4 39//3 42//3
f 42//2 39//2 41//1
f 45//8 40//8 42//8
f 42//7 40//7 45//7
f 37//26 43//26 46//26
f 46//25 43//25 37//25
f 40//8 47//8 43//8
f 43//7 47//7 40//7
f 44//7 37//7 48//7
f 48//8 37//8 44//8
f 44//6 42//3 39//3
f 39//2 42//2 44//5
f 49//8 40//8 45//8
f 45//7 40//7 49//7
f 42//3 44//6 45//6
f 45//5 44//5 42//2
f 50//22 46//22 43//22
f 43//21 46//21 50//21
f 51//7 37//7 46//7
f 46//8 37//8 51//8
f 47//8 40//8 52//8
f 52//7 40//7 47//7
f 43//8 47//8 53//8
f 53//7 47//7 43//7
f 48//7 37//7 54//7
f 54//8 37//8 48//8
f 48//12 45//6 44//6
f 44//5 45//5 48//11
f 55//8 40//8 49//8
f 49//7 40//7 55//7
f 45//6 48//12 49//12
f 49//11 48//11 45//5
f 46//22 50//22 56//22
f 56//21 50//21 46//21
f 43//8 53//8 50//8
f 50//7 53//7 43//7
f 57//7 37//7 51//7
f 51//8 37//8 57//8
f 51//7 46//7 58//7
f 58//8 46//8 51//8
f 52//8 40//8 59//8
f 59//7 40//7 52//7
f 57//30 47//32 52//30
f 52//29 47//31 57//29
f 51//32 53//34 47//32
f 47//31 53//33 51//31
f 54//7 37//7 60//7
f 60//8 37//8 54//8
f 54//16 49//12 48//12
f 48//11 49//11 54//15
f 61//8 40//8 55//8
f 55//7 40//7 61//7
f 49//12 54//16 55//16
f 55//15 54//15 49//11
f 50//25 58//25 56//25
f 56//26 58//26 50//26
f 58//7 46//7 56//7
f 56//8 46//8 58//8
f 58//25 50//25 53//25
f 53//26 50//26 58//26
f 62//7 37//7 57//7
f 57//8 37//8 62//8
f 47//32 57//30 51//32
f 51//31 57//29 47//31
f 53//34 51//32 58//34
f 58//33 51//31 53//33
f 59//8 40//8 63//8
f 63//7 40//7 59//7
f 62//28 52//30 59//28
f 59//27 52//29 62//27
f 52//30 62//28 57//30
f 57//29 62//27 52//29
f 60//7 37//7 64//7
f 64//8 37//8 60//8
f 60//20 55//16 54//16
f 54//15 55//15 60//19
f 63//8 40//8 61//8
f 61//7 40//7 63//7
f 55//16 60//20 61//20
f 61//19 60//19 55//15
f 64//7 37//7 62//7
f 62//8 37//8 64//8
f 64//24 59//28 63//24
f 63//23 59//27 64//23
f 59//28 64//24 62//28
f 62//27 64//23 59//27
f 64//24 61//20 60//20
f 60//19 61//19 64//23
f 61//20 64//24 63//24
f 63//23 64//23 61//19
