# SSTK version 0.8.0
# 21
mtllib original-21.mtl
o Group11/mesh41/mesh41-geometry#mesh41-geometry
v 0.340040 0.077986 -0.145856
v 0.340041 0.064671 -0.191286
v 0.340041 0.073774 -0.192060
v 0.340041 0.069252 -0.145395
v -0.362858 0.073741 -0.192060
v 0.340040 0.081469 -0.099592
v -0.362858 0.069220 -0.145395
v -0.362858 0.064639 -0.191286
v -0.362858 0.077953 -0.145856
v 0.340041 0.073044 -0.099433
v -0.362858 0.073011 -0.099432
v -0.362858 0.081437 -0.099592
v 0.340040 0.084224 -0.053279
v 0.340041 0.076044 -0.053412
v -0.362857 0.076012 -0.053411
v -0.362858 0.084192 -0.053278
v 0.340041 0.078253 -0.007346
v -0.362858 0.086217 -0.006927
v 0.340040 0.086249 -0.006927
v -0.362857 0.078221 -0.007345
v 0.340041 0.079669 0.038751
v -0.362857 0.079637 0.038752
v -0.362858 0.087511 0.039450
v 0.340040 0.087543 0.039450
v 0.340041 0.080293 0.084866
v -0.362857 0.080261 0.084866
v -0.362858 0.088075 0.085842
v 0.340040 0.088107 0.085842
v 0.340041 0.080123 0.130984
v -0.362857 0.080091 0.130985
v -0.362858 0.087908 0.132237
v 0.340041 0.087940 0.132237
v 0.340041 0.079161 0.177093
v -0.362857 0.079129 0.177093
v -0.362858 0.087010 0.178624
v 0.340041 0.087043 0.178623
v 0.340041 0.077406 0.223178
v -0.362857 0.077373 0.223179
v -0.362858 0.085382 0.224991
v 0.340041 0.085415 0.224990
v 0.340041 0.074858 0.269226
v -0.362857 0.074826 0.269227
v -0.362858 0.083024 0.271326
v 0.340041 0.083056 0.271326
v 0.340041 0.071519 0.315224
v -0.362857 0.071487 0.315225
v -0.362858 0.079937 0.317619
v 0.340041 0.079969 0.317618
v 0.340041 0.067390 0.361158
v -0.362857 0.067358 0.361158
v -0.362857 0.076120 0.363857
v 0.340041 0.076152 0.363856
v 0.340042 0.066641 0.365700
v -0.362857 0.066609 0.365701
v -0.362857 0.075002 0.369290
v 0.340041 0.075034 0.369289
v 0.340042 0.065307 0.370107
v -0.362857 0.065275 0.370107
v -0.362857 0.073219 0.374542
v 0.340041 0.073251 0.374542
v 0.340042 0.063411 0.374302
v -0.362857 0.063379 0.374303
v -0.362857 0.070798 0.379533
v 0.340042 0.060985 0.378216
v 0.340041 0.070830 0.379533
v -0.362857 0.060953 0.378216
v -0.362857 0.067778 0.384186
v -0.362857 0.058039 0.381781
v 0.340042 0.058071 0.381780
v 0.340042 0.067810 0.384185
v -0.362857 0.064204 0.388428
v -0.362856 0.054686 0.384935
v 0.340042 0.054718 0.384935
v 0.340042 0.064236 0.388427
v 0.340042 0.060164 0.392193
v -0.362856 0.050951 0.387627
v 0.340042 0.050983 0.387627
v -0.362857 0.060131 0.392194
v 0.340043 0.046929 0.389810
v -0.362856 0.046897 0.389810
v 0.340042 0.055656 0.395426
v 0.340043 0.042626 0.391447
v -0.362856 0.042594 0.391448
v -0.362856 0.055624 0.395426
v 0.340043 0.038147 0.392511
v -0.362856 0.038115 0.392511
v 0.340042 0.050782 0.398074
v 0.340043 0.033567 0.392982
v -0.362855 0.033535 0.392983
v -0.362856 0.050750 0.398075
v 0.340045 -0.016115 0.395923
v 0.340045 -0.016731 0.393621
v -0.362853 -0.016764 0.393621
v -0.362853 -0.016147 0.395923
v 0.340043 0.045617 0.400098
v 0.340045 -0.016575 0.394812
v 0.340045 -0.015383 0.396876
v 0.340043 0.028965 0.392854
v -0.362855 0.028933 0.392854
v -0.362853 -0.016607 0.394813
v -0.362853 -0.015415 0.396876
v -0.362856 0.045585 0.400099
v 0.340045 -0.012128 0.398224
v 0.340045 -0.014430 0.397608
v 0.340045 -0.016575 0.392429
v -0.362853 -0.016607 0.392430
v -0.362853 -0.014462 0.397608
v -0.362853 -0.012160 0.398225
v 0.340043 0.040242 0.401466
v 0.340045 -0.013319 0.398067
v 0.340043 0.029191 0.402161
v 0.340045 -0.016115 0.391319
v 0.340045 -0.012128 0.389017
v -0.362853 -0.016147 0.391320
v -0.362853 -0.013352 0.398068
v -0.362855 0.029159 0.402161
v -0.362856 0.040210 0.401467
v 0.340045 -0.015383 0.390366
v -0.362853 -0.012160 0.389018
v 0.340045 -0.013319 0.389174
v -0.362853 -0.015415 0.390366
v 0.340043 0.034738 0.402157
v -0.362855 0.034706 0.402158
v 0.340045 -0.014430 0.389634
v -0.362853 -0.013352 0.389175
v -0.362853 -0.014462 0.389635
vn 0.9999999989415 0.000045999999951309 -9.999999989414898e-7
vn -0.9999999989415 -0.000045999999951309 9.999999989414898e-7
vn 0.000002999999589621085 -0.0847309884093945 -0.9964038636989357
vn -0.000002999999589621085 0.0847309884093945 0.9964038636989357
vn -0.00004599998193551164 0.9958706089152154 -0.09078396434855387
vn -0.000045999986614350844 0.9965547100100958 -0.08293797586567435
vn 0.00004599998193551164 -0.9958706089152154 0.09078396434855387
vn 0.000045999986614350844 -0.9965547100100958 0.08293797586567435
vn 0.00004600001116682607 -0.9958712417547444 0.09077702203676
vn 0.000045999997563656196 -0.9950539472979641 0.0993359947387683
vn -0.00004600001116682607 0.9958712417547444 -0.09077702203676
vn -0.000045999997563656196 0.9950539472979641 -0.0993359947387683
vn -0.00004600001690250231 0.9977373666141729 -0.06723202470410924
vn 0.00004600001690250231 -0.9977373666141729 0.06723202470410924
vn 0.0000459999982597741 -0.9972849622717134 0.07363899721416294
vn -0.0000459999982597741 0.9972849622717134 -0.07363899721416294
vn -0.00004599997837711725 0.9986725305611046 -0.05150897578754178
vn 0.00004599997837711725 -0.9986725305611046 0.05150897578754178
vn 0.000045999987586169023 -0.9984037305648151 0.05647998475797427
vn -0.000045999987586169023 0.9984037305648151 -0.05647998475797427
vn -0.00004599999725736524 0.9993599404156637 -0.035772997867124276
vn 0.00004599999725736524 -0.9993599404156637 0.035772997867124276
vn 0.00004600001370660313 -0.9992272977393026 0.03930401171139824
vn -0.00004600001370660313 0.9992272977393026 -0.03930401171139824
vn 0.00004600001886928061 -0.9997554101012529 0.02211600907202173
vn -0.00004600001886928061 0.9997554101012529 -0.02211600907202173
vn -0.00004600001832277695 0.9997993982411754 -0.020029007977975855
vn 0.00004600001832277695 -0.9997993982411754 0.020029007977975855
vn 0.00004599999474808889 -0.9999878858293894 0.004921999438045289
vn -0.00004599999474808889 0.9999878858293894 -0.004921999438045289
vn -0.00004599999282312768 0.9999908439824408 -0.004278999332394633
vn 0.00004599999282312768 -0.9999908439824408 0.004278999332394633
vn 0.00004599998484721648 -0.9999246706163681 -0.012273995956842289
vn -0.00004599998484721648 0.9999246706163681 0.012273995956842289
vn -0.00004600000889511457 0.9999341933592933 0.011472002218364447
vn 0.00004600000889511457 -0.9999341933592933 -0.011472002218364447
vn 0.00004599998998055928 -0.9995657822806024 -0.029465993581894997
vn -0.00004599998998055928 0.9995657822806024 0.029465993581894997
vn -0.000046000021432403974 0.9996294657489686 0.027220012682392315
vn 0.000046000021432403974 -0.9996294657489686 -0.027220012682392315
vn 0.00004600001570353405 -0.9989113410094108 -0.04664901592509065
vn -0.00004600001570353405 0.9989113410094108 0.04664901592509065
vn -0.00004599998846398633 0.9990767494485668 0.042960989226115805
vn 0.00004599998846398633 -0.9990767494485668 -0.042960989226115805
vn 0.00004599997946828175 -0.9979615545679432 -0.06381797151536554
vn -0.00004599997946828175 0.9979615545679432 0.06381797151536554
vn -0.00004600000902122365 0.9982761957754579 0.05869101151010103
vn 0.00004600000902122365 -0.9982761957754579 -0.05869101151010103
vn 0.00004599998253919194 -0.9967166216633864 -0.0809689692655618
vn -0.00004599998253919194 0.9967166216633864 0.0809689692655618
vn -0.000045999997981773126 0.9972279562471229 0.07440699673543051
vn 0.000045999997981773126 -0.9972279562471229 -0.07440699673543051
vn 0.000045999981009647754 -0.9959835888241959 -0.08953596303651809
vn -0.000045999981009647754 0.9959835888241959 0.08953596303651809
vn -0.00004600000308197731 0.9966110667724453 0.08225800551124564
vn 0.00004600000308197731 -0.9966110667724453 -0.08225800551124564
vn 0.0000450000232341705 -0.9866655094298408 -0.16276108403592965
vn 0.00004399998797610293 -0.9739567338463927 -0.22673393804031206
vn -0.0000450000232341705 0.9866655094298408 0.16276108403592965
vn -0.00004399998797610293 0.9739567338463927 0.22673393804031206
vn -0.00004399998476340192 0.9650586658132702 0.2620339092612106
vn -0.0000450000166132217 0.9794693616030143 0.20159307442464913
vn 0.0000450000166132217 -0.9794693616030143 -0.20159307442464913
vn 0.00004399998476340192 -0.9650586658132702 -0.2620339092612106
vn 0.000042999989809627123 -0.9361807781387564 -0.3515189166951239
vn -0.000042999989809627123 0.9361807781387564 0.3515189166951239
vn -0.000042000007535558025 0.9251301659850188 0.3796500681160622
vn 0.000042000007535558025 -0.9251301659850188 -0.3796500681160622
vn 0.0000399999888150447 -0.8824917532341604 -0.47032786848505875
vn -0.0000399999888150447 0.8824917532341604 0.47032786848505875
vn -0.000038999978303109106 0.8709285154756028 0.49140972661361165
vn 0.000038999978303109106 -0.8709285154756028 -0.49140972661361165
vn 0.00003699998366410382 -0.8138016406977031 -0.5811427434191431
vn -0.00003699998366410382 0.8138016406977031 0.5811427434191431
vn -0.00003599999448217327 0.8032908768772067 0.5955869087126149
vn 0.00003599999448217327 -0.8032908768772067 -0.5955869087126149
vn 0.000032999987803685264 -0.7312787297300349 -0.6820787479136317
vn -0.000032999987803685264 0.7312787297300349 0.6820787479136317
vn -0.00003299999711086688 0.7232589366790444 0.690576939540337
vn 0.00003299999711086688 -0.7232589366790444 -0.690576939540337
vn 0.000029000001947248698 -0.6363250427270007 -0.7714210517982255
vn -0.000029000001947248698 0.6363250427270007 0.7714210517982255
vn -0.000027999984692020557 0.6320696544387653 0.7749115763451085
vn 0.000027999984692020557 -0.6320696544387653 -0.7749115763451085
vn 0.000024000010426794797 -0.5305552304995045 -0.8476503682613589
vn -0.000024000010426794797 0.5305552304995045 0.8476503682613589
vn -0.000024000012100317148 0.5311282677840518 0.8472914271870758
vn 0.000024000012100317148 -0.5311282677840518 -0.8472914271870758
vn 0.000018000002713914614 -0.4157670626864518 -0.9094711371237022
vn -0.000018000002713914614 0.4157670626864518 0.9094711371237022
vn 0.000012999993579291753 -0.2939118548366766 -0.9558325279134752
vn -0.000012999993579291753 0.2939118548366766 0.9558325279134752
vn -0.000019000001527495684 0.42199303392592014 0.9065990728855823
vn 0.000019000001527495684 -0.42199303392592014 -0.9065990728855823
vn 0.000006999998143397739 -0.16705995569086066 -0.9859467384983672
vn -0.000006999998143397739 0.16705995569086066 0.9859467384983672
vn 9.999995353173238e-7 -0.03736898263527285 -0.9993015356416723
vn -9.999995353173238e-7 0.03736898263527285 0.9993015356416723
vn -0.000012999998888643143 0.30634697381070447 0.9519199186213216
vn 0.000012999998888643143 -0.30634697381070447 -0.9519199186213216
vn -0.0000020000000041360004 0.0278540000576023 -0.9996120020671978
vn 0.0000020000000041360004 -0.0278540000576023 0.9996120020671978
vn 0.000040000013955507306 -0.8660253021454554 0.500000174443841
vn 0.00004399999308819563 -0.9659258482661013 0.25881895934303856
vn -0.000040000013955507306 0.8660253021454554 -0.500000174443841
vn -0.00004399999308819563 0.9659258482661013 -0.25881895934303856
vn 0.00003299998977021926 -0.7071067808015282 0.707106780801528
vn -0.00003299998977021926 0.7071067808015282 -0.707106780801528
vn 0.000045999999951332 -0.9999999989420001 0
vn -0.000045999999951332 0.9999999989420001 0
vn -0.00000800000374558263 0.185975087073091 0.9825544600296494
vn 0.00000800000374558263 -0.185975087073091 -0.9825544600296494
vn 0.000024000008385592392 -0.5000001746998417 0.8660253025888603
vn -0.000024000008385592392 0.5000001746998417 -0.8660253025888603
vn 0.00004399999308819563 -0.9659258482661011 -0.258818959343039
vn -0.00004399999308819563 0.9659258482661011 0.258818959343039
vn -0.000005000000153277507 0.0929580028496743 -0.9956700305227629
vn 0.000005000000153277507 -0.0929580028496743 0.9956700305227629
vn 0.000006999999213375133 -0.13052598533214343 0.9914448885863869
vn 0.000012999997969361477 -0.2588189595717055 0.9659258491194964
vn -0.000006999999213375133 0.13052598533214343 -0.9914448885863869
vn -0.000012999997969361477 0.2588189595717055 -0.9659258491194964
vn 0.000005000002156576396 -0.0948410409063726 0.9954924293709098
vn -0.000005000002156576396 0.0948410409063726 -0.9954924293709098
vn 0.00003900001360816012 -0.8660253021796631 -0.5000001744635915
vn -0.00003900001360816012 0.8660253021796631 0.5000001744635915
vn -0.000002000000564340239 0.06273401770166005 0.9980302816142443
vn 0.000002000000564340239 -0.06273401770166005 -0.9980302816142443
vn 9.999998015495592e-7 0.0006299998749760002 0.9999998015495591
vn -9.999998015495592e-7 -0.0006299998749760002 -0.9999998015495591
vn 0.00003199999008125261 -0.707106780824509 -0.7071067808245092
vn -0.00003199999008125261 0.707106780824509 0.7071067808245092
vn 0.000010999998282031401 -0.2588189595779166 -0.9659258491426785
vn 0.000004999999438185095 -0.1305259853337093 -0.9914448885982842
vn -0.000004999999438185095 0.1305259853337093 0.9914448885982842
vn -0.000010999998282031401 0.2588189595779166 0.9659258491426785
vn 0.000022000007687805026 -0.5000001747228413 -0.8660253026286978
vn -0.000022000007687805026 0.5000001747228413 0.8660253026286978
usemtl material_0_0
f 1//1 2//1 3//1
f 2//1 1//1 4//1
f 3//2 2//2 1//2
f 4//2 1//2 2//2
f 2//3 5//3 3//3
f 3//4 5//4 2//4
f 5//5 1//6 3//5
f 3//7 1//8 5//7
f 4//1 1//1 6//1
f 6//2 1//2 4//2
f 7//9 2//10 4//9
f 4//11 2//12 7//11
f 5//3 2//3 8//3
f 8//4 2//4 5//4
f 1//6 5//5 9//6
f 9//8 5//7 1//8
f 9//6 6//13 1//6
f 1//8 6//14 9//8
f 4//1 6//1 10//1
f 10//2 6//2 4//2
f 2//10 7//9 8//10
f 8//12 7//11 2//12
f 4//9 11//15 7//9
f 7//11 11//16 4//11
f 8//2 9//2 5//2
f 5//1 9//1 8//1
f 6//13 9//6 12//13
f 12//14 9//8 6//14
f 10//1 6//1 13//1
f 13//2 6//2 10//2
f 11//15 4//9 10//15
f 10//16 4//11 11//16
f 9//2 8//2 7//2
f 7//1 8//1 9//1
f 12//2 7//2 11//2
f 11//1 7//1 12//1
f 9//2 7//2 12//2
f 12//1 7//1 9//1
f 12//13 13//17 6//13
f 6//14 13//18 12//14
f 10//1 13//1 14//1
f 14//2 13//2 10//2
f 10//15 15//19 11//15
f 11//16 15//20 10//16
f 12//2 11//2 16//2
f 16//1 11//1 12//1
f 13//17 12//13 16//17
f 16//18 12//14 13//18
f 14//1 13//1 17//1
f 17//2 13//2 14//2
f 15//19 10//15 14//19
f 14//20 10//16 15//20
f 16//2 11//2 15//2
f 15//1 11//1 16//1
f 18//21 13//17 16//17
f 16//18 13//18 18//22
f 17//1 13//1 19//1
f 19//2 13//2 17//2
f 20//23 14//19 17//23
f 17//24 14//20 20//24
f 14//19 20//23 15//19
f 15//20 20//24 14//20
f 16//2 15//2 20//2
f 20//1 15//1 16//1
f 13//17 18//21 19//21
f 19//22 18//22 13//18
f 16//2 20//2 18//2
f 18//1 20//1 16//1
f 17//1 19//1 21//1
f 21//2 19//2 17//2
f 17//23 22//25 20//23
f 20//24 22//26 17//24
f 23//27 19//21 18//21
f 18//22 19//22 23//28
f 18//2 20//2 22//2
f 22//1 20//1 18//1
f 21//1 19//1 24//1
f 24//2 19//2 21//2
f 22//25 17//23 21//25
f 21//26 17//24 22//26
f 19//21 23//27 24//27
f 24//28 23//28 19//22
f 18//2 22//2 23//2
f 23//1 22//1 18//1
f 21//1 24//1 25//1
f 25//2 24//2 21//2
f 21//25 26//29 22//25
f 22//26 26//30 21//26
f 27//31 24//27 23//27
f 23//28 24//28 27//32
f 23//2 22//2 26//2
f 26//1 22//1 23//1
f 25//1 24//1 28//1
f 28//2 24//2 25//2
f 26//29 21//25 25//29
f 25//30 21//26 26//30
f 24//27 27//31 28//31
f 28//32 27//32 24//28
f 23//2 26//2 27//2
f 27//1 26//1 23//1
f 25//1 28//1 29//1
f 29//2 28//2 25//2
f 25//29 30//33 26//29
f 26//30 30//34 25//30
f 31//35 28//31 27//31
f 27//32 28//32 31//36
f 27//2 26//2 30//2
f 30//1 26//1 27//1
f 29//1 28//1 32//1
f 32//2 28//2 29//2
f 30//33 25//29 29//33
f 29//34 25//30 30//34
f 28//31 31//35 32//35
f 32//36 31//36 28//32
f 27//2 30//2 31//2
f 31//1 30//1 27//1
f 29//1 32//1 33//1
f 33//2 32//2 29//2
f 29//33 34//37 30//33
f 30//34 34//38 29//34
f 35//39 32//35 31//35
f 31//36 32//36 35//40
f 31//2 30//2 34//2
f 34//1 30//1 31//1
f 33//1 32//1 36//1
f 36//2 32//2 33//2
f 34//37 29//33 33//37
f 33//38 29//34 34//38
f 32//35 35//39 36//39
f 36//40 35//40 32//36
f 31//2 34//2 35//2
f 35//1 34//1 31//1
f 33//1 36//1 37//1
f 37//2 36//2 33//2
f 33//37 38//41 34//37
f 34//38 38//42 33//38
f 39//43 36//39 35//39
f 35//40 36//40 39//44
f 35//2 34//2 38//2
f 38//1 34//1 35//1
f 37//1 36//1 40//1
f 40//2 36//2 37//2
f 38//41 33//37 37//41
f 37//42 33//38 38//42
f 36//39 39//43 40//43
f 40//44 39//44 36//40
f 35//2 38//2 39//2
f 39//1 38//1 35//1
f 37//1 40//1 41//1
f 41//2 40//2 37//2
f 37//41 42//45 38//41
f 38//42 42//46 37//42
f 43//47 40//43 39//43
f 39//44 40//44 43//48
f 39//2 38//2 42//2
f 42//1 38//1 39//1
f 41//1 40//1 44//1
f 44//2 40//2 41//2
f 42//45 37//41 41//45
f 41//46 37//42 42//46
f 40//43 43//47 44//47
f 44//48 43//48 40//44
f 39//2 42//2 43//2
f 43//1 42//1 39//1
f 41//1 44//1 45//1
f 45//2 44//2 41//2
f 41//45 46//49 42//45
f 42//46 46//50 41//46
f 47//51 44//47 43//47
f 43//48 44//48 47//52
f 43//2 42//2 46//2
f 46//1 42//1 43//1
f 45//1 44//1 48//1
f 48//2 44//2 45//2
f 46//49 41//45 45//49
f 45//50 41//46 46//50
f 44//47 47//51 48//51
f 48//52 47//52 44//48
f 43//2 46//2 47//2
f 47//1 46//1 43//1
f 45//1 48//1 49//1
f 49//2 48//2 45//2
f 45//49 50//53 46//49
f 46//50 50//54 45//50
f 51//55 48//51 47//51
f 47//52 48//52 51//56
f 47//2 46//2 50//2
f 50//1 46//1 47//1
f 49//1 48//1 52//1
f 52//2 48//2 49//2
f 50//53 45//49 49//53
f 49//54 45//50 50//54
f 48//51 51//55 52//55
f 52//56 51//56 48//52
f 47//2 50//2 51//2
f 51//1 50//1 47//1
f 49//1 52//1 53//1
f 53//2 52//2 49//2
f 49//57 54//58 50//57
f 50//59 54//60 49//59
f 55//61 52//62 51//62
f 51//63 52//63 55//64
f 51//2 50//2 54//2
f 54//1 50//1 51//1
f 53//1 52//1 56//1
f 56//2 52//2 53//2
f 54//58 49//57 53//58
f 53//60 49//59 54//60
f 52//62 55//61 56//61
f 56//64 55//64 52//63
f 51//2 54//2 55//2
f 55//1 54//1 51//1
f 53//1 56//1 57//1
f 57//2 56//2 53//2
f 53//58 58//65 54//58
f 54//60 58//66 53//60
f 59//67 56//61 55//61
f 55//64 56//64 59//68
f 55//2 54//2 58//2
f 58//1 54//1 55//1
f 57//1 56//1 60//1
f 60//2 56//2 57//2
f 58//65 53//58 57//65
f 57//66 53//60 58//66
f 56//61 59//67 60//67
f 60//68 59//68 56//64
f 55//2 58//2 59//2
f 59//1 58//1 55//1
f 57//1 60//1 61//1
f 61//2 60//2 57//2
f 57//65 62//69 58//65
f 58//66 62//70 57//66
f 63//71 60//67 59//67
f 59//68 60//68 63//72
f 59//2 58//2 62//2
f 62//1 58//1 59//1
f 61//1 60//1 64//1
f 64//2 60//2 61//2
f 62//69 57//65 61//69
f 61//70 57//66 62//70
f 60//67 63//71 65//71
f 65//72 63//72 60//68
f 59//2 66//2 63//2
f 63//1 66//1 59//1
f 59//2 62//2 66//2
f 66//1 62//1 59//1
f 64//1 60//1 65//1
f 65//2 60//2 64//2
f 66//73 61//69 64//73
f 64//74 61//70 66//74
f 61//69 66//73 62//69
f 62//70 66//74 61//70
f 67//75 65//71 63//71
f 63//72 65//72 67//76
f 63//2 66//2 68//2
f 68//1 66//1 63//1
f 64//1 65//1 69//1
f 69//2 65//2 64//2
f 64//73 68//77 66//73
f 66//74 68//78 64//74
f 65//71 67//75 70//75
f 70//76 67//76 65//72
f 63//2 68//2 67//2
f 67//1 68//1 63//1
f 69//1 65//1 70//1
f 70//2 65//2 69//2
f 68//77 64//73 69//77
f 69//78 64//74 68//78
f 71//79 70//75 67//75
f 67//76 70//76 71//80
f 67//2 68//2 72//2
f 72//1 68//1 67//1
f 69//1 70//1 73//1
f 73//2 70//2 69//2
f 73//81 68//77 69//77
f 69//78 68//78 73//82
f 70//75 71//79 74//79
f 74//80 71//80 70//76
f 67//2 72//2 71//2
f 71//1 72//1 67//1
f 68//77 73//81 72//81
f 72//82 73//82 68//78
f 73//1 70//1 74//1
f 74//2 70//2 73//2
f 71//79 75//83 74//79
f 74//80 75//84 71//80
f 71//2 72//2 76//2
f 76//1 72//1 71//1
f 77//85 72//81 73//81
f 73//82 72//82 77//86
f 73//1 74//1 77//1
f 77//2 74//2 73//2
f 75//83 71//79 78//83
f 78//84 71//80 75//84
f 79//1 74//1 75//1
f 75//2 74//2 79//2
f 72//81 77//85 76//85
f 76//86 77//86 72//82
f 71//2 76//2 80//2
f 80//1 76//1 71//1
f 77//1 74//1 79//1
f 79//2 74//2 77//2
f 71//2 80//2 78//2
f 78//1 80//1 71//1
f 78//83 81//87 75//83
f 75//84 81//88 78//84
f 79//1 75//1 82//1
f 82//2 75//2 79//2
f 79//89 76//85 77//85
f 77//86 76//86 79//90
f 76//85 79//89 80//89
f 80//90 79//90 76//86
f 78//2 80//2 83//2
f 83//1 80//1 78//1
f 81//87 78//83 84//87
f 84//88 78//84 81//88
f 85//1 75//1 81//1
f 81//2 75//2 85//2
f 82//1 75//1 85//1
f 85//2 75//2 82//2
f 82//91 80//89 79//89
f 79//90 80//90 82//92
f 80//89 82//91 83//91
f 83//92 82//92 80//90
f 78//2 83//2 86//2
f 86//1 83//1 78//1
f 78//2 86//2 84//2
f 84//1 86//1 78//1
f 84//87 87//93 81//87
f 81//88 87//94 84//88
f 85//1 81//1 88//1
f 88//2 81//2 85//2
f 85//95 83//91 82//91
f 82//92 83//92 85//96
f 83//91 85//95 86//95
f 86//96 85//96 83//92
f 84//2 86//2 89//2
f 89//1 86//1 84//1
f 87//93 84//87 90//93
f 90//94 84//88 87//94
f 91//1 81//1 87//1
f 87//2 81//2 91//2
f 88//1 81//1 92//1
f 92//2 81//2 88//2
f 88//97 86//95 85//95
f 85//96 86//96 88//98
f 86//95 88//97 89//97
f 89//98 88//98 86//96
f 84//2 89//2 93//2
f 93//1 89//1 84//1
f 84//2 94//2 90//2
f 90//1 94//1 84//1
f 90//93 95//99 87//93
f 87//94 95//100 90//94
f 96//1 81//1 91//1
f 91//2 81//2 96//2
f 91//1 87//1 97//1
f 97//2 87//2 91//2
f 92//1 81//1 96//1
f 96//2 81//2 92//2
f 92//1 98//1 88//1
f 88//2 98//2 92//2
f 98//101 89//97 88//97
f 88//98 89//98 98//102
f 99//2 93//2 89//2
f 89//1 93//1 99//1
f 84//2 93//2 100//2
f 100//1 93//1 84//1
f 84//2 100//2 94//2
f 94//1 100//1 84//1
f 90//2 94//2 101//2
f 101//1 94//1 90//1
f 95//99 90//93 102//99
f 102//100 90//94 95//100
f 103//1 87//1 95//1
f 95//2 87//2 103//2
f 94//103 96//104 91//103
f 91//105 96//106 94//105
f 97//1 87//1 104//1
f 104//2 87//2 97//2
f 101//107 91//103 97//107
f 97//108 91//105 101//108
f 100//104 92//109 96//104
f 96//106 92//110 100//106
f 105//1 98//1 92//1
f 92//2 98//2 105//2
f 89//97 98//101 99//101
f 99//102 98//102 89//98
f 99//2 106//2 93//2
f 93//1 106//1 99//1
f 92//109 100//104 93//109
f 93//110 100//106 92//110
f 96//104 94//103 100//104
f 100//106 94//105 96//106
f 91//103 101//107 94//103
f 94//105 101//108 91//105
f 90//2 101//2 107//2
f 107//1 101//1 90//1
f 90//2 108//2 102//2
f 102//1 108//1 90//1
f 102//99 109//111 95//99
f 95//100 109//112 102//100
f 110//1 87//1 103//1
f 103//2 87//2 110//2
f 103//1 95//1 111//1
f 111//2 95//2 103//2
f 104//1 87//1 110//1
f 110//2 87//2 104//2
f 107//113 97//107 104//113
f 104//114 97//108 107//114
f 97//107 107//113 101//107
f 101//108 107//114 97//108
f 112//1 98//1 105//1
f 105//2 98//2 112//2
f 93//109 105//115 92//109
f 92//110 105//116 93//110
f 113//117 99//117 98//117
f 98//118 99//118 113//118
f 99//2 114//2 106//2
f 106//1 114//1 99//1
f 105//115 93//109 106//115
f 106//116 93//110 105//116
f 90//2 107//2 115//2
f 115//1 107//1 90//1
f 90//2 115//2 108//2
f 108//1 115//1 90//1
f 102//2 108//2 116//2
f 116//1 108//1 102//1
f 109//111 102//99 117//111
f 117//112 102//100 109//112
f 111//1 95//1 109//1
f 109//2 95//2 111//2
f 108//119 110//120 103//119
f 103//121 110//122 108//121
f 116//123 103//123 111//123
f 111//124 103//124 116//124
f 115//120 104//113 110//120
f 110//122 104//114 115//122
f 104//113 115//120 107//113
f 107//114 115//122 104//114
f 118//1 98//1 112//1
f 112//2 98//2 118//2
f 106//115 112//125 105//115
f 105//116 112//126 106//116
f 99//117 113//117 119//117
f 119//118 113//118 99//118
f 98//1 120//1 113//1
f 113//2 120//2 98//2
f 99//2 121//2 114//2
f 114//1 121//1 99//1
f 112//125 106//115 114//125
f 114//126 106//116 112//126
f 110//120 108//119 115//120
f 115//122 108//121 110//122
f 103//123 116//123 108//123
f 108//124 116//124 103//124
f 102//2 116//2 117//2
f 117//1 116//1 102//1
f 117//111 122//127 109//111
f 109//112 122//128 117//112
f 111//1 109//1 122//1
f 122//2 109//2 111//2
f 111//129 123//127 116//129
f 116//130 123//128 111//130
f 124//1 98//1 118//1
f 118//2 98//2 124//2
f 114//125 118//131 112//125
f 112//126 118//132 114//126
f 120//133 119//134 113//134
f 113//135 119//135 120//136
f 125//2 99//2 119//2
f 119//1 99//1 125//1
f 120//1 98//1 124//1
f 124//2 98//2 120//2
f 99//2 126//2 121//2
f 121//1 126//1 99//1
f 118//131 114//125 121//131
f 121//132 114//126 118//132
f 117//2 116//2 123//2
f 123//1 116//1 117//1
f 122//127 117//111 123//127
f 123//128 117//112 122//128
f 123//127 111//129 122//127
f 122//128 111//130 123//128
f 118//131 126//137 124//137
f 124//138 126//138 118//132
f 119//134 120//133 125//133
f 125//136 120//136 119//135
f 99//2 125//2 126//2
f 126//1 125//1 99//1
f 124//137 125//133 120//133
f 120//136 125//136 124//138
f 126//137 118//131 121//131
f 121//132 118//132 126//138
f 125//133 124//137 126//137
f 126//138 124//138 125//136
