# SSTK version 0.8.0
# 41
mtllib original-41.mtl
o mesh107/mesh107-geometry#mesh107-geometry
v -0.327427 0.035969 0.296457
v -0.362352 0.035973 0.296457
v -0.327422 0.074623 0.324057
v -0.362351 0.035973 -0.099326
v -0.362347 0.074627 0.324057
v -0.327426 0.035969 -0.099326
v -0.362347 0.072176 -0.050449
v -0.362347 0.076708 0.288423
v -0.362347 0.077564 0.270635
v -0.327422 0.067444 -0.103742
v -0.362347 0.075814 0.002963
v -0.362347 0.067448 -0.103742
v -0.327422 0.076704 0.288423
v -0.362347 0.079408 0.217131
v -0.362347 0.075816 0.003007
v -0.362347 0.078302 0.252764
v -0.362347 0.079409 0.217086
v -0.362347 0.070724 -0.068198
v -0.327422 0.073509 -0.032613
v -0.362347 0.078358 0.056460
v -0.327422 0.078298 0.252764
v -0.362347 0.080155 0.163578
v -0.327422 0.070720 -0.068198
v -0.362347 0.073513 -0.032613
v -0.327422 0.075813 0.003008
v -0.362347 0.079805 0.110010
v -0.327422 0.079405 0.217087
v -0.362347 0.077633 0.038656
v -0.362347 0.080028 0.181397
v -0.327422 0.077629 0.038656
v -0.327422 0.080024 0.181397
v -0.362347 0.078963 0.074326
v -0.362347 0.080161 0.145703
v -0.327422 0.078959 0.074326
v -0.327422 0.080157 0.145703
v -0.327421 0.079802 0.110010
vn 0.00006599999326648302 0.5810989407145459 -0.8138329169703283
vn -0.00006599999326648302 -0.5810989407145459 0.8138329169703283
vn 0.00011099999931618452 0.9999999938395001 0
vn -0.00011099999931618452 -0.9999999938395001 0
vn -0.9999999938375002 0.00011099999931596251 -0.0000019999999876749755
vn 0.9999999938375002 -0.00011099999931596251 0.0000019999999876749755
vn -0.00011100004369256729 -0.9982993929571733 -0.058295022946470584
vn 0.00011100004369256729 0.9982993929571733 0.058295022946470584
vn 0.000013999999184374072 0.1389389919055533 0.9903009423060591
vn -0.000013999999184374072 -0.1389389919055533 -0.9903009423060591
vn -0.00011100003633647836 -0.9990023270289597 -0.04465801461904933
vn 0.00011100003633647836 0.9990023270289597 0.04465801461904933
vn -0.00011100004665715892 -0.9957814185613727 0.09175703856865682
vn 0.00011100004665715892 0.9957814185613727 -0.09175703856865682
vn -0.00011099998072940601 -0.9979158267528462 0.06452898879718753
vn 0.00011099998072940601 0.9979158267528462 -0.06452898879718753
vn -0.000111000000675657 -0.9995190060840722 -0.031012000188770268
vn 0.000111000000675657 0.9995190060840722 0.031012000188770268
vn -0.00011099995636675822 -0.9969416081098078 0.07814996927983901
vn 0.00011099995636675822 0.9969416081098078 -0.07814996927983901
vn -0.00011099999474120889 -0.9987039526849034 0.05089599758872561
vn 0.00011099999474120889 0.9987039526849034 -0.05089599758872561
vn -0.00011100003303794375 -0.9998492975941894 -0.01736000516701557
vn 0.00011100003303794375 0.9998492975941894 0.01736000516701557
vn -0.00011099998032675372 -0.9993058228865491 0.03725399339723296
vn 0.00011099998032675372 0.9993058228865491 -0.03725399339723296
vn -0.00011100001446358032 -0.9999931303016133 -0.0037050004827710787
vn 0.00011100001446358032 0.9999931303016133 0.0037050004827710787
vn -0.00011100004223674511 -0.9997213804050545 0.023604008981586547
vn 0.00011100004223674511 0.9997213804050545 -0.023604008981586547
vn -0.0001110000534342176 -0.9999504813652783 0.009951004790305177
vn 0.0001110000534342176 0.9999504813652783 -0.009951004790305177
usemtl material_0_0
f 1//1 2//1 3//1
f 3//2 2//2 1//2
f 2//3 1//3 4//3
f 4//4 1//4 2//4
f 5//1 3//1 2//1
f 2//2 3//2 5//2
f 6//3 4//3 1//3
f 1//4 4//4 6//4
f 2//5 7//5 4//5
f 4//6 7//6 2//6
f 5//7 8//7 3//7
f 3//8 8//8 5//8
f 5//5 9//5 2//5
f 2//6 9//6 5//6
f 6//9 10//9 4//9
f 4//10 10//10 6//10
f 11//5 7//5 2//5
f 2//6 7//6 11//6
f 12//5 4//5 7//5
f 7//6 4//6 12//6
f 13//7 3//7 8//7
f 8//8 3//8 13//8
f 9//5 14//5 2//5
f 2//6 14//6 9//6
f 12//9 4//9 10//9
f 10//10 4//10 12//10
f 15//5 11//5 2//5
f 2//6 11//6 15//6
f 8//11 16//11 13//11
f 13//12 16//12 8//12
f 14//5 17//5 2//5
f 2//6 17//6 14//6
f 12//13 10//13 18//13
f 18//14 10//14 12//14
f 15//15 11//15 19//15
f 19//16 11//16 15//16
f 20//5 15//5 2//5
f 2//6 15//6 20//6
f 21//11 13//11 16//11
f 16//12 13//12 21//12
f 17//17 21//17 14//17
f 14//18 21//18 17//18
f 17//5 22//5 2//5
f 2//6 22//6 17//6
f 23//13 18//13 10//13
f 10//14 18//14 23//14
f 24//15 19//15 11//15
f 11//16 19//16 24//16
f 25//15 15//15 19//15
f 19//16 15//16 25//16
f 26//5 20//5 2//5
f 2//6 20//6 26//6
f 16//17 14//17 21//17
f 21//18 14//18 16//18
f 27//17 21//17 17//17
f 17//18 21//18 27//18
f 22//5 26//5 2//5
f 2//6 26//6 22//6
f 18//19 23//19 24//19
f 24//20 23//20 18//20
f 19//19 24//19 23//19
f 23//20 24//20 19//20
f 15//21 25//21 28//21
f 28//22 25//22 15//22
f 17//23 29//23 27//23
f 27//24 29//24 17//24
f 30//21 28//21 25//21
f 25//22 28//22 30//22
f 31//23 27//23 29//23
f 29//24 27//24 31//24
f 28//25 30//25 32//25
f 32//26 30//26 28//26
f 29//27 33//27 31//27
f 31//28 33//28 29//28
f 34//25 32//25 30//25
f 30//26 32//26 34//26
f 35//27 31//27 33//27
f 33//28 31//28 35//28
f 32//29 34//29 26//29
f 26//30 34//30 32//30
f 33//31 26//31 35//31
f 35//32 26//32 33//32
f 36//29 26//29 34//29
f 34//30 26//30 36//30
f 36//31 35//31 26//31
f 26//32 35//32 36//32
