mtllib new-4.mtl
v -0.036669 -0.453707 0.038496
v -0.036669 -0.453707 0.068664
v -0.038655 -0.453707 0.053580
v -0.030847 -0.453707 0.024440
v -0.038655 -0.340449 0.053580
v -0.036669 -0.340449 0.038496
v -0.030847 -0.340449 0.024440
v -0.030847 -0.453707 0.082720
v -0.036669 -0.340449 0.068664
v -0.021585 -0.340449 0.012370
v -0.021585 -0.453707 0.012370
v -0.033577 -0.340449 0.053580
v -0.026449 -0.340449 0.026979
v -0.021585 -0.453707 0.094790
v -0.030847 -0.340449 0.082720
v -0.031764 -0.340449 0.039810
v -0.009515 -0.453707 0.003108
v -0.017994 -0.340449 0.015960
v -0.031764 -0.340449 0.067350
v -0.009515 -0.340449 0.003108
v -0.009515 -0.453707 0.104052
v -0.021585 -0.340449 0.094790
v -0.026449 -0.340449 0.080181
v 0.004541 -0.453707 -0.002715
v -0.006976 -0.340449 0.007506
v -0.009515 -0.340449 0.104052
v 0.004541 -0.340449 -0.002715
v 0.004541 -0.453707 0.109874
v 0.004541 -0.340449 0.109874
v -0.017994 -0.340449 0.091199
v 0.019625 -0.453707 -0.004700
v 0.005856 -0.340449 0.002191
v -0.006976 -0.340449 0.099654
v 0.019625 -0.340449 -0.004700
v 0.019625 -0.453707 0.111860
v 0.019625 -0.340449 0.111860
v 0.005856 -0.340449 0.104969
v 0.034709 -0.453707 -0.002715
v 0.019625 -0.340449 0.000378
v 0.034709 -0.340449 -0.002715
v 0.033395 -0.340449 0.002191
v 0.034709 -0.453707 0.109874
v 0.034709 -0.340449 0.109874
v 0.019625 -0.340449 0.106782
v 0.048765 -0.453707 0.003108
v 0.033395 -0.340449 0.104969
v 0.046226 -0.340449 0.007506
v 0.048765 -0.340449 0.003108
v 0.048765 -0.453707 0.104052
v 0.048765 -0.340449 0.104052
v 0.060836 -0.453707 0.012370
v 0.057245 -0.340449 0.015960
v 0.060836 -0.340449 0.012370
v 0.060836 -0.453707 0.094790
v 0.060836 -0.340449 0.094790
v 0.070097 -0.340449 0.024440
v 0.070097 -0.453707 0.024440
v 0.065700 -0.340449 0.026979
v 0.070097 -0.453707 0.082720
v 0.075920 -0.340449 0.038496
v 0.071014 -0.340449 0.039810
v 0.075920 -0.453707 0.038496
v 0.070097 -0.340449 0.082720
v 0.075920 -0.453707 0.068664
v 0.077905 -0.340449 0.053580
v 0.072827 -0.340449 0.053580
v 0.077905 -0.453707 0.053580
v 0.075920 -0.340449 0.068664
vn 0.000000 -1.000000 0.000000
vn 0.000000 1.000000 0.000000
vn -0.965926 0.000000 0.258819
vn -1.000000 0.000000 0.000000
vn 1.000000 0.000000 0.000000
vn 0.965926 0.000000 -0.258819
vn -0.965926 0.000000 -0.258819
vn 0.965926 0.000000 0.258819
vn -0.866025 0.000000 -0.500000
vn 0.866025 0.000000 0.500000
vn -0.707107 0.000000 -0.707107
vn 0.707107 0.000000 0.707107
vn -0.866025 0.000000 0.500000
vn 0.866025 0.000000 -0.500000
vn -0.500000 0.000000 -0.866025
vn 0.500000 0.000000 0.866025
vn -0.707107 0.000000 0.707107
vn 0.707107 0.000000 -0.707107
vn -0.258819 0.000000 -0.965926
vn 0.258819 0.000000 0.965926
vn -0.500000 0.000000 0.866025
vn 0.500000 0.000000 -0.866025
vn -0.258819 0.000000 0.965926
vn 0.258819 0.000000 -0.965926
vn 0.000000 0.000000 -1.000000
vn 0.000000 0.000000 1.000000
usemtl material-0
f 1//1 2//1 3//1
f 2//1 1//1 4//1
f 3//2 2//2 1//2
f 4//2 1//2 2//2
f 2//3 5//4 3//4
f 3//5 5//5 2//6
f 3//4 6//7 1//7
f 1//8 6//8 3//5
f 1//7 7//9 4//9
f 4//10 7//10 1//8
f 2//1 4//1 8//1
f 8//2 4//2 2//2
f 5//4 2//3 9//3
f 9//6 2//6 5//5
f 6//7 3//4 5//4
f 5//5 3//5 6//8
f 7//9 1//7 6//7
f 6//8 1//8 7//10
f 10//11 4//9 7//9
f 7//10 4//10 10//12
f 8//1 4//1 11//1
f 11//2 4//2 8//2
f 8//13 9//3 2//3
f 2//6 9//6 8//14
f 9//2 6//2 5//2
f 5//1 6//1 9//1
f 4//9 10//11 11//11
f 11//12 10//12 4//10
f 7//2 13//2 10//2
f 10//1 13//1 7//1
f 8//1 11//1 14//1
f 14//2 11//2 8//2
f 9//3 8//13 15//13
f 15//14 8//14 9//6
f 6//2 9//2 15//2
f 15//1 9//1 6//1
f 6//2 15//2 12//2
f 12//1 15//1 6//1
f 10//11 17//15 11//11
f 11//12 17//16 10//12
f 7//2 16//2 13//2
f 13//1 16//1 7//1
f 14//1 11//1 17//1
f 17//2 11//2 14//2
f 14//17 15//13 8//13
f 8//14 15//14 14//18
f 12//2 15//2 19//2
f 19//1 15//1 12//1
f 17//15 10//11 20//15
f 20//16 10//12 17//16
f 14//1 17//1 21//1
f 21//2 17//2 14//2
f 15//13 14//17 22//17
f 22//18 14//18 15//14
f 19//2 15//2 23//2
f 23//1 15//1 19//1
f 20//15 24//19 17//15
f 17//16 24//20 20//16
f 20//2 18//2 25//2
f 25//1 18//1 20//1
f 21//1 17//1 24//1
f 24//2 17//2 21//2
f 26//21 14//17 21//21
f 21//22 14//18 26//22
f 14//17 26//21 22//17
f 22//18 26//22 14//18
f 23//2 15//2 22//2
f 22//1 15//1 23//1
f 24//19 20//15 27//19
f 27//20 20//16 24//20
f 20//2 25//2 27//2
f 27//1 25//1 20//1
f 21//1 24//1 28//1
f 28//2 24//2 21//2
f 21//21 29//23 26//21
f 26//22 29//24 21//22
f 30//2 22//2 26//2
f 26//1 22//1 30//1
f 27//19 31//25 24//19
f 24//20 31//26 27//20
f 27//2 25//2 32//2
f 32//1 25//1 27//1
f 28//1 24//1 31//1
f 31//2 24//2 28//2
f 29//23 21//21 28//23
f 28//24 21//22 29//24
f 33//2 26//2 29//2
f 29//1 26//1 33//1
f 31//25 27//19 34//25
f 34//26 27//20 31//26
f 27//2 32//2 34//2
f 34//1 32//1 27//1
f 28//1 31//1 35//1
f 35//2 31//2 28//2
f 28//23 36//26 29//23
f 29//24 36//25 28//24
f 34//25 38//24 31//25
f 31//26 38//23 34//26
f 34//2 32//2 39//2
f 39//1 32//1 34//1
f 35//1 31//1 38//1
f 38//2 31//2 35//2
f 36//26 28//23 35//26
f 35//25 28//24 36//25
f 37//2 29//2 36//2
f 36//1 29//1 37//1
f 38//24 34//25 40//24
f 40//23 34//26 38//23
f 34//2 39//2 41//2
f 41//1 39//1 34//1
f 35//1 38//1 42//1
f 42//2 38//2 35//2
f 35//26 43//20 36//26
f 36//25 43//19 35//25
f 37//2 36//2 44//2
f 44//1 36//1 37//1
f 34//2 41//2 40//2
f 40//1 41//1 34//1
f 40//24 45//22 38//24
f 38//23 45//21 40//23
f 42//1 38//1 45//1
f 45//2 38//2 42//2
f 43//20 35//26 42//20
f 42//19 35//25 43//19
f 46//2 36//2 43//2
f 43//1 36//1 46//1
f 44//2 36//2 46//2
f 46//1 36//1 44//1
f 40//2 41//2 47//2
f 47//1 41//1 40//1
f 45//22 40//24 48//22
f 48//21 40//23 45//21
f 42//1 45//1 49//1
f 49//2 45//2 42//2
f 42//20 50//16 43//20
f 43//19 50//15 42//19
f 40//2 47//2 48//2
f 48//1 47//1 40//1
f 48//22 51//18 45//22
f 45//21 51//17 48//21
f 49//1 45//1 51//1
f 51//2 45//2 49//2
f 50//16 42//20 49//16
f 49//15 42//19 50//15
f 48//2 47//2 52//2
f 52//1 47//1 48//1
f 51//18 48//22 53//18
f 53//17 48//21 51//17
f 49//1 51//1 54//1
f 54//2 51//2 49//2
f 49//16 55//12 50//16
f 50//15 55//11 49//15
f 48//2 52//2 53//2
f 53//1 52//1 48//1
f 56//14 51//18 53//18
f 53//17 51//17 56//13
f 54//1 51//1 57//1
f 57//2 51//2 54//2
f 55//12 49//16 54//12
f 54//11 49//15 55//11
f 51//18 56//14 57//14
f 57//13 56//13 51//17
f 53//2 58//2 56//2
f 56//1 58//1 53//1
f 54//1 57//1 59//1
f 59//2 57//2 54//2
f 59//10 55//12 54//12
f 54//11 55//11 59//9
f 60//6 57//14 56//14
f 56//13 57//13 60//3
f 56//2 58//2 61//2
f 61//1 58//1 56//1
f 59//1 57//1 62//1
f 62//2 57//2 59//2
f 55//12 59//10 63//10
f 63//9 59//9 55//11
f 57//14 60//6 62//6
f 62//3 60//3 57//13
f 56//2 61//2 60//2
f 60//1 61//1 56//1
f 59//1 62//1 64//1
f 64//2 62//2 59//2
f 64//8 63//10 59//10
f 59//9 63//9 64//7
f 65//5 62//6 60//6
f 60//3 62//3 65//4
f 60//2 61//2 66//2
f 66//1 61//1 60//1
f 64//1 62//1 67//1
f 67//2 62//2 64//2
f 63//10 64//8 68//8
f 68//7 64//7 63//9
f 62//6 65//5 67//5
f 67//4 65//4 62//3
f 60//2 68//2 65//2
f 65//1 68//1 60//1
f 60//2 66//2 68//2
f 68//1 66//1 60//1
f 67//5 68//8 64//8
f 64//7 68//7 67//4
f 68//8 67//5 65//5
f 65//4 67//4 68//7