# SSTK version 0.8.0
# 77
mtllib original-77.mtl
o Group47/mesh56/mesh56-geometry#mesh56-geometry
v 0.023239 -0.130379 0.034815
v 0.027925 -0.246812 0.036756
v 0.023239 -0.246812 0.034815
v 0.027925 -0.130379 0.036756
v 0.023239 -0.246812 0.072345
v 0.018211 -0.130379 0.034153
v 0.023239 -0.130379 0.072345
v 0.031948 -0.130379 0.039843
v 0.018211 -0.246812 0.073007
v 0.027925 -0.246812 0.070404
v 0.018211 -0.246812 0.034153
v 0.027925 -0.130379 0.070404
v 0.031948 -0.246812 0.039843
v 0.013183 -0.130379 0.034815
v 0.018211 -0.130379 0.073007
v 0.035035 -0.246812 0.043866
v 0.031948 -0.130379 0.067317
v 0.013183 -0.246812 0.072345
v 0.031948 -0.246812 0.067317
v 0.013183 -0.246812 0.034815
v 0.035035 -0.130379 0.043866
v 0.035035 -0.130379 0.063293
v 0.008498 -0.246812 0.036756
v 0.013183 -0.130379 0.072345
v 0.036976 -0.246812 0.048552
v 0.035035 -0.246812 0.063293
v 0.008498 -0.246812 0.070404
v 0.008498 -0.130379 0.036756
v 0.008498 -0.130379 0.070404
v 0.036976 -0.130379 0.058608
v 0.036976 -0.130379 0.048552
v 0.004474 -0.130379 0.039843
v 0.004474 -0.246812 0.067317
v 0.037638 -0.246812 0.053580
v 0.036976 -0.246812 0.058608
v 0.004474 -0.246812 0.039843
v 0.037638 -0.130379 0.053580
v 0.001387 -0.246812 0.043866
v 0.004474 -0.130379 0.067317
v 0.001387 -0.246812 0.063293
v 0.001387 -0.130379 0.043866
v 0.001387 -0.130379 0.063293
v -0.000554 -0.246812 0.048552
v -0.000554 -0.246812 0.058608
v -0.000554 -0.130379 0.058608
v -0.000554 -0.130379 0.048552
v -0.001215 -0.246812 0.053580
v -0.001215 -0.130379 0.053580
vt -0.1265 1.168693
vt -0.206913 -0.03
vt -0.1265 -0.03
vt -0.206913 1.168693
vt -0.387758 0.006815
vt -0.387758 0.393185
vt -0.46205 0.373205
vt -0.305398 -0.03
vt -0.224985 1.168693
vt -0.305398 1.168693
vt 0.387758 0.393185
vt 0.387758 0.006815
vt 0.46205 0.373205
vt -0.097067 1.168693
vt -0.016654 -0.03
vt -0.016654 1.168693
vt -0.308033 0
vt -0.46205 0.026795
vt -0.224985 -0.03
vt 0.308033 0.4
vt 0.46205 0.026795
vt -0.097067 -0.03
vt 0.525846 0.341421
vt -0.308033 0.4
vt 0.385811 1.168693
vt 0.305398 -0.03
vt 0.385811 -0.03
vt -0.525846 0.341421
vt 0.442671 1.168693
vt 0.362258 -0.03
vt 0.442671 -0.03
vt -0.385811 -0.03
vt -0.385811 1.168693
vt 0.308033 0
vt 0.362258 1.168693
vt 0.097067 1.168693
vt 0.016654 -0.03
vt 0.097067 -0.03
vt 0.525846 0.058579
vt -0.228308 0.006815
vt 0.305398 1.168693
vt -0.525846 0.058579
vt 0.391692 -0.03
vt 0.472104 1.168693
vt 0.391692 1.168693
vt 0.228308 0.393185
vt 0.016654 1.168693
vt -0.574798 0.3
vt 0.574798 0.1
vt -0.228308 0.393185
vt 0.224985 -0.03
vt 0.472104 -0.03
vt -0.362258 -0.03
vt -0.442671 1.168693
vt -0.442671 -0.03
vt 0.228308 0.006815
vt 0.574798 0.3
vt 0.206913 1.168693
vt 0.1265 -0.03
vt 0.206913 -0.03
vt -0.574798 0.1
vt -0.154017 0.026795
vt 0.224985 1.168693
vt -0.362258 1.168693
vt -0.154017 0.373205
vt 0.154017 0.026795
vt 0.605571 0.148236
vt 0.1265 1.168693
vt -0.605571 0.251764
vt -0.472104 -0.03
vt -0.391692 1.168693
vt -0.472104 1.168693
vt 0.154017 0.373205
vt -0.090221 0.058579
vt 0.605571 0.251764
vt -0.605571 0.148236
vt -0.391692 -0.03
vt 0.090221 0.341421
vt -0.090221 0.341421
vt 0.616067 0.2
vt -0.616067 0.2
vt 0.090221 0.058579
vt -0.041269 0.1
vt -0.041269 0.3
vt 0.041269 0.3
vt -0.010496 0.148236
vt 0.041269 0.1
vt -0.010496 0.251764
vt 0.010496 0.251764
vt 0.010496 0.148236
vt 0 0.2
vn 0.2588189595935754 0 -0.965925849201117
vn 0.5000001748438417 0 -0.8660253028382762
vn 0 -1 0
vn 0 1 0
vn 0 0 -1
vn 0.7071067811865476 0 -0.7071067811865476
vn 0.2588189595935754 0 0.965925849201117
vn 0 0 1
vn 0.5000001748438417 0 0.8660253028382762
vn -0.2588189595935754 0 -0.965925849201117
vn 0.8660253028382762 0 -0.5000001748438417
vn 0.7071067811865476 0 0.7071067811865476
vn -0.2588189595935754 0 0.965925849201117
vn -0.5000001748438417 0 -0.8660253028382762
vn 0.965925849201117 0 -0.2588189595935754
vn 0.8660253028382762 0 0.5000001748438417
vn -0.5000001748438417 0 0.8660253028382762
vn -0.7071067811865476 0 -0.7071067811865476
vn 0.965925849201117 0 0.2588189595935754
vn 1 0 0
vn -0.7071067811865476 0 0.7071067811865476
vn -0.8660253028382762 0 -0.5000001748438417
vn -0.8660253028382762 0 0.5000001748438417
vn -0.965925849201117 0 -0.2588189595935754
vn -0.965925849201117 0 0.2588189595935754
vn -1 0 0
usemtl material_0_0
f 1/1/1 2/2/2 3/3/1
f 2/2/2 1/1/1 4/4/2
f 5/5/3 3/6/3 2/7/3
f 2/7/4 3/6/4 5/5/4
f 3/8/1 6/9/5 1/10/1
f 1/11/4 7/12/4 4/13/4
f 4/13/3 7/12/3 1/11/3
f 8/14/6 2/15/2 4/16/2
f 9/17/3 3/6/3 5/5/3
f 5/5/4 3/6/4 9/17/4
f 5/5/3 2/7/3 10/18/3
f 10/18/4 2/7/4 5/5/4
f 6/9/5 3/8/1 11/19/5
f 6/20/4 7/12/4 1/11/4
f 1/11/3 7/12/3 6/20/3
f 4/13/4 7/12/4 12/21/4
f 12/21/3 7/12/3 4/13/3
f 2/15/2 8/14/6 13/22/6
f 4/13/4 12/21/4 8/23/4
f 8/23/3 12/21/3 4/13/3
f 9/17/3 11/24/3 3/6/3
f 3/6/4 11/24/4 9/17/4
f 7/25/7 9/26/8 5/27/7
f 10/18/3 2/7/3 13/28/3
f 13/28/4 2/7/4 10/18/4
f 12/29/9 5/30/7 10/31/9
f 11/32/5 14/10/10 6/33/5
f 6/20/4 15/34/4 7/12/4
f 7/12/3 15/34/3 6/20/3
f 5/30/7 12/29/9 7/35/7
f 8/36/6 16/37/11 13/38/6
f 8/23/4 12/21/4 17/39/4
f 17/39/3 12/21/3 8/23/3
f 18/40/3 11/24/3 9/17/3
f 9/17/4 11/24/4 18/40/4
f 9/26/8 7/25/7 15/41/8
f 10/18/3 13/28/3 19/42/3
f 19/42/4 13/28/4 10/18/4
f 10/43/9 17/44/12 12/45/9
f 14/10/10 11/32/5 20/8/10
f 14/46/4 15/34/4 6/20/4
f 6/20/3 15/34/3 14/46/3
f 16/37/11 8/36/6 21/47/11
f 19/42/3 13/28/3 16/48/3
f 16/48/4 13/28/4 19/42/4
f 8/23/4 17/39/4 22/49/4
f 22/49/3 17/39/3 8/23/3
f 18/40/3 20/50/3 11/24/3
f 11/24/4 20/50/4 18/40/4
f 15/41/8 18/51/13 9/26/8
f 17/44/12 10/43/9 19/52/12
f 23/53/14 14/54/10 20/55/10
f 14/46/4 24/56/4 15/34/4
f 15/34/3 24/56/3 14/46/3
f 8/23/4 22/49/4 21/57/4
f 21/57/3 22/49/3 8/23/3
f 21/58/11 25/59/15 16/60/11
f 19/42/3 16/48/3 26/61/3
f 26/61/4 16/48/4 19/42/4
f 19/43/12 22/44/16 17/45/12
f 27/62/3 20/50/3 18/40/3
f 18/40/4 20/50/4 27/62/4
f 18/51/13 15/41/8 24/63/13
f 14/54/10 23/53/14 28/64/14
f 27/62/3 23/65/3 20/50/3
f 20/50/4 23/65/4 27/62/4
f 14/46/4 29/66/4 24/56/4
f 24/56/3 29/66/3 14/46/3
f 21/57/4 22/49/4 30/67/4
f 30/67/3 22/49/3 21/57/3
f 25/59/15 21/58/11 31/68/15
f 26/61/3 16/48/3 25/69/3
f 25/69/4 16/48/4 26/61/4
f 22/44/16 19/43/12 26/52/16
f 24/58/13 27/59/17 18/60/13
f 23/70/14 32/71/18 28/72/14
f 28/73/4 29/66/4 14/46/4
f 14/46/3 29/66/3 28/73/3
f 33/74/3 23/65/3 27/62/3
f 27/62/4 23/65/4 33/74/4
f 27/59/17 24/58/13 29/68/17
f 26/30/16 30/29/19 22/35/16
f 21/57/4 30/67/4 31/75/4
f 31/75/3 30/67/3 21/57/3
f 31/41/15 34/51/20 25/26/15
f 26/61/3 25/69/3 35/76/3
f 35/76/4 25/69/4 26/61/4
f 32/71/18 23/70/14 36/77/18
f 32/78/4 29/66/4 28/73/4
f 28/73/3 29/66/3 32/78/3
f 33/74/3 36/79/3 23/65/3
f 23/65/4 36/79/4 33/74/4
f 29/36/17 33/37/21 27/38/17
f 30/29/19 26/30/16 35/31/19
f 31/75/4 30/67/4 37/80/4
f 37/80/3 30/67/3 31/75/3
f 34/51/20 31/41/15 37/63/20
f 35/76/3 25/69/3 34/81/3
f 34/81/4 25/69/4 35/76/4
f 38/77/22 32/72/18 36/70/18
f 32/78/4 39/82/4 29/66/4
f 29/66/3 39/82/3 32/78/3
f 40/83/3 36/79/3 33/74/3
f 33/74/4 36/79/4 40/83/4
f 33/37/21 29/36/17 39/47/21
f 35/26/19 37/25/20 30/41/19
f 37/25/20 35/26/19 34/27/20
f 32/72/18 38/77/22 41/71/22
f 40/83/3 38/84/3 36/79/3
f 36/79/4 38/84/4 40/83/4
f 41/85/4 39/82/4 32/78/4
f 32/78/3 39/82/3 41/85/3
f 33/15/21 42/14/23 40/22/23
f 42/14/23 33/15/21 39/16/21
f 43/53/24 41/54/22 38/55/22
f 44/86/3 38/84/3 40/83/3
f 40/83/4 38/84/4 44/86/4
f 41/85/4 42/87/4 39/82/4
f 39/82/3 42/87/3 41/85/3
f 45/4/25 40/3/23 42/1/23
f 41/54/22 43/53/24 46/64/24
f 44/86/3 43/88/3 38/84/3
f 38/84/4 43/88/4 44/86/4
f 40/3/23 45/4/25 44/2/25
f 46/89/4 42/87/4 41/85/4
f 41/85/3 42/87/3 46/89/3
f 46/89/4 45/90/4 42/87/4
f 42/87/3 45/90/3 46/89/3
f 47/8/26 46/33/24 43/32/24
f 43/88/3 44/86/3 47/91/3
f 47/91/4 44/86/4 43/88/4
f 48/10/26 44/19/25 45/9/25
f 45/90/4 46/89/4 48/91/4
f 48/91/3 46/89/3 45/90/3
f 46/33/24 47/8/26 48/10/26
f 44/19/25 48/10/26 47/8/26
usemtl material_1_0
f 3//13 2//17 1//13
f 4//17 1//13 2//17
f 1//13 6//8 3//13
f 4//17 2//17 8//21
f 11//8 3//13 6//8
f 13//21 8//21 2//17
f 5//10 9//5 7//10
f 10//14 5//10 12//14
f 6//8 14//7 11//8
f 7//10 12//14 5//10
f 13//21 16//23 8//21
f 15//5 7//10 9//5
f 12//14 17//18 10//14
f 20//7 11//8 14//7
f 21//23 8//21 16//23
f 9//5 18//1 15//5
f 19//18 10//14 17//18
f 20//7 14//7 23//9
f 16//23 25//25 21//23
f 17//18 22//22 19//18
f 24//1 15//5 18//1
f 28//9 23//9 14//7
f 31//25 21//23 25//25
f 26//22 19//18 22//22
f 18//1 27//2 24//1
f 28//9 32//12 23//9
f 29//2 24//1 27//2
f 22//22 30//24 26//22
f 25//25 34//26 31//25
f 36//12 23//9 32//12
f 27//2 33//6 29//2
f 35//24 26//22 30//24
f 37//26 31//25 34//26
f 36//12 32//12 38//16
f 39//6 29//2 33//6
f 30//24 37//26 35//24
f 34//26 35//24 37//26
f 41//16 38//16 32//12
f 40//11 42//11 33//6
f 39//6 33//6 42//11
f 38//16 41//16 43//19
f 42//11 40//11 45//15
f 46//19 43//19 41//16
f 44//15 45//15 40//11
f 43//19 46//19 47//20
f 45//15 44//15 48//20
f 48//20 47//20 46//19
f 47//20 48//20 44//15
