# SSTK version 0.8.0
# 81
mtllib original-81.mtl
o Group50/mesh59/mesh59-geometry#mesh59-geometry
v 0.259115 -0.135923 0.061080
v 0.259715 -0.132529 0.061080
v 0.259415 -0.134226 0.061330
v 0.259998 -0.130927 0.060336
v 0.053130 -0.097790 0.061330
v 0.052831 -0.099487 0.061080
v 0.258832 -0.137525 0.060336
v 0.053430 -0.096092 0.061080
v 0.052548 -0.101088 0.060336
v 0.258585 -0.138927 0.059130
v 0.053713 -0.094491 0.060336
v 0.052300 -0.102491 0.059130
v 0.260245 -0.129524 0.059130
v 0.258391 -0.140025 0.057527
v 0.053961 -0.093088 0.059130
v 0.052106 -0.103589 0.057527
v 0.260439 -0.128426 0.057527
v 0.054155 -0.091990 0.057527
v 0.258267 -0.140726 0.055631
v 0.260563 -0.127725 0.055631
v 0.051982 -0.104290 0.055631
v 0.054279 -0.091289 0.055631
v 0.258224 -0.140967 0.053580
v 0.054321 -0.091048 0.053580
v 0.051940 -0.104531 0.053580
v 0.260606 -0.127485 0.053580
v 0.051982 -0.104290 0.051529
v 0.260563 -0.127725 0.051529
v 0.054279 -0.091289 0.051529
v 0.258267 -0.140726 0.051529
v 0.052106 -0.103589 0.049633
v 0.054155 -0.091990 0.049633
v 0.260439 -0.128426 0.049633
v 0.258391 -0.140025 0.049633
v 0.052300 -0.102491 0.048030
v 0.260245 -0.129524 0.048030
v 0.258585 -0.138927 0.048030
v 0.053961 -0.093088 0.048030
v 0.258832 -0.137525 0.046823
v 0.053713 -0.094491 0.046823
v 0.259998 -0.130927 0.046823
v 0.052548 -0.101088 0.046823
v 0.259115 -0.135923 0.046080
v 0.259715 -0.132529 0.046080
v 0.053430 -0.096092 0.046080
v 0.052831 -0.099487 0.046080
v 0.259415 -0.134226 0.045830
v 0.053130 -0.097790 0.045830
vn 0.9847564461879018 -0.17393890217939803 0
vn -0.9847564461879018 0.17393890217939803 0
vn 0.04915599897927568 0.27829499422120424 0.9592369800814443
vn 0 0 1
vn 0 0 -1
vn -0.04915599897927568 -0.27829499422120424 -0.9592369800814443
vn -0.049155998979275695 -0.27829499422120474 0.9592369800814443
vn 0.049155998979275695 0.27829499422120474 -0.9592369800814443
vn 0.09322895214367996 0.5278177290604087 0.8442255666418214
vn -0.09322895214367996 -0.5278177290604087 -0.8442255666418214
vn -0.09322895214367993 -0.527817729060409 0.844225566641821
vn 0.09322895214367993 0.527817729060409 -0.844225566641821
vn -0.12869600340806325 -0.7286140192947924 0.6727250178147677
vn 0.12869600340806325 0.7286140192947924 -0.6727250178147677
vn 0.12869600340806325 0.7286140192947922 0.6727250178147679
vn -0.12869600340806325 -0.7286140192947922 -0.6727250178147679
vn -0.1540140598556508 -0.8719523388734429 0.4647351806135536
vn 0.1540140598556508 0.8719523388734429 -0.4647351806135536
vn 0.15401405985565084 0.8719523388734429 0.46473518061355407
vn -0.15401405985565084 -0.8719523388734429 -0.46473518061355407
vn -0.1689979867728661 -0.9567859251142821 0.23664398147834934
vn 0.1689979867728661 0.9567859251142821 -0.23664398147834934
vn 0.1689979867728661 0.9567859251142821 0.23664398147834978
vn -0.1689979867728661 -0.9567859251142821 -0.23664398147834978
vn -0.1727139176460513 -0.9778225337518371 0.11846094351511077
vn 0.1727139176460513 0.9778225337518371 -0.11846094351511077
vn 0.5742009878412941 -0.8144179827546993 -0.08376499822627637
vn -0.5742009878412941 0.8144179827546993 0.08376499822627637
vn 0.1727139176460513 0.9778225337518371 0.11846094351511122
vn -0.1727139176460513 -0.9778225337518371 -0.11846094351511122
vn 0.8184549587195883 0.5684319713299973 -0.08376499577514489
vn -0.8184549587195883 -0.5684319713299973 0.08376499577514489
vn 0.5938866648573781 0.776291561922493 -0.2113528807291645
vn -0.5938866648573781 -0.776291561922493 0.2113528807291645
vn 0.292013959969853 -0.9327688721332533 -0.21135297102710282
vn -0.292013959969853 0.9327688721332533 0.21135297102710282
vn 0.5806670909005369 0.7004141096463354 -0.41502506497010366
vn -0.5806670909005369 -0.7004141096463354 0.41502506497010366
vn 0.30558801001029945 -0.8569540280716719 -0.41502501359518224
vn -0.30558801001029945 0.8569540280716719 0.41502501359518224
vn 0.5583131303809264 0.5722571336372213 -0.6006731402731124
vn -0.5583131303809264 -0.5722571336372213 0.6006731402731124
vn 0.32848907566976665 -0.728894167905893 -0.600673138369278
vn -0.32848907566976665 0.728894167905893 0.600673138369278
vn 0.36048777643816743 -0.549574659173137 -0.7536685326012995
vn -0.36048777643816743 0.549574659173137 0.7536685326012995
vn 0.52694493127005 0.39282594876332216 -0.7536689016982178
vn -0.52694493127005 -0.39282594876332216 0.7536689016982178
vn 0.40010298826077845 -0.326825990410762 -0.8562139748782543
vn -0.40010298826077845 0.326825990410762 0.8562139748782543
vn 0.48785580711234094 0.16998493279162574 -0.8562136614715938
vn -0.48785580711234094 -0.16998493279162574 0.8562136614715938
vn 0.44408403268414187 -0.0784390057730324 -0.8925450656904266
vn -0.44408403268414187 0.0784390057730324 0.8925450656904266
usemtl material_0_0
f 1//1 2//1 3//1
f 2//1 1//1 4//1
f 3//2 2//2 1//2
f 4//2 1//2 2//2
f 2//3 5//4 3//4
f 3//5 5//5 2//6
f 3//4 6//7 1//7
f 1//8 6//8 3//5
f 4//1 1//1 7//1
f 7//2 1//2 4//2
f 4//9 8//3 2//3
f 2//6 8//6 4//10
f 5//4 2//3 8//3
f 8//6 2//6 5//5
f 6//7 3//4 5//4
f 5//5 3//5 6//8
f 9//11 1//7 6//7
f 6//8 1//8 9//12
f 1//7 9//11 7//11
f 7//12 9//12 1//8
f 4//1 7//1 10//1
f 10//2 7//2 4//2
f 8//3 4//9 11//9
f 11//10 4//10 8//6
f 8//2 6//2 5//2
f 5//1 6//1 8//1
f 6//2 11//2 9//2
f 9//1 11//1 6//1
f 12//13 7//11 9//11
f 9//12 7//12 12//14
f 7//11 12//13 10//13
f 10//14 12//14 7//12
f 4//1 10//1 13//1
f 13//2 10//2 4//2
f 13//15 11//9 4//9
f 4//10 11//10 13//16
f 6//2 8//2 11//2
f 11//1 8//1 6//1
f 9//2 11//2 12//2
f 12//1 11//1 9//1
f 12//13 14//17 10//13
f 10//14 14//18 12//14
f 13//1 10//1 14//1
f 14//2 10//2 13//2
f 11//9 13//15 15//15
f 15//16 13//16 11//10
f 12//2 11//2 15//2
f 15//1 11//1 12//1
f 14//17 12//13 16//17
f 16//18 12//14 14//18
f 13//1 14//1 17//1
f 17//2 14//2 13//2
f 13//15 18//19 15//15
f 15//16 18//20 13//16
f 12//2 15//2 16//2
f 16//1 15//1 12//1
f 16//17 19//21 14//17
f 14//18 19//22 16//18
f 17//1 14//1 20//1
f 20//2 14//2 17//2
f 18//19 13//15 17//19
f 17//20 13//16 18//20
f 16//2 15//2 18//2
f 18//1 15//1 16//1
f 19//21 16//17 21//21
f 21//22 16//18 19//22
f 20//1 14//1 19//1
f 19//2 14//2 20//2
f 22//23 17//19 20//23
f 20//24 17//20 22//24
f 17//19 22//23 18//19
f 18//20 22//24 17//20
f 16//2 18//2 22//2
f 22//1 18//1 16//1
f 16//2 22//2 21//2
f 21//1 22//1 16//1
f 21//21 23//25 19//21
f 19//22 23//26 21//22
f 20//1 19//1 23//27
f 23//28 19//2 20//2
f 20//23 24//29 22//23
f 22//24 24//30 20//24
f 21//2 22//2 25//2
f 25//1 22//1 21//1
f 23//25 21//21 25//25
f 25//26 21//22 23//26
f 20//1 23//27 26//31
f 26//32 23//28 20//2
f 24//29 20//23 26//29
f 26//30 20//24 24//30
f 25//2 22//2 24//2
f 24//1 22//1 25//1
f 27//24 23//27 25//30
f 25//29 23//28 27//23
f 26//31 23//27 28//33
f 28//34 23//28 26//32
f 28//33 24//26 26//31
f 26//32 24//25 28//34
f 25//2 24//2 29//2
f 29//1 24//1 25//1
f 23//27 27//24 30//35
f 30//36 27//23 23//28
f 25//2 29//2 27//2
f 27//1 29//1 25//1
f 28//33 23//27 30//35
f 30//36 23//28 28//34
f 24//26 28//33 29//22
f 29//21 28//34 24//25
f 31//20 30//35 27//24
f 27//23 30//36 31//19
f 27//2 29//2 32//2
f 32//1 29//1 27//1
f 28//33 30//35 33//37
f 33//38 30//36 28//34
f 33//37 29//22 28//33
f 28//34 29//21 33//38
f 30//35 31//20 34//39
f 34//40 31//19 30//36
f 27//2 32//2 31//2
f 31//1 32//1 27//1
f 29//22 33//37 32//18
f 32//17 33//38 29//21
f 33//37 30//35 34//39
f 34//40 30//36 33//38
f 35//16 34//39 31//20
f 31//19 34//40 35//15
f 31//2 32//2 35//2
f 35//1 32//1 31//1
f 36//41 32//18 33//37
f 33//38 32//17 36//42
f 33//37 34//39 37//43
f 37//44 34//40 33//38
f 34//39 35//16 37//43
f 37//44 35//15 34//40
f 35//2 32//2 38//2
f 38//1 32//1 35//1
f 32//18 36//41 38//14
f 38//13 36//42 32//17
f 33//37 37//43 36//41
f 36//42 37//44 33//38
f 35//16 39//45 37//43
f 37//44 39//46 35//15
f 35//2 38//2 40//2
f 40//1 38//1 35//1
f 36//41 40//12 38//14
f 38//13 40//11 36//42
f 36//41 37//43 41//47
f 41//48 37//44 36//42
f 39//45 35//16 42//10
f 42//9 35//15 39//46
f 41//47 37//43 39//45
f 39//46 37//44 41//48
f 35//2 40//2 42//2
f 42//1 40//1 35//1
f 40//12 36//41 41//47
f 41//48 36//42 40//11
f 42//10 43//49 39//45
f 39//46 43//50 42//9
f 41//47 39//45 44//51
f 44//52 39//46 41//48
f 42//2 40//2 45//2
f 45//1 40//1 42//1
f 41//47 45//8 40//12
f 40//11 45//7 41//48
f 43//49 42//10 46//6
f 46//3 42//9 43//50
f 44//51 39//45 43//49
f 43//50 39//46 44//52
f 45//8 41//47 44//51
f 44//52 41//48 45//7
f 42//2 45//2 46//2
f 46//1 45//1 42//1
f 46//6 47//53 43//49
f 43//50 47//54 46//3
f 44//51 43//49 47//53
f 47//54 43//50 44//52
f 44//51 48//5 45//8
f 45//7 48//4 44//52
f 46//2 45//2 48//2
f 48//1 45//1 46//1
f 47//53 46//6 48//5
f 48//4 46//3 47//54
f 48//5 44//51 47//53
f 47//54 44//52 48//4
