# SSTK version 0.8.0
# 83
mtllib original-83.mtl
o Group51/mesh61/mesh61-geometry#mesh61-geometry
v -0.078923 -0.079906 -0.207653
v 0.111317 -0.086883 -0.207653
v -0.074894 -0.086883 -0.207653
v 0.115345 -0.079906 -0.207653
v -0.064352 -0.105142 -0.179541
v 0.115345 -0.079906 0.243819
v 0.100775 -0.105142 -0.179541
v -0.062093 -0.109055 -0.173168
v -0.078923 -0.079906 0.243819
v 0.107989 -0.092647 0.053580
v 0.098516 -0.109055 -0.173168
v -0.060008 -0.112667 -0.166562
v -0.074894 -0.086883 0.243819
v 0.111317 -0.086883 0.243819
v 0.100775 -0.105142 0.165284
v 0.107823 -0.092934 0.051066
v 0.096431 -0.112667 -0.166562
v -0.058103 -0.115966 -0.159741
v -0.064352 -0.105142 0.165284
v 0.107823 -0.092934 0.056094
v 0.107338 -0.093774 0.048723
v 0.094526 -0.115966 -0.159741
v -0.056384 -0.118944 -0.152727
v -0.062231 -0.108818 0.162911
v 0.098653 -0.108818 0.162911
v 0.106566 -0.095111 0.046711
v 0.092806 -0.118944 -0.152727
v -0.054855 -0.121593 -0.145538
v -0.060227 -0.112288 0.160158
v 0.096650 -0.112288 0.160158
v 0.105561 -0.096853 0.045168
v 0.091277 -0.121593 -0.145538
v -0.053521 -0.123903 -0.138195
v -0.058359 -0.115524 0.157047
v 0.094781 -0.115524 0.157047
v 0.104389 -0.098882 0.044197
v 0.089943 -0.123903 -0.138195
v -0.052385 -0.125870 -0.130720
v -0.056642 -0.118497 0.153605
v 0.093064 -0.118497 0.153605
v 0.103132 -0.101060 0.043866
v 0.088808 -0.125870 -0.130720
v -0.051452 -0.127487 -0.123135
v -0.055091 -0.121184 0.149861
v 0.091513 -0.121184 0.149861
v 0.086205 -0.130379 -0.092121
v 0.087874 -0.127487 -0.123135
v -0.050723 -0.128749 -0.115459
v -0.053719 -0.123560 0.145848
v 0.090141 -0.123560 0.145848
v 0.097304 -0.111154 0.043866
v 0.086310 -0.130197 -0.099930
v 0.087146 -0.128749 -0.115459
v -0.050201 -0.129654 -0.107717
v -0.052538 -0.125606 0.141599
v 0.107338 -0.093774 0.058437
v 0.096047 -0.113331 0.044197
v -0.049782 -0.130379 -0.092121
v 0.086623 -0.129654 -0.107717
v -0.049887 -0.130197 -0.099930
v -0.051557 -0.127305 0.137150
v 0.088960 -0.125606 0.141599
v 0.094876 -0.115360 0.045168
v -0.049782 -0.130379 0.118134
v -0.050786 -0.128641 0.132539
v 0.087980 -0.127305 0.137150
v 0.093870 -0.117102 0.046711
v 0.086205 -0.130379 0.118134
v -0.050230 -0.129604 0.127806
v 0.087208 -0.128641 0.132539
v 0.093098 -0.118439 0.048723
v 0.086317 -0.130184 0.122991
v 0.092448 -0.119566 0.053580
v -0.049894 -0.130184 0.122991
v 0.086652 -0.129604 0.127806
v 0.092613 -0.119279 0.051066
v 0.092613 -0.119279 0.056094
v 0.106566 -0.095111 0.060448
v 0.093098 -0.118439 0.058437
v 0.105561 -0.096853 0.061992
v 0.093870 -0.117102 0.060448
v 0.104389 -0.098882 0.062962
v 0.094876 -0.115360 0.061992
v 0.103132 -0.101060 0.063293
v 0.096047 -0.113331 0.062962
v 0.097304 -0.111154 0.063293
vn 0 0 -1
vn 0 0 1
vn 0 -0.8386278073634408 -0.5447048748788537
vn 0 0.8386278073634408 0.5447048748788537
vn -0.8660253028382762 -0.5000001748438417 0
vn 0.8660253028382762 0.5000001748438417 0
vn 0 1 0
vn 0 -1 0
vn 0.8660253028382762 -0.5000001748438417 0
vn -0.8660253028382762 0.5000001748438417 0
vn 0 -0.8522057310076949 -0.5232068348537129
vn 0 0.8522057310076949 0.5232068348537129
vn 0 -0.8774517698755804 -0.47966487420094833
vn 0 0.8774517698755804 0.47966487420094833
vn 0 -0.9001911208479654 -0.4354950584639093
vn 0 0.9001911208479654 0.4354950584639093
vn 0 -0.9740218682148503 0.2264539693607798
vn 0 0.9740218682148503 -0.2264539693607798
vn 0 -0.9204751623598668 -0.3908010689322345
vn 0 0.9204751623598668 0.3908010689322345
vn 0 -0.5423612507483082 0.8401453884219867
vn 0 0.5423612507483082 -0.8401453884219867
vn 0 -0.9383539407467039 -0.34567597817194556
vn 0 0.9383539407467039 0.34567597817194556
vn 0 -0.6215558700836489 0.7833698362616205
vn 0 0.6215558700836489 -0.7833698362616205
vn 0 -0.9538766324094022 -0.3001988843138795
vn 0 0.9538766324094022 0.3001988843138795
vn 0 -0.6930568943303165 0.7208828900877148
vn 0 0.6930568943303165 -0.7208828900877148
vn 0 -0.9670890823162085 -0.2544380216571295
vn 0 0.9670890823162085 0.2544380216571295
vn 0 -0.7566848192942283 0.6537798438692195
vn 0 0.7566848192942283 -0.6537798438692195
vn 0 -0.9780321647299715 -0.2084540351099163
vn 0 0.9780321647299715 0.2084540351099163
vn 0 -0.8124457374642959 0.5830368115960575
vn 0 0.8124457374642959 -0.5830368115960575
vn 0 -0.9867417950695383 -0.1622979662933129
vn 0 0.9867417950695383 0.1622979662933129
vn 0 -0.8604752909745015 0.5094921722876091
vn 0 0.8604752909745015 -0.5094921722876091
vn 0 -0.9997303792477914 -0.023220008808512237
vn 0 0.9997303792477914 0.023220008808512237
vn 0 -0.9932475839783366 -0.11601395140756685
vn 0 0.9932475839783366 0.11601395140756685
vn 0 -0.90098955248716 0.4338407845154571
vn 0 0.90098955248716 -0.4338407845154571
vn 0 -0.9975720482086681 -0.06964200336551976
vn 0 0.9975720482086681 0.06964200336551976
vn 0 -0.9342403174848096 0.3566441211991054
vn 0 0.9342403174848096 -0.3566441211991054
vn 0 -0.9604806139973261 0.2783468881365831
vn 0 0.9604806139973261 -0.2783468881365831
vn 0 -0.9992018003530055 0.03994699201833192
vn 0 0.9992018003530055 -0.03994699201833192
vn 0 -0.9799397540175139 0.19929394997363734
vn 0 0.9799397540175139 -0.19929394997363734
vn 0 -0.9928034681893485 0.11975505647446191
vn 0 0.9928034681893485 -0.11975505647446191
usemtl material_0_0
f 1//1 2//1 3//1
f 2//1 1//1 4//1
f 3//2 2//2 1//2
f 4//2 1//2 2//2
f 2//3 5//3 3//3
f 3//4 5//4 2//4
f 5//5 1//5 3//5
f 3//6 1//6 5//6
f 4//7 1//7 6//7
f 6//8 1//8 4//8
f 4//9 7//9 2//9
f 2//10 7//10 4//10
f 2//3 7//3 5//3
f 5//4 7//4 2//4
f 8//5 1//5 5//5
f 5//6 1//6 8//6
f 6//7 1//7 9//7
f 9//8 1//8 6//8
f 6//9 10//9 4//9
f 4//10 10//10 6//10
f 4//9 11//9 7//9
f 7//10 11//10 4//10
f 7//11 8//11 5//11
f 5//12 8//12 7//12
f 12//5 1//5 8//5
f 8//6 1//6 12//6
f 1//5 13//5 9//5
f 9//6 13//6 1//6
f 9//2 14//2 6//2
f 6//1 14//1 9//1
f 6//9 15//9 10//9
f 10//10 15//10 6//10
f 4//9 10//9 16//9
f 16//10 10//10 4//10
f 4//9 17//9 11//9
f 11//10 17//10 4//10
f 7//11 11//11 8//11
f 8//12 11//12 7//12
f 18//5 1//5 12//5
f 12//6 1//6 18//6
f 11//13 12//13 8//13
f 8//14 12//14 11//14
f 13//5 1//5 19//5
f 19//6 1//6 13//6
f 14//2 9//2 13//2
f 13//1 9//1 14//1
f 15//9 6//9 14//9
f 14//10 6//10 15//10
f 10//9 15//9 20//9
f 20//10 15//10 10//10
f 4//9 16//9 21//9
f 21//10 16//10 4//10
f 4//9 22//9 17//9
f 17//10 22//10 4//10
f 11//13 17//13 12//13
f 12//14 17//14 11//14
f 23//5 1//5 18//5
f 18//6 1//6 23//6
f 17//15 18//15 12//15
f 12//16 18//16 17//16
f 19//5 1//5 24//5
f 24//6 1//6 19//6
f 14//17 13//17 19//17
f 19//18 13//18 14//18
f 14//17 19//17 15//17
f 15//18 19//18 14//18
f 20//9 15//9 25//9
f 25//10 15//10 20//10
f 4//9 21//9 26//9
f 26//10 21//10 4//10
f 4//9 27//9 22//9
f 22//10 27//10 4//10
f 17//15 22//15 18//15
f 18//16 22//16 17//16
f 28//5 1//5 23//5
f 23//6 1//6 28//6
f 22//19 23//19 18//19
f 18//20 23//20 22//20
f 24//5 1//5 29//5
f 29//6 1//6 24//6
f 15//21 19//21 24//21
f 24//22 19//22 15//22
f 15//21 24//21 25//21
f 25//22 24//22 15//22
f 20//9 25//9 30//9
f 30//10 25//10 20//10
f 4//9 26//9 31//9
f 31//10 26//10 4//10
f 4//9 32//9 27//9
f 27//10 32//10 4//10
f 22//19 27//19 23//19
f 23//20 27//20 22//20
f 33//5 1//5 28//5
f 28//6 1//6 33//6
f 27//23 28//23 23//23
f 23//24 28//24 27//24
f 29//5 1//5 34//5
f 34//6 1//6 29//6
f 25//25 24//25 29//25
f 29//26 24//26 25//26
f 25//25 29//25 30//25
f 30//26 29//26 25//26
f 20//9 30//9 35//9
f 35//10 30//10 20//10
f 4//9 31//9 36//9
f 36//10 31//10 4//10
f 4//9 37//9 32//9
f 32//10 37//10 4//10
f 27//23 32//23 28//23
f 28//24 32//24 27//24
f 38//5 1//5 33//5
f 33//6 1//6 38//6
f 32//27 33//27 28//27
f 28//28 33//28 32//28
f 34//5 1//5 39//5
f 39//6 1//6 34//6
f 30//29 29//29 34//29
f 34//30 29//30 30//30
f 30//29 34//29 35//29
f 35//30 34//30 30//30
f 20//9 35//9 40//9
f 40//10 35//10 20//10
f 4//9 36//9 41//9
f 41//10 36//10 4//10
f 4//9 42//9 37//9
f 37//10 42//10 4//10
f 32//27 37//27 33//27
f 33//28 37//28 32//28
f 43//5 1//5 38//5
f 38//6 1//6 43//6
f 37//31 38//31 33//31
f 33//32 38//32 37//32
f 39//5 1//5 44//5
f 44//6 1//6 39//6
f 40//33 34//33 39//33
f 39//34 34//34 40//34
f 35//33 34//33 40//33
f 40//34 34//34 35//34
f 20//9 40//9 45//9
f 45//10 40//10 20//10
f 4//9 41//9 46//9
f 46//10 41//10 4//10
f 4//9 47//9 42//9
f 42//10 47//10 4//10
f 37//31 42//31 38//31
f 38//32 42//32 37//32
f 48//5 1//5 43//5
f 43//6 1//6 48//6
f 42//35 43//35 38//35
f 38//36 43//36 42//36
f 44//5 1//5 49//5
f 49//6 1//6 44//6
f 45//37 39//37 44//37
f 44//38 39//38 45//38
f 40//37 39//37 45//37
f 45//38 39//38 40//38
f 20//9 45//9 50//9
f 50//10 45//10 20//10
f 51//9 46//9 41//9
f 41//10 46//10 51//10
f 4//9 46//9 52//9
f 52//10 46//10 4//10
f 4//9 53//9 47//9
f 47//10 53//10 4//10
f 42//35 47//35 43//35
f 43//36 47//36 42//36
f 54//5 1//5 48//5
f 48//6 1//6 54//6
f 47//39 48//39 43//39
f 43//40 48//40 47//40
f 49//5 1//5 55//5
f 55//6 1//6 49//6
f 50//41 44//41 49//41
f 49//42 44//42 50//42
f 45//41 44//41 50//41
f 50//42 44//42 45//42
f 20//9 50//9 56//9
f 56//10 50//10 20//10
f 57//9 46//9 51//9
f 51//10 46//10 57//10
f 52//43 46//43 58//43
f 58//44 46//44 52//44
f 4//9 52//9 59//9
f 59//10 52//10 4//10
f 4//9 59//9 53//9
f 53//10 59//10 4//10
f 47//39 53//39 48//39
f 48//40 53//40 47//40
f 60//5 1//5 54//5
f 54//6 1//6 60//6
f 53//45 54//45 48//45
f 48//46 54//46 53//46
f 55//5 1//5 61//5
f 61//6 1//6 55//6
f 62//47 49//47 55//47
f 55//48 49//48 62//48
f 50//47 49//47 62//47
f 62//48 49//48 50//48
f 56//9 50//9 62//9
f 62//10 50//10 56//10
f 63//9 46//9 57//9
f 57//10 46//10 63//10
f 46//8 64//8 58//8
f 58//7 64//7 46//7
f 52//43 58//43 60//43
f 60//44 58//44 52//44
f 59//49 52//49 60//49
f 60//50 52//50 59//50
f 53//45 59//45 54//45
f 54//46 59//46 53//46
f 58//5 1//5 60//5
f 60//6 1//6 58//6
f 59//49 60//49 54//49
f 54//50 60//50 59//50
f 61//5 1//5 65//5
f 65//6 1//6 61//6
f 66//51 55//51 61//51
f 61//52 55//52 66//52
f 62//51 55//51 66//51
f 66//52 55//52 62//52
f 56//9 62//9 66//9
f 66//10 62//10 56//10
f 67//9 46//9 63//9
f 63//10 46//10 67//10
f 68//8 64//8 46//8
f 46//7 64//7 68//7
f 64//5 1//5 58//5
f 58//6 1//6 64//6
f 65//5 1//5 69//5
f 69//6 1//6 65//6
f 70//53 61//53 65//53
f 65//54 61//54 70//54
f 66//53 61//53 70//53
f 70//54 61//54 66//54
f 56//9 66//9 70//9
f 70//10 66//10 56//10
f 71//9 46//9 67//9
f 67//10 46//10 71//10
f 72//55 64//55 68//55
f 68//56 64//56 72//56
f 73//9 68//9 46//9
f 46//10 68//10 73//10
f 74//5 1//5 64//5
f 64//6 1//6 74//6
f 69//5 1//5 74//5
f 74//6 1//6 69//6
f 75//57 65//57 69//57
f 69//58 65//58 75//58
f 70//57 65//57 75//57
f 75//58 65//58 70//58
f 56//9 70//9 75//9
f 75//10 70//10 56//10
f 76//9 46//9 71//9
f 71//10 46//10 76//10
f 72//55 74//55 64//55
f 64//56 74//56 72//56
f 56//9 72//9 68//9
f 68//10 72//10 56//10
f 77//9 68//9 73//9
f 73//10 68//10 77//10
f 73//9 46//9 76//9
f 76//10 46//10 73//10
f 72//59 69//59 74//59
f 74//60 69//60 72//60
f 75//59 69//59 72//59
f 72//60 69//60 75//60
f 56//9 75//9 72//9
f 72//10 75//10 56//10
f 56//9 68//9 78//9
f 78//10 68//10 56//10
f 79//9 68//9 77//9
f 77//10 68//10 79//10
f 78//9 68//9 80//9
f 80//10 68//10 78//10
f 81//9 68//9 79//9
f 79//10 68//10 81//10
f 80//9 68//9 82//9
f 82//10 68//10 80//10
f 83//9 68//9 81//9
f 81//10 68//10 83//10
f 82//9 68//9 84//9
f 84//10 68//10 82//10
f 85//9 68//9 83//9
f 83//10 68//10 85//10
f 84//9 68//9 86//9
f 86//10 68//10 84//10
f 68//9 85//9 86//9
f 86//10 85//10 68//10
