# SSTK version 0.8.0
# 75
mtllib original-75.mtl
o Group45/mesh54/mesh54-geometry#mesh54-geometry
v -0.046052 -0.667401 0.035982
v -0.046052 -0.667401 0.071178
v -0.048368 -0.667401 0.053580
v -0.039259 -0.667401 0.019583
v -0.048368 -0.453707 0.053580
v -0.046052 -0.453707 0.035982
v -0.039259 -0.453707 0.019583
v -0.039259 -0.667401 0.087577
v -0.046052 -0.453707 0.071178
v -0.028454 -0.453707 0.005501
v -0.028454 -0.667401 0.101659
v -0.039259 -0.453707 0.087577
v -0.028454 -0.667401 0.005501
v -0.028454 -0.453707 0.101659
v -0.014372 -0.667401 -0.005304
v -0.014372 -0.453707 0.112464
v -0.014372 -0.667401 0.112464
v -0.014372 -0.453707 -0.005304
v 0.002027 -0.667401 -0.012097
v 0.002027 -0.667401 0.119257
v 0.002027 -0.453707 0.119257
v 0.002027 -0.453707 -0.012097
v 0.019625 -0.667401 -0.014414
v 0.019625 -0.667401 0.121574
v 0.019625 -0.453707 0.121574
v 0.019625 -0.453707 -0.014414
v 0.037223 -0.667401 -0.012097
v 0.037223 -0.667401 0.119257
v 0.037223 -0.453707 0.119257
v 0.037223 -0.453707 -0.012097
v 0.053622 -0.667401 -0.005304
v 0.053622 -0.667401 0.112464
v 0.053622 -0.453707 0.112464
v 0.053622 -0.453707 -0.005304
v 0.067704 -0.667401 0.005501
v 0.067704 -0.667401 0.101659
v 0.067704 -0.453707 0.101659
v 0.067704 -0.453707 0.005501
v 0.078509 -0.453707 0.019583
v 0.078509 -0.667401 0.087577
v 0.078509 -0.453707 0.087577
v 0.078509 -0.667401 0.019583
v 0.085302 -0.453707 0.035982
v 0.085302 -0.453707 0.071178
v 0.085302 -0.667401 0.071178
v 0.085302 -0.667401 0.035982
v 0.087619 -0.453707 0.053580
v 0.087619 -0.667401 0.053580
vn 0 -1 0
vn 0 1 0
vn -0.965925849201117 0 0.2588189595935754
vn -1 0 0
vn 1 0 0
vn 0.965925849201117 0 -0.2588189595935754
vn -0.965925849201117 0 -0.2588189595935754
vn 0.965925849201117 0 0.2588189595935754
vn -0.8660253028382762 0 -0.5000001748438417
vn 0.8660253028382762 0 0.5000001748438417
vn -0.7071067811865476 0 -0.7071067811865476
vn 0.7071067811865476 0 0.7071067811865476
vn -0.8660253028382762 0 0.5000001748438417
vn 0.8660253028382762 0 -0.5000001748438417
vn -0.7071067811865476 0 0.7071067811865476
vn 0.7071067811865476 0 -0.7071067811865476
vn -0.5000001748438417 0 -0.8660253028382762
vn 0.5000001748438417 0 0.8660253028382762
vn -0.5000001748438417 0 0.8660253028382762
vn 0.5000001748438417 0 -0.8660253028382762
vn -0.2588189595935754 0 -0.965925849201117
vn 0.2588189595935754 0 0.965925849201117
vn -0.2588189595935754 0 0.965925849201117
vn 0.2588189595935754 0 -0.965925849201117
vn 0 0 -1
vn 0 0 1
usemtl material_0_0
f 1//1 2//1 3//1
f 2//1 1//1 4//1
f 3//2 2//2 1//2
f 4//2 1//2 2//2
f 2//3 5//4 3//4
f 3//5 5//5 2//6
f 3//4 6//7 1//7
f 1//8 6//8 3//5
f 1//7 7//9 4//9
f 4//10 7//10 1//8
f 2//1 4//1 8//1
f 8//2 4//2 2//2
f 5//4 2//3 9//3
f 9//6 2//6 5//5
f 6//7 3//4 5//4
f 5//5 3//5 6//8
f 7//9 1//7 6//7
f 6//8 1//8 7//10
f 10//11 4//9 7//9
f 7//10 4//10 10//12
f 8//1 4//1 11//1
f 11//2 4//2 8//2
f 8//13 9//3 2//3
f 2//6 9//6 8//14
f 9//2 6//2 5//2
f 5//1 6//1 9//1
f 6//2 12//2 7//2
f 7//1 12//1 6//1
f 4//9 10//11 13//11
f 13//12 10//12 4//10
f 7//2 14//2 10//2
f 10//1 14//1 7//1
f 11//1 4//1 13//1
f 13//2 4//2 11//2
f 11//15 12//13 8//13
f 8//14 12//14 11//16
f 9//3 8//13 12//13
f 12//14 8//14 9//6
f 6//2 9//2 12//2
f 12//1 9//1 6//1
f 7//2 12//2 14//2
f 14//1 12//1 7//1
f 10//11 15//17 13//11
f 13//12 15//18 10//12
f 10//2 14//2 16//2
f 16//1 14//1 10//1
f 11//1 13//1 17//1
f 17//2 13//2 11//2
f 12//13 11//15 14//15
f 14//16 11//16 12//14
f 15//17 10//11 18//17
f 18//18 10//12 15//18
f 17//1 13//1 15//1
f 15//2 13//2 17//2
f 11//15 16//19 14//15
f 14//16 16//20 11//16
f 10//2 16//2 18//2
f 18//1 16//1 10//1
f 16//19 11//15 17//19
f 17//20 11//16 16//20
f 18//17 19//21 15//17
f 15//18 19//22 18//18
f 17//1 15//1 20//1
f 20//2 15//2 17//2
f 18//2 16//2 21//2
f 21//1 16//1 18//1
f 17//19 21//23 16//19
f 16//20 21//24 17//20
f 19//21 18//17 22//21
f 22//22 18//18 19//22
f 20//1 15//1 19//1
f 19//2 15//2 20//2
f 21//23 17//19 20//23
f 20//24 17//20 21//24
f 18//2 21//2 22//2
f 22//1 21//1 18//1
f 22//21 23//25 19//21
f 19//22 23//26 22//22
f 20//1 19//1 24//1
f 24//2 19//2 20//2
f 20//23 25//26 21//23
f 21//24 25//25 20//24
f 22//2 21//2 25//2
f 25//1 21//1 22//1
f 23//25 22//21 26//25
f 26//26 22//22 23//26
f 24//1 19//1 23//1
f 23//2 19//2 24//2
f 25//26 20//23 24//26
f 24//25 20//24 25//25
f 22//2 25//2 26//2
f 26//1 25//1 22//1
f 26//25 27//24 23//25
f 23//26 27//23 26//26
f 24//1 23//1 28//1
f 28//2 23//2 24//2
f 24//26 29//22 25//26
f 25//25 29//21 24//25
f 26//2 25//2 29//2
f 29//1 25//1 26//1
f 27//24 26//25 30//24
f 30//23 26//26 27//23
f 28//1 23//1 27//1
f 27//2 23//2 28//2
f 29//22 24//26 28//22
f 28//21 24//25 29//21
f 26//2 29//2 30//2
f 30//1 29//1 26//1
f 30//24 31//20 27//24
f 27//23 31//19 30//23
f 28//1 27//1 32//1
f 32//2 27//2 28//2
f 28//22 33//18 29//22
f 29//21 33//17 28//21
f 30//2 29//2 33//2
f 33//1 29//1 30//1
f 31//20 30//24 34//20
f 34//19 30//23 31//19
f 32//1 27//1 31//1
f 31//2 27//2 32//2
f 33//18 28//22 32//18
f 32//17 28//21 33//17
f 30//2 33//2 34//2
f 34//1 33//1 30//1
f 34//20 35//16 31//20
f 31//19 35//15 34//19
f 32//1 31//1 36//1
f 36//2 31//2 32//2
f 32//18 37//12 33//18
f 33//17 37//11 32//17
f 34//2 33//2 37//2
f 37//1 33//1 34//1
f 35//16 34//20 38//16
f 38//15 34//19 35//15
f 36//1 31//1 35//1
f 35//2 31//2 36//2
f 37//12 32//18 36//12
f 36//11 32//17 37//11
f 34//2 37//2 38//2
f 38//1 37//1 34//1
f 39//14 35//16 38//16
f 38//15 35//15 39//13
f 36//1 35//1 40//1
f 40//2 35//2 36//2
f 40//10 37//12 36//12
f 36//11 37//11 40//9
f 38//2 37//2 41//2
f 41//1 37//1 38//1
f 35//16 39//14 42//14
f 42//13 39//13 35//15
f 38//2 41//2 39//2
f 39//1 41//1 38//1
f 40//1 35//1 42//1
f 42//2 35//2 40//2
f 37//12 40//10 41//10
f 41//9 40//9 37//11
f 43//6 42//14 39//14
f 39//13 42//13 43//3
f 39//2 41//2 44//2
f 44//1 41//1 39//1
f 40//1 42//1 45//1
f 45//2 42//2 40//2
f 45//8 41//10 40//10
f 40//9 41//9 45//7
f 42//14 43//6 46//6
f 46//3 43//3 42//13
f 39//2 44//2 43//2
f 43//1 44//1 39//1
f 41//10 45//8 44//8
f 44//7 45//7 41//9
f 45//1 42//1 46//1
f 46//2 42//2 45//2
f 47//5 46//6 43//6
f 43//3 46//3 47//4
f 43//2 44//2 47//2
f 47//1 44//1 43//1
f 48//5 44//8 45//8
f 45//7 44//7 48//4
f 45//1 46//1 48//1
f 48//2 46//2 45//2
f 46//6 47//5 48//5
f 48//4 47//4 46//3
f 44//8 48//5 47//5
f 47//4 48//4 44//7
