# SSTK version 0.8.0
# 22
mtllib original-22.mtl
o mesh22/mesh22-geometry#mesh22-geometry
v -0.317386 -0.732651 -0.334176
v -0.308265 -0.755166 -0.334177
v -0.319695 -0.766385 -0.334844
v -0.316220 -0.695642 -0.333954
v -0.326236 -0.732651 -0.338465
v -0.308265 -0.695642 -0.334177
v -0.324251 -0.695642 -0.337023
v -0.323544 -0.768650 -0.336597
v -0.296779 -0.741862 -0.340967
v -0.330385 -0.695642 -0.343032
v -0.325452 -0.768914 -0.337854
v -0.296344 -0.725404 -0.341478
v -0.332071 -0.732651 -0.346058
v -0.327169 -0.768407 -0.339293
v -0.300936 -0.695642 -0.337310
v -0.292894 -0.736715 -0.347385
v -0.333484 -0.695642 -0.350340
v -0.294891 -0.695642 -0.343470
v -0.291779 -0.695642 -0.351510
v -0.331537 -0.763194 -0.344963
v -0.333957 -0.732651 -0.354673
v -0.291489 -0.725404 -0.355125
v -0.333934 -0.751945 -0.355523
v -0.333667 -0.695642 -0.358288
v -0.291493 -0.733270 -0.355583
v -0.291962 -0.695642 -0.359458
v -0.330351 -0.740771 -0.366640
v -0.293376 -0.725404 -0.363739
v -0.329102 -0.732651 -0.368319
v -0.293728 -0.731498 -0.364463
v -0.295061 -0.695642 -0.366765
v -0.325026 -0.735933 -0.372151
v -0.330556 -0.695642 -0.366328
v -0.299210 -0.725404 -0.371333
v -0.317181 -0.732797 -0.375621
v -0.324510 -0.695642 -0.372488
v -0.299588 -0.731028 -0.371635
v -0.301196 -0.695642 -0.372775
v -0.308015 -0.725404 -0.375611
v -0.317181 -0.695642 -0.375621
v -0.308007 -0.731330 -0.375603
v -0.309226 -0.695642 -0.375844
vn 0.26191290437692566 0.003364998771456212 -0.9650856476521198
vn -0.12381604067202832 0.005785001900301344 -0.9922883259543649
vn 0.3054290303092513 -0.003585000355757316 -0.9522080944923749
vn -0.3054290303092513 0.003585000355757316 0.9522080944923749
vn 0.12381604067202832 -0.005785001900301344 0.9922883259543649
vn -0.26191290437692566 -0.003364998771456212 0.9650856476521198
vn 0.11599004390223992 -0.000020000007569783753 -0.9932503759453385
vn -0.11599004390223992 0.000020000007569783753 0.9932503759453385
vn 0.6075111714901003 -0.002492000703449357 -0.7943072242194579
vn -0.6075111714901003 0.002492000703449357 0.7943072242194579
vn -0.37700217379728823 0.014400006638375998 -0.9261004269305432
vn 0.37700217379728823 -0.014400006638375998 0.9261004269305432
vn 0.5054612429565758 -0.001243000597464348 -0.8628484147394071
vn -0.5054612429565758 0.001243000597464348 0.8628484147394071
vn 0.48738086399468306 -0.008838997533446951 -0.8731447563459337
vn -0.48738086399468306 0.008838997533446951 0.8731447563459337
vn -0.6532131198224863 -0.001724000316242721 -0.7571721388922626
vn 0.6532131198224863 0.001724000316242721 0.7571721388922626
vn 0.8153158569667058 -0.0020289996440464083 -0.5790128984220391
vn -0.8153158569667058 0.0020289996440464083 0.5790128984220391
vn 0.5973851750503101 -0.000598000175230344 -0.801954234994679
vn -0.5973851750503101 0.000598000175230344 0.801954234994679
vn -0.7507250024890287 0.008512000028221684 -0.6605600021900868
vn 0.7507250024890287 -0.008512000028221684 0.6605600021900868
vn 0.9085133201628759 0.003133001104079275 -0.41784414724955693
vn -0.9085133201628759 -0.003133001104079275 0.41784414724955693
vn 0.7451848157016593 -0.0046429988516981605 -0.6668418350773646
vn -0.7451848157016593 0.0046429988516981605 0.6668418350773646
vn -0.5640801652247454 0.028552008363170178 -0.8252262417170538
vn 0.5640801652247454 -0.028552008363170178 0.8252262417170538
vn -0.9215507929879216 -0.0021419995188329765 -0.38825191278523546
vn 0.9215507929879216 0.0021419995188329765 0.38825191278523546
vn 0.9773450488232731 -0.0025360001266858424 -0.21163701057232712
vn -0.9773450488232731 0.0025360001266858424 0.21163701057232712
vn -0.8404543465895766 0.004786001973668773 -0.541861223454674
vn 0.8404543465895766 -0.004786001973668773 0.541861223454674
vn -0.9687873228605389 -0.0010650003549246849 -0.24789108261281567
vn 0.9687873228605389 0.0010650003549246849 0.24789108261281567
vn 0.9056390307111257 0.0006160000208892712 -0.4240490143799264
vn -0.9056390307111257 -0.0006160000208892712 0.4240490143799264
vn 0.9996804030942125 0.0042350017076504326 0.024923010049532908
vn -0.9996804030942125 -0.0042350017076504326 -0.024923010049532908
vn -0.9973612987321945 0.0003350001003400665 0.07259702174444471
vn 0.9973612987321945 -0.0003350001003400665 -0.07259702174444471
vn 0.9990030618712586 0.0027970001732266275 -0.044554002759363144
vn -0.9990030618712586 -0.0027970001732266275 0.044554002759363144
vn 0.9586497099255835 -0.0006729997963594413 0.2845879138875523
vn -0.9586497099255835 0.0006729997963594413 -0.2845879138875523
vn -0.9948137516666639 0.008325997921598029 0.10137197469471987
vn 0.9948137516666639 -0.008325997921598029 -0.10137197469471987
vn -0.9773432439317101 -0.0031530007869465765 0.2116370528217579
vn 0.9773432439317101 0.0031530007869465765 -0.2116370528217579
vn 0.8897959288550346 0.004548999636277823 0.45633596351297495
vn -0.8897959288550346 -0.004548999636277823 -0.45633596351297495
vn -0.9216445877162105 0.001333999403255424 0.38803282641937437
vn 0.9216445877162105 -0.001333999403255424 -0.38803282641937437
vn 0.730986207870212 -0.04913201397164838 0.6806211935479359
vn -0.730986207870212 0.04913201397164838 -0.6806211935479359
vn -0.8618605968988435 0.005999997193738856 0.5071097628194947
vn 0.8618605968988435 -0.005999997193738856 -0.5071097628194947
vn -0.8153150750314115 -0.0025240002322775706 0.5790120532850341
vn 0.8153150750314115 0.0025240002322775706 -0.5790120532850341
vn 0.6101430961237814 -0.15034302368549302 0.7778961225520986
vn -0.6101430961237814 0.15034302368549302 -0.7778961225520986
vn 0.8404611683082491 0.0038490007707893048 0.5418581085108901
vn -0.8404611683082491 -0.0038490007707893048 -0.5418581085108901
vn -0.6694372555048356 -0.0014000005343398712 0.7428672835309532
vn 0.6694372555048356 0.0014000005343398712 -0.7428672835309532
vn 0.24704597015610744 -0.0508069938623633 0.9676708831024613
vn -0.24704597015610744 0.0508069938623633 -0.9676708831024613
vn 0.5502418215761398 0.007266997643570838 0.834973729247705
vn -0.5502418215761398 -0.007266997643570838 -0.834973729247705
vn -0.5575909129149005 -0.0001249999804775639 0.8301158703516834
vn 0.5575909129149005 0.0001249999804775639 -0.8301158703516834
vn -0.5057838118580669 -0.00165499938437198 0.8626586791074216
vn 0.5057838118580669 0.00165499938437198 -0.8626586791074216
vn -0.2835030734343931 -0.0003900001010200022 0.9589712483975599
vn 0.2835030734343931 0.0003900001010200022 -0.9589712483975599
vn 0.21433408989645153 0 0.9767604096748905
vn -0.21433408989645153 0 -0.9767604096748905
vn -0.2194940717955349 0.0010020003277496352 0.9756133191187787
vn 0.2194940717955349 -0.0010020003277496352 -0.9756133191187787
vn -0.11378504434966404 0.00009600003741743329 0.9935053872356898
vn 0.11378504434966404 -0.00009600003741743329 -0.9935053872356898
usemtl material_0_0
f 1//1 2//2 3//3
f 3//4 2//5 1//6
f 4//7 2//2 1//1
f 1//6 2//5 4//8
f 5//9 1//1 3//3
f 3//4 1//6 5//10
f 4//7 6//11 2//2
f 2//5 6//12 4//8
f 7//13 4//7 1//1
f 1//6 4//8 7//14
f 7//13 1//1 5//9
f 5//10 1//6 7//14
f 5//9 3//3 8//15
f 8//16 3//4 5//10
f 6//11 9//17 2//2
f 2//5 9//18 6//12
f 10//19 7//13 5//9
f 5//10 7//14 10//20
f 5//9 8//15 11//21
f 11//22 8//16 5//10
f 6//11 12//23 9//17
f 9//18 12//24 6//12
f 5//9 13//25 10//19
f 10//20 13//26 5//10
f 5//9 11//21 14//27
f 14//28 11//22 5//10
f 15//29 12//23 6//11
f 6//12 12//24 15//30
f 9//17 12//23 16//31
f 16//32 12//24 9//18
f 5//9 14//27 13//25
f 13//26 14//28 5//10
f 10//19 13//25 17//33
f 17//34 13//26 10//20
f 15//29 18//35 12//23
f 12//24 18//36 15//30
f 12//23 19//37 16//31
f 16//32 19//38 12//24
f 14//27 20//39 13//25
f 13//26 20//40 14//28
f 13//25 21//41 17//33
f 17//34 21//42 13//26
f 12//23 18//35 19//37
f 19//38 18//36 12//24
f 22//43 16//31 19//37
f 19//38 16//32 22//44
f 20//39 23//45 13//25
f 13//26 23//46 20//40
f 13//25 23//45 21//41
f 21//42 23//46 13//26
f 17//33 21//41 24//47
f 24//48 21//42 17//34
f 16//31 22//43 25//49
f 25//50 22//44 16//32
f 19//37 26//51 22//43
f 22//44 26//52 19//38
f 21//41 23//45 27//53
f 27//54 23//46 21//42
f 21//41 27//53 24//47
f 24//48 27//54 21//42
f 22//43 28//55 25//49
f 25//50 28//56 22//44
f 22//43 26//51 28//55
f 28//56 26//52 22//44
f 24//47 27//53 29//57
f 29//58 27//54 24//48
f 25//49 28//55 30//59
f 30//60 28//56 25//50
f 26//51 31//61 28//55
f 28//56 31//62 26//52
f 29//57 27//53 32//63
f 32//64 27//54 29//58
f 24//47 29//57 33//65
f 33//66 29//58 24//48
f 28//55 34//67 30//59
f 30//60 34//68 28//56
f 28//55 31//61 34//67
f 34//68 31//62 28//56
f 29//57 32//63 35//69
f 35//70 32//64 29//58
f 33//65 29//57 36//71
f 36//72 29//58 33//66
f 30//59 34//67 37//73
f 37//74 34//68 30//60
f 38//75 34//67 31//61
f 31//62 34//68 38//76
f 36//71 29//57 35//69
f 35//70 29//58 36//72
f 39//77 37//73 34//67
f 34//68 37//74 39//78
f 38//75 39//77 34//67
f 34//68 39//78 38//76
f 36//71 35//69 40//79
f 40//80 35//70 36//72
f 39//77 41//81 37//73
f 37//74 41//82 39//78
f 42//83 39//77 38//75
f 38//76 39//78 42//84
f 42//83 40//79 35//69
f 35//70 40//80 42//84
f 39//77 35//69 41//81
f 41//82 35//70 39//78
f 42//83 35//69 39//77
f 39//78 35//70 42//84
