# SSTK version 0.8.0
# 32
mtllib original-32.mtl
o mesh32/mesh32-geometry#mesh32-geometry
v 0.305760 -0.777190 -0.346105
v 0.315253 -0.757598 -0.368135
v 0.313028 -0.777190 -0.368846
v 0.311942 -0.756590 -0.356661
v 0.409634 -0.777190 -0.337972
v 0.307985 -0.757598 -0.345394
v 0.325596 -0.738961 -0.364829
v 0.407409 -0.757598 -0.338683
v 0.318329 -0.738961 -0.342088
v 0.400141 -0.757598 -0.315942
v 0.323441 -0.737339 -0.352986
v 0.397065 -0.738961 -0.341989
v 0.406142 -0.773301 -0.326556
v 0.402366 -0.777190 -0.315231
v 0.335446 -0.728124 -0.349150
v 0.380115 -0.726421 -0.347406
v 0.398245 -0.745471 -0.329080
v 0.404272 -0.759307 -0.327154
v 0.389798 -0.738961 -0.319248
v 0.342547 -0.726421 -0.359412
v 0.388232 -0.733817 -0.332280
v 0.335279 -0.726421 -0.336671
v 0.348882 -0.723291 -0.344856
v 0.361331 -0.722442 -0.353409
v 0.375529 -0.726013 -0.336339
v 0.372847 -0.726421 -0.324665
v 0.362050 -0.722648 -0.340647
v 0.354063 -0.722442 -0.330668
vn -0.9448912362790598 0.12498403125344835 -0.30258807566503243
vn -0.9201656118314391 0.257863891221043 -0.2946208757152409
vn -0.9458380043182233 0.11839200054051874 -0.3022810013800639
vn 0.9458380043182233 -0.11839200054051874 0.3022810013800639
vn 0.9201656118314391 -0.257863891221043 0.2946208757152409
vn 0.9448912362790598 -0.12498403125344835 0.30258807566503243
vn -0.8749032765005381 0.3952061248991851 -0.27992208846533106
vn 0.8749032765005381 -0.3952061248991851 0.27992208846533106
vn 0.30442207755868805 0 -0.952537242681278
vn -0.30442207755868805 0 0.952537242681278
vn -0.9032101624852649 0.31752405712178927 -0.28877305194955477
vn 0.9032101624852649 -0.31752405712178927 0.28877305194955477
vn -0.6938722338120843 0.6785612286527799 -0.24103108121953384
vn 0.6938722338120843 -0.6785612286527799 0.24103108121953384
vn -0.7050512220820042 0.6785612137379946 -0.20605206490373187
vn 0.7050512220820042 -0.6785612137379946 0.20605206490373187
vn -0.6970798188202652 0.6815048228684008 -0.22277994209671567
vn 0.6970798188202652 -0.6815048228684008 0.22277994209671567
vn 0.9481856443375278 0.09547596418716343 0.30303188633336686
vn 0.9592319882503675 0.04012499950850883 0.2797569965732566
vn 0.9196742005818848 0.2985190651073137 0.25511905564172727
vn -0.9196742005818848 -0.2985190651073137 -0.25511905564172727
vn -0.9592319882503675 -0.04012499950850883 -0.2797569965732566
vn -0.9481856443375278 -0.09547596418716343 -0.30303188633336686
vn -0.4777249064053398 0.865140830503788 -0.15267697008791245
vn 0.4777249064053398 -0.865140830503788 0.15267697008791245
vn 0.8053616681346858 0.5339897799588765 0.2573858939390166
vn 0.7163789502166793 0.673238953214607 0.18316798727110764
vn -0.7163789502166793 -0.673238953214607 -0.18316798727110764
vn -0.8053616681346858 -0.5339897799588765 -0.2573858939390166
vn 0.9436864938090597 0.04012497847706755 0.3283988238477391
vn -0.9436864938090597 -0.04012497847706755 -0.3283988238477391
vn 0.9143434645533092 0.28033183583548227 0.29221582887612296
vn -0.9143434645533092 -0.28033183583548227 -0.29221582887612296
vn 0.8971721481549834 0.2985190492960964 0.3255280537562424
vn -0.8971721481549834 -0.2985190492960964 -0.3255280537562424
vn -0.3427978367280002 0.9277905581004208 -0.1472899298469276
vn 0.3427978367280002 -0.9277905581004208 0.1472899298469276
vn 0.3766829447681139 0.9228128646907281 0.080785988154594
vn 0.5839138744094818 0.7900758300673485 0.18661395986232754
vn -0.5839138744094818 -0.7900758300673485 -0.18661395986232754
vn -0.3766829447681139 -0.9228128646907281 -0.080785988154594
vn -0.3646818637182306 0.9277906532842336 -0.07881397054718507
vn 0.3646818637182306 -0.9277906532842336 0.07881397054718507
vn 0.6898289532947874 0.6732389544180214 0.26624298197388657
vn -0.6898289532947874 -0.6732389544180214 -0.26624298197388657
vn -0.18168096093668998 0.9816417889367309 -0.058063987515634144
vn 0.18168096093668998 -0.9816417889367309 0.058063987515634144
vn 0.35460579067519976 0.928122452126694 0.11332893310161077
vn -0.35460579067519976 -0.928122452126694 -0.11332893310161077
vn -0.003835001443738337 0.9992223761708238 -0.03924201477318878
vn 0.003835001443738337 -0.9992223761708238 0.03924201477318878
vn 0.12243498684491233 0.9917048934457775 0.039128995795765925
vn -0.12243498684491233 -0.9917048934457775 -0.039128995795765925
vn 0.3537179209035528 0.9228127936457017 0.15264396586659992
vn -0.3537179209035528 -0.9228127936457017 -0.15264396586659992
vn -0.025883009059080635 0.9992223497288827 0.02974501041078543
vn 0.025883009059080635 -0.9992223497288827 -0.02974501041078543
usemtl material_0_0
f 1//1 2//2 3//3
f 3//4 2//5 1//6
f 1//1 4//7 2//2
f 2//5 4//8 1//6
f 2//9 5//9 3//9
f 3//10 5//10 2//10
f 6//11 4//7 1//1
f 1//6 4//8 6//12
f 4//7 7//13 2//2
f 2//5 7//14 4//8
f 5//9 2//9 8//9
f 8//10 2//10 5//10
f 9//15 4//7 6//11
f 6//12 4//8 9//16
f 1//10 10//10 6//10
f 6//9 10//9 1//9
f 11//17 7//13 4//7
f 4//8 7//14 11//18
f 12//9 2//9 7//9
f 7//10 2//10 12//10
f 8//9 2//9 12//9
f 12//10 2//10 8//10
f 13//19 5//20 8//21
f 8//22 5//23 13//24
f 9//15 11//17 4//7
f 4//8 11//18 9//16
f 6//10 10//10 9//10
f 9//9 10//9 6//9
f 10//10 1//10 14//10
f 14//9 1//9 10//9
f 11//17 15//25 7//13
f 7//14 15//26 11//18
f 12//9 7//9 16//9
f 16//10 7//10 12//10
f 17//27 8//21 12//28
f 12//29 8//22 17//30
f 14//31 5//20 13//19
f 13//24 5//23 14//32
f 13//19 8//21 18//33
f 18//34 8//22 13//24
f 9//15 15//25 11//17
f 11//18 15//26 9//16
f 9//10 10//10 19//10
f 19//9 10//9 9//9
f 14//31 13//19 10//35
f 10//36 13//24 14//32
f 7//13 15//25 20//37
f 20//38 15//26 7//14
f 16//9 7//9 20//9
f 20//10 7//10 16//10
f 16//39 21//40 12//28
f 12//29 21//41 16//42
f 18//33 8//21 17//27
f 17//30 8//22 18//34
f 17//27 12//28 21//40
f 21//41 12//29 17//30
f 10//35 13//19 18//33
f 18//34 13//24 10//36
f 9//15 22//43 15//25
f 15//26 22//44 9//16
f 10//35 17//27 19//45
f 19//46 17//30 10//36
f 9//10 19//10 22//10
f 22//9 19//9 9//9
f 15//25 23//47 20//37
f 20//38 23//48 15//26
f 16//9 20//9 24//9
f 24//10 20//10 16//10
f 25//49 21//40 16//39
f 16//42 21//41 25//50
f 10//35 18//33 17//27
f 17//30 18//34 10//36
f 19//45 17//27 21//40
f 21//41 17//30 19//46
f 22//43 23//47 15//25
f 15//26 23//48 22//44
f 22//10 19//10 26//10
f 26//9 19//9 22//9
f 20//37 23//47 24//51
f 24//52 23//48 20//38
f 24//51 27//53 16//39
f 16//42 27//54 24//52
f 26//55 21//40 25//49
f 25//50 21//41 26//56
f 27//53 25//49 16//39
f 16//42 25//50 27//54
f 26//55 19//45 21//40
f 21//41 19//46 26//56
f 22//43 28//57 23//47
f 23//48 28//58 22//44
f 22//10 26//10 28//10
f 28//9 26//9 22//9
f 23//47 27//53 24//51
f 24//52 27//54 23//48
f 27//53 26//55 25//49
f 25//50 26//56 27//54
f 23//47 28//57 27//53
f 27//54 28//58 23//48
f 28//57 26//55 27//53
f 27//54 26//56 28//58
