# SSTK version 0.8.0
# 9
mtllib original-9.mtl
o mesh9/mesh9-geometry#mesh9-geometry
v -0.310015 -0.188687 0.226668
v 0.048017 -0.281928 0.291784
v -0.036593 -0.281928 0.291784
v 0.005712 -0.227315 0.253672
v -0.036593 -0.277169 0.297486
v -0.310015 -0.183927 0.232371
v -0.034028 -0.192600 0.229374
v 0.321436 -0.188687 0.226668
v 0.048017 -0.277169 0.297486
v -0.311573 -0.167912 0.221301
v -0.311573 -0.172671 0.215598
v 0.048017 -0.192569 0.229352
v 0.321436 -0.183927 0.232371
v 0.005712 -0.222556 0.259375
v -0.034028 -0.187841 0.235076
v 0.048017 -0.187810 0.235055
v 0.322997 -0.172671 0.215598
v 0.322997 -0.167912 0.221301
vn 0 -0.572543997763643 -0.8198739967975723
vn 0 0.572543997763643 0.8198739967975723
vn 0.19517407190204375 -0.7529982774042401 0.628411231506426
vn -0.19517296302926743 -0.7529988573628286 0.6284108809629658
vn 0.19517296302926743 0.7529988573628286 -0.6284108809629658
vn -0.19517407190204375 0.7529982774042401 -0.628411231506426
vn -0.8085790067552733 -0.451743003774087 0.376999003149638
vn 0.8085790067552733 0.451743003774087 -0.376999003149638
vn 0 -0.5708608694070278 -0.8210468121732475
vn 0 -0.5731138362121124 -0.8194757658053324
vn 0 0.5731138362121124 0.8194757658053324
vn 0 0.5708608694070278 0.8210468121732475
vn -0.9967858954645766 -0.061506993549608174 0.05132999461689541
vn 0.9967858954645766 0.061506993549608174 -0.05132999461689541
vn 0 -0.568603035778494 -0.8226120517616312
vn 0 0.568603035778494 0.8226120517616312
vn 0.8085510985781517 -0.45177205507982654 0.3770240459665859
vn -0.8085510985781517 0.45177205507982654 -0.3770240459665859
vn 0.0866029979853545 0.7648789822066207 -0.6383259851506227
vn 0.04311400219310157 0.767050039017919 -0.6401370325621711
vn -0.04311400219310157 -0.767050039017919 0.6401370325621711
vn -0.0866029979853545 -0.7648789822066207 0.6383259851506227
vn -0.04390501877425105 0.7670233279872991 -0.6401152737200706
vn 0.04390501877425105 -0.7670233279872991 0.6401152737200706
vn -0.08727000227002371 0.7648340198944806 -0.6382890166028549
vn 0.08727000227002371 -0.7648340198944806 0.6382890166028549
vn 0.996777956330162 -0.06158299730198737 0.05139299774842141
vn -0.996777956330162 0.06158299730198737 -0.05139299774842141
usemtl material_0_0
f 1//1 2//1 3//1
f 2//1 1//1 4//1
f 3//2 2//2 1//2
f 4//2 1//2 2//2
f 2//3 5//4 3//4
f 3//5 5//5 2//6
f 3//4 6//7 1//7
f 1//8 6//8 3//5
f 1//9 7//9 4//10
f 4//11 7//12 1//12
f 8//1 2//1 4//1
f 4//2 2//2 8//2
f 5//4 2//3 9//3
f 9//6 2//6 5//5
f 6//7 3//4 5//4
f 5//5 3//5 6//8
f 10//13 1//7 6//7
f 6//8 1//8 10//14
f 11//15 7//9 1//9
f 1//12 7//12 11//16
f 12//9 4//10 7//9
f 7//12 4//11 12//12
f 8//17 9//3 2//3
f 2//6 9//6 8//18
f 4//10 12//9 8//9
f 8//12 12//12 4//11
f 13//2 5//2 9//2
f 9//1 5//1 13//1
f 6//2 5//2 14//2
f 14//1 5//1 6//1
f 1//7 10//13 11//13
f 11//14 10//14 1//8
f 10//16 6//12 15//12
f 15//9 6//9 10//15
f 11//19 15//20 7//20
f 7//21 15//21 11//22
f 7//20 16//23 12//23
f 12//24 16//24 7//21
f 9//3 8//17 13//17
f 13//18 8//18 9//6
f 17//15 8//9 12//9
f 12//12 8//12 17//16
f 5//2 13//2 14//2
f 14//1 13//1 5//1
f 6//12 14//11 15//12
f 15//9 14//10 6//9
f 15//20 11//19 10//19
f 10//22 11//22 15//21
f 16//23 7//20 15//20
f 15//21 7//21 16//24
f 16//23 17//25 12//23
f 12//24 17//26 16//24
f 8//17 18//27 13//17
f 13//18 18//28 8//18
f 18//27 8//17 17//27
f 17//28 8//18 18//28
f 16//12 14//11 13//12
f 13//9 14//10 16//9
f 14//11 16//12 15//12
f 15//9 16//9 14//10
f 17//25 16//23 18//25
f 18//26 16//24 17//26
f 18//16 16//12 13//12
f 13//9 16//9 18//15
