# SSTK version 0.8.0
# 44
mtllib original-44.mtl
o mesh44/mesh44-geometry#mesh44-geometry
v 0.058396 -0.644275 0.098073
v 0.140371 -0.651503 0.105018
v 0.060108 -0.644722 0.070548
v 0.140225 -0.651512 0.119236
v 0.378261 -0.672739 0.181252
v 0.135492 -0.651547 0.132962
v 0.526557 -0.685801 0.225776
v 0.382125 -0.673297 0.196204
v 0.132891 -0.651563 0.137133
v 0.417873 -0.676283 0.194084
v 0.377241 -0.673325 0.211386
v 0.044234 -0.644756 0.121721
v 0.457412 -0.679821 0.206929
v 0.422433 -0.676931 0.209062
v 0.417551 -0.676957 0.224392
v 0.047080 -0.644287 0.122775
v 0.373686 -0.673194 0.215450
v 0.497007 -0.683366 0.219833
v 0.512286 -0.685801 0.269698
v 0.462700 -0.680562 0.221916
v 0.534897 -0.686816 0.231158
v 0.457854 -0.680588 0.237375
v 0.413847 -0.676801 0.228405
v 0.488179 -0.658680 0.263252
v 0.503022 -0.684199 0.234796
v 0.523550 -0.685735 0.228226
v 0.046998 -0.561100 0.122464
v 0.517455 -0.662236 0.270160
v 0.454011 -0.680408 0.241331
v 0.498207 -0.684223 0.250353
v 0.540500 -0.687441 0.238003
v 0.517467 -0.638024 0.270144
v 0.519043 -0.686495 0.270761
v 0.494225 -0.684019 0.254242
v 0.529980 -0.686632 0.243500
v 0.525119 -0.686659 0.259447
v 0.373380 -0.613736 0.215245
v 0.524909 -0.639099 0.269350
v 0.532811 -0.687411 0.267225
v 0.526407 -0.687142 0.269842
v 0.543450 -0.687892 0.246392
v 0.134651 -0.574196 0.137600
v 0.413196 -0.620328 0.228089
v 0.453015 -0.626919 0.240903
v 0.532354 -0.663745 0.266969
v 0.521020 -0.686439 0.263402
v 0.542732 -0.687987 0.255394
v 0.060873 -0.561044 0.098677
v 0.376921 -0.614017 0.211177
v 0.416884 -0.620646 0.224071
v 0.531877 -0.639997 0.266551
v 0.538174 -0.687743 0.262808
v 0.533281 -0.687617 0.267025
v 0.538995 -0.687945 0.262152
v 0.058018 -0.561039 0.103543
v 0.137250 -0.574264 0.133428
v 0.456840 -0.627271 0.236940
v 0.537689 -0.640621 0.261639
v 0.541866 -0.687838 0.255804
v 0.141985 -0.574247 0.119703
v 0.381807 -0.613986 0.195995
v 0.496847 -0.633905 0.249806
v 0.421768 -0.620613 0.208741
v 0.541437 -0.640858 0.254891
v 0.142142 -0.573937 0.105489
v 0.461689 -0.627234 0.221482
v 0.528390 -0.638301 0.242878
v 0.378000 -0.612841 0.181063
v 0.062701 -0.560987 0.071234
v 0.417274 -0.619330 0.193784
v 0.501664 -0.633864 0.234250
v 0.456473 -0.625809 0.206519
v 0.542222 -0.640528 0.245757
v 0.523526 -0.638349 0.258825
v 0.542321 -0.687838 0.254404
v 0.525958 -0.637145 0.225782
v 0.495730 -0.632299 0.219313
v 0.539232 -0.639676 0.237263
v 0.541188 -0.663745 0.239779
v 0.503265 -0.658680 0.216822
v 0.522046 -0.636638 0.227633
v 0.533541 -0.638501 0.230377
v 0.543322 -0.687694 0.245218
v 0.062787 -0.644198 0.070866
v 0.531011 -0.662236 0.228440
v 0.540445 -0.687246 0.237577
v 0.527489 -0.686018 0.226384
vn 0.07894798776353654 0.9965298455438651 0.026371995912499405
vn 0.09308096375302317 0.995514612333246 -0.016928993407622488
vn 0.09311195850629439 0.9954885563780447 -0.01823999187166841
vn -0.09311195850629439 -0.9954885563780447 0.01823999187166841
vn -0.09308096375302317 -0.995514612333246 0.016928993407622488
vn -0.07894798776353654 -0.9965298455438651 -0.026371995912499405
vn 0.08415303743687555 0.9963134432265729 0.016667007414595123
vn -0.08415303743687555 -0.9963134432265729 -0.016667007414595123
vn 0.08674898541285572 0.9962088324840123 0.006524998902798912
vn -0.08674898541285572 -0.9962088324840123 -0.006524998902798912
vn 0.07665199179191352 0.9962938933143649 0.03902499582110633
vn -0.07665199179191352 -0.9962938933143649 -0.03902499582110633
vn 0.07426900336817366 0.9960690451727283 0.04827600218936525
vn -0.07426900336817366 -0.9960690451727283 -0.04827600218936525
vn 0.08237498802325424 0.9963398551391699 0.02283099668053336
vn -0.08237498802325424 -0.9963398551391699 -0.02283099668053336
vn 0.0953219880147859 0.9923218752314091 -0.07880999009090511
vn -0.0953219880147859 -0.9923218752314091 0.07880999009090511
vn 0.07968097460077705 0.996360682398625 0.030270990350775465
vn -0.07968097460077705 -0.996360682398625 -0.030270990350775465
vn 0.0776079707197599 0.9962896241159365 0.0372019859642888
vn -0.0776079707197599 -0.9962896241159365 -0.0372019859642888
vn 0.13844497198739333 0.9080628162648586 -0.3952909200178314
vn -0.13844497198739333 -0.9080628162648586 0.3952909200178314
vn 0.07917504061676667 0.9963605111325752 0.0315760161984849
vn -0.07917504061676667 -0.9963605111325752 -0.0315760161984849
vn 0.08264197799636969 0.9963457347204926 0.021574994255604833
vn -0.08264197799636969 -0.9963457347204926 -0.021574994255604833
vn 0.07930698665664027 0.9963388323665037 0.03192699462829979
vn -0.07930698665664027 -0.9963388323665037 -0.03192699462829979
vn 0.14482095849236415 0.9010307417524627 -0.40886488281382144
vn -0.14482095849236415 -0.9010307417524627 0.40886488281382144
vn 0.08033600463293736 0.9963620574597033 0.02843900164006327
vn -0.08033600463293736 -0.9963620574597033 -0.02843900164006327
vn 0.08434996528729721 0.9962895899950367 0.017091992966099617
vn -0.08434996528729721 -0.9962895899950367 -0.017091992966099617
vn 0.08799196799429133 0.9957856377984747 0.025852990596377325
vn -0.08799196799429133 -0.9957856377984747 -0.025852990596377325
vn 0.08216503962027924 0.9963484804428404 0.023208011190987147
vn -0.08216503962027924 -0.9963484804428404 -0.023208011190987147
vn 0.09206695440652206 0.9957525068825699 0.0007879996097663629
vn -0.09206695440652206 -0.9957525068825699 -0.0007879996097663629
vn 0.07970097010054533 0.9963386262281181 0.03093698839413042
vn -0.07970097010054533 -0.9963386262281181 -0.03093698839413042
vn 0.08072999819709734 0.9963579777488357 0.027448999386995455
vn -0.08072999819709734 -0.9963579777488357 -0.027448999386995455
vn 0.30400005739263225 0.02060400388986138 -0.9524491798143263
vn 0.2702249025027377 -0.015299994479755125 -0.9626756526662059
vn 0.2287290279060868 -0.00014300001744650207 -0.9734901187706694
vn -0.2287290279060868 0.00014300001744650207 0.9734901187706694
vn -0.2702249025027377 0.015299994479755125 0.9626756526662059
vn -0.30400005739263225 -0.02060400388986138 0.9524491798143263
vn 0.08187697507096214 0.9963406966446925 0.024522992533498083
vn -0.08187697507096214 -0.9963406966446925 -0.024522992533498083
vn 0.09281995855691878 0.9956765554414698 -0.0035569984118394697
vn -0.09281995855691878 -0.9956765554414698 0.0035569984118394697
vn 0.050131020943992965 -0.8142553401837384 -0.578338241621093
vn -0.050131020943992965 0.8142553401837384 0.578338241621093
vn -0.024047998204817005 -0.010085999247079962 -0.9996599253753895
vn 0.024047998204817005 0.010085999247079962 0.9996599253753895
vn 0.08118596550340049 0.9963605766380118 0.025969988965133507
vn -0.08118596550340049 -0.9963605766380118 -0.025969988965133507
vn 0.08015798304109754 0.9963467892044265 0.02945799376761733
vn -0.08015798304109754 -0.9963467892044265 -0.02945799376761733
vn 0.0888839995605575 0.9958359950765868 0.020255999899854556
vn -0.0888839995605575 -0.9958359950765868 -0.020255999899854556
vn -0.005601002226412829 -0.7018372789821283 -0.7123152831471622
vn 0.005601002226412829 0.7018372789821283 0.7123152831471622
vn -0.049622010398665525 -0.02797500586237268 -0.9983762092172443
vn 0.049622010398665525 0.02797500586237268 0.9983762092172443
vn 0.08262097409180164 0.996265687592051 0.025068992138891973
vn -0.08262097409180164 -0.996265687592051 -0.025068992138891973
vn 0.08574300740416624 0.996062086012953 0.022549001947174272
vn -0.08574300740416624 -0.996062086012953 -0.022549001947174272
vn 0.08232898834032251 0.9961008589292181 0.03170199551026883
vn -0.08232898834032251 -0.9961008589292181 -0.03170199551026883
vn -0.1411260685618127 -0.9876224798063757 -0.06844903325388339
vn 0.1411260685618127 0.9876224798063757 0.06844903325388339
vn -0.2308169418232896 0.0025869993479548737 -0.972993754759874
vn 0.2308169418232896 -0.0025869993479548737 0.972993754759874
vn -0.37482209064286226 -0.02581700624330135 -0.9267372241119632
vn 0.37482209064286226 0.02581700624330135 0.9267372241119632
vn 0.0938610405451155 0.994202429465219 0.05245602265940699
vn 0.08669403298999007 0.995604378860891 0.03544101348649569
vn -0.08669403298999007 -0.995604378860891 -0.03544101348649569
vn -0.0938610405451155 -0.994202429465219 -0.05245602265940699
vn 0.08885402093934106 0.9958422346802088 0.020080004732054697
vn -0.08885402093934106 -0.9958422346802088 -0.020080004732054697
vn -0.13756003728118243 -0.9875172676344973 -0.07672602079409738
vn 0.13756003728118243 0.9875172676344973 0.07672602079409738
vn -0.14644896974181537 -0.9877817959119548 -0.053289988989623505
vn 0.14644896974181537 0.9877817959119548 0.053289988989623505
vn -0.14717103961212083 -0.9877892658704311 -0.0511180137587733
vn -0.1478919372130829 -0.98778158064137 -0.04914797913442669
vn 0.1478919372130829 0.98778158064137 0.04914797913442669
vn 0.14717103961212083 0.9877892658704311 0.0511180137587733
vn -0.5852569750437653 0.016252999306947926 -0.8106849654311779
vn 0.5852569750437653 -0.016252999306947926 0.8106849654311779
vn 0.08114701969170622 0.9960312417039427 0.036564008872879646
vn -0.08114701969170622 -0.9960312417039427 -0.036564008872879646
vn 0.0849170367036138 0.995982430492583 0.02842701228698197
vn -0.0849170367036138 -0.995982430492583 -0.02842701228698197
vn -0.14609298115035435 -0.9880988725105513 -0.04813999378873793
vn 0.14609298115035435 0.9880988725105513 0.04813999378873793
vn -0.14464796996146545 -0.9877267948822548 -0.05892998776221719
vn 0.14464796996146545 0.9877267948822548 0.05892998776221719
vn -0.14634994161531228 -0.9877766059374672 -0.053656978594143104
vn 0.14634994161531228 0.9877766059374672 0.053656978594143104
vn -0.5176806991173353 -0.025442985212210348 -0.8551955029494007
vn 0.5176806991173353 0.025442985212210348 0.8551955029494007
vn -0.7732568057111328 -0.07841398029766644 -0.6292258419004202
vn 0.7732568057111328 0.07841398029766644 0.6292258419004202
vn 0.08506902409214653 0.9957332819986756 0.03575601012635402
vn -0.08506902409214653 -0.9957332819986756 -0.03575601012635402
vn 0.08505800320583619 0.995690037527558 0.036966001393248835
vn -0.08505800320583619 -0.995690037527558 -0.036966001393248835
vn -0.133702051794781 -0.9877593826476874 -0.08034403112444029
vn 0.133702051794781 0.9877593826476874 0.08034403112444029
vn -0.14368100729827696 -0.9877570501731208 -0.060760003086304665
vn 0.14368100729827696 0.9877570501731208 0.060760003086304665
vn -0.14674406915073762 -0.9877714654711145 -0.05266602481800127
vn 0.14674406915073762 0.9877714654711145 0.05266602481800127
vn -0.771715855280911 0.031620994070147304 -0.6351808808851758
vn 0.771715855280911 -0.031620994070147304 0.6351808808851758
vn -0.6785910649024884 0.07088300677946391 -0.7310880699234595
vn 0.6785910649024884 -0.07088300677946391 0.7310880699234595
vn -0.1511810625709823 -0.9877594088149364 -0.03841401589883482
vn 0.1511810625709823 0.9877594088149364 0.03841401589883482
vn -0.14941199307587485 -0.9877699542242719 -0.044570997934468795
vn 0.14941199307587485 0.9877699542242719 0.044570997934468795
vn -0.14725194357652643 -0.9877746215080502 -0.051167980393636334
vn 0.14725194357652643 0.9877746215080502 0.051167980393636334
vn -0.1496859679787321 -0.9877847886901373 -0.04330499073606768
vn 0.1496859679787321 0.9877847886901373 0.04330499073606768
vn -0.9856143424729533 0.018494006426141307 -0.16799505837350506
vn 0.9856143424729533 -0.018494006426141307 0.16799505837350506
vn -0.8721770316434554 0.09023000327363492 -0.4807970174437969
vn 0.8721770316434554 -0.09023000327363492 0.4807970174437969
vn -0.15709201811137546 -0.9874671138465713 -0.015192001751508989
vn 0.15709201811137546 0.9874671138465713 0.015192001751508989
vn -0.14920900147858662 -0.9877840097884456 -0.044938000445313334
vn 0.14920900147858662 0.9877840097884456 0.044938000445313334
vn -0.1486540169331057 -0.9877561125148112 -0.047327005390996046
vn -0.14807596715853105 -0.9877697809245403 -0.04882998917009579
vn 0.14807596715853105 0.9877697809245403 0.04882998917009579
vn 0.1486540169331057 0.9877561125148112 0.047327005390996046
vn -0.15158298255022276 -0.9877838862892887 -0.03613299584047837
vn 0.15158298255022276 0.9877838862892887 0.03613299584047837
vn -0.32691786313439414 -0.6907467108158419 0.6449757299780647
vn 0.32691786313439414 0.6907467108158419 -0.6449757299780647
vn -0.1504540566810188 -0.98778737213217 -0.04049301525505821
vn 0.1504540566810188 0.98778737213217 0.04049301525505821
vn -0.14891304520300847 -0.9877652998391655 -0.04631001405754605
vn 0.14891304520300847 0.9877652998391655 0.04631001405754605
vn -0.14995092090825765 -0.9878094789790398 -0.041798977953093314
vn 0.14995092090825765 0.9878094789790398 0.041798977953093314
vn -0.7522379973370775 -0.6569499976743971 0.050543999821074104
vn 0.7522379973370775 0.6569499976743971 -0.050543999821074104
vn -0.9927717290026418 -0.05231898571846228 0.10801397051537648
vn 0.9927717290026418 0.05231898571846228 -0.10801397051537648
vn -0.360305029980082 -0.7811520649977133 0.509884042426178
vn 0.360305029980082 0.7811520649977133 -0.509884042426178
vn -0.14969093153003638 -0.9878205481620944 -0.04246398057659778
vn 0.14969093153003638 0.9878205481620944 0.04246398057659778
vn -0.8040697940274979 -0.44276388658051063 0.3967768983606507
vn 0.8040697940274979 0.44276388658051063 -0.3967768983606507
vn -0.9431881826158693 -0.016216003139669935 0.3318630642538394
vn 0.9431881826158693 0.016216003139669935 -0.3318630642538394
vn -0.3453629526759539 -0.004401999396807478 0.9384588714058051
vn 0.3453629526759539 0.004401999396807478 -0.9384588714058051
vn -0.15010506304976867 -0.9877844149065834 -0.04183801757354023
vn 0.15010506304976867 0.9877844149065834 0.04183801757354023
vn -0.14975407179533892 -0.9878044735748158 -0.04261502043056213
vn 0.14975407179533892 0.9878044735748158 0.04261502043056213
vn -0.9903490647579372 -0.05983500391255123 0.12501400817454122
vn 0.9903490647579372 0.05983500391255123 -0.12501400817454122
vn -0.3138848784685069 0.0199879922609505 0.949250632464465
vn 0.3138848784685069 -0.0199879922609505 -0.949250632464465
vn -0.5772830633089052 0.00012100001326952789 0.8165440895479457
vn 0.5772830633089052 -0.00012100001326952789 -0.8165440895479457
vn -0.6851629034694608 0.004822999320501981 0.728373897381594
vn 0.6851629034694608 -0.004822999320501981 -0.728373897381594
vn -0.796021072663195 -0.0037880003457801867 0.6052570552496824
vn 0.796021072663195 0.0037880003457801867 -0.6052570552496824
vn -0.41845615196907443 0.007464002710672298 0.9082063298297198
vn 0.41845615196907443 -0.007464002710672298 -0.9082063298297198
vn -0.5998480990613226 0.01966800324805282 0.7998721320940942
vn 0.5998480990613226 -0.01966800324805282 -0.7998721320940942
usemtl material_0_0
f 1//1 2//2 3//3
f 3//4 2//5 1//6
f 4//7 2//2 1//1
f 1//6 2//5 4//8
f 3//3 2//2 5//9
f 5//10 2//5 3//4
f 2//2 4//7 5//9
f 5//10 4//8 2//5
f 6//11 4//7 1//1
f 1//6 4//8 6//12
f 3//3 5//9 7//13
f 7//14 5//10 3//4
f 8//15 5//9 4//7
f 4//8 5//10 8//16
f 4//7 6//11 8//15
f 8//16 6//12 4//8
f 1//1 9//17 6//11
f 6//12 9//18 1//6
f 10//19 7//13 5//9
f 5//10 7//14 10//20
f 5//9 8//15 10//19
f 10//20 8//16 5//10
f 11//21 8//15 6//11
f 6//12 8//16 11//22
f 12//23 9//17 1//1
f 1//6 9//18 12//24
f 9//17 11//21 6//11
f 6//12 11//22 9//18
f 13//25 7//13 10//19
f 10//20 7//14 13//26
f 14//27 10//19 8//15
f 8//16 10//20 14//28
f 15//29 8//15 11//21
f 11//22 8//16 15//30
f 16//31 9//17 12//23
f 12//24 9//18 16//32
f 17//33 11//21 9//17
f 9//18 11//22 17//34
f 7//13 13//25 18//35
f 18//36 13//26 7//14
f 10//19 14//27 13//25
f 13//26 14//28 10//20
f 15//29 14//27 8//15
f 8//16 14//28 15//30
f 11//21 17//33 15//29
f 15//30 17//34 11//22
f 16//31 19//37 9//17
f 9//18 19//38 16//32
f 19//37 17//33 9//17
f 9//18 17//34 19//38
f 13//25 20//39 18//35
f 18//36 20//40 13//26
f 18//35 21//41 7//13
f 7//14 21//42 18//36
f 20//39 13//25 14//27
f 14//28 13//26 20//40
f 22//43 14//27 15//29
f 15//30 14//28 22//44
f 23//45 15//29 17//33
f 17//34 15//30 23//46
f 16//47 24//48 19//49
f 19//50 24//51 16//52
f 17//33 19//37 23//45
f 23//46 19//38 17//34
f 25//53 18//35 20//39
f 20//40 18//36 25//54
f 18//35 26//55 21//41
f 21//42 26//56 18//36
f 22//43 20//39 14//27
f 14//28 20//40 22//44
f 15//29 23//45 22//43
f 22//44 23//46 15//30
f 27//57 24//48 16//47
f 16//52 24//51 27//58
f 24//48 28//59 19//49
f 19//50 28//60 24//51
f 23//45 19//37 29//61
f 29//62 19//38 23//46
f 18//35 25//53 26//55
f 26//56 25//54 18//36
f 30//63 25//53 20//39
f 20//40 25//54 30//64
f 26//55 31//65 21//41
f 21//42 31//66 26//56
f 30//63 20//39 22//43
f 22//44 20//40 30//64
f 29//61 22//43 23//45
f 23//46 22//44 29//62
f 27//57 32//67 24//48
f 24//51 32//68 27//58
f 32//67 28//59 24//48
f 24//51 28//60 32//68
f 28//59 33//69 19//49
f 19//50 33//70 28//60
f 29//61 19//37 34//71
f 34//72 19//38 29//62
f 25//53 35//73 26//55
f 26//56 35//74 25//54
f 36//75 25//53 30//63
f 30//64 25//54 36//76
f 26//55 35//73 31//65
f 31//66 35//74 26//56
f 22//43 29//61 30//63
f 30//64 29//62 22//44
f 27//57 37//77 32//67
f 32//68 37//78 27//58
f 32//67 38//79 28//59
f 28//60 38//80 32//68
f 28//59 39//81 33//69
f 33//70 39//82 28//60
f 19//37 33//83 40//84
f 40//85 33//86 19//38
f 34//71 19//37 40//84
f 40//85 19//38 34//72
f 34//71 30//63 29//61
f 29//62 30//64 34//72
f 36//75 35//73 25//53
f 25//54 35//74 36//76
f 30//63 34//71 36//75
f 36//76 34//72 30//64
f 35//73 41//87 31//65
f 31//66 41//88 35//74
f 27//57 42//89 37//77
f 37//78 42//90 27//58
f 43//91 32//67 37//77
f 37//78 32//68 43//92
f 44//93 38//94 32//67
f 32//68 38//95 44//96
f 38//79 45//97 28//59
f 28//60 45//98 38//80
f 28//59 45//97 39//81
f 39//82 45//98 28//60
f 34//71 40//84 46//99
f 46//100 40//85 34//72
f 35//73 36//75 47//101
f 47//102 36//76 35//74
f 34//71 46//99 36//75
f 36//76 46//100 34//72
f 35//73 47//101 41//87
f 41//88 47//102 35//74
f 27//57 48//103 42//89
f 42//90 48//104 27//58
f 49//105 37//77 42//89
f 42//90 37//78 49//106
f 32//67 43//91 44//93
f 44//96 43//92 32//68
f 50//107 43//91 37//77
f 37//78 43//92 50//108
f 38//79 51//109 45//97
f 45//98 51//110 38//80
f 45//97 52//111 39//81
f 39//82 52//112 45//98
f 46//99 40//84 53//113
f 53//114 40//85 46//100
f 36//75 54//115 47//101
f 47//102 54//116 36//76
f 53//113 36//75 46//99
f 46//100 36//76 53//114
f 48//103 27//57 55//117
f 55//118 27//58 48//104
f 48//103 56//119 42//89
f 42//90 56//120 48//104
f 37//77 49//105 50//107
f 50//108 49//106 37//78
f 42//89 56//119 49//105
f 49//106 56//120 42//90
f 57//121 44//93 43//91
f 43//92 44//96 57//122
f 43//91 50//107 57//121
f 57//122 50//108 43//92
f 51//109 58//123 45//97
f 45//98 58//124 51//110
f 45//97 59//125 52//111
f 52//112 59//126 45//98
f 36//75 53//113 54//115
f 54//116 53//114 36//76
f 60//127 56//119 48//103
f 48//104 56//120 60//128
f 61//129 50//107 49//105
f 49//106 50//108 61//130
f 61//129 49//105 56//119
f 56//120 49//106 61//130
f 44//93 57//121 62//131
f 62//132 57//122 44//96
f 63//133 57//121 50//107
f 50//108 57//122 63//134
f 45//97 58//123 64//135
f 64//136 58//124 45//98
f 45//97 47//137 59//125
f 59//126 47//138 45//98
f 56//119 60//127 61//129
f 61//130 60//128 56//120
f 65//139 60//127 48//103
f 48//104 60//128 65//140
f 63//133 50//107 61//129
f 61//130 50//108 63//134
f 66//141 62//131 57//121
f 57//122 62//132 66//142
f 66//141 57//121 63//133
f 63//134 57//122 66//142
f 67//143 64//144 58//144
f 58//145 64//145 67//146
f 45//97 64//135 47//137
f 47//138 64//136 45//98
f 68//147 61//129 60//127
f 60//128 61//130 68//148
f 60//127 65//139 68//147
f 68//148 65//140 60//128
f 48//103 69//149 65//139
f 65//140 69//150 48//104
f 70//151 63//133 61//129
f 61//130 63//134 70//152
f 71//153 62//131 66//141
f 66//142 62//132 71//154
f 72//155 66//141 63//133
f 63//134 66//142 72//156
f 64//144 67//143 73//157
f 73//158 67//146 64//145
f 67//143 58//144 74//144
f 74//145 58//145 67//146
f 47//137 64//135 75//159
f 75//160 64//136 47//138
f 61//129 68//147 70//151
f 70//152 68//148 61//130
f 65//139 76//161 68//147
f 68//148 76//162 65//140
f 69//149 76//161 65//139
f 65//140 76//162 69//150
f 63//133 70//151 72//155
f 72//156 70//152 63//134
f 71//153 74//144 62//131
f 62//132 74//145 71//154
f 77//163 71//153 66//141
f 66//142 71//154 77//164
f 66//141 72//155 77//163
f 77//164 72//156 66//142
f 67//143 78//165 73//157
f 73//158 78//166 67//146
f 64//135 73//157 79//167
f 79//168 73//158 64//136
f 67//143 74//144 71//153
f 71//154 74//145 67//146
f 64//135 79//167 75//159
f 75//160 79//168 64//136
f 76//161 70//151 68//147
f 68//148 70//152 76//162
f 69//149 80//169 76//161
f 76//162 80//170 69//150
f 70//151 76//161 72//155
f 72//156 76//162 70//152
f 71//153 77//163 81//171
f 81//172 77//164 71//154
f 72//155 76//161 77//163
f 77//164 76//162 72//156
f 78//165 67//143 82//173
f 82//174 67//146 78//166
f 73//157 78//165 79//167
f 79//168 78//166 73//158
f 81//171 67//143 71//153
f 71//154 67//146 81//172
f 75//159 79//167 83//175
f 83//176 79//168 75//160
f 69//149 84//177 80//169
f 80//170 84//178 69//150
f 76//161 80//169 85//179
f 85//180 80//170 76//162
f 77//163 82//173 81//171
f 81//172 82//174 77//164
f 77//163 76//161 82//173
f 82//174 76//162 77//164
f 82//173 67//143 81//171
f 81//172 67//146 82//174
f 79//167 78//165 82//181
f 82//182 78//166 79//168
f 83//175 79//167 86//183
f 86//184 79//168 83//176
f 84//177 7//185 80//169
f 80//170 7//186 84//178
f 80//169 7//185 85//179
f 85//180 7//186 80//170
f 76//161 85//179 82//181
f 82//182 85//180 76//162
f 79//167 82//181 85//179
f 85//180 82//182 79//168
f 79//167 85//179 86//183
f 86//184 85//180 79//168
f 85//179 7//185 87//187
f 87//188 7//186 85//180
f 85//179 87//187 86//183
f 86//184 87//188 85//180
