# SSTK version 0.8.0
# 64
mtllib original-64.mtl
o mesh64/mesh64-geometry#mesh64-geometry
v -0.382161 -0.096675 0.147158
v -0.370774 -0.100449 -0.155893
v -0.369539 -0.092056 0.339335
v -0.382650 -0.097507 -0.034742
v -0.359186 -0.096675 0.147158
v -0.381325 -0.095969 0.261611
v -0.379591 -0.100449 -0.155893
v -0.387392 -0.091446 0.147291
v -0.359675 -0.097507 -0.034742
v -0.358349 -0.095969 0.261611
v -0.377656 -0.092056 0.339335
v -0.386555 -0.090740 0.261743
v -0.383888 -0.100190 -0.155887
v -0.387881 -0.092278 -0.034609
v -0.361957 -0.100449 -0.155893
v -0.354444 -0.092278 -0.034609
v -0.353955 -0.091446 0.147291
v -0.361400 -0.092056 0.339335
v -0.381365 -0.092004 0.339372
v -0.384179 -0.091029 0.340066
v -0.385834 -0.099039 -0.155858
v -0.387881 -0.061163 -0.033822
v -0.387392 -0.060331 0.148078
v -0.357660 -0.100190 -0.155887
v -0.355714 -0.099039 -0.155858
v -0.353119 -0.090740 0.261743
v -0.357687 -0.092001 0.339374
v -0.382876 -0.091718 0.339576
v -0.385295 -0.089764 0.340966
v -0.387493 -0.079662 -0.155367
v -0.387119 -0.097160 -0.155810
v -0.386555 -0.059625 0.262531
v -0.354444 -0.061163 -0.033822
v -0.354429 -0.097160 -0.155810
v -0.353955 -0.060331 0.148078
v -0.354874 -0.091012 0.340078
v -0.356176 -0.091709 0.339582
v -0.386080 -0.087612 0.342497
v -0.382650 -0.055934 -0.033689
v -0.387119 -0.062164 -0.154924
v -0.386245 -0.082205 0.346346
v -0.382161 -0.055102 0.148211
v -0.354056 -0.079662 -0.155367
v -0.353119 -0.059625 0.262531
v -0.353759 -0.089737 0.340985
v -0.385834 -0.060285 -0.154877
v -0.386226 -0.060343 0.361904
v -0.381325 -0.054396 0.262663
v -0.359186 -0.055102 0.148211
v -0.354429 -0.062164 -0.154924
v -0.358349 -0.054396 0.262663
v -0.352807 -0.082247 0.346316
v -0.352975 -0.087605 0.342503
v -0.370774 -0.058876 -0.154841
v -0.383888 -0.059135 -0.154848
v -0.386125 -0.053048 0.367096
v -0.385430 -0.051195 0.368415
v -0.369499 -0.048600 0.370262
v -0.359675 -0.055934 -0.033689
v -0.355714 -0.060285 -0.154877
v -0.353567 -0.051202 0.368410
v -0.352786 -0.060358 0.361894
v -0.379591 -0.058876 -0.154841
v -0.384062 -0.049621 0.369535
v -0.379698 -0.048600 0.370262
v -0.354932 -0.049625 0.369532
v -0.352876 -0.053057 0.367089
v -0.382035 -0.048701 0.370190
v -0.357660 -0.059135 -0.154848
v -0.361957 -0.058876 -0.154841
v -0.359299 -0.048600 0.370262
v -0.356957 -0.048702 0.370189
vn -0.26648202293264445 -0.9637990829416612 0.008869000763239418
vn 0.0018569995052638286 -0.9998807336148101 0.015331995915295967
vn -0.00015999998109464338 -0.9996938818776775 0.024740997076640847
vn 0.00015999998109464338 0.9996938818776775 -0.024740997076640847
vn -0.0018569995052638286 0.9998807336148101 -0.015331995915295967
vn 0.26648202293264445 0.9637990829416612 -0.008869000763239418
vn -0.3822270186654836 -0.9238700451158091 0.019148000935063723
vn 0.3822270186654836 0.9238700451158091 -0.019148000935063723
vn 0.2715198911419955 -0.9624106141494514 0.006538997378378943
vn -0.2715198911419955 0.9624106141494514 -0.006538997378378943
vn -0.27255609705806116 -0.9615273424028322 0.034327012223954
vn 0.27255609705806116 0.9615273424028322 -0.034327012223954
vn -0.030082001561541703 -0.999271051871662 0.023504001220080763
vn 0.030082001561541703 0.999271051871662 -0.023504001220080763
vn -0.9237801729529116 -0.382865071681154 0.006673001249339346
vn 0.9237801729529116 0.382865071681154 -0.006673001249339346
vn 0.38616510426652306 -0.922219249003842 0.01970200531964046
vn -0.38616510426652306 0.922219249003842 -0.01970200531964046
vn 0.27580504668345573 -0.9606911626090018 0.03168700536342199
vn -0.27580504668345573 0.9606911626090018 -0.03168700536342199
vn -0.006691002560269128 -0.9986963821447522 0.05060401936330257
vn 0.006691002560269128 0.9986963821447522 -0.05060401936330257
vn -0.9263548991704433 -0.37642495902783935 0.013070998577280618
vn 0.9263548991704433 0.37642495902783935 -0.013070998577280618
vn -0.2924120756525696 -0.9559872473320966 0.024157006249877096
vn 0.2924120756525696 0.9559872473320966 -0.024157006249877096
vn -0.9341669308127971 -0.3567489735781017 0.007893999415346662
vn 0.9341669308127971 0.3567489735781017 -0.007893999415346662
vn 0.03008098639939645 -0.9992665481987199 0.023695989286263472
vn -0.03008098639939645 0.9992665481987199 -0.023695989286263472
vn 0.9341325472218606 -0.35677782706822364 0.010293995010455425
vn -0.9341325472218606 0.35677782706822364 -0.010293995010455425
vn 0.9238678930729219 -0.3827029557065365 -0.0025619997034780993
vn -0.9238678930729219 0.3827029557065365 0.0025619997034780993
vn 0.007103002922449469 -0.9986954109018263 0.05056702080522325
vn -0.007103002922449469 0.9986954109018263 -0.05056702080522325
vn -0.09672203916812967 -0.9940224025349206 0.050639020506553806
vn 0.09672203916812967 0.9940224025349206 -0.050639020506553806
vn -0.6431793198357894 -0.7652583805424252 0.026457013156361404
vn 0.6431793198357894 0.7652583805424252 -0.026457013156361404
vn -0.69101691351682 -0.7224569095819948 0.023486997060520137
vn 0.69101691351682 0.7224569095819948 -0.023486997060520137
vn -0.9341911432722357 0.3567450547122095 -0.0044580006837012486
vn 0.9341911432722357 -0.3567450547122095 0.0044580006837012486
vn 0.29236907961167263 -0.9559512603041297 0.02602900708766034
vn -0.29236907961167263 0.9559512603041297 -0.02602900708766034
vn 0.690880221411947 -0.7224302315230329 0.027912008945186074
vn -0.690880221411947 0.7224302315230329 -0.027912008945186074
vn 0.9272489971598364 -0.3744219988531454 0.004178999987199641
vn -0.9272489971598364 0.3744219988531454 -0.004178999987199641
vn 0.0989599688148984 -0.9938406868125245 0.049875984282658145
vn -0.0989599688148984 0.9938406868125245 -0.049875984282658145
vn -0.3207821497196501 -0.9460734415637988 0.04520902110054677
vn 0.3207821497196501 0.9460734415637988 -0.04520902110054677
vn -0.8533241181917984 -0.520997072162007 0.02000000277015046
vn 0.8533241181917984 0.520997072162007 -0.02000000277015046
vn -0.9999873212689782 0.00012700004080169175 -0.005034001617289062
vn 0.9999873212689782 -0.00012700004080169175 0.005034001617289062
vn -0.9521194298891463 -0.30566081697616515 0.006328996210318388
vn 0.9521194298891463 0.30566081697616515 -0.006328996210318388
vn -0.9625148226364474 0.27112595003935464 -0.007478998621837512
vn 0.9625148226364474 -0.27112595003935464 0.007478998621837512
vn 0.9342170902332306 0.35669903445249135 -0.0020560001985828217
vn -0.9342170902332306 -0.35669903445249135 0.0020560001985828217
vn 0.9520287605643207 -0.3057559231022421 0.012431996873346896
vn -0.9520287605643207 0.3057559231022421 -0.012431996873346896
vn 0.6467030713268257 -0.762441084091919 0.02141800236225569
vn -0.6467030713268257 0.762441084091919 -0.02141800236225569
vn 0.3255169396083126 -0.9445788247565575 0.042538992107932744
vn -0.3255169396083126 0.9445788247565575 -0.042538992107932744
vn -0.9801337433402514 -0.19788194818224408 0.013437996481099784
vn 0.9801337433402514 0.19788194818224408 -0.013437996481099784
vn -0.3225199860539136 0.946450959074515 -0.014540999371232452
vn 0.3225199860539136 -0.946450959074515 0.014540999371232452
vn -0.9520776358379907 0.30573788305772803 -0.008515996742699929
vn 0.9520776358379907 -0.30573788305772803 0.008515996742699929
vn -0.9999114557207488 -0.012429005664657345 0.004754002166689273
vn 0.9999114557207488 0.012429005664657345 -0.004754002166689273
vn -0.3905250795441089 0.9205741875071725 -0.005773001175873659
vn 0.3905250795441089 -0.9205741875071725 0.005773001175873659
vn 0.9999990499449537 -0.00003500000174807543 0.001378000068824215
vn -0.9999990499449537 0.00003500000174807543 -0.001378000068824215
vn 0.9620849180852072 0.2722809768171818 -0.015989998638563544
vn -0.9620849180852072 -0.2722809768171818 0.015989998638563544
vn 0.8559515750261402 -0.5168807433723928 0.01346099331671259
vn -0.8559515750261402 0.5168807433723928 -0.01346099331671259
vn -0.6913101337128732 0.7224651397388595 -0.011594002242506172
vn 0.6913101337128732 -0.7224651397388595 0.011594002242506172
vn -0.9999821733769242 0.0049400008564974215 0.0033540005815166723
vn 0.9999821733769242 -0.0049400008564974215 -0.0033540005815166723
vn -0.4537761027403666 0.8902702015678797 -0.038810008787052507
vn 0.4537761027403666 -0.8902702015678797 0.038810008787052507
vn 0.38454805950400994 0.9230501428304826 -0.010061001556814145
vn -0.38454805950400994 -0.9230501428304826 0.010061001556814145
vn 0.9521501756422069 0.3056210563776158 -0.002411000444754814
vn -0.9521501756422069 -0.3056210563776158 0.002411000444754814
vn 0.4497948322258842 0.892092667248159 -0.04307298393371518
vn -0.4497948322258842 -0.892092667248159 0.04307298393371518
vn 0.9999484098304398 -0.009837004031711685 -0.0025320010377446384
vn -0.9999484098304398 0.009837004031711685 0.0025320010377446384
vn 0.9809083113555515 -0.1943840617005239 0.005807001843232643
vn -0.9809083113555515 0.1943840617005239 -0.005807001843232643
vn -0.0007699996206732552 0.9998685074323989 -0.01619799202034444
vn 0.0007699996206732552 -0.9998685074323989 0.01619799202034444
vn -0.2924888896571247 0.9560096393406515 -0.022266991599667454
vn 0.2924888896571247 -0.9560096393406515 0.022266991599667454
vn -0.9816786215443125 0.19037892660532074 -0.007933996941293982
vn 0.9816786215443125 -0.19037892660532074 0.007933996941293982
vn -0.805059130296818 0.591870095792703 -0.039618006412075676
vn 0.805059130296818 -0.591870095792703 0.039618006412075676
vn -0.0011709998854961237 0.9996309022530963 -0.02714199734597398
vn 0.0011709998854961237 -0.9996309022530963 0.02714199734597398
vn 0.3188781357126501 0.94769840333484 -0.013582005780421187
vn -0.3188781357126501 -0.94769840333484 0.013582005780421187
vn 0.6913942071265249 0.7224422164278268 -0.007162002145578441
vn -0.6913942071265249 -0.7224422164278268 0.007162002145578441
vn 0.8044680072735976 0.5923070053553439 -0.04476200040471551
vn -0.8044680072735976 -0.5923070053553439 0.04476200040471551
vn 0.9999627555316354 0.007980998048825788 -0.0032849991968917054
vn -0.9999627555316354 -0.007980998048825788 0.0032849991968917054
vn -0.030077010328913318 0.9992343431526206 -0.025022008592946846
vn 0.030077010328913318 -0.9992343431526206 0.025022008592946846
vn -0.5803520747447092 0.812756104676491 -0.05117600659106048
vn 0.5803520747447092 -0.812756104676491 0.05117600659106048
vn -0.02074800427288594 0.9983542056030832 -0.05346401101048628
vn 0.02074800427288594 -0.9983542056030832 0.05346401101048628
vn 0.580274094982173 0.8125731330060442 -0.054835008975669
vn -0.580274094982173 -0.8125731330060442 0.054835008975669
vn 0.9811538636019618 0.19269197321234915 -0.014383998000365461
vn -0.9811538636019618 -0.19269197321234915 0.014383998000365461
vn -0.22409996598958326 0.9731228523145079 -0.053019991953447816
vn 0.22409996598958326 -0.9731228523145079 0.053019991953447816
vn 0.292526026806355 0.9560400876091274 -0.020393001868763583
vn -0.292526026806355 -0.9560400876091274 0.020393001868763583
vn 0.030078003843277343 0.9992391276797862 -0.02482900317257552
vn -0.030078003843277343 -0.9992391276797862 0.02482900317257552
vn 0.020892005978781117 0.9983442857017162 -0.05359301533700994
vn -0.020892005978781117 -0.9983442857017162 0.05359301533700994
vn 0.22449003275691445 0.9729551419707057 -0.054429007942117906
vn -0.22449003275691445 -0.9729551419707057 0.054429007942117906
usemtl material_0_0
f 1//1 2//2 3//3
f 3//4 2//5 1//6
f 4//7 2//2 1//1
f 1//6 2//5 4//8
f 2//2 5//9 3//3
f 3//4 5//10 2//5
f 1//1 3//3 6//11
f 6//12 3//4 1//6
f 4//7 7//13 2//2
f 2//5 7//14 4//8
f 8//15 4//7 1//1
f 1//6 4//8 8//16
f 2//2 9//17 5//9
f 5//10 9//18 2//5
f 3//3 5//9 10//19
f 10//20 5//10 3//4
f 6//11 3//3 11//21
f 11//22 3//4 6//12
f 12//23 1//1 6//11
f 6//12 1//6 12//24
f 13//25 7//13 4//7
f 4//8 7//14 13//26
f 4//7 8//15 14//27
f 14//28 8//16 4//8
f 1//1 12//23 8//15
f 8//16 12//24 1//6
f 2//2 15//29 9//17
f 9//18 15//30 2//5
f 16//31 5//9 9//17
f 9//18 5//10 16//32
f 17//33 10//19 5//9
f 5//10 10//20 17//34
f 3//3 10//19 18//35
f 18//36 10//20 3//4
f 19//37 6//11 11//21
f 11//22 6//12 19//38
f 12//23 6//11 20//39
f 20//40 6//12 12//24
f 21//41 13//25 4//7
f 4//8 13//26 21//42
f 8//15 22//43 14//27
f 14//28 22//44 8//16
f 14//27 21//41 4//7
f 4//8 21//42 14//28
f 12//23 23//34 8//15
f 8//16 23//33 12//24
f 15//29 24//45 9//17
f 9//18 24//46 15//30
f 5//9 16//31 17//33
f 17//34 16//32 5//10
f 9//17 25//47 16//31
f 16//32 25//48 9//18
f 10//19 17//33 26//49
f 26//50 17//34 10//20
f 18//35 10//19 27//51
f 27//52 10//20 18//36
f 28//53 6//11 19//37
f 19//38 6//12 28//54
f 20//39 6//11 28//53
f 28//54 6//12 20//40
f 29//55 12//23 20//39
f 20//40 12//24 29//56
f 22//43 8//15 23//34
f 23//33 8//16 22//44
f 22//43 30//57 14//27
f 14//28 30//58 22//44
f 14//27 31//59 21//41
f 21//42 31//60 14//28
f 23//34 12//23 32//61
f 32//62 12//24 23//33
f 9//17 24//45 25//47
f 25//48 24//46 9//18
f 33//63 17//33 16//31
f 16//32 17//34 33//64
f 16//31 25//47 34//65
f 34//66 25//48 16//32
f 35//16 26//49 17//33
f 17//34 26//50 35//15
f 10//19 26//49 36//67
f 36//68 26//50 10//20
f 10//19 37//69 27//51
f 27//52 37//70 10//20
f 38//71 12//23 29//55
f 29//56 12//24 38//72
f 23//34 39//73 22//43
f 22//44 39//74 23//33
f 22//43 40//75 30//57
f 30//58 40//76 22//44
f 14//27 30//57 31//59
f 31//60 30//58 14//28
f 41//77 32//61 12//23
f 12//24 32//62 41//78
f 32//61 42//79 23//34
f 23//33 42//80 32//62
f 17//33 33//63 35//16
f 35//15 33//64 17//34
f 33//63 16//31 43//81
f 43//82 16//32 33//64
f 16//31 34//65 43//81
f 43//82 34//66 16//32
f 26//49 35//16 44//83
f 44//84 35//15 26//50
f 45//85 36//67 26//49
f 26//50 36//68 45//86
f 10//19 36//67 37//69
f 37//70 36//68 10//20
f 41//77 12//23 38//71
f 38//72 12//24 41//78
f 39//73 23//34 42//79
f 42//80 23//33 39//74
f 22//43 39//73 46//87
f 46//88 39//74 22//44
f 22//43 46//87 40//75
f 40//76 46//88 22//44
f 47//89 32//61 41//77
f 41//78 32//62 47//90
f 42//79 32//61 48//91
f 48//92 32//62 42//80
f 33//63 49//93 35//16
f 35//15 49//94 33//64
f 33//63 43//81 50//95
f 50//96 43//82 33//64
f 35//16 51//97 44//83
f 44//84 51//98 35//15
f 52//99 26//49 44//83
f 44//84 26//50 52//100
f 53//101 45//85 26//49
f 26//50 45//86 53//102
f 39//73 42//79 54//103
f 54//104 42//80 39//74
f 46//87 39//73 55//105
f 55//106 39//74 46//88
f 56//107 32//61 47//89
f 47//90 32//62 56//108
f 32//61 57//109 48//91
f 48//92 57//110 32//62
f 42//79 48//91 58//111
f 58//112 48//92 42//80
f 49//93 33//63 59//113
f 59//114 33//64 49//94
f 51//97 35//16 49//93
f 49//94 35//15 51//98
f 33//63 50//95 60//115
f 60//116 50//96 33//64
f 51//97 61//117 44//83
f 44//84 61//118 51//98
f 52//99 53//101 26//49
f 26//50 53//102 52//100
f 62//119 52//99 44//83
f 44//84 52//100 62//120
f 42//79 58//111 54//103
f 54//104 58//112 42//80
f 39//73 54//103 63//121
f 63//122 54//104 39//74
f 55//105 39//73 63//121
f 63//122 39//74 55//106
f 57//109 32//61 56//107
f 56//108 32//62 57//110
f 64//123 48//91 57//109
f 57//110 48//92 64//124
f 48//91 65//125 58//111
f 58//112 65//126 48//92
f 59//113 33//63 60//115
f 60//116 33//64 59//114
f 54//103 49//93 59//113
f 59//114 49//94 54//104
f 58//111 51//97 49//93
f 49//94 51//98 58//112
f 66//127 61//117 51//97
f 51//98 61//118 66//128
f 61//117 67//129 44//83
f 44//84 67//130 61//118
f 67//129 62//119 44//83
f 44//84 62//120 67//130
f 54//103 58//111 49//93
f 49//94 58//112 54//104
f 64//123 68//131 48//91
f 48//92 68//132 64//124
f 68//131 65//125 48//91
f 48//92 65//126 68//132
f 59//113 60//115 69//133
f 69//134 60//116 59//114
f 54//103 59//113 70//135
f 70//136 59//114 54//104
f 58//111 71//137 51//97
f 51//98 71//138 58//112
f 51//97 72//139 66//127
f 66//128 72//140 51//98
f 70//135 59//113 69//133
f 69//134 59//114 70//136
f 71//137 72//139 51//97
f 51//98 72//140 71//138
