# SSTK version 0.8.0
# 35
mtllib original-35.mtl
o mesh35/mesh35-geometry#mesh35-geometry
v 0.010022 -0.329568 0.060967
v 0.022321 -0.460251 0.068624
v 0.010022 -0.460251 0.060967
v 0.022321 -0.329568 0.068624
v 0.013423 -0.472131 0.061995
v 0.001133 -0.329568 0.060967
v 0.013423 -0.282047 0.061995
v 0.025395 -0.472131 0.073967
v 0.020649 -0.472131 0.066742
v 0.005578 -0.472131 0.060499
v 0.001133 -0.460251 0.060967
v 0.005578 -0.282047 0.060499
v 0.020649 -0.282047 0.066742
v 0.026892 -0.282047 0.081813
v -0.007611 -0.329568 0.065069
v -0.002268 -0.282047 0.061995
v 0.025395 -0.282047 0.073967
v 0.026892 -0.472131 0.081813
v -0.002268 -0.472131 0.061995
v -0.007611 -0.460251 0.065069
v 0.025395 -0.282047 0.089658
v -0.013760 -0.460251 0.072850
v -0.009493 -0.282047 0.066742
v 0.024915 -0.460251 0.090776
v -0.009493 -0.472131 0.066742
v -0.013760 -0.329568 0.072850
v 0.025395 -0.472131 0.089658
v 0.024915 -0.329568 0.090776
v -0.014240 -0.282047 0.073967
v -0.014240 -0.472131 0.073967
v 0.020649 -0.472131 0.096884
v 0.020649 -0.282047 0.096884
v 0.018766 -0.329568 0.098556
v -0.015736 -0.472131 0.081813
v 0.018766 -0.460251 0.098556
v -0.015736 -0.282047 0.081813
v 0.013423 -0.472131 0.101630
v 0.013423 -0.282047 0.101630
v 0.010022 -0.460251 0.102658
v -0.014240 -0.472131 0.089658
v 0.010022 -0.329568 0.102658
v -0.011166 -0.329568 0.095001
v 0.005578 -0.472131 0.103127
v 0.005578 -0.282047 0.103127
v 0.001133 -0.460251 0.102658
v -0.014240 -0.282047 0.089658
v -0.011166 -0.460251 0.095001
v 0.001133 -0.329568 0.102658
v -0.009493 -0.282047 0.096884
v -0.009493 -0.472131 0.096884
v -0.002268 -0.472131 0.101630
v -0.002268 -0.282047 0.101630
vn 0.2569470793633851 -0.0044350013698410875 -0.9664152984972225
vn 0.6785419261620895 0.020947997720470603 -0.7342629200986148
vn 0.2567878980300595 0.01770399296978141 -0.9663056162820485
vn 0.7854210715683566 -0.009159000834577215 -0.6188940563942479
vn -0.2567878980300595 -0.01770399296978141 0.9663056162820485
vn -0.6785419261620895 -0.020947997720470603 0.7342629200986148
vn -0.2569470793633851 0.0044350013698410875 0.9664152984972225
vn -0.7854210715683566 0.009159000834577215 0.6188940563942479
vn 0.42813090618389893 0.03437299246786438 -0.9030628021123215
vn -0.42813090618389893 -0.03437299246786438 0.9030628021123215
vn -0.21141995911635222 -0.0026169994939336297 -0.9773918109954108
vn 0.21141995911635222 0.0026169994939336297 0.9773918109954108
vn 0.4284910135002523 -0.00860900027123927 -0.9035050284662816
vn -0.4284910135002523 0.00860900027123927 0.9035050284662816
vn 0.9160827812788495 -0.0059599985770087 -0.4009449042716089
vn -0.9160827812788495 0.0059599985770087 0.4009449042716089
vn 0.7071280675218945 0.012496001193212126 -0.706975067507285
vn -0.7071280675218945 -0.012496001193212126 0.706975067507285
vn 0 -0.007852001355000138 -0.9999691725621951
vn 0 0.007852001355000138 0.9999691725621951
vn -0.21140299993879885 0.010460999996971757 -0.9773429997170592
vn 0.21140299993879885 -0.010460999996971757 0.9773429997170592
vn 0 0.001962000147691751 -0.999998075275858
vn 0 -0.001962000147691751 0.999998075275858
vn 0.7071078174371593 -0.0031299991918889306 -0.7070988174394831
vn -0.7071078174371593 0.0031299991918889306 0.7070988174394831
vn 0.9905201446743925 -0.009021001317598499 -0.1370710200204576
vn -0.9905201446743925 0.009021001317598499 0.1370710200204576
vn -0.6068592198803068 -0.0025380009195811733 -0.7948052879778782
vn 0.6068592198803068 0.0025380009195811733 0.7948052879778782
vn -0.39217388873400877 0.0015839995505942512 -0.9198897390125997
vn 0.39217388873400877 -0.0015839995505942512 0.9198897390125997
vn 0.9266842904094652 -0.0177330055572676 -0.3754221176518665
vn -0.9266842904094652 0.0177330055572676 0.3754221176518665
vn 0.9947188661158233 0.005264999291357445 0.10250198620374609
vn -0.9947188661158233 -0.005264999291357445 -0.10250198620374609
vn -0.3921629527873089 -0.006343999236242603 -0.9198738892559293
vn 0.3921629527873089 0.006343999236242603 0.9198738892559293
vn -0.6068390150053085 0.0101450002508556 -0.7947600196520312
vn 0.6068390150053085 -0.0101450002508556 0.7947600196520312
vn 0.9399965971086148 0.0008109996523978432 0.34118285376581897
vn -0.9399965971086148 -0.0008109996523978432 -0.34118285376581897
vn -0.8980089136286087 0.0067839993475082875 -0.43992495768757967
vn 0.8980089136286087 -0.0067839993475082875 0.43992495768757967
vn -0.7344029818209561 0.0009729999759149962 -0.6787129831994784
vn 0.7344029818209561 -0.0009729999759149962 0.6787129831994784
vn 0.8980089136286087 0.0067839993475080915 0.43992495768757967
vn -0.8980089136286087 -0.0067839993475080915 -0.43992495768757967
vn -0.7344051597147794 -0.0038950008470652504 -0.6787001476003306
vn 0.7344051597147794 0.0038950008470652504 0.6787001476003306
vn -0.835780828906906 -0.0012039997535285116 -0.5490618876012778
vn 0.835780828906906 0.0012039997535285116 0.5490618876012778
vn 0.926857563949437 0.0021140012862707327 0.37540722841772384
vn -0.926857563949437 -0.0021140012862707327 -0.37540722841772384
vn 0.835780828906906 -0.0012039997535287553 0.5490618876012778
vn -0.835780828906906 0.0012039997535287553 -0.5490618876012778
vn -0.9399965971086148 0.0008109996523979947 -0.34118285376581897
vn 0.9399965971086148 -0.0008109996523979947 0.34118285376581897
vn -0.926857563949437 0.0021140012862708992 -0.37540722841772384
vn 0.926857563949437 -0.0021140012862708992 0.37540722841772384
vn 0.7344051597147794 -0.0038950008470655514 0.6787001476003306
vn -0.7344051597147794 0.0038950008470655514 -0.6787001476003306
vn 0.7344029818209561 0.0009729999759146948 0.6787129831994784
vn -0.7344029818209561 -0.0009729999759146948 -0.6787129831994784
vn 0.6068592198803068 -0.0025380009195815263 0.7948052879778782
vn -0.6068592198803068 0.0025380009195815263 -0.7948052879778782
vn -0.9947188661158233 0.0052649992913574905 -0.10250198620374609
vn 0.9947188661158233 -0.0052649992913574905 0.10250198620374609
vn 0.6068390150053085 0.010145000250855246 0.7947600196520312
vn -0.6068390150053085 -0.010145000250855246 -0.7947600196520312
vn -0.9905201446743925 -0.009021001317598561 0.1370710200204576
vn 0.9905201446743925 0.009021001317598561 -0.1370710200204576
vn 0.3921629527873089 -0.006343999236243011 0.9198738892559293
vn -0.3921629527873089 0.006343999236243011 -0.9198738892559293
vn 0.39217388873400877 0.0015839995505938427 0.9198897390125997
vn -0.39217388873400877 -0.0015839995505938427 -0.9198897390125997
vn 0.21140299993879885 0.010460999996971324 0.9773429997170592
vn -0.21140299993879885 -0.010460999996971324 -0.9773429997170592
vn -0.9160827812788495 -0.005959998577008878 0.4009449042716089
vn 0.9160827812788495 0.005959998577008878 -0.4009449042716089
vn 0.21141995911635222 -0.0026169994939340634 0.9773918109954108
vn -0.21141995911635222 0.0026169994939340634 -0.9773918109954108
vn -0.7854210715683566 -0.00915900083457749 0.6188940563942479
vn 0.7854210715683566 0.00915900083457749 -0.6188940563942479
vn 0 -0.007852001355000582 0.9999691725621951
vn 0 0.007852001355000582 -0.9999691725621951
vn 0 0.001962000147691307 0.999998075275858
vn 0 -0.001962000147691307 -0.999998075275858
vn -0.2567878980300596 0.017703992969780983 0.9663056162820487
vn 0.2567878980300596 -0.017703992969780983 -0.9663056162820487
vn -0.9266842904094652 -0.017733005557267766 0.3754221176518665
vn 0.9266842904094652 0.017733005557267766 -0.3754221176518665
vn -0.6785419261620895 0.020947997720470277 0.7342629200986148
vn 0.6785419261620895 -0.020947997720470277 -0.7342629200986148
vn -0.2569470793633851 -0.004435001369841516 0.9664152984972225
vn 0.2569470793633851 0.004435001369841516 -0.9664152984972225
vn -0.7071078174371593 -0.0031299991918892446 0.7070988174394831
vn 0.7071078174371593 0.0031299991918892446 -0.7070988174394831
vn -0.7071280675218945 0.012496001193211814 0.706975067507285
vn 0.7071280675218945 -0.012496001193211814 -0.706975067507285
vn -0.42813090618389893 0.034372992467863975 0.9030628021123215
vn 0.42813090618389893 -0.034372992467863975 -0.9030628021123215
vn -0.4284910135002523 -0.008609000271239672 0.9035050284662816
vn 0.4284910135002523 0.008609000271239672 -0.9035050284662816
usemtl material_0_0
f 1//1 2//2 3//3
f 2//2 1//1 4//4
f 3//5 2//6 1//7
f 4//8 1//7 2//6
f 2//2 5//9 3//3
f 3//5 5//10 2//6
f 3//3 6//11 1//1
f 1//7 6//12 3//5
f 7//13 4//4 1//1
f 1//7 4//8 7//14
f 8//15 2//2 4//4
f 4//8 2//6 8//16
f 2//2 9//17 5//9
f 5//10 9//18 2//6
f 3//3 5//9 10//19
f 10//20 5//10 3//5
f 6//11 3//3 11//21
f 11//22 3//5 6//12
f 12//23 1//1 6//11
f 6//12 1//7 12//24
f 13//25 4//4 7//13
f 7//14 4//8 13//26
f 7//13 1//1 12//23
f 12//24 1//7 7//14
f 8//15 9//17 2//2
f 2//6 9//18 8//16
f 14//27 8//15 4//4
f 4//8 8//16 14//28
f 3//3 10//19 11//21
f 11//22 10//20 3//5
f 11//21 15//29 6//11
f 6//12 15//30 11//22
f 12//23 6//11 16//31
f 16//32 6//12 12//24
f 17//33 4//4 13//25
f 13//26 4//8 17//34
f 18//35 8//15 14//27
f 14//28 8//16 18//36
f 14//27 4//4 17//33
f 17//34 4//8 14//28
f 11//21 10//19 19//37
f 19//38 10//20 11//22
f 15//29 11//21 20//39
f 20//40 11//22 15//30
f 16//31 6//11 15//29
f 15//30 6//12 16//32
f 21//41 18//35 14//27
f 14//28 18//36 21//42
f 11//21 19//37 20//39
f 20//40 19//38 11//22
f 22//43 15//29 20//39
f 20//40 15//30 22//44
f 16//31 15//29 23//45
f 23//46 15//30 16//32
f 24//47 18//35 21//41
f 21//42 18//36 24//48
f 20//39 19//37 25//49
f 25//50 19//38 20//40
f 15//29 22//43 26//51
f 26//52 22//44 15//30
f 22//43 20//39 25//49
f 25//50 20//40 22//44
f 26//51 23//45 15//29
f 15//30 23//46 26//52
f 24//47 27//53 18//35
f 18//36 27//54 24//48
f 24//47 21//41 28//55
f 28//56 21//42 24//48
f 29//57 26//51 22//43
f 22//44 26//52 29//58
f 30//59 22//43 25//49
f 25//50 22//44 30//60
f 29//57 23//45 26//51
f 26//52 23//46 29//58
f 31//61 27//53 24//47
f 24//48 27//54 31//62
f 32//63 28//55 21//41
f 21//42 28//56 32//64
f 33//65 24//47 28//55
f 28//56 24//48 33//66
f 34//67 29//57 22//43
f 22//44 29//58 34//68
f 34//67 22//43 30//59
f 30//60 22//44 34//68
f 35//69 31//61 24//47
f 24//48 31//62 35//70
f 33//65 28//55 32//63
f 32//64 28//56 33//66
f 24//47 33//65 35//69
f 35//70 33//66 24//48
f 36//71 29//57 34//67
f 34//68 29//58 36//72
f 35//69 37//73 31//61
f 31//62 37//74 35//70
f 32//63 38//75 33//65
f 33//66 38//76 32//64
f 33//65 39//77 35//69
f 35//70 39//78 33//66
f 40//79 36//71 34//67
f 34//68 36//72 40//80
f 39//77 37//73 35//69
f 35//70 37//74 39//78
f 38//75 41//81 33//65
f 33//66 41//82 38//76
f 39//77 33//65 41//81
f 41//82 33//66 39//78
f 42//83 36//71 40//79
f 40//80 36//72 42//84
f 39//77 43//85 37//73
f 37//74 43//86 39//78
f 44//87 41//81 38//75
f 38//76 41//82 44//88
f 41//81 45//89 39//77
f 39//78 45//90 41//82
f 42//83 46//91 36//71
f 36//72 46//92 42//84
f 42//83 40//79 47//93
f 47//94 40//80 42//84
f 45//89 43//85 39//77
f 39//78 43//86 45//90
f 44//87 48//95 41//81
f 41//82 48//96 44//88
f 45//89 41//81 48//95
f 48//96 41//82 45//90
f 49//97 46//91 42//83
f 42//84 46//92 49//98
f 50//99 47//93 40//79
f 40//80 47//94 50//100
f 47//93 48//95 42//83
f 42//84 48//96 47//94
f 45//89 51//101 43//85
f 43//86 51//102 45//90
f 44//87 52//103 48//95
f 48//96 52//104 44//88
f 48//95 47//93 45//89
f 45//90 47//94 48//96
f 49//97 42//83 52//103
f 52//104 42//84 49//98
f 47//93 50//99 51//101
f 51//102 50//100 47//94
f 52//103 42//83 48//95
f 48//96 42//84 52//104
f 47//93 51//101 45//89
f 45//90 51//102 47//94
