# SSTK version 0.8.0
# 11
mtllib original-11.mtl
o mesh11/mesh11-geometry#mesh11-geometry
v -0.319019 -0.113251 0.202933
v -0.319019 -0.134863 0.200385
v -0.319019 -0.112749 0.200036
v -0.319019 -0.123663 0.205251
v -0.319011 -0.172222 0.200571
v -0.343275 -0.113257 0.202932
v -0.319019 -0.115018 0.205281
v -0.367532 -0.123673 0.205249
v -0.319019 -0.113747 0.197032
v -0.319018 -0.141075 0.205880
v -0.319019 -0.120903 0.206415
v -0.367532 -0.134874 0.200383
v -0.343275 -0.121503 0.206190
v -0.319019 -0.115951 0.194972
v -0.319013 -0.165956 0.206005
v -0.319019 -0.117890 0.206611
v -0.343275 -0.116510 0.194697
v -0.367532 -0.113262 0.202932
v -0.367532 -0.120913 0.206413
v -0.319019 -0.118687 0.193750
v -0.343274 -0.143000 0.206940
v -0.319016 -0.149353 0.209040
v -0.343268 -0.172227 0.200571
v -0.367532 -0.113757 0.197030
v -0.367532 -0.112760 0.200035
v -0.367532 -0.115028 0.205279
v -0.367532 -0.117900 0.206609
v -0.319010 -0.176445 0.192782
v -0.367531 -0.141085 0.205879
v -0.319014 -0.158213 0.208978
v -0.343270 -0.164201 0.206962
v -0.367532 -0.115961 0.194970
v -0.367524 -0.172233 0.200570
v -0.319020 -0.129888 0.188884
v -0.367532 -0.118698 0.193748
v -0.367530 -0.149363 0.209039
v -0.343272 -0.153830 0.209421
v -0.367526 -0.165966 0.206003
v -0.343266 -0.177038 0.190608
v -0.319009 -0.177552 0.183991
v -0.367528 -0.158224 0.208977
v -0.367523 -0.176456 0.192781
v -0.319020 -0.130135 0.180594
v -0.367533 -0.129898 0.188882
v -0.367523 -0.177562 0.183989
v -0.343266 -0.176921 0.179774
v -0.319010 -0.175625 0.175924
v -0.343276 -0.131426 0.176374
v -0.367533 -0.130146 0.180592
v -0.319019 -0.133500 0.172397
v -0.367523 -0.175635 0.175922
v -0.343267 -0.172477 0.170629
v -0.319010 -0.171065 0.168996
v -0.367532 -0.133511 0.172395
v -0.343274 -0.139618 0.165981
v -0.319017 -0.139612 0.165982
v -0.367524 -0.171075 0.168995
v -0.343268 -0.163905 0.163782
v -0.319012 -0.163900 0.163783
v -0.367530 -0.139623 0.165980
v -0.319015 -0.147081 0.162375
v -0.367529 -0.147091 0.162373
v -0.343271 -0.151073 0.161602
v -0.367525 -0.163910 0.163781
v -0.319014 -0.155331 0.161528
v -0.367527 -0.155342 0.161526
vn 0.9999999894830002 0.00014499999847503503 0.000002999999968449033
vn -0.9999999894830002 -0.00014499999847503503 -0.000002999999968449033
vn -0.0002109999139274557 0.917696625646845 0.39728183793804506
vn -0.00021200011540346026 0.9177734995951882 0.39710421616592323
vn -0.029707990317989284 0.9968016751364062 -0.07418797582169727
vn 0.029707990317989284 -0.9968016751364062 0.07418797582169727
vn 0.00021200011540346026 -0.9177734995951882 -0.39710421616592323
vn 0.0002109999139274557 -0.917696625646845 -0.39728183793804506
vn -0.0004680001567236847 -0.3935191317815124 0.919316307860237
vn -0.00006499996689308779 0.1565849202454483 0.9876644969455625
vn 0.0005810001601300572 -0.3935191084582102 0.9193162533737067
vn -0.0005810001601300572 0.3935191084582102 -0.9193162533737067
vn 0.00006499996689308779 -0.1565849202454483 -0.9876644969455625
vn 0.0004680001567236847 0.3935191317815124 -0.919316307860237
vn -0.029618009470226758 0.6284372009399989 0.7772962485370174
vn 0.029618009470226758 -0.6284372009399989 -0.7772962485370174
vn -0.046245013811954096 0.8745892612127392 -0.482654144153852
vn 0.046245013811954096 -0.8745892612127392 0.482654144153852
vn 0.0017729997924402453 0.43017894964024356 0.9027418943187209
vn -0.0017729997924402453 -0.43017894964024356 -0.9027418943187209
vn -0.000012000002709882918 -0.08626501948067104 0.9962722249817063
vn 0.000012000002709882918 0.08626501948067104 -0.9962722249817063
vn -0.0002560000757883217 0.5476121621195091 0.8367322477129454
vn 0.0002560000757883217 -0.5476121621195091 -0.8367322477129454
vn -0.046332001582608535 0.2465260084208353 0.9680280330659021
vn 0.046332001582608535 -0.2465260084208353 -0.9680280330659021
vn -0.00012099997044660781 0.6682488367849193 -0.7439378182984174
vn 0.00012099997044660781 -0.6682488367849193 0.7439378182984174
vn -0.0033019998464685666 -0.22995798930775876 0.9731949547498416
vn 0.0033019998464685666 0.22995798930775876 -0.9731949547498416
vn 0.0033399994232005195 -0.22995796028752866 0.9731948319346196
vn -0.0033399994232005195 0.22995796028752866 -0.9731948319346196
vn -0.0033110008775577215 0.5528831465378274 -0.8332522208476975
vn 0.0033110008775577215 -0.5528831465378274 0.8332522208476975
vn 0.001026999977018308 0.41215099077709105 0.9111149796115249
vn -0.001026999977018308 -0.41215099077709105 -0.9111149796115249
vn -0.0010579997260685653 -0.5521278570461107 0.8337587841277891
vn 0.00015000002020132907 -0.7804701051102088 0.6251930841981966
vn 0.0001499999146230729 -0.7796675562289468 0.6261936435832033
vn -0.0001499999146230729 0.7796675562289468 -0.6261936435832033
vn -0.00015000002020132907 0.7804701051102088 -0.6251930841981966
vn 0.0010579997260685653 0.5521278570461107 -0.8337587841277891
vn 0.04589701452583369 0.8746042768013651 -0.4826601527559291
vn -0.04589701452583369 -0.8746042768013651 0.4826601527559291
vn 0.0461640019153214 0.24653001022840687 0.9680350401632908
vn -0.0461640019153214 -0.24653001022840687 -0.9680350401632908
vn 0.0004400000088860203 0.4031200081412104 -0.9151470184818518
vn -0.0004400000088860203 -0.4031200081412104 0.9151470184818518
vn 0.0034529996146228197 0.5179599421923067 0.8553979045320391
vn -0.0034529996146228197 -0.5179599421923067 -0.8553979045320391
vn 0.001213999668494977 0.1932249472363605 0.9811537320778587
vn -0.001213999668494977 -0.1932249472363605 -0.9811537320778587
vn 0.00006099999485105165 -0.41098096530950934 0.9116439230490512
vn -0.00006099999485105165 0.41098096530950934 -0.9116439230490512
vn -0.0012609999851567692 -0.9366699889744577 0.35021099587766613
vn 0.0012609999851567692 0.9366699889744577 -0.35021099587766613
vn 0.029281000286646354 0.9968140097583107 -0.07419200072630236
vn -0.029281000286646354 -0.9968140097583107 0.07419200072630236
vn 0.00312400098041163 0.5528841735127735 -0.8332522615012647
vn -0.00312400098041163 -0.5528841735127735 0.8332522615012647
vn 0.02929698938573197 0.6284417723162153 0.7773047183833292
vn -0.02929698938573197 -0.6284417723162153 -0.7773047183833292
vn -0.0005569997542241911 0.40312082212317824 -0.9151465961921109
vn 0.0005569997542241911 -0.40312082212317824 0.9151465961921109
vn -0.0013599993730805538 0.19322491092903654 0.9811535477172628
vn 0.0013599993730805538 -0.19322491092903654 -0.9811535477172628
vn -0.000030000001009380053 -0.004892000164596462 0.999988033645598
vn 0.000030000001009380053 0.004892000164596462 -0.999988033645598
vn 0.0013479995023773135 -0.20093992582173417 0.9796026383733853
vn -0.0013479995023773135 0.20093992582173417 -0.9796026383733853
vn 0.001244999409565395 -0.552127738156243 0.8337586045942442
vn -0.001244999409565395 0.552127738156243 -0.8337586045942442
vn 0.00020700003524848652 -0.9824691672973204 0.18642503174492298
vn -0.00020700003524848652 0.9824691672973204 -0.18642503174492298
vn -0.007022998616279787 0.9473378133488911 -0.3201589369200511
vn 0.007022998616279787 -0.9473378133488911 0.3201589369200511
vn -0.0013219995578619488 -0.20093993279635422 0.9796026723753696
vn 0.0013219995578619488 0.20093993279635422 -0.9796026723753696
vn 0.0016460006012857754 -0.9366693421663099 0.35021112793249837
vn -0.0016460006012857754 0.9366693421663099 -0.35021112793249837
vn 0.001366000577235084 -0.999203422236477 -0.03988301685348987
vn -0.001366000577235084 0.999203422236477 0.03988301685348987
vn -0.0001620000950166476 0.8279144855902025 -0.560854328953499
vn 0.0001620000950166476 -0.8279144855902025 0.560854328953499
vn -0.0009299999292246832 -0.9992039239580863 -0.039882996964804567
vn 0.0009299999292246832 0.9992039239580863 0.039882996964804567
vn 0.0002180000303790693 -0.9730751356014352 -0.2304880321193164
vn -0.0002180000303790693 0.9730751356014352 0.2304880321193164
vn -0.004369001174018492 0.9266182489967196 -0.3759781010311567
vn -0.01582500568676429 0.977950351429456 -0.2082370748306308
vn 0.01582500568676429 -0.977950351429456 0.2082370748306308
vn 0.004369001174018492 -0.9266182489967196 0.3759781010311567
vn 0.0019309991729281287 0.9809875798303569 -0.19406091688120414
vn -0.0019309991729281287 -0.9809875798303569 0.19406091688120414
vn 0.0018279998887031441 -0.9118029444853353 -0.41062397499936554
vn -0.0018279998887031441 0.9118029444853353 0.41062397499936554
vn -0.005950998610290236 0.8216808081166009 -0.569916866909894
vn 0.005950998610290236 -0.8216808081166009 0.569916866909894
vn -0.0014059995918186939 -0.9118037352906487 -0.4106238807901562
vn 0.0014059995918186939 0.9118037352906487 0.4106238807901562
vn 0.00019299995218204826 -0.8001448017549482 -0.5998068513909733
vn -0.00019299995218204826 0.8001448017549482 0.5998068513909733
vn 0.005630003106509895 0.8216834533865669 -0.5699163144670857
vn -0.005630003106509895 -0.8216834533865669 0.5699163144670857
vn -0.00010300003031698189 0.5907341738764272 -0.8068662374926397
vn 0.00010300003031698189 -0.5907341738764272 0.8068662374926397
vn -0.0015159999188265444 -0.6914079629789072 -0.722462961316083
vn 0.0015159999188265444 0.6914079629789072 0.722462961316083
vn -0.00010200003013341434 0.5889571739929934 -0.8081642387523594
vn 0.00010200003013341434 -0.5889571739929934 0.8081642387523594
vn 0.001862000099559286 -0.6914070369688438 -0.7224630386293773
vn -0.001862000099559286 0.6914070369688438 0.7224630386293773
vn 0.00011899994885508248 -0.4189428199428134 -0.9080126097457984
vn -0.00011899994885508248 0.4189428199428134 0.9080126097457984
vn -0.004773999842362528 0.30132999005008415 -0.9535079685151674
vn 0.004773999842362528 -0.30132999005008415 0.9535079685151674
vn 0.00012099998846591865 -0.4288179591237874 -0.9033909138860722
vn -0.00012099998846591865 0.4288179591237874 0.9033909138860722
vn 0.004702998592634937 0.30133190982689173 -0.9535077146642894
vn -0.004702998592634937 -0.30133190982689173 0.9535077146642894
vn 0.000009999995604797896 0.09958995622818247 -0.9950285626646446
vn -0.000009999995604797896 -0.09958995622818247 0.9950285626646446
vn -0.005875000258834892 -0.10789400475348605 -0.9941450437990491
vn 0.005875000258834892 0.10789400475348605 0.9941450437990491
vn 0.005983998332971993 -0.10789096994362966 -0.9941447230502074
vn -0.005983998332971993 0.10789096994362966 0.9941447230502074
usemtl material_0_0
f 1//1 2//1 3//1
f 2//1 1//1 4//1
f 3//2 2//2 1//2
f 4//2 1//2 2//2
f 5//1 3//1 2//1
f 2//2 3//2 5//2
f 6//3 1//4 3//5
f 3//6 1//7 6//8
f 4//1 1//1 7//1
f 7//2 1//2 4//2
f 8//9 2//10 4//11
f 4//12 2//13 8//14
f 5//1 9//1 3//1
f 3//2 9//2 5//2
f 5//1 2//1 10//1
f 10//2 2//2 5//2
f 6//3 7//15 1//4
f 1//7 7//16 6//8
f 6//3 3//5 9//17
f 9//18 3//6 6//8
f 4//1 7//1 11//1
f 11//2 7//2 4//2
f 2//10 8//9 12//19
f 12//20 8//14 2//13
f 8//9 4//11 13//21
f 13//22 4//12 8//14
f 5//1 14//1 9//1
f 9//2 14//2 5//2
f 2//10 12//19 10//23
f 10//24 12//20 2//13
f 5//1 10//1 15//1
f 15//2 10//2 5//2
f 6//3 16//25 7//15
f 7//16 16//26 6//8
f 6//3 9//17 17//27
f 17//28 9//18 6//8
f 11//1 7//1 16//1
f 16//2 7//2 11//2
f 11//29 13//21 4//11
f 4//12 13//22 11//30
f 18//2 12//2 8//2
f 8//1 12//1 18//1
f 19//31 8//9 13//21
f 13//22 8//14 19//32
f 5//1 20//1 14//1
f 14//2 20//2 5//2
f 9//17 14//33 17//27
f 17//28 14//34 9//18
f 12//19 21//35 10//23
f 10//24 21//36 12//20
f 15//1 10//1 22//1
f 22//2 10//2 15//2
f 15//37 23//38 5//39
f 5//40 23//41 15//42
f 6//3 13//21 16//25
f 16//26 13//22 6//8
f 24//43 6//3 17//27
f 17//28 6//8 24//44
f 16//25 13//21 11//29
f 11//30 13//22 16//26
f 12//2 18//2 25//2
f 25//1 18//1 12//1
f 18//2 8//2 26//2
f 26//1 8//1 18//1
f 26//2 8//2 19//2
f 19//1 8//1 26//1
f 27//45 19//31 13//21
f 13//22 19//32 27//46
f 28//1 20//1 5//1
f 5//2 20//2 28//2
f 14//33 20//47 17//27
f 17//28 20//48 14//34
f 12//19 29//49 21//35
f 21//36 29//50 12//20
f 10//23 21//35 22//51
f 22//52 21//36 10//24
f 15//1 22//1 30//1
f 30//2 22//2 15//2
f 31//53 23//38 15//37
f 15//42 23//41 31//54
f 23//38 28//55 5//39
f 5//40 28//56 23//41
f 6//3 27//45 13//21
f 13//22 27//46 6//8
f 25//57 6//3 24//43
f 24//44 6//8 25//58
f 24//43 17//27 32//59
f 32//60 17//28 24//44
f 25//57 18//4 6//3
f 6//8 18//7 25//58
f 25//2 33//2 12//2
f 12//1 33//1 25//1
f 26//61 6//3 18//4
f 18//7 6//8 26//62
f 26//2 19//2 27//2
f 27//1 19//1 26//1
f 28//1 34//1 20//1
f 20//2 34//2 28//2
f 20//47 35//63 17//27
f 17//28 35//64 20//48
f 12//2 33//2 29//2
f 29//1 33//1 12//1
f 29//49 36//65 21//35
f 21//36 36//66 29//50
f 21//35 37//67 22//51
f 22//52 37//68 21//36
f 22//51 37//67 30//69
f 30//70 37//68 22//52
f 30//69 31//53 15//37
f 15//42 31//54 30//70
f 31//53 38//71 23//38
f 23//41 38//72 31//54
f 23//38 39//73 28//55
f 28//56 39//74 23//41
f 6//3 26//61 27//45
f 27//46 26//62 6//8
f 24//2 33//2 25//2
f 25//1 33//1 24//1
f 32//59 17//27 35//63
f 35//64 17//28 32//60
f 32//2 33//2 24//2
f 24//1 33//1 32//1
f 40//1 34//1 28//1
f 28//2 34//2 40//2
f 34//75 35//63 20//47
f 20//48 35//64 34//76
f 29//2 33//2 38//2
f 38//1 33//1 29//1
f 29//2 38//2 36//2
f 36//1 38//1 29//1
f 21//35 36//65 37//67
f 37//68 36//66 21//36
f 37//67 31//53 30//69
f 30//70 31//54 37//68
f 41//77 38//71 31//53
f 31//54 38//72 41//78
f 38//71 33//39 23//38
f 23//41 33//40 38//72
f 42//79 39//73 23//38
f 23//41 39//74 42//80
f 39//73 40//81 28//55
f 28//56 40//82 39//74
f 35//2 33//2 32//2
f 32//1 33//1 35//1
f 40//1 43//1 34//1
f 34//2 43//2 40//2
f 35//63 34//75 44//83
f 44//84 34//76 35//64
f 36//2 38//2 41//2
f 41//1 38//1 36//1
f 36//65 41//77 37//67
f 37//68 41//78 36//66
f 37//67 41//77 31//53
f 31//54 41//78 37//68
f 33//39 42//79 23//38
f 23//41 42//80 33//40
f 42//79 45//85 39//73
f 39//74 45//86 42//80
f 39//73 46//87 40//81
f 40//82 46//88 39//74
f 35//2 42//2 33//2
f 33//1 42//1 35//1
f 47//1 43//1 40//1
f 40//2 43//2 47//2
f 48//89 34//75 43//90
f 43//91 34//76 48//92
f 44//83 34//75 49//93
f 49//94 34//76 44//84
f 44//2 42//2 35//2
f 35//1 42//1 44//1
f 44//2 45//2 42//2
f 42//1 45//1 44//1
f 45//85 46//87 39//73
f 39//74 46//88 45//86
f 46//87 47//95 40//81
f 40//82 47//96 46//88
f 47//1 50//1 43//1
f 43//2 50//2 47//2
f 49//93 34//75 48//89
f 48//92 34//76 49//94
f 48//89 43//90 50//97
f 50//98 43//91 48//92
f 49//2 45//2 44//2
f 44//1 45//1 49//1
f 51//99 46//87 45//85
f 45//86 46//88 51//100
f 52//101 47//95 46//87
f 46//88 47//96 52//102
f 53//1 50//1 47//1
f 47//2 50//2 53//2
f 49//93 48//89 54//103
f 54//104 48//92 49//94
f 48//89 50//97 55//105
f 55//106 50//98 48//92
f 49//2 51//2 45//2
f 45//1 51//1 49//1
f 51//99 52//101 46//87
f 46//88 52//102 51//100
f 52//101 53//107 47//95
f 47//96 53//108 52//102
f 53//1 56//1 50//1
f 50//2 56//2 53//2
f 54//103 48//89 55//105
f 55//106 48//92 54//104
f 54//2 51//2 49//2
f 49//1 51//1 54//1
f 55//105 50//97 56//109
f 56//110 50//98 55//106
f 57//111 52//101 51//99
f 51//100 52//102 57//112
f 58//113 53//107 52//101
f 52//102 53//108 58//114
f 59//1 56//1 53//1
f 53//2 56//2 59//2
f 54//103 55//105 60//109
f 60//110 55//106 54//104
f 54//2 57//2 51//2
f 51//1 57//1 54//1
f 56//109 61//115 55//105
f 55//106 61//116 56//110
f 58//113 52//101 57//111
f 57//112 52//102 58//114
f 59//117 53//107 58//113
f 58//114 53//108 59//118
f 59//1 61//1 56//1
f 56//2 61//2 59//2
f 55//105 62//119 60//109
f 60//110 62//120 55//106
f 60//2 57//2 54//2
f 54//1 57//1 60//1
f 55//105 61//115 63//121
f 63//122 61//116 55//106
f 58//113 57//111 64//117
f 64//118 57//112 58//114
f 65//123 59//117 58//113
f 58//114 59//118 65//124
f 61//1 59//1 65//1
f 65//2 59//2 61//2
f 55//105 63//121 62//119
f 62//120 63//122 55//106
f 62//2 64//2 60//2
f 60//1 64//1 62//1
f 60//2 64//2 57//2
f 57//1 64//1 60//1
f 61//115 65//123 63//121
f 63//122 65//124 61//116
f 66//125 58//113 64//117
f 64//118 58//114 66//126
f 63//121 65//123 58//113
f 58//114 65//124 63//122
f 62//119 63//121 66//125
f 66//126 63//122 62//120
f 64//2 62//2 66//2
f 66//1 62//1 64//1
f 63//121 58//113 66//125
f 66//126 58//114 63//122
