# SSTK version 0.8.0
# 31
mtllib original-31.mtl
o mesh31/mesh31-geometry#mesh31-geometry
v -0.509427 -0.757598 0.263806
v -0.508045 -0.777190 0.265689
v -0.488799 -0.777190 0.251563
v -0.515853 -0.738961 0.255051
v -0.500005 -0.756590 0.256469
v -0.526382 -0.726421 0.240706
v -0.490181 -0.757598 0.249680
v -0.538050 -0.722442 0.224808
v -0.514605 -0.728124 0.236577
v -0.507148 -0.737339 0.246737
v -0.496606 -0.738961 0.240926
v -0.549718 -0.726421 0.208910
v -0.522951 -0.723291 0.225206
v -0.507135 -0.726421 0.226580
v -0.560247 -0.738961 0.194564
v -0.531130 -0.722648 0.214061
v -0.518803 -0.722442 0.210682
v -0.566672 -0.757598 0.185810
v -0.547393 -0.733817 0.191902
v -0.539503 -0.726013 0.202653
v -0.530471 -0.726421 0.194784
v -0.568054 -0.777190 0.183927
v -0.553614 -0.745471 0.183427
v -0.541000 -0.738961 0.180439
v -0.558519 -0.773301 0.176744
v -0.557357 -0.759307 0.178327
v -0.547425 -0.757598 0.171684
v -0.548807 -0.777190 0.169801
vn 0.5712559544706166 0.2578639794481125 0.7792129378963418
vn 0.5875229438348656 0.11839198868214061 0.8004999234750128
vn 0.5865761053209223 0.12498402244113303 0.8001921436761127
vn -0.5865761053209223 -0.12498402244113303 -0.8001921436761127
vn -0.5875229438348656 -0.11839198868214061 -0.8004999234750128
vn -0.5712559544706166 -0.2578639794481125 -0.7792129378963418
vn -0.8061699900212279 0 0.5916839926761355
vn 0.8061699900212279 0 -0.5916839926761355
vn 0.5432778799874849 0.395205912697245 0.7407168363723358
vn -0.5432778799874849 -0.395205912697245 -0.7407168363723358
vn 0.41968007704550514 0.6785611245712805 0.6028461106714036
vn -0.41968007704550514 -0.6785611245712805 -0.6028461106714036
vn 0.560975922190401 0.31752395595816 0.7645158939585948
vn -0.560975922190401 -0.31752395595816 -0.7645158939585948
vn 0.19075487459683288 0.927790390066159 0.32065178920198
vn 0.2967468847117804 0.8651406638868613 0.40431784291971845
vn -0.2967468847117804 -0.8651406638868613 -0.40431784291971845
vn -0.19075487459683288 -0.927790390066159 -0.32065178920198
vn 0.43300206967328614 0.6815051096592922 0.5899660949299772
vn -0.43300206967328614 -0.6815051096592922 -0.5899660949299772
vn 0.44928416324720577 0.6785612465549343 0.58111821114905
vn -0.44928416324720577 -0.6785612465549343 -0.58111821114905
vn -0.019963007359793224 0.9992223683848773 0.03400201253557549
vn 0.11285397691143291 0.981641799167888 0.15376396854174063
vn -0.11285397691143291 -0.981641799167888 -0.15376396854174063
vn 0.019963007359793224 -0.9992223683848773 -0.03400201253557549
vn -0.2572579678055822 0.9228128845150502 -0.2867659641128188
vn -0.0760529853705252 0.9917048092366729 -0.10362198006738124
vn 0.0760529853705252 -0.9917048092366729 0.10362198006738124
vn 0.2572579678055822 -0.9228128845150502 0.2867659641128188
vn 0.24870789123583498 0.9277905942614895 0.278116878374788
vn -0.24870789123583498 -0.9277905942614895 -0.278116878374788
vn -0.47189905179304725 0.673239073891022 -0.569263062479186
vn -0.36270783040873933 0.7900756305844238 -0.49418976893174354
vn 0.36270783040873933 -0.7900756305844238 0.49418976893174354
vn 0.47189905179304725 -0.673239073891022 0.569263062479186
vn -0.22026889546271985 0.9281225595228833 -0.30011685756772427
vn 0.22026889546271985 -0.9281225595228833 0.30011685756772427
vn 0.03842301431808919 0.9992223723537914 -0.008850003297896595
vn -0.03842301431808919 -0.9992223723537914 0.008850003297896595
vn -0.500263195565428 0.5339902087501632 -0.6816092664581546
vn -0.594076769979757 0.2985188844166449 -0.7469667107823887
vn 0.594076769979757 -0.2985188844166449 0.7469667107823887
vn 0.500263195565428 -0.5339902087501632 0.6816092664581546
vn -0.19644194323447453 0.9228127333362273 -0.3314019042353024
vn 0.19644194323447453 -0.9228127333362273 0.3314019042353024
vn -0.588981097150673 0.09547601574848387 -0.802487132367856
vn -0.6115982594005885 0.04012501701844794 -0.7901503351308785
vn 0.6115982594005885 -0.04012501701844794 0.7901503351308785
vn 0.588981097150673 -0.09547601574848387 0.802487132367856
vn -0.5679591306504936 0.2803320644861941 -0.7738451780114959
vn 0.5679591306504936 -0.2803320644861941 0.7738451780114959
vn -0.4015897769350124 0.673238626046343 -0.6208666551366078
vn 0.4015897769350124 -0.673238626046343 0.6208666551366078
vn -0.5704309216767024 0.04012499449061812 -0.8203648873593966
vn 0.5704309216767024 -0.04012499449061812 0.8203648873593966
vn -0.5344871070754164 0.2985190598032249 -0.7907021584037512
vn 0.5344871070754164 -0.2985190598032249 0.7907021584037512
usemtl material_0_0
f 1//1 2//2 3//3
f 3//4 2//5 1//6
f 4//7 2//7 1//7
f 1//8 2//8 4//8
f 5//9 1//1 3//3
f 3//4 1//6 5//10
f 6//7 2//7 4//7
f 4//8 2//8 6//8
f 4//11 1//1 5//9
f 5//10 1//6 4//12
f 5//9 3//3 7//13
f 7//14 3//4 5//10
f 8//7 2//7 6//7
f 6//8 2//8 8//8
f 6//15 4//11 9//16
f 9//17 4//12 6//18
f 10//19 4//11 5//9
f 5//10 4//12 10//20
f 3//8 11//8 7//8
f 7//7 11//7 3//7
f 11//21 5//9 7//13
f 7//14 5//10 11//22
f 12//7 2//7 8//7
f 8//8 2//8 12//8
f 8//23 6//15 13//24
f 13//25 6//18 8//26
f 4//11 10//19 9//16
f 9//17 10//20 4//12
f 6//15 9//16 13//24
f 13//25 9//17 6//18
f 10//19 5//9 11//21
f 11//22 5//10 10//20
f 3//8 14//8 11//8
f 11//7 14//7 3//7
f 15//7 2//7 12//7
f 12//8 2//8 15//8
f 12//27 8//23 16//28
f 16//29 8//26 12//30
f 8//23 13//24 16//28
f 16//29 13//25 8//26
f 9//16 10//19 11//21
f 11//22 10//20 9//17
f 13//24 9//16 14//31
f 14//32 9//17 13//25
f 3//8 17//8 14//8
f 14//7 17//7 3//7
f 9//16 11//21 14//31
f 14//32 11//22 9//17
f 18//7 2//7 15//7
f 15//8 2//8 18//8
f 15//33 12//27 19//34
f 19//35 12//30 15//36
f 12//27 16//28 20//37
f 20//38 16//29 12//30
f 16//28 13//24 17//39
f 17//40 13//25 16//29
f 13//24 14//31 17//39
f 17//40 14//32 13//25
f 3//8 21//8 17//8
f 17//7 21//7 3//7
f 2//7 18//7 22//7
f 22//8 18//8 2//8
f 15//33 23//41 18//42
f 18//43 23//44 15//36
f 12//27 20//37 19//34
f 19//35 20//38 12//30
f 15//33 19//34 23//41
f 23//44 19//35 15//36
f 20//37 16//28 21//45
f 21//46 16//29 20//38
f 16//28 17//39 21//45
f 21//46 17//40 16//29
f 3//8 24//8 21//8
f 21//7 24//7 3//7
f 18//42 25//47 22//48
f 22//49 25//50 18//43
f 23//41 26//51 18//42
f 18//43 26//52 23//44
f 19//34 20//37 21//45
f 21//46 20//38 19//35
f 23//41 19//34 24//53
f 24//54 19//35 23//44
f 3//8 27//8 24//8
f 24//7 27//7 3//7
f 19//34 21//45 24//53
f 24//54 21//46 19//35
f 18//42 26//51 25//47
f 25//50 26//52 18//43
f 25//47 28//55 22//48
f 22//49 28//56 25//50
f 23//41 27//57 26//51
f 26//52 27//58 23//44
f 24//53 27//57 23//41
f 23//44 27//58 24//54
f 27//8 3//8 28//8
f 28//7 3//7 27//7
f 27//57 25//47 26//51
f 26//52 25//50 27//58
f 27//57 28//55 25//47
f 25//50 28//56 27//58
