# SSTK version 0.8.0
# 60
mtllib original-60.mtl
o mesh60/mesh60-geometry#mesh60-geometry
v 0.525730 0.183274 -0.046754
v 0.525730 0.183274 0.244002
v 0.532357 0.183274 0.099740
v 0.524824 0.183274 -0.052688
v 0.532357 0.171177 0.099740
v 0.525730 0.171177 -0.046754
v 0.521952 0.177225 -0.058914
v 0.523973 0.183274 0.252531
v 0.525730 0.171177 0.244002
v 0.524824 0.171177 -0.052688
v 0.521952 0.183274 -0.058914
v 0.524894 0.177225 0.249880
v 0.521952 0.171177 -0.058914
v 0.517579 0.183274 -0.063929
v 0.518753 0.183274 0.260170
v 0.519973 0.177225 0.258928
v 0.523973 0.171177 0.252531
v 0.517579 0.171177 -0.063929
v 0.512832 0.171177 -0.066767
v 0.518753 0.171177 0.260170
v 0.512832 0.183274 -0.066767
v 0.505257 0.183274 0.265762
v 0.512832 0.177225 0.263670
v 0.505257 0.171177 0.265762
v 0.467233 0.171177 -0.071565
v 0.467233 0.183274 -0.071565
v 0.458527 0.177225 -0.071964
v 0.475565 0.177225 0.271756
v 0.478008 0.171177 0.271400
v 0.478008 0.183274 0.271400
v 0.444434 0.171177 -0.072259
v 0.451555 0.171177 0.273858
v 0.444434 0.183274 -0.072259
v 0.451555 0.183274 0.273858
v 0.441894 0.177225 -0.072266
v 0.445066 0.171177 0.273976
v 0.438952 0.171177 -0.071786
v 0.444474 0.177225 0.273977
v 0.445066 0.183274 0.273976
v 0.438952 0.183274 -0.071786
v 0.441831 0.171177 0.273590
v 0.436265 0.171177 -0.070439
v 0.441831 0.183274 0.273590
v 0.436265 0.183274 -0.070439
v 0.438553 0.171177 0.271943
v 0.433768 0.171177 -0.068194
v 0.438553 0.183274 0.271943
v 0.433768 0.183274 -0.068194
v 0.435595 0.171177 0.268971
v 0.429789 0.177225 -0.060332
v 0.435595 0.183274 0.268971
v 0.434830 0.177225 0.267853
v 0.433333 0.171177 0.264936
v 0.430155 0.171177 -0.061590
v 0.430155 0.183274 -0.061590
v 0.433333 0.183274 0.264936
v 0.428997 0.171177 -0.054043
v 0.428997 0.183274 -0.054043
v 0.431576 0.183274 0.255753
v 0.431576 0.171177 0.255753
v 0.426424 0.177225 0.100855
vn 0 1 0
vn 0 -1 0
vn 0.9913487875326636 0.0202589956580621 0.12968097220658248
vn 0.9999999390995055 0 0.00034899997874572743
vn -0.9999999390995055 0 -0.00034899997874572743
vn -0.9913487875326636 -0.0202589956580621 -0.12968097220658248
vn 0.9951709423348214 0 -0.09815699431229312
vn 0.9836279266833281 -0.051816996137716675 -0.17260098713484073
vn -0.9836279266833281 0.051816996137716675 0.17260098713484073
vn -0.9951709423348214 0 0.09815699431229312
vn 0.8370453234624167 0.0024180009343968663 -0.5471282114287106
vn 0.945477734866807 -0.15307995707294167 -0.2874689193872582
vn -0.945477734866807 0.15307995707294167 0.2874689193872582
vn -0.8370453234624167 -0.0024180009343968663 0.5471282114287106
vn 0.9913487875326636 -0.020258995658062155 0.12968097220658248
vn -0.9913487875326636 0.020258995658062155 -0.12968097220658248
vn 0.9517448487825075 0.03226199487406955 -0.305189951510051
vn -0.9517448487825075 -0.03226199487406955 0.305189951510051
vn 0.8393988642452918 0 -0.5435159120979939
vn -0.8393988642452918 0 0.5435159120979939
vn 0.907224662288404 0.012186995463428251 0.4204698434813914
vn 0.9528225635535315 0 0.30352786096712225
vn -0.9528225635535315 0 -0.30352786096712225
vn -0.907224662288404 -0.012186995463428251 -0.4204698434813914
vn 0.6576320739855853 -0.03387900381148961 -0.7525770846671845
vn -0.6576320739855853 0.03387900381148961 0.7525770846671845
vn 0.5627229166638371 0.368601945412083 0.7399158904225344
vn -0.5627229166638371 -0.368601945412083 -0.7399158904225344
vn 0.7692050430643301 0 0.6390020357748494
vn -0.7692050430643301 0 -0.6390020357748494
vn 0.907224662288404 -0.012186995463428439 0.4204698434813914
vn -0.907224662288404 0.012186995463428439 -0.4204698434813914
vn 0.635781171150407 0.16557104457123464 -0.7539022029482385
vn -0.635781171150407 -0.16557104457123464 0.7539022029482385
vn 0.46661500088213564 0.05790500010946959 -0.8825630016684853
vn -0.46661500088213564 -0.05790500010946959 0.8825630016684853
vn 0.5627229166638371 -0.36860194541208335 0.7399158904225341
vn -0.5627229166638371 0.36860194541208335 -0.7399158904225341
vn 0.20654293072365376 -0.0059129980167273635 -0.9784196718292912
vn -0.20654293072365376 0.0059129980167273635 0.9784196718292912
vn 0.2508660160723589 0.3362300215414173 0.9077530581574709
vn -0.2508660160723589 -0.3362300215414173 -0.9077530581574709
vn 0.38719494578709707 0 0.9219978709069382
vn -0.38719494578709707 0 -0.9219978709069382
vn 0.2508660160723589 -0.33623002154141773 0.9077530581574706
vn -0.2508660160723589 0.33623002154141773 -0.9077530581574706
vn 0.07455099386124776 0.01311799891982488 -0.9971309178932521
vn -0.07455099386124776 -0.01311799891982488 0.9971309178932521
vn 0.04838102168471745 -0.0038720017354584497 -0.998821447678865
vn -0.04838102168471745 0.0038720017354584497 0.998821447678865
vn 0.1448979423151988 0 0.9894466060949532
vn -0.1448979423151988 0 -0.9894466060949532
vn 0.06750097009339807 -0.03131798612442817 -0.9972275581739407
vn -0.06750097009339807 0.03131798612442817 0.9972275581739407
vn -0.012471999489464949 -0.017676999276400665 -0.9997659590750813
vn 0.012471999489464949 0.017676999276400665 0.9997659590750813
vn 0.14780700156121146 -0.0015490000163615326 0.9890150104464711
vn -0.14780700156121146 0.0015490000163615326 -0.9890150104464711
vn 0.14780700156121146 0.0015490000163610933 0.9890150104464711
vn -0.14780700156121146 -0.0015490000163610933 -0.9890150104464711
vn -0.012471999489464949 0.01767699927640111 -0.9997659590750813
vn 0.012471999489464949 -0.01767699927640111 0.9997659590750813
vn -0.38687881781842065 0 -0.9221305657678966
vn 0.38687881781842065 0 0.9221305657678966
vn 0.06064701031990842 -0.014758002511273797 0.9980501698317246
vn -0.06064701031990842 0.014758002511273797 -0.9980501698317246
vn 0.06064701031990842 0.014758002511273353 0.9980501698317246
vn -0.06064701031990842 -0.014758002511273353 -0.9980501698317246
vn -0.2705729219807151 0.05526798406356221 -0.9611117228649163
vn 0.2705729219807151 -0.05526798406356221 0.9611117228649163
vn -0.20735303801144406 0 0.9782661793333268
vn 0.20735303801144406 0 -0.9782661793333268
vn -0.2705729219807151 -0.05526798406356178 -0.9611117228649163
vn 0.2705729219807151 0.05526798406356178 0.9611117228649163
vn -0.05025902032246514 -0.005059002045630878 0.9987234038383842
vn 0.05025902032246514 0.005059002045630878 -0.9987234038383842
vn -0.5403920483626588 0.26130802338589343 -0.7998090715793159
vn 0.5403920483626588 -0.26130802338589343 0.7998090715793159
vn -0.05025902032246514 0.005059002045630434 0.9987234038383842
vn 0.05025902032246514 -0.005059002045630434 -0.9987234038383842
vn -0.5403920483626588 -0.2613080233858931 -0.7998090715793161
vn 0.5403920483626588 0.2613080233858931 0.7998090715793161
vn -0.28659800735095237 0.06411700164453678 0.9559030245179568
vn 0.28659800735095237 -0.06411700164453678 -0.9559030245179568
vn -0.7297062389551169 0.2861100936917725 -0.621023203364949
vn 0.7297062389551169 -0.2861100936917725 0.621023203364949
vn -0.28659800735095237 -0.0641170016445372 0.9559030245179568
vn 0.28659800735095237 0.0641170016445372 -0.9559030245179568
vn -0.7297062389551169 -0.28611009369177226 -0.6210232033649492
vn 0.7297062389551169 0.28611009369177226 0.6210232033649492
vn -0.5648050636984363 0.13919601569845771 0.8134000917348608
vn 0.5648050636984363 -0.13919601569845771 -0.8134000917348608
vn -0.912970256738228 0 -0.40802611474185596
vn 0.912970256738228 0 0.40802611474185596
vn -0.5648050636984363 -0.1391960156984581 0.8134000917348608
vn 0.5648050636984363 0.1391960156984581 -0.8134000917348608
vn -0.8048381043979719 -0.007957001032126675 0.5934410769770274
vn 0.8048381043979719 0.007957001032126675 -0.5934410769770274
vn -0.7978959652815525 0.010427999546251544 0.6027049737748004
vn 0.7978959652815525 -0.010427999546251544 -0.6027049737748004
vn -0.9471678322054446 0.009421998330855526 -0.3205999432044427
vn 0.9471678322054446 -0.009421998330855526 0.3205999432044427
vn -0.7978959652815525 -0.010427999546251811 0.6027049737748004
vn 0.7978959652815525 0.010427999546251811 -0.6027049737748004
vn -0.9471678322054446 -0.009421998330855384 -0.3205999432044427
vn 0.9471678322054446 0.009421998330855384 0.3205999432044427
vn -0.9440420662311615 0.023581001654372317 0.32898102308032245
vn 0.9440420662311615 -0.023581001654372317 -0.32898102308032245
vn -0.9231265710776597 -0.3782342339886295 -0.0691100427538355
vn 0.9231265710776597 0.3782342339886295 0.0691100427538355
vn -0.9370003176159885 -0.06638302250192339 0.34296311625457016
vn 0.9370003176159885 0.06638302250192339 -0.34296311625457016
vn -0.9231265710776597 0.3782342339886295 -0.06911004275383534
vn 0.9231265710776597 -0.3782342339886295 0.06911004275383534
vn -0.9450649125989833 0.2942969727829757 0.14227298684238143
vn 0.9450649125989833 -0.2942969727829757 -0.14227298684238143
vn -0.8760134237409357 -0.47706523076366386 0.07077603423543757
vn 0.8760134237409357 0.47706523076366386 -0.07077603423543757
vn -0.9999653632104851 0 0.008323003023106677
vn 0.9999653632104851 0 -0.008323003023106677
usemtl material_0_0
f 1//1 2//1 3//1
f 2//1 1//1 4//1
f 3//2 2//2 1//2
f 4//2 1//2 2//2
f 2//3 5//4 3//4
f 3//5 5//5 2//6
f 3//4 6//7 1//8
f 1//9 6//10 3//5
f 1//8 7//11 4//12
f 4//13 7//14 1//9
f 2//1 4//1 8//1
f 8//2 4//2 2//2
f 5//4 2//3 9//15
f 9//16 2//6 5//5
f 6//7 3//4 5//4
f 5//5 3//5 6//10
f 6//7 10//17 1//8
f 1//9 10//18 6//10
f 1//8 10//17 7//11
f 7//14 10//18 1//9
f 4//12 7//11 11//19
f 11//20 7//14 4//13
f 8//1 4//1 11//1
f 11//2 4//2 8//2
f 8//21 12//22 2//3
f 2//6 12//23 8//24
f 12//22 9//15 2//3
f 2//6 9//16 12//23
f 9//2 6//2 5//2
f 5//1 6//1 9//1
f 6//2 9//2 10//2
f 10//1 9//1 6//1
f 10//17 13//19 7//11
f 7//14 13//20 10//18
f 11//19 7//11 14//25
f 14//26 7//14 11//20
f 8//1 11//1 15//27
f 15//28 11//2 8//2
f 16//29 12//22 8//21
f 8//24 12//23 16//30
f 17//31 9//15 12//22
f 12//23 9//16 17//32
f 10//2 9//2 17//2
f 17//1 9//1 10//1
f 10//2 17//2 13//2
f 13//1 17//1 10//1
f 13//19 18//33 7//11
f 7//14 18//34 13//20
f 14//25 7//11 19//35
f 19//36 7//14 14//26
f 15//27 11//1 14//1
f 14//2 11//2 15//28
f 15//27 16//29 8//21
f 8//24 16//30 15//28
f 16//29 17//31 12//22
f 12//23 17//32 16//30
f 13//2 17//2 20//37
f 20//38 17//1 13//1
f 13//2 20//37 18//2
f 18//1 20//38 13//1
f 7//11 18//33 19//35
f 19//36 18//34 7//14
f 21//39 14//25 19//35
f 19//36 14//26 21//40
f 15//27 14//1 22//41
f 22//42 14//2 15//28
f 15//27 23//43 16//29
f 16//30 23//44 15//28
f 20//37 17//31 16//29
f 16//30 17//32 20//38
f 18//2 20//37 24//45
f 24//46 20//38 18//1
f 18//2 24//45 19//2
f 19//1 24//46 18//1
f 22//41 14//1 21//1
f 21//2 14//2 22//42
f 21//39 19//35 25//47
f 25//48 19//36 21//40
f 15//27 22//41 23//43
f 23//44 22//42 15//28
f 23//43 20//37 16//29
f 16//30 20//38 23//44
f 23//43 24//45 20//37
f 20//38 24//46 23//44
f 19//2 24//45 25//2
f 25//1 24//46 19//1
f 22//41 21//1 26//1
f 26//2 21//2 22//42
f 21//39 25//47 27//49
f 27//50 25//48 21//40
f 22//41 28//51 23//43
f 23//44 28//52 22//42
f 28//51 24//45 23//43
f 23//44 24//46 28//52
f 25//2 24//45 29//2
f 29//1 24//46 25//1
f 21//39 27//49 26//53
f 26//54 27//50 21//40
f 22//41 26//1 30//1
f 30//2 26//2 22//42
f 27//49 25//47 31//55
f 31//56 25//48 27//50
f 30//57 28//51 22//41
f 22//42 28//52 30//58
f 28//51 29//59 24//45
f 24//46 29//60 28//52
f 25//2 29//2 32//2
f 32//1 29//1 25//1
f 33//61 26//53 27//49
f 27//50 26//54 33//62
f 30//1 26//1 34//1
f 34//2 26//2 30//2
f 25//2 32//2 31//2
f 31//1 32//1 25//1
f 27//49 31//55 35//63
f 35//64 31//56 27//50
f 34//65 28//51 30//57
f 30//58 28//52 34//66
f 28//51 32//67 29//59
f 29//60 32//68 28//52
f 34//1 26//1 33//1
f 33//2 26//2 34//2
f 33//61 27//49 35//63
f 35//64 27//50 33//62
f 31//2 32//2 36//2
f 36//1 32//1 31//1
f 35//63 31//55 37//69
f 37//70 31//56 35//64
f 34//65 38//71 28//51
f 28//52 38//72 34//66
f 38//71 32//67 28//51
f 28//52 32//68 38//72
f 34//1 33//1 39//1
f 39//2 33//2 34//2
f 33//61 35//63 40//73
f 40//74 35//64 33//62
f 38//71 36//75 32//67
f 32//68 36//76 38//72
f 31//2 36//2 41//2
f 41//1 36//1 31//1
f 31//2 41//2 37//2
f 37//1 41//1 31//1
f 35//63 37//69 42//77
f 42//78 37//70 35//64
f 39//79 38//71 34//65
f 34//66 38//72 39//80
f 39//1 33//1 43//1
f 43//2 33//2 39//2
f 44//81 40//73 35//63
f 35//64 40//74 44//82
f 43//1 33//1 40//1
f 40//2 33//2 43//2
f 38//71 41//83 36//75
f 36//76 41//84 38//72
f 37//2 41//2 45//2
f 45//1 41//1 37//1
f 37//2 45//2 42//2
f 42//1 45//1 37//1
f 35//63 42//77 46//85
f 46//86 42//78 35//64
f 43//87 38//71 39//79
f 39//80 38//72 43//88
f 47//1 40//1 44//1
f 44//2 40//2 47//2
f 44//81 35//63 48//89
f 48//90 35//64 44//82
f 43//1 40//1 47//1
f 47//2 40//2 43//2
f 38//71 45//91 41//83
f 41//84 45//92 38//72
f 42//2 45//2 49//2
f 49//1 45//1 42//1
f 42//2 49//2 46//2
f 46//1 49//1 42//1
f 35//63 46//85 50//93
f 50//94 46//86 35//64
f 47//95 38//71 43//87
f 43//88 38//72 47//96
f 47//1 44//1 51//1
f 51//2 44//2 47//2
f 48//89 35//63 50//93
f 50//94 35//64 48//90
f 51//1 44//1 48//1
f 48//2 44//2 51//2
f 52//97 45//91 38//71
f 38//72 45//92 52//98
f 45//91 52//97 49//99
f 49//100 52//98 45//92
f 46//2 49//2 53//2
f 53//1 49//1 46//1
f 50//93 46//85 54//101
f 54//102 46//86 50//94
f 47//95 52//97 38//71
f 38//72 52//98 47//96
f 47//95 51//103 52//97
f 52//98 51//104 47//96
f 50//93 55//105 48//89
f 48//90 55//106 50//94
f 51//1 48//1 56//1
f 56//2 48//2 51//2
f 49//99 52//97 53//107
f 53//108 52//98 49//100
f 46//2 53//2 54//2
f 54//1 53//1 46//1
f 57//109 50//93 54//101
f 54//102 50//94 57//110
f 51//103 56//111 52//97
f 52//98 56//112 51//104
f 58//113 55//105 50//93
f 50//94 55//106 58//114
f 56//1 48//1 55//1
f 55//2 48//2 56//2
f 52//97 59//115 53//107
f 53//108 59//116 52//98
f 54//2 53//2 60//117
f 60//118 53//1 54//1
f 58//113 50//93 57//109
f 57//110 50//94 58//114
f 54//2 60//117 57//109
f 57//110 60//118 54//1
f 52//97 56//111 59//115
f 59//116 56//112 52//98
f 59//115 55//1 58//113
f 58//114 55//2 59//116
f 56//1 55//1 59//115
f 59//116 55//2 56//2
f 53//107 59//115 60//117
f 60//118 59//116 53//108
f 61//119 58//113 57//109
f 57//110 58//114 61//120
f 60//117 61//119 57//109
f 57//110 61//120 60//118
f 59//115 58//113 61//119
f 61//120 58//114 59//116
f 59//115 61//119 60//117
f 60//118 61//120 59//116
