# SSTK version 0.8.0
# 12
mtllib original-12.mtl
o mesh12/mesh12-geometry#mesh12-geometry
v 0.042476 -0.282837 0.292249
v 0.042476 -0.203768 -0.108956
v 0.042476 -0.283081 -0.174424
v 0.042476 -0.203590 0.233054
v 0.049378 -0.283081 -0.174424
v 0.049378 -0.197615 0.228591
v -0.031241 -0.203590 0.233054
v 0.049378 -0.197788 -0.104020
v 0.049378 -0.282837 0.292249
v -0.031241 -0.203768 -0.108956
v -0.038208 -0.197615 0.228591
v -0.031241 -0.282837 0.292249
v -0.038208 -0.197788 -0.104020
v -0.038208 -0.282837 0.292249
v -0.031241 -0.283081 -0.174424
v -0.038208 -0.283081 -0.174424
vn -1 0 0
vn 1 0 0
vn 0 0.6365858631875276 -0.7712058342555447
vn 0 -0.6365858631875276 0.7712058342555447
vn 0 -0.9999998637580277 0.0005219999288814685
vn 0 0.9999998637580277 -0.0005219999288814685
vn 0 0.5984420637580207 0.8011660853562395
vn 0 0.8941087646790981 0.44784988213018134
vn 0 -0.5984420637580207 -0.8011660853562395
vn 0 -0.8941087646790981 -0.44784988213018134
vn 0 0.9044842137726082 -0.4265071008038988
vn 0 -0.9044842137726082 0.4265071008038988
usemtl material_0_0
f 1//1 2//1 3//1
f 2//1 1//1 4//1
f 3//2 2//2 1//2
f 4//2 1//2 2//2
f 2//3 5//3 3//3
f 3//4 5//4 2//4
f 5//5 1//5 3//5
f 3//6 1//6 5//6
f 1//7 6//8 4//7
f 4//9 6//10 1//9
f 7//5 2//5 4//5
f 4//6 2//6 7//6
f 5//3 2//3 8//11
f 8//12 2//4 5//4
f 1//5 5//5 9//5
f 9//6 5//6 1//6
f 6//8 1//7 9//7
f 9//9 1//9 6//10
f 4//7 6//8 7//7
f 7//9 6//10 4//9
f 2//5 7//5 10//5
f 10//6 7//6 2//6
f 8//11 2//3 10//3
f 10//4 2//4 8//12
f 8//2 9//2 5//2
f 5//1 9//1 8//1
f 9//2 8//2 6//2
f 6//1 8//1 9//1
f 11//8 7//7 6//8
f 6//10 7//9 11//10
f 12//2 10//2 7//2
f 7//1 10//1 12//1
f 8//11 10//3 13//11
f 13//12 10//4 8//12
f 8//11 11//8 6//8
f 6//10 11//10 8//12
f 14//7 7//7 11//8
f 11//10 7//9 14//9
f 10//2 12//2 15//2
f 15//1 12//1 10//1
f 7//7 14//7 12//7
f 12//9 14//9 7//9
f 10//3 16//3 13//11
f 13//12 16//4 10//4
f 11//8 8//11 13//11
f 13//12 8//12 11//10
f 13//1 14//1 11//1
f 11//2 14//2 13//2
f 14//5 15//5 12//5
f 12//6 15//6 14//6
f 16//3 10//3 15//3
f 15//4 10//4 16//4
f 14//1 13//1 16//1
f 16//2 13//2 14//2
f 15//5 14//5 16//5
f 16//6 14//6 15//6
