# SSTK version 0.8.0
# 29
mtllib original-29.mtl
o mesh29/mesh29-geometry#mesh29-geometry
v -0.517138 -0.719787 0.209450
v -0.505478 -0.723546 0.225336
v -0.494064 -0.724751 0.220440
v -0.505478 -0.823100 0.225336
v -0.494739 -0.735467 0.239968
v -0.485509 -0.723860 0.211649
v -0.517138 -0.826859 0.209450
v -0.494739 -0.811178 0.239968
v -0.482501 -0.740196 0.236195
v -0.475231 -0.735466 0.225652
v -0.497631 -0.719787 0.195133
v -0.528798 -0.723546 0.193563
v -0.497403 -0.824131 0.215891
v -0.487784 -0.815379 0.228997
v -0.487686 -0.793029 0.249578
v -0.487686 -0.753617 0.249578
v -0.481642 -0.725565 0.207935
v -0.494985 -0.720439 0.193191
v -0.517366 -0.722514 0.188692
v -0.528798 -0.823100 0.193563
v -0.497631 -0.826859 0.195133
v -0.480376 -0.801296 0.239090
v -0.476405 -0.762159 0.244501
v -0.468365 -0.752835 0.235008
v -0.471719 -0.736771 0.221455
v -0.497186 -0.722042 0.186757
v -0.509753 -0.723860 0.178616
v -0.539536 -0.735467 0.178932
v -0.520705 -0.821895 0.184142
v -0.526985 -0.731267 0.175585
v -0.509753 -0.822785 0.178616
v -0.485509 -0.822785 0.211649
v -0.475231 -0.811180 0.225652
v -0.476405 -0.784487 0.244501
v -0.485462 -0.773323 0.252609
v -0.471906 -0.741531 0.215688
v -0.492742 -0.722298 0.191544
v -0.539536 -0.811178 0.178932
v -0.494985 -0.826206 0.193191
v -0.468365 -0.793810 0.235008
v -0.465954 -0.773323 0.238293
v -0.464067 -0.758380 0.231880
v -0.480536 -0.731784 0.203928
v -0.466139 -0.756117 0.223545
v -0.491243 -0.725081 0.190444
v -0.504908 -0.725466 0.176234
v -0.520031 -0.735466 0.164613
v -0.546590 -0.753617 0.169321
v -0.534393 -0.745349 0.165493
v -0.532268 -0.806450 0.168387
v -0.520031 -0.811180 0.164613
v -0.505051 -0.821080 0.176041
v -0.481784 -0.821179 0.207741
v -0.469778 -0.806266 0.224100
v -0.480536 -0.814861 0.203928
v -0.466139 -0.790528 0.223545
v -0.500897 -0.731785 0.176187
v -0.546590 -0.793029 0.169321
v -0.514974 -0.809875 0.162521
v -0.492742 -0.824347 0.191544
v -0.463365 -0.783534 0.232837
v -0.464114 -0.773323 0.226303
v -0.490717 -0.818282 0.190058
v -0.471906 -0.805115 0.215688
v -0.490717 -0.728363 0.190058
v -0.509528 -0.741531 0.164428
v -0.516915 -0.740380 0.159876
v -0.526897 -0.752835 0.155258
v -0.548814 -0.773323 0.166291
v -0.538364 -0.762159 0.160081
v -0.538364 -0.784487 0.160081
v -0.526897 -0.793810 0.155258
v -0.500897 -0.814861 0.176187
v -0.491243 -0.821564 0.190444
v -0.509528 -0.805115 0.164428
v -0.522625 -0.788266 0.152095
v -0.515294 -0.756117 0.156571
v -0.523327 -0.763111 0.151139
v -0.529308 -0.773323 0.151973
v -0.515294 -0.790528 0.156571
v -0.517319 -0.773323 0.153812
vn 0.02920600238407147 0.9985110815079637 0.04607200376083501
vn 0.22633705583803762 0.9268312286520729 0.2995920739102728
vn 0.27922412279707215 0.8827643882217665 0.3778371661650768
vn -0.27922412279707215 -0.8827643882217665 -0.3778371661650768
vn -0.22633705583803762 -0.9268312286520729 -0.2995920739102728
vn -0.02920600238407147 -0.9985110815079637 -0.04607200376083501
vn -0.8061699900212279 0 0.5916839926761355
vn 0.8061699900212279 0 -0.5916839926761355
vn 0.39374504398880505 0.7344160820482347 0.5528090617592791
vn -0.39374504398880505 -0.7344160820482347 -0.5528090617592791
vn 0.30846105523504647 0.9343751673153058 0.17831103192953543
vn -0.30846105523504647 -0.9343751673153058 -0.17831103192953543
vn 0.4729289357675057 0.5983859187281275 0.6467399121607613
vn -0.4729289357675057 -0.5983859187281275 -0.6467399121607613
vn 0.5134968133300779 0.717337739228411 0.4709008288148657
vn -0.5134968133300779 -0.717337739228411 -0.4709008288148657
vn 0.04940998796076381 0.9929637580544803 -0.1076179737778075
vn -0.04940998796076381 -0.9929637580544803 0.1076179737778075
vn -0.03519300169962846 -0.9985110482225931 -0.04167900201286683
vn 0.17894907666081666 -0.9534534084542838 0.24270110397184017
vn 0.2204159632372654 -0.9121378478663654 0.3455739423624179
vn -0.2204159632372654 0.9121378478663654 -0.3455739423624179
vn -0.17894907666081666 0.9534534084542838 -0.24270110397184017
vn 0.03519300169962846 0.9985110482225931 0.04167900201286683
vn 0.35203291555805066 -0.801674807702688 0.48310488411788677
vn 0.39804196283542076 -0.6925579353369076 0.6016029438292381
vn -0.39804196283542076 0.6925579353369076 -0.6016029438292381
vn -0.35203291555805066 0.801674807702688 -0.48310488411788677
vn 0.5315339714404147 0.3921039789320576 0.7508169596582306
vn -0.5315339714404147 -0.3921039789320576 -0.7508169596582306
vn 0.6946640913594485 0.6899860907442166 -0.20337402674694008
vn -0.6946640913594485 -0.6899860907442166 0.20337402674694008
vn 0.3417819647545911 0.9255109045590065 -0.16313998317659775
vn -0.3417819647545911 -0.9255109045590065 0.16313998317659775
vn -0.17788595824020886 0.9534537761710316 -0.24347994284162902
vn 0.17788595824020886 -0.9534537761710316 0.24347994284162902
vn -0.26359095158875845 0.912137832476325 -0.3138859423515559
vn 0.26359095158875845 -0.912137832476325 0.3138859423515559
vn 0.09069702299981562 -0.9955342524570653 -0.026184006639990213
vn -0.09069702299981562 0.9955342524570653 0.026184006639990213
vn 0.49891996933388505 -0.5345829671418592 0.6821289580729448
vn -0.49891996933388505 0.5345829671418592 -0.6821289580729448
vn 0.5203571904671578 -0.37357813674139095 0.7678982810750109
vn -0.5203571904671578 0.37357813674139095 -0.7678982810750109
vn 0.579105319410839 0.20855911503268848 0.788124434697245
vn -0.579105319410839 -0.20855911503268848 -0.788124434697245
vn 0.674580891754735 0.40314193531064074 0.6183989007698653
vn -0.674580891754735 -0.40314193531064074 -0.6183989007698653
vn 0.8788510796085315 0.4744850429800433 0.04984700451526659
vn -0.8788510796085315 -0.4744850429800433 -0.04984700451526659
vn 0.391191951463644 0.7894189020544348 -0.4730609413059133
vn -0.391191951463644 -0.7894189020544348 0.4730609413059133
vn -0.09584001958390367 0.9151391869991031 -0.39158008001528566
vn 0.09584001958390367 -0.9151391869991031 0.39158008001528566
vn -0.21794907533781607 -0.9268313203750573 -0.30574810568704897
vn -0.2767300630792415 -0.8827672012223926 -0.37966108654185654
vn 0.2767300630792415 0.8827672012223926 0.37966108654185654
vn 0.21794907533781607 0.9268313203750573 0.30574810568704897
vn -0.35533494474719707 0.8016738753437305 -0.4806829252562142
vn 0.35533494474719707 -0.8016738753437305 0.4806829252562142
vn -0.07757004440335566 -0.9343695348603716 -0.3477591990675078
vn 0.07757004440335566 0.9343695348603716 0.3477591990675078
vn 0.34328591373672346 -0.917076769550559 0.20279294904077444
vn -0.34328591373672346 0.917076769550559 -0.20279294904077444
vn 0.5566488806536578 -0.7029208492927318 0.44276890506969263
vn -0.5566488806536578 0.7029208492927318 -0.44276890506969263
vn 0.5819067583146795 -0.18980292116850495 0.7907966715557188
vn -0.5819067583146795 0.18980292116850495 -0.7907966715557188
vn 0.5759159412171267 0 0.8175089165580954
vn -0.5759159412171267 0 -0.8175089165580954
vn 0.8940587711558522 0.21002894624078783 -0.39565989872650953
vn -0.8940587711558522 -0.21002894624078783 0.39565989872650953
vn 0.5958458626512881 0.7063118371877243 -0.3822189118945375
vn -0.5958458626512881 -0.7063118371877243 0.3822189118945375
vn -0.4545851190563128 0.6925581813817041 -0.5601031466915933
vn 0.4545851190563128 -0.6925581813817041 0.5601031466915933
vn -0.40932507683912467 -0.7344161378657119 -0.5413741016275682
vn 0.40932507683912467 0.7344161378657119 0.5413741016275682
vn 0.29355502786806076 -0.9312030884019069 -0.21607002051217641
vn -0.29355502786806076 0.9312030884019069 0.21607002051217641
vn 0.6742803471327605 -0.38185619658706693 0.6320853254099349
vn -0.6742803471327605 0.38185619658706693 -0.6320853254099349
vn 0.7158691528688628 0.006612001411946612 0.698203149096411
vn -0.7158691528688628 -0.006612001411946612 -0.698203149096411
vn 0.9690499076665066 0.1873879821452054 0.16071098468705636
vn -0.9690499076665066 -0.1873879821452054 -0.16071098468705636
vn 0.8382827634554988 0.2501709294074026 -0.484454863297757
vn -0.8382827634554988 -0.2501709294074026 0.484454863297757
vn 0.9389850567057787 0.14878500898520142 -0.3101130187278808
vn -0.9389850567057787 -0.14878500898520142 0.3101130187278808
vn 0.7417837342627008 0.40155085614804564 -0.5371348075763238
vn -0.7417837342627008 -0.40155085614804564 0.5371348075763238
vn 0.34010409398403824 0.6475751789503021 -0.681891188433155
vn -0.34010409398403824 -0.6475751789503021 0.681891188433155
vn -0.2555060632127189 0.7029181739033838 -0.663794164224024
vn 0.2555060632127189 -0.7029181739033838 0.663794164224024
vn -0.5011617974331988 0.5345827839246228 -0.6804837249522765
vn 0.5011617974331988 -0.5345827839246228 0.6804837249522765
vn -0.47519487589479603 -0.5983848437216458 -0.6450778315269802
vn 0.47519487589479603 0.5983848437216458 0.6450778315269802
vn -0.2952779786198082 -0.7173409480594958 -0.6310569543070609
vn 0.2952779786198082 0.7173409480594958 0.6310569543070609
vn 0.402303097604979 -0.6899961674037854 -0.601712145984711
vn -0.402303097604979 0.6899961674037854 0.601712145984711
vn 0.7272399676683662 -0.6650539704330313 -0.16977999245192138
vn -0.7272399676683662 0.6650539704330313 0.16977999245192138
vn 0.8940471471950404 -0.44411207311817363 0.05868700966217128
vn -0.8940471471950404 0.44411207311817363 -0.05868700966217128
vn 0.8383538378053753 -0.25049195153782766 -0.4841659063293995
vn -0.8383538378053753 0.25049195153782766 0.4841659063293995
vn 0.9412794289321914 -0.13574706185866053 -0.30913714087089045
vn -0.9412794289321914 0.13574706185866053 0.30913714087089045
vn 0.7002889854528971 0.2938029938968306 -0.6505959864851696
vn -0.7002889854528971 -0.2938029938968306 0.6505959864851696
vn -0.576558036914706 0.3735780239187075 -0.7266500465244972
vn 0.576558036914706 -0.3735780239187075 0.7266500465244972
vn -0.5569108514159262 -0.3921038953864985 -0.7321918046508865
vn 0.5569108514159262 0.3921038953864985 0.7321918046508865
vn 0.21594488874025525 -0.4744857555340884 -0.8533645603270645
vn -0.21594488874025525 0.4744857555340884 0.8533645603270645
vn 0.5697921260787724 -0.7067721563885524 -0.4192970927785071
vn -0.5697921260787724 0.7067721563885524 0.4192970927785071
vn 0.9753998682620151 -0.14293898069459116 0.16781997733415147
vn -0.9753998682620151 0.14293898069459116 -0.16781997733415147
vn 0.9581403567631491 0.006926002578894141 -0.28621510657207166
vn -0.9581403567631491 -0.006926002578894141 0.28621510657207166
vn 0.7992669174569123 -0.13058698651382541 -0.5866169394180187
vn -0.7992669174569123 0.13058698651382541 0.5866169394180187
vn 0.8913014883629367 -0.25511413978243286 -0.3748312053779453
vn -0.8913014883629367 0.25511413978243286 0.3748312053779453
vn 0.7992667617110392 0.13058396106842202 -0.5866178251090141
vn -0.7992667617110392 -0.13058396106842202 0.5866178251090141
vn 0.6248168671805059 0.2551129457697542 -0.7379168431384506
vn -0.6248168671805059 -0.2551129457697542 0.7379168431384506
vn 0.21206596769684186 0.4441099323505157 -0.8705138673981145
vn -0.21206596769684186 -0.4441099323505157 0.8705138673981145
vn -0.4008421636981609 0.3818561559445492 -0.8327733400926264
vn 0.4008421636981609 -0.3818561559445492 0.8327733400926264
vn -0.5799487876906468 0.18980293051638666 -0.7922337099767598
vn 0.5799487876906468 -0.18980293051638666 0.7922337099767598
vn -0.5782390137849291 -0.20856000497196617 -0.7887600188036449
vn 0.5782390137849291 0.20856000497196617 0.7887600188036449
vn -0.3876979117946643 -0.40314090828122073 -0.8289558114038705
vn 0.3876979117946643 0.40314090828122073 0.8289558114038705
vn 0.7135057640504611 -0.25017591726921434 -0.6544627835754107
vn -0.7135057640504611 0.25017591726921434 0.6544627835754107
vn 0.7403320643537378 -0.3953050343620892 -0.5437300472640085
vn -0.7403320643537378 0.3953050343620892 0.5437300472640085
vn 0.6455161364953698 -0.210029044410961 -0.7343001552688857
vn -0.6455161364953698 0.210029044410961 0.7343001552688857
vn -0.6072289355821218 0 -0.7945269157126166
vn 0.6072289355821218 0 0.7945269157126166
vn 0.1372230107573239 -0.1873870146898306 -0.972654076249274
vn -0.1372230107573239 0.1873870146898306 0.972654076249274
vn 0.5771300347461148 0.13574700817264904 -0.805291048482549
vn -0.5771300347461148 -0.13574700817264904 0.805291048482549
vn 0.1323459992002331 0.14293899913621985 -0.9808429940727657
vn -0.1323459992002331 -0.14293899913621985 0.9808429940727657
vn -0.45144796952681165 -0.0066129995536157345 -0.8922729397706863
vn 0.45144796952681165 0.0066129995536157345 0.8922729397706863
vn 0.5773740851589308 -0.14878402194467757 -0.8028091184091354
vn -0.5773740851589308 0.14878402194467757 0.8028091184091354
vn 0.5603171356062886 -0.006926001676210167 -0.8282492004504111
vn -0.5603171356062886 0.006926001676210167 0.8282492004504111
usemtl material_0_0
f 1//1 2//2 3//3
f 3//4 2//5 1//6
f 1//7 4//7 2//7
f 2//8 4//8 1//8
f 2//2 5//9 3//3
f 3//4 5//10 2//5
f 1//1 3//3 6//11
f 6//12 3//4 1//6
f 1//7 7//7 4//7
f 4//8 7//8 1//8
f 2//7 4//7 8//7
f 8//8 4//8 2//8
f 2//7 8//7 5//7
f 5//8 8//8 2//8
f 5//9 9//13 3//3
f 3//4 9//14 5//10
f 3//3 10//15 6//11
f 6//12 10//16 3//4
f 1//1 6//11 11//17
f 11//18 6//12 1//6
f 12//7 7//7 1//7
f 1//8 7//8 12//8
f 7//19 13//20 4//21
f 4//22 13//23 7//24
f 4//21 14//25 8//26
f 8//27 14//28 4//22
f 5//7 8//7 15//7
f 15//8 8//8 5//8
f 5//9 16//29 9//13
f 9//14 16//30 5//10
f 3//3 9//13 10//15
f 10//16 9//14 3//4
f 10//15 17//31 6//11
f 6//12 17//32 10//16
f 11//17 6//11 18//33
f 18//34 6//12 11//18
f 19//35 1//1 11//17
f 11//18 1//6 19//36
f 12//7 20//7 7//7
f 7//8 20//8 12//8
f 12//37 1//1 19//35
f 19//36 1//6 12//38
f 7//19 21//39 13//20
f 13//23 21//40 7//24
f 4//21 13//20 14//25
f 14//28 13//23 4//22
f 8//26 14//25 22//41
f 22//42 14//28 8//27
f 15//43 8//26 22//41
f 22//42 8//27 15//44
f 5//7 15//7 16//7
f 16//8 15//8 5//8
f 9//13 16//29 23//45
f 23//46 16//30 9//14
f 10//15 9//13 24//47
f 24//48 9//14 10//16
f 17//31 10//15 25//49
f 25//50 10//16 17//32
f 18//33 6//11 17//31
f 17//32 6//12 18//34
f 11//17 18//33 26//51
f 26//52 18//34 11//18
f 19//35 11//17 27//53
f 27//54 11//18 19//36
f 28//7 20//7 12//7
f 12//8 20//8 28//8
f 20//55 29//56 7//19
f 7//24 29//57 20//58
f 12//37 19//35 30//59
f 30//60 19//36 12//38
f 7//19 31//61 21//39
f 21//40 31//62 7//24
f 21//39 32//63 13//20
f 13//23 32//64 21//40
f 13//20 32//63 14//25
f 14//28 32//64 13//23
f 14//25 33//65 22//41
f 22//42 33//66 14//28
f 34//67 15//43 22//41
f 22//42 15//44 34//68
f 16//7 15//7 35//7
f 35//8 15//8 16//8
f 16//29 35//69 23//45
f 23//46 35//70 16//30
f 9//13 23//45 24//47
f 24//48 23//46 9//14
f 24//47 25//49 10//15
f 10//16 25//50 24//48
f 36//71 17//31 25//49
f 25//50 17//32 36//72
f 18//33 17//31 37//73
f 37//74 17//32 18//34
f 26//51 18//33 37//73
f 37//74 18//34 26//52
f 27//53 11//17 26//51
f 26//52 11//18 27//54
f 30//59 19//35 27//53
f 27//54 19//36 30//60
f 28//7 38//7 20//7
f 20//8 38//8 28//8
f 28//75 12//37 30//59
f 30//60 12//38 28//76
f 38//77 29//56 20//55
f 20//58 29//57 38//78
f 29//56 31//61 7//19
f 7//24 31//62 29//57
f 31//61 39//79 21//39
f 21//40 39//80 31//62
f 21//39 39//79 32//63
f 32//64 39//80 21//40
f 14//25 32//63 33//65
f 33//66 32//64 14//28
f 40//81 22//41 33//65
f 33//66 22//42 40//82
f 35//69 15//43 34//67
f 34//68 15//44 35//70
f 34//67 22//41 40//81
f 40//82 22//42 34//68
f 23//45 35//69 34//67
f 34//68 35//70 23//46
f 24//47 23//45 41//83
f 41//84 23//46 24//48
f 24//47 42//85 25//49
f 25//50 42//86 24//48
f 17//31 36//71 43//87
f 43//88 36//72 17//32
f 44//89 36//71 25//49
f 25//50 36//72 44//90
f 17//31 45//91 37//73
f 37//74 45//92 17//32
f 37//73 45//91 26//51
f 26//52 45//92 37//74
f 27//53 26//51 46//93
f 46//94 26//52 27//54
f 30//59 27//53 47//95
f 47//96 27//54 30//60
f 48//7 38//7 28//7
f 28//8 38//8 48//8
f 28//75 30//59 49//97
f 49//98 30//60 28//76
f 38//77 50//99 29//56
f 29//57 50//100 38//78
f 29//56 51//101 31//61
f 31//62 51//102 29//57
f 31//61 52//103 39//79
f 39//80 52//104 31//62
f 39//79 53//105 32//63
f 32//64 53//106 39//80
f 32//63 53//105 33//65
f 33//66 53//106 32//64
f 40//81 33//65 54//107
f 54//108 33//66 40//82
f 41//83 34//67 40//81
f 40//82 34//68 41//84
f 23//45 34//67 41//83
f 41//84 34//68 23//46
f 41//83 42//85 24//47
f 24//48 42//86 41//84
f 42//85 44//89 25//49
f 25//50 44//90 42//86
f 55//109 43//87 36//71
f 36//72 43//88 55//110
f 17//31 43//87 45//91
f 45//92 43//88 17//32
f 56//111 36//71 44//89
f 44//90 36//72 56//112
f 26//51 45//91 57//113
f 57//114 45//92 26//52
f 26//51 57//113 46//93
f 46//94 57//114 26//52
f 47//95 27//53 46//93
f 46//94 27//54 47//96
f 49//97 30//59 47//95
f 47//96 30//60 49//98
f 48//7 58//7 38//7
f 38//8 58//8 48//8
f 28//75 49//97 48//115
f 48//116 49//98 28//76
f 58//117 50//99 38//77
f 38//78 50//100 58//118
f 50//99 51//101 29//56
f 29//57 51//102 50//100
f 59//119 31//61 51//101
f 51//102 31//62 59//120
f 31//61 59//119 52//103
f 52//104 59//120 31//62
f 52//103 60//121 39//79
f 39//80 60//122 52//104
f 39//79 60//121 53//105
f 53//106 60//122 39//80
f 53//105 54//107 33//65
f 33//66 54//108 53//106
f 40//81 54//107 61//123
f 61//124 54//108 40//82
f 41//83 40//81 61//123
f 61//124 40//82 41//84
f 41//83 61//123 42//85
f 42//86 61//124 41//84
f 42//85 62//125 44//89
f 44//90 62//126 42//86
f 63//127 43//87 55//109
f 55//110 43//88 63//128
f 55//109 36//71 64//129
f 64//130 36//72 55//110
f 43//87 65//131 45//91
f 45//92 65//132 43//88
f 64//129 36//71 56//111
f 56//112 36//72 64//130
f 56//111 44//89 62//125
f 62//126 44//90 56//112
f 45//91 65//131 57//113
f 57//114 65//132 45//92
f 46//93 57//113 66//133
f 66//134 57//114 46//94
f 47//95 46//93 67//135
f 67//136 46//94 47//96
f 47//95 68//137 49//97
f 49//98 68//138 47//96
f 58//7 48//7 69//7
f 69//8 48//8 58//8
f 49//97 70//139 48//115
f 48//116 70//140 49//98
f 71//141 50//99 58//117
f 58//118 50//100 71//142
f 72//143 51//101 50//99
f 50//100 51//102 72//144
f 72//143 59//119 51//101
f 51//102 59//120 72//144
f 59//119 73//145 52//103
f 52//104 73//146 59//120
f 60//121 52//103 74//147
f 74//148 52//104 60//122
f 53//105 60//121 74//147
f 74//148 60//122 53//106
f 54//107 53//105 64//129
f 64//130 53//106 54//108
f 61//123 54//107 56//111
f 56//112 54//108 61//124
f 61//123 62//125 42//85
f 42//86 62//126 61//124
f 63//127 65//131 43//87
f 43//88 65//132 63//128
f 55//109 74//147 63//127
f 63//128 74//148 55//110
f 64//129 53//105 55//109
f 55//110 53//106 64//130
f 54//107 64//129 56//111
f 56//112 64//130 54//108
f 61//123 56//111 62//125
f 62//126 56//112 61//124
f 63//127 57//113 65//131
f 65//132 57//114 63//128
f 75//149 66//133 57//113
f 57//114 66//134 75//150
f 46//93 66//133 67//135
f 67//136 66//134 46//94
f 47//95 67//135 68//137
f 68//138 67//136 47//96
f 49//97 68//137 70//139
f 70//140 68//138 49//98
f 48//115 70//139 69//151
f 69//152 70//140 48//116
f 69//151 71//141 58//117
f 58//118 71//142 69//152
f 71//141 72//143 50//99
f 50//100 72//144 71//142
f 76//153 59//119 72//143
f 72//144 59//120 76//154
f 73//145 59//119 75//149
f 75//150 59//120 73//146
f 74//147 52//103 73//145
f 73//146 52//104 74//148
f 53//105 74//147 55//109
f 55//110 74//148 53//106
f 74//147 73//145 63//127
f 63//128 73//146 74//148
f 73//145 57//113 63//127
f 63//128 57//114 73//146
f 75//149 77//155 66//133
f 66//134 77//156 75//150
f 75//149 57//113 73//145
f 73//146 57//114 75//150
f 67//135 66//133 77//155
f 77//156 66//134 67//136
f 67//135 78//157 68//137
f 68//138 78//158 67//136
f 68//137 79//159 70//139
f 70//140 79//160 68//138
f 70//139 71//141 69//151
f 69//152 71//142 70//140
f 79//159 72//143 71//141
f 71//142 72//144 79//160
f 76//153 80//161 59//119
f 59//120 80//162 76//154
f 79//159 76//153 72//143
f 72//144 76//154 79//160
f 80//161 75//149 59//119
f 59//120 75//150 80//162
f 80//161 77//155 75//149
f 75//150 77//156 80//162
f 67//135 77//155 78//157
f 78//158 77//156 67//136
f 68//137 78//157 79//159
f 79//160 78//158 68//138
f 70//139 79//159 71//141
f 71//142 79//160 70//140
f 81//163 80//161 76//153
f 76//154 80//162 81//164
f 78//157 76//153 79//159
f 79//160 76//154 78//158
f 77//155 80//161 81//163
f 81//164 80//162 77//156
f 77//155 81//163 78//157
f 78//158 81//164 77//156
f 78//157 81//163 76//153
f 76//154 81//164 78//158
