# SSTK version 0.8.0
# 43
mtllib original-43.mtl
o mesh43/mesh43-geometry#mesh43-geometry
v 0.025161 -0.651503 0.217180
v 0.033472 -0.644351 0.133017
v 0.033142 -0.644722 0.130193
v 0.026170 -0.672739 0.466984
v 0.006435 -0.644275 0.137070
v 0.011594 -0.651512 0.221434
v 0.029455 -0.685939 0.621776
v 0.013145 -0.673297 0.475280
v 0.026393 -0.685735 0.619678
v 0.030773 -0.658817 0.596857
v -0.002922 -0.651547 0.221174
v 0.026208 -0.676283 0.508623
v 0.027099 -0.686818 0.631401
v 0.028297 -0.662374 0.626835
v 0.033142 -0.561139 0.133195
v -0.007693 -0.651563 0.219990
v 0.013372 -0.676931 0.517588
v -0.002482 -0.684223 0.602413
v 0.026209 -0.679821 0.550195
v 0.022294 -0.687444 0.638862
v 0.029362 -0.637283 0.621685
v 0.029362 -0.686018 0.622855
v -0.002804 -0.673325 0.475326
v -0.020432 -0.644756 0.130910
v -0.002816 -0.686659 0.630818
v -0.002609 -0.680588 0.560024
v 0.026173 -0.683366 0.591840
v 0.013853 -0.686632 0.630513
v 0.027099 -0.638687 0.630154
v 0.022536 -0.687382 0.638615
v 0.025161 -0.574074 0.219481
v -0.007767 -0.673194 0.473201
v -0.002717 -0.676957 0.517682
v -0.020750 -0.644409 0.133747
v 0.013591 -0.680562 0.559856
v -0.007560 -0.680408 0.557591
v 0.013800 -0.684199 0.602185
v 0.015187 -0.687895 0.644255
v 0.026393 -0.636775 0.618537
v 0.020658 -0.663883 0.640018
v 0.006435 -0.561181 0.140087
v 0.026170 -0.612979 0.467150
v -0.016728 -0.685939 0.621776
v -0.007678 -0.676801 0.515399
v -0.007412 -0.684019 0.599827
v 0.006364 -0.688070 0.646314
v 0.022294 -0.639841 0.637551
v 0.016155 -0.687831 0.643723
v 0.011594 -0.574385 0.223725
v -0.007844 -0.686439 0.628141
v -0.018046 -0.658817 0.596857
v 0.026208 -0.619468 0.508432
v 0.013853 -0.638438 0.629281
v 0.015187 -0.640673 0.642899
v 0.007100 -0.687975 0.645615
v -0.002922 -0.574402 0.223463
v 0.013145 -0.614124 0.475385
v -0.012303 -0.687142 0.635255
v -0.020432 -0.561223 0.133908
v -0.015570 -0.662374 0.626835
v -0.007500 -0.687617 0.640922
v -0.001100 -0.687945 0.644851
v 0.026209 -0.625947 0.549649
v 0.013800 -0.634001 0.601197
v 0.006364 -0.640995 0.644925
v -0.007693 -0.574334 0.222280
v -0.015453 -0.686495 0.628536
v -0.015453 -0.638162 0.627319
v 0.026173 -0.632437 0.590938
v 0.013372 -0.620751 0.517329
v -0.002816 -0.638487 0.629583
v -0.002482 -0.634042 0.601423
v -0.002804 -0.614155 0.475429
v -0.007767 -0.613873 0.473319
v -0.007931 -0.663883 0.640018
v -0.012303 -0.639283 0.633975
v 0.013591 -0.627371 0.559233
v -0.002609 -0.627409 0.559398
v -0.002717 -0.620783 0.517421
v -0.007678 -0.620466 0.515155
v -0.008015 -0.687550 0.640549
v -0.007560 -0.627057 0.556985
v -0.001099 -0.640765 0.643490
v 0.005628 -0.687975 0.645615
v -0.002162 -0.687882 0.644272
v -0.007500 -0.640159 0.639594
v -0.007412 -0.633655 0.598858
v -0.007844 -0.638078 0.626929
vn -0.17222401054940986 0.9829800602114624 0.06394600391694887
vn -0.25146896246247635 0.9661788557755945 0.057111991474722554
vn -0.366741045917082 0.9295131163778381 0.03881200485937995
vn 0.366741045917082 -0.9295131163778381 -0.03881200485937995
vn 0.25146896246247635 -0.9661788557755945 -0.057111991474722554
vn 0.17222401054940986 -0.9829800602114624 -0.06394600391694887
vn 0.0098290006188683 0.9963440627333114 0.08486400534333519
vn -0.0098290006188683 -0.9963440627333114 -0.08486400534333519
vn -0.0006849998599583005 0.9965297962689711 0.08323398298360488
vn 0.0006849998599583005 -0.9965297962689711 -0.08323398298360488
vn 0.010154004153445478 0.9963134075371012 0.08518503484451992
vn -0.010154004153445478 -0.9963134075371012 -0.08518503484451992
vn 0.005800998036484316 0.9961786628144993 0.08714597050292425
vn -0.005800998036484316 -0.9961786628144993 -0.08714597050292425
vn 0.00374199991435872 0.9963399771972653 0.08539699804556185
vn -0.00374199991435872 -0.9963399771972653 -0.08539699804556185
vn 0.006075999397115066 0.9960839011645759 0.08820399124804784
vn -0.006075999397115066 -0.9960839011645759 -0.08820399124804784
vn -0.9982059707944902 -0.00532799984411337 -0.05963599825516999
vn -0.9992680865621014 -0.0023780002059954567 -0.03817900330727539
vn -0.9997809810076607 0.020275999614826973 -0.005183999901522142
vn 0.9997809810076607 -0.020275999614826973 0.005183999901522142
vn 0.9992680865621014 0.0023780002059954567 0.03817900330727539
vn 0.9982059707944902 0.00532799984411337 0.05963599825516999
vn -0.013427000802068632 0.9962940595141256 0.0849580050750093
vn 0.013427000802068632 -0.9962940595141256 -0.0849580050750093
vn 0.009306003644175904 0.9963263901555128 0.08513003333641701
vn -0.009306003644175904 -0.9963263901555128 -0.08513003333641701
vn 0.007651001456639877 0.9957721895806043 0.0915380174275131
vn -0.007651001456639877 -0.9957721895806043 -0.0915380174275131
vn -0.9604968926044474 -0.004989999442055657 -0.27824596888862435
vn 0.9604968926044474 0.004989999442055657 0.27824596888862435
vn -0.7162649449027537 -0.6889139470066745 -0.11118499144731739
vn 0.7162649449027537 0.6889139470066745 0.11118499144731739
vn 0.07340501043602779 0.9948251414347979 0.07024700998705348
vn -0.07340501043602779 -0.9948251414347979 -0.07024700998705348
vn 0.005019999168474857 0.9963458349627987 0.08526298587682726
vn -0.005019999168474857 -0.9963458349627987 -0.08526298587682726
vn -0.0028799992826599482 0.9963517518322238 0.08529297875552624
vn 0.0028799992826599482 -0.9963517518322238 -0.08529297875552624
vn 0.007907999689986648 0.9963449609407875 0.08505399666567098
vn -0.007907999689986648 -0.9963449609407875 -0.08505399666567098
vn 0.009300999727731839 0.9958209708493331 0.09085199734048975
vn -0.009300999727731839 -0.9958209708493331 -0.09085199734048975
vn -0.5957879124832304 -0.7797998854532537 -0.19222097176418312
vn 0.5957879124832304 0.7797998854532537 0.19222097176418312
vn -0.969496346829624 -0.002392000855719269 -0.24509408768046478
vn 0.969496346829624 0.002392000855719269 0.24509408768046478
vn -0.01139699756033047 0.9962897867317404 0.08530398173961859
vn 0.01139699756033047 -0.9962897867317404 -0.08530398173961859
vn 0.3077340777594876 0.9510402403126825 0.028674007245463977
vn -0.3077340777594876 -0.9510402403126825 -0.028674007245463977
vn -0.0020629991528306035 0.9960925909551595 0.08829096374336753
vn 0.0020629991528306035 -0.9960925909551595 -0.08829096374336753
vn -0.004427000476962844 0.9963441073456216 0.08531600919190488
vn 0.004427000476962844 -0.9963441073456216 -0.08531600919190488
vn 0.006206997863294113 0.9963526570141259 0.0851049707033425
vn -0.006206997863294113 -0.9963526570141259 -0.0851049707033425
vn 0.0020230006286485543 0.996057309525355 0.08868902756016415
vn -0.0020230006286485543 -0.996057309525355 -0.08868902756016415
vn -0.8986396502845632 0.005020998046023858 -0.4386588292911246
vn 0.8986396502845632 -0.005020998046023858 0.4386588292911246
vn -0.8197567806585272 -0.005759998458803051 -0.5726828467678439
vn 0.8197567806585272 0.005759998458803051 0.5726828467678439
vn -0.03550199976046801 -0.9874329933377897 -0.153998998960969
vn 0.03550199976046801 0.9874329933377897 0.153998998960969
vn -0.006806997578217042 0.9963416455231269 0.08518796969195754
vn 0.006806997578217042 -0.9963416455231269 -0.08518796969195754
vn -0.005855999766471518 0.9963389602674976 0.08528999659876317
vn 0.005855999766471518 -0.9963389602674976 -0.08528999659876317
vn 0.31800905928818346 0.9475981766659564 0.0304620056792
vn -0.31800905928818346 -0.9475981766659564 -0.0304620056792
vn 0.003318998632310644 0.9963485894257542 0.08531396484391414
vn -0.003318998632310644 -0.9963485894257542 -0.08531396484391414
vn -0.0039039993236009442 0.9963538273737436 0.08522798523357124
vn 0.0039039993236009442 -0.9963538273737436 -0.08522798523357124
vn 0.0019799996756790497 0.9963408368008789 0.08544598600407703
vn -0.0019799996756790497 -0.9963408368008789 -0.08544598600407703
vn 0.004104998950132286 0.995850745307719 0.09090897674971421
vn -0.004104998950132286 -0.995850745307719 -0.09090897674971421
vn -0.0044969978988883995 -0.9872185387464323 -0.15930892556682522
vn -0.004080999550120837 -0.9867548912226136 -0.1621669821231185
vn 0.004080999550120837 0.9867548912226136 0.1621669821231185
vn 0.0044969978988883995 0.9872185387464323 0.15930892556682522
vn -0.6051253574491671 -0.015997009449476088 -0.7959694701812948
vn 0.6051253574491671 0.015997009449476088 0.7959694701812948
vn 0.0006849999316695477 -0.9881139014331729 -0.1537219846658487
vn -0.0006849999316695477 0.9881139014331729 0.1537219846658487
vn -0.0127589970566911 -0.9877797721340493 -0.15533296416701947
vn 0.0127589970566911 0.9877797721340493 0.15533296416701947
vn 0.002837999871089535 0.9964609547377552 0.08400899618405969
vn -0.002837999871089535 -0.9964609547377552 -0.08400899618405969
vn -0.006225000740183757 0.9963391184697099 0.08526201013808014
vn 0.006225000740183757 -0.9963391184697099 -0.08526201013808014
vn -0.0031689989221507626 0.9963586611155606 0.08520197102085515
vn 0.0031689989221507626 -0.9963586611155606 -0.08520197102085515
vn 0.00013200005872921519 0.9958384430665469 0.09113604054807412
vn -0.00013200005872921519 -0.9958384430665469 -0.09113604054807412
vn -0.48617320583459694 -0.6730342849472967 -0.5573692359773651
vn 0.48617320583459694 0.6730342849472967 0.5573692359773651
vn -0.4254348348562269 -0.059701976825099895 -0.9030176494698375
vn 0.4254348348562269 0.059701976825099895 0.9030176494698375
vn -0.010153996051492479 -0.9877596158974011 -0.15565293947242084
vn 0.010153996051492479 0.9877596158974011 0.15565293947242084
vn -0.0053789989737005415 0.9960548099552505 0.0885769830997349
vn 0.0053789989737005415 -0.9960548099552505 -0.0885769830997349
vn 0.9957222467912831 0.0018730004642260529 -0.09237802289603438
vn 0.9997796940769583 0.02033399377799203 -0.005204998407320175
vn 0.9990361736115224 -0.016535002873436507 -0.04066100706602977
vn -0.9990361736115224 0.016535002873436507 0.04066100706602977
vn -0.9997796940769583 -0.02033399377799203 0.005204998407320175
vn -0.9957222467912831 -0.0018730004642260529 0.09237802289603438
vn -0.008385001156312702 -0.9877831362177732 -0.15560902145887479
vn 0.008385001156312702 0.9877831362177732 0.15560902145887479
vn -0.0019010002540468392 -0.9872411319334328 -0.1592210212780601
vn 0.0019010002540468392 0.9872411319334328 0.1592210212780601
vn -0.27891200406291117 -0.6538390095244727 -0.7033510102457142
vn 0.27891200406291117 0.6538390095244727 0.7033510102457142
vn -0.4253069208259343 -0.05257499021277197 -0.9035208318028365
vn 0.4253069208259343 0.05257499021277197 0.9035208318028365
vn 0.013427005837459193 -0.9877564294321398 -0.1554250675718402
vn -0.013427005837459193 0.9877564294321398 0.1554250675718402
vn -0.003742000447242049 -0.9877711180579171 -0.15586601862902993
vn 0.003742000447242049 0.9877711180579171 0.15586601862902993
vn 0.019806998101667684 0.9964029045032556 0.08239499210314097
vn -0.019806998101667684 -0.9964029045032556 -0.08239499210314097
vn 0.5659729591772208 -0.8139619412901482 -0.13092199055679374
vn -0.5659729591772208 0.8139619412901482 0.13092199055679374
vn 0.9529437087804471 -0.006391998046605628 -0.3030799073787945
vn -0.9529437087804471 0.006391998046605628 0.3030799073787945
vn -0.007636996716118847 0.9957315718390011 0.09197996044894766
vn 0.007636996716118847 -0.9957315718390011 -0.09197996044894766
vn -0.0033090001987286306 0.9957860598039251 0.0916470055040446
vn 0.0033090001987286306 -0.9957860598039251 -0.0916470055040446
vn -0.006986998822827045 -0.9878058335739933 -0.15553397379556078
vn 0.006986998822827045 0.9878058335739933 0.15553397379556078
vn -0.0023130002591612853 -0.9877941106778912 -0.1557480174508657
vn 0.0023130002591612853 0.9877941106778912 0.1557480174508657
vn -0.15444692730841242 0.019504990819832164 -0.9878085350806138
vn 0.15444692730841242 -0.019504990819832164 0.9878085350806138
vn 0.03127298655990528 -0.9874975756062206 -0.15450093360061176
vn -0.03127298655990528 0.9874975756062206 0.15450093360061176
vn 0.04954698103584709 0.9961266187316136 0.07264197219621804
vn -0.04954698103584709 -0.9961266187316136 -0.07264197219621804
vn 0.6715479268036304 -0.7039919232673485 -0.23112497480818822
vn -0.6715479268036304 0.7039919232673485 0.23112497480818822
vn 0.9112428872405339 -0.018449997716951206 -0.41145594908541533
vn -0.9112428872405339 0.018449997716951206 0.41145594908541533
vn -0.005894998634739107 -0.9878217712239616 -0.15547796399185213
vn 0.005894998634739107 0.9878217712239616 0.15547796399185213
vn -0.005020002134794012 -0.9877864200636729 -0.15573306622666871
vn 0.005020002134794012 0.9877864200636729 0.15573306622666871
vn -0.0005410000900803095 -0.9868481643171408 -0.16164902691569696
vn 0.0005410000900803095 0.9868481643171408 0.16164902691569696
vn 0.002237999012294043 -0.9874045642243965 -0.15819993018092854
vn -0.002237999012294043 0.9874045642243965 0.15819993018092854
vn 0.15206000900917566 0.07394800438123475 -0.9856010583944005
vn -0.15206000900917566 -0.07394800438123475 0.9856010583944005
vn 0.003245001104622901 -0.9877823362485727 -0.1558060530375582
vn -0.003245001104622901 0.9877823362485727 0.1558060530375582
vn 0.011396995518172281 -0.9877276115796502 -0.15576993874402903
vn -0.011396995518172281 0.9877276115796502 0.15576993874402903
vn 0.02226498787295462 -0.9876074620809776 -0.1553569153819275
vn -0.02226498787295462 0.9876074620809776 0.1553569153819275
vn 0.6137349115736941 0.007356998940011201 -0.7894778862528238
vn -0.6137349115736941 -0.007356998940011201 0.7894778862528238
vn 0.49331904742128235 -0.7587080729323344 -0.42543904089618084
vn -0.49331904742128235 0.7587080729323344 0.42543904089618084
vn -0.003652998964705536 -0.9878107200450973 -0.15561695589668278
vn 0.003652998964705536 0.9878107200450973 0.15561695589668278
vn 0.004791998015209941 -0.987772590876037 -0.15582793545787474
vn -0.004791998015209941 0.987772590876037 0.15582793545787474
vn 0.005855998430296903 -0.9877777352257198 -0.1557589582487392
vn -0.005855998430296903 0.9877777352257198 0.1557589582487392
vn 0.005426998689776146 -0.9877817615228415 -0.155748962398
vn -0.005426998689776146 0.9877817615228415 0.155748962398
vn 0.7105429144829679 -0.018297997797753596 -0.7034159153407342
vn -0.7105429144829679 0.018297997797753596 0.7034159153407342
vn 0.002498000734122555 -0.9877282902775835 -0.15616204589353364
vn -0.002498000734122555 0.9877282902775835 0.15616204589353364
vn 0.24074501117177247 -0.6431660298461201 -0.7268970337316577
vn -0.24074501117177247 0.6431660298461201 0.7268970337316577
vn 0.4543809228967892 0.049089991669993845 -0.8894538490699232
vn -0.4543809228967892 -0.049089991669993845 0.8894538490699232
vn 0.358837940400432 -0.07860898694379492 -0.9300838455219218
vn -0.358837940400432 0.07860898694379492 0.9300838455219218
vn 0.4277018303518888 -0.6701587341812555 -0.6065957593935365
vn -0.4277018303518888 0.6701587341812555 0.6065957593935365
vn 0.011351001477639415 -0.987757128583268 -0.1555860202537229
vn -0.011351001477639415 0.987757128583268 0.1555860202537229
vn 0.009698997963103952 -0.9872447926677557 -0.15891396662632268
vn -0.009698997963103952 0.9872447926677557 0.15891396662632268
usemtl material_0_0
f 1//1 2//2 3//3
f 3//4 2//5 1//6
f 1//1 4//7 2//2
f 2//5 4//8 1//6
f 5//9 1//1 3//3
f 3//4 1//6 5//10
f 1//1 6//11 4//7
f 4//8 6//12 1//6
f 4//7 7//13 2//2
f 2//5 7//14 4//8
f 6//11 1//1 5//9
f 5//10 1//6 6//12
f 8//15 4//7 6//11
f 6//12 4//8 8//16
f 4//7 9//17 7//13
f 7//14 9//18 4//8
f 7//19 10//20 2//21
f 2//22 10//23 7//24
f 11//25 6//11 5//9
f 5//10 6//12 11//26
f 4//7 8//15 12//27
f 12//28 8//16 4//8
f 6//11 11//25 8//15
f 8//16 11//26 6//12
f 9//17 4//7 12//27
f 12//28 4//8 9//18
f 9//17 13//29 7//13
f 7//14 13//30 9//18
f 14//31 10//20 7//19
f 7//24 10//23 14//32
f 10//20 15//33 2//21
f 2//22 15//34 10//23
f 16//35 11//25 5//9
f 5//10 11//26 16//36
f 17//37 12//27 8//15
f 8//16 12//28 17//38
f 11//25 18//39 8//15
f 8//16 18//40 11//26
f 9//17 12//27 19//41
f 19//42 12//28 9//18
f 20//43 13//29 9//17
f 9//18 13//30 20//44
f 14//31 21//45 10//20
f 10//23 21//46 14//32
f 14//31 7//19 22//47
f 22//48 7//24 14//32
f 21//45 15//33 10//20
f 10//23 15//34 21//46
f 16//35 23//49 11//25
f 11//26 23//50 16//36
f 24//51 16//35 5//9
f 5//10 16//36 24//52
f 12//27 17//37 19//41
f 19//42 17//38 12//28
f 25//53 17//37 8//15
f 8//16 17//38 25//54
f 18//39 11//25 26//55
f 26//56 11//26 18//40
f 25//53 8//15 18//39
f 18//40 8//16 25//54
f 27//57 9//17 19//41
f 19//42 9//18 27//58
f 28//59 20//43 9//17
f 9//18 20//44 28//60
f 29//61 21//45 14//31
f 14//32 21//46 29//62
f 30//63 14//31 22//47
f 22//48 14//32 30//64
f 31//65 15//33 21//45
f 21//46 15//34 31//66
f 32//67 23//49 16//35
f 16//36 23//50 32//68
f 33//69 11//25 23//49
f 23//50 11//26 33//70
f 34//71 16//35 24//51
f 24//52 16//36 34//72
f 17//37 27//57 19//41
f 19//42 27//58 17//38
f 25//53 35//73 17//37
f 17//38 35//74 25//54
f 26//55 11//25 33//69
f 33//70 11//26 26//56
f 26//55 36//75 18//39
f 18//40 36//76 26//56
f 36//75 25//53 18//39
f 18//40 25//54 36//76
f 27//57 37//77 9//17
f 9//18 37//78 27//58
f 20//43 28//59 38//79
f 38//80 28//60 20//44
f 37//77 28//59 9//17
f 9//18 28//60 37//78
f 39//81 21//45 29//82
f 29//83 21//46 39//84
f 40//85 29//61 14//31
f 14//32 29//62 40//86
f 40//85 14//31 30//63
f 30//64 14//32 40//86
f 41//87 15//33 31//65
f 31//66 15//34 41//88
f 31//65 21//45 42//89
f 42//90 21//46 31//66
f 23//49 32//67 33//69
f 33//70 32//68 23//50
f 43//91 32//67 16//35
f 16//36 32//68 43//92
f 34//71 43//91 16//35
f 16//36 43//92 34//72
f 27//57 17//37 35//73
f 35//74 17//38 27//58
f 25//53 37//77 35//73
f 35//74 37//78 25//54
f 33//69 44//93 26//55
f 26//56 44//94 33//70
f 36//75 26//55 44//93
f 44//94 26//56 36//76
f 25//53 36//75 45//95
f 45//96 36//76 25//54
f 37//77 27//57 35//73
f 35//74 27//58 37//78
f 46//97 38//79 28//59
f 28//60 38//80 46//98
f 37//77 25//53 28//59
f 28//60 25//54 37//78
f 39//81 42//89 21//45
f 21//46 42//90 39//84
f 47//99 39//81 29//82
f 29//83 39//84 47//100
f 40//85 47//99 29//61
f 29//62 47//100 40//86
f 40//85 30//63 48//101
f 48//102 30//64 40//86
f 31//65 49//103 41//87
f 41//88 49//104 31//66
f 49//103 31//65 42//89
f 42//90 31//66 49//104
f 44//93 33//69 32//67
f 32//68 33//70 44//94
f 50//105 32//67 43//91
f 43//92 32//68 50//106
f 43//107 34//108 51//109
f 51//110 34//111 43//112
f 50//105 36//75 44//93
f 44//94 36//76 50//106
f 36//75 50//105 45//95
f 45//96 50//106 36//76
f 50//105 25//53 45//95
f 45//96 25//54 50//106
f 25//53 46//97 28//59
f 28//60 46//98 25//54
f 42//89 39//81 52//113
f 52//114 39//84 42//90
f 47//99 53//115 39//81
f 39//84 53//116 47//100
f 47//99 40//85 54//117
f 54//118 40//86 47//100
f 40//85 48//101 55//119
f 55//120 48//102 40//86
f 49//103 56//121 41//87
f 41//88 56//122 49//104
f 42//89 57//123 49//103
f 49//104 57//124 42//90
f 50//105 44//93 32//67
f 32//68 44//94 50//106
f 58//125 50//105 43//91
f 43//92 50//106 58//126
f 51//109 34//108 59//127
f 59//128 34//111 51//110
f 60//129 43//107 51//109
f 51//110 43//112 60//130
f 61//131 25//53 50//105
f 50//106 25//54 61//132
f 25//53 62//133 46//97
f 46//98 62//134 25//54
f 52//113 39//81 63//135
f 63//136 39//84 52//114
f 57//123 42//89 52//113
f 52//114 42//90 57//124
f 53//115 47//99 54//117
f 54//118 47//100 53//116
f 64//137 39//81 53//115
f 53//116 39//84 64//138
f 54//117 40//85 65//139
f 65//140 40//86 54//118
f 65//139 40//85 55//119
f 55//120 40//86 65//140
f 56//121 49//103 57//123
f 57//124 49//104 56//122
f 66//141 41//87 56//121
f 56//122 41//88 66//142
f 50//105 58//125 61//131
f 61//132 58//126 50//106
f 43//91 67//143 58//125
f 58//126 67//144 43//92
f 68//145 51//109 59//127
f 59//128 51//110 68//146
f 67//147 43//107 60//129
f 60//130 43//112 67//148
f 68//145 60//129 51//109
f 51//110 60//130 68//146
f 25//53 61//131 62//133
f 62//134 61//132 25//54
f 39//81 69//149 63//135
f 63//136 69//150 39//84
f 70//151 52//113 63//135
f 63//136 52//114 70//152
f 52//113 70//151 57//123
f 57//124 70//152 52//114
f 65//153 53//115 54//117
f 54//118 53//116 65//154
f 69//149 39//81 64//137
f 64//138 39//84 69//150
f 71//155 64//137 53//115
f 53//116 64//138 71//156
f 65//139 55//119 46//157
f 46//158 55//120 65//140
f 72//159 56//121 57//123
f 57//124 56//122 72//160
f 59//127 41//87 66//141
f 66//142 41//88 59//128
f 66//141 56//121 73//161
f 73//162 56//122 66//142
f 59//127 74//163 68//145
f 68//146 74//164 59//128
f 75//165 67//147 60//129
f 60//130 67//148 75//166
f 76//167 60//129 68//145
f 68//146 60//130 76//168
f 69//149 70//151 63//135
f 63//136 70//152 69//150
f 70//151 71//155 57//123
f 57//124 71//156 70//152
f 65//153 71//155 53//115
f 53//116 71//156 65//154
f 69//149 64//137 77//169
f 77//170 64//138 69//150
f 64//137 71//155 77//169
f 77//170 71//156 64//138
f 65//139 46//157 75//165
f 75//166 46//158 65//140
f 56//121 72//159 78//171
f 78//172 72//160 56//122
f 57//123 71//155 72//159
f 72//160 71//156 57//124
f 59//127 66//141 74//163
f 74//164 66//142 59//128
f 56//121 79//173 73//161
f 73//162 79//174 56//122
f 73//161 74//163 66//141
f 66//142 74//164 73//162
f 80//175 68//145 74//163
f 74//164 68//146 80//176
f 81//177 67//147 75//165
f 75//166 67//148 81//178
f 75//165 60//129 76//167
f 76//168 60//130 75//166
f 68//145 82//179 76//167
f 76//168 82//180 68//146
f 70//151 69//149 77//169
f 77//170 69//150 70//152
f 77//169 71//155 70//151
f 70//152 71//156 77//170
f 71//155 65//153 83//181
f 83//182 65//154 71//156
f 75//165 46//157 84//183
f 84//184 46//158 75//166
f 83//181 65//139 75//165
f 75//166 65//140 83//182
f 82//179 78//171 72//159
f 72//160 78//172 82//180
f 56//121 78//171 79//173
f 79//174 78//172 56//122
f 71//155 82//179 72//159
f 72//160 82//180 71//156
f 74//163 73//161 79//173
f 79//174 73//162 74//164
f 68//145 80//175 82//179
f 82//180 80//176 68//146
f 79//173 80//175 74//163
f 74//164 80//176 79//174
f 75//165 85//185 81//177
f 81//178 85//186 75//166
f 75//165 76//167 86//187
f 86//188 76//168 75//166
f 76//167 82//179 87//189
f 87//190 82//180 76//168
f 86//187 71//155 83//181
f 83//182 71//156 86//188
f 75//165 84//183 85//185
f 85//186 84//184 75//166
f 86//187 83//181 75//165
f 75//166 83//182 86//188
f 78//171 82//179 80//175
f 80//176 82//180 78//172
f 80//175 79//173 78//171
f 78//172 79//174 80//176
f 82//179 71//155 87//189
f 87//190 71//156 82//180
f 76//167 88//191 86//187
f 86//188 88//192 76//168
f 76//167 87//189 88//191
f 88//192 87//190 76//168
f 71//155 86//187 88//191
f 88//192 86//188 71//156
f 88//191 87//189 71//155
f 71//156 87//190 88//192
