# SSTK version 0.8.0
# 37
mtllib original-37.mtl
o mesh37/mesh37-geometry#mesh37-geometry
v -0.024061 -0.803650 0.069976
v -0.016941 -0.803650 0.059137
v -0.023341 -0.739708 0.068299
v -0.016941 -0.803650 0.104350
v -0.014118 -0.739708 0.056629
v -0.026305 -0.803650 0.081744
v -0.006103 -0.803650 0.111470
v -0.024061 -0.803650 0.093512
v -0.006103 -0.803650 0.052018
v -0.016941 -0.675767 0.059137
v -0.024061 -0.675767 0.069976
v -0.011040 -0.739708 0.109003
v -0.019450 -0.739708 0.101527
v -0.001002 -0.739708 0.050476
v -0.006103 -0.675767 0.052018
v -0.024677 -0.739708 0.091818
v -0.026305 -0.675767 0.081744
v 0.005665 -0.803650 0.113715
v -0.001002 -0.739708 0.113012
v 0.005665 -0.803650 0.049773
v -0.006103 -0.675767 0.111470
v -0.016941 -0.675767 0.104350
v -0.024061 -0.675767 0.093512
v 0.012332 -0.739708 0.050476
v 0.005665 -0.675767 0.049773
v 0.017434 -0.803650 0.111470
v 0.012332 -0.739708 0.113012
v 0.005665 -0.675767 0.113715
v 0.017434 -0.803650 0.052018
v 0.022371 -0.739708 0.054485
v 0.017434 -0.675767 0.052018
v 0.028272 -0.803650 0.104350
v 0.025448 -0.739708 0.106859
v 0.017434 -0.675767 0.111470
v 0.028272 -0.803650 0.059137
v 0.028272 -0.675767 0.059137
v 0.030780 -0.739708 0.061961
v 0.035391 -0.803650 0.093512
v 0.034672 -0.739708 0.095188
v 0.028272 -0.675767 0.104350
v 0.035391 -0.803650 0.069976
v 0.035391 -0.675767 0.069976
v 0.036007 -0.739708 0.071670
v 0.037636 -0.803650 0.081744
v 0.035391 -0.675767 0.093512
v 0.037636 -0.675767 0.081744
vn 0.9268622665813828 -0.0005890001694065695 0.375401107971756
vn 0.7344028979789597 0.0010839998494138526 0.6787129057152459
vn 0.8829367608861891 -0.00023999993500417068 0.4694918728538715
vn -0.8829367608861891 0.00023999993500417068 -0.4694918728538715
vn -0.7344028979789597 -0.0010839998494138526 -0.6787129057152459
vn -0.9268622665813828 0.0005890001694065695 -0.375401107971756
vn 0 1 0
vn 0 -1 0
vn 0.5972511863671851 0 0.8020542502742505
vn -0.5972511863671851 0 -0.8020542502742505
vn 0.9985497559679499 0.0006279998465253222 0.053832986843946364
vn -0.9985497559679499 -0.0006279998465253222 -0.053832986843946364
vn 0.3921741299365269 0.0017660005851173877 0.9198893047809946
vn -0.3921741299365269 -0.0017660005851173877 -0.9198893047809946
vn 0.7344028979789597 -0.001083999849414154 0.6787129057152459
vn -0.7344028979789597 0.001083999849414154 -0.6787129057152459
vn 0.944207605305252 -0.00008699996363261694 0.3293508623257694
vn -0.944207605305252 0.00008699996363261694 -0.3293508623257694
vn 0.5334718762590789 0 -0.8458178038092
vn 0.3738661148814105 0.003947001212832951 -0.9274742849938784
vn 0.6929366012310383 0.003970997714782966 -0.7209875850883468
vn -0.6929366012310383 -0.003970997714782966 0.7209875850883468
vn -0.3738661148814105 -0.003947001212832951 0.9274742849938784
vn -0.5334718762590789 0 0.8458178038092
vn 0.9124177547029064 0.0030309991851372865 -0.4092488899763154
vn 0.8024407438990712 0 -0.5967318095515816
vn -0.8024407438990712 0 0.5967318095515816
vn -0.9124177547029064 -0.0030309991851372865 0.4092488899763154
vn 0.20735495202003953 0 0.9782657736386197
vn -0.20735495202003953 0 -0.9782657736386197
vn 0.3921741299365269 -0.0017660005851177962 0.9198893047809946
vn -0.3921741299365269 0.0017660005851177962 -0.9198893047809946
vn 0.9539206767535403 0 -0.30005889832175886
vn -0.9539206767535403 0 0.30005889832175886
vn 0.9985403693576547 -0.0015220005629842956 -0.05398901997040722
vn -0.9985403693576547 0.0015220005629842956 0.05398901997040722
vn 0.18833708546880132 0 -0.9821044456864643
vn -0.18833708546880132 0 0.9821044456864643
vn 0 0.002186999143819305 0.9999976085145127
vn 0 -0.002186999143819305 -0.9999976085145127
vn 0 0.002186999143819749 -0.9999976085145127
vn 0 -0.002186999143819749 0.9999976085145127
vn 0.3738661148814105 -0.00394700121283254 -0.9274742849938784
vn -0.3738661148814105 0.00394700121283254 0.9274742849938784
vn 0.6929366012310383 -0.003970997714782645 -0.7209875850883468
vn -0.6929366012310383 0.003970997714782645 0.7209875850883468
vn 0.9124177547029064 -0.0030309991851371044 -0.4092488899763154
vn -0.9124177547029064 0.0030309991851371044 0.4092488899763154
vn -0.8829367608861891 -0.00023999993500396218 -0.4694918728538715
vn 0.8829367608861891 0.00023999993500396218 0.4694918728538715
vn -0.9268622665813828 -0.0005890001694064028 -0.375401107971756
vn 0.9268622665813828 0.0005890001694064028 0.375401107971756
vn -0.9985497559679499 0.0006279998465253461 -0.053832986843946364
vn 0.9985497559679499 -0.0006279998465253461 0.053832986843946364
vn -0.944207605305252 -0.00008699996363247068 -0.3293508623257694
vn 0.944207605305252 0.00008699996363247068 0.3293508623257694
vn -0.9985403693576547 -0.0015220005629843195 0.05398901997040722
vn 0.9985403693576547 0.0015220005629843195 -0.05398901997040722
usemtl material_0_0
f 1//1 2//2 3//3
f 3//4 2//5 1//6
f 4//7 2//7 1//7
f 1//8 2//8 4//8
f 3//3 2//2 5//9
f 5//10 2//5 3//4
f 6//11 1//1 3//3
f 3//4 1//6 6//12
f 7//7 2//7 4//7
f 4//8 2//8 7//8
f 4//7 1//7 8//7
f 8//8 1//8 4//8
f 5//9 2//2 9//13
f 9//14 2//5 5//10
f 3//3 5//9 10//15
f 10//16 5//10 3//4
f 8//7 1//7 6//7
f 6//8 1//8 8//8
f 6//11 3//3 11//17
f 11//18 3//4 6//12
f 7//7 9//7 2//7
f 2//8 9//8 7//8
f 12//19 7//20 4//21
f 4//22 7//23 12//24
f 4//21 8//25 13//26
f 13//27 8//28 4//22
f 5//9 9//13 14//29
f 14//30 9//14 5//10
f 10//15 5//9 15//31
f 15//32 5//10 10//16
f 11//17 3//3 10//15
f 10//16 3//4 11//18
f 8//25 6//11 16//33
f 16//34 6//12 8//28
f 6//11 11//17 17//35
f 17//36 11//18 6//12
f 18//7 9//7 7//7
f 7//8 9//8 18//8
f 19//37 7//20 12//19
f 12//24 7//23 19//38
f 12//19 4//21 13//26
f 13//27 4//22 12//24
f 13//26 8//25 16//33
f 16//34 8//28 13//27
f 14//29 9//13 20//39
f 20//40 9//14 14//30
f 15//31 5//9 14//29
f 14//30 5//10 15//32
f 16//33 6//11 17//35
f 17//36 6//12 16//34
f 18//7 20//7 9//7
f 9//8 20//8 18//8
f 19//37 18//41 7//20
f 7//23 18//42 19//38
f 21//43 19//37 12//19
f 12//24 19//38 21//44
f 22//45 12//19 13//26
f 13//27 12//24 22//46
f 13//26 16//33 23//47
f 23//48 16//34 13//27
f 14//29 20//39 24//38
f 24//37 20//40 14//30
f 15//31 14//29 25//42
f 25//41 14//30 15//32
f 23//47 16//33 17//35
f 17//36 16//34 23//48
f 26//7 20//7 18//7
f 18//8 20//8 26//8
f 27//30 18//41 19//37
f 19//38 18//42 27//29
f 28//40 19//37 21//43
f 21//44 19//38 28//39
f 21//43 12//19 22//45
f 22//46 12//24 21//44
f 22//45 13//26 23//47
f 23//48 13//27 22//46
f 24//38 20//39 29//44
f 29//43 20//40 24//37
f 25//42 14//29 24//38
f 24//37 14//30 25//41
f 26//7 29//7 20//7
f 20//8 29//8 26//8
f 27//30 26//32 18//41
f 18//42 26//31 27//29
f 28//40 27//30 19//37
f 19//38 27//29 28//39
f 30//24 24//38 29//44
f 29//43 24//37 30//19
f 31//23 25//42 24//38
f 24//37 25//41 31//20
f 32//7 29//7 26//7
f 26//8 29//8 32//8
f 33//10 26//32 27//30
f 27//29 26//31 33//9
f 34//14 27//30 28//40
f 28//39 27//29 34//13
f 31//23 24//38 30//24
f 30//19 24//37 31//20
f 30//24 29//44 35//46
f 35//45 29//43 30//19
f 32//7 35//7 29//7
f 29//8 35//8 32//8
f 33//10 32//16 26//32
f 26//31 32//15 33//9
f 34//14 33//10 27//30
f 27//29 33//9 34//13
f 31//23 30//24 36//22
f 36//21 30//19 31//20
f 30//24 35//46 37//27
f 37//26 35//45 30//19
f 38//7 35//7 32//7
f 32//8 35//8 38//8
f 33//10 39//49 32//16
f 32//15 39//50 33//9
f 34//14 40//5 33//10
f 33//9 40//2 34//13
f 36//22 30//24 37//27
f 37//26 30//19 36//21
f 41//48 37//27 35//46
f 35//45 37//26 41//47
f 38//7 41//7 35//7
f 35//8 41//8 38//8
f 32//16 39//49 38//51
f 38//52 39//50 32//15
f 33//10 40//5 39//49
f 39//50 40//2 33//9
f 42//28 36//22 37//27
f 37//26 36//21 42//25
f 43//34 37//27 41//48
f 41//47 37//26 43//33
f 41//7 38//7 44//7
f 44//8 38//8 41//8
f 39//49 44//53 38//51
f 38//52 44//54 39//50
f 40//5 45//55 39//49
f 39//50 45//56 40//2
f 43//34 42//28 37//27
f 37//26 42//25 43//33
f 44//53 43//34 41//48
f 41//47 43//33 44//54
f 39//49 45//55 44//53
f 44//54 45//56 39//50
f 46//57 42//28 43//34
f 43//33 42//25 46//58
f 46//57 43//34 44//53
f 44//54 43//33 46//58
f 45//55 46//57 44//53
f 44//54 46//58 45//56
