# SSTK version 0.8.0
# 27
mtllib original-27.mtl
o mesh27/mesh27-geometry#mesh27-geometry
v -0.491201 -0.766385 0.262412
v -0.489852 -0.732651 0.260422
v -0.487035 -0.755166 0.251747
v -0.496666 -0.732651 0.267514
v -0.489281 -0.695642 0.259382
v -0.494681 -0.695642 0.266071
v -0.494058 -0.768650 0.265530
v -0.487035 -0.695642 0.251747
v -0.502292 -0.695642 0.270048
v -0.495843 -0.768914 0.266957
v -0.489943 -0.741862 0.238725
v -0.505691 -0.732651 0.270716
v -0.497742 -0.768407 0.268145
v -0.490295 -0.725404 0.238153
v -0.510200 -0.695642 0.270737
v -0.487749 -0.695642 0.243809
v -0.494846 -0.736715 0.233047
v -0.504484 -0.763194 0.270547
v -0.514467 -0.732651 0.269848
v -0.491740 -0.695642 0.236156
v -0.498425 -0.695642 0.230712
v -0.515268 -0.751945 0.269564
v -0.517815 -0.695642 0.268456
v -0.502211 -0.733270 0.229181
v -0.524734 -0.740771 0.262720
v -0.501773 -0.725404 0.229319
v -0.525945 -0.732651 0.261014
v -0.506040 -0.695642 0.228430
v -0.510549 -0.725404 0.228451
v -0.528329 -0.735933 0.255953
v -0.524500 -0.695642 0.263012
v -0.511346 -0.731498 0.228562
v -0.529205 -0.732797 0.247420
v -0.528490 -0.695642 0.255359
v -0.513948 -0.695642 0.229119
v -0.519574 -0.725404 0.231653
v -0.519978 -0.731028 0.231919
v -0.529205 -0.695642 0.247420
v -0.521559 -0.695642 0.233096
v -0.526364 -0.725404 0.238705
v -0.526959 -0.695642 0.239786
v -0.526354 -0.731330 0.238700
vn -0.8112208513409532 -0.0035849993430362532 -0.5847288928463936
vn -0.8369152459970451 0.0033650009890851024 -0.5473221608760683
vn -0.981983502089275 0.005785002957878595 -0.18887809657358434
vn 0.981983502089275 -0.005785002957878595 0.18887809657358434
vn 0.8369152459970451 -0.0033650009890851024 0.5473221608760683
vn 0.8112208513409532 0.0035849993430362532 0.5847288928463936
vn -0.5676998791117298 -0.002491999469343539 -0.8232318246977409
vn 0.5676998791117298 0.002491999469343539 0.8232318246977409
vn -0.9087940341429381 -0.000020000000751297396 -0.4172450156756869
vn 0.9087940341429381 0.000020000000751297396 0.4172450156756869
vn -0.6644212339630226 -0.0012430004376982767 -0.7473572631673331
vn 0.6644212339630226 0.0012430004376982767 0.7473572631673331
vn -0.6798011756705036 -0.008839002284126487 -0.7333431895065381
vn 0.6798011756705036 0.008839002284126487 0.7333431895065381
vn -0.9972738962954873 0.014399998502573015 0.0723699924743896
vn 0.9972738962954873 -0.014399998502573015 -0.0723699924743896
vn -0.29872803947377635 -0.0020290002681108868 -0.9543361261055069
vn 0.29872803947377635 0.0020290002681108868 0.9543361261055069
vn -0.5781021360551974 -0.0005980001407379725 -0.8159641920355633
vn 0.5781021360551974 0.0005980001407379725 0.8159641920355633
vn -0.9219675751078793 -0.0017240010754029844 0.387263241568302
vn 0.9219675751078793 0.0017240010754029844 -0.387263241568302
vn -0.11664705747656859 0.0031330015437526482 -0.9931684893729686
vn 0.11664705747656859 -0.0031330015437526482 0.9931684893729686
vn -0.4039300420828477 -0.0046430004837238635 -0.9147780953047886
vn 0.4039300420828477 0.0046430004837238635 0.9147780953047886
vn -0.8602170422874106 0.008512000418441325 0.509857025064062
vn 0.8602170422874106 -0.008512000418441325 -0.509857025064062
vn 0.10073698576762782 -0.0025359996417074356 -0.9949098594366578
vn -0.10073698576762782 0.0025359996417074356 0.9949098594366578
vn -0.959147189584093 0.028552005643561376 0.2814630556337116
vn 0.959147189584093 -0.028552005643561376 -0.2814630556337116
vn -0.6540249510498314 -0.002141999839683267 0.7564699433823875
vn 0.6540249510498314 0.002141999839683267 -0.7564699433823875
vn -0.1234370268889694 0.0006160001341869322 -0.9923522161695647
vn 0.1234370268889694 -0.0006160001341869322 0.9923522161695647
vn 0.3326219137328547 0.004234998901632211 -0.943050755415103
vn -0.3326219137328547 -0.004234998901632211 0.943050755415103
vn -0.7750553199250758 0.004786001975551805 0.6318752608236283
vn 0.7750553199250758 -0.004786001975551805 -0.6318752608236283
vn -0.5351300228805549 -0.0010650000455363956 0.8447690361197905
vn 0.5351300228805549 0.0010650000455363956 -0.8447690361197905
vn 0.26633512000930043 0.0027970012603152814 -0.9638764343179997
vn -0.26633512000930043 -0.0027970012603152814 0.9638764343179997
vn 0.5668983354049324 -0.0006730003981799473 -0.8237874873931872
vn -0.5668983354049324 0.0006730003981799473 0.8237874873931872
vn -0.21100394589943922 0.008325997865247509 0.9774497493858262
vn 0.21100394589943922 -0.008325997865247509 -0.9774497493858262
vn 0.7089630027894149 0.004549000017898198 -0.7052310027747315
vn -0.7089630027894149 -0.004549000017898198 0.7052310027747315
vn -0.23915696589203386 0.0003349999522229321 0.9709808615211468
vn 0.23915696589203386 -0.0003349999522229321 -0.9709808615211468
vn 0.8731961568103263 -0.04913200882322509 -0.48488608707682107
vn -0.8731961568103263 0.04913200882322509 0.48488608707682107
vn -0.10073700941679532 -0.0031530002947395487 0.9949080930030179
vn 0.10073700941679532 0.0031530002947395487 -0.9949080930030179
vn 0.08423698779616728 0.0013339998067365706 0.9964448556400619
vn -0.08423698779616728 -0.0013339998067365706 -0.9964448556400619
vn 0.9283679388753285 -0.15034299010126745 -0.3398969776208439
vn -0.9283679388753285 0.15034299010126745 0.3398969776208439
vn 0.7750550272238084 0.0038490001351962726 -0.6318820221948565
vn -0.7750550272238084 -0.0038490001351962726 0.6318820221948565
vn 0.21596090616749017 0.0059999973930704815 0.9763835757726568
vn -0.21596090616749017 -0.0059999973930704815 -0.9763835757726568
vn 0.9966511055284145 -0.050807005379598445 0.06407200678413665
vn -0.9966511055284145 0.050807005379598445 -0.06407200678413665
vn 0.9641412597059454 0.007267001957476305 -0.26529007145986977
vn -0.9641412597059454 -0.007267001957476305 0.26529007145986977
vn 0.2987270771716695 -0.0025240006520380054 0.9543352465382279
vn -0.2987270771716695 0.0025240006520380054 -0.9543352465382279
vn 0.4996411913021563 -0.0014000005360311001 0.8662313316618495
vn -0.4996411913021563 0.0014000005360311001 -0.8662313316618495
vn 0.6171817152355081 -0.00012499994232583963 0.7868206369649758
vn -0.6171817152355081 0.00012499994232583963 -0.7868206369649758
vn 0.9951872005138204 0 0.09799201974377708
vn -0.9951872005138204 0 -0.09799201974377708
vn 0.6641412514004241 -0.0016550006264751192 0.7476052829944455
vn -0.6641412514004241 0.0016550006264751192 -0.7476052829944455
vn 0.8244286532053965 -0.0003899998359473141 0.5659657619274012
vn -0.8244286532053965 0.0003899998359473141 -0.5659657619274012
vn 0.9097182366104664 0.00009600002496874954 0.4152261079970029
vn -0.9097182366104664 -0.00009600002496874954 -0.4152261079970029
vn 0.8600361637835824 0.0010020001908188172 0.5102320971675893
vn -0.8600361637835824 -0.0010020001908188172 -0.5102320971675893
usemtl material_0_0
f 1//1 2//2 3//3
f 3//4 2//5 1//6
f 4//7 2//2 1//1
f 1//6 2//5 4//8
f 2//2 5//9 3//3
f 3//4 5//10 2//5
f 4//7 6//11 2//2
f 2//5 6//12 4//8
f 4//7 1//1 7//13
f 7//14 1//6 4//8
f 6//11 5//9 2//2
f 2//5 5//10 6//12
f 5//9 8//15 3//3
f 3//4 8//16 5//10
f 9//17 6//11 4//7
f 4//8 6//12 9//18
f 4//7 7//13 10//19
f 10//20 7//14 4//8
f 8//15 11//21 3//3
f 3//4 11//22 8//16
f 9//17 4//7 12//23
f 12//24 4//8 9//18
f 4//7 10//19 13//25
f 13//26 10//20 4//8
f 8//15 14//27 11//21
f 11//22 14//28 8//16
f 12//23 4//7 13//25
f 13//26 4//8 12//24
f 9//17 12//23 15//29
f 15//30 12//24 9//18
f 8//15 16//31 14//27
f 14//28 16//32 8//16
f 11//21 14//27 17//33
f 17//34 14//28 11//22
f 12//23 13//25 18//35
f 18//36 13//26 12//24
f 15//29 12//23 19//37
f 19//38 12//24 15//30
f 16//31 20//39 14//27
f 14//28 20//40 16//32
f 14//27 21//41 17//33
f 17//34 21//42 14//28
f 12//23 18//35 22//43
f 22//44 18//36 12//24
f 19//37 12//23 22//43
f 22//44 12//24 19//38
f 23//45 15//29 19//37
f 19//38 15//30 23//46
f 21//41 14//27 20//39
f 20//40 14//28 21//42
f 21//41 24//47 17//33
f 17//34 24//48 21//42
f 19//37 22//43 25//49
f 25//50 22//44 19//38
f 23//45 19//37 25//49
f 25//50 19//38 23//46
f 24//47 21//41 26//51
f 26//52 21//42 24//48
f 23//45 25//49 27//53
f 27//54 25//50 23//46
f 21//41 28//55 26//51
f 26//52 28//56 21//42
f 29//57 24//47 26//51
f 26//52 24//48 29//58
f 25//49 30//59 27//53
f 27//54 30//60 25//50
f 31//61 23//45 27//53
f 27//54 23//46 31//62
f 28//55 29//57 26//51
f 26//52 29//58 28//56
f 29//57 32//63 24//47
f 24//48 32//64 29//58
f 27//53 30//59 33//65
f 33//66 30//60 27//54
f 31//61 27//53 34//67
f 34//68 27//54 31//62
f 35//69 29//57 28//55
f 28//56 29//58 35//70
f 36//71 32//63 29//57
f 29//58 32//64 36//72
f 27//53 33//65 34//67
f 34//68 33//66 27//54
f 35//69 36//71 29//57
f 29//58 36//72 35//70
f 36//71 37//73 32//63
f 32//64 37//74 36//72
f 34//67 33//65 38//75
f 38//76 33//66 34//68
f 39//77 36//71 35//69
f 35//70 36//72 39//78
f 40//79 37//73 36//71
f 36//72 37//74 40//80
f 33//65 41//81 38//75
f 38//76 41//82 33//66
f 40//79 36//71 39//77
f 39//78 36//72 40//80
f 40//79 42//83 37//73
f 37//74 42//84 40//80
f 33//65 40//79 41//81
f 41//82 40//80 33//66
f 41//81 40//79 39//77
f 39//78 40//80 41//82
f 33//65 42//83 40//79
f 40//80 42//84 33//66
