# SSTK version 0.8.0
# 7
mtllib original-7.mtl
o mesh7/mesh7-geometry#mesh7-geometry
v 0.028509 -0.282477 0.077147
v 0.027124 -0.282484 0.063054
v 0.028799 -0.282481 0.069836
v 0.026160 -0.282473 0.084040
v 0.023676 -0.282487 0.057047
v 0.022177 -0.282470 0.089677
v 0.018487 -0.282490 0.052126
v -0.031241 -0.282364 0.292507
v 0.042476 -0.282459 0.111109
v 0.012135 -0.282492 0.049027
v 0.042476 -0.282364 0.292507
v 0.005492 -0.282492 0.048025
v -0.001155 -0.282492 0.049028
v -0.011157 -0.282470 0.089715
v -0.031241 -0.282459 0.110920
v -0.007512 -0.282490 0.052132
v -0.012704 -0.282487 0.057061
v -0.015155 -0.282473 0.084082
v -0.016150 -0.282484 0.063079
v -0.017518 -0.282477 0.077185
v -0.017819 -0.282481 0.069868
vn 0 -0.9999998637580277 0.0005219999288814685
vn 0 0.9999998637580277 -0.0005219999288814685
usemtl material_0_0
f 1//1 2//1 3//1
f 2//1 1//1 4//1
f 3//2 2//2 1//2
f 4//2 1//2 2//2
f 2//1 4//1 5//1
f 5//2 4//2 2//2
f 5//1 4//1 6//1
f 6//2 4//2 5//2
f 5//1 6//1 7//1
f 7//2 6//2 5//2
f 6//1 8//1 7//1
f 7//2 8//2 6//2
f 9//1 8//1 6//1
f 6//2 8//2 9//2
f 7//1 8//1 10//1
f 10//2 8//2 7//2
f 8//1 9//1 11//1
f 11//2 9//2 8//2
f 10//1 8//1 12//1
f 12//2 8//2 10//2
f 12//1 8//1 13//1
f 13//2 8//2 12//2
f 13//1 8//1 14//1
f 14//2 8//2 13//2
f 14//1 8//1 15//1
f 15//2 8//2 14//2
f 13//1 14//1 16//1
f 16//2 14//2 13//2
f 14//1 17//1 16//1
f 16//2 17//2 14//2
f 17//1 14//1 18//1
f 18//2 14//2 17//2
f 17//1 18//1 19//1
f 19//2 18//2 17//2
f 19//1 18//1 20//1
f 20//2 18//2 19//2
f 19//1 20//1 21//1
f 21//2 20//2 19//2
