# SSTK version 0.8.0
# 28
mtllib original-28.mtl
o mesh28/mesh28-geometry#mesh28-geometry
v -0.559602 -0.719787 0.240616
v -0.547480 -0.723860 0.257133
v -0.540095 -0.719787 0.226299
v -0.562248 -0.720439 0.242558
v -0.536528 -0.724751 0.251607
v -0.559830 -0.722514 0.219858
v -0.552183 -0.725565 0.259708
v -0.567726 -0.722042 0.238530
v -0.537203 -0.735466 0.271136
v -0.528436 -0.723546 0.242186
v -0.571725 -0.723860 0.224100
v -0.551755 -0.723546 0.210413
v -0.564492 -0.722298 0.244205
v -0.542260 -0.736771 0.273228
v -0.524965 -0.740196 0.267362
v -0.517697 -0.735467 0.256817
v -0.540095 -0.826859 0.226299
v -0.569450 -0.731267 0.206752
v -0.551755 -0.823100 0.210413
v -0.565990 -0.725081 0.245305
v -0.556337 -0.731784 0.259562
v -0.575449 -0.725466 0.228008
v -0.530336 -0.752835 0.280491
v -0.528436 -0.823100 0.242186
v -0.582002 -0.735466 0.210097
v -0.562494 -0.811178 0.195781
v -0.562494 -0.735467 0.195781
v -0.547706 -0.741531 0.271321
v -0.534608 -0.758380 0.283654
v -0.518869 -0.762159 0.275668
v -0.510643 -0.753617 0.266428
v -0.517697 -0.811178 0.256817
v -0.563169 -0.821895 0.215309
v -0.539868 -0.824131 0.247057
v -0.576857 -0.745349 0.196659
v -0.566517 -0.728363 0.245691
v -0.556336 -0.814861 0.259562
v -0.541939 -0.756117 0.279178
v -0.576697 -0.731785 0.231821
v -0.587456 -0.740380 0.211649
v -0.527925 -0.773323 0.283776
v -0.530248 -0.815379 0.260164
v -0.571725 -0.822785 0.224100
v -0.559602 -0.826859 0.240616
v -0.588868 -0.752835 0.200741
v -0.569548 -0.793029 0.186171
v -0.574733 -0.806450 0.199554
v -0.569548 -0.753617 0.186171
v -0.566517 -0.818282 0.245691
v -0.547706 -0.805115 0.271321
v -0.541939 -0.790528 0.279178
v -0.585328 -0.741531 0.220061
v -0.539915 -0.773323 0.281936
v -0.533906 -0.783534 0.284610
v -0.518869 -0.784487 0.275668
v -0.508419 -0.773323 0.269458
v -0.510643 -0.793029 0.266428
v -0.522841 -0.801296 0.270256
v -0.582002 -0.811180 0.210097
v -0.547480 -0.822785 0.257133
v -0.580829 -0.762159 0.191248
v -0.565990 -0.821564 0.245305
v -0.552325 -0.821179 0.259515
v -0.585328 -0.805115 0.220061
v -0.591094 -0.756117 0.212204
v -0.593868 -0.763111 0.202912
v -0.530336 -0.793810 0.280491
v -0.537203 -0.811180 0.271136
v -0.575591 -0.821080 0.227814
v -0.562248 -0.826206 0.242558
v -0.591279 -0.773323 0.197456
v -0.571772 -0.773323 0.183140
v -0.580829 -0.784487 0.191248
v -0.588868 -0.793810 0.200741
v -0.576697 -0.814861 0.231821
v -0.540318 -0.806266 0.275873
v -0.585515 -0.809875 0.214294
v -0.564491 -0.824347 0.244205
v -0.591094 -0.790528 0.212204
v -0.593119 -0.773323 0.209446
v -0.593166 -0.788266 0.203869
vn -0.11748196225775087 0.9929636810005391 0.014869995222866321
vn 0.07762500678931626 0.9343750817232512 0.3477320304136881
vn 0.035196002384300464 0.9985110676426368 0.04167600282327861
vn -0.035196002384300464 -0.9985110676426368 -0.04167600282327861
vn -0.07762500678931626 -0.9343750817232512 -0.3477320304136881
vn 0.11748196225775087 -0.9929636810005391 -0.014869995222866321
vn -0.2581079669491479 0.9255108814878764 0.2771459645113232
vn 0.2581079669491479 -0.9255108814878764 -0.2771459645113232
vn 0.27673807823607965 0.8827642495645506 0.3796621073335304
vn -0.27673807823607965 -0.8827642495645506 -0.3796621073335304
vn -0.17894494726940546 0.9534537190410669 -0.2427029284815249
vn 0.17894494726940546 -0.9534537190410669 0.2427029284815249
vn -0.40229205434543613 0.6899860932098825 0.6017310812875565
vn 0.40229205434543613 -0.6899860932098825 -0.6017310812875565
vn -0.5107291257203308 0.8387212064583793 0.18895104651191205
vn 0.5107291257203308 -0.8387212064583793 -0.18895104651191205
vn 0.2952809798196127 0.717337950974974 0.6310589568715393
vn -0.2952809798196127 -0.717337950974974 -0.6310589568715393
vn 0.21794907533781607 0.9268313203750573 0.30574810568704897
vn -0.21794907533781607 -0.9268313203750573 -0.30574810568704897
vn -0.3448310232576464 0.9151390617229288 -0.20883501408519106
vn 0.3448310232576464 -0.9151390617229288 0.20883501408519106
vn -0.2204159632372654 0.9121378478663654 -0.3455739423624179
vn 0.2204159632372654 -0.9121378478663654 0.3455739423624179
vn -0.5432817546779195 0.7063116810607946 0.4538377950668671
vn 0.5432817546779195 -0.7063116810607946 -0.4538377950668671
vn -0.21594403783491034 0.47448508313311505 0.853365149515561
vn 0.21594403783491034 -0.47448508313311505 -0.853365149515561
vn 0.47519304316439964 0.5983860543546988 0.6450780585959909
vn -0.47519304316439964 -0.5983860543546988 -0.6450780585959909
vn 0.40932507683912467 0.7344161378657119 0.5413741016275682
vn -0.40932507683912467 -0.7344161378657119 -0.5413741016275682
vn 0.8061699900212279 0 -0.5916839926761355
vn -0.8061699900212279 0 0.5916839926761355
vn -0.3520328576354769 0.8016736757976195 -0.48310680462826583
vn 0.3520328576354769 -0.8016736757976195 0.48310680462826583
vn -0.7425054518332675 0.40813024835753486 0.5311453232153063
vn 0.7425054518332675 -0.40813024835753486 -0.5311453232153063
vn -0.7135018911174791 0.2501709618231634 0.65446890012609
vn 0.7135018911174791 -0.2501709618231634 -0.65446890012609
vn -0.7629778860488797 0.6253559066027896 0.16369097555267292
vn 0.7629778860488797 -0.6253559066027896 -0.16369097555267292
vn 0.38769690580730354 0.4031419020548725 0.828955798601483
vn -0.38769690580730354 -0.4031419020548725 -0.828955798601483
vn -0.5566509418394427 0.7029179265570303 -0.4427709537379647
vn 0.5566509418394427 -0.7029179265570303 0.4427709537379647
vn -0.39804196283542076 0.6925579353369076 -0.6016029438292381
vn 0.39804196283542076 -0.6925579353369076 0.6016029438292381
vn -0.6455150791830804 0.21002902576352692 0.7343010900741502
vn 0.6455150791830804 -0.21002902576352692 -0.7343010900741502
vn -0.13722298504345018 0.18738797957574174 0.9726538939860809
vn 0.13722298504345018 -0.18738797957574174 -0.9726538939860809
vn 0.5782398000212929 0.20855892787188837 0.7887597272149887
vn -0.5782398000212929 -0.20855892787188837 -0.7887597272149887
vn 0.5569108514159262 0.3921038953864985 0.7321918046508865
vn -0.5569108514159262 -0.3921038953864985 -0.7321918046508865
vn -0.2792259658974368 -0.8827668921854791 -0.37782995385468626
vn -0.22633705583803762 -0.9268312286520729 -0.2995920739102728
vn -0.029210001663202936 -0.998511056854722 -0.04607000262320321
vn 0.029210001663202936 0.998511056854722 0.04607000262320321
vn 0.22633705583803762 0.9268312286520729 0.2995920739102728
vn 0.2792259658974368 0.8827668921854791 0.37782995385468626
vn 0.26359095158875845 -0.912137832476325 0.3138859423515559
vn 0.17788304952673922 -0.9534532654633555 0.24348406779157383
vn -0.17788304952673922 0.9534532654633555 -0.24348406779157383
vn -0.26359095158875845 0.912137832476325 -0.3138859423515559
vn -0.49891996933388505 0.5345829671418592 -0.6821289580729448
vn 0.49891996933388505 -0.5345829671418592 0.6821289580729448
vn -0.39374504398880505 -0.7344160820482347 -0.5528090617592791
vn 0.39374504398880505 0.7344160820482347 0.5528090617592791
vn -0.7992672305750418 0.13058403767128027 0.5866171692291053
vn 0.7992672305750418 -0.13058403767128027 -0.5866171692291053
vn -0.7132479202242946 -0.25049197198285045 0.6546229267814117
vn 0.7132479202242946 0.25049197198285045 -0.6546229267814117
vn -0.5773733326147689 0.14878508571250867 0.8028094624846155
vn 0.5773733326147689 -0.14878508571250867 -0.8028094624846155
vn -0.8383583018476075 0.25048809018725104 0.4841601743199655
vn 0.8383583018476075 -0.25048809018725104 -0.4841601743199655
vn -0.8940480895174634 0.44411004446696456 -0.05868800587619547
vn 0.8940480895174634 -0.44411004446696456 0.05868800587619547
vn 0.45145076390733874 0.006611996542161241 0.8922715333737857
vn -0.45145076390733874 -0.006611996542161241 -0.8922715333737857
vn 0.3553329124099149 -0.8016748023859831 0.4806828815109631
vn 0.4545851190563128 -0.6925581813817041 0.5601031466915933
vn -0.4545851190563128 0.6925581813817041 -0.5601031466915933
vn -0.3553329124099149 0.8016748023859831 -0.4806828815109631
vn -0.3085041126863923 -0.9343693412943485 -0.17826706511508816
vn 0.3085041126863923 0.9343693412943485 0.17826706511508816
vn -0.05217301133821396 -0.9955342163490216 0.07867401709739968
vn 0.05217301133821396 0.9955342163490216 -0.07867401709739968
vn -0.6742818640256816 0.3818559229957062 -0.6320838725352431
vn 0.6742818640256816 -0.3818559229957062 0.6320838725352431
vn -0.47292813656038385 -0.5983851727867354 -0.6467411867497785
vn 0.47292813656038385 0.5983851727867354 0.6467411867497785
vn -0.5203571904671578 0.37357813674139095 -0.7678982810750109
vn 0.5203571904671578 -0.37357813674139095 0.7678982810750109
vn -0.7992669174569123 -0.1305869865138257 0.5866169394180187
vn 0.7992669174569123 0.1305869865138257 -0.5866169394180187
vn -0.6248182395100597 -0.25511409779226824 0.7379152828632747
vn 0.6248182395100597 0.25511409779226824 -0.7379152828632747
vn -0.5771300347461148 -0.13574700817264904 0.805291048482549
vn 0.5771300347461148 0.13574700817264904 -0.805291048482549
vn -0.8913022554147304 0.2551130731061055 0.3748301074126429
vn 0.8913022554147304 -0.2551130731061055 -0.3748301074126429
vn -0.560318285733262 0.006926003531902367 0.8282484223637343
vn 0.560318285733262 -0.006926003531902367 -0.8282484223637343
vn -0.1323450167155075 -0.1429390180535567 0.9808431238829464
vn 0.1323450167155075 0.1429390180535567 -0.9808431238829464
vn 0.5799487876906468 -0.18980293051638666 0.7922337099767598
vn -0.5799487876906468 0.18980293051638666 -0.7922337099767598
vn 0.6072289355821218 0 0.7945269157126166
vn -0.6072289355821218 0 -0.7945269157126166
vn 0.5011617974331988 -0.5345827839246228 0.6804837249522765
vn -0.5011617974331988 0.5345827839246228 -0.6804837249522765
vn -0.5134949610488412 -0.7173409455861045 -0.4708979642800364
vn 0.5134949610488412 0.7173409455861045 0.4708979642800364
vn 0.09053996728999814 -0.9170766686813523 0.3882948597180231
vn -0.09053996728999814 0.9170766686813523 -0.3882948597180231
vn -0.5819072184846709 0.18980307126404408 -0.7907962969148058
vn 0.5819072184846709 -0.18980307126404408 0.7907962969148058
vn -0.5315339714404147 -0.3921039789320576 -0.7508169596582306
vn 0.5315339714404147 0.3921039789320576 0.7508169596582306
vn -0.7406821147472228 -0.39530506124106024 0.5432530841613175
vn 0.7406821147472228 0.39530506124106024 -0.5432530841613175
vn -0.38001102328764613 -0.6650540407555104 0.6428800393966541
vn 0.38001102328764613 0.6650540407555104 -0.6428800393966541
vn -0.8940578630084415 -0.21002896781841895 0.3956619393749018
vn 0.8940578630084415 0.21002896781841895 -0.3956619393749018
vn -0.9412794289321914 0.13574706185866053 0.30913714087089045
vn 0.9412794289321914 -0.13574706185866053 -0.30913714087089045
vn -0.9754000319531301 0.14293900468253895 -0.16781900549758283
vn 0.9754000319531301 -0.14293900468253895 0.16781900549758283
vn 0.40084384234794734 -0.381855849815933 0.8327726724701557
vn -0.40084384234794734 0.381855849815933 -0.8327726724701557
vn 0.576558036914706 -0.3735780239187075 0.7266500465244972
vn -0.576558036914706 0.3735780239187075 -0.7266500465244972
vn 0.2555050985040053 -0.7029212709948298 0.6637912559091689
vn -0.2555050985040053 0.7029212709948298 -0.6637912559091689
vn -0.6946497934750899 -0.6899957948587607 0.20338993953055268
vn 0.6946497934750899 0.6899957948587607 -0.20338993953055268
vn -0.29414393200775557 -0.9312027847497076 0.21526895023994191
vn 0.29414393200775557 0.9312027847497076 -0.21526895023994191
vn -0.7158711228395581 -0.006613001134754566 -0.6982011198074825
vn 0.7158711228395581 0.006613001134754566 0.6982011198074825
vn -0.5791058632696472 -0.2085599507577499 -0.7881238139192608
vn 0.5791058632696472 0.2085599507577499 0.7881238139192608
vn -0.674580746545895 -0.40314084853154564 -0.6183997676542646
vn 0.674580746545895 0.40314084853154564 0.6183997676542646
vn -0.5759159412171267 0 -0.8175089165580954
vn 0.5759159412171267 0 0.8175089165580954
vn -0.8382781978923574 -0.2501760590590693 0.4844601143665126
vn 0.8382781978923574 0.2501760590590693 -0.4844601143665126
vn -0.2120669189690337 -0.44411183030445817 0.8705126673763027
vn 0.2120669189690337 0.44411183030445817 -0.8705126673763027
vn -0.878850750220985 -0.47448586514591695 -0.04984498583350885
vn 0.878850750220985 0.47448586514591695 0.04984498583350885
vn -0.5708422160912201 -0.7067722675472791 0.4178661581824283
vn 0.5708422160912201 0.7067722675472791 -0.4178661581824283
vn -0.9389851964122491 -0.14878403112190303 0.31011306486790713
vn 0.9389851964122491 0.14878403112190303 -0.31011306486790713
vn -0.9581407129636016 -0.006925997925134156 0.2862139142570502
vn 0.9581407129636016 0.006925997925134156 -0.2862139142570502
vn -0.9690500892543625 -0.187387017259282 -0.16071101480228872
vn 0.9690500892543625 0.187387017259282 0.16071101480228872
usemtl material_0_0
f 1//1 2//2 3//3
f 3//4 2//5 1//6
f 4//7 2//2 1//1
f 1//6 2//5 4//8
f 2//2 5//9 3//3
f 3//4 5//10 2//5
f 6//11 1//1 3//3
f 3//4 1//6 6//12
f 4//7 7//13 2//2
f 2//5 7//14 4//8
f 8//15 4//7 1//1
f 1//6 4//8 8//16
f 2//2 9//17 5//9
f 5//10 9//18 2//5
f 3//3 5//9 10//19
f 10//20 5//10 3//4
f 11//21 1//1 6//11
f 6//12 1//6 11//22
f 6//11 3//3 12//23
f 12//24 3//4 6//12
f 13//25 7//13 4//7
f 4//8 7//14 13//26
f 14//27 2//2 7//13
f 7//14 2//5 14//28
f 8//15 13//25 4//7
f 4//8 13//26 8//16
f 11//21 8//15 1//1
f 1//6 8//16 11//22
f 2//2 14//27 9//17
f 9//18 14//28 2//5
f 9//17 15//29 5//9
f 5//10 15//30 9//18
f 5//9 16//31 10//19
f 10//20 16//32 5//10
f 17//33 3//33 10//33
f 10//34 3//34 17//34
f 11//21 6//11 18//35
f 18//36 6//12 11//22
f 19//33 12//33 3//33
f 3//34 12//34 19//34
f 18//35 6//11 12//23
f 12//24 6//12 18//36
f 7//13 13//25 20//37
f 20//38 13//26 7//14
f 21//39 14//27 7//13
f 7//14 14//28 21//40
f 20//37 13//25 8//15
f 8//16 13//26 20//38
f 22//41 8//15 11//21
f 11//22 8//16 22//42
f 9//17 14//27 23//43
f 23//44 14//28 9//18
f 9//17 23//43 15//29
f 15//30 23//44 9//18
f 5//9 15//29 16//31
f 16//32 15//30 5//10
f 24//33 10//33 16//33
f 16//34 10//34 24//34
f 19//33 3//33 17//33
f 17//34 3//34 19//34
f 17//33 10//33 24//33
f 24//34 10//34 17//34
f 25//45 11//21 18//35
f 18//36 11//22 25//46
f 26//33 12//33 19//33
f 19//34 12//34 26//34
f 18//35 12//23 27//47
f 27//48 12//24 18//36
f 7//13 20//37 21//39
f 21//40 20//38 7//14
f 14//27 21//39 28//49
f 28//50 21//40 14//28
f 20//37 8//15 22//41
f 22//42 8//16 20//38
f 25//45 22//41 11//21
f 11//22 22//42 25//46
f 14//27 29//51 23//43
f 23//44 29//52 14//28
f 15//29 23//43 30//53
f 30//54 23//44 15//30
f 16//31 15//29 31//55
f 31//56 15//30 16//32
f 24//33 16//33 32//33
f 32//34 16//34 24//34
f 33//57 19//58 17//59
f 17//60 19//61 33//62
f 17//59 24//63 34//64
f 34//65 24//66 17//60
f 25//45 18//35 35//67
f 35//68 18//36 25//46
f 26//33 27//33 12//33
f 12//34 27//34 26//34
f 33//57 26//69 19//58
f 19//61 26//70 33//62
f 35//67 18//35 27//47
f 27//48 18//36 35//68
f 21//39 20//37 36//71
f 36//72 20//38 21//40
f 21//39 37//73 28//49
f 28//50 37//74 21//40
f 14//27 28//49 38//75
f 38//76 28//50 14//28
f 20//37 22//41 39//77
f 39//78 22//42 20//38
f 40//79 22//41 25//45
f 25//46 22//42 40//80
f 14//27 38//75 29//51
f 29//52 38//76 14//28
f 23//43 29//51 41//81
f 41//82 29//52 23//44
f 23//43 41//81 30//53
f 30//54 41//82 23//44
f 15//29 30//53 31//55
f 31//56 30//54 15//30
f 32//33 16//33 31//33
f 31//34 16//34 32//34
f 42//83 24//63 32//84
f 32//85 24//66 42//86
f 43//87 33//57 17//59
f 17//60 33//62 43//88
f 34//64 24//63 42//83
f 42//86 24//66 34//65
f 44//89 17//59 34//64
f 34//65 17//60 44//90
f 25//45 35//67 45//91
f 45//92 35//68 25//46
f 46//33 27//33 26//33
f 26//34 27//34 46//34
f 47//93 26//69 33//57
f 33//62 26//70 47//94
f 27//47 48//95 35//67
f 35//68 48//96 27//48
f 36//71 20//37 39//77
f 39//78 20//38 36//72
f 36//71 49//97 21//39
f 21//40 49//98 36//72
f 21//39 49//97 37//73
f 37//74 49//98 21//40
f 28//49 37//73 50//99
f 50//100 37//74 28//50
f 28//49 51//101 38//75
f 38//76 51//102 28//50
f 39//77 22//41 52//103
f 52//104 22//42 39//78
f 22//41 40//79 52//103
f 52//104 40//80 22//42
f 40//79 25//45 45//91
f 45//92 25//46 40//80
f 38//75 53//105 29//51
f 29//52 53//106 38//76
f 29//51 54//107 41//81
f 41//82 54//108 29//52
f 30//53 41//81 55//109
f 55//110 41//82 30//54
f 31//55 30//53 56//111
f 56//112 30//54 31//56
f 32//33 31//33 57//33
f 57//34 31//34 32//34
f 42//83 32//84 58//113
f 58//114 32//85 42//86
f 59//115 33//57 43//87
f 43//88 33//62 59//116
f 43//87 17//59 44//89
f 44//90 17//60 43//88
f 60//117 34//64 42//83
f 42//86 34//65 60//118
f 44//89 34//64 60//117
f 60//118 34//65 44//90
f 35//67 61//119 45//91
f 45//92 61//120 35//68
f 46//33 48//33 27//33
f 27//34 48//34 46//34
f 46//121 26//69 47//93
f 47//94 26//70 46//122
f 59//115 47//93 33//57
f 33//62 47//94 59//116
f 35//67 48//95 61//119
f 61//120 48//96 35//68
f 39//77 49//97 36//71
f 36//72 49//98 39//78
f 37//73 49//97 62//123
f 62//124 49//98 37//74
f 50//99 37//73 63//125
f 63//126 37//74 50//100
f 28//49 50//99 51//101
f 51//102 50//100 28//50
f 38//75 51//101 53//105
f 53//106 51//102 38//76
f 52//103 64//127 39//77
f 39//78 64//128 52//104
f 52//103 40//79 65//129
f 65//130 40//80 52//104
f 40//79 45//91 66//131
f 66//132 45//92 40//80
f 29//51 53//105 54//107
f 54//108 53//106 29//52
f 41//81 54//107 67//133
f 67//134 54//108 41//82
f 41//81 67//133 55//109
f 55//110 67//134 41//82
f 30//53 55//109 56//111
f 56//112 55//110 30//54
f 57//33 31//33 56//33
f 56//34 31//34 57//34
f 57//135 58//113 32//84
f 32//85 58//114 57//136
f 68//137 42//83 58//113
f 58//114 42//86 68//138
f 69//139 59//115 43//87
f 43//88 59//116 69//140
f 43//87 44//89 70//141
f 70//142 44//90 43//88
f 60//117 42//83 68//137
f 68//138 42//86 60//118
f 70//141 44//89 60//117
f 60//118 44//90 70//142
f 45//91 61//119 71//143
f 71//144 61//120 45//92
f 48//33 46//33 72//33
f 72//34 46//34 48//34
f 73//145 46//121 47//93
f 47//94 46//122 73//146
f 74//147 47//93 59//115
f 59//116 47//94 74//148
f 48//95 72//149 61//119
f 61//120 72//150 48//96
f 39//77 75//151 49//97
f 49//98 75//152 39//78
f 49//97 75//151 62//123
f 62//124 75//152 49//98
f 37//73 62//123 63//125
f 63//126 62//124 37//74
f 50//99 63//125 76//153
f 76//154 63//126 50//100
f 51//101 50//99 76//153
f 76//154 50//100 51//102
f 53//105 51//101 54//107
f 54//108 51//102 53//106
f 65//129 64//127 52//103
f 52//104 64//128 65//130
f 39//77 64//127 75//151
f 75//152 64//128 39//78
f 65//129 40//79 66//131
f 66//132 40//80 65//130
f 66//131 45//91 71//143
f 71//144 45//92 66//132
f 54//107 76//153 67//133
f 67//134 76//154 54//108
f 55//109 67//133 58//113
f 58//114 67//134 55//110
f 56//111 55//109 57//135
f 57//136 55//110 56//112
f 55//109 58//113 57//135
f 57//136 58//114 55//110
f 67//133 68//137 58//113
f 58//114 68//138 67//134
f 59//115 69//139 77//155
f 77//156 69//140 59//116
f 69//139 43//87 70//141
f 70//142 43//88 69//140
f 63//125 60//117 68//137
f 68//138 60//118 63//126
f 70//141 60//117 63//125
f 63//126 60//118 70//142
f 61//119 73//145 71//143
f 71//144 73//146 61//120
f 72//149 46//121 73//145
f 73//146 46//122 72//150
f 73//145 47//93 74//147
f 74//148 47//94 73//146
f 77//155 74//147 59//115
f 59//116 74//148 77//156
f 61//119 72//149 73//145
f 73//146 72//150 61//120
f 62//123 75//151 69//139
f 69//140 75//152 62//124
f 63//125 62//123 78//157
f 78//158 62//124 63//126
f 63//125 68//137 76//153
f 76//154 68//138 63//126
f 54//107 51//101 76//153
f 76//154 51//102 54//108
f 65//129 79//159 64//127
f 64//128 79//160 65//130
f 64//127 69//139 75//151
f 75//152 69//140 64//128
f 65//129 66//131 80//161
f 80//162 66//132 65//130
f 81//163 66//131 71//143
f 71//144 66//132 81//164
f 67//133 76//153 68//137
f 68//138 76//154 67//134
f 69//139 64//127 77//155
f 77//156 64//128 69//140
f 69//139 70//141 78//157
f 78//158 70//142 69//140
f 78//157 70//141 63//125
f 63//126 70//142 78//158
f 71//143 73//145 74//147
f 74//148 73//146 71//144
f 77//155 81//163 74//147
f 74//148 81//164 77//156
f 62//123 69//139 78//157
f 78//158 69//140 62//124
f 79//159 65//129 80//161
f 80//162 65//130 79//160
f 64//127 79//159 77//155
f 77//156 79//160 64//128
f 80//161 66//131 81//163
f 81//164 66//132 80//162
f 81//163 71//143 74//147
f 74//148 71//144 81//164
f 77//155 79//159 81//163
f 81//164 79//160 77//156
f 79//159 80//161 81//163
f 81//164 80//162 79//160
