# SSTK version 0.8.0
# 17
mtllib original-17.mtl
o mesh17/mesh17-geometry#mesh17-geometry
v 0.511373 -0.732651 0.228521
v 0.503994 -0.755166 0.233883
v 0.513634 -0.766385 0.227704
v 0.510299 -0.695642 0.229027
v 0.521054 -0.732651 0.226789
v 0.503994 -0.695642 0.233883
v 0.518600 -0.695642 0.226789
v 0.517778 -0.768650 0.226861
v 0.498693 -0.741862 0.246127
v 0.527095 -0.695642 0.228045
v 0.520060 -0.768914 0.226755
v 0.498642 -0.725404 0.246797
v 0.530237 -0.732651 0.229503
v 0.522295 -0.768407 0.226911
v 0.499322 -0.736715 0.253604
v 0.499907 -0.695642 0.240726
v 0.533897 -0.695642 0.232136
v 0.500845 -0.695642 0.257596
v 0.498637 -0.695642 0.249262
v 0.529162 -0.763194 0.228931
v 0.536827 -0.732651 0.235363
v 0.503008 -0.733270 0.261060
v 0.537308 -0.751945 0.236064
v 0.538717 -0.695642 0.238458
v 0.502736 -0.725404 0.260691
v 0.540943 -0.740771 0.247165
v 0.505665 -0.695642 0.263918
v 0.509325 -0.725404 0.266551
v 0.540920 -0.732651 0.249257
v 0.510035 -0.731498 0.266930
v 0.540926 -0.695642 0.246792
v 0.539875 -0.735933 0.254753
v 0.512467 -0.695642 0.268009
v 0.518508 -0.725404 0.269265
v 0.539656 -0.695642 0.255328
v 0.535568 -0.732797 0.262171
v 0.518992 -0.731028 0.269288
v 0.520962 -0.695642 0.269265
v 0.528146 -0.725404 0.267552
v 0.535568 -0.695642 0.262171
v 0.528135 -0.731330 0.267550
v 0.529263 -0.695642 0.267027
vn 0.3553710924272357 0.0033650008751912063 0.9347192431078881
vn 0.6834212769678051 0.0057850023444679655 0.7300012958451302
vn 0.312597023245497 -0.0035850002665898024 0.9498790706353849
vn -0.312597023245497 0.0035850002665898024 -0.9498790706353849
vn -0.6834212769678051 -0.0057850023444679655 -0.7300012958451302
vn -0.3553710924272357 -0.0033650008751912063 -0.9347192431078881
vn 0.48997986095451473 -0.00001999999432463598 0.8717337526211741
vn -0.48997986095451473 0.00001999999432463598 -0.8717337526211741
vn -0.024605003571108962 -0.0024920003616829504 0.9996941450931195
vn 0.024605003571108962 0.0024920003616829504 -0.9996941450931195
vn 0.8493490946913878 0.014400001605412948 0.5276350588244529
vn -0.8493490946913878 -0.014400001605412948 -0.5276350588244529
vn 0.09824296864369847 -0.001242999603270858 0.9951616823733015
vn -0.09824296864369847 0.001242999603270858 -0.9951616823733015
vn 0.11892203017640951 -0.008839002242892902 0.9928642519388393
vn -0.11892203017640951 0.008839002242892902 -0.9928642519388393
vn 0.973515144636616 -0.0017240002561373737 0.2286160339658296
vn -0.973515144636616 0.0017240002561373737 -0.2286160339658296
vn -0.3192689876369473 -0.002028999921431248 0.9476619633036866
vn 0.3192689876369473 0.002028999921431248 -0.9476619633036866
vn -0.011917997608242852 -0.0005979998799909273 0.9999287993298092
vn 0.011917997608242852 0.0005979998799909273 -0.9999287993298092
vn 0.9956166393712909 0.008511996916814807 0.09313996626317353
vn -0.9956166393712909 -0.008511996916814807 -0.09313996626317353
vn -0.4893999132281796 0.0031329994445112217 0.8720538453826868
vn 0.4893999132281796 -0.0031329994445112217 -0.8720538453826868
vn -0.21090702160500002 -0.004643000475622245 0.9774951001331369
vn 0.21090702160500002 0.004643000475622245 -0.9774951001331369
vn 0.9737591274232065 -0.002142000280295698 -0.2275710297792642
vn -0.9737591274232065 0.002142000280295698 0.2275710297792642
vn 0.9414062421127712 0.02855200734306322 0.33606408642964497
vn -0.9414062421127712 -0.02855200734306322 -0.33606408642964497
vn -0.6662918125957928 -0.002535999286713695 0.7456867902648073
vn 0.6662918125957928 0.002535999286713695 -0.7456867902648073
vn 0.9294720451305163 -0.0010650000517109968 -0.36889101791150386
vn -0.9294720451305163 0.0010650000517109968 0.36889101791150386
vn 0.9984398707919047 0.004785999380643873 -0.05563199280066428
vn -0.9984398707919047 -0.004785999380643873 0.05563199280066428
vn -0.4834271954880871 0.0006160002490977287 0.875384353987559
vn 0.4834271954880871 -0.0006160002490977287 -0.875384353987559
vn -0.8234079942176175 0.004234999970259587 0.5674339960151947
vn 0.8234079942176175 -0.004234999970259587 -0.5674339960151947
vn 0.7452364048587299 0.008326004523203246 -0.6667483622191472
vn -0.7452364048587299 -0.008326004523203246 0.6667483622191472
vn -0.7820217803621757 0.00279699921443757 0.6232448249561063
vn 0.7820217803621757 -0.00279699921443757 -0.6232448249561063
vn -0.9428407636963203 -0.0006729998313264838 0.3332429164795049
vn 0.9428407636963203 0.0006729998313264838 -0.3332429164795049
vn 0.7642106194862536 0.0003349998331979053 -0.6449666788598836
vn -0.7642106194862536 -0.0003349998331979053 0.6449666788598836
vn -0.9880876444021421 0.004548998362883985 0.15382494464071977
vn 0.9880876444021421 -0.004548998362883985 -0.15382494464071977
vn 0.6662900279492016 -0.00315300013226031 -0.7456860312796654
vn -0.6662900279492016 0.00315300013226031 0.7456860312796654
vn 0.5175461528345068 0.0013340003939385685 -0.8556542526798722
vn -0.5175461528345068 -0.0013340003939385685 0.8556542526798722
vn -0.9914393831983356 -0.049132018989872905 -0.1209710467561654
vn 0.9914393831983356 0.049132018989872905 0.1209710467561654
vn 0.39918817002525553 0.006000002555566837 -0.916849390511452
vn -0.39918817002525553 -0.006000002555566837 0.916849390511452
vn -0.9984435891500328 0.003848998416174031 0.05563797710550569
vn 0.9984435891500328 -0.003848998416174031 -0.05563797710550569
vn -0.9508520234114033 -0.15034300370167025 -0.2706980066649911
vn 0.9508520234114033 0.15034300370167025 0.2706980066649911
vn 0.3192689304220489 -0.002523999449947174 -0.9476607934772535
vn -0.3192689304220489 0.002523999449947174 0.9476607934772535
vn 0.10493995508130137 -0.001399999400741364 -0.9944775743219212
vn -0.10493995508130137 0.001399999400741364 0.9944775743219212
vn -0.9359401703668648 0.007267001322794282 -0.3520840640889878
vn 0.9359401703668648 -0.007267001322794282 0.3520840640889878
vn -0.7686471402927203 -0.05080700927324524 -0.6376521163836373
vn 0.7686471402927203 0.05080700927324524 0.6376521163836373
vn -0.03682898433755702 -0.00012499994684043704 -0.9993215750136076
vn 0.03682898433755702 0.00012499994684043704 0.9993215750136076
vn -0.09786998360046649 -0.001654999722680601 -0.9951978332401866
vn 0.09786998360046649 0.001654999722680601 0.9951978332401866
vn -0.3343109158890557 -0.00038999990187777773 -0.942462762881111
vn 0.3343109158890557 0.00038999990187777773 0.942462762881111
vn -0.7475253349235687 0 -0.664233297605146
vn 0.7475253349235687 0 0.664233297605146
vn -0.3958769994176649 0.0010019999985262618 -0.9183029986491763
vn 0.3958769994176649 -0.0010019999985262618 0.9183029986491763
vn -0.49191390964821285 0.00009599998236749418 -0.870643840085378
vn 0.49191390964821285 -0.00009599998236749418 0.870643840085378
usemtl material_0_0
f 1//1 2//2 3//3
f 3//4 2//5 1//6
f 4//7 2//2 1//1
f 1//6 2//5 4//8
f 5//9 1//1 3//3
f 3//4 1//6 5//10
f 4//7 6//11 2//2
f 2//5 6//12 4//8
f 7//13 4//7 1//1
f 1//6 4//8 7//14
f 7//13 1//1 5//9
f 5//10 1//6 7//14
f 5//9 3//3 8//15
f 8//16 3//4 5//10
f 9//17 2//2 6//11
f 6//12 2//5 9//18
f 10//19 7//13 5//9
f 5//10 7//14 10//20
f 5//9 8//15 11//21
f 11//22 8//16 5//10
f 12//23 9//17 6//11
f 6//12 9//18 12//24
f 10//19 5//9 13//25
f 13//26 5//10 10//20
f 5//9 11//21 14//27
f 14//28 11//22 5//10
f 15//29 9//17 12//23
f 12//24 9//18 15//30
f 12//23 6//11 16//31
f 16//32 6//12 12//24
f 13//25 5//9 14//27
f 14//28 5//10 13//26
f 10//19 13//25 17//33
f 17//34 13//26 10//20
f 18//35 15//29 12//23
f 12//24 15//30 18//36
f 19//37 12//23 16//31
f 16//32 12//24 19//38
f 13//25 14//27 20//39
f 20//40 14//28 13//26
f 17//33 13//25 21//41
f 21//42 13//26 17//34
f 18//35 22//43 15//29
f 15//30 22//44 18//36
f 18//35 12//23 19//37
f 19//38 12//24 18//36
f 13//25 20//39 23//45
f 23//46 20//40 13//26
f 21//41 13//25 23//45
f 23//46 13//26 21//42
f 24//47 17//33 21//41
f 21//42 17//34 24//48
f 22//43 18//35 25//49
f 25//50 18//36 22//44
f 26//51 21//41 23//45
f 23//46 21//42 26//52
f 26//51 24//47 21//41
f 21//42 24//48 26//52
f 27//53 25//49 18//35
f 18//36 25//50 27//54
f 28//55 22//43 25//49
f 25//50 22//44 28//56
f 29//57 24//47 26//51
f 26//52 24//48 29//58
f 27//53 28//55 25//49
f 25//50 28//56 27//54
f 28//55 30//59 22//43
f 22//44 30//60 28//56
f 29//57 31//61 24//47
f 24//48 31//62 29//58
f 32//63 29//57 26//51
f 26//52 29//58 32//64
f 33//65 28//55 27//53
f 27//54 28//56 33//66
f 34//67 30//59 28//55
f 28//56 30//60 34//68
f 35//69 31//61 29//57
f 29//58 31//62 35//70
f 36//71 29//57 32//63
f 32//64 29//58 36//72
f 33//65 34//67 28//55
f 28//56 34//68 33//66
f 34//67 37//73 30//59
f 30//60 37//74 34//68
f 36//71 35//69 29//57
f 29//58 35//70 36//72
f 38//75 34//67 33//65
f 33//66 34//68 38//76
f 39//77 37//73 34//67
f 34//68 37//74 39//78
f 40//79 35//69 36//71
f 36//72 35//70 40//80
f 38//75 39//77 34//67
f 34//68 39//78 38//76
f 39//77 41//81 37//73
f 37//74 41//82 39//78
f 42//83 40//79 36//71
f 36//72 40//80 42//84
f 42//83 39//77 38//75
f 38//76 39//78 42//84
f 39//77 36//71 41//81
f 41//82 36//72 39//78
f 42//83 36//71 39//77
f 39//78 36//72 42//84
