# SSTK version 0.8.0
# 40
mtllib original-40.mtl
o mesh40/mesh40-geometry#mesh40-geometry
v 0.059761 -0.561187 0.060499
v 0.059761 -0.561187 0.103328
v 0.063845 -0.561187 0.081914
v 0.046806 -0.561187 0.040776
v 0.062566 -0.624863 0.094046
v 0.062566 -0.624863 0.069782
v 0.051370 -0.624863 0.045915
v 0.046806 -0.561187 0.123051
v 0.055272 -0.624863 0.112312
v 0.030133 -0.624863 0.029130
v 0.027083 -0.561187 0.027821
v 0.059761 -0.688539 0.103328
v 0.063845 -0.688539 0.081914
v 0.059761 -0.688539 0.060499
v 0.046806 -0.688539 0.040776
v 0.027083 -0.561187 0.136006
v 0.041667 -0.624863 0.127616
v 0.046806 -0.688539 0.123051
v 0.027083 -0.688539 0.027821
v 0.005668 -0.561187 0.023736
v 0.027083 -0.688539 0.136006
v 0.005668 -0.561187 0.140091
v 0.024000 -0.624863 0.137127
v 0.005668 -0.688539 0.140091
v 0.005668 -0.688539 0.023736
v -0.015747 -0.561187 0.027821
v -0.012664 -0.624863 0.026700
v -0.015747 -0.561187 0.136006
v -0.015747 -0.688539 0.027821
v -0.030331 -0.624863 0.036212
v -0.035469 -0.561187 0.040776
v -0.018797 -0.624863 0.134697
v -0.015747 -0.688539 0.136006
v -0.035469 -0.561187 0.123051
v -0.035469 -0.688539 0.123051
v -0.035469 -0.688539 0.040776
v -0.043936 -0.624863 0.051515
v -0.048424 -0.561187 0.060499
v -0.040034 -0.624863 0.117913
v -0.048424 -0.561187 0.103328
v -0.048424 -0.688539 0.103328
v -0.048424 -0.688539 0.060499
v -0.051230 -0.624863 0.069782
v -0.052509 -0.561187 0.081914
v -0.051230 -0.624863 0.094046
v -0.052509 -0.688539 0.081914
vn 0 1 0
vn 0 -1 0
vn 0.9274582797520655 0.007211002175076464 0.3738571127676595
vn 0.9821034853689207 0 0.188342093081228
vn 0.9999920119634045 0.00399700004781811 0
vn -0.9999920119634045 -0.00399700004781811 0
vn -0.9821034853689207 0 -0.188342093081228
vn -0.9274582797520655 -0.007211002175076464 -0.3738571127676595
vn 0.9782663821794021 0 -0.2073520810062533
vn 0.9198862067150118 0.0032280007253900353 -0.3921720881281372
vn -0.9198862067150118 -0.0032280007253900353 0.3921720881281372
vn -0.9782663821794021 0 0.2073520810062533
vn 0.802052935507728 0 -0.5972529519754893
vn 0.6787098548782744 0.001981999576209059 -0.7344038429697871
vn -0.6787098548782744 -0.001981999576209059 0.7344038429697871
vn -0.802052935507728 0 0.5972529519754893
vn 0.8458178038092 0 0.5334718762590789
vn -0.8458178038092 0 -0.5334718762590789
vn 0.46948711417669786 -0.00043900010676222834 -0.882939214725987
vn -0.46948711417669786 0.00043900010676222834 0.882939214725987
vn 0.7209730822305896 0.007256000827583069 0.6929250790315745
vn -0.7209730822305896 -0.007256000827583069 -0.6929250790315745
vn 0.9274582797520655 -0.0072110021750766305 0.3738571127676595
vn -0.9274582797520655 0.0072110021750766305 -0.3738571127676595
vn 0.9999920119634045 -0.00399700004781811 0
vn -0.9999920119634045 0.00399700004781811 0
vn 0.9198862067150118 -0.003228000725389861 -0.3921720881281372
vn -0.9198862067150118 0.003228000725389861 0.3921720881281372
vn 0.6787098548782744 -0.001981999576208733 -0.7344038429697871
vn -0.6787098548782744 0.001981999576208733 0.7344038429697871
vn 0.37540216238887475 -0.0010770004658812176 -0.9268614009353037
vn -0.37540216238887475 0.0010770004658812176 0.9268614009353037
vn 0.5967311656400633 0 0.8024412227408632
vn -0.5967311656400633 0 -0.8024412227408632
vn 0.7209730822305896 -0.007256000827583376 0.6929250790315745
vn -0.7209730822305896 0.007256000827583376 -0.6929250790315745
vn 0.3293490763520172 -0.00015900003686029616 -0.9442082188929842
vn -0.3293490763520172 0.00015900003686029616 0.9442082188929842
vn 0.053832018638559104 0.001148000397478782 -0.9985493457332917
vn -0.053832018638559104 -0.001148000397478782 0.9985493457332917
vn 0.40924202715546026 0.005538000367476593 0.9124090605433615
vn -0.40924202715546026 -0.005538000367476593 -0.9124090605433615
vn 0.30005798835700015 0 0.9539209629854827
vn -0.30005798835700015 0 -0.9539209629854827
vn 0.40924202715546026 -0.005538000367476999 0.9124090605433615
vn -0.40924202715546026 0.005538000367476999 -0.9124090605433615
vn -0.05398798446363699 -0.002780999199699239 -0.9985377126463503
vn 0.05398798446363699 0.002780999199699239 0.9985377126463503
vn -0.053832018638559104 0.0011480003974783384 0.9985493457332917
vn 0.053832018638559104 -0.0011480003974783384 -0.9985493457332917
vn 0.05398798446363699 -0.0027809991996996823 0.9985377126463503
vn -0.05398798446363699 0.0027809991996996823 -0.9985377126463503
vn -0.37540216238887475 -0.0010770004658816291 0.9268614009353037
vn -0.46948711417669786 -0.0004390001067626205 0.882939214725987
vn 0.46948711417669786 0.0004390001067626205 -0.882939214725987
vn 0.37540216238887475 0.0010770004658816291 -0.9268614009353037
vn -0.3293490763520172 -0.00015900003686071548 0.9442082188929842
vn 0.3293490763520172 0.00015900003686071548 -0.9442082188929842
usemtl material_0_0
f 1//1 2//1 3//1
f 2//1 1//1 4//1
f 3//2 2//2 1//2
f 4//2 1//2 2//2
f 2//3 5//4 3//5
f 3//6 5//7 2//8
f 3//5 6//9 1//10
f 1//11 6//12 3//6
f 1//10 7//13 4//14
f 4//15 7//16 1//11
f 2//1 4//1 8//1
f 8//2 4//2 2//2
f 9//17 5//4 2//3
f 2//8 5//7 9//18
f 5//4 6//9 3//5
f 3//6 6//12 5//7
f 6//9 7//13 1//10
f 1//11 7//16 6//12
f 4//14 7//13 10//19
f 10//20 7//16 4//15
f 8//1 4//1 11//1
f 11//2 4//2 8//2
f 8//21 9//17 2//3
f 2//8 9//18 8//22
f 9//17 12//23 5//4
f 5//7 12//24 9//18
f 5//4 13//25 6//9
f 6//12 13//26 5//7
f 6//9 14//27 7//13
f 7//16 14//28 6//12
f 7//13 15//29 10//19
f 10//20 15//30 7//16
f 4//14 10//19 11//31
f 11//32 10//20 4//15
f 8//1 11//1 16//1
f 16//2 11//2 8//2
f 17//33 9//17 8//21
f 8//22 9//18 17//34
f 18//35 12//23 9//17
f 9//18 12//24 18//36
f 12//23 13//25 5//4
f 5//7 13//26 12//24
f 13//25 14//27 6//9
f 6//12 14//28 13//26
f 14//27 15//29 7//13
f 7//16 15//30 14//28
f 10//19 15//29 19//37
f 19//38 15//30 10//20
f 11//31 10//19 20//39
f 20//40 10//20 11//32
f 16//1 11//1 20//1
f 20//2 11//2 16//2
f 16//41 17//33 8//21
f 8//22 17//34 16//42
f 17//33 18//35 9//17
f 9//18 18//36 17//34
f 14//2 12//2 18//2
f 18//1 12//1 14//1
f 12//2 14//2 13//2
f 13//1 14//1 12//1
f 14//2 18//2 15//2
f 15//1 18//1 14//1
f 15//2 21//2 19//2
f 19//1 21//1 15//1
f 20//39 10//19 19//37
f 19//38 10//20 20//40
f 16//1 20//1 22//1
f 22//2 20//2 16//2
f 16//41 23//43 17//33
f 17//34 23//44 16//42
f 17//33 21//45 18//35
f 18//36 21//46 17//34
f 15//2 18//2 21//2
f 21//1 18//1 15//1
f 19//2 21//2 24//2
f 24//1 21//1 19//1
f 20//39 19//37 25//47
f 25//48 19//38 20//40
f 22//1 20//1 26//1
f 26//2 20//2 22//2
f 22//49 23//43 16//41
f 16//42 23//44 22//50
f 23//43 21//45 17//33
f 17//34 21//46 23//44
f 23//43 24//51 21//45
f 21//46 24//52 23//44
f 19//2 24//2 25//2
f 25//1 24//1 19//1
f 20//39 25//47 27//44
f 27//43 25//48 20//40
f 20//39 27//44 26//46
f 26//45 27//43 20//40
f 22//1 26//1 28//1
f 28//2 26//2 22//2
f 22//49 24//51 23//43
f 23//44 24//52 22//50
f 25//2 24//2 29//2
f 29//1 24//1 25//1
f 27//44 25//47 29//42
f 29//41 25//48 27//43
f 26//46 27//44 30//34
f 30//33 27//43 26//45
f 28//1 26//1 31//1
f 31//2 26//2 28//2
f 22//49 28//53 32//54
f 32//55 28//56 22//50
f 22//49 33//57 24//51
f 24//52 33//58 22//50
f 29//2 24//2 33//2
f 33//1 24//1 29//1
f 27//44 29//42 30//34
f 30//33 29//41 27//43
f 26//46 30//34 31//36
f 31//35 30//33 26//45
f 28//1 31//1 34//1
f 34//2 31//2 28//2
f 28//53 34//30 32//54
f 32//55 34//29 28//56
f 22//49 32//54 33//57
f 33//58 32//55 22//50
f 29//2 33//2 35//2
f 35//1 33//1 29//1
f 30//34 29//42 36//22
f 36//21 29//41 30//33
f 37//18 31//36 30//34
f 30//33 31//35 37//17
f 34//1 31//1 38//1
f 38//2 31//2 34//2
f 34//30 39//16 32//54
f 32//55 39//13 34//29
f 32//54 35//15 33//57
f 33//58 35//14 32//55
f 29//2 35//2 36//2
f 36//1 35//1 29//1
f 37//18 30//34 36//22
f 36//21 30//33 37//17
f 38//24 31//36 37//18
f 37//17 31//35 38//23
f 34//1 38//1 40//1
f 40//2 38//2 34//2
f 34//30 40//28 39//16
f 39//13 40//27 34//29
f 32//54 39//16 35//15
f 35//14 39//13 32//55
f 36//2 35//2 41//2
f 41//1 35//1 36//1
f 42//8 37//18 36//22
f 36//21 37//17 42//3
f 43//7 38//24 37//18
f 37//17 38//23 43//4
f 40//1 38//1 44//1
f 44//2 38//2 40//2
f 39//16 40//28 45//12
f 45//9 40//27 39//13
f 35//15 39//16 41//11
f 41//10 39//13 35//14
f 36//2 41//2 42//2
f 42//1 41//1 36//1
f 43//7 37//18 42//8
f 42//3 37//17 43//4
f 44//26 38//24 43//7
f 43//4 38//23 44//25
f 40//28 44//26 45//12
f 45//9 44//25 40//27
f 39//16 45//12 41//11
f 41//10 45//9 39//13
f 42//2 41//2 46//2
f 46//1 41//1 42//1
f 46//6 43//7 42//8
f 42//3 43//4 46//5
f 45//12 44//26 43//7
f 43//4 44//25 45//9
f 41//11 45//12 46//6
f 46//5 45//9 41//10
f 45//12 43//7 46//6
f 46//5 43//4 45//9
