# SSTK version 0.8.0
# 26
mtllib original-26.mtl
o mesh26/mesh26-geometry#mesh26-geometry
v 0.019518 -0.757598 0.627851
v 0.021736 -0.777190 0.627118
v 0.014249 -0.777190 0.604448
v -0.074568 -0.777190 0.658924
v 0.015453 -0.756590 0.616622
v -0.072350 -0.757598 0.658191
v 0.012031 -0.757598 0.605181
v 0.009207 -0.738961 0.631256
v -0.062038 -0.738961 0.654786
v -0.078453 -0.773301 0.647636
v -0.079837 -0.757598 0.635522
v 0.001720 -0.738961 0.608586
v 0.003989 -0.737339 0.620408
v -0.070581 -0.745471 0.645036
v -0.076589 -0.759307 0.647020
v -0.082055 -0.777190 0.636254
v -0.045141 -0.726421 0.649205
v -0.007978 -0.728124 0.624360
v -0.060599 -0.733817 0.641739
v -0.069525 -0.738961 0.632116
v -0.007691 -0.726421 0.636837
v -0.015178 -0.726421 0.614167
v -0.026416 -0.722442 0.643021
v -0.047936 -0.726013 0.637557
v -0.021372 -0.723291 0.628784
v -0.052628 -0.726421 0.626535
v -0.034499 -0.722648 0.633119
v -0.033903 -0.722442 0.620351
vn 0.9176031866616121 0.25786405245548455 -0.3025070615369002
vn 0.9428753448614348 0.11839204330248977 -0.31139911389580366
vn 0.9422899636313772 0.12498399517611787 -0.31059398801231464
vn -0.9422899636313772 -0.12498399517611787 0.31059398801231464
vn -0.9428753448614348 -0.11839204330248977 0.31139911389580366
vn -0.9176031866616121 -0.25786405245548455 0.3025070615369002
vn 0.31360485967110807 0 0.9495535751028822
vn -0.31360485967110807 0 -0.9495535751028822
vn 0.8723456891885203 0.39520585919054874 -0.2877938974607792
vn -0.8723456891885203 -0.39520585919054874 0.2877938974607792
vn 0.9004487595077273 0.31752391519556533 -0.2972719206044773
vn -0.9004487595077273 -0.31752391519556533 0.2972719206044773
vn 0.7030290252872515 0.6785610244071619 -0.21285000765600195
vn -0.7030290252872515 -0.6785610244071619 0.21285000765600195
vn -0.9404720947784313 0.040125004043697725 0.3374940340118067
vn -0.8939873217662097 0.2985191074437627 0.33417512027716645
vn -0.9452158531059062 0.0954759851622692 0.3121719514859852
vn 0.9452158531059062 -0.0954759851622692 -0.3121719514859852
vn 0.8939873217662097 -0.2985191074437627 -0.33417512027716645
vn 0.9404720947784313 -0.040125004043697725 -0.3374940340118067
vn 0.6915130128445087 0.6785610126039316 -0.24771900460125656
vn -0.6915130128445087 -0.6785610126039316 0.24771900460125656
vn 0.6948960813580904 0.6815050797902786 -0.22950002686974982
vn -0.6948960813580904 -0.6815050797902786 0.22950002686974982
vn -0.6872260604490942 0.6732390592187834 0.2728910240037686
vn -0.8028388785621992 0.5339899192284239 0.26514995989328766
vn 0.8028388785621992 -0.5339899192284239 -0.26514995989328766
vn 0.6872260604490942 -0.6732390592187834 -0.2728910240037686
vn -0.9114795982545177 0.28033187644038865 0.3010298673175029
vn 0.9114795982545177 -0.28033187644038865 -0.3010298673175029
vn -0.9564862994539081 0.040125012562220466 0.2890050904808609
vn 0.9564862994539081 -0.040125012562220466 -0.2890050904808609
vn 0.4762288481196913 0.8651407240867689 -0.1572819498391765
vn -0.4762288481196913 -0.8651407240867689 0.1572819498391765
vn -0.5820849943057536 0.7900759922710817 0.19224199811939283
vn 0.5820849943057536 -0.7900759922710817 -0.19224199811939283
vn -0.9171680597287375 0.29851901944045467 0.26398701719162715
vn 0.9171680597287375 -0.29851901944045467 -0.26398701719162715
vn -0.3522278901653224 0.9228127122407409 0.15605195133856184
vn 0.3522278901653224 -0.9228127122407409 -0.15605195133856184
vn 0.36390385095938743 0.9277906200136877 -0.08233196628008543
vn -0.36390385095938743 -0.9277906200136877 0.08233196628008543
vn -0.7145770265015186 0.6732390249684161 0.1900760070493491
vn 0.7145770265015186 -0.6732390249684161 -0.1900760070493491
vn 0.3413598223342063 0.9277905171176343 -0.15059292162167526
vn -0.3413598223342063 -0.9277905171176343 0.15059292162167526
vn -0.3534948444334929 0.9281225915505077 0.11674694862183925
vn 0.3534948444334929 -0.9281225915505077 -0.11674694862183925
vn 0.1811119631497865 0.9816418002687991 -0.05981498782965481
vn -0.1811119631497865 -0.9816418002687991 0.05981498782965481
vn -0.37588587116025324 0.9228126836940104 0.08441897106430539
vn 0.37588587116025324 -0.9228126836940104 -0.08441897106430539
vn 0.026169009697006848 0.9992223702649156 0.029493010928725923
vn -0.026169009697006848 -0.9992223702649156 -0.029493010928725923
vn -0.12205198088605104 0.991704844694075 0.04030899368741076
vn 0.12205198088605104 -0.991704844694075 -0.04030899368741076
vn 0.0034560013271928923 0.9992223837269493 -0.03927701508337803
vn -0.0034560013271928923 -0.9992223837269493 0.03927701508337803
usemtl material_0_0
f 1//1 2//2 3//3
f 3//4 2//5 1//6
f 1//7 4//7 2//7
f 2//8 4//8 1//8
f 1//1 3//3 5//9
f 5//10 3//4 1//6
f 4//7 1//7 6//7
f 6//8 1//8 4//8
f 5//9 3//3 7//11
f 7//12 3//4 5//10
f 8//13 1//1 5//9
f 5//10 1//6 8//14
f 6//7 1//7 9//7
f 9//8 1//8 6//8
f 4//15 6//16 10//17
f 10//18 6//19 4//20
f 3//8 11//8 7//8
f 7//7 11//7 3//7
f 5//9 7//11 12//21
f 12//22 7//12 5//10
f 9//7 1//7 8//7
f 8//8 1//8 9//8
f 8//13 5//9 13//23
f 13//24 5//10 8//14
f 6//16 9//25 14//26
f 14//27 9//28 6//19
f 6//16 15//29 10//17
f 10//18 15//30 6//19
f 4//15 10//17 16//31
f 16//32 10//18 4//20
f 11//8 3//8 16//8
f 16//7 3//7 11//7
f 7//8 11//8 12//8
f 12//7 11//7 7//7
f 13//23 5//9 12//21
f 12//22 5//10 13//24
f 9//7 8//7 17//7
f 17//8 8//8 9//8
f 18//33 8//13 13//23
f 13//24 8//14 18//34
f 9//25 19//35 14//26
f 14//27 19//36 9//28
f 6//16 14//26 15//29
f 15//30 14//27 6//19
f 10//17 15//29 11//37
f 11//38 15//30 10//18
f 10//17 11//37 16//31
f 16//32 11//38 10//18
f 12//8 11//8 20//8
f 20//7 11//7 12//7
f 18//33 13//23 12//21
f 12//22 13//24 18//34
f 17//7 8//7 21//7
f 21//8 8//8 17//8
f 9//25 17//39 19//35
f 19//36 17//40 9//28
f 18//33 21//41 8//13
f 8//14 21//42 18//34
f 14//26 19//35 20//43
f 20//44 19//36 14//27
f 15//29 14//26 11//37
f 11//38 14//27 15//30
f 14//26 20//43 11//37
f 11//38 20//44 14//27
f 12//8 20//8 22//8
f 22//7 20//7 12//7
f 22//45 18//33 12//21
f 12//22 18//34 22//46
f 17//7 21//7 23//7
f 23//8 21//8 17//8
f 19//35 17//39 24//47
f 24//48 17//40 19//36
f 25//49 21//41 18//33
f 18//34 21//42 25//50
f 20//43 19//35 26//51
f 26//52 19//36 20//44
f 22//8 20//8 26//8
f 26//7 20//7 22//7
f 25//49 18//33 22//45
f 22//46 18//34 25//50
f 23//53 21//41 25//49
f 25//50 21//42 23//54
f 17//39 23//53 27//55
f 27//56 23//54 17//40
f 24//47 17//39 27//55
f 27//56 17//40 24//48
f 19//35 24//47 26//51
f 26//52 24//48 19//36
f 22//8 26//8 28//8
f 28//7 26//7 22//7
f 28//57 25//49 22//45
f 22//46 25//50 28//58
f 27//55 23//53 25//49
f 25//50 23//54 27//56
f 26//51 24//47 27//55
f 27//56 24//48 26//52
f 26//51 27//55 28//57
f 28//58 27//56 26//52
f 27//55 25//49 28//57
f 28//58 25//50 27//56
