# SSTK version 0.8.0
# 41
mtllib original-41.mtl
o mesh41/mesh41-geometry#mesh41-geometry
v -0.117112 -0.651302 0.141862
v -0.034146 -0.644164 0.123936
v -0.031917 -0.644521 0.122572
v -0.354379 -0.672538 0.220016
v -0.046710 -0.644074 0.099297
v -0.501219 -0.685809 0.271280
v -0.125351 -0.651311 0.130274
v -0.393968 -0.676082 0.232918
v -0.476698 -0.658680 0.264897
v -0.366293 -0.673096 0.210191
v -0.129590 -0.651346 0.116387
v -0.433505 -0.679620 0.245766
v -0.505974 -0.662236 0.271806
v -0.034799 -0.560979 0.124080
v -0.129937 -0.651362 0.111484
v -0.406461 -0.676730 0.223481
v -0.473123 -0.683165 0.258601
v -0.518688 -0.687225 0.270070
v -0.500622 -0.637145 0.271735
v -0.371266 -0.673124 0.195037
v -0.049154 -0.644554 0.071841
v -0.446593 -0.680361 0.236751
v -0.499530 -0.685534 0.267412
v -0.520873 -0.663745 0.268615
v -0.509482 -0.638547 0.271695
v -0.119401 -0.573937 0.143452
v -0.370778 -0.672993 0.189661
v -0.051768 -0.644237 0.072658
v -0.411522 -0.676756 0.208209
v -0.486784 -0.683997 0.250030
v -0.510462 -0.686617 0.271707
v -0.525685 -0.687688 0.265584
v -0.498545 -0.636638 0.267938
v -0.354636 -0.612841 0.220946
v -0.049701 -0.561044 0.101043
v -0.515076 -0.685801 0.227421
v -0.451758 -0.680387 0.221395
v -0.513710 -0.686431 0.258834
v -0.519042 -0.687243 0.269442
v -0.526367 -0.687694 0.264349
v -0.518010 -0.639702 0.269414
v -0.485945 -0.633864 0.250604
v -0.393886 -0.619330 0.233738
v -0.127629 -0.574247 0.131861
v -0.410884 -0.676600 0.202785
v -0.491784 -0.658680 0.218467
v -0.492033 -0.684022 0.234615
v -0.530386 -0.687838 0.257449
v -0.525299 -0.640535 0.264306
v -0.512638 -0.638301 0.259333
v -0.472364 -0.632299 0.259201
v -0.433085 -0.625809 0.246476
v -0.366493 -0.613986 0.211103
v -0.131866 -0.574264 0.117974
v -0.450974 -0.680207 0.215936
v -0.051964 -0.561052 0.073327
v -0.519530 -0.662236 0.230086
v -0.519151 -0.686458 0.243075
v -0.529957 -0.640858 0.256536
v -0.446100 -0.627234 0.237437
v -0.491191 -0.633905 0.235195
v -0.406314 -0.620613 0.224280
v -0.371463 -0.614018 0.195953
v -0.132215 -0.574196 0.113071
v -0.491097 -0.683818 0.229128
v -0.519828 -0.638024 0.230854
v -0.520886 -0.686294 0.230351
v -0.531037 -0.687872 0.256589
v -0.531287 -0.687930 0.256968
v -0.451263 -0.627272 0.222087
v -0.518076 -0.638350 0.243580
v -0.370990 -0.613736 0.190576
v -0.051258 -0.561039 0.081813
v -0.518159 -0.686238 0.237467
v -0.525403 -0.639165 0.235512
v -0.529708 -0.663745 0.241425
v -0.526303 -0.686941 0.235424
v -0.531967 -0.687744 0.249044
v -0.411373 -0.620646 0.209013
v -0.490275 -0.633517 0.229707
v -0.517106 -0.637940 0.237971
v -0.410751 -0.620328 0.203588
v -0.450497 -0.626919 0.216627
v -0.530158 -0.687402 0.241342
v -0.530208 -0.687416 0.241743
v -0.530901 -0.640630 0.249044
v -0.529209 -0.640031 0.241793
v -0.531965 -0.687741 0.248128
v -0.530841 -0.687838 0.256049
vn -0.10399894990148192 0.9897185232314233 -0.09819095269931816
vn -0.11811800353834298 0.9805080293720991 -0.15701000470339158
vn -0.1310870109049978 0.9616570799992941 -0.240898020040066
vn 0.1310870109049978 -0.9616570799992941 0.240898020040066
vn 0.11811800353834298 -0.9805080293720991 0.15701000470339158
vn 0.10399894990148192 -0.9897185232314233 0.09819095269931816
vn -0.07687697624982281 0.9963146922010773 0.03803898824833211
vn 0.07687697624982281 -0.9963146922010773 -0.03803898824833211
vn -0.07937198372695914 0.9965297956889909 0.02506899486029275
vn 0.07937198372695914 -0.9965297956889909 -0.02506899486029275
vn -0.08149998209983489 0.9960677812296729 0.03473799237035684
vn 0.08149998209983489 -0.9960677812296729 -0.03473799237035684
vn -0.07787803359452718 0.9963134297833041 0.035980015520828794
vn 0.07787803359452718 -0.9963134297833041 -0.035980015520828794
vn -0.07782497259654787 0.9963176491801783 0.03597798733155948
vn 0.07782497259654787 -0.9963176491801783 -0.03597798733155948
vn -0.3041538858729671 0.025421990460959363 -0.9522836426765804
vn -0.1572179932552696 0.021310999085747722 -0.9873339576428805
vn -0.2738819549620334 0.009248998479067282 -0.9617188418520815
vn 0.2738819549620334 -0.009248998479067282 0.9617188418520815
vn 0.1572179932552696 -0.021310999085747722 0.9873339576428805
vn 0.3041538858729671 -0.025421990460959363 0.9522836426765804
vn -0.08006099831771826 0.9963399790644062 0.029947999370717886
vn 0.08006099831771826 -0.9963399790644062 -0.029947999370717886
vn -0.08494900487212288 0.9962940571409528 0.013484000773354881
vn 0.08494900487212288 -0.9962940571409528 -0.013484000773354881
vn -0.07818403458467625 0.9963374407294662 0.03462601531680417
vn 0.07818403458467625 -0.9963374407294662 -0.03462601531680417
vn 0.0050399996283882415 0.006836999495891176 -0.9999639262701625
vn -0.0050399996283882415 -0.006836999495891176 0.9999639262701625
vn -0.11780004817051104 -0.6841982797807071 -0.7197192943058748
vn 0.11780004817051104 0.6841982797807071 0.7197192943058748
vn -0.02365400553653997 0.9910612319712877 0.13129403073114415
vn 0.02365400553653997 -0.9910612319712877 -0.13129403073114415
vn -0.07953799108999567 0.9963458883873472 0.031121996513652127
vn 0.07953799108999567 -0.9963458883873472 -0.031121996513652127
vn -0.07875896420145986 0.9963465471277179 0.033023984989512666
vn 0.07875896420145986 -0.9963465471277179 -0.033023984989512666
vn 0.27943186179401336 -0.002399998812969067 -0.9601625251070931
vn -0.27943186179401336 0.002399998812969067 0.9601625251070931
vn 0.008549999684847017 -0.7757259714067409 -0.631011976740899
vn -0.008549999684847017 0.7757259714067409 0.631011976740899
vn -0.08471601451825059 0.9962871707392266 0.015332002627530062
vn 0.08471601451825059 -0.9962871707392266 -0.015332002627530062
vn 0.1189520229526872 0.9093911754738646 0.3985700769070933
vn -0.1189520229526872 -0.9093911754738646 -0.3985700769070933
vn -0.08011296583302906 0.9963485750723687 0.02951998741017108
vn 0.08011296583302906 -0.9963485750723687 -0.02951998741017108
vn -0.08170098137826509 0.9960847729669059 0.03376499230409835
vn 0.08170098137826509 -0.9960847729669059 -0.03376499230409835
vn 0.5683008247184353 -0.015768995136353627 -0.8226697462631868
vn -0.5683008247184353 0.015768995136353627 0.8226697462631868
vn 0.15772398529728623 0.007865999266747534 -0.9874519079517124
vn -0.15772398529728623 -0.007865999266747534 0.9874519079517124
vn 0.13524602758288914 -0.9874142013791971 -0.08198601672072209
vn -0.13524602758288914 0.9874142013791971 0.08198601672072209
vn -0.08367301497500265 0.9963291783135471 0.018083003236324637
vn 0.08367301497500265 -0.9963291783135471 -0.018083003236324637
vn 0.11965299030900557 0.9055259266591943 0.4070699670303872
vn -0.11965299030900557 -0.9055259266591943 -0.4070699670303872
vn -0.08294900526800854 0.9963410632766266 0.02059000130765066
vn 0.08294900526800854 -0.9963410632766266 -0.02059000130765066
vn -0.0806519883960347 0.9963408566494768 0.0282869959301524
vn 0.0806519883960347 -0.9963408566494768 -0.0282869959301524
vn -0.08432103661342469 0.9957694323776201 0.03651301585448458
vn 0.08432103661342469 -0.9957694323776201 -0.03651301585448458
vn 0.7221672072082167 -0.057886016608976486 -0.6892921977755369
vn -0.7221672072082167 0.057886016608976486 0.6892921977755369
vn 0.1534270207008353 -0.9866401331204555 -0.05478500739175827
vn 0.15032495374359073 -0.987162696240707 -0.05396498339446471
vn -0.15032495374359073 0.987162696240707 0.05396498339446471
vn -0.1534270207008353 0.9866401331204555 0.05478500739175827
vn 0.14379297915792813 -0.9877798568262589 -0.060120991285763765
vn -0.14379297915792813 0.9877798568262589 0.060120991285763765
vn 0.14632901679579183 -0.9881191134173065 -0.04699400539401947
vn -0.14632901679579183 0.9881191134173065 0.04699400539401947
vn -0.08053302713500406 0.9964013357300135 0.02643500890707971
vn 0.08053302713500406 -0.9964013357300135 -0.02643500890707971
vn -0.08262102406031978 0.9963422901478695 0.021813006352232163
vn 0.08262102406031978 -0.9963422901478695 -0.021813006352232163
vn -0.08394196473577817 0.9960195815697717 0.02997898740575531
vn 0.08394196473577817 -0.9960195815697717 -0.02997898740575531
vn -0.08382499210297359 0.9958359061837974 0.03583599662394489
vn 0.08382499210297359 -0.9958359061837974 -0.03583599662394489
vn 0.8614301847785173 -0.11038002367673827 -0.4957361063363977
vn -0.8614301847785173 0.11038002367673827 0.4957361063363977
vn 0.3384048744264345 -0.7880417075774775 -0.5142688091677372
vn -0.3384048744264345 0.7880417075774775 0.5142688091677372
vn 0.1474329532511557 -0.9877886867865799 -0.05036898402872826
vn -0.1474329532511557 0.9877886867865799 0.05036898402872826
vn 0.1454020203349829 -0.9877831381449388 -0.05606000784018908
vn -0.1454020203349829 0.9877831381449388 0.05606000784018908
vn 0.14576596257969573 -0.9877747464234385 -0.05525698581470493
vn -0.14576596257969573 0.9877747464234385 0.05525698581470493
vn -0.08318202809868588 0.9963353365596427 0.01991600672757864
vn 0.08318202809868588 -0.9963353365596427 -0.01991600672757864
vn 0.31394111461662555 0.01879800686295597 0.9492563465635883
vn 0.34849113014978694 -0.02534500946551395 0.936969349926729
vn 0.38547092682124257 -0.000537999897864969 0.9227198248285783
vn -0.38547092682124257 0.000537999897864969 -0.9227198248285783
vn -0.34849113014978694 0.02534500946551395 -0.936969349926729
vn -0.31394111461662555 -0.01879800686295597 -0.9492563465635883
vn -0.08216199657758318 0.9963469584976664 0.023283999030116905
vn 0.08216199657758318 -0.9963469584976664 -0.023283999030116905
vn 0.7254310612923984 -0.051824004378661984 -0.6863410579896447
vn -0.7254310612923984 0.051824004378661984 0.6863410579896447
vn 0.5829399555496642 -0.6535899501624608 -0.48270196319301145
vn -0.5829399555496642 0.6535899501624608 0.48270196319301145
vn 0.15121395332804732 -0.9871296953239472 -0.05205098393454459
vn -0.15121395332804732 0.9871296953239472 0.05205098393454459
vn 0.14604597992568938 -0.9878218642219185 -0.05365199262542704
vn -0.14604597992568938 0.9878218642219185 0.05365199262542704
vn 0.1457619839994164 -0.9878058915665777 -0.05470799399459464
vn -0.1457619839994164 0.9878058915665777 0.05470799399459464
vn 0.14622197896823627 -0.987760857925921 -0.054291992190939234
vn -0.14622197896823627 0.987760857925921 0.054291992190939234
vn 0.1525019720878716 -0.9877438192152408 -0.03324599391505301
vn -0.1525019720878716 0.9877438192152408 0.03324599391505301
vn -0.08281997611994 0.9963427127175728 0.02102499393771742
vn 0.08281997611994 -0.9963427127175728 -0.02102499393771742
vn 0.2987101235888001 -0.8162963377357411 0.49440120455433806
vn -0.2987101235888001 0.8162963377357411 -0.49440120455433806
vn 0.570688942655466 -0.0153459984579883 0.8210229175011584
vn -0.570688942655466 0.0153459984579883 -0.8210229175011584
vn -0.08566697827635622 0.9958257474760493 0.03149999201215451
vn 0.08566697827635622 -0.9958257474760493 -0.03149999201215451
vn -0.08414600214504991 0.9961400253936018 0.024990000637045325
vn 0.08414600214504991 -0.9961400253936018 -0.024990000637045325
vn 0.721943219805032 0.009119002776399519 -0.69189221065561
vn -0.721943219805032 -0.009119002776399519 0.69189221065561
vn 0.1468940415071207 -0.9878052791192382 -0.0516030145812081
vn -0.1468940415071207 0.9878052791192382 0.0516030145812081
vn 0.14885304634354254 -0.9877703075299861 -0.046396014444821616
vn -0.14885304634354254 0.9877703075299861 0.046396014444821616
vn 0.1465819908821607 -0.9877809385570642 -0.05293899670703591
vn -0.1465819908821607 0.9877809385570642 0.05293899670703591
vn 0.1499650010322091 -0.9877600067987522 -0.04290300029530158
vn -0.1499650010322091 0.9877600067987522 0.04290300029530158
vn 0.157926046290184 -0.9873672894102307 -0.012853003767383265
vn -0.157926046290184 0.9873672894102307 0.012853003767383265
vn -0.08235802394539306 0.996354289687561 0.02225500647058866
vn 0.08235802394539306 -0.996354289687561 -0.02225500647058866
vn 0.41424699983657953 -0.710927999719539 0.5683139997758
vn -0.41424699983657953 0.710927999719539 -0.5683139997758
vn 0.6653260127207009 -0.02275700043510264 0.7462060142670861
vn -0.6653260127207009 0.02275700043510264 -0.7462060142670861
vn -0.08659896243554321 0.9958295680341227 0.028706987547629396
vn 0.08659896243554321 -0.9958295680341227 -0.028706987547629396
vn 0.47225701976442896 -0.021443000897410858 -0.8812000368791035
vn -0.47225701976442896 0.021443000897410858 0.8812000368791035
vn 0.15395707685285168 -0.9867784925836647 -0.05065002528366343
vn -0.15395707685285168 0.9867784925836647 0.05065002528366343
vn 0.14921500276271582 -0.9877720182885992 -0.045181000836526465
vn -0.14921500276271582 0.9877720182885992 0.045181000836526465
vn 0.1519050032901865 -0.9872660213836888 -0.047230001022978446
vn -0.1519050032901865 0.9872660213836888 0.047230001022978446
vn 0.15562800230850796 -0.9875300146485265 -0.023757000352399683
vn -0.15562800230850796 0.9875300146485265 0.023757000352399683
vn 0.15563400124966323 -0.9877370079310344 -0.012396000099533903
vn -0.15563400124966323 0.9877370079310344 0.012396000099533903
vn -0.08782596029793231 0.9959335497843568 0.02007399092547438
vn 0.08782596029793231 -0.9959335497843568 -0.02007399092547438
vn 0.5487648426817637 -0.7623597814490164 0.34302290166323757
vn -0.5487648426817637 0.7623597814490164 -0.34302290166323757
vn 0.9444662472584624 0.0014850003887686245 0.3286050860278369
vn -0.9444662472584624 -0.0014850003887686245 -0.3286050860278369
vn -0.06488800171106418 0.9965940262796865 0.0508910013419705
vn -0.04434498710800505 0.9958397104890235 0.07960397685749562
vn 0.04434498710800505 -0.9958397104890235 -0.07960397685749562
vn 0.06488800171106418 -0.9965940262796865 -0.0508910013419705
vn -0.08892201264222128 0.9957861415729173 0.02242400318806583
vn 0.08892201264222128 -0.9957861415729173 -0.02242400318806583
vn 0.8357981799122641 -0.0185860040007866 0.5487221181168385
vn 0.944957956332549 0.04300699801260359 0.3243529850113246
vn 0.9858128919539271 0.017367998096450107 0.16694698170244485
vn -0.9858128919539271 -0.017367998096450107 -0.16694698170244485
vn -0.944957956332549 -0.04300699801260359 -0.3243529850113246
vn -0.8357981799122641 0.0185860040007866 -0.5487221181168385
vn 0.14970604705157003 -0.9877673104484 -0.04363301371355315
vn -0.14970604705157003 0.9877673104484 0.04363301371355315
vn 0.15172899471899656 -0.9877389656212521 -0.0367429987211418
vn -0.15172899471899656 0.9877389656212521 0.0367429987211418
vn 0.15321003845511164 -0.9873382478179819 -0.04110801031794767
vn -0.15321003845511164 0.9873382478179819 0.04110801031794767
vn 0.15022504453008986 -0.9877712927976794 -0.04171701236586315
vn -0.15022504453008986 0.9877712927976794 0.04171701236586315
vn 0.14940295273772802 -0.9877126875460301 -0.04585198549513957
vn -0.14940295273772802 0.9877126875460301 0.04585198549513957
vn 0.8871239631666138 -0.018507999231547993 0.461159980852638
vn -0.8871239631666138 0.018507999231547993 -0.461159980852638
vn -0.08405899115455688 0.9961838951725704 0.023488997528276632
vn 0.08405899115455688 -0.9961838951725704 -0.023488997528276632
vn 0.7661443008691399 -0.6426622523770507 0.0028530011203893087
vn -0.7661443008691399 0.6426622523770507 -0.0028530011203893087
vn 0.7100331756782052 -0.6699291657555696 0.21690505366719717
vn -0.7100331756782052 0.6699291657555696 -0.21690505366719717
vn 0.9952727758302592 -0.07714798262361468 0.05899398671252038
vn -0.9952727758302592 0.07714798262361468 -0.05899398671252038
vn 0.9940486995160224 0.018425994430135945 0.10736696754479587
vn -0.9940486995160224 -0.018425994430135945 -0.10736696754479587
usemtl material_0_0
f 1//1 2//2 3//3
f 3//4 2//5 1//6
f 4//7 2//2 1//1
f 1//6 2//5 4//8
f 1//1 3//3 5//9
f 5//10 3//4 1//6
f 4//7 6//11 2//2
f 2//5 6//12 4//8
f 1//1 7//13 4//7
f 4//8 7//14 1//6
f 7//13 1//1 5//9
f 5//10 1//6 7//14
f 6//11 4//7 8//15
f 8//16 4//8 6//12
f 2//17 6//18 9//19
f 9//20 6//21 2//22
f 10//23 4//7 7//13
f 7//14 4//8 10//24
f 11//25 7//13 5//9
f 5//10 7//14 11//26
f 4//7 10//23 8//15
f 8//16 10//24 4//8
f 6//11 8//15 12//27
f 12//28 8//16 6//12
f 9//19 6//18 13//29
f 13//30 6//21 9//20
f 14//31 2//17 9//19
f 9//20 2//22 14//32
f 7//13 11//25 10//23
f 10//24 11//26 7//14
f 15//33 11//25 5//9
f 5//10 11//26 15//34
f 16//35 8//15 10//23
f 10//24 8//16 16//36
f 8//15 16//35 12//27
f 12//28 16//36 8//16
f 6//11 12//27 17//37
f 17//38 12//28 6//12
f 13//29 6//18 18//39
f 18//40 6//21 13//30
f 19//41 9//19 13//29
f 13//30 9//20 19//42
f 14//31 9//19 19//41
f 19//42 9//20 14//32
f 20//43 10//23 11//25
f 11//26 10//24 20//44
f 20//43 11//25 15//33
f 15//34 11//26 20//44
f 15//33 5//9 21//45
f 21//46 5//10 15//34
f 10//23 20//43 16//35
f 16//36 20//44 10//24
f 22//47 12//27 16//35
f 16//36 12//28 22//48
f 12//27 22//47 17//37
f 17//38 22//48 12//28
f 6//11 17//37 23//49
f 23//50 17//38 6//12
f 13//29 18//39 24//51
f 24//52 18//40 13//30
f 19//41 13//29 25//53
f 25//54 13//30 19//42
f 19//41 26//55 14//31
f 14//32 26//56 19//42
f 27//57 20//43 15//33
f 15//34 20//44 27//58
f 28//59 15//33 21//45
f 21//46 15//34 28//60
f 16//35 20//43 29//61
f 29//62 20//44 16//36
f 16//35 29//61 22//47
f 22//48 29//62 16//36
f 30//63 17//37 22//47
f 22//48 17//38 30//64
f 17//37 30//63 23//49
f 23//50 30//64 17//38
f 31//65 6//11 23//49
f 23//50 6//12 31//66
f 24//51 18//39 32//67
f 32//68 18//40 24//52
f 25//53 13//29 24//51
f 24//52 13//30 25//54
f 25//69 33//70 19//41
f 19//42 33//71 25//72
f 19//41 34//73 26//55
f 26//56 34//74 19//42
f 26//55 35//75 14//31
f 14//32 35//76 26//56
f 20//43 27//57 29//61
f 29//62 27//58 20//44
f 36//77 27//57 15//33
f 15//34 27//58 36//78
f 36//77 15//33 28//59
f 28//60 15//34 36//78
f 22//47 29//61 37//79
f 37//80 29//62 22//48
f 22//47 37//79 30//63
f 30//64 37//80 22//48
f 38//81 23//49 30//63
f 30//64 23//50 38//82
f 39//83 31//65 23//49
f 23//50 31//66 39//84
f 40//85 24//51 32//67
f 32//68 24//52 40//86
f 25//53 24//51 41//87
f 41//88 24//52 25//54
f 41//87 33//70 25//69
f 25//72 33//71 41//88
f 42//89 19//41 33//70
f 33//71 19//42 42//90
f 19//41 43//91 34//73
f 34//74 43//92 19//42
f 44//93 26//55 34//73
f 34//74 26//56 44//94
f 26//55 44//93 35//75
f 35//76 44//94 26//56
f 45//95 29//61 27//57
f 27//58 29//62 45//96
f 36//77 45//95 27//57
f 27//58 45//96 36//78
f 28//97 46//98 36//99
f 36//100 46//101 28//102
f 29//61 45//95 37//79
f 37//80 45//96 29//62
f 30//63 37//79 47//103
f 47//104 37//80 30//64
f 39//83 23//49 38//81
f 38//82 23//50 39//84
f 30//63 47//103 38//81
f 38//82 47//104 30//64
f 24//51 40//85 48//105
f 48//106 40//86 24//52
f 41//87 24//51 49//107
f 49//108 24//52 41//88
f 41//87 50//109 33//70
f 33//71 50//110 41//88
f 51//111 19//41 42//89
f 42//90 19//42 51//112
f 50//109 42//89 33//70
f 33//71 42//90 50//110
f 43//91 19//41 52//113
f 52//114 19//42 43//92
f 53//115 34//73 43//91
f 43//92 34//74 53//116
f 34//73 53//115 44//93
f 44//94 53//116 34//74
f 44//93 54//117 35//75
f 35//76 54//118 44//94
f 45//95 36//77 55//119
f 55//120 36//78 45//96
f 56//121 46//98 28//97
f 28//102 46//101 56//122
f 46//98 57//123 36//99
f 36//100 57//124 46//101
f 55//119 37//79 45//95
f 45//96 37//80 55//120
f 37//79 55//119 47//103
f 47//104 55//120 37//80
f 40//125 39//83 38//81
f 38//82 39//84 40//126
f 38//81 47//103 58//127
f 58//128 47//104 38//82
f 24//51 48//105 59//129
f 59//130 48//106 24//52
f 24//51 59//129 49//107
f 49//108 59//130 24//52
f 49//107 50//109 41//87
f 41//88 50//110 49//108
f 52//113 19//41 51//111
f 51//112 19//42 52//114
f 42//89 60//131 51//111
f 51//112 60//132 42//90
f 61//133 42//89 50//109
f 50//110 42//90 61//134
f 62//135 43//91 52//113
f 52//114 43//92 62//136
f 43//91 62//135 53//115
f 53//116 62//136 43//92
f 53//115 63//137 44//93
f 44//94 63//138 53//116
f 54//117 44//93 63//137
f 63//138 44//94 54//118
f 64//139 35//75 54//117
f 54//118 35//76 64//140
f 55//119 36//77 65//141
f 65//142 36//78 55//120
f 56//121 66//143 46//98
f 46//101 66//144 56//122
f 66//143 57//123 46//98
f 46//101 57//124 66//144
f 57//123 67//145 36//99
f 36//100 67//146 57//124
f 65//141 47//103 55//119
f 55//120 47//104 65//142
f 68//147 40//125 38//81
f 38//82 40//126 68//148
f 47//103 65//141 58//127
f 58//128 65//142 47//104
f 58//127 68//147 38//81
f 38//82 68//148 58//128
f 59//129 48//105 69//149
f 69//150 48//106 59//130
f 59//151 50//109 49//107
f 49//108 50//110 59//152
f 60//131 52//113 51//111
f 51//112 52//114 60//132
f 70//153 60//131 42//89
f 42//90 60//132 70//154
f 70//153 42//89 61//133
f 61//134 42//90 70//154
f 61//133 50//109 71//155
f 71//156 50//110 61//134
f 52//113 60//131 62//135
f 62//136 60//132 52//114
f 63//137 53//115 62//135
f 62//136 53//116 63//138
f 63//137 72//157 54//117
f 54//118 72//158 63//138
f 64//139 73//159 35//75
f 35//76 73//160 64//140
f 72//157 64//139 54//117
f 54//118 64//140 72//158
f 65//141 36//77 74//161
f 74//162 36//78 65//142
f 66//143 56//121 72//157
f 72//158 56//122 66//144
f 66//143 75//163 57//123
f 57//124 75//164 66//144
f 76//165 67//145 57//123
f 57//124 67//146 76//166
f 77//167 36//77 67//168
f 67//169 36//78 77//170
f 58//127 65//141 74//161
f 74//162 65//142 58//128
f 68//147 58//127 78//171
f 78//172 58//128 68//148
f 69//173 68//174 59//175
f 59//176 68//177 69//178
f 59//151 71//155 50//109
f 50//110 71//156 59//152
f 79//179 60//131 70//153
f 70//154 60//132 79//180
f 61//133 80//181 70//153
f 70//154 80//182 61//134
f 71//155 81//183 61//133
f 61//134 81//184 71//156
f 79//179 62//135 60//131
f 60//132 62//136 79//180
f 63//137 62//135 79//179
f 79//180 62//136 63//138
f 72//157 63//137 82//185
f 82//186 63//138 72//158
f 73//159 64//139 56//121
f 56//122 64//140 73//160
f 72//157 56//121 64//139
f 64//140 56//122 72//158
f 78//171 74//161 36//77
f 36//78 74//162 78//172
f 82//185 66//143 72//157
f 72//158 66//144 82//186
f 75//163 66//143 83//187
f 83//188 66//144 75//164
f 76//165 57//123 75//163
f 75//164 57//124 76//166
f 76//165 84//189 67//145
f 67//146 84//190 76//166
f 85//191 36//77 77//167
f 77//170 36//78 85//192
f 78//171 58//127 74//161
f 74//162 58//128 78//172
f 68//174 76//165 59//175
f 59//176 76//166 68//177
f 71//155 59//151 86//193
f 86//194 59//152 71//156
f 70//153 83//187 79//179
f 79//180 83//188 70//154
f 80//181 61//133 81//183
f 81//184 61//134 80//182
f 83//187 70//153 80//181
f 80//182 70//154 83//188
f 71//155 87//195 81//183
f 81//184 87//196 71//156
f 79//179 82//185 63//137
f 63//138 82//186 79//180
f 78//171 36//77 85//191
f 85//192 36//78 78//172
f 66//143 82//185 83//187
f 83//188 82//186 66//144
f 75//163 83//187 80//181
f 80//182 83//188 75//164
f 87//195 76//165 75//163
f 75//164 76//166 87//196
f 88//197 84//189 76//165
f 76//166 84//190 88//198
f 68//174 89//199 76//165
f 76//166 89//200 68//177
f 59//175 76//165 86//193
f 86//194 76//166 59//176
f 87//195 71//155 86//193
f 86//194 71//156 87//196
f 82//185 79//179 83//187
f 83//188 79//180 82//186
f 75//163 80//181 81//183
f 81//184 80//182 75//164
f 87//195 75//163 81//183
f 81//184 75//164 87//196
f 86//193 76//165 87//195
f 87//196 76//166 86//194
f 89//199 88//197 76//165
f 76//166 88//198 89//200
