# SSTK version 0.8.0
# 36
mtllib original-36.mtl
o mesh36/mesh36-geometry#mesh36-geometry
v -0.034057 -0.559300 0.066122
v -0.024565 -0.559300 0.051670
v -0.033098 -0.515746 0.063887
v -0.020799 -0.515746 0.048326
v -0.037050 -0.559300 0.081813
v -0.010113 -0.559300 0.042178
v -0.024565 -0.472193 0.051670
v -0.034057 -0.472193 0.066122
v -0.003312 -0.515746 0.040122
v -0.010113 -0.472193 0.042178
v -0.037050 -0.472193 0.081813
v 0.005578 -0.559300 0.039185
v -0.024565 -0.472193 0.111955
v -0.034057 -0.472193 0.097504
v -0.034878 -0.515746 0.095245
v 0.005578 -0.472193 0.039185
v 0.014467 -0.515746 0.040122
v -0.010113 -0.472193 0.121447
v -0.034057 -0.559300 0.097504
v 0.021269 -0.559300 0.042178
v -0.016696 -0.515746 0.118158
v -0.027909 -0.515746 0.108190
v 0.021269 -0.472193 0.042178
v 0.005578 -0.472193 0.124440
v 0.027851 -0.515746 0.045467
v -0.003312 -0.515746 0.123503
v -0.024565 -0.559300 0.111955
v 0.035720 -0.559300 0.051670
v -0.010113 -0.559300 0.121447
v 0.021269 -0.472193 0.121447
v 0.035720 -0.472193 0.051670
v 0.014467 -0.515746 0.123503
v 0.039064 -0.515746 0.055436
v 0.005578 -0.559300 0.124440
v 0.045212 -0.559300 0.066122
v 0.035720 -0.472193 0.111955
v 0.031955 -0.515746 0.115299
v 0.045212 -0.472193 0.066122
v 0.021269 -0.559300 0.121447
v 0.046034 -0.515746 0.068381
v 0.048205 -0.559300 0.081813
v 0.045212 -0.472193 0.097504
v 0.044253 -0.515746 0.099738
v 0.035720 -0.559300 0.111955
v 0.048205 -0.472193 0.081813
v 0.045212 -0.559300 0.097504
vn 0.9268609744469068 -0.001152999968212451 0.3754029896503274
vn 0.734403630431662 0.0021229989316592884 0.6787096584581149
vn 0.8829398372318219 -0.00046999991335656824 0.4694859134512189
vn -0.8829398372318219 0.00046999991335656824 -0.4694859134512189
vn -0.734403630431662 -0.0021229989316592884 -0.6787096584581149
vn -0.9268609744469068 0.001152999968212451 -0.3754029896503274
vn 0.5972529519754893 0 0.802052935507728
vn -0.5972529519754893 0 -0.802052935507728
vn 0.9985492483766747 0.0012300003059472274 0.0538320133900421
vn -0.9985492483766747 -0.0012300003059472274 -0.0538320133900421
vn 0.39217094038982553 0.003457999474382187 0.9198858601768999
vn -0.39217094038982553 -0.003457999474382187 -0.9198858601768999
vn 0.734403630431662 -0.0021229989316595894 0.6787096584581149
vn -0.734403630431662 0.0021229989316595894 -0.6787096584581149
vn 0.9442082170234509 -0.00017100003930392368 0.3293490756999057
vn -0.9442082170234509 0.00017100003930392368 -0.3293490756999057
vn 0.2073520810062533 0 0.9782663821794021
vn -0.2073520810062533 0 -0.9782663821794021
vn 0.39217094038982553 -0.0034579994743825955 0.9198858601768999
vn -0.39217094038982553 0.0034579994743825955 -0.9198858601768999
vn 0.9985371403174444 -0.002979000418618093 -0.05398800758655733
vn -0.9985371403174444 0.002979000418618093 0.05398800758655733
vn 0 0.004281999281469654 0.9999908321990525
vn 0 -0.004281999281469654 -0.9999908321990525
vn 0 -1 0
vn 0 1 0
vn 0.9539209629854827 0 -0.30005798835700015
vn -0.9539209629854827 0 0.30005798835700015
vn 0 -0.004281999281470098 0.9999908321990525
vn 0 0.004281999281470098 -0.9999908321990525
vn -0.18834305760868822 0 0.9821033003969646
vn 0.18834305760868822 0 -0.9821033003969646
vn 0.9124074052285033 -0.005933002635030888 -0.40924018175629157
vn -0.9124074052285033 0.005933002635030888 0.40924018175629157
vn 0.9124074052285033 0.00593300263503107 -0.40924018175629157
vn -0.9124074052285033 -0.00593300263503107 0.40924018175629157
vn -0.3738549974437665 0.0077249999471801075 0.9274549936585266
vn 0.3738549974437665 -0.0077249999471801075 -0.9274549936585266
vn 0.5334718762590789 0 -0.8458178038092
vn 0.6929228460471122 -0.00777299827300305 -0.7209698398156599
vn -0.6929228460471122 0.00777299827300305 0.7209698398156599
vn -0.5334718762590789 0 0.8458178038092
vn 0.8024412227408632 0 -0.5967311656400633
vn -0.8024412227408632 0 0.5967311656400633
vn -0.3738549974437665 -0.007724999947180519 0.9274549936585266
vn 0.3738549974437665 0.007724999947180519 -0.9274549936585266
vn 0.6929228460471122 0.0077729982730033705 -0.7209698398156599
vn -0.6929228460471122 -0.0077729982730033705 0.7209698398156599
vn -0.9985492483766747 0.0012300003059472512 -0.0538320133900421
vn 0.9985492483766747 -0.0012300003059472512 0.0538320133900421
vn -0.8829398372318219 -0.00046999991335635975 -0.4694859134512189
vn 0.8829398372318219 0.00046999991335635975 0.4694859134512189
vn -0.9985371403174444 -0.0029790004186181175 0.05398800758655733
vn 0.9985371403174444 0.0029790004186181175 -0.05398800758655733
vn -0.9442082170234509 -0.00017100003930377742 -0.3293490756999057
vn 0.9442082170234509 0.00017100003930377742 0.3293490756999057
vn -0.9268609744469068 -0.0011529999682122845 -0.3754029896503274
vn 0.9268609744469068 0.0011529999682122845 0.3754029896503274
usemtl material_0_0
f 1//1 2//2 3//3
f 3//4 2//5 1//6
f 3//3 2//2 4//7
f 4//8 2//5 3//4
f 5//9 1//1 3//3
f 3//4 1//6 5//10
f 4//7 2//2 6//11
f 6//12 2//5 4//8
f 3//3 4//7 7//13
f 7//14 4//8 3//4
f 5//9 3//3 8//15
f 8//16 3//4 5//10
f 9//17 4//7 6//11
f 6//12 4//8 9//18
f 10//19 7//13 4//7
f 4//8 7//14 10//20
f 8//15 3//3 7//13
f 7//14 3//4 8//16
f 5//9 8//15 11//21
f 11//22 8//16 5//10
f 10//19 4//7 9//17
f 9//18 4//8 10//20
f 9//17 6//11 12//23
f 12//24 6//12 9//18
f 10//25 13//25 7//25
f 7//26 13//26 10//26
f 7//25 14//25 8//25
f 8//26 14//26 7//26
f 8//25 14//25 11//25
f 11//26 14//26 8//26
f 15//27 5//9 11//21
f 11//22 5//10 15//28
f 10//19 9//17 16//29
f 16//30 9//18 10//20
f 9//17 12//23 17//31
f 17//32 12//24 9//18
f 10//25 18//25 13//25
f 13//26 18//26 10//26
f 7//25 13//25 14//25
f 14//26 13//26 7//26
f 14//33 15//27 11//21
f 11//22 15//28 14//34
f 19//35 5//9 15//27
f 15//28 5//10 19//36
f 16//29 9//17 17//31
f 17//32 9//18 16//30
f 16//25 18//25 10//25
f 10//26 18//26 16//26
f 17//31 12//23 20//37
f 20//38 12//24 17//32
f 18//38 21//39 13//40
f 13//41 21//42 18//37
f 13//40 22//43 14//33
f 14//34 22//44 13//41
f 22//43 15//27 14//33
f 14//34 15//28 22//44
f 22//43 19//35 15//27
f 15//28 19//36 22//44
f 23//45 16//29 17//31
f 17//32 16//30 23//46
f 16//25 24//25 18//25
f 18//26 24//26 16//26
f 17//31 20//37 25//42
f 25//39 20//38 17//32
f 18//38 26//32 21//39
f 21//42 26//31 18//37
f 13//40 21//39 22//43
f 22//44 21//42 13//41
f 27//47 19//35 22//43
f 22//44 19//36 27//48
f 23//25 24//25 16//25
f 16//26 24//26 23//26
f 23//45 17//31 25//42
f 25//39 17//32 23//46
f 18//38 24//24 26//32
f 26//31 24//23 18//37
f 25//42 20//37 28//41
f 28//40 20//38 25//39
f 26//32 29//46 21//39
f 21//42 29//45 26//31
f 21//39 27//47 22//43
f 22//44 27//48 21//42
f 23//25 30//25 24//25
f 24//26 30//26 23//26
f 23//45 25//42 31//48
f 31//47 25//39 23//46
f 24//24 32//18 26//32
f 26//31 32//17 24//23
f 25//42 28//41 33//44
f 33//43 28//40 25//39
f 26//32 34//30 29//46
f 29//45 34//29 26//31
f 21//39 29//46 27//47
f 27//48 29//45 21//42
f 31//25 30//25 23//25
f 23//26 30//26 31//26
f 30//12 32//18 24//24
f 24//23 32//17 30//11
f 31//48 25//42 33//44
f 33//43 25//39 31//47
f 26//32 32//18 34//30
f 34//29 32//17 26//31
f 35//34 33//44 28//41
f 28//40 33//43 35//33
f 31//25 36//25 30//25
f 30//26 36//26 31//26
f 30//12 37//8 32//18
f 32//17 37//7 30//11
f 38//36 31//48 33//44
f 33//43 31//47 38//35
f 32//18 39//20 34//30
f 34//29 39//19 32//17
f 40//28 33//44 35//34
f 35//33 33//43 40//27
f 38//25 36//25 31//25
f 31//26 36//26 38//26
f 30//12 36//5 37//8
f 37//7 36//2 30//11
f 37//8 39//20 32//18
f 32//17 39//19 37//7
f 40//28 38//36 33//44
f 33//43 38//35 40//27
f 41//49 40//28 35//34
f 35//33 40//27 41//50
f 38//25 42//25 36//25
f 36//26 42//26 38//26
f 37//8 36//5 43//51
f 43//52 36//2 37//7
f 37//8 44//14 39//20
f 39//19 44//13 37//7
f 45//53 38//36 40//28
f 40//27 38//35 45//54
f 45//53 40//28 41//49
f 41//50 40//27 45//54
f 42//25 38//25 45//25
f 45//26 38//26 42//26
f 36//5 42//55 43//51
f 43//52 42//56 36//2
f 37//8 43//51 44//14
f 44//13 43//52 37//7
f 42//55 45//53 41//49
f 41//50 45//54 42//56
f 43//51 42//55 41//49
f 41//50 42//56 43//52
f 44//14 43//51 46//57
f 46//58 43//52 44//13
f 43//51 41//49 46//57
f 46//58 41//50 43//52
