# SSTK version 0.8.0
# 42
mtllib original-42.mtl
o mesh42/mesh42-geometry#mesh42-geometry
v -0.045160 -0.644722 0.058874
v -0.089832 -0.651503 -0.016190
v -0.046985 -0.644164 0.057014
v -0.027595 -0.644275 0.037612
v -0.331532 -0.685910 -0.341587
v -0.081357 -0.651512 -0.027607
v -0.237480 -0.672739 -0.217694
v -0.317804 -0.658680 -0.320319
v -0.069460 -0.651547 -0.035929
v -0.261985 -0.676283 -0.251358
v -0.333421 -0.662236 -0.346027
v -0.046926 -0.636222 0.057045
v -0.231818 -0.673297 -0.232061
v -0.064904 -0.651563 -0.037775
v -0.286422 -0.679821 -0.284990
v -0.335700 -0.687224 -0.358642
v -0.331573 -0.637145 -0.340450
v -0.047143 -0.560948 0.056855
v -0.218943 -0.673325 -0.241473
v -0.002238 -0.644756 0.026804
v -0.256870 -0.676931 -0.266156
v -0.310871 -0.683366 -0.318703
v -0.334990 -0.663745 -0.361183
v -0.334320 -0.638494 -0.349037
v -0.243910 -0.676957 -0.275689
v -0.003610 -0.644230 0.024481
v -0.213678 -0.673194 -0.242671
v -0.281892 -0.680562 -0.300223
v -0.334874 -0.686819 -0.350164
v -0.333598 -0.687688 -0.366690
v -0.327320 -0.636638 -0.339648
v -0.091765 -0.573937 -0.017529
v -0.294021 -0.685801 -0.368399
v -0.268884 -0.680588 -0.309881
v -0.306942 -0.684199 -0.334344
v -0.327411 -0.685735 -0.341094
v -0.327311 -0.687838 -0.373680
v -0.334890 -0.639673 -0.357967
v -0.310920 -0.632299 -0.317449
v -0.238158 -0.612841 -0.217304
v -0.029850 -0.561044 0.035623
v -0.238554 -0.676801 -0.276758
v -0.278308 -0.658680 -0.349014
v -0.293903 -0.684223 -0.344099
v -0.335371 -0.687444 -0.359024
v -0.326309 -0.640858 -0.373555
v -0.332320 -0.640527 -0.366613
v -0.286681 -0.625809 -0.284024
v -0.323537 -0.638296 -0.355640
v -0.232493 -0.613984 -0.231579
v -0.262453 -0.619330 -0.250680
v -0.083292 -0.574247 -0.028928
v -0.004269 -0.561045 0.024720
v -0.297932 -0.662236 -0.371812
v -0.263450 -0.680408 -0.310822
v -0.323635 -0.686632 -0.357231
v -0.310329 -0.686659 -0.367275
v -0.327132 -0.687930 -0.374686
v -0.306984 -0.633860 -0.332957
v -0.257335 -0.620610 -0.265373
v -0.071372 -0.574264 -0.037263
v -0.298628 -0.638024 -0.371349
v -0.298764 -0.686495 -0.372857
v -0.288395 -0.684019 -0.344905
v -0.332791 -0.687895 -0.367565
v -0.311861 -0.663745 -0.377987
v -0.282145 -0.627230 -0.299138
v -0.310090 -0.638344 -0.365779
v -0.244268 -0.620643 -0.274975
v -0.066830 -0.574196 -0.039105
v -0.214328 -0.613736 -0.242242
v -0.304624 -0.639125 -0.375611
v -0.311943 -0.687403 -0.378444
v -0.305262 -0.687142 -0.376442
v -0.319966 -0.687945 -0.377620
v -0.304688 -0.686439 -0.368066
v -0.326854 -0.688073 -0.374404
v -0.326120 -0.687838 -0.374546
v -0.319376 -0.640624 -0.376794
v -0.293815 -0.633900 -0.342799
v -0.219524 -0.614015 -0.241053
v -0.269020 -0.627268 -0.308874
v -0.238990 -0.620328 -0.276036
v -0.263673 -0.626919 -0.309808
v -0.312478 -0.687617 -0.378203
v -0.318945 -0.687741 -0.378060
v -0.311854 -0.640010 -0.377382
v -0.304555 -0.637940 -0.366561
v -0.288405 -0.633517 -0.343597
vn 0.31385795105856423 0.9105548580126395 -0.26904095804710126
vn 0.12364506024569936 0.9783094766784738 -0.16620008098051037
vn 0.33358484263839283 0.8985025761503782 -0.2853318654007159
vn -0.33358484263839283 -0.8985025761503782 0.2853318654007159
vn -0.12364506024569936 -0.9783094766784738 0.16620008098051037
vn -0.31385795105856423 -0.9105548580126395 0.26904095804710126
vn -0.048368992535189774 0.9965298462050625 -0.06773998954565412
vn 0.048368992535189774 -0.9965298462050625 0.06773998954565412
vn -0.026070990099008932 0.9958496218057629 -0.08719996688403103
vn 0.026070990099008932 -0.9958496218057629 0.08719996688403103
vn -0.05828502372498202 0.9963134055504506 -0.06294802562306177
vn 0.05828502372498202 -0.9963134055504506 0.06294802562306177
vn -0.04905500530414632 0.9963891077360726 -0.06929900749305931
vn 0.04905500530414632 -0.9963891077360726 0.06929900749305931
vn 0.8118262588666745 0.021687006915326282 -0.5834961860591668
vn 0.891460048165142 0.01727100093314367 -0.45277002446293874
vn 0.8269957525459545 0.00816799755596818 -0.5621488317935707
vn -0.8269957525459545 -0.00816799755596818 0.5621488317935707
vn -0.891460048165142 -0.01727100093314367 0.45277002446293874
vn -0.8118262588666745 -0.021687006915326282 0.5834961860591668
vn -0.03907500037734728 0.9962940096212113 -0.0766250007399674
vn 0.03907500037734728 -0.9962940096212113 0.0766250007399674
vn -0.05000901420148686 0.9963692829474946 -0.06890101956641075
vn 0.05000901420148686 -0.9963692829474946 0.06890101956641075
vn 0.9528695543253857 0.006583996920543625 -0.30330885813686903
vn -0.9528695543253857 -0.006583996920543625 0.30330885813686903
vn 0.8124153970055663 -0.00145000070857624 -0.5830772849341956
vn -0.8124153970055663 0.00145000070857624 0.5830772849341956
vn -0.05322299766156781 0.9963399562243104 -0.06688799706117536
vn 0.05322299766156781 -0.9963399562243104 0.06688799706117536
vn -0.12039295174356499 0.9927156020953449 0.004611998151398737
vn 0.12039295174356499 -0.9927156020953449 -0.004611998151398737
vn -0.04883299223277138 0.9963748415196194 -0.0696599889200918
vn 0.04883299223277138 -0.9963748415196194 0.0696599889200918
vn 0.9995672068334666 -0.003464000716781488 -0.029213006044843476
vn -0.9995672068334666 0.003464000716781488 0.029213006044843476
vn 0.8806858685206552 0.010337998456619757 -0.4735879292971162
vn -0.8806858685206552 -0.010337998456619757 0.4735879292971162
vn 0.8136267506360504 -0.009867996975612216 -0.5813038218394162
vn -0.8136267506360504 0.009867996975612216 0.5813038218394162
vn -0.04091998941309987 0.9962897422379586 -0.07571198041164733
vn 0.04091998941309987 -0.9962897422379586 0.07571198041164733
vn -0.32881795803921426 0.9178528828718834 0.22231697162991096
vn 0.32881795803921426 -0.9178528828718834 -0.22231697162991096
vn -0.054177991759961505 0.9963458484637787 -0.0660279899576715
vn 0.054177991759961505 -0.9963458484637787 0.0660279899576715
vn -0.06255101980221732 0.9962273153827047 -0.060154019043381676
vn 0.06255101980221732 -0.9962273153827047 0.060154019043381676
vn 0.9588406745067263 -0.01597499457704146 0.2834949037632771
vn -0.9588406745067263 0.01597499457704146 -0.2834949037632771
vn 0.9872567652999706 0.00878099791249804 -0.15889296222646002
vn -0.9872567652999706 -0.00878099791249804 0.15889296222646002
vn -0.04539399985460302 0.9963389968087263 -0.07244299976796485
vn 0.04539399985460302 -0.9963389968087263 0.07244299976796485
vn -0.3428898649747982 0.9107036413777264 0.23031590930483736
vn 0.3428898649747982 -0.9107036413777264 -0.23031590930483736
vn -0.04914299664478658 0.996363931973753 -0.0695979952482316
vn 0.04914299664478658 -0.996363931973753 0.0695979952482316
vn -0.052831978846449724 0.9963486010690744 -0.06706897314605778
vn 0.052831978846449724 -0.9963486010690744 0.06706897314605778
vn -0.0779250368462 0.995614470767951 -0.051764024476184535
vn 0.0779250368462 -0.995614470767951 0.051764024476184535
vn 0.8788923498462456 -0.057802023008302256 0.4735051884804351
vn -0.8788923498462456 0.057802023008302256 -0.4735051884804351
vn 0.09474297638541081 -0.9876647538255784 0.12466796892663706
vn 0.09442596813912567 -0.9877306667234316 0.12438595803013222
vn 0.10833203814344651 -0.9876343477436459 0.11332503990147003
vn -0.10833203814344651 0.9876343477436459 -0.11332503990147003
vn -0.09442596813912567 0.9877306667234316 -0.12438595803013222
vn -0.09474297638541081 0.9876647538255784 -0.12466796892663706
vn 0.11763899066546409 -0.9874689216453316 0.10519599165280336
vn 0.13234997057377404 -0.9868377805899662 0.09292297933983208
vn -0.13234997057377404 0.9868377805899662 -0.09292297933983208
vn -0.11763899066546409 0.9874689216453316 -0.10519599165280336
vn -0.05509100261158905 0.995525047192866 -0.07677800363966114
vn 0.05509100261158905 -0.995525047192866 0.07677800363966114
vn -0.046295989567986945 0.9963387754920198 -0.07187298380464655
vn 0.046295989567986945 -0.9963387754920198 0.07187298380464655
vn -0.05182499159911772 0.9963408384921669 -0.0679639889829701
vn 0.05182499159911772 -0.9963408384921669 0.0679639889829701
vn -0.07757302601217932 0.9956613338701928 -0.0513900172323602
vn 0.07757302601217932 -0.9956613338701928 0.0513900172323602
vn 0.8769496726676339 -0.05178698066986584 0.47778382166124955
vn -0.8769496726676339 0.05178698066986584 -0.47778382166124955
vn 0.883970860214605 -0.44260093000997147 0.15066497617482177
vn -0.883970860214605 0.44260093000997147 -0.15066497617482177
vn 0.0952549665789912 -0.987663653469873 0.12428595639322321
vn -0.0952549665789912 0.987663653469873 -0.12428595639322321
vn 0.09379298379365242 -0.987861829308851 0.12382197860498768
vn -0.09379298379365242 0.987861829308851 -0.12382197860498768
vn 0.09733799562884272 -0.987828955639566 0.12132299455174818
vn -0.09733799562884272 0.987828955639566 -0.12132299455174818
vn 0.09016402346915739 -0.9881202572018079 0.12445403239464192
vn -0.09016402346915739 0.9881202572018079 -0.12445403239464192
vn -0.050043986898460915 0.996358739152818 -0.06902798192844196
vn 0.050043986898460915 -0.996358739152818 0.06902798192844196
vn -0.8057825335576057 0.01820498946169887 0.5919316573492126
vn -0.7830112490465551 -0.029127009264210996 0.6213251976202772
vn -0.7508657603308208 0.002010999358108065 0.6604517891900968
vn 0.7508657603308208 -0.002010999358108065 -0.6604517891900968
vn 0.7830112490465551 0.029127009264210996 -0.6213251976202772
vn 0.8057825335576057 -0.01820498946169887 -0.5919316573492126
vn -0.04753399955817148 0.9963469907389548 -0.07094499934056601
vn 0.04753399955817148 -0.9963469907389548 0.07094499934056601
vn -0.059984993272023536 0.9958358883060571 -0.06864899230026057
vn 0.059984993272023536 -0.9958358883060571 0.06864899230026057
vn 0.7067400900793308 0.018851002402701635 0.7072220901407653
vn -0.7067400900793308 -0.018851002402701635 -0.7072220901407653
vn 0.6385229258374819 -0.656961923695848 0.40086095344120537
vn -0.6385229258374819 0.656961923695848 -0.40086095344120537
vn 0.093582003797511 -0.9877740400833774 0.12467900505941155
vn -0.093582003797511 0.9877740400833774 -0.12467900505941155
vn 0.09538202896065909 -0.9878262999317694 0.12288803731225445
vn -0.09538202896065909 0.9878262999317694 -0.12288803731225445
vn 0.09300597407477436 -0.9877957246539557 0.12493796517379671
vn 0.09290102033710393 -0.9878702162561744 0.124426027238291
vn -0.09290102033710393 0.9878702162561744 -0.124426027238291
vn -0.09300597407477436 0.9877957246539557 -0.12493796517379671
vn 0.09782303583189983 -0.9877693618130692 0.12141804447458769
vn -0.09782303583189983 0.9877693618130692 -0.12141804447458769
vn 0.09656996052877498 -0.9878095962506908 0.12209195009712306
vn -0.09656996052877498 0.9878095962506908 -0.12209195009712306
vn 0.10413695963850086 -0.9877276171756166 0.11640295488443486
vn -0.10413695963850086 0.9877276171756166 -0.11640295488443486
vn -0.37572476822128575 -0.8179114954432319 0.4357197312113343
vn 0.37572476822128575 0.8179114954432319 -0.4357197312113343
vn -0.5779192115597914 -0.016836006163183342 0.8159202986852224
vn 0.5779192115597914 0.016836006163183342 -0.8159202986852224
vn -0.05128198197120702 0.9963596497178704 -0.0680999760586402
vn 0.05128198197120702 -0.9963596497178704 0.0680999760586402
vn -0.054451973165965326 0.9960195091597147 -0.07056996522298833
vn 0.054451973165965326 -0.9960195091597147 0.07056996522298833
vn -0.04976799861463313 0.9961399722709502 -0.07230699798722606
vn 0.04976799861463313 -0.9961399722709502 0.07230699798722606
vn 0.45594283128157814 0.07567897199553116 0.8867856718512304
vn -0.45594283128157814 -0.07567897199553116 -0.8867856718512304
vn 0.09394396109250593 -0.9878105908919077 0.12411594859658356
vn -0.09394396109250593 0.9878105908919077 -0.12411594859658356
vn 0.09642899362859908 -0.9878049347322726 0.12224099192310985
vn -0.09642899362859908 0.9878049347322726 -0.12224099192310985
vn 0.08051501027431983 -0.9877541260448426 0.13363801705321413
vn -0.08051501027431983 0.9877541260448426 -0.13363801705321413
vn -0.4226569870778968 -0.712402978219348 0.5602169828722062
vn 0.4226569870778968 0.712402978219348 -0.5602169828722062
vn -0.5450092664864336 -0.01745000853231482 0.8382484098679471
vn 0.5450092664864336 0.01745000853231482 -0.8382484098679471
vn -0.05347501951119329 0.9962503634974532 -0.06801202481524575
vn 0.05347501951119329 -0.9962503634974532 0.06801202481524575
vn -0.05643098567677368 0.9958257472410346 -0.07173998179106751
vn 0.05643098567677368 -0.9958257472410346 0.07173998179106751
vn 0.005148000325266114 0.0123030007773403 0.9999110631773827
vn -0.005148000325266114 -0.0123030007773403 -0.9999110631773827
vn 0.09106596212758661 -0.9877685892078724 0.1265709473618117
vn -0.09106596212758661 0.9877685892078724 -0.1265709473618117
vn 0.09566102527087204 -0.9877842609439905 0.12300903249542319
vn -0.09566102527087204 0.9877842609439905 -0.12300903249542319
vn 0.09054902411438548 -0.9877382630475752 0.12717703386890172
vn -0.09054902411438548 0.9877382630475752 -0.12717703386890172
vn 0.08683501894284436 -0.9877762154809354 0.1294520282396392
vn -0.08683501894284436 0.9877762154809354 -0.1294520282396392
vn 0.06648899838252216 -0.9875219759765531 0.14275699652715035
vn -0.06648899838252216 0.9875219759765531 -0.14275699652715035
vn 0.07424699977692488 -0.9876299970326657 0.1381099995850483
vn -0.07424699977692488 0.9876299970326657 -0.1381099995850483
vn -0.35150686398479686 -0.3153998779563565 0.8814566589212932
vn 0.35150686398479686 0.3153998779563565 -0.8814566589212932
vn -0.2515039423099066 -0.021212995134153343 0.9676237780459994
vn 0.2515039423099066 0.021212995134153343 -0.9676237780459994
vn -0.04728901899207775 0.9952933997268295 -0.0845860339711958
vn -0.03275900313538072 0.9922770949713414 -0.1196370114505185
vn 0.03275900313538072 -0.9922770949713414 0.1196370114505185
vn 0.04728901899207775 -0.9952933997268295 0.0845860339711958
vn -0.05157700466673917 0.9958050901014445 -0.07557800683837372
vn 0.05157700466673917 -0.9958050901014445 0.07557800683837372
vn -0.04415800946727954 0.9960312135446331 -0.07727801656806056
vn 0.04415800946727954 -0.9960312135446331 0.07727801656806056
vn -0.05406198048727775 0.9958296405727831 -0.07348897347544564
vn 0.05406198048727775 -0.9958296405727831 0.07348897347544564
vn 0.1509180327802303 0.051704011230396606 0.9871932144238189
vn -0.1509180327802303 -0.051704011230396606 -0.9871932144238189
vn 0.22996809131011361 -0.6458122564233595 0.7280392890720613
vn -0.22996809131011361 0.6458122564233595 -0.7280392890720613
vn 0.0890300053000899 -0.9877740588036731 0.12796900761818697
vn -0.0890300053000899 0.9877740588036731 -0.12796900761818697
vn 0.08236202382960191 -0.9877262857764183 0.1327150383981156
vn -0.08236202382960191 0.9877262857764183 -0.1327150383981156
vn 0.08773800801723633 -0.9877710902595631 0.12888101177676053
vn -0.08773800801723633 0.9877710902595631 -0.12888101177676053
vn 0.08714199283291994 -0.9877819187588917 0.1292019893736534
vn -0.08714199283291994 0.9877819187588917 -0.1292019893736534
vn 0.09170103921714992 -0.9877634224299588 0.12615205395057716
vn 0.08932402381124219 -0.9877842633151678 0.12768503403719536
vn -0.08932402381124219 0.9877842633151678 -0.12768503403719536
vn -0.09170103921714992 0.9877634224299588 -0.12615205395057716
vn -0.04780601037808841 0.9957332161612581 -0.07893001713472174
vn 0.04780601037808841 -0.9957332161612581 0.07893001713472174
vn 0.2520390344422706 -0.07732101056626497 0.964623131820101
vn -0.2520390344422706 0.07732101056626497 -0.964623131820101
vn 0.008279997459763409 -0.673171793476311 0.7394397731458278
vn -0.008279997459763409 0.673171793476311 -0.7394397731458278
vn 0.09002000511435172 -0.9876980561145853 0.12786300726434496
vn -0.09002000511435172 0.9876980561145853 -0.12786300726434496
vn 0.0900910345087017 -0.9878153783753446 0.1269030486092701
vn -0.0900910345087017 0.9878153783753446 -0.1269030486092701
usemtl material_0_0
f 1//1 2//2 3//3
f 3//4 2//5 1//6
f 2//2 1//1 4//7
f 4//8 1//6 2//5
f 2//2 5//9 3//3
f 3//4 5//10 2//5
f 6//11 2//2 4//7
f 4//8 2//5 6//12
f 5//9 2//2 7//13
f 7//14 2//5 5//10
f 3//15 5//16 8//17
f 8//18 5//19 3//20
f 2//2 6//11 7//13
f 7//14 6//12 2//5
f 9//21 6//11 4//7
f 4//8 6//12 9//22
f 10//23 5//9 7//13
f 7//14 5//10 10//24
f 8//17 5//16 11//25
f 11//26 5//19 8//18
f 12//27 3//15 8//17
f 8//18 3//20 12//28
f 13//29 7//13 6//11
f 6//12 7//14 13//30
f 6//11 9//21 13//29
f 13//30 9//22 6//12
f 9//21 4//7 14//31
f 14//32 4//8 9//22
f 5//9 10//23 15//33
f 15//34 10//24 5//10
f 7//13 13//29 10//23
f 10//24 13//30 7//14
f 5//16 16//35 11//25
f 11//26 16//36 5//19
f 8//17 11//25 17//37
f 17//38 11//26 8//18
f 12//27 8//17 18//39
f 18//40 8//18 12//28
f 19//41 13//29 9//21
f 9//22 13//30 19//42
f 14//31 4//7 20//43
f 20//44 4//8 14//32
f 19//41 9//21 14//31
f 14//32 9//22 19//42
f 10//23 21//45 15//33
f 15//34 21//46 10//24
f 5//9 15//33 22//47
f 22//48 15//34 5//10
f 21//45 10//23 13//29
f 13//30 10//24 21//46
f 11//25 16//35 23//49
f 23//50 16//36 11//26
f 17//37 11//25 24//51
f 24//52 11//26 17//38
f 18//39 8//17 17//37
f 17//38 8//18 18//40
f 13//29 19//41 25//53
f 25//54 19//42 13//30
f 14//31 20//43 26//55
f 26//56 20//44 14//32
f 27//57 19//41 14//31
f 14//32 19//42 27//58
f 28//59 15//33 21//45
f 21//46 15//34 28//60
f 15//33 28//59 22//47
f 22//48 28//60 15//34
f 29//61 5//9 22//47
f 22//48 5//10 29//62
f 13//29 25//53 21//45
f 21//46 25//54 13//30
f 16//35 30//63 23//49
f 23//50 30//64 16//36
f 11//25 23//49 24//51
f 24//52 23//50 11//26
f 24//65 31//66 17//67
f 17//68 31//69 24//70
f 17//67 32//71 18//72
f 18//73 32//74 17//68
f 19//41 27//57 25//53
f 25//54 27//58 19//42
f 33//75 14//31 26//55
f 26//56 14//32 33//76
f 33//75 27//57 14//31
f 14//32 27//58 33//76
f 21//45 34//77 28//59
f 28//60 34//78 21//46
f 35//79 22//47 28//59
f 28//60 22//48 35//80
f 29//61 22//47 36//81
f 36//82 22//48 29//62
f 21//45 25//53 34//77
f 34//78 25//54 21//46
f 23//49 30//63 37//83
f 37//84 30//64 23//50
f 24//51 23//49 38//85
f 38//86 23//50 24//52
f 38//87 31//66 24//65
f 24//70 31//69 38//88
f 39//89 17//67 31//66
f 31//69 17//68 39//90
f 40//91 32//71 17//67
f 17//68 32//74 40//92
f 32//71 41//93 18//72
f 18//73 41//94 32//74
f 42//95 25//53 27//57
f 27//58 25//54 42//96
f 26//97 43//98 33//99
f 33//100 43//101 26//102
f 27//57 33//75 42//95
f 42//96 33//76 27//58
f 28//59 34//77 44//103
f 44//104 34//78 28//60
f 22//47 35//79 36//81
f 36//82 35//80 22//48
f 28//59 44//103 35//79
f 35//80 44//104 28//60
f 45//105 29//61 36//81
f 36//82 29//62 45//106
f 25//53 42//95 34//77
f 34//78 42//96 25//54
f 23//49 37//83 46//107
f 46//108 37//84 23//50
f 38//85 23//49 47//109
f 47//110 23//50 38//86
f 47//109 31//111 38//85
f 38//86 31//112 47//110
f 48//113 17//67 39//89
f 39//90 17//68 48//114
f 31//111 49//115 39//116
f 39//117 49//118 31//112
f 32//71 40//91 50//119
f 50//120 40//92 32//74
f 17//67 51//121 40//91
f 40//92 51//122 17//68
f 32//71 52//123 41//93
f 41//94 52//124 32//74
f 53//125 43//98 26//97
f 26//102 43//101 53//126
f 43//98 54//127 33//99
f 33//100 54//128 43//101
f 42//95 33//75 55//129
f 55//130 33//76 42//96
f 34//77 55//129 44//103
f 44//104 55//130 34//78
f 36//81 35//79 56//131
f 56//132 35//80 36//82
f 35//79 44//103 57//133
f 57//134 44//104 35//80
f 45//105 36//81 56//131
f 56//132 36//82 45//106
f 55//129 34//77 42//95
f 42//96 34//78 55//130
f 46//107 37//83 58//135
f 58//136 37//84 46//108
f 23//49 46//107 47//109
f 47//110 46//108 23//50
f 31//111 47//109 49//115
f 49//118 47//110 31//112
f 51//121 17//67 48//113
f 48//114 17//68 51//122
f 48//113 39//89 59//137
f 59//138 39//90 48//114
f 49//115 59//137 39//89
f 39//90 59//138 49//118
f 60//139 50//119 40//91
f 40//92 50//120 60//140
f 50//119 52//123 32//71
f 32//74 52//124 50//120
f 51//121 60//139 40//91
f 40//92 60//140 51//122
f 52//123 61//141 41//93
f 41//94 61//142 52//124
f 53//125 62//143 43//98
f 43//101 62//144 53//126
f 43//98 62//143 54//127
f 54//128 62//144 43//101
f 54//127 63//145 33//99
f 33//100 63//146 54//128
f 55//129 33//75 64//147
f 64//148 33//76 55//130
f 64//147 44//103 55//129
f 55//130 44//104 64//148
f 35//79 57//133 56//131
f 56//132 57//134 35//80
f 44//103 64//147 57//133
f 57//134 64//148 44//104
f 45//105 56//131 65//149
f 65//150 56//132 45//106
f 46//107 58//135 66//151
f 66//152 58//136 46//108
f 46//153 49//115 47//109
f 47//110 49//118 46//154
f 48//113 67//155 51//121
f 51//122 67//156 48//114
f 67//155 48//113 59//137
f 59//138 48//114 67//156
f 68//157 59//137 49//115
f 49//118 59//138 68//158
f 69//159 50//119 60//139
f 60//140 50//120 69//160
f 61//141 52//123 50//119
f 50//120 52//124 61//142
f 60//139 51//121 67//155
f 67//156 51//122 60//140
f 61//141 70//161 41//93
f 41//94 70//162 61//142
f 62//143 53//125 71//163
f 71//164 53//126 62//144
f 62//143 72//165 54//127
f 54//128 72//166 62//144
f 54//127 73//167 63//145
f 63//146 73//168 54//128
f 74//169 33//75 63//170
f 63//171 33//76 74//172
f 74//169 64//147 33//75
f 33//76 64//148 74//172
f 75//173 56//131 57//133
f 57//134 56//132 75//174
f 57//133 64//147 76//175
f 76//176 64//148 57//134
f 65//149 56//131 77//177
f 77//178 56//132 65//150
f 66//151 58//135 78//179
f 78//180 58//136 66//152
f 79//181 46//107 66//151
f 66//152 46//108 79//182
f 79//181 49//115 46//153
f 46//154 49//118 79//182
f 80//183 67//155 59//137
f 59//138 67//156 80//184
f 80//183 59//137 68//157
f 68//158 59//138 80//184
f 68//157 49//115 79//181
f 79//182 49//118 68//158
f 81//185 50//119 69//159
f 69//160 50//120 81//186
f 69//159 60//139 82//187
f 82//188 60//140 69//160
f 50//119 81//185 61//141
f 61//142 81//186 50//120
f 82//187 60//139 67//155
f 67//156 60//140 82//188
f 81//185 70//161 61//141
f 61//142 70//162 81//186
f 70//161 53//125 41//93
f 41//94 53//126 70//162
f 71//163 53//125 70//161
f 70//162 53//126 71//164
f 83//189 62//143 71//163
f 71//164 62//144 83//190
f 72//191 62//143 84//192
f 84//193 62//144 72//194
f 72//165 66//151 54//127
f 54//128 66//152 72//166
f 54//127 66//151 73//167
f 73//168 66//152 54//128
f 74//169 76//175 64//147
f 64//148 76//176 74//172
f 56//131 75//173 77//177
f 77//178 75//174 56//132
f 57//133 85//195 75//173
f 75//174 85//196 57//134
f 85//195 57//133 76//175
f 76//176 57//134 85//196
f 66//151 78//179 86//197
f 86//198 78//180 66//152
f 87//199 79//181 66//151
f 66//152 79//182 87//200
f 82//187 67//155 80//183
f 80//184 67//156 82//188
f 87//199 68//157 79//181
f 79//182 68//158 87//200
f 71//163 81//185 69//159
f 69//160 81//186 71//164
f 83//189 69//159 82//187
f 82//188 69//160 83//190
f 81//185 71//163 70//161
f 70//162 71//164 81//186
f 62//143 83//189 84//192
f 84//193 83//190 62//144
f 69//159 83//189 71//163
f 71//164 83//190 69//160
f 72//165 87//199 66//151
f 66//152 87//200 72//166
f 66//151 86//197 73//167
f 73//168 86//198 66//152
f 85//195 76//175 74//169
f 74//172 76//176 85//196
f 84//192 82//187 80//183
f 80//184 82//188 84//193
f 68//157 87//199 88//201
f 88//202 87//200 68//158
f 82//187 84//192 83//189
f 83//190 84//193 82//188
f 87//199 72//165 88//201
f 88//202 72//166 87//200
f 68//157 88//201 89//203
f 89//204 88//202 68//158
