# SSTK version 0.8.0
# 76
mtllib original-76.mtl
o mesh76/mesh76-geometry#mesh76-geometry
v -0.156906 0.008622 -0.276235
v -0.156700 0.005290 -0.273557
v 0.005845 0.005290 -0.279799
v -0.318329 0.005290 -0.254814
v -0.157018 0.001957 -0.277679
v 0.008509 0.008622 -0.282484
v -0.318366 0.006545 -0.255051
v -0.318366 0.004035 -0.255051
v 0.008511 0.001957 -0.283932
v -0.318482 0.002878 -0.255801
v 0.005845 0.005290 -0.286620
v 0.168359 0.005290 -0.273549
v -0.318482 0.007701 -0.255801
v -0.318660 0.002119 -0.256944
v 0.168884 0.005290 -0.280350
v -0.157224 0.005290 -0.280357
v 0.168566 0.008622 -0.276228
v -0.318660 0.008461 -0.256944
v 0.168677 0.001957 -0.277672
v -0.318852 0.001880 -0.258184
v -0.319222 0.007701 -0.260567
v 0.330048 0.007701 -0.255801
v -0.318852 0.008700 -0.258184
v -0.319222 0.002878 -0.260567
v 0.329895 0.005290 -0.254814
v -0.319044 0.002119 -0.259425
v 0.330787 0.007701 -0.260567
v -0.319044 0.008461 -0.259425
v -0.319338 0.006545 -0.261317
v 0.329931 0.006545 -0.255051
v 0.330225 0.008461 -0.256944
v 0.330787 0.002878 -0.260567
v -0.319338 0.004035 -0.261317
v 0.329931 0.004035 -0.255051
v 0.330610 0.008461 -0.259425
v 0.330904 0.006545 -0.261317
v -0.319375 0.005290 -0.261554
v 0.330048 0.002878 -0.255801
v 0.330225 0.002119 -0.256944
v 0.330417 0.008700 -0.258184
v 0.330904 0.004035 -0.261317
v 0.330610 0.002119 -0.259425
v 0.330940 0.005290 -0.261554
v 0.330417 0.001880 -0.258184
vn 0.0306449997386288 0.9661569917596471 0.25612799781548456
vn 0.09193195869148682 -0.2188259016732293 0.9714235635025769
vn 0.010085000309619601 0.6272930192585231 0.7787180239074226
vn -0.010085000309619601 -0.6272930192585231 -0.7787180239074226
vn -0.09193195869148682 0.2188259016732293 -0.9714235635025769
vn -0.0306449997386288 -0.9661569917596471 -0.25612799781548456
vn 0.11665001312516861 0.22292102508251765 0.9678321088980556
vn -0.11665001312516861 -0.22292102508251765 -0.9678321088980556
vn -0.0010540003092474252 -0.998486292959416 -0.054991016134559194
vn 0.008128999092507045 -0.7784339130983675 0.6276739299286831
vn -0.008128999092507045 0.7784339130983675 -0.6276739299286831
vn 0.0010540003092474252 0.998486292959416 0.054991016134559194
vn -0.01002700116765438 0.6273000730497248 0.7787130906819235
vn 0.01002700116765438 -0.6273000730497248 -0.7787130906819235
vn 0.11583301063080671 0.3752660344407922 0.9196510844028216
vn -0.11583301063080671 -0.3752660344407922 -0.9196510844028216
vn 0.10829296539071087 -0.37520888008720105 0.9205927057882843
vn -0.10829296539071087 0.37520888008720105 -0.9205927057882843
vn -0.008080994931662176 -0.7784395117687298 0.6276676063317081
vn 0.008080994931662176 0.7784395117687298 -0.6276676063317081
vn 0.08403398551153374 -0.7319578738016901 0.676147883424001
vn -0.08403398551153374 0.7319578738016901 -0.676147883424001
vn 0.008556002548589693 0.778520231899024 -0.6275611869326198
vn -0.007653999439953056 0.7785209430352357 -0.6275719540802479
vn 0.007653999439953056 -0.7785209430352357 0.6275719540802479
vn -0.008556002548589693 -0.778520231899024 0.6275611869326198
vn -0.08093500974502091 0.04805800578644834 0.9955601198709213
vn 0.08093500974502091 -0.04805800578644834 -0.9955601198709213
vn 0.08477299456664462 0.706915954691637 0.7021989549939639
vn -0.08477299456664462 -0.706915954691637 -0.7021989549939639
vn -0.9881803083043988 0 0.153296047827148
vn 0.9881803083043988 0 -0.153296047827148
vn -0.009497000751303011 -0.6274560496377362 -0.7785940615941894
vn 0.010614997205278594 -0.6274558348031355 -0.7785797950151493
vn -0.010614997205278594 0.6274558348031355 0.7785797950151493
vn 0.009497000751303011 0.6274560496377362 0.7785940615941894
vn 0.046868008068586056 -0.9268121595558245 0.3725890641432619
vn -0.046868008068586056 0.9268121595558245 -0.3725890641432619
vn 0.08531203947551072 0.058363027005687955 -0.9946434602405337
vn -0.08531203947551072 -0.058363027005687955 0.9946434602405337
vn -0.09557700479772681 0.04682600235054853 -0.9943200499123819
vn 0.09557700479772681 -0.04682600235054853 0.9943200499123819
vn -0.006676999859292246 0.9989069789495342 0.046262999025076926
vn 0.006676999859292246 -0.9989069789495342 -0.046262999025076926
vn 0.043568019194243635 0.9267764082988508 0.3730781643626064
vn -0.043568019194243635 -0.9267764082988508 -0.3730781643626064
vn -0.03161698878795381 -0.9784126530343882 0.20422792757650074
vn 0.03161698878795381 0.9784126530343882 -0.20422792757650074
vn 0.00047199994616534124 -0.9999998859435196 -0.00007299999167409898
vn -0.00047199994616534124 0.9999998859435196 0.00007299999167409898
vn -0.072934974842507 0.7319497475282511 -0.6774437663290231
vn 0.072934974842507 -0.7319497475282511 0.6774437663290231
vn -0.08723697271842941 0.6808267870854126 0.7272307725735199
vn 0.08723697271842941 -0.6808267870854126 -0.7272307725735199
vn 0.00047199994616534124 0.9999998859435196 -0.00007299999167365489
vn -0.00047199994616534124 -0.9999998859435196 0.00007299999167365489
vn -0.0815219933679823 -0.6808349446123773 -0.7278859407846615
vn 0.0815219933679823 0.6808349446123773 0.7278859407846615
vn -0.11807795447434496 -0.28760788911107427 0.9504416335515962
vn 0.11807795447434496 0.28760788911107427 -0.9504416335515962
vn -0.042965998260908286 -0.9267699624880597 -0.3731639848958151
vn 0.042965998260908286 0.9267699624880597 0.3731639848958151
vn 0.07294700982330032 0.7319500985669688 -0.677442091226729
vn -0.07294700982330032 -0.7319500985669688 0.677442091226729
vn -0.0396630147085756 0.9267233436647584 -0.37364513856202813
vn 0.0396630147085756 -0.9267233436647584 0.37364513856202813
vn -0.1052579648425299 0.37514987469527367 -0.920968692384996
vn 0.1052579648425299 -0.37514987469527367 0.920968692384996
vn -0.10831401817633937 0.37520906296440076 0.9205901544856278
vn 0.10831401817633937 -0.37520906296440076 -0.9205901544856278
vn -0.04357597988023394 0.9267765720916001 0.3730768277441263
vn 0.04357597988023394 -0.9267765720916001 -0.3730768277441263
vn 0.08153701235081989 -0.680835103129505 -0.7278841102562541
vn -0.08153701235081989 0.680835103129505 0.7278841102562541
vn -0.10525796484252987 -0.3751498746952731 -0.920968692384996
vn 0.10525796484252987 0.3751498746952731 0.920968692384996
vn -0.12402000868257913 -0.37533402627694873 0.918555064307583
vn 0.12402000868257913 0.37533402627694873 -0.918555064307583
vn 0.03966902009184806 0.9267234693735087 -0.37364418924597215
vn -0.03966902009184806 -0.9267234693735087 0.37364418924597215
vn 0.10527803406060786 0.37515012137233855 -0.9209662979602743
vn -0.10527803406060786 -0.37515012137233855 0.9209662979602743
vn -0.1151869799974947 0 -0.9933438275033761
vn 0.1151869799974947 0 0.9933438275033761
vn 0.9881803083043988 0 0.153296047827148
vn -0.9881803083043988 0 -0.153296047827148
vn -0.0004729999458277923 0.9999998854710197 -0.0000729999916391624
vn 0.0004729999458277923 -0.9999998854710197 0.0000729999916391624
vn 0.10527803406060786 -0.3751501213723381 -0.9209662979602745
vn -0.10527803406060786 0.3751501213723381 0.9209662979602745
vn 0.042973999524170386 -0.9267699897383391 -0.37316299586815294
vn -0.042973999524170386 0.9267699897383391 0.37316299586815294
vn -0.09101503062069248 -0.7070022378606915 0.7013302359524282
vn 0.09101503062069248 0.7070022378606915 -0.7013302359524282
vn 0.11520903133904976 0 -0.9933412702077358
vn -0.11520903133904976 0 0.9933412702077358
vn -0.00047199994616534124 -0.9999998859435196 -0.00007299999167409898
vn 0.00047199994616534124 0.9999998859435196 0.00007299999167409898
vn -0.04687901883238386 -0.9268123723219215 0.37258714967685735
vn 0.04687901883238386 0.9268123723219215 -0.37258714967685735
usemtl material_0_0
f 1//1 2//2 3//3
f 3//4 2//5 1//6
f 1//1 4//7 2//2
f 2//5 4//8 1//6
f 5//9 3//10 2//2
f 2//5 3//11 5//12
f 6//13 1//1 3//3
f 3//4 1//6 6//14
f 1//1 7//15 4//7
f 4//8 7//16 1//6
f 2//2 4//7 8//17
f 8//18 4//8 2//5
f 5//9 9//19 3//10
f 3//11 9//20 5//12
f 10//21 5//9 2//2
f 2//5 5//12 10//22
f 1//1 6//23 11//24
f 11//25 6//26 1//6
f 6//13 3//3 12//27
f 12//28 3//4 6//14
f 1//1 13//29 7//15
f 7//16 13//30 1//6
f 7//31 8//31 4//31
f 4//32 8//32 7//32
f 2//2 8//17 10//21
f 10//22 8//18 2//5
f 11//33 9//34 5//9
f 5//12 9//35 11//36
f 3//10 9//19 12//27
f 12//28 9//20 3//11
f 14//37 5//9 10//21
f 10//22 5//12 14//38
f 11//24 6//23 15//39
f 15//40 6//26 11//25
f 16//41 1//1 11//24
f 11//25 1//6 16//42
f 17//43 6//13 12//27
f 12//28 6//14 17//44
f 18//45 13//29 1//1
f 1//6 13//30 18//46
f 13//31 8//31 7//31
f 7//32 8//32 13//32
f 13//31 10//31 8//31
f 8//32 10//32 13//32
f 15//39 9//34 11//33
f 11//36 9//35 15//40
f 11//33 5//9 16//41
f 16//42 5//12 11//36
f 9//19 19//47 12//27
f 12//28 19//48 9//20
f 20//49 5//9 14//37
f 14//38 5//12 20//50
f 18//31 14//31 10//31
f 10//32 14//32 18//32
f 6//23 17//43 15//39
f 15//40 17//44 6//26
f 21//51 1//1 16//41
f 16//42 1//6 21//52
f 17//43 12//27 22//53
f 22//54 12//28 17//44
f 18//31 10//31 13//31
f 13//32 10//32 18//32
f 23//55 18//45 1//1
f 1//6 18//46 23//56
f 15//39 19//47 9//34
f 9//35 19//48 15//40
f 16//41 5//9 24//57
f 24//58 5//12 16//42
f 12//27 19//47 25//59
f 25//60 19//48 12//28
f 26//61 5//9 20//49
f 20//50 5//12 26//62
f 23//31 20//31 14//31
f 14//32 20//32 23//32
f 23//31 14//31 18//31
f 18//32 14//32 23//32
f 17//43 27//63 15//39
f 15//40 27//64 17//44
f 21//51 28//65 1//1
f 1//6 28//66 21//52
f 21//51 16//41 29//67
f 29//68 16//42 21//52
f 22//53 12//27 30//69
f 30//70 12//28 22//54
f 17//43 22//53 31//71
f 31//72 22//54 17//44
f 28//65 23//55 1//1
f 1//6 23//56 28//66
f 15//39 32//73 19//47
f 19//48 32//74 15//40
f 24//57 5//9 26//61
f 26//62 5//12 24//58
f 16//41 24//57 33//75
f 33//76 24//58 16//42
f 25//59 19//47 34//77
f 34//78 19//48 25//60
f 30//69 12//27 25//59
f 25//60 12//28 30//70
f 28//31 26//31 20//31
f 20//32 26//32 28//32
f 28//31 20//31 23//31
f 23//32 20//32 28//32
f 17//43 35//79 27//63
f 27//64 35//80 17//44
f 27//63 36//81 15//39
f 15//40 36//82 27//64
f 21//31 26//31 28//31
f 28//32 26//32 21//32
f 29//67 16//41 37//83
f 37//84 16//42 29//68
f 29//31 24//31 21//31
f 21//32 24//32 29//32
f 38//85 22//85 30//85
f 30//86 22//86 38//86
f 39//85 31//85 22//85
f 22//86 31//86 39//86
f 17//43 31//71 40//87
f 40//88 31//72 17//44
f 15//39 41//89 32//73
f 32//74 41//90 15//40
f 19//47 32//73 42//91
f 42//92 32//74 19//48
f 21//31 24//31 26//31
f 26//32 24//32 21//32
f 29//31 33//31 24//31
f 24//32 33//32 29//32
f 16//41 33//75 37//83
f 37//84 33//76 16//42
f 34//77 19//47 38//93
f 38//94 19//48 34//78
f 34//85 30//85 25//85
f 25//86 30//86 34//86
f 17//43 40//87 35//79
f 35//80 40//88 17//44
f 32//85 27//85 35//85
f 35//86 27//86 32//86
f 41//85 36//85 27//85
f 27//86 36//86 41//86
f 36//81 43//95 15//39
f 15//40 43//96 36//82
f 33//31 29//31 37//31
f 37//32 29//32 33//32
f 39//85 22//85 38//85
f 38//86 22//86 39//86
f 38//85 30//85 34//85
f 34//86 30//86 38//86
f 44//85 31//85 39//85
f 39//86 31//86 44//86
f 44//85 40//85 31//85
f 31//86 40//86 44//86
f 43//95 41//89 15//39
f 15//40 41//90 43//96
f 41//85 27//85 32//85
f 32//86 27//86 41//86
f 32//85 35//85 42//85
f 42//86 35//86 32//86
f 19//47 42//91 44//97
f 44//98 42//92 19//48
f 19//47 39//99 38//93
f 38//94 39//100 19//48
f 42//85 35//85 40//85
f 40//86 35//86 42//86
f 36//85 41//85 43//85
f 43//86 41//86 36//86
f 19//47 44//97 39//99
f 39//100 44//98 19//48
f 42//85 40//85 44//85
f 44//86 40//86 42//86
