# SSTK version 0.8.0
# 38
mtllib original-38.mtl
o mesh38/mesh38-geometry#mesh38-geometry
v 0.511938 -0.686029 0.268763
v 0.511866 -0.707515 0.268992
v 0.504919 -0.707533 0.263826
v 0.521339 -0.686027 0.269870
v 0.500424 -0.696830 0.258032
v 0.521590 -0.696770 0.269970
v 0.499372 -0.707588 0.256356
v 0.504991 -0.686047 0.263597
v 0.531025 -0.686020 0.267651
v 0.521266 -0.707513 0.270099
v 0.496767 -0.707672 0.248141
v 0.499444 -0.686102 0.256127
v 0.531508 -0.696762 0.267529
v 0.530952 -0.707505 0.267880
v 0.496782 -0.696981 0.243857
v 0.496839 -0.686186 0.247912
v 0.538641 -0.686008 0.262245
v 0.497354 -0.707764 0.241068
v 0.542959 -0.696761 0.254442
v 0.538569 -0.707494 0.262473
v 0.500920 -0.707855 0.234936
v 0.497426 -0.686278 0.240839
v 0.542742 -0.685996 0.255188
v 0.506042 -0.697180 0.230593
v 0.500992 -0.686369 0.234707
v 0.543495 -0.686191 0.247010
v 0.542670 -0.707482 0.255417
v 0.507765 -0.707940 0.229708
v 0.540055 -0.697123 0.237808
v 0.543422 -0.707677 0.247239
v 0.515630 -0.697248 0.226858
v 0.507837 -0.686454 0.229480
v 0.540393 -0.686371 0.238181
v 0.516605 -0.707995 0.226786
v 0.533726 -0.686489 0.230800
v 0.540320 -0.707857 0.238410
v 0.525279 -0.708012 0.226557
v 0.516677 -0.686509 0.226557
v 0.533460 -0.697234 0.230740
v 0.533654 -0.707975 0.231029
v 0.525351 -0.686527 0.226328
vn 0.5239339830612145 0.016451999468107055 -0.8515999724677732
vn 0.24065805066658708 -0.011212002360502134 -0.9705452043323004
vn 0.7108741951559642 -0.023776006527215923 -0.702917192971532
vn -0.7108741951559642 0.023776006527215923 0.702917192971532
vn -0.24065805066658708 0.011212002360502134 0.9705452043323004
vn -0.5239339830612145 -0.016451999468107055 0.8515999724677732
vn 0.0003780001640103377 -0.010816004692951664 -0.9999414338641828
vn -0.0003780001640103377 0.010816004692951664 0.9999414338641828
vn 0.8724668473017383 0.005449999046146809 -0.48864291447821323
vn -0.8724668473017383 -0.005449999046146809 0.48864291447821323
vn -0.1182299592569581 -0.010218996478447338 -0.9929336578266805
vn 0.1182299592569581 0.010218996478447338 0.9929336578266805
vn 0.8901939756705539 -0.016103999559869547 -0.4552969875565059
vn -0.8901939756705539 0.016103999559869547 0.4552969875565059
vn 0.7064797798086555 0.06450197989641321 -0.7047877803360076
vn -0.7064797798086555 -0.06450197989641321 0.7047877803360076
vn -0.3527462101244542 -0.010461006231429532 -0.9356605573558504
vn 0.3527462101244542 0.010461006231429532 0.9356605573558504
vn -0.05396601664403952 -0.010333003186874114 -0.9984893079511243
vn 0.05396601664403952 0.010333003186874114 0.9984893079511243
vn 0.98669835921451 -0.03885901414689865 -0.15784905746606476
vn -0.98669835921451 0.03885901414689865 0.15784905746606476
vn 0.8902316824134648 0.0004019998565882859 -0.45550783749943
vn -0.8902316824134648 -0.0004019998565882859 0.45550783749943
vn -0.5391281730057195 -0.007163002298600457 -0.8421932702590217
vn 0.5391281730057195 0.007163002298600457 0.8421932702590217
vn -0.3527759709360237 -0.007093999415550033 -0.9356809229125269
vn 0.3527759709360237 0.007093999415550033 0.9356809229125269
vn 0.9705769942978604 -0.0006889999959521786 0.2407899985853588
vn -0.9705769942978604 0.0006889999959521786 -0.2407899985853588
vn 0.9869229414586936 0.0288169982906622 -0.1585959905925619
vn -0.9869229414586936 -0.0288169982906622 0.1585959905925619
vn -0.7419652250659104 0.05894401787993388 -0.6678422025816149
vn 0.7419652250659104 -0.05894401787993388 0.6678422025816149
vn 0.9535761202383278 -0.02701400340625 0.29993803781978945
vn -0.9535761202383278 0.02701400340625 -0.29993803781978945
vn -0.9577860200081502 0.00019000000396916396 -0.28748200600549917
vn 0.9577860200081502 -0.00019000000396916396 0.28748200600549917
vn -0.7414964145763225 -0.06821303813843171 -0.6674803731933869
vn 0.7414964145763225 0.06821303813843171 0.6674803731933869
vn 0.7719071361914475 -0.0711160125473549 0.6317451114619586
vn -0.7719071361914475 0.0711160125473549 -0.6317451114619586
vn 0.953789393187359 0.02698101112257331 0.2992621233669453
vn -0.953789393187359 -0.02698101112257331 -0.2992621233669453
vn -0.9526590494230001 0.0018560000962874988 -0.304035015773033
vn 0.9526590494230001 -0.0018560000962874988 0.304035015773033
vn 0.6133350723554494 0.006375000752061895 0.7897970931727635
vn -0.6133350723554494 -0.006375000752061895 -0.7897970931727635
vn 0.772588927359261 0.07941799253292202 0.6299199407733552
vn -0.772588927359261 -0.07941799253292202 -0.6299199407733552
vn -0.9887600585301477 0.05788000342623581 0.13785300816027798
vn 0.9887600585301477 -0.05788000342623581 -0.13785300816027798
vn -0.952533675800456 -0.001964999331202699 -0.3044268963868013
vn 0.952533675800456 0.001964999331202699 0.3044268963868013
vn 0.4326069004482952 0.011923997256043905 0.9015037925455203
vn -0.4326069004482952 -0.011923997256043905 -0.9015037925455203
vn -0.8773660971117104 0.008108000897438078 0.47975305310170946
vn 0.8773660971117104 -0.008108000897438078 -0.47975305310170946
vn -0.9889557598217389 -0.048148988306514075 0.1401719659577704
vn 0.9889557598217389 0.048148988306514075 -0.1401719659577704
vn 0.2419600197215571 0.009043000737072197 0.9702440790821724
vn -0.2419600197215571 -0.009043000737072197 -0.9702440790821724
vn 0.4325699051285625 0.004370999041350209 0.9015898022628954
vn -0.4325699051285625 -0.004370999041350209 -0.9015898022628954
vn -0.8596951664735374 0.00928100179719645 0.5107230988977073
vn 0.8596951664735374 -0.00928100179719645 -0.5107230988977073
vn 0.17200197019988722 0.008962998447120101 0.9850558293346596
vn -0.17200197019988722 -0.008962998447120101 -0.9850558293346596
vn -0.6564210472800405 0.007128000513408343 0.7543610543343655
vn 0.6564210472800405 -0.007128000513408343 -0.7543610543343655
vn -0.8596719854913161 0.007388999875295737 0.5107929913793469
vn 0.8596719854913161 -0.007388999875295737 -0.5107929913793469
vn -0.17135400872054846 0.011358000578031163 0.9851440501359523
vn 0.17135400872054846 -0.011358000578031163 -0.9851440501359523
vn 0.133327954004797 0.009785996624046816 0.9910236581186993
vn -0.133327954004797 -0.009785996624046816 -0.9910236581186993
vn -0.5818381722622349 0.010620003144216825 0.8132352407709339
vn 0.5818381722622349 -0.010620003144216825 -0.8132352407709339
vn -0.656420155752111 0.013361003170232234 0.7542771789711389
vn 0.656420155752111 -0.013361003170232234 -0.7542771789711389
vn -0.31286917274043674 0.00971700536492512 0.9497465243713465
vn 0.31286917274043674 -0.00971700536492512 -0.9497465243713465
usemtl material_0_0
f 1//1 2//2 3//3
f 3//4 2//5 1//6
f 4//7 2//2 1//1
f 1//6 2//5 4//8
f 1//1 3//3 5//9
f 5//10 3//4 1//6
f 4//7 6//11 2//2
f 2//5 6//12 4//8
f 3//3 7//13 5//9
f 5//10 7//14 3//4
f 1//1 5//9 8//15
f 8//16 5//10 1//6
f 9//17 6//11 4//7
f 4//8 6//12 9//18
f 6//11 10//19 2//2
f 2//5 10//20 6//12
f 5//9 7//13 11//21
f 11//22 7//14 5//10
f 8//15 5//9 12//23
f 12//24 5//10 8//16
f 9//17 13//25 6//11
f 6//12 13//26 9//18
f 6//11 14//27 10//19
f 10//20 14//28 6//12
f 5//9 11//21 15//29
f 15//30 11//22 5//10
f 5//9 16//31 12//23
f 12//24 16//32 5//10
f 17//33 13//25 9//17
f 9//18 13//26 17//34
f 13//25 14//27 6//11
f 6//12 14//28 13//26
f 11//21 18//35 15//29
f 15//30 18//36 11//22
f 5//9 15//29 16//31
f 16//32 15//30 5//10
f 13//25 17//33 19//37
f 19//38 17//34 13//26
f 13//25 20//39 14//27
f 14//28 20//40 13//26
f 15//29 18//35 21//41
f 21//42 18//36 15//30
f 16//31 15//29 22//43
f 22//44 15//30 16//32
f 17//33 23//45 19//37
f 19//38 23//46 17//34
f 13//25 19//37 20//39
f 20//40 19//38 13//26
f 15//29 21//41 24//47
f 24//48 21//42 15//30
f 15//29 25//49 22//43
f 22//44 25//50 15//30
f 23//45 26//51 19//37
f 19//38 26//52 23//46
f 20//39 19//37 27//53
f 27//54 19//38 20//40
f 24//47 21//41 28//55
f 28//56 21//42 24//48
f 15//29 24//47 25//49
f 25//50 24//48 15//30
f 19//37 26//51 29//57
f 29//58 26//52 19//38
f 27//53 19//37 30//59
f 30//60 19//38 27//54
f 24//47 28//55 31//61
f 31//62 28//56 24//48
f 25//49 24//47 32//63
f 32//64 24//48 25//50
f 26//51 33//65 29//57
f 29//58 33//66 26//52
f 19//37 29//57 30//59
f 30//60 29//58 19//38
f 31//61 28//55 34//67
f 34//68 28//56 31//62
f 32//63 24//47 31//61
f 31//62 24//48 32//64
f 33//65 35//69 29//57
f 29//58 35//70 33//66
f 30//59 29//57 36//71
f 36//72 29//58 30//60
f 31//61 34//67 37//73
f 37//74 34//68 31//62
f 32//63 31//61 38//75
f 38//76 31//62 32//64
f 29//57 35//69 39//77
f 39//78 35//70 29//58
f 36//71 29//57 40//79
f 40//80 29//58 36//72
f 38//75 31//61 37//73
f 37//74 31//62 38//76
f 35//69 41//81 39//77
f 39//78 41//82 35//70
f 29//57 39//77 40//79
f 40//80 39//78 29//58
f 38//75 37//73 41//81
f 41//82 37//74 38//76
f 41//81 37//73 39//77
f 39//78 37//74 41//82
f 39//77 37//73 40//79
f 40//80 37//74 39//78
