mtllib new-45.mtl
v -0.129152 -0.186353 -0.248647
v -0.086179 -0.180684 -0.260430
v -0.134176 -0.167812 -0.211889
v -0.080379 -0.156933 -0.217928
v -0.099823 -0.136358 -0.283580
v -0.106413 -0.134222 -0.255552
v -0.059481 -0.143137 -0.237172
v -0.055537 -0.143871 -0.285293
v -0.051448 -0.091848 -0.285439
v -0.060398 -0.097035 -0.256515
v -0.031381 -0.132089 -0.242470
v 0.000412 -0.126335 -0.292673
v -0.020918 -0.042533 -0.272322
v -0.022334 -0.056679 -0.237364
v 0.008975 -0.127086 -0.234346
v 0.008633 -0.111782 -0.293363
v 0.056882 -0.136772 -0.285157
v 0.007200 -0.041823 -0.272090
v -0.027498 -0.041949 -0.225131
v 0.007200 -0.055826 -0.230167
v 0.072101 -0.139265 -0.241914
v 0.077012 -0.140012 -0.287654
v -0.021793 0.021845 -0.252178
v -0.021346 -0.061665 -0.216717
v 0.103430 -0.116914 -0.260235
v 0.096452 -0.170617 -0.269751
v 0.077016 -0.101481 -0.286433
v -0.025960 0.114930 -0.236119
v 0.000413 0.068376 -0.243630
v -0.027567 -0.058299 -0.199608
v 0.134405 -0.147124 -0.241358
v 0.039915 -0.058071 -0.236935
v 0.110260 -0.168681 -0.196194
v 0.037735 -0.043817 -0.272437
v -0.028268 0.112794 -0.203946
v 0.000834 0.195968 -0.233248
v 0.000802 -0.005176 -0.261291
v -0.021246 -0.086360 -0.214628
v 0.043987 -0.055463 -0.201202
v 0.109005 -0.131807 -0.284932
v 0.009238 -0.055826 -0.230167
v 0.009238 -0.041823 -0.272090
v -0.000460 0.000910 -0.230440
v 0.000172 0.193325 -0.220467
v 0.037874 -0.061648 -0.216256
v -0.028316 -0.085531 -0.203423
v 0.046158 -0.085667 -0.203179
v 0.044431 -0.037500 -0.226986
v 0.131729 -0.162856 -0.270953
v 0.112313 -0.192249 -0.245738
v 0.015566 -0.003376 -0.260799
v 0.037685 -0.086360 -0.214628
v -0.091733 -0.083432 -0.208358
v 0.010237 -0.007092 -0.234446
v 0.044117 0.113605 -0.204867
v 0.039494 0.048174 -0.245233
v 0.004096 -0.138053 -0.226078
v -0.003248 -0.138994 -0.220445
v 0.104918 -0.083327 -0.208569
v 0.016969 0.001060 -0.230519
v 0.016079 0.095543 -0.239041
v 0.094161 -0.134796 -0.221188
v -0.075676 -0.135363 -0.212577
v -0.105890 -0.130550 -0.214162
v 0.130143 -0.130041 -0.206263
v 0.123115 -0.079431 -0.191379
v 0.043019 0.115178 -0.235636
v 0.015661 0.192585 -0.220336
v 0.198798 -0.119712 -0.198524
v 0.015565 0.198185 -0.234805
v -0.233542 0.161426 -0.120252
v -0.212592 0.164999 -0.115159
v -0.221538 0.215422 -0.115253
v -0.104457 0.170787 -0.210753
v -0.115131 0.170250 -0.184538
v -0.230838 0.217973 -0.122737
v -0.098420 0.218941 -0.202685
v -0.069111 0.170610 -0.201876
v -0.098326 0.217905 -0.215616
v -0.015055 0.219970 -0.222884
v -0.045548 0.156692 -0.230077
v -0.015179 0.219053 -0.234869
v -0.135350 -0.130003 -0.210595
v -0.034907 0.144536 -0.203198
v -0.055630 -0.116628 -0.222926
v 0.001338 0.198583 -0.222157
v -0.026160 0.116740 -0.235491
v -0.032681 -0.139021 -0.224073
v 0.045303 -0.139129 -0.224640
v 0.148126 -0.130207 -0.211635
v 0.071745 -0.116503 -0.222549
v -0.050499 -0.136847 -0.214733
v -0.013855 -0.137696 -0.207979
v 0.093854 -0.131566 -0.208857
vn 0.130469 0.762683 0.633476
vn -0.130469 -0.762683 -0.633476
vn 0.111733 0.620117 0.776512
vn -0.111733 -0.620117 -0.776512
vn 0.937568 -0.255089 0.236421
vn -0.937568 0.255089 -0.236421
vn -0.841372 0.474952 -0.257903
vn 0.841372 -0.474952 0.257903
vn -0.820716 0.553037 -0.143442
vn 0.820716 -0.553037 0.143442
vn 0.111060 0.338479 0.934397
vn -0.111060 -0.338479 -0.934397
vn 0.831347 -0.495974 0.250743
vn -0.831347 0.495974 -0.250743
vn 0.124037 -0.772916 -0.622267
vn -0.035259 -0.866190 -0.498469
vn 0.035259 0.866190 0.498469
vn -0.124037 0.772916 0.622267
vn -0.639116 0.756967 -0.136131
vn 0.639116 -0.756967 0.136131
vn 0.098956 0.164860 0.981340
vn -0.098956 -0.164860 -0.981340
vn 0.740259 -0.649967 0.171928
vn -0.740259 0.649967 -0.171928
vn 0.108417 -0.557223 -0.823254
vn -0.108417 0.557223 0.823254
vn -0.508720 0.857998 -0.071020
vn 0.508720 -0.857998 0.071020
vn 0.049111 -0.084057 0.995250
vn -0.049111 0.084057 -0.995250
vn 0.712378 -0.687263 0.142081
vn -0.712378 0.687263 -0.142081
vn 0.241773 -0.258060 -0.935388
vn -0.241773 0.258060 0.935388
vn -0.272018 0.961711 -0.033452
vn 0.272018 -0.961711 0.033452
vn 0.083653 -0.072363 0.993864
vn -0.083653 0.072363 -0.993864
vn 0.751532 -0.659693 -0.002252
vn -0.751532 0.659693 0.002252
vn 0.212651 -0.116563 -0.970151
vn -0.212651 0.116563 0.970151
vn -0.086606 0.995963 -0.023618
vn 0.086606 -0.995963 0.023618
vn 0.305767 -0.093737 0.947481
vn -0.305767 0.093737 -0.947481
vn 0.805079 -0.592329 -0.031530
vn -0.805079 0.592329 0.031530
vn 0.403920 -0.011930 -0.914717
vn -0.403920 0.011930 0.914717
vn 0.081804 0.996645 0.002619
vn -0.081804 -0.996645 -0.002619
vn 0.209405 0.445911 0.870237
vn -0.209405 -0.445911 -0.870237
vn 0.759452 -0.613176 -0.217366
vn -0.759452 0.613176 0.217366
vn -0.888616 -0.404429 -0.216331
vn 0.888616 0.404429 0.216331
vn 0.365604 0.927546 -0.077407
vn -0.365604 -0.927546 0.077407
vn 0.000548 0.290936 -0.956742
vn -0.000548 -0.290936 0.956742
vn 0.095834 0.459016 0.883244
vn -0.095834 -0.459016 -0.883244
vn 0.858098 -0.464091 0.219745
vn 0.097688 -0.994879 0.025937
vn -0.959620 -0.269511 -0.080578
vn 0.959620 0.269511 0.080578
vn -0.097688 0.994879 -0.025937
vn -0.858098 0.464091 -0.219745
vn -0.234573 -0.062729 0.970072
vn 0.234573 0.062729 -0.970072
vn 0.549656 0.825944 -0.125275
vn -0.549656 -0.825944 0.125275
vn 0.193141 0.603830 0.773360
vn -0.193141 -0.603830 -0.773360
vn 0.983752 -0.012039 0.179131
vn -0.983752 0.012039 -0.179131
vn -0.950597 -0.309057 -0.029152
vn 0.950597 0.309057 0.029152
vn -0.184968 -0.328329 -0.926276
vn -0.125033 -0.654596 -0.745567
vn -0.255572 -0.425816 -0.867965
vn 0.255572 0.425816 0.867965
vn 0.125033 0.654596 0.745567
vn 0.184968 0.328329 0.926276
vn 0.805241 0.563655 -0.184064
vn -0.805241 -0.563655 0.184064
vn -0.300644 -0.115397 0.946730
vn -0.142499 -0.012200 0.989720
vn -0.419813 -0.028702 0.907157
vn 0.419813 0.028702 -0.907157
vn 0.142499 0.012200 -0.989720
vn 0.300644 0.115397 -0.946730
vn 0.191823 0.583477 0.789150
vn -0.191823 -0.583477 -0.789150
vn 0.989316 0.000508 0.145784
vn -0.989316 -0.000508 -0.145784
vn -0.019629 -0.204047 0.978764
vn 0.128594 -0.175974 0.975959
vn 0.160704 -0.244084 0.956346
vn -0.160704 0.244084 -0.956346
vn -0.128594 0.175974 -0.975959
vn 0.019629 0.204047 -0.978764
vn -0.889648 -0.383432 -0.248005
vn 0.889648 0.383432 0.248005
vn -0.074161 -0.800735 -0.594411
vn 0.074161 0.800735 0.594411
vn -0.880033 0.403904 0.249808
vn 0.880033 -0.403904 -0.249808
vn -0.924927 0.372111 0.077737
vn 0.924927 -0.372111 -0.077737
vn -0.696321 -0.022652 0.717372
vn 0.696321 0.022652 -0.717372
vn 0.997447 -0.004793 0.071244
vn -0.997447 0.004793 -0.071244
vn 0.067153 -0.116455 0.990923
vn 0.339407 -0.145143 0.929374
vn -0.339407 0.145143 -0.929374
vn -0.067153 0.116455 -0.990923
vn -0.087510 0.320466 -0.943209
vn 0.087510 -0.320466 0.943209
vn -0.897484 0.033261 -0.439790
vn -0.941349 -0.032231 -0.335893
vn 0.897484 -0.033261 0.439790
vn 0.941349 0.032231 0.335893
vn -0.021354 0.841868 0.539260
vn -0.028690 0.831241 0.555172
vn 0.028690 -0.831241 -0.555172
vn 0.021354 -0.841868 -0.539260
vn 0.032073 -0.932002 -0.361032
vn -0.032073 0.932002 0.361032
vn -0.683364 -0.694942 0.223762
vn -0.753463 -0.600109 0.268631
vn -0.867169 -0.426061 0.257856
vn 0.867169 0.426061 -0.257856
vn 0.753463 0.600109 -0.268631
vn 0.683364 0.694942 -0.223762
vn 0.211018 -0.058002 0.975760
vn -0.211018 0.058002 -0.975760
vn -0.751694 -0.659346 0.014804
vn -0.729694 -0.676245 0.101188
vn 0.729694 0.676245 -0.101188
vn 0.751694 0.659346 -0.014804
vn -0.833418 -0.528648 -0.161074
vn 0.833418 0.528648 0.161074
vn 0.008694 0.290845 -0.956731
vn -0.008694 -0.290845 0.956731
vn 0.230337 0.288957 0.929219
vn -0.230337 -0.288957 -0.929219
vn -0.487968 0.084439 -0.868768
vn -0.376531 0.123816 -0.918093
vn 0.487968 -0.084439 0.868768
vn 0.376531 -0.123816 0.918093
vn -0.998710 0.007389 -0.050239
vn -0.999028 0.005815 -0.043693
vn -0.998984 0.006347 -0.044623
vn 0.998984 -0.006347 0.044623
vn 0.999028 -0.005815 0.043693
vn 0.998710 -0.007389 0.050239
vn -0.999113 0.004751 -0.041833
vn -0.999170 0.005028 -0.040420
vn 0.999170 -0.005028 0.040420
vn 0.999113 -0.004751 0.041833
vn -0.010763 0.273297 -0.961870
vn 0.010763 -0.273297 0.961870
vn 0.003895 -0.074993 -0.997176
vn 0.043930 -0.056052 -0.997461
vn 0.007790 -0.084261 -0.996413
vn -0.007790 0.084261 0.996413
vn -0.043930 0.056052 0.997461
vn -0.003895 0.074993 0.997176
vn -0.838356 0.098187 -0.536208
vn 0.838356 -0.098187 0.536208
vn 0.215702 0.020125 0.976252
vn 0.024742 -0.063514 0.997674
vn 0.010629 -0.101157 0.994814
vn -0.010629 0.101157 -0.994814
vn -0.024742 0.063514 -0.997674
vn -0.215702 -0.020125 -0.976252
vn -0.036013 0.820264 0.570850
vn 0.036013 -0.820264 -0.570850
vn -0.881067 -0.379984 0.281661
vn 0.881067 0.379984 -0.281661
vn 0.922951 -0.378115 -0.072040
vn 0.979521 -0.198388 -0.034356
vn -0.963203 -0.200869 0.178584
vn 0.963203 0.200869 -0.178584
vn -0.979521 0.198388 0.034356
vn -0.922951 0.378115 0.072040
vn -0.502059 0.451019 0.737915
vn 0.502059 -0.451019 -0.737915
vn -0.591402 0.043678 -0.805193
vn 0.591402 -0.043678 0.805193
vn -0.186568 -0.217884 0.957977
vn 0.186568 0.217884 -0.957977
vn -0.431353 -0.899224 -0.073015
vn 0.431353 0.899224 0.073015
vn -0.886838 0.442346 0.133595
vn 0.886838 -0.442346 -0.133595
vn 0.907524 -0.097224 -0.408592
vn 0.797307 0.096303 -0.595842
vn 0.873461 0.032944 -0.485779
vn -0.873461 -0.032944 0.485779
vn -0.797307 -0.096303 0.595842
vn -0.907524 0.097224 0.408592
vn 0.960058 -0.211149 -0.183590
vn -0.960058 0.211149 0.183590
vn -0.009618 -0.248438 -0.968600
vn 0.009618 0.248438 0.968600
vn 0.236908 0.537680 0.809181
vn -0.236908 -0.537680 -0.809181
vn -0.993324 -0.001581 0.115348
vn 0.993324 0.001581 -0.115348
vn 0.123982 -0.985724 -0.113914
vn -0.123982 0.985724 0.113914
vn -0.069651 -0.212501 0.974675
vn 0.069651 0.212501 -0.974675
vn 0.064965 -0.149829 0.986575
vn -0.064965 0.149829 -0.986575
vn 0.132618 -0.171226 0.976265
vn -0.132618 0.171226 -0.976265
vn -0.007500 0.191706 -0.981424
vn 0.007500 -0.191706 0.981424
vn 0.048534 -0.994048 0.097530
vn 0.042435 -0.998677 0.029034
vn 0.089606 -0.992826 0.079168
vn -0.089606 0.992826 -0.079168
vn -0.042435 0.998677 -0.029034
vn -0.048534 0.994048 -0.097530
vn -0.995098 0.009586 0.098431
vn 0.995098 -0.009586 -0.098431
vn 0.314743 0.138120 -0.939074
vn 0.450179 0.093808 -0.887997
vn -0.450179 -0.093808 0.887997
vn -0.314743 -0.138120 0.939074
vn -0.097111 -0.131534 0.986544
vn 0.097111 0.131534 -0.986544
vn -0.101557 -0.202955 0.973907
vn 0.101557 0.202955 -0.973907
vn -0.125752 0.273907 -0.953499
vn 0.125752 -0.273907 0.953499
vn 0.157121 -0.198573 0.967410
vn -0.157121 0.198573 -0.967410
vn 0.155202 0.284051 -0.946165
vn -0.155202 -0.284051 0.946165
vn -0.152862 -0.225708 0.962127
vn 0.152862 0.225708 -0.962127
vn 0.118095 -0.970915 0.208272
vn -0.118095 0.970915 -0.208272
vn -0.998168 0.047074 0.038016
vn 0.998168 -0.047074 -0.038016
vn 0.575300 0.047346 -0.816571
vn -0.575300 -0.047346 0.816571
vn -0.059175 -0.091226 0.994070
vn 0.059175 0.091226 -0.994070
vn 0.999712 0.006049 -0.023228
vn 0.999450 0.006472 -0.032530
vn 0.998880 0.005159 -0.047028
vn -0.998880 -0.005159 0.047028
vn -0.999450 -0.006472 0.032530
vn -0.999712 -0.006049 0.023228
vn 0.030473 0.988839 0.145839
vn -0.043716 0.986918 -0.155181
vn 0.027137 0.979627 0.198982
vn -0.027137 -0.979627 -0.198982
vn 0.043716 -0.986918 0.155181
vn -0.030473 -0.988839 -0.145839
vn 0.169065 0.915342 0.365466
vn -0.169065 -0.915342 -0.365466
vn 0.134469 0.943733 0.302137
vn -0.134469 -0.943733 -0.302137
vn 0.163824 0.299206 -0.940020
vn -0.163824 -0.299206 0.940020
vn 0.999915 0.006492 -0.011323
vn -0.999915 -0.006492 0.011323
vn -0.095460 -0.041527 0.994567
vn 0.095460 0.041527 -0.994567
vn -0.042387 0.910876 -0.410497
vn 0.042387 -0.910876 0.410497
vn 0.999976 0.005200 -0.004618
vn -0.999976 -0.005200 0.004618
vn -0.400057 -0.138294 -0.905996
vn 0.400057 0.138294 0.905996
vn -0.099375 0.993677 -0.052254
vn -0.025453 0.992900 -0.116196
vn -0.143044 0.984424 -0.102211
vn 0.143044 -0.984424 0.102211
vn 0.025453 -0.992900 0.116196
vn 0.099375 -0.993677 0.052254
vn -0.469972 -0.086100 -0.878472
vn 0.469972 0.086100 0.878472
vn -0.027708 0.999574 0.009180
vn 0.027708 -0.999574 -0.009180
vn 0.423861 0.004788 0.905715
vn 0.573782 0.009203 0.818956
vn 0.573626 0.008568 0.819072
vn -0.573626 -0.008568 -0.819072
vn -0.573782 -0.009203 -0.818956
vn -0.423861 -0.004788 -0.905715
vn -0.465379 -0.163656 -0.869850
vn 0.465379 0.163656 0.869850
vn -0.389930 -0.132647 -0.911241
vn 0.389930 0.132647 0.911241
vn 0.050179 0.982339 -0.180258
vn -0.050179 -0.982339 0.180258
vn 0.406686 0.041281 0.912635
vn -0.406686 -0.041281 -0.912635
vn -0.020068 -0.998580 -0.049339
vn -0.002456 -0.999980 -0.005817
vn 0.049456 -0.995667 0.078750
vn -0.049456 0.995667 -0.078750
vn 0.002456 0.999980 0.005817
vn 0.020068 0.998580 0.049339
vn -0.245952 -0.171053 -0.954069
vn 0.245952 0.171053 0.954069
vn -0.273458 -0.107354 -0.955874
vn 0.273458 0.107354 0.955874
vn 0.098326 0.922542 -0.373159
vn -0.098326 -0.922542 0.373159
vn -0.124901 -0.976166 -0.177484
vn 0.124901 0.976166 0.177484
vn 0.176878 0.025029 0.983914
vn -0.176878 -0.025029 -0.983914
vn 0.031497 -0.996456 0.077995
vn -0.031497 0.996456 -0.077995
vn 0.198697 -0.049538 0.978808
vn -0.198697 0.049538 -0.978808
vn 0.030703 -0.996639 0.075941
vn -0.030703 0.996639 -0.075941
vn -0.265752 -0.152725 -0.951867
vn 0.265752 0.152725 0.951867
vn 0.604945 0.787666 0.116718
vn 0.863414 0.504050 0.021222
vn 0.769033 0.639021 -0.015466
vn -0.769033 -0.639021 0.015466
vn -0.863414 -0.504050 -0.021222
vn -0.604945 -0.787666 -0.116718
vn 0.144586 -0.023085 0.989223
vn -0.144586 0.023085 -0.989223
vn 0.157223 -0.027003 0.987194
vn -0.157223 0.027003 -0.987194
vn -0.804995 -0.582200 0.114131
vn -0.822262 -0.566742 0.051858
vn 0.804995 0.582200 -0.114131
vn 0.822262 0.566742 -0.051858
vn -0.302977 -0.128086 -0.944351
vn 0.302977 0.128086 0.944351
vn 0.943523 0.330075 -0.028551
vn -0.943523 -0.330075 0.028551
vn 0.067300 0.001081 0.997732
vn -0.067300 -0.001081 -0.997732
vn 0.137417 0.090309 0.986388
vn -0.137417 -0.090309 -0.986388
vn -0.784175 -0.595088 0.175899
vn 0.784175 0.595088 -0.175899
vn -0.390852 -0.060084 -0.918490
vn 0.390852 0.060084 0.918490
vn 0.975237 0.201832 0.090422
vn -0.975237 -0.201832 -0.090422
vn 0.128384 -0.071750 0.989126
vn -0.128384 0.071750 -0.989126
vn -0.223098 -0.082836 0.971270
vn -0.150454 -0.052291 0.987233
vn -0.130460 0.061014 0.989574
vn 0.130460 -0.061014 -0.989574
vn 0.150454 0.052291 -0.987233
vn 0.223098 0.082836 -0.971270
vn -0.013108 0.999263 0.036075
vn 0.010135 0.997467 0.070412
vn -0.010135 -0.997467 -0.070412
vn 0.013108 -0.999263 -0.036075
vn -0.054410 0.981911 0.181357
vn 0.054410 -0.981911 -0.181357
usemtl material-2
f 2//3 5//11 1//1
f 1//2 5//12 2//4
f 7//19 2//9 4//7
f 4//8 2//10 7//20
f 8//21 5//11 2//3
f 2//4 5//12 8//22
f 6//23 3//5 5//13
f 5//14 3//6 6//24
f 4//16 6//15 7//25
f 7//26 6//18 4//17
f 7//19 8//27 2//9
f 2//10 8//28 7//20
f 9//29 5//11 8//21
f 8//22 5//12 9//30
f 6//23 5//13 9//31
f 9//32 5//14 6//24
f 7//25 6//15 10//33
f 10//34 6//18 7//26
f 7//19 11//35 8//27
f 8//28 11//36 7//20
f 12//37 9//29 8//21
f 8//22 9//30 12//38
f 6//23 9//31 10//39
f 10//40 9//32 6//24
f 11//41 7//25 10//33
f 10//34 7//26 11//42
f 11//35 12//43 8//27
f 8//28 12//44 11//36
f 12//37 13//45 9//29
f 9//30 13//46 12//38
f 13//47 10//39 9//31
f 9//32 10//40 13//48
f 14//49 11//41 10//33
f 10//34 11//42 14//50
f 15//51 12//43 11//35
f 11//36 12//44 15//52
f 16//53 13//45 12//37
f 12//38 13//46 16//54
f 13//47 14//55 10//39
f 10//40 14//56 13//48
f 15//57 11//41 14//49
f 14//50 11//42 15//58
f 15//51 17//59 12//43
f 12//44 17//60 15//52
f 16//53 13//45 18//61
f 18//62 13//46 16//54
f 17//63 16//53 12//37
f 12//38 16//54 17//64
f 19//65 13//66 14//67
f 14//68 13//69 19//70
f 15//57 20//71 14//49
f 14//50 20//72 15//58
f 15//51 21//73 17//59
f 17//60 21//74 15//52
f 22//75 16//53 17//63
f 17//64 16//54 22//76
f 23//77 19//65 13//66
f 13//69 19//70 23//78
f 19//65 14//67 24//79
f 24//80 14//68 19//70
f 25//81 21//82 15//83
f 15//84 21//85 25//86
f 21//73 26//87 17//59
f 17//60 26//88 21//74
f 27//89 16//90 22//91
f 22//92 16//93 27//94
f 26//95 22//75 17//63
f 17//64 22//76 26//96
f 28//97 19//65 23//77
f 23//78 19//70 28//98
f 29//99 23//100 13//101
f 13//102 23//103 29//104
f 19//105 24//105 30//105
f 30//106 24//106 19//106
f 19//105 24//105 30//105
f 30//106 24//106 19//106
f 31//107 21//82 25//81
f 25//86 21//85 31//108
f 25//81 15//83 32//109
f 32//110 15//84 25//86
f 27//89 34//111 16//90
f 16//93 34//112 27//94
f 26//113 27//89 22//91
f 22//92 27//94 26//114
f 28//97 35//115 19//65
f 19//70 35//116 28//98
f 36//117 28//118 23//100
f 23//103 28//119 36//120
f 36//117 23//100 29//99
f 29//104 23//103 36//120
f 37//121 29//99 13//101
f 13//102 29//104 37//122
f 30//123 24//124 38//123
f 38//125 24//126 30//125
f 30//127 39//128 19//128
f 19//129 39//129 30//130
f 33//131 21//82 31//107
f 31//108 21//85 33//132
f 25//133 40//134 31//135
f 31//136 40//137 25//138
f 32//109 41//139 15//83
f 15//84 41//140 32//110
f 32//141 27//142 25//133
f 25//138 27//143 32//144
f 34//145 27//142 32//141
f 32//144 27//143 34//146
f 34//111 16//90 42//147
f 42//148 16//93 34//112
f 40//149 27//149 26//149
f 26//150 27//150 40//150
f 43//151 19//152 35//151
f 35//153 19//154 43//153
f 36//155 29//156 44//157
f 44//158 29//159 36//160
f 29//156 37//161 43//162
f 43//163 37//164 29//159
f 34//165 13//101 37//121
f 37//122 13//102 34//166
f 45//167 38//168 24//169
f 24//170 38//171 45//172
f 30//123 38//123 46//173
f 46//174 38//125 30//125
f 47//175 39//176 30//177
f 30//178 39//179 47//180
f 39//128 48//181 19//128
f 19//129 48//182 39//129
f 25//133 27//142 40//134
f 40//137 27//143 25//138
f 40//134 49//183 31//135
f 31//136 49//184 40//137
f 48//185 32//186 34//187
f 34//188 32//189 48//190
f 50//191 40//191 26//191
f 26//192 40//192 50//192
f 44//193 43//151 35//151
f 35//153 43//153 44//194
f 44//157 29//156 43//162
f 43//163 29//159 44//158
f 34//165 37//121 51//195
f 51//196 37//122 34//166
f 45//167 52//197 38//168
f 38//171 52//198 45//172
f 47//175 30//177 46//199
f 46//200 30//178 47//180
f 39//201 47//202 52//203
f 52//204 47//205 39//206
f 48//185 39//201 45//207
f 45//208 39//206 48//190
f 48//209 19//209 54//209
f 54//210 19//210 48//210
f 49//211 40//211 50//211
f 50//212 40//212 49//212
f 48//185 45//207 32//186
f 32//189 45//208 48//190
f 55//213 34//187 48//185
f 48//190 34//188 55//214
f 54//215 37//215 51//215
f 51//216 37//216 54//216
f 56//217 51//195 34//165
f 34//166 51//196 56//218
f 39//201 52//203 45//207
f 45//208 52//204 39//206
f 52//197 57//219 38//168
f 38//171 57//220 52//198
f 57//219 38//168 53//221
f 53//222 38//171 57//220
f 47//175 46//199 58//223
f 58//224 46//200 47//180
f 47//225 52//226 59//227
f 59//228 52//229 47//230
f 55//213 56//231 34//187
f 34//188 56//232 55//214
f 48//233 60//234 55//234
f 55//235 60//235 48//236
f 56//217 61//237 51//195
f 51//196 61//238 56//218
f 62//239 52//197 57//219
f 57//220 52//198 62//240
f 57//219 53//221 64//243
f 64//244 53//222 57//220
f 58//223 63//241 46//199
f 46//200 63//242 58//224
f 65//245 58//223 47//175
f 47//180 58//224 65//246
f 59//247 52//197 62//239
f 62//240 52//198 59//248
f 66//249 47//225 59//227
f 59//228 47//230 66//250
f 67//251 56//231 55//213
f 55//214 56//232 67//252
f 55//234 60//234 68//253
f 68//254 60//235 55//235
f 67//255 61//237 56//217
f 56//218 61//238 67//256
f 61//257 60//258 51//259
f 51//260 60//261 61//262
f 58//263 62//264 57//265
f 57//266 62//267 58//268
f 64//269 58//263 57//265
f 57//266 58//268 64//270
f 63//271 58//263 64//269
f 64//270 58//268 63//272
f 65//245 47//175 66//273
f 66//274 47//180 65//246
f 68//275 60//258 61//257
f 61//262 60//261 68//276
f 67//255 70//277 61//237
f 61//238 70//278 67//256
f 69//279 62//264 58//263
f 58//268 62//267 69//280
f 70//281 68//275 61//257
f 61//262 68//276 70//282
f 72//285 74//286 71//287
f 71//288 74//289 72//290
f 72//285 75//293 74//286
f 74//289 75//294 72//290
f 74//295 76//296 71//297
f 71//298 76//299 74//300
f 77//301 72//291 73//283
f 73//284 72//292 77//302
f 77//301 75//303 72//291
f 72//292 75//304 77//302
f 75//293 78//305 74//286
f 74//289 78//306 75//294
f 79//307 76//296 74//295
f 74//300 76//299 79//308
f 73//309 79//310 77//311
f 77//312 79//313 73//314
f 80//315 75//303 77//301
f 77//302 75//304 80//316
f 80//315 78//317 75//303
f 75//304 78//318 80//316
f 78//305 81//319 74//286
f 74//289 81//320 78//306
f 73//309 76//321 79//310
f 79//313 76//322 73//314
f 82//323 79//307 74//295
f 74//300 79//308 82//324
f 77//311 79//310 82//325
f 82//326 79//313 77//312
f 77//311 82//325 80//329
f 80//330 82//326 77//312
f 80//315 84//331 78//317
f 78//318 84//332 80//316
f 78//333 84//334 81//335
f 81//336 84//337 78//338
f 82//323 74//295 81//339
f 81//340 74//300 82//324
f 80//343 82//344 36//343
f 36//345 82//346 80//345
f 86//347 84//331 80//315
f 80//316 84//332 86//348
f 81//335 84//334 87//349
f 87//350 84//337 81//336
f 36//351 82//323 81//339
f 81//340 82//324 36//352
f 88//353 85//341 83//327
f 83//328 85//342 88//354
f 80//343 36//343 86//355
f 86//356 36//345 80//345
f 86//347 35//357 84//331
f 84//332 35//358 86//348
f 84//334 35//359 87//349
f 87//350 35//360 84//337
f 36//351 81//339 87//361
f 87//362 81//340 36//352
f 90//363 91//364 89//365
f 89//366 91//367 90//368
f 93//369 94//373 92//370
f 92//371 94//374 93//372