mtllib new-27.mtl
v -0.003941 -0.404780 0.047430
v 0.020630 -0.404834 0.072821
v 0.023128 -0.404823 0.047053
v 0.003592 -0.404836 0.077314
v 0.005315 -0.332655 0.043843
v 0.023464 -0.331133 0.068900
v 0.008405 -0.331133 0.077808
v -0.008819 -0.404855 0.064806
v 0.021983 -0.331290 0.048578
v -0.007025 -0.331133 0.051725
v -0.006840 -0.331133 0.069221
vn -0.130139 0.011987 0.991423
vn 0.098758 -0.001091 0.995111
vn 0.285862 0.010971 0.958208
vn -0.285862 -0.010971 -0.958208
vn -0.098758 0.001091 -0.995111
vn 0.130139 -0.011987 -0.991423
vn -0.999897 0.008076 -0.011875
vn -0.994789 0.033119 -0.096428
vn 0.994789 -0.033119 0.096428
vn 0.999897 -0.008076 0.011875
vn -0.385756 -0.001555 -0.922599
vn -0.254966 0.023122 -0.966674
vn 0.385756 0.001555 0.922599
vn 0.254966 -0.023122 0.966674
vn -0.271370 -0.024174 0.962171
vn 0.271370 0.024174 -0.962171
vn 0.535763 -0.026783 0.843944
vn -0.535763 0.026783 -0.843944
vn -0.997203 -0.017031 0.072770
vn 0.997203 0.017031 -0.072770
vn -0.508964 -0.026203 -0.860389
vn 0.508964 0.026203 0.860389
vn 0.490635 -0.026203 -0.870971
vn 0.606105 -0.001558 -0.795383
vn -0.606105 0.001558 0.795383
vn -0.490635 0.026203 0.870971
vn 0.991354 -0.000835 0.131210
vn 0.962471 0.024543 0.270272
vn -0.962471 -0.024543 -0.270272
vn -0.991354 0.000835 -0.131210
vn 0.709663 0.023118 -0.704162
vn -0.709663 -0.023118 0.704162
vn 0.999601 -0.026196 -0.010583
vn -0.999601 0.026196 0.010583
usemtl material-0
f 3//1 5//2 1//3
f 1//4 5//5 3//6
f 6//7 3//7 2//8
f 2//9 3//10 6//10
f 2//11 4//12 7//11
f 7//13 4//14 2//13
f 3//1 9//15 5//2
f 5//5 9//16 3//6
f 5//2 10//17 1//3
f 1//4 10//18 5//5
f 6//7 9//19 3//7
f 3//10 9//20 6//10
f 6//21 2//11 7//11
f 7//13 2//13 6//22
f 7//23 4//24 11//24
f 11//25 4//25 7//26
f 10//27 8//27 1//28
f 1//29 8//30 10//30
f 11//24 4//24 8//31
f 8//32 4//25 11//25
f 11//33 8//27 10//27
f 10//30 8//30 11//34