mtllib new-51.mtl
v 0.072101 -0.139265 -0.241914
v 0.096452 -0.170617 -0.269751
v 0.134405 -0.147124 -0.241358
v 0.110260 -0.168681 -0.196194
v 0.116252 -0.205811 -0.215123
v 0.155797 -0.173178 -0.191883
v 0.131729 -0.162856 -0.270953
v 0.142822 -0.197384 -0.082207
v 0.112313 -0.192249 -0.245738
v 0.123779 -0.174934 -0.164229
v 0.148346 -0.190360 -0.240654
v 0.145935 -0.241496 -0.093748
v 0.190178 -0.204860 -0.051472
v 0.153705 -0.200142 -0.051495
v 0.164097 -0.219725 0.031024
v 0.167857 -0.229976 -0.140658
v 0.187218 -0.239621 -0.077012
v 0.166244 -0.266911 0.022118
v 0.214832 -0.291162 0.137996
v 0.211855 -0.194789 -0.041262
v 0.169282 -0.215045 0.029800
v 0.174855 -0.239815 0.129799
v 0.209294 -0.267112 0.052301
v 0.198604 -0.253271 -0.016926
v 0.175707 -0.288692 0.124556
v 0.214709 -0.244366 0.151406
v 0.217367 -0.311869 0.173872
v 0.170387 -0.234187 0.146586
v 0.201799 -0.217626 0.017456
v 0.170388 -0.314138 0.147890
v 0.216068 -0.284145 0.216425
v 0.210853 -0.207101 0.020266
v 0.212005 -0.237003 0.192410
v 0.170755 -0.325713 0.175641
v 0.170734 -0.313292 0.213181
v 0.166037 -0.213500 0.019132
v 0.171071 -0.223044 0.181065
v 0.171867 -0.239492 0.217304
v 0.170695 -0.278683 0.231191
v 0.152831 -0.199928 -0.051447
vn 0.549656 0.825944 -0.125275
vn -0.549656 -0.825944 0.125275
vn 0.805241 0.563655 -0.184064
vn -0.805241 -0.563655 0.184064
vn -0.074161 -0.800735 -0.594411
vn 0.074161 0.800735 0.594411
vn 0.893647 0.408537 -0.185722
vn -0.893647 -0.408537 0.185722
vn 0.032073 -0.932002 -0.361032
vn -0.032073 0.932002 0.361032
vn -0.867169 -0.426061 0.257856
vn 0.867169 0.426061 -0.257856
vn 0.957676 0.209154 -0.197764
vn -0.957676 -0.209154 0.197764
vn -0.080930 -0.959643 -0.269324
vn 0.080930 0.959643 0.269324
vn -0.881067 -0.379984 0.281661
vn 0.881067 0.379984 -0.281661
vn 0.932617 0.265854 -0.244023
vn -0.932617 -0.265854 0.244023
vn 0.632652 0.734940 0.244163
vn -0.632652 -0.734940 -0.244163
vn 0.180684 -0.948777 -0.259183
vn -0.180684 0.948777 0.259183
vn -0.963614 -0.088599 0.252186
vn -0.948333 -0.224659 0.224038
vn 0.948333 0.224659 -0.224038
vn 0.963614 0.088599 -0.252186
vn 0.661304 -0.624770 -0.415137
vn -0.661304 0.624770 0.415137
vn -0.991130 -0.064362 0.116271
vn 0.991130 0.064362 -0.116271
vn -0.576559 0.716989 0.391798
vn 0.576559 -0.716989 -0.391798
vn -0.119327 -0.974807 -0.188446
vn 0.119327 0.974807 0.188446
vn -0.971967 -0.112821 0.206278
vn 0.971967 0.112821 -0.206278
vn 0.021398 0.899671 0.436044
vn -0.001304 0.856263 0.516538
vn 0.128778 0.768395 0.626885
vn -0.128778 -0.768395 -0.626885
vn 0.001304 -0.856263 -0.516538
vn -0.021398 -0.899671 -0.436044
vn -0.316321 0.933515 0.168792
vn 0.316321 -0.933515 -0.168792
vn -0.967334 -0.122164 0.222126
vn 0.967334 0.122164 -0.222126
vn 0.910741 -0.112046 0.397487
vn -0.365292 0.859594 0.357296
vn 0.365292 -0.859594 -0.357296
vn -0.910741 0.112046 -0.397487
vn -0.125958 -0.974724 -0.184519
vn 0.125958 0.974724 0.184519
vn -0.624171 -0.781287 0.001243
vn 0.624171 0.781287 -0.001243
vn -0.512751 0.807302 0.292146
vn 0.512751 -0.807302 -0.292146
vn 0.999563 0.015433 -0.025230
vn -0.999563 -0.015433 0.025230
vn -0.297473 0.871663 0.389504
vn 0.297473 -0.871663 -0.389504
vn 0.094264 0.737538 -0.668694
vn 0.105816 0.588897 -0.801251
vn 0.080532 0.618852 -0.781369
vn -0.080532 -0.618852 0.781369
vn -0.105816 -0.588897 0.801251
vn -0.094264 -0.737538 0.668694
vn -0.058018 -0.979091 -0.194972
vn 0.058018 0.979091 0.194972
vn 0.924469 0.104351 -0.366698
vn -0.924469 -0.104351 0.366698
vn 0.914275 0.090133 -0.394939
vn -0.914275 -0.090133 0.394939
vn -0.310443 0.918874 0.243508
vn 0.310443 -0.918874 -0.243508
vn 0.389105 -0.880248 -0.271590
vn -0.389105 0.880248 0.271590
vn 0.149144 -0.985680 -0.078684
vn -0.149144 0.985680 0.078684
vn -0.177995 0.865870 0.467532
vn 0.177995 -0.865870 -0.467532
vn -0.854311 0.030828 -0.518847
vn 0.854311 -0.030828 0.518847
vn 0.998772 0.036380 0.033633
vn 0.998062 0.019625 -0.059044
vn -0.979170 -0.125566 0.159562
vn 0.979170 0.125566 -0.159562
vn -0.998062 -0.019625 0.059044
vn -0.998772 -0.036380 -0.033633
vn -0.155704 -0.987796 -0.003943
vn 0.155704 0.987796 0.003943
vn -0.337107 0.927215 0.163189
vn 0.337107 -0.927215 -0.163189
vn -0.969918 0.003709 -0.243402
vn 0.969918 -0.003709 0.243402
vn 0.999166 0.030168 -0.027533
vn -0.999166 -0.030168 0.027533
vn -0.991289 -0.072893 0.109695
vn 0.991289 0.072893 -0.109695
vn -0.988527 -0.049143 0.142829
vn 0.988527 0.049143 -0.142829
vn 0.246777 -0.647041 0.721414
vn -0.246777 0.647041 -0.721414
vn -0.287845 -0.928766 0.233537
vn 0.287845 0.928766 -0.233537
vn -0.145612 -0.972800 -0.180161
vn 0.145612 0.972800 0.180161
vn -0.323692 0.793050 0.516038
vn 0.323692 -0.793050 -0.516038
vn -0.974104 -0.003704 -0.226071
vn 0.974104 0.003704 0.226071
vn 0.996878 0.074894 0.024990
vn -0.996878 -0.074894 -0.024990
vn 0.321120 -0.644301 0.694088
vn 0.530435 -0.612677 0.585889
vn -0.530435 0.612677 -0.585889
vn -0.321120 0.644301 -0.694088
vn -0.310409 -0.923550 0.225170
vn 0.310409 0.923550 -0.225170
vn -0.283113 0.958281 0.039310
vn 0.283113 -0.958281 -0.039310
vn 0.992981 0.108989 0.045931
vn -0.992981 -0.108989 -0.045931
vn -0.346939 0.618103 -0.705395
vn -0.334422 0.739265 -0.584508
vn 0.334422 -0.739265 0.584508
vn 0.346939 -0.618103 0.705395
vn 0.014065 -0.269175 0.962989
vn -0.014065 0.269175 -0.962989
vn -0.143474 0.970863 0.191936
vn -0.132038 0.970740 0.200573
vn 0.132038 -0.970740 -0.200573
vn 0.143474 -0.970863 -0.191936
vn -0.380100 -0.877887 0.291270
vn 0.380100 0.877887 -0.291270
vn -0.393612 -0.373098 -0.840159
vn -0.346792 -0.581320 -0.736072
vn -0.342879 -0.702948 -0.623135
vn 0.342879 0.702948 0.623135
vn 0.346792 0.581320 0.736072
vn 0.393612 0.373098 0.840159
vn -0.227089 0.449351 -0.864010
vn 0.227089 -0.449351 0.864010
vn -0.120576 0.970417 0.209169
vn 0.120576 -0.970417 -0.209169
vn -0.193784 -0.894924 -0.401943
vn 0.193784 0.894924 0.401943
vn -0.327725 -0.306826 -0.893563
vn 0.327725 0.306826 0.893563
usemtl material-2
f 1//1 4//7 2//3
f 2//4 4//8 1//2
f 4//7 5//13 2//3
f 2//4 5//14 4//8
f 6//15 4//9 3//5
f 3//6 4//10 6//16
f 4//7 8//19 5//13
f 5//14 8//20 4//8
f 5//21 9//21 2//21
f 2//22 9//22 5//22
f 10//23 4//9 6//15
f 6//16 4//10 10//24
f 3//11 11//25 6//26
f 6//27 11//28 3//12
f 3//11 7//17 11//25
f 11//28 7//18 3//12
f 8//29 4//9 10//23
f 10//24 4//10 8//30
f 8//19 12//31 5//13
f 5//14 12//32 8//20
f 5//33 7//33 9//33
f 9//34 7//34 5//34
f 13//35 10//23 6//15
f 6//16 10//24 13//36
f 6//26 11//25 13//37
f 13//38 11//28 6//27
f 5//39 11//40 7//41
f 7//42 11//43 5//44
f 10//23 14//45 8//29
f 8//30 14//46 10//24
f 8//19 12//31 15//47
f 15//48 12//32 8//20
f 12//49 16//50 5//39
f 5//44 16//51 12//52
f 13//35 14//53 10//23
f 10//24 14//54 13//36
f 11//25 17//55 13//37
f 13//38 17//56 11//28
f 16//50 11//40 5//39
f 5//44 11//43 16//51
f 15//57 14//45 8//29
f 8//30 14//46 15//58
f 15//47 12//31 18//59
f 18//60 12//32 15//48
f 19//61 12//49 16//50
f 16//51 12//52 19//62
f 20//63 13//64 14//65
f 14//66 13//67 20//68
f 11//25 16//50 17//55
f 17//56 16//51 11//28
f 15//57 21//69 14//45
f 14//46 21//70 15//58
f 12//49 19//61 18//71
f 18//72 19//62 12//52
f 15//47 22//73 18//59
f 18//60 22//74 15//48
f 19//61 23//75 16//50
f 16//51 23//76 19//62
f 24//77 16//50 17//55
f 17//56 16//51 24//78
f 22//79 15//57 21//69
f 21//70 15//58 22//80
f 19//61 18//71 25//81
f 25//82 18//72 19//62
f 22//73 25//83 18//59
f 18//60 25//84 22//74
f 26//85 19//86 23//87
f 23//88 19//89 26//90
f 23//75 24//77 16//50
f 16//51 24//78 23//76
f 26//91 22//79 21//69
f 21//70 22//80 26//92
f 27//93 19//61 25//81
f 25//82 19//62 27//94
f 28//95 22//73 25//83
f 25//84 22//74 28//96
f 19//86 26//85 27//97
f 27//98 26//90 19//89
f 29//99 23//87 26//85
f 26//90 23//88 29//100
f 29//99 24//101 23//87
f 23//88 24//102 29//100
f 26//91 28//105 22//79
f 22//80 28//106 26//92
f 26//91 21//69 29//107
f 29//108 21//70 26//92
f 27//93 25//81 30//109
f 30//110 25//82 27//94
f 28//95 25//83 30//111
f 30//112 25//84 28//96
f 26//85 31//113 27//97
f 27//98 31//114 26//90
f 32//115 29//116 24//103
f 24//104 29//117 32//118
f 33//119 28//105 26//91
f 26//92 28//106 33//120
f 34//121 27//93 30//109
f 30//110 27//94 34//122
f 33//123 31//113 26//85
f 26//90 31//114 33//124
f 31//125 27//93 35//126
f 35//127 27//94 31//128
f 32//129 36//129 29//129
f 29//130 36//130 32//130
f 32//131 20//132 36//132
f 36//133 20//133 32//134
f 33//119 37//135 28//105
f 28//106 37//136 33//120
f 35//126 27//93 34//121
f 34//122 27//94 35//127
f 31//137 38//138 33//139
f 33//140 38//141 31//142
f 31//125 35//126 39//143
f 39//144 35//127 31//128
f 36//132 20//132 40//145
f 40//146 20//133 36//133
f 38//138 37//147 33//139
f 33//140 37//148 38//141
f 31//137 39//149 38//138
f 38//141 39//150 31//142