mtllib new-34.mtl
v -0.032292 -0.469339 0.052256
v -0.029680 -0.461583 0.076972
v -0.029362 -0.527374 0.048149
v -0.032543 -0.432244 0.052217
v -0.030066 -0.470731 0.042546
v -0.011726 -0.432248 0.096826
v -0.019809 -0.474087 0.091387
v -0.007514 -0.462334 0.020044
v -0.011864 -0.469308 0.096230
v 0.003124 -0.432262 0.019086
v -0.014970 -0.527377 0.092313
v 0.015720 -0.462932 0.101303
v 0.008194 -0.477654 0.023110
v 0.036589 -0.432206 0.090686
v 0.027528 -0.462325 0.023389
v 0.030608 -0.477391 0.090465
v 0.045663 -0.432339 0.042497
v 0.039963 -0.467134 0.087672
v 0.045702 -0.468825 0.042880
v 0.048672 -0.461585 0.069080
v 0.049167 -0.474085 0.051649
v 0.045782 -0.527376 0.048066
vn 0.959286 -0.131944 0.249723
vn 0.915605 -0.112415 -0.386044
vn 0.994435 -0.020292 -0.103379
vn -0.994435 0.020292 0.103379
vn -0.915605 0.112415 0.386044
vn -0.959286 0.131944 -0.249723
vn 0.718984 -0.150021 0.678642
vn -0.975204 -0.033746 -0.218721
vn 0.975204 0.033746 0.218721
vn -0.718984 0.150021 -0.678642
vn 0.501858 -0.124596 -0.855929
vn -0.501858 0.124596 0.855929
vn 0.795835 -0.092751 -0.598368
vn -0.795835 0.092751 0.598368
vn 0.695406 -0.168486 0.698586
vn -0.695406 0.168486 -0.698586
vn 0.186720 -0.004038 -0.982405
vn -0.186720 0.004038 0.982405
vn 0.664989 -0.212416 0.716010
vn -0.664989 0.212416 -0.716010
vn -0.170470 -0.056091 -0.983765
vn 0.170470 0.056091 0.983765
vn -0.506643 -0.031022 0.861597
vn 0.506643 0.031022 -0.861597
vn -0.099069 0.076898 0.992105
vn -0.228393 -0.035612 0.972917
vn -0.120757 0.074280 0.989899
vn 0.120757 -0.074280 -0.989899
vn 0.228393 0.035612 -0.972917
vn 0.099069 -0.076898 -0.992105
vn -0.340712 -0.042831 -0.939192
vn 0.340712 0.042831 0.939192
vn -0.449856 -0.060555 0.891046
vn 0.449856 0.060555 -0.891046
vn -0.109983 -0.083833 -0.990392
vn 0.109983 0.083833 0.990392
vn -0.911012 -0.130927 0.391044
vn 0.911012 0.130927 -0.391044
vn -0.001724 -0.280433 -0.959872
vn 0.001724 0.280433 0.959872
vn -0.740856 -0.023630 0.671248
vn 0.740856 0.023630 -0.671248
vn -0.937325 -0.156575 -0.311299
vn -0.970857 -0.131857 -0.200127
vn -0.898745 -0.049222 -0.435700
vn 0.898745 0.049222 0.435700
vn 0.970857 0.131857 0.200127
vn 0.937325 0.156575 0.311299
vn -0.994234 -0.106563 0.012002
vn 0.994234 0.106563 -0.012002
vn 0.922648 -0.032783 -0.384246
vn -0.922648 0.032783 0.384246
usemtl material-0
f 4//1 2//2 1//3
f 1//4 2//5 4//6
f 1//3 5//7 3//8
f 3//9 5//10 1//4
f 4//1 6//11 2//2
f 2//5 6//12 4//6
f 4//1 1//3 5//7
f 5//10 1//4 4//6
f 6//11 7//13 2//2
f 2//5 7//14 6//12
f 4//1 5//7 8//15
f 8//16 5//10 4//6
f 6//11 9//17 7//13
f 7//14 9//18 6//12
f 10//19 4//1 8//15
f 8//16 4//6 10//20
f 12//21 9//17 6//11
f 6//12 9//18 12//22
f 9//17 7//13 11//23
f 11//24 7//14 9//18
f 13//25 10//26 8//27
f 8//28 10//29 13//30
f 14//31 12//21 6//11
f 6//12 12//22 14//32
f 15//33 10//26 13//25
f 13//30 10//29 15//34
f 14//31 16//35 12//21
f 12//22 16//36 14//32
f 17//37 10//26 15//33
f 15//34 10//29 17//38
f 18//39 16//35 14//31
f 14//32 16//36 18//40
f 17//37 15//33 19//41
f 19//42 15//34 17//38
f 14//43 20//44 18//45
f 18//46 20//47 14//48
f 17//37 19//41 21//49
f 21//50 19//42 17//38
f 14//43 17//37 20//44
f 20//47 17//38 14//48
f 19//41 21//49 22//51
f 22//52 21//50 19//42
f 17//37 21//49 20//44
f 20//47 21//50 17//38