mtllib new-50.mtl
v -0.199201 -0.276455 0.215675
v -0.195952 -0.300977 0.205975
v -0.200296 -0.310677 0.173870
v -0.155793 -0.311465 0.215082
v -0.155916 -0.325764 0.178483
v -0.197384 -0.243843 0.154736
v -0.155334 -0.275178 0.230883
v -0.152067 -0.313231 0.147456
v -0.200509 -0.293437 0.150729
v -0.197686 -0.245202 0.204358
v -0.183758 -0.255387 -0.018048
v -0.154252 -0.222989 0.178518
v -0.153743 -0.236762 0.214936
v -0.159802 -0.288149 0.123991
v -0.151342 -0.268936 0.031511
v -0.184222 -0.216516 0.017719
v -0.158589 -0.238487 0.144061
v -0.130433 -0.242750 -0.089263
v -0.194338 -0.207071 0.020166
v -0.149018 -0.218452 -0.174959
v -0.146532 -0.215568 0.012915
v -0.149598 -0.213500 0.019132
v -0.213635 -0.199052 0.024475
v -0.097749 -0.203875 -0.224864
v -0.170815 -0.239903 -0.077070
v -0.195328 -0.194820 -0.041237
v -0.213694 -0.247314 -0.016940
v -0.129152 -0.186353 -0.248647
v -0.173825 -0.205695 -0.052219
v -0.213466 -0.234921 -0.067565
v -0.097540 -0.167547 -0.192272
v -0.136392 -0.199928 -0.051447
v -0.213765 -0.196358 -0.039633
v -0.086179 -0.180684 -0.260430
v -0.134176 -0.167812 -0.211889
v -0.080379 -0.156933 -0.217928
v -0.137319 -0.200437 -0.051540
v -0.099823 -0.136358 -0.283580
v -0.106413 -0.134222 -0.255552
vn -0.946114 0.265259 -0.185756
vn 0.960340 0.202903 -0.191253
vn -0.951136 0.278092 -0.134185
vn 0.951136 -0.278092 0.134185
vn -0.960340 -0.202903 0.191253
vn 0.946114 -0.265259 0.185756
vn 0.295961 0.381776 -0.875588
vn 0.298589 0.384996 -0.873283
vn -0.295961 -0.381776 0.875588
vn -0.298589 -0.384996 0.873283
vn 0.322339 0.887095 -0.330395
vn 0.334677 0.888566 -0.313755
vn -0.334677 -0.888566 0.313755
vn -0.322339 -0.887095 0.330395
vn -0.979587 0.012647 0.200621
vn 0.979587 -0.012647 -0.200621
vn 0.309862 0.885241 -0.346893
vn -0.309862 -0.885241 0.346893
vn 0.293326 0.378548 -0.877873
vn -0.293326 -0.378548 0.877873
vn 0.259958 0.883710 0.389203
vn 0.314125 0.785509 0.533199
vn 0.304909 0.824306 0.477022
vn -0.304909 -0.824306 -0.477022
vn -0.314125 -0.785509 -0.533199
vn -0.259958 -0.883710 -0.389203
vn -0.020217 -0.079252 0.996650
vn 0.020217 0.079252 -0.996650
vn -0.998898 0.046685 -0.004807
vn 0.998898 -0.046685 0.004807
vn 0.301013 -0.357127 -0.884224
vn 0.317194 -0.336439 -0.886678
vn -0.301013 0.357127 0.884224
vn -0.317194 0.336439 0.886678
vn 0.193202 0.885357 0.422867
vn -0.193202 -0.885357 -0.422867
vn 0.994319 -0.066798 0.082874
vn -0.994319 0.066798 -0.082874
vn 0.356987 -0.915258 -0.186715
vn 0.262592 -0.963171 0.057846
vn 0.325627 -0.945493 0.003036
vn -0.325627 0.945493 -0.003036
vn -0.262592 0.963171 -0.057846
vn -0.356987 0.915258 0.186715
vn 0.284624 -0.377567 -0.881154
vn -0.284624 0.377567 0.881154
vn 0.175743 0.879845 0.441574
vn -0.175743 -0.879845 -0.441574
vn 0.002188 0.978361 0.206896
vn 0.101093 0.962191 0.252921
vn -0.101093 -0.962191 -0.252921
vn -0.002188 -0.978361 -0.206896
vn 0.994501 -0.064232 0.082717
vn -0.994501 0.064232 -0.082717
vn 0.108993 -0.994026 0.005704
vn -0.108993 0.994026 -0.005704
vn 0.256466 -0.902871 -0.345034
vn -0.256466 0.902871 0.345034
vn 0.999518 -0.014997 -0.027173
vn 0.967870 0.073533 -0.240459
vn 0.996611 0.008710 -0.081796
vn -0.996611 -0.008710 0.081796
vn -0.967870 -0.073533 0.240459
vn -0.999518 0.014997 0.027173
vn 0.032640 0.952730 0.302060
vn -0.032640 -0.952730 -0.302060
vn 0.043277 -0.982771 -0.179687
vn -0.043277 0.982771 0.179687
vn -0.219646 -0.638000 0.738046
vn -0.226885 -0.464756 0.855877
vn -0.180661 -0.524745 0.831868
vn 0.180661 0.524745 -0.831868
vn 0.226885 0.464756 -0.855877
vn 0.219646 0.638000 -0.738046
vn 0.992891 -0.049944 0.108043
vn -0.992891 0.049944 -0.108043
vn 0.089573 0.942981 0.320568
vn -0.089573 -0.942981 -0.320568
vn 0.164109 0.846492 -0.506477
vn 0.130627 0.963030 -0.235604
vn -0.130627 -0.963030 0.235604
vn -0.164109 -0.846492 0.506477
vn 0.002855 -0.985111 -0.171893
vn -0.002855 0.985111 0.171893
vn -0.016066 -0.266876 0.963597
vn 0.016066 0.266876 -0.963597
vn 0.068741 0.902629 0.424896
vn -0.068741 -0.902629 -0.424896
vn 0.975022 -0.063970 0.212699
vn 0.975760 0.006734 0.218741
vn 0.969660 0.075602 0.232475
vn -0.969660 -0.075602 -0.232475
vn -0.975760 -0.006734 -0.218741
vn -0.975022 0.063970 -0.212699
vn -0.939195 0.265443 -0.217837
vn 0.939195 -0.265443 0.217837
vn 0.143948 0.970902 0.191387
vn 0.132158 0.970784 0.200281
vn -0.132158 -0.970784 -0.200281
vn -0.143948 -0.970902 -0.191387
vn 0.130469 0.762683 0.633476
vn -0.130469 -0.762683 -0.633476
vn 0.973582 -0.096759 0.206823
vn -0.973582 0.096759 -0.206823
vn -0.912560 0.275985 -0.301773
vn 0.912560 -0.275985 0.301773
vn 0.120340 0.970455 0.209132
vn -0.120340 -0.970455 -0.209132
vn -0.999991 0.003410 -0.002670
vn -0.999996 -0.002146 -0.001721
vn -0.999989 -0.004286 0.001838
vn 0.999989 0.004286 -0.001838
vn 0.999996 0.002146 0.001721
vn 0.999991 -0.003410 0.002670
vn 0.111733 0.620117 0.776512
vn -0.111733 -0.620117 -0.776512
vn 0.937568 -0.255089 0.236421
vn 0.940664 -0.233411 0.246316
vn -0.940664 0.233411 -0.246316
vn -0.937568 0.255089 -0.236421
vn -0.115659 0.579496 -0.806727
vn -0.118151 0.656460 -0.745051
vn -0.104988 0.595699 -0.796317
vn 0.104988 -0.595699 0.796317
vn 0.118151 -0.656460 0.745051
vn 0.115659 -0.579496 0.806727
vn -0.841372 0.474952 -0.257903
vn 0.841372 -0.474952 0.257903
vn -0.007262 -0.973277 -0.229518
vn 0.082889 -0.974784 -0.207183
vn 0.062080 -0.936523 -0.345066
vn -0.062080 0.936523 0.345066
vn -0.082889 0.974784 0.207183
vn 0.007262 0.973277 0.229518
vn -0.095339 0.741936 -0.663658
vn 0.095339 -0.741936 0.663658
vn -0.999978 -0.003802 -0.005439
vn 0.999978 0.003802 0.005439
vn -0.820716 0.553037 -0.143442
vn 0.820716 -0.553037 0.143442
vn 0.831347 -0.495974 0.250743
vn -0.831347 0.495974 -0.250743
vn 0.143367 -0.970344 -0.194622
vn 0.174780 -0.939863 -0.293443
vn -0.174780 0.939863 0.293443
vn -0.143367 0.970344 0.194622
vn 0.124037 -0.772916 -0.622267
vn -0.035259 -0.866190 -0.498469
vn 0.035259 0.866190 0.498469
vn -0.124037 0.772916 0.622267
vn -0.076315 0.629725 -0.773061
vn 0.076315 -0.629725 0.773061
usemtl material-2
f 1//1 2//2 3//3
f 3//4 2//5 1//6
f 4//7 2//8 1//7
f 1//9 2//10 4//9
f 2//11 5//11 3//12
f 3//13 5//14 2//14
f 6//15 3//3 1//1
f 1//6 3//4 6//16
f 4//17 5//11 2//11
f 2//14 5//14 4//18
f 7//19 4//7 1//7
f 1//9 4//9 7//20
f 5//21 8//22 3//23
f 3//24 8//25 5//26
f 6//15 9//27 3//3
f 3//4 9//28 6//16
f 6//15 1//1 10//29
f 10//30 1//6 6//16
f 7//31 1//32 10//31
f 10//33 1//34 7//33
f 3//23 8//22 9//35
f 9//36 8//25 3//24
f 6//15 9//27 11//37
f 11//38 9//28 6//16
f 10//39 6//40 12//41
f 12//42 6//43 10//44
f 13//45 7//31 10//31
f 10//33 7//33 13//46
f 9//35 8//22 14//47
f 14//48 8//25 9//36
f 9//35 15//49 11//50
f 11//51 15//52 9//36
f 16//53 6//15 11//37
f 11//38 6//16 16//54
f 12//41 6//40 17//55
f 17//56 6//43 12//42
f 13//57 10//39 12//41
f 12//42 10//44 13//58
f 17//59 8//60 14//61
f 14//62 8//63 17//64
f 9//35 14//47 15//49
f 15//52 14//48 9//36
f 15//49 11//50 18//65
f 18//66 11//51 15//52
f 6//40 16//67 17//55
f 17//56 16//68 6//43
f 11//69 16//70 19//71
f 19//72 16//73 11//74
f 17//59 14//61 15//75
f 15//76 14//62 17//64
f 11//50 18//65 20//77
f 20//78 18//66 11//51
f 21//79 15//75 18//80
f 18//81 15//76 21//82
f 17//55 16//67 21//83
f 21//84 16//68 17//56
f 22//85 19//71 16//70
f 16//73 19//72 22//86
f 21//79 17//59 15//75
f 15//76 17//64 21//82
f 18//65 24//87 20//77
f 20//78 24//88 18//66
f 20//89 25//90 11//91
f 11//92 25//93 20//94
f 24//95 18//80 21//79
f 21//82 18//81 24//96
f 19//97 22//98 26//98
f 26//99 22//99 19//100
f 20//77 24//87 28//101
f 28//102 24//88 20//78
f 29//103 25//90 20//89
f 20//94 25//93 29//104
f 31//105 24//95 21//79
f 21//82 24//96 31//106
f 22//98 32//107 26//98
f 26//99 32//108 22//99
f 33//109 27//110 23//111
f 23//112 27//113 33//114
f 24//87 34//115 28//101
f 28//102 34//116 24//88
f 35//117 20//89 28//118
f 28//119 20//94 35//120
f 25//121 33//122 29//123
f 29//124 33//125 25//126
f 35//117 29//103 20//89
f 20//94 29//104 35//120
f 36//127 24//95 31//105
f 31//106 24//96 36//128
f 21//129 37//130 31//131
f 31//132 37//133 21//134
f 33//109 30//137 27//110
f 27//113 30//138 33//114
f 36//127 34//139 24//95
f 24//96 34//140 36//128
f 38//141 35//117 28//118
f 28//119 35//120 38//142
f 37//130 29//143 35//144
f 35//145 29//146 37//133
f 31//131 39//147 36//148
f 36//149 39//150 31//132
f 37//130 35//144 31//131
f 31//132 35//145 37//133
f 37//151 29//123 26//135
f 26//136 29//124 37//152
f 31//131 35//144 39//147
f 39//150 35//145 31//132