mtllib new-31.mtl
v -0.011864 -0.469308 0.096230
v -0.014970 -0.527377 0.092313
v 0.015720 -0.462932 0.101303
v -0.004029 -0.511012 0.286204
v -0.010580 -0.586856 0.511022
v 0.021485 -0.499306 0.247248
v 0.030608 -0.477391 0.090465
v -0.012145 -0.612755 0.522481
v -0.003415 -0.586300 0.532059
v 0.027497 -0.522311 0.297868
v 0.025563 -0.588080 0.528958
v 0.027158 -0.615160 0.534427
v 0.031373 -0.527363 0.092216
vn 0.329299 -0.929807 -0.164380
vn 0.257607 -0.941497 -0.217306
vn 0.165258 -0.958663 -0.231634
vn -0.165258 0.958663 0.231634
vn -0.257607 0.941497 0.217306
vn -0.329299 0.929807 0.164380
vn 0.953644 -0.288748 -0.084781
vn 0.936008 -0.318777 -0.149232
vn 0.997971 -0.060740 -0.019092
vn -0.997971 0.060740 0.019092
vn -0.936008 0.318777 0.149232
vn -0.953644 0.288748 0.084781
vn 0.773656 -0.606849 -0.182181
vn -0.773656 0.606849 0.182181
vn 0.167399 0.924775 0.341716
vn -0.167399 -0.924775 -0.341716
vn 0.976676 -0.133464 -0.168198
vn -0.976676 0.133464 0.168198
vn 0.842113 -0.464191 -0.274540
vn -0.842113 0.464191 0.274540
vn -0.739221 -0.659746 -0.135231
vn -0.909051 -0.405718 -0.094964
vn -0.801024 -0.581226 -0.143307
vn 0.801024 0.581226 0.143307
vn 0.909051 0.405718 0.094964
vn 0.739221 0.659746 0.135231
vn 0.049339 0.954002 0.295711
vn -0.049339 -0.954002 -0.295711
vn -0.965709 -0.248892 -0.073881
vn 0.965709 0.248892 0.073881
vn 0.090274 0.950243 0.298142
vn -0.090274 -0.950243 -0.298142
vn 0.094024 0.017955 -0.995408
vn 0.295745 0.237398 -0.925298
vn -0.094024 -0.017955 0.995408
vn -0.295745 -0.237398 0.925298
vn -0.999419 -0.028847 -0.018132
vn 0.999419 0.028847 0.018132
vn -0.933794 -0.342012 -0.105152
vn 0.933794 0.342012 0.105152
vn -0.116511 -0.203171 -0.972187
vn 0.116511 0.203171 0.972187
vn -0.998352 -0.052921 -0.022202
vn 0.998352 0.052921 0.022202
usemtl material-0
f 4//1 1//2 3//3
f 3//4 1//5 4//6
f 1//7 5//8 2//9
f 2//10 5//11 1//12
f 1//7 4//13 5//8
f 5//11 4//14 1//12
f 4//1 3//3 6//15
f 6//16 3//4 4//6
f 2//9 5//8 8//17
f 8//18 5//11 2//10
f 9//19 5//8 4//13
f 4//14 5//11 9//20
f 3//21 7//22 6//23
f 6//24 7//25 3//26
f 9//27 6//15 4//1
f 4//6 6//16 9//28
f 9//19 8//17 5//8
f 5//11 8//18 9//20
f 7//22 10//29 6//23
f 6//24 10//30 7//25
f 9//27 11//31 6//15
f 6//16 11//32 9//28
f 12//33 8//34 9//33
f 9//35 8//36 12//35
f 7//22 13//37 10//29
f 10//30 13//38 7//25
f 6//23 10//29 11//39
f 11//40 10//30 6//24
f 12//33 9//33 11//41
f 11//42 9//35 12//35
f 10//29 13//37 12//43
f 12//44 13//38 10//30
f 10//29 12//43 11//39
f 11//40 12//44 10//30