mtllib new-37.mtl
v -0.309771 -0.194606 -0.057687
v -0.354198 -0.137265 -0.034886
v -0.378323 -0.145311 -0.043301
v -0.300621 -0.175664 -0.038753
v -0.351345 -0.188958 -0.043498
v -0.313732 -0.165489 -0.012448
v -0.215828 -0.228390 -0.065472
v -0.285977 -0.213235 -0.058819
v -0.217111 -0.193512 -0.033151
v -0.287123 -0.227231 -0.030621
v -0.284388 -0.195068 0.015227
v -0.214976 -0.236765 -0.063601
v -0.348693 -0.206109 -0.004507
v -0.365029 -0.156132 0.031780
v -0.215527 -0.208198 0.015139
v -0.364428 -0.176354 0.024652
v -0.215134 -0.247593 -0.017279
v -0.318484 -0.194541 0.021248
v -0.183758 -0.255387 -0.018048
v -0.194338 -0.207071 0.020166
v -0.213635 -0.199052 0.024475
v -0.170815 -0.239903 -0.077070
v -0.195328 -0.194820 -0.041237
v -0.213694 -0.247314 -0.016940
v -0.173825 -0.205695 -0.052219
v -0.213466 -0.234921 -0.067565
v -0.197051 -0.141863 0.047713
v -0.213765 -0.196358 -0.039633
v -0.196705 -0.163352 0.065506
v -0.213141 -0.141660 0.050065
v -0.213851 -0.164174 0.063919
vn -0.228295 -0.567287 0.791244
vn -0.252957 -0.435624 0.863855
vn 0.252957 0.435624 -0.863855
vn 0.228295 0.567287 -0.791244
vn -0.325825 -0.782380 0.530773
vn 0.325825 0.782380 -0.530773
vn 0.269923 0.229274 0.935187
vn 0.341044 0.206655 0.917051
vn 0.409129 0.605539 0.682595
vn -0.409129 -0.605539 -0.682595
vn -0.341044 -0.206655 -0.917051
vn -0.269923 -0.229274 -0.935187
vn -0.533557 -0.845756 -0.003624
vn -0.593255 -0.802764 0.060158
vn 0.593255 0.802764 -0.060158
vn 0.533557 0.845756 0.003624
vn -0.182611 -0.662039 0.726883
vn 0.182611 0.662039 -0.726883
vn 0.287502 0.518993 0.804977
vn -0.287502 -0.518993 -0.804977
vn -0.212695 -0.836909 0.504326
vn 0.212695 0.836909 -0.504326
vn 0.126699 0.156444 0.979527
vn -0.126699 -0.156444 -0.979527
vn 0.339077 0.901056 0.270415
vn -0.339077 -0.901056 -0.270415
vn -0.260397 -0.624706 -0.736163
vn -0.402978 -0.805787 -0.433954
vn -0.262200 -0.881375 -0.392974
vn 0.262200 0.881375 0.392974
vn 0.402978 0.805787 0.433954
vn 0.260397 0.624706 0.736163
vn 0.140906 0.229434 0.963071
vn -0.140906 -0.229434 -0.963071
vn 0.270429 0.904360 0.330154
vn -0.270429 -0.904360 -0.330154
vn 0.316902 0.911331 -0.262773
vn -0.316902 -0.911331 0.262773
vn -0.237799 0.287075 -0.927922
vn 0.237799 -0.287075 0.927922
vn -0.464464 -0.805368 -0.368314
vn 0.464464 0.805368 0.368314
vn -0.162195 -0.847240 -0.505843
vn 0.162195 0.847240 0.505843
vn 0.205109 0.918728 -0.337446
vn -0.205109 -0.918728 0.337446
vn -0.026615 0.142779 -0.989397
vn 0.026615 -0.142779 0.989397
vn -0.158511 -0.495057 -0.854279
vn 0.158511 0.495057 0.854279
vn 0.247437 0.741733 -0.623384
vn 0.160380 0.729980 -0.664385
vn -0.160380 -0.729980 0.664385
vn -0.247437 -0.741733 0.623384
vn 0.038483 0.635183 -0.771402
vn -0.038483 -0.635183 0.771402
vn -0.219646 -0.638000 0.738046
vn -0.180661 -0.524745 0.831868
vn 0.180661 0.524745 -0.831868
vn 0.219646 0.638000 -0.738046
vn -0.117748 -0.637288 0.761577
vn 0.117748 0.637288 -0.761577
vn -0.145932 -0.644143 0.750856
vn 0.145932 0.644143 -0.750856
vn -0.217792 -0.941183 -0.258345
vn -0.173700 -0.942548 -0.285362
vn 0.173700 0.942548 0.285362
vn 0.217792 0.941183 0.258345
vn 0.999226 0.038792 0.006585
vn 0.998979 0.044604 -0.007197
vn -0.998979 -0.044604 0.007197
vn -0.999226 -0.038792 -0.006585
vn -0.999991 0.003410 -0.002670
vn -0.999989 -0.004286 0.001838
vn 0.999989 0.004286 -0.001838
vn 0.999991 -0.003410 0.002670
vn -0.261302 -0.937298 -0.230636
vn 0.261302 0.937298 0.230636
vn -0.115659 0.579496 -0.806727
vn -0.118151 0.656460 -0.745051
vn -0.104988 0.595699 -0.796317
vn 0.104988 -0.595699 0.796317
vn 0.118151 -0.656460 0.745051
vn 0.115659 -0.579496 0.806727
vn -0.111408 0.582401 -0.805231
vn 0.111408 -0.582401 0.805231
vn 0.999249 0.032972 0.020365
vn -0.999249 -0.032972 -0.020365
vn -0.089874 0.852968 -0.514168
vn -0.063924 0.856948 -0.511423
vn -0.095339 0.741936 -0.663658
vn 0.095339 -0.741936 0.663658
vn 0.063924 -0.856948 0.511423
vn 0.089874 -0.852968 0.514168
vn -0.999953 0.008967 -0.003620
vn 0.999953 -0.008967 0.003620
vn -0.008235 -0.584002 -0.811710
vn -0.119705 -0.634321 -0.763746
vn 0.119705 0.634321 0.763746
vn 0.008235 0.584002 0.811710
vn -0.999622 0.026014 -0.008918
vn 0.999622 -0.026014 0.008918
vn -0.025384 -0.748967 0.662121
vn 0.025384 0.748967 -0.662121
vn 0.103376 -0.523604 -0.845667
vn -0.103376 0.523604 0.845667
usemtl material-1
f 4//5 2//2 1//1
f 1//4 2//3 4//6
f 1//7 3//8 5//9
f 5//10 3//11 1//12
f 6//13 2//14 4//5
f 4//6 2//15 6//16
f 7//17 4//5 1//1
f 1//4 4//6 7//18
f 8//19 1//7 5//9
f 5//10 1//12 8//20
f 6//13 4//5 9//21
f 9//22 4//6 6//16
f 7//17 9//21 4//5
f 4//6 9//22 7//18
f 7//23 1//7 8//19
f 8//20 1//12 7//24
f 10//25 8//19 5//9
f 5//10 8//20 10//26
f 11//27 6//28 9//29
f 9//30 6//31 11//32
f 12//33 7//23 8//19
f 8//20 7//24 12//34
f 10//25 12//35 8//19
f 8//20 12//36 10//26
f 13//37 10//25 5//9
f 5//10 10//26 13//38
f 14//41 6//28 11//27
f 11//32 6//31 14//42
f 11//27 9//29 15//43
f 15//44 9//30 11//32
f 17//45 12//35 10//25
f 10//26 12//36 17//46
f 13//37 17//45 10//25
f 10//26 17//46 13//38
f 11//27 16//47 14//39
f 14//40 16//48 11//32
f 18//49 11//27 15//43
f 15//44 11//32 18//50
f 16//51 18//52 13//37
f 13//38 18//53 16//54
f 18//52 17//45 13//37
f 13//38 17//46 18//53
f 11//27 18//49 16//47
f 16//48 18//50 11//32
f 17//45 18//52 15//55
f 15//56 18//53 17//46
usemtl material-2
f 19//57 20//58 21//61
f 21//62 20//59 19//60
f 19//57 21//61 24//63
f 24//64 21//62 19//60
f 19//65 26//65 22//66
f 22//67 26//68 19//68
f 27//69 20//69 23//70
f 23//71 20//72 27//72
f 24//77 26//65 19//65
f 19//68 26//68 24//78
f 22//79 26//85 28//80
f 28//83 26//86 22//84
f 27//69 29//87 20//69
f 20//72 29//88 27//72
f 30//89 27//90 23//91
f 23//92 27//93 30//94
f 31//95 28//73 21//74
f 21//75 28//76 31//96
f 25//81 28//80 23//91
f 23//92 28//83 25//82
f 29//97 30//97 27//98
f 27//99 30//100 29//100
f 30//89 23//91 28//80
f 28//83 23//92 30//94
f 30//101 28//73 31//95
f 31//96 28//76 30//102
f 29//103 31//103 21//103
f 21//104 31//104 29//104
f 29//97 31//105 30//97
f 30//100 31//106 29//100