mtllib new-30.mtl
v 0.030608 -0.477391 0.090465
v 0.039963 -0.467134 0.087672
v 0.430046 -0.588861 0.217514
v 0.048672 -0.461585 0.069080
v 0.049167 -0.474085 0.051649
v 0.031373 -0.527363 0.092216
v 0.205322 -0.506396 0.136545
v 0.045782 -0.527376 0.048066
v 0.441169 -0.612694 0.222516
v 0.453508 -0.585263 0.215347
v 0.412745 -0.568061 0.176421
v 0.444019 -0.610717 0.181295
v 0.264246 -0.527488 0.124455
v 0.463439 -0.616218 0.198981
v 0.456718 -0.588703 0.183229
vn -0.109983 -0.083833 -0.990392
vn 0.109983 0.083833 0.990392
vn -0.001724 -0.280433 -0.959872
vn 0.001724 0.280433 0.959872
vn 0.154134 -0.315248 -0.936409
vn -0.154134 0.315248 0.936409
vn 0.292895 -0.046980 -0.954990
vn -0.292895 0.046980 0.954990
vn 0.094551 -0.554277 -0.826945
vn -0.094551 0.554277 0.826945
vn 0.389872 0.897325 -0.206902
vn -0.122388 -0.933844 -0.336090
vn -0.309406 -0.914576 0.260422
vn 0.309406 0.914576 -0.260422
vn 0.122388 0.933844 0.336090
vn -0.389872 -0.897325 0.206902
vn 0.119953 -0.149992 -0.981384
vn -0.119953 0.149992 0.981384
vn -0.012168 -0.456442 -0.889670
vn 0.012168 0.456442 0.889670
vn -0.432015 0.229485 0.872181
vn 0.432015 -0.229485 -0.872181
vn -0.370094 0.021496 0.928746
vn -0.303802 0.072256 0.949991
vn -0.325026 -0.042863 0.944733
vn 0.325026 0.042863 -0.944733
vn 0.303802 -0.072256 -0.949991
vn 0.370094 -0.021496 -0.928746
vn -0.362729 -0.829225 0.425222
vn -0.369652 -0.760018 0.534538
vn 0.369652 0.760018 -0.534538
vn 0.362729 0.829225 -0.425222
vn -0.633972 0.192568 0.748997
vn 0.633972 -0.192568 -0.748997
vn -0.244510 0.087479 0.965693
vn 0.244510 -0.087479 -0.965693
vn -0.199990 0.408621 0.890524
vn 0.199990 -0.408621 -0.890524
vn -0.708977 0.138170 -0.691564
vn 0.708977 -0.138170 0.691564
vn -0.431088 -0.900729 0.053390
vn 0.431088 0.900729 -0.053390
vn -0.393936 0.147535 0.907220
vn 0.393936 -0.147535 -0.907220
vn -0.959798 -0.272647 -0.066713
vn 0.959798 0.272647 0.066713
vn -0.601387 0.281211 0.747833
vn 0.601387 -0.281211 -0.747833
usemtl material-0
f 3//5 1//1 2//3
f 2//4 1//2 3//6
f 3//5 6//7 1//1
f 1//2 6//8 3//6
f 3//5 2//3 7//9
f 7//10 2//4 3//6
f 7//11 2//12 4//13
f 4//14 2//15 7//16
f 9//17 6//7 3//5
f 3//6 6//8 9//18
f 10//19 3//5 7//9
f 7//10 3//6 10//20
f 11//21 4//13 7//11
f 7//16 4//14 11//22
f 12//23 5//24 8//25
f 8//26 5//27 12//28
f 13//29 4//13 5//30
f 5//31 4//14 13//32
f 10//19 9//17 3//5
f 3//6 9//18 10//20
f 10//33 11//21 7//11
f 7//16 11//22 10//34
f 11//21 4//13 13//29
f 13//32 4//14 11//22
f 12//23 11//35 5//24
f 5//27 11//36 12//28
f 11//35 13//37 5//24
f 5//27 13//38 11//36
f 10//39 14//39 9//39
f 9//40 14//40 10//40
f 10//33 11//21 15//41
f 15//42 11//22 10//34
f 15//43 11//35 12//23
f 12//28 11//36 15//44
f 10//45 15//45 14//45
f 14//46 15//46 10//46
f 14//47 15//43 12//23
f 12//28 15//44 14//48