mtllib new-28.mtl
v 0.045229 -0.432082 0.079569
v 0.013929 -0.432272 0.100148
v 0.031925 -0.405258 0.093428
v -0.020250 -0.405478 0.089478
v 0.048692 -0.404933 0.057532
v -0.026264 -0.431998 0.084379
v -0.003941 -0.404780 0.047430
v 0.037907 -0.432643 0.031720
v -0.026103 -0.405215 0.039018
v 0.017726 -0.405924 0.021555
v 0.020630 -0.404834 0.072821
v 0.023128 -0.404823 0.047053
v -0.029166 -0.432157 0.045403
v -0.003087 -0.432690 0.020394
v 0.003592 -0.404836 0.077314
v -0.008819 -0.404855 0.064806
vn -0.754299 -0.035423 -0.655575
vn -0.543248 0.156701 -0.824819
vn 0.754299 0.035423 0.655575
vn 0.543248 -0.156701 0.824819
vn 0.073524 -0.286629 -0.955216
vn 0.225445 -0.098434 -0.969270
vn -0.225445 0.098434 0.969270
vn -0.073524 0.286629 0.955216
vn -0.882303 -0.223648 -0.414154
vn 0.882303 0.223648 0.414154
vn 0.364134 0.095538 -0.926433
vn -0.364134 -0.095538 0.926433
vn 0.002116 -0.999925 -0.012061
vn 0.013959 -0.999840 -0.011198
vn 0.003835 -0.999943 0.010006
vn -0.003835 0.999943 -0.010006
vn -0.013959 0.999840 0.011198
vn -0.002116 0.999925 0.012061
vn -0.960149 0.239456 0.144133
vn 0.960149 -0.239456 -0.144133
vn -0.001080 -0.999954 -0.009568
vn 0.001080 0.999954 0.009568
vn 0.981939 -0.164424 -0.093602
vn 0.973390 -0.198820 -0.113942
vn -0.981939 0.164424 0.093602
vn -0.973390 0.198820 0.113942
vn 0.012384 -0.999741 0.019082
vn -0.012384 0.999741 -0.019082
vn -0.717896 -0.303969 0.626282
vn 0.717896 0.303969 -0.626282
vn -0.009821 -0.999304 0.035981
vn -0.003833 -0.999152 0.040988
vn 0.003833 0.999152 -0.040988
vn 0.009821 0.999304 -0.035981
vn 0.001732 0.999998 0.000478
vn 0.003074 0.999995 -0.000822
vn -0.000399 0.999999 0.001335
vn 0.000399 -0.999999 -0.001335
vn -0.003074 -0.999995 0.000822
vn -0.001732 -0.999998 -0.000478
vn 0.001706 0.999979 0.006306
vn -0.001706 -0.999979 -0.006306
vn 0.988848 -0.129753 -0.073106
vn -0.988848 0.129753 0.073106
vn -0.262909 0.163192 0.950919
vn 0.262909 -0.163192 -0.950919
vn -0.003961 -0.999992 -0.000806
vn 0.003961 0.999992 0.000806
vn -0.002136 0.999995 0.002414
vn 0.002136 -0.999995 -0.002414
vn 0.540022 -0.112981 0.834033
vn 0.690212 0.091634 0.717782
vn -0.690212 -0.091634 -0.717782
vn -0.540022 0.112981 -0.834033
vn 0.347743 -0.308791 0.885281
vn -0.347743 0.308791 -0.885281
vn -0.004661 0.999985 0.003050
vn 0.004661 -0.999985 -0.003050
usemtl material-0
f 1//1 2//2 3//1
f 3//3 2//4 1//3
f 3//5 2//6 4//6
f 4//7 2//7 3//8
f 5//9 1//1 3//1
f 3//3 1//3 5//10
f 2//6 6//11 4//6
f 4//7 6//12 2//7
f 3//13 4//14 7//15
f 7//16 4//17 3//18
f 5//19 8//19 1//19
f 1//20 8//20 5//20
f 3//13 7//15 5//21
f 5//22 7//16 3//18
f 9//23 4//24 6//23
f 6//25 4//26 9//25
f 4//14 9//27 7//15
f 7//16 9//28 4//17
f 5//29 10//29 8//29
f 8//30 10//30 5//30
f 5//31 7//15 10//32
f 10//33 7//16 5//34
f 11//35 5//36 7//37
f 7//38 5//39 11//40
f 5//41 12//41 7//41
f 7//42 12//42 5//42
f 9//23 6//23 13//43
f 13//44 6//25 9//25
f 7//15 9//27 10//32
f 10//33 9//28 7//16
f 8//45 10//45 14//45
f 14//46 10//46 8//46
f 11//47 12//47 5//47
f 5//48 12//48 11//48
f 15//49 11//35 7//37
f 7//38 11//40 15//50
f 14//51 9//51 13//52
f 13//53 9//54 14//54
f 10//55 9//51 14//51
f 14//54 9//54 10//56
f 15//49 7//37 16//57
f 16//58 7//38 15//50