# SSTK version 0.8.0
# 25
mtllib original-25.mtl
o mesh25/mesh25-geometry#mesh25-geometry
v 0.020928 -0.627060 0.553575
v 0.020959 -0.649645 0.495321
v 0.021103 -0.674682 0.575115
v 0.040722 -0.636810 0.508692
v 0.021133 -0.705070 0.547598
v 0.039838 -0.656574 0.573098
v 0.039297 -0.672059 0.494159
v 0.039001 -0.627629 0.544123
v 0.021548 -0.696481 0.507446
v 0.039993 -0.694200 0.562294
v 0.039896 -0.703573 0.522706
vn -0.999994195899882 -0.003321000650587412 0.0007610001490807047
vn -0.9999664254698052 -0.007174003052424164 -0.003960001684917716
vn -0.9999959407082425 -0.0026819998409788703 0.0009619999429611011
vn 0.9999959407082425 0.0026819998409788703 -0.0009619999429611011
vn 0.9999664254698052 0.007174003052424164 0.003960001684917716
vn 0.999994195899882 0.003321000650587412 -0.0007610001490807047
vn 0.22299505033121497 -0.9275602093554643 0.2998420676760114
vn 0.3393870856385723 -0.8769792212908257 0.3401820858391771
vn -0.22299505033121497 0.9275602093554643 -0.2998420676760114
vn -0.3393870856385723 0.8769792212908257 -0.3401820858391771
vn -0.9999386156426688 -0.009099996502134916 -0.0063209975703291
vn 0.9999386156426688 0.009099996502134916 0.0063209975703291
vn 0.2867179378531769 -0.39393391461384847 -0.8732748107155222
vn -0.2867179378531769 0.39393391461384847 0.8732748107155222
vn -0.3637081512478843 -0.3424691424156513 0.8662743602398346
vn 0.3637081512478843 0.3424691424156513 -0.8662743602398346
vn 0.10264901286674663 -0.9616931205453553 0.25418403186120786
vn -0.10264901286674663 0.9616931205453553 -0.25418403186120786
vn -0.9997741886903998 -0.016157003049359946 -0.013803002605082335
vn 0.9997741886903998 0.016157003049359946 0.013803002605082335
vn -0.08465800152075402 0.48854500877597834 -0.8684220155998991
vn 0.18721792675577453 0.6594697419993304 -0.7280447151711261
vn 0.08465800152075402 -0.48854500877597834 0.8684220155998991
vn -0.18721792675577453 -0.6594697419993304 0.7280447151711261
vn -0.34613604784708146 0.25760803560967643 -0.9021241247024308
vn 0.34613604784708146 -0.25760803560967643 0.9021241247024308
vn -0.3626487678307012 -0.6645175745729947 -0.6533775817048659
vn 0.3626487678307012 0.6645175745729947 0.6533775817048659
vn 0.34943194023246726 0.23894395913055086 0.9059818450390666
vn -0.34943194023246726 -0.23894395913055086 -0.9059818450390666
vn -0.9999762228227266 -0.006882001533502808 -0.0004380000975986966
vn -0.9987483756493097 0.02180000819942063 0.045016016931427476
vn -0.9996063639667394 0.01704000620443779 0.02228800811528811
vn 0.9996063639667394 -0.01704000620443779 -0.02228800811528811
vn 0.9987483756493097 -0.02180000819942063 -0.045016016931427476
vn 0.9999762228227266 0.006882001533502808 0.0004380000975986966
vn -0.9975829588407256 -0.061397997466780076 -0.03253499865763852
vn -0.9992569103571662 -0.030802997236678648 -0.023168997921520874
vn 0.9992569103571662 0.030802997236678648 0.023168997921520874
vn 0.9975829588407256 0.061397997466780076 0.03253499865763852
vn 0.19820597269296683 0.958054868007832 0.20699097148264886
vn -0.19820597269296683 -0.958054868007832 -0.20699097148264886
vn -0.356940894627851 0.9091887315993434 -0.2144039367060376
vn 0.356940894627851 -0.9091887315993434 0.2144039367060376
vn -0.9999563971822598 0.006047002401866808 -0.007116002826473326
vn 0.9999563971822598 -0.006047002401866808 0.007116002826473326
vn -0.33970894259225093 0.6278648938964927 0.7002738816600265
vn 0.33970894259225093 -0.6278648938964927 -0.7002738816600265
usemtl material_0_0
f 1//1 2//2 3//3
f 3//4 2//5 1//6
f 1//7 2//8 4//7
f 4//9 2//10 1//9
f 2//2 5//11 3//3
f 3//4 5//12 2//5
f 6//13 3//13 1//13
f 1//14 3//14 6//14
f 4//15 2//15 7//15
f 7//16 2//16 4//16
f 1//7 4//7 8//17
f 8//18 4//9 1//9
f 2//2 9//19 5//11
f 5//12 9//20 2//5
f 10//21 5//22 3//21
f 3//23 5//24 10//23
f 10//21 3//21 6//25
f 6//26 3//23 10//23
f 6//27 1//27 8//27
f 8//28 1//28 6//28
f 7//29 2//29 9//29
f 9//30 2//30 7//30
f 4//31 7//32 11//33
f 11//34 7//35 4//36
f 8//37 4//31 6//38
f 6//39 4//36 8//40
f 5//41 11//41 9//41
f 9//42 11//42 5//42
f 10//43 11//43 5//43
f 5//44 11//44 10//44
f 4//31 10//45 6//38
f 6//39 10//46 4//36
f 11//47 7//47 9//47
f 9//48 7//48 11//48
f 4//31 11//33 10//45
f 10//46 11//34 4//36
