# SSTK version 0.8.0
# 27
mtllib original-27.mtl
o mesh27/mesh27-geometry#mesh27-geometry
v 0.423671 -0.627354 0.205318
v 0.423614 -0.648735 0.263028
v 0.423437 -0.674678 0.183910
v 0.404808 -0.625933 0.230191
v 0.423410 -0.705070 0.211430
v 0.405195 -0.645841 0.188543
v 0.405844 -0.665466 0.267137
v 0.422992 -0.696482 0.251578
v 0.403531 -0.698642 0.200819
v 0.404808 -0.701471 0.242818
vn 0.999989031220658 -0.004629000144522015 -0.0007140000222917949
vn 0.9999624366751918 -0.007742003380867808 0.00389700170178789
vn 0.9999934795379881 -0.0034380016486631436 -0.001105000529893186
vn -0.9999934795379881 0.0034380016486631436 0.001105000529893186
vn -0.9999624366751918 0.007742003380867808 -0.00389700170178789
vn -0.999989031220658 0.004629000144522015 0.0007140000222917949
vn -0.4678460761641777 -0.8286081348953438 -0.3074550500529175
vn 0.4678460761641777 0.8286081348953438 0.3074550500529175
vn 0.9999375393028834 -0.009297995716172612 0.006201997142579322
vn -0.9999375393028834 0.009297995716172612 -0.006201997142579322
vn -0.3850689553809076 -0.37878795610870575 0.8415709024846605
vn 0.3850689553809076 0.37878795610870575 -0.8415709024846605
vn 0.4226769846361146 -0.6128629777230441 -0.667639975731955
vn -0.4226769846361146 0.6128629777230441 0.667639975731955
vn 0.4513951053838421 -0.8034371875724762 0.3882410906397462
vn -0.4513951053838421 0.8034371875724762 -0.3882410906397462
vn 0.9997697702979227 -0.016346996244196308 0.013898996806636353
vn -0.9997697702979227 0.016346996244196308 -0.013898996806636353
vn -0.17578496012969033 0.660839850112948 0.729650834505724
vn 0.17578496012969033 -0.660839850112948 -0.729650834505724
vn 0.5010050525228674 0.18096901897188808 0.8463120887231323
vn -0.5010050525228674 -0.18096901897188808 -0.8463120887231323
vn -0.4098111872778132 0.21775209950957483 -0.8857984047971196
vn 0.4098111872778132 -0.21775209950957483 0.8857984047971196
vn 0.9998671221432752 -0.015386001879546413 -0.0053860006579511885
vn 0.9994755328847243 -0.006111997143494626 -0.03180098513747916
vn 0.9998204047463785 -0.012881005214476706 -0.013901005627392337
vn -0.9998204047463785 0.012881005214476706 0.013901005627392337
vn -0.9994755328847243 0.006111997143494626 0.03180098513747916
vn -0.9998671221432752 0.015386001879546413 0.0053860006579511885
vn 0.9994111246690499 -0.026405003293826328 0.02191300273348291
vn -0.9994111246690499 0.026405003293826328 -0.02191300273348291
vn -0.1643680258148223 0.9642291514370213 -0.2079550326603802
vn 0.05983000671657676 0.9951071117117257 -0.07862700882674714
vn -0.05983000671657676 -0.9951071117117257 0.07862700882674714
vn 0.1643680258148223 -0.9642291514370213 0.2079550326603802
vn 0.2799640747120628 0.9583732557543962 0.056043014955809094
vn -0.2799640747120628 -0.9583732557543962 -0.056043014955809094
vn 0.24125604649100962 0.5384001037518635 -0.8074161555923378
vn -0.24125604649100962 -0.5384001037518635 0.8074161555923378
vn 0.9994908322324794 -0.007871998678661517 -0.030920994809818695
vn -0.9994908322324794 0.007871998678661517 0.030920994809818695
usemtl material_0_0
f 1//1 2//2 3//3
f 3//4 2//5 1//6
f 2//7 4//7 1//7
f 1//8 4//8 2//8
f 2//2 5//9 3//3
f 3//4 5//10 2//5
f 1//11 6//11 3//11
f 3//12 6//12 1//12
f 2//13 7//13 4//13
f 4//14 7//14 2//14
f 4//15 6//15 1//15
f 1//16 6//16 4//16
f 2//2 8//17 5//9
f 5//10 8//18 2//5
f 3//19 9//19 5//19
f 5//20 9//20 3//20
f 3//21 6//21 9//21
f 9//22 6//22 3//22
f 2//23 8//23 7//23
f 7//24 8//24 2//24
f 4//25 7//26 9//27
f 9//28 7//29 4//30
f 4//25 9//27 6//31
f 6//32 9//28 4//30
f 8//33 5//34 10//34
f 10//35 5//35 8//36
f 10//34 5//34 9//37
f 9//38 5//35 10//35
f 8//39 10//39 7//39
f 7//40 10//40 8//40
f 7//26 10//41 9//27
f 9//28 10//42 7//29
