# SSTK version 0.8.0
# 45
mtllib original-45.mtl
o mesh45/mesh45-geometry#mesh45-geometry
v 0.039025 -0.050796 -0.215541
v -0.022589 -0.050796 -0.215541
v -0.022617 0.054739 -0.199061
v -0.018344 -0.040532 -0.251402
v 0.039050 0.066104 -0.198195
v 0.034780 -0.040532 -0.251402
v -0.022605 0.175093 -0.198420
v -0.022589 0.185435 -0.214677
v 0.039060 0.175926 -0.198662
v 0.039025 0.185435 -0.214677
vn -0.00657800008923386 0.15052700204197406 -0.9885840134106365
vn 0 0.15428197776388014 -0.9880268575991573
vn -0.00003100001205316353 0.10237003980265645 -0.9947463867689098
vn 0.00003100001205316353 -0.10237003980265645 0.9947463867689098
vn 0 -0.15428197776388014 0.9880268575991573
vn 0.00657800008923386 -0.15052700204197406 0.9885840134106365
vn 0 -0.9613987536502535 -0.2751589294930098
vn 0 0.9613987536502535 0.2751589294930098
vn -0.9951950504240467 0.008932000452562146 -0.0975040049402843
vn -0.997618126373783 0.0003290000416762474 -0.0689780087378243
vn -0.9934832318497054 0.01733100404454555 -0.11265302628989612
vn 0.9934832318497054 -0.01733100404454555 0.11265302628989612
vn 0.997618126373783 -0.0003290000416762474 0.0689780087378243
vn 0.9951950504240467 -0.008932000452562146 0.0975040049402843
vn -0.0013180002699212108 0.0494000101169255 -0.998778204545802
vn 0.0013180002699212108 -0.0494000101169255 0.998778204545802
vn -0.9988582095245153 -0.008178001715450531 -0.047068009873175054
vn 0.9988582095245153 0.008178001715450531 0.047068009873175054
vn 0.9953445728788239 0.008057996542161322 -0.09604295878615042
vn 0.9934714212349525 0.016532007009622058 -0.1128770478602171
vn 0.9976762869871125 -0.00023300006702376043 -0.06813201959855299
vn -0.9976762869871125 0.00023300006702376043 0.06813201959855299
vn -0.9934714212349525 -0.016532007009622058 0.1128770478602171
vn -0.9953445728788239 -0.008057996542161322 0.09604295878615042
vn 0.0046050011663502375 0.0005360001357575955 -0.99998925327631
vn -0.0046050011663502375 -0.0005360001357575955 0.99998925327631
vn -0.9997885872623615 -0.016874993033582437 -0.011747995150134902
vn 0.9997885872623615 0.016874993033582437 0.011747995150134902
vn 0.9989186129540747 -0.008619996660053642 -0.04568698229789683
vn -0.9989186129540747 0.008619996660053642 0.04568698229789683
vn -0.003852998266409321 -0.004248998088235974 -0.9999835500745026
vn 0.003852998266409321 0.004248998088235974 0.9999835500745026
vn -0.009286003219680738 0.8437002925311908 0.5367341860986562
vn -0.004644001661203809 0.8518783047250169 0.5237191873393622
vn 0.004644001661203809 -0.8518783047250169 -0.5237191873393622
vn 0.009286003219680738 -0.8437002925311908 -0.5367341860986562
vn 0.9997849504801527 -0.016809999167392356 -0.012143999398501653
vn -0.9997849504801527 0.016809999167392356 0.012143999398501653
vn 0 0.859836141100842 0.5105700837855788
vn 0 -0.859836141100842 -0.5105700837855788
usemtl material_0_0
f 1//1 2//2 3//3
f 3//4 2//5 1//6
f 4//7 1//7 2//7
f 2//8 1//8 4//8
f 3//9 4//10 2//11
f 2//12 4//13 3//14
f 5//15 1//1 3//3
f 3//4 1//6 5//16
f 1//7 4//7 6//7
f 6//8 4//8 1//8
f 7//17 4//10 3//9
f 3//14 4//13 7//18
f 5//19 1//20 6//21
f 6//22 1//23 5//24
f 5//15 3//3 7//25
f 7//26 3//4 5//16
f 8//27 4//10 7//17
f 7//18 4//13 8//28
f 9//29 5//19 6//21
f 6//22 5//24 9//30
f 9//31 5//15 7//25
f 7//26 5//16 9//32
f 7//33 9//34 8//34
f 8//35 9//35 7//36
f 10//37 9//29 6//21
f 6//22 9//30 10//38
f 9//34 10//39 8//34
f 8//35 10//40 9//35
