# SSTK version 0.8.0
# 8
mtllib original-8.mtl
o mesh8/mesh8-geometry#mesh8-geometry
v 0.440392 0.154606 0.254773
v 0.327660 0.165808 0.163114
v 0.325108 0.154640 0.252388
v 0.449840 0.164378 0.175533
v 0.318869 0.134310 0.166733
v 0.342459 0.149308 0.270500
v 0.457832 0.135305 0.217492
v 0.451230 0.167927 0.077407
v 0.321852 0.126362 0.275929
v 0.317329 0.137693 -0.046298
v 0.445772 0.129236 0.260948
v 0.326010 0.166073 -0.046304
v 0.458382 0.140257 0.007793
v 0.457526 0.136049 0.127669
v 0.432998 0.166185 -0.038435
v 0.337734 0.159599 -0.058121
v 0.338982 0.136473 -0.061495
v 0.445775 0.136161 -0.040490
vn -0.002927000536446073 0.9839391803314699 0.17848003271093102
vn -0.0028199995774935947 0.9974648505548399 0.07110498934669576
vn -0.003982998315506726 0.9784475861940559 0.2064569126850545
vn 0.003982998315506726 -0.9784475861940559 -0.2064569126850545
vn 0.0028199995774935947 -0.9974648505548399 -0.07110498934669576
vn 0.002927000536446073 -0.9839391803314699 -0.17848003271093102
vn 0.0036000014230790443 0.9968403940505873 0.07934903136663864
vn -0.0036000014230790443 -0.9968403940505873 -0.07934903136663864
vn 0.9607312381220706 -0.27735206874310553 -0.008445002093136254
vn 0.9779368973621053 -0.20774697819622867 -0.021922997699104788
vn 0.995764045932107 -0.09078000418745473 -0.014593000673138654
vn -0.995764045932107 0.09078000418745473 0.014593000673138654
vn -0.9779368973621053 0.20774697819622867 0.021922997699104788
vn -0.9607312381220706 0.27735206874310553 0.008445002093136254
vn -0.005663998378986551 0.9577897258844508 0.28741391774329816
vn 0.005663998378986551 -0.9577897258844508 -0.28741391774329816
vn -0.9172523062146437 -0.3871631292501735 -0.09355703123299097
vn -0.9767122918162818 -0.18934805657228468 -0.10089803014571257
vn -0.8998322999946906 -0.3715511238712641 -0.22858607620821036
vn 0.8998322999946906 0.3715511238712641 0.22858607620821036
vn 0.9767122918162818 0.18934805657228468 0.10089803014571257
vn 0.9172523062146437 0.3871631292501735 0.09355703123299097
vn -0.0027059998447351457 0.999967942623841 0.00753599956759943
vn 0.0027059998447351457 -0.999967942623841 -0.00753599956759943
vn 0.9951028070565501 0.09677098123678596 -0.020143996094220542
vn -0.9951028070565501 -0.09677098123678596 0.020143996094220542
vn 0.9967728436836029 -0.07994998746204406 -0.007203998870250975
vn -0.9967728436836029 0.07994998746204406 0.007203998870250975
vn -0.12793603146753396 -0.19582704816621413 -0.9722572391393366
vn -0.1391869386306133 -0.2619468845041078 -0.9549925789309724
vn 0.1391869386306133 0.2619468845041078 0.9549925789309724
vn 0.12793603146753396 0.19582704816621413 0.9722572391393366
vn 0.48865224185335604 -0.590744292382757 -0.6420593177805963
vn -0.48865224185335604 0.590744292382757 0.6420593177805963
vn -0.9293686840583815 -0.3674388750880733 0.03553198792079616
vn 0.9293686840583815 0.3674388750880733 -0.03553198792079616
vn -0.9186804393428197 -0.2658988377258444 -0.29210282173393776
vn 0.9186804393428197 0.2658988377258444 0.29210282173393776
vn -0.04070799282340539 0.928417836325056 0.369300934894282
vn 0.04070799282340539 -0.928417836325056 -0.369300934894282
vn 0.9562356206489734 -0.29249088396508693 -0.007906996863192177
vn -0.9562356206489734 0.29249088396508693 0.007906996863192177
vn -0.11607206211963692 -0.1287670689137715 -0.9848585270782046
vn 0.11607206211963692 0.1287670689137715 0.9848585270782046
vn -0.9696987281517876 -0.21946593847426904 0.10732696991163951
vn 0.9696987281517876 0.21946593847426904 -0.10732696991163951
vn -0.42361305050865794 0.9057991080011516 0.008942001066181678
vn 0.42361305050865794 -0.9057991080011516 -0.008942001066181678
vn -0.07142100458990672 0.24200801555276663 0.967642062186003
vn 0.07142100458990672 -0.24200801555276663 -0.967642062186003
vn 0.6063442164746254 -0.1425760509019405 0.7823162792994787
vn 0.6404391849966493 -0.19574405654244062 0.742645214519785
vn -0.6063442164746254 0.1425760509019405 -0.7823162792994787
vn -0.6404391849966493 0.19574405654244062 -0.742645214519785
vn -0.8550299496947418 -0.47782497188740747 0.20151198814414326
vn 0.8550299496947418 0.47782497188740747 -0.20151198814414326
vn -0.9306724031669072 0.3658011584649133 0.0061960026841058466
vn 0.9306724031669072 -0.3658011584649133 -0.0061960026841058466
vn -0.03254399165611214 -0.8898137718624559 0.45516188330197005
vn 0.03254399165611214 0.8898137718624559 -0.45516188330197005
vn 0.5688761884126782 -0.0886140293491043 0.817635270802073
vn -0.5688761884126782 0.0886140293491043 -0.817635270802073
vn -0.8810268187371204 -0.39296391915141504 0.26338394581126084
vn 0.8810268187371204 0.39296391915141504 -0.26338394581126084
vn -0.40799403491694697 0.9125200780952964 0.029120002492148155
vn 0.40799403491694697 -0.9125200780952964 -0.029120002492148155
vn -0.19077610251165844 -0.149630080402249 0.9701625213072692
vn -0.1903709065544646 -0.14745192762169085 0.9705755235829302
vn 0.19077610251165844 0.149630080402249 -0.9701625213072692
vn 0.1903709065544646 0.14745192762169085 -0.9705755235829302
vn -0.1911810698613037 -0.15180805547363385 0.9697443543635619
vn 0.1911810698613037 0.15180805547363385 -0.9697443543635619
usemtl material_0_0
f 1//1 2//2 3//3
f 3//4 2//5 1//6
f 1//1 4//7 2//2
f 2//5 4//8 1//6
f 2//9 3//10 5//11
f 5//12 3//13 2//14
f 6//15 1//1 3//3
f 3//4 1//6 6//16
f 4//17 7//18 1//19
f 1//20 7//21 4//22
f 4//7 8//23 2//2
f 2//5 8//24 4//8
f 3//10 9//25 5//11
f 5//12 9//26 3//13
f 2//9 5//11 10//27
f 10//28 5//12 2//14
f 11//29 6//29 1//30
f 1//31 6//32 11//32
f 6//33 9//33 3//33
f 3//34 9//34 6//34
f 8//35 7//18 4//17
f 4//22 7//21 8//36
f 1//19 7//18 11//37
f 11//38 7//21 1//20
f 2//2 8//23 12//39
f 12//40 8//24 2//5
f 10//27 5//11 9//25
f 9//26 5//12 10//28
f 12//41 2//9 10//27
f 10//28 2//14 12//42
f 11//29 9//43 6//29
f 6//32 9//44 11//32
f 8//35 13//45 7//18
f 7//21 13//46 8//36
f 11//47 7//47 14//47
f 14//48 7//48 11//48
f 8//23 15//49 12//39
f 12//40 15//50 8//24
f 16//51 12//52 10//51
f 10//53 12//54 16//53
f 8//35 15//55 13//45
f 13//46 15//56 8//36
f 13//45 14//57 7//18
f 7//21 14//58 13//46
f 15//49 12//39 16//59
f 16//60 12//40 15//50
f 17//61 16//51 10//51
f 10//53 16//53 17//62
f 15//55 18//63 13//45
f 13//46 18//64 15//56
f 14//65 13//65 18//65
f 18//66 13//66 14//66
f 18//67 15//68 16//67
f 16//69 15//70 18//69
f 18//67 16//67 17//71
f 17//72 16//69 18//69
