# SSTK version 0.8.0
# 17
mtllib original-17.mtl
o mesh17/mesh17-geometry#mesh17-geometry
v 0.303863 -0.625921 -0.285254
v 0.305255 -0.664336 -0.320221
v 0.304262 -0.646856 -0.242774
v 0.285232 -0.648736 -0.318088
v 0.304124 -0.694203 -0.251766
v 0.285176 -0.627354 -0.260378
v 0.285854 -0.696481 -0.306639
v 0.303472 -0.703835 -0.290439
v 0.285408 -0.674678 -0.238970
v 0.285438 -0.705070 -0.266488
vn -0.9995054311522532 -0.030900013329202582 -0.00583800251831342
vn -0.9999568739204455 0.007784999018428461 -0.005063999361505681
vn -0.9998702655750766 -0.012659003362352001 -0.009960002645471675
vn 0.9998702655750766 0.012659003362352001 0.009960002645471675
vn 0.9999568739204455 -0.007784999018428461 0.005063999361505681
vn 0.9995054311522532 0.030900013329202582 0.00583800251831342
vn -0.41302195687865134 -0.6211899351449788 0.66598493046818
vn 0.41302195687865134 0.6211899351449788 -0.66598493046818
vn -0.9996210137158 0.02712900037223702 -0.004674000064131956
vn 0.9996210137158 -0.02712900037223702 0.004674000064131956
vn -0.4573858149115493 -0.7993596765263825 -0.3896438423244168
vn 0.4573858149115493 0.7993596765263825 0.3896438423244168
vn 0.47173401823818095 -0.8266680319606401 0.30673601185902793
vn -0.47173401823818095 0.8266680319606401 -0.30673601185902793
vn 0.276694983778342 0.22749198666294143 0.933641945263842
vn -0.276694983778342 -0.22749198666294143 -0.933641945263842
vn -0.998804336652552 0.048657016400117756 0.004732001594947433
vn 0.998804336652552 -0.048657016400117756 -0.004732001594947433
vn -0.42942596589391757 0.16971498652081204 -0.8870119295512979
vn 0.42942596589391757 -0.16971498652081204 0.8870119295512979
vn 0.38855187363809435 -0.37819487700631854 -0.8402357267448831
vn -0.38855187363809435 0.37819487700631854 0.8402357267448831
vn -0.9999892436184092 -0.004581001116028209 0.0007260001768689107
vn -0.9999624562749733 -0.007746003534440252 -0.0038840017722393413
vn -0.9999934562661185 -0.0034470015727603195 0.001098000500983705
vn 0.9999934562661185 0.0034470015727603195 -0.001098000500983705
vn 0.9999624562749733 0.007746003534440252 0.0038840017722393413
vn 0.9999892436184092 0.004581001116028209 -0.0007260001768689107
vn -0.9997705573521836 -0.016342992764149727 -0.013846993869251745
vn -0.9999373310138093 -0.009329003088222387 -0.006189002048773539
vn 0.9999373310138093 0.009329003088222387 0.006189002048773539
vn 0.9997705573521836 0.016342992764149727 0.013846993869251745
vn -0.42380189751772085 0.5574268652050027 0.7139098273648451
vn 0.42380189751772085 -0.5574268652050027 -0.7139098273648451
vn -0.3548179544326846 0.9086058833127514 -0.22031697170590492
vn 0.3548179544326846 -0.9086058833127514 0.22031697170590492
vn 0.19002892984570272 0.659071756685911 -0.7276767313585369
vn -0.19002892984570272 -0.659071756685911 0.7276767313585369
vn 0.2089839446817482 0.9558387469885613 0.2066349453035306
vn -0.2089839446817482 -0.9558387469885613 -0.2066349453035306
usemtl material_0_0
f 1//1 2//2 3//3
f 3//4 2//5 1//6
f 2//7 1//7 4//7
f 4//8 1//8 2//8
f 3//3 2//2 5//9
f 5//10 2//5 3//4
f 3//11 6//11 1//11
f 1//12 6//12 3//12
f 6//13 4//13 1//13
f 1//14 4//14 6//14
f 2//15 4//15 7//15
f 7//16 4//16 2//16
f 2//2 8//17 5//9
f 5//10 8//18 2//5
f 3//19 5//19 9//19
f 9//20 5//20 3//20
f 3//21 9//21 6//21
f 6//22 9//22 3//22
f 6//23 4//24 9//25
f 9//26 4//27 6//28
f 4//24 7//29 10//30
f 10//31 7//32 4//27
f 2//33 7//33 8//33
f 8//34 7//34 2//34
f 5//35 8//35 10//35
f 10//36 8//36 5//36
f 5//37 10//37 9//37
f 9//38 10//38 5//38
f 4//24 10//30 9//25
f 9//26 10//31 4//27
f 10//39 8//39 7//39
f 7//40 8//40 10//40
