# SSTK version 0.8.0
# 35
mtllib original-35.mtl
o mesh35/mesh35-geometry#mesh35-geometry
v -0.094448 -0.034687 -0.174518
v -0.097769 0.043708 -0.163391
v -0.102770 -0.038912 -0.181085
v 0.001324 -0.005210 -0.162834
v 0.010836 0.056441 -0.173719
v 0.119120 0.058126 -0.163493
v 0.039805 0.011843 -0.161579
v 0.112181 -0.026478 -0.175748
vn -0.3342749485158121 -0.1463029774667829 0.9310508566018858
vn -0.5689797630450132 -0.13913594205601418 0.8104956624642886
vn 0.5689797630450132 0.13913594205601418 -0.8104956624642886
vn 0.3342749485158121 0.1463029774667829 -0.9310508566018858
vn -0.07628102834264089 -0.1432780532357586 0.9867383666281353
vn 0.07628102834264089 0.1432780532357586 -0.9867383666281353
vn 0.10527097045833807 0.20215294327083824 -0.973679726761165
vn -0.10527097045833807 -0.20215294327083824 0.973679726761165
vn 0.2514700387636066 -0.9271401429168098 0.2778020428226326
vn -0.2514700387636066 0.9271401429168098 -0.2778020428226326
vn 0.07454503459240769 0.16221607527590054 0.9839354565924028
vn -0.07454503459240769 -0.16221607527590054 -0.9839354565924028
vn -0.09524096018962029 0.18730592170679664 0.977673591335946
vn 0.09524096018962029 -0.18730592170679664 -0.977673591335946
vn -0.1926449805804237 0.3677589629280596 0.9097479082928667
vn 0.1926449805804237 -0.3677589629280596 -0.9097479082928667
vn 0.11207106527407386 -0.15144708820803476 0.9820915720041802
vn -0.11207106527407386 0.15144708820803476 -0.9820915720041802
usemtl material_0_0
f 1//1 2//1 3//2
f 3//3 2//4 1//4
f 4//5 2//1 1//1
f 1//4 2//4 4//6
f 4//7 3//7 2//7
f 2//8 3//8 4//8
f 4//9 1//9 3//9
f 3//10 1//10 4//10
f 5//11 2//11 4//11
f 4//12 2//12 5//12
f 5//12 4//12 2//12
f 2//11 4//11 5//11
f 6//13 5//13 4//13
f 4//14 5//14 6//14
f 6//14 4//14 5//14
f 5//13 4//13 6//13
f 6//15 4//15 7//15
f 7//16 4//16 6//16
f 6//17 7//17 8//17
f 8//18 7//18 6//18
f 6//18 8//18 7//18
f 7//17 8//17 6//17
