# SSTK version 0.8.0
# 20
mtllib original-20.mtl
o mesh20/mesh20-geometry#mesh20-geometry
v -0.260189 -0.623042 -0.280454
v -0.279495 -0.634718 -0.310053
v -0.232661 -0.635795 -0.310830
v -0.262520 -0.669271 -0.327931
v -0.275016 -0.616088 -0.322691
v -0.247671 -0.631836 -0.328668
vn -0.015083999852523736 -0.9267429909392338 0.3753929963297827
vn 0.015083999852523736 0.9267429909392338 -0.3753929963297827
vn 0.004229998543711157 -0.45790184235518355 0.8889926939407596
vn -0.004229998543711157 0.45790184235518355 -0.8889926939407596
vn 0.8436800435284074 0.14737300760348945 0.5162220266337018
vn -0.8436800435284074 -0.14737300760348945 -0.5162220266337018
vn 0.18371691347945857 -0.05354897478138401 0.9815195377583902
vn -0.18371691347945857 0.05354897478138401 -0.9815195377583902
usemtl material_0_0
f 1//1 2//1 3//1
f 3//2 2//2 1//2
f 3//3 2//3 4//3
f 4//4 2//4 3//4
f 5//5 2//5 4//5
f 4//6 2//6 5//6
f 6//7 5//7 4//7
f 4//8 5//8 6//8
