# SSTK version 0.8.0
# 46
mtllib original-46.mtl
o mesh46/mesh46-geometry#mesh46-geometry
v -0.307191 -0.102493 0.291303
v -0.325215 -0.136195 0.379616
v -0.322854 -0.121285 0.296211
v -0.298103 -0.113738 0.379024
v -0.323807 -0.151638 0.301285
v -0.296797 -0.092986 -0.028830
v -0.288453 -0.096872 0.290766
v -0.305610 -0.153109 0.412646
v -0.325688 -0.175396 0.382595
v -0.309876 -0.114961 -0.024954
v -0.280613 -0.091842 0.071776
v -0.142487 -0.133648 0.393796
v -0.262959 -0.138909 0.421806
v -0.319434 -0.188139 0.383206
v -0.309453 -0.140912 -0.027031
v -0.268420 -0.083700 -0.044539
v -0.296786 -0.104238 -0.058215
v -0.210065 -0.105665 0.255061
v -0.162086 -0.116391 0.322203
v -0.294974 -0.197877 0.423236
v -0.267285 -0.174876 0.436013
v -0.261601 -0.090711 -0.074555
v -0.156525 -0.114288 0.041697
v -0.092469 -0.156417 0.422896
v -0.035699 -0.137438 0.391731
v -0.016274 -0.189226 0.437310
v -0.261900 -0.221386 0.434026
v -0.279279 -0.135815 -0.086166
v -0.141440 -0.102574 -0.104259
v -0.269613 -0.111826 -0.085921
v -0.091510 -0.116350 0.252647
v 0.088785 -0.146873 0.410255
v -0.027296 -0.123574 0.320978
v -0.260317 -0.221254 0.421854
v -0.175238 -0.119013 -0.118637
v -0.018950 -0.113181 -0.111349
v -0.023348 -0.125320 0.053167
v 0.097011 -0.164443 0.428687
v 0.132166 -0.133936 0.389358
v 0.165549 -0.229504 0.435232
v -0.098412 -0.232530 0.423209
v -0.007989 -0.124077 -0.141137
v 0.047356 -0.119264 0.255516
v 0.275327 -0.176075 0.436417
v 0.274327 -0.152572 0.429163
v 0.140895 -0.119675 0.321790
v 0.296794 -0.126237 0.405432
v -0.090242 -0.230587 0.434203
v -0.099943 -0.167003 -0.137993
v -0.087696 -0.136164 -0.139185
v 0.114608 -0.108124 -0.105721
v 0.076983 -0.123194 0.047013
v 0.314598 -0.112390 0.374967
v 0.041504 -0.236419 0.429869
v 0.277983 -0.216662 0.434556
v 0.045653 -0.172540 -0.145357
v 0.278414 -0.083891 -0.060607
v 0.190480 -0.109883 0.251820
v 0.316105 -0.163920 0.421775
v 0.307286 -0.101936 0.322716
v 0.342732 -0.134921 0.377994
v 0.287195 -0.221244 0.426578
v 0.085133 -0.233342 0.423633
v 0.117745 -0.130353 -0.136444
v 0.177371 -0.113249 0.036171
v 0.204846 -0.112308 -0.113242
v 0.332034 -0.108970 0.298987
v 0.313955 -0.196426 0.421327
v 0.187019 -0.154423 -0.122291
v 0.296078 -0.091414 0.056378
v 0.297817 -0.104011 -0.077913
v 0.302391 -0.094881 0.244316
v 0.342979 -0.183703 0.379893
v 0.325040 -0.108694 -0.032707
v 0.276562 -0.220924 0.421755
v 0.309380 -0.091522 -0.025777
v 0.291483 -0.136575 -0.084340
v 0.331039 -0.142899 0.070506
v 0.320540 -0.133383 -0.048831
v 0.339442 -0.151774 0.306416
vn 0.508061908156387 -0.8579738449019372 -0.07585498628750574
vn 0.8827460984050094 -0.39589404413268686 -0.2530360282074458
vn 0.9211054154098856 -0.38931317557658335 -0.0002550001150026553
vn -0.9211054154098856 0.38931317557658335 0.0002550001150026553
vn -0.8827460984050094 0.39589404413268686 0.2530360282074458
vn -0.508061908156387 0.8579738449019372 0.07585498628750574
vn 0.28565180799177486 -0.8680114165437541 -0.4061517269946485
vn -0.28565180799177486 0.8680114165437541 0.4061517269946485
vn 0.9952111135919103 0.07980900910928113 0.05643900644186392
vn -0.9952111135919103 -0.07980900910928113 -0.05643900644186392
vn 0.5930652864298452 -0.7965613847113621 0.11731805666052893
vn -0.5930652864298452 0.7965613847113621 -0.11731805666052893
vn 0.017181991867095077 -0.9936245296788702 -0.11142294725918606
vn -0.017181991867095077 0.9936245296788702 0.11142294725918606
vn 0.5935128152400829 -0.3104229033656757 -0.7425497688450355
vn -0.5935128152400829 0.3104229033656757 0.7425497688450355
vn 0.9402265234853266 0.17669791044801972 -0.291121852457008
vn -0.9402265234853266 -0.17669791044801972 0.291121852457008
vn 0.9679827907986139 -0.21078295444538203 0.13630797054098828
vn -0.9679827907986139 0.21078295444538203 -0.13630797054098828
vn 0.04891697636799431 -0.9982655177335528 -0.032757984174474265
vn -0.04891697636799431 0.9982655177335528 0.032757984174474265
vn -0.06344997872421052 -0.9317836875580735 -0.35742588014940374
vn 0.06344997872421052 0.9317836875580735 0.35742588014940374
vn 0.08125800718621469 -0.63827105644678 -0.7655110676995053
vn -0.08125800718621469 0.63827105644678 0.7655110676995053
vn 0.7405236939505068 0.6644397253950916 -0.10071995837365845
vn -0.7405236939505068 -0.6644397253950916 0.10071995837365845
vn 0.9555134209926174 0.028307012471874293 0.293586129352022
vn -0.9555134209926174 -0.028307012471874293 -0.293586129352022
vn 0.06373600650349497 -0.9960621016361899 0.061628006288398825
vn -0.06373600650349497 0.9960621016361899 -0.061628006288398825
vn 0.7863166928592555 -0.3749348535478503 0.491049808192545
vn -0.7863166928592555 0.3749348535478503 -0.491049808192545
vn -0.12446096652933906 -0.991659733317942 -0.03347299099827711
vn 0.12446096652933906 0.991659733317942 0.03347299099827711
vn -0.07931600233978243 -0.9869680291150638 -0.14001100413025466
vn 0.07931600233978243 0.9869680291150638 0.14001100413025466
vn 0.6928031206298507 0.26967304695507055 -0.6688051164513539
vn -0.6928031206298507 -0.26967304695507055 0.6688051164513539
vn 0.2389600470490873 -0.1489770293322392 -0.9595331889234678
vn -0.2389600470490873 0.1489770293322392 0.9595331889234678
vn 0.3035729550217236 -0.7951388821898466 0.5249739222182946
vn -0.3035729550217236 0.7951388821898466 -0.5249739222182946
vn -0.13018602537325882 -0.9904101930309654 -0.04625200901451744
vn 0.13018602537325882 0.9904101930309654 0.04625200901451744
vn -0.026190010268777663 -0.6652902608520462 -0.746125292546458
vn 0.026190010268777663 0.6652902608520462 0.746125292546458
vn -0.020850991446476768 -0.9616406055144292 -0.2735188877966946
vn 0.020850991446476768 0.9616406055144292 0.2735188877966946
vn -0.0038500010262544847 -0.2163410576677718 -0.9763102602448093
vn 0.0038500010262544847 0.2163410576677718 0.9763102602448093
vn 0.3086849966854948 0.9477829898231802 -0.08013099913959339
vn -0.3086849966854948 -0.9477829898231802 0.08013099913959339
vn 0.5707128682187044 -0.0682099842498731 0.8183118110465057
vn -0.5707128682187044 0.0682099842498731 -0.8183118110465057
vn -0.041104988226649306 -0.9534467269123974 0.29874691443247287
vn 0.041104988226649306 0.9534467269123974 -0.29874691443247287
vn 0.4462060379614265 -0.38449403271121574 0.8081240687519662
vn -0.4462060379614265 0.38449403271121574 -0.8081240687519662
vn -0.05995101159974251 -0.997825193066222 -0.027400005301545346
vn 0.05995101159974251 0.997825193066222 0.027400005301545346
vn 0.020956995284037404 -0.8260658141100177 -0.5631838732664657
vn -0.020956995284037404 0.8260658141100177 0.5631838732664657
vn -0.010345998922247003 -0.991550896709157 -0.12930498653017097
vn 0.010345998922247003 0.991550896709157 0.12930498653017097
vn 0.09534599363293779 0.06251999582500861 -0.9934789336569694
vn -0.09534599363293779 -0.06251999582500861 0.9934789336569694
vn 0.2666051231222733 0.9627474446113137 0.04515602085373258
vn -0.2666051231222733 -0.9627474446113137 -0.04515602085373258
vn 0.2007439886198236 -0.40333797713477065 0.8927599493894398
vn -0.2007439886198236 0.40333797713477065 -0.8927599493894398
vn -0.02576700306995823 -0.9979211188953229 0.05907200703801655
vn 0.02576700306995823 0.9979211188953229 -0.05907200703801655
vn -0.028532005477631996 -0.9994861918833764 -0.014604002803705935
vn 0.028532005477631996 0.9994861918833764 0.014604002803705935
vn 0.018234007806126284 -0.5118482191263642 -0.8588823676944913
vn -0.018234007806126284 0.5118482191263642 0.8588823676944913
vn 0.052726001576507475 -0.9479180283427495 -0.3141200093921884
vn -0.052726001576507475 0.9479180283427495 0.3141200093921884
vn -0.0014510002635749473 0.16553303006916043 -0.9862031791443169
vn 0.0014510002635749473 -0.16553303006916043 0.9862031791443169
vn 0.04198798971174712 0.9989677552244594 0.017332995752922572
vn -0.04198798971174712 -0.9989677552244594 -0.017332995752922572
vn 0.005008000524753347 -0.6663110698180765 0.7456570781321897
vn -0.005008000524753347 0.6663110698180765 -0.7456570781321897
vn 0.022349998610444753 -0.9995019378584677 -0.022278998614859002
vn -0.022349998610444753 0.9995019378584677 0.022278998614859002
vn -0.09696903338111064 -0.1508950519448761 -0.9837823386622094
vn 0.09696903338111064 0.1508950519448761 0.9837823386622094
vn -0.08286300038407002 -0.5160450023918687 -0.8525440039515415
vn 0.08286300038407002 0.5160450023918687 0.8525440039515415
vn 0.0703399841738922 -0.9884417776060614 -0.1342949697843738
vn -0.0703399841738922 0.9884417776060614 0.1342949697843738
vn -0.18484509966970608 -0.7532894061786536 -0.6311793403360947
vn 0.18484509966970608 0.7532894061786536 0.6311793403360947
vn 0.0023209996699527103 0.34400795108190085 -0.9389638664788783
vn -0.0023209996699527103 -0.34400795108190085 0.9389638664788783
vn 0.044639998074743885 0.9775509578396945 -0.20591599111915238
vn -0.044639998074743885 -0.9775509578396945 0.20591599111915238
vn 0.18711095242358486 0.01164599703879018 0.9822697502397758
vn -0.18711095242358486 -0.01164599703879018 -0.9822697502397758
vn 0.10320201158086598 -0.1535740172333861 0.9827331102778935
vn -0.10320201158086598 0.1535740172333861 -0.9827331102778935
vn 0.08376200878391293 -0.9963101044805556 0.018711001962176104
vn -0.08376200878391293 0.9963101044805556 -0.018711001962176104
vn 0.05617397754105844 -0.997982600996157 -0.02958398817201326
vn -0.05617397754105844 0.997982600996157 0.02958398817201326
vn -0.20933495834674348 -0.9321978145122296 -0.2952729412468913
vn 0.20933495834674348 0.9321978145122296 0.2952729412468913
vn 0.0006359999675764044 0.6056919691215213 -0.7956989594348702
vn -0.0006359999675764044 -0.6056919691215213 0.7956989594348702
vn -0.2841298619946079 0.27821286486856667 -0.9175335543425917
vn 0.2841298619946079 -0.27821286486856667 0.9175335543425917
vn -0.02084100961592943 0.9935914584377401 0.11109305125773468
vn 0.02084100961592943 -0.9935914584377401 -0.11109305125773468
vn -0.03306198648827972 -0.02081199149458827 0.999236591633572
vn 0.03306198648827972 0.02081199149458827 -0.999236591633572
vn 0.29513103669143054 -0.5764870716703184 -0.7619450947269248
vn -0.29513103669143054 0.5764870716703184 0.7619450947269248
vn 0.09912297793537625 -0.9944577786352148 -0.035047992198370376
vn -0.09912297793537625 0.9944577786352148 0.035047992198370376
vn -0.5254270171000225 -0.19244100626299265 -0.8287900269729719
vn 0.5254270171000225 0.19244100626299265 0.8287900269729719
vn -0.07748496133621495 -0.9902295058909484 -0.11593794214877834
vn 0.07748496133621495 0.9902295058909484 0.11593794214877834
vn -0.8702350905074999 -0.39013204057509976 -0.30081203128550577
vn 0.8702350905074999 0.39013204057509976 0.30081203128550577
vn -0.0598950251844858 0.9926144173716202 0.10549504435824911
vn -0.09375594655795376 0.97230744577276 0.2140748779746784
vn 0.09375594655795376 -0.97230744577276 -0.2140748779746784
vn 0.0598950251844858 -0.9926144173716202 -0.10549504435824911
vn -0.09611801147005135 0.8111830968009184 -0.5768390688359407
vn -0.4581998886425491 0.6680468376429267 -0.5863158575062086
vn 0.4581998886425491 -0.6680468376429267 0.5863158575062086
vn 0.09611801147005135 -0.8111830968009184 0.5768390688359407
vn -0.04033298584606876 0.9685016601266775 0.24571891377061386
vn 0.04033298584606876 -0.9685016601266775 -0.24571891377061386
vn -0.13409497888131638 -0.21580996601198324 0.9671838476777442
vn 0.13409497888131638 0.21580996601198324 -0.9671838476777442
vn 0.1468180411909818 -0.9879882771880539 -0.04820401352402352
vn -0.1468180411909818 0.9879882771880539 0.04820401352402352
vn -0.10411302337915465 -0.9696382177376193 0.22127404968831046
vn 0.10411302337915465 0.9696382177376193 -0.22127404968831046
vn -0.21254403852605475 -0.46481008425218073 0.8595211557981082
vn 0.21254403852605475 0.46481008425218073 -0.8595211557981082
vn -0.5959647686331125 -0.800597689190024 -0.06220397585102168
vn 0.5959647686331125 0.800597689190024 0.06220397585102168
vn -0.6468639398461844 0.3133889708570207 -0.6952369353478346
vn 0.6468639398461844 -0.3133889708570207 0.6952369353478346
vn -0.2472089890009307 -0.02856799872892406 0.9685409569067082
vn 0.2472089890009307 0.02856799872892406 -0.9685409569067082
vn 0.018895999541620846 -0.9989579757672775 -0.041543998992225675
vn -0.018895999541620846 0.9989579757672775 0.041543998992225675
vn -0.6252327435752232 -0.4669708084827025 0.6253177435403624
vn 0.6252327435752232 0.4669708084827025 -0.6253177435403624
vn -0.06551900916024607 -0.997173139415285 -0.036783005142650704
vn 0.06551900916024607 0.997173139415285 0.036783005142650704
vn -0.9303012956804986 0.011778003743438856 -0.3666071165198581
vn 0.9303012956804986 -0.011778003743438856 0.3666071165198581
vn -0.9282850184255296 -0.3276860065042396 0.17580900348963296
vn 0.9282850184255296 0.3276860065042396 -0.17580900348963296
vn -0.12596706695819013 0.9321624954939026 0.33941918041933156
vn 0.12596706695819013 -0.9321624954939026 -0.33941918041933156
vn -0.6827110194965202 0.6790900193931135 -0.26970800770218656
vn 0.6827110194965202 -0.6790900193931135 0.26970800770218656
vn -0.4568198240581628 -0.8840786595015903 0.09859296202742096
vn 0.4568198240581628 0.8840786595015903 -0.09859296202742096
vn -0.5002431622754064 -0.0528060171299051 0.8642732803642477
vn 0.5002431622754064 0.0528060171299051 -0.8642732803642477
vn -0.9981248073205086 0.019246996284531324 0.0581069887829408
vn 0.9981248073205086 -0.019246996284531324 -0.0581069887829408
vn -0.18724501232128396 0.8626250567633186 0.4699120309216224
vn 0.18724501232128396 -0.8626250567633186 -0.4699120309216224
vn -0.9057251502430589 -0.008706001444164698 0.42377607029661596
vn 0.9057251502430589 0.008706001444164698 -0.42377607029661596
vn 0.9989116209051205 0.03150598804322776 -0.03439398694720928
vn -0.9989116209051205 -0.03150598804322776 0.03439398694720928
vn 0.6268320728247275 0.7791230905177468 0.006983000811278097
vn -0.6268320728247275 -0.7791230905177468 -0.006983000811278097
usemtl material_0_0
f 1//1 2//2 3//3
f 3//4 2//5 1//6
f 2//2 1//1 4//7
f 4//8 1//6 2//5
f 3//3 2//2 5//9
f 5//10 2//5 3//4
f 6//11 1//1 3//3
f 3//4 1//6 6//12
f 4//7 1//1 7//13
f 7//14 1//6 4//8
f 8//15 2//2 4//7
f 4//8 2//5 8//16
f 2//2 9//17 5//9
f 5//10 9//18 2//5
f 10//19 3//3 5//9
f 5//10 3//4 10//20
f 1//1 6//11 11//21
f 11//22 6//12 1//6
f 6//11 3//3 10//19
f 10//20 3//4 6//12
f 1//1 11//21 7//13
f 7//14 11//22 1//6
f 12//23 4//7 7//13
f 7//14 4//8 12//24
f 2//2 8//15 9//17
f 9//18 8//16 2//5
f 13//25 8//15 4//7
f 4//8 8//16 13//26
f 5//9 9//17 14//27
f 14//28 9//18 5//10
f 10//19 5//9 15//29
f 15//30 5//10 10//20
f 11//21 6//11 16//31
f 16//32 6//12 11//22
f 6//11 10//19 17//33
f 17//34 10//20 6//12
f 7//13 11//21 18//35
f 18//36 11//22 7//14
f 13//25 4//7 12//23
f 12//24 4//8 13//26
f 12//23 7//13 19//37
f 19//38 7//14 12//24
f 8//15 20//39 9//17
f 9//18 20//40 8//16
f 13//25 21//41 8//15
f 8//16 21//42 13//26
f 9//17 20//39 14//27
f 14//28 20//40 9//18
f 17//33 10//19 15//29
f 15//30 10//20 17//34
f 6//11 22//43 16//31
f 16//32 22//44 6//12
f 11//21 16//31 23//45
f 23//46 16//32 11//22
f 6//11 17//33 22//43
f 22//44 17//34 6//12
f 18//35 11//21 23//45
f 23//46 11//22 18//36
f 19//37 7//13 18//35
f 18//36 7//14 19//38
f 24//47 13//25 12//23
f 12//24 13//26 24//48
f 12//23 19//37 25//49
f 25//50 19//38 12//24
f 21//41 20//39 8//15
f 8//16 20//40 21//42
f 26//51 21//41 13//25
f 13//26 21//42 26//52
f 27//53 14//27 20//39
f 20//40 14//28 27//54
f 17//33 15//29 28//55
f 28//56 15//30 17//34
f 16//31 22//43 29//57
f 29//58 22//44 16//32
f 23//45 16//31 29//57
f 29//58 16//32 23//46
f 22//43 17//33 30//59
f 30//60 17//34 22//44
f 18//35 23//45 31//61
f 31//62 23//46 18//36
f 19//37 18//35 31//61
f 31//62 18//36 19//38
f 26//51 13//25 24//47
f 24//48 13//26 26//52
f 24//47 12//23 32//63
f 32//64 12//24 24//48
f 25//49 19//37 33//65
f 33//66 19//38 25//50
f 32//63 12//23 25//49
f 25//50 12//24 32//64
f 27//67 20//39 21//41
f 21//42 20//40 27//68
f 26//51 27//67 21//41
f 21//42 27//68 26//52
f 27//53 34//69 14//27
f 14//28 34//70 27//54
f 30//59 17//33 28//55
f 28//56 17//34 30//60
f 22//43 35//71 29//57
f 29//58 35//72 22//44
f 23//45 29//57 36//73
f 36//74 29//58 23//46
f 35//71 22//43 30//59
f 30//60 22//44 35//72
f 31//61 23//45 37//75
f 37//76 23//46 31//62
f 19//37 31//61 33//65
f 33//66 31//62 19//38
f 38//77 26//51 24//47
f 24//48 26//52 38//78
f 38//77 24//47 32//63
f 32//64 24//48 38//78
f 25//49 33//65 39//79
f 39//80 33//66 25//50
f 32//63 25//49 39//79
f 39//80 25//50 32//64
f 40//81 27//67 26//51
f 26//52 27//68 40//82
f 27//53 41//83 34//69
f 34//70 41//84 27//54
f 35//71 30//59 28//55
f 28//56 30//60 35//72
f 29//57 35//71 42//85
f 42//86 35//72 29//58
f 29//57 42//85 36//73
f 36//74 42//86 29//58
f 37//75 23//45 36//73
f 36//74 23//46 37//76
f 43//87 31//61 37//75
f 37//76 31//62 43//88
f 33//65 31//61 43//87
f 43//88 31//62 33//66
f 44//89 26//51 38//77
f 38//78 26//52 44//90
f 45//91 38//77 32//63
f 32//64 38//78 45//92
f 39//79 33//65 46//93
f 46//94 33//66 39//80
f 32//63 39//79 47//95
f 47//96 39//80 32//64
f 40//81 48//97 27//67
f 27//68 48//98 40//82
f 44//89 40//81 26//51
f 26//52 40//82 44//90
f 48//99 41//83 27//53
f 27//54 41//84 48//100
f 49//101 35//71 28//55
f 28//56 35//72 49//102
f 42//85 35//71 50//103
f 50//104 35//72 42//86
f 51//105 36//73 42//85
f 42//86 36//74 51//106
f 37//75 36//73 52//107
f 52//108 36//74 37//76
f 43//87 37//75 52//107
f 52//108 37//76 43//88
f 46//93 33//65 43//87
f 43//88 33//66 46//94
f 44//89 38//77 45//91
f 45//92 38//78 44//90
f 47//95 45//91 32//63
f 32//64 45//92 47//96
f 39//79 46//93 53//109
f 53//110 46//94 39//80
f 47//95 39//79 53//109
f 53//110 39//80 47//96
f 40//81 54//111 48//97
f 48//98 54//112 40//82
f 55//113 40//81 44//89
f 44//90 40//82 55//114
f 48//99 54//115 41//83
f 41//84 54//116 48//100
f 50//103 35//71 49//101
f 49//102 35//72 50//104
f 56//117 42//85 50//103
f 50//104 42//86 56//118
f 52//107 36//73 51//105
f 51//106 36//74 52//108
f 57//119 51//119 42//119
f 42//120 51//120 57//120
f 43//87 52//107 58//121
f 58//122 52//108 43//88
f 46//93 43//87 58//121
f 58//122 43//88 46//94
f 59//123 44//89 45//91
f 45//92 44//90 59//124
f 59//123 45//91 47//95
f 47//96 45//92 59//124
f 53//109 46//93 60//125
f 60//126 46//94 53//110
f 47//95 53//109 61//127
f 61//128 53//110 47//96
f 40//129 62//130 54//115
f 54//116 62//131 40//132
f 40//133 55//113 62//134
f 62//135 55//114 40//136
f 59//123 55//113 44//89
f 44//90 55//114 59//124
f 54//115 63//137 41//83
f 41//84 63//138 54//116
f 56//117 50//103 49//101
f 49//102 50//104 56//118
f 64//139 42//85 56//117
f 56//118 42//86 64//140
f 52//107 51//105 65//141
f 65//142 51//106 52//108
f 65//141 51//105 57//143
f 57//144 51//106 65//142
f 57//143 42//85 66//145
f 66//146 42//86 57//144
f 58//121 52//107 65//141
f 65//142 52//108 58//122
f 60//125 46//93 58//121
f 58//122 46//94 60//126
f 61//127 59//123 47//95
f 47//96 59//124 61//128
f 53//109 60//125 67//147
f 67//148 60//126 53//110
f 61//127 53//109 67//147
f 67//148 53//110 61//128
f 54//115 62//130 63//137
f 63//138 62//131 54//116
f 68//149 62//134 55//113
f 55//114 62//135 68//150
f 59//123 68//149 55//113
f 55//114 68//150 59//124
f 66//145 42//85 64//139
f 64//140 42//86 66//146
f 69//151 64//139 56//117
f 56//118 64//140 69//152
f 70//153 65//141 57//143
f 57//144 65//142 70//154
f 57//143 66//145 71//155
f 71//156 66//146 57//144
f 58//121 65//141 72//157
f 72//158 65//142 58//122
f 60//125 58//121 72//157
f 72//158 58//122 60//126
f 61//127 73//159 59//123
f 59//124 73//160 61//128
f 60//125 72//157 67//147
f 67//148 72//158 60//126
f 74//161 61//127 67//147
f 67//148 61//128 74//162
f 62//130 75//163 63//137
f 63//138 75//164 62//131
f 73//165 62//134 68//149
f 68//150 62//135 73//166
f 59//123 73//159 68//149
f 68//150 73//160 59//124
f 66//145 64//139 69//151
f 69//152 64//140 66//146
f 72//157 65//141 70//153
f 70//154 65//142 72//158
f 70//153 57//143 76//167
f 76//168 57//144 70//154
f 71//155 66//145 77//169
f 77//170 66//146 71//156
f 76//167 57//143 71//155
f 71//156 57//144 76//168
f 61//127 78//171 73//159
f 73//160 78//172 61//128
f 67//147 72//157 76//167
f 76//168 72//158 67//148
f 74//161 78//171 61//127
f 61//128 78//172 74//162
f 76//167 74//161 67//147
f 67//148 74//162 76//168
f 62//130 73//173 75//163
f 75//164 73//174 62//131
f 77//169 66//145 69//151
f 69//152 66//146 77//170
f 72//157 70//153 76//167
f 76//168 70//154 72//158
f 71//155 77//169 79//175
f 79//176 77//170 71//156
f 76//167 71//155 74//161
f 74//162 71//156 76//168
f 78//177 80//177 73//177
f 73//178 80//178 78//178
f 74//161 79//175 78//171
f 78//172 79//176 74//162
f 71//155 79//175 74//161
f 74//162 79//176 71//156
f 80//179 78//179 79//179
f 79//180 78//180 80//180
