# SSTK version 0.8.0
# 7
mtllib original-7.mtl
o mesh7/mesh7-geometry#mesh7-geometry
v -0.429509 0.153411 0.254227
v -0.310887 0.165845 0.162322
v -0.434672 0.167285 0.145418
v -0.312326 0.154138 0.261585
v -0.307408 0.166076 -0.046483
v -0.445564 0.139221 0.124253
v -0.302560 0.128954 0.260054
v -0.333473 0.145300 0.273212
v -0.302231 0.138847 0.160535
v -0.424286 0.165244 -0.035198
v -0.433357 0.127629 0.266193
v -0.438568 0.161518 0.082034
v -0.325641 0.125038 0.277933
v -0.301271 0.135400 -0.050605
v -0.325648 0.159524 -0.057765
v -0.441217 0.135451 0.122380
v -0.431296 0.138114 -0.037745
v -0.322630 0.137434 -0.059990
vn -0.009635997444201376 0.9925027367540679 0.12184196768331092
vn -0.002609998942135018 0.9966455960471637 0.08179696684667359
vn 0.8499189245263529 0.5266549532325155 0.01650399853442849
vn -0.8499189245263529 -0.5266549532325155 -0.01650399853442849
vn 0.002609998942135018 -0.9966455960471637 -0.08179696684667359
vn 0.009635997444201376 -0.9925027367540679 -0.12184196768331092
vn -0.013500996511808737 0.993048743430498 0.1169269697901089
vn 0.013500996511808737 -0.993048743430498 -0.1169269697901089
vn 0.04399900145788494 0.9306830308377174 0.3631710120334901
vn -0.04399900145788494 -0.9306830308377174 -0.3631710120334901
vn 0.9641634444939128 -0.24887511473518747 -0.09192404237837218
vn 0.9683678526028038 -0.24762996230775106 -0.03070999532557055
vn -0.9683678526028038 0.24762996230775106 0.03070999532557055
vn -0.9641634444939128 0.24887511473518747 0.09192404237837218
vn -0.9460926450384052 -0.32198887919398106 -0.03509798683169408
vn -0.9734446095913566 -0.22674190906313493 -0.03152298735742475
vn -0.9320411709125994 -0.3580390656552407 -0.055743010221847564
vn 0.9320411709125994 0.3580390656552407 0.055743010221847564
vn 0.9734446095913566 0.22674190906313493 0.03152298735742475
vn 0.9460926450384052 0.32198887919398106 0.03509798683169408
vn 0.04013999258947568 -0.8293048468962413 -0.5573528971031898
vn -0.04013999258947568 0.8293048468962413 0.5573528971031898
vn -0.968066523617001 -0.2505408767094912 -0.008744995696610537
vn -0.978652173477857 -0.20505403634829183 -0.013884002461106265
vn 0.978652173477857 0.20505403634829183 0.013884002461106265
vn 0.968066523617001 0.2505408767094912 0.008744995696610537
vn 0.5676282524555596 -0.6908593072631996 0.44778519915475057
vn -0.5676282524555596 0.6908593072631996 -0.44778519915475057
vn 0.9763303204043267 -0.19196606299789717 -0.09964003269907419
vn -0.9763303204043267 0.19196606299789717 0.09964003269907419
vn 0.9077432087514604 -0.4157960956195996 0.055820012836790285
vn -0.9077432087514604 0.4157960956195996 -0.055820012836790285
vn -0.5835430955849504 -0.17810702917411186 -0.7923101297812022
vn -0.287949954450784 -0.2458049611174682 -0.9255618535904725
vn -0.4680000980694309 -0.26030405454672034 -0.8445221769696408
vn 0.4680000980694309 0.26030405454672034 0.8445221769696408
vn 0.287949954450784 0.2458049611174682 0.9255618535904725
vn 0.5835430955849504 0.17810702917411186 0.7923101297812022
vn 0.1393149756056016 -0.43390192402269495 -0.8901238441371032
vn -0.1393149756056016 0.43390192402269495 0.8901238441371032
vn -0.12349999552775648 -0.27021999021465876 -0.9548449654226773
vn 0.12349999552775648 0.27021999021465876 0.9548449654226773
vn -0.9945968925288386 -0.10377398878670226 -0.0028249996947446745
vn 0.9945968925288386 0.10377398878670226 0.0028249996947446745
vn 0.048980999156106375 -0.8960789845614554 0.44118399239884115
vn -0.048980999156106375 0.8960789845614554 -0.44118399239884115
vn 0.6564136180277754 0.7543835610182985 0.005157996998521155
vn 0.6620777942586953 0.7488567672920468 0.029436990852427073
vn -0.6620777942586953 -0.7488567672920468 -0.029436990852427073
vn -0.6564136180277754 -0.7543835610182985 -0.005157996998521155
vn 0.9746265865352256 -0.20102491471941955 0.09844795823552997
vn -0.9746265865352256 0.20102491471941955 -0.09844795823552997
vn 0.10193799966763116 -0.18820099938637067 -0.9768259968150589
vn -0.10193799966763116 0.18820099938637067 0.9768259968150589
vn -0.43493117373307466 -0.17744807088155737 0.8828063526366268
vn -0.45942103658163125 -0.20791201655509894 0.8635420687599717
vn -0.12088204455483308 -0.15120505573132093 0.9810833616087532
vn 0.12088204455483308 0.15120505573132093 -0.9810833616087532
vn 0.45942103658163125 0.20791201655509894 -0.8635420687599717
vn 0.43493117373307466 0.17744807088155737 -0.8828063526366268
vn 0.2126169216146403 -0.14566894629631233 0.9662166437854588
vn 0.20626702075572317 -0.1084960109174659 0.9724620978544899
vn -0.20626702075572317 0.1084960109174659 -0.9724620978544899
vn -0.2126169216146403 0.14566894629631233 -0.9662166437854588
vn 0.9599399751481144 -0.25824699331424367 0.10873699718490792
vn -0.9599399751481144 0.25824699331424367 -0.10873699718490792
vn 0.6673104153374683 0.7428414623483842 0.05369703342131249
vn -0.6673104153374683 -0.7428414623483842 -0.05369703342131249
vn -0.11041602098694074 -0.11452402176775468 0.987265187650993
vn 0.11041602098694074 0.11452402176775468 -0.987265187650993
usemtl material_0_0
f 1//1 2//2 3//3
f 3//4 2//5 1//6
f 4//7 2//2 1//1
f 1//6 2//5 4//8
f 2//2 5//9 3//3
f 3//4 5//10 2//5
f 3//3 1//11 6//12
f 6//13 1//14 3//4
f 2//15 7//16 4//17
f 4//18 7//19 2//20
f 8//21 1//21 4//21
f 4//22 1//22 8//22
f 8//21 1//21 4//21
f 4//22 1//22 8//22
f 5//23 9//24 2//15
f 2//20 9//25 5//26
f 3//3 5//9 10//27
f 10//28 5//10 3//4
f 1//11 11//29 6//12
f 6//13 11//30 1//14
f 3//3 6//12 12//31
f 12//32 6//13 3//4
f 2//15 9//24 7//16
f 7//19 9//25 2//20
f 7//33 13//34 4//35
f 4//36 13//37 7//38
f 8//39 11//39 1//39
f 1//40 11//40 8//40
f 8//39 11//39 1//39
f 1//40 11//40 8//40
f 4//35 13//34 8//41
f 8//42 13//37 4//36
f 5//23 14//43 9//24
f 9//25 14//44 5//26
f 10//27 15//45 5//9
f 5//10 15//46 10//28
f 3//3 12//31 10//27
f 10//28 12//32 3//4
f 11//47 16//48 6//48
f 6//49 16//49 11//50
f 12//31 6//12 17//51
f 17//52 6//13 12//32
f 9//24 14//43 7//16
f 7//19 14//44 9//25
f 13//34 11//53 8//41
f 8//42 11//54 13//37
f 14//55 5//56 15//57
f 15//58 5//59 14//60
f 15//57 10//61 17//62
f 17//63 10//64 15//58
f 10//65 12//31 17//51
f 17//52 12//32 10//66
f 6//48 16//48 17//67
f 17//68 16//49 6//49
f 14//55 15//57 18//69
f 18//70 15//58 14//60
f 18//69 15//57 17//62
f 17//63 15//58 18//70
