# SSTK version 0.8.0
# 24
mtllib original-24.mtl
o mesh24/mesh24-geometry#mesh24-geometry
v -0.004738 -0.674682 0.494913
v -0.004606 -0.649158 0.574303
v -0.004768 -0.705070 0.522431
v -0.004599 -0.627275 0.515105
v -0.005184 -0.696481 0.562583
v -0.020305 -0.677741 0.495762
v -0.023157 -0.634571 0.508876
v -0.018442 -0.625261 0.543301
v -0.024238 -0.662019 0.576188
v -0.024927 -0.706599 0.535704
vn 0.9999970628703173 -0.002261000142150214 -0.0008730000548859517
vn 0.9999396583956726 -0.008924996950998437 0.006404997811892996
vn -0.9999396583956726 0.008924996950998437 -0.006404997811892996
vn -0.9999970628703173 0.002261000142150214 0.0008730000548859517
vn 0.9997848854781473 -0.015587998214449464 0.013681998432775056
vn -0.9997848854781473 0.015587998214449464 -0.013681998432775056
vn -0.09107903322390686 0.6684942438540432 0.7381192692519342
vn 0.11957801768678591 0.7273801075867997 0.675736099948134
vn -0.11957801768678591 -0.7273801075867997 -0.675736099948134
vn 0.09107903322390686 -0.6684942438540432 -0.7381192692519342
vn -0.15312596143699242 -0.38685090257606125 0.9093397709932649
vn -0.023052012452135718 -0.33808418262484174 0.9408335082153481
vn 0.023052012452135718 0.33808418262484174 -0.9408335082153481
vn 0.15312596143699242 0.38685090257606125 -0.9093397709932649
vn -0.6444751238233396 -0.7171671377896939 -0.2651850509501413
vn 0.6444751238233396 0.7171671377896939 0.2651850509501413
vn -0.2448488869442356 0.23591189107077631 -0.940422565772206
vn 0.2448488869442356 -0.23591189107077631 0.940422565772206
vn -0.20856310196881966 0.9559284673640571 -0.20664510103108769
vn 0.20856310196881966 -0.9559284673640571 0.20664510103108769
vn 0.10748904882535291 -0.28245812830253825 0.9532384329948346
vn -0.10748904882535291 0.28245812830253825 -0.9532384329948346
vn 0.3240480661874724 0.7486341529100387 0.5783941181381674
vn -0.3240480661874724 -0.7486341529100387 -0.5783941181381674
vn 0.2953009150072411 -0.9316967318414145 0.2115149391223078
vn -0.2953009150072411 0.9316967318414145 -0.2115149391223078
vn 0.36351004922653424 -0.6523420883401716 -0.6650640900629853
vn -0.36351004922653424 0.6523420883401716 0.6650640900629853
vn 0.5584779524852562 0.552934952956849 -0.6183569473908115
vn -0.5584779524852562 -0.552934952956849 0.6183569473908115
vn 0.9971006444269939 -0.07277697404722623 0.022221992075483483
vn 0.9975371993847626 0.001606000321002558 0.07012101401557931
vn 0.9908239924122699 0.02511799980764636 0.13280399898298698
vn -0.9908239924122699 -0.02511799980764636 -0.13280399898298698
vn -0.9975371993847626 -0.001606000321002558 -0.07012101401557931
vn -0.9971006444269939 0.07277697404722623 -0.022221992075483483
vn 0.9728117458461549 -0.21949694265489475 -0.07388098069807915
vn 0.9920344335781683 -0.1214100530634287 -0.03357501467428234
vn -0.9920344335781683 0.1214100530634287 0.03357501467428234
vn -0.9728117458461549 0.21949694265489475 0.07388098069807915
usemtl material_0_0
f 1//1 2//2 3//2
f 2//2 1//1 4//1
f 3//3 2//3 1//4
f 4//4 1//4 2//3
f 2//2 5//5 3//2
f 3//3 5//6 2//3
f 1//7 6//8 3//8
f 3//9 6//9 1//10
f 4//11 7//12 1//12
f 1//13 7//13 4//14
f 2//15 8//15 4//15
f 4//16 8//16 2//16
f 2//17 5//17 9//17
f 9//18 5//18 2//18
f 5//19 3//19 10//19
f 10//20 3//20 5//20
f 1//12 7//12 6//21
f 6//22 7//13 1//13
f 10//23 3//8 6//8
f 6//9 3//9 10//24
f 8//25 7//25 4//25
f 4//26 7//26 8//26
f 2//27 9//27 8//27
f 8//28 9//28 2//28
f 5//29 10//29 9//29
f 9//30 10//30 5//30
f 7//31 10//32 6//33
f 6//34 10//35 7//36
f 8//37 9//38 7//31
f 7//36 9//39 8//40
f 7//31 9//38 10//32
f 10//35 9//39 7//36
