# SSTK version 0.8.0
# 21
mtllib original-21.mtl
o mesh21/mesh21-geometry#mesh21-geometry
v -0.432814 -0.625992 0.223867
v -0.432733 -0.674678 0.183692
v -0.438078 -0.635388 0.194172
v -0.432553 -0.647364 0.262573
v -0.451732 -0.659748 0.186326
v -0.451586 -0.627026 0.218386
v -0.451019 -0.640474 0.255402
v -0.432760 -0.705070 0.211211
v -0.450798 -0.694831 0.196762
v -0.446454 -0.674215 0.264543
v -0.433177 -0.696482 0.251360
v -0.452523 -0.702035 0.241212
vn 0.988037769168715 0.09913197684019548 -0.11812797240223753
vn 0.9947220083273154 0.06526200054634085 -0.07917700066283026
vn 0.9543286207260233 0.19109992405212778 -0.22964690873259544
vn -0.9543286207260233 -0.19109992405212778 0.22964690873259544
vn -0.9947220083273154 -0.06526200054634085 0.07917700066283026
vn -0.988037769168715 -0.09913197684019548 0.11812797240223753
vn 0.9999865862561353 -0.004380998187364565 0.0027629988568108406
vn -0.9999865862561353 0.004380998187364565 -0.0027629988568108406
vn 0.021457001767520592 0.24962402056277955 0.9681050797476591
vn -0.07636496266506433 -0.2666528696330439 0.9607625302818726
vn 0.14126296344213862 0.005143998668769324 0.9899587438056399
vn -0.14126296344213862 -0.005143998668769324 -0.9899587438056399
vn 0.07636496266506433 0.2666528696330439 -0.9607625302818726
vn -0.021457001767520592 -0.24962402056277955 -0.9681050797476591
vn -0.009010995626018729 -0.9831445227768487 -0.18260791136122828
vn 0.05993501483880271 -0.9980562471002933 -0.0170740042272081
vn -0.03742698022147425 -0.9508214975323319 0.30746983751560875
vn 0.03742698022147425 0.9508214975323319 -0.30746983751560875
vn -0.05993501483880271 0.9980562471002933 0.0170740042272081
vn 0.009010995626018729 0.9831445227768487 0.18260791136122828
vn -0.13803005279892083 -0.867433331808493 -0.47802418285265036
vn 0.0062089993949609795 -0.9100969113151559 -0.4143489596235605
vn -0.0062089993949609795 0.9100969113151559 0.4143489596235605
vn 0.13803005279892083 0.867433331808493 0.47802418285265036
vn 0.9999400393236427 -0.009062000356372233 0.006148000241776261
vn -0.9999400393236427 0.009062000356372233 -0.006148000241776261
vn 0.6443922913823388 -0.5366332426556795 0.5447782463387002
vn -0.6443922913823388 0.5366332426556795 -0.5447782463387002
vn 0.0711960059581804 0.4970310415950386 0.8648070723731126
vn -0.0711960059581804 -0.4970310415950386 -0.8648070723731126
vn 0.28276307486747204 -0.21499205692366946 -0.9347852475040576
vn -0.28276307486747204 0.21499205692366946 0.9347852475040576
vn 0.9997788685540819 -0.01586999791349216 0.013796998186039784
vn -0.9997788685540819 0.01586999791349216 -0.013796998186039784
vn -0.20800792375512553 0.6566257593151853 0.7249657342653086
vn 0.20800792375512553 -0.6566257593151853 -0.7249657342653086
vn 0.9998561152374232 -0.014940001721895057 -0.008034000925950795
vn 0.9974991115792593 0.01434000160405833 -0.06920900774165083
vn 0.9995597384952155 0.014725996147385392 0.025757993261194684
vn -0.9995597384952155 -0.014725996147385392 -0.025757993261194684
vn -0.9974991115792593 -0.01434000160405833 0.06920900774165083
vn -0.9998561152374232 0.014940001721895057 0.008034000925950795
vn 0.9981741200479133 0.0400300048143089 0.045233005440060814
vn -0.9981741200479133 -0.0400300048143089 -0.045233005440060814
vn 0.9862762665347863 0.01381900373449644 -0.1645240444615596
vn -0.9862762665347863 -0.01381900373449644 0.1645240444615596
vn -0.5026268565970599 0.19846694337599985 -0.8414137599387985
vn 0.5026268565970599 -0.19846694337599985 0.8414137599387985
vn 0.9517888252296968 0.04662499143857999 -0.303189944327358
vn -0.9517888252296968 -0.04662499143857999 0.303189944327358
vn -0.16757005380666912 0.9636953094421317 -0.2078740667482696
vn 0.11568502362901553 0.9929902028212485 -0.024237004950481478
vn -0.11568502362901553 -0.9929902028212485 0.024237004950481478
vn 0.16757005380666912 -0.9636953094421317 0.2078740667482696
vn 0.38565821325401023 0.9082755022410689 0.16218308968094824
vn -0.38565821325401023 -0.9082755022410689 -0.16218308968094824
vn 0.2330338530641623 0.5945466251179592 -0.7695515147713734
vn -0.2330338530641623 -0.5945466251179592 0.7695515147713734
usemtl material_0_0
f 1//1 2//2 3//3
f 3//4 2//5 1//6
f 1//1 4//7 2//2
f 2//5 4//8 1//6
f 2//9 3//10 5//11
f 5//12 3//13 2//14
f 1//15 6//16 3//17
f 3//18 6//19 1//20
f 4//21 7//22 1//15
f 1//20 7//23 4//24
f 4//7 8//25 2//2
f 2//5 8//26 4//8
f 6//27 5//27 3//27
f 3//28 5//28 6//28
f 2//9 5//11 9//29
f 9//30 5//12 2//14
f 7//22 6//16 1//15
f 1//20 6//19 7//23
f 4//31 10//31 7//31
f 7//32 10//32 4//32
f 4//7 11//33 8//25
f 8//26 11//34 4//8
f 2//9 9//29 8//35
f 8//36 9//30 2//14
f 6//37 12//38 5//39
f 5//40 12//41 6//42
f 5//39 12//38 9//43
f 9//44 12//41 5//40
f 6//37 7//45 12//38
f 12//41 7//46 6//42
f 4//47 11//47 10//47
f 10//48 11//48 4//48
f 7//45 10//49 12//38
f 12//41 10//50 7//46
f 11//51 8//52 12//52
f 12//53 8//53 11//54
f 12//52 8//52 9//55
f 9//56 8//53 12//53
f 11//57 12//57 10//57
f 10//58 12//58 11//58
