# SSTK version 0.8.0
# 16
mtllib original-16.mtl
o mesh16/mesh16-geometry#mesh16-geometry
v 0.253901 -0.616102 -0.322215
v 0.249489 -0.634665 -0.309468
v 0.266429 -0.669269 -0.327466
v 0.296347 -0.635734 -0.310301
v 0.281277 -0.631836 -0.328203
v 0.267922 -0.623046 -0.279912
vn 0.8469195896400333 0.14917092772185497 0.5103677527102968
vn -0.8469195896400333 -0.14917092772185497 -0.5103677527102968
vn 0.005287998527033503 -0.45937487204160654 0.8882267525853608
vn -0.005287998527033503 0.45937487204160654 -0.8882267525853608
vn 0.1838630027267803 -0.053607000795018636 0.9814890145559729
vn -0.1838630027267803 0.053607000795018636 -0.9814890145559729
vn -0.014533003860881917 -0.9274522463897787 0.3736590992674104
vn 0.014533003860881917 0.9274522463897787 -0.3736590992674104
usemtl material_0_0
f 1//1 2//1 3//1
f 3//2 2//2 1//2
f 4//3 2//3 3//3
f 3//4 2//4 4//4
f 5//5 1//5 3//5
f 3//6 1//6 5//6
f 6//7 2//7 4//7
f 4//8 2//8 6//8
