# SSTK version 0.8.0
# 30
mtllib original-30.mtl
o mesh30/mesh30-geometry#mesh30-geometry
v -0.291074 -0.195180 0.412721
v -0.319913 -0.148948 0.266286
v -0.322123 -0.169456 0.381157
v -0.288434 -0.171296 0.217839
v -0.320865 -0.132303 0.280190
v -0.269569 -0.189708 0.341319
v -0.302076 -0.148799 -0.021983
v -0.308829 -0.136572 -0.036612
v -0.176877 -0.197598 0.373626
v -0.308666 -0.127755 -0.028174
v -0.164674 -0.207240 0.415509
v 0.230205 -0.196579 0.369744
v -0.262053 -0.154916 -0.020064
v -0.268288 -0.146924 -0.075394
v -0.272256 -0.125490 -0.082406
v 0.029275 -0.213279 0.414483
v -0.030007 -0.209146 0.416341
v 0.286088 -0.190082 0.341245
v -0.207181 -0.157497 -0.051018
v -0.113963 -0.176574 -0.115345
v 0.182240 -0.204812 0.415509
v 0.315865 -0.189766 0.409158
v 0.051080 -0.163913 -0.055908
v -0.174118 -0.155079 -0.115276
v 0.300793 -0.175012 0.226363
v 0.265235 -0.154243 -0.020173
v -0.000404 -0.185979 -0.122988
v -0.086744 -0.167951 -0.132160
v -0.126432 -0.150606 -0.128856
v 0.332177 -0.153707 0.271547
v 0.277970 -0.152515 -0.048766
v 0.143462 -0.169575 -0.082469
v 0.007075 -0.172791 -0.138258
v 0.341245 -0.150837 0.355614
v 0.319143 -0.147518 -0.030319
v 0.133441 -0.176140 -0.115320
v 0.101038 -0.167893 -0.132519
v 0.008232 -0.160010 -0.139930
v 0.288668 -0.147383 -0.071608
v 0.131197 -0.152138 -0.130593
v 0.325556 -0.128020 -0.038993
v 0.193791 -0.155079 -0.114297
v 0.336982 -0.131905 0.265669
v 0.289472 -0.125608 -0.082971
vn 0.3119809335001792 0.9397747996837336 0.13961097024143623
vn 0.8432050872928112 0.5323950551162009 0.07457000771986044
vn 0.5290046501920876 0.8335914487820016 0.15899489486354756
vn -0.5290046501920876 -0.8335914487820016 -0.15899489486354756
vn -0.8432050872928112 -0.5323950551162009 -0.07457000771986044
vn -0.3119809335001792 -0.9397747996837336 -0.13961097024143623
vn 0.49899699715496865 0.8628869950802498 0.08017499954288224
vn -0.49899699715496865 -0.8628869950802498 -0.08017499954288224
vn 0.9994205024156402 0.0019879990102292153 0.03398098308179022
vn 0.9990333569976407 0.03573501276965896 0.02560000914798571
vn -0.9990333569976407 -0.03573501276965896 -0.02560000914798571
vn -0.9994205024156402 -0.0019879990102292153 -0.03398098308179022
vn 0.14499600293109424 0.9794450197994813 0.14022700283468886
vn -0.14499600293109424 -0.9794450197994813 -0.14022700283468886
vn 0.4048880903319602 0.9098322029867716 0.0909450202901546
vn -0.4048880903319602 -0.9098322029867716 -0.0909450202901546
vn 0.9263101169906595 0.21395702702223934 0.31011603916688296
vn -0.9263101169906595 -0.21395702702223934 -0.31011603916688296
vn 0.03488800843044404 0.9747612355442576 0.2205070532839923
vn -0.03488800843044404 -0.9747612355442576 -0.2205070532839923
vn 0.9205746873333045 -0.2788249052990887 0.27349390710972465
vn -0.9205746873333045 0.2788249052990887 -0.27349390710972465
vn 0.060160976740748155 0.9764326224946218 0.20726791986671414
vn -0.060160976740748155 -0.9764326224946218 -0.20726791986671414
vn -0.04351598379652184 0.9837566336913994 0.1741529351529476
vn 0.04351598379652184 -0.9837566336913994 -0.1741529351529476
vn 0.07859597990670453 0.9968807451444796 -0.0071729981662017345
vn -0.07859597990670453 -0.9968807451444796 0.0071729981662017345
vn 0.46522391382518674 0.6915528719015986 0.5525588976478671
vn -0.46522391382518674 -0.6915528719015986 -0.5525588976478671
vn 0.7412688223642139 -0.47122488707685967 0.47798288545739004
vn -0.7412688223642139 0.47122488707685967 -0.47798288545739004
vn -0.007746996583474549 0.9729155709316798 0.23103089811239297
vn 0.007746996583474549 -0.9729155709316798 -0.23103089811239297
vn 0.0033509989461947723 -0.19179293968592478 -0.9814296913649464
vn -0.0033509989461947723 0.19179293968592478 0.9814296913649464
vn -0.13967793662101094 0.983502553734834 0.11494694784271929
vn 0.13967793662101094 -0.983502553734834 -0.11494694784271929
vn 0.051349980630277466 0.9893116268218316 -0.13647594851991715
vn -0.051349980630277466 -0.9893116268218316 0.13647594851991715
vn 0.15807500591058266 0.9269080346580189 0.3403730127268875
vn -0.15807500591058266 -0.9269080346580189 -0.3403730127268875
vn 0.4793551518475126 0.19861506291619724 0.8548512707951268
vn -0.4793551518475126 -0.19861506291619724 -0.8548512707951268
vn 0.0016909995121889862 0.4300368759451301 -0.9028097395619981
vn 0.013037000705477756 0.5594700302748823 -0.8287480448464586
vn -0.0016909995121889862 -0.4300368759451301 0.9028097395619981
vn -0.013037000705477756 -0.5594700302748823 0.8287480448464586
vn -0.08220899644388552 0.9923269570749137 0.09235199600512979
vn 0.08220899644388552 -0.9923269570749137 -0.09235199600512979
vn -0.4021870982022369 0.9120232226891936 0.08036901962374611
vn 0.4021870982022369 -0.9120232226891936 -0.08036901962374611
vn -0.012517995414928255 0.9790516413944991 -0.20322692556236016
vn 0.012517995414928255 -0.9790516413944991 0.20322692556236016
vn 0.30524791311363586 0.43683387565874965 0.846167759145151
vn -0.30524791311363586 -0.43683387565874965 -0.846167759145151
vn -0.009692002022023208 0.2909860607078462 -0.9566781995898802
vn 0.009692002022023208 -0.2909860607078462 0.9566781995898802
vn -0.38859313951681423 0.9168293291697516 0.09175703294357934
vn 0.38859313951681423 -0.9168293291697516 -0.09175703294357934
vn -0.026596006152375024 0.9936332298542206 -0.10947902532545742
vn 0.026596006152375024 -0.9936332298542206 0.10947902532545742
vn -0.0006400000965497818 0.9688291461566071 -0.24772903737215762
vn 0.0006400000965497818 -0.9688291461566071 0.24772903737215762
vn 0.1489849330405992 0.41937881151547773 0.8955025975276417
vn -0.1489849330405992 -0.41937881151547773 -0.8955025975276417
vn 0.20185892654092585 0.07586897239029967 0.9764716446493391
vn -0.20185892654092585 -0.07586897239029967 -0.9764716446493391
vn -0.6800609111140046 0.7301209045710136 0.06663799129021519
vn 0.6800609111140046 -0.7301209045710136 -0.06663799129021519
vn -0.1381189837844179 0.9899508837768032 0.030337996438228414
vn 0.1381189837844179 -0.9899508837768032 -0.030337996438228414
vn -0.0859919928646427 0.9825929184673908 -0.16467098633609614
vn 0.0859919928646427 -0.9825929184673908 0.16467098633609614
vn -0.021969997235021094 0.7772389021825472 0.6288219208611942
vn 0.035481003449977795 0.7807070759116659 0.6238890606635439
vn -0.035481003449977795 -0.7807070759116659 -0.6238890606635439
vn 0.021969997235021094 -0.7772389021825472 -0.6288219208611942
vn -0.8967331457828162 0.4393120714194086 0.0536150087162463
vn 0.8967331457828162 -0.4393120714194086 -0.0536150087162463
vn -0.5916556837775754 0.7893375781224627 0.16398091235706322
vn 0.5916556837775754 -0.7893375781224627 -0.16398091235706322
vn -0.10013296619015974 0.9811086687292044 -0.16552694410991953
vn 0.10013296619015974 -0.9811086687292044 0.16552694410991953
vn -0.1477909620820167 0.543179860639077 0.8265067879473131
vn 0.1477909620820167 -0.543179860639077 -0.8265067879473131
vn 0.02302500212371117 0.08609200794069671 0.9960210918680097
vn -0.02302500212371117 -0.08609200794069671 -0.9960210918680097
vn -0.024665006809195374 0.08500402346680898 0.9960752749835509
vn 0.024665006809195374 -0.08500402346680898 -0.9960752749835509
vn -0.16054398618061508 0.986113915116797 0.042484996342955404
vn 0.16054398618061508 -0.986113915116797 -0.042484996342955404
vn -0.2084550635248142 0.7635822326948486 0.6111371862385856
vn 0.2084550635248142 -0.7635822326948486 -0.6111371862385856
vn -0.15960301940924457 0.06875400836114108 0.9847841197591117
vn 0.15960301940924457 -0.06875400836114108 -0.9847841197591117
vn -0.8985038009612137 0.2924299352201969 0.3273769274786526
vn 0.8985038009612137 -0.2924299352201969 -0.3273769274786526
vn -0.552470907294837 0.5373199098371894 0.6372308930720278
vn 0.552470907294837 -0.5373199098371894 -0.6372308930720278
vn -0.30334002494895973 0.4360080358605724 0.8472790696865882
vn 0.30334002494895973 -0.4360080358605724 -0.8472790696865882
vn -0.9980731431192078 -0.04996200716432752 0.036794005276095165
vn 0.9980731431192078 0.04996200716432752 -0.036794005276095165
vn -0.4900430455933621 0.21434601994264746 0.8449340786122478
vn 0.4900430455933621 -0.21434601994264746 -0.8449340786122478
usemtl material_0_0
f 1//1 2//2 3//3
f 3//4 2//5 1//6
f 1//1 4//7 2//2
f 2//5 4//8 1//6
f 5//9 3//10 2//2
f 2//5 3//11 5//12
f 1//1 6//13 4//7
f 4//8 6//14 1//6
f 2//2 4//7 7//15
f 7//16 4//8 2//5
f 5//9 2//2 8//17
f 8//18 2//5 5//12
f 1//1 9//19 6//13
f 6//14 9//20 1//6
f 6//13 7//15 4//7
f 4//8 7//16 6//14
f 8//17 2//2 7//15
f 7//16 2//5 8//18
f 10//21 5//9 8//17
f 8//18 5//12 10//22
f 11//23 9//19 1//1
f 1//6 9//20 11//24
f 9//19 12//25 6//13
f 6//14 12//26 9//20
f 6//13 13//27 7//15
f 7//16 13//28 6//14
f 7//15 14//29 8//17
f 8//18 14//30 7//16
f 15//31 10//21 8//17
f 8//18 10//22 15//32
f 11//23 16//33 9//19
f 9//20 16//34 11//24
f 17//35 11//35 1//35
f 1//36 11//36 17//36
f 16//33 12//25 9//19
f 9//20 12//26 16//34
f 12//25 18//37 6//13
f 6//14 18//38 12//26
f 13//27 19//39 7//15
f 7//16 19//40 13//28
f 7//15 20//41 14//29
f 14//30 20//42 7//16
f 15//43 8//17 14//29
f 14//30 8//18 15//44
f 16//45 11//46 17//45
f 17//47 11//48 16//47
f 21//49 12//25 16//33
f 16//34 12//26 21//50
f 22//51 18//37 12//25
f 12//26 18//38 22//52
f 13//27 23//53 19//39
f 19//40 23//54 13//28
f 7//15 19//39 20//41
f 20//42 19//40 7//16
f 14//29 20//41 24//55
f 24//56 20//42 14//30
f 24//55 15//43 14//29
f 14//30 15//44 24//56
f 21//57 16//45 17//45
f 17//47 16//47 21//58
f 21//49 22//51 12//25
f 12//26 22//52 21//50
f 22//51 25//59 18//37
f 18//38 25//60 22//52
f 13//27 26//61 23//53
f 23//54 26//62 13//28
f 19//39 23//53 27//63
f 27//64 23//54 19//40
f 19//39 27//63 20//41
f 20//42 27//64 19//40
f 28//65 24//55 20//41
f 20//42 24//56 28//66
f 29//67 15//43 24//55
f 24//56 15//44 29//68
f 22//51 30//69 25//59
f 25//60 30//70 22//52
f 18//37 25//59 31//71
f 31//72 25//60 18//38
f 26//61 31//71 23//53
f 23//54 31//72 26//62
f 23//53 32//73 27//63
f 27//64 32//74 23//54
f 20//41 27//75 33//76
f 33//77 27//78 20//42
f 28//65 29//67 24//55
f 24//56 29//68 28//66
f 20//41 33//76 28//65
f 28//66 33//77 20//42
f 34//79 30//69 22//51
f 22//52 30//70 34//80
f 30//69 35//81 25//59
f 25//60 35//82 30//70
f 25//59 35//81 31//71
f 31//72 35//82 25//60
f 31//71 32//73 23//53
f 23//54 32//74 31//72
f 32//73 36//83 27//63
f 27//64 36//84 32//74
f 27//75 37//85 33//76
f 33//77 37//86 27//78
f 38//87 29//67 28//65
f 28//66 29//68 38//88
f 38//87 28//65 33//89
f 33//90 28//66 38//88
f 34//79 35//81 30//69
f 30//70 35//82 34//80
f 35//81 39//91 31//71
f 31//72 39//92 35//82
f 31//71 39//91 32//73
f 32//74 39//92 31//72
f 39//91 36//83 32//73
f 32//74 36//84 39//92
f 36//93 37//85 27//75
f 27//78 37//86 36//94
f 40//95 33//89 37//85
f 37//86 33//90 40//96
f 40//95 38//87 33//89
f 33//90 38//88 40//96
f 41//97 35//81 34//79
f 34//80 35//82 41//98
f 41//97 39//99 35//81
f 35//82 39//100 41//98
f 39//99 42//101 36//93
f 36//94 42//102 39//100
f 42//101 37//85 36//93
f 36//94 37//86 42//102
f 42//101 40//95 37//85
f 37//86 40//96 42//102
f 41//97 34//79 43//103
f 43//104 34//80 41//98
f 44//105 39//99 41//97
f 41//98 39//100 44//106
f 44//105 42//101 39//99
f 39//100 42//102 44//106
f 44//105 40//95 42//101
f 42//102 40//96 44//106
