# SSTK version 0.8.0
# 34
mtllib original-34.mtl
o mesh34/mesh34-geometry#mesh34-geometry
v -0.035555 0.692936 -0.250620
v -0.049127 0.682516 -0.240727
v -0.046451 0.654608 -0.256526
v 0.043714 0.693259 -0.242344
v -0.045987 0.653283 -0.243237
v 0.056135 0.655898 -0.256164
v 0.059577 0.682546 -0.240754
v -0.032581 0.733890 -0.249789
v 0.056866 0.653823 -0.243475
v 0.042157 0.734124 -0.249397
v -0.036368 0.761652 -0.230423
v 0.041012 0.759729 -0.230058
v -0.027877 0.732252 -0.242072
v 0.014175 0.692963 -0.244299
v 0.000899 0.742982 -0.238471
v 0.019303 0.733856 -0.243082
v 0.016072 0.760728 -0.224824
vn 0.7013040629613284 -0.29907702685038895 0.6470900580941303
vn -0.7013040629613284 0.29907702685038895 -0.6470900580941303
vn -0.038826023306569916 0.4683782811591358 0.8826745298537911
vn -0.07334403481741174 0.7352543490352482 0.673811319867406
vn 0.07334403481741174 -0.7352543490352482 -0.673811319867406
vn 0.038826023306569916 -0.4683782811591358 -0.8826745298537911
vn 0.9937763805781661 0.10880504166814993 -0.0238740091428281
vn -0.9937763805781661 -0.10880504166814993 0.0238740091428281
vn 0.014741996543378136 -0.08776897942041485 0.996031766455977
vn 0.02461001055148276 -0.08811303777825276 0.9958064269496075
vn -0.0015839999583693134 -0.15185199600902588 0.9884019740228196
vn 0.0015839999583693134 0.15185199600902588 -0.9884019740228196
vn -0.02461001055148276 0.08811303777825276 -0.9958064269496075
vn -0.014741996543378136 0.08776897942041485 -0.996031766455977
vn 0.00019699994590244326 0.1471529595907728 0.9891137283824837
vn -0.00019699994590244326 -0.1471529595907728 -0.9891137283824837
vn -0.008842996513994188 0.9913816091865415 0.13070694847389328
vn -0.012868996577709587 0.9949427354119287 0.09961597350882882
vn 0.012868996577709587 -0.9949427354119287 -0.09961597350882882
vn 0.008842996513994188 -0.9913816091865415 -0.13070694847389328
vn 0.006602996540763652 -0.3357878240844987 0.9419145065414803
vn -0.006602996540763652 0.3357878240844987 -0.9419145065414803
vn -0.37179601253975025 -0.4282730144445783 0.823620027778645
vn 0.37179601253975025 0.4282730144445783 -0.823620027778645
vn -0.004806998390391279 0.9868336695617616 0.16166694586631725
vn 0.004806998390391279 -0.9868336695617616 -0.16166694586631725
vn -0.0037700014106216923 -0.35887413427996 0.9333783492422425
vn 0.0037700014106216923 0.35887413427996 -0.9333783492422425
vn 0.952813930910988 -0.07516799454953133 0.29410097867459173
vn -0.952813930910988 0.07516799454953133 -0.29410097867459173
vn -0.965487650848833 -0.07958397121989452 -0.2479919103182057
vn -0.8730939671013833 -0.1150339956654616 -0.47378698214746995
vn 0.965487650848833 0.07958397121989452 0.2479919103182057
vn 0.8730939671013833 0.1150339956654616 0.47378698214746995
vn -0.9936437563307589 0.08701797866075775 0.07141398248729405
vn 0.9936437563307589 -0.08701797866075775 -0.07141398248729405
vn -0.010211004524058036 -0.5883342606656704 0.8085533582353047
vn 0.010211004524058036 0.5883342606656704 -0.8085533582353047
vn -0.03983800094838347 0.2419120057589573 -0.9694800230794418
vn -0.10831697893132065 0.23136295499771173 -0.9668188119445748
vn -0.17915400008276916 0.31724400014656673 -0.9312680004302458
vn 0.17915400008276916 -0.31724400014656673 0.9312680004302458
vn 0.10831697893132065 -0.23136295499771173 0.9668188119445748
vn 0.03983800094838347 -0.2419120057589573 0.9694800230794418
vn -0.018122998470899255 -0.5736829515963636 0.8188769309084901
vn 0.018122998470899255 0.5736829515963636 -0.8188769309084901
vn -0.9992021393967018 -0.03929800548238653 -0.0071240009938552
vn 0.9992021393967018 0.03929800548238653 0.0071240009938552
vn 0.2338240452448402 0.18729203624091886 -0.954069184611928
vn -0.2338240452448402 -0.18729203624091886 0.954069184611928
vn 0.18733497075607666 0.2499029609889013 -0.9499758517040312
vn -0.18733497075607666 -0.2499029609889013 0.9499758517040312
vn 0.20289704064454214 0.10429302089208432 -0.9736301950385938
vn 0.08705600296181937 0.26194600891192726 -0.9611480327001789
vn 0.09613698893631561 0.3820299560350401 -0.9191358942235496
vn -0.09613698893631561 -0.3820299560350401 0.9191358942235496
vn -0.08705600296181937 -0.26194600891192726 0.9611480327001789
vn -0.20289704064454214 -0.10429302089208432 0.9736301950385938
vn 0.06582200963499356 0.02143400313749889 -0.9976011460283675
vn -0.06582200963499356 -0.02143400313749889 0.9976011460283675
vn -0.1516020444463907 0.5429821591904468 -0.8259462421493028
vn 0.1516020444463907 -0.5429821591904468 0.8259462421493028
vn 0.489981088977144 0.22809704142082982 -0.8413621527854913
vn -0.489981088977144 -0.22809704142082982 0.8413621527854913
vn -0.9278408428891874 0.12678297853190348 -0.3507669406048144
vn 0.9278408428891874 -0.12678297853190348 0.3507669406048144
usemtl material_0_0
f 1//1 2//1 3//1
f 3//2 2//2 1//2
f 2//3 4//3 1//4
f 1//5 4//6 2//6
f 2//7 5//7 3//7
f 3//8 5//8 2//8
f 6//9 1//10 3//11
f 3//12 1//13 6//14
f 7//15 4//3 2//3
f 2//6 4//6 7//16
f 5//17 6//17 3//18
f 3//19 6//20 5//20
f 6//9 8//21 1//10
f 1//13 8//22 6//14
f 7//23 4//23 6//23
f 6//24 4//24 7//24
f 5//17 9//25 6//17
f 6//20 9//26 5//20
f 6//9 10//27 8//21
f 8//22 10//28 6//14
f 11//29 1//29 8//29
f 8//30 1//30 11//30
f 10//31 6//32 4//31
f 4//33 6//34 10//33
f 7//35 6//35 9//35
f 9//36 6//36 7//36
f 10//27 12//37 8//21
f 8//22 12//38 10//28
f 13//39 1//40 11//41
f 11//42 1//43 13//44
f 12//37 11//45 8//21
f 8//22 11//46 12//38
f 12//47 10//31 4//31
f 4//33 10//33 12//48
f 14//49 1//40 13//39
f 13//44 1//43 14//50
f 15//51 13//39 11//41
f 11//42 13//44 15//52
f 4//53 16//54 12//55
f 12//56 16//57 4//58
f 14//49 13//39 15//51
f 15//52 13//44 14//50
f 4//53 14//59 16//54
f 16//57 14//60 4//58
f 12//55 16//54 17//61
f 17//62 16//57 12//56
f 17//63 14//49 15//51
f 15//52 14//50 17//64
f 17//65 16//65 14//65
f 14//66 16//66 17//66
