# SSTK version 0.8.0
# 39
mtllib original-39.mtl
o mesh39/mesh39-geometry#mesh39-geometry
v -0.172310 0.059195 -0.127484
v -0.185129 0.075647 -0.118820
v -0.190966 0.153649 -0.109078
v -0.171629 0.249756 -0.128611
vn -0.4941969316775261 0.07123099015235192 -0.8664268802169254
vn 0.4941969316775261 -0.07123099015235192 0.8664268802169254
vn -0.7065701052570499 -0.0016590002471396264 -0.7076411054165956
vn 0.7065701052570499 0.0016590002471396264 0.7076411054165956
usemtl material_0_0
f 1//1 2//1 3//1
f 3//2 2//2 1//2
f 1//2 3//2 2//2
f 2//1 3//1 1//1
f 4//3 1//3 3//3
f 3//4 1//4 4//4
f 4//4 3//4 1//4
f 1//3 3//3 4//3
