# SSTK version 0.8.0
# 38
mtllib original-38.mtl
o mesh38/mesh38-geometry#mesh38-geometry
v -0.051411 0.107359 -0.155146
v -0.063892 0.115314 -0.151901
v -0.137952 0.111333 -0.136871
v -0.129830 0.110236 -0.143841
v -0.133370 0.186091 -0.140306
v -0.143376 0.207250 -0.140579
v -0.143437 0.208103 -0.133713
v -0.030572 0.205430 -0.157297
v -0.165144 0.226596 -0.132788
v -0.163053 0.230213 -0.127671
v 0.002148 0.224698 -0.164714
v -0.162400 0.077746 -0.130190
v 0.000712 0.229748 -0.166345
v 0.165313 0.229982 -0.128959
v 0.168544 0.226688 -0.132733
v -0.154706 0.244091 -0.132946
v -0.171629 0.249756 -0.128611
v 0.146443 0.206313 -0.139953
v 0.174572 0.249681 -0.128838
v 0.158343 0.243911 -0.132718
v 0.146872 0.208269 -0.133711
v 0.002415 0.244138 -0.163319
v 0.001451 0.249742 -0.163351
v 0.136553 0.183180 -0.140449
v 0.143831 0.101572 -0.136986
v 0.000332 0.206663 -0.163759
v 0.133727 0.108327 -0.141426
v 0.064302 0.105553 -0.154616
vn 0.20240000033466843 -0.08064200013334157 0.9759770016137782
vn -0.20240000033466843 0.08064200013334157 -0.9759770016137782
vn 0.01665900546770306 0.9905023250957932 -0.13648304479551696
vn -0.01665900546770306 -0.9905023250957932 0.13648304479551696
vn 0.650806857212015 -0.005004998901895854 0.7592268334245122
vn 0.48018384973657163 -0.0681209786829736 0.8745187263377724
vn 0.6037082111717359 -0.0003730001304721115 0.7972052788552806
vn -0.6037082111717359 0.0003730001304721115 -0.7972052788552806
vn -0.48018384973657163 0.0681209786829736 -0.8745187263377724
vn -0.650806857212015 0.005004998901895854 -0.7592268334245122
vn -0.6549080493011524 -0.06613600497868559 -0.7528090566710915
vn 0.6549080493011524 0.06613600497868559 0.7528090566710915
vn 0.13807300421032923 0.05253000160182363 -0.9890280301589268
vn -0.004727001064222959 -0.015139003408350196 -0.9998742251087088
vn 0.004727001064222959 0.015139003408350196 0.9998742251087088
vn -0.13807300421032923 -0.05253000160182363 0.9890280301589268
vn 0.38422197079067844 -0.09921799245725006 0.9178939302198702
vn -0.38422197079067844 0.09921799245725006 -0.9178939302198702
vn -0.9983994841434961 -0.05652402740960975 -0.0018720009077699642
vn 0.9983994841434961 0.05652402740960975 0.0018720009077699642
vn -0.1474080112860737 -0.0824280063109769 -0.9856350754636739
vn 0.1474080112860737 0.0824280063109769 0.9856350754636739
vn 0.19599906738860695 -0.19803406808828303 0.9603993302055148
vn -0.19599906738860695 0.19803406808828303 -0.9603993302055148
vn -0.0022480001956254815 0.9923760863585556 -0.12322601072337437
vn 0.0022480001956254815 -0.9923760863585556 0.12322601072337437
vn -0.643756142540179 -0.7600801682965894 0.0886350196255239
vn 0.643756142540179 0.7600801682965894 -0.0886350196255239
vn 0.7352708719827349 0.6733788827586863 -0.0770559865838604
vn -0.7352708719827349 -0.6733788827586863 0.0770559865838604
vn -0.18770991287221164 -0.08523196043857197 -0.978519545808516
vn -0.18224599673588313 0.18393299670566812 -0.9658959827003202
vn 0.18770991287221164 0.08523196043857197 0.978519545808516
vn 0.18224599673588313 -0.18393299670566812 0.9658959827003202
vn -0.05828099298801017 -0.01849499777480222 -0.9981288799116282
vn 0.05828099298801017 0.01849499777480222 0.9981288799116282
vn 0.27917506710894824 -0.014665003525217967 0.9601282307985323
vn -0.27917506710894824 0.014665003525217967 -0.9601282307985323
vn 0.1939100028115981 -0.3491740050628485 0.9167750132927793
vn -0.1939100028115981 0.3491740050628485 -0.9167750132927793
vn -0.17953791776222677 -0.3482058405034808 -0.9200645785622161
vn 0.17953791776222677 0.3482058405034808 0.9200645785622161
vn -0.9230311745549035 -0.010307001949162477 0.3845870727294605
vn 0.9230311745549035 0.010307001949162477 -0.3845870727294605
vn 0.21580894319035335 0.35512390651701753 0.9095677605649594
vn -0.21580894319035335 -0.35512390651701753 -0.9095677605649594
vn -0.12474200573158346 0.8335050382974738 -0.5382460247310599
vn 0.12474200573158346 -0.8335050382974738 0.5382460247310599
vn -0.21345500619126256 -0.018271000529950378 0.9767820283315632
vn -0.21511308331126974 0.24427509460544186 0.9455453662008085
vn 0.21345500619126256 0.018271000529950378 -0.9767820283315632
vn 0.21511308331126974 -0.24427509460544186 -0.9455453662008085
vn 0.1890940691194732 -0.05623602055592824 -0.9803473583459452
vn 0.1854860939042137 -0.25390012853951166 -0.9492784805818453
vn -0.1854860939042137 0.25390012853951166 0.9492784805818453
vn -0.1890940691194732 0.05623602055592824 0.9803473583459452
vn 0.8587537940858931 -0.5122678771671424 0.011114997334818471
vn -0.8587537940858931 0.5122678771671424 -0.011114997334818471
vn -0.779000972751715 -0.3158099889534405 0.5416839810527072
vn 0.779000972751715 0.3158099889534405 -0.5416839810527072
vn 0.131830987534392 0.7999349243601571 -0.5854269446434944
vn -0.131830987534392 -0.7999349243601571 0.5854269446434944
vn -0.19687404570569314 -0.27953906489695823 0.9397332181656701
vn 0.19687404570569314 0.27953906489695823 -0.9397332181656701
vn 0.1851279994574824 0.14368099957894284 -0.9721539971511028
vn -0.1851279994574824 -0.14368099957894284 0.9721539971511028
vn 0.2992579410991601 0.17642096527629977 0.9377208154349942
vn -0.2992579410991601 -0.17642096527629977 -0.9377208154349942
vn -0.2097201050446325 0.1163640582844441 -0.9708124862606798
vn 0.2097201050446325 -0.1163640582844441 0.9708124862606798
vn 0.5924110522687257 -0.28307302497567566 0.7542670665493635
vn -0.5924110522687257 0.28307302497567566 -0.7542670665493635
vn -0.8260265618306093 -0.48898174061750405 -0.2803158513052347
vn 0.8260265618306093 0.48898174061750405 0.2803158513052347
vn 0.5426250532719459 -0.6656510653499637 0.5123150502962762
vn 0.39098900725636504 -0.5010190092984119 0.7720800143290332
vn -0.5426250532719459 0.6656510653499637 -0.5123150502962762
vn -0.39098900725636504 0.5010190092984119 -0.7720800143290332
vn -0.7357880026274991 0.6590170023533498 -0.15592500055680822
vn 0.7357880026274991 -0.6590170023533498 0.15592500055680822
vn 0.6304621310097291 -0.7520191562692208 0.1923140399627655
vn -0.6304621310097291 0.7520191562692208 -0.1923140399627655
vn -0.1928610148188624 0.07121900547225495 -0.9786380751956169
vn -0.18671092804563647 0.18109393021030626 -0.965579627886443
vn 0.1928610148188624 -0.07121900547225495 0.9786380751956169
vn 0.18671092804563647 -0.18109393021030626 0.965579627886443
vn 0.19289999862954196 -0.06127999956463625 0.979302993042542
vn 0.19423793095998496 -0.1602859430278944 0.9677706560151753
vn -0.19289999862954196 0.06127999956463625 -0.979302993042542
vn -0.19423793095998496 0.1602859430278944 -0.9677706560151753
vn -0.2715300726326749 0.12176403257115248 0.9546962553755542
vn 0.2715300726326749 -0.12176403257115248 -0.9546962553755542
vn 0.1922120971950508 0.11470705800341652 -0.9746264928351175
vn -0.1922120971950508 -0.11470705800341652 0.9746264928351175
vn -0.9173505112146788 0.39349779033538274 -0.06022896790862918
vn 0.9173505112146788 -0.39349779033538274 0.06022896790862918
vn 0.997826849903903 -0.02658599600085502 -0.0602889909311498
vn -0.997826849903903 0.02658599600085502 0.0602889909311498
vn -0.05146398264840653 -0.9519596790373286 0.3018678982222366
vn 0.05146398264840653 0.9519596790373286 -0.3018678982222366
vn 0.18964502082330892 0.0383340042091314 0.9811041077267086
vn -0.18964502082330892 -0.0383340042091314 -0.9811041077267086
vn -0.19664299272096478 -0.03952999853673783 -0.9796779637357512
vn 0.19664299272096478 0.03952999853673783 0.9796779637357512
vn -0.19439005664235492 -0.10875103168842398 0.9748772840646588
vn -0.19362795810849898 -0.06814098525766536 0.9787057882565362
vn 0.19362795810849898 0.06814098525766536 -0.9787057882565362
vn 0.19439005664235492 0.10875103168842398 -0.9748772840646588
vn 0.19362691389519548 0.07246196777656863 -0.9783955649129703
vn 0.19142300486166583 0.11686000296795197 -0.9745260247505251
vn -0.19362691389519548 -0.07246196777656863 0.9783955649129703
vn -0.19142300486166583 -0.11686000296795197 0.9745260247505251
vn 0.20526494588990948 -0.011928996855385624 -0.9786337420214146
vn 0.021458995715647553 0.01223999755624801 -0.9996948004079539
vn -0.021458995715647553 -0.01223999755624801 0.9996948004079539
vn -0.20526494588990948 0.011928996855385624 0.9786337420214146
vn -0.5277413073938326 -0.011033006426402639 0.8493334947118493
vn -0.4653381060456804 -0.003949000899935943 0.8851242017105347
vn 0.4653381060456804 0.003949000899935943 -0.8851242017105347
vn 0.5277413073938326 0.011033006426402639 -0.8493334947118493
vn 0.38192592667385744 -0.035682993149204964 -0.9235038226960564
vn -0.38192592667385744 0.035682993149204964 0.9235038226960564
vn -0.1925440425825638 -0.027418006063698347 0.9809052169345696
vn 0.1925440425825638 0.027418006063698347 -0.9809052169345696
vn 0.19544599161487855 0.02791999880216228 -0.9803169579419526
vn -0.19544599161487855 -0.02791999880216228 0.9803169579419526
vn -0.4005030045166727 0.0031560000355917908 0.9162900103334608
vn 0.4005030045166727 -0.0031560000355917908 -0.9162900103334608
vn 0.18901095207760224 -0.3260469173330969 -0.9262657651518288
vn -0.18901095207760224 0.3260469173330969 0.9262657651518288
usemtl material_0_0
f 1//1 2//1 3//1
f 3//2 2//2 1//2
f 1//2 3//2 2//2
f 2//1 3//1 1//1
f 3//3 1//3 4//3
f 4//4 1//4 3//4
f 3//4 4//4 1//4
f 1//3 4//3 3//3
f 4//5 5//6 3//7
f 3//8 5//9 4//10
f 4//11 3//11 6//11
f 6//12 3//12 4//12
f 4//13 6//14 5//14
f 5//15 6//15 4//16
f 5//6 7//17 3//7
f 3//8 7//18 5//9
f 7//19 6//19 3//19
f 3//20 6//20 7//20
f 8//21 5//14 6//14
f 6//15 5//15 8//22
f 8//23 7//17 5//6
f 5//9 7//18 8//24
f 7//25 8//25 6//25
f 6//26 8//26 7//26
f 9//27 6//27 7//27
f 7//28 6//28 9//28
f 10//29 7//29 6//29
f 6//30 7//30 10//30
f 11//31 6//32 9//31
f 9//33 6//34 11//33
f 7//35 12//35 9//35
f 9//36 12//36 7//36
f 7//37 10//37 12//37
f 12//38 10//38 7//38
f 11//39 10//39 6//39
f 6//40 10//40 11//40
f 11//31 9//31 13//41
f 13//42 9//33 11//33
f 10//43 9//43 12//43
f 12//44 9//44 10//44
f 11//45 13//45 10//45
f 10//46 13//46 11//46
f 10//47 13//47 9//47
f 9//48 13//48 10//48
f 14//49 13//50 11//49
f 11//51 13//52 14//51
f 15//53 11//53 13//54
f 13//55 11//56 15//56
f 16//57 10//57 9//57
f 9//58 10//58 16//58
f 17//59 9//59 10//59
f 10//60 9//60 17//60
f 14//61 15//61 13//61
f 13//62 15//62 14//62
f 14//49 11//49 18//63
f 18//64 11//51 14//51
f 15//53 18//65 11//53
f 11//56 18//66 15//56
f 16//67 17//67 10//67
f 10//68 17//68 16//68
f 16//69 9//69 17//69
f 17//70 9//70 16//70
f 19//71 14//71 15//71
f 15//72 14//72 19//72
f 20//73 15//73 14//73
f 14//74 15//74 20//74
f 15//75 14//76 21//75
f 21//77 14//78 15//77
f 14//79 18//79 21//79
f 21//80 18//80 14//80
f 15//75 21//75 18//81
f 18//82 21//77 15//77
f 22//83 16//84 17//83
f 17//85 16//86 22//85
f 23//87 17//88 16//87
f 16//89 17//90 23//89
f 19//91 20//91 14//91
f 14//92 20//92 19//92
f 19//93 15//93 20//93
f 20//94 15//94 19//94
f 21//95 18//95 24//95
f 24//96 18//96 21//96
f 21//97 25//97 18//97
f 18//98 25//98 21//98
f 21//99 26//99 18//99
f 18//100 26//100 21//100
f 21//100 18//100 26//100
f 26//99 18//99 21//99
f 22//101 23//87 16//87
f 16//89 23//89 22//102
f 22//83 17//83 23//103
f 23//104 17//85 22//85
f 19//105 23//106 20//106
f 20//107 23//107 19//108
f 19//109 20//110 22//109
f 22//111 20//112 19//111
f 18//113 27//113 24//114
f 24//115 27//116 18//116
f 21//117 24//118 25//118
f 25//119 24//119 21//120
f 18//113 25//121 27//113
f 27//116 25//122 18//116
f 20//106 23//106 22//123
f 22//124 23//107 20//107
f 19//109 22//109 23//125
f 23//126 22//111 19//111
f 25//118 24//118 27//127
f 27//128 24//119 25//119
f 25//129 28//129 27//129
f 27//130 28//130 25//130
f 25//130 27//130 28//130
f 28//129 27//129 25//129
