# SSTK version 0.8.0
# 19
mtllib original-19.mtl
o mesh19/mesh19-geometry#mesh19-geometry
v -0.243714 -0.627059 -0.260976
v -0.243686 -0.649117 -0.318394
v -0.243540 -0.674678 -0.239436
v -0.225126 -0.638449 -0.309173
v -0.243510 -0.705070 -0.266954
v -0.225476 -0.657134 -0.241036
v -0.225010 -0.680332 -0.317688
v -0.224833 -0.628686 -0.268675
v -0.243094 -0.696480 -0.307105
v -0.223750 -0.699115 -0.257043
v -0.228196 -0.705222 -0.289851
vn -0.9999942035038412 -0.003315000674619281 0.0007770001581234333
vn -0.9999675363006615 -0.007040996734988477 -0.003917998183167852
vn -0.9999959151798501 -0.002684999772256986 0.0009799999168759205
vn 0.9999959151798501 0.002684999772256986 -0.0009799999168759205
vn 0.9999675363006615 0.007040996734988477 0.003917998183167852
vn 0.9999942035038412 0.003315000674619281 -0.0007770001581234333
vn 0.17732697192648267 -0.9402698511411903 0.29059895399383023
vn 0.3372820542347901 -0.8787311412995396 0.337746054309401
vn -0.17732697192648267 0.9402698511411903 -0.29059895399383023
vn -0.3372820542347901 0.8787311412995396 -0.337746054309401
vn -0.9999407414578552 -0.00890299769806347 -0.006264998380137891
vn 0.9999407414578552 0.00890299769806347 0.006264998380137891
vn 0.3035628896216696 -0.3917648575506019 -0.8685446841889591
vn -0.3035628896216696 0.3917648575506019 0.8685446841889591
vn -0.3484099865992812 -0.18765999278212767 0.9183649646773883
vn 0.3484099865992812 0.18765999278212767 -0.9183649646773883
vn 0.01177000367341872 -0.972100303392552 0.23427007311570125
vn -0.01177000367341872 0.972100303392552 -0.23427007311570125
vn -0.999781921820556 -0.01574999876840527 -0.013712998927691521
vn 0.999781921820556 0.01574999876840527 0.013712998927691521
vn -0.11452800156897637 0.5180160070965604 -0.8476690116126416
vn 0.1670959191204983 0.66185367964271 -0.7307726462838362
vn 0.11452800156897637 -0.5180160070965604 0.8476690116126416
vn -0.1670959191204983 -0.66185367964271 0.7307726462838362
vn -0.38313496624006393 0.3152969722176085 -0.8682139234973335
vn 0.38313496624006393 -0.3152969722176085 0.8682139234973335
vn -0.3335290954808887 -0.653041186949066 -0.6799231946447005
vn 0.3335290954808887 0.653041186949066 0.6799231946447005
vn -0.9998419226137378 -0.01010699921773345 0.014627998867814872
vn -0.9924499994377771 0.10980799993779378 0.05463699996904814
vn -0.9987955084678813 0.04560497755665594 0.018102991091067704
vn 0.9987955084678813 -0.04560497755665594 -0.018102991091067704
vn 0.9924499994377771 -0.10980799993779378 -0.05463699996904814
vn 0.9998419226137378 0.01010699921773345 -0.014627998867814872
vn 0.33693711774016927 0.2222850776758668 0.9149113197089546
vn -0.33693711774016927 -0.2222850776758668 -0.9149113197089546
vn -0.9996638042178623 -0.018395996397181247 -0.01827199642146639
vn 0.9996638042178623 0.018395996397181247 0.01827199642146639
vn 0.05050998621772077 0.9983547275864705 0.027139992594514786
vn 0.31111195900462435 0.9286808776272646 0.20189397339633194
vn -0.31111195900462435 -0.9286808776272646 -0.20189397339633194
vn -0.05050998621772077 -0.9983547275864705 -0.027139992594514786
vn -0.21530997398485097 0.9648918834154977 -0.15041698182564361
vn 0.21530997398485097 -0.9648918834154977 0.15041698182564361
vn -0.9986252460463115 -0.02313100569913354 -0.047038011589461914
vn 0.9986252460463115 0.02313100569913354 0.047038011589461914
vn -0.9703239278559334 0.22454998330459708 0.08971499332964564
vn 0.9703239278559334 -0.22454998330459708 -0.08971499332964564
vn -0.289168917751841 0.7298267924157599 0.6194628238065238
vn 0.289168917751841 -0.7298267924157599 -0.6194628238065238
usemtl material_0_0
f 1//1 2//2 3//3
f 3//4 2//5 1//6
f 1//7 2//8 4//7
f 4//9 2//10 1//9
f 2//2 5//11 3//3
f 3//4 5//12 2//5
f 6//13 3//13 1//13
f 1//14 3//14 6//14
f 7//15 4//15 2//15
f 2//16 4//16 7//16
f 1//7 4//7 8//17
f 8//18 4//9 1//9
f 2//2 9//19 5//11
f 5//12 9//20 2//5
f 10//21 5//22 3//21
f 3//23 5//24 10//23
f 10//21 3//21 6//25
f 6//26 3//23 10//23
f 8//27 6//27 1//27
f 1//28 6//28 8//28
f 4//29 7//30 10//31
f 10//32 7//33 4//34
f 7//35 2//35 9//35
f 9//36 2//36 7//36
f 8//37 4//29 10//31
f 10//32 4//34 8//38
f 5//39 11//39 9//40
f 9//41 11//42 5//42
f 10//43 11//39 5//39
f 5//42 11//42 10//44
f 8//37 10//31 6//45
f 6//46 10//32 8//38
f 7//30 11//47 10//31
f 10//32 11//48 7//33
f 11//49 7//49 9//49
f 9//50 7//50 11//50
