# SSTK version 0.8.0
# 37
mtllib original-37.mtl
o mesh37/mesh37-geometry#mesh37-geometry
v -0.018586 0.066654 -0.181383
v -0.162233 0.059844 -0.179144
v -0.177801 0.066705 -0.182667
v -0.172565 0.053775 -0.181366
v -0.177634 0.066192 -0.192539
v -0.176043 0.058044 -0.191031
v -0.017255 0.053425 -0.181180
v -0.183068 0.088024 -0.188383
v -0.017255 0.062079 -0.196085
v -0.108936 0.066307 -0.187755
v -0.017255 0.053425 -0.193383
vn 0.007082998495114427 -0.4439939056670669 -0.8960018096314438
vn -0.23305908767614608 -0.1039170390932857 -0.9668943637428274
vn -0.42873225541645976 -0.8883145292117618 0.16457809804710194
vn 0.42873225541645976 0.8883145292117618 -0.16457809804710194
vn 0.23305908767614608 0.1039170390932857 0.9668943637428274
vn -0.007082998495114427 0.4439939056670669 0.8960018096314438
vn -0.5185129052301086 0.8505738445385062 0.08756998399461655
vn 0.5185129052301086 -0.8505738445385062 -0.08756998399461655
vn -0.009420996310686752 -0.9845086144610871 0.1750829314365745
vn -0.0007379996851472616 -0.9986535739445167 0.05186997787071606
vn 0.009420996310686752 0.9845086144610871 -0.1750829314365745
vn 0.0007379996851472616 0.9986535739445167 -0.05186997787071606
vn -0.9574846947247246 -0.2758599120474603 0.08440597308880567
vn -0.9187160790123424 -0.35451703048952954 0.17400701496512597
vn 0.9187160790123424 0.35451703048952954 -0.17400701496512597
vn 0.9574846947247246 0.2758599120474603 -0.08440597308880567
vn 0.0018969997480006735 0.34092695471092543 -0.940087875117795
vn -0.0018969997480006735 -0.34092695471092543 0.940087875117795
vn -0.970554965387099 -0.2408489914106026 -0.003849999862697458
vn 0.970554965387099 0.2408489914106026 0.003849999862697458
vn -0.9812032240175524 -0.19286704403328697 -0.006522001489031808
vn 0.9812032240175524 0.19286704403328697 0.006522001489031808
vn -0.017958006931783035 -0.9551463686860919 0.2955891140972723
vn 0.017958006931783035 0.9551463686860919 -0.2955891140972723
vn 0.01566500131687839 0.9783730822469365 0.20625401733874468
vn 0.001576000601074136 0.914932348947945 0.40360415393142485
vn -0.001576000601074136 -0.914932348947945 -0.40360415393142485
vn -0.01566500131687839 -0.9783730822469365 -0.20625401733874468
vn 0.06767897816710355 0.20278493458260455 -0.9768816848629036
vn -0.06767897816710355 -0.20278493458260455 0.9768816848629036
vn 0.07242198337864976 0.2749509368968426 0.9587267799655181
vn -0.07242198337864976 -0.2749509368968426 -0.9587267799655181
vn 0.024699002651252834 0.24286702606995517 0.9697451040948695
vn 0.026511000520861635 0.1869270036725549 0.982016019293669
vn -0.024699002651252834 -0.24286702606995517 -0.9697451040948695
vn -0.026511000520861635 -0.1869270036725549 -0.982016019293669
vn 0.02907700507600229 0.9995771744972021 0
vn -0.02907700507600229 -0.9995771744972021 0
vn 0.02280600595423842 0.29801007780507727 0.9542902491480393
vn -0.02280600595423842 -0.29801007780507727 -0.9542902491480393
usemtl material_0_0
f 1//1 2//2 3//3
f 3//4 2//5 1//6
f 2//2 3//3 4//7
f 4//8 3//4 2//5
f 1//9 3//10 5//9
f 5//11 3//12 1//11
f 3//13 6//13 4//14
f 4//15 6//16 3//16
f 7//17 4//7 2//2
f 2//5 4//8 7//18
f 8//19 5//19 3//19
f 3//20 5//20 8//20
f 3//13 5//21 6//13
f 6//16 5//22 3//16
f 1//9 5//9 9//23
f 9//24 5//11 1//11
f 7//25 6//25 4//26
f 4//27 6//28 7//28
f 10//29 5//29 8//29
f 8//30 5//30 10//30
f 10//31 8//31 3//31
f 3//32 8//32 10//32
f 9//33 5//34 6//33
f 6//35 5//36 9//35
f 7//25 11//37 6//25
f 6//28 11//38 7//28
f 9//33 6//33 11//39
f 11//40 6//35 9//35
