# SSTK version 0.8.0
# 32
mtllib original-32.mtl
o mesh32/mesh32-geometry#mesh32-geometry
v 0.010578 0.974479 -0.139147
v -0.157916 0.963128 -0.130677
v -0.146037 0.987273 -0.145963
v -0.147552 0.934395 -0.122049
v -0.152481 0.994103 -0.167756
v 0.161345 0.994555 -0.157061
v 0.162264 0.933899 -0.121521
v -0.162066 0.893832 -0.119751
v -0.170519 0.967652 -0.149048
v 0.150440 0.972424 -0.134679
v 0.169345 0.992846 -0.165544
v -0.154865 0.988248 -0.169895
v 0.181304 0.957490 -0.136294
v 0.171290 0.873240 -0.121125
v -0.167942 0.919573 -0.146491
v 0.163259 0.984834 -0.169286
v -0.160928 0.853303 -0.125354
v -0.170578 0.855881 -0.144138
v 0.179616 0.936932 -0.143881
v -0.143608 0.905461 -0.145927
v 0.004824 0.989650 -0.171944
v 0.161673 0.817488 -0.137898
v 0.178288 0.826781 -0.142685
v -0.165664 0.833804 -0.161581
v 0.180808 0.857654 -0.142789
v -0.117147 0.961858 -0.162623
v 0.005860 0.985347 -0.179907
v -0.153907 0.800425 -0.146305
v -0.171827 0.781649 -0.175825
v -0.169392 0.789899 -0.188927
v -0.081425 0.983632 -0.176776
v -0.142737 0.808973 -0.176864
v 0.134769 0.961858 -0.162913
v 0.162538 0.777604 -0.163415
v 0.180021 0.783494 -0.174127
v -0.040412 0.958061 -0.175546
v 0.051022 0.959790 -0.175185
v 0.150363 0.926040 -0.150095
v -0.143327 0.763570 -0.178044
v -0.150823 0.764471 -0.212621
v 0.177612 0.777231 -0.190896
v -0.138167 0.769969 -0.215987
v 0.001679 0.889209 -0.181899
v 0.009050 0.873321 -0.184423
v 0.178832 0.936501 -0.148862
v 0.163849 0.757973 -0.187661
v -0.142750 0.752672 -0.203734
v -0.104555 0.788126 -0.193650
v -0.039004 0.861458 -0.185212
v 0.047972 0.840617 -0.192116
v 0.151400 0.871456 -0.150669
v -0.043282 0.743175 -0.215679
v -0.134376 0.756132 -0.213805
v -0.036368 0.761652 -0.230423
v 0.153309 0.760908 -0.212223
v -0.039227 0.783609 -0.201401
v -0.039106 0.876595 -0.165208
v 0.001256 0.807054 -0.210994
v 0.007360 0.765690 -0.233624
v 0.048712 0.952773 -0.159118
v 0.176795 0.847420 -0.154933
v 0.138586 0.750841 -0.208529
v -0.017735 0.748657 -0.225201
v -0.011365 0.755528 -0.224903
v 0.045482 0.760045 -0.231186
v 0.048737 0.871582 -0.166232
v 0.145210 0.794766 -0.186898
v 0.050500 0.747271 -0.221267
v 0.049856 0.783334 -0.202077
v 0.176061 0.792379 -0.188839
v 0.151161 0.767242 -0.216488
vn -0.0018169998082138634 -0.4840419489088909 -0.8750429076383509
vn 0.4236291033311998 -0.4517251101843505 -0.7851641915164876
vn -0.00333600089153635 -0.7315671955091645 -0.6817611821986551
vn 0.00333600089153635 0.7315671955091645 0.6817611821986551
vn -0.4236291033311998 0.4517251101843505 0.7851641915164876
vn 0.0018169998082138634 0.4840419489088909 0.8750429076383509
vn 0.07419397499362977 -0.23326892137893931 -0.9695776732131112
vn -0.07419397499362977 0.23326892137893931 0.9695776732131112
vn 0.603749932651095 -0.653110927144827 -0.4570909490110504
vn 0.7013399466417083 -0.5942809547868095 -0.3936399700516754
vn -0.7013399466417083 0.5942809547868095 0.3936399700516754
vn -0.603749932651095 0.653110927144827 0.4570909490110504
vn -0.17828706120007518 -0.8307642851740129 -0.5272991810044391
vn 0.17828706120007518 0.8307642851740129 0.5272991810044391
vn -0.12929198688352253 -0.2142329782663868 -0.9681879017787947
vn 0.12929198688352253 0.2142329782663868 0.9681879017787947
vn 0.5919520901516465 -0.022852003480257562 -0.8056491226967453
vn -0.5919520901516465 0.022852003480257562 0.8056491226967453
vn 0.0033619987164025832 -0.9983976188158555 -0.0564879784331199
vn -0.0033619987164025832 0.9983976188158555 0.0564879784331199
vn 0.8354050156178969 -0.29215600546185666 -0.4655570087035884
vn -0.8354050156178969 0.29215600546185666 0.4655570087035884
vn -0.1329090845151859 -0.5145163271743478 -0.8471175386712017
vn 0.1329090845151859 0.5145163271743478 0.8471175386712017
vn -0.005155997624199337 -0.9812355478624634 0.19274391118671005
vn 0.005155997624199337 0.9812355478624634 -0.19274391118671005
vn 0.8715780561383444 -0.43648602811406595 0.2232300143782457
vn 0.8664043114048263 -0.1918820689666494 0.461004165695069
vn -0.8664043114048263 0.1918820689666494 -0.461004165695069
vn -0.8715780561383444 0.43648602811406595 -0.2232300143782457
vn -0.6044079958700801 -0.2858909980465068 -0.7436109949189061
vn 0.6044079958700801 0.2858909980465068 0.7436109949189061
vn -0.35063400043390963 0.129520000160281 -0.9275130011477974
vn 0.35063400043390963 -0.129520000160281 0.9275130011477974
vn 0.9989271635653462 -0.011790001930506866 -0.04478300733281501
vn -0.9989271635653462 0.011790001930506866 0.04478300733281501
vn -0.007875996720163926 -0.41821782583970507 0.9083126217473664
vn -0.006673998886623577 -0.37999893660744266 0.924962845694936
vn 0.006673998886623577 0.37999893660744266 -0.924962845694936
vn 0.007875996720163926 0.41821782583970507 -0.9083126217473664
vn -0.6348066254461096 -0.6085776409219533 -0.47608171909830027
vn 0.6348066254461096 0.6085776409219533 0.47608171909830027
vn 0.7603859671011415 0.07505599675262732 0.64511997208824
vn -0.7603859671011415 -0.07505599675262732 -0.64511997208824
vn -0.005458998114926392 -0.3411178822068988 0.9400046754023414
vn 0.005458998114926392 0.3411178822068988 -0.9400046754023414
vn 0.0013559996095575968 0.2662729233301843 -0.9638967224585094
vn -0.0013559996095575968 -0.2662729233301843 0.9638967224585094
vn 0.9888632926096359 0.02187000647144522 -0.14721104356049028
vn -0.9888632926096359 -0.02187000647144522 0.14721104356049028
vn -0.9425029326256515 -0.04482599679563615 0.3311779763259088
vn -0.9569480144728818 -0.028038000424046722 0.2889020043693539
vn 0.9569480144728818 0.028038000424046722 -0.2889020043693539
vn 0.9425029326256515 0.04482599679563615 -0.3311779763259088
vn 0.08620299361153948 0.028462997890621535 0.9958709261965063
vn 0.0900789546233686 0.3280908347265803 0.9403415263096578
vn 0.01252100406048089 0.06153601995573454 0.9980263236535022
vn -0.01252100406048089 -0.06153601995573454 -0.9980263236535022
vn -0.0900789546233686 -0.3280908347265803 -0.9403415263096578
vn -0.08620299361153948 -0.028462997890621535 -0.9958709261965063
vn -0.004941999066219249 -0.6029338860768588 -0.7977758492618632
vn 0.004941999066219249 0.6029338860768588 0.7977758492618632
vn -0.1877420305001034 0.41118006679929114 -0.8920111449139124
vn 0.1877420305001034 -0.41118006679929114 0.8920111449139124
vn 0.8343221900965783 0.20302804625903198 -0.5125291167774663
vn -0.8343221900965783 -0.20302804625903198 0.5125291167774663
vn -0.8914988356031723 0.059527989022742187 -0.44909491718465944
vn 0.8914988356031723 -0.059527989022742187 0.44909491718465944
vn 0.9522778655545636 -0.028178996021605087 0.30392895709040113
vn -0.9522778655545636 0.028178996021605087 -0.30392895709040113
vn -0.9692136538798124 -0.011187996004605115 0.24596691216166483
vn 0.9692136538798124 0.011187996004605115 -0.24596691216166483
vn 0.0982629879841569 0.33762995871376705 0.9361358855269706
vn -0.0982629879841569 -0.33762995871376705 -0.9361358855269706
vn 0.14961194107893927 -0.38994784642842967 0.9086016421691201
vn -0.14961194107893927 0.38994784642842967 -0.9086016421691201
vn 0.027975998762663566 -0.746140966999305 0.6651999705792038
vn 0.006752000259165408 -0.7972950306029745 0.6035520231664396
vn -0.010432000738199696 -0.8802890622918973 0.4743230335645221
vn 0.010432000738199696 0.8802890622918973 -0.4743230335645221
vn -0.006752000259165408 0.7972950306029745 -0.6035520231664396
vn -0.027975998762663566 0.746140966999305 -0.6651999705792038
vn -0.03469700218360385 -0.8811200554519708 0.4716180296805742
vn 0.03469700218360385 0.8811200554519708 -0.4716180296805742
vn -0.4940940345784311 0.42313102961219146 -0.759494053152054
vn 0.4940940345784311 -0.42313102961219146 0.759494053152054
vn 0.2255990066406196 0.5444020160247457 -0.8079180237814713
vn -0.2255990066406196 -0.5444020160247457 0.8079180237814713
vn 0.8468750664415859 0.47650403738412567 -0.23610701852377686
vn -0.8468750664415859 -0.47650403738412567 0.23610701852377686
vn -0.9618216355692176 0.026634989908097456 -0.27237789679698776
vn 0.9618216355692176 -0.026634989908097456 0.27237789679698776
vn 0.4119859468196215 -0.5066789345963673 0.7573269022419777
vn 0.25134598709577166 -0.553750971570149 0.793841959243758
vn -0.25134598709577166 0.553750971570149 -0.793841959243758
vn -0.4119859468196215 0.5066789345963673 -0.7573269022419777
vn 0.10678098814928642 0.28010896891308823 0.954010894122446
vn -0.10678098814928642 -0.28010896891308823 -0.954010894122446
vn 0.09777602531597619 -0.5708121477935588 0.8152382110798745
vn -0.09777602531597619 0.5708121477935588 -0.8152382110798745
vn 0.0406200011327903 -0.573544015994709 0.8181670228166331
vn -0.0406200011327903 0.573544015994709 -0.8181670228166331
vn -0.09089199063803456 0.3322069657823521 0.9388169033009253
vn -0.11324597708779313 0.07605498461236694 0.9906517995688716
vn -0.08518498499607176 0.19929096489818793 0.9762308280530625
vn 0.08518498499607176 -0.19929096489818793 -0.9762308280530625
vn 0.11324597708779313 -0.07605498461236694 -0.9906517995688716
vn 0.09089199063803456 -0.3322069657823521 -0.9388169033009253
vn -0.27999092730904485 0.6191738392507279 -0.7336408095329313
vn 0.27999092730904485 -0.6191738392507279 0.7336408095329313
vn 0.9596461669722098 0.12036402094255909 0.25414904422028556
vn -0.9596461669722098 -0.12036402094255909 -0.25414904422028556
vn -0.999942257720651 0.010742002768595812 -0.00030100007757841553
vn 0.999942257720651 -0.010742002768595812 0.00030100007757841553
vn 0.07671001066675787 0.07583701054536457 0.9941651382416546
vn -0.07671001066675787 -0.07583701054536457 -0.9941651382416546
vn 0.07132302944090448 0.03835901583393372 0.9967154114267642
vn -0.07132302944090448 -0.03835901583393372 -0.9967154114267642
vn -0.06557598707877761 -0.08580198309340731 0.9941518041103594
vn 0.06557598707877761 0.08580198309340731 -0.9941518041103594
vn -0.08432398552760209 0.21870896246331206 0.972139833153113
vn 0.08432398552760209 -0.21870896246331206 -0.972139833153113
vn -0.6732935121128456 0.5812415788162298 -0.45698366885695796
vn 0.6732935121128456 -0.5812415788162298 0.45698366885695796
vn 0.15595899820600365 0.8143099906329923 -0.5590849935688454
vn -0.15595899820600365 -0.8143099906329923 0.5590849935688454
vn 0.7203323123732555 0.5804882517296557 0.37967716464760765
vn -0.7203323123732555 -0.5804882517296557 -0.37967716464760765
vn -0.9848306435834532 -0.05856597880459542 0.163335940887672
vn 0.9848306435834532 0.05856597880459542 -0.163335940887672
vn 0.11017406952041067 -0.7037854440922743 0.7018174428504553
vn -0.11017406952041067 0.7037854440922743 -0.7018174428504553
vn 0.08273399279651704 -0.15367398661991394 0.9846519142683309
vn -0.08273399279651704 0.15367398661991394 -0.9846519142683309
vn -0.07399902505318816 -0.20161106825765646 0.9766663306611857
vn 0.07399902505318816 0.20161106825765646 -0.9766663306611857
vn -0.03520799440608388 0.08777598605397689 0.9955178418301468
vn 0.03520799440608388 -0.08777598605397689 -0.9955178418301468
vn -0.4350619456816493 0.8716958911670313 -0.22553797184113486
vn 0.4350619456816493 -0.8716958911670313 0.22553797184113486
vn 0.41707704904972365 0.9038081062910029 0.0958000112664173
vn -0.41707704904972365 -0.9038081062910029 -0.0958000112664173
vn 0.4060329520795878 -0.44647694730634735 0.7973679058938479
vn -0.4060329520795878 0.44647694730634735 -0.7973679058938479
vn -0.7930141327267866 0.5913580989756134 0.14637002449795306
vn 0.7930141327267866 -0.5913580989756134 -0.14637002449795306
vn -0.03128300200234681 -0.7520300481355647 0.6583860421416459
vn 0.03128300200234681 0.7520300481355647 -0.6583860421416459
vn 0.05514899348784179 -0.28416196644530456 0.9571888869722714
vn -0.05514899348784179 0.28416196644530456 -0.9571888869722714
vn -0.07124403398793631 -0.3317041582439844 0.9406894487687079
vn 0.07124403398793631 0.3317041582439844 -0.9406894487687079
vn -0.05773102222869935 -0.16474406343290168 0.9846453791269453
vn 0.05773102222869935 0.16474406343290168 -0.9846453791269453
vn 0.033761012109081265 0.9966233574594621 0.07484702684542535
vn -0.033761012109081265 -0.9966233574594621 -0.07484702684542535
vn 0.2215981053702565 0.7836723726374772 0.5803032759351437
vn -0.2215981053702565 -0.7836723726374772 -0.5803032759351437
vn 0.1550880359332042 0.23094405350870414 0.9605272225498609
vn -0.1550880359332042 -0.23094405350870414 -0.9605272225498609
vn -0.6120337905911442 0.7103897569384102 0.3475068810996722
vn 0.6120337905911442 -0.7103897569384102 -0.3475068810996722
vn 0.019471997951691963 -0.7927399166097108 0.6092489359115847
vn -0.019471997951691963 0.7927399166097108 -0.6092489359115847
vn 0.9998635046612434 0.015220992459423268 -0.006425996816520198
vn 0.9999854484145754 0.005282002368561315 0.001097000491918168
vn 0.9991705627800432 -0.005656997524594593 0.04032598235403952
vn -0.9991705627800432 0.005656997524594593 -0.04032598235403952
vn -0.9999854484145754 -0.005282002368561315 -0.001097000491918168
vn -0.9998635046612434 -0.015220992459423268 0.006425996816520198
vn 0.09486103805227986 -0.4037741619687885 0.9099273650056067
vn -0.09486103805227986 0.4037741619687885 -0.9099273650056067
vn -0.14311504240463557 -0.4191161241830782 0.8965822656551232
vn 0.14311504240463557 0.4191161241830782 -0.8965822656551232
vn -0.9913811113390448 0.04295600482426031 -0.12376701389990283
vn -0.9985914905921478 -0.01891699034994438 0.04956997471304874
vn -0.9987740155504122 0.019923000310191154 -0.045316000705547484
vn 0.9987740155504122 -0.019923000310191154 0.045316000705547484
vn 0.9985914905921478 0.01891699034994438 -0.04956997471304874
vn 0.9913811113390448 -0.04295600482426031 0.12376701389990283
vn -0.04011301051328048 -0.34205808965052953 0.9388222460573631
vn 0.04011301051328048 0.34205808965052953 -0.9388222460573631
vn -0.03620599221574872 0.9895007872583431 -0.1399189699175646
vn 0.03620599221574872 -0.9895007872583431 0.1399189699175646
vn 0.041242993205341166 -0.01644299729106575 0.9990138354154813
vn 0.09056502006690126 -0.029645006568578235 0.9954492205661877
vn 0.10072999057268063 0.0576539946041629 0.9932419070424944
vn -0.10072999057268063 -0.0576539946041629 -0.9932419070424944
vn -0.09056502006690126 0.029645006568578235 -0.9954492205661877
vn -0.041242993205341166 0.01644299729106575 -0.9990138354154813
vn 0.02066399499521201 -0.7963258071311073 0.604514853587427
vn -0.02066399499521201 0.7963258071311073 -0.604514853587427
vn 0.09933704955156775 0.8587454283616482 0.5026812507487808
vn -0.09933704955156775 -0.8587454283616482 -0.5026812507487808
vn -0.48398001414939784 0.8199650239720877 0.30564800893577243
vn 0.48398001414939784 -0.8199650239720877 -0.30564800893577243
vn 0.997839165655784 -0.01610700267399622 0.06369901057496029
vn -0.997839165655784 0.01610700267399622 -0.06369901057496029
vn 0.0670609944322947 -0.43899796355241516 0.8959819256115518
vn -0.0670609944322947 0.43899796355241516 -0.8959819256115518
vn -0.12089901474865308 -0.43009005246733384 0.8946541091402035
vn 0.12089901474865308 0.43009005246733384 -0.8946541091402035
vn -0.9978685384429993 -0.0255299881912854 0.0600549722219994
vn 0.9978685384429993 0.0255299881912854 -0.0600549722219994
vn -0.06406002709108728 -0.6101662580402804 0.7896793339566455
vn 0.06406002709108728 0.6101662580402804 -0.7896793339566455
vn -0.027042985335918136 0.966642475837293 0.25469786188986715
vn 0.027042985335918136 -0.966642475837293 -0.25469786188986715
vn 0.052670005155814395 0.7977910780949747 0.6006290587949809
vn -0.052670005155814395 -0.7977910780949747 -0.6006290587949809
vn -0.016878001252904718 -0.0721210053537588 0.9972530740290902
vn 0.016878001252904718 0.0721210053537588 -0.9972530740290902
vn 0.9925637214841774 -0.027504992282031487 0.11857796672673077
vn -0.9925637214841774 0.027504992282031487 -0.11857796672673077
vn -0.11401199336484422 0.21650698739994323 0.9696009435721356
vn -0.09491898816730476 0.145868981815828 0.9847398772413498
vn -0.1429270189193222 0.5183970686204836 0.8431111116030466
vn 0.1429270189193222 -0.5183970686204836 -0.8431111116030466
vn 0.09491898816730476 -0.145868981815828 -0.9847398772413498
vn 0.11401199336484422 -0.21650698739994323 -0.9696009435721356
vn 0.1072569657115624 -0.46495985135933365 0.8788107190574402
vn -0.1072569657115624 0.46495985135933365 -0.8788107190574402
vn -0.977406206288932 -0.06700501414191226 0.2004680423102883
vn -0.9879384691834517 -0.05749302730410632 0.14377806828187428
vn 0.9879384691834517 0.05749302730410632 -0.14377806828187428
vn 0.977406206288932 0.06700501414191226 -0.2004680423102883
vn -0.0005419999145011462 -0.6349428998396703 0.7725588781311643
vn 0.0005419999145011462 0.6349428998396703 -0.7725588781311643
vn -0.027184004377970663 -0.7564191218209311 0.6535221052494168
vn -0.03429499435768511 -0.7778698720225257 0.6274888967636528
vn -0.02280000045315001 -0.7489050148844874 0.6622850131629148
vn 0.02280000045315001 0.7489050148844874 -0.6622850131629148
vn 0.03429499435768511 0.7778698720225257 -0.6274888967636528
vn 0.027184004377970663 0.7564191218209311 -0.6535221052494168
usemtl material_0_0
f 1//1 2//2 3//3
f 3//4 2//5 1//6
f 1//1 4//7 2//2
f 2//5 4//8 1//6
f 5//9 3//10 2//2
f 2//5 3//11 5//12
f 6//13 1//1 3//3
f 3//4 1//6 6//14
f 7//15 4//7 1//1
f 1//6 4//8 7//16
f 4//7 8//17 2//2
f 2//5 8//18 4//8
f 3//3 5//19 6//13
f 6//14 5//20 3//4
f 2//2 9//21 5//9
f 5//12 9//22 2//5
f 10//23 1//1 6//13
f 6//14 1//6 10//24
f 7//15 8//17 4//7
f 4//8 8//18 7//16
f 7//15 1//1 10//23
f 10//24 1//6 7//16
f 9//21 2//2 8//17
f 8//18 2//5 9//22
f 6//13 5//19 11//25
f 11//26 5//20 6//14
f 5//27 9//28 12//28
f 12//29 9//29 5//30
f 13//31 10//23 6//13
f 6//14 10//24 13//32
f 14//33 8//17 7//15
f 7//16 8//18 14//34
f 13//31 7//15 10//23
f 10//24 7//16 13//32
f 9//21 8//17 15//35
f 15//36 8//18 9//22
f 11//37 5//38 16//38
f 16//39 5//39 11//40
f 6//13 11//41 13//31
f 13//32 11//42 6//14
f 12//28 9//28 15//43
f 15//44 9//29 12//29
f 16//38 5//38 12//45
f 12//46 5//39 16//39
f 14//33 17//47 8//17
f 8//18 17//48 14//34
f 13//31 14//33 7//15
f 7//16 14//34 13//32
f 15//35 8//17 18//49
f 18//50 8//18 15//36
f 11//51 19//52 13//52
f 13//53 19//53 11//54
f 20//55 12//56 15//57
f 15//58 12//59 20//60
f 16//61 12//61 21//61
f 21//62 12//62 16//62
f 14//33 22//63 17//47
f 17//48 22//64 14//34
f 8//17 17//65 18//49
f 18//50 17//66 8//18
f 13//31 23//67 14//33
f 14//34 23//68 13//32
f 15//35 18//49 24//69
f 24//70 18//50 15//36
f 13//52 19//52 25//71
f 25//72 19//53 13//53
f 26//73 12//56 20//55
f 20//60 12//59 26//74
f 20//55 15//57 24//75
f 24//76 15//58 20//60
f 12//77 27//78 21//79
f 21//80 27//81 12//82
f 16//83 21//79 27//78
f 27//81 21//80 16//84
f 23//85 22//63 14//33
f 14//34 22//64 23//86
f 22//63 28//87 17//47
f 17//48 28//88 22//64
f 18//49 17//65 29//89
f 29//90 17//66 18//50
f 13//31 25//91 23//67
f 23//68 25//92 13//32
f 24//75 18//93 30//94
f 30//95 18//96 24//76
f 31//97 12//56 26//73
f 26//74 12//59 31//98
f 32//99 20//55 24//75
f 24//76 20//60 32//100
f 27//78 12//77 31//101
f 31//102 12//82 27//81
f 16//103 27//104 33//105
f 33//106 27//107 16//108
f 23//85 34//109 22//63
f 22//64 34//110 23//86
f 34//109 28//87 22//63
f 22//64 28//88 34//110
f 17//65 28//87 29//89
f 29//90 28//88 17//66
f 18//49 29//89 30//111
f 30//112 29//90 18//50
f 25//91 35//113 23//67
f 23//68 35//114 25//92
f 32//99 24//75 30//94
f 30//95 24//76 32//100
f 36//115 31//97 26//73
f 26//74 31//98 36//116
f 27//117 31//97 36//115
f 36//116 31//98 27//118
f 33//105 27//104 37//119
f 37//120 27//107 33//106
f 16//103 33//105 38//121
f 38//122 33//106 16//108
f 35//123 34//109 23//85
f 23//86 34//110 35//124
f 34//109 39//125 28//87
f 28//88 39//126 34//110
f 28//87 39//125 29//89
f 29//90 39//126 28//88
f 30//111 29//89 40//127
f 40//128 29//90 30//112
f 25//91 41//129 35//113
f 35//114 41//130 25//92
f 42//131 32//99 30//94
f 30//95 32//100 42//132
f 27//117 36//115 43//133
f 43//134 36//116 27//118
f 37//119 27//104 44//135
f 44//136 27//107 37//120
f 45//137 16//103 38//121
f 38//122 16//108 45//138
f 34//109 35//123 46//139
f 46//140 35//124 34//110
f 34//109 46//139 39//125
f 39//126 46//140 34//110
f 29//89 39//125 47//141
f 47//142 39//126 29//90
f 29//89 47//141 40//127
f 40//128 47//142 29//90
f 42//131 30//94 40//143
f 40//144 30//95 42//132
f 35//123 41//145 46//139
f 46//140 41//146 35//124
f 32//99 42//131 48//147
f 48//148 42//132 32//100
f 43//133 36//115 49//149
f 49//150 36//116 43//134
f 37//119 44//135 50//151
f 50//152 44//136 37//120
f 45//137 38//121 51//153
f 51//154 38//122 45//138
f 39//125 46//139 52//155
f 52//156 46//140 39//126
f 39//125 52//155 47//141
f 47//142 52//156 39//126
f 47//141 53//157 40//127
f 40//128 53//158 47//142
f 54//159 42//159 40//159
f 40//160 42//160 54//160
f 41//145 55//161 46//139
f 46//140 55//162 41//146
f 48//147 42//131 56//163
f 56//164 42//132 48//148
f 36//165 57//166 49//167
f 49//168 57//169 36//170
f 43//133 49//149 58//171
f 58//172 49//150 43//134
f 50//151 44//135 59//173
f 59//174 44//136 50//152
f 37//175 50//176 60//177
f 60//178 50//179 37//180
f 45//137 51//153 61//181
f 61//182 51//154 45//138
f 46//139 62//183 52//155
f 52//156 62//184 46//140
f 47//141 52//155 53//157
f 53//158 52//156 47//142
f 63//185 40//186 53//187
f 53//188 40//189 63//190
f 56//163 42//131 54//191
f 54//192 42//132 56//164
f 40//193 64//193 54//193
f 54//194 64//194 40//194
f 46//139 55//161 62//195
f 62//196 55//162 46//140
f 57//166 56//197 49//167
f 49//168 56//198 57//169
f 58//171 49//149 54//199
f 54//200 49//150 58//172
f 50//151 59//173 65//201
f 65//202 59//174 50//152
f 60//177 50//176 66//203
f 66//204 50//179 60//178
f 61//181 51//153 67//205
f 67//206 51//154 61//182
f 62//183 68//207 52//155
f 52//156 68//208 62//184
f 63//209 53//157 52//155
f 52//156 53//158 63//210
f 64//211 40//186 63//185
f 63//190 40//189 64//212
f 49//167 56//197 54//213
f 54//214 56//198 49//168
f 55//215 68//216 62//217
f 62//218 68//219 55//220
f 59//221 58//171 54//199
f 54//200 58//172 59//222
f 50//176 65//223 69//224
f 69//225 65//226 50//179
f 66//203 50//176 69//224
f 69//225 50//179 66//204
f 61//181 67//205 70//227
f 70//228 67//206 61//182
f 52//155 68//207 63//209
f 63//210 68//208 52//156
f 68//216 64//211 63//185
f 63//190 64//212 68//219
f 55//215 64//211 68//216
f 68//219 64//212 55//220
f 69//229 65//230 71//231
f 71//232 65//233 69//234
f 67//205 71//231 70//227
f 70//228 71//232 67//206
f 67//205 69//229 71//231
f 71//232 69//234 67//206
