mtllib new-0.mtl
v 0.039763 -0.687652 0.086870
v 0.038943 -0.687652 0.081690
v -0.028933 -0.687652 0.086870
v 0.038943 -0.721179 0.081690
v 0.038943 -0.716340 0.045196
v -0.028112 -0.687652 0.081690
v -0.028112 -0.721179 0.081690
v 0.038943 -0.688203 0.049526
v 0.038943 -0.714723 0.008418
v -0.028112 -0.688203 0.049526
v -0.028112 -0.716340 0.045196
v 0.038943 -0.689199 0.017373
v 0.038943 -0.690638 -0.014763
v -0.028112 -0.689199 0.017373
v -0.028112 -0.714723 0.008418
v 0.038943 -0.716241 -0.022614
v 0.038943 -0.692521 -0.046876
v -0.028112 -0.690638 -0.014763
v 0.038943 -0.718178 -0.053624
v -0.028112 -0.716241 -0.022614
v 0.038943 -0.694846 -0.078959
v -0.028112 -0.692521 -0.046876
v 0.038943 -0.720532 -0.084604
v -0.028112 -0.718178 -0.053624
v 0.038943 -0.697614 -0.111008
v -0.028112 -0.694846 -0.078959
v 0.038943 -0.723303 -0.115549
v -0.028112 -0.720532 -0.084604
v 0.038943 -0.700825 -0.143016
v -0.028112 -0.697614 -0.111008
v 0.038943 -0.726492 -0.146455
v -0.028112 -0.723303 -0.115549
v 0.038943 -0.704477 -0.174976
v -0.028112 -0.700825 -0.143016
v 0.038943 -0.730096 -0.177315
v -0.028112 -0.726492 -0.146455
v 0.038943 -0.708569 -0.206883
v -0.028112 -0.704477 -0.174976
v 0.038943 -0.734117 -0.208123
v -0.028112 -0.730096 -0.177315
v 0.038943 -0.713102 -0.238730
v -0.028112 -0.708569 -0.206883
v 0.038943 -0.736868 -0.222647
v -0.028112 -0.734117 -0.208123
v 0.038943 -0.741917 -0.236541
v -0.028112 -0.713102 -0.238730
v 0.038943 -0.718074 -0.270512
v -0.028112 -0.736868 -0.222647
v 0.038943 -0.749133 -0.249443
v -0.028112 -0.718074 -0.270512
v -0.028112 -0.741917 -0.236541
v 0.038943 -0.758326 -0.261018
v 0.038943 -0.723484 -0.302221
v 0.038943 -0.760784 -0.264413
v -0.028112 -0.723484 -0.302221
v 0.038943 -0.762846 -0.272468
v -0.028112 -0.749133 -0.249443
v 0.038943 -0.762322 -0.268310
v 0.036390 -0.725717 -0.314856
v -0.028112 -0.762846 -0.296880
v 0.038943 -0.762846 -0.296880
v -0.028112 -0.758326 -0.261018
v -0.025560 -0.725717 -0.314856
v -0.028112 -0.762846 -0.272468
v -0.025560 -0.762846 -0.309711
v -0.028112 -0.760784 -0.264413
v 0.029123 -0.727610 -0.325567
v 0.036390 -0.762846 -0.309711
v -0.028112 -0.762322 -0.268310
v -0.018292 -0.727610 -0.325567
v -0.018292 -0.762846 -0.320588
v 0.018246 -0.728875 -0.332724
v 0.029123 -0.762846 -0.320588
v -0.007415 -0.728875 -0.332724
v -0.007415 -0.762846 -0.327855
v 0.005415 -0.729319 -0.335237
v 0.018246 -0.762846 -0.327855
v 0.005415 -0.762846 -0.330408
vn 0.000000 1.000000 0.000000
vn 0.000000 -1.000000 0.000000
vn 1.000000 0.000000 0.000000
vn -1.000000 0.000000 0.000000
vn 0.000000 0.999853 -0.017146
vn 0.000000 -0.999853 0.017146
vn 0.000000 0.999521 -0.030944
vn 0.000000 -0.999521 0.030944
vn 0.000000 0.998999 -0.044738
vn 0.000000 -0.998999 0.044738
vn 0.000000 0.998286 -0.058522
vn 0.000000 -0.998286 0.058522
vn 0.000000 0.997383 -0.072297
vn 0.000000 -0.997383 0.072297
vn 0.000000 0.996290 -0.086057
vn 0.000000 -0.996290 0.086057
vn 0.000000 0.995008 -0.099800
vn 0.000000 -0.995008 0.099800
vn 0.000000 0.993535 -0.113524
vn 0.000000 -0.993535 0.113524
vn 0.000000 0.991874 -0.127228
vn 0.000000 -0.991874 0.127228
vn 0.000000 0.990023 -0.140905
vn 0.000000 -0.990023 0.140905
vn 0.000000 0.987984 -0.154559
vn 0.000000 -0.987984 0.154559
vn 0.000000 0.985756 -0.168180
vn 0.000000 -0.985756 0.168180
vn 0.995177 -0.013190 -0.097202
vn -0.995177 0.013190 0.097202
vn 0.000000 0.984740 -0.174031
vn 0.000000 -0.984740 0.174031
vn -0.995098 -0.013297 -0.097991
vn -0.991350 -0.017831 -0.130026
vn 0.991350 0.017831 0.130026
vn 0.995098 0.013297 0.097991
vn 0.991346 -0.017837 -0.130057
vn -0.991346 0.017837 0.130057
vn 0.946926 -0.043940 -0.318434
vn -0.946926 0.043940 0.318434
vn -0.946506 -0.044108 -0.319658
vn 0.946506 0.044108 0.319658
vn 0.000000 0.984739 -0.174035
vn 0.000000 -0.984739 0.174035
vn -0.895821 -0.061506 -0.440139
vn 0.895821 0.061506 0.440139
vn 0.895541 -0.061586 -0.440696
vn -0.895541 0.061586 0.440696
vn 0.751194 -0.091862 -0.653658
vn -0.751194 0.091862 0.653658
vn -0.750316 -0.091999 -0.654647
vn 0.750316 0.091999 0.654647
vn 0.000000 0.984740 -0.174034
vn 0.000000 -0.984740 0.174034
vn -0.657492 -0.105976 -0.745971
vn 0.657492 0.105976 0.745971
vn 0.656390 -0.106112 -0.746922
vn -0.656390 0.106112 0.746922
vn 0.441441 -0.126747 -0.888293
vn -0.441441 0.126747 0.888293
vn -0.440950 -0.126780 -0.888532
vn 0.440950 0.126780 0.888532
vn 0.000000 0.984741 -0.174027
vn 0.000000 -0.984741 0.174027
vn -0.319999 -0.134642 -0.937802
vn 0.319999 0.134642 0.937802
vn 0.318613 -0.134708 -0.938264
vn -0.318613 0.134708 0.938264
vn 0.065501 -0.142034 -0.987692
vn -0.065501 0.142034 0.987692
vn -0.066116 -0.142029 -0.987652
vn 0.066116 0.142029 0.987652
usemtl material-0
f 2//1 3//1 1//1
f 1//2 3//2 2//2
f 5//3 2//3 4//3
f 4//4 2//4 5//4
f 3//1 2//1 6//1
f 6//2 2//2 3//2
f 2//3 5//3 8//3
f 8//4 5//4 2//4
f 8//5 6//5 2//5
f 2//6 6//6 8//6
f 9//3 8//3 5//3
f 5//4 8//4 9//4
f 6//5 8//5 10//5
f 10//6 8//6 6//6
f 6//4 11//4 7//4
f 7//3 11//3 6//3
f 8//3 9//3 12//3
f 12//4 9//4 8//4
f 12//7 10//7 8//7
f 8//8 10//8 12//8
f 11//4 6//4 10//4
f 10//3 6//3 11//3
f 9//3 13//3 12//3
f 12//4 13//4 9//4
f 10//7 12//7 14//7
f 14//8 12//8 10//8
f 10//4 15//4 11//4
f 11//3 15//3 10//3
f 13//3 9//3 16//3
f 16//4 9//4 13//4
f 13//9 14//9 12//9
f 12//10 14//10 13//10
f 15//4 10//4 14//4
f 14//3 10//3 15//3
f 16//3 17//3 13//3
f 13//4 17//4 16//4
f 14//9 13//9 18//9
f 18//10 13//10 14//10
f 18//4 15//4 14//4
f 14//3 15//3 18//3
f 17//3 16//3 19//3
f 19//4 16//4 17//4
f 17//11 18//11 13//11
f 13//12 18//12 17//12
f 15//4 18//4 20//4
f 20//3 18//3 15//3
f 19//3 21//3 17//3
f 17//4 21//4 19//4
f 18//11 17//11 22//11
f 22//12 17//12 18//12
f 22//4 20//4 18//4
f 18//3 20//3 22//3
f 21//3 19//3 23//3
f 23//4 19//4 21//4
f 21//13 22//13 17//13
f 17//14 22//14 21//14
f 20//4 22//4 24//4
f 24//3 22//3 20//3
f 23//3 25//3 21//3
f 21//4 25//4 23//4
f 22//13 21//13 26//13
f 26//14 21//14 22//14
f 26//4 24//4 22//4
f 22//3 24//3 26//3
f 25//3 23//3 27//3
f 27//4 23//4 25//4
f 25//15 26//15 21//15
f 21//16 26//16 25//16
f 24//4 26//4 28//4
f 28//3 26//3 24//3
f 27//3 29//3 25//3
f 25//4 29//4 27//4
f 26//15 25//15 30//15
f 30//16 25//16 26//16
f 30//4 28//4 26//4
f 26//3 28//3 30//3
f 29//3 27//3 31//3
f 31//4 27//4 29//4
f 29//17 30//17 25//17
f 25//18 30//18 29//18
f 28//4 30//4 32//4
f 32//3 30//3 28//3
f 31//3 33//3 29//3
f 29//4 33//4 31//4
f 30//17 29//17 34//17
f 34//18 29//18 30//18
f 34//4 32//4 30//4
f 30//3 32//3 34//3
f 33//3 31//3 35//3
f 35//4 31//4 33//4
f 33//19 34//19 29//19
f 29//20 34//20 33//20
f 32//4 34//4 36//4
f 36//3 34//3 32//3
f 35//3 37//3 33//3
f 33//4 37//4 35//4
f 34//19 33//19 38//19
f 38//20 33//20 34//20
f 38//4 36//4 34//4
f 34//3 36//3 38//3
f 37//3 35//3 39//3
f 39//4 35//4 37//4
f 37//21 38//21 33//21
f 33//22 38//22 37//22
f 36//4 38//4 40//4
f 40//3 38//3 36//3
f 39//3 41//3 37//3
f 37//4 41//4 39//4
f 38//21 37//21 42//21
f 42//22 37//22 38//22
f 42//4 40//4 38//4
f 38//3 40//3 42//3
f 41//3 39//3 43//3
f 43//4 39//4 41//4
f 41//23 42//23 37//23
f 37//24 42//24 41//24
f 40//4 42//4 44//4
f 44//3 42//3 40//3
f 41//3 43//3 45//3
f 45//4 43//4 41//4
f 42//23 41//23 46//23
f 46//24 41//24 42//24
f 46//4 44//4 42//4
f 42//3 44//3 46//3
f 45//3 47//3 41//3
f 41//4 47//4 45//4
f 47//25 46//25 41//25
f 41//26 46//26 47//26
f 44//4 46//4 48//4
f 48//3 46//3 44//3
f 47//3 45//3 49//3
f 49//4 45//4 47//4
f 46//25 47//25 50//25
f 50//26 47//26 46//26
f 46//4 51//4 48//4
f 48//3 51//3 46//3
f 52//3 47//3 49//3
f 49//4 47//4 52//4
f 53//27 50//27 47//27
f 47//28 50//28 53//28
f 50//4 51//4 46//4
f 46//3 51//3 50//3
f 47//3 52//3 54//3
f 54//4 52//4 47//4
f 50//27 53//27 55//27
f 55//28 53//28 50//28
f 56//3 53//29 47//3
f 47//4 53//30 56//4
f 51//4 50//4 57//4
f 57//3 50//3 51//3
f 58//3 47//3 54//3
f 54//4 47//4 58//4
f 59//31 55//31 53//31
f 53//32 55//32 59//32
f 60//33 50//4 55//34
f 55//35 50//3 60//36
f 53//29 56//3 61//37
f 61//38 56//4 53//30
f 47//3 58//3 56//3
f 56//4 58//4 47//4
f 50//4 62//4 57//4
f 57//3 62//3 50//3
f 55//31 59//31 63//31
f 63//32 59//32 55//32
f 53//29 61//37 59//39
f 59//40 61//38 53//30
f 50//4 60//33 64//4
f 64//3 60//36 50//3
f 55//34 65//41 60//33
f 60//36 65//42 55//35
f 62//4 50//4 66//4
f 66//3 50//3 62//3
f 67//43 63//43 59//43
f 59//44 63//44 67//44
f 55//34 63//45 65//41
f 65//42 63//46 55//35
f 59//39 61//37 68//47
f 68//48 61//38 59//40
f 69//4 50//4 64//4
f 64//3 50//3 69//3
f 50//4 69//4 66//4
f 66//3 69//3 50//3
f 63//43 67//43 70//43
f 70//44 67//44 63//44
f 59//39 68//47 67//49
f 67//50 68//48 59//40
f 63//45 71//51 65//41
f 65//42 71//52 63//46
f 72//53 70//53 67//53
f 67//54 70//54 72//54
f 63//45 70//55 71//51
f 71//52 70//56 63//46
f 67//49 68//47 73//57
f 73//58 68//48 67//50
f 70//53 72//53 74//53
f 74//54 72//54 70//54
f 73//57 72//59 67//49
f 67//50 72//60 73//58
f 75//61 71//51 70//55
f 70//56 71//52 75//62
f 72//63 76//63 74//63
f 74//64 76//64 72//64
f 75//61 70//55 74//65
f 74//66 70//56 75//62
f 73//57 77//67 72//59
f 72//60 77//68 73//58
f 77//67 76//69 72//59
f 72//60 76//70 77//68
f 78//71 74//65 76//69
f 76//70 74//66 78//72
f 78//71 75//61 74//65
f 74//66 75//62 78//72
f 77//67 78//71 76//69
f 76//70 78//72 77//68