mtllib new-2.mtl
v 0.070024 -0.721179 0.177349
v 0.070024 -0.687652 0.177349
v 0.070845 -0.721179 0.182529
v 0.070845 -0.687652 0.182529
v 0.073226 -0.721179 0.187202
v 0.015269 -0.721179 0.222907
v 0.015269 -0.687652 0.222907
v 0.073226 -0.687652 0.187202
v 0.094676 -0.716340 0.216726
v 0.018977 -0.687652 0.226616
v 0.092131 -0.688203 0.213223
v 0.018977 -0.721179 0.226616
v 0.116294 -0.714723 0.246480
v 0.040428 -0.716340 0.256140
v 0.037883 -0.688203 0.252637
v 0.111030 -0.689199 0.239235
v 0.129919 -0.690638 0.265234
v 0.062045 -0.714723 0.285894
v 0.056781 -0.689199 0.278649
v 0.134534 -0.716241 0.271586
v 0.148794 -0.692521 0.291213
v 0.075670 -0.690638 0.304647
v 0.152761 -0.718178 0.296673
v 0.080286 -0.716241 0.311000
v 0.167653 -0.694846 0.317170
v 0.094546 -0.692521 0.330627
v 0.170970 -0.720532 0.321736
v 0.098512 -0.718178 0.336087
v 0.186491 -0.697614 0.343098
v 0.113404 -0.694846 0.356584
v 0.189160 -0.723303 0.346772
v 0.116722 -0.720532 0.361150
v 0.205304 -0.700825 0.368993
v 0.132242 -0.697614 0.382512
v 0.207326 -0.726492 0.371775
v 0.134912 -0.723303 0.386186
v 0.224090 -0.704477 0.394849
v 0.151056 -0.700825 0.408406
v 0.225465 -0.730096 0.396741
v 0.153077 -0.726492 0.411189
v 0.242844 -0.708569 0.420662
v 0.169842 -0.704477 0.434263
v 0.243573 -0.734117 0.421666
v 0.171216 -0.730096 0.436155
v 0.261564 -0.713102 0.446427
v 0.188596 -0.708569 0.460076
v 0.252110 -0.736868 0.433416
v 0.189325 -0.734117 0.461079
v 0.260277 -0.741917 0.444656
v 0.207315 -0.713102 0.485841
v 0.280244 -0.718074 0.472139
v 0.197862 -0.736868 0.472830
v 0.267860 -0.749133 0.455094
v 0.225996 -0.718074 0.511553
v 0.206028 -0.741917 0.484070
v 0.274664 -0.758326 0.464458
v 0.298883 -0.723484 0.497793
v 0.276659 -0.760784 0.467205
v 0.213612 -0.749133 0.494507
v 0.244635 -0.723484 0.537206
v 0.295743 -0.762846 0.493472
v 0.278951 -0.762322 0.470358
v 0.220416 -0.758326 0.503872
v 0.227146 -0.762846 0.513136
v 0.304245 -0.725717 0.509514
v 0.281394 -0.762846 0.473722
v 0.301220 -0.762846 0.505352
v 0.222411 -0.760784 0.506618
v 0.241495 -0.762846 0.532885
v 0.224702 -0.762322 0.509772
v 0.254126 -0.725717 0.545928
v 0.304661 -0.727610 0.522452
v 0.301734 -0.762846 0.518423
v 0.251101 -0.762846 0.541765
v 0.266301 -0.727610 0.550321
v 0.300068 -0.728875 0.534635
v 0.297206 -0.762846 0.530696
v 0.263374 -0.762846 0.546293
v 0.279308 -0.728875 0.549718
v 0.291165 -0.729319 0.544210
v 0.288326 -0.762846 0.540303
v 0.276446 -0.762846 0.545779
vn 0.000000 1.000000 0.000000
vn 0.000000 -1.000000 0.000000
vn 0.707110 0.000000 -0.707104
vn -0.707110 0.000000 0.707104
vn 0.987688 0.000000 -0.156436
vn -0.987688 0.000000 0.156436
vn 0.891008 0.000000 -0.453987
vn -0.891008 0.000000 0.453987
vn 0.809017 0.000000 -0.587786
vn -0.809017 0.000000 0.587786
vn 0.010078 0.999853 0.013872
vn -0.010078 -0.999853 -0.013872
vn 0.809017 0.000001 -0.587785
vn -0.809017 -0.000001 0.587785
vn -0.809017 0.000000 0.587785
vn 0.809017 0.000000 -0.587785
vn 0.018189 0.999521 0.025034
vn -0.018189 -0.999521 -0.025034
vn 0.026296 0.998999 0.036193
vn -0.026296 -0.998999 -0.036193
vn 0.034399 0.998286 0.047346
vn -0.034399 -0.998286 -0.047346
vn 0.042495 0.997383 0.058489
vn -0.042495 -0.997383 -0.058489
vn 0.050583 0.996290 0.069622
vn -0.050583 -0.996290 -0.069622
vn 0.058661 0.995008 0.080740
vn -0.058661 -0.995008 -0.080740
vn 0.066728 0.993535 0.091843
vn -0.066728 -0.993535 -0.091843
vn 0.074783 0.991874 0.102929
vn -0.074783 -0.991874 -0.102929
vn 0.082822 0.990023 0.113995
vn -0.082822 -0.990023 -0.113995
vn 0.090847 0.987984 0.125041
vn -0.090847 -0.987984 -0.125041
vn -0.809017 -0.000001 0.587786
vn 0.809017 0.000001 -0.587786
vn 0.098854 0.985756 0.136061
vn -0.098854 -0.985756 -0.136061
vn 0.862650 -0.013297 -0.505627
vn 0.878447 -0.017831 -0.477506
vn -0.878447 0.017831 0.477506
vn -0.862650 0.013297 0.505627
vn 0.809015 0.000000 -0.587788
vn -0.809015 0.000000 0.587788
vn -0.809018 0.000000 0.587784
vn 0.809018 0.000000 -0.587784
vn -0.747980 -0.013190 0.663590
vn 0.747980 0.013190 -0.663590
vn 0.102293 0.984740 0.140794
vn -0.102293 -0.984740 -0.140794
vn 0.953630 -0.044108 -0.297732
vn -0.953630 0.044108 0.297732
vn -0.725570 -0.017837 0.687918
vn 0.725570 0.017837 -0.687918
vn 0.983441 -0.061506 -0.170470
vn -0.983441 0.061506 0.170470
vn -0.578908 -0.043940 0.814208
vn 0.578908 0.043940 -0.814208
vn 0.102296 0.984739 0.140798
vn -0.102296 -0.984739 -0.140798
vn 0.991810 -0.091998 0.088595
vn -0.991810 0.091998 -0.088595
vn -0.465473 -0.061586 0.882917
vn 0.465473 0.061586 -0.882917
vn 0.970393 -0.105975 0.217039
vn -0.970393 0.105975 -0.217039
vn -0.223518 -0.091862 0.970361
vn 0.223518 0.091862 -0.970361
vn 0.102295 0.984740 0.140797
vn -0.102295 -0.984740 -0.140797
vn 0.879003 -0.126778 0.459654
vn -0.879003 0.126778 -0.459654
vn -0.092002 -0.106111 0.990089
vn 0.092002 0.106111 -0.990089
vn 0.810111 -0.134641 0.570606
vn -0.810111 0.134641 -0.570606
vn 0.164990 -0.126746 0.978117
vn -0.164990 0.126746 -0.978117
vn 0.102290 0.984741 0.140789
vn -0.102290 -0.984741 -0.140789
vn 0.634017 -0.142028 0.760165
vn -0.634017 0.142028 -0.760165
vn 0.293734 -0.134708 0.946348
vn -0.293734 0.134708 -0.946348
vn 0.527560 -0.142034 0.837560
vn -0.527560 0.142034 -0.837560
usemtl material-0
f 2//5 3//5 1//5
f 1//6 3//6 2//6
f 3//5 2//5 4//5
f 4//6 2//6 3//6
f 4//7 5//7 3//7
f 3//8 5//8 4//8
f 5//7 4//7 8//7
f 8//8 4//8 5//8
f 8//9 9//9 5//9
f 5//10 9//10 8//10
f 8//1 7//1 10//1
f 10//2 7//2 8//2
f 9//9 8//9 11//9
f 11//10 8//10 9//10
f 10//4 6//4 12//4
f 12//3 6//3 10//3
f 10//11 11//11 8//11
f 8//12 11//12 10//12
f 11//13 13//13 9//13
f 9//14 13//14 11//14
f 14//15 10//15 12//15
f 12//16 10//16 14//16
f 11//11 10//11 15//11
f 15//12 10//12 11//12
f 13//13 11//13 16//13
f 16//14 11//14 13//14
f 10//15 14//15 15//15
f 15//16 14//16 10//16
f 15//17 16//17 11//17
f 11//18 16//18 15//18
f 17//16 13//16 16//16
f 16//15 13//15 17//15
f 18//15 15//15 14//15
f 14//16 15//16 18//16
f 16//17 15//17 19//17
f 19//18 15//18 16//18
f 13//16 17//16 20//16
f 20//15 17//15 13//15
f 19//19 17//19 16//19
f 16//20 17//20 19//20
f 15//15 18//15 19//15
f 19//16 18//16 15//16
f 21//16 20//16 17//16
f 17//15 20//15 21//15
f 17//19 19//19 22//19
f 22//20 19//20 17//20
f 18//15 22//15 19//15
f 19//16 22//16 18//16
f 20//16 21//16 23//16
f 23//15 21//15 20//15
f 22//21 21//21 17//21
f 17//22 21//22 22//22
f 22//15 18//15 24//15
f 24//16 18//16 22//16
f 25//16 23//16 21//16
f 21//15 23//15 25//15
f 21//21 22//21 26//21
f 26//22 22//22 21//22
f 24//15 26//15 22//15
f 22//16 26//16 24//16
f 23//16 25//16 27//16
f 27//15 25//15 23//15
f 26//23 25//23 21//23
f 21//24 25//24 26//24
f 26//15 24//15 28//15
f 28//16 24//16 26//16
f 29//16 27//16 25//16
f 25//15 27//15 29//15
f 25//23 26//23 30//23
f 30//24 26//24 25//24
f 28//10 30//10 26//10
f 26//9 30//9 28//9
f 27//16 29//16 31//16
f 31//15 29//15 27//15
f 30//25 29//25 25//25
f 25//26 29//26 30//26
f 30//10 28//10 32//10
f 32//9 28//9 30//9
f 33//16 31//16 29//16
f 29//15 31//15 33//15
f 29//25 30//25 34//25
f 34//26 30//26 29//26
f 32//15 34//15 30//15
f 30//16 34//16 32//16
f 31//16 33//16 35//16
f 35//15 33//15 31//15
f 34//27 33//27 29//27
f 29//28 33//28 34//28
f 34//15 32//15 36//15
f 36//16 32//16 34//16
f 37//16 35//16 33//16
f 33//15 35//15 37//15
f 33//27 34//27 38//27
f 38//28 34//28 33//28
f 36//15 38//15 34//15
f 34//16 38//16 36//16
f 35//16 37//16 39//16
f 39//15 37//15 35//15
f 38//29 37//29 33//29
f 33//30 37//30 38//30
f 38//15 36//15 40//15
f 40//16 36//16 38//16
f 41//16 39//16 37//16
f 37//15 39//15 41//15
f 37//29 38//29 42//29
f 42//30 38//30 37//30
f 40//15 42//15 38//15
f 38//16 42//16 40//16
f 39//16 41//16 43//16
f 43//15 41//15 39//15
f 42//31 41//31 37//31
f 37//32 41//32 42//32
f 42//15 40//15 44//15
f 44//16 40//16 42//16
f 45//16 43//16 41//16
f 41//15 43//15 45//15
f 41//31 42//31 46//31
f 46//32 42//32 41//32
f 44//15 46//15 42//15
f 42//16 46//16 44//16
f 43//16 45//16 47//16
f 47//15 45//15 43//15
f 46//33 45//33 41//33
f 41//34 45//34 46//34
f 46//15 44//15 48//15
f 48//16 44//16 46//16
f 45//16 49//16 47//16
f 47//15 49//15 45//15
f 45//33 46//33 50//33
f 50//34 46//34 45//34
f 48//15 50//15 46//15
f 46//16 50//16 48//16
f 51//16 49//16 45//16
f 45//15 49//15 51//15
f 50//35 51//35 45//35
f 45//36 51//36 50//36
f 50//15 48//15 52//15
f 52//16 48//16 50//16
f 49//16 51//16 53//16
f 53//15 51//15 49//15
f 51//35 50//35 54//35
f 54//36 50//36 51//36
f 50//37 52//37 55//37
f 55//38 52//38 50//38
f 51//16 56//16 53//16
f 53//15 56//15 51//15
f 55//14 54//14 50//14
f 50//13 54//13 55//13
f 54//39 57//39 51//39
f 51//40 57//40 54//40
f 56//16 51//16 58//16
f 58//15 51//15 56//15
f 54//14 55//14 59//14
f 59//13 55//13 54//13
f 57//39 54//39 60//39
f 60//40 54//40 57//40
f 61//41 51//9 57//42
f 57//43 51//10 61//44
f 51//45 62//45 58//45
f 58//46 62//46 51//46
f 63//47 54//47 59//47
f 59//48 54//48 63//48
f 64//10 60//49 54//10
f 54//9 60//50 64//9
f 60//51 65//51 57//51
f 57//52 65//52 60//52
f 51//9 61//41 66//9
f 66//10 61//44 51//10
f 57//42 67//53 61//41
f 61//44 67//54 57//43
f 62//45 51//45 66//45
f 66//46 51//46 62//46
f 54//47 63//47 68//47
f 68//48 63//48 54//48
f 60//49 64//10 69//55
f 69//56 64//9 60//50
f 54//47 70//47 64//47
f 64//48 70//48 54//48
f 65//51 60//51 71//51
f 71//52 60//52 65//52
f 57//42 65//57 67//53
f 67//54 65//58 57//43
f 70//47 54//47 68//47
f 68//48 54//48 70//48
f 71//59 60//49 69//55
f 69//56 60//50 71//60
f 71//61 72//61 65//61
f 65//62 72//62 71//62
f 65//57 73//63 67//53
f 67//54 73//64 65//58
f 71//59 69//55 74//65
f 74//66 69//56 71//60
f 72//61 71//61 75//61
f 75//62 71//62 72//62
f 65//57 72//67 73//63
f 73//64 72//68 65//58
f 75//69 71//59 74//65
f 74//66 71//60 75//70
f 75//71 76//71 72//71
f 72//72 76//72 75//72
f 72//67 77//73 73//63
f 73//64 77//74 72//68
f 75//69 74//65 78//75
f 78//76 74//66 75//70
f 76//71 75//71 79//71
f 79//72 75//72 76//72
f 72//67 76//77 77//73
f 77//74 76//78 72//68
f 79//79 75//69 78//75
f 78//76 75//70 79//80
f 79//81 80//81 76//81
f 76//82 80//82 79//82
f 76//77 81//83 77//73
f 77//74 81//84 76//78
f 79//79 78//75 82//85
f 82//86 78//76 79//80
f 80//87 79//79 82//85
f 82//86 79//80 80//88
f 76//77 80//87 81//83
f 81//84 80//88 76//78
f 80//87 82//85 81//83
f 81//84 82//86 80//88