mtllib new-5.mtl
v 0.055706 -0.687652 0.098453
v 0.055706 -0.721179 0.098453
v 0.081608 -0.721179 0.161406
v 0.076934 -0.687652 0.163787
v 0.073226 -0.687652 0.167495
v 0.050526 -0.721179 0.097633
v 0.076934 -0.721179 0.163787
v 0.050526 -0.687652 0.097633
v 0.070845 -0.687652 0.172168
v 0.073226 -0.721179 0.167495
v 0.045853 -0.721179 0.095252
v 0.045853 -0.687652 0.095252
v 0.070845 -0.721179 0.172168
v 0.000235 -0.687652 0.220526
v 0.070024 -0.721179 0.177349
v 0.042144 -0.687652 0.091543
v 0.005415 -0.687652 0.219706
v -0.059194 -0.687652 0.177349
v 0.070024 -0.687652 0.177349
v 0.042144 -0.721179 0.091543
v 0.005415 -0.721179 0.219706
v -0.060014 -0.687652 0.182529
v 0.039763 -0.687652 0.086870
v -0.060014 -0.687652 0.172168
v 0.000235 -0.721179 0.220526
v 0.010595 -0.721179 0.220526
v 0.010595 -0.687652 0.220526
v -0.004438 -0.687652 0.222907
v -0.059194 -0.721179 0.177349
v 0.070845 -0.687652 0.182529
v 0.039763 -0.721179 0.086870
v -0.031314 -0.687652 0.091543
v -0.060014 -0.721179 0.172168
v -0.062395 -0.687652 0.187202
v -0.060014 -0.721179 0.182529
v 0.038943 -0.687652 0.081690
v -0.028933 -0.687652 0.086870
v -0.035022 -0.687652 0.095252
v -0.062395 -0.721179 0.167495
v -0.004438 -0.721179 0.222907
v 0.015269 -0.721179 0.222907
v 0.015269 -0.687652 0.222907
v 0.073226 -0.687652 0.187202
v 0.038943 -0.721179 0.081690
v -0.028933 -0.721179 0.086870
v -0.031314 -0.721179 0.091543
v -0.039696 -0.687652 0.097633
v -0.062395 -0.687652 0.167495
v -0.008147 -0.721179 0.226616
v -0.062395 -0.721179 0.187202
v -0.028112 -0.687652 0.081690
v -0.028112 -0.721179 0.081690
v -0.035022 -0.721179 0.095252
v -0.039696 -0.721179 0.097633
v -0.066104 -0.687652 0.163787
v 0.018977 -0.687652 0.226616
v -0.044876 -0.687652 0.098453
v -0.044876 -0.721179 0.098453
v -0.066104 -0.721179 0.163787
v -0.070777 -0.687652 0.161406
v -0.050056 -0.721179 0.097633
v -0.050056 -0.687652 0.097633
vn 0.000000 1.000000 0.000000
vn 0.000000 -1.000000 0.000000
vn -0.156437 0.000000 -0.987688
vn 0.156437 0.000000 0.987688
vn 0.453992 0.000000 0.891006
vn -0.453992 0.000000 -0.891006
vn 0.156437 0.000000 -0.987688
vn -0.156437 0.000000 0.987688
vn 0.707107 0.000000 0.707107
vn -0.707107 0.000000 -0.707107
vn 0.453990 0.000000 -0.891007
vn -0.453990 0.000000 0.891007
vn 0.891008 0.000000 0.453987
vn -0.891008 0.000000 -0.453987
vn 0.987688 0.000000 0.156437
vn -0.987688 0.000000 -0.156437
vn 0.707110 0.000000 -0.707104
vn -0.707110 0.000000 0.707104
vn 0.891006 0.000000 -0.453992
vn -0.891006 0.000000 0.453992
vn -0.987688 0.000000 -0.156436
vn 0.987688 0.000000 0.156436
vn -0.987688 0.000000 0.156437
vn 0.987688 0.000000 -0.156437
vn 0.453984 0.000000 0.891010
vn -0.453984 0.000000 -0.891010
vn 0.891008 0.000000 -0.453987
vn -0.891008 0.000000 0.453987
vn -0.453984 0.000000 0.891010
vn 0.453984 0.000000 -0.891010
vn -0.891006 0.000000 -0.453992
vn 0.891006 0.000000 0.453992
vn -0.707110 0.000000 -0.707104
vn 0.707110 0.000000 0.707104
vn -0.453990 0.000000 -0.891007
vn 0.453990 0.000000 0.891007
vn -0.707107 0.000000 0.707107
vn 0.707107 0.000000 -0.707107
usemtl material-0
f 6//7 1//7 2//7
f 2//8 1//8 6//8
f 3//5 4//5 7//5
f 7//6 4//6 3//6
f 5//9 7//9 4//9
f 4//10 7//10 5//10
f 1//7 6//7 8//7
f 8//8 6//8 1//8
f 8//1 9//1 5//1
f 5//2 9//2 8//2
f 7//9 5//9 10//9
f 10//10 5//10 7//10
f 11//11 8//11 6//11
f 6//12 8//12 11//12
f 13//13 5//13 9//13
f 9//14 5//14 13//14
f 5//13 13//13 10//13
f 10//14 13//14 5//14
f 8//11 11//11 12//11
f 12//12 11//12 8//12
f 14//1 9//1 12//1
f 12//2 9//2 14//2
f 9//15 15//15 13//15
f 13//16 15//16 9//16
f 11//17 16//17 12//17
f 12//18 16//18 11//18
f 9//1 14//1 17//1
f 17//2 14//2 9//2
f 12//1 18//1 14//1
f 14//2 18//2 12//2
f 15//15 9//15 19//15
f 19//16 9//16 15//16
f 16//17 11//17 20//17
f 20//18 11//18 16//18
f 18//1 12//1 16//1
f 16//2 12//2 18//2
f 14//4 21//4 17//4
f 17//3 21//3 14//3
f 17//1 19//1 9//1
f 9//2 19//2 17//2
f 22//1 14//1 18//1
f 18//2 14//2 22//2
f 20//19 23//19 16//19
f 16//20 23//20 20//20
f 16//1 24//1 18//1
f 18//2 24//2 16//2
f 21//4 14//4 25//4
f 25//3 14//3 21//3
f 26//8 17//8 21//8
f 21//7 17//7 26//7
f 19//1 17//1 27//1
f 27//2 17//2 19//2
f 14//1 22//1 28//1
f 28//2 22//2 14//2
f 29//21 22//21 18//21
f 18//22 22//22 29//22
f 23//19 20//19 31//19
f 31//20 20//20 23//20
f 23//1 32//1 16//1
f 16//2 32//2 23//2
f 24//1 16//1 32//1
f 32//2 16//2 24//2
f 33//23 18//23 24//23
f 24//24 18//24 33//24
f 28//25 25//25 14//25
f 14//26 25//26 28//26
f 17//8 26//8 27//8
f 27//7 26//7 17//7
f 27//1 30//1 19//1
f 19//2 30//2 27//2
f 34//1 28//1 22//1
f 22//2 28//2 34//2
f 22//21 29//21 35//21
f 35//22 29//22 22//22
f 18//23 33//23 29//23
f 29//24 33//24 18//24
f 31//24 36//24 23//24
f 23//23 36//23 31//23
f 32//1 23//1 37//1
f 37//2 23//2 32//2
f 24//1 32//1 38//1
f 38//2 32//2 24//2
f 24//28 39//28 33//28
f 33//27 39//27 24//27
f 25//25 28//25 40//25
f 40//26 28//26 25//26
f 41//29 27//29 26//29
f 26//30 27//30 41//30
f 30//1 27//1 42//1
f 42//2 27//2 30//2
f 35//14 34//14 22//14
f 22//13 34//13 35//13
f 36//24 31//24 44//24
f 44//23 31//23 36//23
f 45//31 32//31 37//31
f 37//32 32//32 45//32
f 46//33 38//33 32//33
f 32//34 38//34 46//34
f 47//1 24//1 38//1
f 38//2 24//2 47//2
f 39//28 24//28 48//28
f 48//27 24//27 39//27
f 28//34 49//34 40//34
f 40//33 49//33 28//33
f 27//29 41//29 42//29
f 42//30 41//30 27//30
f 42//1 43//1 30//1
f 30//2 43//2 42//2
f 34//14 35//14 50//14
f 50//13 35//13 34//13
f 32//31 45//31 46//31
f 46//32 45//32 32//32
f 37//16 52//16 45//16
f 45//15 52//15 37//15
f 38//33 46//33 53//33
f 53//34 46//34 38//34
f 24//1 47//1 48//1
f 48//2 47//2 24//2
f 38//35 54//35 47//35
f 47//36 54//36 38//36
f 55//37 39//37 48//37
f 48//38 39//38 55//38
f 41//18 56//18 42//18
f 42//17 56//17 41//17
f 52//16 37//16 51//16
f 51//15 37//15 52//15
f 54//35 38//35 53//35
f 53//36 38//36 54//36
f 57//1 48//1 47//1
f 47//2 48//2 57//2
f 58//3 47//3 54//3
f 54//4 47//4 58//4
f 39//37 55//37 59//37
f 59//38 55//38 39//38
f 48//1 57//1 55//1
f 55//2 57//2 48//2
f 47//3 58//3 57//3
f 57//4 58//4 47//4
f 57//1 60//1 55//1
f 55//2 60//2 57//2
f 61//7 57//7 58//7
f 58//8 57//8 61//8
f 57//7 61//7 62//7
f 62//8 61//8 57//8