mtllib new-3.mtl
v -0.004438 -0.687652 0.222907
v -0.062395 -0.687652 0.187202
v -0.008147 -0.687652 0.226616
v -0.008147 -0.721179 0.226616
v -0.081300 -0.688203 0.213223
v -0.062395 -0.721179 0.187202
v -0.027052 -0.688203 0.252637
v -0.083846 -0.716340 0.216726
v -0.029597 -0.716340 0.256140
v -0.100199 -0.689199 0.239235
v -0.105463 -0.714723 0.246480
v -0.045951 -0.689199 0.278649
v -0.051215 -0.714723 0.285894
v -0.119088 -0.690638 0.265234
v -0.064840 -0.690638 0.304647
v -0.123704 -0.716241 0.271586
v -0.137964 -0.692521 0.291213
v -0.069455 -0.716241 0.311000
v -0.083715 -0.692521 0.330627
v -0.141930 -0.718178 0.296673
v -0.156822 -0.694846 0.317170
v -0.087682 -0.718178 0.336087
v -0.102574 -0.694846 0.356584
v -0.160140 -0.720532 0.321736
v -0.175660 -0.697614 0.343098
v -0.105892 -0.720532 0.361150
v -0.121412 -0.697614 0.382512
v -0.178329 -0.723303 0.346772
v -0.194474 -0.700825 0.368993
v -0.124081 -0.723303 0.386186
v -0.140225 -0.700825 0.408406
v -0.196495 -0.726492 0.371775
v -0.213259 -0.704477 0.394849
v -0.142247 -0.726492 0.411189
v -0.159011 -0.704477 0.434263
v -0.214634 -0.730096 0.396741
v -0.232014 -0.708569 0.420662
v -0.160386 -0.730096 0.436155
v -0.177765 -0.708569 0.460076
v -0.232743 -0.734117 0.421666
v -0.250733 -0.713102 0.446427
v -0.178494 -0.734117 0.461079
v -0.196485 -0.713102 0.485841
v -0.241280 -0.736868 0.433416
v -0.269414 -0.718074 0.472139
v -0.187031 -0.736868 0.472830
v -0.249446 -0.741917 0.444656
v -0.215165 -0.718074 0.511553
v -0.195198 -0.741917 0.484070
v -0.288052 -0.723484 0.497793
v -0.257030 -0.749133 0.455094
v -0.233804 -0.723484 0.537206
v -0.270564 -0.762846 0.473722
v -0.202781 -0.749133 0.494507
v -0.263834 -0.758326 0.464458
v -0.293414 -0.725717 0.509514
v -0.230665 -0.762846 0.532885
v -0.284913 -0.762846 0.493472
v -0.268120 -0.762322 0.470358
v -0.209585 -0.758326 0.503872
v -0.265829 -0.760784 0.467205
v -0.243295 -0.725717 0.545928
v -0.216316 -0.762846 0.513136
v -0.240271 -0.762846 0.541765
v -0.211581 -0.760784 0.506618
v -0.293830 -0.727610 0.522452
v -0.290390 -0.762846 0.505352
v -0.213872 -0.762322 0.509772
v -0.255471 -0.727610 0.550321
v -0.252544 -0.762846 0.546293
v -0.289237 -0.728875 0.534635
v -0.290903 -0.762846 0.518423
v -0.268477 -0.728875 0.549718
v -0.265616 -0.762846 0.545779
v -0.280334 -0.729319 0.544210
v -0.286376 -0.762846 0.530696
v -0.277496 -0.762846 0.540303
vn 0.000000 1.000000 0.000000
vn 0.000000 -1.000000 0.000000
vn -0.707110 0.000000 -0.707104
vn 0.707110 0.000000 0.707104
vn -0.010078 0.999853 0.013872
vn 0.010078 -0.999853 -0.013872
vn -0.809017 0.000000 -0.587786
vn 0.809017 0.000000 0.587786
vn 0.809017 0.000000 0.587785
vn -0.809017 0.000000 -0.587785
vn -0.018189 0.999521 0.025034
vn 0.018189 -0.999521 -0.025034
vn -0.809017 0.000001 -0.587785
vn 0.809017 -0.000001 0.587785
vn -0.026296 0.998999 0.036193
vn 0.026296 -0.998999 -0.036193
vn -0.034399 0.998286 0.047346
vn 0.034399 -0.998286 -0.047346
vn -0.042495 0.997383 0.058489
vn 0.042495 -0.997383 -0.058489
vn -0.050583 0.996290 0.069622
vn 0.050583 -0.996290 -0.069622
vn -0.058661 0.995008 0.080740
vn 0.058661 -0.995008 -0.080740
vn -0.066728 0.993535 0.091843
vn 0.066728 -0.993535 -0.091843
vn -0.074783 0.991874 0.102929
vn 0.074783 -0.991874 -0.102929
vn -0.082822 0.990023 0.113995
vn 0.082822 -0.990023 -0.113995
vn -0.090847 0.987984 0.125041
vn 0.090847 -0.987984 -0.125041
vn 0.809017 -0.000001 0.587786
vn -0.809017 0.000001 -0.587786
vn -0.098854 0.985756 0.136061
vn 0.098854 -0.985756 -0.136061
vn -0.862250 -0.013190 -0.506311
vn 0.862250 0.013190 0.506311
vn -0.102293 0.984740 0.140794
vn 0.102293 -0.984740 -0.140794
vn 0.747454 -0.013297 0.664181
vn 0.725591 -0.017831 0.687895
vn -0.725591 0.017831 -0.687895
vn -0.747454 0.013297 -0.664181
vn -0.878462 -0.017837 -0.477479
vn 0.878462 0.017837 0.477479
vn -0.809015 0.000000 -0.587788
vn 0.809015 0.000000 0.587788
vn 0.809018 0.000000 0.587784
vn -0.809018 0.000000 -0.587784
vn -0.953251 -0.043941 -0.298968
vn 0.953251 0.043941 0.298968
vn 0.577849 -0.044108 0.814951
vn -0.577849 0.044108 -0.814951
vn -0.102296 0.984739 0.140798
vn 0.102296 -0.984739 -0.140798
vn 0.466026 -0.061505 0.882631
vn -0.466026 0.061505 -0.882631
vn -0.983543 -0.061586 -0.169855
vn 0.983543 0.061586 0.169855
vn -0.991939 -0.091862 0.087279
vn 0.991939 0.091862 -0.087279
vn 0.222227 -0.091998 0.970645
vn -0.222227 0.091998 -0.970645
vn -0.102295 0.984740 0.140797
vn 0.102295 -0.984740 -0.140797
vn 0.093452 -0.105975 0.989968
vn -0.093452 0.105975 -0.989968
vn -0.970061 -0.106111 0.218455
vn 0.970061 0.106111 -0.218455
vn -0.879260 -0.126746 0.459170
vn 0.879260 0.126746 -0.459170
vn -0.165529 -0.126779 0.978022
vn 0.165529 0.126779 -0.978022
vn -0.102290 0.984741 0.140789
vn 0.102290 -0.984741 -0.140789
vn -0.292341 -0.134642 0.946788
vn 0.292341 0.134642 -0.946788
vn -0.809261 -0.134707 0.571795
vn 0.809261 0.134707 -0.571795
vn -0.633542 -0.142034 0.760559
vn 0.633542 0.142034 -0.760559
vn -0.527038 -0.142028 0.837890
vn 0.527038 0.142028 -0.837890
usemtl material-0
f 1//1 2//1 3//1
f 3//2 2//2 1//2
f 5//5 3//5 2//5
f 2//6 3//6 5//6
f 4//4 1//4 3//4
f 3//3 1//3 4//3
f 3//5 5//5 7//5
f 7//6 5//6 3//6
f 2//7 8//7 5//7
f 5//8 8//8 2//8
f 3//9 9//9 4//9
f 4//10 9//10 3//10
f 8//7 2//7 6//7
f 6//8 2//8 8//8
f 10//11 7//11 5//11
f 5//12 7//12 10//12
f 9//9 3//9 7//9
f 7//10 3//10 9//10
f 11//13 5//13 8//13
f 8//14 5//14 11//14
f 7//11 10//11 12//11
f 12//12 10//12 7//12
f 5//13 11//13 10//13
f 10//14 11//14 5//14
f 7//9 13//9 9//9
f 9//10 13//10 7//10
f 14//15 12//15 10//15
f 10//16 12//16 14//16
f 13//9 7//9 12//9
f 12//10 7//10 13//10
f 11//10 14//10 10//10
f 10//9 14//9 11//9
f 12//15 14//15 15//15
f 15//16 14//16 12//16
f 15//9 13//9 12//9
f 12//10 13//10 15//10
f 14//10 11//10 16//10
f 16//9 11//9 14//9
f 17//17 15//17 14//17
f 14//18 15//18 17//18
f 13//9 15//9 18//9
f 18//10 15//10 13//10
f 16//10 17//10 14//10
f 14//9 17//9 16//9
f 15//17 17//17 19//17
f 19//18 17//18 15//18
f 19//9 18//9 15//9
f 15//10 18//10 19//10
f 17//10 16//10 20//10
f 20//9 16//9 17//9
f 21//19 19//19 17//19
f 17//20 19//20 21//20
f 18//9 19//9 22//9
f 22//10 19//10 18//10
f 20//10 21//10 17//10
f 17//9 21//9 20//9
f 19//19 21//19 23//19
f 23//20 21//20 19//20
f 23//8 22//8 19//8
f 19//7 22//7 23//7
f 21//10 20//10 24//10
f 24//9 20//9 21//9
f 25//21 23//21 21//21
f 21//22 23//22 25//22
f 22//8 23//8 26//8
f 26//7 23//7 22//7
f 24//10 25//10 21//10
f 21//9 25//9 24//9
f 23//21 25//21 27//21
f 27//22 25//22 23//22
f 27//9 26//9 23//9
f 23//10 26//10 27//10
f 25//10 24//10 28//10
f 28//9 24//9 25//9
f 29//23 27//23 25//23
f 25//24 27//24 29//24
f 26//9 27//9 30//9
f 30//10 27//10 26//10
f 28//10 29//10 25//10
f 25//9 29//9 28//9
f 27//23 29//23 31//23
f 31//24 29//24 27//24
f 31//9 30//9 27//9
f 27//10 30//10 31//10
f 29//10 28//10 32//10
f 32//9 28//9 29//9
f 33//25 31//25 29//25
f 29//26 31//26 33//26
f 30//9 31//9 34//9
f 34//10 31//10 30//10
f 32//10 33//10 29//10
f 29//9 33//9 32//9
f 31//25 33//25 35//25
f 35//26 33//26 31//26
f 35//9 34//9 31//9
f 31//10 34//10 35//10
f 33//10 32//10 36//10
f 36//9 32//9 33//9
f 37//27 35//27 33//27
f 33//28 35//28 37//28
f 34//9 35//9 38//9
f 38//10 35//10 34//10
f 36//10 37//10 33//10
f 33//9 37//9 36//9
f 35//27 37//27 39//27
f 39//28 37//28 35//28
f 39//9 38//9 35//9
f 35//10 38//10 39//10
f 37//10 36//10 40//10
f 40//9 36//9 37//9
f 41//29 39//29 37//29
f 37//30 39//30 41//30
f 38//9 39//9 42//9
f 42//10 39//10 38//10
f 40//10 41//10 37//10
f 37//9 41//9 40//9
f 39//29 41//29 43//29
f 43//30 41//30 39//30
f 43//9 42//9 39//9
f 39//10 42//10 43//10
f 41//10 40//10 44//10
f 44//9 40//9 41//9
f 45//31 43//31 41//31
f 41//32 43//32 45//32
f 42//9 43//9 46//9
f 46//10 43//10 42//10
f 41//10 44//10 47//10
f 47//9 44//9 41//9
f 43//31 45//31 48//31
f 48//32 45//32 43//32
f 47//10 45//10 41//10
f 41//9 45//9 47//9
f 43//33 49//33 46//33
f 46//34 49//34 43//34
f 50//35 48//35 45//35
f 45//36 48//36 50//36
f 48//14 49//14 43//14
f 43//13 49//13 48//13
f 45//10 47//10 51//10
f 51//9 47//9 45//9
f 48//35 50//35 52//35
f 52//36 50//36 48//36
f 53//7 50//37 45//7
f 45//8 50//38 53//8
f 49//14 48//14 54//14
f 54//13 48//13 49//13
f 55//10 45//10 51//10
f 51//9 45//9 55//9
f 56//39 52//39 50//39
f 50//40 52//40 56//40
f 57//41 48//8 52//42
f 52//43 48//7 57//44
f 50//37 53//7 58//45
f 58//46 53//8 50//38
f 45//47 59//47 53//47
f 53//48 59//48 45//48
f 48//49 60//49 54//49
f 54//50 60//50 48//50
f 45//10 55//10 61//10
f 61//9 55//9 45//9
f 52//39 56//39 62//39
f 62//40 56//40 52//40
f 50//37 58//45 56//51
f 56//52 58//46 50//38
f 48//8 57//41 63//8
f 63//7 57//44 48//7
f 57//41 52//42 64//53
f 64//54 52//43 57//44
f 59//47 45//47 61//47
f 61//48 45//48 59//48
f 60//49 48//49 65//49
f 65//50 48//50 60//50
f 66//55 62//55 56//55
f 56//56 62//56 66//56
f 52//42 62//57 64//53
f 64//54 62//58 52//43
f 56//51 58//45 67//59
f 67//60 58//46 56//52
f 68//49 48//49 63//49
f 63//50 48//50 68//50
f 48//49 68//49 65//49
f 65//50 68//50 48//50
f 62//55 66//55 69//55
f 69//56 66//56 62//56
f 56//51 67//59 66//61
f 66//62 67//60 56//52
f 64//53 62//57 70//63
f 70//64 62//58 64//54
f 71//65 69//65 66//65
f 66//66 69//66 71//66
f 62//57 69//67 70//63
f 70//64 69//68 62//58
f 66//61 67//59 72//69
f 72//70 67//60 66//62
f 69//65 71//65 73//65
f 73//66 71//66 69//66
f 66//61 72//69 71//71
f 71//72 72//70 66//62
f 70//63 69//67 74//73
f 74//74 69//68 70//64
f 73//75 71//75 75//75
f 75//76 71//76 73//76
f 69//67 73//77 74//73
f 74//74 73//78 69//68
f 71//71 72//69 76//79
f 76//80 72//70 71//72
f 71//71 76//79 75//81
f 75//82 76//80 71//72
f 73//77 75//81 77//83
f 77//84 75//82 73//78
f 74//73 73//77 77//83
f 77//84 73//78 74//74
f 75//81 76//79 77//83
f 77//84 76//80 75//82