mtllib new-4.mtl
v -0.066104 -0.687652 0.163787
v -0.044876 -0.687652 0.098453
v -0.066104 -0.721179 0.163787
v -0.070777 -0.687652 0.161406
v -0.050056 -0.721179 0.097633
v -0.070777 -0.721179 0.161406
v -0.050056 -0.687652 0.097633
v -0.101366 -0.688203 0.151466
v -0.080645 -0.688203 0.087694
v -0.105485 -0.716340 0.150128
v -0.084764 -0.716340 0.086356
v -0.131945 -0.689199 0.141531
v -0.111224 -0.689199 0.077758
v -0.140462 -0.714723 0.138763
v -0.119741 -0.714723 0.074991
v -0.162508 -0.690638 0.131600
v -0.141787 -0.690638 0.067827
v -0.169976 -0.716241 0.129174
v -0.149255 -0.716241 0.065401
v -0.193050 -0.692521 0.121677
v -0.172329 -0.692521 0.057904
v -0.199467 -0.718178 0.119591
v -0.178746 -0.718178 0.055819
v -0.223563 -0.694846 0.111762
v -0.202842 -0.694846 0.047989
v -0.228931 -0.720532 0.110018
v -0.208210 -0.720532 0.046245
v -0.254044 -0.697614 0.101859
v -0.233323 -0.697614 0.038086
v -0.258363 -0.723303 0.100455
v -0.237641 -0.723303 0.036683
v -0.284485 -0.700825 0.091968
v -0.263764 -0.700825 0.028195
v -0.287755 -0.726492 0.090905
v -0.267034 -0.726492 0.027132
v -0.314881 -0.704477 0.082091
v -0.294159 -0.704477 0.018319
v -0.317105 -0.730096 0.081369
v -0.296384 -0.730096 0.017596
v -0.345226 -0.708569 0.072232
v -0.324505 -0.708569 0.008459
v -0.346405 -0.734117 0.071848
v -0.325684 -0.734117 0.008076
v -0.360218 -0.736868 0.067360
v -0.375514 -0.713102 0.062390
v -0.339497 -0.736868 0.003588
v -0.354793 -0.713102 -0.001382
v -0.373432 -0.741917 0.063067
v -0.405740 -0.718074 0.052569
v -0.352711 -0.741917 -0.000706
v -0.385702 -0.749133 0.059080
v -0.385019 -0.718074 -0.011203
v -0.364981 -0.749133 -0.004693
v -0.435898 -0.723484 0.042770
v -0.399940 -0.760784 0.054454
v -0.379219 -0.760784 -0.009319
v -0.415177 -0.723484 -0.021002
v -0.430818 -0.762846 0.044421
v -0.396711 -0.758326 0.055503
v -0.403647 -0.762322 0.053250
v -0.375990 -0.758326 -0.008270
v -0.382926 -0.762322 -0.010523
v -0.410097 -0.762846 -0.019352
v -0.447126 -0.725717 0.036439
v -0.407601 -0.762846 0.051965
v -0.442232 -0.762846 0.038029
v -0.386880 -0.762846 -0.011808
v -0.427982 -0.725717 -0.022479
v -0.423088 -0.762846 -0.020889
v -0.440415 -0.727610 -0.018877
v -0.450331 -0.762846 0.027756
v -0.455067 -0.727610 0.026217
v -0.435679 -0.762846 -0.017338
v -0.450582 -0.728875 -0.010744
v -0.453882 -0.762846 0.015165
v -0.458512 -0.728875 0.013661
v -0.445952 -0.762846 -0.009240
v -0.456937 -0.729319 0.000682
v -0.452344 -0.762846 0.002174
vn 0.000000 1.000000 0.000000
vn 0.000000 -1.000000 0.000000
vn -0.453992 0.000000 0.891006
vn 0.453992 0.000000 -0.891006
vn -0.309017 0.000000 0.951056
vn 0.309017 0.000000 -0.951056
vn -0.016307 0.999853 -0.005299
vn 0.016307 -0.999853 0.005299
vn -0.309017 0.000000 0.951057
vn 0.309017 0.000000 -0.951057
vn -0.029430 0.999521 -0.009562
vn 0.029430 -0.999521 0.009562
vn -0.042548 0.998999 -0.013825
vn 0.042548 -0.998999 0.013825
vn -0.055658 0.998286 -0.018084
vn 0.055658 -0.998286 0.018084
vn -0.068758 0.997383 -0.022341
vn 0.068758 -0.997383 0.022341
vn 0.309017 0.000001 -0.951056
vn -0.309017 -0.000001 0.951056
vn -0.081845 0.996290 -0.026593
vn 0.081845 -0.996290 0.026593
vn -0.309017 0.000001 0.951057
vn 0.309017 -0.000001 -0.951057
vn -0.094915 0.995008 -0.030840
vn 0.094915 -0.995008 0.030840
vn -0.309017 0.000001 0.951056
vn 0.309017 -0.000001 -0.951056
vn -0.107968 0.993535 -0.035081
vn 0.107968 -0.993535 0.035081
vn -0.121001 0.991874 -0.039316
vn 0.121001 -0.991874 0.039316
vn -0.309016 0.000001 0.951057
vn 0.309016 -0.000001 -0.951057
vn -0.134009 0.990023 -0.043542
vn 0.134009 -0.990023 0.043542
vn -0.146994 0.987984 -0.047761
vn 0.146994 -0.987984 0.047761
vn 0.309018 0.000000 -0.951056
vn -0.309018 0.000000 0.951056
vn -0.159949 0.985756 -0.051971
vn 0.159949 -0.985756 0.051971
vn -0.400697 -0.013297 0.916114
vn -0.430006 -0.017831 0.902650
vn 0.430006 0.017831 -0.902650
vn 0.400697 0.013297 -0.916114
vn -0.309019 0.000000 0.951056
vn 0.309019 0.000000 -0.951056
vn 0.182650 -0.017837 -0.983016
vn 0.215082 -0.013189 -0.976507
vn -0.215082 0.013189 0.976507
vn -0.182650 0.017837 0.983016
vn -0.165514 0.984740 -0.053779
vn 0.165514 -0.984740 0.053779
vn -0.596499 -0.044108 0.801401
vn 0.596499 0.044108 -0.801401
vn -0.010234 -0.043940 -0.998982
vn 0.010234 0.043940 0.998982
vn -0.695421 -0.061505 0.715965
vn 0.695421 0.061505 -0.715965
vn -0.142389 -0.061586 -0.987893
vn 0.142389 0.061586 0.987893
vn -0.165517 0.984739 -0.053780
vn 0.165517 -0.984739 0.053780
vn -0.854467 -0.091998 0.511296
vn 0.854467 0.091998 -0.511296
vn -0.389533 -0.091862 -0.916420
vn 0.389533 0.091862 0.916420
vn -0.912637 -0.105975 0.394794
vn 0.912637 0.105975 -0.394794
vn -0.507529 -0.106111 -0.855076
vn 0.507529 0.106111 0.855076
vn -0.165516 0.984740 -0.053780
vn 0.165516 -0.984740 0.053780
vn -0.981306 -0.126779 0.144797
vn 0.981306 0.126779 -0.144797
vn -0.708404 -0.126746 -0.694333
vn 0.708404 0.126746 0.694333
vn -0.990788 -0.134642 0.014541
vn 0.990788 0.134642 -0.014541
vn -0.793886 -0.134708 -0.592958
vn 0.793886 0.134708 0.592958
vn -0.165510 0.984741 -0.053777
vn 0.165510 -0.984741 0.053777
vn -0.959744 -0.142028 -0.242321
vn 0.959744 0.142028 0.242321
vn -0.919110 -0.142034 -0.367508
vn 0.919110 0.142034 0.367508
usemtl material-0
f 4//3 3//3 1//3
f 1//4 3//4 4//4
f 3//3 4//3 6//3
f 6//4 4//4 3//4
f 4//1 2//1 7//1
f 7//2 2//2 4//2
f 8//5 6//5 4//5
f 4//6 6//6 8//6
f 7//7 8//7 4//7
f 4//8 8//8 7//8
f 5//6 9//6 7//6
f 7//5 9//5 5//5
f 6//5 8//5 10//5
f 10//6 8//6 6//6
f 8//7 7//7 9//7
f 9//8 7//8 8//8
f 9//6 5//6 11//6
f 11//5 5//5 9//5
f 12//9 10//9 8//9
f 8//10 10//10 12//10
f 9//11 12//11 8//11
f 8//12 12//12 9//12
f 11//10 13//10 9//10
f 9//9 13//9 11//9
f 10//9 12//9 14//9
f 14//10 12//10 10//10
f 12//11 9//11 13//11
f 13//12 9//12 12//12
f 13//10 11//10 15//10
f 15//9 11//9 13//9
f 16//5 14//5 12//5
f 12//6 14//6 16//6
f 13//13 16//13 12//13
f 12//14 16//14 13//14
f 15//10 17//10 13//10
f 13//9 17//9 15//9
f 14//5 16//5 18//5
f 18//6 16//6 14//6
f 16//13 13//13 17//13
f 17//14 13//14 16//14
f 17//10 15//10 19//10
f 19//9 15//9 17//9
f 20//9 18//9 16//9
f 16//10 18//10 20//10
f 17//15 20//15 16//15
f 16//16 20//16 17//16
f 19//10 21//10 17//10
f 17//9 21//9 19//9
f 18//9 20//9 22//9
f 22//10 20//10 18//10
f 20//15 17//15 21//15
f 21//16 17//16 20//16
f 21//10 19//10 23//10
f 23//9 19//9 21//9
f 24//5 22//5 20//5
f 20//6 22//6 24//6
f 21//17 24//17 20//17
f 20//18 24//18 21//18
f 23//19 25//19 21//19
f 21//20 25//20 23//20
f 22//5 24//5 26//5
f 26//6 24//6 22//6
f 24//17 21//17 25//17
f 25//18 21//18 24//18
f 25//19 23//19 27//19
f 27//20 23//20 25//20
f 28//5 26//5 24//5
f 24//6 26//6 28//6
f 25//21 28//21 24//21
f 24//22 28//22 25//22
f 27//6 29//6 25//6
f 25//5 29//5 27//5
f 26//5 28//5 30//5
f 30//6 28//6 26//6
f 28//21 25//21 29//21
f 29//22 25//22 28//22
f 29//6 27//6 31//6
f 31//5 27//5 29//5
f 32//23 30//23 28//23
f 28//24 30//24 32//24
f 29//25 32//25 28//25
f 28//26 32//26 29//26
f 31//24 33//24 29//24
f 29//23 33//23 31//23
f 30//23 32//23 34//23
f 34//24 32//24 30//24
f 32//25 29//25 33//25
f 33//26 29//26 32//26
f 33//24 31//24 35//24
f 35//23 31//23 33//23
f 36//27 34//27 32//27
f 32//28 34//28 36//28
f 33//29 36//29 32//29
f 32//30 36//30 33//30
f 35//24 37//24 33//24
f 33//23 37//23 35//23
f 34//27 36//27 38//27
f 38//28 36//28 34//28
f 36//29 33//29 37//29
f 37//30 33//30 36//30
f 37//24 35//24 39//24
f 39//23 35//23 37//23
f 40//27 38//27 36//27
f 36//28 38//28 40//28
f 37//31 40//31 36//31
f 36//32 40//32 37//32
f 39//28 41//28 37//28
f 37//27 41//27 39//27
f 38//27 40//27 42//27
f 42//28 40//28 38//28
f 40//31 37//31 41//31
f 41//32 37//32 40//32
f 41//28 39//28 43//28
f 43//27 39//27 41//27
f 40//33 44//33 42//33
f 42//34 44//34 40//34
f 41//35 45//35 40//35
f 40//36 45//36 41//36
f 46//10 41//10 43//10
f 43//9 41//9 46//9
f 44//33 40//33 45//33
f 45//34 40//34 44//34
f 45//35 41//35 47//35
f 47//36 41//36 45//36
f 41//10 46//10 47//10
f 47//9 46//9 41//9
f 44//23 45//23 48//23
f 48//24 45//24 44//24
f 47//37 49//37 45//37
f 45//38 49//38 47//38
f 46//39 50//39 47//39
f 47//40 50//40 46//40
f 45//5 51//5 48//5
f 48//6 51//6 45//6
f 49//37 47//37 52//37
f 52//38 47//38 49//38
f 51//5 45//5 49//5
f 49//6 45//6 51//6
f 53//10 47//10 50//10
f 50//9 47//9 53//9
f 47//10 53//10 52//10
f 52//9 53//9 47//9
f 52//41 54//41 49//41
f 49//42 54//42 52//42
f 55//5 51//5 49//5
f 49//6 51//6 55//6
f 53//6 56//6 52//6
f 52//5 56//5 53//5
f 54//41 52//41 57//41
f 57//42 52//42 54//42
f 58//43 49//9 54//44
f 54//45 49//10 58//46
f 51//5 55//5 59//5
f 59//6 55//6 51//6
f 49//47 60//47 55//47
f 55//48 60//48 49//48
f 56//6 53//6 61//6
f 61//5 53//5 56//5
f 62//48 52//48 56//48
f 56//47 52//47 62//47
f 52//10 63//49 57//50
f 57//51 63//52 52//9
f 57//53 64//53 54//53
f 54//54 64//54 57//54
f 49//9 58//43 65//9
f 65//10 58//46 49//10
f 58//43 54//44 66//55
f 66//56 54//45 58//46
f 60//47 49//47 65//47
f 65//48 49//48 60//48
f 52//48 62//48 67//48
f 67//47 62//47 52//47
f 63//49 52//10 67//10
f 67//9 52//9 63//52
f 63//49 68//57 57//50
f 57//51 68//58 63//52
f 64//53 57//53 68//53
f 68//54 57//54 64//54
f 54//44 64//59 66//55
f 66//56 64//60 54//45
f 63//49 69//61 68//57
f 68//58 69//62 63//52
f 70//63 64//63 68//63
f 68//64 64//64 70//64
f 64//59 71//65 66//55
f 66//56 71//66 64//60
f 69//61 70//67 68//57
f 68//58 70//68 69//62
f 64//63 70//63 72//63
f 72//64 70//64 64//64
f 64//59 72//69 71//65
f 71//66 72//70 64//60
f 69//61 73//71 70//67
f 70//68 73//72 69//62
f 74//73 72//73 70//73
f 70//74 72//74 74//74
f 72//69 75//75 71//65
f 71//66 75//76 72//70
f 73//71 74//77 70//67
f 70//68 74//78 73//72
f 72//73 74//73 76//73
f 76//74 74//74 72//74
f 72//69 76//79 75//75
f 75//76 76//80 72//70
f 73//71 77//81 74//77
f 74//78 77//82 73//72
f 76//83 74//83 78//83
f 78//84 74//84 76//84
f 76//79 79//85 75//75
f 75//76 79//86 76//80
f 74//77 77//81 78//87
f 78//88 77//82 74//78
f 76//79 78//87 79//85
f 79//86 78//88 76//80
f 78//87 77//81 79//85
f 79//86 77//82 78//88