# SSTK version 0.8.0
# 26
mtllib original-26.mtl
o mesh26/mesh26-geometry#mesh26-geometry
v -0.287172 -0.365056 0.360341
v -0.305440 -0.363798 0.358918
v -0.303983 -0.365056 0.356253
v -0.287101 -0.363798 0.363378
v -0.319092 -0.363798 0.345887
v -0.305329 -0.365056 0.298379
v -0.268990 -0.363798 0.358071
v -0.287072 -0.360760 0.364636
v -0.316497 -0.365056 0.344307
v -0.306043 -0.360760 0.360022
v -0.288726 -0.365056 0.293514
v -0.317274 -0.365056 0.310894
v -0.270569 -0.365056 0.355476
v -0.324399 -0.363798 0.327775
v -0.320167 -0.360760 0.346541
v -0.306908 -0.363798 0.295785
v -0.270569 -0.365056 0.298379
v -0.319940 -0.363798 0.309437
v -0.225085 -0.363798 0.329965
v -0.268335 -0.360760 0.359145
v -0.305440 -0.357723 0.358918
v -0.321362 -0.365056 0.327705
v -0.319092 -0.357723 0.345887
v -0.288797 -0.363798 0.290477
v -0.268990 -0.363798 0.295785
v -0.225085 -0.365056 0.326928
v -0.225085 -0.360760 0.331223
v -0.268990 -0.357723 0.358071
v -0.287101 -0.357723 0.363378
v -0.325657 -0.360760 0.327805
v -0.288826 -0.360760 0.289220
v -0.321044 -0.360760 0.308833
v -0.225085 -0.363798 0.323890
v -0.225085 -0.357723 0.329965
v -0.287172 -0.356465 0.360341
v -0.303983 -0.356465 0.356253
v -0.324399 -0.357723 0.327775
v -0.307562 -0.360760 0.294710
v -0.268335 -0.360760 0.294710
v -0.225085 -0.360760 0.322632
v -0.225085 -0.356465 0.326928
v -0.316497 -0.356465 0.344307
v -0.306908 -0.357723 0.295785
v -0.288797 -0.357723 0.290477
v -0.319940 -0.357723 0.309437
v -0.270569 -0.356465 0.355476
v -0.305329 -0.356465 0.298379
v -0.317274 -0.356465 0.310894
v -0.321362 -0.356465 0.327705
v -0.268990 -0.357723 0.295785
v -0.225085 -0.357723 0.323890
v -0.270569 -0.356465 0.298379
v -0.288726 -0.356465 0.293514
vn 0.004524001447859393 -0.9808873139227358 0.1945240622553936
vn -0.1835820202915972 -0.9238821021180802 0.33576703711283634
vn -0.09334501766932674 -0.9808871856726433 0.17072503231662978
vn 0.008897000124517968 -0.9238820129301908 0.3825740053543146
vn 0.09334501766932674 0.9808871856726433 -0.17072503231662978
vn 0.1835820202915972 0.9238821021180802 -0.33576703711283634
vn -0.004524001447859393 0.9808873139227358 -0.1945240622553936
vn -0.008897000124517968 0.9238820129301908 -0.3825740053543146
vn -0.32687086686323497 -0.9238816236966241 0.19899291894880766
vn 0.32687086686323497 0.9238816236966241 -0.19899291894880766
vn -0.1011800267332843 -0.9808872591651614 -0.1662010439128146
vn 0.1011800267332843 0.9808872591651614 0.1662010439128146
vn 0.15883903233661234 -0.9228711878790585 0.3508260714215298
vn -0.15883903233661234 0.9228711878790585 -0.3508260714215298
vn 0.02148099564705926 -0.38268092245297164 0.9236308128340854
vn -0.4432131308316602 -0.3826821129635669 0.8106272392882794
vn -0.02148099564705926 0.38268092245297164 -0.9236308128340854
vn 0.4432131308316602 0.3826821129635669 -0.8106272392882794
vn -0.1662010439128146 -0.9808872591651614 0.1011800267332843
vn 0.1662010439128146 0.9808872591651614 -0.1011800267332843
vn -0.789147017575488 -0.3826820085229024 0.4804180106996298
vn 0.789147017575488 0.3826820085229024 -0.4804180106996298
vn -0.0021120006117621858 -0.9808942841258793 -0.19453005634758425
vn 0.0021120006117621858 0.9808942841258793 0.19453005634758425
vn -0.17072390993838102 -0.9808874825545247 -0.09334395075846534
vn 0.17072390993838102 0.9808874825545247 0.09334395075846534
vn 0.112576033595733 -0.9691492892203583 0.21926306543402863
vn -0.112576033595733 0.9691492892203583 -0.21926306543402863
vn 0.4272480762449895 -0.36412006497941607 0.8275721476852282
vn -0.4272480762449895 0.36412006497941607 -0.8275721476852282
vn -0.3825719412222254 -0.9238828580560345 0.008897998632924942
vn 0.3825719412222254 0.9238828580560345 -0.008897998632924942
vn -0.19899208863617035 -0.9238824115208769 -0.32686914559588515
vn 0.19899208863617035 0.9238824115208769 0.32686914559588515
vn 0.1109059419438045 -0.9691214926916822 -0.22023488471312447
vn -0.1109059419438045 0.9691214926916822 0.22023488471312447
vn -0.3357650140223867 -0.9238830385836662 -0.18358100766680197
vn 0.3357650140223867 0.9238830385836662 0.18358100766680197
vn 0.22006312026331773 -0.9115294981459935 0.34739918985179846
vn -0.22006312026331773 0.9115294981459935 -0.34739918985179846
vn 0.38452691454159443 -0.38040591545745756 0.8410888130739196
vn -0.38452691454159443 0.38040591545745756 -0.8410888130739196
vn 0.02148099564705926 0.38268092245297164 0.9236308128340854
vn -0.4432131308316602 0.3826821129635669 0.8106272392882794
vn 0.4432131308316602 -0.3826821129635669 -0.8106272392882794
vn -0.02148099564705926 -0.38268092245297164 -0.9236308128340854
vn -0.25903012278341564 -0.9658504578248156 0.006024002855450318
vn 0.25903012278341564 0.9658504578248156 -0.006024002855450318
vn -0.9236316864894408 -0.38267887010637647 0.021479992708993614
vn 0.9236316864894408 0.38267887010637647 -0.021479992708993614
vn -0.789147017575488 0.3826820085229024 0.4804180106996298
vn 0.789147017575488 -0.3826820085229024 -0.4804180106996298
vn -0.004153998524292286 -0.9238716717946468 -0.3826798640530024
vn 0.004153998524292286 0.9238716717946468 0.3826798640530024
vn 0.15474498149582833 -0.9226558896701993 -0.35321395776320724
vn -0.15474498149582833 0.9226558896701993 0.35321395776320724
vn 0.1647370859319109 -0.986337514503865 0.0000010000005216309079
vn -0.1647370859319109 0.986337514503865 -0.0000010000005216309079
vn 0.5052940921259852 -0.356125064929262 0.7860361433113017
vn 0.5090558904885997 -0.3293889291397202 0.7952138289284506
vn -0.5090558904885997 0.3293889291397202 -0.7952138289284506
vn -0.5052940921259852 0.356125064929262 -0.7860361433113017
vn 0.2831260593219938 0.7543931580642431 0.5922251240859822
vn 0.4273190991085574 0.36389108439763285 0.8276361919545119
vn -0.4273190991085574 -0.36389108439763285 -0.8276361919545119
vn -0.2831260593219938 -0.7543931580642431 -0.5922251240859822
vn -0.9236316864894408 0.38267887010637647 0.021479992708993614
vn 0.9236316864894408 -0.38267887010637647 -0.021479992708993614
vn -0.48041819454682855 -0.38268115496791316 -0.7891473195676393
vn -0.010624997316497893 -0.38266090335326114 -0.9238277666734697
vn 0.010624997316497893 0.38266090335326114 0.9238277666734697
vn 0.48041819454682855 0.38268115496791316 0.7891473195676393
vn -0.8106291658977076 -0.38267807831622475 -0.4432130907048979
vn 0.8106291658977076 0.38267807831622475 0.4432130907048979
vn 0.22006196809706863 -0.9115298678532456 -0.3473989496367094
vn -0.22006196809706863 0.9115298678532456 0.3473989496367094
vn 0.4435050740890811 0.5715120954731039 0.6904181153367722
vn 0.5122511981977107 0.3286631271647184 0.7934603070017541
vn -0.5122511981977107 -0.3286631271647184 -0.7934603070017541
vn -0.4435050740890811 -0.5715120954731039 -0.6904181153367722
vn 0.004524001485200525 0.9808863220186566 0.1945290638626377
vn -0.18358590117004486 0.9238785026476958 0.33577481924205443
vn 0.008897997473996794 0.9238787377251837 0.38258189139094645
vn -0.008897997473996794 -0.9238787377251837 -0.38258189139094645
vn 0.18358590117004486 -0.9238785026476958 -0.33577481924205443
vn -0.004524001485200525 -0.9808863220186566 -0.1945290638626377
vn -0.09334702805797386 0.980886294831904 0.17072905131723373
vn -0.32687806671957936 0.9238781885741821 0.1989970406175886
vn 0.32687806671957936 -0.9238781885741821 -0.1989970406175886
vn 0.09334702805797386 -0.980886294831904 -0.17072905131723373
vn 0.37471701526334844 -0.3799340154758525 -0.8457170344485926
vn -0.37471701526334844 0.3799340154758525 0.8457170344485926
vn 0.4208981858667858 -0.36390616069935844 -0.8309133669276847
vn -0.4208981858667858 0.36390616069935844 0.8309133669276847
vn 0.5090569954620114 -0.3293819970637242 -0.795215992911047
vn 0.5052940548410827 -0.3561230386511039 -0.7860370853109676
vn -0.5052940548410827 0.3561230386511039 0.7860370853109676
vn -0.5090569954620114 0.3293819970637242 0.795215992911047
vn 0.1868119416997383 0.9823956934139997 0
vn -0.1868119416997383 -0.9823956934139997 0
vn -0.1662050459964218 0.9808862714554087 0.10118302800190095
vn 0.1662050459964218 -0.9808862714554087 -0.10118302800190095
vn -0.3825801841272789 0.9238794446424965 0.008898004282410287
vn 0.3825801841272789 -0.9238794446424965 -0.008898004282410287
vn -0.8106291658977076 0.38267807831622475 -0.4432130907048979
vn 0.8106291658977076 -0.38267807831622475 0.4432130907048979
vn -0.48041819454682855 0.38268115496791316 -0.7891473195676393
vn -0.010624997316497893 0.38266090335326114 -0.9238277666734697
vn 0.48041819454682855 -0.38268115496791316 0.7891473195676393
vn 0.010624997316497893 -0.38266090335326114 0.9238277666734697
vn 0.42096893774417127 0.3636769462169114 -0.8309778771091837
vn -0.42096893774417127 -0.3636769462169114 0.8309778771091837
vn 0.08019196533294068 0.9805365761131491 0.1792129225260911
vn -0.08019196533294068 -0.9805365761131491 -0.1792129225260911
vn -0.10118205505640894 0.9808865337318965 -0.16620409043698872
vn 0.10118205505640894 -0.9808865337318965 0.16620409043698872
vn -0.17072792893716066 0.9808865917212449 -0.09334596114619863
vn 0.17072792893716066 -0.9808865917212449 0.09334596114619863
vn -0.2590359688221736 0.9658488837494694 0.006024999274825106
vn 0.2590359688221736 -0.9658488837494694 -0.006024999274825106
vn 0.2771218896626945 0.7543446996543232 -0.5951197630504355
vn -0.2771218896626945 -0.7543446996543232 0.5951197630504355
vn 0.5122526325321201 0.3286557642365715 -0.7934624308043752
vn 0.4435047678851879 0.571511700890857 -0.6904186386591438
vn -0.4435047678851879 -0.571511700890857 0.6904186386591438
vn -0.5122526325321201 -0.3286557642365715 0.7934624308043752
vn 0.07809900541807964 0.9804850680206638 -0.1804150125162017
vn -0.07809900541807964 -0.9804850680206638 0.1804150125162017
vn -0.002112000629146073 0.9808932921993272 -0.19453505795025158
vn 0.002112000629146073 -0.9808932921993272 0.19453505795025158
vn -0.33577190890358244 0.9238797493473004 -0.1835849501925836
vn 0.33577190890358244 -0.9238797493473004 0.1835849501925836
vn -0.1989959614160798 0.9238788208663812 -0.32687693662085626
vn -0.004153999568272769 0.9238679039819517 -0.38268896022694704
vn 0.004153999568272769 -0.9238679039819517 0.38268896022694704
vn 0.1989959614160798 -0.9238788208663812 0.32687693662085626
usemtl material_0_0
f 1//1 2//2 3//3
f 2//2 1//1 4//4
f 3//5 2//6 1//7
f 4//8 1//7 2//6
f 5//9 3//3 2//2
f 2//6 3//5 5//10
f 6//11 1//1 3//3
f 3//5 1//7 6//12
f 1//1 7//13 4//4
f 4//8 7//14 1//7
f 8//15 2//16 4//15
f 4//17 2//18 8//17
f 3//3 5//9 9//19
f 9//20 5//10 3//5
f 10//16 5//21 2//16
f 2//18 5//22 10//18
f 1//1 6//11 11//23
f 11//24 6//12 1//7
f 3//3 12//25 6//11
f 6//12 12//26 3//5
f 7//13 1//1 13//27
f 13//28 1//7 7//14
f 7//29 8//15 4//15
f 4//17 8//17 7//30
f 2//16 8//15 10//16
f 10//18 8//17 2//18
f 14//31 9//19 5//9
f 5//10 9//20 14//32
f 12//25 3//3 9//19
f 9//20 3//5 12//26
f 5//21 10//16 15//21
f 15//22 10//18 5//22
f 16//33 11//23 6//11
f 6//12 11//24 16//34
f 17//35 1//1 11//23
f 11//24 1//7 17//36
f 18//37 6//11 12//25
f 12//26 6//12 18//38
f 1//1 17//35 13//27
f 13//28 17//36 1//7
f 7//13 13//27 19//39
f 19//40 13//28 7//14
f 8//15 7//29 20//41
f 20//42 7//30 8//17
f 8//43 21//44 10//44
f 10//45 21//45 8//46
f 9//19 14//31 22//47
f 22//48 14//32 9//20
f 15//21 14//49 5//21
f 5//22 14//50 15//22
f 9//19 22//47 12//25
f 12//26 22//48 9//20
f 10//44 23//51 15//51
f 15//52 23//52 10//45
f 11//23 16//33 24//53
f 24//54 16//34 11//24
f 6//11 18//37 16//33
f 16//34 18//38 6//12
f 11//23 25//55 17//35
f 17//36 25//56 11//24
f 12//25 14//31 18//37
f 18//38 14//32 12//26
f 13//27 17//35 26//57
f 26//58 17//36 13//28
f 13//27 26//57 19//39
f 19//40 26//58 13//28
f 27//59 7//29 19//60
f 19//61 7//30 27//62
f 27//59 20//41 7//29
f 7//30 20//42 27//62
f 28//63 8//43 20//64
f 20//65 8//46 28//66
f 21//44 8//43 29//43
f 29//46 8//46 21//45
f 23//51 10//44 21//44
f 21//45 10//45 23//52
f 14//31 12//25 22//47
f 22//48 12//26 14//32
f 14//49 15//21 30//49
f 30//50 15//22 14//50
f 23//51 30//67 15//51
f 15//52 30//68 23//52
f 16//69 31//70 24//70
f 24//71 31//71 16//72
f 25//55 11//23 24//53
f 24//54 11//24 25//56
f 32//73 16//69 18//73
f 18//74 16//72 32//74
f 33//75 17//35 25//55
f 25//56 17//36 33//76
f 30//49 18//73 14//49
f 14//50 18//74 30//50
f 26//57 17//35 33//75
f 33//76 17//36 26//58
f 34//77 20//64 27//78
f 27//79 20//65 34//80
f 8//43 28//63 29//43
f 29//46 28//66 8//46
f 34//77 28//63 20//64
f 20//65 28//66 34//80
f 35//81 21//82 29//83
f 29//84 21//85 35//86
f 36//87 23//88 21//82
f 21//85 23//89 36//90
f 30//67 23//51 37//67
f 37//68 23//52 30//68
f 31//70 16//69 38//69
f 38//72 16//72 31//71
f 39//91 24//70 31//70
f 31//71 24//71 39//92
f 24//70 39//91 25//93
f 25//94 39//92 24//71
f 16//69 32//73 38//69
f 38//72 32//74 16//72
f 18//73 30//49 32//73
f 32//74 30//50 18//74
f 33//95 25//93 40//96
f 40//97 25//94 33//98
f 28//63 35//81 29//83
f 29//84 35//86 28//66
f 28//63 34//77 41//99
f 41//100 34//80 28//66
f 21//82 35//81 36//87
f 36//90 35//86 21//85
f 23//88 36//87 42//101
f 42//102 36//90 23//89
f 42//101 37//103 23//88
f 23//89 37//104 42//102
f 37//67 32//105 30//67
f 30//68 32//106 37//68
f 43//107 31//108 38//107
f 38//109 31//110 43//109
f 44//108 39//111 31//108
f 31//110 39//112 44//110
f 40//96 25//93 39//91
f 39//92 25//94 40//97
f 45//105 38//107 32//105
f 32//106 38//109 45//106
f 35//81 28//63 46//113
f 46//114 28//66 35//86
f 28//63 41//99 46//113
f 46//114 41//100 28//66
f 35//81 47//115 36//87
f 36//90 47//116 35//86
f 36//87 48//117 42//101
f 42//102 48//118 36//90
f 37//103 42//101 49//119
f 49//120 42//102 37//104
f 32//105 37//67 45//105
f 45//106 37//68 32//106
f 31//108 43//107 44//108
f 44//110 43//109 31//110
f 38//107 45//105 43//107
f 43//109 45//106 38//109
f 39//111 44//108 50//121
f 50//122 44//110 39//112
f 40//123 39//111 51//124
f 51//125 39//112 40//126
f 52//127 35//81 46//113
f 46//114 35//86 52//128
f 46//113 41//99 52//127
f 52//128 41//100 46//114
f 47//115 35//81 53//129
f 53//130 35//86 47//116
f 48//117 36//87 47//115
f 47//116 36//90 48//118
f 42//101 48//117 49//119
f 49//120 48//118 42//102
f 48//117 37//103 49//119
f 49//120 37//104 48//118
f 37//103 48//117 45//131
f 45//132 48//118 37//104
f 43//133 53//129 44//134
f 44//135 53//130 43//136
f 45//131 47//115 43//133
f 43//136 47//116 45//132
f 53//129 50//121 44//134
f 44//135 50//122 53//130
f 51//124 39//111 50//121
f 50//122 39//112 51//125
f 35//81 52//127 53//129
f 53//130 52//128 35//86
f 41//99 50//121 52//127
f 52//128 50//122 41//100
f 53//129 43//133 47//115
f 47//116 43//136 53//130
f 47//115 45//131 48//117
f 48//118 45//132 47//116
f 50//121 53//129 52//127
f 52//128 53//130 50//122
f 41//99 51//124 50//121
f 50//122 51//125 41//100
