# SSTK version 0.8.0
# 3
mtllib original-3.mtl
o mesh3/mesh3-geometry#mesh3-geometry
v 0.023196 -0.411051 0.133129
v 0.040262 -0.411051 0.136475
v 0.032086 -0.411051 0.124238
v 0.028647 -0.411051 0.141286
v 0.040262 -0.503252 0.136475
v 0.015038 -0.411051 0.127678
v 0.023196 -0.394288 0.133129
v 0.043134 -0.411051 0.150909
v 0.032086 -0.503252 0.124238
v 0.043134 -0.503252 0.150909
v 0.019849 -0.411051 0.116062
v 0.028647 -0.394288 0.141286
v 0.030561 -0.411051 0.150909
v 0.044134 -0.503252 0.134871
v 0.019849 -0.503252 0.116062
v 0.047324 -0.503252 0.150909
v 0.005415 -0.411051 0.125764
v 0.015038 -0.394288 0.127678
v 0.028647 -0.411051 0.160532
v 0.040262 -0.503252 0.165343
v 0.035049 -0.503252 0.121275
v 0.005415 -0.503252 0.113191
v 0.005415 -0.411051 0.113191
v 0.030561 -0.394288 0.150909
v 0.040262 -0.411051 0.165343
v 0.044134 -0.587070 0.134871
v 0.047324 -0.587070 0.150909
v 0.021453 -0.503252 0.112190
v 0.044134 -0.503252 0.166947
v -0.009019 -0.411051 0.116062
v 0.005415 -0.394288 0.125764
v 0.023196 -0.411051 0.168690
v 0.028647 -0.394288 0.160532
v 0.032086 -0.503252 0.177580
v 0.035049 -0.587070 0.121275
v 0.044134 -0.587070 0.166947
v 0.021453 -0.587070 0.112190
v -0.009019 -0.503252 0.116062
v 0.005415 -0.503252 0.109000
v -0.004208 -0.411051 0.127678
v 0.032086 -0.411051 0.177580
v 0.051878 -0.587070 0.131664
v 0.055706 -0.587070 0.150909
v 0.005415 -0.587070 0.109000
v 0.035049 -0.503252 0.180543
v 0.035049 -0.587070 0.180543
v -0.010623 -0.503252 0.112190
v -0.021256 -0.411051 0.124238
v -0.021256 -0.503252 0.124238
v -0.004208 -0.394288 0.127678
v 0.015038 -0.411051 0.174141
v 0.023196 -0.394288 0.168690
v 0.019849 -0.411051 0.185756
v 0.040976 -0.587070 0.115348
v 0.051878 -0.587070 0.170155
v 0.024661 -0.587070 0.104446
v 0.019849 -0.503252 0.185756
v -0.024219 -0.503252 0.121275
v -0.010623 -0.587070 0.112190
v -0.012365 -0.411051 0.133129
v 0.015038 -0.394288 0.174141
v 0.051878 -0.687652 0.131664
v 0.055706 -0.687652 0.150909
v 0.051878 -0.687652 0.170155
v 0.005415 -0.587070 0.100618
v 0.021453 -0.503252 0.189628
v 0.040976 -0.587070 0.186470
v -0.024219 -0.587070 0.121275
v -0.013830 -0.587070 0.104446
v -0.029432 -0.411051 0.136475
v -0.033304 -0.503252 0.134871
v -0.012365 -0.394288 0.133129
v 0.005415 -0.411051 0.176055
v 0.005415 -0.394288 0.176055
v 0.005415 -0.411051 0.188627
v 0.040976 -0.687652 0.115348
v 0.024661 -0.687652 0.104446
v 0.040976 -0.687652 0.186470
v 0.005415 -0.687652 0.100618
v 0.005415 -0.503252 0.188627
v 0.021453 -0.587070 0.189628
v -0.030146 -0.587070 0.115348
v -0.017816 -0.411051 0.141286
v -0.029432 -0.503252 0.136475
v -0.017816 -0.394288 0.141286
v -0.013830 -0.687652 0.104446
v 0.005415 -0.503252 0.192818
v 0.024661 -0.587070 0.197372
v -0.033304 -0.587070 0.134871
v -0.030146 -0.687652 0.115348
v -0.041048 -0.587070 0.131664
v -0.032303 -0.411051 0.150909
v -0.036494 -0.503252 0.150909
v -0.009019 -0.411051 0.185756
v -0.004208 -0.394288 0.174141
v -0.010623 -0.503252 0.189628
v 0.005415 -0.587070 0.192818
v 0.024661 -0.687652 0.197372
v -0.019730 -0.411051 0.150909
v -0.019730 -0.394288 0.150909
v -0.032303 -0.503252 0.150909
v -0.004208 -0.411051 0.174141
v -0.009019 -0.503252 0.185756
v 0.005415 -0.587070 0.201200
v -0.044876 -0.587070 0.150909
v -0.036494 -0.587070 0.150909
v -0.041048 -0.687652 0.131664
v -0.029432 -0.411051 0.165343
v -0.033304 -0.503252 0.166947
v -0.021256 -0.411051 0.177580
v -0.012365 -0.394288 0.168690
v -0.024219 -0.503252 0.180543
v -0.010623 -0.587070 0.189628
v -0.013830 -0.587070 0.197372
v 0.005415 -0.687652 0.201200
v -0.017816 -0.411051 0.160532
v -0.017816 -0.394288 0.160532
v -0.029432 -0.503252 0.165343
v -0.012365 -0.411051 0.168690
v -0.021256 -0.503252 0.177580
v -0.041048 -0.587070 0.170155
v -0.044876 -0.687652 0.150909
v -0.033304 -0.587070 0.166947
v -0.024219 -0.587070 0.180543
v -0.030146 -0.587070 0.186470
v -0.013830 -0.687652 0.197372
v -0.041048 -0.687652 0.170155
v -0.030146 -0.687652 0.186470
vn 0 1 0
vn 0 -1 0
vn 0.9238797538373538 0 -0.38268289803626016
vn 0.7071072811865696 0 -0.7071062811861719
vn -0.9238797538373538 0 0.38268289803626016
vn -0.7071072811865696 0 0.7071062811861719
vn 0.7071062811861719 0 -0.7071072811865696
vn -0.7071062811861719 0 0.7071072811865696
vn 1 0 0
vn -1 0 0
vn 0.3826841051430464 0 -0.9238792538372457
vn -0.3826841051430464 0 0.9238792538372457
vn 0.9238797538373538 0 0.38268289803626016
vn -0.9238797538373538 0 -0.38268289803626016
vn 0 0 -1
vn 0 0 1
vn 0.9238792538372457 0 -0.3826841051430464
vn 0.7071067811865476 0 -0.7071067811865476
vn -0.9238792538372457 0 0.3826841051430464
vn -0.7071067811865476 0 0.7071067811865476
vn 0.7071072811865696 0 0.7071062811861719
vn -0.7071072811865696 0 -0.7071062811861719
vn 0.9238792538372457 0 0.3826841051430464
vn -0.9238792538372457 0 -0.3826841051430464
vn -0.3826841051430464 0 -0.9238792538372457
vn 0.3826841051430464 0 0.9238792538372457
vn 0.7071062811861719 0 0.7071072811865696
vn -0.7071062811861719 0 -0.7071072811865696
vn 0.7071067811865476 0 0.7071067811865476
vn -0.7071067811865476 0 -0.7071067811865476
vn 0.38268289803626016 0 0.9238797538373538
vn -0.38268289803626016 0 -0.9238797538373538
vn 0.382682044482198 0 0.923880107389982
vn -0.382682044482198 0 -0.923880107389982
vn -0.382682044482198 0 0.923880107389982
vn 0.382682044482198 0 -0.923880107389982
vn -0.38268289803626016 0 0.9238797538373538
vn 0.38268289803626016 0 -0.9238797538373538
usemtl material_0_0
f 1//1 2//1 3//1
f 2//1 1//1 4//1
f 3//2 2//2 1//2
f 4//2 1//2 2//2
f 5//3 3//4 2//3
f 2//5 3//6 5//5
f 3//1 6//1 1//1
f 1//2 6//2 3//2
f 7//7 4//3 1//7
f 1//8 4//5 7//8
f 4//1 8//1 2//1
f 2//2 8//2 4//2
f 3//4 5//3 9//4
f 9//6 5//5 3//6
f 2//3 10//9 5//3
f 5//5 10//10 2//5
f 6//1 3//1 11//1
f 11//2 3//2 6//2
f 6//11 7//7 1//7
f 1//8 7//8 6//12
f 4//3 7//7 12//3
f 12//5 7//8 4//5
f 8//1 4//1 13//1
f 13//2 4//2 8//2
f 10//9 2//3 8//9
f 8//10 2//5 10//10
f 14//1 9//1 5//1
f 5//2 9//2 14//2
f 15//11 3//4 9//4
f 9//6 3//6 15//12
f 16//1 5//1 10//1
f 10//2 5//2 16//2
f 3//4 15//11 11//11
f 11//12 15//12 3//6
f 11//1 17//1 6//1
f 6//2 17//2 11//2
f 7//7 6//11 18//11
f 18//12 6//12 7//8
f 12//3 13//9 4//3
f 4//5 13//10 12//5
f 19//1 8//1 13//1
f 13//2 8//2 19//2
f 8//9 20//13 10//9
f 10//10 20//14 8//10
f 9//1 14//1 21//1
f 21//2 14//2 9//2
f 5//1 16//1 14//1
f 14//2 16//2 5//2
f 21//1 15//1 9//1
f 9//2 15//2 21//2
f 20//1 16//1 10//1
f 10//2 16//2 20//2
f 22//15 11//11 15//11
f 15//12 11//12 22//16
f 17//1 11//1 23//1
f 23//2 11//2 17//2
f 17//15 18//11 6//11
f 6//12 18//12 17//16
f 13//9 12//3 24//9
f 24//10 12//5 13//10
f 8//1 19//1 25//1
f 25//2 19//2 8//2
f 24//9 19//13 13//9
f 13//10 19//14 24//10
f 20//13 8//9 25//13
f 25//14 8//10 20//14
f 26//17 21//18 14//17
f 14//19 21//20 26//19
f 27//9 14//17 16//9
f 16//10 14//19 27//10
f 15//1 21//1 28//1
f 28//2 21//2 15//2
f 16//1 20//1 29//1
f 29//2 20//2 16//2
f 11//11 22//15 23//15
f 23//16 22//16 11//12
f 28//1 22//1 15//1
f 15//2 22//2 28//2
f 30//1 17//1 23//1
f 23//2 17//2 30//2
f 18//11 17//15 31//15
f 31//16 17//16 18//12
f 32//1 25//1 19//1
f 19//2 25//2 32//2
f 19//13 24//9 33//13
f 33//14 24//10 19//14
f 25//13 34//21 20//13
f 20//14 34//22 25//14
f 21//18 26//17 35//18
f 35//20 26//19 21//20
f 14//17 27//9 26//17
f 26//19 27//10 14//19
f 16//9 36//23 27//9
f 27//10 36//24 16//10
f 21//18 37//11 28//11
f 28//12 37//12 21//20
f 34//1 29//1 20//1
f 20//2 29//2 34//2
f 36//23 16//9 29//23
f 29//24 16//10 36//24
f 38//25 23//15 22//15
f 22//16 23//16 38//26
f 22//1 28//1 39//1
f 39//2 28//2 22//2
f 17//1 30//1 40//1
f 40//2 30//2 17//2
f 23//15 38//25 30//25
f 30//26 38//26 23//16
f 40//25 31//15 17//15
f 17//16 31//16 40//26
f 25//1 32//1 41//1
f 41//2 32//2 25//2
f 33//13 32//27 19//13
f 19//14 32//28 33//14
f 34//21 25//13 41//21
f 41//22 25//14 34//22
f 42//1 35//1 26//1
f 26//2 35//2 42//2
f 37//11 21//18 35//18
f 35//20 21//20 37//12
f 43//1 26//1 27//1
f 27//2 26//2 43//2
f 36//1 43//1 27//1
f 27//2 43//2 36//2
f 44//15 28//11 37//11
f 37//12 28//12 44//16
f 29//1 34//1 45//1
f 45//2 34//2 29//2
f 29//23 46//29 36//23
f 36//24 46//30 29//24
f 22//1 47//1 38//1
f 38//2 47//2 22//2
f 28//11 44//15 39//15
f 39//16 44//16 28//12
f 47//1 22//1 39//1
f 39//2 22//2 47//2
f 48//1 40//1 30//1
f 30//2 40//2 48//2
f 49//22 30//25 38//25
f 38//26 30//26 49//21
f 31//15 40//25 50//25
f 50//26 40//26 31//16
f 51//1 41//1 32//1
f 32//2 41//2 51//2
f 32//27 33//13 52//27
f 52//28 33//14 32//28
f 53//31 34//21 41//21
f 41//22 34//22 53//32
f 35//1 42//1 54//1
f 54//2 42//2 35//2
f 26//1 43//1 42//1
f 42//2 43//2 26//2
f 54//1 37//1 35//1
f 35//2 37//2 54//2
f 43//1 36//1 55//1
f 55//2 36//2 43//2
f 56//1 44//1 37//1
f 37//2 44//2 56//2
f 57//1 45//1 34//1
f 34//2 45//2 57//2
f 46//29 29//23 45//29
f 45//30 29//24 46//30
f 46//1 55//1 36//1
f 36//2 55//2 46//2
f 58//1 38//1 47//1
f 47//2 38//2 58//2
f 59//25 39//15 44//15
f 44//16 39//16 59//26
f 39//15 59//25 47//25
f 47//26 59//26 39//16
f 40//1 48//1 60//1
f 60//2 48//2 40//2
f 30//25 49//22 48//22
f 48//21 49//21 30//26
f 38//1 58//1 49//1
f 49//2 58//2 38//2
f 60//28 50//25 40//25
f 40//26 50//26 60//27
f 41//1 51//1 53//1
f 53//2 51//2 41//2
f 32//27 61//33 51//33
f 51//34 61//34 32//28
f 61//33 32//27 52//27
f 52//28 32//28 61//34
f 34//21 53//31 57//31
f 57//32 53//32 34//22
f 62//17 54//18 42//17
f 42//19 54//20 62//19
f 63//9 42//17 43//9
f 43//10 42//19 63//10
f 37//1 54//1 56//1
f 56//2 54//2 37//2
f 64//13 43//9 55//13
f 55//14 43//10 64//14
f 44//1 56//1 65//1
f 65//2 56//2 44//2
f 45//1 57//1 66//1
f 66//2 57//2 45//2
f 66//31 46//29 45//29
f 45//30 46//30 66//32
f 55//1 46//1 67//1
f 67//2 46//2 55//2
f 47//25 68//30 58//30
f 58//29 68//29 47//26
f 44//1 69//1 59//1
f 59//2 69//2 44//2
f 68//30 47//25 59//25
f 59//26 47//26 68//29
f 70//1 60//1 48//1
f 48//2 60//2 70//2
f 49//22 70//14 48//22
f 48//21 70//13 49//21
f 71//1 49//1 58//1
f 58//2 49//2 71//2
f 50//25 60//28 72//28
f 72//27 60//27 50//26
f 73//1 53//1 51//1
f 51//2 53//2 73//2
f 74//16 51//33 61//33
f 61//34 51//34 74//15
f 75//16 57//31 53//31
f 53//32 57//32 75//15
f 54//18 62//17 76//18
f 76//20 62//19 54//20
f 42//17 63//9 62//17
f 62//19 63//10 42//19
f 43//9 64//13 63//9
f 63//10 64//14 43//10
f 54//18 77//11 56//11
f 56//12 77//12 54//20
f 55//13 78//29 64//13
f 64//14 78//30 55//14
f 56//11 79//15 65//15
f 65//16 79//16 56//12
f 69//1 44//1 65//1
f 65//2 44//2 69//2
f 80//1 66//1 57//1
f 57//2 66//2 80//2
f 46//29 66//31 81//31
f 81//32 66//32 46//30
f 81//1 67//1 46//1
f 46//2 67//2 81//2
f 78//29 55//13 67//29
f 67//30 55//14 78//30
f 68//30 71//24 58//30
f 58//29 71//23 68//29
f 82//1 59//1 69//1
f 69//2 59//2 82//2
f 59//1 82//1 68//1
f 68//2 82//2 59//2
f 60//1 70//1 83//1
f 83//2 70//2 60//2
f 70//14 49//22 84//14
f 84//13 49//21 70//13
f 49//1 71//1 84//1
f 84//2 71//2 49//2
f 60//28 85//14 72//28
f 72//27 85//13 60//27
f 53//1 73//1 75//1
f 75//2 73//2 53//2
f 51//33 74//16 73//16
f 73//15 74//15 51//34
f 57//31 75//16 80//16
f 80//15 75//15 57//32
f 77//11 54//18 76//18
f 76//20 54//20 77//12
f 79//15 56//11 77//11
f 77//12 56//12 79//16
f 86//25 65//15 79//15
f 79//16 65//16 86//26
f 65//15 86//25 69//25
f 69//26 86//26 65//16
f 66//1 80//1 87//1
f 87//2 80//2 66//2
f 87//16 81//31 66//31
f 66//32 81//32 87//15
f 67//1 81//1 88//1
f 88//2 81//2 67//2
f 88//31 78//29 67//29
f 67//30 78//30 88//32
f 71//24 68//30 89//24
f 89//23 68//29 71//23
f 69//25 90//30 82//30
f 82//29 90//29 69//26
f 91//1 68//1 82//1
f 82//2 68//2 91//2
f 92//1 83//1 70//1
f 70//2 83//2 92//2
f 85//14 60//28 83//14
f 83//13 60//27 85//13
f 84//14 92//10 70//14
f 70//13 92//9 84//13
f 93//1 84//1 71//1
f 71//2 84//2 93//2
f 73//1 94//1 75//1
f 75//2 94//2 73//2
f 95//35 73//16 74//16
f 74//15 73//15 95//36
f 94//37 80//16 75//16
f 75//15 80//15 94//38
f 90//30 69//25 86//25
f 86//26 69//26 90//29
f 80//1 96//1 87//1
f 87//2 96//2 80//2
f 81//31 87//16 97//16
f 97//15 87//15 81//32
f 97//1 88//1 81//1
f 81//2 88//2 97//2
f 78//29 88//31 98//31
f 98//32 88//32 78//30
f 68//1 91//1 89//1
f 89//2 91//2 68//2
f 89//24 93//10 71//24
f 71//23 93//9 89//23
f 90//30 91//24 82//30
f 82//29 91//23 90//29
f 83//1 92//1 99//1
f 99//2 92//2 83//2
f 83//14 100//10 85//14
f 85//13 100//9 83//13
f 92//10 84//14 101//10
f 101//9 84//13 92//9
f 84//1 93//1 101//1
f 101//2 93//2 84//2
f 94//1 73//1 102//1
f 102//2 73//2 94//2
f 73//16 95//35 102//35
f 102//36 95//36 73//15
f 80//16 94//37 103//37
f 103//38 94//38 80//15
f 96//1 80//1 103//1
f 103//2 80//2 96//2
f 96//37 97//16 87//16
f 87//15 97//15 96//38
f 88//1 97//1 104//1
f 104//2 97//2 88//2
f 104//16 98//31 88//31
f 88//32 98//32 104//15
f 105//1 89//1 91//1
f 91//2 89//2 105//2
f 93//10 89//24 106//10
f 106//9 89//23 93//9
f 91//24 90//30 107//24
f 107//23 90//29 91//23
f 108//1 99//1 92//1
f 92//2 99//2 108//2
f 100//10 83//14 99//10
f 99//9 83//13 100//9
f 101//10 108//5 92//10
f 92//9 108//3 101//9
f 109//1 101//1 93//1
f 93//2 101//2 109//2
f 102//1 110//1 94//1
f 94//2 110//2 102//2
f 111//8 102//35 95//35
f 95//36 102//36 111//7
f 110//6 103//37 94//37
f 94//38 103//38 110//4
f 103//1 112//1 96//1
f 96//2 112//2 103//2
f 97//16 96//37 113//37
f 113//38 96//38 97//15
f 97//1 114//1 104//1
f 104//2 114//2 97//2
f 98//31 104//16 115//16
f 115//15 104//15 98//32
f 89//1 105//1 106//1
f 106//2 105//2 89//2
f 107//24 105//10 91//24
f 91//23 105//9 107//23
f 106//10 109//19 93//10
f 93//9 109//17 106//9
f 99//1 108//1 116//1
f 116//2 108//2 99//2
f 99//10 117//5 100//10
f 100//9 117//3 99//9
f 108//5 101//10 118//5
f 118//3 101//9 108//3
f 101//1 109//1 118//1
f 118//2 109//2 101//2
f 110//1 102//1 119//1
f 119//2 102//2 110//2
f 102//35 111//8 119//8
f 119//7 111//7 102//36
f 103//37 110//6 120//6
f 120//4 110//4 103//38
f 112//1 103//1 120//1
f 120//2 103//2 112//2
f 112//20 113//37 96//37
f 96//38 113//38 112//18
f 114//1 97//1 113//1
f 113//2 97//2 114//2
f 114//37 115//16 104//16
f 104//15 115//15 114//38
f 121//1 106//1 105//1
f 105//2 106//2 121//2
f 105//10 107//24 122//10
f 122//9 107//23 105//9
f 109//19 106//10 123//19
f 123//17 106//9 109//17
f 108//1 119//1 116//1
f 116//2 119//2 108//2
f 117//5 99//10 116//5
f 116//3 99//9 117//3
f 118//5 110//6 108//5
f 108//3 110//4 118//3
f 109//1 120//1 118//1
f 118//2 120//2 109//2
f 119//1 108//1 110//1
f 110//2 108//2 119//2
f 111//8 116//5 119//8
f 119//7 116//3 111//7
f 110//6 118//5 120//6
f 120//4 118//3 110//4
f 120//1 109//1 112//1
f 112//2 109//2 120//2
f 113//37 112//20 124//20
f 124//18 112//18 113//38
f 113//1 125//1 114//1
f 114//2 125//2 113//2
f 115//16 114//37 126//37
f 126//38 114//38 115//15
f 106//1 121//1 123//1
f 123//2 121//2 106//2
f 122//10 121//5 105//10
f 105//9 121//3 122//9
f 123//19 112//20 109//19
f 109//17 112//18 123//17
f 116//5 111//8 117//5
f 117//3 111//7 116//3
f 112//20 123//19 124//20
f 124//18 123//17 112//18
f 125//1 113//1 124//1
f 124//2 113//2 125//2
f 125//20 126//37 114//37
f 114//38 126//38 125//18
f 121//1 124//1 123//1
f 123//2 124//2 121//2
f 121//5 122//10 127//5
f 127//3 122//9 121//3
f 124//1 121//1 125//1
f 125//2 121//2 124//2
f 126//37 125//20 128//20
f 128//18 125//18 126//38
f 127//5 125//20 121//5
f 121//3 125//18 127//3
f 125//20 127//5 128//20
f 128//18 127//3 125//18
