# SSTK version 0.8.0
# 35
mtllib original-35.mtl
o mesh35/mesh35-geometry#mesh35-geometry
v 0.311823 -0.778726 0.544124
v 0.310351 -0.781231 0.542097
v 0.313737 -0.788745 0.546758
v 0.305934 -0.775470 0.536018
v 0.286613 -0.788745 0.566465
v 0.315553 -0.786964 0.549257
v 0.300782 -0.771824 0.528926
v 0.278810 -0.775470 0.555725
v 0.283227 -0.781231 0.561804
v 0.288756 -0.797511 0.569414
v 0.317892 -0.796593 0.552477
v 0.288429 -0.786964 0.568964
v 0.295236 -0.770599 0.521293
v 0.273657 -0.771824 0.548633
v 0.284699 -0.778726 0.563831
v 0.315880 -0.797511 0.549707
v 0.290768 -0.796593 0.572184
v 0.268112 -0.770599 0.541000
v 0.289476 -0.806946 0.570405
v 0.316600 -0.806946 0.550698
v 0.291570 -0.806946 0.573287
v 0.279857 -0.772381 0.557166
v 0.262583 -0.771824 0.533390
v 0.289067 -0.814042 0.569842
v 0.316191 -0.814042 0.550135
v 0.318694 -0.806946 0.553580
v 0.291112 -0.814738 0.572657
v 0.306981 -0.772381 0.537459
v 0.268128 -0.767037 0.541023
v 0.289707 -0.771824 0.513683
v 0.246012 -0.767037 0.510582
v 0.318236 -0.814738 0.552950
v 0.295252 -0.767037 0.521316
v 0.274197 -0.768401 0.549376
v 0.257446 -0.775470 0.526320
v 0.273136 -0.767037 0.490875
v 0.301321 -0.768401 0.529669
v 0.284571 -0.775470 0.506613
v 0.253013 -0.781231 0.520219
v 0.280137 -0.781231 0.500512
v 0.249627 -0.788745 0.515558
v 0.246012 -0.814042 0.510582
v 0.276751 -0.788745 0.495851
v 0.247484 -0.797511 0.512609
v 0.273136 -0.814042 0.490875
v 0.274608 -0.797511 0.492902
v 0.274314 -0.814042 0.492496
v 0.247190 -0.814042 0.512203
vn -0.8090171162840836 0.000004000000574940124 0.5877850844852952
vn 0.8090171162840836 -0.000004000000574940124 -0.5877850844852952
vn 0.8090158197407782 -9.999997771870743e-7 -0.5877868690334589
vn -0.8090158197407782 9.999997771870743e-7 0.5877868690334589
vn -0.5088902032881912 -0.5004321999094423 -0.7004272798021929
vn -0.41562678295517874 -0.7071066307412357 -0.5720617012631648
vn 0.5088902032881912 0.5004321999094423 0.7004272798021929
vn 0.41562678295517874 0.7071066307412357 0.5720617012631648
vn -0.8090141776829943 0.000005000001098145362 0.5877891290955528
vn 0.8090141776829943 -0.000005000001098145362 -0.5877891290955528
vn 0.8090128810322376 -0.00001599999764715252 -0.5877909135635891
vn -0.8090128810322376 0.00001599999764715252 0.5877909135635891
vn -0.2941469205878429 -0.8657757662626521 -0.4048578906987082
vn 0.2941469205878429 0.8657757662626521 0.4048578906987082
vn -0.5677880362984064 -0.2586190165333849 -0.7814940499605255
vn 0.5677880362984064 0.2586190165333849 0.7814940499605255
vn 0.809012881134173 -0.0000019999997061460644 -0.5877909136376507
vn -0.809012881134173 0.0000019999997061460644 0.5877909136376507
vn 0.4156270207192153 0.7071070352496401 0.572061028517529
vn 0.5088807821792255 0.5004607857833117 0.7004137001956844
vn -0.5088807821792255 -0.5004607857833117 -0.7004137001956844
vn -0.4156270207192153 -0.7071070352496401 -0.572061028517529
vn 0.8090195792496563 0.000014999992198888586 -0.5877816943098088
vn -0.8090195792496563 -0.000014999992198888586 0.5877816943098088
vn -0.1520120749333067 -0.9659794761729382 -0.20922710313706128
vn 0.1520120749333067 0.9659794761729382 0.20922710313706128
vn -0.8090216968754029 -0.0000059999977519182635 0.5877787797707942
vn 0.8090216968754029 0.0000059999977519182635 -0.5877787797707942
vn -0.8090200548657194 -0.000002000000135635014 0.587781039861842
vn 0.8090200548657194 0.000002000000135635014 -0.587781039861842
vn 0.5678110013681407 0.2584720006227883 0.7815260018830871
vn -0.5678110013681407 -0.2584720006227883 -0.7815260018830871
vn 0.00011099999801698505 -0.9999999821350004 0.00015299999726665507
vn -0.00011099999801698505 0.9999999821350004 -0.00015299999726665507
vn -0.8090192338126599 -0.000010000002890076253 0.58778216987348
vn 0.8090192338126599 0.000010000002890076253 -0.58778216987348
vn -0.8090213512273922 -0.000021000009116914437 0.5877792551776596
vn 0.8090213512273922 0.000021000009116914437 -0.5877792551776596
vn -0.8090221724010253 -0.000006000001278588408 0.5877781252543562
vn 0.8090221724010253 0.000006000001278588408 -0.5877781252543562
vn -0.5877128309241524 -0.01567399549083509 -0.80891776728693
vn 0.5877128309241524 0.01567399549083509 0.80891776728693
vn -0.8090171162901512 -0.000001000000143742531 0.5877850844897036
vn 0.8090171162901512 0.000001000000143742531 -0.5877850844897036
vn 0.5877130794288403 0.01564700211467683 0.8089181093244809
vn -0.5877130794288403 -0.01564700211467683 -0.8089181093244809
vn 0.2941639207373951 0.8657587667208988 0.40488189090438675
vn -0.2941639207373951 -0.8657587667208988 -0.40488189090438675
vn 0.15244004252224114 -0.9657842693997648 0.2098160585269388
vn -0.15244004252224114 0.9657842693997648 -0.2098160585269388
vn -0.809018758300019 -0.00000799999760994507 0.587782824395793
vn 0.809018758300019 0.00000799999760994507 -0.587782824395793
vn -0.809036864903395 0.000005999998998093252 0.5877579018535488
vn 0.809036864903395 -0.000005999998998093252 -0.5877579018535488
vn 0.808992310309285 0.000005000001917876104 -0.5878192254728026
vn -0.808992310309285 -0.000005000001917876104 0.5878192254728026
vn -0.8090251109537564 -0.000003000000411435085 0.5877740806102818
vn 0.8090251109537564 0.000003000000411435085 -0.5877740806102818
vn -0.8090171162901512 0.000001000000143742531 0.5877850844897036
vn 0.8090171162901512 -0.000001000000143742531 -0.5877850844897036
vn -0.8090171162759934 -0.000006000000862350186 0.5877850844794174
vn 0.8090171162759934 0.000006000000862350186 -0.5877850844794174
vn -0.5849811479315139 0.09756502467249048 -0.8051572036101924
vn 0.5849811479315139 -0.09756502467249048 0.8051572036101924
vn -0.8090099425081149 -0.0000019999998578710147 0.5877949582286465
vn 0.8090099425081149 0.0000019999998578710147 -0.5877949582286465
vn 0.8090179373075844 -0.000001999999845016018 -0.5877839544514475
vn -0.8090179373075844 0.000001999999845016018 0.5877839544514475
vn 0.5848679875852999 -0.09950499788785719 0.8050019829126257
vn -0.5848679875852999 0.09950499788785719 -0.8050019829126257
vn 0.8090398033560229 -9.999997569415886e-7 -0.5877538571414465
vn -0.8090398033560229 9.999997569415886e-7 0.5877538571414465
vn 0.8090166407619036 9.999995559572958e-7 -0.5877857389979151
vn -0.8090166407619036 -9.999995559572958e-7 0.5877857389979151
vn 0.15202493620077256 0.9659735946167084 0.2092449121876708
vn -0.15202493620077256 -0.9659735946167084 -0.2092449121876708
vn 0.2939801146872507 -0.8659393378194544 0.40462915785355325
vn -0.2939801146872507 0.8659393378194544 -0.40462915785355325
vn 0.809015819672821 -0.00001299999710233997 -0.5877868689840848
vn -0.809015819672821 0.00001299999710233997 0.5877868689840848
vn -0.8090171162869152 -0.0000030000004312155932 0.5877850844873524
vn 0.8090171162869152 0.0000030000004312155932 -0.5877850844873524
vn -0.8090171162905557 0 0.5877850844899974
vn 0.8090171162905557 0 -0.5877850844899974
vn -0.11527002071120046 -0.9805821761866086 -0.15865502850642413
vn 0.11527002071120046 0.9805821761866086 0.15865502850642413
vn 0.03856401530293703 0.9978453959640909 0.053079021062768246
vn -0.03856401530293703 -0.9978453959640909 -0.053079021062768246
vn 0.8090171162577905 0.00000900000129332278 -0.5877850844661922
vn -0.8090171162577905 -0.00000900000129332278 0.5877850844661922
vn 0.809016640755836 -0.000003999998223799183 -0.5877857389935067
vn -0.809016640755836 0.000003999998223799183 0.5877857389935067
vn -0.8090162952699671 0 0.587786214526725
vn 0.8090162952699671 0 -0.587786214526725
vn 0 1 0
vn 0 -1 0
vn 0.4152560514282194 -0.7077370876511205 0.5715510707848899
vn -0.4152560514282194 0.7077370876511205 -0.5715510707848899
vn 0.8090179373075844 0.000001999999845016018 -0.5877839544514475
vn -0.8090179373075844 -0.000001999999845016018 0.5877839544514475
vn -0.5877850844899974 0 -0.8090171162905557
vn 0.5877850844899974 0 0.8090171162905557
vn -0.8090128811357913 0 0.5877909136388264
vn 0.8090128811357913 0 -0.5877909136388264
vn 0.5088898468475881 -0.5004318493930558 0.7004277892034869
vn -0.5088898468475881 0.5004318493930558 -0.7004277892034869
vn -0.8090141776931069 0 0.5877891291029002
vn 0.8090141776931069 0 -0.5877891291029002
vn 0.8090184128365383 0.0000010000005102933905 -0.5877832999417801
vn -0.8090184128365383 -0.0000010000005102933905 0.5877832999417801
vn 0.5746010220942717 -0.21061400809842468 0.7908700304101395
vn -0.5746010220942717 0.21061400809842468 -0.7908700304101395
vn 0.5875151022094237 -0.030289005269348416 0.8086461406793727
vn -0.5875151022094237 0.030289005269348416 -0.8086461406793727
usemtl material_0_0
f 1//1 2//1 3//1
f 3//2 2//2 1//2
f 4//3 1//3 2//3
f 2//4 1//4 4//4
f 5//5 2//6 3//5
f 3//7 2//8 5//7
f 1//9 3//9 6//9
f 6//10 3//10 1//10
f 7//11 1//11 4//11
f 4//12 1//12 7//12
f 2//6 8//13 4//13
f 4//14 8//14 2//8
f 2//6 5//5 9//6
f 9//8 5//7 2//8
f 3//5 10//15 5//5
f 5//7 10//16 3//7
f 11//17 3//17 6//17
f 6//18 3//18 11//18
f 1//19 12//20 6//20
f 6//21 12//21 1//22
f 13//23 7//23 1//23
f 1//24 7//24 13//24
f 4//13 14//25 7//25
f 7//26 14//26 4//14
f 8//13 2//6 9//6
f 9//8 2//8 8//14
f 14//25 4//13 8//13
f 8//14 4//14 14//26
f 15//27 9//27 5//27
f 5//28 9//28 15//28
f 10//15 3//5 16//15
f 16//16 3//7 10//16
f 17//29 5//29 10//29
f 10//30 5//30 17//30
f 3//17 11//17 16//17
f 16//18 11//18 3//18
f 6//20 17//31 11//31
f 11//32 17//32 6//21
f 12//20 1//19 15//19
f 15//22 1//22 12//21
f 17//31 6//20 12//20
f 12//21 6//21 17//32
f 7//25 18//33 13//33
f 13//34 18//34 7//26
f 18//33 7//25 14//25
f 14//26 7//26 18//34
f 8//35 9//35 15//35
f 15//36 9//36 8//36
f 14//37 8//37 15//37
f 15//38 8//38 14//38
f 15//39 5//39 12//39
f 12//40 5//40 15//40
f 16//15 19//41 10//15
f 10//16 19//42 16//16
f 5//29 17//29 12//29
f 12//30 17//30 5//30
f 17//43 10//43 19//43
f 19//44 10//44 17//44
f 11//17 20//17 16//17
f 16//18 20//18 11//18
f 21//45 11//31 17//31
f 17//32 11//32 21//46
f 1//19 22//47 15//19
f 15//22 22//48 1//22
f 23//49 13//33 18//33
f 18//34 13//34 23//50
f 18//51 15//51 14//51
f 14//52 15//52 18//52
f 19//41 16//15 20//41
f 20//42 16//16 19//42
f 17//53 19//53 24//53
f 24//54 19//54 17//54
f 11//55 25//55 20//55
f 20//56 25//56 11//56
f 11//31 21//45 26//45
f 26//46 21//46 11//32
f 17//57 27//57 21//57
f 21//58 27//58 17//58
f 22//47 1//19 28//47
f 28//48 1//22 22//48
f 22//59 29//59 15//59
f 15//60 29//60 22//60
f 13//33 23//49 30//49
f 30//50 23//50 13//34
f 31//61 23//61 18//61
f 18//62 23//62 31//62
f 25//63 19//41 20//41
f 20//42 19//42 25//64
f 19//41 25//63 24//63
f 24//64 25//64 19//42
f 17//65 24//65 27//65
f 27//66 24//66 17//66
f 11//67 32//67 25//67
f 25//68 32//68 11//68
f 21//45 32//69 26//45
f 26//46 32//70 21//46
f 11//71 26//71 32//71
f 32//72 26//72 11//72
f 32//69 21//45 27//69
f 27//70 21//46 32//70
f 33//73 28//73 1//73
f 1//74 28//74 33//74
f 28//47 34//75 22//47
f 22//48 34//76 28//48
f 29//59 22//59 34//59
f 34//60 22//60 29//60
f 35//77 30//49 23//49
f 23//50 30//50 35//78
f 36//79 13//79 30//79
f 30//80 13//80 36//80
f 31//81 35//81 23//81
f 23//82 35//82 31//82
f 31//83 18//83 29//83
f 29//84 18//84 31//84
f 32//85 24//85 25//85
f 25//86 24//86 32//86
f 24//85 32//85 27//85
f 27//86 32//86 24//86
f 28//73 33//73 37//73
f 37//74 33//74 28//74
f 34//75 28//47 37//75
f 37//76 28//48 34//76
f 37//75 29//87 34//75
f 34//76 29//88 37//76
f 30//49 35//77 38//77
f 38//78 35//78 30//50
f 33//89 13//89 36//89
f 36//90 13//90 33//90
f 36//91 30//91 38//91
f 38//92 30//92 36//92
f 31//93 39//93 35//93
f 35//94 39//94 31//94
f 33//87 31//95 29//87
f 29//88 31//96 33//88
f 29//87 37//75 33//87
f 33//88 37//76 29//88
f 39//97 38//77 35//77
f 35//78 38//78 39//98
f 31//95 33//87 36//95
f 36//96 33//88 31//96
f 36//99 38//99 40//99
f 40//100 38//100 36//100
f 31//100 41//100 39//100
f 39//99 41//99 31//99
f 38//77 39//97 40//97
f 40//98 39//98 38//78
f 36//101 42//101 31//101
f 31//102 42//102 36//102
f 36//84 40//84 43//84
f 43//83 40//83 36//83
f 31//103 44//103 41//103
f 41//104 44//104 31//104
f 43//105 39//97 41//105
f 41//106 39//98 43//106
f 39//97 43//105 40//97
f 40//98 43//106 39//98
f 42//101 36//101 45//101
f 45//102 36//102 42//102
f 42//107 44//107 31//107
f 31//108 44//108 42//108
f 36//109 43//109 46//109
f 46//110 43//110 36//110
f 46//111 41//105 44//111
f 44//112 41//106 46//112
f 41//105 46//111 43//105
f 43//106 46//112 41//106
f 36//104 47//104 45//104
f 45//103 47//103 36//103
f 47//96 42//96 45//96
f 45//95 42//95 47//95
f 44//107 42//107 48//107
f 48//108 42//108 44//108
f 47//104 36//104 46//104
f 46//103 36//103 47//103
f 44//111 47//113 46//111
f 46//112 47//114 44//112
f 42//96 47//96 48//96
f 48//95 47//95 42//95
f 47//113 44//111 48//113
f 48//114 44//112 47//114
