# SSTK version 0.8.0
# 17
mtllib original-17.mtl
o mesh17/mesh17-geometry#mesh17-geometry
v -0.436401 -0.770599 -0.010272
v -0.455734 -0.771824 0.018699
v -0.445373 -0.771824 -0.013187
v -0.446761 -0.770599 0.021615
v -0.464071 -0.775470 0.015990
v -0.463239 -0.778726 -0.018992
v -0.427454 -0.771824 -0.007365
v -0.473600 -0.778726 0.012894
v -0.453711 -0.775470 -0.015896
v -0.437815 -0.771824 0.024521
v -0.400642 -0.767037 0.001347
v -0.471218 -0.781231 0.013668
v -0.460857 -0.781231 -0.018218
v -0.419143 -0.775470 -0.004665
v -0.411003 -0.767037 0.033233
v -0.436427 -0.767037 -0.010280
v -0.476697 -0.788745 0.011888
v -0.466336 -0.788745 -0.019998
v -0.429504 -0.775470 0.027222
v -0.446788 -0.767037 0.021606
v -0.411970 -0.781231 -0.002334
v -0.479635 -0.786964 0.010933
v -0.469274 -0.786964 -0.020953
v -0.422331 -0.781231 0.029552
v -0.406491 -0.788745 -0.000554
v -0.456607 -0.768401 0.018415
v -0.480164 -0.797511 0.010761
v -0.469803 -0.797511 -0.021125
v -0.411003 -0.814042 0.033233
v -0.416852 -0.788745 0.031333
v -0.403024 -0.797511 0.000573
v -0.446247 -0.768401 -0.013471
v -0.465765 -0.772381 0.015440
v -0.483420 -0.796593 0.009704
v -0.473059 -0.796593 -0.022183
v -0.455405 -0.772381 -0.016447
v -0.400642 -0.814042 0.001347
v -0.412908 -0.814042 0.032614
v -0.413385 -0.797511 0.032459
v -0.402548 -0.814042 0.000728
v -0.481329 -0.806946 0.010383
v -0.470968 -0.806946 -0.021503
v -0.474356 -0.806946 -0.022604
v -0.480667 -0.814042 0.010598
v -0.470306 -0.814042 -0.021289
v -0.484716 -0.806946 0.009282
v -0.473615 -0.814738 -0.022363
v -0.483975 -0.814738 0.009523
vn -0.00017899999683125255 -0.9999999822975004 -0.00005799999897325503
vn 0.2459611071547014 -0.9659794208357882 0.07991803481685888
vn -0.2459611071547014 0.9659794208357882 -0.07991803481685888
vn 0.00017899999683125255 0.9999999822975004 0.00005799999897325503
vn 0.4759397349159196 -0.8657755177891441 0.15464191386911721
vn -0.4759397349159196 0.8657755177891441 -0.15464191386911721
vn 0.30901595279642624 0.0000019999996944910698 -0.9510568547217968
vn -0.30901595279642624 -0.0000019999996944910698 0.9510568547217968
vn -0.24665404063181678 -0.9657841590955691 -0.08014201320195521
vn 0.24665404063181678 0.9657841590955691 0.08014201320195521
vn -0.3090219675982759 0.00001399999853206523 0.9510549002795213
vn 0.3090219675982759 -0.00001399999853206523 -0.9510549002795213
vn -0.3090111363088594 -0.000017000007498925963 0.9510584195243251
vn 0.3090111363088594 0.000017000007498925963 -0.9510584195243251
vn 0.3090180556764061 -0.00001400000252240868 -0.9510561713537079
vn -0.3090180556764061 0.00001400000252240868 0.9510561713537079
vn 0.6724982762280513 -0.7071072904436722 0.21850708975158703
vn -0.6724982762280513 0.7071072904436722 -0.21850708975158703
vn -0.3090159527968898 9.99999847247035e-7 0.9510568547232234
vn 0.3090159527968898 -9.99999847247035e-7 -0.9510568547232234
vn 0.30901805570112756 -0.000006000001081512292 -0.9510561714297924
vn -0.30901805570112756 0.000006000001081512292 0.9510561714297924
vn -0.47566976896344393 -0.8659395794063208 -0.15455392493194045
vn 0.47566976896344393 0.8659395794063208 0.15455392493194045
vn 0.30901595279642624 -0.0000019999996944910698 -0.9510568547217968
vn -0.30901595279642624 0.0000019999996944910698 0.9510568547217968
vn 0.3090159527709324 0.000012999998013119453 -0.9510568546433346
vn -0.3090159527709324 -0.000012999998013119453 0.9510568546433346
vn 0.3090180557065354 0.0000010000001802695485 -0.9510561714464358
vn -0.3090180557065354 -0.0000010000001802695485 0.9510561714464358
vn 0.3090219676271694 -0.0000029999996857230494 -0.9510549003684449
vn -0.3090219676271694 0.0000029999996857230494 0.9510549003684449
vn -0.3090168572980569 0.00000699999676744774 0.9510565608083636
vn 0.3090168572980569 -0.00000699999676744774 -0.9510565608083636
vn -0.30901504827510706 -0.000009000001406002829 0.9510571485765369
vn 0.30901504827510706 0.000009000001406002829 -0.9510571485765369
vn -0.06239802528664889 0.9978454043744376 -0.020274008215992814
vn 0 1 0
vn 0.06239802528664889 -0.9978454043744376 0.020274008215992814
vn 0 -1 0
vn 0.823402127230048 -0.500431077325365 0.26754004133962156
vn -0.823402127230048 0.500431077325365 -0.26754004133962156
vn 0.30900783503930135 0.000003999997864641709 -0.9510594922865361
vn -0.30900783503930135 -0.000003999997864641709 0.9510594922865361
vn -0.6718986875786052 -0.7077366709145559 -0.21831389848777213
vn 0.6718986875786052 0.7077366709145559 0.21831389848777213
vn -0.30901896021427494 0 0.9510558775529903
vn 0.30901896021427494 0 -0.9510558775529903
vn 0.30901805570529933 -0.0000030000005407966463 -0.9510561714426317
vn -0.30901805570529933 0.0000030000005407966463 0.9510561714426317
vn -0.24598188701747045 0.9659735563163727 -0.07992496328947372
vn 0.24598188701747045 -0.9659735563163727 0.07992496328947372
vn -0.30900993795235576 -0.0000029999993976151817 0.9510588090321657
vn 0.30900993795235576 0.0000029999993976151817 -0.9510588090321657
vn -0.6724991525561137 0.707106160406697 -0.2185080495684474
vn -0.8233859346754443 0.5004609602951806 -0.2675339787747913
vn 0.8233859346754443 -0.5004609602951806 0.2675339787747913
vn 0.6724991525561137 -0.707106160406697 0.2185080495684474
vn 0.9187007841894022 -0.25861993924798515 0.2985039298788978
vn -0.9187007841894022 0.25861993924798515 -0.2985039298788978
vn 0.3090150482876222 0 -0.9510571486150547
vn -0.3090150482876222 0 0.9510571486150547
vn 0.9510561714469115 0 0.3090180557066899
vn -0.9510561714469115 0 -0.3090180557066899
vn 0.3090069305276791 0 -0.9510597861784831
vn -0.3090069305276791 0 0.9510597861784831
vn -0.8234017151738684 -0.500431826893655 -0.26753990745421646
vn 0.8234017151738684 0.500431826893655 0.26753990745421646
vn -0.9187381807024962 0.2584730508379063 -0.29851605871378606
vn 0.9187381807024962 -0.2584730508379063 0.29851605871378606
vn -0.4759669612155957 0.8657589294532035 -0.15465098739818747
vn 0.4759669612155957 -0.8657589294532035 0.15465098739818747
vn -0.30902015861622545 0 0.9510554881650193
vn 0.30902015861622545 0 -0.9510554881650193
vn -0.3090198647210215 0 0.9510555836583904
vn 0.3090198647210215 0 -0.9510555836583904
vn 0.30901204086560913 0 -0.9510581257736412
vn -0.30901204086560913 0 0.9510581257736412
vn -0.9297232387762014 -0.21061505409121822 -0.3020860775832669
vn 0.9297232387762014 0.21061505409121822 0.3020860775832669
vn 0.3090189602118028 -0.000003999999484974099 -0.9510558775453818
vn -0.3090189602118028 0.000003999999484974099 0.9510558775453818
vn -0.30901294537547747 -0.000002999999469687141 0.9510578318805708
vn 0.30901294537547747 0.000002999999469687141 -0.9510578318805708
vn 0.9509397240767961 -0.01567399545205765 0.30897891034715586
vn -0.9509397240767961 0.01567399545205765 -0.30897891034715586
vn 0.3090069305275246 -9.999997751750757e-7 -0.9510597861780075
vn -0.3090069305275246 9.999997751750757e-7 0.9510597861780075
vn -0.9506202314907892 -0.03028800737560016 -0.3088750752158776
vn 0.9506202314907892 0.03028800737560016 0.3088750752158776
vn -0.9509401261659896 0.015647002075966136 -0.30897904099379697
vn 0.9509401261659896 -0.015647002075966136 0.30897904099379697
vn -0.3089639217029908 0.00000799999797265677 0.9510737589808206
vn 0.3089639217029908 -0.00000799999797265677 -0.9510737589808206
vn 0.30903098984987726 0.000004999999835775008 -0.9510519687626985
vn -0.30903098984987726 -0.000004999999835775008 0.9510519687626985
vn 0.3090099379535918 9.999997992090604e-7 -0.9510588090359698
vn -0.3090099379535918 -9.999997992090604e-7 0.9510588090359698
vn 0.9465189957946161 0.09756899956650093 0.3075419986335909
vn -0.9465189957946161 -0.09756899956650093 -0.3075419986335909
vn -0.30901715119811185 -0.000001000000489287359 0.9510564653396786
vn 0.30901715119811185 0.000001000000489287359 -0.9510564653396786
vn 0.3090120408654546 0.0000010000001322455263 -0.9510581257731657
vn -0.3090120408654546 -0.0000010000001322455263 0.9510581257731657
vn -0.9463369323757116 -0.09950499288947297 -0.3074819780276461
vn 0.9463369323757116 0.09950499288947297 0.3074819780276461
vn -0.3090451223457344 0 0.9510473765035631
vn 0.3090451223457344 0 -0.9510473765035631
vn 0.18651100997404957 -0.9805820524385879 0.06060100324075995
vn -0.18651100997404957 0.9805820524385879 -0.06060100324075995
usemtl material_0_0
f 1//1 2//2 3//2
f 2//2 1//1 4//1
f 3//3 2//3 1//4
f 4//4 1//4 2//3
f 5//5 3//2 2//2
f 2//3 3//3 5//6
f 1//7 6//7 3//7
f 3//8 6//8 1//8
f 7//9 4//1 1//1
f 1//4 4//4 7//10
f 4//11 2//11 8//11
f 8//12 2//12 4//12
f 3//2 5//5 9//5
f 9//6 5//6 3//3
f 2//13 8//13 5//13
f 5//14 8//14 2//14
f 3//7 9//7 6//7
f 6//8 9//8 3//8
f 4//1 7//9 10//9
f 10//10 7//10 4//4
f 11//15 7//15 1//15
f 1//16 7//16 11//16
f 12//17 9//5 5//5
f 5//6 9//6 12//18
f 5//19 8//19 12//19
f 12//20 8//20 5//20
f 9//21 13//21 6//21
f 6//22 13//22 9//22
f 14//23 10//9 7//9
f 7//10 10//10 14//24
f 15//8 4//8 10//8
f 10//7 4//7 15//7
f 11//25 14//25 7//25
f 7//26 14//26 11//26
f 11//27 1//27 16//27
f 16//28 1//28 11//28
f 9//5 12//17 13//17
f 13//18 12//18 9//6
f 12//29 17//29 8//29
f 8//30 17//30 12//30
f 13//31 18//31 6//31
f 6//32 18//32 13//32
f 10//9 14//23 19//23
f 19//24 14//24 10//10
f 15//33 20//33 4//33
f 4//34 20//34 15//34
f 15//35 10//35 19//35
f 19//36 10//36 15//36
f 11//20 21//20 14//20
f 14//19 21//19 11//19
f 20//37 11//38 16//37
f 16//39 11//40 20//39
f 17//41 13//17 12//17
f 12//18 13//18 17//42
f 8//43 17//43 22//43
f 22//44 17//44 8//44
f 13//17 17//41 18//41
f 18//42 17//42 13//18
f 6//31 18//31 23//31
f 23//32 18//32 6//32
f 21//45 19//23 14//23
f 14//24 19//24 21//46
f 11//38 20//37 15//38
f 15//40 20//39 11//40
f 15//47 19//47 24//47
f 24//48 19//48 15//48
f 11//49 25//49 21//49
f 21//50 25//50 11//50
f 16//37 26//51 20//37
f 20//39 26//52 16//39
f 22//53 27//53 17//53
f 17//54 27//54 22//54
f 8//55 23//56 22//56
f 22//57 23//57 8//58
f 27//59 18//41 17//41
f 17//42 18//42 27//60
f 28//61 23//61 18//61
f 18//62 23//62 28//62
f 23//56 8//55 6//55
f 6//58 8//58 23//57
f 19//23 21//45 24//45
f 24//46 21//46 19//24
f 29//63 11//63 15//63
f 15//64 11//64 29//64
f 15//30 24//30 30//30
f 30//29 24//29 15//29
f 11//65 31//65 25//65
f 25//66 31//66 11//66
f 25//67 24//45 21//45
f 21//46 24//46 25//68
f 26//51 16//37 32//51
f 32//52 16//39 26//52
f 33//8 20//8 26//8
f 26//7 20//7 33//7
f 27//53 22//53 34//53
f 34//54 22//54 27//54
f 35//69 22//56 23//56
f 23//57 22//57 35//70
f 18//41 27//59 28//59
f 28//60 27//60 18//42
f 23//61 28//61 35//61
f 35//62 28//62 23//62
f 8//55 36//71 6//55
f 6//58 36//72 8//58
f 11//63 29//63 37//63
f 37//64 29//64 11//64
f 15//73 38//73 29//73
f 29//74 38//74 15//74
f 24//45 25//67 30//67
f 30//68 25//68 24//46
f 15//75 30//75 39//75
f 39//76 30//76 15//76
f 11//77 40//77 31//77
f 31//78 40//78 11//78
f 31//79 30//67 25//67
f 25//68 30//68 31//80
f 16//81 36//81 32//81
f 32//82 36//82 16//82
f 32//51 33//71 26//51
f 26//52 33//72 32//52
f 20//8 33//8 8//8
f 8//7 33//7 20//7
f 22//56 35//69 34//69
f 34//70 35//70 22//57
f 27//83 34//83 41//83
f 41//84 34//84 27//84
f 41//85 28//59 27//59
f 27//60 28//60 41//86
f 28//87 42//87 35//87
f 35//88 42//88 28//88
f 36//71 8//55 33//71
f 33//72 8//58 36//72
f 36//81 16//81 6//81
f 6//82 16//82 36//82
f 38//40 37//40 29//40
f 29//38 37//38 38//38
f 40//77 11//77 37//77
f 37//78 11//78 40//78
f 38//73 15//73 39//73
f 39//74 15//74 38//74
f 30//67 31//79 39//79
f 39//80 31//80 30//68
f 40//89 39//79 31//79
f 31//80 39//80 40//90
f 33//71 32//51 36//71
f 36//72 32//52 33//72
f 43//91 34//69 35//69
f 35//70 34//70 43//92
f 44//93 41//93 34//93
f 34//94 41//94 44//94
f 28//59 41//85 42//85
f 42//86 41//86 28//60
f 45//95 35//95 42//95
f 42//96 35//96 45//96
f 37//40 38//40 40//40
f 40//38 38//38 37//38
f 39//79 40//89 38//89
f 38//90 40//90 39//80
f 34//69 43//91 46//91
f 46//92 43//92 34//70
f 35//97 47//97 43//97
f 43//98 47//98 35//98
f 44//99 42//85 41//85
f 41//86 42//86 44//100
f 44//101 34//101 48//101
f 48//102 34//102 44//102
f 45//103 47//103 35//103
f 35//104 47//104 45//104
f 42//85 44//99 45//99
f 45//100 44//100 42//86
f 47//105 46//91 43//91
f 43//92 46//92 47//106
f 34//107 46//107 48//107
f 48//108 46//108 34//108
f 48//109 45//109 44//109
f 44//110 45//110 48//110
f 45//109 48//109 47//109
f 47//110 48//110 45//110
f 46//91 47//105 48//105
f 48//106 47//106 46//92
