# SSTK version 0.8.0
# 8
mtllib original-8.mtl
o mesh8/mesh8-geometry#mesh8-geometry
v -0.060133 -0.747059 0.116391
v -0.025424 -0.702611 0.127669
v -0.091951 -0.741572 0.106053
v -0.028722 -0.754707 0.126598
v -0.124041 -0.738272 0.095626
v -0.156267 -0.737170 0.085156
v -0.384686 -0.723875 0.010938
v -0.384686 -0.746083 0.010938
vn -0.3090168573056278 0 0.9510565608316645
vn 0.3090168573056278 0 -0.9510565608316645
vn -0.30901715119811185 0.000001000000489287359 0.9510564653396786
vn 0.30901715119811185 -0.000001000000489287359 -0.9510564653396786
usemtl material_0_0
f 1//1 2//1 3//1
f 2//1 1//1 4//1
f 3//2 2//2 1//2
f 4//2 1//2 2//2
f 2//3 5//3 3//3
f 3//4 5//4 2//4
f 5//3 2//3 6//3
f 6//4 2//4 5//4
f 7//1 6//1 2//1
f 2//2 6//2 7//2
f 6//1 7//1 8//1
f 8//2 7//2 6//2
