# SSTK version 0.8.0
# 27
mtllib original-27.mtl
o mesh27/mesh27-geometry#mesh27-geometry
v -0.141911 -0.357797 0.320558
v -0.096975 -0.360760 0.204913
v -0.143050 -0.360760 0.320102
v -0.095835 -0.357797 0.205368
v -0.095835 -0.363724 0.205368
v -0.142722 -0.357797 0.321945
v -0.093083 -0.356569 0.206469
v -0.095092 -0.360760 0.201695
v -0.141911 -0.363724 0.320558
v -0.094137 -0.363724 0.202465
v -0.143678 -0.360760 0.321175
v -0.139159 -0.356569 0.321659
v -0.091829 -0.356569 0.204324
v -0.094137 -0.357797 0.202465
v -0.093083 -0.364951 0.206469
v -0.091829 -0.364951 0.204324
v -0.143904 -0.357797 0.323033
v -0.140414 -0.356569 0.323804
v -0.090332 -0.357797 0.207570
v -0.089521 -0.357797 0.206183
v -0.092350 -0.360760 0.199171
v -0.139159 -0.364951 0.321659
v -0.142722 -0.363724 0.321945
v -0.090000 -0.364951 0.202641
v -0.144592 -0.360760 0.322016
v -0.136408 -0.357797 0.322759
v -0.090000 -0.356569 0.202641
v -0.088339 -0.357797 0.205095
v -0.091662 -0.357797 0.200187
v -0.091662 -0.363724 0.200187
v -0.090332 -0.363724 0.207570
v -0.089521 -0.363724 0.206183
v -0.143904 -0.363724 0.323033
v -0.088339 -0.363724 0.205095
v -0.145353 -0.357797 0.323726
v -0.142243 -0.356569 0.325487
v -0.138106 -0.357797 0.325663
v -0.135268 -0.360760 0.323215
v -0.089192 -0.360760 0.208026
v -0.088565 -0.360760 0.206953
v -0.088987 -0.360760 0.197562
v -0.136408 -0.363724 0.322759
v -0.140414 -0.364951 0.323804
v -0.087759 -0.364951 0.201569
v -0.086890 -0.363724 0.204402
v -0.145353 -0.363724 0.323726
v -0.145713 -0.360760 0.322553
v -0.137150 -0.360760 0.326433
v -0.087759 -0.356569 0.201569
v -0.086890 -0.357797 0.204402
v -0.087651 -0.360760 0.206112
v -0.088627 -0.357797 0.198735
v -0.088627 -0.363724 0.198735
v -0.142243 -0.364951 0.325487
v -0.146942 -0.360760 0.322737
v -0.144484 -0.356569 0.326559
v -0.140581 -0.357797 0.327940
v -0.139893 -0.360760 0.328957
v -0.138106 -0.363724 0.325663
v -0.085301 -0.360760 0.197009
v -0.085301 -0.364951 0.201200
v -0.085301 -0.363724 0.204164
v -0.086530 -0.360760 0.205575
v -0.146942 -0.363724 0.323964
v -0.144484 -0.364951 0.326559
v -0.146942 -0.357797 0.323964
v -0.085301 -0.356569 0.201200
v -0.085301 -0.357797 0.204164
v -0.085301 -0.357797 0.198237
v -0.085301 -0.363724 0.198237
v -0.140581 -0.363724 0.327940
v -0.225085 -0.360760 0.322737
v -0.225085 -0.363724 0.323964
v -0.146942 -0.356569 0.326928
v -0.143615 -0.357797 0.329393
v -0.143255 -0.360760 0.330566
v -0.074212 -0.357797 0.198237
v -0.074212 -0.360760 0.197009
v -0.074212 -0.364951 0.201200
v -0.074212 -0.363724 0.204164
v -0.085301 -0.360760 0.205391
v -0.146942 -0.364951 0.326928
v -0.143615 -0.363724 0.329393
v -0.225085 -0.357797 0.323964
v -0.225085 -0.356569 0.326928
v -0.074212 -0.356569 0.201200
v -0.074212 -0.363724 0.198237
v -0.225085 -0.364951 0.326928
v -0.225085 -0.357797 0.329891
v -0.146942 -0.357797 0.329891
v -0.074212 -0.357797 0.204164
v -0.074212 -0.360760 0.205391
v -0.146942 -0.363724 0.329891
v -0.146942 -0.360760 0.331119
v -0.225085 -0.363724 0.329891
v -0.225085 -0.360760 0.331119
vn -0.8302396361492197 0.3817798326857886 -0.4061358220118273
vn -0.8302373350460802 0.3817791540687267 -0.4061411639001274
vn 0.8302396361492197 -0.3817798326857886 0.4061358220118273
vn 0.8302373350460802 -0.3817791540687267 0.4061411639001274
vn -0.8302373350460802 -0.3817791540687267 -0.4061411639001274
vn -0.8302396361492197 -0.3817798326857886 -0.4061358220118273
vn 0.8302373350460802 0.3817791540687267 0.4061411639001274
vn 0.8302396361492197 0.3817798326857886 0.4061358220118273
vn -0.7194993499462217 0.38268518612836133 -0.5795452818761152
vn 0.7194993499462217 -0.38268518612836133 0.5795452818761152
vn -0.34452791214039796 0.9235007644939444 -0.16866195698876085
vn 0.34452791214039796 -0.9235007644939444 0.16866195698876085
vn -0.7194990666619515 0.38268303545577625 -0.5795470536953269
vn 0.7194990666619515 -0.38268303545577625 0.5795470536953269
vn -0.7194990666619515 -0.38268303545577625 -0.5795470536953269
vn 0.7194990666619515 0.38268303545577625 0.5795470536953269
vn -0.2980259054942122 0.9238797070322481 -0.24005592387683827
vn 0.2980259054942122 -0.9238797070322481 0.24005592387683827
vn -0.29802597703695033 0.9238799288145922 -0.24005498150364432
vn 0.29802597703695033 -0.9238799288145922 0.24005498150364432
vn -0.34452791214039796 -0.9235007644939444 -0.16866195698876085
vn 0.34452791214039796 0.9235007644939444 0.16866195698876085
vn -0.7194993499462217 -0.38268518612836133 -0.5795452818761152
vn 0.7194993499462217 0.38268518612836133 0.5795452818761152
vn -0.29802597703695033 -0.9238799288145922 -0.24005498150364432
vn 0.29802597703695033 0.9238799288145922 0.24005498150364432
vn -0.5179477201233993 0.3826827932147297 -0.7650385866061561
vn 0.5179477201233993 -0.3826827932147297 0.7650385866061561
vn 0.29802506585609617 0.9238802041544506 0.24005505304617117
vn -0.29802506585609617 -0.9238802041544506 -0.24005505304617117
vn -0.5179538935273368 0.3826839213339705 -0.7650338427365992
vn 0.5179538935273368 -0.3826839213339705 0.7650338427365992
vn -0.5179538935273368 -0.3826839213339705 -0.7650338427365992
vn 0.5179538935273368 0.3826839213339705 0.7650338427365992
vn -0.214542011270643 -0.9238800485346537 -0.31688701664718444
vn 0.214542011270643 0.9238800485346537 0.31688701664718444
vn -0.2145419432849866 0.9238797557687232 -0.3168879162294228
vn 0.2145419432849866 -0.9238797557687232 0.3168879162294228
vn -0.214542011270643 0.9238800485346537 -0.31688701664718444
vn 0.214542011270643 -0.9238800485346537 0.31688701664718444
vn 0.21454309546805153 0.9238794111107236 0.31688814100986706
vn -0.21454309546805153 -0.9238794111107236 -0.31688814100986706
vn -0.2980259054942122 -0.9238797070322481 -0.24005592387683827
vn 0.2980259054942122 0.9238797070322481 0.24005592387683827
vn 0.29802506585609617 -0.9238802041544506 0.24005505304617117
vn -0.29802506585609617 0.9238802041544506 -0.24005505304617117
vn -0.5179477201233993 -0.3826827932147297 -0.7650385866061561
vn 0.5179477201233993 0.3826827932147297 0.7650385866061561
vn 0.21454309546805153 -0.9238794111107236 0.31688814100986706
vn -0.21454309546805153 0.9238794111107236 -0.31688814100986706
vn -0.2708800024265431 0.38268000342804753 -0.8832780079124044
vn 0.2708800024265431 -0.38268000342804753 0.8832780079124044
vn 0.830236701110275 0.38178086255681437 0.40614085378708514
vn 0.8302386915078517 0.3817818581411505 0.40613584909192757
vn -0.830236701110275 -0.38178086255681437 -0.40614085378708514
vn -0.8302386915078517 -0.3817818581411505 -0.40613584909192757
vn 0.7194999739066145 0.38268598612151034 0.5795439789822584
vn -0.7194999739066145 -0.38268598612151034 -0.5795439789822584
vn -0.27088102486931714 0.3826860351340238 -0.8832750810926057
vn 0.27088102486931714 -0.3826860351340238 0.8832750810926057
vn -0.27088102486931714 -0.3826860351340238 -0.8832750810926057
vn 0.27088102486931714 0.3826860351340238 0.8832750810926057
vn -0.2145419432849866 -0.9238797557687232 -0.3168879162294228
vn 0.2145419432849866 0.9238797557687232 0.3168879162294228
vn -0.11220298686636063 -0.9238798918575551 -0.36586395717471165
vn 0.11220298686636063 0.9238798918575551 0.36586395717471165
vn 0.11220397427656861 -0.9238797881950395 0.36586391612351166
vn -0.11220397427656861 0.9238797881950395 -0.36586391612351166
vn -0.2708800024265431 -0.38268000342804753 -0.8832780079124044
vn 0.2708800024265431 0.38268000342804753 0.8832780079124044
vn -0.1122019584051148 0.9238796575044782 -0.3658648643686149
vn 0.1122019584051148 -0.9238796575044782 0.3658648643686149
vn -0.11220298686636063 0.9238798918575551 -0.36586395717471165
vn 0.11220298686636063 -0.9238798918575551 0.36586395717471165
vn 0.11220397427656861 0.9238797881950395 0.36586391612351166
vn -0.11220397427656861 -0.9238797881950395 -0.36586391612351166
vn 0.8302386915078517 -0.3817818581411505 0.40613584909192757
vn 0.830236701110275 -0.38178086255681437 0.40614085378708514
vn -0.8302386915078517 0.3817818581411505 -0.40613584909192757
vn -0.830236701110275 0.38178086255681437 -0.40614085378708514
vn 0.7194999739066145 -0.38268598612151034 0.5795439789822584
vn -0.7194999739066145 0.38268598612151034 -0.5795439789822584
vn 0.2708820232160803 -0.3826830327980421 0.883276075701621
vn -0.2708820232160803 0.3826830327980421 -0.883276075701621
vn -0.1122019584051148 -0.9238796575044782 -0.3658648643686149
vn 0.1122019584051148 0.9238796575044782 0.3658648643686149
vn -0.06875302053852414 0.38177811404821127 -0.9216932753365515
vn 0.06875302053852414 -0.38177811404821127 0.9216932753365515
vn 0.5179538933530453 0.3826859212047856 0.7650328424793713
vn -0.5179538933530453 -0.3826859212047856 -0.7650328424793713
vn 0.2708820232160803 0.3826830327980421 0.883276075701621
vn -0.2708820232160803 -0.3826830327980421 -0.883276075701621
vn -0.06875101461557352 0.3817810811617034 -0.9216921959397998
vn 0.06875101461557352 -0.3817810811617034 0.9216921959397998
vn -0.06875101461557352 -0.3817810811617034 -0.9216921959397998
vn 0.06875101461557352 0.3817810811617034 0.9216921959397998
vn -0.02864701373216418 -0.9235004426869696 -0.3825261833668389
vn 0.02864701373216418 0.9235004426869696 0.3825261833668389
vn 0.028646010013314814 -0.9235013228131761 0.38252413371267313
vn -0.028646010013314814 0.9235013228131761 -0.38252413371267313
vn -0.06875302053852414 -0.38177811404821127 -0.9216932753365515
vn 0.06875302053852414 0.38177811404821127 0.9216932753365515
vn -0.02864701373216418 0.9235004426869696 -0.3825261833668389
vn 0.02864701373216418 -0.9235004426869696 0.3825261833668389
vn 0.11220302791735105 0.9238802298715925 0.36586309103077286
vn -0.11220302791735105 -0.9238802298715925 -0.36586309103077286
vn 0.5179538933530453 -0.3826859212047856 0.7650328424793713
vn -0.5179538933530453 0.3826859212047856 -0.7650328424793713
vn 0.028646010013314814 0.9235013228131761 0.38252413371267313
vn -0.028646010013314814 -0.9235013228131761 -0.38252413371267313
vn 0.06874798530687279 -0.38177291840578265 0.9216958030110465
vn -0.06874798530687279 0.38177291840578265 -0.9216958030110465
vn 0.11220302791735105 -0.9238802298715925 0.36586309103077286
vn -0.11220302791735105 0.9238802298715925 -0.36586309103077286
vn 0 0.3826861658026441 -0.9238784002796423
vn 0 -0.3826861658026441 0.9238784002796423
vn 0 -0.3826861658026441 -0.9238784002796423
vn 0 0.3826861658026441 0.9238784002796423
vn 0.27088009824538517 0.38268613879626945 0.8832753203547423
vn -0.27088009824538517 -0.38268613879626945 -0.8832753203547423
vn 0.06874798530687279 0.38177291840578265 0.9216958030110465
vn -0.06874798530687279 -0.38177291840578265 -0.9216958030110465
vn 0 -0.9238792538372457 -0.3826841051430464
vn 0 0.9238792538372457 0.3826841051430464
vn 0 -0.9238809609378518 0.3826799838200993
vn 0 0.9238809609378518 -0.3826799838200993
vn 0 0.9238792538372457 -0.3826841051430464
vn 0 -0.9238792538372457 0.3826841051430464
vn 0.02864598355869975 0.9235014699583305 0.38252378045130425
vn -0.02864598355869975 -0.9235014699583305 -0.38252378045130425
vn 0.27088009824538517 -0.38268613879626945 0.8832753203547423
vn -0.27088009824538517 0.38268613879626945 -0.8832753203547423
vn 0 0.9238809609378518 0.3826799838200993
vn 0 -0.9238809609378518 -0.3826799838200993
vn 0 -0.3826770695988243 0.9238821680296987
vn 0 0.3826770695988243 -0.9238821680296987
vn 0.02864598355869975 -0.9235014699583305 0.38252378045130425
vn -0.02864598355869975 0.9235014699583305 -0.38252378045130425
vn 0.06874899145274779 0.38177495253564103 0.9216948854098296
vn -0.06874899145274779 -0.38177495253564103 -0.9216948854098296
vn 0 0.3826770695988243 0.9238821680296987
vn 0 -0.3826770695988243 -0.9238821680296987
vn 0.06874899145274779 -0.38177495253564103 0.9216948854098296
vn -0.06874899145274779 0.38177495253564103 -0.9216948854098296
vn 0 0.38267792315675003 0.9238818144808547
vn 0 -0.38267792315675003 -0.9238818144808547
vn 0 -0.38267792315675003 0.9238818144808547
vn 0 0.38267792315675003 -0.9238818144808547
usemtl material_0_0
f 1//1 2//2 3//1
f 2//2 1//1 4//2
f 3//3 2//4 1//3
f 4//4 1//3 2//4
f 5//5 3//6 2//5
f 2//7 3//8 5//7
f 3//1 6//9 1//1
f 1//3 6//10 3//3
f 1//11 7//11 4//11
f 4//12 7//12 1//12
f 4//2 8//13 2//2
f 2//4 8//14 4//4
f 3//6 5//5 9//6
f 9//8 5//7 3//8
f 2//5 10//15 5//5
f 5//7 10//16 2//7
f 6//9 3//1 11//9
f 11//10 3//3 6//10
f 6//17 12//11 1//11
f 1//12 12//12 6//18
f 7//11 1//11 12//11
f 12//12 1//12 7//12
f 13//19 4//11 7//11
f 7//12 4//12 13//20
f 8//13 4//2 14//13
f 14//14 4//4 8//14
f 10//15 2//5 8//15
f 8//16 2//7 10//16
f 15//21 9//21 5//21
f 5//22 9//22 15//22
f 9//6 11//23 3//6
f 3//8 11//24 9//8
f 16//25 5//21 10//25
f 10//26 5//22 16//26
f 11//9 17//27 6//9
f 6//10 17//28 11//10
f 12//11 6//17 18//17
f 18//18 6//18 12//12
f 12//22 19//22 7//22
f 7//21 19//21 12//21
f 4//11 13//19 14//19
f 14//20 13//20 4//12
f 7//22 20//29 13//29
f 13//30 20//30 7//21
f 14//13 21//31 8//13
f 8//14 21//32 14//14
f 21//33 10//15 8//15
f 8//16 10//16 21//34
f 9//21 15//21 22//21
f 22//22 15//22 9//22
f 5//21 16//25 15//21
f 15//22 16//26 5//22
f 11//23 9//6 23//23
f 23//24 9//8 11//24
f 10//25 24//35 16//25
f 16//26 24//36 10//26
f 17//27 11//9 25//27
f 25//28 11//10 17//28
f 17//37 18//17 6//17
f 6//18 18//18 17//38
f 18//29 26//22 12//22
f 12//21 26//21 18//30
f 19//22 12//22 26//22
f 26//21 12//21 19//21
f 20//29 7//22 19//22
f 19//21 7//21 20//30
f 27//39 14//19 13//19
f 13//20 14//20 27//40
f 28//41 13//29 20//29
f 20//30 13//30 28//42
f 21//31 14//13 29//31
f 29//32 14//14 21//32
f 10//15 21//33 30//33
f 30//34 21//34 10//16
f 31//12 22//12 15//12
f 15//11 22//11 31//11
f 22//21 23//43 9//21
f 9//22 23//44 22//22
f 32//45 15//12 16//45
f 16//46 15//11 32//46
f 33//47 11//23 23//23
f 23//24 11//24 33//48
f 24//35 10//25 30//35
f 30//36 10//26 24//36
f 34//49 16//45 24//49
f 24//50 16//46 34//50
f 11//23 33//47 25//47
f 25//48 33//48 11//24
f 25//27 35//51 17//27
f 17//28 35//52 25//28
f 18//17 17//37 36//37
f 36//38 17//38 18//18
f 26//22 18//29 37//29
f 37//30 18//30 26//21
f 38//53 19//54 26//53
f 26//55 19//56 38//55
f 39//54 20//57 19//54
f 19//56 20//58 39//56
f 14//19 27//39 29//39
f 29//40 27//40 14//20
f 13//29 28//41 27//41
f 27//42 28//42 13//30
f 40//57 28//34 20//57
f 20//58 28//33 40//58
f 29//31 41//59 21//31
f 21//32 41//60 29//32
f 41//61 30//33 21//33
f 21//34 30//34 41//62
f 22//12 31//12 42//12
f 42//11 31//11 22//11
f 15//12 32//45 31//12
f 31//11 32//46 15//11
f 23//43 22//21 43//43
f 43//44 22//22 23//44
f 16//45 34//49 32//45
f 32//46 34//50 16//46
f 43//43 33//63 23//43
f 23//44 33//64 43//44
f 30//35 44//65 24//35
f 24//36 44//66 30//36
f 24//49 45//67 34//49
f 34//50 45//68 24//50
f 46//69 25//47 33//47
f 33//48 25//48 46//70
f 35//51 25//27 47//51
f 47//52 25//28 35//52
f 35//71 36//37 17//37
f 17//38 36//38 35//72
f 36//36 37//29 18//29
f 18//30 37//30 36//35
f 48//16 26//53 37//16
f 37//15 26//55 48//15
f 19//54 38//53 39//54
f 39//56 38//55 19//56
f 26//53 48//16 38//53
f 38//55 48//15 26//55
f 20//57 39//54 40//57
f 40//58 39//56 20//58
f 49//73 29//39 27//39
f 27//40 29//40 49//74
f 50//75 27//41 28//41
f 28//42 27//42 50//76
f 28//34 40//57 51//34
f 51//33 40//58 28//33
f 41//59 29//31 52//59
f 52//60 29//32 41//60
f 30//33 41//61 53//61
f 53//62 41//62 30//34
f 39//77 42//78 31//77
f 31//79 42//80 39//79
f 42//12 43//45 22//12
f 22//11 43//46 42//11
f 40//81 31//77 32//81
f 32//82 31//79 40//82
f 34//32 40//81 32//81
f 32//82 40//82 34//31
f 33//63 43//43 54//63
f 54//64 43//44 33//64
f 44//65 30//35 53//65
f 53//66 30//36 44//66
f 45//67 24//49 44//67
f 44//68 24//50 45//68
f 45//83 51//32 34//32
f 34//31 51//31 45//84
f 25//47 46//69 47//69
f 47//70 46//70 25//48
f 54//63 46//85 33//63
f 33//64 46//86 54//64
f 55//87 35//51 47//51
f 47//52 35//52 55//88
f 36//37 35//71 56//71
f 56//72 35//72 36//38
f 37//29 36//36 57//36
f 57//35 36//35 37//30
f 37//16 58//89 48//16
f 48//15 58//90 37//15
f 42//78 39//77 38//78
f 38//80 39//79 42//80
f 59//14 38//78 48//14
f 48//13 38//80 59//13
f 31//77 40//81 39//77
f 39//79 40//82 31//79
f 29//39 49//73 52//73
f 52//74 49//74 29//40
f 27//41 50//75 49//75
f 49//76 50//76 27//42
f 51//34 50//91 28//34
f 28//33 50//92 51//33
f 40//81 34//32 51//32
f 51//31 34//31 40//82
f 52//59 60//93 41//59
f 41//60 60//94 52//60
f 60//95 53//61 41//61
f 41//62 53//62 60//96
f 43//45 42//12 59//45
f 59//46 42//11 43//46
f 59//45 54//40 43//45
f 43//46 54//39 59//46
f 53//65 61//97 44//65
f 44//66 61//98 53//66
f 44//67 62//99 45//67
f 45//68 62//100 44//68
f 51//32 45//83 63//83
f 63//84 45//84 51//31
f 64//101 47//69 46//69
f 46//70 47//70 64//102
f 46//85 54//63 65//85
f 65//86 54//64 46//86
f 35//51 55//87 66//87
f 66//88 55//88 35//52
f 47//69 64//101 55//101
f 55//102 64//102 47//70
f 66//103 56//71 35//71
f 35//72 56//72 66//104
f 56//105 57//36 36//36
f 36//35 57//35 56//106
f 58//89 37//16 57//89
f 57//90 37//15 58//90
f 58//107 59//14 48//14
f 48//13 59//13 58//108
f 38//78 59//14 42//78
f 42//80 59//13 38//80
f 67//103 52//73 49//73
f 49//74 52//74 67//104
f 68//109 49//75 50//75
f 50//76 49//76 68//110
f 50//91 51//34 63//91
f 63//92 51//33 50//92
f 60//93 52//59 69//93
f 69//94 52//60 60//94
f 53//61 60//95 70//95
f 70//96 60//96 53//62
f 54//40 59//45 71//40
f 71//39 59//46 54//39
f 61//97 53//65 70//97
f 70//98 53//66 61//98
f 62//99 44//67 61//99
f 61//100 44//68 62//100
f 62//111 63//83 45//83
f 45//84 63//84 62//112
f 65//85 64//97 46//85
f 46//86 64//98 65//86
f 71//40 65//113 54//40
f 54//39 65//114 71//39
f 72//115 66//87 55//87
f 55//88 66//88 72//116
f 73//117 55//101 64//101
f 64//102 55//102 73//118
f 56//71 66//103 74//103
f 74//104 66//104 56//72
f 57//36 56//105 75//105
f 75//106 56//106 57//35
f 57//89 76//119 58//89
f 58//90 76//120 57//90
f 59//14 58//107 71//107
f 71//108 58//108 59//13
f 52//73 67//103 69//103
f 69//104 67//104 52//74
f 49//75 68//109 67//109
f 67//110 68//110 49//76
f 63//91 68//121 50//91
f 50//92 68//122 63//92
f 77//115 60//93 69//93
f 69//94 60//94 77//116
f 78//117 70//95 60//95
f 60//96 70//96 78//118
f 70//97 79//123 61//97
f 61//98 79//124 70//98
f 61//99 80//125 62//99
f 62//100 80//126 61//100
f 63//83 62//111 81//111
f 81//112 62//112 63//84
f 64//97 65//85 82//97
f 82//98 65//86 64//98
f 65//113 71//40 83//113
f 83//114 71//39 65//114
f 66//87 72//115 84//115
f 84//116 72//116 66//88
f 55//101 73//117 72//117
f 72//118 73//118 55//102
f 82//97 73//123 64//97
f 64//98 73//124 82//98
f 66//103 85//127 74//103
f 74//104 85//128 66//104
f 74//129 75//105 56//105
f 56//106 75//106 74//130
f 76//119 57//89 75//119
f 75//120 57//90 76//120
f 76//131 71//107 58//107
f 58//108 71//108 76//132
f 67//103 77//127 69//103
f 69//104 77//128 67//104
f 68//109 86//133 67//109
f 67//110 86//134 68//110
f 68//121 63//91 81//121
f 81//122 63//92 68//122
f 60//93 77//115 78//115
f 78//116 77//116 60//94
f 70//95 78//117 87//117
f 87//118 78//118 70//96
f 79//123 70//97 87//123
f 87//124 70//98 79//124
f 80//125 61//99 79//125
f 79//126 61//100 80//126
f 80//135 81//111 62//111
f 62//112 81//112 80//136
f 83//113 82//137 65//113
f 65//114 82//138 83//114
f 71//107 76//131 83//131
f 83//132 76//132 71//108
f 85//127 66//103 84//127
f 84//128 66//104 85//128
f 73//123 82//97 88//123
f 88//124 82//98 73//124
f 89//133 74//129 85//133
f 85//134 74//130 89//134
f 75//105 74//129 90//129
f 90//130 74//130 75//106
f 90//139 76//119 75//119
f 75//120 76//120 90//140
f 77//127 67//103 86//127
f 86//128 67//104 77//128
f 86//133 68//109 91//133
f 91//134 68//110 86//134
f 92//141 68//121 81//121
f 81//122 68//122 92//142
f 81//111 80//135 92//135
f 92//136 80//136 81//112
f 82//137 83//113 93//137
f 93//138 83//114 82//138
f 94//143 83//131 76//131
f 76//132 83//132 94//144
f 93//137 88//125 82//137
f 82//138 88//126 93//138
f 74//129 89//133 90//129
f 90//130 89//134 74//130
f 76//119 90//139 94//139
f 94//140 90//140 76//120
f 68//121 92//141 91//141
f 91//142 92//142 68//122
f 83//131 94//143 93//143
f 93//144 94//144 83//132
f 88//125 93//137 95//125
f 95//126 93//138 88//126
f 89//145 94//139 90//139
f 90//140 94//140 89//146
f 96//147 93//143 94//143
f 94//144 93//144 96//148
f 93//143 96//147 95//147
f 95//148 96//148 93//144
f 94//139 89//145 96//145
f 96//146 89//146 94//140
