# SSTK version 0.8.0
# 28
mtllib original-28.mtl
o mesh28/mesh28-geometry#mesh28-geometry
v -0.300993 -0.778726 0.544124
v -0.299521 -0.781231 0.542097
v -0.302907 -0.788745 0.546758
v -0.295104 -0.775470 0.536018
v -0.275783 -0.788745 0.566465
v -0.304723 -0.786964 0.549257
v -0.267980 -0.775470 0.555725
v -0.289951 -0.771824 0.528926
v -0.272396 -0.781231 0.561804
v -0.277926 -0.797511 0.569414
v -0.307062 -0.796593 0.552477
v -0.277598 -0.786964 0.568964
v -0.262827 -0.771824 0.548633
v -0.284406 -0.770599 0.521293
v -0.273869 -0.778726 0.563831
v -0.305050 -0.797511 0.549707
v -0.279938 -0.796593 0.572184
v -0.257281 -0.770599 0.541000
v -0.278645 -0.806946 0.570405
v -0.305769 -0.806946 0.550698
v -0.280739 -0.806946 0.573287
v -0.269027 -0.772381 0.557166
v -0.251752 -0.771824 0.533390
v -0.278236 -0.814042 0.569842
v -0.305361 -0.814042 0.550135
v -0.307863 -0.806946 0.553580
v -0.280281 -0.814738 0.572657
v -0.296151 -0.772381 0.537459
v -0.257298 -0.767037 0.541023
v -0.278876 -0.771824 0.513683
v -0.235181 -0.767037 0.510582
v -0.307405 -0.814738 0.552950
v -0.263367 -0.768401 0.549376
v -0.284422 -0.767037 0.521316
v -0.262306 -0.767037 0.490875
v -0.246616 -0.775470 0.526320
v -0.290491 -0.768401 0.529669
v -0.273740 -0.775470 0.506613
v -0.242183 -0.781231 0.520219
v -0.269307 -0.781231 0.500512
v -0.238797 -0.788745 0.515558
v -0.265921 -0.788745 0.495851
v -0.262306 -0.814042 0.490875
v -0.236654 -0.797511 0.512609
v -0.263778 -0.797511 0.492902
v -0.235181 -0.814042 0.510582
v -0.236359 -0.814042 0.512203
v -0.263483 -0.814042 0.492496
vn -0.8090120600998902 -0.0000040000002971520335 -0.587792043665897
vn 0.8090120600998902 0.0000040000002971520335 0.587792043665897
vn -0.8090158197084175 -0.00000899999799432367 -0.5877868690099474
vn 0.8090158197084175 0.00000899999799432367 0.5877868690099474
vn 0.4156270768475833 -0.7071061307407537 -0.5720621057717188
vn 0.5088909443186825 -0.5004319452442407 -0.7004269233613915
vn -0.5088909443186825 0.5004319452442407 0.7004269233613915
vn -0.4156270768475833 0.7071061307407537 0.5720621057717188
vn -0.8090171162901512 -0.000001000000143742531 -0.5877850844897036
vn 0.8090171162901512 0.000001000000143742531 0.5877850844897036
vn 0.29414600711009736 -0.8657760209275382 -0.40485800978622793
vn -0.29414600711009736 0.8657760209275382 0.40485800978622793
vn -0.8090195792824214 0.000011999993759596868 -0.5877816943336138
vn 0.8090195792824214 -0.000011999993759596868 0.5877816943336138
vn 0.5677887139146185 -0.25861886969258774 -0.7814936062375123
vn -0.5677887139146185 0.25861886969258774 0.7814936062375123
vn -0.8090149987164977 -0.0000019999999968269997 -0.5877879990674743
vn 0.8090149987164977 0.0000019999999968269997 0.5877879990674743
vn -0.5088811386062646 0.5004611363128704 0.7004131907747185
vn -0.4156270207192153 0.7071070352496401 0.572061028517529
vn 0.5088811386062646 -0.5004611363128704 -0.7004131907747185
vn 0.4156270207192153 -0.7071070352496401 -0.572061028517529
vn 0.1520120749333067 -0.9659794761729382 -0.20922710313706128
vn -0.1520120749333067 0.9659794761729382 0.20922710313706128
vn -0.8090166407606899 -0.0000019999991119115914 -0.5877857389970333
vn 0.8090166407606899 0.0000019999991119115914 0.5877857389970333
vn -0.8090184128304707 0.000004000002041143563 -0.5877832999373718
vn 0.8090184128304707 -0.000004000002041143563 0.5877832999373718
vn 0.8090200548669328 -0.0000010000000678190068 0.5877810398627237
vn -0.8090200548669328 0.0000010000000678190068 -0.5877810398627237
vn -0.567811975953731 0.25847298905392757 0.7815249669031998
vn 0.567811975953731 -0.25847298905392757 -0.7815249669031998
vn 0.8090179373027304 -0.000003999999690008036 0.5877839544479209
vn -0.8090179373027304 0.000003999999690008036 -0.5877839544479209
vn 0.8090213512273922 -0.000021000009116914437 0.5877792551776596
vn -0.8090213512273922 0.000021000009116914437 -0.5877792551776596
vn -0.00011099999801698505 -0.9999999821350004 0.00015299999726665507
vn 0.00011099999801698505 0.9999999821350004 -0.00015299999726665507
vn -0.8090221724010253 0.000006000001278588408 -0.5877781252543562
vn 0.8090221724010253 -0.000006000001278588408 0.5877781252543562
vn 0.5877128401356645 -0.01567299573677334 -0.8089177799654957
vn -0.5877128401356645 0.01567299573677334 0.8089177799654957
vn 0.8090171162901512 -0.000001000000143742531 0.5877850844897036
vn -0.8090171162901512 0.000001000000143742531 -0.5877850844897036
vn -0.8090128811357913 0 -0.5877909136388264
vn 0.8090128811357913 0 0.5877909136388264
vn -0.5877130978195639 0.015645002603970094 0.8089181346371546
vn 0.5877130978195639 -0.015645002603970094 -0.8089181346371546
vn -0.2941639207373951 0.8657587667208988 0.40488189090438675
vn 0.2941639207373951 -0.8657587667208988 -0.40488189090438675
vn 0.8090162952663266 0.0000030000010949090993 0.58778621452408
vn -0.8090162952663266 -0.0000030000010949090993 -0.58778621452408
vn -0.15244004252224114 -0.9657842693997648 0.2098160585269388
vn 0.15244004252224114 0.9657842693997648 -0.2098160585269388
vn 0.809033105464349 0.000005000000651792628 0.5877630766199181
vn -0.809033105464349 -0.000005000000651792628 -0.5877630766199181
vn -0.809005361773121 0.0000030000013415484 -0.587801262854497
vn 0.809005361773121 -0.0000030000013415484 0.587801262854497
vn 0.8090141776931069 0 0.5877891291029002
vn -0.8090141776931069 0 -0.5877891291029002
vn 0.8090179373092026 0 0.5877839544526232
vn -0.8090179373092026 0 -0.5877839544526232
vn 0.5849800191320643 0.09756500319091224 -0.8051580263330962
vn -0.5849800191320643 -0.09756500319091224 0.8051580263330962
vn 0.8090137021632783 0 0.5877897836064065
vn -0.8090137021632783 0 -0.5877897836064065
vn -0.8090339264588196 0 -0.5877619465724415
vn 0.8090339264588196 0 0.5877619465724415
vn -0.5848677547916133 -0.0995089582804302 0.8050016624995012
vn 0.5848677547916133 0.0995089582804302 -0.8050016624995012
vn -0.15202508305292184 0.9659735277216251 0.20924511431283427
vn 0.15202508305292184 -0.9659735277216251 -0.20924511431283427
vn -0.8090162952695626 -0.0000010000003649736997 -0.5877862145264311
vn 0.8090162952695626 0.0000010000003649736997 0.5877862145264311
vn -0.8090166407586674 -0.000002999998667859887 -0.5877857389955639
vn 0.8090166407586674 0.000002999998667859887 0.5877857389955639
vn -0.2939801146872507 -0.8659393378194544 0.40462915785355325
vn 0.2939801146872507 0.8659393378194544 -0.40462915785355325
vn 0.8090171162707348 0.000007000001006029718 0.5877850844755967
vn -0.8090171162707348 -0.000007000001006029718 -0.5877850844755967
vn 0.11527000242297547 -0.9805820206118342 -0.15865600333494922
vn -0.11527000242297547 0.9805820206118342 0.15865600333494922
vn -0.03856401530293703 0.9978453959640909 0.053079021062768246
vn 0.03856401530293703 -0.9978453959640909 -0.053079021062768246
vn -0.8090171162577905 0.00000900000129332278 -0.5877850844661922
vn 0.8090171162577905 -0.00000900000129332278 0.5877850844661922
vn 0 1 0
vn 0 -1 0
vn 0.809017937308798 -9.99999922509509e-7 0.5877839544523292
vn -0.809017937308798 9.99999922509509e-7 -0.5877839544523292
vn -0.8090171162905557 0 -0.5877850844899974
vn 0.8090171162905557 0 0.5877850844899974
vn -0.4152569355419548 -0.7077358901420588 0.5715519112811472
vn 0.4152569355419548 0.7077358901420588 -0.5715519112811472
vn -0.809018758325503 9.999997012746337e-7 -0.5877828244143081
vn 0.809018758325503 -9.999997012746337e-7 0.5877828244143081
vn 0.587786214526725 0 -0.8090162952699671
vn -0.587786214526725 0 0.8090162952699671
vn -0.5088908425425821 -0.5004308451602147 0.7004277832785718
vn 0.5088908425425821 0.5004308451602147 -0.7004277832785718
vn 0.8090137021616604 0.0000019999992637004063 0.587789783605231
vn -0.8090137021616604 -0.0000019999992637004063 -0.587789783605231
vn -0.8090162952699671 0 -0.587786214526725
vn 0.8090162952699671 0 0.587786214526725
vn -0.5746002312407271 -0.21061508475942523 0.7908703182759377
vn 0.5746002312407271 0.21061508475942523 -0.7908703182759377
vn 0.809025110957397 0 0.5877740806129268
vn -0.809025110957397 0 -0.5877740806129268
vn -0.5875151022094237 -0.030289005269348416 0.8086461406793727
vn 0.5875151022094237 0.030289005269348416 -0.8086461406793727
usemtl material_0_0
f 1//1 2//1 3//1
f 3//2 2//2 1//2
f 4//3 2//3 1//3
f 1//4 2//4 4//4
f 2//5 5//6 3//6
f 3//7 5//7 2//8
f 1//9 3//9 6//9
f 6//10 3//10 1//10
f 7//11 2//5 4//11
f 4//12 2//8 7//12
f 8//13 4//13 1//13
f 1//14 4//14 8//14
f 5//6 2//5 9//5
f 9//8 2//8 5//7
f 10//15 3//6 5//6
f 5//7 3//7 10//16
f 3//17 11//17 6//17
f 6//18 11//18 3//18
f 12//19 1//20 6//19
f 6//21 1//22 12//21
f 2//5 7//11 9//5
f 9//8 7//12 2//8
f 4//11 13//23 7//11
f 7//12 13//24 4//12
f 13//23 4//11 8//23
f 8//24 4//12 13//24
f 14//25 1//25 8//25
f 8//26 1//26 14//26
f 15//27 9//27 5//27
f 5//28 9//28 15//28
f 3//6 10//15 16//15
f 16//16 10//16 3//7
f 5//29 17//29 10//29
f 10//30 17//30 5//30
f 11//17 3//17 16//17
f 16//18 3//18 11//18
f 17//31 6//19 11//31
f 11//32 6//21 17//32
f 1//20 12//19 15//20
f 15//22 12//21 1//22
f 6//19 17//31 12//19
f 12//21 17//32 6//21
f 7//33 15//33 9//33
f 9//34 15//34 7//34
f 13//35 15//35 7//35
f 7//36 15//36 13//36
f 8//23 18//37 13//23
f 13//24 18//38 8//24
f 18//37 8//23 14//37
f 14//38 8//24 18//38
f 15//39 5//39 12//39
f 12//40 5//40 15//40
f 19//41 16//15 10//15
f 10//16 16//16 19//42
f 17//29 5//29 12//29
f 12//30 5//30 17//30
f 17//43 19//43 10//43
f 10//44 19//44 17//44
f 11//45 16//45 20//45
f 20//46 16//46 11//46
f 11//31 21//47 17//31
f 17//32 21//48 11//32
f 22//49 1//20 15//20
f 15//22 1//22 22//50
f 18//51 13//51 15//51
f 15//52 13//52 18//52
f 14//37 23//53 18//37
f 18//38 23//54 14//38
f 16//15 19//41 20//41
f 20//42 19//42 16//16
f 17//55 24//55 19//55
f 19//56 24//56 17//56
f 11//57 20//57 25//57
f 25//58 20//58 11//58
f 21//47 11//31 26//47
f 26//48 11//32 21//48
f 17//59 21//59 27//59
f 27//60 21//60 17//60
f 1//20 22//49 28//49
f 28//50 22//50 1//22
f 29//28 22//28 15//28
f 15//27 22//27 29//27
f 23//53 14//37 30//53
f 30//54 14//38 23//54
f 31//61 18//61 23//61
f 23//62 18//62 31//62
f 19//41 25//63 20//41
f 20//42 25//64 19//42
f 17//65 27//65 24//65
f 24//66 27//66 17//66
f 25//63 19//41 24//63
f 24//64 19//42 25//64
f 11//62 25//62 32//62
f 32//61 25//61 11//61
f 11//67 32//67 26//67
f 26//68 32//68 11//68
f 32//69 21//47 26//47
f 26//48 21//48 32//70
f 21//47 32//69 27//69
f 27//70 32//70 21//48
f 33//71 28//49 22//49
f 22//50 28//50 33//72
f 28//73 34//73 1//73
f 1//74 34//74 28//74
f 22//28 29//28 33//28
f 33//27 29//27 22//27
f 35//75 30//75 14//75
f 14//76 30//76 35//76
f 30//53 36//77 23//53
f 23//54 36//78 30//54
f 29//79 18//79 31//79
f 31//80 18//80 29//80
f 31//61 23//61 36//61
f 36//62 23//62 31//62
f 32//81 24//81 27//81
f 27//82 24//82 32//82
f 24//81 32//81 25//81
f 25//82 32//82 24//82
f 28//49 33//71 37//71
f 37//72 33//72 28//50
f 34//73 28//73 37//73
f 37//74 28//74 34//74
f 29//83 37//71 33//71
f 33//72 37//72 29//84
f 35//75 38//75 30//75
f 30//76 38//76 35//76
f 35//85 14//85 34//85
f 34//86 14//86 35//86
f 36//77 30//53 38//77
f 38//78 30//54 36//78
f 31//87 34//83 29//83
f 29//84 34//84 31//88
f 31//89 36//89 39//89
f 39//90 36//90 31//90
f 37//71 29//83 34//83
f 34//84 29//84 37//72
f 35//91 40//91 38//91
f 38//92 40//92 35//92
f 34//83 31//87 35//87
f 35//88 31//88 34//84
f 38//77 39//93 36//77
f 36//78 39//94 38//78
f 31//61 39//61 41//61
f 41//62 39//62 31//62
f 35//95 42//95 40//95
f 40//96 42//96 35//96
f 39//93 38//77 40//93
f 40//94 38//78 39//94
f 31//97 43//97 35//97
f 35//98 43//98 31//98
f 39//93 42//99 41//99
f 41//100 42//100 39//94
f 31//101 41//101 44//101
f 44//102 41//102 31//102
f 35//103 45//103 42//103
f 42//104 45//104 35//104
f 42//99 39//93 40//93
f 40//94 39//94 42//100
f 43//97 31//97 46//97
f 46//98 31//98 43//98
f 43//60 45//60 35//60
f 35//59 45//59 43//59
f 45//105 41//99 42//99
f 42//100 41//100 45//106
f 41//99 45//105 44//105
f 44//106 45//106 41//100
f 47//107 31//107 44//107
f 44//108 31//108 47//108
f 31//107 47//107 46//107
f 46//108 47//108 31//108
f 46//88 48//88 43//88
f 43//87 48//87 46//87
f 45//60 43//60 48//60
f 48//59 43//59 45//59
f 48//109 44//105 45//105
f 45//106 44//106 48//110
f 44//105 48//109 47//109
f 47//110 48//110 44//106
f 48//88 46//88 47//88
f 47//87 46//87 48//87
