# SSTK version 0.8.0
# 32
mtllib original-32.mtl
o mesh32/mesh32-geometry#mesh32-geometry
v 0.117913 -0.737170 0.284359
v 0.259084 -0.723875 0.478664
v 0.259084 -0.746083 0.478664
v 0.037047 -0.702611 0.173057
v 0.097997 -0.738272 0.256946
v 0.078164 -0.741572 0.229649
v 0.058499 -0.747059 0.202583
v 0.039086 -0.754707 0.175863
v 0.041609 -0.702611 0.165270
v 0.043647 -0.754707 0.168076
v 0.044398 -0.702611 0.156688
v 0.046436 -0.754707 0.159493
v 0.045284 -0.702611 0.147707
v 0.047323 -0.754707 0.150512
vn 0.8090171162905557 0 -0.5877850844899974
vn -0.8090171162905557 0 0.5877850844899974
vn 0.8612530284118766 0.060867002007941554 0.5045180166435451
vn 0.9107492583969057 0.05765601635810963 0.40891511601700425
vn -0.8612530284118766 -0.060867002007941554 -0.5045180166435451
vn -0.9107492583969057 -0.05765601635810963 -0.40891511601700425
vn 0.9776155193823324 0.049266975779252146 0.20454989943869178
vn -0.9776155193823324 -0.049266975779252146 -0.20454989943869178
vn 0.994189861787238 0.04418499385738049 0.09815398635458471
vn -0.994189861787238 -0.04418499385738049 -0.09815398635458471
usemtl material_0_0
f 1//1 2//1 3//1
f 2//1 1//1 4//1
f 3//2 2//2 1//2
f 4//2 1//2 2//2
f 5//1 4//1 1//1
f 1//2 4//2 5//2
f 4//1 5//1 6//1
f 6//2 5//2 4//2
f 7//1 4//1 6//1
f 6//2 4//2 7//2
f 4//1 7//1 8//1
f 8//2 7//2 4//2
f 8//3 9//4 4//3
f 4//5 9//6 8//5
f 9//4 8//3 10//4
f 10//6 8//5 9//6
f 10//4 11//7 9//4
f 9//6 11//8 10//6
f 11//7 10//4 12//7
f 12//8 10//6 11//8
f 12//7 13//9 11//7
f 11//8 13//10 12//8
f 13//9 12//7 14//9
f 14//10 12//8 13//10
