# SSTK version 0.8.0
# 30
mtllib original-30.mtl
o mesh30/mesh30-geometry#mesh30-geometry
v -0.251630 -0.762846 0.504702
v -0.248217 -0.767037 0.508917
v -0.251630 -0.767037 0.504702
v -0.248217 -0.762846 0.508917
v -0.256694 -0.767037 0.502759
v -0.247369 -0.767037 0.514274
v -0.256694 -0.762846 0.502759
v -0.247369 -0.762846 0.514274
v -0.262050 -0.767037 0.503607
v -0.249312 -0.767037 0.519337
v -0.262050 -0.762846 0.503607
v -0.249312 -0.762846 0.519337
v -0.266265 -0.767037 0.507020
v -0.253527 -0.762846 0.522750
v -0.266265 -0.762846 0.507020
v -0.253527 -0.767037 0.522750
v -0.268209 -0.762846 0.512083
v -0.258884 -0.762846 0.523598
v -0.268209 -0.767037 0.512083
v -0.258884 -0.767037 0.523598
v -0.267360 -0.762846 0.517440
v -0.263947 -0.762846 0.521655
v -0.267360 -0.767037 0.517440
v -0.263947 -0.767037 0.521655
vn 0.5877839544526232 0 -0.8090179373092026
vn 0.9135448777361863 0 -0.40673794556443404
vn -0.5877839544526232 0 0.8090179373092026
vn -0.9135448777361863 0 0.40673794556443404
vn 0.10452997233175622 0 -0.9945217367580873
vn -0.10452997233175622 0 0.9945217367580873
vn 0.9945217367580873 0 0.10452997233175622
vn -0.9945217367580873 0 -0.10452997233175622
vn -0.40674202696435346 0 -0.913543060561969
vn 0.40674202696435346 0 0.913543060561969
vn 0.8090184128369426 0 0.5877832999420739
vn -0.8090184128369426 0 -0.5877832999420739
vn 0.4067399862652044 0 0.9135439691514479
vn -0.4067399862652044 0 -0.9135439691514479
vn -0.9945216328003041 0 -0.10453096140482422
vn 0.9945216328003041 0 0.10453096140482422
vn -0.10452403788683487 0 0.9945223604845852
vn 0.10452403788683487 0 -0.9945223604845852
vn -0.913547066461465 0 0.4067330295902357
vn 0.913547066461465 0 -0.4067330295902357
vn -0.5877850844899974 0 0.8090171162905557
vn 0.5877850844899974 0 -0.8090171162905557
usemtl material_0_0
f 1//1 2//2 3//1
f 2//2 1//1 4//2
f 3//3 2//4 1//3
f 4//4 1//3 2//4
f 5//5 1//1 3//1
f 3//3 1//3 5//6
f 4//2 6//7 2//2
f 2//4 6//8 4//4
f 1//1 5//5 7//5
f 7//6 5//6 1//3
f 6//7 4//2 8//7
f 8//8 4//4 6//8
f 9//9 7//5 5//5
f 5//6 7//6 9//10
f 8//7 10//11 6//7
f 6//8 10//12 8//8
f 7//5 9//9 11//9
f 11//10 9//10 7//6
f 10//11 8//7 12//11
f 12//12 8//8 10//12
f 13//12 11//9 9//9
f 9//10 11//10 13//11
f 14//13 10//11 12//11
f 12//12 10//12 14//14
f 11//9 13//12 15//12
f 15//11 13//11 11//10
f 10//11 14//13 16//13
f 16//14 14//14 10//12
f 13//12 17//15 15//12
f 15//11 17//16 13//11
f 18//17 16//13 14//13
f 14//14 16//14 18//18
f 17//15 13//12 19//15
f 19//16 13//11 17//16
f 16//13 18//17 20//17
f 20//18 18//18 16//14
f 19//15 21//19 17//15
f 17//16 21//20 19//16
f 22//21 20//17 18//17
f 18//18 20//18 22//22
f 21//19 19//15 23//19
f 23//20 19//16 21//20
f 20//17 22//21 24//21
f 24//22 22//22 20//18
f 23//19 22//21 21//19
f 21//20 22//22 23//20
f 22//21 23//19 24//21
f 24//22 23//20 22//22
