# SSTK version 0.8.0
# 36
mtllib original-36.mtl
o mesh36/mesh36-geometry#mesh36-geometry
v 0.254915 -0.773402 0.551356
v 0.319021 -0.777896 0.525511
v 0.309163 -0.773402 0.511942
v 0.264773 -0.777896 0.564924
v 0.292088 -0.790174 0.488440
v 0.245056 -0.777896 0.537787
v 0.237840 -0.790174 0.527854
v 0.326238 -0.790174 0.535444
v 0.289446 -0.806946 0.484805
v 0.299305 -0.777896 0.498373
v 0.235198 -0.806946 0.524218
v 0.271990 -0.790174 0.574857
v 0.274631 -0.806946 0.578493
v 0.292088 -0.823718 0.488440
v 0.237840 -0.823718 0.527854
v 0.328879 -0.806946 0.539079
v 0.326238 -0.823718 0.535444
v 0.245056 -0.835995 0.537787
v 0.299305 -0.835995 0.498373
v 0.271990 -0.823718 0.574857
v 0.264773 -0.835995 0.564924
v 0.309163 -0.840489 0.511942
v 0.254915 -0.840489 0.551356
v 0.319021 -0.835995 0.525511
vn 0 1 0
vn 0.2938931295866201 0.866025381857522 0.40450817836023495
vn 0 -1 0
vn -0.2938931295866201 -0.866025381857522 -0.40450817836023495
vn 0.8090171162905557 0 -0.5877850844899974
vn -0.8090171162905557 0 0.5877850844899974
vn -0.2938930107043184 0.8660250315427973 -0.4045090147332298
vn 0.2938930107043184 -0.8660250315427973 0.4045090147332298
vn -0.8090174617810872 9.999993347256638e-7 0.5877846089617244
vn 0.8090174617810872 -9.999993347256638e-7 -0.5877846089617244
vn 0.5090368312515187 0.5000008342470009 0.7006287677377485
vn -0.5090368312515187 -0.5000008342470009 -0.7006287677377485
vn 0.8090171162901512 -0.000001000000143742531 -0.5877850844897036
vn -0.8090171162901512 0.000001000000143742531 0.5877850844897036
vn -0.8090166407606899 -0.0000019999991119115914 0.5877857389970333
vn 0.8090166407606899 0.0000019999991119115914 -0.5877857389970333
vn -0.5877850844899974 0 -0.8090171162905557
vn -0.5090369836420967 0.4999989839325329 -0.7006299774852559
vn 0.5090369836420967 -0.4999989839325329 0.7006299774852559
vn 0.5877850844899974 0 0.8090171162905557
vn -0.8090166407619036 -9.999995559572958e-7 0.5877857389979151
vn 0.8090166407619036 9.999995559572958e-7 -0.5877857389979151
vn -0.5090369836420967 -0.4999989839325329 -0.7006299774852559
vn 0.5090369836420967 0.4999989839325329 0.7006299774852559
vn 0.5090368312515187 -0.5000008342470009 0.7006287677377485
vn -0.5090368312515187 0.5000008342470009 -0.7006287677377485
vn 0.29389196144078944 -0.8660258863756791 0.4045079469277518
vn -0.29389196144078944 0.8660258863756791 -0.4045079469277518
vn 0 -1 9.999999999995e-7
vn 0 1 -9.999999999995e-7
vn -0.8090179373075844 0.000001999999845016018 0.5877839544514475
vn 0.8090179373075844 -0.000001999999845016018 -0.5877839544514475
usemtl material_0_0
f 1//1 2//2 3//1
f 2//2 1//1 4//2
f 3//3 2//4 1//3
f 4//4 1//3 2//4
f 2//5 5//5 3//5
f 3//6 5//6 2//6
f 3//1 6//7 1//1
f 1//3 6//8 3//3
f 7//9 4//9 1//9
f 1//10 4//10 7//10
f 4//2 8//11 2//2
f 2//4 8//12 4//4
f 5//5 2//5 9//5
f 9//6 2//6 5//6
f 3//13 5//13 10//13
f 10//14 5//14 3//14
f 6//7 3//1 10//7
f 10//8 3//3 6//8
f 1//15 6//15 7//15
f 7//16 6//16 1//16
f 4//9 7//9 11//9
f 11//10 7//10 4//10
f 8//11 4//2 12//11
f 12//12 4//4 8//12
f 8//5 9//5 2//5
f 2//6 9//6 8//6
f 9//17 7//18 5//18
f 5//19 7//19 9//20
f 7//18 10//7 5//18
f 5//19 10//8 7//19
f 10//7 7//18 6//7
f 6//8 7//19 10//8
f 7//18 9//17 11//17
f 11//20 9//20 7//19
f 11//21 12//21 4//21
f 4//22 12//22 11//22
f 13//20 8//11 12//11
f 12//12 8//12 13//17
f 9//5 8//5 14//5
f 14//6 8//6 9//6
f 9//17 15//23 11//17
f 11//20 15//24 9//20
f 12//21 11//21 15//21
f 15//22 11//22 12//22
f 8//11 13//20 16//20
f 16//17 13//17 8//12
f 15//6 13//6 12//6
f 12//5 13//5 15//5
f 16//22 14//22 8//22
f 8//21 14//21 16//21
f 15//23 9//17 14//23
f 14//24 9//20 15//24
f 13//20 17//25 16//20
f 16//17 17//26 13//17
f 13//6 15//6 18//6
f 18//5 15//5 13//5
f 14//22 16//22 19//22
f 19//21 16//21 14//21
f 19//4 15//23 14//23
f 14//24 15//24 19//2
f 17//25 13//20 20//25
f 20//26 13//17 17//26
f 17//13 19//13 16//13
f 16//14 19//14 17//14
f 15//23 19//4 18//4
f 18//2 19//2 15//24
f 18//6 20//6 13//6
f 13//5 20//5 18//5
f 21//27 17//25 20//25
f 20//26 17//26 21//28
f 19//13 17//13 22//13
f 22//14 17//14 19//14
f 22//29 18//4 19//4
f 19//2 18//2 22//30
f 20//6 18//6 23//6
f 23//5 18//5 20//5
f 17//25 21//27 24//27
f 24//28 21//28 17//26
f 20//31 23//31 21//31
f 21//32 23//32 20//32
f 17//5 24//5 22//5
f 22//6 24//6 17//6
f 18//4 22//29 23//29
f 23//30 22//30 18//2
f 23//29 24//27 21//27
f 21//28 24//28 23//30
f 24//27 23//29 22//29
f 22//30 23//30 24//28
