# SSTK version 0.8.0
# 24
mtllib original-24.mtl
o mesh24/mesh24-geometry#mesh24-geometry
v 0.009927 -0.754707 0.192575
v 0.002941 -0.702611 0.189769
v 0.000903 -0.754707 0.192575
v 0.011966 -0.702611 0.189769
v -0.005874 -0.702611 0.187837
v 0.018743 -0.754707 0.190643
v -0.007912 -0.754707 0.190643
v 0.020781 -0.702611 0.187837
v -0.027326 -0.747059 0.217363
v -0.046990 -0.741572 0.244429
v -0.066823 -0.738272 0.271726
v -0.086740 -0.737170 0.299140
v -0.227910 -0.723875 0.493444
v -0.227910 -0.746083 0.493444
vn 0.10756100914236351 0.04926600418746274 0.9929770844000769
vn -0.10746497117005366 0.057654984532726404 0.9925357337294968
vn 0.10746497117005366 -0.057654984532726404 -0.9925357337294968
vn -0.10756100914236351 -0.04926600418746274 -0.9929770844000769
vn -0.2136839579502065 0.060866988022290944 0.9750048081336978
vn 0.2136839579502065 -0.060866988022290944 -0.9750048081336978
vn 0.21387102546027772 0.04418500526000426 0.9758621161715124
vn -0.21387102546027772 -0.04418500526000426 -0.9758621161715124
vn 0.8090171162905557 0 0.5877850844899974
vn -0.8090171162905557 0 -0.5877850844899974
usemtl material_0_0
f 1//1 2//2 3//2
f 2//2 1//1 4//1
f 3//3 2//3 1//4
f 4//4 1//4 2//3
f 5//5 3//2 2//2
f 2//3 3//3 5//6
f 6//7 4//1 1//1
f 1//4 4//4 6//8
f 3//2 5//5 7//5
f 7//6 5//6 3//3
f 4//1 6//7 8//7
f 8//8 6//8 4//4
f 5//9 9//9 7//9
f 7//10 9//10 5//10
f 9//9 5//9 10//9
f 10//10 5//10 9//10
f 5//9 11//9 10//9
f 10//10 11//10 5//10
f 11//9 5//9 12//9
f 12//10 5//10 11//10
f 13//9 12//9 5//9
f 5//10 12//10 13//10
f 12//9 13//9 14//9
f 14//10 13//10 12//10
