# SSTK version 0.8.0
# 20
mtllib original-20.mtl
o mesh20/mesh20-geometry#mesh20-geometry
v 0.442641 -0.773402 -0.026407
v 0.479313 -0.777896 0.032183
v 0.458592 -0.777896 -0.031590
v 0.463362 -0.773402 0.037366
v 0.490990 -0.790174 0.028389
v 0.415013 -0.790174 -0.017430
v 0.426690 -0.777896 -0.021224
v 0.435734 -0.790174 0.046343
v 0.470269 -0.790174 -0.035384
v 0.435734 -0.823718 0.046343
v 0.410739 -0.806946 -0.016041
v 0.447411 -0.777896 0.042549
v 0.431460 -0.806946 0.047732
v 0.495264 -0.806946 0.027000
v 0.415013 -0.823718 -0.017430
v 0.447411 -0.835995 0.042549
v 0.474543 -0.806946 -0.036772
v 0.426690 -0.835995 -0.021224
v 0.490990 -0.823718 0.028389
v 0.463362 -0.840489 0.037366
v 0.470269 -0.823718 -0.035384
v 0.442641 -0.840489 -0.026407
v 0.458592 -0.835995 -0.031590
v 0.479313 -0.835995 0.032183
vn 0 1 0
vn 0.47552818771716676 0.8660253418679013 -0.15450906099323639
vn -0.47552818771716676 -0.8660253418679013 0.15450906099323639
vn 0 -1 0
vn 0.8236389748748936 0.49999998474750074 -0.2676169918363438
vn -0.8236389748748936 -0.49999998474750074 0.2676169918363438
vn -0.30901685730547324 -9.999995382308198e-7 -0.951056560831189
vn 0.30901685730547324 9.999995382308198e-7 0.951056560831189
vn -0.47552818771716676 0.8660253418679013 0.15450906099323639
vn 0.47552818771716676 -0.8660253418679013 -0.15450906099323639
vn 0.3090168573056278 0 0.9510565608316645
vn -0.3090168573056278 0 -0.9510565608316645
vn -0.30901715119811185 0.000001000000489287359 -0.9510564653396786
vn 0.30901715119811185 -0.000001000000489287359 0.9510564653396786
vn 0.9510564653401542 0 -0.30901715119826634
vn -0.9510564653401542 0 0.30901715119826634
vn -0.9510565608316645 0 0.3090168573056278
vn -0.8236389748748936 0.49999998474750074 0.2676169918363438
vn 0.8236389748748936 -0.49999998474750074 -0.2676169918363438
vn 0.9510565608316645 0 -0.3090168573056278
vn 0.30901805570529933 -0.0000030000005407966463 0.9510561714426317
vn -0.30901805570529933 0.0000030000005407966463 -0.9510561714426317
usemtl material_0_0
f 1//1 2//2 3//2
f 2//2 1//1 4//1
f 3//3 2//3 1//4
f 4//4 1//4 2//3
f 5//5 3//2 2//2
f 2//3 3//3 5//6
f 3//7 6//7 1//7
f 1//8 6//8 3//8
f 7//9 4//1 1//1
f 1//4 4//4 7//10
f 8//11 2//11 4//11
f 4//12 2//12 8//12
f 3//2 5//5 9//5
f 9//6 5//6 3//3
f 2//11 10//11 5//11
f 5//12 10//12 2//12
f 6//7 3//7 11//7
f 11//8 3//8 6//8
f 1//13 6//13 7//13
f 7//14 6//14 1//14
f 4//1 7//9 12//9
f 12//10 7//10 4//4
f 2//11 8//11 13//11
f 13//12 8//12 2//12
f 4//14 12//14 8//14
f 8//13 12//13 4//13
f 14//15 9//5 5//5
f 5//6 9//6 14//16
f 15//13 3//13 9//13
f 9//14 3//14 15//14
f 10//11 2//11 13//11
f 13//12 2//12 10//12
f 16//11 5//11 10//11
f 10//12 5//12 16//12
f 3//13 15//13 11//13
f 11//14 15//14 3//14
f 11//17 8//18 6//18
f 6//19 8//19 11//20
f 6//18 12//9 7//9
f 7//10 12//10 6//19
f 8//18 11//17 13//17
f 13//20 11//20 8//19
f 12//9 6//18 8//18
f 8//19 6//19 12//10
f 9//5 14//15 17//15
f 17//16 14//16 9//6
f 5//11 16//11 14//11
f 14//12 16//12 5//12
f 9//12 18//12 15//12
f 15//11 18//11 9//11
f 13//17 15//6 10//6
f 10//5 15//5 13//20
f 15//6 16//3 10//6
f 10//5 16//2 15//5
f 15//6 13//17 11//17
f 11//20 13//20 15//5
f 19//19 17//15 14//15
f 14//16 17//16 19//18
f 18//12 9//12 17//12
f 17//11 9//11 18//11
f 20//8 14//8 16//8
f 16//7 14//7 20//7
f 16//3 15//6 18//3
f 18//2 15//5 16//2
f 17//15 19//19 21//19
f 21//18 19//18 17//16
f 14//8 20//8 19//8
f 19//7 20//7 14//7
f 17//12 22//12 18//12
f 18//11 22//11 17//11
f 18//3 20//4 16//3
f 16//2 20//1 18//2
f 19//19 23//10 21//19
f 21//18 23//9 19//18
f 22//12 17//12 21//12
f 21//11 17//11 22//11
f 19//21 20//21 24//21
f 24//22 20//22 19//22
f 20//4 18//3 22//4
f 22//1 18//2 20//1
f 23//10 19//19 24//10
f 24//9 19//18 23//9
f 21//12 23//12 22//12
f 22//11 23//11 21//11
f 22//4 24//10 20//4
f 20//1 24//9 22//1
f 24//10 22//4 23//10
f 23//9 22//1 24//9
