# SSTK version 0.8.0
# 2
mtllib original-2.mtl
o mesh2/mesh2-geometry#mesh2-geometry
v 0.122761 -0.289515 0.083854
v 0.122761 -0.293706 0.385601
v 0.122761 -0.293706 0.083854
v 0.122761 -0.289515 0.385601
v 0.089234 -0.293706 0.083854
v 0.089234 -0.293706 0.385601
v 0.085043 -0.289515 0.083854
v 0.085043 -0.289515 0.385601
v 0.089234 -0.327233 0.385601
v 0.085043 -0.369142 0.100618
v 0.089234 -0.327233 0.176986
v 0.089234 -0.369142 0.100618
v 0.085043 -0.327233 0.385601
v 0.085043 -0.327233 0.176986
v 0.089234 -0.369142 0.167673
v 0.085043 -0.369142 0.167673
v 0.089234 -0.335615 0.326928
v 0.085043 -0.343997 0.243109
v 0.089234 -0.343997 0.243109
v 0.085043 -0.377524 0.217964
v 0.093425 -0.335615 0.326928
v 0.085043 -0.394288 0.217964
v 0.089234 -0.310469 0.368837
v 0.093425 -0.310469 0.368837
v 0.089234 -0.377524 0.217964
v 0.085043 -0.394288 0.167673
v 0.093425 -0.398479 0.368837
v -0.074212 -0.394288 0.167673
v 0.043134 -0.289515 0.100618
v 0.089234 -0.398479 0.217964
v 0.089234 -0.310469 0.398173
v 0.093425 -0.310469 0.402364
v -0.074212 -0.394288 0.217964
v -0.032303 -0.394288 0.100618
v 0.043134 -0.394288 0.100618
v 0.085043 -0.289515 0.167673
v -0.082594 -0.310469 0.402364
v -0.078403 -0.398479 0.217964
v -0.074212 -0.377524 0.217964
v -0.074212 -0.369142 0.167673
v -0.082594 -0.398479 0.368837
v -0.032303 -0.289515 0.100618
v -0.078403 -0.310469 0.398173
v -0.082594 -0.310469 0.368837
v -0.078403 -0.377524 0.217964
v -0.074212 -0.343997 0.243109
v -0.074212 -0.289515 0.167673
v -0.078403 -0.310469 0.368837
v -0.078403 -0.343997 0.243109
v -0.074212 -0.327233 0.176986
v -0.082594 -0.335615 0.326928
v -0.078403 -0.335615 0.326928
v -0.078403 -0.327233 0.176986
v -0.074212 -0.327233 0.385601
v -0.078403 -0.369142 0.167673
v -0.078403 -0.369142 0.100618
v -0.078403 -0.327233 0.385601
v -0.078403 -0.293706 0.083854
v -0.074212 -0.369142 0.100618
v -0.078403 -0.293706 0.385601
v -0.074212 -0.289515 0.385601
v -0.111930 -0.293706 0.083854
v -0.074212 -0.289515 0.083854
v -0.111930 -0.289515 0.385601
v -0.111930 -0.293706 0.385601
v -0.111930 -0.289515 0.083854
vn 1 0 0
vn -1 0 0
vn 0 -1 0
vn 0 1 0
vn 0 0 1
vn 0 0 -1
vn -0.10141096717276818 -0.21043993187955284 -0.972332685251099
vn -0.20177306719175409 -0.20177306719175409 -0.9584233191612481
vn 0.20177306719175409 0.20177306719175409 0.9584233191612481
vn 0.10141096717276818 0.21043993187955284 0.972332685251099
vn 0 -0.21693003428915708 -0.9761871543015229
vn 0 0.21693003428915708 0.9761871543015229
vn 0 -0.21693098723035784 0.9761869425367574
vn 0 0.21693098723035784 -0.9761869425367574
vn 0.8944269909998285 0.4472139954999092 0
vn 0.9867892076318192 0.1609400338636375 -0.01858400391028855
vn -0.9867892076318192 -0.1609400338636375 0.01858400391028855
vn -0.8944269909998285 -0.4472139954999092 0
vn 0.9895223700077161 -0.13995205233165092 -0.0354810132672581
vn -0.9895223700077161 0.13995205233165092 0.0354810132672581
vn 0 0.9492217157328184 -0.31460790578312614
vn 0 0.9950371605069698 -0.09950401605074537
vn 0 -0.9950371605069698 0.09950401605074537
vn 0 -0.9492217157328184 0.31460790578312614
vn 0 0.6 -0.8
vn 0 0.31622806601688475 -0.9486831980504455
vn 0 -0.6 0.8
vn 0 -0.31622806601688475 0.9486831980504455
vn 0.9612486364125783 0 -0.27568289572434285
vn -0.9612486364125783 0 0.27568289572434285
vn 0 0.9637148257695305 -0.26693395174088175
vn 0 -0.9637148257695305 0.26693395174088175
vn 0.9932685815827184 0.09932695815822971 -0.05959597489502208
vn -0.9932685815827184 -0.09932695815822971 0.05959597489502208
vn -0.9994449014297514 0 0.033314996714308605
vn 0.9994449014297514 0 -0.033314996714308605
vn -0.9995059115727165 -0.018858998331525635 0.025144997775397002
vn -0.9996054729264561 -0.009430004461458755 0.02645701251715953
vn 0.9996054729264561 0.009430004461458755 -0.02645701251715953
vn 0.9995059115727165 0.018858998331525635 -0.025144997775397002
vn 0.8479981916454931 0 -0.5299991197784897
vn -0.8479981916454931 0 0.5299991197784897
vn -0.9996144221947375 0 0.027767011727608135
vn 0.9996144221947375 0 -0.027767011727608135
vn 0 -0.3559949533345826 0.9344878775031318
vn 0 0.3559949533345826 -0.9344878775031318
vn -0.9612486364125783 0 -0.27568289572434285
vn 0.9612486364125783 0 0.27568289572434285
vn -0.8479981916454931 0 -0.5299991197784897
vn 0.8479981916454931 0 0.5299991197784897
vn -0.9996054729264561 0.009430004461458755 -0.02645701251715953
vn -0.9996144221947375 0 -0.027767011727608135
vn 0.9996054729264561 -0.009430004461458755 0.02645701251715953
vn 0.9996144221947375 0 0.027767011727608135
vn -0.9994449014297514 0 -0.033314996714308605
vn 0.9994449014297514 0 0.033314996714308605
vn -0.9995059115727165 0.018858998331525635 -0.025144997775397002
vn 0.9995059115727165 -0.018858998331525635 0.025144997775397002
vn 0.9932685815827184 -0.09932695815822971 0.05959597489502208
vn -0.9932685815827184 0.09932695815822971 -0.05959597489502208
vn -0.9867892076318192 0.1609400338636375 -0.01858400391028855
vn -0.9895223700077161 -0.13995205233165092 -0.0354810132672581
vn 0.9867892076318192 -0.1609400338636375 0.01858400391028855
vn 0.9895223700077161 0.13995205233165092 0.0354810132672581
vn -0.8944269909998285 0.4472139954999092 0
vn 0.8944269909998285 -0.4472139954999092 0
vn 0.10141096717276818 -0.21043993187955284 -0.972332685251099
vn -0.10141096717276818 0.21043993187955284 0.972332685251099
vn 0.20177306719175409 -0.20177306719175409 -0.9584233191612481
vn -0.20177306719175409 0.20177306719175409 0.9584233191612481
usemtl material_0_0
f 1//1 2//1 3//1
f 2//1 1//1 4//1
f 3//2 2//2 1//2
f 4//2 1//2 2//2
f 2//3 5//3 3//3
f 3//4 5//4 2//4
f 1//5 5//5 3//5
f 3//6 5//6 1//6
f 4//5 6//5 2//5
f 2//6 6//6 4//6
f 5//3 2//3 6//3
f 6//4 2//4 5//4
f 5//5 1//5 7//5
f 7//6 1//6 5//6
f 6//5 4//5 8//5
f 8//6 4//6 6//6
f 9//1 5//1 6//1
f 6//2 5//2 9//2
f 5//7 10//7 7//8
f 7//9 10//10 5//10
f 8//5 9//5 6//5
f 6//6 9//6 8//6
f 5//1 9//1 11//1
f 11//2 9//2 5//2
f 12//11 10//7 5//7
f 5//10 10//10 12//12
f 9//5 8//5 13//5
f 13//6 8//6 9//6
f 9//3 14//3 11//3
f 11//4 14//4 9//4
f 15//1 5//1 11//1
f 11//2 5//2 15//2
f 15//3 10//3 12//3
f 12//4 10//4 15//4
f 5//1 15//1 12//1
f 12//2 15//2 5//2
f 14//3 9//3 13//3
f 13//4 9//4 14//4
f 14//13 15//13 11//13
f 11//14 15//14 14//14
f 10//3 15//3 16//3
f 16//4 15//4 10//4
f 13//15 17//16 14//16
f 14//17 17//17 13//18
f 15//13 14//13 16//13
f 16//14 14//14 15//14
f 14//16 17//16 18//19
f 18//20 17//17 14//17
f 18//1 16//1 14//1
f 14//2 16//2 18//2
f 17//21 19//22 18//22
f 18//23 19//23 17//24
f 16//1 18//1 20//1
f 20//2 18//2 16//2
f 19//22 17//21 21//21
f 21//24 17//24 19//23
f 19//25 20//26 18//25
f 18//27 20//28 19//27
f 22//1 16//29 20//1
f 20//2 16//30 22//2
f 23//31 21//21 17//21
f 17//24 21//24 23//32
f 24//33 21//33 19//33
f 19//34 21//34 24//34
f 20//26 19//25 25//26
f 25//28 19//27 20//28
f 16//29 22//1 26//29
f 26//30 22//2 16//30
f 25//26 22//6 20//26
f 20//28 22//5 25//28
f 21//21 23//31 24//31
f 24//32 23//32 21//24
f 24//35 19//35 27//35
f 27//36 19//36 24//36
f 19//37 25//38 27//38
f 27//39 25//39 19//40
f 22//3 28//3 26//3
f 26//4 28//4 22//4
f 26//29 29//41 16//29
f 16//30 29//42 26//30
f 22//6 25//26 30//6
f 30//5 25//28 22//5
f 31//4 24//31 23//31
f 23//32 24//32 31//3
f 24//2 27//2 32//2
f 32//1 27//1 24//1
f 25//38 30//43 27//38
f 27//39 30//44 25//39
f 28//3 22//3 33//3
f 33//4 22//4 28//4
f 34//3 26//3 28//3
f 28//4 26//4 34//4
f 29//41 26//29 35//41
f 35//42 26//30 29//42
f 16//29 29//41 36//41
f 36//42 29//42 16//30
f 33//5 30//5 22//5
f 22//6 30//6 33//6
f 24//31 31//4 32//4
f 32//3 31//3 24//32
f 37//45 27//45 32//45
f 32//46 27//46 37//46
f 27//3 38//3 30//3
f 30//4 38//4 27//4
f 27//3 38//3 30//3
f 30//4 38//4 27//4
f 39//2 28//47 33//2
f 33//1 28//48 39//1
f 26//3 34//3 35//3
f 35//4 34//4 26//4
f 40//47 34//49 28//47
f 28//48 34//50 40//48
f 34//6 29//6 35//6
f 35//5 29//5 34//5
f 30//5 33//5 38//5
f 38//6 33//6 30//6
f 31//4 37//4 32//4
f 32//3 37//3 31//3
f 27//45 37//45 41//45
f 41//46 37//46 27//46
f 38//3 27//3 41//3
f 41//4 27//4 38//4
f 38//3 27//3 41//3
f 41//4 27//4 38//4
f 28//47 39//2 40//47
f 40//48 39//1 28//48
f 38//6 39//26 33//6
f 33//5 39//28 38//5
f 34//49 40//47 42//49
f 42//50 40//48 34//50
f 29//6 34//6 42//6
f 42//5 34//5 29//5
f 37//4 31//4 43//4
f 43//3 31//3 37//3
f 44//2 41//2 37//2
f 37//1 41//1 44//1
f 45//51 38//52 41//51
f 41//53 38//54 45//53
f 46//2 40//2 39//2
f 39//1 40//1 46//1
f 39//26 38//6 45//26
f 45//28 38//5 39//28
f 42//49 40//47 47//49
f 47//50 40//48 42//50
f 48//31 37//4 43//4
f 43//3 37//3 48//32
f 44//55 49//55 41//55
f 41//56 49//56 44//56
f 37//4 48//31 44//31
f 44//32 48//32 37//3
f 49//57 45//51 41//51
f 41//53 45//53 49//58
f 40//2 46//2 50//2
f 50//1 46//1 40//1
f 45//26 46//25 39//26
f 39//28 46//27 45//28
f 44//59 51//59 49//59
f 49//60 51//60 44//60
f 52//21 44//31 48//31
f 48//32 44//32 52//24
f 46//25 45//26 49//25
f 49//27 45//28 46//27
f 50//61 46//62 52//61
f 52//63 46//64 50//63
f 53//13 40//13 50//13
f 50//14 40//14 53//14
f 44//31 52//21 51//21
f 51//24 52//24 44//32
f 51//21 46//22 49//22
f 49//23 46//23 51//24
f 46//22 51//21 52//21
f 52//24 51//24 46//23
f 50//61 52//61 54//65
f 54//66 52//63 50//63
f 40//13 53//13 55//13
f 55//14 53//14 40//14
f 54//3 53//3 50//3
f 50//4 53//4 54//4
f 53//2 56//2 55//2
f 55//1 56//1 53//1
f 56//3 40//3 55//3
f 55//4 40//4 56//4
f 53//3 54//3 57//3
f 57//4 54//4 53//4
f 56//2 53//2 58//2
f 58//1 53//1 56//1
f 40//3 56//3 59//3
f 59//4 56//4 40//4
f 54//5 60//5 57//5
f 57//6 60//6 54//6
f 60//2 53//2 57//2
f 57//1 53//1 60//1
f 53//2 60//2 58//2
f 58//1 60//1 53//1
f 59//67 56//11 58//67
f 58//68 56//12 59//68
f 60//5 54//5 61//5
f 61//6 54//6 60//6
f 60//3 62//3 58//3
f 58//4 62//4 60//4
f 59//67 58//67 63//69
f 63//70 58//68 59//68
f 64//5 60//5 61//5
f 61//6 60//6 64//6
f 62//3 60//3 65//3
f 65//4 60//4 62//4
f 58//5 66//5 62//5
f 62//6 66//6 58//6
f 66//5 58//5 63//5
f 63//6 58//6 66//6
f 60//5 64//5 65//5
f 65//6 64//6 60//6
f 64//2 62//2 65//2
f 65//1 62//1 64//1
f 62//2 64//2 66//2
f 66//1 64//1 62//1
