# SSTK version 0.8.0
# 6
mtllib original-6.mtl
o mesh6/mesh6-geometry#mesh6-geometry
v 0.030258 -0.702611 0.120925
v 0.039552 -0.754707 0.126598
v 0.033556 -0.754707 0.119853
v 0.036254 -0.702611 0.127669
v 0.026255 -0.754707 0.114549
v 0.070964 -0.747059 0.116391
v 0.022957 -0.702611 0.115620
v 0.102782 -0.741572 0.106053
v 0.017988 -0.754707 0.110930
v 0.134872 -0.738272 0.095626
v 0.014690 -0.702611 0.112002
v 0.167098 -0.737170 0.085156
v 0.395517 -0.723875 0.010938
v 0.395517 -0.746083 0.010938
vn 0.6703388710935123 0.05765598891272557 -0.7398118577338235
vn 0.7459667713877014 0.06086798134612738 -0.6631957967540628
vn -0.6703388710935123 -0.05765598891272557 0.7398118577338235
vn -0.7459667713877014 -0.06086798134612738 0.6631957967540628
vn 0.4966389497299597 0.0492659950132716 -0.8665579122865793
vn -0.4966389497299597 -0.0492659950132716 0.8665579122865793
vn -0.3090168573056278 0 -0.9510565608316645
vn 0.3090168573056278 0 0.9510565608316645
vn 0.40057210995505643 0.04418501212856658 -0.915199251217653
vn -0.40057210995505643 -0.04418501212856658 0.915199251217653
vn -0.30901715119811185 -0.000001000000489287359 -0.9510564653396786
vn 0.30901715119811185 0.000001000000489287359 0.9510564653396786
usemtl material_0_0
f 1//1 2//2 3//1
f 2//2 1//1 4//2
f 3//3 2//4 1//3
f 4//4 1//3 2//4
f 5//5 1//1 3//1
f 3//3 1//3 5//6
f 4//7 6//7 2//7
f 2//8 6//8 4//8
f 1//1 5//5 7//5
f 7//6 5//6 1//3
f 6//7 4//7 8//7
f 8//8 4//8 6//8
f 9//9 7//5 5//5
f 5//6 7//6 9//10
f 4//11 10//11 8//11
f 8//12 10//12 4//12
f 7//5 9//9 11//9
f 11//10 9//10 7//6
f 10//11 4//11 12//11
f 12//12 4//12 10//12
f 13//7 12//7 4//7
f 4//8 12//8 13//8
f 12//7 13//7 14//7
f 14//8 13//8 12//8
