# SSTK version 0.8.0
# 13
mtllib original-13.mtl
o mesh13/mesh13-geometry#mesh13-geometry
v 0.022179 -0.797511 -0.283996
v -0.011348 -0.814042 -0.283495
v -0.011348 -0.797511 -0.283996
v 0.022179 -0.814042 -0.283495
v -0.011348 -0.767037 -0.281492
v 0.022179 -0.788745 -0.287642
v 0.022179 -0.814042 -0.281492
v -0.011348 -0.814042 -0.281492
v -0.011348 -0.788745 -0.287642
v 0.022179 -0.767037 -0.281492
v -0.011348 -0.781231 -0.293403
v 0.022179 -0.781231 -0.293403
v -0.011348 -0.775470 -0.300945
v 0.022179 -0.775470 -0.300945
v 0.022179 -0.767037 -0.319118
v -0.011348 -0.771824 -0.309684
v 0.022179 -0.771824 -0.309684
v -0.011348 -0.767037 -0.319118
v 0.022179 -0.770599 -0.319090
v -0.011348 -0.770599 -0.319090
v 0.022179 -0.768401 -0.329443
v -0.011348 -0.768401 -0.329443
v 0.022179 -0.772381 -0.339072
v -0.011348 -0.771824 -0.328525
v -0.011348 -0.772381 -0.339072
v 0.022179 -0.778726 -0.347310
v 0.022179 -0.771824 -0.328525
v -0.011348 -0.778726 -0.347310
v -0.011348 -0.775470 -0.337291
v 0.022179 -0.775470 -0.337291
v -0.011348 -0.781231 -0.344805
v -0.011348 -0.786964 -0.353656
v 0.022179 -0.781231 -0.344805
v -0.011348 -0.788745 -0.350566
v 0.022179 -0.786964 -0.353656
v 0.022179 -0.788745 -0.350566
v -0.011348 -0.796593 -0.357635
v 0.022179 -0.797511 -0.354212
v 0.022179 -0.796593 -0.357635
v -0.011348 -0.797511 -0.354212
v -0.011348 -0.806946 -0.358999
v -0.011348 -0.806946 -0.355437
v 0.022179 -0.806946 -0.355437
v 0.022179 -0.806946 -0.358999
v -0.011348 -0.814738 -0.358220
v -0.011348 -0.814042 -0.354741
v 0.022179 -0.814042 -0.354741
v 0.022179 -0.814738 -0.358220
vn 0 -0.21061597375546107 -0.9775688781866161
vn 0 -0.030289005539829328 -0.9995411828150995
vn 0 0.21061597375546107 0.9775688781866161
vn 0 0.030289005539829328 0.9995411828150995
vn -1 0 0
vn 1 0 0
vn 0 -0.5004319327419527 -0.8657758836397291
vn 0 0.5004319327419527 0.8657758836397291
vn 0 -1 0
vn 0 1 0
vn 1 9.999999999675e-7 -0.00000799999999974
vn -1 -9.999999999675e-7 0.00000799999999974
vn -9.999999999995e-7 0 1
vn 9.999999999995e-7 0 -1
vn 0 -0.7077370000902364 -0.7064760000900757
vn 0 0.7077370000902364 0.7064760000900757
vn 1 -0.000001999999999987 0.0000029999999999805005
vn -1 0.000001999999999987 -0.0000029999999999805005
vn 0 0.9978454066689849 -0.06560902673876748
vn 0 -0.9978454066689849 0.06560902673876748
vn 0 -0.865939521221738 -0.500148723467597
vn 0 0.865939521221738 0.500148723467597
vn 1 0.000009999999999495 -9.999999999494999e-7
vn -1 -0.000009999999999495 9.999999999494999e-7
vn -1 -0.000011999999999112001 0.000001999999999852
vn 1 0.000011999999999112001 -0.000001999999999852
vn 0 -0.9657841926425778 -0.2593470517313132
vn 0 0.9657841926425778 0.2593470517313132
vn 0 0.9659735481384482 -0.25864087901338584
vn 0 -0.9659735481384482 0.25864087901338584
vn -1 0.0000099999999995 0
vn 1 -0.0000099999999995 0
vn 0 -0.9999999823280005 -0.00018799999667766407
vn 0 0.9999999823280005 0.00018799999667766407
vn 1 -0.000004999999999915001 0.0000029999999999490002
vn -1 0.000004999999999915001 -0.0000029999999999490002
vn 0 -0.9659793788562206 0.2586191014301728
vn 0 0.9659793788562206 -0.2586191014301728
vn 0 0.8657586279294875 -0.5004617849203383
vn 0 -0.8657586279294875 0.5004617849203383
vn -1 9.999999999989998e-7 9.999999999989998e-7
vn 1 -9.999999999989998e-7 -9.999999999989998e-7
vn -1 0.000022999999993353 -0.000006999999997977001
vn 1 -0.000022999999993353 0.000006999999997977001
vn 0 0.7071072811865696 -0.7071062811861719
vn 0 -0.7071072811865696 0.7071062811861719
vn 0 -0.8657758836397291 0.5004319327419527
vn 0 0.8657758836397291 -0.5004319327419527
vn -1 -0.0000369999999699375 0.000015999999987
vn 1 0.0000369999999699375 -0.000015999999987
vn -1 -0.0000079999999996 0.0000059999999997
vn 1 0.0000079999999996 -0.0000059999999997
vn 0 0.5004610353820961 -0.865759061208302
vn 0 -0.5004610353820961 0.865759061208302
vn 0 -0.7071067811865476 0.7071067811865476
vn 0 0.7071067811865476 -0.7071067811865476
vn 1 -0.000009999999999455001 0.0000029999999998365003
vn -1 0.000009999999999455001 -0.0000029999999998365003
vn 1 0.0000059999999997 -0.0000079999999996
vn -1 -0.0000059999999997 0.0000079999999996
vn 1 -0.0000029999999998365003 0.000009999999999455001
vn -1 0.0000029999999998365003 -0.000009999999999455001
vn 0 -0.5004319327419527 0.8657758836397291
vn 0 0.5004319327419527 -0.8657758836397291
vn 0 0.25847100436790155 -0.9660190163247554
vn 0 -0.25847100436790155 0.9660190163247554
vn -1 -0.000003999999999806 0.000008999999999563499
vn 1 0.000003999999999806 -0.000008999999999563499
vn 0 -0.25862003454633725 0.9659791290350177
vn 0 0.25862003454633725 -0.9659791290350177
vn 0 0.01564599364616327 -0.9998775939497914
vn 0 -0.01564599364616327 0.9998775939497914
vn -1 -9.999999999494999e-7 0.000009999999999495
vn 1 9.999999999494999e-7 -0.000009999999999495
vn 0 -0.015673002679629167 0.9998771709500144
vn 0 0.015673002679629167 -0.9998771709500144
vn -1 -9.999999999014998e-7 -0.000013999999998620998
vn 1 9.999999999014998e-7 0.000013999999998620998
vn -1 0.0000029999999987250008 0.000028999999987675007
vn 1 -0.0000029999999987250008 -0.000028999999987675007
vn 0 -0.09950698634674685 -0.9950368634719964
vn 0 0.09950698634674685 0.9950368634719964
vn -1 -0.000001999999999996 0
vn 1 0.000001999999999996 0
vn 0 0.0975689769638697 0.9952287650255212
vn 0 -0.0975689769638697 -0.9952287650255212
vn 0 -0.9805820987421708 0.19610901974768902
vn 0 0.9805820987421708 -0.19610901974768902
usemtl material_0_0
f 1//1 2//2 3//1
f 2//2 1//1 4//2
f 3//3 2//4 1//3
f 4//4 1//3 2//4
f 2//5 5//5 3//5
f 3//6 5//6 2//6
f 3//1 6//7 1//1
f 1//3 6//8 3//3
f 1//6 7//6 4//6
f 4//5 7//5 1//5
f 7//9 2//9 4//9
f 4//10 2//10 7//10
f 5//5 2//5 8//5
f 8//6 2//6 5//6
f 5//5 9//5 3//5
f 3//6 9//6 5//6
f 6//7 3//1 9//7
f 9//8 3//3 6//8
f 10//11 1//11 6//11
f 6//12 1//12 10//12
f 7//6 1//6 10//6
f 10//5 1//5 7//5
f 2//9 7//9 8//9
f 8//10 7//10 2//10
f 7//13 5//13 8//13
f 8//14 5//14 7//14
f 5//5 11//5 9//5
f 9//6 11//6 5//6
f 9//7 12//15 6//7
f 6//8 12//16 9//8
f 10//17 6//17 12//17
f 12//18 6//18 10//18
f 5//13 7//13 10//13
f 10//14 7//14 5//14
f 5//5 13//5 11//5
f 11//6 13//6 5//6
f 12//15 9//7 11//15
f 11//16 9//8 12//16
f 10//6 12//6 14//6
f 14//5 12//5 10//5
f 15//19 5//10 10//10
f 10//9 5//9 15//20
f 5//5 16//5 13//5
f 13//6 16//6 5//6
f 13//21 12//15 11//15
f 11//16 12//16 13//22
f 12//15 13//21 14//21
f 14//22 13//22 12//16
f 10//6 14//6 17//6
f 17//5 14//5 10//5
f 5//10 15//19 18//19
f 18//20 15//20 5//9
f 10//23 19//23 15//23
f 15//24 19//24 10//24
f 5//25 20//25 16//25
f 16//26 20//26 5//26
f 16//27 14//21 13//21
f 13//22 14//22 16//28
f 14//21 16//27 17//27
f 17//28 16//28 14//22
f 10//6 17//6 19//6
f 19//5 17//5 10//5
f 21//29 18//19 15//19
f 15//20 18//20 21//30
f 18//31 20//31 5//31
f 5//32 20//32 18//32
f 20//33 17//27 16//27
f 16//28 17//28 20//34
f 17//27 20//33 19//33
f 19//34 20//34 17//28
f 18//19 21//29 22//29
f 22//30 21//30 18//20
f 15//35 23//35 21//35
f 21//36 23//36 15//36
f 24//37 19//33 20//33
f 20//34 19//34 24//38
f 23//39 22//29 21//29
f 21//30 22//30 23//40
f 25//41 18//41 22//41
f 22//42 18//42 25//42
f 23//35 15//35 26//35
f 26//36 15//36 23//36
f 19//33 24//37 27//37
f 27//38 24//38 19//34
f 20//43 24//43 28//43
f 28//44 24//44 20//44
f 22//29 23//39 25//39
f 25//40 23//40 22//30
f 18//41 25//41 28//41
f 28//42 25//42 18//42
f 26//45 25//39 23//39
f 23//40 25//40 26//46
f 29//47 27//37 24//37
f 24//38 27//38 29//48
f 19//6 26//6 27//6
f 27//5 26//5 19//5
f 24//49 28//49 29//49
f 29//50 28//50 24//50
f 25//39 26//45 28//45
f 28//46 26//46 25//40
f 27//37 29//47 30//47
f 30//48 29//48 27//38
f 27//6 30//6 26//6
f 26//5 30//5 27//5
f 29//51 28//51 31//51
f 31//52 28//52 29//52
f 26//45 32//53 28//45
f 28//46 32//54 26//46
f 31//55 30//47 29//47
f 29//48 30//48 31//56
f 30//57 33//57 26//57
f 26//58 33//58 30//58
f 28//59 31//59 34//59
f 34//60 31//60 28//60
f 32//53 26//45 35//53
f 35//54 26//46 32//54
f 28//59 34//59 32//59
f 32//60 34//60 28//60
f 30//47 31//55 33//55
f 33//56 31//56 30//48
f 26//61 33//61 36//61
f 36//62 33//62 26//62
f 36//63 31//55 34//63
f 34//64 31//56 36//64
f 26//6 36//6 35//6
f 35//5 36//5 26//5
f 35//53 37//65 32//53
f 32//54 37//66 35//54
f 37//67 34//67 32//67
f 32//68 34//68 37//68
f 31//55 36//63 33//55
f 33//56 36//64 31//56
f 34//63 38//69 36//63
f 36//64 38//70 34//64
f 36//6 39//6 35//6
f 35//5 39//5 36//5
f 37//65 35//53 39//65
f 39//66 35//54 37//66
f 34//67 37//67 40//67
f 40//68 37//68 34//68
f 38//69 34//63 40//69
f 40//70 34//64 38//70
f 39//6 36//6 38//6
f 38//5 36//5 39//5
f 39//65 41//71 37//65
f 37//66 41//72 39//66
f 37//73 42//73 40//73
f 40//74 42//74 37//74
f 40//69 43//75 38//69
f 38//70 43//76 40//70
f 39//6 38//6 43//6
f 43//5 38//5 39//5
f 41//71 39//65 44//71
f 44//72 39//66 41//72
f 37//77 41//77 45//77
f 45//78 41//78 37//78
f 37//79 46//79 42//79
f 42//80 46//80 37//80
f 43//75 40//69 42//75
f 42//76 40//70 43//76
f 39//6 43//6 47//6
f 47//5 43//5 39//5
f 39//6 48//6 44//6
f 44//5 48//5 39//5
f 44//71 45//81 41//71
f 41//72 45//82 44//72
f 37//83 45//83 46//83
f 46//84 45//84 37//84
f 47//85 42//75 46//85
f 46//86 42//76 47//86
f 42//75 47//85 43//75
f 43//76 47//86 42//76
f 39//6 47//6 48//6
f 48//5 47//5 39//5
f 45//81 44//71 48//81
f 48//82 44//72 45//82
f 45//87 47//87 46//87
f 46//88 47//88 45//88
f 47//87 45//87 48//87
f 48//88 45//88 47//88
