# SSTK version 0.8.0
# 9
mtllib original-9.mtl
o mesh9/mesh9-geometry#mesh9-geometry
v 0.005415 -0.824969 0.126402
v -0.005930 -0.827688 0.131259
v -0.006838 -0.824969 0.129685
v 0.005415 -0.827688 0.128219
v -0.015809 -0.824969 0.138655
v 0.005415 -0.821761 0.125764
v 0.017669 -0.824969 0.129685
v 0.005415 -0.829505 0.130938
v -0.014235 -0.827688 0.139564
v -0.016361 -0.821761 0.138336
v -0.007158 -0.821761 0.129133
v 0.017988 -0.821761 0.129133
v 0.016760 -0.827688 0.131259
v -0.004570 -0.829505 0.133614
v -0.019092 -0.824969 0.150909
v -0.019730 -0.821761 0.150909
v 0.005415 -0.754707 0.125764
v 0.017988 -0.754707 0.129133
v 0.025066 -0.827688 0.139564
v 0.026639 -0.824969 0.138655
v 0.005415 -0.830143 0.134145
v 0.015401 -0.829505 0.133614
v -0.011880 -0.829505 0.140924
v -0.017275 -0.827688 0.150909
v -0.007158 -0.754707 0.129133
v -0.019730 -0.754707 0.150909
v 0.027192 -0.754707 0.138336
v 0.027192 -0.821761 0.138336
v -0.002967 -0.830143 0.136391
v -0.015809 -0.824969 0.163163
v -0.016361 -0.821761 0.163482
v -0.016361 -0.754707 0.138336
v -0.016361 -0.754707 0.163482
v 0.028106 -0.827688 0.150909
v 0.022711 -0.829505 0.140924
v 0.029923 -0.824969 0.150909
v 0.005415 -0.830143 0.150909
v 0.013797 -0.830143 0.136391
v -0.009103 -0.830143 0.142527
v -0.014556 -0.829505 0.150909
v -0.014235 -0.827688 0.162254
v 0.030561 -0.821761 0.150909
v -0.011880 -0.829505 0.160895
v -0.006838 -0.824969 0.172133
v -0.007158 -0.821761 0.172686
v -0.007158 -0.754707 0.172686
v 0.030561 -0.754707 0.150909
v 0.025066 -0.827688 0.162254
v 0.025387 -0.829505 0.150909
v 0.019933 -0.830143 0.142527
v 0.026639 -0.824969 0.163163
v -0.011348 -0.830143 0.150909
v -0.009103 -0.830143 0.159291
v -0.004570 -0.829505 0.168205
v -0.005930 -0.827688 0.170560
v 0.027192 -0.821761 0.163482
v 0.022179 -0.830143 0.150909
v -0.002967 -0.830143 0.165427
v 0.005415 -0.824969 0.175417
v 0.005415 -0.821761 0.176055
v 0.027192 -0.754707 0.163482
v 0.016760 -0.827688 0.170560
v 0.022711 -0.829505 0.160895
v 0.017669 -0.824969 0.172133
v 0.019933 -0.830143 0.159291
v 0.005415 -0.829505 0.170880
v 0.005415 -0.830143 0.167673
v 0.005415 -0.827688 0.173600
v 0.005415 -0.754707 0.176055
v 0.017988 -0.821761 0.172686
v 0.015401 -0.829505 0.168205
v 0.013797 -0.830143 0.165427
v 0.017988 -0.754707 0.172686
vn 0 -0.3835289409975287 -0.9235288579234079
vn -0.35308675207757595 -0.7080385028456295 -0.6115645705855008
vn -0.4617648425361376 -0.383527869215293 -0.7997997272647404
vn 0 -0.7080391658758949 -0.7061731654387376
vn 0.4617648425361376 0.383527869215293 0.7997997272647404
vn 0.35308675207757595 0.7080385028456295 0.6115645705855008
vn 0 0.3835289409975287 0.9235288579234079
vn 0 0.7080391658758949 0.7061731654387376
vn -0.7998003407546079 -0.38352616340116497 -0.4617651967348731
vn 0.7998003407546079 0.38352616340116497 0.4617651967348731
vn 0 -0.09808302321757847 -0.9951782355721511
vn 0 0.09808302321757847 0.9951782355721511
vn 0.4617648425361376 -0.383527869215293 -0.7997997272647404
vn -0.4617648425361376 0.383527869215293 0.7997997272647404
vn 0 -0.9242444736121034 -0.3818011956470096
vn 0 0.9242444736121034 0.3818011956470096
vn -0.6115641616719001 -0.7080381871755839 -0.35308809334167457
vn 0.6115641616719001 0.7080381871755839 0.35308809334167457
vn -0.8618498646270978 -0.09808198459401868 -0.49758892184247017
vn 0.8618498646270978 0.09808198459401868 0.49758892184247017
vn -0.4975888730377273 -0.09808297497364173 -0.8618497800947474
vn 0.4975888730377273 0.09808297497364173 0.8618497800947474
vn 0.4975888730377273 -0.09808297497364173 -0.8618497800947474
vn -0.4975888730377273 0.09808297497364173 0.8618497800947474
vn 0.35308675207757595 -0.7080385028456295 -0.6115645705855008
vn -0.35308675207757595 0.7080385028456295 0.6115645705855008
vn -0.19089989953656805 -0.9242445136048997 -0.33064982599144177
vn 0.19089989953656805 0.9242445136048997 0.33064982599144177
vn -0.9235309230989684 -0.38352396806453576 0
vn 0.9235309230989684 0.38352396806453576 0
vn -0.9951784307904443 -0.09808104245708564 0
vn 0.9951784307904443 0.09808104245708564 0
vn 0 0 -1
vn 0 0 1
vn 0.5000001748438417 0 -0.8660253028382762
vn -0.5000001748438417 0 0.8660253028382762
vn 0.6115641616719001 -0.7080381871755839 -0.35308809334167457
vn -0.6115641616719001 0.7080381871755839 0.35308809334167457
vn 0.7998003407546079 -0.38352616340116497 -0.4617651967348731
vn -0.7998003407546079 0.38352616340116497 0.4617651967348731
vn 0 -0.9951913338962027 -0.09795003286317204
vn 0 0.9951913338962027 0.09795003286317204
vn 0.19089989953656805 -0.9242445136048997 -0.33064982599144177
vn -0.19089989953656805 0.9242445136048997 0.33064982599144177
vn -0.3306488721997719 -0.9242446427670373 -0.1909009262142291
vn 0.3306488721997719 0.9242446427670373 0.1909009262142291
vn -0.7061741667559874 -0.7080381671961525 0
vn 0.7061741667559874 0.7080381671961525 0
vn -0.5000001748438417 0 -0.8660253028382762
vn 0.5000001748438417 0 0.8660253028382762
vn -1 0 0
vn 1 0 0
vn 0.8660253028382762 0 -0.5000001748438417
vn -0.8660253028382762 0 0.5000001748438417
vn 0.8618498646270978 -0.09808198459401868 -0.49758892184247017
vn -0.8618498646270978 0.09808198459401868 0.49758892184247017
vn -0.048975017213864505 -0.995191349792405 -0.08482702981522174
vn 0.048975017213864505 0.995191349792405 0.08482702981522174
vn -0.799801007817655 -0.38352500374876514 0.46176500451352204
vn 0.799801007817655 0.38352500374876514 -0.46176500451352204
vn -0.8618499491586111 -0.09808099421410424 0.49758897064672986
vn 0.8618499491586111 0.09808099421410424 -0.49758897064672986
vn -0.8660253028382762 0 -0.5000001748438417
vn 0.8660253028382762 0 0.5000001748438417
vn -0.8660259858504344 0 0.4999989918307665
vn 0.8660259858504344 0 -0.4999989918307665
vn 0.7061741667559874 -0.7080381671961525 0
vn -0.7061741667559874 0.7080381671961525 0
vn 0.3306488721997719 -0.9242446427670373 -0.1909009262142291
vn -0.3306488721997719 0.9242446427670373 0.1909009262142291
vn 0.9235309230989684 -0.38352396806453576 0
vn -0.9235309230989684 0.38352396806453576 0
vn 0 -1 0
vn 0 1 0
vn 0.048975017213864505 -0.995191349792405 -0.08482702981522174
vn -0.048975017213864505 0.995191349792405 0.08482702981522174
vn -0.08482702981522174 -0.995191349792405 -0.048975017213864505
vn 0.08482702981522174 0.995191349792405 0.048975017213864505
vn -0.381799988541228 -0.9242449722610981 0
vn 0.381799988541228 0.9242449722610981 0
vn -0.6115650035966139 -0.7080380041639716 0.3530870020765047
vn 0.6115650035966139 0.7080380041639716 -0.3530870020765047
vn 0.9951784307904443 -0.09808104245708564 0
vn -0.9951784307904443 0.09808104245708564 0
vn -0.33064893532077616 -0.9242448192057159 0.19089996265748924
vn 0.33064893532077616 0.9242448192057159 -0.19089996265748924
vn -0.4617651967348731 -0.38352616340116497 0.7998003407546079
vn 0.4617651967348731 0.38352616340116497 -0.7998003407546079
vn -0.49758897064672986 -0.09808099421410424 0.8618499491586111
vn 0.49758897064672986 0.09808099421410424 -0.8618499491586111
vn -0.49999974183119994 0 0.8660255528382135
vn 0.49999974183119994 0 -0.8660255528382135
vn 0.6115650035966139 -0.7080380041639716 0.3530870020765047
vn -0.6115650035966139 0.7080380041639716 -0.3530870020765047
vn 0.381799988541228 -0.9242449722610981 0
vn -0.381799988541228 0.9242449722610981 0
vn 0.08482702981522174 -0.995191349792405 -0.048975017213864505
vn -0.08482702981522174 0.995191349792405 0.048975017213864505
vn 0.799801007817655 -0.38352500374876514 0.46176500451352204
vn -0.799801007817655 0.38352500374876514 -0.46176500451352204
vn -0.09795003286317204 -0.9951913338962027 0
vn 0.09795003286317204 0.9951913338962027 0
vn -0.08482702981522174 -0.995191349792405 0.048975017213864505
vn 0.08482702981522174 0.995191349792405 -0.048975017213864505
vn -0.19089996265748924 -0.9242448192057159 0.33064893532077616
vn 0.19089996265748924 0.9242448192057159 -0.33064893532077616
vn -0.35308675207757595 -0.7080385028456295 0.6115645705855008
vn 0.35308675207757595 0.7080385028456295 -0.6115645705855008
vn 0.8618499491586111 -0.09808099421410424 0.49758897064672986
vn -0.8618499491586111 0.09808099421410424 -0.49758897064672986
vn 0.09795003286317204 -0.9951913338962027 0
vn -0.09795003286317204 0.9951913338962027 0
vn -0.048975017213864505 -0.995191349792405 0.08482702981522174
vn 0.048975017213864505 0.995191349792405 -0.08482702981522174
vn 0 -0.38352602807870856 0.9235300676134858
vn 0 0.38352602807870856 -0.9235300676134858
vn 0 -0.09807995446928505 0.9951785380178286
vn 0 0.09807995446928505 -0.9951785380178286
vn 0.8660259858504344 0 0.4999989918307665
vn -0.8660259858504344 0 -0.4999989918307665
vn 0.35308675207757595 -0.7080385028456295 0.6115645705855008
vn -0.35308675207757595 0.7080385028456295 -0.6115645705855008
vn 0.33064893532077616 -0.9242448192057159 0.19089996265748924
vn -0.33064893532077616 0.9242448192057159 -0.19089996265748924
vn 0.4617651967348731 -0.38352616340116497 0.7998003407546079
vn -0.4617651967348731 0.38352616340116497 -0.7998003407546079
vn 0.08482702981522174 -0.995191349792405 0.048975017213864505
vn -0.08482702981522174 0.995191349792405 -0.048975017213864505
vn 0 -0.9242446193841288 0.3818008427694819
vn 0 0.9242446193841288 -0.3818008427694819
vn 0 -0.9951914313747762 0.09794904245690318
vn 0 0.9951914313747762 -0.09794904245690318
vn 0 -0.7080391658758949 0.7061731654387376
vn 0 0.7080391658758949 -0.7061731654387376
vn 0.49758897064672986 -0.09808099421410424 0.8618499491586111
vn -0.49758897064672986 0.09808099421410424 -0.8618499491586111
vn 0.19089996265748924 -0.9242448192057159 0.33064893532077616
vn -0.19089996265748924 0.9242448192057159 -0.33064893532077616
vn 0.048975017213864505 -0.995191349792405 0.08482702981522174
vn -0.048975017213864505 0.995191349792405 -0.08482702981522174
vn 0.49999974183119994 0 0.8660255528382135
vn -0.49999974183119994 0 -0.8660255528382135
usemtl material_0_0
f 1//1 2//2 3//3
f 2//2 1//1 4//4
f 3//5 2//6 1//7
f 4//8 1//7 2//6
f 2//2 5//9 3//3
f 3//5 5//10 2//6
f 3//3 6//11 1//1
f 1//7 6//12 3//5
f 7//13 4//4 1//1
f 1//7 4//8 7//14
f 8//15 2//2 4//4
f 4//8 2//6 8//16
f 5//9 2//2 9//17
f 9//18 2//6 5//10
f 10//19 3//3 5//9
f 5//10 3//5 10//20
f 6//11 3//3 11//21
f 11//22 3//5 6//12
f 12//23 1//1 6//11
f 6//12 1//7 12//24
f 4//4 7//13 13//25
f 13//26 7//14 4//8
f 1//1 12//23 7//13
f 7//14 12//24 1//7
f 2//2 8//15 14//27
f 14//28 8//16 2//6
f 13//25 8//15 4//4
f 4//8 8//16 13//26
f 14//27 9//17 2//2
f 2//6 9//18 14//28
f 9//17 15//29 5//9
f 5//10 15//30 9//18
f 3//3 10//19 11//21
f 11//22 10//20 3//5
f 5//9 16//31 10//19
f 10//20 16//32 5//10
f 11//21 17//33 6//11
f 6//12 17//34 11//22
f 6//11 18//35 12//23
f 12//24 18//36 6//12
f 7//13 19//37 13//25
f 13//26 19//38 7//14
f 12//23 20//39 7//13
f 7//14 20//40 12//24
f 21//41 14//27 8//15
f 8//16 14//28 21//42
f 8//15 13//25 22//43
f 22//44 13//26 8//16
f 9//17 14//27 23//45
f 23//46 14//28 9//18
f 15//29 9//17 24//47
f 24//48 9//18 15//30
f 16//31 5//9 15//29
f 15//30 5//10 16//32
f 10//19 25//49 11//21
f 11//22 25//50 10//20
f 26//51 10//19 16//31
f 16//32 10//20 26//52
f 17//33 11//21 25//49
f 25//50 11//22 17//34
f 18//35 6//11 17//33
f 17//34 6//12 18//36
f 27//53 12//23 18//35
f 18//36 12//24 27//54
f 19//37 7//13 20//39
f 20//40 7//14 19//38
f 19//37 22//43 13//25
f 13//26 22//44 19//38
f 20//39 12//23 28//55
f 28//56 12//24 20//40
f 14//27 21//41 29//57
f 29//58 21//42 14//28
f 22//43 21//41 8//15
f 8//16 21//42 22//44
f 29//57 23//45 14//27
f 14//28 23//46 29//58
f 23//45 24//47 9//17
f 9//18 24//48 23//46
f 24//47 30//59 15//29
f 15//30 30//60 24//48
f 15//29 31//61 16//31
f 16//32 31//62 15//30
f 25//49 10//19 32//63
f 32//64 10//20 25//50
f 10//19 26//51 32//63
f 32//64 26//52 10//20
f 16//31 33//65 26//51
f 26//52 33//66 16//32
f 12//23 27//53 28//55
f 28//56 27//54 12//24
f 20//39 34//67 19//37
f 19//38 34//68 20//40
f 22//43 19//37 35//69
f 35//70 19//38 22//44
f 28//55 36//71 20//39
f 20//40 36//72 28//56
f 37//73 29//57 21//41
f 21//42 29//58 37//74
f 21//41 22//43 38//75
f 38//76 22//44 21//42
f 23//45 29//57 39//77
f 39//78 29//58 23//46
f 24//47 23//45 40//79
f 40//80 23//46 24//48
f 30//59 24//47 41//81
f 41//82 24//48 30//60
f 31//61 15//29 30//59
f 30//60 15//30 31//62
f 33//65 16//31 31//61
f 31//62 16//32 33//66
f 27//53 42//83 28//55
f 28//56 42//84 27//54
f 34//67 20//39 36//71
f 36//72 20//40 34//68
f 34//67 35//69 19//37
f 19//38 35//70 34//68
f 35//69 38//75 22//43
f 22//44 38//76 35//70
f 36//71 28//55 42//83
f 42//84 28//56 36//72
f 37//73 39//77 29//57
f 29//58 39//78 37//74
f 37//73 21//41 38//75
f 38//76 21//42 37//74
f 39//77 40//79 23//45
f 23//46 40//80 39//78
f 43//85 24//47 40//79
f 40//80 24//48 43//86
f 24//47 43//85 41//81
f 41//82 43//86 24//48
f 41//81 44//87 30//59
f 30//60 44//88 41//82
f 30//59 45//89 31//61
f 31//62 45//90 30//60
f 31//61 46//91 33//65
f 33//66 46//92 31//62
f 42//83 27//53 47//52
f 47//51 27//54 42//84
f 36//71 48//93 34//67
f 34//68 48//94 36//72
f 35//69 34//67 49//95
f 49//96 34//68 35//70
f 38//75 35//69 50//97
f 50//98 35//70 38//76
f 42//83 51//99 36//71
f 36//72 51//100 42//84
f 52//101 39//77 37//73
f 37//74 39//78 52//102
f 37//73 38//75 50//97
f 50//98 38//76 37//74
f 40//79 39//77 52//101
f 52//102 39//78 40//80
f 40//79 53//103 43//85
f 43//86 53//104 40//80
f 54//105 41//81 43//85
f 43//86 41//82 54//106
f 44//87 41//81 55//107
f 55//108 41//82 44//88
f 45//89 30//59 44//87
f 44//88 30//60 45//90
f 46//91 31//61 45//89
f 45//90 31//62 46//92
f 47//52 56//109 42//83
f 42//84 56//110 47//51
f 48//93 36//71 51//99
f 51//100 36//72 48//94
f 48//93 49//95 34//67
f 34//68 49//96 48//94
f 49//95 50//97 35//69
f 35//70 50//98 49//96
f 51//99 42//83 56//109
f 56//110 42//84 51//100
f 53//103 52//101 37//73
f 37//74 52//102 53//104
f 37//73 50//97 57//111
f 57//112 50//98 37//74
f 53//103 40//79 52//101
f 52//102 40//80 53//104
f 58//113 43//85 53//103
f 53//104 43//86 58//114
f 41//81 54//105 55//107
f 55//108 54//106 41//82
f 43//85 58//113 54//105
f 54//106 58//114 43//86
f 55//107 59//115 44//87
f 44//88 59//116 55//108
f 44//87 60//117 45//89
f 45//90 60//118 44//88
f 60//117 46//91 45//89
f 45//90 46//92 60//118
f 56//109 47//52 61//119
f 61//120 47//51 56//110
f 51//99 62//121 48//93
f 48//94 62//122 51//100
f 49//95 48//93 63//123
f 63//124 48//94 49//96
f 50//97 49//95 57//111
f 57//112 49//96 50//98
f 56//109 64//125 51//99
f 51//100 64//126 56//110
f 58//113 53//103 37//73
f 37//74 53//104 58//114
f 65//127 37//73 57//111
f 57//112 37//74 65//128
f 66//129 55//107 54//105
f 54//106 55//108 66//130
f 67//131 54//105 58//113
f 58//114 54//106 67//132
f 59//115 55//107 68//133
f 68//134 55//108 59//116
f 60//117 44//87 59//115
f 59//116 44//88 60//118
f 46//91 60//117 69//34
f 69//33 60//118 46//92
f 61//119 70//135 56//109
f 56//110 70//136 61//120
f 62//121 51//99 64//125
f 64//126 51//100 62//122
f 71//137 48//93 62//121
f 62//122 48//94 71//138
f 48//93 71//137 63//123
f 63//124 71//138 48//94
f 63//123 57//111 49//95
f 49//96 57//112 63//124
f 64//125 56//109 70//135
f 70//136 56//110 64//126
f 67//131 58//113 37//73
f 37//74 58//114 67//132
f 72//139 37//73 65//127
f 65//128 37//74 72//140
f 57//111 63//123 65//127
f 65//128 63//124 57//112
f 55//107 66//129 68//133
f 68//134 66//130 55//108
f 54//105 67//131 66//129
f 66//130 67//132 54//106
f 62//121 59//115 68//133
f 68//134 59//116 62//122
f 64//125 60//117 59//115
f 59//116 60//118 64//126
f 70//135 69//34 60//117
f 60//118 69//33 70//136
f 70//135 61//119 73//141
f 73//142 61//120 70//136
f 59//115 62//121 64//125
f 64//126 62//122 59//116
f 62//121 66//129 71//137
f 71//138 66//130 62//122
f 72//139 63//123 71//137
f 71//138 63//124 72//140
f 60//117 64//125 70//135
f 70//136 64//126 60//118
f 67//131 37//73 72//139
f 72//140 37//74 67//132
f 63//123 72//139 65//127
f 65//128 72//140 63//124
f 66//129 62//121 68//133
f 68//134 62//122 66//130
f 67//131 71//137 66//129
f 66//130 71//138 67//132
f 69//34 70//135 73//141
f 73//142 70//136 69//33
f 71//137 67//131 72//139
f 72//140 67//132 71//138
