# SSTK version 0.8.0
# 18
mtllib original-18.mtl
o mesh18/mesh18-geometry#mesh18-geometry
v -0.410209 -0.762846 0.010356
v -0.410493 -0.767037 0.015772
v -0.410209 -0.767037 0.010356
v -0.410493 -0.762846 0.015772
v -0.412672 -0.762846 0.005524
v -0.413447 -0.767037 0.020321
v -0.412672 -0.767037 0.005524
v -0.413447 -0.762846 0.020321
v -0.417220 -0.767037 0.002570
v -0.418279 -0.762846 0.022783
v -0.417220 -0.762846 0.002570
v -0.418279 -0.767037 0.022783
v -0.422636 -0.767037 0.002286
v -0.423695 -0.762846 0.022499
v -0.422636 -0.762846 0.002286
v -0.423695 -0.767037 0.022499
v -0.427468 -0.767037 0.004748
v -0.428244 -0.762846 0.019545
v -0.427468 -0.762846 0.004748
v -0.428244 -0.767037 0.019545
v -0.430422 -0.762846 0.009297
v -0.430706 -0.767037 0.014713
v -0.430422 -0.767037 0.009297
v -0.430706 -0.762846 0.014713
vn 0.9781471051483741 0 -0.20791402235023881
vn 0.951056854723699 0 0.3090159527970443
vn -0.9781471051483741 0 0.20791402235023881
vn -0.951056854723699 0 -0.3090159527970443
vn 0.7431433151400222 0 -0.6691322837546384
vn -0.7431433151400222 0 0.6691322837546384
vn 0.6691312342304333 0 0.7431442601388086
vn -0.6691312342304333 0 -0.7431442601388086
vn 0.3090180557066899 0 -0.9510561714469115
vn -0.3090180557066899 0 0.9510561714469115
vn 0.20790903511739828 0 0.978148165216575
vn -0.20790903511739828 0 -0.978148165216575
vn -0.2079109486641942 0 -0.9781477584831213
vn 0.2079109486641942 0 0.9781477584831213
vn -0.6691301847050489 0 -0.7431452051359728
vn 0.6691301847050489 0 0.7431452051359728
vn -0.743146597864906 0 0.6691286379178637
vn 0.743146597864906 0 -0.6691286379178637
vn -0.9510578318848506 0 -0.309012945376868
vn 0.9510578318848506 0 0.309012945376868
vn -0.9781473085184693 0 0.20791306557807826
vn 0.9781473085184693 0 -0.20791306557807826
usemtl material_0_0
f 1//1 2//2 3//1
f 2//2 1//1 4//2
f 3//3 2//4 1//3
f 4//4 1//3 2//4
f 3//1 5//5 1//1
f 1//3 5//6 3//3
f 4//2 6//7 2//2
f 2//4 6//8 4//4
f 5//5 3//1 7//5
f 7//6 3//3 5//6
f 6//7 4//2 8//7
f 8//8 4//4 6//8
f 9//9 5//5 7//5
f 7//6 5//6 9//10
f 10//11 6//7 8//7
f 8//8 6//8 10//12
f 5//5 9//9 11//9
f 11//10 9//10 5//6
f 6//7 10//11 12//11
f 12//12 10//12 6//8
f 13//13 11//9 9//9
f 9//10 11//10 13//14
f 14//10 12//11 10//11
f 10//12 12//12 14//9
f 11//9 13//13 15//13
f 15//14 13//14 11//10
f 12//11 14//10 16//10
f 16//9 14//9 12//12
f 17//15 15//13 13//13
f 13//14 15//14 17//16
f 18//17 16//10 14//10
f 14//9 16//9 18//18
f 15//13 17//15 19//15
f 19//16 17//16 15//14
f 16//10 18//17 20//17
f 20//18 18//18 16//9
f 17//15 21//19 19//15
f 19//16 21//20 17//16
f 18//17 22//21 20//17
f 20//18 22//22 18//18
f 21//19 17//15 23//19
f 23//20 17//16 21//20
f 22//21 18//17 24//21
f 24//22 18//18 22//22
f 23//19 24//21 21//19
f 21//20 24//22 23//20
f 24//21 23//19 22//21
f 22//22 23//20 24//22
