# SSTK version 0.8.0
# 15
mtllib original-15.mtl
o mesh15/mesh15-geometry#mesh15-geometry
v -0.028112 -0.806946 -0.286167
v 0.038943 -0.790174 -0.290661
v -0.028112 -0.790174 -0.290661
v 0.038943 -0.806946 -0.286167
v 0.038943 -0.777896 -0.302939
v -0.028112 -0.777896 -0.336483
v 0.038943 -0.823718 -0.290661
v 0.038943 -0.777896 -0.336483
v -0.028112 -0.777896 -0.302939
v 0.038943 -0.773402 -0.319711
v -0.028112 -0.773402 -0.319711
v -0.028112 -0.790174 -0.348761
v -0.028112 -0.823718 -0.290661
v 0.038943 -0.790174 -0.348761
v -0.028112 -0.835995 -0.302939
v 0.038943 -0.806946 -0.353255
v -0.028112 -0.806946 -0.353255
v 0.038943 -0.835995 -0.302939
v -0.028112 -0.840489 -0.319711
v -0.028112 -0.823718 -0.348761
v 0.038943 -0.823718 -0.348761
v 0.038943 -0.840489 -0.319711
v -0.028112 -0.835995 -0.336483
v 0.038943 -0.835995 -0.336483
vn 0 0 1
vn 0 0.49999974183119994 0.8660255528382135
vn 0 -0.49999974183119994 -0.8660255528382135
vn 0 0 -1
vn 0 0.8660259858504344 0.4999989918307665
vn 0 -0.8660259858504344 -0.4999989918307665
vn -1 -9.999999999989998e-7 -9.999999999989998e-7
vn 1 9.999999999989998e-7 9.999999999989998e-7
vn 0 -0.5000001748438417 0.8660253028382762
vn 0 0.5000001748438417 -0.8660253028382762
vn 1 0 0
vn -1 0 0
vn -1 9.999999999995e-7 0
vn 1 -9.999999999995e-7 0
vn 0 1 0
vn 0 -1 0
vn -1 0.000003999999999965999 9.999999999914998e-7
vn 1 -0.000003999999999965999 -9.999999999914998e-7
vn 0 0.8660253028382762 -0.5000001748438417
vn 0 -0.8660253028382762 0.5000001748438417
vn 0 -0.8660259858504344 0.4999989918307665
vn 0 0.8660259858504344 -0.4999989918307665
vn 0 -0.5000001748438417 -0.8660253028382762
vn 0 0.5000001748438417 0.8660253028382762
vn 0 -0.8660253028382762 -0.5000001748438417
vn 0 0.8660253028382762 0.5000001748438417
usemtl material_0_0
f 1//1 2//2 3//2
f 2//2 1//1 4//1
f 3//3 2//3 1//4
f 4//4 1//4 2//3
f 5//5 3//2 2//2
f 2//3 3//3 5//6
f 3//7 6//7 1//7
f 1//8 6//8 3//8
f 1//1 7//9 4//1
f 4//4 7//10 1//4
f 8//11 2//11 4//11
f 4//12 2//12 8//12
f 3//2 5//5 9//5
f 9//6 5//6 3//3
f 10//11 5//11 2//11
f 2//12 5//12 10//12
f 6//7 3//7 11//7
f 11//8 3//8 6//8
f 12//13 1//13 6//13
f 6//14 1//14 12//14
f 7//9 1//1 13//9
f 13//10 1//4 7//10
f 14//11 4//11 7//11
f 7//12 4//12 14//12
f 2//11 8//11 10//11
f 10//12 8//12 2//12
f 4//11 14//11 8//11
f 8//12 14//12 4//12
f 5//5 11//15 9//5
f 9//6 11//16 5//6
f 11//17 3//17 9//17
f 9//18 3//18 11//18
f 11//15 5//5 10//15
f 10//16 5//6 11//16
f 11//15 8//19 6//19
f 6//20 8//20 11//16
f 1//13 12//13 13//13
f 13//14 12//14 1//14
f 6//19 14//10 12//10
f 12//9 14//9 6//20
f 15//21 7//9 13//9
f 13//10 7//10 15//22
f 7//11 16//11 14//11
f 14//12 16//12 7//12
f 8//19 11//15 10//15
f 10//16 11//16 8//20
f 14//10 6//19 8//19
f 8//20 6//20 14//9
f 17//7 13//7 12//7
f 12//8 13//8 17//8
f 14//10 17//4 12//10
f 12//9 17//1 14//9
f 7//9 15//21 18//21
f 18//22 15//22 7//10
f 13//7 17//7 15//7
f 15//8 17//8 13//8
f 16//11 7//11 18//11
f 18//12 7//12 16//12
f 17//4 14//10 16//4
f 16//1 14//9 17//1
f 19//16 18//21 15//21
f 15//22 18//22 19//15
f 20//12 15//12 17//12
f 17//11 15//11 20//11
f 18//11 21//11 16//11
f 16//12 21//12 18//12
f 16//4 20//23 17//4
f 17//1 20//24 16//1
f 18//21 19//16 22//16
f 22//15 19//15 18//22
f 15//12 20//12 19//12
f 19//11 20//11 15//11
f 21//11 18//11 22//11
f 22//12 18//12 21//12
f 20//23 16//4 21//23
f 21//24 16//1 20//24
f 23//25 22//16 19//16
f 19//15 22//15 23//26
f 20//12 23//12 19//12
f 19//11 23//11 20//11
f 21//11 22//11 24//11
f 24//12 22//12 21//12
f 24//25 20//23 21//23
f 21//24 20//24 24//26
f 22//16 23//25 24//25
f 24//26 23//26 22//15
f 20//23 24//25 23//25
f 23//26 24//26 20//24
