mtllib new-0.mtl
v 0.103166 -0.204432 0.009732
v -0.077200 -0.114249 0.010157
v 0.103166 -0.114249 0.009732
v -0.077200 -0.204432 0.010157
v 0.103591 -0.114249 0.190098
v 0.026668 -0.204432 0.076665
v -0.076775 -0.204432 0.190523
v -0.076775 -0.114249 0.190523
v 0.103591 -0.204432 0.190098
v 0.032281 -0.204432 0.080952
v 0.020136 -0.204432 0.073978
v -0.013859 -0.204432 0.100191
v 0.036658 -0.204432 0.113600
v 0.036594 -0.204432 0.086545
v 0.013132 -0.204432 0.073072
v -0.012954 -0.204432 0.093186
v -0.012921 -0.204432 0.107191
v 0.026778 -0.204432 0.123526
v 0.032371 -0.204432 0.119213
v 0.039345 -0.204432 0.107068
v 0.039312 -0.204432 0.093064
v 0.006132 -0.204432 0.074011
v -0.010267 -0.204432 0.086655
v -0.010203 -0.204432 0.113710
v 0.020259 -0.204432 0.126244
v 0.040250 -0.204432 0.100064
v -0.000387 -0.204432 0.076729
v -0.005980 -0.204432 0.081042
v -0.005890 -0.204432 0.119303
v 0.013259 -0.204432 0.127182
v -0.000277 -0.204432 0.123589
v 0.006255 -0.204432 0.126277
vn -0.002353 0.000000 -0.999997
vn 0.000000 1.000000 0.000000
vn 0.999997 0.000000 -0.002353
vn 0.000000 -1.000000 0.000000
vn -0.999997 0.000000 0.002353
vn 0.002353 0.000000 0.999997
usemtl material-0
f 1//1 2//1 3//1
f 2//1 1//1 4//1
f 2//2 5//2 3//2
f 5//3 1//3 3//3
f 1//4 6//4 4//4
f 7//5 2//5 4//5
f 5//2 2//2 8//2
f 1//3 5//3 9//3
f 6//4 1//4 10//4
f 4//4 6//4 11//4
f 2//5 7//5 8//5
f 4//4 12//4 7//4
f 7//6 5//6 8//6
f 5//6 7//6 9//6
f 9//4 13//4 1//4
f 10//4 1//4 14//4
f 4//4 11//4 15//4
f 4//4 16//4 12//4
f 17//4 7//4 12//4
f 18//4 9//4 7//4
f 13//4 9//4 19//4
f 1//4 13//4 20//4
f 14//4 1//4 21//4
f 4//4 15//4 22//4
f 4//4 23//4 16//4
f 24//4 7//4 17//4
f 19//4 9//4 18//4
f 18//4 7//4 25//4
f 1//4 20//4 26//4
f 21//4 1//4 26//4
f 4//4 22//4 27//4
f 4//4 28//4 23//4
f 29//4 7//4 24//4
f 25//4 7//4 30//4
f 4//4 27//4 28//4
f 31//4 7//4 29//4
f 30//4 7//4 32//4
f 32//4 7//4 31//4
usemtl material-1
f 3//6 2//6 1//6
f 4//6 1//6 2//6
f 3//4 5//4 2//4
f 3//5 1//5 5//5
f 4//2 6//2 1//2
f 4//3 2//3 7//3
f 8//4 2//4 5//4
f 9//5 5//5 1//5
f 10//2 1//2 6//2
f 11//2 6//2 4//2
f 8//3 7//3 2//3
f 7//2 12//2 4//2
f 8//1 5//1 7//1
f 9//1 7//1 5//1
f 1//2 13//2 9//2
f 14//2 1//2 10//2
f 15//2 11//2 4//2
f 12//2 16//2 4//2
f 12//2 7//2 17//2
f 7//2 9//2 18//2
f 19//2 9//2 13//2
f 20//2 13//2 1//2
f 21//2 1//2 14//2
f 22//2 15//2 4//2
f 16//2 23//2 4//2
f 17//2 7//2 24//2
f 18//2 9//2 19//2
f 25//2 7//2 18//2
f 26//2 20//2 1//2
f 26//2 1//2 21//2
f 27//2 22//2 4//2
f 23//2 28//2 4//2
f 24//2 7//2 29//2
f 30//2 7//2 25//2
f 28//2 27//2 4//2
f 29//2 7//2 31//2
f 32//2 7//2 30//2
f 31//2 7//2 32//2