# SSTK version 0.8.0
# 17
mtllib original-17.mtl
o mesh14/mesh14-geometry#mesh14-geometry
v 0.061964 -0.538294 0.064520
v 0.057276 -0.435123 0.056918
v 0.057276 -0.538708 0.056918
v 0.061964 -0.434708 0.064520
v 0.053869 -0.436354 0.048744
v 0.067777 -0.538708 0.071299
v 0.037137 -0.420872 0.069943
v 0.053869 -0.539939 0.048744
v 0.067777 -0.435123 0.071299
v 0.051854 -0.438360 0.040267
v 0.074525 -0.539939 0.077034
v 0.074525 -0.436354 0.077034
v 0.051854 -0.541946 0.040267
v 0.051298 -0.441076 0.031767
v 0.081985 -0.438360 0.081535
v 0.052219 -0.444412 0.023524
v 0.081985 -0.541946 0.081535
v 0.089912 -0.441076 0.084653
v 0.051298 -0.544661 0.031767
v 0.052113 -0.444396 0.023481
v 0.089912 -0.544661 0.084653
v 0.049237 -0.420872 0.086515
v 0.026071 -0.420872 0.104277
v 0.026363 -0.444396 0.015181
v 0.054587 -0.448258 0.015807
v 0.052219 -0.547997 0.023524
v 0.098045 -0.547997 0.086287
v 0.098045 -0.444412 0.086287
v 0.000320 -0.420872 0.095977
v 0.011387 -0.420872 0.061644
v 0.106116 -0.448258 0.086381
v 0.026071 -0.529092 0.104277
v 0.160785 -0.655348 -0.401864
v 0.054587 -0.551843 0.015807
v 0.106116 -0.551843 0.086381
v 0.037137 -0.529092 0.069943
v 0.000320 -0.529092 0.095977
v 0.186535 -0.655348 -0.393564
v 0.011387 -0.529092 0.061644
v 0.160785 -0.709458 -0.401864
v 0.149718 -0.709458 -0.367530
v 0.175469 -0.709458 -0.359230
v 0.186535 -0.709458 -0.393564
vn -0.8076315272623759 0 0.5896874733041579
vn -0.8898638530970785 0 0.4562261752149047
vn 0.8898638530970785 0 -0.4562261752149047
vn 0.8076315272623759 0 -0.5896874733041579
vn -0.9510549828794415 0 0.30902171370339854
vn 0.9510549828794415 0 -0.30902171370339854
vn -0.705552679802303 0 0.708657474400566
vn 0.705552679802303 0 -0.708657474400566
vn -0.41304986127659754 -0.8593023153610844 0.3016443981155017
vn 0.41304986127659754 0.8593023153610844 -0.3016443981155017
vn -0.9888670062320571 0 0.14880202950782875
vn 0.9888670062320571 0 -0.14880202950782875
vn -0.583974561787599 0 0.811771957624173
vn 0.583974561787599 0 -0.811771957624173
vn -0.9997366122545779 0 -0.022950078817725532
vn 0.9997366122545779 0 0.022950078817725532
vn -0.44288160662117476 0 0.8965801037925428
vn 0.44288160662117476 0 -0.8965801037925428
vn -0.9791666568989127 0 -0.20305826261791746
vn 0.9791666568989127 0 0.20305826261791746
vn -0.28259709495639646 0 0.9592386991370843
vn 0.28259709495639646 0 -0.9592386991370843
vn 0.9517810246538952 0 0.3067782278923671
vn -0.9517810246538952 0 -0.3067782278923671
vn 0.13301406858020245 0.9010072255116051 -0.41290826721636426
vn -0.13301406858020245 -0.9010072255116051 0.41290826721636426
vn -0.279079776464244 -0.8908748096000336 0.3584083592618502
vn 0.279079776464244 0.8908748096000336 -0.3584083592618502
vn -0.10477991046412934 0 0.9944954350639973
vn 0.10477991046412934 0 -0.9944954350639973
vn 0 1 0
vn 0 -1 0
vn -0.9560084598264831 0 -0.2933390951445028
vn 0.9560084598264831 0 0.2933390951445028
vn -0.3067782278923671 0 0.9517810246538954
vn 0.3067782278923671 0 -0.9517810246538954
vn -0.01173509461082835 0 0.9999311414064844
vn 0.01173509461082835 0 -0.9999311414064844
vn -0.11393461858995256 -0.9284766321557939 0.353482738231157
vn 0.11393461858995256 0.9284766321557939 -0.353482738231157
usemtl material_0_0
f 1//1 2//2 3//2
f 2//2 1//1 4//1
f 3//3 2//3 1//4
f 4//4 1//4 2//3
f 5//5 3//2 2//2
f 2//3 3//3 5//6
f 6//7 4//1 1//1
f 1//4 4//4 6//8
f 7//9 2//9 4//9
f 4//10 2//10 7//10
f 3//2 5//5 8//5
f 8//6 5//6 3//3
f 7//9 5//9 2//9
f 2//10 5//10 7//10
f 4//1 6//7 9//7
f 9//8 6//8 4//4
f 7//9 4//9 9//9
f 9//10 4//10 7//10
f 10//11 8//5 5//5
f 5//6 8//6 10//12
f 7//9 10//9 5//9
f 5//10 10//10 7//10
f 11//13 9//7 6//7
f 6//8 9//8 11//14
f 7//9 9//9 12//9
f 12//10 9//10 7//10
f 8//5 10//11 13//11
f 13//12 10//12 8//6
f 7//9 14//9 10//9
f 10//10 14//10 7//10
f 9//7 11//13 12//13
f 12//14 11//14 9//8
f 7//9 12//9 15//9
f 15//10 12//10 7//10
f 14//15 13//11 10//11
f 10//12 13//12 14//16
f 7//9 16//9 14//9
f 14//10 16//10 7//10
f 17//17 12//13 11//13
f 11//14 12//14 17//18
f 12//13 17//17 15//17
f 15//18 17//18 12//14
f 7//9 15//9 18//9
f 18//10 15//10 7//10
f 13//11 14//15 19//15
f 19//16 14//16 13//12
f 16//9 7//9 20//9
f 20//10 7//10 16//10
f 16//19 19//15 14//15
f 14//16 19//16 16//20
f 21//21 15//17 17//17
f 17//18 15//18 21//22
f 15//17 21//21 18//21
f 18//22 21//22 15//18
f 18//9 22//9 7//9
f 7//10 22//10 18//10
f 23//23 20//23 7//23
f 7//24 20//24 23//24
f 20//25 24//25 7//25
f 7//26 24//26 20//26
f 16//27 20//27 25//27
f 25//28 20//28 16//28
f 19//15 16//19 26//19
f 26//20 16//20 19//16
f 27//29 18//21 21//21
f 21//22 18//22 27//30
f 28//9 22//9 18//9
f 18//10 22//10 28//10
f 23//23 25//23 20//23
f 20//24 25//24 23//24
f 7//31 29//31 23//31
f 23//32 29//32 7//32
f 25//25 24//25 20//25
f 20//26 24//26 25//26
f 7//25 24//25 30//25
f 30//26 24//26 7//26
f 25//33 26//19 16//19
f 16//20 26//20 25//34
f 18//21 27//29 28//29
f 28//30 27//30 18//22
f 22//9 28//9 31//9
f 31//10 28//10 22//10
f 32//23 25//23 23//23
f 23//24 25//24 32//24
f 29//31 7//31 30//31
f 30//32 7//32 29//32
f 29//35 32//35 23//35
f 23//36 32//36 29//36
f 25//25 33//25 24//25
f 24//26 33//26 25//26
f 24//24 29//24 30//24
f 30//23 29//23 24//23
f 26//19 25//33 34//33
f 34//34 25//34 26//20
f 35//37 28//29 27//29
f 27//30 28//30 35//38
f 28//29 35//37 31//37
f 31//38 35//38 28//30
f 36//23 25//23 32//23
f 32//24 25//24 36//24
f 32//35 29//35 37//35
f 37//36 29//36 32//36
f 33//25 25//25 38//25
f 38//26 25//26 33//26
f 33//24 39//24 24//24
f 24//23 39//23 33//23
f 24//24 37//24 29//24
f 29//23 37//23 24//23
f 34//23 38//23 25//23
f 25//24 38//24 34//24
f 25//23 36//23 34//23
f 34//24 36//24 25//24
f 37//32 36//32 32//32
f 32//31 36//31 37//31
f 38//36 40//36 33//36
f 33//35 40//35 38//35
f 33//24 41//24 39//24
f 39//23 41//23 33//23
f 24//24 39//24 37//24
f 37//23 39//23 24//23
f 42//23 38//23 34//23
f 34//24 38//24 42//24
f 39//39 34//39 36//39
f 36//40 34//40 39//40
f 36//32 37//32 39//32
f 39//31 37//31 36//31
f 40//36 38//36 43//36
f 43//35 38//35 40//35
f 41//24 33//24 40//24
f 40//23 33//23 41//23
f 41//39 34//39 39//39
f 39//40 34//40 41//40
f 38//23 42//23 43//23
f 43//24 42//24 38//24
f 34//39 41//39 42//39
f 42//40 41//40 34//40
f 42//32 40//32 43//32
f 43//31 40//31 42//31
f 40//32 42//32 41//32
f 41//31 42//31 40//31
