# SSTK version 0.8.0
# 28
mtllib original-28.mtl
o mesh8/mesh8-geometry#mesh8-geometry
v -0.423594 -0.767600 -0.254600
v -0.420729 -0.781605 -0.252529
v -0.425088 -0.781605 -0.255681
v -0.419383 -0.768992 -0.251556
v -0.462074 -0.781605 -0.204522
v -0.415438 -0.757240 -0.248704
v -0.456369 -0.768992 -0.200397
v -0.457714 -0.781605 -0.201370
v -0.460580 -0.767600 -0.203442
v -0.419214 -0.754550 -0.251433
v -0.452423 -0.757240 -0.197545
v -0.409162 -0.747147 -0.244167
v -0.446148 -0.747147 -0.193008
v -0.456199 -0.754550 -0.200274
v -0.412245 -0.743343 -0.246395
v -0.400983 -0.739403 -0.238254
v -0.437969 -0.739403 -0.187095
v -0.449231 -0.743343 -0.195236
v -0.403163 -0.734744 -0.239830
v -0.440149 -0.734744 -0.188671
v -0.391459 -0.734535 -0.231368
v -0.392587 -0.729338 -0.232184
v -0.428444 -0.734535 -0.180209
v -0.429573 -0.729338 -0.181025
v -0.381238 -0.732875 -0.223979
v -0.418224 -0.732875 -0.172820
v -0.418224 -0.727495 -0.172820
v -0.369889 -0.729338 -0.215774
v -0.381238 -0.727495 -0.223979
v -0.406874 -0.729338 -0.164615
v -0.371017 -0.734535 -0.216589
v -0.359313 -0.734744 -0.208128
v -0.408003 -0.734535 -0.165430
v -0.361493 -0.739403 -0.209704
v -0.396298 -0.734744 -0.156969
v -0.350231 -0.743343 -0.201562
v -0.398478 -0.739403 -0.158545
v -0.353314 -0.747147 -0.203791
v -0.387216 -0.743343 -0.150403
v -0.343262 -0.754550 -0.196524
v -0.390299 -0.747147 -0.152632
v -0.347038 -0.757240 -0.199254
v -0.384024 -0.757240 -0.148095
v -0.380248 -0.754550 -0.145365
v -0.338882 -0.767600 -0.193357
v -0.343093 -0.768992 -0.196402
v -0.375867 -0.767600 -0.142198
v -0.337387 -0.781605 -0.192277
v -0.380078 -0.768992 -0.145243
v -0.341747 -0.781605 -0.195429
v -0.378733 -0.781605 -0.144270
v -0.374373 -0.781605 -0.141118
vn 0.5858802188142754 0 -0.8103976611529283
vn -0.5858802188142754 0 0.8103976611529283
vn 0 -1 0
vn 0 1 0
vn -0.8034646220396129 0.1305259558342271 -0.5808679505570122
vn -0.7827840610967169 0.2588189040686542 -0.5659168566049538
vn 0.8034646220396129 -0.1305259558342271 0.5808679505570122
vn 0.7827840610967169 -0.2588189040686542 0.5659168566049538
vn 0.7018249202628736 -0.5000000886183593 0.5073871230920668
vn -0.7018249202628736 0.5000000886183593 -0.5073871230920668
vn 0.5730377475395448 -0.7071066998923855 0.4142799233152684
vn -0.5730377475395448 0.7071066998923855 -0.4142799233152684
vn 0.4051990421464379 -0.8660252530559388 0.29294026236249343
vn -0.4051990421464379 0.8660252530559388 -0.29294026236249343
vn 0.20974632451394237 -0.9659258343232601 0.15163694121092608
vn -0.20974632451394237 0.9659258343232601 -0.15163694121092608
vn -0.20974632451394237 -0.9659258343232601 -0.15163694121092608
vn 0.20974632451394237 0.9659258343232601 0.15163694121092608
vn 0.4051990421464379 0.8660252530559388 0.29294026236249343
vn -0.4051990421464379 -0.8660252530559388 -0.29294026236249343
vn 0.5730377475395448 0.7071066998923855 0.4142799233152684
vn -0.5730377475395448 -0.7071066998923855 -0.4142799233152684
vn 0.7018249202628736 0.5000000886183593 0.5073871230920668
vn -0.7018249202628736 -0.5000000886183593 -0.5073871230920668
vn 0.7827840610967169 0.2588189040686542 0.5659168566049538
vn -0.7827840610967169 -0.2588189040686542 -0.5659168566049538
vn 0.8034646220396129 0.1305259558342271 0.5808679505570122
vn -0.8034646220396129 -0.1305259558342271 -0.5808679505570122
usemtl material_0_0
f 1//1 2//1 3//1
f 2//1 1//1 4//1
f 3//2 2//2 1//2
f 4//2 1//2 2//2
f 2//3 5//3 3//3
f 3//4 5//4 2//4
f 5//5 1//6 3//5
f 3//7 1//8 5//7
f 4//1 1//1 6//1
f 6//2 1//2 4//2
f 7//8 2//7 4//8
f 4//6 2//5 7//6
f 5//3 2//3 8//3
f 8//4 2//4 5//4
f 1//6 5//5 9//6
f 9//8 5//7 1//8
f 6//1 1//1 10//1
f 10//2 1//2 6//2
f 11//9 4//8 6//9
f 6//10 4//6 11//10
f 2//7 7//8 8//7
f 8//5 7//6 2//5
f 4//8 11//9 7//8
f 7//6 11//10 4//6
f 7//2 5//2 8//2
f 8//1 5//1 7//1
f 5//2 7//2 9//2
f 9//1 7//1 5//1
f 9//6 10//10 1//6
f 1//8 10//9 9//8
f 6//1 10//1 12//1
f 12//2 10//2 6//2
f 6//9 13//11 11//9
f 11//10 13//12 6//10
f 9//2 7//2 11//2
f 11//1 7//1 9//1
f 10//10 9//6 14//10
f 14//9 9//8 10//9
f 12//1 10//1 15//1
f 15//2 10//2 12//2
f 13//11 6//9 12//11
f 12//12 6//10 13//12
f 14//2 11//2 13//2
f 13//1 11//1 14//1
f 9//2 11//2 14//2
f 14//1 11//1 9//1
f 14//10 15//12 10//10
f 10//9 15//11 14//9
f 12//1 15//1 16//1
f 16//2 15//2 12//2
f 12//11 17//13 13//11
f 13//12 17//14 12//12
f 14//2 13//2 18//2
f 18//1 13//1 14//1
f 15//12 14//10 18//12
f 18//11 14//9 15//11
f 16//1 15//1 19//1
f 19//2 15//2 16//2
f 17//13 12//11 16//13
f 16//14 12//12 17//14
f 18//2 13//2 17//2
f 17//1 13//1 18//1
f 20//14 15//12 18//12
f 18//11 15//11 20//13
f 15//12 20//14 19//14
f 19//13 20//13 15//11
f 16//1 19//1 21//1
f 21//2 19//2 16//2
f 21//15 17//13 16//13
f 16//14 17//14 21//16
f 18//2 17//2 20//2
f 20//1 17//1 18//1
f 20//14 22//16 19//14
f 19//13 22//15 20//13
f 21//1 19//1 22//1
f 22//2 19//2 21//2
f 17//13 21//15 23//15
f 23//16 21//16 17//14
f 20//2 17//2 23//2
f 23//1 17//1 20//1
f 22//16 20//14 24//16
f 24//15 20//13 22//15
f 21//1 22//1 25//1
f 25//2 22//2 21//2
f 21//15 26//3 23//15
f 23//16 26//4 21//16
f 20//2 23//2 24//2
f 24//1 23//1 20//1
f 27//4 22//16 24//16
f 24//15 22//15 27//3
f 28//1 25//1 22//1
f 22//2 25//2 28//2
f 26//3 21//15 25//3
f 25//4 21//16 26//4
f 24//2 23//2 26//2
f 26//1 23//1 24//1
f 22//16 27//4 29//4
f 29//3 27//3 22//15
f 24//2 30//2 27//2
f 27//1 30//1 24//1
f 28//1 31//1 25//1
f 25//2 31//2 28//2
f 28//1 22//1 29//1
f 29//2 22//2 28//2
f 31//17 26//3 25//3
f 25//4 26//4 31//18
f 26//2 30//2 24//2
f 24//1 30//1 26//1
f 27//4 28//18 29//4
f 29//3 28//17 27//3
f 28//18 27//4 30//18
f 30//17 27//3 28//17
f 32//1 31//1 28//1
f 28//2 31//2 32//2
f 26//3 31//17 33//17
f 33//18 31//18 26//4
f 33//2 30//2 26//2
f 26//1 30//1 33//1
f 30//18 32//19 28//18
f 28//17 32//20 30//17
f 32//1 34//1 31//1
f 31//2 34//2 32//2
f 34//20 33//17 31//17
f 31//18 33//18 34//19
f 33//2 35//2 30//2
f 30//1 35//1 33//1
f 32//19 30//18 35//19
f 35//20 30//17 32//20
f 36//1 34//1 32//1
f 32//2 34//2 36//2
f 33//17 34//20 37//20
f 37//19 34//19 33//18
f 37//2 35//2 33//2
f 33//1 35//1 37//1
f 35//19 36//21 32//19
f 32//20 36//22 35//20
f 36//1 38//1 34//1
f 34//2 38//2 36//2
f 38//22 37//20 34//20
f 34//19 37//19 38//21
f 37//2 39//2 35//2
f 35//1 39//1 37//1
f 36//21 35//19 39//21
f 39//22 35//20 36//22
f 40//1 38//1 36//1
f 36//2 38//2 40//2
f 37//20 38//22 41//22
f 41//21 38//21 37//19
f 41//2 39//2 37//2
f 37//1 39//1 41//1
f 39//21 40//23 36//21
f 36//22 40//24 39//22
f 40//1 42//1 38//1
f 38//2 42//2 40//2
f 38//22 43//24 41//22
f 41//21 43//23 38//21
f 41//2 44//2 39//2
f 39//1 44//1 41//1
f 40//23 39//21 44//23
f 44//24 39//22 40//24
f 45//1 42//1 40//1
f 40//2 42//2 45//2
f 43//24 38//22 42//24
f 42//23 38//21 43//23
f 43//2 44//2 41//2
f 41//1 44//1 43//1
f 44//23 45//25 40//23
f 40//24 45//26 44//24
f 45//1 46//1 42//1
f 42//2 46//2 45//2
f 46//26 43//24 42//24
f 42//23 43//23 46//25
f 43//2 47//2 44//2
f 44//1 47//1 43//1
f 45//25 44//23 47//25
f 47//26 44//24 45//26
f 48//1 46//1 45//1
f 45//2 46//2 48//2
f 43//24 46//26 49//26
f 49//25 46//25 43//23
f 49//2 47//2 43//2
f 43//1 47//1 49//1
f 47//25 48//27 45//25
f 45//26 48//28 47//26
f 46//1 48//1 50//1
f 50//2 48//2 46//2
f 46//26 51//28 49//26
f 49//25 51//27 46//25
f 49//2 52//2 47//2
f 47//1 52//1 49//1
f 48//27 47//25 52//27
f 52//28 47//26 48//28
f 48//3 51//3 50//3
f 50//4 51//4 48//4
f 51//28 46//26 50//28
f 50//27 46//25 51//27
f 52//2 49//2 51//2
f 51//1 49//1 52//1
f 51//3 48//3 52//3
f 52//4 48//4 51//4
