mtllib new-8.mtl
v -0.328118 -0.700558 -0.391877
v -0.314164 -0.700558 -0.402014
v -0.325467 -0.727055 -0.383032
v -0.325939 -0.700558 -0.382800
v -0.323241 -0.700558 -0.399835
v -0.306206 -0.700558 -0.397137
v -0.306574 -0.727057 -0.396758
v -0.308904 -0.700558 -0.380102
v -0.317981 -0.700558 -0.377923
v -0.317952 -0.736626 -0.377996
v -0.304027 -0.700558 -0.388060
v -0.304102 -0.736626 -0.388057
v -0.308942 -0.743082 -0.380141
vn -0.878854 -0.017044 0.476786
vn 0.878854 0.017044 -0.476786
vn 0.725106 -0.017110 -0.688424
vn -0.725106 0.017110 0.688424
vn -0.727484 -0.013590 0.685990
vn 0.727484 0.013590 -0.685990
vn 0.000000 1.000000 0.000000
vn 0.000000 -1.000000 0.000000
vn 0.877177 -0.013635 -0.479974
vn -0.877177 0.013635 0.479974
vn -0.540619 -0.009443 0.841215
vn 0.540619 0.009443 -0.841215
vn 0.405951 0.315763 0.857612
vn -0.405951 -0.315763 -0.857612
vn 0.967034 -0.009450 -0.254474
vn -0.967034 0.009450 0.254474
vn 0.690093 0.315730 0.651219
vn -0.690093 -0.315730 -0.651219
vn 0.961327 -0.002032 -0.275402
vn -0.961327 0.002032 0.275402
vn 0.233445 -0.001790 0.972368
vn 0.587627 -0.001583 0.809130
vn -0.587627 0.001583 -0.809130
vn -0.233445 0.001790 -0.972368
vn 0.852639 -0.001717 0.522498
vn -0.852639 0.001717 -0.522498
vn 0.570215 0.241706 0.785132
vn -0.570215 -0.241706 -0.785132
usemtl material-0
f 4//7 5//7 1//7
f 1//8 5//8 4//8
f 5//7 9//7 2//7
f 2//8 9//8 5//8
f 4//1 3//5 9//11
f 9//12 3//6 4//2
f 5//7 4//7 9//7
f 9//8 4//8 5//8
f 6//3 11//15 7//9
f 7//10 11//16 6//4
f 6//7 8//7 11//7
f 11//8 8//8 6//8
f 7//9 11//15 12//19
f 12//20 11//16 7//10
f 9//21 10//13 8//22
f 8//23 10//14 9//24
f 11//25 8//22 12//17
f 12//18 8//23 11//26
f 8//22 10//13 13//27
f 13//28 10//14 8//23
f 12//17 8//22 13//27
f 13//28 8//23 12//18