mtllib new-6.mtl
v 0.314682 -0.719060 -0.399835
v 0.305631 -0.720930 -0.401752
v 0.319303 -0.720930 -0.391820
v 0.305605 -0.700558 -0.402014
v 0.319558 -0.700558 -0.391877
v 0.314682 -0.700558 -0.399835
v 0.297647 -0.700558 -0.397137
v 0.317379 -0.700558 -0.382800
v 0.316906 -0.727057 -0.383034
v 0.309421 -0.700558 -0.377923
v 0.300344 -0.700558 -0.380102
v 0.295468 -0.700558 -0.388060
v 0.309394 -0.736626 -0.377993
vn -0.028274 -0.008508 -0.999564
vn 0.587763 -0.006660 -0.809006
vn -0.302855 -0.015415 -0.952912
vn 0.302855 0.015415 0.952912
vn -0.587763 0.006660 0.809006
vn 0.028274 0.008508 0.999564
vn 0.959374 -0.008490 -0.282008
vn 0.999861 -0.015439 -0.006339
vn -0.999861 0.015439 0.006339
vn -0.959374 0.008490 0.282008
vn 0.587785 0.000000 -0.809017
vn -0.587785 0.000000 0.809017
vn 0.878801 -0.017110 0.476882
vn -0.878801 0.017110 -0.476882
vn 0.000000 1.000000 0.000000
vn 0.000000 -1.000000 0.000000
vn 0.727545 -0.013635 0.685924
vn -0.727545 0.013635 -0.685924
vn 0.540849 -0.009450 0.841067
vn -0.540849 0.009450 -0.841067
vn -0.406096 0.315730 0.857555
vn 0.406096 -0.315730 -0.857555
vn -0.587942 -0.001583 0.808902
vn -0.233445 -0.001717 0.972369
vn 0.233445 0.001717 -0.972369
vn 0.587942 0.001583 -0.808902
usemtl material-0
f 4//1 1//2 2//3
f 2//4 1//5 4//6
f 6//11 5//7 1//2
f 1//5 5//10 6//12
f 5//7 8//13 3//8
f 3//9 8//14 5//10
f 4//15 10//15 6//15
f 6//16 10//16 4//16
f 7//15 11//15 4//15
f 4//16 11//16 7//16
f 6//15 8//15 5//15
f 5//16 8//16 6//16
f 3//8 8//13 9//17
f 9//18 8//14 3//9
f 11//15 7//15 12//15
f 12//16 7//16 11//16
f 10//19 9//17 8//13
f 8//14 9//18 10//20
f 11//23 13//21 10//24
f 10//25 13//22 11//26