mtllib new-4.mtl
v 0.489403 -0.736626 0.208586
v 0.488613 -0.700558 0.199327
v 0.496519 -0.727057 0.214172
v 0.489344 -0.700558 0.208633
v 0.494675 -0.700558 0.192229
v 0.503735 -0.727055 0.191963
v 0.505616 -0.720930 0.213736
v 0.496442 -0.700558 0.214695
v 0.503979 -0.700558 0.191498
v 0.510838 -0.720930 0.197665
v 0.505748 -0.700558 0.213962
v 0.511810 -0.719060 0.206866
v 0.511077 -0.700558 0.197560
v 0.511810 -0.700558 0.206866
vn -0.941074 0.315730 -0.121221
vn 0.941074 -0.315730 0.121221
vn -0.950995 -0.001583 -0.309202
vn 0.950995 0.001583 0.309202
vn -0.996916 -0.001717 0.078459
vn 0.996916 0.001717 -0.078459
vn -0.632771 -0.009450 0.774282
vn -0.615853 -0.002032 0.787859
vn -0.427529 -0.013635 0.903899
vn 0.427529 0.013635 -0.903899
vn 0.615853 0.002032 -0.787859
vn 0.632771 0.009450 -0.774282
vn 0.000000 1.000000 0.000000
vn 0.000000 -1.000000 0.000000
vn 0.185332 -0.013590 -0.982582
vn -0.185332 0.013590 0.982582
vn -0.181978 -0.017110 0.983154
vn 0.181978 0.017110 -0.983154
vn 0.430760 -0.017044 -0.902306
vn -0.430760 0.017044 0.902306
vn 0.315003 -0.015439 0.948965
vn -0.315003 0.015439 -0.948965
vn 0.812686 -0.015415 -0.582498
vn -0.812686 0.015415 0.582498
vn 0.564669 -0.008490 0.825274
vn -0.564669 0.008490 -0.825274
vn 0.941905 -0.008508 -0.335772
vn -0.941905 0.008508 0.335772
vn 0.951039 -0.006660 0.308999
vn -0.951039 0.006660 -0.308999
vn 0.951057 0.000000 0.309017
vn -0.951057 0.000000 -0.309017
usemtl material-0
f 2//3 1//1 4//5
f 4//6 1//2 2//4
f 4//7 1//8 3//9
f 3//10 1//11 4//12
f 4//13 5//13 2//13
f 2//14 5//14 4//14
f 4//7 3//9 8//17
f 8//18 3//10 4//12
f 8//17 3//9 7//21
f 7//22 3//10 8//18
f 5//13 8//13 9//13
f 9//14 8//14 5//14
f 9//19 10//23 6//15
f 6//16 10//24 9//20
f 8//17 7//21 11//25
f 11//26 7//22 8//18
f 9//13 8//13 11//13
f 11//14 8//14 9//14
f 12//29 11//25 7//21
f 7//22 11//26 12//30
f 9//13 11//13 13//13
f 13//14 11//14 9//14
f 14//31 11//25 12//29
f 12//30 11//26 14//32
f 13//27 14//31 12//29
f 12//30 14//32 13//28