mtllib new-16.mtl
v 0.350195 -0.131498 0.195831
v 0.289217 -0.280984 0.087594
v 0.216043 -0.280984 0.087594
v 0.386782 -0.131498 0.195831
v 0.216043 -0.280984 0.097350
v 0.350195 -0.118885 0.214585
v 0.386782 -0.118885 0.214585
v 0.289217 -0.280984 0.097350
vn 0.000000 0.586470 -0.809971
vn 0.000000 -0.586470 0.809971
vn 0.000000 -1.000000 0.000000
vn 0.000000 1.000000 0.000000
vn -0.428565 0.749710 -0.504249
vn 0.428565 -0.749710 0.504249
vn 0.546288 -0.695017 0.467463
vn -0.546288 0.695017 -0.467463
vn -0.770394 0.637568 0.000000
vn 0.770394 -0.637568 0.000000
vn 0.856781 -0.515681 0.000000
vn -0.856781 0.515681 0.000000
vn 0.000000 -0.586024 0.810293
vn 0.000000 0.586024 -0.810293
usemtl material-0
f 1//1 2//1 3//1
f 2//1 1//1 4//1
f 3//2 2//2 1//2
f 4//2 1//2 2//2
f 2//3 5//3 3//3
f 3//4 5//4 2//4
f 1//5 3//5 6//5
f 6//6 3//6 1//6
f 7//7 2//7 4//7
f 4//8 2//8 7//8
f 5//3 2//3 8//3
f 8//4 2//4 5//4
f 3//9 5//9 6//9
f 6//10 5//10 3//10
f 2//11 7//11 8//11
f 8//12 7//12 2//12
f 7//13 5//13 8//13
f 8//14 5//14 7//14
f 5//13 7//13 6//13
f 6//14 7//14 5//14