mtllib new-5.mtl
v 0.476701 -0.753764 0.225379
v 0.495279 -0.775358 0.171573
v 0.477693 -0.775358 0.225701
v 0.494289 -0.753764 0.171251
v 0.488666 -0.743082 0.199337
v 0.489403 -0.736626 0.208586
v 0.494694 -0.736626 0.192306
v 0.484980 -0.733974 0.228068
v 0.488613 -0.700558 0.199327
v 0.502568 -0.733974 0.173941
v 0.496519 -0.727057 0.214172
v 0.489344 -0.700558 0.208633
v 0.494675 -0.700558 0.192229
v 0.503735 -0.727055 0.191963
v 0.500787 -0.720149 0.233205
v 0.518375 -0.720149 0.179077
v 0.505616 -0.720930 0.213736
v 0.496442 -0.700558 0.214695
v 0.503979 -0.700558 0.191498
v 0.510838 -0.720930 0.197665
v 0.520801 -0.715193 0.239708
v 0.538389 -0.715193 0.185580
v 0.505748 -0.700558 0.213962
v 0.511810 -0.719060 0.206866
v 0.511077 -0.700558 0.197560
v 0.511810 -0.700558 0.206866
v 0.540815 -0.720149 0.246210
v 0.558402 -0.720149 0.192083
v 0.556622 -0.733974 0.251346
v 0.574208 -0.733974 0.197218
v 0.582486 -0.753764 0.199908
v 0.564900 -0.753764 0.254035
v 0.563908 -0.775358 0.253713
v 0.581496 -0.775358 0.199587
vn -0.920848 0.274735 -0.276695
vn -0.949952 -0.048183 -0.308658
vn -0.907602 0.274789 -0.317411
vn 0.949952 0.048183 0.308658
vn 0.920848 -0.274735 0.276695
vn 0.907602 -0.274789 0.317411
vn -0.922803 0.241706 -0.300021
vn 0.922803 -0.241706 0.300021
vn -0.941074 0.315730 -0.121221
vn 0.941074 -0.315730 0.121221
vn -0.832512 0.315763 -0.455211
vn 0.832512 -0.315763 0.455211
vn -0.750002 0.624357 -0.218349
vn 0.750002 -0.624357 0.218349
vn -0.950995 -0.001583 -0.309202
vn 0.950995 0.001583 0.309202
vn -0.735148 0.624310 -0.264187
vn 0.735148 -0.624310 0.264187
vn -0.630883 0.752980 -0.187104
vn 0.630883 -0.752980 0.187104
vn -0.760405 -0.001790 -0.649447
vn 0.760405 0.001790 0.649447
vn -0.620377 0.752973 -0.219462
vn 0.620377 -0.752973 0.219462
vn -0.474548 0.869627 -0.136208
vn 0.474548 -0.869627 0.136208
vn 0.000000 1.000000 0.000000
vn 0.000000 -1.000000 0.000000
vn -0.057084 -0.009443 -0.998325
vn 0.185332 -0.013590 -0.982582
vn -0.035690 -0.002117 -0.999361
vn 0.035690 0.002117 0.999361
vn -0.185332 0.013590 0.982582
vn 0.057084 0.009443 0.998325
vn -0.463932 0.869652 -0.168739
vn 0.463932 -0.869652 0.168739
vn -0.366128 0.925468 -0.097259
vn 0.366128 -0.925468 0.097259
vn 0.430760 -0.017044 -0.902306
vn -0.430760 0.017044 0.902306
vn -0.353342 0.925481 -0.136506
vn 0.353342 -0.925481 0.136506
vn -0.128086 0.991373 -0.027802
vn 0.128086 -0.991373 0.027802
vn 0.812686 -0.015415 -0.582498
vn -0.812686 0.015415 0.582498
vn -0.119974 0.991372 -0.052800
vn 0.119974 -0.991372 0.052800
vn -0.259820 0.961959 -0.084430
vn 0.259820 -0.961959 0.084430
vn 0.941905 -0.008508 -0.335772
vn -0.941905 0.008508 0.335772
vn 0.951039 -0.006660 0.308999
vn -0.951039 0.006660 -0.308999
vn 0.424410 0.894908 0.137899
vn -0.424410 -0.894908 -0.137899
vn 0.759615 0.601720 0.246814
vn -0.759615 -0.601720 -0.246814
vn 0.935162 0.182061 0.303852
vn -0.935162 -0.182061 -0.303852
vn 0.949952 -0.048183 0.308658
vn -0.949952 0.048183 -0.308658
usemtl material-0
f 1//1 2//2 3//2
f 2//2 1//1 4//3
f 3//4 2//4 1//5
f 4//6 1//5 2//4
f 4//3 1//1 5//7
f 5//8 1//5 4//6
f 5//7 1//1 6//9
f 6//10 1//5 5//8
f 4//3 5//7 7//11
f 7//12 5//8 4//6
f 6//9 1//1 8//13
f 8//14 1//5 6//10
f 9//15 5//7 6//9
f 6//10 5//8 9//16
f 7//11 5//7 9//15
f 9//16 5//8 7//12
f 4//3 7//11 10//17
f 10//18 7//12 4//6
f 6//9 8//13 11//19
f 11//20 8//14 6//10
f 13//21 7//11 9//15
f 9//16 7//12 13//22
f 10//17 7//11 14//23
f 14//24 7//12 10//18
f 15//25 11//19 8//13
f 8//14 11//20 15//26
f 13//29 14//30 7//31
f 7//32 14//33 13//34
f 16//35 10//17 14//23
f 14//24 10//18 16//36
f 17//37 11//19 15//25
f 15//26 11//20 17//38
f 13//27 12//27 18//27
f 18//28 12//28 13//28
f 19//39 14//30 13//29
f 13//34 14//33 19//40
f 16//35 14//23 20//41
f 20//42 14//24 16//36
f 21//43 17//37 15//25
f 15//26 17//38 21//44
f 22//47 16//35 20//41
f 20//42 16//36 22//48
f 21//43 24//49 17//37
f 17//38 24//50 21//44
f 25//51 20//45 19//39
f 19//40 20//46 25//52
f 22//47 20//41 24//49
f 24//50 20//42 22//48
f 22//47 24//49 21//43
f 21//44 24//50 22//48
f 25//51 24//53 20//45
f 20//46 24//54 25//52
f 27//55 22//47 21//43
f 21//44 22//48 27//56
f 25//27 23//27 26//27
f 26//28 23//28 25//28
f 22//47 27//55 28//55
f 28//56 27//56 22//48
f 29//57 28//55 27//55
f 27//56 28//56 29//58
f 28//55 29//57 30//57
f 30//58 29//58 28//56
f 29//57 31//59 30//57
f 30//58 31//60 29//58
f 31//59 29//57 32//59
f 32//60 29//58 31//60
f 33//61 31//59 32//59
f 32//60 31//60 33//62
f 31//59 33//61 34//61
f 34//62 33//62 31//60