mtllib new-20.mtl
v -0.429501 0.205679 -0.231486
v -0.429501 0.114423 -0.235262
v -0.445503 0.108749 -0.246736
v -0.445502 0.108609 -0.224266
v -0.429501 0.092399 -0.236179
v -0.445341 0.097739 -0.247191
v -0.445338 0.097599 -0.224730
v -0.429501 0.015404 -0.239387
v -0.379122 0.108289 -0.238478
v -0.379122 0.098533 -0.221580
v -0.379122 0.098533 -0.238478
v -0.379122 0.113167 -0.235721
v -0.379122 0.093654 -0.235721
v -0.379122 0.108289 -0.221580
vn 0.555120 0.136295 -0.820527
vn -0.555120 -0.136295 0.820527
vn 0.608225 0.032931 -0.793081
vn -0.608225 -0.032931 0.793081
vn 0.608050 -0.036034 -0.793081
vn -0.608050 0.036034 0.793081
vn 0.003819 0.969506 -0.245038
vn 0.082964 -0.858405 -0.506220
vn 0.120151 0.455168 -0.882262
vn -0.120151 -0.455168 0.882262
vn -0.082964 0.858405 0.506220
vn -0.003819 -0.969506 0.245038
vn -0.043661 -0.021326 0.998819
vn -0.046863 -0.042643 0.997991
vn 0.043661 0.021326 -0.998819
vn 0.046863 0.042643 -0.997991
vn 0.083685 -0.487709 -0.868986
vn -0.083685 0.487709 0.868986
vn 0.061361 0.916296 -0.395772
vn -0.061361 -0.916296 0.395772
vn -0.002185 -0.945326 0.326119
vn 0.008162 -0.924542 0.380992
vn -0.008162 0.924542 -0.380992
vn 0.002185 0.945326 -0.326119
vn -0.040438 0.000000 0.999182
vn 0.040438 0.000000 -0.999182
vn 0.051327 -0.691638 -0.720419
vn -0.051327 0.691638 0.720419
vn 0.011094 0.993344 0.114653
vn -0.011094 -0.993344 -0.114653
vn 0.018479 -0.900476 0.434512
vn -0.018479 0.900476 -0.434512
vn 0.006292 0.920927 0.389683
vn -0.013963 0.892214 0.451396
vn 0.013963 -0.892214 -0.451396
vn -0.006292 -0.920927 -0.389683
vn 0.020189 -0.492071 -0.870321
vn -0.020189 0.492071 0.870321
usemtl material-0
f 8//5 1//1 5//3
f 5//4 1//2 8//6
f 3//7 6//8 9//9
f 9//10 6//11 3//12
f 4//13 7//14 10//13
f 10//15 7//16 4//15
f 9//9 11//17 6//8
f 6//11 11//18 9//10
f 12//19 9//9 3//7
f 3//12 9//10 12//20
f 10//21 7//22 13//22
f 13//23 7//23 10//24
f 4//13 10//13 14//25
f 14//26 10//15 4//15
f 11//17 5//27 6//8
f 6//11 5//28 11//18
f 12//19 3//7 2//29
f 2//30 3//12 12//20
f 13//22 7//22 5//31
f 5//32 7//23 13//23
f 14//33 2//29 4//34
f 4//35 2//30 14//36
f 11//17 13//37 5//27
f 5//28 13//38 11//18
f 12//19 2//29 14//33
f 14//36 2//30 12//20