mtllib new-10.mtl
v -0.328616 -0.275527 0.083573
v -0.328616 -0.299918 0.083573
v -0.328616 -0.287723 0.086841
v -0.328616 -0.266598 0.074645
v -0.092835 -0.287723 0.086841
v -0.092835 -0.275527 0.083573
v -0.318976 -0.270746 0.078794
v -0.328616 -0.308846 0.074645
v -0.092835 -0.299918 0.083573
v -0.092835 -0.266598 0.074645
v -0.318976 -0.266598 0.074645
v -0.310846 -0.270746 0.078794
v -0.328616 -0.263331 0.062450
v -0.318976 -0.274364 0.075837
v -0.328616 -0.312114 0.062450
v -0.092835 -0.308846 0.074645
v -0.310846 -0.266598 0.074645
v -0.318976 -0.263331 0.062450
v -0.318976 -0.274530 0.042322
v -0.310846 -0.274364 0.075837
v -0.328616 -0.266598 0.050254
v -0.092835 -0.312114 0.062450
v -0.310846 -0.263331 0.062450
v -0.310846 -0.215307 0.117229
v -0.318976 -0.266598 0.050254
v -0.310846 -0.274530 0.042322
v -0.328616 -0.308846 0.050254
v -0.092835 -0.308846 0.050254
v -0.092835 -0.263331 0.062450
v -0.310846 -0.196512 0.123087
v -0.318976 -0.274534 0.041538
v -0.310846 -0.266598 0.050254
v -0.310846 -0.274534 0.041538
v -0.092835 -0.275527 0.041325
v -0.328616 -0.275527 0.041325
v -0.092835 -0.266598 0.050254
v -0.328616 -0.299918 0.041325
v -0.092835 -0.287723 0.038059
v -0.221544 -0.280984 0.087594
v -0.328616 -0.287723 0.038059
v -0.092835 -0.299918 0.041325
v -0.294718 -0.280984 0.087594
v -0.294718 -0.280984 0.097350
v -0.221544 -0.280984 0.097350
v -0.294718 -0.280984 0.037328
v -0.221544 -0.280984 0.037328
v -0.221544 -0.280984 0.027572
vn -1.000000 0.000000 0.000000
vn 1.000000 0.000000 0.000000
vn 0.000000 -0.500000 0.866025
vn 0.000000 0.000002 1.000000
vn 0.000000 -0.000002 -1.000000
vn 0.000000 0.500000 -0.866025
vn 0.000000 0.500002 0.866024
vn 0.000000 -0.500002 -0.866024
vn 0.000000 0.707100 0.707113
vn 0.000000 0.866024 0.500003
vn 0.000000 -0.866024 -0.500003
vn 0.000000 -0.707100 -0.707113
vn 0.000000 -0.866021 0.500008
vn 0.000000 0.866021 -0.500008
vn 0.000000 1.000000 0.000000
vn 0.000000 -1.000000 0.000000
vn 0.000000 -0.632557 0.774514
vn 0.000000 0.632557 -0.774514
vn 0.000000 -0.902422 0.430854
vn 0.000000 0.902422 -0.430854
vn 0.000000 -0.999988 0.004931
vn 0.000000 0.999988 -0.004931
vn 0.000000 0.866026 -0.499999
vn 0.000000 -0.866026 0.499999
vn 0.000000 -0.866023 -0.500004
vn 0.000000 0.866023 0.500004
vn 0.000000 0.707107 -0.707107
vn 0.000000 -0.707107 0.707107
vn 0.000000 0.722555 -0.691314
vn 0.000000 -0.722555 0.691314
vn 0.000000 -0.499999 -0.866026
vn 0.000000 0.499999 0.866026
vn 0.000000 0.000002 -1.000000
vn 0.000000 -0.000002 1.000000
vn -0.527518 -0.831165 0.175754
vn 0.527518 0.831165 -0.175754
vn -0.355550 -0.872089 0.336222
vn 0.355550 0.872089 -0.336222
vn -0.000049 -0.890515 0.454954
vn 0.000049 0.890515 -0.454954
vn -0.407412 -0.913244 0.000000
vn 0.407412 0.913244 0.000000
vn 0.000000 -0.899585 -0.436745
vn 0.000000 0.899585 0.436745
usemtl material-0
f 1//1 2//1 3//1
f 2//1 1//1 4//1
f 3//2 2//2 1//2
f 4//2 1//2 2//2
f 2//3 5//4 3//4
f 3//5 5//5 2//6
f 3//4 6//7 1//7
f 1//8 6//8 3//5
f 7//9 4//10 1//7
f 1//8 4//11 7//12
f 2//1 4//1 8//1
f 8//2 4//2 2//2
f 5//4 2//3 9//3
f 9//6 2//6 5//5
f 6//7 3//4 5//4
f 5//5 3//5 6//8
f 10//10 1//7 6//7
f 6//8 1//8 10//11
f 4//10 7//9 11//10
f 11//11 7//12 4//11
f 1//7 12//9 7//9
f 7//12 12//12 1//8
f 8//1 4//1 13//1
f 13//2 4//2 8//2
f 8//13 9//3 2//3
f 2//6 9//6 8//14
f 1//7 10//10 12//9
f 12//12 10//11 1//8
f 11//1 14//1 7//1
f 7//2 14//2 11//2
f 11//10 13//15 4//10
f 4//11 13//16 11//11
f 14//19 12//17 7//17
f 7//18 12//18 14//20
f 8//1 13//1 15//1
f 15//2 13//2 8//2
f 9//3 8//13 16//13
f 16//14 8//14 9//6
f 12//9 10//10 17//10
f 17//11 10//11 12//12
f 11//10 12//9 17//10
f 17//11 12//12 11//11
f 14//1 11//1 19//1
f 19//2 11//2 14//2
f 13//15 11//10 18//15
f 18//16 11//11 13//16
f 12//17 14//19 20//19
f 20//20 14//20 12//18
f 15//1 13//1 21//1
f 21//2 13//2 15//2
f 22//16 8//13 15//16
f 15//15 8//14 22//15
f 8//13 22//16 16//13
f 16//14 22//15 8//14
f 10//10 23//15 17//10
f 17//11 23//16 10//11
f 20//2 17//2 12//2
f 12//1 17//1 20//1
f 17//10 18//15 11//10
f 11//11 18//16 17//11
f 19//1 11//1 18//1
f 18//2 11//2 19//2
f 26//21 14//19 19//21
f 19//22 14//20 26//22
f 18//15 21//23 13//15
f 13//16 21//24 18//16
f 14//19 26//21 20//19
f 20//20 26//22 14//20
f 15//1 21//1 27//1
f 27//2 21//2 15//2
f 15//16 28//25 22//16
f 22//15 28//26 15//15
f 23//15 10//10 29//15
f 29//16 10//11 23//16
f 18//15 17//10 23//15
f 23//16 17//11 18//16
f 17//2 26//2 23//2
f 23//1 26//1 17//1
f 17//2 20//2 26//2
f 26//1 20//1 17//1
f 23//15 25//23 18//15
f 18//16 25//24 23//16
f 19//1 18//1 25//1
f 25//2 18//2 19//2
f 21//23 18//15 25//23
f 25//24 18//16 21//24
f 19//27 32//23 26//27
f 26//28 32//24 19//28
f 31//29 30//29 33//29
f 33//30 30//30 31//30
f 31//21 26//21 19//21
f 26//21 31//21 33//21
f 19//22 26//22 31//22
f 33//22 31//22 26//22
f 34//6 19//27 26//27
f 26//28 19//28 34//3
f 27//1 21//1 35//1
f 35//2 21//2 27//2
f 28//25 15//16 27//25
f 27//26 15//15 28//26
f 29//15 32//23 23//15
f 23//16 32//24 29//16
f 32//2 24//2 23//2
f 23//1 24//1 32//1
f 23//2 26//2 32//2
f 32//1 26//1 23//1
f 32//23 19//27 25//23
f 25//24 19//28 32//24
f 25//1 31//1 19//1
f 19//2 31//2 25//2
f 35//6 25//23 19//27
f 19//28 25//24 35//3
f 25//23 23//15 32//23
f 32//24 23//16 25//24
f 25//23 35//6 21//23
f 21//24 35//3 25//24
f 30//2 32//2 33//2
f 33//2 32//2 26//2
f 33//1 32//1 30//1
f 26//1 32//1 33//1
f 36//23 26//27 32//23
f 32//24 26//28 36//24
f 19//27 34//6 35//6
f 35//3 34//3 19//28
f 34//6 26//27 36//23
f 36//24 26//28 34//3
f 27//1 35//1 37//1
f 37//2 35//2 27//2
f 37//31 28//25 27//25
f 27//26 28//26 37//32
f 32//23 29//15 36//23
f 36//24 29//16 32//24
f 38//33 35//6 34//6
f 34//3 35//3 38//34
f 37//1 35//1 40//1
f 40//2 35//2 37//2
f 28//25 37//31 41//31
f 41//32 37//32 28//26
f 35//6 38//33 40//33
f 40//34 38//34 35//3
f 40//33 41//31 37//31
f 37//32 41//32 40//34
f 41//31 40//33 38//33
f 38//34 40//34 41//32
f 39//16 43//37 42//35
f 42//36 43//38 39//15
f 43//37 39//16 44//39
f 44//40 39//15 43//38
f 45//41 47//43 46//16
f 46//15 47//44 45//42