mtllib new-17.mtl
v 0.350195 -0.131498 0.195831
v 0.386782 -0.131498 0.195831
v 0.350195 -0.118885 0.214585
v 0.386782 -0.172305 -0.048316
v 0.386782 -0.118885 0.214585
v 0.350195 -0.165168 -0.063591
v 0.350195 -0.172305 -0.048316
v 0.386782 -0.165168 -0.063591
vn 0.000000 -0.986318 0.164853
vn 0.000000 0.986318 -0.164853
vn -1.000000 0.000000 0.000000
vn 1.000000 0.000000 0.000000
vn 0.000000 0.986440 -0.164125
vn 0.000000 -0.986440 0.164125
usemtl material-0
f 1//1 4//1 2//1
f 2//2 4//2 1//2
f 6//3 1//3 3//3
f 3//4 1//4 6//4
f 4//1 1//1 7//1
f 7//2 1//2 4//2
f 8//4 2//4 4//4
f 4//3 2//3 8//3
f 2//4 8//4 5//4
f 5//3 8//3 2//3
f 1//3 6//3 7//3
f 7//4 6//4 1//4
f 5//5 6//5 3//5
f 3//6 6//6 5//6
f 6//5 5//5 8//5
f 8//6 5//6 6//6