mtllib new-18.mtl
v 0.421457 -0.089467 0.131088
v -0.428771 -0.080581 0.146128
v -0.430018 -0.089467 0.131088
v 0.420210 -0.080581 0.146128
v 0.423033 -0.096718 0.084521
v -0.428607 -0.079826 0.150969
v -0.431594 -0.096718 0.084521
v 0.420045 -0.079826 0.150969
v -0.431433 -0.092835 0.067444
v 0.420193 -0.083591 0.168072
v 0.422872 -0.092835 0.067444
v -0.428755 -0.083591 0.168072
v 0.423037 -0.093606 0.062647
v -0.427142 -0.076010 0.214588
v -0.431599 -0.093606 0.062647
v 0.418580 -0.076010 0.214588
v 0.424293 -0.102567 0.047651
v -0.425883 -0.067017 0.229564
v -0.432854 -0.102567 0.047651
v 0.417322 -0.067017 0.229564
v 0.425893 -0.110049 0.001119
v -0.425717 -0.066234 0.234376
v -0.434454 -0.110049 0.001119
v 0.417156 -0.066234 0.234376
v -0.434303 -0.106248 -0.015976
v 0.417302 -0.069995 0.251481
v 0.425742 -0.106248 -0.015976
v -0.425864 -0.069995 0.251481
v 0.425872 -0.106661 -0.021102
v -0.424250 -0.062409 0.297995
v -0.434433 -0.106661 -0.021102
v 0.415689 -0.062409 0.297995
v 0.426999 -0.114374 -0.036785
v -0.422992 -0.053415 0.312969
v -0.435558 -0.114374 -0.036785
v 0.414431 -0.053415 0.312969
v 0.428177 -0.118054 -0.083784
v -0.422826 -0.052630 0.317779
v -0.436739 -0.118054 -0.083784
v 0.400176 -0.052630 0.317778
v -0.436427 -0.112880 -0.100512
v 0.414265 -0.052630 0.317781
v 0.414413 -0.056412 0.334878
v 0.427865 -0.112880 -0.100512
v -0.422974 -0.056412 0.334878
v -0.436181 -0.109826 -0.106632
v -0.421367 -0.048877 0.381400
v 0.427620 -0.109826 -0.106632
v 0.412806 -0.048877 0.381400
v -0.436113 -0.106736 -0.123872
v -0.420110 -0.039899 0.396384
v 0.427551 -0.106736 -0.123872
v 0.411549 -0.039899 0.396384
v -0.419945 -0.039124 0.401178
v 0.411383 -0.039124 0.401178
v 0.411546 -0.043010 0.418255
v -0.420106 -0.043010 0.418255
v -0.418532 -0.035759 0.464823
v 0.409970 -0.035759 0.464823
v -0.417283 -0.026873 0.479864
v 0.408721 -0.026873 0.479864
v -0.417120 -0.026123 0.484681
v 0.408559 -0.026123 0.484681
v 0.409042 -0.032663 0.500426
v -0.417603 -0.032663 0.500426
v -0.416849 -0.032775 0.547576
v 0.408287 -0.032775 0.547576
v -0.415860 -0.026351 0.563838
v 0.407299 -0.026351 0.563838
v -0.415782 -0.026362 0.568715
v 0.407220 -0.026362 0.568715
vn 0.000000 -0.860948 0.508694
vn 0.000000 0.860948 -0.508694
vn 0.000000 -0.988090 0.153879
vn 0.000000 -0.988091 0.153873
vn 0.000000 0.988091 -0.153873
vn 0.000000 0.988090 -0.153879
vn 0.000000 -0.975091 -0.221805
vn 0.000000 0.975091 0.221805
vn 0.000000 -0.976626 -0.214945
vn 0.000000 0.976626 0.214945
vn 0.000000 -0.987310 0.158806
vn 0.000000 0.987310 -0.158806
vn 0.000000 -0.986979 0.160847
vn 0.000000 0.986979 -0.160847
vn 0.000000 -0.858424 0.512941
vn 0.000000 0.858424 -0.512941
vn 0.000000 -0.857333 0.514763
vn 0.000000 0.857333 -0.514763
vn 0.000000 -0.987316 0.158769
vn 0.000000 0.987316 -0.158769
vn 0.000000 -0.986975 0.160871
vn 0.000000 0.986975 -0.160871
vn 0.000000 -0.976172 -0.216999
vn 0.000000 0.976172 0.216999
vn 0.000000 -0.976660 -0.214793
vn 0.000000 0.976660 0.214793
vn 0.000000 -0.996782 0.080166
vn 0.000000 0.996782 -0.080166
vn 0.000000 -0.986958 0.160977
vn 0.000000 0.986958 -0.160977
vn 0.000000 -0.897366 0.441286
vn 0.000000 0.897366 -0.441286
vn 0.000000 -0.857255 0.514893
vn 0.000000 0.857255 -0.514893
vn 0.000000 -0.996948 0.078070
vn 0.000000 0.996948 -0.078070
vn 0.000000 -0.986955 0.160999
vn 0.000000 0.986955 -0.160999
vn 0.000000 -0.955341 -0.295505
vn 0.000000 0.955341 0.295505
vn 0.000000 -0.976409 -0.215928
vn 0.000000 0.976409 0.215928
vn 0.000000 -0.894845 -0.446377
vn 0.000000 0.894845 0.446377
vn 0.000000 -0.987139 0.159864
vn 0.000000 0.987139 -0.159864
vn 0.000000 -0.984305 -0.176473
vn 0.000000 0.984305 0.176473
vn 0.000000 -0.857830 0.513934
vn 0.000000 0.857830 -0.513934
vn 0.000000 -0.987145 0.159825
vn 0.000000 0.987145 -0.159825
vn 0.000000 -0.975081 -0.221849
vn 0.000000 0.975081 0.221849
vn 0.000000 -0.988096 0.153838
vn 0.000000 0.988096 -0.153838
vn 0.000000 -0.860988 0.508625
vn 0.000000 0.860988 -0.508625
vn 0.000000 -0.988094 0.153852
vn 0.000000 0.988094 -0.153852
vn 0.000000 -0.923492 -0.383617
vn 0.000000 0.923492 0.383617
vn 0.000000 -0.999997 -0.002359
vn 0.000000 0.999997 0.002359
vn 0.000000 -0.930049 0.367435
vn 0.000000 0.930049 -0.367435
vn 0.000000 -0.999997 -0.002367
vn 0.000000 0.999997 0.002367
usemtl material-0
f 1//1 2//1 3//1
f 2//1 1//1 4//1
f 3//2 2//2 1//2
f 4//2 1//2 2//2
f 3//3 5//3 1//3
f 4//4 6//4 2//4
f 2//5 6//5 4//5
f 5//3 3//3 7//3
f 7//6 3//6 5//6
f 1//6 5//6 3//6
f 6//4 4//4 8//4
f 8//5 4//5 6//5
f 9//7 5//7 7//7
f 7//8 5//8 9//8
f 10//9 6//9 8//9
f 5//7 9//7 11//7
f 11//8 9//8 5//8
f 6//9 10//9 12//9
f 12//10 10//10 6//10
f 8//10 6//10 10//10
f 9//11 13//11 11//11
f 11//12 13//12 9//12
f 10//13 14//13 12//13
f 12//14 14//14 10//14
f 13//11 9//11 15//11
f 15//12 9//12 13//12
f 14//13 10//13 16//13
f 16//14 10//14 14//14
f 15//15 17//15 13//15
f 13//16 17//16 15//16
f 16//17 18//17 14//17
f 14//18 18//18 16//18
f 17//15 15//15 19//15
f 19//16 15//16 17//16
f 18//17 16//17 20//17
f 20//18 16//18 18//18
f 19//19 21//19 17//19
f 17//20 21//20 19//20
f 20//21 22//21 18//21
f 18//22 22//22 20//22
f 21//19 19//19 23//19
f 23//20 19//20 21//20
f 22//21 20//21 24//21
f 24//22 20//22 22//22
f 25//23 21//23 23//23
f 23//24 21//24 25//24
f 26//25 22//25 24//25
f 24//26 22//26 26//26
f 21//23 25//23 27//23
f 27//24 25//24 21//24
f 22//25 26//25 28//25
f 28//26 26//26 22//26
f 25//27 29//27 27//27
f 27//28 29//28 25//28
f 26//29 30//29 28//29
f 28//30 30//30 26//30
f 29//27 25//27 31//27
f 31//28 25//28 29//28
f 30//29 26//29 32//29
f 32//30 26//30 30//30
f 31//31 33//31 29//31
f 29//32 33//32 31//32
f 32//33 34//33 30//33
f 30//34 34//34 32//34
f 33//31 31//31 35//31
f 35//32 31//32 33//32
f 34//33 32//33 36//33
f 36//34 32//34 34//34
f 35//35 37//35 33//35
f 33//36 37//36 35//36
f 36//37 38//37 34//37
f 34//38 38//38 36//38
f 37//35 35//35 39//35
f 39//36 35//36 37//36
f 38//37 36//37 40//37
f 40//38 36//38 38//38
f 41//39 37//39 39//39
f 39//40 37//40 41//40
f 40//37 36//37 42//37
f 42//38 36//38 40//38
f 43//41 38//41 40//41
f 40//42 38//42 43//42
f 37//39 41//39 44//39
f 44//40 41//40 37//40
f 38//41 43//41 45//41
f 45//42 43//42 38//42
f 46//43 44//43 41//43
f 41//44 44//44 46//44
f 43//45 47//45 45//45
f 45//46 47//46 43//46
f 44//43 46//43 48//43
f 48//44 46//44 44//44
f 47//45 43//45 49//45
f 49//46 43//46 47//46
f 50//47 48//47 46//47
f 46//48 48//48 50//48
f 49//49 51//49 47//49
f 47//50 51//50 49//50
f 48//47 50//47 52//47
f 52//48 50//48 48//48
f 51//49 49//49 53//49
f 53//50 49//50 51//50
f 53//51 54//51 51//51
f 51//52 54//52 53//52
f 54//51 53//51 55//51
f 55//52 53//52 54//52
f 56//53 54//53 55//53
f 55//54 54//54 56//54
f 54//53 56//53 57//53
f 57//54 56//54 54//54
f 56//55 58//55 57//55
f 57//56 58//56 56//56
f 58//55 56//55 59//55
f 59//56 56//56 58//56
f 59//57 60//57 58//57
f 58//58 60//58 59//58
f 60//57 59//57 61//57
f 61//58 59//58 60//58
f 61//59 62//59 60//59
f 60//60 62//60 61//60
f 62//59 61//59 63//59
f 63//60 61//60 62//60
f 64//61 62//61 63//61
f 63//62 62//62 64//62
f 62//61 64//61 65//61
f 65//62 64//62 62//62
f 64//63 66//63 65//63
f 65//64 66//64 64//64
f 66//63 64//63 67//63
f 67//64 64//64 66//64
f 67//65 68//65 66//65
f 66//66 68//66 67//66
f 68//65 67//65 69//65
f 69//66 67//66 68//66
f 69//67 70//67 68//67
f 68//68 70//68 69//68
f 70//67 69//67 71//67
f 71//68 69//68 70//68