# SSTK version 0.8.0
# 16
mtllib original-16.mtl
o mesh35/mesh35-geometry#mesh35-geometry
v -0.304166 -0.733603 -0.401246
v -0.304166 -0.791095 -0.401246
v -0.297167 -0.762349 -0.391613
v -0.321062 -0.721697 -0.424502
v -0.284012 -0.762349 -0.401171
v -0.291011 -0.733603 -0.410804
v -0.307906 -0.721697 -0.434059
v -0.321062 -0.803001 -0.424502
v -0.291011 -0.791095 -0.410804
v -0.324802 -0.733603 -0.457315
v -0.337957 -0.733603 -0.447757
v -0.307906 -0.803001 -0.434059
v -0.282214 -0.762349 -0.412528
v -0.287812 -0.739353 -0.420234
v -0.314846 -0.739353 -0.457442
v -0.337957 -0.791095 -0.447757
v -0.324802 -0.791095 -0.457315
v -0.287812 -0.785345 -0.420234
v -0.301328 -0.729828 -0.438838
v -0.331801 -0.762349 -0.466948
v -0.320444 -0.762349 -0.465150
v -0.344956 -0.762349 -0.457390
v -0.314846 -0.785345 -0.457442
v -0.301328 -0.794871 -0.438838
vn -0.8090171162905557 0 0.5877850844899974
vn 0.8090171162905557 0 -0.5877850844899974
vn 0.4156270207192153 -0.7071070352496402 0.5720610285175289
vn 0.8567282159777836 0 0.5157681300230988
vn 0.5877850844899974 0 0.8090171162905557
vn -0.5877850844899974 0 -0.8090171162905557
vn -0.8567282159777836 0 -0.5157681300230988
vn -0.4156270207192153 0.7071070352496402 -0.5720610285175289
vn 0.6981989911325237 0.6511299917303234 0.2975699962207124
vn 0.4156270207192153 0.70710703524964 0.5720610285175292
vn -0.4156270207192153 -0.70710703524964 -0.5720610285175292
vn -0.6981989911325237 -0.6511299917303234 -0.2975699962207124
vn 0.3154740698349252 0.9208372038411503 -0.2292050507379815
vn 0 1 0
vn 0 -1 0
vn -0.3154740698349252 -0.9208372038411503 0.2292050507379815
vn 0.6981982708503622 -0.6511302525913801 0.2975711154360411
vn -0.6981982708503622 0.6511302525913801 -0.2975711154360411
vn -0.06724999624203669 0.6511299636145332 -0.7559809577554072
vn 0.06724999624203669 -0.6511299636145332 0.7559809577554072
vn 0.3154740698349252 -0.9208372038411503 -0.2292050507379819
vn -0.3154740698349252 0.9208372038411503 0.2292050507379819
vn 0.9876888921038837 0 0.1564309829113239
vn -0.9876888921038837 0 -0.1564309829113239
vn 0.8659551131500322 0.4999980653322514 -0.011121001453125638
vn -0.8659551131500322 -0.4999980653322514 0.011121001453125638
vn 0.27817305060552416 0.49999809096016123 -0.82013514919982
vn -0.27817305060552416 -0.49999809096016123 0.82013514919982
vn -0.06725099171931867 -0.6511299198257267 -0.7559809069153209
vn 0.06725099171931867 0.6511299198257267 0.7559809069153209
vn 0.8659546898038282 -0.4999988208939544 -0.01111999601667369
vn -0.8659546898038282 0.4999988208939544 0.01111999601667369
vn 0.5720637847458817 0.7071037339335319 -0.41562884360866265
vn -0.5720637847458817 -0.7071037339335319 0.41562884360866265
vn -0.22578006953078938 0 -0.9741783000060471
vn 0.22578006953078938 0 0.9741783000060471
vn 0.15643894164320135 0 -0.9876876315604822
vn -0.15643894164320135 0 0.9876876315604822
vn -0.4156270768475833 -0.7071061307407536 -0.5720621057717189
vn 0.4156270768475833 0.7071061307407536 0.5720621057717189
vn 0.27817189984645085 -0.4999978199798172 -0.8201357047167539
vn -0.27817189984645085 0.4999978199798172 0.8201357047167539
vn 0.5720629452598714 -0.7071049323378392 -0.4156279602289782
vn -0.5720629452598714 0.7071049323378392 0.4156279602289782
usemtl material_0_0
f 1//1 2//1 3//1
f 2//1 1//1 4//1
f 3//2 2//2 1//2
f 4//2 1//2 2//2
f 2//3 5//4 3//5
f 3//6 5//7 2//8
f 3//5 6//9 1//10
f 1//11 6//12 3//6
f 1//10 7//13 4//14
f 4//15 7//16 1//11
f 2//1 4//1 8//1
f 8//2 4//2 2//2
f 5//4 2//3 9//17
f 9//18 2//8 5//7
f 6//9 3//5 5//4
f 5//7 3//6 6//12
f 7//13 1//10 6//9
f 6//12 1//11 7//16
f 10//19 4//14 7//13
f 7//16 4//15 10//20
f 8//1 4//1 11//1
f 11//2 4//2 8//2
f 12//21 2//3 8//15
f 8//14 2//8 12//22
f 2//3 12//21 9//17
f 9//18 12//22 2//8
f 9//17 13//23 5//4
f 5//7 13//24 9//18
f 13//23 6//9 5//4
f 5//7 6//12 13//24
f 14//25 7//13 6//9
f 6//12 7//16 14//26
f 4//14 10//19 11//8
f 11//3 10//20 4//15
f 7//13 15//27 10//19
f 10//20 15//28 7//16
f 8//1 11//1 16//1
f 16//2 11//2 8//2
f 8//15 17//29 12//21
f 12//22 17//30 8//14
f 12//21 18//31 9//17
f 9//18 18//32 12//22
f 13//23 9//17 18//31
f 18//32 9//18 13//24
f 6//9 13//23 14//25
f 14//26 13//24 6//12
f 7//13 14//25 19//33
f 19//34 14//26 7//16
f 20//35 11//8 10//19
f 10//20 11//3 20//36
f 15//27 7//13 19//33
f 19//34 7//16 15//28
f 21//37 10//19 15//27
f 15//28 10//20 21//38
f 16//1 11//1 22//1
f 22//2 11//2 16//2
f 17//29 8//15 16//39
f 16//40 8//14 17//30
f 23//41 12//21 17//29
f 17//30 12//22 23//42
f 18//31 12//21 24//43
f 24//44 12//22 18//32
f 18//2 14//2 13//2
f 13//1 14//1 18//1
f 14//2 24//2 19//2
f 19//1 24//1 14//1
f 11//8 20//35 22//6
f 22//5 20//36 11//3
f 10//19 21//37 20//35
f 20//36 21//38 10//20
f 19//2 23//2 15//2
f 15//1 23//1 19//1
f 15//2 23//2 21//2
f 21//1 23//1 15//1
f 22//6 17//29 16//39
f 16//40 17//30 22//5
f 12//21 23//41 24//43
f 24//44 23//42 12//22
f 20//35 23//41 17//29
f 17//30 23//42 20//36
f 14//2 18//2 24//2
f 24//1 18//1 14//1
f 19//2 24//2 23//2
f 23//1 24//1 19//1
f 17//29 22//6 20//35
f 20//36 22//5 17//30
f 23//41 20//35 21//37
f 21//38 20//36 23//42
