# SSTK version 0.8.0
# 13
mtllib original-13.mtl
o mesh32/mesh32-geometry#mesh32-geometry
v 0.028240 -0.733603 0.629246
v 0.011979 -0.762349 0.641154
v 0.028240 -0.762349 0.641154
v 0.011979 -0.733603 0.629246
v 0.011979 -0.791095 0.629246
v 0.036371 -0.762349 0.633024
v 0.011979 -0.721697 0.600502
v 0.028240 -0.791095 0.629246
v 0.036371 -0.739353 0.623498
v 0.028240 -0.721697 0.600502
v 0.028240 -0.803001 0.600502
v 0.036371 -0.785345 0.623498
v 0.011979 -0.733603 0.571756
v 0.011979 -0.803001 0.600502
v 0.036371 -0.794871 0.600502
v 0.036371 -0.729828 0.600502
v 0.028240 -0.733603 0.571756
v 0.011979 -0.791095 0.571756
v 0.036371 -0.739353 0.577506
v 0.028240 -0.762349 0.559850
v 0.028240 -0.791095 0.571756
v 0.036371 -0.785345 0.577506
v 0.036371 -0.762349 0.567980
v 0.011979 -0.762349 0.559850
vn 0.3899480006816292 0.6511300011381752 0.6511300011381754
vn 0 0 1
vn 0.38994795646757735 0 0.9208368972009974
vn 0 0.7071067811865476 0.7071067811865478
vn -0.38994795646757735 0 -0.9208368972009974
vn 0 0 -1
vn -0.3899480006816292 -0.6511300011381752 -0.6511300011381754
vn 0 -0.7071067811865476 -0.7071067811865478
vn 0 -0.707106281186172 0.7071072811865695
vn 0 0.707106281186172 -0.7071072811865695
vn 0.7071097811792553 0 0.707103781181112
vn -0.7071097811792553 0 -0.707103781181112
vn 0 1 0
vn 0 -1 0
vn -1 0 0
vn 1 0 0
vn 0.38994715274057484 -0.6511302550448408 0.6511302550448406
vn -0.38994715274057484 0.6511302550448408 -0.6511302550448406
vn 0.7071098047995369 0.4999978619736091 0.49999786197360935
vn -0.7071098047995369 -0.4999978619736091 -0.49999786197360935
vn 0.38994795646757735 0.9208368972009974 0
vn -0.38994795646757735 -0.9208368972009974 0
vn 0.3899471085265848 -0.9208372562791732 0
vn -0.3899471085265848 0.9208372562791732 0
vn 0.7071093048034206 -0.49999821552702733 0.4999982155270271
vn -0.7071093048034206 0.49999821552702733 -0.4999982155270271
vn 0 0.7071072811865697 -0.7071062811861718
vn 0 -0.7071072811865697 0.7071062811861718
vn 0.7071097811792553 0.707103781181112 0
vn -0.7071097811792553 -0.707103781181112 0
vn 0.38994715274057484 0.6511302550448408 -0.6511302550448406
vn -0.38994715274057484 -0.6511302550448408 0.6511302550448406
vn 0.7071087811831002 -0.707104781184338 0
vn -0.7071087811831002 0.707104781184338 0
vn 0.7071093048034206 0.49999821552702733 -0.4999982155270271
vn -0.7071093048034206 -0.49999821552702733 0.4999982155270271
vn 0.3899471085265848 0 -0.9208372562791732
vn -0.3899471085265848 0 0.9208372562791732
vn 0.38994715274057484 -0.6511302550448406 -0.6511302550448408
vn -0.38994715274057484 0.6511302550448406 0.6511302550448408
vn 0.7071080976990112 -0.499999069083376 -0.4999990690833762
vn -0.7071080976990112 0.499999069083376 0.4999990690833762
vn 0.7071087811831002 0 -0.707104781184338
vn -0.7071087811831002 0 0.707104781184338
usemtl material_0_0
f 1//1 2//2 3//3
f 2//2 1//1 4//4
f 3//5 2//6 1//7
f 4//8 1//7 2//6
f 5//9 3//3 2//2
f 2//6 3//5 5//10
f 6//11 1//1 3//3
f 3//5 1//7 6//12
f 1//1 7//13 4//4
f 4//8 7//14 1//7
f 4//15 5//15 2//15
f 2//16 5//16 4//16
f 3//3 5//9 8//17
f 8//18 5//10 3//5
f 1//1 6//11 9//19
f 9//20 6//12 1//7
f 8//17 6//11 3//3
f 3//5 6//12 8//18
f 7//13 1//1 10//21
f 10//22 1//7 7//14
f 5//15 4//15 7//15
f 7//16 4//16 5//16
f 5//9 11//23 8//17
f 8//18 11//24 5//10
f 12//16 9//16 6//16
f 6//15 9//15 12//15
f 9//19 10//21 1//1
f 1//7 10//22 9//20
f 6//11 8//17 12//25
f 12//26 8//18 6//12
f 10//21 13//27 7//13
f 7//14 13//28 10//22
f 5//15 7//15 14//15
f 14//16 7//16 5//16
f 11//23 5//9 14//14
f 14//13 5//10 11//24
f 11//23 12//25 8//17
f 8//18 12//26 11//24
f 9//16 12//16 15//16
f 15//15 12//15 9//15
f 10//21 9//19 16//29
f 16//30 9//20 10//22
f 13//27 10//21 17//31
f 17//32 10//22 13//28
f 14//15 7//15 13//15
f 13//16 7//16 14//16
f 18//8 11//23 14//14
f 14//13 11//24 18//4
f 12//25 11//23 15//33
f 15//34 11//24 12//26
f 9//16 15//16 16//16
f 16//15 15//15 9//15
f 19//35 10//21 16//29
f 16//30 10//22 19//36
f 10//21 19//35 17//31
f 17//32 19//36 10//22
f 20//37 13//27 17//31
f 17//32 13//28 20//38
f 14//15 13//15 18//15
f 18//16 13//16 14//16
f 11//23 18//8 21//39
f 21//40 18//4 11//24
f 11//23 22//41 15//33
f 15//34 22//42 11//24
f 16//16 15//16 22//16
f 22//15 15//15 16//15
f 16//16 22//16 19//16
f 19//15 22//15 16//15
f 23//43 17//31 19//35
f 19//36 17//32 23//44
f 13//27 20//37 24//6
f 24//2 20//38 13//28
f 17//31 23//43 20//37
f 20//38 23//44 17//32
f 18//15 13//15 24//15
f 24//16 13//16 18//16
f 24//6 21//39 18//8
f 18//4 21//40 24//2
f 22//41 11//23 21//39
f 21//40 11//24 22//42
f 19//16 22//16 23//16
f 23//15 22//15 19//15
f 21//39 24//6 20//37
f 20//38 24//2 21//40
f 23//43 21//39 20//37
f 20//38 21//40 23//44
f 21//39 23//43 22//41
f 22//42 23//44 21//40
