# SSTK version 0.8.0
# 32
mtllib original-32.mtl
o mesh76/mesh76-geometry#mesh76-geometry
v 0.321836 -0.266598 0.074645
v 0.086054 -0.275527 0.083573
v 0.321836 -0.275527 0.083573
v 0.086054 -0.266598 0.074645
v 0.086054 -0.287723 0.086841
v 0.321836 -0.308846 0.074645
v 0.086054 -0.263331 0.062450
v 0.321836 -0.287723 0.086841
v 0.321836 -0.299918 0.083573
v 0.321836 -0.312114 0.062450
v 0.321836 -0.263331 0.062450
v 0.086054 -0.299918 0.083573
v 0.086054 -0.308846 0.074645
v 0.086054 -0.266598 0.050254
v 0.086054 -0.312114 0.062450
v 0.321836 -0.308846 0.050254
v 0.321836 -0.266598 0.050254
v 0.086054 -0.275527 0.041325
v 0.086054 -0.308846 0.050254
v 0.321836 -0.299918 0.041325
v 0.321836 -0.275527 0.041325
v 0.086054 -0.299918 0.041325
v 0.321836 -0.287723 0.038059
v 0.086054 -0.287723 0.038059
vn 0 0.8660237537959768 0.500002857852958
vn 0 0.5000021078554661 0.8660241868100976
vn 0 -0.5000021078554661 -0.8660241868100976
vn 0 -0.8660237537959768 -0.500002857852958
vn 0 0.000001999999999773955 1
vn 0 -0.000001999999999773955 -1
vn 1 0 0
vn -1 0 0
vn 0 1 0
vn 0 -1 0
vn 0 -0.500000174843842 0.8660253028382761
vn 0 0.500000174843842 -0.8660253028382761
vn 0 -0.8660208387014687 0.5000079068722857
vn 0 0.8660208387014687 -0.5000079068722857
vn 0 0.8660259858504346 -0.49999899183076635
vn 0 -0.8660259858504346 0.49999899183076635
vn 0 -0.8660230707779033 -0.5000040408640822
vn 0 0.8660230707779033 0.5000040408640822
vn 0 -0.49999899183076635 -0.8660259858504346
vn 0 0.49999899183076635 0.8660259858504346
vn 0 0.0000020000000002180444 -1
vn 0 -0.0000020000000002180444 1
usemtl material_0_0
f 1//1 2//2 3//2
f 2//2 1//1 4//1
f 3//3 2//3 1//4
f 4//4 1//4 2//3
f 5//5 3//2 2//2
f 2//3 3//3 5//6
f 3//7 6//7 1//7
f 1//8 6//8 3//8
f 1//1 7//9 4//1
f 4//4 7//10 1//4
f 3//2 5//5 8//5
f 8//6 5//6 3//3
f 3//7 9//7 6//7
f 6//8 9//8 3//8
f 1//7 6//7 10//7
f 10//8 6//8 1//8
f 7//9 1//1 11//9
f 11//10 1//4 7//10
f 12//11 8//5 5//5
f 5//6 8//6 12//12
f 9//7 3//7 8//7
f 8//8 3//8 9//8
f 9//11 13//13 6//13
f 6//14 13//14 9//12
f 13//13 10//10 6//13
f 6//14 10//9 13//14
f 1//7 10//7 11//7
f 11//8 10//8 1//8
f 11//9 14//15 7//9
f 7//10 14//16 11//10
f 8//5 12//11 9//11
f 9//12 12//12 8//6
f 13//13 9//11 12//11
f 12//12 9//12 13//14
f 10//10 13//13 15//10
f 15//9 13//14 10//9
f 11//7 10//7 16//7
f 16//8 10//8 11//8
f 14//15 11//9 17//15
f 17//16 11//10 14//16
f 15//10 16//17 10//10
f 10//9 16//18 15//9
f 11//7 16//7 17//7
f 17//8 16//8 11//8
f 17//15 18//12 14//15
f 14//16 18//11 17//16
f 16//17 15//10 19//17
f 19//18 15//9 16//18
f 17//7 16//7 20//7
f 20//8 16//8 17//8
f 18//12 17//15 21//12
f 21//11 17//16 18//11
f 22//19 16//17 19//17
f 19//18 16//18 22//20
f 16//17 22//19 20//19
f 20//20 22//20 16//18
f 17//7 20//7 21//7
f 21//8 20//8 17//8
f 23//21 18//12 21//12
f 21//11 18//11 23//22
f 24//21 20//19 22//19
f 22//20 20//20 24//22
f 21//7 20//7 23//7
f 23//8 20//8 21//8
f 18//12 23//21 24//21
f 24//22 23//22 18//11
f 20//19 24//21 23//21
f 23//22 24//22 20//20
