# SSTK version 0.8.0
# 33
mtllib original-33.mtl
o mesh77/mesh77-geometry#mesh77-geometry
v -0.428947 -0.053671 0.558549
v -0.425525 -0.047319 0.564208
v -0.426103 -0.053919 0.558549
v -0.428369 -0.047070 0.564208
v -0.429703 -0.062321 0.559233
v -0.427358 -0.035523 0.558302
v -0.428309 -0.046389 0.572893
v -0.426860 -0.062570 0.559233
v -0.430218 -0.068205 0.547643
v -0.425465 -0.046638 0.572893
v -0.427353 -0.068208 0.565858
v -0.431275 -0.080283 0.561837
v -0.427231 -0.034065 0.576912
v -0.428595 -0.049666 0.546178
v -0.425959 -0.052275 0.579517
v -0.430197 -0.067959 0.565858
v -0.428802 -0.052027 0.579517
v -0.424516 -0.035772 0.558302
v -0.425753 -0.049914 0.546178
v -0.430137 -0.067278 0.574543
v -0.428288 -0.046143 0.591108
v -0.424387 -0.034314 0.576912
v -0.427374 -0.068453 0.547643
v -0.429560 -0.060677 0.580200
v -0.427293 -0.067526 0.574543
v -0.431147 -0.078824 0.580449
v -0.425444 -0.046392 0.591108
v -0.428431 -0.080532 0.561837
v -0.426716 -0.060926 0.580200
v -0.429909 -0.064682 0.592573
v -0.428303 -0.079073 0.580449
v -0.427067 -0.064931 0.592573
vn 0.056592038320830686 0.6470334381333412 -0.7603585148704793
vn -0.056592038320830686 -0.6470334381333412 0.7603585148704793
vn -0.006848998684218442 -0.07828098496120636 -0.9969078084810685
vn -0.996194678049358 0.087155971832894 0
vn 0.0868619899882876 0.9931258855323171 -0.07845999095670175
vn 0.006848998684218442 0.07828098496120636 0.9969078084810685
vn 0.996194678049358 -0.087155971832894 0
vn -0.0868619899882876 -0.9931258855323171 0.07845999095670175
vn -0.06627700750474481 -0.7575180857760502 -0.6494410735381655
vn 0.06627700750474481 0.7575180857760502 0.6494410735381655
vn 0.06627699317844082 0.7575199220322658 0.6494389331565014
vn -0.06627699317844082 -0.7575199220322658 -0.6494389331565014
vn -0.08689104358568799 -0.9931234981637823 0.07845803935558215
vn 0.08689104358568799 0.9931234981637823 -0.07845803935558215
vn -0.056605984836815344 -0.6469778266924555 0.7604047963084932
vn 0.056605984836815344 0.6469778266924555 -0.7604047963084932
vn 0.006840997484357038 0.07818197125010969 0.9969156334037832
vn -0.006840997484357038 -0.07818197125010969 -0.9969156334037832
vn -0.08689102995090875 -0.9931233423247097 0.07846002704478348
vn 0.08689102995090875 0.9931233423247097 -0.07846002704478348
vn 0.006835003348011016 0.07809503825353603 0.996922488325653
vn -0.06627700034165794 -0.7575190039050104 -0.6494400033478634
vn 0.06627700034165794 0.7575190039050104 0.6494400033478634
vn 0.06627099032374027 0.7574818893996986 0.6494839051685374
vn -0.06627099032374027 -0.7574818893996986 -0.6494839051685374
vn -0.006835003348011016 -0.07809503825353603 -0.996922488325653
vn -0.05661999335904136 -0.646925924122063 0.7604479108070695
vn 0.05661999335904136 0.646925924122063 -0.7604479108070695
vn 0.08687601832171982 0.9931252094451632 -0.07845301654535045
vn -0.08687601832171982 -0.9931252094451632 0.07845301654535045
vn -0.006839997531513736 -0.07818197178491308 -0.9969156402231796
vn 0.006839997531513736 0.07818197178491308 0.9969156402231796
vn 0.05659601687339749 0.64697819288849 -0.7604052267053469
vn -0.05659601687339749 -0.64697819288849 0.7604052267053469
usemtl material_0_0
f 1//1 2//1 3//1
f 2//1 1//1 4//1
f 3//2 2//2 1//2
f 4//2 1//2 2//2
f 3//3 5//3 1//3
f 4//4 6//4 1//4
f 7//5 2//5 4//5
f 5//3 3//3 8//3
f 8//6 3//6 5//6
f 1//6 5//6 3//6
f 9//4 5//4 1//4
f 1//7 5//7 9//7
f 7//4 6//4 4//4
f 4//7 6//7 7//7
f 1//7 6//7 4//7
f 9//4 1//4 6//4
f 6//7 1//7 9//7
f 2//5 7//5 10//5
f 4//8 2//8 7//8
f 10//8 7//8 2//8
f 11//9 5//9 8//9
f 8//10 5//10 11//10
f 12//4 5//4 9//4
f 9//7 5//7 12//7
f 7//4 13//4 6//4
f 6//7 13//7 7//7
f 9//4 6//4 14//4
f 14//7 6//7 9//7
f 7//11 15//11 10//11
f 10//12 15//12 7//12
f 5//9 11//9 16//9
f 16//10 11//10 5//10
f 12//4 16//4 5//4
f 5//7 16//7 12//7
f 17//4 13//4 7//4
f 7//7 13//7 17//7
f 18//13 13//13 6//13
f 6//14 13//14 18//14
f 14//15 18//15 6//15
f 6//16 18//16 14//16
f 9//17 19//17 14//17
f 14//18 19//18 9//18
f 15//11 7//11 17//11
f 17//12 7//12 15//12
f 11//19 20//19 16//19
f 16//20 20//20 11//20
f 12//4 20//4 16//4
f 16//7 20//7 12//7
f 17//4 21//4 13//4
f 13//7 21//7 17//7
f 13//13 18//13 22//13
f 22//14 18//14 13//14
f 18//15 14//15 19//15
f 19//16 14//16 18//16
f 19//17 9//17 23//17
f 23//18 9//18 19//18
f 24//21 15//21 17//21
f 20//19 11//19 25//19
f 25//20 11//20 20//20
f 26//4 20//4 12//4
f 12//7 20//7 26//7
f 24//4 21//4 17//4
f 17//7 21//7 24//7
f 13//22 27//22 21//22
f 21//23 27//23 13//23
f 27//22 13//22 22//22
f 22//23 13//23 27//23
f 9//24 28//24 23//24
f 23//25 28//25 9//25
f 15//21 24//21 29//21
f 29//26 24//26 15//26
f 17//26 15//26 24//26
f 29//27 20//27 25//27
f 25//28 20//28 29//28
f 20//4 26//4 24//4
f 24//7 26//7 20//7
f 26//29 28//29 12//29
f 12//30 28//30 26//30
f 26//4 21//4 24//4
f 24//7 21//7 26//7
f 27//31 30//31 21//31
f 21//32 30//32 27//32
f 28//24 9//24 12//24
f 12//25 9//25 28//25
f 20//27 29//27 24//27
f 24//28 29//28 20//28
f 28//29 26//29 31//29
f 31//30 26//30 28//30
f 21//4 26//4 30//4
f 30//7 26//7 21//7
f 30//31 27//31 32//31
f 32//32 27//32 30//32
f 26//33 32//33 31//33
f 31//34 32//34 26//34
f 32//33 26//33 30//33
f 30//34 26//34 32//34
