# SSTK version 0.8.0
# 18
mtllib original-18.mtl
o mesh37/mesh37-geometry#mesh37-geometry
v -0.555420 -0.733603 0.252448
v -0.571769 -0.762349 0.240662
v -0.566744 -0.762349 0.256128
v -0.560445 -0.733603 0.236982
v -0.555420 -0.791095 0.252448
v -0.547439 -0.739353 0.258404
v -0.533105 -0.721697 0.228101
v -0.494444 -0.762349 0.215538
v -0.560445 -0.791095 0.236982
v -0.547439 -0.785345 0.258404
v -0.556498 -0.762349 0.261348
v -0.525569 -0.729828 0.251297
v -0.528081 -0.721697 0.243565
v -0.505768 -0.733603 0.219217
v -0.505768 -0.791095 0.219217
v -0.533105 -0.803001 0.228101
v -0.525569 -0.794871 0.251297
v -0.503698 -0.739353 0.244191
v -0.489419 -0.762349 0.231003
v -0.528081 -0.803001 0.243565
v -0.494639 -0.762349 0.241248
v -0.503698 -0.785345 0.244191
v -0.500743 -0.733603 0.234681
v -0.500743 -0.791095 0.234681
vn -0.4987609178665526 0.6511298927751935 0.5720729057939021
vn -0.9510565608316645 0 0.3090168573056278
vn -0.7552680434732297 0 0.6554160377257481
vn -0.6724986770278804 0.7071066604071581 0.2185078950600792
vn 0.7552680434732297 0 -0.6554160377257481
vn 0.9510565608316645 0 -0.3090168573056278
vn 0.4987609178665526 -0.6511298927751935 -0.5720729057939021
vn 0.6724986770278804 -0.7071066604071581 -0.2185078950600792
vn -0.49876120319410866 -0.6511302652688963 0.5720722330608449
vn 0.49876120319410866 0.6511302652688963 -0.5720722330608449
vn -0.2570170482711474 0.49999809390615063 0.8270091553230852
vn 0.2570170482711474 -0.49999809390615063 -0.8270091553230852
vn 0 1 0
vn 0 -1 0
vn -0.3090168573056278 0 -0.9510565608316645
vn 0.3090168573056278 0 0.9510565608316645
vn -0.6724991525561137 -0.707106160406697 0.21850804956844724
vn 0.6724991525561137 0.707106160406697 -0.21850804956844724
vn -0.2570179822131997 -0.4999979653978922 0.8270089427672616
vn 0.2570179822131997 0.4999979653978922 -0.8270089427672616
vn -0.45398671983353195 0 0.89100845013658
vn 0.45398671983353195 0 -0.89100845013658
vn 0.21850901694559346 0.7071040548366286 0.6725010521531314
vn -0.21850901694559346 -0.7071040548366286 -0.6725010521531314
vn 0.1205010063495597 0.9208370485216678 0.3708620195418332
vn -0.1205010063495597 -0.9208370485216678 -0.3708620195418332
vn 0.21850886243702417 -0.7071045548399928 0.6725005766250414
vn -0.21850886243702417 0.7071045548399928 -0.6725005766250414
vn 0.6724981292820615 0.7071071359353495 -0.21850804200631763
vn -0.6724981292820615 -0.7071071359353495 0.21850804200631763
vn 0.9962685922223673 0 0.08630696467413505
vn -0.9962685922223673 0 -0.08630696467413505
vn 0.12050002086982217 -0.9208371594830246 0.3708620642309043
vn -0.12050002086982217 0.9208371594830246 -0.3708620642309043
vn 0.7397620389677061 0.6511300342989265 0.16965200893658958
vn -0.7397620389677061 -0.6511300342989265 -0.16965200893658958
vn 0.6940352327523888 0.49999816767991356 0.5179931737147381
vn -0.6940352327523888 -0.49999816767991356 -0.5179931737147381
vn 0.739762164469491 -0.6511301447641533 0.16965103771809514
vn -0.739762164469491 0.6511301447641533 -0.16965103771809514
vn 0.6940357635555892 -0.4999988296601778 0.5179918235303165
vn -0.6940357635555892 0.4999988296601778 -0.5179918235303165
vn 0.8910051986612142 0 0.45399310122367503
vn -0.8910051986612142 0 -0.45399310122367503
usemtl material_0_0
f 1//1 2//2 3//3
f 2//2 1//1 4//4
f 3//5 2//6 1//7
f 4//8 1//7 2//6
f 2//2 5//9 3//3
f 3//5 5//10 2//6
f 3//3 6//11 1//1
f 1//7 6//12 3//5
f 1//1 7//13 4//4
f 4//8 7//14 1//7
f 8//15 2//15 4//15
f 4//16 2//16 8//16
f 5//9 2//2 9//17
f 9//18 2//6 5//10
f 10//19 3//3 5//9
f 5//10 3//5 10//20
f 6//11 3//3 11//21
f 11//22 3//5 6//12
f 12//23 1//1 6//11
f 6//12 1//7 12//24
f 7//13 1//1 13//25
f 13//26 1//7 7//14
f 14//15 4//15 7//15
f 7//16 4//16 14//16
f 15//15 2//15 8//15
f 8//16 2//16 15//16
f 8//15 4//15 14//15
f 14//16 4//16 8//16
f 15//15 9//15 2//15
f 2//16 9//16 15//16
f 16//14 5//9 9//17
f 9//18 5//10 16//13
f 3//3 10//19 11//21
f 11//22 10//20 3//5
f 5//9 17//27 10//19
f 10//20 17//28 5//10
f 11//16 18//16 6//16
f 6//15 18//15 11//15
f 1//1 12//23 13//25
f 13//26 12//24 1//7
f 6//16 18//16 12//16
f 12//15 18//15 6//15
f 13//25 14//29 7//13
f 7//14 14//30 13//26
f 19//31 15//8 8//6
f 8//2 15//4 19//32
f 14//29 19//31 8//6
f 8//2 19//32 14//30
f 9//15 15//15 16//15
f 16//16 15//16 9//16
f 5//9 16//14 20//33
f 20//34 16//13 5//10
f 10//16 21//16 11//16
f 11//15 21//15 10//15
f 17//27 5//9 20//33
f 20//34 5//10 17//28
f 22//16 10//16 17//16
f 17//15 10//15 22//15
f 11//16 21//16 18//16
f 18//15 21//15 11//15
f 12//23 23//35 13//25
f 13//26 23//36 12//24
f 23//35 12//23 18//37
f 18//38 12//24 23//36
f 14//29 13//25 23//35
f 23//36 13//26 14//30
f 15//8 19//31 24//39
f 24//40 19//32 15//4
f 19//31 14//29 23//35
f 23//36 14//30 19//32
f 15//8 20//33 16//14
f 16//13 20//34 15//4
f 10//16 22//16 21//16
f 21//15 22//15 10//15
f 24//39 17//27 20//33
f 20//34 17//28 24//40
f 17//27 24//39 22//41
f 22//42 24//40 17//28
f 21//43 23//35 18//37
f 18//38 23//36 21//44
f 21//43 24//39 19//31
f 19//32 24//40 21//44
f 20//33 15//8 24//39
f 24//40 15//4 20//34
f 23//35 21//43 19//31
f 19//32 21//44 23//36
f 24//39 21//43 22//41
f 22//42 21//44 24//40
