# SSTK version 0.8.0
# 27
mtllib original-27.mtl
o mesh71/mesh71-geometry#mesh71-geometry
v 0.010322 -0.338086 0.079782
v -0.281596 -0.359745 0.082590
v -0.281259 -0.363596 0.079782
v 0.009986 -0.334235 0.082590
v 0.010194 -0.336614 0.075237
v -0.281932 -0.355893 0.079782
v -0.281388 -0.362124 0.075237
v 0.009648 -0.330383 0.079782
v -0.281804 -0.357365 0.075237
v 0.009776 -0.331855 0.075237
vn 0.08289002770732264 -0.9474423166978065 0.3090021032889141
vn 9.99999999975e-7 -0.000007000000000047044 1
vn -0.08289002770732264 0.9474423166978065 -0.3090021032889141
vn -9.99999999975e-7 0.000007000000000047044 -1
vn 0.05122799133652776 -0.5855419009755041 -0.8090218631814704
vn -0.05122799133652776 0.5855419009755041 0.8090218631814704
vn -0.08288995763358581 0.9474375157491768 0.30901684205643387
vn 0.08288995763358581 -0.9474375157491768 -0.30901684205643387
vn -0.051228985959904265 0.5855488395212867 -0.8090167782764424
vn 0.051228985959904265 -0.5855488395212867 0.8090167782764424
usemtl material_0_0
f 1//1 2//2 3//1
f 2//2 1//1 4//2
f 3//3 2//4 1//3
f 4//4 1//3 2//4
f 3//1 5//5 1//1
f 1//3 5//6 3//3
f 4//2 6//7 2//2
f 2//4 6//8 4//4
f 5//5 3//1 7//5
f 7//6 3//3 5//6
f 6//7 4//2 8//7
f 8//8 4//4 6//8
f 9//9 5//5 7//5
f 7//6 5//6 9//10
f 8//7 9//9 6//7
f 6//8 9//10 8//8
f 5//5 9//9 10//9
f 10//10 9//10 5//6
f 9//9 8//7 10//9
f 10//10 8//8 9//10
