# SSTK version 0.8.0
# 21
mtllib original-21.mtl
o mesh40/mesh40-geometry#mesh40-geometry
v 0.497208 -0.791095 0.219219
v 0.551885 -0.791095 0.236984
v 0.524546 -0.803001 0.228102
v 0.485884 -0.762349 0.215539
v 0.546859 -0.791095 0.252450
v 0.519521 -0.803001 0.243566
v 0.480858 -0.762349 0.231005
v 0.563208 -0.762349 0.240664
v 0.492182 -0.791095 0.234683
v 0.497208 -0.733603 0.219219
v 0.517009 -0.794871 0.251298
v 0.558183 -0.762349 0.256130
v 0.495138 -0.785345 0.244192
v 0.486079 -0.762349 0.241249
v 0.492182 -0.733603 0.234683
v 0.551885 -0.733603 0.236984
v 0.538880 -0.785345 0.258406
v 0.546859 -0.733603 0.252450
v 0.519521 -0.721697 0.243566
v 0.524546 -0.721697 0.228102
v 0.547939 -0.762349 0.261349
v 0.495138 -0.739353 0.244192
v 0.538880 -0.739353 0.258406
v 0.517009 -0.729828 0.251298
vn 0.3090168573056278 0 -0.9510565608316645
vn -0.3090168573056278 0 0.9510565608316645
vn 0.49876120319410866 -0.6511302652688963 0.5720722330608449
vn 0 -1 0
vn 0.6724991525561137 -0.707106160406697 0.21850804956844724
vn -0.6724991525561137 0.707106160406697 -0.21850804956844724
vn 0 1 0
vn -0.49876120319410866 0.6511302652688963 -0.5720722330608449
vn -0.12050002086982217 -0.9208371594830246 0.3708620642309043
vn -0.6724986770278804 -0.7071066604071581 -0.2185078950600792
vn 0.6724986770278804 0.7071066604071581 0.2185078950600792
vn 0.12050002086982217 0.9208371594830246 -0.3708620642309043
vn -0.9962685922223673 0 0.08630696467413505
vn -0.9510565608316645 0 -0.3090168573056278
vn 0.9510565608316645 0 0.3090168573056278
vn 0.9962685922223673 0 -0.08630696467413505
vn -0.739762164469491 -0.6511301447641533 0.16965103771809514
vn 0.739762164469491 0.6511301447641533 -0.16965103771809514
vn -0.6724981292820615 0.7071071359353495 -0.21850804200631763
vn 0.6724981292820615 -0.7071071359353495 0.21850804200631763
vn -0.21850886243702417 -0.7071045548399928 0.6725005766250414
vn 0.21850886243702417 0.7071045548399928 -0.6725005766250414
vn 0.7552680434732297 0 0.6554160377257481
vn -0.7552680434732297 0 -0.6554160377257481
vn -0.6940357635555892 -0.4999988296601778 0.5179918235303165
vn 0.6940357635555892 0.4999988296601778 -0.5179918235303165
vn -0.8910051986612142 0 0.45399310122367503
vn 0.8910051986612142 0 -0.45399310122367503
vn -0.7397620389677061 0.6511300342989265 0.16965200893658958
vn 0.7397620389677061 -0.6511300342989265 -0.16965200893658958
vn 0.2570179822131997 -0.4999979653978922 0.8270089427672616
vn -0.2570179822131997 0.4999979653978922 -0.8270089427672616
vn 0.4987609178665526 0.6511298927751935 0.5720729057939021
vn -0.4987609178665526 -0.6511298927751935 -0.5720729057939021
vn -0.1205010063495597 0.9208370485216678 0.3708620195418332
vn 0.1205010063495597 -0.9208370485216678 -0.3708620195418332
vn 0.45398671983353195 0 0.89100845013658
vn -0.45398671983353195 0 -0.89100845013658
vn -0.6940352327523888 0.49999816767991356 0.5179931737147381
vn 0.6940352327523888 -0.49999816767991356 -0.5179931737147381
vn 0.2570170482711474 0.49999809390615063 0.8270091553230852
vn -0.2570170482711474 -0.49999809390615063 -0.8270091553230852
vn -0.21850901694559346 0.7071040548366286 0.6725010521531314
vn 0.21850901694559346 -0.7071040548366286 -0.6725010521531314
usemtl material_0_0
f 1//1 2//1 3//1
f 2//1 1//1 4//1
f 3//2 2//2 1//2
f 4//2 1//2 2//2
f 5//3 3//4 2//5
f 2//6 3//7 5//8
f 6//9 1//10 3//4
f 3//7 1//11 6//12
f 1//10 7//13 4//14
f 4//15 7//16 1//11
f 2//1 4//1 8//1
f 8//2 4//2 2//2
f 3//4 5//3 6//9
f 6//12 5//8 3//7
f 8//15 5//3 2//5
f 2//6 5//8 8//14
f 1//10 6//9 9//17
f 9//18 6//12 1//11
f 7//13 1//10 9//17
f 9//18 1//11 7//16
f 7//13 10//19 4//14
f 4//15 10//20 7//16
f 8//1 4//1 10//1
f 10//2 4//2 8//2
f 5//3 11//21 6//9
f 6//12 11//22 5//8
f 5//3 8//15 12//23
f 12//24 8//14 5//8
f 6//9 13//25 9//17
f 9//18 13//26 6//12
f 9//17 14//27 7//13
f 7//16 14//28 9//18
f 10//19 7//13 15//29
f 15//30 7//16 10//20
f 8//1 10//1 16//1
f 16//2 10//2 8//2
f 11//21 5//3 17//31
f 17//32 5//8 11//22
f 13//25 6//9 11//21
f 11//22 6//12 13//26
f 8//15 18//33 12//23
f 12//24 18//34 8//14
f 12//23 17//31 5//3
f 5//8 17//32 12//24
f 14//27 9//17 13//25
f 13//26 9//18 14//28
f 14//27 15//29 7//13
f 7//16 15//30 14//28
f 19//35 10//19 15//29
f 15//30 10//20 19//36
f 16//1 10//1 20//1
f 20//2 10//2 16//2
f 18//33 8//15 16//11
f 16//10 8//14 18//34
f 17//2 13//2 11//2
f 11//1 13//1 17//1
f 18//33 21//37 12//23
f 12//24 21//38 18//34
f 17//31 12//23 21//37
f 21//38 12//24 17//32
f 13//2 21//2 14//2
f 14//1 21//1 13//1
f 15//29 14//27 22//39
f 22//40 14//28 15//30
f 10//19 19//35 20//7
f 20//4 19//36 10//20
f 22//39 19//35 15//29
f 15//30 19//36 22//40
f 20//7 18//33 16//11
f 16//10 18//34 20//4
f 13//2 17//2 21//2
f 21//1 17//1 13//1
f 21//37 18//33 23//41
f 23//42 18//34 21//38
f 14//2 21//2 23//2
f 23//1 21//1 14//1
f 14//2 23//2 22//2
f 22//1 23//1 14//1
f 18//33 20//7 19//35
f 19//36 20//4 18//34
f 19//35 22//39 24//43
f 24//44 22//40 19//36
f 18//33 24//43 23//41
f 23//42 24//44 18//34
f 22//2 23//2 24//2
f 24//1 23//1 22//1
f 24//43 18//33 19//35
f 19//36 18//34 24//44
