# SSTK version 0.8.0
# 19
mtllib original-19.mtl
o mesh38/mesh38-geometry#mesh38-geometry
v -0.515817 -0.791095 0.188288
v -0.570494 -0.791095 0.206053
v -0.543156 -0.803001 0.197169
v -0.504493 -0.762349 0.184608
v -0.548181 -0.803001 0.181705
v -0.520842 -0.791095 0.172822
v -0.581818 -0.762349 0.209732
v -0.575519 -0.791095 0.190589
v -0.509517 -0.762349 0.169144
v -0.515817 -0.733603 0.188288
v -0.586843 -0.762349 0.194267
v -0.572564 -0.785345 0.181079
v -0.550693 -0.794871 0.173973
v -0.528822 -0.785345 0.166866
v -0.520842 -0.733603 0.172822
v -0.570494 -0.733603 0.206053
v -0.581623 -0.762349 0.184022
v -0.519763 -0.762349 0.163922
v -0.528822 -0.739353 0.166866
v -0.543156 -0.721697 0.197169
v -0.575519 -0.733603 0.190589
v -0.550693 -0.729828 0.173973
v -0.548181 -0.721697 0.181705
v -0.572564 -0.739353 0.181079
vn 0.3090168573056278 0 0.9510565608316645
vn -0.3090168573056278 0 -0.9510565608316645
vn -0.6724991525561137 -0.707106160406697 0.21850804956844724
vn -0.12050002086982217 -0.9208371594830244 -0.37086206423090473
vn 0 -1 0
vn 0 1 0
vn 0.12050002086982217 0.9208371594830244 0.37086206423090473
vn 0.6724991525561137 0.707106160406697 -0.21850804956844724
vn 0.4987619544311148 -0.6511299405101666 -0.572071947733221
vn 0.6724986770278804 -0.7071066604071581 -0.2185078950600792
vn -0.6724986770278804 0.7071066604071581 0.2185078950600792
vn -0.4987619544311148 0.6511299405101666 0.572071947733221
vn 0.9510565608316645 0 -0.3090168573056278
vn -0.9510565608316645 0 0.3090168573056278
vn -0.7397620389677061 -0.6511300342989265 -0.16965200893658958
vn 0.7397620389677061 0.6511300342989265 0.16965200893658958
vn 0.7552680434732297 0 -0.6554160377257481
vn -0.7552680434732297 0 0.6554160377257481
vn -0.9962685062369973 0 -0.08630795722470815
vn 0.9962685062369973 0 0.08630795722470815
vn -0.6940352327523888 -0.49999816767991356 -0.5179931737147381
vn 0.6940352327523888 0.49999816767991356 0.5179931737147381
vn -0.2185079101834345 -0.7071047093482042 -0.672500723571997
vn 0.2185079101834345 0.7071047093482042 0.672500723571997
vn 0.257019000202274 -0.4999990003934991 -0.8270080006508553
vn -0.257019000202274 0.4999990003934991 0.8270080006508553
vn 0.49876120319410866 0.6511302652688963 -0.5720722330608449
vn -0.49876120319410866 -0.6511302652688963 0.5720722330608449
vn 0.6724981292820615 0.7071071359353495 -0.21850804200631763
vn -0.6724981292820615 -0.7071071359353495 0.21850804200631763
vn -0.8910047941507406 0 -0.4539938951135755
vn 0.8910047941507406 0 0.4539938951135755
vn 0.45398791823496737 0 -0.8910078395259385
vn -0.45398791823496737 0 0.8910078395259385
vn 0.2570179822131997 0.4999979653978922 -0.8270089427672616
vn -0.2570179822131997 -0.4999979653978922 0.8270089427672616
vn -0.7397620389677061 0.6511300342989265 -0.1696520089365893
vn 0.7397620389677061 -0.6511300342989265 0.1696520089365893
vn -0.21850886999807723 0.7071035793084971 -0.6725015998949558
vn 0.21850886999807723 -0.7071035793084971 0.6725015998949558
vn -0.12050002086982217 0.9208371594830246 -0.3708620642309043
vn 0.12050002086982217 -0.9208371594830246 0.3708620642309043
vn -0.6940348732466874 0.49999790868414035 -0.5179939053974865
vn 0.6940348732466874 -0.49999790868414035 0.5179939053974865
usemtl material_0_0
f 1//1 2//1 3//1
f 2//1 1//1 4//1
f 3//2 2//2 1//2
f 4//2 1//2 2//2
f 2//3 5//4 3//5
f 3//6 5//7 2//8
f 3//5 6//9 1//10
f 1//11 6//12 3//6
f 6//9 4//13 1//10
f 1//11 4//14 6//12
f 2//1 4//1 7//1
f 7//2 4//2 2//2
f 5//4 2//3 8//15
f 8//16 2//8 5//7
f 6//9 3//5 5//4
f 5//7 3//6 6//12
f 4//13 6//9 9//17
f 9//18 6//12 4//14
f 7//1 4//1 10//1
f 10//2 4//2 7//2
f 11//19 2//3 7//14
f 7//13 2//8 11//20
f 2//3 11//19 8//15
f 8//16 11//20 2//8
f 12//21 5//4 8//15
f 8//16 5//7 12//22
f 13//23 6//9 5//4
f 5//7 6//12 13//24
f 14//25 9//17 6//9
f 6//12 9//18 14//26
f 15//27 4//13 9//17
f 9//18 4//14 15//28
f 4//13 15//27 10//29
f 10//30 15//28 4//14
f 7//1 10//1 16//1
f 16//2 10//2 7//2
f 16//11 11//19 7//14
f 7//13 11//20 16//10
f 17//31 8//15 11//19
f 11//20 8//16 17//32
f 5//4 12//21 13//23
f 13//24 12//22 5//7
f 8//15 17//31 12//21
f 12//22 17//32 8//16
f 6//9 13//23 14//25
f 14//26 13//24 6//12
f 9//17 14//25 18//33
f 18//34 14//26 9//18
f 9//17 19//35 15//27
f 15//28 19//36 9//18
f 15//27 20//6 10//29
f 10//30 20//5 15//28
f 16//1 10//1 20//1
f 20//2 10//2 16//2
f 11//19 16//11 21//37
f 21//38 16//10 11//20
f 21//37 17//31 11//19
f 11//20 17//32 21//38
f 12//2 14//2 13//2
f 13//1 14//1 12//1
f 14//2 12//2 17//2
f 17//1 12//1 14//1
f 14//2 17//2 18//2
f 18//1 17//1 14//1
f 19//35 9//17 18//33
f 18//34 9//18 19//36
f 22//39 15//27 19//35
f 19//36 15//28 22//40
f 20//6 15//27 23//41
f 23//42 15//28 20//5
f 23//41 16//11 20//6
f 20//5 16//10 23//42
f 16//11 23//41 21//37
f 21//38 23//42 16//10
f 17//31 21//37 24//43
f 24//44 21//38 17//32
f 18//2 17//2 24//2
f 24//1 17//1 18//1
f 18//2 24//2 19//2
f 19//1 24//1 18//1
f 15//27 22//39 23//41
f 23//42 22//40 15//28
f 19//2 24//2 22//2
f 22//1 24//1 19//1
f 23//41 24//43 21//37
f 21//38 24//44 23//42
f 24//43 23//41 22//39
f 22//40 23//42 24//44
