# SSTK version 0.8.0
# 37
mtllib original-37.mtl
o mesh81/mesh81-geometry#mesh81-geometry
v -0.429582 -0.067587 0.558674
v -0.429908 -0.071318 0.565164
v -0.428984 -0.059942 0.566341
v -0.429654 -0.067585 0.566341
v -0.429017 -0.061121 0.554928
v -0.429654 -0.067585 0.571481
v -0.426200 -0.058897 0.567626
v -0.428984 -0.059942 0.558669
v -0.429908 -0.071318 0.572657
v -0.426200 -0.058897 0.570195
v -0.428363 -0.053658 0.554928
v -0.428984 -0.059942 0.571481
v -0.428537 -0.054823 0.558669
v -0.425976 -0.056337 0.567626
v -0.429582 -0.067587 0.579146
v -0.428984 -0.059942 0.579151
v -0.425976 -0.056337 0.570195
v -0.428537 -0.054823 0.566341
v -0.429017 -0.061121 0.582893
v -0.427868 -0.047181 0.566341
v -0.427797 -0.047192 0.558674
v -0.428537 -0.054823 0.579151
v -0.427868 -0.047181 0.571481
v -0.427472 -0.043460 0.565164
v -0.428363 -0.053658 0.582893
v -0.428537 -0.054823 0.571481
v -0.427472 -0.043460 0.572657
v -0.427797 -0.047192 0.579146
vn -0.9966854805889591 0.08127995764189586 -0.0034089982234402245
vn 0.9966854805889591 -0.08127995764189586 0.0034089982234402245
vn -0.9943694578266967 0.08700004005648067 -0.060501027855829136
vn 0.9943694578266967 -0.08700004005648067 0.060501027855829136
vn -0.9964684093762113 0.08376103441130155 -0.005899002423469948
vn 0.9964684093762113 -0.08376103441130155 0.005899002423469948
vn -0.9976750857377064 0.06815000585664138 0
vn 0.9976750857377064 -0.06815000585664138 0
vn -0.43019984234856445 0.0376389862067818 0.9019486694710491
vn 0.43019984234856445 -0.0376389862067818 -0.9019486694710491
vn -0.9996430906306457 0.026715002422062376 0
vn 0.9996430906306457 -0.026715002422062376 0
vn -0.9292800242653603 0.36937600964514644 0
vn 0.9292800242653603 -0.36937600964514644 0
vn -0.3516880902022038 0.9361172400986568 0
vn 0.3516880902022038 -0.9361172400986568 0
vn -0.9960141213817583 0.08713501061892656 -0.019062002323038688
vn 0.9960141213817583 -0.08713501061892656 0.019062002323038688
vn -0.9943644914384208 0.08699904299698215 0.06058402994205875
vn 0.9943644914384208 -0.08699904299698215 -0.06058402994205875
vn -0.43064281938219506 0.03767798419731061 -0.9017356217990843
vn 0.43064281938219506 -0.03767798419731061 0.9017356217990843
vn -0.9542962328168176 0.0834850203675924 0.28696507001001587
vn 0.9542962328168176 -0.0834850203675924 -0.28696507001001587
vn -0.9961954594285164 0.0871470401907427 0
vn 0.9961954594285164 -0.0871470401907427 0
vn -0.9966855615989819 0.08127896424872393 0.0034089985005216765
vn 0.9966855615989819 -0.08127896424872393 -0.0034089985005216765
vn -0.9890976757120165 0.14726095171866413 0
vn 0.9890976757120165 -0.14726095171866413 0
vn -0.9964684869623109 0.08376004093253689 0.005900002883261332
vn 0.9964684869623109 -0.08376004093253689 -0.005900002883261332
vn -0.9542962328168174 0.08348502036759252 -0.28696507001001575
vn 0.9542962328168174 -0.08348502036759252 0.28696507001001575
vn -0.5088940838461595 -0.8608291418315124 0
vn 0.5088940838461595 0.8608291418315124 0
vn -0.9793039704049449 -0.2023949938835222 0
vn 0.9793039704049449 0.2023949938835222 0
vn -0.9958746303647675 0.09054796639163447 -0.0058979978108611815
vn 0.9958746303647675 -0.09054796639163447 0.0058979978108611815
vn -0.9960141213817583 0.08713501061892656 0.01906200232303873
vn 0.9960141213817583 -0.08713501061892656 -0.01906200232303873
vn -0.4301990598039114 0.037637005232089626 0.9019491253840154
vn 0.4301990598039114 -0.037637005232089626 -0.9019491253840154
vn -0.9956573836039638 0.09303103584272532 -0.0034060013122542
vn 0.9956573836039638 -0.09303103584272532 0.0034060013122542
vn -0.994370476792803 0.08699604171391606 -0.06049002900449193
vn 0.994370476792803 -0.08699604171391606 0.06049002900449193
vn -0.43064203728585054 0.037676003262064064 -0.9017360780741166
vn 0.43064203728585054 -0.037676003262064064 0.9017360780741166
vn -0.9943521545894556 0.10613101649992508 0
vn 0.9943521545894556 -0.10613101649992508 0
vn -0.9943654510810624 0.08699503946417765 0.060574027478626356
vn 0.9943654510810624 -0.08699503946417765 -0.060574027478626356
vn -0.9958745343157324 0.0905489576580949 0.0058989972415499185
vn 0.9958745343157324 -0.0905489576580949 -0.0058989972415499185
vn -0.9956573802122544 0.09303103552581485 0.00340700130103356
vn 0.9956573802122544 -0.09303103552581485 -0.00340700130103356
usemtl material_0_0
f 1//1 2//1 3//1
f 3//2 2//2 1//2
f 2//3 4//3 3//3
f 3//4 4//4 2//4
f 5//5 1//5 3//5
f 3//6 1//6 5//6
f 2//7 6//7 4//7
f 4//8 6//8 2//8
f 7//9 3//9 4//9
f 4//10 3//10 7//10
f 5//11 3//11 8//11
f 8//12 3//12 5//12
f 6//7 2//7 9//7
f 9//8 2//8 6//8
f 10//13 4//13 6//13
f 6//14 4//14 10//14
f 7//15 8//15 3//15
f 3//16 8//16 7//16
f 4//13 10//13 7//13
f 7//14 10//14 4//14
f 8//17 11//17 5//17
f 5//18 11//18 8//18
f 6//19 9//19 12//19
f 12//20 9//20 6//20
f 10//21 6//21 12//21
f 12//22 6//22 10//22
f 7//23 13//23 8//23
f 8//24 13//24 7//24
f 10//25 14//25 7//25
f 7//26 14//26 10//26
f 11//17 8//17 13//17
f 13//18 8//18 11//18
f 12//27 9//27 15//27
f 15//28 9//28 12//28
f 10//15 12//15 16//15
f 16//16 12//16 10//16
f 13//23 7//23 14//23
f 14//24 7//24 13//24
f 14//25 10//25 17//25
f 17//26 10//26 14//26
f 11//29 13//29 18//29
f 18//30 13//30 11//30
f 12//31 15//31 19//31
f 19//32 15//32 12//32
f 12//11 19//11 16//11
f 16//12 19//12 12//12
f 16//33 17//33 10//33
f 10//34 17//34 16//34
f 14//35 18//35 13//35
f 13//36 18//36 14//36
f 17//37 20//37 14//37
f 14//38 20//38 17//38
f 11//39 18//39 21//39
f 21//40 18//40 11//40
f 19//41 22//41 16//41
f 16//42 22//42 19//42
f 17//33 16//33 22//33
f 22//34 16//34 17//34
f 20//43 18//43 14//43
f 14//44 18//44 20//44
f 20//37 17//37 23//37
f 23//38 17//38 20//38
f 21//45 18//45 24//45
f 24//46 18//46 21//46
f 22//41 19//41 25//41
f 25//42 19//42 22//42
f 17//35 22//35 26//35
f 26//36 22//36 17//36
f 24//47 18//47 20//47
f 20//48 18//48 24//48
f 23//49 17//49 26//49
f 26//50 17//50 23//50
f 23//51 24//51 20//51
f 20//52 24//52 23//52
f 26//29 22//29 25//29
f 25//30 22//30 26//30
f 26//53 27//53 23//53
f 23//54 27//54 26//54
f 24//51 23//51 27//51
f 27//52 23//52 24//52
f 26//55 25//55 28//55
f 28//56 25//56 26//56
f 26//57 28//57 27//57
f 27//58 28//58 26//58
