# SSTK version 0.8.0
# 44
mtllib original-44.mtl
o mesh88/mesh88-geometry#mesh88-geometry
v 0.417335 -0.129448 0.139638
v 0.380057 -0.130032 0.133064
v 0.417335 -0.138297 0.134529
v 0.380057 -0.123722 0.136705
v 0.417335 -0.138297 0.124313
v 0.417335 -0.120599 0.134529
v 0.380057 -0.130032 0.125779
v 0.380057 -0.117413 0.133064
v 0.417335 -0.129448 0.119203
v 0.440931 -0.119202 0.124137
v 0.380057 -0.123722 0.122137
v 0.380057 -0.117413 0.125779
vn -0.14341998144941542 -0.4947919360013888 0.8570948891394973
vn 0.14341998144941542 0.4947919360013888 -0.8570948891394973
vn -0.21647291652264766 -0.9762886235187722 0
vn 0.21647291652264766 0.9762886235187722 0
vn 0.04247999494725977 0.7827919068916047 0.6208319261557719
vn 0.00866200195185676 0.49994611265561983 0.8660131951435385
vn -0.00866200195185676 -0.49994611265561983 -0.8660131951435385
vn -0.04247999494725977 -0.7827919068916047 -0.6208319261557719
vn 0.039910003944046465 0.9042580893619535 0.42511704201155626
vn -0.039910003944046465 -0.9042580893619535 -0.42511704201155626
vn -0.14344603958300767 -0.49484613654959353 -0.8570592364999582
vn 0.14344603958300767 0.49484613654959353 0.8570592364999582
vn 0.05038498029491671 0.9880656135770006 0.14555994307290043
vn -0.05038498029491671 -0.9880656135770006 -0.14555994307290043
vn 0.02937601269044022 0.9995684318136556 0
vn -0.02937601269044022 -0.9995684318136556 0
vn -0.0010299997762155781 0.4770568963515293 -0.8788718090506187
vn 0.008647000056841055 0.4999900032866844 -0.865988005692572
vn -0.008647000056841055 -0.4999900032866844 0.865988005692572
vn 0.0010299997762155781 -0.4770568963515293 0.8788718090506187
vn -0.010704997533113887 0.4537478954372128 -0.8910657946605941
vn 0.010704997533113887 -0.4537478954372128 0.8910657946605941
usemtl material_0_0
f 1//1 2//1 3//1
f 2//1 1//1 4//1
f 3//2 2//2 1//2
f 4//2 1//2 2//2
f 2//3 5//3 3//3
f 3//4 5//4 2//4
f 6//5 4//6 1//6
f 1//7 4//7 6//8
f 5//3 2//3 7//3
f 7//4 2//4 5//4
f 4//6 6//5 8//9
f 8//10 6//8 4//7
f 7//11 9//11 5//11
f 5//12 9//12 7//12
f 10//13 8//9 6//5
f 6//8 8//10 10//14
f 9//11 7//11 11//11
f 11//12 7//12 9//12
f 10//13 12//15 8//9
f 8//10 12//16 10//14
f 12//17 9//17 11//18
f 11//19 9//20 12//20
f 12//17 10//21 9//17
f 9//20 10//22 12//20
