mtllib new-7.mtl
v -0.472655 0.004134 0.033242
v -0.472655 0.004134 0.112558
v -0.471163 0.200159 0.094225
v -0.389186 -0.053844 0.043622
v -0.485256 0.003956 0.111981
v -0.510475 0.003598 0.112321
v -0.471163 0.200159 0.172849
v -0.510475 0.200159 0.094225
v -0.389186 -0.053844 0.129362
v -0.411613 -0.086132 0.039271
v -0.411613 -0.086132 0.122537
v -0.485263 0.003956 0.033033
v -0.510475 0.003598 0.033696
v -0.471163 0.235098 0.135754
v -0.455438 0.294817 -0.115314
v -0.368025 -0.064240 0.048822
v -0.379578 -0.101816 0.045848
v -0.497869 0.003777 0.111903
v -0.510475 0.200159 0.172849
v -0.455438 0.303505 0.279536
v -0.455438 0.305942 -0.103090
v -0.526200 0.294817 -0.115314
v -0.362249 -0.105837 0.140034
v -0.362249 -0.065825 0.140034
v -0.497873 0.003777 0.033174
v -0.526200 0.293305 0.291537
v -0.455438 0.293305 0.291537
v -0.510475 0.235098 0.135754
v -0.526200 0.305942 -0.103090
v -0.344331 -0.067894 0.055956
v -0.344331 -0.107206 0.055956
v -0.526200 0.303505 0.279536
v -0.344331 -0.067894 0.151510
v -0.344331 -0.107206 0.151510
v -0.340115 -0.067894 0.057375
v -0.340115 -0.107206 0.057375
vn -0.999971 0.007613 0.000000
vn 0.999971 -0.007613 0.000000
vn -0.570481 -0.821311 0.000000
vn 0.570481 0.821311 0.000000
vn 0.014102 -0.999901 0.000000
vn -0.014102 0.999901 0.000000
vn -0.014177 0.999900 0.000000
vn 0.014177 -0.999900 0.000000
vn 0.000000 -0.297054 0.954861
vn 0.000000 0.297054 -0.954861
vn -0.145386 -0.032272 0.988849
vn 0.145386 0.032272 -0.988849
vn 0.046716 -0.078497 -0.995819
vn -0.046716 0.078497 0.995819
vn 0.014093 -0.999901 -0.000001
vn -0.014093 0.999901 0.000001
vn 0.001833 0.293963 -0.955815
vn -0.001833 -0.293963 0.955815
vn -1.000000 0.000000 0.000000
vn 1.000000 0.000000 0.000000
vn 0.015655 -0.294263 0.955596
vn -0.015655 0.294263 -0.955596
vn 0.000000 0.911326 0.411685
vn 0.000000 -0.911326 -0.411685
vn 0.228362 0.046925 -0.972445
vn -0.228362 -0.046925 0.972445
vn -0.440933 -0.897540 0.000000
vn 0.440933 0.897540 0.000000
vn -0.017335 0.054957 0.998338
vn 0.017335 -0.054957 -0.998338
vn -0.198429 0.005750 0.980098
vn 0.198429 -0.005750 -0.980098
vn 0.007760 -0.110116 -0.993888
vn -0.007760 0.110116 0.993888
vn 0.014207 -0.999899 -0.000001
vn -0.014207 0.999899 0.000001
vn 0.672076 0.740483 0.000000
vn -0.672076 -0.740483 0.000000
vn 0.014221 -0.999899 0.000000
vn -0.014221 0.999899 0.000000
vn 0.000000 0.294299 -0.955713
vn 0.000000 -0.294299 0.955713
vn -0.994431 0.076717 0.072258
vn 0.994431 -0.076717 -0.072258
vn -0.997154 0.057693 -0.048538
vn 0.997154 -0.057693 0.048538
vn -0.997236 0.054954 -0.050013
vn 0.997236 -0.054954 0.050013
vn 0.324817 -0.025783 -0.945425
vn -0.324817 0.025783 0.945425
vn -0.409706 -0.912162 0.010092
vn 0.409706 0.912162 -0.010092
vn -0.240042 -0.003018 0.970758
vn 0.240042 0.003018 -0.970758
vn 0.010091 0.077283 0.996958
vn -0.010091 -0.077283 -0.996958
vn 0.439721 0.898134 0.000000
vn -0.439721 -0.898134 0.000000
vn -0.030723 -0.146428 -0.988744
vn 0.030723 0.146428 0.988744
vn 0.014210 -0.999899 -0.000001
vn -0.014210 0.999899 0.000001
vn 0.039664 0.105431 0.993635
vn -0.039664 -0.105431 -0.993635
vn 0.014227 -0.999899 -0.000001
vn -0.014227 0.999899 0.000001
vn 0.000000 0.786668 -0.617376
vn 0.000000 -0.786668 0.617376
vn -0.994391 0.080596 0.068494
vn 0.994391 -0.080596 -0.068494
vn 0.000000 -0.903010 0.429620
vn 0.000000 0.903010 -0.429620
vn 0.000000 -0.958716 -0.284366
vn 0.000000 0.958716 0.284366
vn 0.000000 -0.739576 0.673073
vn 0.000000 0.739576 -0.673073
vn 0.997236 0.054954 -0.050013
vn -0.997236 -0.054954 0.050013
vn 0.368348 0.000000 -0.929688
vn -0.368348 0.000000 0.929688
vn 0.379842 0.924551 -0.030416
vn -0.379842 -0.924551 0.030416
vn -0.150170 -0.988630 -0.007671
vn 0.150170 0.988630 0.007671
vn -0.274479 0.008298 0.961557
vn 0.274479 -0.008298 -0.961557
vn 0.994391 0.080596 0.068494
vn -0.994391 -0.080596 -0.068494
vn 0.000000 -0.761999 -0.647579
vn 0.000000 0.761999 0.647579
vn 0.997154 0.057693 -0.048538
vn -0.997154 -0.057693 0.048538
vn 0.539326 0.000000 -0.842097
vn -0.539326 0.000000 0.842097
vn 0.146899 0.989035 0.015195
vn -0.146899 -0.989035 -0.015195
vn -0.114725 -0.993397 0.000000
vn 0.114725 0.993397 0.000000
vn -0.288316 0.000000 0.957535
vn 0.288316 0.000000 -0.957535
vn 0.994431 0.076717 0.072258
vn -0.994431 -0.076717 -0.072258
vn 0.076215 0.997091 0.000000
vn -0.076215 -0.997091 0.000000
vn 0.000000 -1.000000 0.000000
vn 0.000000 1.000000 0.000000
vn -0.318878 0.000000 0.947796
vn 0.318878 0.000000 -0.947796
usemtl material-0
f 1//1 2//1 3//1
f 3//2 2//2 1//2
f 1//2 3//2 2//2
f 2//1 3//1 1//1
f 4//3 2//3 1//3
f 1//4 2//4 4//4
f 4//4 1//4 2//4
f 2//3 1//3 4//3
f 2//5 5//5 1//5
f 1//6 5//6 2//6
f 1//6 5//6 2//6
f 2//5 5//5 1//5
f 1//7 6//7 2//7
f 2//8 6//8 1//8
f 2//8 6//8 1//8
f 1//7 6//7 2//7
f 3//1 2//1 7//1
f 7//2 2//2 3//2
f 3//2 7//2 2//2
f 2//1 7//1 3//1
f 8//9 1//9 3//9
f 3//10 1//10 8//10
f 3//10 1//10 8//10
f 8//9 1//9 3//9
f 9//3 2//3 4//3
f 4//4 2//4 9//4
f 4//4 2//4 9//4
f 9//3 2//3 4//3
f 1//11 10//11 4//11
f 4//12 10//12 1//12
f 1//12 4//12 10//12
f 10//11 4//11 1//11
f 2//13 11//13 5//13
f 5//14 11//14 2//14
f 2//14 5//14 11//14
f 11//13 5//13 2//13
f 1//15 5//15 12//15
f 12//16 5//16 1//16
f 1//16 12//16 5//16
f 5//15 12//15 1//15
f 1//7 13//7 6//7
f 6//8 13//8 1//8
f 1//8 6//8 13//8
f 13//7 6//7 1//7
f 7//17 2//17 6//17
f 6//18 2//18 7//18
f 7//18 6//18 2//18
f 2//17 6//17 7//17
f 3//19 7//19 14//19
f 14//20 7//20 3//20
f 3//20 14//20 7//20
f 7//19 14//19 3//19
f 8//21 13//21 1//21
f 1//22 13//22 8//22
f 8//22 1//22 13//22
f 13//21 1//21 8//21
f 15//23 8//23 3//23
f 3//24 8//24 15//24
f 15//24 3//24 8//24
f 8//23 3//23 15//23
f 2//25 9//25 11//25
f 11//26 9//26 2//26
f 2//26 11//26 9//26
f 9//25 11//25 2//25
f 16//27 9//27 4//27
f 4//28 9//28 16//28
f 16//28 4//28 9//28
f 9//27 4//27 16//27
f 1//29 12//29 10//29
f 10//30 12//30 1//30
f 1//30 10//30 12//30
f 12//29 10//29 1//29
f 4//31 10//31 17//31
f 17//32 10//32 4//32
f 4//32 17//32 10//32
f 10//31 17//31 4//31
f 5//33 11//33 18//33
f 18//34 11//34 5//34
f 5//34 18//34 11//34
f 11//33 18//33 5//33
f 5//35 18//35 12//35
f 12//36 18//36 5//36
f 5//36 12//36 18//36
f 18//35 12//35 5//35
f 13//20 8//20 6//20
f 6//19 8//19 13//19
f 13//19 6//19 8//19
f 8//20 6//20 13//20
f 10//37 13//37 6//37
f 6//38 13//38 10//38
f 10//38 6//38 13//38
f 13//37 6//37 10//37
f 18//39 6//39 13//39
f 13//40 6//40 18//40
f 18//40 13//40 6//40
f 6//39 13//39 18//39
f 7//41 6//41 19//41
f 19//42 6//42 7//42
f 19//42 6//42 7//42
f 7//41 6//41 19//41
f 14//43 7//43 20//43
f 20//44 7//44 14//44
f 14//44 20//44 7//44
f 7//43 20//43 14//43
f 21//45 3//45 14//45
f 14//46 3//46 21//46
f 21//46 14//46 3//46
f 3//45 14//45 21//45
f 15//23 22//23 8//23
f 8//24 22//24 15//24
f 15//24 8//24 22//24
f 22//23 8//23 15//23
f 15//47 3//47 21//47
f 21//48 3//48 15//48
f 15//48 21//48 3//48
f 3//47 21//47 15//47
f 9//49 23//49 11//49
f 11//50 23//50 9//50
f 9//50 11//50 23//50
f 23//49 11//49 9//49
f 24//51 9//51 16//51
f 16//52 9//52 24//52
f 24//52 16//52 9//52
f 9//51 16//51 24//51
f 4//53 17//53 16//53
f 16//54 17//54 4//54
f 4//54 16//54 17//54
f 17//53 16//53 4//53
f 12//55 25//55 10//55
f 10//56 25//56 12//56
f 12//56 10//56 25//56
f 25//55 10//55 12//55
f 17//57 10//57 11//57
f 11//58 10//58 17//58
f 17//58 11//58 10//58
f 10//57 11//57 17//57
f 18//59 11//59 6//59
f 6//60 11//60 18//60
f 18//60 6//60 11//60
f 11//59 6//59 18//59
f 12//61 18//61 25//61
f 25//62 18//62 12//62
f 12//62 25//62 18//62
f 18//61 25//61 12//61
f 8//20 19//20 6//20
f 6//19 19//19 8//19
f 8//19 6//19 19//19
f 19//20 6//20 8//20
f 25//63 13//63 10//63
f 10//64 13//64 25//64
f 25//64 10//64 13//64
f 13//63 10//63 25//63
f 10//37 6//37 11//37
f 11//38 6//38 10//38
f 11//38 6//38 10//38
f 10//37 6//37 11//37
f 18//65 13//65 25//65
f 25//66 13//66 18//66
f 18//66 25//66 13//66
f 13//65 25//65 18//65
f 7//67 19//67 26//67
f 26//68 19//68 7//68
f 7//68 26//68 19//68
f 19//67 26//67 7//67
f 7//69 27//69 20//69
f 20//70 27//70 7//70
f 7//70 20//70 27//70
f 27//69 20//69 7//69
f 20//71 28//71 14//71
f 14//72 28//72 20//72
f 20//72 14//72 28//72
f 28//71 14//71 20//71
f 21//73 14//73 29//73
f 29//74 14//74 21//74
f 21//74 29//74 14//74
f 14//73 29//73 21//73
f 21//75 22//75 15//75
f 15//76 22//76 21//76
f 15//76 22//76 21//76
f 21//75 22//75 15//75
f 22//77 29//77 8//77
f 8//78 29//78 22//78
f 22//78 8//78 29//78
f 29//77 8//77 22//77
f 9//79 24//79 23//79
f 23//80 24//80 9//80
f 9//80 23//80 24//80
f 24//79 23//79 9//79
f 23//81 17//81 11//81
f 11//82 17//82 23//82
f 23//82 11//82 17//82
f 17//81 11//81 23//81
f 30//83 24//83 16//83
f 16//84 24//84 30//84
f 30//84 16//84 24//84
f 24//83 16//83 30//83
f 16//85 17//85 31//85
f 31//86 17//86 16//86
f 16//86 31//86 17//86
f 17//85 31//85 16//85
f 8//20 28//20 19//20
f 19//19 28//19 8//19
f 8//19 19//19 28//19
f 28//20 19//20 8//20
f 19//87 32//87 26//87
f 26//88 32//88 19//88
f 19//88 26//88 32//88
f 32//87 26//87 19//87
f 27//67 7//67 26//67
f 26//68 7//68 27//68
f 27//68 26//68 7//68
f 7//67 26//67 27//67
f 27//89 32//89 20//89
f 20//90 32//90 27//90
f 20//90 32//90 27//90
f 27//89 32//89 20//89
f 20//71 32//71 28//71
f 28//72 32//72 20//72
f 20//72 28//72 32//72
f 32//71 28//71 20//71
f 14//73 28//73 29//73
f 29//74 28//74 14//74
f 14//74 29//74 28//74
f 28//73 29//73 14//73
f 21//75 29//75 22//75
f 22//76 29//76 21//76
f 21//76 22//76 29//76
f 29//75 22//75 21//75
f 29//91 28//91 8//91
f 8//92 28//92 29//92
f 29//92 8//92 28//92
f 28//91 8//91 29//91
f 24//93 33//93 23//93
f 23//94 33//94 24//94
f 24//94 23//94 33//94
f 33//93 23//93 24//93
f 31//95 17//95 23//95
f 23//96 17//96 31//96
f 31//96 23//96 17//96
f 17//95 23//95 31//95
f 33//97 24//97 30//97
f 30//98 24//98 33//98
f 30//98 24//98 33//98
f 33//97 24//97 30//97
f 16//99 31//99 30//99
f 30//100 31//100 16//100
f 16//100 30//100 31//100
f 31//99 30//99 16//99
f 28//101 32//101 19//101
f 19//102 32//102 28//102
f 28//102 19//102 32//102
f 32//101 19//101 28//101
f 27//89 26//89 32//89
f 32//90 26//90 27//90
f 27//90 32//90 26//90
f 26//89 32//89 27//89
f 31//103 23//103 34//103
f 34//104 23//104 31//104
f 34//104 23//104 31//104
f 31//103 23//103 34//103
f 35//105 33//105 30//105
f 30//106 33//106 35//106
f 35//106 30//106 33//106
f 33//105 30//105 35//105
f 30//107 31//107 36//107
f 36//108 31//108 30//108
f 30//108 36//108 31//108
f 31//107 36//107 30//107