mtllib new-2.mtl
v -0.058210 -0.637626 0.012059
v -0.044215 -0.637016 0.026365
v -0.054920 -0.565534 0.008810
v -0.032372 -0.638235 0.009894
v -0.009040 -0.563423 -0.013783
v -0.017606 -0.565515 -0.018202
v -0.063526 -0.637804 -0.001306
v -0.024491 -0.643498 -0.029821
v -0.024491 -0.567836 -0.025020
v -0.059307 -0.567878 0.000065
v -0.013422 -0.640806 -0.020474
v -0.337810 -0.734315 -0.388596
v -0.336250 -0.683996 -0.389728
v -0.329350 -0.734315 -0.394743
v -0.309728 -0.683996 -0.408999
v -0.329350 -0.683996 -0.394743
v -0.316628 -0.734315 -0.403986
v -0.316628 -0.683996 -0.403986
v -0.308168 -0.734315 -0.410131
v -0.320325 -0.734315 -0.409074
v -0.239532 -0.646885 -0.271118
v -0.333046 -0.734315 -0.399831
v -0.226811 -0.646885 -0.280361
v -0.240405 -0.640773 -0.272320
v -0.320325 -0.679050 -0.409074
v -0.333046 -0.679050 -0.399831
v -0.227683 -0.640773 -0.281563
vn 0.000000 1.000000 0.000000
vn 0.000000 -1.000000 0.000000
vn 0.927830 -0.058936 -0.368318
vn -0.927830 0.058936 0.368318
vn -0.110460 0.982176 -0.152082
vn 0.110460 -0.982176 0.152082
vn 0.897731 -0.045573 -0.438180
vn -0.897731 0.045573 0.438180
vn -0.110519 0.982166 -0.152102
vn 0.110519 -0.982166 0.152102
vn -0.447764 -0.051825 0.892649
vn 0.447764 0.051825 -0.892649
vn -0.695172 -0.045520 0.717401
vn 0.695172 0.045520 -0.717401
vn 0.819947 -0.038272 -0.571159
vn -0.819947 0.038272 0.571159
vn 0.819949 -0.038292 -0.571155
vn -0.819949 0.038292 0.571155
vn -0.110511 0.982166 -0.152109
vn 0.110511 -0.982166 0.152109
vn -0.635718 -0.058560 0.769697
vn 0.635718 0.058560 -0.769697
vn 0.138739 -0.971754 0.190910
vn -0.138739 0.971754 -0.190910
vn -0.796581 -0.038281 0.603318
vn 0.796581 0.038281 -0.603318
vn 0.138724 -0.971754 0.190919
vn -0.138724 0.971754 -0.190919
vn 0.819947 -0.038269 -0.571159
vn -0.819947 0.038269 0.571159
vn 0.587776 -0.000018 0.809024
vn -0.587776 0.000018 -0.809024
vn -0.796582 -0.038269 0.603318
vn 0.796582 0.038269 -0.603318
vn 0.587821 0.000020 0.808991
vn -0.587821 -0.000020 -0.808991
vn -0.587803 0.000000 -0.809004
vn 0.587803 0.000000 0.809004
vn -0.138721 0.971753 -0.190924
vn 0.138721 -0.971753 0.190924
vn -0.809027 0.000000 0.587771
vn 0.809027 0.000000 -0.587771
vn 0.809022 -0.000015 -0.587778
vn -0.809022 0.000015 0.587778
vn -0.809022 0.000012 0.587779
vn 0.809022 -0.000012 -0.587779
vn -0.571189 -0.236075 -0.786138
vn 0.571189 0.236075 0.786138
vn 0.809022 -0.000013 -0.587779
vn -0.809022 0.000013 0.587779
vn -0.571190 -0.236073 -0.786137
vn 0.571190 0.236073 0.786137
usemtl material-0
f 7//3 3//3 1//3
f 1//4 3//4 7//4
f 7//4 1//4 3//4
f 3//3 1//3 7//3
f 8//5 2//5 4//5
f 4//6 2//6 8//6
f 8//6 4//6 2//6
f 2//5 4//5 8//5
f 7//7 10//7 3//7
f 3//8 10//8 7//8
f 7//8 3//8 10//8
f 10//7 3//7 7//7
f 8//9 12//9 2//9
f 2//10 12//10 8//10
f 8//10 2//10 12//10
f 12//9 2//9 8//9
f 5//11 6//11 11//11
f 11//12 6//12 5//12
f 5//12 11//12 6//12
f 6//11 11//11 5//11
f 6//13 9//13 8//13
f 8//14 9//14 6//14
f 6//14 8//14 9//14
f 9//13 8//13 6//13
f 13//15 10//15 7//15
f 7//16 10//16 13//16
f 13//16 7//16 10//16
f 10//15 7//15 13//15
f 12//17 7//17 2//17
f 2//18 7//18 12//18
f 12//18 2//18 7//18
f 7//17 2//17 12//17
f 8//19 14//19 12//19
f 12//20 14//20 8//20
f 14//20 8//20 12//20
f 12//19 8//19 14//19
f 6//21 8//21 11//21
f 11//22 8//22 6//22
f 6//22 11//22 8//22
f 8//21 11//21 6//21
f 9//23 10//23 15//23
f 15//24 10//24 9//24
f 9//24 15//24 10//24
f 10//23 15//23 9//23
f 15//25 8//25 9//25
f 9//26 8//26 15//26
f 15//26 9//26 8//26
f 8//25 9//25 15//25
f 16//27 10//27 13//27
f 13//28 10//28 16//28
f 10//28 16//28 13//28
f 13//27 16//27 10//27
f 13//29 7//29 12//29
f 12//30 7//30 13//30
f 13//30 12//30 7//30
f 7//29 12//29 13//29
f 14//19 8//19 17//19
f 17//20 8//20 14//20
f 8//20 14//20 17//20
f 17//19 14//19 8//19
f 14//31 13//31 12//31
f 12//32 13//32 14//32
f 13//32 14//32 12//32
f 12//31 14//31 13//31
f 10//27 18//27 15//27
f 15//28 18//28 10//28
f 18//28 10//28 15//28
f 15//27 10//27 18//27
f 19//33 8//33 15//33
f 15//34 8//34 19//34
f 19//34 15//34 8//34
f 8//33 15//33 19//33
f 10//27 16//27 18//27
f 18//28 16//28 10//28
f 16//28 10//28 18//28
f 18//27 10//27 16//27
f 13//35 18//35 16//35
f 16//36 18//36 13//36
f 15//36 13//36 16//36
f 16//35 13//35 15//35
f 17//19 8//19 19//19
f 19//20 8//20 17//20
f 8//20 17//20 19//20
f 19//19 17//19 8//19
f 17//1 20//1 14//1
f 14//2 20//2 17//2
f 17//2 14//2 20//2
f 20//1 14//1 17//1
f 18//37 17//37 14//37
f 14//38 17//38 18//38
f 18//38 14//38 17//38
f 17//37 14//37 18//37
f 17//31 13//31 14//31
f 14//32 13//32 17//32
f 14//32 13//32 17//32
f 17//31 13//31 14//31
f 13//35 15//35 18//35
f 18//36 15//36 13//36
f 15//36 16//36 18//36
f 18//35 16//35 15//35
f 15//35 13//35 19//35
f 19//36 13//36 15//36
f 13//36 15//36 19//36
f 19//35 15//35 13//35
f 18//37 14//37 16//37
f 16//38 14//38 18//38
f 16//38 14//38 18//38
f 18//37 14//37 16//37
f 21//39 18//39 16//39
f 16//40 18//40 21//40
f 21//40 16//40 18//40
f 18//39 16//39 21//39
f 13//31 17//31 19//31
f 19//32 17//32 13//32
f 17//32 13//32 19//32
f 19//31 13//31 17//31
f 20//41 17//41 18//41
f 18//42 17//42 20//42
f 20//42 18//42 17//42
f 17//41 18//41 20//41
f 20//1 22//1 14//1
f 14//2 22//2 20//2
f 20//2 14//2 22//2
f 22//1 14//1 20//1
f 22//42 16//42 14//42
f 14//41 16//41 22//41
f 22//41 14//41 16//41
f 16//42 14//42 22//42
f 23//39 18//39 21//39
f 21//40 18//40 23//40
f 23//40 21//40 18//40
f 18//39 21//39 23//39
f 16//43 24//43 21//43
f 21//44 24//44 16//44
f 16//44 21//44 24//44
f 24//43 21//43 16//43
f 20//41 18//41 25//41
f 25//42 18//42 20//42
f 25//42 18//42 20//42
f 20//41 18//41 25//41
f 26//38 22//38 20//38
f 20//37 22//37 26//37
f 26//37 20//37 22//37
f 22//38 20//38 26//38
f 26//42 16//42 22//42
f 22//41 16//41 26//41
f 22//41 16//41 26//41
f 26//42 16//42 22//42
f 18//45 23//45 27//45
f 27//46 23//46 18//46
f 18//46 27//46 23//46
f 23//45 27//45 18//45
f 27//47 23//47 21//47
f 21//48 23//48 27//48
f 27//48 21//48 23//48
f 23//47 21//47 27//47
f 26//49 24//49 16//49
f 16//50 24//50 26//50
f 26//50 16//50 24//50
f 24//49 16//49 26//49
f 27//51 21//51 24//51
f 24//52 21//52 27//52
f 24//52 21//52 27//52
f 27//51 21//51 24//51
f 25//45 18//45 27//45
f 27//46 18//46 25//46
f 25//46 27//46 18//46
f 18//45 27//45 25//45
f 26//38 20//38 25//38
f 25//37 20//37 26//37
f 25//37 20//37 26//37
f 26//38 20//38 25//38
f 27//40 24//40 26//40
f 26//39 24//39 27//39
f 27//39 26//39 24//39
f 24//40 26//40 27//40
f 27//40 26//40 25//40
f 25//39 26//39 27//39
f 27//39 25//39 26//39
f 26//40 25//40 27//40