mtllib new-5.mtl
v -0.079353 -0.643498 0.046235
v -0.032014 -0.637016 0.082357
v -0.064297 -0.637804 0.092172
v -0.044018 -0.638235 0.066003
v -0.066176 -0.565515 0.043279
v -0.041798 -0.658328 0.070337
v -0.067044 -0.640806 0.038598
v -0.032050 -0.635918 0.082324
v -0.023955 -0.658328 0.088180
v -0.048328 -0.637846 0.046180
v -0.049943 -0.637626 0.091245
v -0.042402 -0.563427 0.088631
v -0.059326 -0.563423 0.036495
v 0.049166 -0.658328 0.045963
v -0.059469 -0.638702 0.026354
v -0.036737 -0.638702 0.096862
v -0.048328 -0.658328 0.045963
v 0.042636 -0.658328 0.070337
v -0.038725 -0.560523 0.061262
v -0.054871 -0.561757 0.027998
v 0.042636 -0.658328 0.021590
v 0.024793 -0.658328 0.088180
v 0.048149 -0.638235 0.055870
v -0.033753 -0.561757 0.092996
v -0.035111 -0.557670 0.034360
v -0.021596 -0.557670 0.076169
v -0.053393 -0.563427 0.018424
v -0.041798 -0.658328 0.021590
v 0.000419 -0.658328 0.094710
v 0.039983 -0.637846 0.074440
v -0.027048 -0.563423 0.099859
v -0.058210 -0.637626 0.012059
v -0.023955 -0.658328 0.003747
v -0.044215 -0.637016 0.026365
v 0.005747 -0.638235 0.094418
v 0.050668 -0.640806 0.091577
v -0.027435 -0.640806 0.107849
v 0.022344 -0.557670 0.076235
v -0.026135 -0.560512 0.013445
v -0.054920 -0.565534 0.008810
v -0.044196 -0.635918 0.026320
v 0.024793 -0.658328 0.003747
v -0.032372 -0.638235 0.009894
v 0.025010 -0.637016 0.088054
v -0.014438 -0.637846 0.092391
v 0.037344 -0.638702 0.097030
v 0.003715 -0.560621 0.088324
v -0.022714 -0.565515 0.108470
v 0.035984 -0.557670 0.034465
v 0.000474 -0.557670 0.008585
v -0.009040 -0.563423 -0.013783
v -0.017606 -0.565515 -0.018202
v -0.063526 -0.637804 -0.001306
v 0.000419 -0.658328 -0.002784
v -0.014851 -0.637846 -0.000331
v -0.024491 -0.643498 -0.029821
v -0.023974 -0.643498 0.121915
v 0.052718 -0.565515 0.087279
v 0.043189 -0.563423 0.088740
v 0.027766 -0.563427 0.099873
v 0.040710 -0.560466 0.056983
v -0.021203 -0.560779 0.008513
v -0.024491 -0.567836 -0.025020
v -0.059307 -0.567878 0.000065
v -0.013422 -0.640806 -0.020474
v 0.034591 -0.561757 0.092996
v 0.023351 -0.565534 0.108548
v -0.021152 -0.567836 0.118032
v 0.060141 -0.563427 0.036613
v 0.002714 -0.559028 0.003329
v -0.001769 -0.559025 0.003311
v -0.021203 -0.375630 0.008513
v 0.000562 -0.638702 -0.017054
v 0.024368 -0.637804 0.121792
v 0.079937 -0.637804 0.046619
v 0.067027 -0.565534 0.043493
v 0.027922 -0.637626 0.107853
v 0.055709 -0.561757 0.027998
v 0.022041 -0.560779 0.008513
v 0.000439 -0.558825 0.002720
v -0.037031 -0.559921 0.024342
v 0.000419 -0.561757 -0.012173
v 0.005314 -0.635918 -0.002537
v 0.024966 -0.635918 0.088079
v 0.054318 -0.563423 0.018506
v 0.060397 -0.638702 0.026626
v 0.009981 -0.563427 -0.013725
v 0.022041 -0.375630 0.008513
v -0.037031 -0.375630 0.024342
v 0.014548 -0.637626 -0.020273
v 0.067780 -0.637626 0.038931
v 0.037869 -0.559928 0.024342
v 0.000419 -0.375630 0.002720
v -0.037031 -0.375630 0.067585
v -0.042825 -0.375630 0.045963
v 0.025615 -0.637804 -0.029460
v 0.059328 -0.640806 0.012268
v 0.048059 -0.635918 0.035632
v 0.037869 -0.375630 0.024342
v 0.000419 -0.375630 0.089207
v -0.021203 -0.375630 0.083414
v -0.042825 -0.560322 0.045963
v 0.018654 -0.565534 -0.018149
v 0.039728 -0.637846 0.017135
v 0.043662 -0.560318 0.045963
v 0.022041 -0.375630 0.083414
v -0.037031 -0.560605 0.067585
v 0.024590 -0.638235 0.003630
v 0.064797 -0.643498 -0.001145
v 0.043662 -0.375630 0.045963
v 0.037869 -0.375630 0.067585
v -0.021203 -0.559082 0.083414
v 0.022041 -0.559419 0.083414
v 0.000419 -0.560836 0.089207
v 0.005265 -0.637016 -0.002542
v 0.037869 -0.560607 0.067585
vn 0.000000 1.000000 0.000000
vn 0.000000 -1.000000 0.000000
vn -0.178752 0.982182 0.058020
vn 0.178752 -0.982182 -0.058020
vn 0.806900 -0.037973 -0.589466
vn -0.806900 0.037973 0.589466
vn -0.178777 0.982175 0.058066
vn 0.178777 -0.982175 -0.058066
vn -0.289825 -0.038321 -0.956312
vn 0.289825 0.038321 0.956312
vn 0.705169 0.073987 -0.705169
vn -0.705169 -0.073987 0.705169
vn -0.178856 0.982156 0.058134
vn 0.178856 -0.982156 -0.058134
vn -0.178853 0.982157 0.058127
vn 0.178853 -0.982157 -0.058127
vn 0.000013 0.982161 0.188044
vn -0.000013 -0.982161 -0.188044
vn 0.224475 -0.971747 -0.072929
vn -0.224475 0.971747 0.072929
vn 0.853676 -0.071125 0.515925
vn -0.853676 0.071125 -0.515925
vn 0.385459 -0.071581 -0.919944
vn -0.385459 0.071581 0.919944
vn -0.224478 0.971747 0.072926
vn 0.224478 -0.971747 -0.072926
vn 0.888939 -0.062809 0.453699
vn -0.888939 0.062809 -0.453699
vn -0.962952 0.078449 -0.258009
vn 0.962952 -0.078449 0.258009
vn 0.459276 -0.062326 -0.886105
vn -0.459276 0.062326 0.886105
vn -0.225213 0.971585 0.072810
vn 0.225213 -0.971585 -0.072810
vn 0.984671 -0.062319 0.162906
vn -0.984671 0.062319 -0.162906
vn 0.224468 -0.971748 -0.072933
vn -0.224468 0.971748 0.072933
vn -0.915029 -0.038074 -0.401587
vn 0.915029 0.038074 0.401587
vn 0.706172 -0.062818 -0.705248
vn -0.706172 0.062818 0.705248
vn 0.224761 -0.971630 -0.073604
vn -0.224761 0.971630 0.073604
vn 0.139455 -0.971629 0.191023
vn -0.139455 0.971629 -0.191023
vn 0.994042 -0.071578 0.082198
vn -0.994042 0.071578 -0.082198
vn 0.964648 0.051480 0.258464
vn -0.964648 -0.051480 -0.258464
vn -0.258422 0.054479 -0.964495
vn 0.258422 -0.054479 0.964495
vn -0.000012 -0.971748 -0.236021
vn 0.000012 0.971748 0.236021
vn 0.754482 -0.071138 -0.652454
vn -0.754482 0.071138 0.652454
vn -0.138847 0.971586 -0.191682
vn 0.138847 -0.971586 0.191682
vn 0.987996 -0.051644 -0.145591
vn -0.987996 0.051644 0.145591
vn -0.178847 0.982158 0.058140
vn 0.178847 -0.982158 -0.058140
vn 0.704860 0.079654 0.704860
vn -0.704860 -0.079654 -0.704860
vn 0.809932 -0.039283 0.585207
vn -0.809932 0.039283 -0.585207
vn -0.313553 -0.002412 -0.949568
vn 0.313553 0.002412 0.949568
vn 0.099059 -0.040737 -0.994247
vn -0.099059 0.040737 0.994247
vn 0.178869 0.982157 0.058085
vn -0.178869 -0.982157 -0.058085
vn -0.000010 0.971747 0.236026
vn 0.000010 -0.971747 -0.236026
vn 0.000025 0.982158 0.188060
vn -0.000025 -0.982158 -0.188060
vn -0.000350 0.971584 0.236695
vn 0.000350 -0.971584 -0.236695
vn -0.138766 0.971732 -0.191002
vn 0.138766 -0.971732 0.191002
vn 0.138722 -0.971749 0.190946
vn -0.138722 0.971749 -0.190946
vn -0.178765 0.982177 0.058057
vn 0.178765 -0.982177 -0.058057
vn 0.504189 -0.052483 0.861997
vn -0.504189 0.052483 -0.861997
vn -0.000044 0.982178 0.187952
vn 0.000044 -0.982178 -0.187952
vn 0.000015 0.982159 0.188052
vn -0.000015 -0.982159 -0.188052
vn 0.000005 -0.971748 -0.236020
vn -0.000005 0.971748 0.236020
vn 0.224997 0.971586 0.073463
vn -0.224997 -0.971586 -0.073463
vn -0.138714 0.971760 -0.190893
vn 0.138714 -0.971760 0.190893
vn 0.138735 -0.971744 0.190959
vn -0.138735 0.971744 -0.190959
vn 0.138633 -0.971786 0.190823
vn -0.138633 0.971786 -0.190823
vn 0.819957 -0.037827 -0.571174
vn -0.819957 0.037827 0.571174
vn -0.110555 0.982156 -0.152140
vn 0.110555 -0.982156 0.152140
vn -0.110459 0.982176 -0.152082
vn 0.110459 -0.982176 0.152082
vn -0.452548 -0.062823 -0.889524
vn 0.452548 0.062823 0.889524
vn 0.000005 -0.971748 -0.236021
vn -0.000005 0.971748 0.236021
vn -0.000553 -0.971629 -0.236510
vn 0.000553 0.971629 0.236510
vn 0.224483 0.971744 0.072949
vn -0.224483 -0.971744 -0.072949
vn 0.139395 0.971581 -0.191309
vn -0.139395 -0.971581 0.191309
vn 0.707106 0.000000 0.707108
vn -0.707106 0.000000 -0.707108
vn 0.138752 -0.971748 0.190928
vn -0.138752 0.971748 -0.190928
vn -0.110560 0.982156 -0.152140
vn 0.110560 -0.982156 0.152140
vn -0.224453 -0.971752 -0.072933
vn 0.224453 0.971752 0.072933
vn -0.224480 -0.971746 -0.072926
vn 0.224480 0.971746 0.072926
vn -0.700791 -0.062329 -0.710639
vn 0.700791 0.062329 0.710639
vn -0.884890 -0.051646 -0.462929
vn 0.884890 0.051646 0.462929
vn 0.000005 -0.971784 -0.235874
vn -0.000005 0.971784 0.235874
vn -0.225102 -0.971630 -0.072554
vn 0.225102 0.971630 0.072554
vn 0.138446 0.971558 -0.192114
vn -0.138446 -0.971558 0.192114
vn -0.139292 0.971758 -0.190482
vn 0.139292 -0.971758 0.190482
vn 0.258676 0.000016 0.965964
vn -0.258676 -0.000016 -0.965964
vn -0.138773 0.971733 -0.190988
vn 0.138773 -0.971733 0.190988
vn -0.138757 0.971721 -0.191060
vn 0.138757 -0.971721 0.191060
vn -0.226858 -0.071139 0.971326
vn 0.226858 0.071139 -0.971326
vn -0.110539 0.982161 -0.152121
vn 0.110539 -0.982161 0.152121
vn -0.999016 -0.039617 -0.019923
vn 0.999016 0.039617 0.019923
vn -0.755815 -0.071588 -0.650861
vn 0.755815 0.071588 0.650861
vn -0.967135 -0.058940 -0.247336
vn 0.967135 0.058940 0.247336
vn -0.138714 -0.971742 0.190988
vn 0.138714 0.971742 -0.190988
vn -0.892406 -0.062331 0.446907
vn 0.892406 0.062331 -0.446907
vn -0.138747 -0.971744 0.190950
vn 0.138747 0.971744 -0.190950
vn 0.139286 0.971613 -0.191227
vn -0.139286 -0.971613 0.191227
vn -0.258927 -0.000016 0.965897
vn 0.258927 0.000016 -0.965897
vn 0.138568 0.971642 -0.191602
vn -0.138568 -0.971642 0.191602
vn 0.138588 0.971657 -0.191512
vn -0.138588 -0.971657 0.191512
vn -0.156727 -0.062816 0.985642
vn 0.156727 0.062816 -0.985642
vn -0.110546 0.982161 -0.152119
vn 0.110546 -0.982161 0.152119
vn 0.178758 0.982176 0.058097
vn -0.178758 -0.982176 -0.058097
vn -0.713707 -0.051658 0.698537
vn 0.713707 0.051658 -0.698537
vn 0.178839 0.982162 0.058084
vn -0.178839 -0.982162 -0.058084
vn -0.985824 -0.062830 0.155575
vn 0.985824 0.062830 -0.155575
vn -0.852519 -0.071596 0.517770
vn 0.852519 0.071596 -0.517770
vn -0.707107 0.000000 0.707107
vn 0.707107 0.000000 -0.707107
vn 0.965931 0.000000 0.258799
vn -0.965931 0.000000 -0.258799
vn 0.149287 -0.062322 0.986828
vn -0.149287 0.062322 -0.986828
vn 0.228941 -0.071580 0.970805
vn -0.228941 0.071580 -0.970805
vn -0.110467 0.982176 -0.152079
vn 0.110467 -0.982176 0.152079
vn 0.110505 0.982159 -0.152157
vn -0.110505 -0.982159 0.152157
vn 0.443780 -0.051638 0.894647
vn -0.443780 0.051638 -0.894647
vn 0.637029 -0.058929 0.768584
vn -0.637029 0.058929 -0.768584
vn 0.110482 0.982185 -0.152006
vn -0.110482 -0.982185 0.152006
vn 0.110520 0.982159 -0.152149
vn -0.110520 -0.982159 0.152149
vn 0.110517 0.982160 -0.152141
vn -0.110517 -0.982160 0.152141
vn -0.965931 0.000000 0.258799
vn 0.965931 0.000000 -0.258799
vn 0.965931 0.000000 -0.258800
vn -0.965931 0.000000 0.258800
vn 0.110522 0.982160 -0.152142
vn -0.110522 -0.982160 0.152142
vn 0.258799 0.000000 -0.965931
vn -0.258799 0.000000 0.965931
vn -0.258798 0.000000 -0.965931
vn 0.258798 0.000000 0.965931
vn -0.665655 -0.002398 0.746256
vn 0.665655 0.002398 -0.746256
vn -0.707107 0.000000 -0.707107
vn 0.707107 0.000000 0.707107
vn 0.110506 0.982174 -0.152060
vn -0.110506 -0.982174 0.152060
usemtl material-0
f 2//3 4//3 1//3
f 1//4 4//4 2//4
f 2//4 1//4 4//4
f 4//3 1//3 2//3
f 4//5 2//5 6//5
f 6//6 2//6 4//6
f 4//6 6//6 2//6
f 2//5 6//5 4//5
f 4//7 7//7 1//7
f 1//8 7//8 4//8
f 4//8 1//8 7//8
f 7//7 1//7 4//7
f 8//9 2//9 3//9
f 3//10 2//10 8//10
f 8//10 3//10 2//10
f 2//9 3//9 8//9
f 6//11 2//11 9//11
f 9//12 2//12 6//12
f 6//12 9//12 2//12
f 2//11 9//11 6//11
f 4//13 10//13 7//13
f 7//14 10//14 4//14
f 4//14 7//14 10//14
f 10//13 7//13 4//13
f 14//1 6//1 9//1
f 9//2 6//2 14//2
f 14//2 9//2 6//2
f 6//1 9//1 14//1
f 10//15 15//15 7//15
f 7//16 15//16 10//16
f 10//16 7//16 15//16
f 15//15 7//15 10//15
f 8//17 11//17 16//17
f 16//18 11//18 8//18
f 8//18 16//18 11//18
f 11//17 16//17 8//17
f 12//19 5//19 13//19
f 13//20 5//20 12//20
f 12//20 13//20 5//20
f 5//19 13//19 12//19
f 15//21 13//21 7//21
f 7//22 13//22 15//22
f 15//22 7//22 13//22
f 13//21 7//21 15//21
f 14//1 17//1 6//1
f 6//2 17//2 14//2
f 14//2 6//2 17//2
f 17//1 6//1 14//1
f 14//1 9//1 18//1
f 18//2 9//2 14//2
f 14//2 18//2 9//2
f 9//1 18//1 14//1
f 12//23 16//23 11//23
f 11//24 16//24 12//24
f 12//24 11//24 16//24
f 16//23 11//23 12//23
f 19//25 13//25 12//25
f 12//26 13//26 19//26
f 15//27 20//27 13//27
f 13//28 20//28 15//28
f 15//28 13//28 20//28
f 20//27 13//27 15//27
f 14//1 21//1 17//1
f 17//2 21//2 14//2
f 14//2 17//2 21//2
f 21//1 17//1 14//1
f 18//1 9//1 22//1
f 22//2 9//2 18//2
f 18//2 22//2 9//2
f 9//1 22//1 18//1
f 14//29 18//29 23//29
f 23//30 18//30 14//30
f 14//30 23//30 18//30
f 18//29 23//29 14//29
f 24//31 16//31 12//31
f 12//32 16//32 24//32
f 24//32 12//32 16//32
f 16//31 12//31 24//31
f 13//25 19//25 25//25
f 25//26 19//26 13//26
f 26//33 19//33 12//33
f 12//34 19//34 26//34
f 27//35 20//35 15//35
f 15//36 20//36 27//36
f 27//36 15//36 20//36
f 20//35 15//35 27//35
f 25//37 13//37 20//37
f 20//38 13//38 25//38
f 25//38 20//38 13//38
f 13//37 20//37 25//37
f 21//1 28//1 17//1
f 17//2 28//2 21//2
f 21//2 17//2 28//2
f 28//1 17//1 21//1
f 22//1 9//1 29//1
f 29//2 9//2 22//2
f 22//2 29//2 9//2
f 9//1 29//1 22//1
f 23//39 18//39 30//39
f 30//40 18//40 23//40
f 23//40 30//40 18//40
f 18//39 30//39 23//39
f 24//41 31//41 16//41
f 16//42 31//42 24//42
f 24//42 16//42 31//42
f 31//41 16//41 24//41
f 26//43 24//43 12//43
f 12//44 24//44 26//44
f 26//44 12//44 24//44
f 24//43 12//43 26//43
f 19//33 26//33 25//33
f 25//34 26//34 19//34
f 25//45 20//45 27//45
f 27//46 20//46 25//46
f 25//46 27//46 20//46
f 20//45 27//45 25//45
f 32//47 27//47 15//47
f 15//48 27//48 32//48
f 32//48 15//48 27//48
f 27//47 15//47 32//47
f 21//1 33//1 28//1
f 28//2 33//2 21//2
f 21//2 28//2 33//2
f 33//1 28//1 21//1
f 28//49 34//49 17//49
f 17//50 34//50 28//50
f 28//50 17//50 34//50
f 34//49 17//49 28//49
f 35//51 22//51 29//51
f 29//52 22//52 35//52
f 35//52 29//52 22//52
f 22//51 29//51 35//51
f 26//53 31//53 24//53
f 24//54 31//54 26//54
f 26//54 24//54 31//54
f 31//53 24//53 26//53
f 16//55 31//55 37//55
f 37//56 31//56 16//56
f 16//56 37//56 31//56
f 31//55 37//55 16//55
f 38//2 26//2 25//2
f 25//1 26//1 38//1
f 38//1 25//1 26//1
f 26//2 25//2 38//2
f 25//57 39//57 27//57
f 27//58 39//58 25//58
f 40//59 27//59 32//59
f 32//60 27//60 40//60
f 40//60 32//60 27//60
f 27//59 32//59 40//59
f 41//61 32//61 15//61
f 15//62 32//62 41//62
f 41//62 15//62 32//62
f 32//61 15//61 41//61
f 21//1 42//1 33//1
f 33//2 42//2 21//2
f 21//2 33//2 42//2
f 42//1 33//1 21//1
f 33//63 43//63 28//63
f 28//64 43//64 33//64
f 33//64 28//64 43//64
f 43//63 28//63 33//63
f 43//65 34//65 28//65
f 28//66 34//66 43//66
f 43//66 28//66 34//66
f 34//65 28//65 43//65
f 44//67 22//67 35//67
f 35//68 22//68 44//68
f 44//68 35//68 22//68
f 22//67 35//67 44//67
f 45//69 35//69 29//69
f 29//70 35//70 45//70
f 45//70 29//70 35//70
f 35//69 29//69 45//69
f 36//71 30//71 46//71
f 46//72 30//72 36//72
f 36//72 46//72 30//72
f 30//71 46//71 36//71
f 31//73 47//73 26//73
f 26//74 47//74 31//74
f 45//75 16//75 37//75
f 37//76 16//76 45//76
f 45//76 37//76 16//76
f 16//75 37//75 45//75
f 47//77 38//77 26//77
f 26//78 38//78 47//78
f 49//2 38//2 25//2
f 25//1 38//1 49//1
f 49//1 25//1 38//1
f 38//2 25//2 49//2
f 39//57 25//57 50//57
f 50//58 25//58 39//58
f 39//79 51//79 27//79
f 27//80 51//80 39//80
f 52//81 27//81 40//81
f 40//82 27//82 52//82
f 52//82 40//82 27//82
f 27//81 40//81 52//81
f 41//83 53//83 32//83
f 32//84 53//84 41//84
f 41//84 32//84 53//84
f 53//83 32//83 41//83
f 42//1 54//1 33//1
f 33//2 54//2 42//2
f 42//2 33//2 54//2
f 54//1 33//1 42//1
f 55//85 43//85 33//85
f 33//86 43//86 55//86
f 55//86 33//86 43//86
f 43//85 33//85 55//85
f 44//87 35//87 57//87
f 57//88 35//88 44//88
f 44//88 57//88 35//88
f 35//87 57//87 44//87
f 35//89 45//89 37//89
f 37//90 45//90 35//90
f 35//90 37//90 45//90
f 45//89 37//89 35//89
f 47//73 31//73 60//73
f 60//74 31//74 47//74
f 60//91 48//91 31//91
f 31//92 48//92 60//92
f 60//92 31//92 48//92
f 48//91 31//91 60//91
f 38//77 47//77 60//77
f 60//78 47//78 38//78
f 61//93 49//93 38//93
f 38//94 49//94 61//94
f 49//2 25//2 50//2
f 50//1 25//1 49//1
f 49//1 50//1 25//1
f 25//2 50//2 49//2
f 50//95 62//95 39//95
f 39//96 62//96 50//96
f 50//95 62//95 39//95
f 39//96 62//96 50//96
f 51//79 39//79 62//79
f 62//80 39//80 51//80
f 51//97 27//97 52//97
f 52//98 27//98 51//98
f 51//98 52//98 27//98
f 27//97 52//97 51//97
f 52//99 40//99 63//99
f 63//100 40//100 52//100
f 52//100 63//100 40//100
f 40//99 63//99 52//99
f 53//101 41//101 34//101
f 34//102 41//102 53//102
f 53//102 34//102 41//102
f 41//101 34//101 53//101
f 65//103 43//103 55//103
f 55//104 43//104 65//104
f 65//104 55//104 43//104
f 43//103 55//103 65//103
f 65//105 56//105 43//105
f 43//106 56//106 65//106
f 65//106 43//106 56//106
f 56//105 43//105 65//105
f 66//107 59//107 46//107
f 46//108 59//108 66//108
f 66//108 46//108 59//108
f 59//107 46//107 66//107
f 60//109 67//109 48//109
f 48//110 67//110 60//110
f 60//110 48//110 67//110
f 67//109 48//109 60//109
f 66//111 60//111 38//111
f 38//112 60//112 66//112
f 66//112 38//112 60//112
f 60//111 38//111 66//111
f 49//93 61//93 69//93
f 69//94 61//94 49//94
f 59//113 61//113 38//113
f 38//114 61//114 59//114
f 49//115 70//115 50//115
f 50//116 70//116 49//116
f 49//115 70//115 50//115
f 50//116 70//116 49//116
f 62//95 50//95 71//95
f 71//96 50//96 62//96
f 62//95 50//95 71//95
f 71//96 50//96 62//96
f 72//117 39//117 62//117
f 62//118 39//118 72//118
f 51//79 62//79 71//79
f 71//80 62//80 51//80
f 63//119 40//119 64//119
f 64//120 40//120 63//120
f 63//120 64//120 40//120
f 40//119 64//119 63//119
f 73//121 65//121 55//121
f 55//122 65//122 73//122
f 73//122 55//122 65//122
f 65//121 55//121 73//121
f 69//123 58//123 59//123
f 59//124 58//124 69//124
f 69//124 59//124 58//124
f 58//123 59//123 69//123
f 59//125 66//125 38//125
f 38//126 66//126 59//126
f 59//126 38//126 66//126
f 66//125 38//125 59//125
f 66//127 46//127 60//127
f 60//128 46//128 66//128
f 66//128 60//128 46//128
f 46//127 60//127 66//127
f 60//129 77//129 67//129
f 67//130 77//130 60//130
f 60//130 67//130 77//130
f 77//129 67//129 60//129
f 67//131 68//131 48//131
f 48//132 68//132 67//132
f 67//132 48//132 68//132
f 68//131 48//131 67//131
f 61//113 59//113 69//113
f 69//114 59//114 61//114
f 69//133 49//133 78//133
f 78//134 49//134 69//134
f 69//134 78//134 49//134
f 49//133 78//133 69//133
f 70//115 49//115 79//115
f 79//116 49//116 70//116
f 70//115 49//115 79//115
f 79//116 49//116 70//116
f 70//135 80//135 50//135
f 50//136 80//136 70//136
f 70//135 80//135 50//135
f 50//136 80//136 70//136
f 50//137 80//137 71//137
f 71//138 80//138 50//138
f 50//137 80//137 71//137
f 71//138 80//138 50//138
f 71//139 72//139 62//139
f 62//140 72//140 71//140
f 39//117 72//117 81//117
f 81//118 72//118 39//118
f 71//141 82//141 51//141
f 51//142 82//142 71//142
f 71//143 82//143 51//143
f 51//144 82//144 71//144
f 71//143 82//143 51//143
f 51//144 82//144 71//144
f 51//145 65//145 73//145
f 73//146 65//146 51//146
f 51//146 73//146 65//146
f 65//145 73//145 51//145
f 83//147 73//147 55//147
f 55//148 73//148 83//148
f 83//148 55//148 73//148
f 73//147 55//147 83//147
f 44//149 74//149 84//149
f 84//150 74//150 44//150
f 44//150 84//150 74//150
f 74//149 84//149 44//149
f 46//151 77//151 60//151
f 60//152 77//152 46//152
f 46//152 60//152 77//152
f 77//151 60//151 46//151
f 77//153 74//153 67//153
f 67//154 74//154 77//154
f 77//154 67//154 74//154
f 74//153 67//153 77//153
f 78//155 49//155 85//155
f 85//156 49//156 78//156
f 78//156 85//156 49//156
f 49//155 85//155 78//155
f 86//157 69//157 78//157
f 78//158 69//158 86//158
f 86//158 78//158 69//158
f 69//157 78//157 86//157
f 79//159 85//159 49//159
f 49//160 85//160 79//160
f 85//160 79//160 49//160
f 49//159 79//159 85//159
f 79//161 87//161 70//161
f 70//162 87//162 79//162
f 79//161 87//161 70//161
f 70//162 87//162 79//162
f 88//163 70//163 79//163
f 79//164 70//164 88//164
f 87//165 80//165 70//165
f 70//166 80//166 87//166
f 87//167 80//167 70//167
f 70//168 80//168 87//168
f 87//167 80//167 70//167
f 70//168 80//168 87//168
f 70//163 88//163 80//163
f 80//164 88//164 70//164
f 82//141 71//141 80//141
f 80//142 71//142 82//142
f 82//143 71//143 80//143
f 80//144 71//144 82//144
f 82//143 71//143 80//143
f 80//144 71//144 82//144
f 72//139 71//139 80//139
f 80//140 71//140 72//140
f 81//117 72//117 89//117
f 89//118 72//118 81//118
f 82//169 51//169 73//169
f 73//170 51//170 82//170
f 82//170 73//170 51//170
f 51//169 73//169 82//169
f 90//171 73//171 83//171
f 83//172 73//172 90//172
f 90//172 83//172 73//172
f 73//171 83//171 90//171
f 77//173 84//173 74//173
f 74//174 84//174 77//174
f 77//174 74//174 84//174
f 84//173 74//173 77//173
f 69//175 91//175 76//175
f 76//176 91//176 69//176
f 69//176 76//176 91//176
f 91//175 76//175 69//175
f 46//177 84//177 77//177
f 77//178 84//178 46//178
f 46//178 77//178 84//178
f 84//177 77//177 46//177
f 85//179 86//179 78//179
f 78//180 86//180 85//180
f 85//180 78//180 86//180
f 86//179 78//179 85//179
f 86//181 91//181 69//181
f 69//182 91//182 86//182
f 86//182 69//182 91//182
f 91//181 69//181 86//181
f 92//183 88//183 79//183
f 79//184 88//184 92//184
f 80//165 87//165 82//165
f 82//166 87//166 80//166
f 80//167 87//167 82//167
f 82//168 87//168 80//168
f 80//167 87//167 82//167
f 82//168 87//168 80//168
f 80//163 88//163 93//163
f 93//164 88//164 80//164
f 72//139 80//139 93//139
f 93//140 80//140 72//140
f 94//2 89//2 72//2
f 72//1 89//1 94//1
f 95//185 81//185 89//185
f 89//186 81//186 95//186
f 82//187 73//187 87//187
f 87//188 73//188 82//188
f 82//188 87//188 73//188
f 73//187 87//187 82//187
f 87//189 73//189 90//189
f 90//190 73//190 87//190
f 87//190 90//190 73//190
f 73//189 90//189 87//189
f 96//191 90//191 83//191
f 83//192 90//192 96//192
f 96//192 83//192 90//192
f 90//191 83//191 96//191
f 91//193 86//193 98//193
f 98//194 86//194 91//194
f 91//194 98//194 86//194
f 86//193 98//193 91//193
f 88//183 92//183 99//183
f 99//184 92//184 88//184
f 100//2 93//2 88//2
f 88//1 93//1 100//1
f 101//2 72//2 93//2
f 93//1 72//1 101//1
f 89//2 94//2 95//2
f 95//1 94//1 89//1
f 94//2 72//2 101//2
f 101//1 72//1 94//1
f 81//185 95//185 102//185
f 102//186 95//186 81//186
f 87//195 90//195 103//195
f 103//196 90//196 87//196
f 87//196 103//196 90//196
f 90//195 103//195 87//195
f 103//197 90//197 96//197
f 96//198 90//198 103//198
f 103//198 96//198 90//198
f 90//197 96//197 103//197
f 75//199 91//199 98//199
f 98//200 91//200 75//200
f 75//200 98//200 91//200
f 91//199 98//199 75//199
f 86//201 97//201 104//201
f 104//202 97//202 86//202
f 86//202 104//202 97//202
f 97//201 104//201 86//201
f 86//203 104//203 98//203
f 98//204 104//204 86//204
f 86//204 98//204 104//204
f 104//203 98//203 86//203
f 105//205 99//205 92//205
f 92//206 99//206 105//206
f 106//2 88//2 99//2
f 99//1 88//1 106//1
f 101//2 93//2 100//2
f 100//1 93//1 101//1
f 100//2 88//2 106//2
f 106//1 88//1 100//1
f 94//207 19//207 95//207
f 95//208 19//208 94//208
f 101//184 107//184 94//184
f 94//183 107//183 101//183
f 95//207 19//207 102//207
f 102//208 19//208 95//208
f 97//209 108//209 104//209
f 104//210 108//210 97//210
f 97//210 104//210 108//210
f 108//209 104//209 97//209
f 99//205 105//205 110//205
f 110//206 105//206 99//206
f 106//2 99//2 111//2
f 111//1 99//1 106//1
f 100//211 112//211 101//211
f 101//212 112//212 100//212
f 113//213 100//213 106//213
f 106//214 100//214 113//214
f 19//207 94//207 107//207
f 107//208 94//208 19//208
f 107//184 101//184 112//184
f 112//183 101//183 107//183
f 104//215 108//215 42//215
f 42//216 108//216 104//216
f 104//216 42//216 108//216
f 108//215 42//215 104//215
f 61//186 110//186 105//186
f 105//185 110//185 61//185
f 111//2 99//2 110//2
f 110//1 99//1 111//1
f 111//217 113//217 106//217
f 106//218 113//218 111//218
f 112//211 100//211 114//211
f 114//212 100//212 112//212
f 47//213 100//213 113//213
f 113//214 100//214 47//214
f 109//219 115//219 108//219
f 108//220 115//220 109//220
f 109//220 108//220 115//220
f 115//219 108//219 109//219
f 116//186 110//186 61//186
f 61//185 110//185 116//185
f 110//186 116//186 111//186
f 111//185 116//185 110//185
f 113//217 111//217 116//217
f 116//218 111//218 113//218
f 100//213 47//213 114//213
f 114//214 47//214 100//214