mtllib new-10.mtl
v 0.087214 0.197292 -0.317430
v -0.078259 -0.125943 -0.408659
v 0.077263 0.021662 -0.389068
v -0.077800 -0.089041 -0.403761
v 0.078638 -0.089041 -0.403761
v -0.077342 -0.052139 -0.398863
v -0.090373 -0.095877 -0.355737
v 0.079097 -0.125943 -0.408659
v 0.078180 -0.052139 -0.398863
v -0.089873 -0.059231 -0.350949
v -0.076885 -0.015239 -0.393966
v -0.090874 -0.132523 -0.360525
v 0.091711 -0.132523 -0.360525
v 0.077723 -0.015239 -0.393966
v 0.091211 -0.095877 -0.355737
v 0.090213 -0.022584 -0.346161
v -0.089375 -0.022584 -0.346161
v -0.076425 0.021662 -0.389068
v 0.090713 -0.059231 -0.350949
v -0.088875 0.014061 -0.341372
vn 0.000000 0.131570 -0.991307
vn 0.000000 -0.131570 0.991307
vn 0.967965 -0.044838 0.247051
vn -0.967965 0.044838 -0.247051
vn 0.968092 -0.044734 0.246569
vn -0.968092 0.044734 -0.246569
vn 0.967958 -0.045477 0.246958
vn -0.967958 0.045477 -0.246958
vn 0.967839 -0.045534 0.247417
vn -0.967839 0.045534 -0.247417
vn -0.967846 -0.044897 0.247506
vn 0.967846 0.044897 -0.247506
vn 0.000000 -0.990783 -0.135460
vn 0.000000 0.990783 0.135460
vn -0.967965 -0.044797 0.247057
vn 0.967965 0.044797 -0.247057
vn 0.968087 -0.045372 0.246474
vn -0.968087 0.045372 -0.246474
vn 0.000000 -0.129565 0.991571
vn 0.000000 0.129565 -0.991571
vn -0.968085 -0.044730 0.246600
vn 0.968085 0.044730 -0.246600
vn 0.968208 -0.045355 0.245999
vn -0.968208 0.045355 -0.245999
vn 0.968333 -0.044655 0.245637
vn -0.968333 0.044655 -0.245637
vn -0.968208 -0.045353 0.246000
vn 0.968208 0.045353 -0.246000
usemtl material-0
f 2//3 4//3 7//3
f 7//4 4//4 2//4
f 2//4 7//4 4//4
f 4//3 7//3 2//3
f 2//4 7//4 4//4
f 4//3 7//3 2//3
f 2//3 4//3 7//3
f 7//4 4//4 2//4
f 5//1 3//1 9//1
f 9//2 3//2 5//2
f 3//2 5//2 9//2
f 9//1 5//1 3//1
f 3//2 5//2 9//2
f 9//1 5//1 3//1
f 5//1 3//1 9//1
f 9//2 3//2 5//2
f 4//5 6//5 10//5
f 10//6 6//6 4//6
f 4//6 10//6 6//6
f 6//5 10//5 4//5
f 4//6 10//6 6//6
f 6//5 10//5 4//5
f 4//5 6//5 10//5
f 10//6 6//6 4//6
f 4//7 10//7 7//7
f 7//8 10//8 4//8
f 4//8 7//8 10//8
f 10//7 7//7 4//7
f 4//8 7//8 10//8
f 10//7 7//7 4//7
f 4//7 10//7 7//7
f 7//8 10//8 4//8
f 2//9 7//9 12//9
f 12//10 7//10 2//10
f 2//10 12//10 7//10
f 7//9 12//9 2//9
f 2//10 12//10 7//10
f 7//9 12//9 2//9
f 2//9 7//9 12//9
f 12//10 7//10 2//10
f 8//11 13//11 5//11
f 5//12 13//12 8//12
f 8//12 5//12 13//12
f 13//11 5//11 8//11
f 8//12 5//12 13//12
f 13//11 5//11 8//11
f 8//11 13//11 5//11
f 5//12 13//12 8//12
f 8//13 12//13 2//13
f 2//14 12//14 8//14
f 8//14 2//14 12//14
f 12//13 2//13 8//13
f 8//14 2//14 12//14
f 12//13 2//13 8//13
f 8//13 12//13 2//13
f 2//14 12//14 8//14
f 9//1 3//1 14//1
f 14//2 3//2 9//2
f 3//2 9//2 14//2
f 14//1 9//1 3//1
f 3//2 9//2 14//2
f 14//1 9//1 3//1
f 9//1 3//1 14//1
f 14//2 3//2 9//2
f 5//15 15//15 9//15
f 9//16 15//16 5//16
f 5//16 9//16 15//16
f 15//15 9//15 5//15
f 5//16 9//16 15//16
f 15//15 9//15 5//15
f 5//15 15//15 9//15
f 9//16 15//16 5//16
f 6//17 17//17 10//17
f 10//18 17//18 6//18
f 6//18 10//18 17//18
f 17//17 10//17 6//17
f 6//18 10//18 17//18
f 17//17 10//17 6//17
f 6//17 17//17 10//17
f 10//18 17//18 6//18
f 7//19 1//19 10//19
f 10//20 1//20 7//20
f 1//20 7//20 10//20
f 10//19 7//19 1//19
f 1//20 7//20 10//20
f 10//19 7//19 1//19
f 7//19 1//19 10//19
f 10//20 1//20 7//20
f 9//21 19//21 14//21
f 14//22 19//22 9//22
f 9//22 14//22 19//22
f 19//21 14//21 9//21
f 9//22 14//22 19//22
f 19//21 14//21 9//21
f 9//21 19//21 14//21
f 14//22 19//22 9//22
f 11//23 20//23 17//23
f 17//24 20//24 11//24
f 11//24 17//24 20//24
f 20//23 17//23 11//23
f 11//24 17//24 20//24
f 20//23 17//23 11//23
f 11//23 20//23 17//23
f 17//24 20//24 11//24
f 11//25 18//25 20//25
f 20//26 18//26 11//26
f 11//26 20//26 18//26
f 18//25 20//25 11//25
f 11//26 20//26 18//26
f 18//25 20//25 11//25
f 11//25 18//25 20//25
f 20//26 18//26 11//26
f 14//27 19//27 16//27
f 16//28 19//28 14//28
f 14//28 16//28 19//28
f 19//27 16//27 14//27
f 14//28 16//28 19//28
f 19//27 16//27 14//27
f 14//27 19//27 16//27
f 16//28 19//28 14//28
f 1//19 15//19 19//19
f 19//20 15//20 1//20
f 15//20 1//20 19//20
f 19//19 1//19 15//19
f 15//20 1//20 19//20
f 19//19 1//19 15//19
f 1//19 15//19 19//19
f 19//20 15//20 1//20