mtllib new-6.mtl
v -0.362249 -0.105837 0.140034
v -0.344331 -0.067894 0.055956
v -0.344331 -0.107206 0.055956
v -0.344331 -0.067894 0.151510
v -0.344331 -0.107206 0.151510
v -0.340115 -0.067894 0.057375
v -0.340115 -0.107206 0.057375
v -0.302200 -0.067894 0.185185
v -0.335912 -0.067894 0.058836
v -0.302200 -0.107206 0.185185
v -0.331724 -0.067894 0.060339
v -0.335912 -0.107206 0.058836
v -0.265582 -0.067894 0.224784
v -0.331724 -0.107206 0.060339
v -0.284685 -0.067894 0.087496
v -0.265582 -0.107206 0.224784
v -0.284685 -0.107206 0.087496
v -0.244121 -0.067894 0.123616
v -0.235297 -0.067894 0.269414
v -0.235297 -0.107206 0.269414
v -0.244121 -0.107206 0.123616
v -0.211710 -0.067894 0.167202
v -0.211710 -0.099344 0.269414
v -0.148810 -0.067894 0.269414
v -0.211710 -0.099344 0.167202
v -0.211710 -0.107206 0.269414
v -0.211710 -0.107206 0.167202
v -0.148810 -0.067894 0.167202
v -0.148810 -0.099344 0.167202
v -0.148810 -0.099344 0.269414
vn -1.000000 0.000000 0.000000
vn 1.000000 0.000000 0.000000
vn 0.539326 0.000000 -0.842097
vn -0.539326 0.000000 0.842097
vn 0.000000 -1.000000 0.000000
vn 0.000000 1.000000 0.000000
vn -0.318878 0.000000 0.947796
vn 0.318878 0.000000 -0.947796
vn 0.624364 0.000000 -0.781133
vn -0.624364 0.000000 0.781133
vn -0.328288 0.000000 0.944578
vn 0.328288 0.000000 -0.944578
vn 0.734192 0.000000 -0.678942
vn -0.734192 0.000000 0.678942
vn -0.337881 0.000000 0.941189
vn 0.337881 0.000000 -0.941189
vn -0.499982 0.000000 0.866036
vn 0.499982 0.000000 -0.866036
vn 0.827479 0.000000 -0.561497
vn -0.827479 0.000000 0.561497
vn -0.665014 0.000000 0.746831
vn 0.665014 0.000000 -0.746831
vn 0.000000 0.000000 -1.000000
vn 0.000000 0.000000 1.000000
vn -0.802460 0.000000 0.596706
vn 0.802460 0.000000 -0.596706
usemtl material-0
f 4//3 5//3 1//3
f 1//4 5//4 4//4
f 4//4 1//4 5//4
f 5//3 1//3 4//3
f 8//9 5//9 4//9
f 4//10 5//10 8//10
f 4//10 5//10 8//10
f 8//9 5//9 4//9
f 7//6 3//6 5//6
f 5//5 3//5 7//5
f 7//5 5//5 3//5
f 3//6 5//6 7//6
f 9//5 4//5 6//5
f 6//6 4//6 9//6
f 9//6 6//6 4//6
f 4//5 6//5 9//5
f 2//7 7//7 6//7
f 6//8 7//8 2//8
f 6//8 7//8 2//8
f 2//7 7//7 6//7
f 8//9 10//9 5//9
f 5//10 10//10 8//10
f 8//10 5//10 10//10
f 10//9 5//9 8//9
f 8//5 4//5 11//5
f 11//6 4//6 8//6
f 8//6 11//6 4//6
f 4//5 11//5 8//5
f 12//6 7//6 5//6
f 5//5 7//5 12//5
f 12//5 5//5 7//5
f 7//6 5//6 12//6
f 11//5 4//5 9//5
f 9//6 4//6 11//6
f 11//6 9//6 4//6
f 4//5 9//5 11//5
f 6//11 12//11 9//11
f 9//12 12//12 6//12
f 9//12 12//12 6//12
f 6//11 12//11 9//11
f 6//11 7//11 12//11
f 12//12 7//12 6//12
f 6//12 12//12 7//12
f 7//11 12//11 6//11
f 8//13 13//13 10//13
f 10//14 13//14 8//14
f 10//14 13//14 8//14
f 8//13 13//13 10//13
f 10//6 14//6 5//6
f 5//5 14//5 10//5
f 10//5 5//5 14//5
f 14//6 5//6 10//6
f 15//5 8//5 11//5
f 11//6 8//6 15//6
f 15//6 11//6 8//6
f 8//5 11//5 15//5
f 14//6 12//6 5//6
f 5//5 12//5 14//5
f 14//5 5//5 12//5
f 12//6 5//6 14//6
f 9//15 14//15 11//15
f 11//16 14//16 9//16
f 11//16 14//16 9//16
f 9//15 14//15 11//15
f 9//15 12//15 14//15
f 14//16 12//16 9//16
f 9//16 14//16 12//16
f 12//15 14//15 9//15
f 13//5 8//5 15//5
f 15//6 8//6 13//6
f 13//6 15//6 8//6
f 8//5 15//5 13//5
f 10//13 13//13 16//13
f 16//14 13//14 10//14
f 10//14 16//14 13//14
f 13//13 16//13 10//13
f 17//6 14//6 10//6
f 10//5 14//5 17//5
f 17//5 10//5 14//5
f 14//6 10//6 17//6
f 11//17 14//17 15//17
f 15//18 14//18 11//18
f 15//18 14//18 11//18
f 11//17 14//17 15//17
f 18//5 13//5 15//5
f 15//6 13//6 18//6
f 18//6 15//6 13//6
f 13//5 15//5 18//5
f 13//19 19//19 16//19
f 16//20 19//20 13//20
f 16//20 19//20 13//20
f 13//19 19//19 16//19
f 16//6 17//6 10//6
f 10//5 17//5 16//5
f 16//5 10//5 17//5
f 17//6 10//6 16//6
f 15//17 14//17 17//17
f 17//18 14//18 15//18
f 15//18 17//18 14//18
f 14//17 17//17 15//17
f 19//5 13//5 18//5
f 18//6 13//6 19//6
f 19//6 18//6 13//6
f 13//5 18//5 19//5
f 15//21 17//21 18//21
f 18//22 17//22 15//22
f 18//22 17//22 15//22
f 15//21 17//21 18//21
f 16//19 19//19 20//19
f 20//20 19//20 16//20
f 16//20 20//20 19//20
f 19//19 20//19 16//19
f 21//6 17//6 16//6
f 16//5 17//5 21//5
f 21//5 16//5 17//5
f 17//6 16//6 21//6
f 22//5 19//5 18//5
f 18//6 19//6 22//6
f 22//6 18//6 19//6
f 19//5 18//5 22//5
f 18//21 17//21 21//21
f 21//22 17//22 18//22
f 18//22 21//22 17//22
f 17//21 21//21 18//21
f 19//23 23//23 20//23
f 20//24 23//24 19//24
f 19//24 20//24 23//24
f 23//23 20//23 19//23
f 20//6 21//6 16//6
f 16//5 21//5 20//5
f 20//5 16//5 21//5
f 21//6 16//6 20//6
f 24//5 19//5 22//5
f 22//6 19//6 24//6
f 24//6 22//6 19//6
f 19//5 22//5 24//5
f 18//25 25//25 22//25
f 22//26 25//26 18//26
f 18//26 22//26 25//26
f 25//25 22//25 18//25
f 21//25 25//25 18//25
f 18//26 25//26 21//26
f 18//26 25//26 21//26
f 21//25 25//25 18//25
f 24//23 23//23 19//23
f 19//24 23//24 24//24
f 19//24 23//24 24//24
f 24//23 23//23 19//23
f 23//23 26//23 20//23
f 20//24 26//24 23//24
f 23//24 20//24 26//24
f 26//23 20//23 23//23
f 27//6 21//6 20//6
f 20//5 21//5 27//5
f 27//5 20//5 21//5
f 21//6 20//6 27//6
f 24//5 22//5 28//5
f 28//6 22//6 24//6
f 28//6 22//6 24//6
f 24//5 22//5 28//5
f 22//24 25//24 29//24
f 29//23 25//23 22//23
f 22//23 29//23 25//23
f 25//24 29//24 22//24
f 21//25 27//25 25//25
f 25//26 27//26 21//26
f 21//26 25//26 27//26
f 27//25 25//25 21//25
f 24//23 30//23 23//23
f 23//24 30//24 24//24
f 24//24 23//24 30//24
f 30//23 23//23 24//23
f 25//1 26//1 23//1
f 23//2 26//2 25//2
f 25//2 23//2 26//2
f 26//1 23//1 25//1
f 27//6 20//6 26//6
f 26//5 20//5 27//5
f 26//5 20//5 27//5
f 27//6 20//6 26//6
f 22//24 29//24 28//24
f 28//23 29//23 22//23
f 28//23 29//23 22//23
f 22//24 29//24 28//24
f 28//1 30//1 24//1
f 24//2 30//2 28//2
f 28//2 24//2 30//2
f 30//1 24//1 28//1
f 29//6 25//6 23//6
f 23//5 25//5 29//5
f 29//5 23//5 25//5
f 25//6 23//6 29//6
f 27//1 26//1 25//1
f 25//2 26//2 27//2
f 25//2 26//2 27//2
f 27//1 26//1 25//1
f 29//6 23//6 30//6
f 30//5 23//5 29//5
f 30//5 23//5 29//5
f 29//6 23//6 30//6
f 29//1 30//1 28//1
f 28//2 30//2 29//2
f 28//2 30//2 29//2
f 29//1 30//1 28//1