mtllib new-5.mtl
v -0.398267 0.633956 -0.357277
v -0.412542 0.365581 -0.298749
v -0.393984 0.632528 -0.361560
v -0.416825 0.374147 -0.268771
v -0.398267 0.364154 -0.298749
v -0.393984 0.636811 -0.380118
v -0.421107 0.635383 -0.357277
v -0.415397 0.328466 -0.294466
v -0.401122 0.327038 -0.294466
v -0.379709 0.631101 -0.361560
v -0.439665 0.377002 -0.268771
v -0.419680 0.338458 -0.258778
v -0.396839 0.337031 -0.258778
v -0.393984 0.372719 -0.268771
v -0.379709 0.636811 -0.380118
v -0.421107 0.639666 -0.380118
v -0.421107 0.643949 -0.335864
v -0.416825 0.305625 -0.294466
v -0.402549 0.304198 -0.294466
v -0.398267 0.311335 -0.254496
v -0.375426 0.632528 -0.357277
v -0.418252 0.681064 -0.400103
v -0.438238 0.382712 -0.247358
v -0.418252 0.688202 -0.354422
v -0.442520 0.339886 -0.258778
v -0.421107 0.314191 -0.254496
v -0.375426 0.309908 -0.254496
v -0.373999 0.335603 -0.258778
v -0.352586 0.631101 -0.356207
v -0.352586 0.633956 -0.380118
v -0.416825 0.693912 -0.388683
v -0.419680 0.663934 -0.404386
v -0.352586 0.638238 -0.335864
v -0.418252 0.671072 -0.347285
v -0.418252 0.284212 -0.293039
v -0.403977 0.282785 -0.293039
v -0.399694 0.285640 -0.251641
v -0.376854 0.284212 -0.251641
v -0.371144 0.371291 -0.268771
v -0.349731 0.675354 -0.400103
v -0.419680 0.646804 -0.395820
v -0.351159 0.658224 -0.404386
v -0.371144 0.378429 -0.247358
v -0.349731 0.666789 -0.348712
v -0.441093 0.347024 -0.237365
v -0.349731 0.682492 -0.354422
v -0.416825 0.695340 -0.370125
v -0.443948 0.315618 -0.254496
v -0.422535 0.287068 -0.251641
v -0.375426 0.314191 -0.231655
v -0.376854 0.285640 -0.231655
v -0.372571 0.341313 -0.237365
v -0.348304 0.688202 -0.388683
v -0.352586 0.642521 -0.395820
v -0.348304 0.691057 -0.370125
v -0.419680 0.257090 -0.293039
v -0.406832 0.255662 -0.293039
v -0.402549 0.255662 -0.253068
v -0.379709 0.254234 -0.253068
v -0.379709 0.254234 -0.231655
v -0.443948 0.319901 -0.231655
v -0.445375 0.288495 -0.251641
v -0.425390 0.257090 -0.253068
v -0.445375 0.289923 -0.228800
v -0.448230 0.258517 -0.230228
v -0.422535 0.217119 -0.297321
v -0.409687 0.215691 -0.297321
v -0.405404 0.212836 -0.255923
v -0.382564 0.211409 -0.255923
v -0.382564 0.209981 -0.234510
v -0.451085 0.214264 -0.233083
v -0.448230 0.258517 -0.253068
v -0.428245 0.214264 -0.255923
v -0.451085 0.215691 -0.255923
v -0.436810 0.078649 -0.270198
v -0.418252 0.084359 -0.325872
v -0.413970 0.077221 -0.270198
v -0.391129 0.072939 -0.250213
v -0.459650 0.078649 -0.247358
v -0.459650 0.080077 -0.270198
v -0.432527 0.084359 -0.325872
v -0.391129 0.075794 -0.270198
v -0.435382 0.044388 -0.325872
v -0.421107 0.042961 -0.325872
v -0.416825 0.050099 -0.267343
v -0.393984 0.048671 -0.267343
v -0.393984 0.051526 -0.244503
v -0.461078 0.055809 -0.244503
v -0.462505 0.052954 -0.267343
v -0.439665 0.051526 -0.267343
v -0.438238 0.000135 -0.314452
v -0.423962 0.000135 -0.314452
v -0.418252 0.017265 -0.257351
v -0.395412 0.015838 -0.257351
v -0.395412 0.021548 -0.235938
v -0.463933 0.027258 -0.235938
v -0.463933 0.020121 -0.257351
v -0.441093 0.018693 -0.257351
v -0.439665 -0.028415 -0.300176
v -0.426817 -0.029843 -0.300176
v -0.419680 -0.002720 -0.247358
v -0.396839 -0.004147 -0.247358
v -0.396839 0.005845 -0.227373
v -0.465360 0.010128 -0.227373
v -0.465360 0.000135 -0.247358
v -0.442520 -0.001292 -0.247358
v -0.442520 -0.058393 -0.280191
v -0.428245 -0.058393 -0.280191
v -0.421107 -0.024133 -0.231655
v -0.398267 -0.025560 -0.231655
v -0.398267 -0.012713 -0.213097
v -0.466788 -0.008430 -0.213097
v -0.466788 -0.021278 -0.231655
v -0.443948 -0.022705 -0.231655
v -0.443948 -0.091226 -0.247358
v -0.431100 -0.092654 -0.247358
v -0.423962 -0.049828 -0.207387
v -0.401122 -0.051256 -0.207387
v -0.399694 -0.034125 -0.191685
v -0.468216 -0.029843 -0.191685
v -0.468216 -0.045546 -0.207387
v -0.445375 -0.048401 -0.207387
v -0.401122 -0.061248 -0.191685
v -0.399694 -0.042691 -0.178837
v -0.468216 -0.038408 -0.178837
v -0.401122 -0.054111 -0.157424
vn 0.592896 0.587881 0.550336
vn 0.567338 0.100919 0.817278
vn 0.327856 0.582399 0.743856
vn -0.327856 -0.582399 -0.743856
vn -0.567338 -0.100919 -0.817278
vn -0.592896 -0.587881 -0.550336
vn 0.670516 0.172846 0.721479
vn -0.670516 -0.172846 -0.721479
vn -0.653689 0.193360 0.731644
vn 0.653689 -0.193360 -0.731644
vn 0.151285 0.965857 0.210316
vn -0.151285 -0.965857 -0.210316
vn 0.852323 0.371617 0.368030
vn -0.852323 -0.371617 -0.368030
vn 0.656740 -0.010667 0.754042
vn -0.656740 0.010667 -0.754042
vn -0.666364 0.101128 0.738736
vn 0.666364 -0.101128 -0.738736
vn -0.453369 0.713835 0.533756
vn 0.453369 -0.713835 -0.533756
vn 0.730351 0.146001 0.667286
vn -0.730351 -0.146001 -0.667286
vn 0.671998 0.123292 0.730217
vn -0.671998 -0.123292 -0.730217
vn -0.658642 0.194043 0.727006
vn 0.658642 -0.194043 -0.727006
vn -0.474113 0.293076 0.830255
vn 0.474113 -0.293076 -0.830255
vn -0.145927 0.957971 0.246974
vn 0.145927 -0.957971 -0.246974
vn 0.855601 0.483398 0.185133
vn -0.855601 -0.483398 -0.185133
vn 0.573408 -0.340756 -0.745043
vn -0.573408 0.340756 0.745043
vn 0.663735 -0.005778 0.747946
vn -0.663735 0.005778 -0.747946
vn -0.669726 0.060052 0.740177
vn 0.669726 -0.060052 -0.740177
vn -0.665447 0.131360 0.734796
vn 0.665447 -0.131360 -0.734796
vn -0.268532 0.816580 0.510967
vn 0.268532 -0.816580 -0.510967
vn 0.697814 -0.333330 0.633992
vn -0.697814 0.333330 -0.633992
vn 0.674100 -0.269230 -0.687826
vn -0.674100 0.269230 0.687826
vn 0.581248 -0.590865 -0.559490
vn -0.581248 0.590865 0.559490
vn 0.729669 0.087010 0.678242
vn -0.729669 -0.087010 -0.678242
vn 0.671378 0.069946 0.737807
vn -0.671378 -0.069946 -0.737807
vn -0.702963 0.141260 0.697057
vn 0.702963 -0.141260 -0.697057
vn -0.684845 0.222916 0.693755
vn 0.684845 -0.222916 -0.693755
vn -0.870677 0.347768 0.347821
vn 0.870677 -0.347768 -0.347821
vn -0.382243 0.881110 0.278450
vn 0.382243 -0.881110 -0.278450
vn 0.671998 -0.633001 0.384354
vn -0.671998 0.633001 -0.384354
vn 0.572494 0.186106 0.798508
vn -0.572494 -0.186106 -0.798508
vn -0.739897 -0.181112 -0.647882
vn 0.739897 0.181112 0.647882
vn -0.038652 -0.373585 -0.926790
vn 0.038652 0.373585 0.926790
vn 0.667455 -0.019128 0.744404
vn -0.667455 0.019128 -0.744404
vn -0.665467 0.089662 0.741022
vn 0.665467 -0.089662 -0.741022
vn -0.670924 0.054935 0.739489
vn 0.670924 -0.054935 -0.739489
vn -0.704053 0.097653 0.703401
vn 0.704053 -0.097653 -0.703401
vn -0.885391 0.188213 0.425040
vn 0.885391 -0.188213 -0.425040
vn -0.824687 -0.244694 0.509918
vn 0.824687 0.244694 -0.509918
vn 0.360628 0.716337 0.597335
vn -0.360628 -0.716337 -0.597335
vn -0.334217 0.026578 0.942121
vn 0.334217 -0.026578 -0.942121
vn -0.564893 -0.205840 -0.799078
vn 0.564893 0.205840 0.799078
vn 0.224721 -0.380538 -0.897046
vn -0.224721 0.380538 0.897046
vn 0.683573 -0.230586 -0.692501
vn -0.683573 0.230586 0.692501
vn -0.779898 -0.340158 -0.525406
vn 0.779898 0.340158 0.525406
vn 0.248272 -0.967083 -0.055776
vn -0.248272 0.967083 0.055776
vn 0.713163 0.038596 0.699935
vn -0.713163 -0.038596 -0.699935
vn 0.665860 -0.007266 0.746042
vn -0.665860 0.007266 -0.746042
vn -0.718645 -0.018980 -0.695118
vn 0.718645 0.018980 0.695118
vn -0.714788 0.057374 -0.696984
vn 0.714788 -0.057374 0.696984
vn -0.725251 -0.102220 -0.680854
vn 0.725251 0.102220 0.680854
vn -0.780636 -0.579960 0.232923
vn 0.780636 0.579960 -0.232923
vn -0.524810 0.556074 0.644482
vn 0.524810 -0.556074 -0.644482
vn -0.395411 -0.881861 -0.256847
vn 0.395411 0.881861 0.256847
vn 0.653471 -0.099931 0.750326
vn -0.653471 0.099931 -0.750326
vn -0.669189 0.026208 0.742630
vn 0.669189 -0.026208 -0.742630
vn -0.670262 0.016448 0.741942
vn 0.670262 -0.016448 -0.741942
vn -0.707178 0.015223 0.706871
vn 0.707178 -0.015223 -0.706871
vn -0.709136 0.089126 -0.699416
vn 0.709136 -0.089126 0.699416
vn 0.700608 -0.166827 -0.693770
vn -0.700608 0.166827 0.693770
vn 0.704408 -0.043329 0.708472
vn -0.704408 0.043329 -0.708472
vn 0.651560 -0.093107 0.752861
vn -0.651560 0.093107 -0.752861
vn 0.695720 -0.066256 -0.715251
vn -0.695720 0.066256 0.715251
vn 0.696788 -0.025088 -0.716838
vn -0.696788 0.025088 0.716838
vn 0.743796 -0.161689 0.648555
vn -0.743796 0.161689 -0.648555
vn -0.536893 -0.084782 0.839380
vn 0.536893 0.084782 -0.839380
vn -0.857075 0.009443 0.515105
vn 0.857075 -0.009443 -0.515105
vn -0.601472 -0.030083 0.798327
vn 0.601472 0.030083 -0.798327
vn -0.711950 0.111639 -0.693299
vn 0.711950 -0.111639 0.693299
vn 0.700483 0.011193 -0.713581
vn -0.700483 -0.011193 0.713581
vn 0.700790 -0.101643 0.706089
vn -0.700790 0.101643 -0.706089
vn 0.513904 -0.101524 0.851819
vn -0.513904 0.101524 -0.851819
vn 0.702501 -0.110467 0.703057
vn -0.702501 0.110467 -0.703057
vn 0.762343 -0.084006 0.641697
vn -0.762343 0.084006 -0.641697
vn -0.770919 -0.027568 0.636336
vn 0.770919 0.027568 -0.636336
vn -0.430916 0.036309 0.901661
vn 0.430916 -0.036309 -0.901661
vn -0.726571 0.000168 -0.687091
vn 0.726571 -0.000168 0.687091
vn 0.688506 -0.032473 -0.724503
vn -0.688506 0.032473 0.724503
vn 0.710065 -0.030060 0.703495
vn -0.710065 0.030060 -0.703495
vn 0.535544 -0.099793 0.838590
vn -0.535544 0.099793 -0.838590
vn -0.827065 0.083855 0.555817
vn 0.827065 -0.083855 -0.555817
vn 0.687236 0.067430 0.723298
vn -0.687236 -0.067430 -0.723298
vn -0.678424 0.108579 0.726603
vn 0.678424 -0.108579 -0.726603
vn -0.669045 0.211842 0.712392
vn 0.669045 -0.211842 -0.712392
vn -0.702939 0.163267 0.692258
vn 0.702939 -0.163267 -0.692258
vn -0.719747 -0.125040 -0.682883
vn 0.719747 0.125040 0.682883
vn 0.680942 -0.206789 -0.702536
vn -0.680942 0.206789 0.702536
vn 0.730932 0.108659 0.673745
vn -0.730932 -0.108659 -0.673745
vn 0.687803 0.075948 0.721914
vn -0.687803 -0.075948 -0.721914
vn 0.696428 0.236603 0.677501
vn -0.696428 -0.236603 -0.677501
vn -0.666980 0.283396 0.689075
vn 0.666980 -0.283396 -0.689075
vn -0.663007 0.327204 0.673320
vn 0.663007 -0.327204 -0.673320
vn -0.698708 0.286804 0.655401
vn 0.698708 -0.286804 -0.655401
vn -0.721766 -0.240897 -0.648863
vn 0.721766 0.240897 0.648863
vn 0.697545 -0.292615 -0.654070
vn -0.697545 0.292615 0.654070
vn 0.725244 0.229532 0.649104
vn -0.725244 -0.229532 -0.649104
vn 0.697507 0.215360 0.683450
vn -0.697507 -0.215360 -0.683450
vn 0.705451 0.333873 0.625194
vn -0.705451 -0.333873 -0.625194
vn -0.649027 0.406909 0.642797
vn 0.649027 -0.406909 -0.642797
vn -0.649574 0.446956 0.615048
vn 0.649574 -0.446956 -0.615048
vn -0.695692 0.392398 0.601694
vn 0.695692 -0.392398 -0.601694
vn -0.723974 -0.350455 -0.594174
vn 0.723974 0.350455 0.594174
vn 0.693796 -0.406732 -0.594320
vn -0.693796 0.406732 0.594320
vn 0.722186 0.337830 0.603588
vn -0.722186 -0.337830 -0.603588
vn 0.703591 0.313012 0.637953
vn -0.703591 -0.313012 -0.637953
vn 0.708468 0.430950 0.558888
vn -0.708468 -0.430950 -0.558888
vn -0.655752 0.494056 0.570874
vn 0.655752 -0.494056 -0.570874
vn -0.644460 0.526168 0.554814
vn 0.644460 -0.526168 -0.554814
vn -0.685656 0.486848 0.541161
vn 0.685656 -0.486848 -0.541161
vn -0.724997 -0.436262 -0.532969
vn 0.724997 0.436262 0.532969
vn 0.691940 -0.490285 -0.529943
vn -0.691940 0.490285 0.529943
vn 0.729454 0.424871 0.536080
vn -0.729454 -0.424871 -0.536080
vn 0.712064 0.415237 0.566165
vn -0.712064 -0.415237 -0.566165
vn 0.730229 0.509172 0.455532
vn -0.730229 -0.509172 -0.455532
vn -0.640374 0.586552 0.495860
vn 0.640374 -0.586552 -0.495860
vn -0.642495 0.624553 0.443998
vn 0.642495 -0.624553 -0.443998
vn -0.669838 0.566006 0.480577
vn 0.669838 -0.566006 -0.480577
vn -0.741475 -0.514601 -0.430582
vn 0.741475 0.514601 0.430582
vn 0.682481 -0.568909 -0.458870
vn -0.682481 0.568909 0.458870
vn 0.738661 0.506839 0.444402
vn -0.738661 -0.506839 -0.444402
vn 0.726333 0.487993 0.484049
vn -0.726333 -0.487993 -0.484049
vn -0.664155 0.654352 0.361554
vn 0.664155 -0.654352 -0.361554
vn -0.750414 -0.571717 -0.331690
vn 0.750414 0.571717 0.331690
vn 0.665506 -0.654492 -0.358805
vn -0.665506 0.654492 0.358805
vn -0.757527 -0.608968 -0.235180
vn 0.757527 0.608968 0.235180
usemtl material-0
f 1//1 2//2 3//3
f 3//4 2//5 1//6
f 1//1 4//7 2//2
f 2//5 4//8 1//6
f 3//3 2//2 5//9
f 5//10 2//5 3//4
f 1//1 3//3 6//11
f 6//12 3//4 1//6
f 1//1 7//13 4//7
f 4//8 7//14 1//6
f 4//7 8//15 2//2
f 2//5 8//16 4//8
f 5//9 2//2 9//17
f 9//18 2//5 5//10
f 10//19 3//3 5//9
f 5//10 3//4 10//20
f 10//19 6//11 3//3
f 3//4 6//12 10//20
f 1//1 6//11 7//13
f 7//14 6//12 1//6
f 4//7 7//13 11//21
f 11//22 7//14 4//8
f 4//7 12//23 8//15
f 8//16 12//24 4//8
f 9//17 2//2 8//15
f 8//16 2//5 9//18
f 5//9 9//17 13//25
f 13//26 9//18 5//10
f 10//19 5//9 14//27
f 14//28 5//10 10//20
f 10//19 15//29 6//11
f 6//12 15//30 10//20
f 7//13 6//11 16//31
f 16//32 6//12 7//14
f 17//33 11//21 7//13
f 7//14 11//22 17//34
f 4//7 11//21 12//23
f 12//24 11//22 4//8
f 12//23 18//35 8//15
f 8//16 18//36 12//24
f 9//17 8//15 19//37
f 19//38 8//16 9//18
f 13//25 9//17 20//39
f 20//40 9//18 13//26
f 14//27 5//9 13//25
f 13//26 5//10 14//28
f 21//41 10//19 14//27
f 14//28 10//20 21//42
f 21//41 15//29 10//19
f 10//20 15//30 21//42
f 22//43 7//13 16//31
f 16//32 7//14 22//44
f 17//33 23//45 11//21
f 11//22 23//46 17//34
f 24//47 17//33 7//13
f 7//14 17//34 24//48
f 12//23 11//21 25//49
f 25//50 11//22 12//24
f 12//23 26//51 18//35
f 18//36 26//52 12//24
f 19//37 8//15 18//35
f 18//36 8//16 19//38
f 9//17 19//37 20//39
f 20//40 19//38 9//18
f 27//53 13//25 20//39
f 20//40 13//26 27//54
f 28//55 14//27 13//25
f 13//26 14//28 28//56
f 29//57 21//41 14//27
f 14//28 21//42 29//58
f 21//41 30//59 15//29
f 15//30 30//60 21//42
f 31//61 7//13 22//43
f 22//44 7//14 31//62
f 22//43 16//31 32//63
f 32//64 16//32 22//44
f 33//65 23//45 17//33
f 17//34 23//46 33//66
f 23//45 25//49 11//21
f 11//22 25//50 23//46
f 34//67 17//33 24//47
f 24//48 17//34 34//68
f 31//61 24//47 7//13
f 7//14 24//48 31//62
f 12//23 25//49 26//51
f 26//52 25//50 12//24
f 26//51 35//69 18//35
f 18//36 35//70 26//52
f 19//37 18//35 36//71
f 36//72 18//36 19//38
f 20//39 19//37 37//73
f 37//74 19//38 20//40
f 28//55 13//25 27//53
f 27//54 13//26 28//56
f 27//53 20//39 38//75
f 38//76 20//40 27//54
f 39//77 14//27 28//55
f 28//56 14//28 39//78
f 29//57 30//59 21//41
f 21//42 30//60 29//58
f 29//57 14//27 39//77
f 39//78 14//28 29//58
f 40//79 31//61 22//43
f 22//44 31//62 40//80
f 32//63 16//31 41//81
f 41//82 16//32 32//64
f 42//83 22//43 32//63
f 32//64 22//44 42//84
f 33//65 43//85 23//45
f 23//46 43//86 33//66
f 44//87 33//65 17//33
f 17//34 33//66 44//88
f 23//45 45//89 25//49
f 25//50 45//90 23//46
f 44//87 17//33 34//67
f 34//68 17//34 44//88
f 46//91 34//67 24//47
f 24//48 34//68 46//92
f 47//93 24//47 31//61
f 31//62 24//48 47//94
f 26//51 25//49 48//95
f 48//96 25//50 26//52
f 26//51 49//97 35//69
f 35//70 49//98 26//52
f 36//71 18//35 35//69
f 35//70 18//36 36//72
f 19//37 36//71 37//73
f 37//74 36//72 19//38
f 38//75 20//39 37//73
f 37//74 20//40 38//76
f 28//55 27//53 50//99
f 50//100 27//54 28//56
f 27//53 38//75 51//101
f 51//102 38//76 27//54
f 39//77 28//55 52//103
f 52//104 28//56 39//78
f 40//79 30//59 29//57
f 29//58 30//60 40//80
f 33//65 29//57 39//77
f 39//78 29//58 33//66
f 53//105 31//61 40//79
f 40//80 31//62 53//106
f 40//79 22//43 42//83
f 42//84 22//44 40//80
f 30//59 41//81 16//31
f 16//32 41//82 30//60
f 54//107 32//63 41//81
f 41//82 32//64 54//108
f 42//83 32//63 54//107
f 54//108 32//64 42//84
f 33//65 39//77 43//85
f 43//86 39//78 33//66
f 43//85 45//89 23//45
f 23//46 45//90 43//86
f 46//91 33//65 44//87
f 44//88 33//66 46//92
f 45//89 48//95 25//49
f 25//50 48//96 45//90
f 44//87 34//67 46//91
f 46//92 34//68 44//88
f 24//47 55//109 46//91
f 46//92 55//110 24//48
f 24//47 47//93 55//109
f 55//110 47//94 24//48
f 47//93 31//61 53//105
f 53//106 31//62 47//94
f 26//51 48//95 49//97
f 49//98 48//96 26//52
f 49//97 56//111 35//69
f 35//70 56//112 49//98
f 36//71 35//69 57//113
f 57//114 35//70 36//72
f 37//73 36//71 58//115
f 58//116 36//72 37//74
f 38//75 37//73 59//117
f 59//118 37//74 38//76
f 50//99 27//53 51//101
f 51//102 27//54 50//100
f 52//103 28//55 50//99
f 50//100 28//56 52//104
f 51//101 38//75 60//119
f 60//120 38//76 51//102
f 43//85 39//77 52//103
f 52//104 39//78 43//86
f 40//79 54//107 30//59
f 30//60 54//108 40//80
f 53//105 40//79 29//57
f 29//58 40//80 53//106
f 46//91 29//57 33//65
f 33//66 29//58 46//92
f 40//79 42//83 54//107
f 54//108 42//84 40//80
f 30//59 54//107 41//81
f 41//82 54//108 30//60
f 43//85 52//103 45//89
f 45//90 52//104 43//86
f 45//89 61//121 48//95
f 48//96 61//122 45//90
f 55//109 53//105 46//91
f 46//92 53//106 55//110
f 47//93 53//105 55//109
f 55//110 53//106 47//94
f 49//97 48//95 62//123
f 62//124 48//96 49//98
f 49//97 63//125 56//111
f 56//112 63//126 49//98
f 57//113 35//69 56//111
f 56//112 35//70 57//114
f 36//71 57//113 58//115
f 58//116 57//114 36//72
f 59//117 37//73 58//115
f 58//116 37//74 59//118
f 38//75 59//117 60//119
f 60//120 59//118 38//76
f 50//99 51//101 64//127
f 64//128 51//102 50//100
f 52//103 50//99 61//121
f 61//122 50//100 52//104
f 51//101 60//119 65//129
f 65//130 60//120 51//102
f 53//105 29//57 46//91
f 46//92 29//58 53//106
f 52//103 61//121 45//89
f 45//90 61//122 52//104
f 61//121 62//123 48//95
f 48//96 62//124 61//122
f 49//97 62//123 63//125
f 63//126 62//124 49//98
f 63//125 66//131 56//111
f 56//112 66//132 63//126
f 57//113 56//111 67//133
f 67//134 56//112 57//114
f 57//113 68//135 58//115
f 58//116 68//136 57//114
f 59//117 58//115 69//137
f 69//138 58//116 59//118
f 59//117 70//139 60//119
f 60//120 70//140 59//118
f 51//101 65//129 64//127
f 64//128 65//130 51//102
f 50//99 64//127 61//121
f 61//122 64//128 50//100
f 60//119 71//141 65//129
f 65//130 71//142 60//120
f 61//121 64//127 62//123
f 62//124 64//128 61//122
f 63//125 62//123 72//143
f 72//144 62//124 63//126
f 63//125 73//145 66//131
f 66//132 73//146 63//126
f 67//133 56//111 66//131
f 66//132 56//112 67//134
f 57//113 67//133 68//135
f 68//136 67//134 57//114
f 69//137 58//115 68//135
f 68//136 58//116 69//138
f 59//117 69//137 70//139
f 70//140 69//138 59//118
f 60//119 70//139 71//141
f 71//142 70//140 60//120
f 64//127 65//129 72//143
f 72//144 65//130 64//128
f 65//129 71//141 74//147
f 74//148 71//142 65//130
f 64//127 72//143 62//123
f 62//124 72//144 64//128
f 63//125 72//143 73//145
f 73//146 72//144 63//126
f 66//131 73//145 75//149
f 75//150 73//146 66//132
f 67//133 66//131 76//151
f 76//152 66//132 67//134
f 67//133 76//151 68//135
f 68//136 76//152 67//134
f 69//137 68//135 77//153
f 77//154 68//136 69//138
f 69//137 78//155 70//139
f 70//140 78//156 69//138
f 70//139 79//157 71//141
f 71//142 79//158 70//140
f 65//129 74//147 72//143
f 72//144 74//148 65//130
f 74//147 71//141 80//159
f 80//160 71//142 74//148
f 73//145 72//143 74//147
f 74//148 72//144 73//146
f 73//145 74//147 75//149
f 75//150 74//148 73//146
f 66//131 75//149 81//161
f 81//162 75//150 66//132
f 76//151 66//131 81//161
f 81//162 66//132 76//152
f 68//135 76//151 77//153
f 77//154 76//152 68//136
f 69//137 77//153 82//163
f 82//164 77//154 69//138
f 69//137 82//163 78//155
f 78//156 82//164 69//138
f 70//139 78//155 79//157
f 79//158 78//156 70//140
f 71//141 79//157 80//159
f 80//160 79//158 71//142
f 75//149 74//147 80//159
f 80//160 74//148 75//150
f 81//161 75//149 83//165
f 83//166 75//150 81//162
f 76//151 81//161 84//167
f 84//168 81//162 76//152
f 76//151 85//169 77//153
f 77//154 85//170 76//152
f 82//163 77//153 86//171
f 86//172 77//154 82//164
f 82//163 87//173 78//155
f 78//156 87//174 82//164
f 78//155 88//175 79//157
f 79//158 88//176 78//156
f 80//159 79//157 89//177
f 89//178 79//158 80//160
f 75//149 80//159 90//179
f 90//180 80//160 75//150
f 75//149 90//179 83//165
f 83//166 90//180 75//150
f 84//167 81//161 83//165
f 83//166 81//162 84//168
f 76//151 84//167 85//169
f 85//170 84//168 76//152
f 86//171 77//153 85//169
f 85//170 77//154 86//172
f 82//163 86//171 87//173
f 87//174 86//172 82//164
f 78//155 87//173 88//175
f 88//176 87//174 78//156
f 79//157 88//175 89//177
f 89//178 88//176 79//158
f 90//179 80//159 89//177
f 89//178 80//160 90//180
f 90//179 91//181 83//165
f 83//166 91//182 90//180
f 84//167 83//165 92//183
f 92//184 83//166 84//168
f 85//169 84//167 93//185
f 93//186 84//168 85//170
f 86//171 85//169 94//187
f 94//188 85//170 86//172
f 87//173 86//171 95//189
f 95//190 86//172 87//174
f 87//173 96//191 88//175
f 88//176 96//192 87//174
f 88//175 97//193 89//177
f 89//178 97//194 88//176
f 90//179 89//177 98//195
f 98//196 89//178 90//180
f 90//179 98//195 91//181
f 91//182 98//196 90//180
f 92//183 83//165 91//181
f 91//182 83//166 92//184
f 84//167 92//183 93//185
f 93//186 92//184 84//168
f 94//187 85//169 93//185
f 93//186 85//170 94//188
f 86//171 94//187 95//189
f 95//190 94//188 86//172
f 87//173 95//189 96//191
f 96//192 95//190 87//174
f 88//175 96//191 97//193
f 97//194 96//192 88//176
f 98//195 89//177 97//193
f 97//194 89//178 98//196
f 98//195 99//197 91//181
f 91//182 99//198 98//196
f 92//183 91//181 100//199
f 100//200 91//182 92//184
f 93//185 92//183 101//201
f 101//202 92//184 93//186
f 94//187 93//185 102//203
f 102//204 93//186 94//188
f 95//189 94//187 103//205
f 103//206 94//188 95//190
f 95//189 104//207 96//191
f 96//192 104//208 95//190
f 96//191 105//209 97//193
f 97//194 105//210 96//192
f 98//195 97//193 106//211
f 106//212 97//194 98//196
f 98//195 106//211 99//197
f 99//198 106//212 98//196
f 100//199 91//181 99//197
f 99//198 91//182 100//200
f 92//183 100//199 101//201
f 101//202 100//200 92//184
f 102//203 93//185 101//201
f 101//202 93//186 102//204
f 94//187 102//203 103//205
f 103//206 102//204 94//188
f 95//189 103//205 104//207
f 104//208 103//206 95//190
f 96//191 104//207 105//209
f 105//210 104//208 96//192
f 106//211 97//193 105//209
f 105//210 97//194 106//212
f 106//211 107//213 99//197
f 99//198 107//214 106//212
f 100//199 99//197 108//215
f 108//216 99//198 100//200
f 101//201 100//199 109//217
f 109//218 100//200 101//202
f 102//203 101//201 110//219
f 110//220 101//202 102//204
f 103//205 102//203 111//221
f 111//222 102//204 103//206
f 103//205 112//223 104//207
f 104//208 112//224 103//206
f 104//207 113//225 105//209
f 105//210 113//226 104//208
f 106//211 105//209 114//227
f 114//228 105//210 106//212
f 106//211 114//227 107//213
f 107//214 114//228 106//212
f 108//215 99//197 107//213
f 107//214 99//198 108//216
f 109//217 100//199 108//215
f 108//216 100//200 109//218
f 110//219 101//201 109//217
f 109//218 101//202 110//220
f 102//203 110//219 111//221
f 111//222 110//220 102//204
f 103//205 111//221 112//223
f 112//224 111//222 103//206
f 104//207 112//223 113//225
f 113//226 112//224 104//208
f 114//227 105//209 113//225
f 113//226 105//210 114//228
f 114//227 115//229 107//213
f 107//214 115//230 114//228
f 108//215 107//213 116//231
f 116//232 107//214 108//216
f 109//217 108//215 117//233
f 117//234 108//216 109//218
f 110//219 109//217 118//235
f 118//236 109//218 110//220
f 111//221 110//219 119//237
f 119//238 110//220 111//222
f 111//221 120//239 112//223
f 112//224 120//240 111//222
f 112//223 121//241 113//225
f 113//226 121//242 112//224
f 114//227 113//225 122//243
f 122//244 113//226 114//228
f 114//227 122//243 115//229
f 115//230 122//244 114//228
f 116//231 107//213 115//229
f 115//230 107//214 116//232
f 117//233 108//215 116//231
f 116//232 108//216 117//234
f 118//235 109//217 117//233
f 117//234 109//218 118//236
f 110//219 118//235 119//237
f 119//238 118//236 110//220
f 111//221 119//237 120//239
f 120//240 119//238 111//222
f 112//223 120//239 121//241
f 121//242 120//240 112//224
f 122//243 113//225 121//241
f 121//242 113//226 122//244
f 119//237 118//235 124//247
f 124//248 118//236 119//238
f 125//249 120//239 119//237
f 119//238 120//240 125//250
f 124//247 118//235 123//245
f 123//246 118//236 124//248
f 125//249 119//237 124//247
f 124//248 119//238 125//250
f 124//247 123//245 126//251
f 126//252 123//246 124//248