mtllib new-3.mtl
v 0.413994 0.365581 -0.298749
v 0.382589 0.631101 -0.361560
v 0.401147 0.364154 -0.298749
v 0.395437 0.632528 -0.361560
v 0.376879 0.632528 -0.357277
v 0.416849 0.328466 -0.294466
v 0.418277 0.374147 -0.268771
v 0.381161 0.636811 -0.380118
v 0.395437 0.372719 -0.268771
v 0.421132 0.338458 -0.258778
v 0.402574 0.327038 -0.294466
v 0.399719 0.633956 -0.357277
v 0.395437 0.636811 -0.380118
v 0.354038 0.631101 -0.356207
v 0.422560 0.314191 -0.254496
v 0.418277 0.305625 -0.294466
v 0.443972 0.339886 -0.258778
v 0.422560 0.635383 -0.357277
v 0.354038 0.633956 -0.380118
v 0.372596 0.371291 -0.268771
v 0.398292 0.337031 -0.258778
v 0.445400 0.315618 -0.254496
v 0.405429 0.304198 -0.294466
v 0.441117 0.377002 -0.268771
v 0.422560 0.639666 -0.380118
v 0.351183 0.675354 -0.400103
v 0.354038 0.638238 -0.335864
v 0.423987 0.287068 -0.251641
v 0.446827 0.288495 -0.251641
v 0.419705 0.284212 -0.293039
v 0.442545 0.347024 -0.237365
v 0.445400 0.319901 -0.231655
v 0.419705 0.681064 -0.400103
v 0.422560 0.643949 -0.335864
v 0.351183 0.688202 -0.388683
v 0.352611 0.658224 -0.404386
v 0.372596 0.378429 -0.247358
v 0.351183 0.682492 -0.354422
v 0.375451 0.335603 -0.258778
v 0.399719 0.311335 -0.254496
v 0.446827 0.289923 -0.228800
v 0.406857 0.282785 -0.293039
v 0.441117 0.382712 -0.247358
v 0.422560 0.646804 -0.395820
v 0.418277 0.693912 -0.388683
v 0.419705 0.688202 -0.354422
v 0.354038 0.642521 -0.395820
v 0.421132 0.663934 -0.404386
v 0.352611 0.666789 -0.347285
v 0.426842 0.257090 -0.253068
v 0.449683 0.258517 -0.253068
v 0.449683 0.258517 -0.230228
v 0.422560 0.257090 -0.293039
v 0.376879 0.314191 -0.231655
v 0.375451 0.341313 -0.237365
v 0.378306 0.285640 -0.233083
v 0.419705 0.671072 -0.347285
v 0.349756 0.691057 -0.370125
v 0.376879 0.309908 -0.254496
v 0.401147 0.285640 -0.251641
v 0.381161 0.254234 -0.233083
v 0.408284 0.255662 -0.293039
v 0.418277 0.695340 -0.370125
v 0.429697 0.214264 -0.255923
v 0.452538 0.215691 -0.255923
v 0.452538 0.214264 -0.233083
v 0.384016 0.209981 -0.235938
v 0.425415 0.217119 -0.297321
v 0.378306 0.284212 -0.251641
v 0.381161 0.254234 -0.253068
v 0.404002 0.255662 -0.253068
v 0.384016 0.211409 -0.255923
v 0.411139 0.215691 -0.297321
v 0.433980 0.084359 -0.325872
v 0.438262 0.078649 -0.270198
v 0.462530 0.078649 -0.247358
v 0.394009 0.072939 -0.250213
v 0.394009 0.075794 -0.270198
v 0.406857 0.212836 -0.255923
v 0.461103 0.080077 -0.270198
v 0.416849 0.077221 -0.270198
v 0.419705 0.084359 -0.325872
v 0.441117 0.051526 -0.267343
v 0.463958 0.052954 -0.267343
v 0.463958 0.055809 -0.244503
v 0.395437 0.051526 -0.244503
v 0.395437 0.048671 -0.267343
v 0.418277 0.050099 -0.267343
v 0.436835 0.044388 -0.325872
v 0.422560 0.042961 -0.325872
v 0.442545 0.018693 -0.257351
v 0.465385 0.020121 -0.257351
v 0.465385 0.027258 -0.235938
v 0.396864 0.021548 -0.235938
v 0.398292 0.015838 -0.257351
v 0.419705 0.017265 -0.257351
v 0.426842 0.000135 -0.314452
v 0.439690 0.000135 -0.314452
v 0.443972 -0.001292 -0.247358
v 0.466813 0.000135 -0.247358
v 0.466813 0.010128 -0.227373
v 0.398292 0.005845 -0.227373
v 0.399719 -0.004147 -0.247358
v 0.421132 -0.002720 -0.247358
v 0.428270 -0.029843 -0.300176
v 0.442545 -0.028415 -0.300176
v 0.445400 -0.022705 -0.231655
v 0.468240 -0.021278 -0.231655
v 0.468240 -0.008430 -0.213097
v 0.399719 -0.012713 -0.213097
v 0.401147 -0.025560 -0.231655
v 0.423987 -0.024133 -0.231655
v 0.429697 -0.058393 -0.280191
v 0.443972 -0.058393 -0.280191
v 0.448255 -0.048401 -0.207387
v 0.471095 -0.045546 -0.207387
v 0.469668 -0.029843 -0.191685
v 0.401147 -0.034125 -0.191685
v 0.402574 -0.051256 -0.207387
v 0.425415 -0.049828 -0.207387
v 0.432552 -0.092654 -0.247358
v 0.446827 -0.091226 -0.247358
v 0.448255 -0.058393 -0.191685
v 0.471095 -0.056966 -0.191685
v 0.469668 -0.038408 -0.178837
v 0.401147 -0.042691 -0.178837
v 0.402574 -0.061248 -0.191685
v 0.425415 -0.059821 -0.191685
v 0.433980 -0.108357 -0.225945
v 0.446827 -0.106929 -0.225945
vn -0.664346 0.096104 0.741221
vn 0.206720 0.598577 0.773933
vn 0.523504 0.176529 0.833535
vn -0.523504 -0.176529 -0.833535
vn -0.206720 -0.598577 -0.773933
vn 0.664346 -0.096104 -0.741221
vn -0.500127 0.676650 0.540386
vn 0.500127 -0.676650 -0.540386
vn 0.502085 0.644495 0.576660
vn -0.502085 -0.644495 -0.576660
vn -0.664121 0.015507 0.747464
vn 0.664121 -0.015507 -0.747464
vn -0.493126 0.223525 0.840752
vn 0.493126 -0.223525 -0.840752
vn 0.028404 0.975948 0.216146
vn -0.028404 -0.975948 -0.216146
vn 0.645594 0.261892 0.717370
vn -0.645594 -0.261892 -0.717370
vn -0.664199 0.106519 0.739928
vn 0.664199 -0.106519 -0.739928
vn 0.659750 0.089340 0.746156
vn -0.659750 -0.089340 -0.746156
vn -0.332669 0.792705 0.510833
vn 0.332669 -0.792705 -0.510833
vn -0.199911 0.960665 0.192767
vn 0.199911 -0.960665 -0.192767
vn 0.803084 0.479897 0.353207
vn -0.803084 -0.479897 -0.353207
vn -0.667352 0.054357 0.742756
vn 0.667352 -0.054357 -0.742756
vn -0.666133 -0.021233 0.745531
vn 0.666133 0.021233 -0.745531
vn -0.725319 0.105875 0.680223
vn 0.725319 -0.105875 -0.680223
vn -0.899838 0.226673 0.372707
vn 0.899838 -0.226673 -0.372707
vn 0.779967 0.595394 0.192762
vn -0.779967 -0.595394 -0.192762
vn 0.700043 0.251287 0.668427
vn -0.700043 -0.251287 -0.668427
vn 0.655681 0.225263 0.720652
vn -0.655681 -0.225263 -0.720652
vn -0.709754 0.069208 0.701042
vn 0.709754 -0.069208 -0.701042
vn 0.660025 0.090852 0.745730
vn -0.660025 -0.090852 -0.745730
vn -0.901145 0.072501 0.427413
vn 0.901145 -0.072501 -0.427413
vn -0.518654 0.813290 0.263737
vn 0.518654 -0.813290 -0.263737
vn 0.735043 -0.229324 0.638062
vn -0.735043 0.229324 -0.638062
vn 0.729742 -0.205683 -0.652051
vn -0.729742 0.205683 0.652051
vn -0.666373 -0.042296 0.744418
vn 0.666373 0.042296 -0.744418
vn -0.707371 -0.018017 0.706613
vn 0.707371 0.018017 -0.706613
vn -0.668610 -0.029225 0.743038
vn 0.668610 0.029225 -0.743038
vn -0.685377 -0.213429 -0.696208
vn 0.685377 0.213429 0.696208
vn -0.694310 -0.109814 -0.711249
vn 0.694310 0.109814 0.711249
vn -0.784280 -0.386266 0.485493
vn 0.784280 0.386266 -0.485493
vn -0.583382 -0.323015 -0.745203
vn 0.583382 0.323015 0.745203
vn 0.773255 -0.485886 0.407420
vn -0.773255 0.485886 -0.407420
vn 0.546891 0.249933 0.799027
vn -0.546891 -0.249933 -0.799027
vn 0.712889 -0.161121 -0.682517
vn -0.712889 0.161121 0.682517
vn 0.781278 -0.407335 -0.472952
vn -0.781278 0.407335 0.472952
vn 0.703484 0.188909 0.685144
vn -0.703484 -0.188909 -0.685144
vn 0.652031 0.145954 0.744011
vn -0.652031 -0.145954 -0.744011
vn -0.687913 -0.055184 -0.723693
vn 0.687913 0.055184 0.723693
vn 0.656604 0.058146 0.751991
vn -0.656604 -0.058146 -0.751991
vn -0.542258 -0.265601 -0.797128
vn 0.542258 0.265601 0.797128
vn -0.614902 0.482184 0.624015
vn 0.614902 -0.482184 -0.624015
vn -0.665382 -0.706815 0.240165
vn 0.665382 0.706815 -0.240165
vn -0.584015 -0.491562 -0.645982
vn 0.584015 0.491562 0.645982
vn 0.265346 0.763984 0.588150
vn -0.265346 -0.763984 -0.588150
vn -0.330360 -0.040049 0.943005
vn 0.330360 0.040049 -0.943005
vn 0.233073 -0.366152 -0.900894
vn -0.233073 0.366152 0.900894
vn -0.662254 -0.102181 0.742279
vn 0.662254 0.102181 -0.742279
vn -0.702959 -0.091077 0.705375
vn 0.702959 0.091077 -0.705375
vn -0.693559 -0.016311 -0.720215
vn 0.693559 0.016311 0.720215
vn -0.665322 -0.081834 0.742057
vn 0.665322 0.081834 -0.742057
vn 0.711744 -0.048120 -0.700789
vn -0.711744 0.048120 0.700789
vn 0.712768 -0.130208 -0.689208
vn -0.712768 0.130208 0.689208
vn 0.719422 0.046133 -0.693040
vn -0.719422 -0.046133 0.693040
vn 0.029674 -0.381037 -0.924083
vn -0.029674 0.381037 0.924083
vn 0.407288 -0.910416 -0.072524
vn -0.407288 0.910416 0.072524
vn 0.704933 0.128563 0.697525
vn -0.704933 -0.128563 -0.697525
vn 0.658679 0.085445 0.747557
vn -0.658679 -0.085445 -0.747557
vn 0.720950 0.078876 -0.688484
vn -0.720950 -0.078876 0.688484
vn 0.668119 -0.002388 0.744051
vn -0.668119 0.002388 -0.744051
vn -0.251498 -0.933107 -0.257022
vn 0.251498 0.933107 0.257022
vn -0.854232 -0.103527 0.509480
vn 0.854232 0.103527 -0.509480
vn -0.589331 -0.109004 0.800505
vn 0.589331 0.109004 -0.800505
vn -0.694274 0.018305 -0.719478
vn 0.694274 -0.018305 0.719478
vn 0.718668 0.103836 -0.687557
vn -0.718668 -0.103836 0.687557
vn -0.517068 -0.156192 0.841573
vn 0.517068 0.156192 -0.841573
vn 0.708716 0.050957 0.703651
vn -0.708716 -0.050957 -0.703651
vn 0.708561 0.017106 0.705443
vn -0.708561 -0.017106 -0.705443
vn 0.669199 0.010537 0.743008
vn -0.669199 -0.010537 -0.743008
vn 0.708602 -0.016740 0.705410
vn -0.708602 0.016740 -0.705410
vn 0.768044 -0.056419 0.637907
vn -0.768044 0.056419 -0.637907
vn -0.762660 -0.143698 0.630635
vn 0.762660 0.143698 -0.630635
vn -0.434824 -0.036794 0.899763
vn 0.434824 0.036794 -0.899763
vn -0.708467 -0.114510 -0.696392
vn 0.708467 0.114510 0.696392
vn 0.727256 0.034725 -0.685488
vn -0.727256 -0.034725 0.685488
vn 0.702964 0.071182 0.707654
vn -0.702964 -0.071182 -0.707654
vn 0.529235 -0.030642 0.847922
vn -0.529235 0.030642 -0.847922
vn -0.814089 -0.062010 0.577420
vn 0.814089 0.062010 -0.577420
vn 0.772614 0.026786 0.634311
vn -0.772614 -0.026786 -0.634311
vn 0.541208 -0.024798 0.840523
vn -0.541208 0.024798 -0.840523
vn -0.690565 0.113124 0.714369
vn 0.690565 -0.113124 -0.714369
vn -0.710613 0.072267 0.699862
vn 0.710613 -0.072267 -0.699862
vn -0.703627 -0.212912 -0.677922
vn 0.703627 0.212912 0.677922
vn 0.725254 -0.103988 -0.680583
vn -0.725254 0.103988 0.680583
vn 0.697494 0.209447 0.685299
vn -0.697494 -0.209447 -0.685299
vn 0.670954 0.170049 0.721736
vn -0.670954 -0.170049 -0.721736
vn -0.686343 0.024932 0.726850
vn 0.686343 -0.024932 -0.726850
vn 0.678052 0.171592 0.714704
vn -0.678052 -0.171592 -0.714704
vn -0.698561 0.244713 0.672404
vn 0.698561 -0.244713 -0.672404
vn -0.713979 0.200423 0.670868
vn 0.713979 -0.200423 -0.670868
vn -0.693615 -0.326252 -0.642229
vn 0.693615 0.326252 0.642229
vn 0.738850 -0.188048 -0.647100
vn -0.738850 0.188048 0.647100
vn 0.676953 0.329786 0.658009
vn -0.676953 -0.329786 -0.658009
vn 0.655663 0.293650 0.695612
vn -0.655663 -0.293650 -0.695612
vn 0.660298 0.318568 0.680088
vn -0.660298 -0.318568 -0.680088
vn -0.694533 0.183709 0.695611
vn 0.694533 -0.183709 -0.695611
vn -0.710776 0.340543 0.615491
vn 0.710776 -0.340543 -0.615491
vn -0.718052 0.307872 0.624192
vn 0.718052 -0.307872 -0.624192
vn -0.690363 -0.440518 -0.573884
vn 0.690363 0.440518 0.573884
vn 0.741325 -0.300099 -0.600314
vn -0.741325 0.300099 0.600314
vn 0.666422 0.440259 0.601709
vn -0.666422 -0.440259 -0.601709
vn 0.653930 0.417952 0.630629
vn -0.653930 -0.417952 -0.630629
vn 0.649222 0.420284 0.633934
vn -0.649222 -0.420284 -0.633934
vn -0.709461 0.299722 0.637834
vn 0.709461 -0.299722 -0.637834
vn -0.720471 0.426524 0.546808
vn 0.720471 -0.426524 -0.546808
vn -0.727386 0.396571 0.560036
vn 0.727386 -0.396571 -0.560036
vn -0.688022 -0.517032 -0.509219
vn 0.688022 0.517032 0.509219
vn 0.742510 -0.400873 -0.536637
vn -0.742510 0.400873 0.536637
vn 0.665892 0.513755 0.540965
vn -0.665892 -0.513755 -0.540965
vn 0.652630 0.509999 0.560335
vn -0.652630 -0.509999 -0.560335
vn 0.657111 0.527682 0.538290
vn -0.657111 -0.527682 -0.538290
vn -0.704643 0.402218 0.584549
vn 0.704643 -0.402218 -0.584549
vn -0.730449 0.513779 0.449974
vn 0.730449 -0.513779 -0.449974
vn -0.756085 0.464571 0.460987
vn 0.756085 -0.464571 -0.460987
vn -0.671263 -0.605391 -0.427678
vn 0.671263 0.605391 0.427678
vn 0.745898 -0.490550 -0.450552
vn -0.745898 0.490550 0.450552
vn 0.666700 0.603597 0.437243
vn -0.666700 -0.603597 -0.437243
vn 0.644454 0.586156 0.491019
vn -0.644454 -0.586156 -0.491019
vn 0.633694 0.614152 0.470371
vn -0.633694 -0.614152 -0.470371
vn -0.717122 0.504581 0.480764
vn 0.717122 -0.504581 -0.480764
vn -0.718264 0.599068 0.353856
vn 0.718264 -0.599068 -0.353856
vn -0.751622 0.542634 0.374985
vn 0.751622 -0.542634 -0.374985
vn -0.661278 -0.661500 -0.353736
vn 0.661278 0.661500 0.353736
vn 0.746385 -0.549974 -0.374751
vn -0.746385 0.549974 0.374751
vn 0.663896 0.655923 0.359176
vn -0.663896 -0.655923 -0.359176
vn 0.633861 0.674572 0.378381
vn -0.633861 -0.674572 -0.378381
vn 0.619399 0.684629 0.384224
vn -0.619399 -0.684629 -0.384224
vn -0.729849 0.558964 0.393547
vn 0.729849 -0.558964 -0.393547
usemtl material-0
f 1//1 2//2 3//3
f 3//4 2//5 1//6
f 1//1 4//7 2//2
f 2//5 4//8 1//6
f 3//3 2//2 5//9
f 5//10 2//5 3//4
f 6//11 1//1 3//3
f 3//4 1//6 6//12
f 4//7 1//1 7//13
f 7//14 1//6 4//8
f 4//7 8//15 2//2
f 2//5 8//16 4//8
f 5//9 2//2 8//15
f 8//16 2//5 5//10
f 5//9 9//17 3//3
f 3//4 9//18 5//10
f 1//1 6//11 10//19
f 10//20 6//12 1//6
f 6//11 3//3 11//21
f 11//22 3//4 6//12
f 7//13 1//1 10//19
f 10//20 1//6 7//14
f 12//23 4//7 7//13
f 7//14 4//8 12//24
f 4//7 13//25 8//15
f 8//16 13//26 4//8
f 14//27 5//9 8//15
f 8//16 5//10 14//28
f 9//17 5//9 14//27
f 14//28 5//10 9//18
f 9//17 11//21 3//3
f 3//4 11//22 9//18
f 10//19 6//11 15//29
f 15//30 6//12 10//20
f 16//31 6//11 11//21
f 11//22 6//12 16//32
f 17//33 7//13 10//19
f 10//20 7//14 17//34
f 12//23 13//25 4//7
f 4//8 13//26 12//24
f 18//35 12//23 7//13
f 7//14 12//24 18//36
f 14//27 8//15 19//37
f 19//38 8//16 14//28
f 9//17 14//27 20//39
f 20//40 14//28 9//18
f 9//17 21//41 11//21
f 11//22 21//42 9//18
f 6//11 16//31 15//29
f 15//30 16//32 6//12
f 22//43 10//19 15//29
f 15//30 10//20 22//44
f 16//31 11//21 23//45
f 23//46 11//22 16//32
f 17//33 24//47 7//13
f 7//14 24//48 17//34
f 22//43 17//33 10//19
f 10//20 17//34 22//44
f 12//23 25//49 13//25
f 13//26 25//50 12//24
f 18//35 25//49 12//23
f 12//24 25//50 18//36
f 24//47 18//35 7//13
f 7//14 18//36 24//48
f 26//51 14//27 19//37
f 19//38 14//28 26//52
f 27//53 20//39 14//27
f 14//28 20//40 27//54
f 21//41 9//17 20//39
f 20//40 9//18 21//42
f 21//41 23//45 11//21
f 11//22 23//46 21//42
f 15//29 16//31 28//55
f 28//56 16//32 15//30
f 29//57 22//43 15//29
f 15//30 22//44 29//58
f 30//59 16//31 23//45
f 23//46 16//32 30//60
f 24//47 17//33 31//61
f 31//62 17//34 24//48
f 17//33 22//43 32//63
f 32//64 22//44 17//34
f 33//65 25//49 18//35
f 18//36 25//50 33//66
f 34//67 18//35 24//47
f 24//48 18//36 34//68
f 35//69 14//27 26//51
f 26//52 14//28 35//70
f 26//51 19//37 36//71
f 36//72 19//38 26//52
f 27//53 37//73 20//39
f 20//40 37//74 27//54
f 38//75 27//53 14//27
f 14//28 27//54 38//76
f 21//41 20//39 39//77
f 39//78 20//40 21//42
f 21//41 40//79 23//45
f 23//46 40//80 21//42
f 16//31 30//59 28//55
f 28//56 30//60 16//32
f 29//57 15//29 28//55
f 28//56 15//30 29//58
f 22//43 29//57 41//81
f 41//82 29//58 22//44
f 30//59 23//45 42//83
f 42//84 23//46 30//60
f 31//61 17//33 32//63
f 32//64 17//34 31//62
f 43//85 24//47 31//61
f 31//62 24//48 43//86
f 32//63 22//43 41//81
f 41//82 22//44 32//64
f 33//65 44//87 25//49
f 25//50 44//88 33//66
f 45//89 33//65 18//35
f 18//36 33//66 45//90
f 46//91 18//35 34//67
f 34//68 18//36 46//92
f 34//67 24//47 43//85
f 43//86 24//48 34//68
f 35//69 38//75 14//27
f 14//28 38//76 35//70
f 33//65 35//69 26//51
f 26//52 35//70 33//66
f 36//71 19//37 47//93
f 47//94 19//38 36//72
f 48//95 26//51 36//71
f 36//72 26//52 48//96
f 34//67 37//73 27//53
f 27//54 37//74 34//68
f 37//73 39//77 20//39
f 20//40 39//78 37//74
f 38//75 49//97 27//53
f 27//54 49//98 38//76
f 40//79 21//41 39//77
f 39//78 21//42 40//80
f 40//79 42//83 23//45
f 23//46 42//84 40//80
f 28//55 30//59 50//99
f 50//100 30//60 28//56
f 51//101 29//57 28//55
f 28//56 29//58 51//102
f 41//81 29//57 52//103
f 52//104 29//58 41//82
f 53//105 30//59 42//83
f 42//84 30//60 53//106
f 32//63 54//107 31//61
f 31//62 54//108 32//64
f 31//61 55//109 43//85
f 43//86 55//110 31//62
f 41//81 56//111 32//63
f 32//64 56//112 41//82
f 33//65 48//95 44//87
f 44//88 48//96 33//66
f 25//49 44//87 47//93
f 47//94 44//88 25//50
f 33//65 45//89 35//69
f 35//70 45//90 33//66
f 45//89 18//35 46//91
f 46//92 18//36 45//90
f 34//67 57//113 46//91
f 46//92 57//114 34//68
f 43//85 37//73 34//67
f 34//68 37//74 43//86
f 58//115 38//75 35//69
f 35//70 38//76 58//116
f 48//95 33//65 26//51
f 26//52 33//66 48//96
f 25//49 47//93 19//37
f 19//38 47//94 25//50
f 44//87 36//71 47//93
f 47//94 36//72 44//88
f 44//87 48//95 36//71
f 36//72 48//96 44//88
f 34//67 27//53 57//113
f 57//114 27//54 34//68
f 37//73 55//109 39//77
f 39//78 55//110 37//74
f 46//91 49//97 38//75
f 38//76 49//98 46//92
f 57//113 27//53 49//97
f 49//98 27//54 57//114
f 40//79 39//77 59//117
f 59//118 39//78 40//80
f 40//79 60//119 42//83
f 42//84 60//120 40//80
f 30//59 53//105 50//99
f 50//100 53//106 30//60
f 51//101 28//55 50//99
f 50//100 28//56 51//102
f 29//57 51//101 52//103
f 52//104 51//102 29//58
f 52//103 61//121 41//81
f 41//82 61//122 52//104
f 53//105 42//83 62//123
f 62//124 42//84 53//106
f 32//63 56//111 54//107
f 54//108 56//112 32//64
f 31//61 54//107 55//109
f 55//110 54//108 31//62
f 43//85 55//109 37//73
f 37//74 55//110 43//86
f 41//81 61//121 56//111
f 56//112 61//122 41//82
f 58//115 35//69 45//89
f 45//90 35//70 58//116
f 63//125 45//89 46//91
f 46//92 45//90 63//126
f 57//113 49//97 46//91
f 46//92 49//98 57//114
f 38//75 58//115 63//125
f 63//126 58//116 38//76
f 55//109 59//117 39//77
f 39//78 59//118 55//110
f 38//75 63//125 46//91
f 46//92 63//126 38//76
f 60//119 40//79 59//117
f 59//118 40//80 60//120
f 60//119 62//123 42//83
f 42//84 62//124 60//120
f 53//105 64//127 50//99
f 50//100 64//128 53//106
f 65//129 51//101 50//99
f 50//100 51//102 65//130
f 51//101 66//131 52//103
f 52//104 66//132 51//102
f 52//103 67//133 61//121
f 61//122 67//134 52//104
f 68//135 53//105 62//123
f 62//124 53//106 68//136
f 54//107 56//111 69//137
f 69//138 56//112 54//108
f 55//109 54//107 59//117
f 59//118 54//108 55//110
f 56//111 61//121 70//139
f 70//140 61//122 56//112
f 58//115 45//89 63//125
f 63//126 45//90 58//116
f 60//119 59//117 69//137
f 69//138 59//118 60//120
f 60//119 71//141 62//123
f 62//124 71//142 60//120
f 53//105 68//135 64//127
f 64//128 68//136 53//106
f 65//129 50//99 64//127
f 64//128 50//100 65//130
f 51//101 65//129 66//131
f 66//132 65//130 51//102
f 66//131 67//133 52//103
f 52//104 67//134 66//132
f 61//121 67//133 72//143
f 72//144 67//134 61//122
f 68//135 62//123 73//145
f 73//146 62//124 68//136
f 56//111 70//139 69//137
f 69//138 70//140 56//112
f 54//107 69//137 59//117
f 59//118 69//138 54//108
f 61//121 72//143 70//139
f 70//140 72//144 61//122
f 71//141 60//119 69//137
f 69//138 60//120 71//142
f 71//141 73//145 62//123
f 62//124 73//146 71//142
f 68//135 74//147 64//127
f 64//128 74//148 68//136
f 65//129 64//127 75//149
f 75//150 64//128 65//130
f 65//129 76//151 66//131
f 66//132 76//152 65//130
f 66//131 77//153 67//133
f 67//134 77//154 66//132
f 72//143 67//133 78//155
f 78//156 67//134 72//144
f 74//147 68//135 73//145
f 73//146 68//136 74//148
f 71//141 69//137 70//139
f 70//140 69//138 71//142
f 79//157 70//139 72//143
f 72//144 70//140 79//158
f 71//141 79//157 73//145
f 73//146 79//158 71//142
f 64//127 74//147 75//149
f 75//150 74//148 64//128
f 80//159 65//129 75//149
f 75//150 65//130 80//160
f 65//129 80//159 76//151
f 76//152 80//160 65//130
f 76//151 77//153 66//131
f 66//132 77//154 76//152
f 67//133 77//153 78//155
f 78//156 77//154 67//134
f 81//161 72//143 78//155
f 78//156 72//144 81//162
f 74//147 73//145 82//163
f 82//164 73//146 74//148
f 79//157 71//141 70//139
f 70//140 71//142 79//158
f 81//161 79//157 72//143
f 72//144 79//158 81//162
f 73//145 79//157 81//161
f 81//162 79//158 73//146
f 74//147 83//165 75//149
f 75//150 83//166 74//148
f 84//167 80//159 75//149
f 75//150 80//160 84//168
f 80//159 85//169 76//151
f 76//152 85//170 80//160
f 76//151 86//171 77//153
f 77//154 86//172 76//152
f 78//155 77//153 87//173
f 87//174 77//154 78//156
f 88//175 81//161 78//155
f 78//156 81//162 88//176
f 73//145 81//161 82//163
f 82//164 81//162 73//146
f 89//177 74//147 82//163
f 82//164 74//148 89//178
f 74//147 89//177 83//165
f 83//166 89//178 74//148
f 84//167 75//149 83//165
f 83//166 75//150 84//168
f 80//159 84//167 85//169
f 85//170 84//168 80//160
f 85//169 86//171 76//151
f 76//152 86//172 85//170
f 77//153 86//171 87//173
f 87//174 86//172 77//154
f 88//175 78//155 87//173
f 87//174 78//156 88//176
f 81//161 88//175 90//179
f 90//180 88//176 81//162
f 82//163 81//161 90//179
f 90//180 81//162 82//164
f 89//177 82//163 90//179
f 90//180 82//164 89//178
f 83//165 89//177 91//181
f 91//182 89//178 83//166
f 92//183 84//167 83//165
f 83//166 84//168 92//184
f 85//169 84//167 93//185
f 93//186 84//168 85//170
f 85//169 94//187 86//171
f 86//172 94//188 85//170
f 86//171 95//189 87//173
f 87//174 95//190 86//172
f 96//191 88//175 87//173
f 87//174 88//176 96//192
f 88//175 97//193 90//179
f 90//180 97//194 88//176
f 98//195 89//177 90//179
f 90//180 89//178 98//196
f 89//177 98//195 91//181
f 91//182 98//196 89//178
f 92//183 83//165 91//181
f 91//182 83//166 92//184
f 84//167 92//183 93//185
f 93//186 92//184 84//168
f 93//185 94//187 85//169
f 85//170 94//188 93//186
f 86//171 94//187 95//189
f 95//190 94//188 86//172
f 96//191 87//173 95//189
f 95//190 87//174 96//192
f 88//175 96//191 97//193
f 97//194 96//192 88//176
f 98//195 90//179 97//193
f 97//194 90//180 98//196
f 91//181 98//195 99//197
f 99//198 98//196 91//182
f 100//199 92//183 91//181
f 91//182 92//184 100//200
f 93//185 92//183 101//201
f 101//202 92//184 93//186
f 93//185 102//203 94//187
f 94//188 102//204 93//186
f 94//187 103//205 95//189
f 95//190 103//206 94//188
f 104//207 96//191 95//189
f 95//190 96//192 104//208
f 96//191 105//209 97//193
f 97//194 105//210 96//192
f 106//211 98//195 97//193
f 97//194 98//196 106//212
f 98//195 106//211 99//197
f 99//198 106//212 98//196
f 100//199 91//181 99//197
f 99//198 91//182 100//200
f 92//183 100//199 101//201
f 101//202 100//200 92//184
f 101//201 102//203 93//185
f 93//186 102//204 101//202
f 94//187 102//203 103//205
f 103//206 102//204 94//188
f 104//207 95//189 103//205
f 103//206 95//190 104//208
f 96//191 104//207 105//209
f 105//210 104//208 96//192
f 106//211 97//193 105//209
f 105//210 97//194 106//212
f 99//197 106//211 107//213
f 107//214 106//212 99//198
f 108//215 100//199 99//197
f 99//198 100//200 108//216
f 101//201 100//199 109//217
f 109//218 100//200 101//202
f 101//201 110//219 102//203
f 102//204 110//220 101//202
f 102//203 111//221 103//205
f 103//206 111//222 102//204
f 112//223 104//207 103//205
f 103//206 104//208 112//224
f 104//207 113//225 105//209
f 105//210 113//226 104//208
f 114//227 106//211 105//209
f 105//210 106//212 114//228
f 107//213 106//211 114//227
f 114//228 106//212 107//214
f 108//215 99//197 107//213
f 107//214 99//198 108//216
f 100//199 108//215 109//217
f 109//218 108//216 100//200
f 109//217 110//219 101//201
f 101//202 110//220 109//218
f 102//203 110//219 111//221
f 111//222 110//220 102//204
f 112//223 103//205 111//221
f 111//222 103//206 112//224
f 104//207 112//223 113//225
f 113//226 112//224 104//208
f 114//227 105//209 113//225
f 113//226 105//210 114//228
f 107//213 114//227 115//229
f 115//230 114//228 107//214
f 116//231 108//215 107//213
f 107//214 108//216 116//232
f 109//217 108//215 117//233
f 117//234 108//216 109//218
f 109//217 118//235 110//219
f 110//220 118//236 109//218
f 110//219 119//237 111//221
f 111//222 119//238 110//220
f 120//239 112//223 111//221
f 111//222 112//224 120//240
f 112//223 121//241 113//225
f 113//226 121//242 112//224
f 122//243 114//227 113//225
f 113//226 114//228 122//244
f 115//229 114//227 122//243
f 122//244 114//228 115//230
f 116//231 107//213 115//229
f 115//230 107//214 116//232
f 108//215 116//231 117//233
f 117//234 116//232 108//216
f 117//233 118//235 109//217
f 109//218 118//236 117//234
f 110//219 118//235 119//237
f 119//238 118//236 110//220
f 120//239 111//221 119//237
f 119//238 111//222 120//240
f 112//223 120//239 121//241
f 121//242 120//240 112//224
f 122//243 113//225 121//241
f 121//242 113//226 122//244
f 115//229 122//243 123//245
f 123//246 122//244 115//230
f 124//247 116//231 115//229
f 115//230 116//232 124//248
f 117//233 116//231 125//249
f 125//250 116//232 117//234
f 126//251 118//235 117//233
f 117//234 118//236 126//252
f 118//235 127//253 119//237
f 119//238 127//254 118//236
f 128//255 120//239 119//237
f 119//238 120//240 128//256
f 120//239 129//257 121//241
f 121//242 129//258 120//240
f 130//259 122//243 121//241
f 121//242 122//244 130//260
f 124//247 115//229 123//245
f 123//246 115//230 124//248
f 125//249 116//231 124//247
f 124//248 116//232 125//250
f 126//251 117//233 125//249
f 125//250 117//234 126//252
f 118//235 126//251 127//253
f 127//254 126//252 118//236
f 128//255 119//237 127//253
f 127//254 119//238 128//256
f 120//239 128//255 129//257
f 129//258 128//256 120//240