# SSTK version 0.8.0
# 11
mtllib original-11.mtl
o Group8/mesh9/mesh9-geometry#mesh9-geometry
v 0.378518 -0.071749 0.233106
v 0.378518 -0.067595 0.220644
v 0.382672 -0.057902 0.220644
v 0.252510 -0.203295 0.109868
v 0.422828 -0.067595 0.220644
v 0.382672 -0.052363 0.231721
v 0.252510 -0.211603 0.115407
v 0.341131 -0.203295 0.109868
v 0.426982 -0.057902 0.220644
v 0.385441 -0.039901 0.217874
v 0.422828 -0.071749 0.233106
v 0.341131 -0.211603 0.115407
v 0.426982 -0.052363 0.231721
v 0.429751 -0.050978 0.213720
v 0.385441 -0.050978 0.213720
v 0.429751 -0.039901 0.217874
v 0.385441 -0.041285 0.199873
v 0.429751 -0.041285 0.199873
v 0.385441 -0.052363 0.205412
v 0.429751 -0.052363 0.205412
v 0.385441 -0.073133 -0.031371
v 0.429751 -0.073133 -0.031371
v 0.385441 -0.082826 -0.025833
v 0.429751 -0.082826 -0.025833
v 0.384056 -0.089750 -0.031371
v 0.429751 -0.085596 -0.043834
v 0.428367 -0.089750 -0.031371
v 0.385441 -0.085596 -0.043834
v 0.421443 -0.099443 -0.031371
v 0.377133 -0.103597 -0.042449
v 0.377133 -0.099443 -0.031371
v 0.421443 -0.103597 -0.042449
v 0.341131 -0.204680 0.055865
v 0.252510 -0.212988 0.051711
v 0.341131 -0.212988 0.051711
v 0.252510 -0.204680 0.055865
vn 0.797963964544866 -0.21066799063960007 -0.5646879749097845
vn 0.61907406472884 -0.5818650608383592 0.5274280551465618
vn 0.7117949309341852 0.1072559895928982 0.6941499326462882
vn 0.7221151344657939 -0.6904071285614138 0.04344800809049779
vn -0.7526912068241419 0.12742803501461658 0.645924177486747
vn 0.7200430807233144 -0.42473304761639996 -0.5487620615211695
vn 0.5326339614689943 0.21008098480263707 -0.8198579406910688
vn -0.5981399643912336 -0.2589879845817983 0.7583889548512108
vn -0.693157112382265 0.5027450815105694 0.5165080837419789
vn 0.8269720372120887 -0.5580480251110457 -0.0685540030847931
vn -0.6909627694098701 0.4412338527501395 -0.5726108089066348
vn -0.8053989813445436 0.5809139865442895 -0.11777699727193146
vn -0.8796868268121127 0.022265995616393676 -0.4750319064783401
vn -0.714891599488885 0.6580386313402115 0.23646386752340176
vn 0.7377979842037453 0.5998039871581967 0.3096599933701796
vn -0.7337576704269463 -0.6220737205906746 -0.27317387730179515
vn 0.4473750453803848 -0.8892490902027645 0.09535000967201943
vn -0.4473750453803848 -0.8892490902027645 0.09535000967201943
vn 0.447265869445348 0.8846147417854175 -0.1319469614853473
vn -0.447265869445348 0.8846147417854175 -0.1319469614853473
vn 0.7081752015803293 -0.6108361738730146 0.35407210078575263
vn -0.4665597231619715 -0.7921045299965994 0.393563766474876
vn 0.7295659113515459 0.5634499315360482 -0.38763095289954724
vn -0.6906647615511402 0.643078777979984 -0.33080488579112155
vn 0.9030441922847687 -0.12989402765827332 -0.4094370871812435
vn -0.7424338413058971 -0.011253997594475153 0.6698248568259569
vn -0.6250453499264244 0.49934627955484856 -0.5999763358917459
vn 0.6737254134620444 -0.40242424696582396 0.61979738036667
vn -0.7843249923814593 0.24442099762581665 -0.5701689944616635
vn 0.527576981797803 -0.035694998768469016 0.8487569707166118
vn 0.7034497297272795 -0.6770997398512203 -0.21608891697638508
vn -0.6338201528834606 0.5795091397831267 0.5122901235692594
vn -0.5391887689433735 -0.2541058911089152 -0.8029356559208674
vn 0.657823898752358 -0.1353249791717281 0.7409148859635759
vn -0.6124566636627785 0.7283766000040878 0.3071878313044697
vn 0.5922379244707179 -0.797387898307533 -0.11587398522235987
vn -0.7117949309341852 -0.1072559895928982 -0.6941499326462882
vn -0.61907406472884 0.5818650608383592 -0.5274280551465618
vn -0.797963964544866 0.21066799063960007 0.5646879749097845
vn -0.7221151344657939 0.6904071285614138 -0.04344800809049779
vn 0.7526912068241419 -0.12742803501461658 -0.645924177486747
vn -0.7200430807233144 0.42473304761639996 0.5487620615211695
vn -0.5326339614689943 -0.21008098480263707 0.8198579406910688
vn 0.5981399643912336 0.2589879845817983 -0.7583889548512108
vn 0.693157112382265 -0.5027450815105694 -0.5165080837419789
vn -0.8269720372120887 0.5580480251110457 0.0685540030847931
vn 0.6909627694098701 -0.4412338527501395 0.5726108089066348
vn 0.8053989813445436 -0.5809139865442895 0.11777699727193146
vn 0.8796868268121127 -0.022265995616393676 0.4750319064783401
vn 0.714891599488885 -0.6580386313402115 -0.23646386752340176
vn -0.7377979842037453 -0.5998039871581967 -0.3096599933701796
vn 0.7337576704269463 0.6220737205906746 0.27317387730179515
vn -0.4473750453803848 0.8892490902027645 -0.09535000967201943
vn 0.4473750453803848 0.8892490902027645 -0.09535000967201943
vn -0.447265869445348 -0.8846147417854175 0.1319469614853473
vn 0.447265869445348 -0.8846147417854175 0.1319469614853473
vn -0.7081752015803293 0.6108361738730146 -0.35407210078575263
vn 0.4665597231619715 0.7921045299965994 -0.393563766474876
vn -0.7295659113515459 -0.5634499315360482 0.38763095289954724
vn 0.6906647615511402 -0.643078777979984 0.33080488579112155
vn -0.9030441922847687 0.12989402765827332 0.4094370871812435
vn 0.7424338413058971 0.011253997594475153 -0.6698248568259569
vn 0.6250453499264244 -0.49934627955484856 0.5999763358917459
vn -0.6737254134620444 0.40242424696582396 -0.61979738036667
vn 0.7843249923814593 -0.24442099762581665 0.5701689944616635
vn -0.527576981797803 0.035694998768469016 -0.8487569707166118
vn -0.7034497297272795 0.6770997398512203 0.21608891697638508
vn 0.6338201528834606 -0.5795091397831267 -0.5122901235692594
vn 0.5391887689433735 0.2541058911089152 0.8029356559208674
vn -0.657823898752358 0.1353249791717281 -0.7409148859635759
vn 0.6124566636627785 -0.7283766000040878 -0.3071878313044697
vn -0.5922379244707179 0.797387898307533 0.11587398522235987
usemtl material_0_0
f 1//1 2//2 3//3
f 1//1 4//4 2//2
f 5//5 3//3 2//2
f 1//1 3//3 6//6
f 7//7 4//4 1//1
f 4//4 8//8 2//2
f 5//5 9//9 3//3
f 5//5 2//2 8//8
f 6//6 3//3 10//10
f 1//1 6//6 11//11
f 7//7 1//1 12//12
f 9//9 5//5 13//13
f 9//9 14//14 3//3
f 8//8 12//12 5//5
f 3//3 15//15 10//10
f 10//10 16//16 6//6
f 13//13 11//11 6//6
f 11//11 12//12 1//1
f 5//5 11//11 13//13
f 9//9 13//13 14//14
f 14//14 15//15 3//3
f 12//12 11//11 5//5
f 10//10 15//15 17//17
f 16//16 10//10 18//18
f 13//13 6//6 16//16
f 14//14 13//13 16//16
f 15//15 14//14 19//19
f 15//15 19//19 17//17
f 17//17 18//18 10//10
f 16//16 18//18 14//14
f 20//20 19//19 14//14
f 17//17 19//19 21//21
f 18//18 17//17 22//22
f 14//14 18//18 20//20
f 19//19 20//20 23//23
f 23//23 21//21 19//19
f 21//21 22//22 17//17
f 18//18 22//22 20//20
f 24//24 23//23 20//20
f 23//23 25//25 21//21
f 26//26 22//22 21//21
f 20//20 22//22 24//24
f 24//24 27//27 23//23
f 25//25 23//23 27//27
f 25//25 28//28 21//21
f 26//26 24//24 22//22
f 28//28 26//26 21//21
f 26//26 27//27 24//24
f 27//27 29//29 25//25
f 25//25 30//30 28//28
f 26//26 28//28 30//30
f 29//29 27//27 26//26
f 31//31 25//25 29//29
f 31//31 30//30 25//25
f 32//32 26//26 30//30
f 32//32 29//29 26//26
f 29//29 33//33 31//31
f 34//34 30//30 31//31
f 32//32 30//30 35//35
f 32//32 35//35 29//29
f 35//35 33//33 29//29
f 36//36 31//31 33//33
f 35//35 30//30 34//34
f 36//36 34//34 31//31
usemtl material_1_0
f 3//37 2//38 1//39
f 2//38 4//40 1//39
f 2//38 3//37 5//41
f 6//42 3//37 1//39
f 1//39 4//40 7//43
f 2//38 8//44 4//40
f 3//37 9//45 5//41
f 8//44 2//38 5//41
f 10//46 3//37 6//42
f 11//47 6//42 1//39
f 12//48 1//39 7//43
f 13//49 5//41 9//45
f 3//37 14//50 9//45
f 5//41 12//48 8//44
f 10//46 15//51 3//37
f 6//42 16//52 10//46
f 6//42 11//47 13//49
f 1//39 12//48 11//47
f 13//49 11//47 5//41
f 14//50 13//49 9//45
f 3//37 15//51 14//50
f 5//41 11//47 12//48
f 17//53 15//51 10//46
f 18//54 10//46 16//52
f 16//52 6//42 13//49
f 16//52 13//49 14//50
f 19//55 14//50 15//51
f 17//53 19//55 15//51
f 10//46 18//54 17//53
f 14//50 18//54 16//52
f 14//50 19//55 20//56
f 21//57 19//55 17//53
f 22//58 17//53 18//54
f 20//56 18//54 14//50
f 23//59 20//56 19//55
f 19//55 21//57 23//59
f 17//53 22//58 21//57
f 20//56 22//58 18//54
f 20//56 23//59 24//60
f 21//57 25//61 23//59
f 21//57 22//58 26//62
f 24//60 22//58 20//56
f 23//59 27//63 24//60
f 27//63 23//59 25//61
f 21//57 28//64 25//61
f 22//58 24//60 26//62
f 21//57 26//62 28//64
f 24//60 27//63 26//62
f 25//61 29//65 27//63
f 28//64 30//66 25//61
f 30//66 28//64 26//62
f 26//62 27//63 29//65
f 29//65 25//61 31//67
f 25//61 30//66 31//67
f 30//66 26//62 32//68
f 26//62 29//65 32//68
f 31//67 33//69 29//65
f 31//67 30//66 34//70
f 35//71 30//66 32//68
f 29//65 35//71 32//68
f 29//65 33//69 35//71
f 33//69 31//67 36//72
f 34//70 30//66 35//71
f 31//67 34//70 36//72
