# SSTK version 0.8.0
# 9
mtllib original-9.mtl
o Group6/mesh7/mesh7-geometry#mesh7-geometry
v 0.080909 -0.181442 0.036175
v 0.081614 -0.257100 0.038251
v 0.080909 -0.257100 0.036175
v 0.081614 -0.181442 0.038251
v -0.085155 -0.257100 0.036822
v 0.079939 -0.181442 0.034209
v -0.085155 -0.181442 0.036822
v 0.082041 -0.257100 0.040401
v -0.084125 -0.257100 0.034733
v -0.085904 -0.257100 0.039027
v 0.079939 -0.257100 0.034209
v -0.084125 -0.181442 0.034733
v -0.085904 -0.181442 0.039027
v 0.082041 -0.181442 0.040401
v 0.078721 -0.181442 0.032386
v -0.082831 -0.181442 0.032796
v 0.082185 -0.257100 0.042589
v -0.086358 -0.257100 0.041312
v -0.082831 -0.257100 0.032796
v -0.086358 -0.181442 0.041312
v 0.078721 -0.257100 0.032386
v 0.082185 -0.181442 0.042589
v 0.077276 -0.181442 0.030738
v -0.081295 -0.181442 0.031045
v -0.081295 -0.257100 0.031045
v 0.082185 -0.257100 0.122045
v -0.086510 -0.257100 0.043636
v -0.086510 -0.181442 0.043636
v 0.077276 -0.257100 0.030738
v 0.082185 -0.181442 0.122045
v 0.075628 -0.257100 0.029293
v -0.079544 -0.181442 0.029509
v 0.082032 -0.257100 0.124369
v -0.086510 -0.257100 0.123092
v -0.086510 -0.181442 0.123092
v -0.079544 -0.257100 0.029509
v 0.075628 -0.181442 0.029293
v 0.082032 -0.181442 0.124369
v 0.073805 -0.257100 0.028075
v -0.077607 -0.257100 0.028215
v -0.077607 -0.181442 0.028215
v 0.081578 -0.257100 0.126653
v -0.086367 -0.257100 0.125279
v -0.086367 -0.181442 0.125279
v 0.073805 -0.181442 0.028075
v 0.081578 -0.181442 0.126653
v 0.071839 -0.257100 0.027105
v -0.075518 -0.257100 0.027185
v -0.075518 -0.181442 0.027185
v 0.080829 -0.257100 0.128859
v -0.085939 -0.257100 0.127429
v -0.085939 -0.181442 0.127429
v 0.071839 -0.181442 0.027105
v 0.080829 -0.181442 0.128859
v 0.069763 -0.257100 0.026400
v -0.073312 -0.257100 0.026436
v -0.073312 -0.181442 0.026436
v 0.079799 -0.257100 0.130948
v -0.085235 -0.257100 0.129505
v -0.085235 -0.181442 0.129505
v 0.069763 -0.181442 0.026400
v 0.079799 -0.181442 0.130948
v 0.067613 -0.257100 0.025973
v -0.071028 -0.257100 0.025982
v -0.071028 -0.181442 0.025982
v 0.078505 -0.257100 0.132885
v -0.084265 -0.257100 0.131471
v -0.084265 -0.181442 0.131471
v 0.067613 -0.181442 0.025973
v 0.078505 -0.181442 0.132885
v 0.065425 -0.257100 0.025829
v -0.068704 -0.257100 0.025829
v -0.068704 -0.181442 0.025829
v 0.065425 -0.181442 0.025829
v 0.076969 -0.257100 0.134636
v -0.083047 -0.257100 0.133294
v -0.083047 -0.181442 0.133294
v 0.076969 -0.181442 0.134636
v 0.075218 -0.181442 0.136172
v -0.081602 -0.257100 0.134943
v -0.081602 -0.181442 0.134943
v 0.075218 -0.257100 0.136172
v 0.073281 -0.181442 0.137466
v -0.079953 -0.181442 0.136388
v -0.079953 -0.257100 0.136388
v 0.073281 -0.257100 0.137466
v 0.071192 -0.181442 0.138496
v -0.078131 -0.181442 0.137606
v -0.078131 -0.257100 0.137606
v 0.071192 -0.257100 0.138496
v 0.068987 -0.181442 0.139245
v -0.076164 -0.181442 0.138576
v -0.076164 -0.257100 0.138576
v 0.068987 -0.257100 0.139245
v 0.066702 -0.181442 0.139699
v -0.074088 -0.181442 0.139280
v -0.074088 -0.257100 0.139280
v 0.066702 -0.257100 0.139699
v 0.064378 -0.181442 0.139851
v -0.071938 -0.181442 0.139708
v -0.071938 -0.257100 0.139708
v 0.064378 -0.257100 0.139851
v -0.069751 -0.181442 0.139851
v -0.069751 -0.257100 0.139851
vn 0.8259879194657687 0.4479809563216348 -0.34213596664157375
vn 0.863579297232387 -0.4479811541890921 -0.23139507964307632
vn 0.8259879194657687 -0.4479809563216348 -0.34213596664157375
vn 0.863579297232387 0.4479811541890921 -0.23139507964307632
vn -0.8259879194657687 -0.4479809563216348 -0.34213596664157375
vn 0.7742638503576528 0.4479809134185132 -0.4470219136038595
vn -0.8259879194657687 0.4479809563216348 -0.34213596664157375
vn 0.8863945440378774 -0.44798076955830346 -0.1166959399715072
vn -0.7742638503576528 -0.4479809134185132 -0.4470219136038595
vn -0.863579297232387 -0.4479811541890921 -0.23139507964307632
vn 0.7742638503576528 -0.4479809134185132 -0.4470219136038595
vn -0.7742638503576528 0.4479809134185132 -0.4470219136038595
vn -0.863579297232387 0.4479811541890921 -0.23139507964307632
vn 0.8863945440378774 0.44798076955830346 -0.1166959399715072
vn 0.7092920082611242 0.44798100521763484 -0.5442590063389847
vn -0.7092920082611242 0.44798100521763484 -0.5442590063389847
vn 0.8938526941781855 -0.4474048469253793 -0.02926198998833372
vn -0.8863945440378774 -0.44798076955830346 -0.1166959399715072
vn -0.7092920082611242 -0.44798100521763484 -0.5442590063389847
vn -0.8863945440378774 0.44798076955830346 -0.1166959399715072
vn 0.7092920082611242 -0.44798100521763484 -0.5442590063389847
vn 0.8938526941781855 0.4474048469253793 -0.02926198998833372
vn 0.6321839380229024 0.4479809560815172 -0.6321839380229024
vn -0.6321839380229024 0.4479809560815172 -0.6321839380229024
vn -0.6321839380229024 -0.4479809560815172 -0.6321839380229024
vn 0.8938526941781855 -0.4474048469253793 0.02926198998833372
vn -0.8938526941781855 -0.4474048469253793 -0.02926198998833372
vn -0.8938526941781855 0.4474048469253793 -0.02926198998833372
vn 0.6321839380229024 -0.4479809560815172 -0.6321839380229024
vn 0.8938526941781855 0.4474048469253793 0.02926198998833372
vn 0.5442590063389847 -0.44798100521763484 -0.7092920082611242
vn -0.5442590063389847 0.44798100521763484 -0.7092920082611242
vn 0.8863945440378774 -0.44798076955830346 0.1166959399715072
vn -0.8938526941781855 -0.4474048469253793 0.02926198998833372
vn -0.8938526941781855 0.4474048469253793 0.02926198998833372
vn -0.5442590063389847 -0.44798100521763484 -0.7092920082611242
vn 0.5442590063389847 0.44798100521763484 -0.7092920082611242
vn 0.8863945440378774 0.44798076955830346 0.1166959399715072
vn 0.4470219136038595 -0.4479809134185132 -0.7742638503576528
vn -0.4470219136038595 -0.4479809134185132 -0.7742638503576528
vn -0.4470219136038595 0.4479809134185132 -0.7742638503576528
vn 0.863579297232387 -0.4479811541890921 0.23139507964307632
vn -0.8863945440378774 -0.44798076955830346 0.1166959399715072
vn -0.8863945440378774 0.44798076955830346 0.1166959399715072
vn 0.4470219136038595 0.4479809134185132 -0.7742638503576528
vn 0.863579297232387 0.4479811541890921 0.23139507964307632
vn 0.34213596664157375 -0.4479809563216348 -0.8259879194657687
vn -0.34213596664157375 -0.4479809563216348 -0.8259879194657687
vn -0.34213596664157375 0.4479809563216348 -0.8259879194657687
vn 0.8259879194657687 -0.4479809563216348 0.34213596664157375
vn -0.863579297232387 -0.4479811541890921 0.23139507964307632
vn -0.863579297232387 0.4479811541890921 0.23139507964307632
vn 0.34213596664157375 0.4479809563216348 -0.8259879194657687
vn 0.8259879194657687 0.4479809563216348 0.34213596664157375
vn 0.23139507964307632 -0.4479811541890921 -0.863579297232387
vn -0.23139507964307632 -0.4479811541890921 -0.863579297232387
vn -0.23139507964307632 0.4479811541890921 -0.863579297232387
vn 0.7742638503576528 -0.4479809134185132 0.4470219136038595
vn -0.8259879194657687 -0.4479809563216348 0.34213596664157375
vn -0.8259879194657687 0.4479809563216348 0.34213596664157375
vn 0.23139507964307632 0.4479811541890921 -0.863579297232387
vn 0.7742638503576528 0.4479809134185132 0.4470219136038595
vn 0.1166959399715072 -0.44798076955830346 -0.8863945440378774
vn -0.1166959399715072 -0.44798076955830346 -0.8863945440378774
vn -0.1166959399715072 0.44798076955830346 -0.8863945440378774
vn 0.7092920082611242 -0.44798100521763484 0.5442590063389847
vn -0.7742638503576528 -0.4479809134185132 0.4470219136038595
vn -0.7742638503576528 0.4479809134185132 0.4470219136038595
vn 0.1166959399715072 0.44798076955830346 -0.8863945440378774
vn 0.7092920082611242 0.44798100521763484 0.5442590063389847
vn 0.02926198998833372 -0.4474048469253793 -0.8938526941781855
vn -0.02926198998833372 -0.4474048469253793 -0.8938526941781855
vn -0.02926198998833372 0.4474048469253793 -0.8938526941781855
vn 0.02926198998833372 0.4474048469253793 -0.8938526941781855
vn 0.6321839380229024 -0.4479809560815172 0.6321839380229024
vn -0.7092920082611242 -0.44798100521763484 0.5442590063389847
vn -0.7092920082611242 0.44798100521763484 0.5442590063389847
vn 0.6321839380229024 0.4479809560815172 0.6321839380229024
vn 0.5442590063389847 0.44798100521763484 0.7092920082611242
vn -0.6321839380229024 -0.4479809560815172 0.6321839380229024
vn -0.6321839380229024 0.4479809560815172 0.6321839380229024
vn 0.5442590063389847 -0.44798100521763484 0.7092920082611242
vn 0.4470219136038595 0.4479809134185132 0.7742638503576528
vn -0.5442590063389847 0.44798100521763484 0.7092920082611242
vn -0.5442590063389847 -0.44798100521763484 0.7092920082611242
vn 0.4470219136038595 -0.4479809134185132 0.7742638503576528
vn 0.34213596664157375 0.4479809563216348 0.8259879194657687
vn -0.4470219136038595 0.4479809134185132 0.7742638503576528
vn -0.4470219136038595 -0.4479809134185132 0.7742638503576528
vn 0.34213596664157375 -0.4479809563216348 0.8259879194657687
vn 0.23139507964307632 0.4479811541890921 0.863579297232387
vn -0.34213596664157375 0.4479809563216348 0.8259879194657687
vn -0.34213596664157375 -0.4479809563216348 0.8259879194657687
vn 0.23139507964307632 -0.4479811541890921 0.863579297232387
vn 0.1166959399715072 0.44798076955830346 0.8863945440378774
vn -0.23139507964307632 0.4479811541890921 0.863579297232387
vn -0.23139507964307632 -0.4479811541890921 0.863579297232387
vn 0.1166959399715072 -0.44798076955830346 0.8863945440378774
vn 0.02926198998833372 0.4474048469253793 0.8938526941781855
vn -0.1166959399715072 0.44798076955830346 0.8863945440378774
vn -0.1166959399715072 -0.44798076955830346 0.8863945440378774
vn 0.02926198998833372 -0.4474048469253793 0.8938526941781855
vn -0.02926198998833372 0.4474048469253793 0.8938526941781855
vn -0.02926198998833372 -0.4474048469253793 0.8938526941781855
usemtl material_0_0
f 1//1 2//2 3//3
f 2//2 1//1 4//4
f 5//5 3//3 2//2
f 3//3 6//6 1//1
f 1//1 7//7 4//4
f 4//4 8//8 2//2
f 9//9 3//3 5//5
f 5//5 2//2 10//10
f 6//6 3//3 11//11
f 6//6 12//12 1//1
f 1//1 12//12 7//7
f 4//4 7//7 13//13
f 8//8 4//4 14//14
f 10//10 2//2 8//8
f 9//9 11//11 3//3
f 7//7 9//9 5//5
f 13//13 5//5 10//10
f 11//11 15//15 6//6
f 6//6 16//16 12//12
f 9//9 7//7 12//12
f 5//5 13//13 7//7
f 4//4 13//13 14//14
f 14//14 17//17 8//8
f 10//10 8//8 18//18
f 19//19 11//11 9//9
f 10//10 20//20 13//13
f 15//15 11//11 21//21
f 15//15 16//16 6//6
f 19//19 12//12 16//16
f 12//12 19//19 9//9
f 14//14 13//13 20//20
f 17//17 14//14 22//22
f 18//18 8//8 17//17
f 20//20 10//10 18//18
f 19//19 21//21 11//11
f 21//21 23//23 15//15
f 15//15 24//24 16//16
f 16//16 25//25 19//19
f 14//14 20//20 22//22
f 22//22 26//26 17//17
f 18//18 17//17 27//27
f 18//18 28//28 20//20
f 25//25 21//21 19//19
f 23//23 21//21 29//29
f 23//23 24//24 15//15
f 25//25 16//16 24//24
f 22//22 20//20 28//28
f 26//26 22//22 30//30
f 27//27 17//17 26//26
f 28//28 18//18 27//27
f 25//25 29//29 21//21
f 31//31 23//23 29//29
f 23//23 32//32 24//24
f 32//32 25//25 24//24
f 22//22 28//28 30//30
f 30//30 33//33 26//26
f 27//27 26//26 34//34
f 27//27 35//35 28//28
f 36//36 29//29 25//25
f 23//23 31//31 37//37
f 36//36 31//31 29//29
f 37//37 32//32 23//23
f 25//25 32//32 36//36
f 30//30 28//28 35//35
f 33//33 30//30 38//38
f 34//34 26//26 33//33
f 35//35 27//27 34//34
f 39//39 37//37 31//31
f 40//40 31//31 36//36
f 37//37 41//41 32//32
f 41//41 36//36 32//32
f 30//30 35//35 38//38
f 38//38 42//42 33//33
f 34//34 33//33 43//43
f 34//34 44//44 35//35
f 37//37 39//39 45//45
f 40//40 39//39 31//31
f 36//36 41//41 40//40
f 45//45 41//41 37//37
f 38//38 35//35 44//44
f 42//42 38//38 46//46
f 43//43 33//33 42//42
f 44//44 34//34 43//43
f 47//47 45//45 39//39
f 48//48 39//39 40//40
f 49//49 40//40 41//41
f 45//45 49//49 41//41
f 38//38 44//44 46//46
f 46//46 50//50 42//42
f 43//43 42//42 51//51
f 43//43 52//52 44//44
f 45//45 47//47 53//53
f 48//48 47//47 39//39
f 40//40 49//49 48//48
f 53//53 49//49 45//45
f 46//46 44//44 52//52
f 50//50 46//46 54//54
f 51//51 42//42 50//50
f 52//52 43//43 51//51
f 55//55 53//53 47//47
f 56//56 47//47 48//48
f 57//57 48//48 49//49
f 53//53 57//57 49//49
f 46//46 52//52 54//54
f 54//54 58//58 50//50
f 51//51 50//50 59//59
f 51//51 60//60 52//52
f 53//53 55//55 61//61
f 56//56 55//55 47//47
f 48//48 57//57 56//56
f 61//61 57//57 53//53
f 54//54 52//52 60//60
f 58//58 54//54 62//62
f 59//59 50//50 58//58
f 60//60 51//51 59//59
f 63//63 61//61 55//55
f 64//64 55//55 56//56
f 65//65 56//56 57//57
f 61//61 65//65 57//57
f 54//54 60//60 62//62
f 62//62 66//66 58//58
f 59//59 58//58 67//67
f 59//59 68//68 60//60
f 61//61 63//63 69//69
f 64//64 63//63 55//55
f 56//56 65//65 64//64
f 69//69 65//65 61//61
f 62//62 60//60 68//68
f 66//66 62//62 70//70
f 67//67 58//58 66//66
f 68//68 59//59 67//67
f 71//71 69//69 63//63
f 72//72 63//63 64//64
f 73//73 64//64 65//65
f 74//74 65//65 69//69
f 62//62 68//68 70//70
f 70//70 75//75 66//66
f 67//67 66//66 76//76
f 67//67 77//77 68//68
f 69//69 71//71 74//74
f 63//63 72//72 71//71
f 64//64 73//73 72//72
f 65//65 74//74 73//73
f 70//70 68//68 77//77
f 75//75 70//70 78//78
f 76//76 66//66 75//75
f 77//77 67//67 76//76
f 72//72 74//74 71//71
f 74//74 72//72 73//73
f 70//70 77//77 78//78
f 79//79 75//75 78//78
f 76//76 75//75 80//80
f 76//76 81//81 77//77
f 78//78 77//77 81//81
f 75//75 79//79 82//82
f 78//78 81//81 79//79
f 80//80 75//75 82//82
f 81//81 76//76 80//80
f 83//83 82//82 79//79
f 79//79 81//81 84//84
f 80//80 82//82 85//85
f 85//85 81//81 80//80
f 82//82 83//83 86//86
f 79//79 84//84 83//83
f 81//81 85//85 84//84
f 85//85 82//82 86//86
f 87//87 86//86 83//83
f 83//83 84//84 88//88
f 89//89 84//84 85//85
f 85//85 86//86 89//89
f 86//86 87//87 90//90
f 83//83 88//88 87//87
f 84//84 89//89 88//88
f 89//89 86//86 90//90
f 91//91 90//90 87//87
f 87//87 88//88 92//92
f 93//93 88//88 89//89
f 89//89 90//90 93//93
f 90//90 91//91 94//94
f 87//87 92//92 91//91
f 88//88 93//93 92//92
f 93//93 90//90 94//94
f 95//95 94//94 91//91
f 91//91 92//92 96//96
f 97//97 92//92 93//93
f 93//93 94//94 97//97
f 94//94 95//95 98//98
f 91//91 96//96 95//95
f 92//92 97//97 96//96
f 97//97 94//94 98//98
f 99//99 98//98 95//95
f 95//95 96//96 100//100
f 101//101 96//96 97//97
f 97//97 98//98 101//101
f 98//98 99//99 102//102
f 95//95 100//100 99//99
f 96//96 101//101 100//100
f 101//101 98//98 102//102
f 103//103 102//102 99//99
f 99//99 100//100 103//103
f 104//104 100//100 101//101
f 101//101 102//102 104//104
f 102//102 103//103 104//104
f 100//100 104//104 103//103
usemtl material_1_0
f 3//60 2//52 1//59
f 4//51 1//59 2//52
f 2//52 3//60 5//54
f 1//59 6//67 3//60
f 4//51 7//50 1//59
f 2//52 8//44 4//51
f 5//54 3//60 9//62
f 10//46 2//52 5//54
f 11//68 3//60 6//67
f 1//59 12//58 6//67
f 7//50 12//58 1//59
f 13//42 7//50 4//51
f 14//43 4//51 8//44
f 8//44 2//52 10//46
f 3//60 11//68 9//62
f 5//54 9//62 7//50
f 10//46 5//54 13//42
f 6//67 15//76 11//68
f 12//58 16//66 6//67
f 12//58 7//50 9//62
f 7//50 13//42 5//54
f 14//43 13//42 4//51
f 8//44 17//35 14//43
f 18//38 8//44 10//46
f 9//62 11//68 19//70
f 13//42 20//33 10//46
f 21//77 11//68 15//76
f 6//67 16//66 15//76
f 16//66 12//58 19//70
f 9//62 19//70 12//58
f 20//33 13//42 14//43
f 22//34 14//43 17//35
f 17//35 8//44 18//38
f 18//38 10//46 20//33
f 11//68 21//77 19//70
f 15//76 23//80 21//77
f 16//66 24//75 15//76
f 19//70 25//78 16//66
f 22//34 20//33 14//43
f 17//35 26//28 22//34
f 27//30 17//35 18//38
f 20//33 28//26 18//38
f 19//70 21//77 25//78
f 29//81 21//77 23//80
f 15//76 24//75 23//80
f 24//75 16//66 25//78
f 28//26 20//33 22//34
f 30//27 22//34 26//28
f 26//28 17//35 27//30
f 27//30 18//38 28//26
f 21//77 29//81 25//78
f 29//81 23//80 31//84
f 24//75 32//82 23//80
f 24//75 25//78 32//82
f 30//27 28//26 22//34
f 26//28 33//20 30//27
f 34//22 26//28 27//30
f 28//26 35//17 27//30
f 25//78 29//81 36//79
f 37//85 31//84 23//80
f 29//81 31//84 36//79
f 23//80 32//82 37//85
f 36//79 32//82 25//78
f 35//17 28//26 30//27
f 38//18 30//27 33//20
f 33//20 26//28 34//22
f 34//22 27//30 35//17
f 31//84 37//85 39//88
f 36//79 31//84 40//83
f 32//82 41//86 37//85
f 32//82 36//79 41//86
f 38//18 35//17 30//27
f 33//20 42//13 38//18
f 43//14 33//20 34//22
f 35//17 44//8 34//22
f 45//89 39//88 37//85
f 31//84 39//88 40//83
f 40//83 41//86 36//79
f 37//85 41//86 45//89
f 44//8 35//17 38//18
f 46//10 38//18 42//13
f 42//13 33//20 43//14
f 43//14 34//22 44//8
f 39//88 45//89 47//92
f 40//83 39//88 48//87
f 41//86 40//83 49//90
f 41//86 49//90 45//89
f 46//10 44//8 38//18
f 42//13 50//7 46//10
f 51//4 42//13 43//14
f 44//8 52//2 43//14
f 53//93 47//92 45//89
f 39//88 47//92 48//87
f 48//87 49//90 40//83
f 45//89 49//90 53//93
f 52//2 44//8 46//10
f 54//5 46//10 50//7
f 50//7 42//13 51//4
f 51//4 43//14 52//2
f 47//92 53//93 55//96
f 48//87 47//92 56//91
f 49//90 48//87 57//94
f 49//90 57//94 53//93
f 54//5 52//2 46//10
f 50//7 58//12 54//5
f 59//1 50//7 51//4
f 52//2 60//3 51//4
f 61//97 55//96 53//93
f 47//92 55//96 56//91
f 56//91 57//94 48//87
f 53//93 57//94 61//97
f 60//3 52//2 54//5
f 62//9 54//5 58//12
f 58//12 50//7 59//1
f 59//1 51//4 60//3
f 55//96 61//97 63//100
f 56//91 55//96 64//95
f 57//94 56//91 65//98
f 57//94 65//98 61//97
f 62//9 60//3 54//5
f 58//12 66//16 62//9
f 67//6 58//12 59//1
f 60//3 68//11 59//1
f 69//101 63//100 61//97
f 55//96 63//100 64//95
f 64//95 65//98 56//91
f 61//97 65//98 69//101
f 68//11 60//3 62//9
f 70//19 62//9 66//16
f 66//16 58//12 67//6
f 67//6 59//1 68//11
f 63//100 69//101 71//103
f 64//95 63//100 72//99
f 65//98 64//95 73//102
f 69//101 65//98 74//104
f 70//19 68//11 62//9
f 66//16 75//24 70//19
f 76//15 66//16 67//6
f 68//11 77//21 67//6
f 74//104 71//103 69//101
f 71//103 72//99 63//100
f 72//99 73//102 64//95
f 73//102 74//104 65//98
f 77//21 68//11 70//19
f 78//25 70//19 75//24
f 75//24 66//16 76//15
f 76//15 67//6 77//21
f 71//103 74//104 72//99
f 73//102 72//99 74//104
f 78//25 77//21 70//19
f 78//25 75//24 79//36
f 80//23 75//24 76//15
f 77//21 81//29 76//15
f 81//29 77//21 78//25
f 82//32 79//36 75//24
f 79//36 81//29 78//25
f 82//32 75//24 80//23
f 80//23 76//15 81//29
f 79//36 82//32 83//40
f 84//31 81//29 79//36
f 85//37 82//32 80//23
f 80//23 81//29 85//37
f 86//41 83//40 82//32
f 83//40 84//31 79//36
f 84//31 85//37 81//29
f 86//41 82//32 85//37
f 83//40 86//41 87//48
f 88//39 84//31 83//40
f 85//37 84//31 89//45
f 89//45 86//41 85//37
f 90//49 87//48 86//41
f 87//48 88//39 83//40
f 88//39 89//45 84//31
f 90//49 86//41 89//45
f 87//48 90//49 91//56
f 92//47 88//39 87//48
f 89//45 88//39 93//53
f 93//53 90//49 89//45
f 94//57 91//56 90//49
f 91//56 92//47 87//48
f 92//47 93//53 88//39
f 94//57 90//49 93//53
f 91//56 94//57 95//64
f 96//55 92//47 91//56
f 93//53 92//47 97//61
f 97//61 94//57 93//53
f 98//65 95//64 94//57
f 95//64 96//55 91//56
f 96//55 97//61 92//47
f 98//65 94//57 97//61
f 95//64 98//65 99//72
f 100//63 96//55 95//64
f 97//61 96//55 101//69
f 101//69 98//65 97//61
f 102//73 99//72 98//65
f 99//72 100//63 95//64
f 100//63 101//69 96//55
f 102//73 98//65 101//69
f 99//72 102//73 103//71
f 103//71 100//63 99//72
f 101//69 100//63 104//74
f 104//74 102//73 101//69
f 104//74 103//71 102//73
f 103//71 104//74 100//63
