# SSTK version 0.8.0
# 6
mtllib original-6.mtl
o Group4/mesh4/mesh4-geometry#mesh4-geometry
v -0.352929 -0.254663 0.083914
v -0.370194 -0.250071 0.091725
v -0.370194 -0.251099 0.083914
v -0.352929 -0.253513 0.092648
v -0.370194 -0.190738 0.083914
v -0.352929 -0.253513 0.075180
v -0.370194 -0.247056 0.099004
v -0.370194 -0.250071 0.076103
v -0.370194 -0.191766 0.091725
v -0.352929 -0.250142 0.100786
v -0.370194 -0.191766 0.076103
v -0.352929 -0.188323 0.092648
v -0.352929 -0.250142 0.067042
v -0.370194 -0.242259 0.105255
v -0.370194 -0.194781 0.099004
v -0.370194 -0.194781 0.068824
v -0.352929 -0.187174 0.083914
v -0.352929 -0.191695 0.100786
v -0.370194 -0.247056 0.068824
v -0.352929 -0.244779 0.107775
v -0.370194 -0.199577 0.105255
v -0.352929 -0.188323 0.075180
v -0.352929 -0.244779 0.060053
v -0.352929 -0.237791 0.113138
v -0.370194 -0.236009 0.110051
v -0.352929 -0.197057 0.107775
v -0.370194 -0.199577 0.062573
v -0.352929 -0.191695 0.067042
v -0.370194 -0.242259 0.062573
v -0.370194 -0.205828 0.110051
v -0.352929 -0.204046 0.113138
v -0.352929 -0.237791 0.054690
v -0.352929 -0.229652 0.116509
v -0.370194 -0.213107 0.113066
v -0.370194 -0.205828 0.057777
v -0.352929 -0.197057 0.060053
v -0.370194 -0.236009 0.057777
v -0.370194 -0.228730 0.113066
v -0.352929 -0.212185 0.116509
v -0.352929 -0.204046 0.054690
v -0.352929 -0.229652 0.051319
v -0.352929 -0.220918 0.117659
v -0.370194 -0.220918 0.114095
v -0.370194 -0.228730 0.054762
v -0.352929 -0.212185 0.051319
v -0.370194 -0.213107 0.054762
v -0.352929 -0.220918 0.050169
v -0.370194 -0.220918 0.053733
vn -0.20216201878610862 -0.9793520910072766 0
vn -0.5849410332579933 -0.783439044543995 0.20992201193553617
vn -0.5849409265147535 -0.811075898105758 0
vn -0.20216209074755048 -0.9459814246369671 0.253475113781202
vn -0.5849409265147535 0.811075898105758 0
vn -0.20216209074755048 -0.9459814246369671 -0.253475113781202
vn -0.5849410992443326 -0.7024121191751136 0.40553806880582505
vn -0.5849410332579933 -0.783439044543995 -0.20992201193553617
vn -0.5849410332579933 0.783439044543995 0.20992201193553617
vn -0.20216196927583058 -0.8481438711008006 0.48967592558003786
vn -0.5849410332579933 0.783439044543995 -0.20992201193553617
vn -0.20216209074755048 0.9459814246369671 0.253475113781202
vn -0.20216196927583058 -0.8481438711008006 -0.48967592558003786
vn -0.5849411544072293 -0.5735171513916291 0.5735171513916291
vn -0.5849410992443326 0.7024121191751136 0.40553806880582505
vn -0.5849410992443326 0.7024121191751136 -0.40553806880582505
vn -0.20216201878610862 0.9793520910072766 0
vn -0.20216196927583058 0.8481438711008006 0.48967592558003786
vn -0.5849410992443326 -0.7024121191751136 -0.40553806880582505
vn -0.20216186209108747 -0.6925065275922908 0.6925065275922908
vn -0.5849411544072293 0.5735171513916291 0.5735171513916291
vn -0.20216209074755048 0.9459814246369671 -0.253475113781202
vn -0.20216186209108747 -0.6925065275922908 -0.6925065275922908
vn -0.20216196927583058 -0.48967592558003786 0.8481438711008006
vn -0.5849410992443326 -0.40553806880582505 0.7024121191751136
vn -0.20216186209108747 0.6925065275922908 0.6925065275922908
vn -0.5849411544072293 0.5735171513916291 -0.5735171513916291
vn -0.20216196927583058 0.8481438711008006 -0.48967592558003786
vn -0.5849411544072293 -0.5735171513916291 -0.5735171513916291
vn -0.5849410992443326 0.40553806880582505 0.7024121191751136
vn -0.20216196927583058 0.48967592558003786 0.8481438711008006
vn -0.20216196927583058 -0.48967592558003786 -0.8481438711008006
vn -0.20216209074755048 -0.253475113781202 0.9459814246369671
vn -0.5849410332579933 0.20992201193553617 0.783439044543995
vn -0.5849410992443326 0.40553806880582505 -0.7024121191751136
vn -0.20216186209108747 0.6925065275922908 -0.6925065275922908
vn -0.5849410992443326 -0.40553806880582505 -0.7024121191751136
vn -0.5849410332579933 -0.20992201193553617 0.783439044543995
vn -0.20216209074755048 0.253475113781202 0.9459814246369671
vn -0.20216196927583058 0.48967592558003786 -0.8481438711008006
vn -0.20216209074755048 -0.253475113781202 -0.9459814246369671
vn -0.20216201878610862 0 0.9793520910072766
vn -0.5849409265147535 0 0.811075898105758
vn -0.5849410332579933 -0.20992201193553617 -0.783439044543995
vn -0.20216209074755048 0.253475113781202 -0.9459814246369671
vn -0.5849410332579933 0.20992201193553617 -0.783439044543995
vn -0.20216201878610862 0 -0.9793520910072766
vn -0.5849409265147535 0 -0.811075898105758
vn 0.5849409265147535 0.811075898105758 0
vn 0.5849410332579933 0.783439044543995 -0.20992201193553617
vn 0.20216201878610862 0.9793520910072766 0
vn 0.20216209074755048 0.9459814246369671 -0.253475113781202
vn 0.5849409265147535 -0.811075898105758 0
vn 0.20216209074755048 0.9459814246369671 0.253475113781202
vn 0.5849410992443326 0.7024121191751136 -0.40553806880582505
vn 0.5849410332579933 0.783439044543995 0.20992201193553617
vn 0.5849410332579933 -0.783439044543995 -0.20992201193553617
vn 0.20216196927583058 0.8481438711008006 -0.48967592558003786
vn 0.5849410332579933 -0.783439044543995 0.20992201193553617
vn 0.20216209074755048 -0.9459814246369671 -0.253475113781202
vn 0.20216196927583058 0.8481438711008006 0.48967592558003786
vn 0.5849411544072293 0.5735171513916291 -0.5735171513916291
vn 0.5849410992443326 -0.7024121191751136 -0.40553806880582505
vn 0.5849410992443326 -0.7024121191751136 0.40553806880582505
vn 0.20216201878610862 -0.9793520910072766 0
vn 0.20216196927583058 -0.8481438711008006 -0.48967592558003786
vn 0.5849410992443326 0.7024121191751136 0.40553806880582505
vn 0.20216186209108747 0.6925065275922908 -0.6925065275922908
vn 0.5849411544072293 -0.5735171513916291 -0.5735171513916291
vn 0.20216209074755048 -0.9459814246369671 0.253475113781202
vn 0.20216186209108747 0.6925065275922908 0.6925065275922908
vn 0.20216196927583058 0.48967592558003786 -0.8481438711008006
vn 0.5849410992443326 0.40553806880582505 -0.7024121191751136
vn 0.20216186209108747 -0.6925065275922908 -0.6925065275922908
vn 0.5849411544072293 -0.5735171513916291 0.5735171513916291
vn 0.20216196927583058 -0.8481438711008006 0.48967592558003786
vn 0.5849411544072293 0.5735171513916291 0.5735171513916291
vn 0.5849410992443326 -0.40553806880582505 -0.7024121191751136
vn 0.20216196927583058 -0.48967592558003786 -0.8481438711008006
vn 0.20216196927583058 0.48967592558003786 0.8481438711008006
vn 0.20216209074755048 0.253475113781202 -0.9459814246369671
vn 0.5849410332579933 -0.20992201193553617 -0.783439044543995
vn 0.5849410992443326 -0.40553806880582505 0.7024121191751136
vn 0.20216186209108747 -0.6925065275922908 0.6925065275922908
vn 0.5849410992443326 0.40553806880582505 0.7024121191751136
vn 0.5849410332579933 0.20992201193553617 -0.783439044543995
vn 0.20216209074755048 -0.253475113781202 -0.9459814246369671
vn 0.20216196927583058 -0.48967592558003786 0.8481438711008006
vn 0.20216209074755048 0.253475113781202 0.9459814246369671
vn 0.20216201878610862 0 -0.9793520910072766
vn 0.5849409265147535 0 -0.811075898105758
vn 0.5849410332579933 0.20992201193553617 0.783439044543995
vn 0.20216209074755048 -0.253475113781202 0.9459814246369671
vn 0.5849410332579933 -0.20992201193553617 0.783439044543995
vn 0.20216201878610862 0 0.9793520910072766
vn 0.5849409265147535 0 0.811075898105758
usemtl material_0_0
f 1//1 2//2 3//3
f 2//2 1//1 4//4
f 5//5 3//3 2//2
f 3//3 6//6 1//1
f 4//4 7//7 2//2
f 5//5 8//8 3//3
f 5//5 2//2 9//9
f 6//6 3//3 8//8
f 7//7 4//4 10//10
f 9//9 2//2 7//7
f 11//11 8//8 5//5
f 12//12 5//5 9//9
f 8//8 13//13 6//6
f 10//10 14//14 7//7
f 9//9 7//7 15//15
f 16//16 8//8 11//11
f 17//17 11//11 5//5
f 5//5 12//12 17//17
f 9//9 18//18 12//12
f 13//13 8//8 19//19
f 14//14 10//10 20//20
f 21//21 7//7 14//14
f 15//15 7//7 21//21
f 18//18 9//9 15//15
f 16//16 19//19 8//8
f 22//22 16//16 11//11
f 11//11 17//17 22//22
f 19//19 23//23 13//13
f 24//24 14//14 20//20
f 21//21 14//14 25//25
f 26//26 15//15 21//21
f 15//15 26//26 18//18
f 27//27 19//19 16//16
f 16//16 22//22 28//28
f 23//23 19//19 29//29
f 14//14 24//24 25//25
f 21//21 25//25 30//30
f 21//21 31//31 26//26
f 27//27 29//29 19//19
f 28//28 27//27 16//16
f 29//29 32//32 23//23
f 33//33 25//25 24//24
f 30//30 25//25 34//34
f 31//31 21//21 30//30
f 35//35 29//29 27//27
f 27//27 28//28 36//36
f 32//32 29//29 37//37
f 25//25 33//33 38//38
f 34//34 25//25 38//38
f 39//39 30//30 34//34
f 30//30 39//39 31//31
f 35//35 37//37 29//29
f 27//27 40//40 35//35
f 40//40 27//27 36//36
f 37//37 41//41 32//32
f 42//42 38//38 33//33
f 34//34 38//38 43//43
f 34//34 42//42 39//39
f 35//35 44//44 37//37
f 45//45 35//35 40//40
f 41//41 37//37 44//44
f 38//38 42//42 43//43
f 42//42 34//34 43//43
f 46//46 44//44 35//35
f 35//35 45//45 46//46
f 44//44 47//47 41//41
f 44//44 46//46 48//48
f 47//47 46//46 45//45
f 47//47 44//44 48//48
f 46//46 47//47 48//48
usemtl material_1_0
f 3//49 2//50 1//51
f 4//52 1//51 2//50
f 2//50 3//49 5//53
f 1//51 6//54 3//49
f 2//50 7//55 4//52
f 3//49 8//56 5//53
f 9//57 2//50 5//53
f 8//56 3//49 6//54
f 10//58 4//52 7//55
f 7//55 2//50 9//57
f 5//53 8//56 11//59
f 9//57 5//53 12//60
f 6//54 13//61 8//56
f 7//55 14//62 10//58
f 15//63 7//55 9//57
f 11//59 8//56 16//64
f 5//53 11//59 17//65
f 17//65 12//60 5//53
f 12//60 18//66 9//57
f 19//67 8//56 13//61
f 20//68 10//58 14//62
f 14//62 7//55 21//69
f 21//69 7//55 15//63
f 15//63 9//57 18//66
f 8//56 19//67 16//64
f 11//59 16//64 22//70
f 22//70 17//65 11//59
f 13//61 23//71 19//67
f 20//68 14//62 24//72
f 25//73 14//62 21//69
f 21//69 15//63 26//74
f 18//66 26//74 15//63
f 16//64 19//67 27//75
f 28//76 22//70 16//64
f 29//77 19//67 23//71
f 25//73 24//72 14//62
f 30//78 25//73 21//69
f 26//74 31//79 21//69
f 19//67 29//77 27//75
f 16//64 27//75 28//76
f 23//71 32//80 29//77
f 24//72 25//73 33//81
f 34//82 25//73 30//78
f 30//78 21//69 31//79
f 27//75 29//77 35//83
f 36//84 28//76 27//75
f 37//85 29//77 32//80
f 38//86 33//81 25//73
f 38//86 25//73 34//82
f 34//82 30//78 39//87
f 31//79 39//87 30//78
f 29//77 37//85 35//83
f 35//83 40//88 27//75
f 36//84 27//75 40//88
f 32//80 41//89 37//85
f 33//81 38//86 42//90
f 43//91 38//86 34//82
f 39//87 42//90 34//82
f 37//85 44//92 35//83
f 40//88 35//83 45//93
f 44//92 37//85 41//89
f 43//91 42//90 38//86
f 43//91 34//82 42//90
f 35//83 44//92 46//94
f 46//94 45//93 35//83
f 41//89 47//95 44//92
f 48//96 46//94 44//92
f 45//93 46//94 47//95
f 48//96 44//92 47//95
f 48//96 47//95 46//94
