# SSTK version 0.8.0
# 50
mtllib original-50.mtl
o Group14/mesh22/mesh22-geometry#mesh22-geometry
v -0.417676 0.147831 -0.277454
v -0.487966 0.159279 -0.272743
v -0.488324 0.152028 -0.276985
v -0.417318 0.155082 -0.273213
v -0.417530 0.147823 -0.285938
v -0.487463 0.166520 -0.276985
v -0.488178 0.152020 -0.285468
v -0.416815 0.162323 -0.277454
v -0.487675 0.159262 -0.289710
v -0.416669 0.162315 -0.285938
v -0.417027 0.155064 -0.290180
v -0.487317 0.166512 -0.285468
vn -0.05985401411235119 -0.8613222030821424 0.5045211189557512
vn -0.017146008182239946 0.0010190004862768286 0.9998524771392145
vn 0.05985401411235119 0.8613222030821424 -0.5045211189557512
vn 0.017146008182239946 -0.0010190004862768286 -0.9998524771392145
vn -0.042551009583722425 -0.8623501942262938 -0.5045211136327988
vn 0.042551009583722425 0.8623501942262938 0.5045211136327988
usemtl material_0_0
f 1//1 2//2 3//1
f 2//2 1//1 4//2
f 3//3 2//4 1//3
f 4//4 1//3 2//4
f 3//1 5//5 1//1
f 1//3 5//6 3//3
f 4//2 6//6 2//2
f 2//4 6//5 4//4
f 5//5 3//1 7//5
f 7//6 3//3 5//6
f 6//6 4//2 8//6
f 8//5 4//4 6//5
f 9//4 5//5 7//5
f 7//6 5//6 9//2
f 10//3 6//6 8//6
f 8//5 6//5 10//1
f 5//5 9//4 11//4
f 11//2 9//2 5//6
f 6//6 10//3 12//3
f 12//1 10//1 6//5
f 12//3 11//4 9//4
f 9//2 11//2 12//1
f 11//4 12//3 10//3
f 10//1 12//1 11//2
