# SSTK version 0.8.0
# 3
mtllib original-3.mtl
o mesh2/mesh2-geometry#mesh2-geometry
v 0.008439 -0.604906 0.039637
v -0.013904 -0.604906 0.039637
v -0.002733 -0.604906 0.038167
v 0.018849 -0.604906 0.043949
v -0.002733 -0.401898 0.038167
v 0.008439 -0.401898 0.039637
v 0.018849 -0.401898 0.043949
v -0.024314 -0.604906 0.043949
v -0.013904 -0.401898 0.039637
v 0.027788 -0.401898 0.050809
v 0.027788 -0.604906 0.050809
v -0.024314 -0.401898 0.043949
v -0.002733 -0.401898 0.047176
v -0.033253 -0.604906 0.050809
v -0.033253 -0.401898 0.050809
v 0.034648 -0.604906 0.059748
v 0.006107 -0.401898 0.048340
v 0.034648 -0.401898 0.059748
v 0.006107 -0.370964 0.048340
v 0.014344 -0.401898 0.051752
v -0.011572 -0.401898 0.048340
v -0.040113 -0.604906 0.059748
v -0.040113 -0.401898 0.059748
v 0.038960 -0.604906 0.070158
v -0.002733 -0.370964 0.047176
v 0.014344 -0.370964 0.051752
v -0.019809 -0.401898 0.051752
v -0.044425 -0.604906 0.070158
v 0.021418 -0.401898 0.057179
v 0.038960 -0.401898 0.070158
v -0.011572 -0.370964 0.048340
v -0.019809 -0.370964 0.051752
v 0.021418 -0.370964 0.057179
v -0.044425 -0.401898 0.070158
v -0.026883 -0.401898 0.057179
v 0.026845 -0.401898 0.064253
v 0.040430 -0.604906 0.081330
v -0.002733 -0.370964 0.053704
v 0.004417 -0.370964 0.054646
v -0.045895 -0.401898 0.081330
v -0.032310 -0.401898 0.064253
v 0.030257 -0.401898 0.072490
v 0.040430 -0.401898 0.081330
v -0.045895 -0.604906 0.081330
v -0.009882 -0.370964 0.054646
v 0.011080 -0.370964 0.057405
v -0.035722 -0.401898 0.072490
v -0.032310 -0.370964 0.064253
v -0.026883 -0.370964 0.057179
v 0.026845 -0.370964 0.064253
v 0.038960 -0.604906 0.092501
v -0.044425 -0.401898 0.092501
v -0.036886 -0.401898 0.081330
v -0.035722 -0.370964 0.072490
v 0.030257 -0.370964 0.072490
v 0.031421 -0.401898 0.081330
v 0.038960 -0.401898 0.092501
v -0.044425 -0.604906 0.092501
v -0.016545 -0.370964 0.057405
v 0.016801 -0.370964 0.061796
v -0.036886 -0.370964 0.081330
v -0.026657 -0.370964 0.067517
v 0.021192 -0.370964 0.067517
v 0.030257 -0.401898 0.090169
v 0.034648 -0.604906 0.102911
v -0.040113 -0.401898 0.102911
v -0.035722 -0.401898 0.090169
v -0.035722 -0.370964 0.090169
v -0.029416 -0.370964 0.074180
v -0.022267 -0.370964 0.061796
v 0.023951 -0.370964 0.074180
v 0.031421 -0.370964 0.081330
v 0.026845 -0.401898 0.098406
v 0.034648 -0.401898 0.102911
v -0.040113 -0.604906 0.102911
v -0.032310 -0.401898 0.098406
v -0.030358 -0.370964 0.081330
v 0.030257 -0.370964 0.090169
v 0.027788 -0.604906 0.111850
v -0.033253 -0.604906 0.111850
v -0.033253 -0.401898 0.111850
v -0.026883 -0.401898 0.105480
v -0.032310 -0.370964 0.098406
v -0.029416 -0.370964 0.088480
v 0.024893 -0.370964 0.081330
v 0.026845 -0.370964 0.098406
v 0.021418 -0.401898 0.105480
v 0.027788 -0.401898 0.111850
v -0.026883 -0.370964 0.105480
v -0.026657 -0.370964 0.095142
v 0.023951 -0.370964 0.088480
v 0.021192 -0.370964 0.095142
v 0.018849 -0.401898 0.118710
v 0.018849 -0.604906 0.118710
v -0.024314 -0.604906 0.118710
v -0.019809 -0.401898 0.110907
v -0.022267 -0.370964 0.100864
v 0.016801 -0.370964 0.100864
v 0.021418 -0.370964 0.105480
v 0.014344 -0.401898 0.110907
v 0.006107 -0.401898 0.114319
v -0.024314 -0.401898 0.118710
v -0.011572 -0.401898 0.114319
v -0.019809 -0.370964 0.110907
v -0.016545 -0.370964 0.105254
v 0.014344 -0.370964 0.110907
v 0.008439 -0.401898 0.123022
v -0.002733 -0.401898 0.115483
v 0.008439 -0.604906 0.123022
v -0.013904 -0.604906 0.123022
v -0.009882 -0.370964 0.108014
v 0.011080 -0.370964 0.105254
v 0.004417 -0.370964 0.108014
v 0.006107 -0.370964 0.114319
v -0.013904 -0.401898 0.123022
v -0.002733 -0.370964 0.115483
v -0.011572 -0.370964 0.114319
v -0.002733 -0.370964 0.108955
v -0.002733 -0.401898 0.124493
v -0.002733 -0.604906 0.124493
vn 0 -1 0
vn -0.2588189595935754 0 -0.965925849201117
vn 0 0 -1
vn 0.2588189595935754 0 -0.965925849201117
vn 0.5000001748438417 0 -0.8660253028382762
vn 0.7071067811865476 0 -0.7071067811865476
vn -0.5000001748438417 0 -0.8660253028382762
vn 0 1 0
vn 0.8660253028382762 0 -0.5000001748438417
vn -0.7071067811865476 0 -0.7071067811865476
vn -0.8660253028382762 0 -0.5000001748438417
vn 0.965925849201117 0 -0.2588189595935754
vn -0.965925849201117 0 -0.2588189595935754
vn 1 0 0
vn -1 0 0
vn 0.965925849201117 0 0.2588189595935754
vn -0.965925849201117 0 0.2588189595935754
vn 0.8660253028382762 0 0.5000001748438417
vn -0.8660253028382762 0 0.5000001748438417
vn 0.7071067811865476 0 0.7071067811865476
vn -0.7071067811865476 0 0.7071067811865476
vn 0.5000001748438417 0 0.8660253028382762
vn -0.5000001748438417 0 0.8660253028382762
vn 0.2588189595935754 0 0.965925849201117
vn -0.2588189595935754 0 0.965925849201117
vn 0 0 1
usemtl material_0_0
f 1//1 2//1 3//1
f 2//1 1//1 4//1
f 2//2 5//3 3//3
f 3//3 6//4 1//4
f 1//4 7//5 4//5
f 2//1 4//1 8//1
f 5//3 2//2 9//2
f 6//4 3//3 5//3
f 7//5 1//4 6//4
f 10//6 4//5 7//5
f 8//1 4//1 11//1
f 8//7 9//2 2//2
f 9//8 6//8 5//8
f 6//8 12//8 7//8
f 4//5 10//6 11//6
f 13//8 10//8 7//8
f 8//1 11//1 14//1
f 9//2 8//7 12//7
f 6//8 9//8 12//8
f 7//8 12//8 15//8
f 10//6 16//9 11//6
f 10//8 13//8 17//8
f 7//8 15//8 13//8
f 14//1 11//1 16//1
f 14//10 12//7 8//7
f 12//7 14//10 15//10
f 16//9 10//6 18//9
f 13//3 19//4 17//4
f 10//8 17//8 20//8
f 13//8 15//8 21//8
f 14//1 16//1 22//1
f 14//10 23//11 15//10
f 10//8 20//8 18//8
f 18//9 24//12 16//9
f 19//4 13//3 25//3
f 26//5 17//4 19//4
f 17//4 26//5 20//5
f 21//8 15//8 27//8
f 21//2 25//3 13//3
f 22//1 16//1 28//1
f 23//11 14//10 22//11
f 27//8 15//8 23//8
f 18//8 20//8 29//8
f 24//12 18//9 30//12
f 28//1 16//1 24//1
f 31//8 19//8 25//8
f 19//8 32//8 26//8
f 33//6 20//5 26//5
f 27//7 31//2 21//2
f 25//3 21//2 31//2
f 34//13 22//11 28//13
f 22//11 34//13 23//11
f 27//8 23//8 35//8
f 20//5 33//6 29//6
f 18//8 29//8 36//8
f 18//8 36//8 30//8
f 30//12 37//14 24//12
f 28//1 24//1 37//1
f 19//8 31//8 32//8
f 26//8 32//8 38//8
f 26//8 39//8 33//8
f 31//2 27//7 32//7
f 28//13 40//15 34//13
f 41//8 23//8 34//8
f 35//8 23//8 41//8
f 35//10 32//7 27//7
f 33//6 36//9 29//6
f 30//8 36//8 42//8
f 37//14 30//12 43//14
f 28//1 37//1 44//1
f 38//8 32//8 45//8
f 39//8 26//8 38//8
f 33//8 39//8 46//8
f 40//15 28//13 44//15
f 47//8 34//8 40//8
f 41//8 34//8 47//8
f 48//11 35//10 41//11
f 32//7 35//10 49//10
f 36//9 33//6 50//9
f 50//9 42//12 36//9
f 30//8 42//8 43//8
f 43//14 51//16 37//14
f 44//1 37//1 51//1
f 45//8 32//8 49//8
f 33//8 46//8 50//8
f 44//15 52//17 40//15
f 47//8 40//8 53//8
f 54//13 41//11 47//13
f 35//10 48//11 49//10
f 41//11 54//13 48//11
f 42//12 50//9 55//12
f 43//8 42//8 56//8
f 51//16 43//14 57//16
f 44//1 51//1 58//1
f 45//8 49//8 59//8
f 50//8 46//8 60//8
f 52//17 44//15 58//17
f 53//8 40//8 52//8
f 61//15 47//13 53//15
f 47//13 61//15 54//13
f 59//8 49//8 48//8
f 62//8 48//8 54//8
f 50//8 63//8 55//8
f 55//12 56//14 42//12
f 43//8 56//8 64//8
f 43//8 64//8 57//8
f 57//16 65//18 51//16
f 58//1 51//1 65//1
f 50//8 60//8 63//8
f 58//17 66//19 52//17
f 53//8 52//8 67//8
f 53//15 68//17 61//15
f 69//8 54//8 61//8
f 59//8 48//8 70//8
f 70//8 48//8 62//8
f 62//8 54//8 69//8
f 55//8 63//8 71//8
f 56//14 55//12 72//14
f 72//14 64//16 56//14
f 57//8 64//8 73//8
f 65//18 57//16 74//18
f 58//1 65//1 75//1
f 66//19 58//17 75//19
f 76//8 52//8 66//8
f 67//8 52//8 76//8
f 68//17 53//15 67//17
f 77//8 61//8 68//8
f 69//8 61//8 77//8
f 55//8 71//8 72//8
f 64//16 72//14 78//16
f 78//16 73//18 64//16
f 57//8 73//8 74//8
f 74//18 79//20 65//18
f 75//1 65//1 80//1
f 75//19 81//21 66//19
f 76//8 66//8 82//8
f 83//19 67//17 76//19
f 67//17 83//19 68//17
f 77//8 68//8 84//8
f 72//8 71//8 85//8
f 72//8 85//8 78//8
f 73//18 78//16 86//18
f 74//8 73//8 87//8
f 79//20 74//18 88//20
f 80//1 65//1 79//1
f 81//21 75//19 80//21
f 82//8 66//8 81//8
f 89//21 76//19 82//21
f 76//19 89//21 83//19
f 90//8 68//8 83//8
f 84//8 68//8 90//8
f 78//8 85//8 91//8
f 78//8 92//8 86//8
f 86//18 87//20 73//18
f 74//8 87//8 88//8
f 93//22 79//20 88//20
f 80//1 79//1 94//1
f 95//23 81//21 80//21
f 82//8 81//8 96//8
f 96//23 89//21 82//21
f 97//8 83//8 89//8
f 90//8 83//8 97//8
f 78//8 91//8 92//8
f 86//8 92//8 98//8
f 87//20 86//18 99//20
f 88//8 87//8 100//8
f 79//20 93//22 94//22
f 88//8 101//8 93//8
f 80//1 94//1 95//1
f 81//21 95//23 102//23
f 96//8 81//8 103//8
f 89//21 96//23 104//23
f 97//8 89//8 105//8
f 86//8 98//8 99//8
f 106//22 87//20 99//20
f 87//20 106//22 100//22
f 88//8 100//8 101//8
f 107//24 94//22 93//22
f 93//8 101//8 108//8
f 95//1 94//1 109//1
f 110//25 102//23 95//23
f 103//8 81//8 102//8
f 103//25 104//23 96//23
f 111//8 89//8 104//8
f 105//8 89//8 111//8
f 99//8 98//8 112//8
f 99//8 113//8 106//8
f 114//24 100//22 106//22
f 100//22 114//24 101//24
f 94//22 107//24 109//24
f 93//8 115//8 107//8
f 101//24 116//26 108//26
f 93//8 108//8 102//8
f 95//1 109//1 110//1
f 102//23 110//25 115//25
f 103//8 102//8 108//8
f 104//23 103//25 117//25
f 111//8 104//8 118//8
f 99//8 112//8 113//8
f 106//8 113//8 118//8
f 106//8 104//8 114//8
f 116//26 101//24 114//24
f 119//26 109//24 107//24
f 93//8 102//8 115//8
f 107//8 115//8 119//8
f 117//25 108//26 116//26
f 110//1 109//1 120//1
f 120//26 115//25 110//25
f 108//26 117//25 103//25
f 114//8 104//8 117//8
f 118//8 104//8 106//8
f 114//8 117//8 116//8
f 109//24 119//26 120//26
f 115//25 120//26 119//26
usemtl material_1_0
f 3//8 2//8 1//8
f 4//8 1//8 2//8
f 3//26 5//26 2//24
f 1//25 6//25 3//26
f 4//23 7//23 1//25
f 8//8 4//8 2//8
f 9//24 2//24 5//26
f 5//26 3//26 6//25
f 6//25 1//25 7//23
f 7//23 4//23 10//21
f 11//8 4//8 8//8
f 2//24 9//24 8//22
f 5//1 6//1 9//1
f 7//1 12//1 6//1
f 11//21 10//21 4//23
f 7//1 10//1 13//1
f 14//8 11//8 8//8
f 12//22 8//22 9//24
f 12//1 9//1 6//1
f 15//1 12//1 7//1
f 11//21 16//19 10//21
f 17//1 13//1 10//1
f 13//1 15//1 7//1
f 16//8 11//8 14//8
f 8//22 12//22 14//20
f 15//20 14//20 12//22
f 18//19 10//21 16//19
f 17//25 19//25 13//26
f 20//1 17//1 10//1
f 21//1 15//1 13//1
f 22//8 16//8 14//8
f 15//20 23//18 14//20
f 18//1 20//1 10//1
f 16//19 24//17 18//19
f 25//26 13//26 19//25
f 19//25 17//25 26//23
f 20//23 26//23 17//25
f 27//1 15//1 21//1
f 13//26 25//26 21//24
f 28//8 16//8 22//8
f 22//18 14//20 23//18
f 23//1 15//1 27//1
f 29//1 20//1 18//1
f 30//17 18//19 24//17
f 24//8 16//8 28//8
f 25//1 19//1 31//1
f 26//1 32//1 19//1
f 26//23 20//23 33//21
f 21//24 31//24 27//22
f 31//24 21//24 25//26
f 28//16 22//18 34//16
f 23//18 34//16 22//18
f 35//1 23//1 27//1
f 29//21 33//21 20//23
f 36//1 29//1 18//1
f 30//1 36//1 18//1
f 24//17 37//15 30//17
f 37//8 24//8 28//8
f 32//1 31//1 19//1
f 38//1 32//1 26//1
f 33//1 39//1 26//1
f 32//22 27//22 31//24
f 34//16 40//14 28//16
f 34//1 23//1 41//1
f 41//1 23//1 35//1
f 27//22 32//22 35//20
f 29//21 36//19 33//21
f 42//1 36//1 30//1
f 43//15 30//17 37//15
f 44//8 37//8 28//8
f 45//1 32//1 38//1
f 38//1 26//1 39//1
f 46//1 39//1 33//1
f 44//14 28//16 40//14
f 40//1 34//1 47//1
f 47//1 34//1 41//1
f 41//18 35//20 48//18
f 49//20 35//20 32//22
f 50//19 33//21 36//19
f 36//19 42//17 50//19
f 43//1 42//1 30//1
f 37//15 51//13 43//15
f 51//8 37//8 44//8
f 49//1 32//1 45//1
f 50//1 46//1 33//1
f 40//14 52//12 44//14
f 53//1 40//1 47//1
f 47//16 41//18 54//16
f 49//20 48//18 35//20
f 48//18 54//16 41//18
f 55//17 50//19 42//17
f 56//1 42//1 43//1
f 57//13 43//15 51//13
f 58//8 51//8 44//8
f 59//1 49//1 45//1
f 60//1 46//1 50//1
f 58//12 44//14 52//12
f 52//1 40//1 53//1
f 53//14 47//16 61//14
f 54//16 61//14 47//16
f 48//1 49//1 59//1
f 54//1 48//1 62//1
f 55//1 63//1 50//1
f 42//17 56//15 55//17
f 64//1 56//1 43//1
f 57//1 64//1 43//1
f 51//13 65//11 57//13
f 65//8 51//8 58//8
f 63//1 60//1 50//1
f 52//12 66//9 58//12
f 67//1 52//1 53//1
f 61//14 68//12 53//14
f 61//1 54//1 69//1
f 70//1 48//1 59//1
f 62//1 48//1 70//1
f 69//1 54//1 62//1
f 71//1 63//1 55//1
f 72//15 55//17 56//15
f 56//15 64//13 72//15
f 73//1 64//1 57//1
f 74//11 57//13 65//11
f 75//8 65//8 58//8
f 75//9 58//12 66//9
f 66//1 52//1 76//1
f 76//1 52//1 67//1
f 67//12 53//14 68//12
f 68//1 61//1 77//1
f 77//1 61//1 69//1
f 72//1 71//1 55//1
f 78//13 72//15 64//13
f 64//13 73//11 78//13
f 74//1 73//1 57//1
f 65//11 79//10 74//11
f 80//8 65//8 75//8
f 66//9 81//6 75//9
f 82//1 66//1 76//1
f 76//9 67//12 83//9
f 68//12 83//9 67//12
f 84//1 68//1 77//1
f 85//1 71//1 72//1
f 78//1 85//1 72//1
f 86//11 78//13 73//11
f 87//1 73//1 74//1
f 88//10 74//11 79//10
f 79//8 65//8 80//8
f 80//6 75//9 81//6
f 81//1 66//1 82//1
f 82//6 76//9 89//6
f 83//9 89//6 76//9
f 83//1 68//1 90//1
f 90//1 68//1 84//1
f 91//1 85//1 78//1
f 86//1 92//1 78//1
f 73//11 87//10 86//11
f 88//1 87//1 74//1
f 88//10 79//10 93//7
f 94//8 79//8 80//8
f 80//6 81//6 95//5
f 96//1 81//1 82//1
f 82//6 89//6 96//5
f 89//1 83//1 97//1
f 97//1 83//1 90//1
f 92//1 91//1 78//1
f 98//1 92//1 86//1
f 99//10 86//11 87//10
f 100//1 87//1 88//1
f 94//7 93//7 79//10
f 93//1 101//1 88//1
f 95//8 94//8 80//8
f 102//5 95//5 81//6
f 103//1 81//1 96//1
f 104//5 96//5 89//6
f 105//1 89//1 97//1
f 99//1 98//1 86//1
f 99//10 87//10 106//7
f 100//7 106//7 87//10
f 101//1 100//1 88//1
f 93//7 94//7 107//2
f 108//1 101//1 93//1
f 109//8 94//8 95//8
f 95//5 102//5 110//4
f 102//1 81//1 103//1
f 96//5 104//5 103//4
f 104//1 89//1 111//1
f 111//1 89//1 105//1
f 112//1 98//1 99//1
f 106//1 113//1 99//1
f 106//7 100//7 114//2
f 101//2 114//2 100//7
f 109//2 107//2 94//7
f 107//1 115//1 93//1
f 108//3 116//3 101//2
f 102//1 108//1 93//1
f 110//8 109//8 95//8
f 115//4 110//4 102//5
f 108//1 102//1 103//1
f 117//4 103//4 104//5
f 118//1 104//1 111//1
f 113//1 112//1 99//1
f 118//1 113//1 106//1
f 114//1 104//1 106//1
f 114//2 101//2 116//3
f 107//2 109//2 119//3
f 115//1 102//1 93//1
f 119//1 115//1 107//1
f 116//3 108//3 117//4
f 120//8 109//8 110//8
f 110//4 115//4 120//3
f 103//4 117//4 108//3
f 117//1 104//1 114//1
f 106//1 104//1 118//1
f 116//1 117//1 114//1
f 120//3 119//3 109//2
f 119//3 120//3 115//4
