# SSTK version 0.8.0
# 51
mtllib original-51.mtl
o Group15/mesh23/mesh23-geometry#mesh23-geometry
v -0.478687 -0.073679 0.135971
v -0.498760 -0.066707 0.139410
v -0.498278 -0.073270 0.134986
v -0.437786 -0.067981 0.142476
v -0.497948 -0.059970 0.135403
v -0.476191 -0.073529 0.127601
v -0.440026 -0.074486 0.137915
v -0.496985 -0.073094 0.126555
v -0.437305 -0.074543 0.138052
v -0.436975 -0.061243 0.138469
v -0.496655 -0.059794 0.126972
v -0.496173 -0.066357 0.122548
v -0.439317 -0.074338 0.131118
v -0.436012 -0.074368 0.129621
v -0.439462 -0.060989 0.129847
v -0.438912 -0.067552 0.125427
v -0.439104 -0.074303 0.129465
v -0.435681 -0.061068 0.130038
v -0.438935 -0.067825 0.125589
v -0.435200 -0.067630 0.125614
v -0.439044 -0.073294 0.128863
vn -0.103004992898321 -0.854907941058374 0.5084509649448494
vn -0.15157794235400998 -0.020551992183955543 0.9882316241696553
vn -0.9985210399303579 0.020854000833941084 -0.05020800200779294
vn 0.060711016869954726 -0.8276622299850187 -0.5579331550345811
vn -0.07774996597879932 -0.9420875877689402 0.32622985725098014
vn -0.060711016869954726 0.8276622299850187 0.5579331550345811
vn 0.15157794235400998 0.020551992183955543 -0.9882316241696553
vn -0.02482499712197619 -0.9992018841600344 -0.031293996372008984
vn 0.9985210399303579 -0.020854000833941084 0.05020800200779294
vn 0.1233580137156232 0.7369920819428377 -0.6645490738882252
vn 0.103004992898321 0.854907941058374 -0.5084509649448494
vn 0.12269200122710407 -0.4416030044166925 -0.8887820088891533
vn 0.07774996597879932 0.9420875877689402 -0.32622985725098014
vn 0.02482499712197619 0.9992018841600344 0.031293996372008984
vn -0.1233580137156232 -0.7369920819428377 0.6645490738882252
vn -0.12269200122710407 0.4416030044166925 0.8887820088891533
usemtl material_0_0
f 1//1 2//2 3//1
f 2//2 1//1 4//2
f 5//3 3//3 2//3
f 3//1 6//4 1//1
f 4//2 1//1 7//5
f 4//2 5//6 2//2
f 3//3 5//3 8//3
f 6//4 3//1 8//4
f 1//1 6//4 7//5
f 4//2 7//5 9//1
f 5//6 4//2 10//6
f 8//3 5//3 11//3
f 12//7 6//4 8//4
f 7//5 6//4 13//8
f 7//5 14//4 9//1
f 9//9 10//9 4//9
f 15//10 5//6 10//6
f 5//6 15//10 11//11
f 8//3 11//3 12//3
f 6//4 12//7 16//7
f 13//8 6//4 17//4
f 13//8 14//4 7//5
f 18//9 9//9 14//9
f 10//9 9//9 18//9
f 15//10 10//6 18//11
f 16//7 11//11 15//10
f 11//11 16//7 12//7
f 6//4 16//7 19//12
f 6//4 19//12 17//4
f 14//4 13//8 17//4
f 18//9 14//9 20//9
f 20//7 15//10 18//11
f 15//10 20//7 16//7
f 20//7 19//12 16//7
f 17//4 19//12 21//12
f 21//12 14//4 17//4
f 14//4 19//12 20//7
f 14//4 21//12 19//12
usemtl material_1_0
f 3//11 2//7 1//11
f 4//7 1//11 2//7
f 2//9 3//9 5//9
f 1//11 6//6 3//11
f 7//13 1//11 4//7
f 2//7 5//4 4//7
f 8//9 5//9 3//9
f 8//6 3//11 6//6
f 7//13 6//6 1//11
f 9//11 7//13 4//7
f 10//4 4//7 5//4
f 11//9 5//9 8//9
f 8//6 6//6 12//2
f 13//14 6//6 7//13
f 9//11 14//6 7//13
f 4//3 10//3 9//3
f 10//4 5//4 15//15
f 11//1 15//15 5//4
f 12//9 11//9 8//9
f 16//2 12//2 6//6
f 17//6 6//6 13//14
f 7//13 14//6 13//14
f 14//3 9//3 18//3
f 18//3 9//3 10//3
f 18//1 10//4 15//15
f 15//15 11//1 16//2
f 12//2 16//2 11//1
f 19//16 16//2 6//6
f 17//6 19//16 6//6
f 17//6 13//14 14//6
f 20//3 14//3 18//3
f 18//1 15//15 20//2
f 16//2 20//2 15//15
f 16//2 19//16 20//2
f 21//16 19//16 17//6
f 17//6 14//6 21//16
f 20//2 19//16 14//6
f 19//16 21//16 14//6
