mtllib new-14.mtl
v -0.149786 -0.183218 0.112523
v -0.289473 -0.175216 0.097148
v -0.149727 -0.175901 0.101378
v -0.299678 -0.177794 0.108397
v -0.149737 -0.180045 0.086888
v -0.292605 -0.194563 0.117323
v -0.332875 -0.165061 0.085839
v -0.293092 -0.187127 0.080608
v -0.149785 -0.205644 0.118012
v -0.336918 -0.175447 0.120711
v -0.341083 -0.146708 0.110646
v -0.149803 -0.199979 0.075027
v -0.347072 -0.203744 0.118124
v -0.331805 -0.204313 0.074560
v -0.149750 -0.233171 0.108543
v -0.149695 -0.222391 0.074421
v -0.296684 -0.228350 0.110820
v -0.302020 -0.230668 0.078098
v -0.300281 -0.237549 0.100483
v -0.345193 -0.219549 0.106776
v -0.350264 -0.220412 0.089321
v -0.149727 -0.239833 0.086844
v -0.379500 -0.199897 0.101988
v -0.301842 -0.239320 0.089965
vn -0.007967 -0.914848 -0.403719
vn -0.049670 -0.923275 -0.380914
vn 0.012513 -0.835918 -0.548712
vn -0.012513 0.835918 0.548712
vn 0.049670 0.923275 0.380914
vn 0.007967 0.914848 0.403719
vn -0.080098 -0.953320 -0.291144
vn 0.080098 0.953320 0.291144
vn -0.013030 -0.961371 0.274947
vn -0.111597 -0.859311 0.499129
vn -0.003762 -0.799605 0.600515
vn 0.003762 0.799605 -0.600515
vn 0.111597 0.859311 -0.499129
vn 0.013030 0.961371 -0.274947
vn -0.003195 -0.355288 -0.934752
vn -0.069500 -0.254962 -0.964450
vn -0.203225 -0.461686 -0.863450
vn 0.203225 0.461686 0.863450
vn 0.069500 0.254962 0.964450
vn 0.003195 0.355288 0.934752
vn -0.131583 -0.933583 -0.333331
vn 0.131583 0.933583 0.333331
vn -0.072507 -0.560413 0.825034
vn 0.072507 0.560413 -0.825034
vn -0.004290 0.002920 -0.999987
vn 0.004290 -0.002920 0.999987
vn -0.414533 -0.419213 -0.807727
vn 0.414533 0.419213 0.807727
vn -0.718313 -0.596849 0.357488
vn -0.660543 -0.691297 0.292902
vn -0.543272 -0.750791 0.375723
vn 0.543272 0.750791 -0.375723
vn 0.660543 0.691297 -0.292902
vn 0.718313 0.596849 -0.357488
vn -0.159334 -0.410167 0.897984
vn 0.159334 0.410167 -0.897984
vn -0.002909 -0.300581 0.953752
vn 0.002909 0.300581 -0.953752
vn 0.103208 0.293818 -0.950273
vn -0.103208 -0.293818 0.950273
vn -0.052538 0.109592 -0.992587
vn 0.052538 -0.109592 0.992587
vn -0.601058 -0.228799 -0.765755
vn 0.601058 0.228799 0.765755
vn 0.100652 0.010193 0.994869
vn -0.100652 -0.010193 -0.994869
vn -0.000364 0.625406 -0.780299
vn 0.000364 -0.625406 0.780299
vn 0.000658 0.243469 0.969908
vn -0.000658 -0.243469 -0.969908
vn 0.093967 0.593419 -0.799390
vn -0.093967 -0.593419 0.799390
vn 0.127816 0.582319 0.802850
vn -0.127816 -0.582319 -0.802850
vn 0.109880 0.899826 -0.422183
vn -0.109880 -0.899826 0.422183
vn 0.351484 0.801390 -0.483976
vn -0.351484 -0.801390 0.483976
vn 0.411019 0.568838 0.712381
vn -0.411019 -0.568838 -0.712381
vn 0.001492 0.703248 0.710943
vn -0.001492 -0.703248 -0.710943
vn -0.006095 0.973113 -0.230248
vn 0.006095 -0.973113 0.230248
vn 0.681675 0.695199 -0.228074
vn -0.681675 -0.695199 0.228074
vn 0.156417 0.799205 0.580350
vn -0.156417 -0.799205 -0.580350
vn 0.236948 0.955380 -0.176363
vn -0.236948 -0.955380 0.176363
vn 0.436176 0.883579 -0.170409
vn -0.436176 -0.883579 0.170409
usemtl material-0
f 1//1 2//2 3//3
f 3//4 2//5 1//6
f 1//1 4//7 2//2
f 2//5 4//8 1//6
f 3//9 2//10 5//11
f 5//12 2//13 3//14
f 1//15 6//16 4//17
f 4//18 6//19 1//20
f 4//7 7//21 2//2
f 2//5 7//22 4//8
f 2//10 8//23 5//11
f 5//12 8//24 2//13
f 9//25 6//16 1//15
f 1//20 6//19 9//26
f 6//16 10//27 4//17
f 4//18 10//28 6//19
f 11//29 7//30 4//31
f 4//32 7//33 11//34
f 2//10 7//35 8//23
f 8//24 7//36 2//13
f 5//11 8//23 12//37
f 12//38 8//24 5//12
f 9//25 13//39 6//16
f 6//19 13//40 9//26
f 6//16 13//39 10//41
f 10//42 13//40 6//19
f 4//17 10//27 11//43
f 11//44 10//28 4//18
f 8//23 7//35 14//45
f 14//46 7//36 8//24
f 12//37 8//23 14//45
f 14//46 8//24 12//38
f 15//47 13//39 9//25
f 9//26 13//40 15//48
f 16//49 12//37 14//45
f 14//46 12//38 16//50
f 15//47 17//51 13//39
f 13//40 17//52 15//48
f 16//49 14//45 18//53
f 18//54 14//46 16//50
f 17//51 15//47 19//55
f 19//56 15//48 17//52
f 17//51 20//57 13//39
f 13//40 20//58 17//52
f 18//53 14//45 21//59
f 21//60 14//46 18//54
f 16//49 18//53 22//61
f 22//62 18//54 16//50
f 15//47 22//63 19//55
f 19//56 22//64 15//48
f 17//51 19//55 20//57
f 20//58 19//56 17//52
f 24//67 18//53 21//59
f 21//60 18//54 24//68
f 24//67 22//61 18//53
f 18//54 22//62 24//68
f 19//55 22//63 24//69
f 24//70 22//64 19//56
f 20//57 19//55 24//69
f 24//70 19//56 20//58
f 20//57 21//71 23//65
f 23//66 21//72 20//58
f 20//57 24//69 21//71
f 21//72 24//70 20//58