mtllib new-0.mtl
v -0.005021 -0.721452 -0.456743
v -0.000562 -0.726139 -0.456248
v -0.000562 -0.726139 -0.014816
v -0.005026 -0.721676 -0.012850
v -0.001771 -0.707541 -0.458216
v -0.001727 -0.655901 -0.014410
v 0.000982 -0.704111 -0.458566
v 0.002779 -0.650952 -0.016291
v 0.026202 -0.704111 -0.458566
v 0.024406 -0.650952 -0.016291
v 0.028912 -0.655901 -0.014410
v 0.028955 -0.707541 -0.458216
v 0.032211 -0.721676 -0.012850
v 0.032205 -0.721452 -0.456743
v 0.027747 -0.726139 -0.014816
v 0.027747 -0.726139 -0.456248
v -0.050574 -0.638762 0.015546
v -0.039252 -0.645648 -0.015651
v 0.011671 -0.638750 -0.032456
v -0.019927 -0.649734 -0.031951
v -0.009812 -0.651455 -0.203421
v -0.038419 -0.709797 -0.020730
v -0.018658 -0.677024 -0.358164
v 0.021966 -0.646504 -0.184467
v -0.022860 -0.709797 -0.032102
v -0.019671 -0.685494 -0.212237
v -0.008138 -0.668993 -0.352015
v 0.019524 -0.661272 -0.317944
v 0.044363 -0.645218 -0.031038
v -0.020474 -0.694931 -0.121942
v -0.019528 -0.688653 -0.332923
v -0.013746 -0.698768 -0.457483
v 0.044726 -0.668102 -0.322546
v 0.041682 -0.650980 -0.151908
v -0.018068 -0.711250 -0.460217
v 0.012176 -0.701177 -0.474654
v 0.034256 -0.676796 -0.387253
v 0.047618 -0.657307 -0.032144
v -0.002536 -0.715802 -0.483853
v 0.044638 -0.700261 -0.457982
v -0.010665 -0.727911 -0.455702
v 0.023419 -0.718289 -0.486915
v 0.046615 -0.688740 -0.334453
v 0.046693 -0.685504 -0.212037
v 0.049913 -0.709797 -0.032102
v -0.013169 -0.715147 -0.433040
v 0.028851 -0.728930 -0.473616
v 0.044173 -0.712356 -0.463997
v 0.047404 -0.694361 -0.125575
v 0.040982 -0.718514 -0.433732
vn -0.715933 -0.698169 -0.000182
vn -0.724569 -0.689203 0.000000
vn 0.715933 0.698169 0.000182
vn 0.724569 0.689203 0.000000
vn -0.707187 -0.707027 -0.000364
vn 0.707187 0.707027 0.000364
vn -0.950459 0.309691 -0.026804
vn -0.973781 0.227489 0.000102
vn -0.990248 0.139284 -0.002818
vn 0.990248 -0.139284 0.002818
vn 0.973781 -0.227489 -0.000102
vn 0.950459 -0.309691 0.026804
vn -0.884668 0.463126 -0.053639
vn 0.884668 -0.463126 0.053639
vn -0.766619 0.637834 -0.073910
vn 0.766619 -0.637834 0.073910
vn -0.751430 0.655452 -0.075730
vn 0.751430 -0.655452 0.075730
vn 0.000000 0.992854 -0.119336
vn 0.000000 -0.992854 0.119336
vn 0.751427 0.655456 -0.075730
vn 0.884667 0.463128 -0.053640
vn 0.766618 0.637836 -0.073910
vn -0.766618 -0.637836 0.073910
vn -0.884667 -0.463128 0.053640
vn -0.751427 -0.655456 0.075730
vn 0.950459 0.309692 -0.026804
vn -0.950459 -0.309692 0.026804
vn 0.990248 0.139285 -0.002818
vn -0.990248 -0.139285 0.002818
vn 0.973780 0.227492 0.000102
vn -0.973780 -0.227492 -0.000102
vn 0.715932 -0.698170 -0.000182
vn 0.707184 -0.707029 -0.000364
vn -0.715932 0.698170 0.000182
vn -0.707184 0.707029 0.000364
vn 0.724569 -0.689203 0.000000
vn -0.724569 0.689203 0.000000
vn 0.230952 -0.972717 -0.021967
vn 0.225691 -0.861825 0.454226
vn 0.097556 -0.971668 0.215278
vn -0.097556 0.971668 -0.215278
vn -0.225691 0.861825 -0.454226
vn -0.230952 0.972717 0.021967
vn 0.833143 -0.371215 0.409966
vn -0.833143 0.371215 -0.409966
vn 0.355234 -0.931172 0.082026
vn -0.355234 0.931172 -0.082026
vn 0.584265 -0.028358 0.811068
vn -0.584265 0.028358 -0.811068
vn 0.902404 -0.423458 0.079692
vn -0.902404 0.423458 -0.079692
vn -0.150087 -0.985672 0.076967
vn 0.150087 0.985672 -0.076967
vn 0.589793 -0.030826 0.806966
vn -0.589793 0.030826 -0.806966
vn 0.999260 -0.038148 0.004992
vn -0.999260 0.038148 -0.004992
vn 0.229868 -0.952076 0.201773
vn -0.229868 0.952076 -0.201773
vn -0.050344 -0.987958 0.146306
vn 0.050344 0.987958 -0.146306
vn -0.364768 -0.858319 0.360877
vn 0.364768 0.858319 -0.360877
vn 0.998638 -0.048806 0.018448
vn 0.999248 -0.036736 0.012382
vn -0.999248 0.036736 -0.012382
vn -0.998638 0.048806 -0.018448
vn 0.998585 -0.052142 0.010413
vn -0.998585 0.052142 -0.010413
vn 0.577014 -0.717423 0.390333
vn -0.577014 0.717423 -0.390333
vn -0.341837 -0.929041 0.141532
vn 0.341837 0.929041 -0.141532
vn -0.328768 -0.941842 0.069608
vn 0.328768 0.941842 -0.069608
vn 0.932380 -0.266604 0.244112
vn -0.932380 0.266604 -0.244112
vn 0.010662 -0.856528 0.515990
vn -0.010662 0.856528 -0.515990
vn -0.172560 -0.957078 0.232861
vn 0.172560 0.957078 -0.232861
vn -0.964268 -0.262750 0.033914
vn -0.942253 -0.333637 0.029079
vn -0.987850 -0.154186 0.019455
vn 0.987850 0.154186 -0.019455
vn 0.942253 0.333637 -0.029079
vn 0.964268 0.262750 -0.033914
vn 0.395843 -0.588185 0.705228
vn -0.395843 0.588185 -0.705228
vn -0.441887 -0.748075 0.495096
vn 0.441887 0.748075 -0.495096
vn -0.986625 -0.162191 0.016276
vn 0.986625 0.162191 -0.016276
vn 0.884615 0.437087 0.162514
vn 0.779690 0.461211 0.423518
vn -0.779690 -0.461211 -0.423518
vn -0.884615 -0.437087 -0.162514
vn -0.487852 -0.352477 0.798599
vn 0.487852 0.352477 -0.798599
vn -0.999124 -0.037057 0.019447
vn -0.998348 -0.055736 0.013991
vn 0.998348 0.055736 -0.013991
vn 0.999124 0.037057 -0.019447
vn -0.998803 -0.048392 0.007185
vn 0.998803 0.048392 -0.007185
vn 0.919024 0.378121 -0.111444
vn -0.919024 -0.378121 0.111444
vn 0.145270 0.800612 0.581307
vn -0.145270 -0.800612 -0.581307
vn -0.999405 0.031952 0.013015
vn 0.999405 -0.031952 -0.013015
vn -0.999525 -0.027785 0.013306
vn 0.999525 0.027785 -0.013306
vn -0.998854 -0.043659 0.019600
vn 0.998854 0.043659 -0.019600
vn -0.822429 0.265441 0.503141
vn 0.822429 -0.265441 -0.503141
vn -0.780830 0.528611 0.332978
vn 0.780830 -0.528611 -0.332978
vn -0.748974 0.660281 0.055380
vn 0.748974 -0.660281 -0.055380
usemtl material-0
f 1//1 2//2 3//1
f 3//3 2//4 1//3
f 1//1 3//1 4//5
f 4//6 3//3 1//3
f 5//7 1//8 4//9
f 4//10 1//11 5//12
f 6//13 5//7 4//9
f 4//10 5//12 6//14
f 6//13 7//15 5//7
f 5//12 7//16 6//14
f 8//17 7//15 6//13
f 6//14 7//16 8//18
f 8//19 9//19 7//19
f 7//20 9//20 8//20
f 10//19 9//19 8//19
f 8//20 9//20 10//20
f 10//21 11//22 9//23
f 9//24 11//25 10//26
f 11//22 12//27 9//23
f 9//24 12//28 11//25
f 11//22 13//29 12//27
f 12//28 13//30 11//25
f 12//27 13//29 14//31
f 14//32 13//30 12//28
f 14//33 13//34 15//33
f 15//35 13//36 14//35
f 14//33 15//33 16//37
f 16//38 15//35 14//35
usemtl material-1
f 17//39 18//40 19//41
f 19//42 18//43 17//44
f 18//40 20//45 19//41
f 19//42 20//46 18//43
f 20//45 21//47 19//41
f 19//42 21//48 20//46
f 20//45 23//51 21//47
f 21//48 23//52 20//46
f 19//41 21//47 24//53
f 24//54 21//48 19//42
f 20//45 22//49 25//55
f 25//56 22//50 20//46
f 20//45 26//57 23//51
f 23//52 26//58 20//46
f 21//47 23//51 27//59
f 27//60 23//52 21//48
f 24//53 21//47 28//61
f 28//62 21//48 24//54
f 29//63 19//41 24//53
f 24//54 19//42 29//64
f 20//45 25//65 30//66
f 30//67 25//68 20//46
f 20//45 30//66 26//57
f 26//58 30//67 20//46
f 23//51 26//57 31//69
f 31//70 26//58 23//52
f 27//59 23//51 32//71
f 32//72 23//52 27//60
f 21//47 27//59 28//61
f 28//62 27//60 21//48
f 24//53 28//61 33//73
f 33//74 28//62 24//54
f 29//63 24//53 34//75
f 34//76 24//54 29//64
f 23//51 31//69 35//77
f 35//78 31//70 23//52
f 23//51 35//77 32//71
f 32//72 35//78 23//52
f 27//59 32//71 36//79
f 36//80 32//72 27//60
f 28//61 27//59 37//81
f 37//82 27//60 28//62
f 28//61 37//81 33//73
f 33//74 37//82 28//62
f 34//75 24//53 33//73
f 33//74 24//54 34//76
f 29//83 34//84 38//85
f 38//86 34//87 29//88
f 32//71 35//77 39//89
f 39//90 35//78 32//72
f 32//71 39//89 36//79
f 36//80 39//90 32//72
f 27//59 36//79 37//81
f 37//82 36//80 27//60
f 33//73 37//81 40//91
f 40//92 37//82 33//74
f 34//84 33//93 38//85
f 38//86 33//94 34//87
f 35//95 41//95 39//96
f 39//97 41//98 35//98
f 42//99 36//79 39//89
f 39//90 36//80 42//100
f 37//81 36//79 40//91
f 40//92 36//80 37//82
f 33//93 40//101 43//102
f 43//103 40//104 33//94
f 38//85 33//93 44//105
f 44//106 33//94 38//86
f 35//95 46//107 41//95
f 41//98 46//108 35//98
f 40//91 36//79 42//99
f 42//100 36//80 40//92
f 47//109 42//109 39//109
f 39//110 42//110 47//110
f 43//102 40//101 48//111
f 48//112 40//104 43//103
f 33//93 43//102 44//105
f 44//106 43//103 33//94
f 38//85 44//105 49//113
f 49//114 44//106 38//86
f 38//85 49//113 45//115
f 45//116 49//114 38//86
f 40//91 42//99 48//117
f 48//118 42//100 40//92
f 48//117 42//99 47//119
f 47//120 42//100 48//118
f 48//117 47//119 50//121
f 50//122 47//120 48//118