mtllib new-2.mtl
v -0.050574 -0.638762 0.015546
v -0.059863 -0.649711 0.045685
v -0.048741 -0.644886 0.071144
v -0.053000 -0.654538 0.068087
v -0.024226 -0.638691 0.089523
v -0.138992 -0.652317 0.198982
v -0.054900 -0.709797 0.066792
v -0.131536 -0.647670 0.221104
v -0.226732 -0.672359 0.310719
v -0.107813 -0.694360 0.143888
v -0.101723 -0.650678 0.232460
v -0.214884 -0.664429 0.315384
v -0.158059 -0.685504 0.214256
v -0.174514 -0.662917 0.330328
v 0.001810 -0.649298 0.107725
v -0.286824 -0.691968 0.403147
v -0.229979 -0.688742 0.313367
v -0.094651 -0.657725 0.235251
v 0.025379 -0.648296 0.107438
v -0.234384 -0.674974 0.373118
v -0.297434 -0.701394 0.407950
v -0.170076 -0.671736 0.341711
v 0.023246 -0.709797 0.109512
v -0.263265 -0.695801 0.443872
v -0.302513 -0.709296 0.439974
v -0.305325 -0.714359 0.423737
v -0.245228 -0.699793 0.444802
v 0.003838 -0.709956 0.109494
v -0.114044 -0.685302 0.266486
v -0.178320 -0.689321 0.354858
v -0.060238 -0.692200 0.193361
v -0.273501 -0.711946 0.462482
v -0.299160 -0.720237 0.449775
v -0.251574 -0.711269 0.453105
v -0.254879 -0.727911 0.445100
v -0.278211 -0.720137 0.459997
v -0.239531 -0.715149 0.428234
v -0.291417 -0.724272 0.435443
v -0.291040 -0.730080 0.446346
v -0.291462 -0.728047 0.424005
v -0.276003 -0.726591 0.450047
v -0.260055 -0.721452 0.442622
v -0.263372 -0.726139 0.439602
v -0.003903 -0.726139 0.082475
v 0.000863 -0.721676 0.083509
v -0.263551 -0.707541 0.441904
v -0.002723 -0.655901 0.082833
v -0.265984 -0.704111 0.440569
v -0.007474 -0.650952 0.081705
v -0.286387 -0.704111 0.425745
v -0.024970 -0.650952 0.068993
v -0.027511 -0.655901 0.064823
v -0.288409 -0.707541 0.423845
v -0.029262 -0.721676 0.061622
v -0.290171 -0.721452 0.420742
v -0.026806 -0.726139 0.065836
v -0.286274 -0.726139 0.422963
v -0.261240 -0.724272 0.431333
v -0.261020 -0.730196 0.420809
v -0.261195 -0.728047 0.442771
v -0.276654 -0.726591 0.416729
vn 0.230952 -0.972717 -0.021967
vn -0.230952 0.972717 0.021967
vn 0.643770 -0.377052 -0.665876
vn -0.643770 0.377052 0.665876
vn 0.490729 -0.867827 -0.077855
vn -0.490729 0.867827 0.077855
vn 0.933911 -0.158799 -0.320301
vn -0.933911 0.158799 0.320301
vn 0.041363 -0.970997 -0.235488
vn -0.041363 0.970997 0.235488
vn 0.730776 -0.477123 0.488181
vn -0.730776 0.477123 -0.488181
vn 0.120713 -0.992605 -0.012830
vn -0.120713 0.992605 0.012830
vn 0.463015 -0.851950 0.244537
vn -0.463015 0.851950 -0.244537
vn 0.760007 -0.461577 0.457532
vn 0.811405 -0.139504 0.567592
vn -0.811405 0.139504 -0.567592
vn -0.760007 0.461577 -0.457532
vn 0.816600 -0.026442 0.576598
vn 0.819880 -0.041567 0.571025
vn -0.819880 0.041567 -0.571025
vn -0.816600 0.026442 -0.576598
vn -0.291105 -0.910478 -0.293746
vn 0.291105 0.910478 0.293746
vn 0.294349 -0.955445 0.022011
vn -0.294349 0.955445 -0.022011
vn 0.811996 -0.031036 0.582837
vn -0.811996 0.031036 -0.582837
vn -0.182620 -0.928373 -0.323686
vn 0.182620 0.928373 0.323686
vn -0.632568 -0.510643 -0.582324
vn 0.632568 0.510643 0.582324
vn 0.463226 -0.885676 -0.031617
vn -0.463226 0.885676 0.031617
vn 0.808703 0.035518 0.587143
vn -0.808703 -0.035518 -0.587143
vn -0.552530 -0.681901 -0.479293
vn 0.552530 0.681901 0.479293
vn 0.521209 -0.648164 -0.555180
vn -0.521209 0.648164 0.555180
vn 0.135130 -0.973788 -0.182965
vn -0.135130 0.973788 0.182965
vn 0.862100 -0.393382 0.319427
vn -0.862100 0.393382 -0.319427
vn -0.703693 -0.405056 -0.583734
vn 0.703693 0.405056 0.583734
vn -0.010727 -0.033320 -0.999387
vn -0.004795 -0.031222 -0.999501
vn 0.004795 0.031222 0.999501
vn 0.010727 0.033320 0.999387
vn 0.094158 -0.906755 -0.411011
vn -0.094158 0.906755 0.411011
vn 0.693358 -0.635393 -0.339898
vn -0.693358 0.635393 0.339898
vn 0.774788 0.240415 0.584726
vn -0.774788 -0.240415 -0.584726
vn -0.491063 -0.545373 -0.679283
vn 0.491063 0.545373 0.679283
vn 0.001138 -0.029122 -0.999575
vn -0.001138 0.029122 0.999575
vn -0.805496 -0.035912 -0.591513
vn 0.805496 0.035912 0.591513
vn 0.972263 -0.210036 -0.102903
vn -0.972263 0.210036 0.102903
vn -0.802142 -0.041961 -0.595657
vn 0.802142 0.041961 0.595657
vn -0.798337 -0.044218 -0.600586
vn -0.802291 -0.029730 -0.596193
vn 0.802291 0.029730 0.596193
vn 0.798337 0.044218 0.600586
vn 0.180815 -0.538486 -0.823006
vn -0.180815 0.538486 0.823006
vn 0.972154 0.114949 -0.204214
vn -0.972154 -0.114949 0.204214
vn -0.610363 -0.214205 -0.762609
vn 0.610363 0.214205 0.762609
vn 0.491986 -0.239989 -0.836872
vn -0.491986 0.239989 0.836872
vn -0.611275 0.438354 -0.658930
vn -0.532081 0.448805 -0.717958
vn -0.363339 0.458953 -0.810770
vn 0.363339 -0.458953 0.810770
vn 0.532081 -0.448805 0.717958
vn 0.611275 -0.438354 0.658930
vn 0.438359 0.020523 -0.898566
vn -0.438359 -0.020523 0.898566
vn -0.809005 0.377429 -0.450621
vn 0.809005 -0.377429 0.450621
vn -0.365820 0.456408 -0.811090
vn 0.365820 -0.456408 0.811090
vn 0.999247 0.035515 -0.015653
vn -0.999247 -0.035515 0.015653
vn 0.306093 -0.835805 -0.455782
vn -0.306093 0.835805 0.455782
vn 0.579071 -0.698199 0.420945
vn 0.586146 -0.689258 0.425861
vn -0.579071 0.698199 -0.420945
vn -0.586146 0.689258 -0.425861
vn 0.571907 -0.707033 0.415965
vn -0.571907 0.707033 -0.415965
vn 0.753179 0.309706 0.580348
vn 0.787852 0.227561 0.572281
vn 0.799467 0.139319 0.584331
vn -0.799467 -0.139319 -0.584331
vn -0.787852 -0.227561 -0.572281
vn -0.753179 -0.309706 -0.580348
vn 0.684182 0.463126 0.563391
vn -0.684182 -0.463126 -0.563391
vn 0.576763 0.637835 0.510402
vn -0.576763 -0.637835 -0.510402
vn 0.563389 0.655475 0.502937
vn -0.563389 -0.655475 -0.502937
vn -0.070142 0.992854 0.096546
vn 0.070142 -0.992854 -0.096546
vn -0.070143 0.992854 0.096545
vn 0.070143 -0.992854 -0.096545
vn -0.663647 0.637840 -0.390811
vn -0.652420 0.655471 -0.380403
vn -0.747238 0.463130 -0.476599
vn 0.747238 -0.463130 0.476599
vn 0.652420 -0.655471 0.380403
vn 0.663647 -0.637840 0.390811
vn -0.784697 0.309672 -0.536985
vn 0.784697 -0.309672 0.536985
vn -0.802787 0.139260 -0.579776
vn 0.802787 -0.139260 0.579776
vn -0.787754 0.227443 -0.572462
vn 0.787754 -0.227443 0.572462
vn -0.579318 -0.698158 -0.420673
vn -0.572342 -0.707025 -0.415380
vn 0.579318 0.698158 0.420673
vn 0.572342 0.707025 0.415380
vn -0.586204 -0.689183 -0.425902
vn 0.586204 0.689183 0.425902
vn -0.999600 -0.027792 -0.005239
vn 0.999600 0.027792 0.005239
vn -0.311887 -0.830735 0.461092
vn 0.311887 0.830735 -0.461092
usemtl material-1
f 3//5 4//7 2//3
f 2//4 4//8 3//6
f 5//9 3//5 1//1
f 1//2 3//6 5//10
f 3//11 6//11 4//11
f 4//12 6//12 3//12
f 8//13 3//5 5//9
f 5//10 3//6 8//14
f 8//13 6//15 3//5
f 3//6 6//16 8//14
f 6//15 9//17 4//18
f 4//19 9//20 6//16
f 4//18 10//21 7//22
f 7//23 10//24 4//19
f 11//25 8//13 5//9
f 5//10 8//14 11//26
f 12//27 6//15 8//13
f 8//14 6//16 12//28
f 12//27 9//17 6//15
f 6//16 9//20 12//28
f 4//18 9//17 13//29
f 13//30 9//20 4//19
f 4//18 13//29 10//21
f 10//24 13//30 4//19
f 14//31 8//13 11//25
f 11//26 8//14 14//32
f 11//25 5//9 15//33
f 15//34 5//10 11//26
f 14//31 12//27 8//13
f 8//14 12//28 14//32
f 16//35 9//17 12//27
f 12//28 9//20 16//36
f 9//17 17//37 13//29
f 13//30 17//38 9//20
f 14//31 11//25 18//39
f 18//40 11//26 14//32
f 15//33 5//9 19//41
f 19//42 5//10 15//34
f 18//39 11//25 15//33
f 15//34 11//26 18//40
f 20//43 12//27 14//31
f 14//32 12//28 20//44
f 9//17 16//35 21//45
f 21//46 16//36 9//20
f 16//35 12//27 20//43
f 20//44 12//28 16//36
f 9//17 21//45 17//37
f 17//38 21//46 9//20
f 22//47 14//31 18//39
f 18//40 14//32 22//48
f 19//49 23//50 15//50
f 15//51 23//51 19//52
f 15//33 22//47 18//39
f 18//40 22//48 15//34
f 24//53 20//43 14//31
f 14//32 20//44 24//54
f 25//55 21//45 16//35
f 16//36 21//46 25//56
f 24//53 16//35 20//43
f 20//44 16//36 24//54
f 17//37 21//45 26//57
f 26//58 21//46 17//38
f 27//59 14//31 22//47
f 22//48 14//32 27//60
f 23//50 28//61 15//50
f 15//51 28//62 23//51
f 15//33 29//63 22//47
f 22//48 29//64 15//34
f 27//59 24//53 14//31
f 14//32 24//54 27//60
f 21//45 25//55 26//65
f 26//66 25//56 21//46
f 24//53 25//55 16//35
f 16//36 25//56 24//54
f 22//47 30//67 27//59
f 27//60 30//68 22//48
f 15//33 28//69 31//70
f 31//71 28//72 15//34
f 15//33 31//70 29//63
f 29//64 31//71 15//34
f 22//47 29//63 30//67
f 30//68 29//64 22//48
f 32//73 24//53 27//59
f 27//60 24//54 32//74
f 25//55 33//75 26//65
f 26//66 33//76 25//56
f 32//73 25//55 24//53
f 24//54 25//56 32//74
f 30//67 34//77 27//59
f 27//60 34//78 30//68
f 27//59 34//77 32//73
f 32//74 34//78 27//60
f 32//73 33//79 25//55
f 25//56 33//80 32//74
f 34//81 35//82 32//83
f 32//84 35//85 34//86
f 32//73 36//87 33//79
f 33//80 36//88 32//74
f 34//81 37//89 35//82
f 35//85 37//90 34//86
f 35//82 36//91 32//83
f 32//84 36//92 35//85
usemtl material-8
f 38//93 39//93 40//93
f 40//94 39//94 38//94
f 41//95 39//95 38//95
f 38//96 39//96 41//96
usemtl material-9
f 42//97 43//98 44//97
f 44//99 43//100 42//99
f 42//97 44//97 45//101
f 45//102 44//99 42//99
f 46//103 42//104 45//105
f 45//106 42//107 46//108
f 47//109 46//103 45//105
f 45//106 46//108 47//110
f 46//103 47//109 48//111
f 48//112 47//110 46//108
f 48//111 47//109 49//113
f 49//114 47//110 48//112
f 48//115 49//115 50//115
f 50//116 49//116 48//116
f 50//117 49//117 51//117
f 51//118 49//118 50//118
f 50//119 51//120 52//121
f 52//122 51//123 50//124
f 52//121 53//125 50//119
f 50//124 53//126 52//122
f 52//121 54//127 53//125
f 53//126 54//128 52//122
f 53//125 54//127 55//129
f 55//130 54//128 53//126
f 55//131 54//132 56//131
f 56//133 54//134 55//133
f 57//135 55//131 56//131
f 56//133 55//133 57//136
usemtl material-10
f 58//137 59//137 60//137
f 60//138 59//138 58//138
f 58//139 61//139 59//139
f 59//140 61//140 58//140