mtllib new-4.mtl
v 0.011671 -0.638750 -0.032456
v 0.044363 -0.645218 -0.031038
v 0.076535 -0.638762 0.011899
v 0.066340 -0.649711 -0.017946
v 0.047618 -0.657307 -0.032144
v 0.224889 -0.650787 -0.058738
v 0.049913 -0.709797 -0.032102
v 0.363979 -0.675377 -0.113462
v 0.222860 -0.646447 -0.025737
v 0.065536 -0.709797 -0.020819
v 0.354140 -0.665794 -0.099515
v 0.237840 -0.685494 -0.073451
v 0.374738 -0.664919 -0.077627
v 0.085712 -0.645648 0.043793
v 0.051601 -0.638774 0.089258
v 0.155851 -0.693958 -0.047461
v 0.470106 -0.697777 -0.143867
v 0.351005 -0.689077 -0.110067
v 0.373929 -0.669855 -0.049901
v 0.215372 -0.651216 -0.003190
v 0.472352 -0.710750 -0.148231
v 0.484397 -0.695817 -0.093262
v 0.087238 -0.653553 0.046161
v 0.501445 -0.716340 -0.140895
v 0.497673 -0.701271 -0.125230
v 0.493771 -0.702567 -0.088864
v 0.079709 -0.649308 0.068224
v 0.472170 -0.727911 -0.140121
v 0.372739 -0.689173 -0.047596
v 0.258158 -0.685504 -0.010274
v 0.088024 -0.709797 0.048392
v 0.510994 -0.720326 -0.113827
v 0.449844 -0.715147 -0.135498
v 0.498023 -0.712694 -0.091122
v 0.176750 -0.693958 0.016861
v 0.082121 -0.709797 0.066737
v 0.467238 -0.718516 -0.084213
v 0.055985 -0.726139 0.005729
v 0.474904 -0.721452 -0.135074
v 0.475816 -0.726139 -0.130681
v 0.052737 -0.721676 0.002091
v 0.477315 -0.707541 -0.132439
v 0.055241 -0.655901 0.004746
v 0.478498 -0.704111 -0.129929
v 0.058422 -0.650952 0.008451
v 0.486291 -0.704111 -0.105943
v 0.065105 -0.650952 0.029019
v 0.064708 -0.655901 0.033886
v 0.486808 -0.707541 -0.103217
v 0.064244 -0.721676 0.037505
v 0.486410 -0.721452 -0.099670
v 0.064733 -0.726139 0.032653
v 0.484561 -0.726139 -0.103758
v 0.500310 -0.732040 -0.110973
v 0.494515 -0.727437 -0.129550
v 0.483746 -0.732163 -0.137174
v 0.496457 -0.723397 -0.116532
v 0.475455 -0.723225 -0.129464
v 0.484777 -0.723255 -0.103088
v 0.465980 -0.733537 -0.128346
v 0.484620 -0.737414 -0.099054
v 0.467416 -0.724043 -0.113663
v 0.469365 -0.731246 -0.102859
vn 0.097556 -0.971668 0.215278
vn -0.097556 0.971668 -0.215278
vn -0.364768 -0.858319 0.360877
vn 0.364768 0.858319 -0.360877
vn -0.172984 -0.972786 0.154157
vn 0.172984 0.972786 -0.154157
vn -0.270157 -0.457446 0.847206
vn 0.270157 0.457446 -0.847206
vn -0.567671 -0.122429 0.814101
vn 0.567671 0.122429 -0.814101
vn 0.034222 -0.931486 0.362164
vn -0.034222 0.931486 -0.362164
vn -0.591345 -0.028197 0.805926
vn 0.591345 0.028197 -0.805926
vn 0.215673 -0.406291 0.887926
vn -0.215673 0.406291 -0.887926
vn -0.117216 -0.987630 -0.104155
vn 0.117216 0.987630 0.104155
vn -0.585205 -0.030905 0.810296
vn 0.585205 0.030905 -0.810296
vn -0.045502 -0.921156 0.386524
vn 0.045502 0.921156 -0.386524
vn 0.304882 -0.037673 0.951645
vn -0.304882 0.037673 -0.951645
vn -0.187994 -0.981175 0.044191
vn 0.187994 0.981175 -0.044191
vn -0.403313 -0.896900 -0.181410
vn 0.403313 0.896900 0.181410
vn -0.073540 -0.987660 -0.138276
vn 0.073540 0.987660 0.138276
vn 0.297335 -0.034961 0.954133
vn 0.290582 -0.049578 0.955565
vn -0.290582 0.049578 -0.955565
vn -0.297335 0.034961 -0.954133
vn -0.181609 -0.763525 0.619716
vn 0.181609 0.763525 -0.619716
vn 0.304011 -0.020335 0.952452
vn -0.304011 0.020335 -0.952452
vn 0.299496 -0.047483 0.952915
vn -0.299496 0.047483 -0.952915
vn -0.333848 -0.645503 -0.686929
vn 0.333848 0.645503 0.686929
vn -0.260098 -0.757364 -0.598957
vn 0.260098 0.757364 0.598957
vn 0.073522 -0.233413 0.969594
vn -0.073522 0.233413 -0.969594
vn -0.379311 -0.909332 -0.170993
vn 0.379311 0.909332 0.170993
vn -0.326248 -0.193908 -0.925182
vn -0.334162 -0.329101 -0.883192
vn 0.334162 0.329101 0.883192
vn 0.326248 0.193908 0.925182
vn -0.581858 -0.541910 0.606445
vn 0.581858 0.541910 -0.606445
vn -0.565793 -0.811838 0.144209
vn 0.565793 0.811838 -0.144209
vn -0.685876 -0.671347 -0.280834
vn 0.685876 0.671347 0.280834
vn -0.903859 -0.378553 0.199342
vn 0.903859 0.378553 -0.199342
vn -0.944724 -0.143539 -0.294776
vn 0.944724 0.143539 0.294776
vn -0.143993 0.424084 0.894102
vn 0.130316 0.422511 0.896940
vn -0.130316 -0.422511 -0.896940
vn 0.143993 -0.424084 -0.894102
vn -0.323344 -0.006308 -0.946260
vn -0.319517 -0.035536 -0.946914
vn 0.319517 0.035536 0.946914
vn 0.323344 0.006308 0.946260
vn -0.315406 -0.046530 -0.947815
vn 0.315406 0.046530 0.947815
vn -0.949567 -0.028135 -0.312300
vn 0.949567 0.028135 0.312300
vn -0.877420 -0.469913 -0.096522
vn 0.877420 0.469913 0.096522
vn 0.394818 0.389142 0.832278
vn -0.394818 -0.389142 -0.832278
vn -0.313854 0.079156 -0.946166
vn 0.313854 -0.079156 0.946166
vn -0.321617 -0.026124 -0.946509
vn 0.321617 0.026124 0.946509
vn -0.327897 -0.042016 -0.943779
vn 0.327897 0.042016 0.943779
vn -0.951486 -0.030403 -0.306188
vn 0.951486 0.030403 0.306188
vn -0.871646 -0.275606 -0.405309
vn 0.871646 0.275606 0.405309
vn -0.261014 0.860133 -0.438227
vn 0.261014 -0.860133 0.438227
vn -0.221053 -0.698200 -0.680920
vn -0.223884 -0.689268 -0.689047
vn 0.223884 0.689268 0.689047
vn 0.221053 0.698200 0.680920
vn -0.218187 -0.707025 -0.672688
vn 0.218187 0.707025 0.672688
vn -0.268211 0.309725 -0.912213
vn -0.301008 0.227550 -0.926075
vn -0.303323 0.139315 -0.942649
vn 0.303323 -0.139315 0.942649
vn 0.301008 -0.227550 0.926075
vn 0.268211 -0.309725 0.912213
vn -0.222359 0.463141 -0.857938
vn 0.222359 -0.463141 0.857938
vn -0.166599 0.637852 -0.751924
vn 0.166599 -0.637852 0.751924
vn -0.160180 0.655455 -0.738052
vn 0.160180 -0.655455 0.738052
vn 0.113495 0.992854 -0.036875
vn -0.113495 -0.992854 0.036875
vn 0.113495 0.992854 -0.036876
vn -0.113495 -0.992854 0.036876
vn 0.307198 0.637781 0.706304
vn 0.304226 0.655453 0.691251
vn 0.324393 0.463083 0.824817
vn -0.324393 -0.463083 -0.824817
vn -0.304226 -0.655453 -0.691251
vn -0.307198 -0.637781 -0.706304
vn 0.319198 0.309659 0.895669
vn -0.319198 -0.309659 -0.895669
vn 0.308682 0.139301 0.940909
vn -0.308682 -0.139301 -0.940909
vn 0.300814 0.227523 0.926145
vn -0.300814 -0.227523 -0.926145
vn 0.218879 -0.707026 0.672462
vn 0.221400 -0.698198 0.680809
vn -0.221400 0.698198 -0.680809
vn -0.218879 0.707026 -0.672462
vn 0.223887 -0.689262 0.689052
vn -0.223887 0.689262 -0.689052
vn -0.577282 0.732146 0.361536
vn 0.577282 -0.732146 -0.361536
vn -0.935541 -0.272918 0.224231
vn 0.935541 0.272918 -0.224231
vn -0.157074 -0.724563 0.671071
vn 0.157074 0.724563 -0.671071
vn -0.186215 -0.533817 -0.824841
vn -0.604986 -0.603652 -0.519226
vn -0.589560 -0.427069 -0.685588
vn 0.589560 0.427069 0.685588
vn 0.604986 0.603652 0.519226
vn 0.186215 0.533817 0.824841
vn 0.441787 -0.314798 0.840075
vn 0.610572 -0.493851 0.619123
vn -0.610572 0.493851 -0.619123
vn -0.441787 0.314798 -0.840075
vn -0.219132 -0.265123 -0.938984
vn 0.219132 0.265123 0.938984
vn 0.712579 -0.618893 0.330459
vn -0.712579 0.618893 -0.330459
vn 0.265871 -0.535750 -0.801427
vn -0.265871 0.535750 0.801427
vn 0.988631 0.062204 -0.136894
vn -0.988631 -0.062204 0.136894
vn 0.400139 0.906514 -0.134617
vn -0.400139 -0.906514 0.134617
vn 0.374746 -0.738786 -0.560143
vn -0.374746 0.738786 0.560143
usemtl material-1
f 3//5 1//1 2//3
f 2//4 1//2 3//6
f 3//5 2//3 4//7
f 4//8 2//4 3//6
f 4//7 2//3 5//9
f 5//10 2//4 4//8
f 3//5 4//7 6//11
f 6//12 4//8 3//6
f 4//7 5//9 7//13
f 7//14 5//10 4//8
f 8//15 6//11 4//7
f 4//8 6//12 8//16
f 3//5 6//11 9//17
f 9//18 6//12 3//6
f 4//7 7//13 10//19
f 10//20 7//14 4//8
f 6//11 8//15 11//21
f 11//22 8//16 6//12
f 8//15 4//7 12//23
f 12//24 4//8 8//16
f 9//17 6//11 13//25
f 13//26 6//12 9//18
f 14//27 3//5 9//17
f 9//18 3//6 14//28
f 16//31 4//31 10//32
f 10//33 4//34 16//34
f 11//21 8//15 17//35
f 17//36 8//16 11//22
f 6//11 11//21 13//25
f 13//26 11//22 6//12
f 12//37 4//31 16//31
f 16//34 4//34 12//38
f 8//15 12//23 18//39
f 18//40 12//24 8//16
f 9//17 13//25 19//41
f 19//42 13//26 9//18
f 15//29 3//5 14//27
f 14//28 3//6 15//30
f 14//27 9//17 20//43
f 20//44 9//18 14//28
f 21//45 17//35 8//15
f 8//16 17//36 21//46
f 13//25 11//21 17//35
f 17//36 11//22 13//26
f 21//45 8//15 18//39
f 18//40 8//16 21//46
f 19//41 13//25 22//47
f 22//48 13//26 19//42
f 20//43 9//17 19//41
f 19//42 9//18 20//44
f 20//43 23//49 14//50
f 14//51 23//52 20//44
f 24//53 17//35 21//45
f 21//46 17//36 24//54
f 13//25 17//35 25//55
f 25//56 17//36 13//26
f 13//25 25//55 22//47
f 22//48 25//56 13//26
f 19//41 22//47 26//57
f 26//58 22//48 19//42
f 19//41 23//49 20//43
f 20//44 23//52 19//42
f 14//27 23//61 27//59
f 27//60 23//62 14//28
f 25//55 17//35 24//53
f 24//54 17//36 25//56
f 24//63 21//64 28//64
f 28//65 21//65 24//66
f 26//57 22//47 25//55
f 25//56 22//48 26//58
f 26//67 29//68 19//41
f 19//42 29//69 26//70
f 19//41 30//71 23//49
f 23//52 30//72 19//42
f 27//59 23//61 31//73
f 31//74 23//62 27//60
f 25//55 24//53 32//75
f 32//76 24//54 25//56
f 21//64 33//77 28//64
f 28//65 33//78 21//65
f 25//55 32//75 26//57
f 26//58 32//76 25//56
f 34//79 29//68 26//67
f 26//70 29//69 34//80
f 19//41 29//68 30//71
f 30//72 29//69 19//42
f 30//71 35//81 23//49
f 23//52 35//82 30//72
f 35//81 31//83 23//49
f 23//52 31//84 35//82
f 27//59 31//73 36//85
f 36//86 31//74 27//60
f 26//57 32//75 34//87
f 34//88 32//76 26//58
f 37//89 34//89 32//89
f 32//90 34//90 37//90
usemtl material-2
f 38//91 39//91 40//92
f 40//93 39//94 38//94
f 38//91 41//95 39//91
f 39//94 41//96 38//94
f 42//97 39//98 41//99
f 41//100 39//101 42//102
f 42//97 41//99 43//103
f 43//104 41//100 42//102
f 44//105 42//97 43//103
f 43//104 42//102 44//106
f 44//105 43//103 45//107
f 45//108 43//104 44//106
f 45//109 46//109 44//109
f 44//110 46//110 45//110
f 47//111 46//111 45//111
f 45//112 46//112 47//112
f 46//113 47//114 48//115
f 48//116 47//117 46//118
f 49//119 46//113 48//115
f 48//116 46//118 49//120
f 49//119 48//115 50//121
f 50//122 48//116 49//120
f 49//119 50//121 51//123
f 51//124 50//122 49//120
f 50//125 52//126 51//126
f 51//127 52//127 50//128
f 52//126 53//129 51//126
f 51//127 53//130 52//127
usemtl material-4
f 54//131 55//131 56//131
f 56//132 55//132 54//132
f 57//133 55//133 54//133
f 54//134 55//134 57//134
f 58//135 56//135 55//135
f 55//136 56//136 58//136
f 59//137 57//138 54//139
f 54//140 57//141 59//142
f 56//143 58//144 60//144
f 60//145 58//145 56//146
f 54//139 61//147 59//137
f 59//142 61//148 54//140
f 58//144 62//149 60//144
f 60//145 62//150 58//145
f 59//137 61//147 63//151
f 63//152 61//148 59//142
f 62//153 63//153 60//153
f 60//154 63//154 62//154
f 61//155 60//155 63//155
f 63//156 60//156 61//156
f 63//151 62//157 59//137
f 59//142 62//158 63//152