mtllib new-16.mtl
v -0.340423 0.177481 0.161348
v -0.344040 0.174431 0.147709
v -0.354233 0.155044 -0.076773
v -0.344202 0.172393 -0.074962
v -0.365855 0.146109 -0.079707
v -0.357502 0.148768 0.131031
v -0.344626 0.170987 0.177198
v -0.333809 0.197408 0.029094
v -0.367608 0.158600 -0.106730
v -0.362229 0.166817 0.102317
v -0.376595 0.140231 0.122467
v -0.342038 0.179059 0.248920
v -0.335088 0.200143 0.249229
v -0.353147 0.199540 -0.032008
v -0.364591 0.178051 -0.095698
v -0.387103 0.144963 -0.080487
v -0.356517 0.162271 0.188429
v -0.324997 0.211867 0.168095
v -0.336758 0.223220 0.115821
v -0.393196 0.164570 -0.106480
v -0.397459 0.168822 0.097946
v -0.368288 0.181172 0.269894
v -0.373228 0.160062 0.196163
v -0.327027 0.207835 0.098516
v -0.331793 0.206894 0.254443
v -0.395268 0.211886 -0.015180
v -0.359591 0.228324 0.083685
v -0.400844 0.184151 -0.091335
v -0.402139 0.154367 -0.078420
v -0.423025 0.180565 0.112888
v -0.351917 0.202698 0.274622
v -0.335210 0.222923 0.227301
v -0.404136 0.235883 0.090149
v -0.348350 0.232810 0.226373
v -0.406052 0.168487 -0.089880
v -0.400420 0.167468 0.200241
v -0.385329 0.206187 0.280036
v -0.386396 0.223845 0.271484
v -0.419930 0.208888 -0.022091
v -0.436179 0.235760 0.090228
v -0.395938 0.243542 0.223030
v -0.429435 0.198640 -0.009538
v -0.438779 0.198283 0.156785
v -0.394881 0.185702 0.264999
v -0.418268 0.244282 0.229086
v -0.440441 0.203420 0.171398
v -0.423539 0.181015 0.193787
v -0.408347 0.188317 0.254750
v -0.414079 0.216971 0.265135
v -0.441401 0.237954 0.133782
v -0.446959 0.227658 0.176674
v -0.428069 0.238583 0.238320
v -0.442837 0.219381 0.093230
v -0.438399 0.241328 0.198730
v -0.424569 0.192517 0.231251
v -0.434888 0.192688 0.184725
v -0.430870 0.221472 0.239454
vn -0.902161 0.418837 -0.103351
vn -0.893079 0.038727 0.448231
vn 0.893079 -0.038727 -0.448231
vn 0.902161 -0.418837 0.103351
vn -0.717069 0.682162 0.143064
vn -0.434292 0.898180 -0.068284
vn 0.434292 -0.898180 0.068284
vn 0.717069 -0.682162 -0.143064
vn -0.727619 0.557209 0.400112
vn 0.727619 -0.557209 -0.400112
vn -0.318574 0.941252 0.112054
vn 0.318574 -0.941252 -0.112054
vn -0.698654 0.206913 0.684886
vn 0.698654 -0.206913 -0.684886
vn -0.856609 0.367143 -0.362530
vn 0.856609 -0.367143 0.362530
vn 0.457453 0.888615 -0.033164
vn -0.457453 -0.888615 0.033164
vn -0.364533 0.791000 0.491360
vn 0.364533 -0.791000 -0.491360
vn -0.039066 0.992382 -0.116840
vn 0.039066 -0.992382 0.116840
vn -0.555466 0.580200 0.595672
vn 0.555466 -0.580200 -0.595672
vn -0.295643 0.938716 -0.177222
vn 0.295643 -0.938716 0.177222
vn -0.524405 0.634350 -0.567978
vn 0.524405 -0.634350 0.567978
vn -0.437709 -0.861514 0.257302
vn -0.714912 -0.556536 0.423283
vn -0.727094 -0.658551 0.194022
vn 0.727094 0.658551 -0.194022
vn 0.714912 0.556536 -0.423283
vn 0.437709 0.861514 -0.257302
vn -0.304250 -0.727208 0.615306
vn -0.441148 -0.390010 0.808258
vn 0.441148 0.390010 -0.808258
vn 0.304250 0.727208 -0.615306
vn 0.240958 0.957784 0.156806
vn -0.240958 -0.957784 -0.156806
vn -0.166602 0.695600 0.698845
vn 0.166602 -0.695600 -0.698845
vn -0.438156 0.887696 -0.141478
vn 0.438156 -0.887696 0.141478
vn -0.830720 0.556252 -0.022099
vn 0.830720 -0.556252 0.022099
vn -0.627930 -0.771990 0.098666
vn 0.627930 0.771990 -0.098666
vn -0.055951 -0.548522 0.834262
vn 0.055951 0.548522 -0.834262
vn 0.493271 0.718738 0.490000
vn -0.493271 -0.718738 -0.490000
vn 0.221158 0.968239 -0.116631
vn -0.221158 -0.968239 0.116631
vn 0.226542 0.650060 0.725328
vn -0.226542 -0.650060 -0.725328
vn -0.600083 0.209138 -0.772115
vn -0.639662 0.413969 -0.647658
vn 0.639662 -0.413969 0.647658
vn 0.600083 -0.209138 0.772115
vn -0.049312 0.965123 -0.257110
vn 0.049312 -0.965123 0.257110
vn -0.802662 0.596330 -0.011142
vn 0.802662 -0.596330 0.011142
vn -0.771277 0.579598 -0.263054
vn 0.771277 -0.579598 0.263054
vn -0.063566 -0.956854 0.283532
vn 0.063566 0.956854 -0.283532
vn -0.254656 -0.959645 0.119300
vn 0.254656 0.959645 -0.119300
vn -0.776546 -0.619626 0.114193
vn 0.776546 0.619626 -0.114193
vn -0.036086 -0.858897 0.510875
vn 0.036086 0.858897 -0.510875
vn 0.724639 0.664017 0.184338
vn -0.724639 -0.664017 -0.184338
vn 0.687929 0.692809 0.216263
vn -0.687929 -0.692809 -0.216263
vn 0.090506 0.808703 -0.581213
vn -0.090506 -0.808703 0.581213
vn -0.621518 0.623239 -0.474647
vn 0.621518 -0.623239 0.474647
vn -0.831991 -0.554705 -0.009624
vn 0.831991 0.554705 0.009624
vn -0.724338 -0.679154 -0.118677
vn -0.599001 -0.694107 -0.399266
vn 0.599001 0.694107 0.399266
vn 0.724338 0.679154 0.118677
vn -0.083354 -0.986444 0.141352
vn 0.083354 0.986444 -0.141352
vn -0.388030 -0.901732 -0.190556
vn 0.388030 0.901732 0.190556
vn 0.846894 -0.273180 0.456227
vn 0.834458 -0.230920 0.500355
vn 0.753459 -0.192050 0.628822
vn -0.753459 0.192050 -0.628822
vn -0.834458 0.230920 -0.500355
vn -0.846894 0.273180 -0.456227
vn 0.938887 0.127047 0.319923
vn -0.938887 -0.127047 -0.319923
vn 0.326579 0.902088 -0.282105
vn -0.326579 -0.902088 0.282105
vn -0.121911 0.300476 -0.945966
vn 0.333637 0.379095 -0.863119
vn -0.333637 -0.379095 0.863119
vn 0.121911 -0.300476 0.945966
vn -0.303019 -0.603496 -0.737545
vn -0.082317 -0.774660 -0.626998
vn 0.082317 0.774660 0.626998
vn 0.303019 0.603496 0.737545
vn 0.034824 -0.956219 0.290573
vn -0.034824 0.956219 -0.290573
vn 0.025877 -0.989077 0.145113
vn -0.025877 0.989077 -0.145113
vn -0.144933 -0.983755 -0.105928
vn 0.144933 0.983755 0.105928
vn 0.885403 -0.363663 0.289502
vn -0.885403 0.363663 -0.289502
vn 0.939146 0.174459 0.295922
vn -0.939146 -0.174459 -0.295922
vn 0.424092 0.749116 -0.508892
vn -0.424092 -0.749116 0.508892
vn 0.056764 -0.432409 -0.899889
vn -0.056764 0.432409 0.899889
vn 0.854584 -0.422274 0.302277
vn -0.854584 0.422274 -0.302277
vn 0.062232 -0.991659 -0.112868
vn -0.062232 0.991659 0.112868
vn 0.939806 -0.338857 0.044042
vn -0.979087 -0.173002 -0.107050
vn 0.979087 0.173002 0.107050
vn -0.939806 0.338857 -0.044042
vn 0.614869 0.597193 -0.515070
vn -0.614869 -0.597193 0.515070
vn 0.660510 0.330940 -0.673948
vn -0.660510 -0.330940 0.673948
vn 0.681404 -0.035559 -0.731043
vn -0.681404 0.035559 0.731043
vn 0.899623 -0.395066 0.186015
vn -0.899623 0.395066 -0.186015
vn 0.058624 -0.996927 0.051958
vn -0.058624 0.996927 -0.051958
vn 0.541593 -0.834759 0.099271
vn -0.541593 0.834759 -0.099271
vn 0.507983 0.841498 -0.183943
vn -0.507983 -0.841498 0.183943
vn 0.583446 -0.643264 -0.495785
vn -0.583446 0.643264 0.495785
vn 0.942353 -0.308401 0.129842
vn -0.942353 0.308401 -0.129842
vn 0.229620 -0.971566 -0.057750
vn -0.229620 0.971566 0.057750
vn 0.927033 -0.369671 0.062881
vn -0.927033 0.369671 -0.062881
vn 0.784724 0.619430 -0.022680
vn -0.784724 -0.619430 0.022680
vn 0.637745 0.298235 -0.710167
vn -0.637745 -0.298235 0.710167
vn 0.847728 0.393449 -0.355745
vn -0.847728 -0.393449 0.355745
vn 0.876108 -0.158322 -0.455377
vn -0.876108 0.158322 0.455377
vn 0.938488 -0.293736 -0.181545
vn -0.938488 0.293736 0.181545
vn 0.349002 0.934198 -0.073968
vn -0.349002 -0.934198 0.073968
usemtl material-1
f 1//1 3//5 2//6
f 2//7 3//8 1//4
f 1//1 4//9 3//5
f 3//8 4//10 1//4
f 2//6 3//5 5//11
f 5//12 3//8 2//7
f 8//17 1//1 4//9
f 4//10 1//4 8//18
f 4//9 9//19 3//5
f 3//8 9//20 4//10
f 3//5 9//19 5//11
f 5//12 9//20 3//8
f 2//6 5//11 10//21
f 10//22 5//12 2//7
f 2//2 10//23 6//13
f 6//14 10//24 2//3
f 12//25 1//1 7//15
f 7//16 1//4 12//26
f 13//27 1//1 8//17
f 8//18 1//4 13//28
f 14//29 4//30 8//31
f 8//32 4//33 14//34
f 15//35 9//36 4//30
f 4//33 9//37 15//38
f 5//11 9//19 16//39
f 16//40 9//20 5//12
f 10//21 5//11 16//39
f 16//40 5//12 10//22
f 13//27 12//25 1//1
f 1//4 12//26 13//28
f 12//25 7//15 17//43
f 17//44 7//16 12//26
f 18//45 8//17 13//27
f 13//28 8//18 18//46
f 14//29 15//35 4//30
f 4//33 15//38 14//34
f 19//47 14//29 8//31
f 8//32 14//34 19//48
f 15//35 20//49 9//36
f 9//37 20//50 15//38
f 16//39 9//19 20//51
f 20//52 9//20 16//40
f 10//21 16//39 21//53
f 21//54 16//40 10//22
f 10//23 21//55 11//41
f 11//42 21//56 10//24
f 13//27 12//57 22//58
f 22//59 12//60 13//28
f 12//25 17//43 23//61
f 23//62 17//44 12//26
f 18//45 24//63 8//17
f 8//18 24//64 18//46
f 18//45 13//27 25//65
f 25//66 13//28 18//46
f 26//67 15//35 14//29
f 14//34 15//38 26//68
f 19//47 27//69 14//29
f 14//34 27//70 19//48
f 19//47 8//31 24//71
f 24//72 8//32 19//48
f 15//35 28//73 20//49
f 20//50 28//74 15//38
f 29//75 16//39 20//51
f 20//52 16//40 29//76
f 30//77 21//53 16//39
f 16//40 21//54 30//78
f 22//79 12//25 23//61
f 23//62 12//26 22//80
f 31//81 13//27 22//58
f 22//59 13//28 31//82
f 19//47 24//71 18//83
f 18//84 24//72 19//48
f 31//81 25//65 13//27
f 13//28 25//66 31//82
f 32//85 18//83 25//86
f 25//87 18//84 32//88
f 26//67 28//73 15//35
f 15//38 28//74 26//68
f 33//89 26//67 14//29
f 14//34 26//68 33//90
f 34//91 27//69 19//47
f 19//48 27//70 34//92
f 33//89 14//29 27//69
f 27//70 14//34 33//90
f 28//93 35//94 20//95
f 20//96 35//97 28//98
f 30//77 16//39 29//75
f 29//76 16//40 30//78
f 35//99 29//75 20//51
f 20//52 29//76 35//100
f 22//79 23//61 36//101
f 36//102 23//62 22//80
f 31//103 22//79 37//104
f 37//105 22//80 31//106
f 19//47 18//83 32//85
f 32//88 18//84 19//48
f 31//107 38//108 25//86
f 25//87 38//109 31//110
f 25//86 34//91 32//85
f 32//88 34//92 25//87
f 26//67 39//111 28//73
f 28//74 39//112 26//68
f 40//113 26//67 33//89
f 33//90 26//68 40//114
f 34//91 41//115 27//69
f 27//70 41//116 34//92
f 32//85 34//91 19//47
f 19//48 34//92 32//88
f 41//115 33//89 27//69
f 27//70 33//90 41//116
f 42//117 35//94 28//93
f 28//98 35//97 42//118
f 43//119 30//77 29//75
f 29//76 30//78 43//120
f 43//119 29//75 35//99
f 35//100 29//76 43//120
f 22//79 36//101 44//121
f 44//122 36//102 22//80
f 22//79 44//121 37//104
f 37//105 44//122 22//80
f 31//107 37//123 38//108
f 38//109 37//124 31//110
f 38//108 34//91 25//86
f 25//87 34//92 38//109
f 40//113 39//111 26//67
f 26//68 39//112 40//114
f 39//125 42//117 28//93
f 28//98 42//118 39//126
f 45//127 40//113 33//89
f 33//90 40//114 45//128
f 38//108 41//115 34//91
f 34//92 41//116 38//109
f 45//127 33//89 41//115
f 41//116 33//90 45//128
f 46//129 42//130 35//99
f 35//100 42//131 46//132
f 46//129 43//119 35//99
f 35//100 43//120 46//132
f 44//121 36//101 47//133
f 47//134 36//102 44//122
f 37//104 44//121 48//135
f 48//136 44//122 37//105
f 37//123 49//137 38//108
f 38//109 49//138 37//124
f 40//139 42//117 39//125
f 39//126 42//118 40//140
f 45//127 50//141 40//113
f 40//114 50//142 45//128
f 38//108 45//127 41//115
f 41//116 45//128 38//109
f 51//143 42//130 46//129
f 46//132 42//131 51//144
f 44//121 47//133 48//145
f 48//146 47//134 44//122
f 37//104 48//135 49//137
f 49//138 48//136 37//105
f 38//108 49//137 52//147
f 52//148 49//138 38//109
f 40//139 53//149 42//117
f 42//118 53//150 40//140
f 45//127 54//151 50//141
f 50//142 54//152 45//128
f 50//153 53//149 40//139
f 40//140 53//150 50//154
f 38//108 52//147 45//127
f 45//128 52//148 38//109
f 51//143 42//130 53//155
f 53//156 42//131 51//144
f 51//143 46//129 55//157
f 55//158 46//132 51//144
f 56//159 48//145 47//133
f 47//134 48//146 56//160
f 49//137 48//135 55//157
f 55//158 48//136 49//138
f 52//147 49//137 57//161
f 57//162 49//138 52//148
f 52//147 54//151 45//127
f 45//128 54//152 52//148
f 54//163 51//143 50//153
f 50//154 51//144 54//164
f 50//153 51//143 53//149
f 53//150 51//144 50//154
f 46//129 55//157 56//159
f 56//160 55//158 46//132
f 51//143 55//157 57//161
f 57//162 55//158 51//144
f 48//145 56//159 55//165
f 55//166 56//160 48//146
f 57//161 49//137 55//157
f 55//158 49//138 57//162
f 54//163 52//147 57//161
f 57//162 52//148 54//164
f 54//163 57//161 51//143
f 51//144 57//162 54//164