mtllib new-17.mtl
v 0.317791 -0.183300 0.112924
v 0.176873 -0.175901 0.101378
v 0.317949 -0.175704 0.101463
v 0.176884 -0.184754 0.113579
v 0.176932 -0.178962 0.088404
v 0.356914 -0.168112 0.116122
v 0.346412 -0.202494 0.118613
v 0.319205 -0.179334 0.087324
v 0.360525 -0.155579 0.102398
v 0.176981 -0.207441 0.117941
v 0.176966 -0.198041 0.075623
v 0.328695 -0.226613 0.111813
v 0.349706 -0.194195 0.076169
v 0.366948 -0.155010 0.092071
v 0.379262 -0.203926 0.116229
v 0.176841 -0.228804 0.110810
v 0.176923 -0.227279 0.075069
v 0.377409 -0.221852 0.097483
v 0.329107 -0.237136 0.100948
v 0.396885 -0.133316 0.087540
v 0.324021 -0.221134 0.074267
v 0.417221 -0.182210 0.113502
v 0.176873 -0.240949 0.093167
v 0.376854 -0.207170 0.078220
v 0.327409 -0.234138 0.081132
v 0.407118 -0.197963 0.093278
v 0.328987 -0.239398 0.090412
vn 0.103313 -0.613758 -0.782705
vn 0.003563 -0.821648 -0.569984
vn 0.239483 -0.795905 -0.556043
vn -0.239483 0.795905 0.556043
vn -0.003563 0.821648 0.569984
vn -0.103313 0.613758 0.782705
vn 0.004775 -0.453021 -0.891487
vn -0.004775 0.453021 0.891487
vn 0.138884 -0.957874 0.251375
vn 0.001221 -0.973269 0.229663
vn 0.001924 -0.885767 0.464126
vn -0.001924 0.885767 -0.464126
vn -0.001221 0.973269 -0.229663
vn -0.138884 0.957874 -0.251375
vn 0.478974 -0.489067 -0.728971
vn -0.478974 0.489067 0.728971
vn 0.051444 0.031381 -0.998183
vn -0.051444 -0.031381 0.998183
vn 0.177720 -0.782633 0.596575
vn -0.177720 0.782633 -0.596575
vn 0.660826 -0.537266 -0.524075
vn -0.660826 0.537266 0.524075
vn 0.002369 0.137678 -0.990474
vn -0.002369 -0.137678 0.990474
vn 0.004369 -0.402748 0.915300
vn -0.004369 0.402748 -0.915300
vn 0.557266 -0.764633 0.323714
vn -0.557266 0.764633 -0.323714
vn -0.102474 0.522481 -0.846471
vn 0.102474 -0.522481 0.846471
vn 0.063233 -0.255253 0.964804
vn -0.063233 0.255253 -0.964804
vn 0.707517 -0.611161 0.354827
vn -0.707517 0.611161 -0.354827
vn -0.219608 0.462472 -0.859007
vn 0.219608 -0.462472 0.859007
vn 0.001481 0.643375 -0.765549
vn -0.001481 -0.643375 0.765549
vn 0.311470 -0.397750 0.863007
vn -0.311470 0.397750 -0.863007
vn 0.000959 0.316804 0.948491
vn -0.000959 -0.316804 -0.948491
vn -0.392529 0.775175 -0.495000
vn 0.392529 -0.775175 0.495000
vn -0.122251 0.863500 -0.489308
vn 0.122251 -0.863500 0.489308
vn 0.147521 -0.223908 0.963381
vn -0.147521 0.223908 -0.963381
vn -0.067018 0.209366 0.975538
vn 0.067018 -0.209366 -0.975538
vn -0.634829 0.571850 -0.519595
vn 0.634829 -0.571850 0.519595
vn 0.001931 0.995795 0.091591
vn -0.001931 -0.995795 -0.091591
vn -0.303952 0.374052 0.876184
vn 0.303952 -0.374052 -0.876184
vn -0.119753 0.696939 0.707061
vn 0.119753 -0.696939 -0.707061
vn -0.233022 0.938506 0.254768
vn 0.233022 -0.938506 -0.254768
vn -0.416586 0.717202 0.558639
vn -0.517038 0.421074 0.745230
vn 0.517038 -0.421074 -0.745230
vn 0.416586 -0.717202 -0.558639
usemtl material-1
f 1//1 2//2 3//3
f 3//4 2//5 1//6
f 4//7 2//2 1//1
f 1//6 2//5 4//8
f 3//9 2//10 5//11
f 5//12 2//13 3//14
f 6//15 1//1 3//3
f 3//4 1//6 6//16
f 7//17 4//7 1//1
f 1//6 4//8 7//18
f 3//9 5//11 8//19
f 8//20 5//12 3//14
f 6//15 7//17 1//1
f 1//6 7//18 6//16
f 6//15 3//3 9//21
f 9//22 3//4 6//16
f 7//17 10//23 4//7
f 4//8 10//24 7//18
f 8//19 5//11 11//25
f 11//26 5//12 8//20
f 9//27 3//9 8//19
f 8//20 3//14 9//28
f 7//17 12//29 10//23
f 10//24 12//30 7//18
f 13//31 8//19 11//25
f 11//26 8//20 13//32
f 9//27 8//19 14//33
f 14//34 8//20 9//28
f 15//35 12//29 7//17
f 7//18 12//30 15//36
f 12//29 16//37 10//23
f 10//24 16//38 12//30
f 14//39 8//19 13//31
f 13//32 8//20 14//40
f 13//31 11//25 17//41
f 17//42 11//26 13//32
f 15//35 18//43 12//29
f 12//30 18//44 15//36
f 12//29 19//45 16//37
f 16//38 19//46 12//30
f 13//31 17//41 21//49
f 21//50 17//42 13//32
f 15//35 22//51 18//43
f 18//44 22//52 15//36
f 12//29 18//43 19//45
f 19//46 18//44 12//30
f 16//37 19//45 23//53
f 23//54 19//46 16//38
f 20//47 13//31 24//55
f 24//56 13//32 20//48
f 25//57 21//49 17//41
f 17//42 21//50 25//58
f 24//55 13//31 21//49
f 21//50 13//32 24//56
f 19//45 18//43 27//59
f 27//60 18//44 19//46
f 19//45 27//59 23//53
f 23//54 27//60 19//46
f 24//55 21//49 25//57
f 25//58 21//50 24//56
f 23//53 25//57 17//41
f 17//42 25//58 23//54
f 18//61 26//62 24//55
f 24//56 26//63 18//64
f 18//61 24//55 27//59
f 27//60 24//56 18//64
f 23//53 27//59 25//57
f 25//58 27//60 23//54
f 27//59 24//55 25//57
f 25//58 24//56 27//60