# SSTK version 0.8.0
# 42
mtllib original-42.mtl
o mesh42/mesh42-geometry#mesh42-geometry
v 0.147114 -0.225095 0.234701
v 0.135676 -0.236351 0.236730
v 0.135676 -0.256822 0.121827
v 0.137543 -0.226594 0.248764
v -0.108530 -0.236351 0.236730
v 0.147114 -0.245391 0.122094
v 0.146823 -0.169774 0.260362
v -0.110397 -0.226594 0.248764
v -0.108530 -0.256822 0.121827
v 0.135676 -0.228942 -0.002108
v -0.119677 -0.169771 0.260348
v -0.119968 -0.225095 0.234701
v 0.147114 -0.217786 0.000423
v 0.146906 -0.169737 -0.015253
v -0.119968 -0.245391 0.122094
v -0.108530 -0.228942 -0.002108
v 0.135676 -0.218827 -0.010968
v -0.119760 -0.169730 -0.015095
v -0.119968 -0.217786 0.000423
v -0.108530 -0.218827 -0.010968
vn 0.8378909909294111 -0.48403299476010075 0.25229099726882376
vn 0.700038975834305 -0.6640239770775607 0.2627119909310509
vn 0.7085499789231183 -0.7049519790301462 0.03161699905950495
vn -0.7085499789231183 0.7049519790301462 -0.03161699905950495
vn -0.700038975834305 0.6640239770775607 -0.2627119909310509
vn -0.8378909909294111 0.48403299476010075 -0.25229099726882376
vn 0.7636670530217873 -0.4395150305157494 0.4729050328340341
vn -0.7636670530217873 0.4395150305157494 -0.4729050328340341
vn 0 -0.909470759142617 0.41576788989116487
vn 0 -0.9844990329310009 0.17539000586670808
vn 0 0.909470759142617 -0.41576788989116487
vn 0 0.9844990329310009 -0.17539000586670808
vn 0.7086291487735167 -0.7027881475472246 -0.06271801316736603
vn -0.7086291487735167 0.7027881475472246 0.06271801316736603
vn 0.9796647379250227 -0.08068597841529337 0.1837029508567117
vn -0.9796647379250227 0.08068597841529337 -0.1837029508567117
vn 0 -0.5186821067932853 0.8549671760322024
vn 0 -0.7767719582454012 0.629781966146701
vn 0 0.5186821067932853 -0.8549671760322024
vn 0 0.7767719582454012 -0.629781966146701
vn 0 -0.9997472028162362 -0.022484004561274258
vn 0 0.9997472028162362 0.022484004561274258
vn 0.4538770762436393 -0.7875891323015963 -0.4167720700106285
vn -0.4538770762436393 0.7875891323015963 0.4167720700106285
vn 0.9999895241265984 0.004575997822381538 0.00010899994812928052
vn -0.9999895241265984 -0.004575997822381538 -0.00010899994812928052
vn -0.00005699998506218688 -0.1999909475889792 0.9797977432273784
vn 0.00005699998506218688 0.1999909475889792 -0.9797977432273784
vn 0 -0.1997409470804408 0.9798487403979294
vn 0 0.1997409470804408 -0.9798487403979294
vn -0.8379059871293453 -0.48400599256542604 0.2522929961246535
vn -0.7085499789231183 -0.7049519790301462 0.03161699905950495
vn -0.700040211242416 -0.6640262003749164 0.2627030792726364
vn 0.700040211242416 0.6640262003749164 -0.2627030792726364
vn 0.7085499789231183 0.7049519790301462 -0.03161699905950495
vn 0.8379059871293453 0.48400599256542604 -0.2522929961246535
vn 0 -0.9756185946842171 -0.21947290882109632
vn 0 0.9756185946842171 0.21947290882109632
vn -0.763699291122989 -0.439449167518494 0.4729141802753928
vn 0.763699291122989 0.439449167518494 -0.4729141802753928
vn 0.7112581749759339 -0.4967971222165783 -0.49729712233958284
vn -0.7112581749759339 0.4967971222165783 0.49729712233958284
vn 0.9999918193229943 0.003986999279635015 0.0006819998767772964
vn -0.9999918193229943 -0.003986999279635015 -0.0006819998767772964
vn -0.979668326836022 -0.08063302690071429 0.18370706128817632
vn 0.979668326836022 0.08063302690071429 -0.18370706128817632
vn -0.7086291487735167 -0.7027881475472246 -0.06271801316736603
vn 0.7086291487735167 0.7027881475472246 0.06271801316736603
vn 0 -0.8595860457828434 -0.5109910272161493
vn 0 0.8595860457828434 0.5109910272161493
vn 0.9999885150071879 0.0046739977331186604 0.0010599994859019641
vn -0.9999885150071879 -0.0046739977331186604 -0.0010599994859019641
vn 0.47624207445235806 -0.498861077988455 -0.7241071132018462
vn -0.47624207445235806 0.498861077988455 0.7241071132018462
vn -0.9999895332764941 0.0045739978651853355 0.00010899994912662913
vn 0.9999895332764941 -0.0045739978651853355 -0.00010899994912662913
vn -0.5560201746559725 -0.6984082193826275 -0.45063014155106096
vn 0.5560201746559725 0.6984082193826275 0.45063014155106096
vn 0.6984138185891295 -0.21925294304971324 -0.6812828230388536
vn -0.6984138185891295 0.21925294304971324 0.6812828230388536
vn -0.9999918272949264 0.003984999311764776 0.0006819998822141975
vn 0.9999918272949264 -0.003984999311764776 -0.0006819998822141975
vn -0.7115096107047381 -0.49616572852795754 -0.4975677277608679
vn 0.7115096107047381 0.49616572852795754 0.4975677277608679
vn 0 -0.39239818983660046 -0.9197954449838069
vn -0.29489886792824455 -0.34617184496541614 -0.8906176011329888
vn 0.29489886792824455 0.34617184496541614 0.8906176011329888
vn 0 0.39239818983660046 0.9197954449838069
vn -0.00029699993719922143 -0.08543398193494371 -0.99634378932263
vn 0.00029699993719922143 0.08543398193494371 0.99634378932263
vn -0.9999885394238847 0.004668997849546463 0.0010589995122445286
vn 0.9999885394238847 -0.004668997849546463 -0.0010589995122445286
vn -0.0005940000511692455 -0.08389900722735442 -0.9964740858397689
vn 0.0005940000511692455 0.08389900722735442 0.9964740858397689
vn -0.6986548652871285 -0.2171129581368262 -0.6817208685522991
vn 0.6986548652871285 0.2171129581368262 0.6817208685522991
usemtl material_0_0
f 1//1 2//2 3//3
f 3//4 2//5 1//6
f 1//1 4//7 2//2
f 2//5 4//8 1//6
f 5//9 3//10 2//9
f 2//11 3//12 5//11
f 1//1 3//3 6//13
f 6//14 3//4 1//6
f 7//15 4//7 1//1
f 1//6 4//8 7//16
f 8//17 2//18 4//17
f 4//19 2//20 8//19
f 5//10 9//21 3//21
f 3//22 9//22 5//12
f 8//18 5//9 2//9
f 2//11 5//11 8//20
f 10//23 6//13 3//3
f 3//4 6//14 10//24
f 7//15 1//1 6//25
f 6//26 1//6 7//16
f 7//27 11//27 4//27
f 4//28 11//28 7//28
f 4//17 11//29 8//17
f 8//19 11//30 4//19
f 12//31 9//32 5//33
f 5//34 9//35 12//36
f 9//21 10//37 3//21
f 3//22 10//38 9//22
f 12//31 5//33 8//39
f 8//40 5//34 12//36
f 13//41 6//13 10//23
f 10//24 6//14 13//42
f 14//43 7//15 6//25
f 6//26 7//16 14//44
f 11//45 12//31 8//39
f 8//40 12//36 11//46
f 12//31 15//47 9//32
f 9//35 15//48 12//36
f 9//37 16//49 10//23
f 10//24 16//50 9//38
f 14//43 6//25 13//51
f 13//52 6//26 14//44
f 13//41 10//23 17//53
f 17//54 10//24 13//42
f 11//45 15//55 12//31
f 12//36 15//56 11//46
f 16//57 9//32 15//47
f 15//48 9//35 16//58
f 10//23 16//49 17//53
f 17//54 16//50 10//24
f 14//59 13//41 17//53
f 17//54 13//42 14//60
f 18//61 15//55 11//45
f 11//46 15//56 18//62
f 19//63 16//57 15//47
f 15//48 16//58 19//64
f 17//65 16//57 20//66
f 20//67 16//58 17//68
f 14//69 17//65 20//66
f 20//67 17//68 14//70
f 18//61 19//71 15//55
f 15//56 19//72 18//62
f 19//63 20//66 16//57
f 16//58 20//67 19//64
f 14//69 20//66 18//73
f 18//74 20//67 14//70
f 18//75 20//66 19//63
f 19//64 20//67 18//76
