# SSTK version 0.8.0
# 23
mtllib original-23.mtl
o mesh23/mesh23-geometry#mesh23-geometry
v -0.488085 -0.770828 -0.058778
v -0.487951 -0.753429 -0.092728
v -0.470498 -0.757418 -0.072971
v -0.496960 -0.789251 -0.095480
v -0.470486 -0.763608 -0.117754
v -0.470494 -0.787838 -0.051724
v -0.489837 -0.808293 -0.053258
v -0.488033 -0.773265 -0.124275
v -0.470367 -0.824124 -0.063617
v -0.488799 -0.832150 -0.081557
v -0.488074 -0.803040 -0.129050
v -0.470494 -0.807344 -0.129037
v -0.487929 -0.827724 -0.111080
v -0.470483 -0.832329 -0.099971
vn 0.11630997637011868 -0.5758988829986672 -0.8092048355995347
vn 0.2975178533902296 -0.8501145810836153 -0.4344977858897546
vn 0.04161002781229752 -0.7514975023037287 -0.6584224400920106
vn -0.04161002781229752 0.7514975023037287 0.6584224400920106
vn -0.2975178533902296 0.8501145810836153 0.4344977858897546
vn -0.11630997637011868 0.5758988829986672 0.8092048355995347
vn 0.9692322403725329 -0.24531706083937455 0.020209005011894488
vn 0.9751912426612556 -0.15504303858006177 -0.15799903931561685
vn 0.9990846513459933 -0.01422899503445867 0.04034098592206741
vn -0.9990846513459933 0.01422899503445867 -0.04034098592206741
vn -0.9751912426612556 0.15504303858006177 0.15799903931561685
vn -0.9692322403725329 0.24531706083937455 -0.020209005011894488
vn -0.35628708700068557 -0.9255892260168839 0.1278440312178543
vn 0.35628708700068557 0.9255892260168839 -0.1278440312178543
vn -0.08362799977880395 -0.15064099960155458 -0.9850449973945562
vn 0.08362799977880395 0.15064099960155458 0.9850449973945562
vn 0.9881010899265902 0.04086400371901271 -0.14827801349470845
vn -0.9881010899265902 -0.04086400371901271 0.14827801349470845
vn 0.9648431441253851 -0.14969402236084564 0.2160310322700699
vn -0.9648431441253851 0.14969402236084564 -0.2160310322700699
vn 0.2592639139149317 -0.8179157284221692 0.5136108294624862
vn -0.2592639139149317 0.8179157284221692 -0.5136108294624862
vn -0.9999962969704445 -0.0021800006473981586 -0.0016290004837667892
vn -0.999998923694585 -0.0011289999138511004 0.0009369999285017547
vn -0.9999998180830496 -0.0005249999044936011 0.0002969999459706657
vn 0.9999998180830496 0.0005249999044936011 -0.0002969999459706657
vn 0.999998923694585 0.0011289999138511004 -0.0009369999285017547
vn 0.9999962969704445 0.0021800006473981586 0.0016290004837667892
vn -0.004275000952166793 0.078826017556842 -0.9968792220339369
vn 0.004275000952166793 -0.078826017556842 0.9968792220339369
vn -0.999991724145321 -0.002410999334909048 -0.003276999096016985
vn 0.999991724145321 0.002410999334909048 0.003276999096016985
vn 0.9832788261985999 0.18121196796951902 -0.018026996813602408
vn -0.9832788261985999 -0.18121196796951902 0.018026996813602408
vn 0.9704643599947915 0.051839019229739595 0.2356090873994428
vn -0.9704643599947915 -0.051839019229739595 -0.2356090873994428
vn -0.21710197947680807 -0.24379397695354693 0.9452149106464756
vn -0.1289420478845725 -0.2020050750176286 0.9708593605432534
vn 0.1289420478845725 0.2020050750176286 -0.9708593605432534
vn 0.21710197947680807 0.24379397695354693 -0.9452149106464756
vn -0.9999968906813459 0.0011299998764695502 0.002222999756983903
vn 0.9999968906813459 -0.0011299998764695502 -0.002222999756983903
vn -0.24537200085229968 0.30116500104609667 -0.9214620032006984
vn 0.24537200085229968 -0.30116500104609667 0.9214620032006984
vn 0.2751520249769262 0.7399890671725107 -0.6137650557145254
vn 0.03631098963128946 0.8977687436394785 -0.4389678746514244
vn 0.08315302630737656 0.965914305589255 -0.24514307755666315
vn -0.08315302630737656 -0.965914305589255 0.24514307755666315
vn -0.03631098963128946 -0.8977687436394785 0.4389678746514244
vn -0.2751520249769262 -0.7399890671725107 0.6137650557145254
vn 0.9758197945733659 0.1771749627016623 0.12800297305320096
vn -0.9758197945733659 -0.1771749627016623 -0.12800297305320096
vn -0.039469013716727924 -0.1581600549656107 0.9866243428830974
vn 0.039469013716727924 0.1581600549656107 -0.9866243428830974
vn -0.9999933408607881 0.0025690008756774946 0.0025920008835173475
vn 0.9999933408607881 -0.0025690008756774946 -0.0025920008835173475
vn -0.09310497727242609 0.9734697623692458 0.2090169489775059
vn 0.09310497727242609 -0.9734697623692458 -0.2090169489775059
vn 0.03335501606149478 0.8223963960098655 0.5679362734792714
vn -0.03335501606149478 -0.8223963960098655 -0.5679362734792714
vn -0.03478600715929147 0.6772641393874081 0.734917151252947
vn 0.14213894669371188 0.5831227813117958 0.7998527000316981
vn -0.14213894669371188 -0.5831227813117958 -0.7998527000316981
vn 0.03478600715929147 -0.6772641393874081 -0.734917151252947
usemtl material_0_0
f 1//1 2//2 3//3
f 3//4 2//5 1//6
f 2//7 1//8 4//9
f 4//10 1//11 2//12
f 3//13 2//13 5//13
f 5//14 2//14 3//14
f 6//15 1//1 3//3
f 3//4 1//6 6//16
f 1//8 7//17 4//9
f 4//10 7//18 1//11
f 2//7 4//9 8//19
f 8//20 4//10 2//12
f 2//21 8//21 5//21
f 5//22 8//22 2//22
f 3//23 5//24 9//25
f 9//26 5//27 3//28
f 6//15 7//29 1//1
f 1//6 7//30 6//16
f 3//23 9//25 6//31
f 6//32 9//26 3//28
f 4//9 7//17 10//33
f 10//34 7//18 4//10
f 8//19 4//9 11//35
f 11//36 4//10 8//20
f 5//37 8//38 12//38
f 12//39 8//39 5//40
f 5//24 12//41 9//25
f 9//26 12//42 5//27
f 9//43 7//29 6//15
f 6//16 7//30 9//44
f 7//45 9//46 10//47
f 10//48 9//49 7//50
f 4//9 10//33 13//51
f 13//52 10//34 4//10
f 4//9 13//51 11//35
f 11//36 13//52 4//10
f 12//38 8//38 11//53
f 11//54 8//39 12//39
f 12//41 14//55 9//25
f 9//26 14//56 12//42
f 9//46 14//57 10//47
f 10//48 14//58 9//49
f 10//47 14//57 13//59
f 13//60 14//58 10//48
f 12//61 11//62 13//59
f 13//60 11//63 12//64
f 14//57 12//61 13//59
f 13//60 12//64 14//58
