# SSTK version 0.8.0
# 45
mtllib original-45.mtl
o mesh45/mesh45-geometry#mesh45-geometry
v -0.008583 -0.291792 0.230014
v 0.037815 -0.297360 0.217007
v 0.009415 -0.306656 0.168535
v 0.020689 -0.284910 0.238183
v 0.044382 -0.302683 0.180309
v -0.026060 -0.299454 0.187968
v 0.054963 -0.285531 0.214217
v -0.002159 -0.251785 0.235144
v 0.015562 -0.297907 0.150763
v -0.023687 -0.285821 0.218599
v 0.041026 -0.251554 0.226736
v 0.051467 -0.292785 0.172495
v -0.023376 -0.293588 0.171441
v -0.032369 -0.257499 0.199132
v 0.059513 -0.257142 0.199175
v -0.011960 -0.253712 0.210732
v 0.053044 -0.263346 0.164884
v 0.002436 -0.266177 0.145463
v -0.024993 -0.263439 0.163784
v 0.031582 -0.252436 0.219389
v 0.030979 -0.267553 0.148114
v -0.018040 -0.258890 0.182663
v 0.045188 -0.259273 0.179919
v 0.003513 -0.235965 0.218129
v -0.005395 -0.259995 0.162900
v 0.039757 -0.238684 0.207697
v -0.019198 -0.240507 0.187965
v 0.019044 -0.260965 0.157507
v 0.042493 -0.243977 0.171257
vn 0.17205304278082234 0.9210782290252089 -0.349303086853874
vn -0.23939795859875998 0.8877068464808788 -0.39327493198743235
vn 0.0616209717673107 0.9960225436554437 0.06435797051330848
vn -0.0616209717673107 -0.9960225436554437 -0.06435797051330848
vn 0.23939795859875998 -0.8877068464808788 0.39327493198743235
vn -0.17205304278082234 -0.9210782290252089 0.349303086853874
vn -0.24006191384839629 0.3034048911163478 -0.9221256690745152
vn 0.24006191384839629 -0.3034048911163478 0.9221256690745152
vn -0.46735704006324935 0.8771280751900533 0.11056100947762185
vn 0.46735704006324935 -0.8771280751900533 -0.11056100947762185
vn 0.8595929853671488 0.5036459914264344 -0.08625899853161308
vn -0.8595929853671488 -0.5036459914264344 0.08625899853161308
vn -0.8183550952913188 0.38094904435866167 -0.430317050107196
vn 0.8183550952913188 -0.38094904435866167 0.430317050107196
vn 0.4357101169886178 0.04528301215853567 -0.8989472413682656
vn 0.39395785780467946 -0.08616596889921771 -0.9150806697103852
vn -0.39395785780467946 0.08616596889921771 0.9150806697103852
vn -0.4357101169886178 -0.04528301215853567 0.8989472413682656
vn -0.10100798537540837 0.6435029068294731 0.7587498901432669
vn 0.10100798537540837 -0.6435029068294731 -0.7587498901432669
vn 0.36413391341242496 0.8200638049966409 0.44147689502100085
vn -0.36413391341242496 -0.8200638049966409 -0.44147689502100085
vn 0.8140932458114223 0.2069060624742605 -0.54262516384298
vn -0.8140932458114223 -0.2069060624742605 0.54262516384298
vn -0.5646679617414881 -0.10491999289125103 -0.8186219445350905
vn 0.5646679617414881 0.10491999289125103 0.8186219445350905
vn -0.8439162689148059 0.40908913035668126 0.3470611105913876
vn 0.8439162689148059 -0.40908913035668126 -0.3470611105913876
vn 0.2903070471960914 0.8859731440353237 0.3616260587906381
vn -0.2903070471960914 -0.8859731440353237 -0.3616260587906381
vn 0.9769351070476702 0.035380003876764134 -0.21058502307485516
vn -0.9769351070476702 -0.035380003876764134 0.21058502307485516
vn -0.9927262445402714 0.047114011605690134 -0.11079202729162502
vn 0.9927262445402714 -0.047114011605690134 0.11079202729162502
vn 0.09961098525687799 -0.9942818528393366 0.038486994303655854
vn 0.07434097566232971 -0.9933936747838253 0.08742097138021448
vn -0.005072000524581826 -0.9930411027072674 0.11765901216911928
vn 0.005072000524581826 0.9930411027072674 -0.11765901216911928
vn -0.07434097566232971 0.9933936747838253 -0.08742097138021448
vn -0.09961098525687799 0.9942818528393366 -0.038486994303655854
vn -0.5692451578044567 0.30547908468400714 0.7633102116025963
vn 0.5692451578044567 -0.30547908468400714 -0.7633102116025963
vn 0.3299291736909293 0.24299412792404934 0.9121954802245249
vn 0.5146601246661371 0.282544068440658 0.8095021960857407
vn -0.5146601246661371 -0.282544068440658 -0.8095021960857407
vn -0.3299291736909293 -0.24299412792404934 -0.9121954802245249
vn 0.9765258508298286 0.09939998481605708 0.19109397080925164
vn 0.9756022665614048 0.10174502779954339 0.19454605315533902
vn -0.9756022665614048 -0.10174502779954339 -0.19454605315533902
vn -0.9765258508298286 -0.09939998481605708 -0.19109397080925164
vn -0.03036500225900442 -0.9890520735805316 0.14440901074330875
vn -0.07383002995284922 -0.9819403983733003 0.174190070668926
vn 0.07383002995284922 0.9819403983733003 -0.174190070668926
vn 0.03036500225900442 0.9890520735805316 -0.14440901074330875
vn 0.1314710474112949 -0.9841043548892526 0.11939004305462418
vn -0.1314710474112949 0.9841043548892526 -0.11939004305462418
vn -0.9811518810054166 0.09591098836786809 0.16775597965447214
vn 0.9811518810054166 -0.09591098836786809 -0.16775597965447214
vn -0.3648378379788357 0.26324288309623073 0.8930826033901416
vn 0.3648378379788357 -0.26324288309623073 -0.8930826033901416
vn 0.556147814706873 0.23248492254243006 0.7979037341604623
vn -0.556147814706873 -0.23248492254243006 -0.7979037341604623
vn 0.16010198614125246 -0.9539879174209014 0.25352397805445837
vn 0.13060399932960967 -0.9761909949892116 0.17318699911103114
vn -0.13060399932960967 0.9761909949892116 -0.17318699911103114
vn -0.16010198614125246 0.9539879174209014 -0.25352397805445837
vn -0.07291998147686865 -0.9775057516940204 0.1979019497289531
vn 0.07291998147686865 0.9775057516940204 -0.1979019497289531
vn 0.1826600012774327 0.2383070016666 -0.9538580066708059
vn -0.1826600012774327 -0.2383070016666 0.9538580066708059
vn -0.07960597364700402 -0.9623726814133131 0.2598109139914298
vn 0.07960597364700402 0.9623726814133131 -0.2598109139914298
vn -0.05770899021385455 -0.9553928379868848 0.2896449508827375
vn -0.07647598651728475 -0.9387098345054706 0.3361179407424122
vn 0.07647598651728475 0.9387098345054706 -0.3361179407424122
vn 0.05770899021385455 0.9553928379868848 -0.2896449508827375
vn 0.10839801580611202 -0.9206271342417156 0.3750940546945311
vn 0.13237892769061185 -0.9422354853223801 0.30768183193484494
vn -0.13237892769061185 0.9422354853223801 -0.30768183193484494
vn -0.10839801580611202 0.9206271342417156 -0.3750940546945311
vn -0.9782096797831137 0.02064999324022582 -0.2065899323727967
vn -0.9048839509082374 0.23768198710527721 -0.35311798084264384
vn 0.9048839509082374 -0.23768198710527721 0.35311798084264384
vn 0.9782096797831137 -0.02064999324022582 0.2065899323727967
vn 0.9071607903760303 -0.1679629611876273 -0.38580791084867566
vn 0.9641893075470305 0.12774204074582138 -0.23242407413620256
vn -0.9641893075470305 -0.12774204074582138 0.23242407413620256
vn -0.9071607903760303 0.1679629611876273 0.38580791084867566
vn 0.7465156150141582 -0.44448277077562715 -0.4951257446585205
vn -0.7465156150141582 0.44448277077562715 0.4951257446585205
vn -0.2716130796433495 -0.524570153816319 -0.8068782365956952
vn 0.2716130796433495 0.524570153816319 0.8068782365956952
vn 0.04001699483514686 -0.9359618791986838 0.3498199548499657
vn -0.04001699483514686 0.9359618791986838 -0.3498199548499657
vn 0.8352164379057636 -0.10319405410486314 0.5401522832029966
vn -0.8352164379057636 0.10319405410486314 -0.5401522832029966
vn -0.9791968317025175 -0.1979089659847952 -0.04478399230284155
vn 0.9791968317025175 0.1979089659847952 0.04478399230284155
vn -0.6263479685131753 0.33133098334382627 0.7056259645278309
vn -0.6187562328092421 0.3681261385087741 0.6939912611166902
vn 0.6187562328092421 -0.3681261385087741 -0.6939912611166902
vn 0.6263479685131753 -0.33133098334382627 -0.7056259645278309
vn -0.6329708620193297 0.2940239359060232 0.7161688438830869
vn 0.6329708620193297 -0.2940239359060232 -0.7161688438830869
usemtl material_0_0
f 1//1 2//2 3//3
f 3//4 2//5 1//6
f 4//7 2//2 1//1
f 1//6 2//5 4//8
f 2//2 5//9 3//3
f 3//4 5//10 2//5
f 1//1 3//3 6//11
f 6//12 3//4 1//6
f 7//13 2//2 4//7
f 4//8 2//5 7//14
f 4//7 1//15 8//16
f 8//17 1//18 4//8
f 2//2 7//13 5//9
f 5//10 7//14 2//5
f 5//9 9//19 3//3
f 3//4 9//20 5//10
f 6//21 3//3 9//19
f 9//20 3//4 6//22
f 1//1 6//11 10//23
f 10//24 6//12 1//6
f 7//13 4//7 11//25
f 11//26 4//8 7//14
f 8//16 1//15 10//23
f 10//24 1//18 8//17
f 11//25 4//7 8//16
f 8//17 4//8 11//26
f 7//13 12//27 5//9
f 5//10 12//28 7//14
f 5//9 12//27 9//19
f 9//20 12//28 5//10
f 6//21 9//19 13//29
f 13//30 9//20 6//22
f 14//31 10//23 6//11
f 6//12 10//24 14//32
f 11//25 15//33 7//13
f 7//14 15//34 11//26
f 8//16 10//23 14//31
f 14//32 10//24 8//17
f 8//35 16//36 11//37
f 11//38 16//39 8//40
f 15//33 12//27 7//13
f 7//14 12//28 15//34
f 17//41 9//19 12//27
f 12//28 9//20 17//42
f 9//19 18//43 13//44
f 13//45 18//46 9//20
f 19//47 6//11 13//48
f 13//49 6//12 19//50
f 14//31 6//11 19//47
f 19//50 6//12 14//32
f 11//37 20//51 15//52
f 15//53 20//54 11//38
f 8//35 14//55 16//36
f 16//39 14//56 8//40
f 11//37 16//36 20//51
f 20//54 16//39 11//38
f 15//33 17//57 12//27
f 12//28 17//58 15//34
f 17//41 21//59 9//19
f 9//20 21//60 17//42
f 21//59 18//43 9//19
f 9//20 18//46 21//60
f 18//43 19//61 13//44
f 13//45 19//62 18//46
f 14//55 19//63 22//64
f 22//65 19//66 14//56
f 20//51 23//67 15//52
f 15//53 23//68 20//54
f 16//36 14//55 22//64
f 22//65 14//56 16//39
f 20//69 16//69 24//69
f 24//70 16//70 20//70
f 15//52 23//67 17//71
f 17//72 23//68 15//53
f 17//71 18//73 21//74
f 21//75 18//76 17//72
f 19//63 18//77 25//78
f 25//79 18//80 19//66
f 22//64 19//63 25//78
f 25//79 19//66 22//65
f 26//81 23//81 20//82
f 20//83 23//84 26//84
f 27//85 16//85 22//86
f 22//87 16//88 27//88
f 24//89 16//85 27//85
f 27//88 16//88 24//90
f 26//91 20//91 24//91
f 24//92 20//92 26//92
f 23//67 18//73 17//71
f 17//72 18//76 23//68
f 25//78 18//77 28//93
f 28//94 18//80 25//79
f 27//95 22//95 25//95
f 25//96 22//96 27//96
f 26//81 29//97 23//81
f 23//84 29//98 26//84
f 23//99 28//99 18//100
f 18//101 28//102 23//102
f 23//99 29//103 28//99
f 28//102 29//104 23//102
