# SSTK version 0.8.0
# 40
mtllib original-40.mtl
o mesh40/mesh40-geometry#mesh40-geometry
v 0.497997 -0.786305 -0.134208
v 0.466032 -0.789123 -0.133995
v 0.486447 -0.742808 -0.134208
v 0.470957 -0.743898 -0.129876
v 0.498454 -0.743380 -0.122005
v 0.467331 -0.748087 -0.110602
v 0.497204 -0.749144 -0.103036
vn -0.006503002276821802 -0.0017350006074559167 -0.9999773501106313
vn 0.90390796329727 -0.39912398379377056 -0.15378699375555616
vn -0.90390796329727 0.39912398379377056 0.15378699375555616
vn 0.006503002276821802 0.0017350006074559167 0.9999773501106313
vn 0.27514110241386563 -0.1168830435065652 0.954272355202185
vn -0.27514110241386563 0.1168830435065652 -0.954272355202185
vn -0.704575957346382 -0.1870819886744309 0.6845239585602899
vn 0.704575957346382 0.1870819886744309 -0.6845239585602899
vn 0.9799693126391698 -0.12111803864023347 0.1580840504334836
vn -0.9799693126391698 0.12111803864023347 -0.1580840504334836
vn -0.9979773331538307 0.026998009012719856 -0.05755301921287006
vn 0.9979773331538307 -0.026998009012719856 0.05755301921287006
usemtl material_0_0
f 1//1 2//2 3//2
f 3//3 2//3 1//4
f 3//2 4//5 2//2
f 2//3 4//6 3//3
f 3//7 1//7 5//7
f 5//8 1//8 3//8
f 4//9 6//9 2//9
f 2//10 6//10 4//10
f 5//11 1//11 7//11
f 7//12 1//12 5//12
