# SSTK version 0.8.0
# 39
mtllib original-39.mtl
o mesh39/mesh39-geometry#mesh39-geometry
v 0.499492 -0.752899 -0.074218
v 0.466382 -0.751346 -0.099811
v 0.497204 -0.749144 -0.103036
v 0.465575 -0.754401 -0.071028
v 0.467331 -0.748087 -0.110602
v 0.499020 -0.783345 -0.047856
v 0.466449 -0.786177 -0.047645
vn 0.045458009878617575 -0.9918532155426213 -0.11899902586003812
vn 0.043270988957028675 -0.9835877489835206 -0.1751649552970333
vn 0.04773899925954426 -0.9764839848542454 -0.2102379967391036
vn -0.04773899925954426 0.9764839848542454 0.2102379967391036
vn -0.043270988957028675 0.9835877489835206 0.1751649552970333
vn -0.045458009878617575 0.9918532155426213 0.11899902586003812
vn 0.03419500564727146 -0.9939311641467514 -0.10455401726699282
vn -0.03419500564727146 0.9939311641467514 0.10455401726699282
vn 0.038478989114083886 -0.957522729111592 -0.28577891915158343
vn -0.038478989114083886 0.957522729111592 0.28577891915158343
vn -0.04211201767515449 -0.6536142743334068 -0.7556553171618272
vn 0.0020339999687445393 -0.6235309904185111 -0.781795987986532
vn -0.0020339999687445393 0.6235309904185111 0.781795987986532
vn 0.04211201767515449 0.6536142743334068 0.7556553171618272
vn 0.046174002125366286 -0.5912410272145295 -0.8051720370616673
vn -0.046174002125366286 0.5912410272145295 0.8051720370616673
usemtl material_0_0
f 1//1 2//2 3//3
f 3//4 2//5 1//6
f 4//7 2//2 1//1
f 1//6 2//5 4//8
f 2//2 5//9 3//3
f 3//4 5//10 2//5
f 1//11 6//12 4//12
f 4//13 6//13 1//14
f 6//12 7//15 4//12
f 4//13 7//16 6//13
