# SSTK version 0.8.0
# 34
mtllib original-34.mtl
o mesh34/mesh34-geometry#mesh34-geometry
v 0.286578 -0.754273 0.480166
v 0.292562 -0.751139 0.451260
v 0.320442 -0.752874 0.477097
v 0.319901 -0.783340 0.503508
v 0.287331 -0.786170 0.503716
vn 0.03190800517557458 -0.994353161287079 -0.10121101641673182
vn -0.03190800517557458 0.994353161287079 0.10121101641673182
vn -0.041429005613257776 -0.6540440886170935 -0.7553211023392185
vn 0.0024690008905317463 -0.6244132252165246 -0.781090281727599
vn -0.0024690008905317463 0.6244132252165246 0.781090281727599
vn 0.041429005613257776 0.6540440886170935 0.7553211023392185
vn 0.046356974442526254 -0.5926166732792583 -0.8041495566571928
vn -0.046356974442526254 0.5926166732792583 0.8041495566571928
usemtl material_0_0
f 1//1 2//1 3//1
f 3//2 2//2 1//2
f 3//3 4//4 1//4
f 1//5 4//5 3//6
f 4//4 5//7 1//4
f 1//5 5//8 4//5
