# SSTK version 0.8.0
# 24
mtllib original-24.mtl
o mesh24/mesh24-geometry#mesh24-geometry
v -0.422981 -0.755560 -0.081607
v -0.440441 -0.757418 -0.108458
v -0.422858 -0.760335 -0.111348
v -0.440453 -0.763608 -0.063675
v -0.422906 -0.784778 -0.129044
v -0.413651 -0.792744 -0.085330
v -0.440572 -0.827616 -0.111235
v -0.422910 -0.780331 -0.052514
v -0.440434 -0.796190 -0.131262
v -0.420183 -0.810957 -0.125189
v -0.440449 -0.799988 -0.051724
v -0.423003 -0.834406 -0.092776
v -0.422962 -0.816990 -0.058773
v -0.440445 -0.830508 -0.073114
vn 0.08531103364727548 -0.9962633929333335 0.013464005310298989
vn -0.13652102155626145 -0.9782021544551979 0.15646902470599156
vn 0.13652102155626145 0.9782021544551979 -0.15646902470599156
vn -0.08531103364727548 0.9962633929333335 -0.013464005310298989
vn 0.30117202893660994 -0.9446000907571812 -0.13048401253690453
vn -0.30117202893660994 0.9446000907571812 0.13048401253690453
vn 0.03585201981668958 -0.5860733239436212 0.8094644474198598
vn 0.126471020255537 -0.5433760870268494 0.8299081329176823
vn -0.126471020255537 0.5433760870268494 -0.8299081329176823
vn -0.03585201981668958 0.5860733239436212 -0.8094644474198598
vn -0.9689100478534994 -0.23550901163155483 -0.07582100374472364
vn -0.9814878981210707 -0.14747098469243883 0.12220398731516566
vn -0.998685116820699 -0.013875001623021473 -0.04935100577280956
vn 0.998685116820699 0.013875001623021473 0.04935100577280956
vn 0.9814878981210707 0.14747098469243883 -0.12220398731516566
vn 0.9689100478534994 0.23550901163155483 0.07582100374472364
vn 0.9999964078766181 -0.0019280007863892654 0.0018620007594693008
vn 0.9999988850546347 -0.00117699986470917 -0.0009189998943651038
vn 0.9999998222960473 -0.0005079999097263921 -0.00031199994455636675
vn -0.9999998222960473 0.0005079999097263921 0.00031199994455636675
vn -0.9999988850546347 0.00117699986470917 0.0009189998943651038
vn -0.9999964078766181 0.0019280007863892654 -0.0018620007594693008
vn -0.29959489538897066 -0.7267927462221873 -0.6180737841841242
vn 0.29959489538897066 0.7267927462221873 0.6180737841841242
vn 0.2157690589379738 -0.4949981352102441 0.8416772299066918
vn -0.2157690589379738 0.4949981352102441 -0.8416772299066918
vn -0.9890741114365138 -0.08515800959454059 0.12033501355784591
vn -0.9910964369685688 0.004670002058976341 0.133064058667158
vn 0.9910964369685688 -0.004670002058976341 -0.133064058667158
vn 0.9890741114365138 0.08515800959454059 -0.12033501355784591
vn -0.9668912584897105 -0.08633402308062715 -0.24014106419956083
vn 0.9668912584897105 0.08633402308062715 0.24014106419956083
vn 0.99999649402039 0.000912000450548398 -0.002486001228139602
vn -0.99999649402039 -0.000912000450548398 0.002486001228139602
vn 0.9999910395071467 -0.00200200007909402 0.0037300001473629836
vn -0.9999910395071467 0.00200200007909402 -0.0037300001473629836
vn 0.035291990604196945 -0.0715739809448258 -0.996810734618615
vn 0.10619604914393223 0.15667407250345058 -0.981924454401357
vn 0.29343009018663235 -0.29833509169419953 -0.9082372791494953
vn -0.29343009018663235 0.29833509169419953 0.9082372791494953
vn -0.10619604914393223 -0.15667407250345058 0.981924454401357
vn -0.035291990604196945 0.0715739809448258 0.996810734618615
vn -0.12062600204889296 0.5189870088152538 0.846228014373606
vn -0.20239597951327756 0.12199898765114109 0.9716749016460996
vn -0.033840009029784617 0.340039090735193 0.9398022507745166
vn 0.033840009029784617 -0.340039090735193 -0.9398022507745166
vn 0.20239597951327756 -0.12199898765114109 -0.9716749016460996
vn 0.12062600204889296 -0.5189870088152538 -0.846228014373606
vn -0.974265906263446 0.22366997848015324 -0.027886997316922398
vn 0.974265906263446 -0.22366997848015324 0.027886997316922398
vn -0.9675889648968407 0.14544599472336484 -0.20643899251059994
vn 0.9675889648968407 -0.14544599472336484 0.20643899251059994
vn 0.9999923665367692 0.0023240008518382663 -0.0031410011513012025
vn -0.9999923665367692 -0.0023240008518382663 0.0031410011513012025
vn -0.06951897983765652 0.6892258001062825 0.7212037908318191
vn 0.06951897983765652 -0.6892258001062825 -0.7212037908318191
vn -0.11234999014685011 0.5791739492061572 -0.807424929188433
vn 0.11234999014685011 -0.5791739492061572 0.807424929188433
vn -0.27075213049321734 0.7909823812263106 0.548671264440684
vn 0.27075213049321734 -0.7909823812263106 -0.548671264440684
vn -0.041541974012927786 0.7518435296754049 -0.6580315883605722
vn 0.041541974012927786 -0.7518435296754049 0.6580315883605722
vn 0.2934908873287232 0.9532956340293997 0.07134797260948289
vn -0.2934908873287232 -0.9532956340293997 -0.07134797260948289
vn -0.3000860818723468 0.8491672316779028 -0.43458411856738394
vn 0.3000860818723468 -0.8491672316779028 0.43458411856738394
usemtl material_0_0
f 1//1 2//1 3//2
f 3//3 2//4 1//4
f 4//5 2//1 1//1
f 1//4 2//4 4//6
f 3//7 2//8 5//8
f 5//9 2//9 3//10
f 1//11 3//12 6//13
f 6//14 3//15 1//16
f 2//17 4//18 7//19
f 7//20 4//21 2//22
f 8//23 4//23 1//23
f 1//24 4//24 8//24
f 5//8 2//8 9//25
f 9//26 2//9 5//9
f 3//12 5//27 10//28
f 10//29 5//30 3//15
f 3//12 10//28 6//13
f 6//14 10//29 3//15
f 1//11 6//13 8//31
f 8//32 6//14 1//16
f 4//18 11//33 7//19
f 7//20 11//34 4//21
f 2//17 7//19 9//35
f 9//36 7//20 2//22
f 8//37 11//38 4//39
f 4//40 11//41 8//42
f 10//43 5//44 9//45
f 9//46 5//47 10//48
f 6//13 10//28 12//49
f 12//50 10//29 6//14
f 8//31 6//13 13//51
f 13//52 6//14 8//32
f 11//33 14//53 7//19
f 7//20 14//54 11//34
f 10//43 9//45 7//55
f 7//56 9//46 10//48
f 8//37 13//57 11//38
f 11//41 13//58 8//42
f 12//59 10//43 7//55
f 7//56 10//48 12//60
f 6//13 12//49 13//51
f 13//52 12//50 6//14
f 13//57 14//61 11//38
f 11//41 14//62 13//58
f 14//63 12//63 7//63
f 7//64 12//64 14//64
f 13//57 12//65 14//61
f 14//62 12//66 13//58
