# SSTK version 0.8.0
# 19
mtllib original-19.mtl
o mesh19/mesh19-geometry#mesh19-geometry
v -0.037977 -0.264470 0.055725
v -0.037676 -0.465048 0.055990
v -0.042224 -0.264470 0.034373
v -0.025882 -0.460991 0.073827
v -0.042224 -0.460991 0.034373
v -0.025882 -0.264470 0.073827
v -0.007379 -0.465048 0.085897
v -0.037951 -0.465048 0.013420
v -0.037977 -0.264470 0.013020
v -0.007780 -0.264470 0.085923
v -0.025882 -0.264470 -0.005082
v 0.013573 -0.460991 0.090170
v -0.025882 -0.460991 -0.005082
v 0.035190 -0.465048 0.085621
v 0.013573 -0.264470 0.090170
v -0.008045 -0.465048 -0.016876
v -0.007780 -0.264470 -0.017177
v 0.034926 -0.264470 0.085923
v 0.013573 -0.264470 -0.021425
v 0.053027 -0.460991 0.073827
v 0.013573 -0.460991 -0.021425
v 0.065097 -0.465048 0.055325
v 0.053027 -0.264470 0.073827
v 0.034525 -0.465048 -0.017152
v 0.034926 -0.264470 -0.017177
v 0.065123 -0.264470 0.055725
v 0.053027 -0.264470 -0.005082
v 0.069370 -0.460991 0.034373
v 0.053027 -0.460991 -0.005082
v 0.069370 -0.264470 0.034373
v 0.064822 -0.465048 0.012755
v 0.065123 -0.264470 0.013020
vn 0.8972412997768922 0.0005900001971247039 -0.4415401475227826
vn 0.946477936392899 0.0005899999603496441 -0.3227679783087015
vn 0.9975566521949509 0.00041199985635339105 -0.06986097564248606
vn -0.9975566521949509 -0.00041199985635339105 0.06986097564248606
vn -0.946477936392899 -0.0005899999603496441 0.3227679783087015
vn -0.8972412997768922 -0.0005900001971247039 0.4415401475227826
vn 0.7510061762067223 0.00017800004176370972 -0.6602951549234197
vn -0.7510061762067223 -0.00017800004176370972 0.6602951549234197
vn 0.9979408308260909 0.00017799996982491366 0.06414098912662802
vn -0.9979408308260909 -0.00017799996982491366 -0.06414098912662802
vn 0.6559806485948687 0.0004119997792940434 -0.7547775956699017
vn -0.6559806485948687 -0.0004119997792940434 0.7547775956699017
vn 0.47572612446376644 0.7358211925121878 -0.4819251260856053
vn -0.47572612446376644 -0.7358211925121878 0.4819251260856053
vn 0.6771650695536594 0.7358180755780859 -0.004385000450396574
vn -0.6771650695536594 -0.7358180755780859 0.004385000450396574
vn 0.9466619174851642 0.0005899999485732467 0.32222797191332225
vn -0.9466619174851642 -0.0005899999485732467 -0.32222797191332225
vn 0.44102886530737945 0.0005889998201162429 -0.8974927259008271
vn -0.44102886530737945 -0.0005889998201162429 0.8974927259008271
vn 0.8974927259008271 0.0005889998201162429 0.44102886530737945
vn -0.8974927259008271 -0.0005889998201162429 -0.44102886530737945
vn 0.32222797191332225 0.0005899999485732467 -0.9466619174851642
vn -0.32222797191332225 -0.0005899999485732467 0.9466619174851642
vn 0.7547775956699017 0.0004119997792940434 0.6559806485948687
vn -0.7547775956699017 -0.0004119997792940434 -0.6559806485948687
vn 0.06414098912662802 0.00017799996982491366 -0.9979408308260909
vn -0.06414098912662802 -0.00017799996982491366 0.9979408308260909
vn 0.6602951549234197 0.00017800004176370972 0.7510061762067223
vn -0.6602951549234197 -0.00017800004176370972 -0.7510061762067223
vn -0.004385000450396574 0.7358180755780859 -0.6771650695536594
vn 0.004385000450396574 -0.7358180755780859 0.6771650695536594
vn -0.06986097564248606 0.00041199985635339105 -0.9975566521949509
vn 0.06986097564248606 -0.00041199985635339105 0.9975566521949509
vn 0.4819251260856053 0.7358211925121878 0.47572612446376644
vn -0.4819251260856053 -0.7358211925121878 -0.47572612446376644
vn 0.4415401475227826 0.0005900001971247039 0.8972412997768922
vn -0.4415401475227826 -0.0005900001971247039 -0.8972412997768922
vn -0.3227679783087015 0.0005899999603496441 -0.946477936392899
vn 0.3227679783087015 -0.0005899999603496441 0.946477936392899
vn 0.3227679783087015 0.0005899999603496441 0.946477936392899
vn -0.3227679783087015 -0.0005899999603496441 -0.946477936392899
vn -0.4415401475227826 0.0005900001971247039 -0.8972412997768922
vn 0.4415401475227826 -0.0005900001971247039 0.8972412997768922
vn 0.06986097564248606 0.00041199985635339105 0.9975566521949509
vn -0.06986097564248606 -0.00041199985635339105 -0.9975566521949509
vn -0.6602951549234197 0.00017800004176370972 -0.7510061762067223
vn 0.6602951549234197 -0.00017800004176370972 0.7510061762067223
vn -0.06414098912662802 0.00017799996982491366 0.9979408308260909
vn 0.06414098912662802 -0.00017799996982491366 -0.9979408308260909
vn -0.4819252514315535 0.7358203838945183 -0.47572724819791185
vn 0.4819252514315535 -0.7358203838945183 0.47572724819791185
vn -0.7547771653588637 0.00041200009026222563 -0.6559811437143326
vn 0.7547771653588637 -0.00041200009026222563 0.6559811437143326
vn 0.004385000450396574 0.7358180755780859 0.6771650695536594
vn -0.004385000450396574 -0.7358180755780859 -0.6771650695536594
vn -0.32222797191332225 0.0005899999485732467 0.9466619174851642
vn 0.32222797191332225 -0.0005899999485732467 -0.9466619174851642
vn -0.8974925313938178 0.0005890003487395528 -0.44102926112776947
vn 0.8974925313938178 -0.0005890003487395528 0.44102926112776947
vn -0.44102886530737945 0.0005889998201162429 0.8974927259008271
vn 0.44102886530737945 -0.0005889998201162429 -0.8974927259008271
vn -0.9466619174851642 0.0005899999485732467 -0.32222797191332225
vn 0.9466619174851642 -0.0005899999485732467 0.32222797191332225
vn -0.6559806485948687 0.0004119997792940434 0.7547775956699017
vn 0.6559806485948687 -0.0004119997792940434 -0.7547775956699017
vn -0.9979408308260909 0.00017799996982491366 -0.06414098912662802
vn 0.9979408308260909 -0.00017799996982491366 0.06414098912662802
vn -0.7510061762067223 0.00017800004176370972 0.6602951549234197
vn 0.7510061762067223 -0.00017800004176370972 -0.6602951549234197
vn -0.9975566521949509 0.00041199985635339105 0.06986097564248606
vn 0.9975566521949509 -0.00041199985635339105 -0.06986097564248606
vn -0.6771650695536594 0.7358180755780859 0.004385000450396574
vn 0.6771650695536594 -0.7358180755780859 -0.004385000450396574
vn -0.47572612446376644 0.7358211925121878 0.4819251260856053
vn 0.47572612446376644 -0.7358211925121878 -0.4819251260856053
vn -0.8972412997768922 0.0005900001971247039 0.4415401475227826
vn 0.8972412997768922 -0.0005900001971247039 -0.4415401475227826
vn -0.946477936392899 0.0005899999603496441 0.3227679783087015
vn 0.946477936392899 -0.0005899999603496441 -0.3227679783087015
usemtl material_0_0
f 1//1 2//2 3//3
f 3//4 2//5 1//6
f 1//1 4//7 2//2
f 2//5 4//8 1//6
f 3//3 2//2 5//9
f 5//10 2//5 3//4
f 6//11 4//7 1//1
f 1//6 4//8 6//12
f 7//13 2//13 4//13
f 4//14 2//14 7//14
f 2//15 8//15 5//15
f 5//16 8//16 2//16
f 3//3 5//9 9//17
f 9//18 5//10 3//4
f 7//19 4//7 6//11
f 6//12 4//8 7//20
f 9//17 5//9 8//21
f 8//22 5//10 9//18
f 7//19 6//11 10//23
f 10//24 6//12 7//20
f 9//17 8//21 11//25
f 11//26 8//22 9//18
f 12//27 7//19 10//23
f 10//24 7//20 12//28
f 11//25 8//21 13//29
f 13//30 8//22 11//26
f 12//31 14//31 7//31
f 7//32 14//32 12//32
f 12//27 10//23 15//33
f 15//34 10//24 12//28
f 8//35 16//35 13//35
f 13//36 16//36 8//36
f 17//37 11//25 13//29
f 13//30 11//26 17//38
f 14//39 12//27 15//33
f 15//34 12//28 14//40
f 17//37 13//29 16//41
f 16//42 13//30 17//38
f 14//39 15//33 18//43
f 18//44 15//34 14//40
f 19//45 17//37 16//41
f 16//42 17//38 19//46
f 20//47 14//39 18//43
f 18//44 14//40 20//48
f 19//45 16//41 21//49
f 21//50 16//42 19//46
f 14//51 20//51 22//51
f 22//52 20//52 14//52
f 20//47 18//43 23//53
f 23//54 18//44 20//48
f 16//55 24//55 21//55
f 21//56 24//56 16//56
f 25//57 19//45 21//49
f 21//50 19//46 25//58
f 23//53 22//59 20//47
f 20//48 22//60 23//54
f 25//57 21//49 24//61
f 24//62 21//50 25//58
f 26//63 22//59 23//53
f 23//54 22//60 26//64
f 27//65 25//57 24//61
f 24//62 25//58 27//66
f 26//63 28//67 22//59
f 22//60 28//68 26//64
f 27//65 24//61 29//69
f 29//70 24//62 27//66
f 30//71 28//67 26//63
f 26//64 28//68 30//72
f 22//73 28//73 31//73
f 31//74 28//74 22//74
f 31//75 29//75 24//75
f 24//76 29//76 31//76
f 27//65 29//69 32//77
f 32//78 29//70 27//66
f 30//71 31//79 28//67
f 28//68 31//80 30//72
f 32//77 29//69 31//79
f 31//80 29//70 32//78
f 32//77 31//79 30//71
f 30//72 31//80 32//78
