# SSTK version 0.8.0
# 43
mtllib original-43.mtl
o mesh43/mesh43-geometry#mesh43-geometry
v -0.260211 -0.259500 -0.013453
v -0.349524 -0.230203 -0.038422
v -0.349653 -0.221714 -0.041436
v -0.305317 -0.245022 -0.110341
v -0.362110 -0.224984 -0.064561
v -0.257757 -0.254802 -0.012648
v -0.365573 -0.233513 -0.054424
v -0.239052 -0.266746 -0.055573
v -0.309802 -0.236165 -0.112737
v -0.257460 -0.249549 -0.013186
v -0.346747 -0.235265 -0.085347
v -0.236040 -0.262807 -0.054725
v -0.295025 -0.236642 -0.105948
v -0.325764 -0.225441 -0.037753
v -0.235489 -0.257089 -0.055541
vn 0.23080400423456113 -0.16392100300745868 -0.9590930175964798
vn 0.15280001995797587 -0.32853704291186864 -0.9320491217396039
vn 0.18680396726559648 -0.3055139464635738 -0.9336838363868609
vn -0.18680396726559648 0.3055139464635738 0.9336838363868609
vn -0.15280001995797587 0.32853704291186864 0.9320491217396039
vn -0.23080400423456113 0.16392100300745868 0.9590930175964798
vn -0.31389114084879344 -0.9494494260356178 0.004259001911093377
vn -0.841876875222912 0.07927098825100988 -0.5338159208815467
vn -0.9785750606202804 0.07575800469301915 -0.1914460118596022
vn 0.9785750606202804 -0.07575800469301915 0.1914460118596022
vn 0.841876875222912 -0.07927098825100988 0.5338159208815467
vn 0.31389114084879344 0.9494494260356178 -0.004259001911093377
vn 0.8793517953779387 -0.1472999657238175 -0.45281689463110575
vn 0.7617188598669752 -0.45805691573150603 -0.4582229157009671
vn -0.7617188598669752 0.45805691573150603 0.4582229157009671
vn -0.8793517953779387 0.1472999657238175 0.45281689463110575
vn 0.28095012668971203 -0.05340302408119129 -0.9582354321000756
vn -0.28095012668971203 0.05340302408119129 0.9582354321000756
vn 0.15401398742991793 0.9873659194146527 -0.0372589969590512
vn -0.15401398742991793 -0.9873659194146527 0.0372589969590512
vn -0.3151890379549086 -0.9490161142800527 0.004928000593427403
vn 0.3151890379549086 0.9490161142800527 -0.004928000593427403
vn 0.5599642408381519 -0.71822830890683 -0.41302317763944824
vn -0.5599642408381519 0.71822830890683 0.41302317763944824
vn -0.10674295776000535 -0.9852906101038328 0.13344794719238914
vn -0.05495899929745911 -0.9841259874199174 0.16874699784290711
vn -0.07659897425639126 -0.9846616690720079 0.15676094731531942
vn 0.07659897425639126 0.9846616690720079 -0.15676094731531942
vn 0.05495899929745911 0.9841259874199174 -0.16874699784290711
vn 0.10674295776000535 0.9852906101038328 -0.13344794719238914
vn -0.7967320421196389 0.372874019712172 -0.4755870251421465
vn -0.7075851998981539 0.5380541520043547 -0.4580621294060052
vn -0.7526231223806692 0.47184207672412304 -0.4592640746788706
vn 0.7526231223806692 -0.47184207672412304 0.4592640746788706
vn 0.7075851998981539 -0.5380541520043547 0.4580621294060052
vn 0.7967320421196389 -0.372874019712172 0.4755870251421465
vn 0.13590593000642548 -0.447124769724096 -0.8840865446822853
vn -0.13590593000642548 0.447124769724096 0.8840865446822853
vn 0.30065703324380033 0.9448991044779722 0.12950301431921385
vn -0.30065703324380033 -0.9448991044779722 -0.12950301431921385
vn -0.599457972755535 0.10550699520486545 0.7934219639401627
vn -0.6129868470386527 0.07258598188729556 0.7867518036783065
vn -0.5626428175909468 0.2611939153208158 0.7843537457121648
vn 0.5626428175909468 -0.2611939153208158 -0.7843537457121648
vn 0.6129868470386527 -0.07258598188729556 -0.7867518036783065
vn 0.599457972755535 -0.10550699520486545 -0.7934219639401627
vn 0.8336502691665414 0.24801108007708644 0.49347515933180475
vn -0.8336502691665414 -0.24801108007708644 -0.49347515933180475
vn 0.46217619753761535 -0.6102202608127719 0.64344727501425
vn -0.46217619753761535 0.6102202608127719 -0.64344727501425
vn 0.06191797421349104 -0.974874594001374 0.21397591088707577
vn -0.06191797421349104 0.974874594001374 -0.21397591088707577
vn -0.8495042244687784 0.21767505751737642 -0.4805831269868993
vn 0.8495042244687784 -0.21767505751737642 0.4805831269868993
vn -0.8872712132281564 0.011240002701186533 -0.46111111081377437
vn 0.8872712132281564 -0.011240002701186533 0.46111111081377437
vn -0.006025000118327991 -0.7220640141809763 -0.6918000135866064
vn 0.006025000118327991 0.7220640141809763 0.6918000135866064
vn 0.5353353015852421 0.46232226045278624 0.7068763982242326
vn -0.5353353015852421 -0.46232226045278624 -0.7068763982242326
vn -0.534981711989463 0.2939518417493049 0.7920775735804007
vn 0.534981711989463 -0.2939518417493049 -0.7920775735804007
vn -0.4396010182871829 0.4923000204794351 0.7512600312520423
vn -0.2540740184894752 0.7538760548610702 0.6059020440927052
vn 0.2540740184894752 -0.7538760548610702 -0.6059020440927052
vn 0.4396010182871829 -0.4923000204794351 -0.7512600312520423
vn 0.4779668842531634 0.8746347881940921 0.08100398038367347
vn -0.4779668842531634 -0.8746347881940921 -0.08100398038367347
vn -0.8861204758180244 0.019196010307636433 -0.46305724864675996
vn 0.8861204758180244 -0.019196010307636433 0.46305724864675996
vn 0.33153986776302935 0.9434326237053691 0.004024998394601536
vn 0.33062393326340045 0.943761809501226 -0.0012089997559628194
vn -0.33062393326340045 -0.943761809501226 0.0012089997559628194
vn -0.33153986776302935 -0.9434326237053691 -0.004024998394601536
usemtl material_0_0
f 1//1 2//2 3//3
f 3//4 2//5 1//6
f 1//7 2//8 4//9
f 4//10 2//11 1//12
f 3//13 2//14 5//14
f 5//15 2//15 3//16
f 6//17 1//1 3//3
f 3//4 1//6 6//18
f 2//8 4//9 7//19
f 7//20 4//10 2//11
f 1//7 4//9 8//21
f 8//22 4//10 1//12
f 2//14 7//23 5//14
f 5//15 7//24 2//15
f 3//25 5//26 9//27
f 9//28 5//29 3//30
f 6//31 8//32 1//33
f 1//34 8//35 6//36
f 10//37 6//17 3//3
f 3//4 6//18 10//38
f 7//19 4//9 11//39
f 11//40 4//10 7//20
f 12//41 4//42 8//43
f 8//44 4//45 12//46
f 5//47 7//47 11//47
f 11//48 7//48 5//48
f 9//49 5//49 11//49
f 11//50 5//50 9//50
f 3//25 9//27 13//51
f 13//52 9//28 3//30
f 6//31 12//53 8//32
f 8//35 12//54 6//36
f 10//55 12//53 6//31
f 6//36 12//54 10//56
f 10//37 3//3 14//57
f 14//58 3//4 10//38
f 4//59 9//59 11//59
f 11//60 9//60 4//60
f 12//41 9//61 4//42
f 4//45 9//62 12//46
f 15//63 13//64 9//61
f 9//62 13//65 15//66
f 14//67 3//25 13//51
f 13//52 3//30 14//68
f 10//55 15//69 12//53
f 12//54 15//70 10//56
f 10//71 15//72 14//67
f 14//68 15//73 10//74
f 15//63 9//61 12//41
f 12//46 9//62 15//66
f 14//67 15//72 13//51
f 13//52 15//73 14//68
