# SSTK version 0.8.0
# 25
mtllib original-25.mtl
o mesh25/mesh25-geometry#mesh25-geometry
v -0.438965 -0.752640 -0.074617
v -0.472052 -0.751409 -0.099734
v -0.440873 -0.749384 -0.103037
v -0.472436 -0.754285 -0.071152
v -0.470788 -0.748116 -0.110533
v -0.439106 -0.783345 -0.047825
v -0.471677 -0.786177 -0.047614
vn 0.04529201669289669 -0.993082366011994 -0.10833303992739506
vn 0.040898007922353874 -0.9847801907617891 -0.16892403272227752
vn 0.0419989880269092 -0.9781837211389354 -0.20345194199982689
vn -0.0419989880269092 0.9781837211389354 0.20345194199982689
vn -0.040898007922353874 0.9847801907617891 0.16892403272227752
vn -0.04529201669289669 0.993082366011994 0.10833303992739506
vn 0.038553000279008064 -0.9942890071956696 -0.09951400072018284
vn -0.038553000279008064 0.9942890071956696 0.09951400072018284
vn 0.0316469863289321 -0.9570495865675881 -0.2881918755050273
vn -0.0316469863289321 0.9570495865675881 0.2881918755050273
vn -0.045653002960642994 -0.6566550425847376 -0.7528080488203565
vn 0.00031899994439225357 -0.6257658909171252 -0.7800108640292981
vn -0.00031899994439225357 0.6257658909171252 0.7800108640292981
vn 0.045653002960642994 0.6566550425847376 0.7528080488203565
vn 0.04628899483662493 -0.5924939339093791 -0.8042439102894118
vn -0.04628899483662493 0.5924939339093791 0.8042439102894118
usemtl material_0_0
f 1//1 2//2 3//3
f 3//4 2//5 1//6
f 4//7 2//2 1//1
f 1//6 2//5 4//8
f 2//2 5//9 3//3
f 3//4 5//10 2//5
f 1//11 6//12 4//12
f 4//13 6//13 1//14
f 6//12 7//15 4//12
f 4//13 7//16 6//13
