# SSTK version 0.8.0
# 21
mtllib original-21.mtl
o mesh21/mesh21-geometry#mesh21-geometry
v 0.046231 -0.784830 -0.469934
v 0.028479 -0.757481 -0.449378
v 0.028594 -0.787838 -0.470581
v 0.046891 -0.755846 -0.444888
v 0.028593 -0.817189 -0.463457
v 0.046137 -0.814557 -0.465154
v 0.028603 -0.763592 -0.404562
v 0.055529 -0.797505 -0.431404
v 0.028593 -0.832903 -0.437664
v 0.028594 -0.799988 -0.392599
v 0.046100 -0.758199 -0.416532
v 0.028593 -0.825776 -0.408311
v 0.046081 -0.832256 -0.440677
v 0.046091 -0.780283 -0.393402
v 0.046150 -0.823996 -0.404413
vn -0.029446990338532396 -0.6127077989724422 0.7897607408819127
vn 0.06738000771080008 -0.571142065360074 0.8180810936191605
vn -0.06738000771080008 0.571142065360074 -0.8180810936191605
vn 0.029446990338532396 0.6127077989724422 -0.7897607408819127
vn -0.125923039558855 -0.6469802032495098 0.7520372362532868
vn 0.125923039558855 0.6469802032495098 -0.7520372362532868
vn 0.9999997215976164 0.0007419997934254314 0.0000789999780062117
vn 0.9999958838674847 0.0013209998465883335 0.0025469997042093
vn 0.9999912822880789 0.0009630002718458667 0.004063001146946787
vn -0.9999912822880789 -0.0009630002718458667 -0.004063001146946787
vn -0.9999958838674847 -0.0013209998465883335 -0.0025469997042093
vn -0.9999997215976164 -0.0007419997934254314 -0.0000789999780062117
vn -0.06321202460737137 0.1586370617547233 0.9853113835650459
vn -0.00237600027704046 0.19755902303528464 0.9802881143011105
vn -0.024740004562688135 0.42783507890370565 0.9035181666318051
vn 0.024740004562688135 -0.42783507890370565 -0.9035181666318051
vn 0.00237600027704046 -0.19755902303528464 -0.9802881143011105
vn 0.06321202460737137 -0.1586370617547233 -0.9853113835650459
vn 0.18436890338463577 -0.9773274878482787 -0.10411094544244322
vn 0.1201400194058585 -0.9836111588797727 -0.1344450217165028
vn -0.18436890338463577 0.9773274878482787 0.10411094544244322
vn -0.1201400194058585 0.9836111588797727 0.1344450217165028
vn -0.9810089101302683 -0.1800669835041544 0.07209299339559722
vn -0.9744897337377701 -0.04906598659357965 0.21900294016128732
vn -0.999902367077725 0.01148800421740221 0.0079550029203895
vn 0.999902367077725 -0.01148800421740221 -0.0079550029203895
vn 0.9744897337377701 0.04906598659357965 -0.21900294016128732
vn 0.9810089101302683 0.1800669835041544 -0.07209299339559722
vn 0.9999987107654147 0.001569999545901247 0.0003369999025278473
vn -0.9999987107654147 -0.001569999545901247 -0.0003369999025278473
vn 0.01835599979135653 0.6747139923308635 0.7378509916132168
vn -0.01835599979135653 -0.6747139923308635 -0.7378509916132168
vn -0.9701766868299266 0.13207195736757527 0.20325893438863638
vn 0.9701766868299266 -0.13207195736757527 -0.20325893438863638
vn 0.9999949124279494 -0.001227999892460984 -0.002943999742186594
vn 0.9999976241704635 -0.0001959999263372635 -0.0021709991840724446
vn -0.9999976241704635 0.0001959999263372635 0.0021709991840724446
vn -0.9999949124279494 0.001227999892460984 0.002943999742186594
vn 0.24766005298873148 -0.9660742066988443 -0.07324701567175004
vn -0.24766005298873148 0.9660742066988443 0.07324701567175004
vn -0.9753297431576747 -0.1943569488182422 -0.1046769724344744
vn 0.9753297431576747 0.1943569488182422 0.1046769724344744
vn 0.9999989553345475 0.001148999948679344 -0.000876999960828359
vn -0.9999989553345475 -0.001148999948679344 0.000876999960828359
vn 0.0579409951166752 0.8525549281458211 0.5194159562231057
vn -0.0034450011087617275 0.8328412680470904 0.5535011781424456
vn 0.0034450011087617275 -0.8328412680470904 -0.5535011781424456
vn -0.0579409951166752 -0.8525549281458211 -0.5194159562231057
vn -0.9670297569477385 0.2500829371444126 0.04808298791487142
vn 0.9670297569477385 -0.2500829371444126 -0.04808298791487142
vn 0.027988991601050665 -0.5351618394083918 -0.844285746646349
vn 0.2944460396265507 -0.29848204016971575 -0.9078601221798236
vn -0.027988991601050665 0.5351618394083918 0.844285746646349
vn -0.2944460396265507 0.29848204016971575 0.9078601221798236
vn -0.2421359891240991 -0.7017039684819144 -0.6700609699032072
vn 0.2421359891240991 0.7017039684819144 0.6700609699032072
vn -0.9745012081700468 -0.05280201127940845 -0.21808104658582392
vn 0.9745012081700468 0.05280201127940845 0.21808104658582392
vn -0.06012897800515457 0.9716716445679214 -0.22855791639478654
vn -0.046117002623942235 0.970730055232115 -0.2357040134109695
vn 0.046117002623942235 -0.970730055232115 0.2357040134109695
vn 0.06012897800515457 -0.9716716445679214 0.22855791639478654
vn -0.07412599976705904 0.972371996944321 -0.2213549993043919
vn 0.07412599976705904 -0.972371996944321 0.2213549993043919
vn -0.9705749049947949 0.17363498300365374 -0.16683898366888347
vn 0.9705749049947949 -0.17363498300365374 0.16683898366888347
vn -0.08733300167273265 0.38769800742577387 -0.9176400175760183
vn -0.3040380555286034 0.23230904242823047 -0.9239011687385532
vn 0.3040380555286034 -0.23230904242823047 0.9239011687385532
vn 0.08733300167273265 -0.38769800742577387 0.9176400175760183
vn 0.1355859816244399 0.515502930135439 -0.8460928853315771
vn -0.1355859816244399 -0.515502930135439 0.8460928853315771
usemtl material_0_0
f 1//1 2//1 3//2
f 3//3 2//4 1//4
f 4//5 2//1 1//1
f 1//4 2//4 4//6
f 2//7 5//8 3//9
f 3//10 5//11 2//12
f 1//13 3//14 6//15
f 6//16 3//17 1//18
f 7//19 2//20 4//19
f 4//21 2//22 7//21
f 4//23 1//24 8//25
f 8//26 1//27 4//28
f 2//7 9//29 5//8
f 5//11 9//30 2//12
f 6//15 3//14 5//31
f 5//32 3//17 6//16
f 1//24 6//33 8//25
f 8//26 6//34 1//27
f 2//7 7//35 10//36
f 10//37 7//38 2//12
f 7//19 4//19 11//39
f 11//40 4//21 7//21
f 4//23 8//25 11//41
f 11//42 8//26 4//28
f 2//7 12//43 9//29
f 9//30 12//44 2//12
f 9//45 13//46 5//31
f 5//32 13//47 9//48
f 13//46 6//15 5//31
f 5//32 6//16 13//47
f 8//25 6//33 13//49
f 13//50 6//34 8//26
f 14//51 10//52 7//51
f 7//53 10//54 14//53
f 2//7 10//36 12//43
f 12//44 10//37 2//12
f 14//51 7//51 11//55
f 11//56 7//53 14//53
f 11//41 8//25 14//57
f 14//58 8//26 11//42
f 15//59 9//59 12//60
f 12//61 9//62 15//62
f 15//59 13//63 9//59
f 9//62 13//64 15//62
f 8//25 13//49 15//65
f 15//66 13//50 8//26
f 15//67 10//67 14//68
f 14//69 10//70 15//70
f 15//67 12//71 10//67
f 10//70 12//72 15//70
f 14//57 8//25 15//65
f 15//66 8//26 14//58
