mtllib new-2.mtl
v -0.369624 0.093321 -0.281176
v -0.394409 0.095098 -0.281111
v -0.365457 0.151252 -0.276571
v -0.398280 0.040512 -0.264459
v -0.390242 0.153029 -0.276506
v -0.369006 0.101602 -0.271558
v -0.373496 0.038734 -0.264524
v -0.399454 0.025183 -0.293194
v -0.413392 0.041595 -0.264420
v -0.356796 0.271441 -0.260009
v -0.379966 0.296317 -0.276534
v -0.409521 0.096182 -0.281071
v -0.364811 0.159861 -0.265228
v -0.401434 -0.004687 -0.231231
v -0.402588 -0.019631 -0.262783
v -0.383025 0.254060 -0.287487
v -0.416546 -0.003603 -0.231191
v -0.381578 0.273219 -0.259944
v -0.376674 0.342064 -0.271853
v -0.405354 0.154113 -0.276467
v -0.432839 0.106179 -0.271390
v -0.372937 0.046222 -0.256583
v -0.376650 -0.006464 -0.231296
v -0.417706 -0.018547 -0.262743
v -0.391776 0.132895 -0.311017
v -0.440484 -0.001886 -0.231129
v -0.437329 0.043312 -0.264357
v -0.414572 0.026267 -0.293154
v -0.354273 0.306450 -0.255396
v -0.398143 0.255144 -0.287447
v -0.395085 0.297401 -0.276494
v -0.433457 0.097898 -0.281009
v -0.428644 0.164439 -0.265061
v -0.436770 0.050800 -0.256416
v -0.378649 -0.036145 -0.182211
v -0.404871 -0.053086 -0.218713
v -0.403434 -0.034368 -0.182146
v -0.406894 0.133980 -0.310977
v -0.395769 0.077229 -0.311022
v -0.418546 -0.033284 -0.182107
v -0.419990 -0.052002 -0.218673
v -0.379055 0.308227 -0.255331
v -0.376005 0.350834 -0.257627
v -0.396690 0.274302 -0.259905
v -0.350740 0.355480 -0.249131
v -0.391792 0.343148 -0.271813
v -0.429291 0.155830 -0.276404
v -0.356125 0.280361 -0.248639
v -0.439953 0.005203 -0.223267
v -0.376120 0.000625 -0.223434
v -0.410887 0.078313 -0.310982
v -0.442483 -0.031568 -0.182044
v -0.351223 0.349057 -0.257692
v -0.366826 0.480377 -0.300050
v -0.367076 0.477161 -0.307339
v -0.420629 0.276019 -0.259842
v -0.419959 0.284938 -0.248471
v -0.378053 -0.028145 -0.173503
v -0.379279 -0.046990 -0.125851
v -0.406155 -0.072864 -0.167005
v -0.421273 -0.071780 -0.166965
v -0.394167 0.309311 -0.255291
v -0.391117 0.351918 -0.257588
v -0.342044 0.478600 -0.300115
v -0.341563 0.485064 -0.293151
v -0.353741 0.313501 -0.245613
v -0.382194 0.478245 -0.307299
v -0.418106 0.311027 -0.255229
v -0.414573 0.360058 -0.248964
v -0.441887 -0.023567 -0.173335
v -0.381938 0.481461 -0.300010
v -0.338238 0.532355 -0.319233
v -0.363021 0.534132 -0.319168
v -0.417574 0.318079 -0.245446
v -0.357184 0.616581 -0.348181
v -0.415056 0.353635 -0.257525
v -0.337929 0.536363 -0.310674
v -0.405396 0.489642 -0.292984
v -0.372295 0.617665 -0.348141
v -0.378132 0.535216 -0.319128
v -0.405878 0.483178 -0.299947
v -0.337699 0.539967 -0.321911
v -0.345189 0.544364 -0.323242
v -0.337842 0.537574 -0.310905
v -0.331931 0.621613 -0.354443
v -0.345196 0.550722 -0.325467
v -0.401676 0.542152 -0.310737
v -0.335655 0.568542 -0.323581
v -0.396236 0.619382 -0.348078
v -0.332402 0.614804 -0.348246
v -0.402072 0.536933 -0.319065
v -0.336430 0.557900 -0.328222
v -0.331766 0.623504 -0.343264
v -0.293826 0.538801 -0.339098
v -0.395764 0.626191 -0.354276
v -0.330998 0.634596 -0.353917
v -0.337936 0.536269 -0.310703
v -0.395599 0.628082 -0.343097
v -0.335622 0.569024 -0.324171
v -0.395182 0.635353 -0.382675
v -0.394831 0.639174 -0.353749
v -0.330680 0.640415 -0.391757
v -0.394513 0.644993 -0.391590
v -0.331348 0.630775 -0.382842
vn 0.003054 0.079019 -0.996868
vn -0.023317 -0.290186 -0.956686
vn 0.997435 -0.071530 -0.002614
vn 0.997434 -0.071537 -0.002625
vn 0.007157 0.135999 -0.990683
vn -0.044405 -0.589725 -0.806382
vn -0.005114 -0.107637 0.994177
vn -0.042272 -0.558992 -0.828095
vn -0.997434 0.071542 0.002629
vn 0.006736 0.130165 -0.991469
vn 0.015371 0.249847 -0.968163
vn 0.004658 0.101459 -0.994829
vn 0.021144 0.259564 0.965494
vn -0.062524 -0.852911 -0.518299
vn -0.058518 -0.793668 -0.605530
vn 0.011032 0.189855 -0.981750
vn -0.997434 0.071549 0.002612
vn -0.007148 -0.135881 0.990699
vn 0.044105 0.585440 0.809515
vn -0.025610 -0.322336 -0.946279
vn -0.002612 0.000284 -0.999997
vn -0.006443 -0.053352 -0.998555
vn -0.020666 -0.252627 -0.967343
vn -0.070731 -0.979380 -0.189239
vn -0.067737 -0.931301 -0.357896
vn -0.024689 -0.309540 -0.950566
vn -0.003889 -0.090623 0.995878
vn 0.063247 0.863663 0.500086
vn -0.026373 -0.333316 -0.942446
vn 0.025425 0.319930 0.947100
vn 0.008557 0.082901 0.996521
vn -0.022579 -0.279580 -0.959857
vn -0.026151 -0.330175 -0.943557
vn 0.025329 0.318572 0.947560
vn -0.050015 -0.670369 -0.740341
vn 0.027594 0.350577 0.936127
vn -0.529937 0.288343 -0.797512
vn -0.068864 -0.949028 -0.307577
vn 0.051368 0.689910 0.722071
vn 0.071094 0.985792 0.152184
vn -0.050419 -0.676206 -0.734985
vn -0.003054 -0.079019 0.996868
vn 0.023317 0.290186 0.956686
vn -0.997435 0.071530 0.002614
vn -0.997434 0.071537 0.002625
vn -0.007157 -0.135999 0.990683
vn 0.044405 0.589725 0.806382
vn 0.005114 0.107637 -0.994177
vn 0.042272 0.558992 0.828095
vn 0.997434 -0.071542 -0.002629
vn -0.006736 -0.130165 0.991469
vn -0.015371 -0.249847 0.968163
vn -0.004658 -0.101459 0.994829
vn -0.021144 -0.259564 -0.965494
vn 0.062524 0.852911 0.518299
vn 0.058518 0.793668 0.605530
vn -0.011032 -0.189855 0.981750
vn 0.007148 0.135881 -0.990699
vn -0.044105 -0.585440 -0.809515
vn 0.025610 0.322336 0.946279
vn 0.002612 -0.000284 0.999997
vn 0.006443 0.053352 0.998555
vn 0.020666 0.252627 0.967343
vn 0.070731 0.979380 0.189239
vn 0.067737 0.931301 0.357896
vn 0.024689 0.309540 0.950566
vn 0.003889 0.090623 -0.995878
vn -0.063247 -0.863663 -0.500086
vn 0.026373 0.333316 0.942446
vn -0.025425 -0.319930 -0.947100
vn -0.008557 -0.082901 -0.996521
vn 0.022579 0.279580 0.959857
vn 0.026151 0.330175 0.943557
vn -0.025329 -0.318572 -0.947560
vn 0.050015 0.670369 0.740341
vn -0.027594 -0.350577 -0.936127
vn 0.529937 -0.288343 0.797512
vn 0.068864 0.949028 0.307577
vn -0.051368 -0.689910 -0.722071
vn -0.071094 -0.985792 -0.152184
vn 0.050419 0.676206 0.734985
vn 0.997434 -0.071549 -0.002612
vt -1.431298 0.127586
vt -1.527862 0.128455
vt -1.415009 0.155889
vt -1.434789 0.279087
vt -1.338246 0.278183
vt -1.451448 0.251307
vt -1.511572 0.156757
vt -3.362949 0.176653
vt -3.343452 0.152410
vt -3.380932 0.148367
vt -1.354908 0.250403
vt -3.380949 0.148365
vt -3.316111 0.121713
vt -3.428076 0.114228
vt -1.510313 0.251859
vt -1.428954 0.130924
vt -1.525513 0.131798
vt -1.394742 0.190008
vt -3.362967 0.246614
vt -3.362965 0.176652
vt -1.586739 0.128984
vt -3.318749 0.180856
vt -3.316095 0.121714
vt -1.348178 0.359577
vt -1.251747 0.358505
vt -1.367567 0.332320
vt -3.309624 0.092347
vt -3.405674 0.225982
vt -1.406975 0.360230
vt -1.426364 0.332974
vt -1.493654 0.279639
vt -1.491292 0.190881
vt -3.298333 0.235337
vt -3.344695 0.268951
vt -1.570449 0.157286
vt 1.435708 0.119642
vt 1.419236 0.148181
vt 1.684406 0.121884
vt -3.285150 0.125370
vt -1.271136 0.331248
vt -3.186682 0.099644
vt -1.378853 0.324412
vt -1.437688 0.325049
vt -1.360617 0.350734
vt -3.497438 0.166821
vt -1.519500 0.334009
vt 3.316119 0.121712
vt 3.309631 0.092346
vt 3.186689 0.099643
vt -1.603554 0.252733
vt 3.380956 0.148364
vt 3.428083 0.114227
vt -1.393330 0.192588
vt -1.489881 0.193461
vt -1.383379 0.209784
vt -3.298349 0.235336
vt -1.584389 0.132331
vt -3.280333 0.252431
vt -1.526983 0.126589
vt -1.585877 0.127134
vt -1.514391 0.147843
vt -1.476963 0.216411
vt -1.535865 0.216942
vt -1.464050 0.238806
vt -1.679999 0.129823
vt 3.362972 0.176651
vt 3.362973 0.246613
vt 1.667934 0.150423
vt 1.593744 0.271418
vt 1.610333 0.243491
vt 1.345085 0.269110
vt 1.361674 0.241182
vt -3.186665 0.099645
vt -1.056713 0.414282
vt -1.087349 0.386593
vt -1.152610 0.415941
vt -3.137946 0.076012
vt -1.183249 0.388251
vt -1.211083 0.416952
vt -1.224240 0.405931
vt -1.249612 0.379149
vt -1.282885 0.406799
vt -1.419452 0.351371
vt -1.546422 0.094894
vt -1.605320 0.095432
vt -1.511299 0.154996
vt -3.497500 0.139640
vt -1.241721 0.389262
vt -1.303705 0.418553
vt -1.500111 0.361265
vt 3.137952 0.076011
vt -1.586892 0.280512
vt 3.405681 0.225981
vt -1.479929 0.210657
vt -3.289264 0.273233
vt -1.550168 0.191414
vt -3.255890 0.276371
vt -1.570198 0.155534
vt -1.573285 0.148388
vt -1.522952 0.239337
vt -1.663710 0.158125
vt 3.344702 0.268950
vt 3.343449 0.152406
vt 3.318746 0.180852
vt 3.362946 0.176648
vt 1.426086 0.135881
vt 1.391782 0.195116
vt 1.674779 0.138131
vt 3.316092 0.121709
vt 3.285147 0.125366
vt 1.501593 0.360494
vt 1.521003 0.333103
vt 1.253222 0.357744
vt -3.156030 0.103106
vt -2.995446 0.085152
vt -2.995463 0.085151
vt -1.308258 0.380017
vt -1.443981 0.260964
vt -1.502867 0.261522
vt -1.427750 0.287741
vt -1.557035 0.181083
vt -1.498131 0.180555
vt -1.572593 0.153973
vt -1.513689 0.153445
vt 2.995471 0.085150
vt -1.334341 0.390864
vt 3.186662 0.099641
vt 3.380929 0.148362
vt 3.497445 0.166820
vt -1.339977 0.286737
vt -1.436531 0.287604
vt -1.328036 0.307517
vt -3.280349 0.252430
vt -1.548757 0.193993
vt -3.454454 0.336485
vt -1.677647 0.133175
vt 3.298356 0.235335
vt -3.289249 0.273234
vt -3.254024 0.239692
vt -1.376737 0.379836
vt -1.435631 0.380382
vt -1.336398 0.447836
vt 3.298330 0.235333
vt 1.640475 0.197366
vt 3.156027 0.103102
vt 1.272631 0.330353
vt -2.961510 0.089059
vt -0.316560 0.425345
vt -0.395738 0.399203
vt -0.407101 0.429630
vt -2.936497 0.066355
vt -0.948323 0.425011
vt -0.990700 0.398567
vt -1.006228 0.426461
vt -1.486636 0.288299
vt 3.497507 0.139640
vt 2.995443 0.085148
vt -1.424591 0.308384
vt -1.495408 0.288132
vt -1.538805 0.211189
vt -1.360026 0.401266
vt -1.418888 0.401821
vt -1.319982 0.467614
vt -1.223456 0.466704
vt -3.482856 0.334915
vt -1.643435 0.192258
vt 3.289271 0.273232
vt -3.427302 0.339642
vt -3.242214 0.255874
vt -1.395291 0.448382
vt 3.280331 0.252426
vt 3.254022 0.239688
vt 3.255887 0.276366
vt 1.381048 0.214699
vt 1.371711 0.230905
vt 1.629748 0.216937
vt 1.039314 0.415816
vt 1.286135 0.420238
vt 1.071197 0.388019
vt -1.048605 0.400017
vt 2.961507 0.089054
vt -1.263497 0.400355
vt -1.483468 0.308912
vt -1.642024 0.194836
vt 3.280356 0.252429
vt -1.378844 0.468169
vt -1.216455 0.474343
vt -1.312976 0.475261
vt -1.199548 0.502110
vt -3.528901 0.362732
vt 3.454460 0.336484
vt 1.259615 0.405354
vt 1.219271 0.471964
vt 1.508248 0.407707
vt -3.454438 0.336486
vt 1.331216 0.301394
vt 1.319406 0.321909
vt 1.579917 0.303631
vt -1.328820 0.457166
vt -1.387710 0.457716
vt -1.286547 0.527886
vt 3.482862 0.334914
vt -1.632073 0.212032
vt 3.242211 0.255869
vt 1.620411 0.233144
vt 1.318017 0.392441
vt -1.588680 0.288969
vt -1.371835 0.475820
vt -1.296073 0.503028
vt -1.512134 0.402700
vt -3.528885 0.362733
vt -3.495536 0.364690
vt -3.641879 0.402989
vt 1.467903 0.474317
vt 1.568106 0.324146
vt -1.345412 0.528436
vt 3.528907 0.362731
vt 3.289246 0.273230
vt -1.576739 0.309750
vt -1.354932 0.503588
vt -1.472093 0.469048
vt -1.200503 0.501113
vt -1.297029 0.502030
vt -1.198116 0.505041
vt -3.539316 0.366449
vt -1.271164 0.544570
vt -1.227140 0.507310
vt -1.355889 0.502590
vt 3.427300 0.339638
vt 1.219667 0.471533
vt 1.203329 0.498512
vt 1.468300 0.473885
vt -3.496434 0.365281
vt -1.182891 0.621507
vt -1.024328 0.624099
vt -1.124136 0.620796
vt -1.330024 0.545129
vt 3.641885 0.402988
vt -1.465080 0.476707
vt 3.454436 0.336482
vt -1.226927 0.510590
vt 1.451962 0.500864
vt -3.545801 0.380402
vt -1.275971 0.622634
vt -1.027788 0.619630
vt -1.449130 0.503475
vt -1.448173 0.504475
vt 3.496431 0.365277
vt -1.192491 0.514294
vt 1.193648 0.508471
vt 1.166269 0.553156
vt 1.442263 0.510851
vt -3.622450 0.407238
vt -1.272510 0.627103
vt -1.423271 0.546015
vt -1.174644 0.543653
vt -3.666004 0.406315
vt -3.663945 0.412654
vt -3.641864 0.402990
vt 3.528883 0.362729
vt 1.414884 0.555537
vt -3.548101 0.380637
vt 0.852061 0.230441
vt 1.056468 0.231681
vt 0.852102 0.230393
vt -0.685919 0.596065
vt -0.659528 0.610222
vt -0.443080 0.588992
vt 3.666002 0.406311
vt 3.641861 0.402986
vt 3.663942 0.412650
vt 3.622447 0.407234
vt -3.563890 0.375206
vt -3.811372 0.415495
vt 1.013430 0.622872
vt 1.007501 0.630334
vt 1.261554 0.625952
vt 3.776642 0.410784
vt 3.811369 0.415491
vt -0.416690 0.603148
vt -0.461821 0.563204
vt -0.236216 0.576477
vt -0.398298 0.546333
vt -3.776645 0.410788
vt 1.255624 0.633414
vt -1.253797 0.646695
vt -1.005631 0.643669
vt -1.258773 0.640323
vt -1.010607 0.637297
vt -0.172693 0.559606
usemtl material-0
f 1/1/1 2/2/1 3/3/1
f 2/4/2 1/5/2 4/6/2
f 5/7/1 3/3/1 2/2/1
f 3/8/3 6/9/3 1/10/3
f 7/11/2 4/6/2 1/5/2
f 2/12/4 4/13/4 8/14/4
f 4/6/2 9/15/2 2/4/2
f 3/16/5 5/17/5 10/18/5
f 2/12/4 11/19/4 5/20/4
f 2/2/1 12/21/1 5/7/1
f 6/9/3 3/8/3 13/22/3
f 1/10/3 6/9/3 7/23/3
f 4/24/6 7/25/6 14/26/6
f 8/14/4 4/13/4 15/27/4
f 16/28/4 2/12/4 8/14/4
f 9/29/6 4/24/6 17/30/6
f 12/31/2 2/4/2 9/15/2
f 18/32/5 10/18/5 5/17/5
f 3/8/3 10/33/3 13/22/3
f 16/28/4 11/19/4 2/12/4
f 11/19/4 19/34/4 5/20/4
f 20/35/1 5/7/1 12/21/1
f 6/36/7 13/37/7 21/38/7
f 6/9/3 22/39/3 7/23/3
f 23/40/6 14/26/6 7/25/6
f 4/13/4 14/41/4 15/27/4
f 14/26/6 17/30/6 4/24/6
f 15/42/8 24/43/8 8/44/8
f 25/45/4 16/28/4 8/14/4
f 17/30/6 26/46/6 9/29/6
f 9/47/9 24/48/9 17/49/9
f 9/15/2 27/50/2 12/31/2
f 12/51/9 28/52/9 9/47/9
f 10/53/10 18/54/10 29/55/10
f 18/56/4 5/20/4 19/34/4
f 5/17/5 20/57/5 18/32/5
f 10/33/3 29/58/3 13/22/3
f 16/59/11 30/60/11 11/61/11
f 11/62/12 31/63/12 19/64/12
f 12/21/1 32/65/1 20/35/1
f 12/51/9 20/66/9 31/67/9
f 33/68/7 21/38/7 13/37/7
f 21/69/13 34/70/13 6/71/13
f 22/72/13 6/71/13 34/70/13
f 7/23/3 22/39/3 23/73/3
f 23/74/14 35/75/14 14/76/14
f 15/27/4 14/41/4 36/77/4
f 14/76/14 37/78/14 17/79/14
f 15/80/15 36/81/15 24/82/15
f 28/83/8 8/44/8 24/43/8
f 25/84/16 38/85/16 16/86/16
f 39/87/4 25/45/4 8/14/4
f 17/79/14 40/88/14 26/89/14
f 27/90/6 9/29/6 26/46/6
f 28/52/9 24/48/9 9/47/9
f 24/48/9 41/91/9 17/49/9
f 32/92/2 12/31/2 27/50/2
f 30/93/9 28/52/9 12/51/9
f 42/94/10 29/55/10 18/54/10
f 19/34/4 43/95/4 18/56/4
f 44/96/5 18/32/5 20/57/5
f 29/58/3 45/97/3 13/22/3
f 30/98/16 16/86/16 38/85/16
f 31/99/11 11/61/11 30/60/11
f 46/100/12 19/64/12 31/63/12
f 47/101/1 20/35/1 32/65/1
f 31/67/9 20/66/9 46/102/9
f 30/93/9 12/51/9 31/67/9
f 21/103/17 33/104/17 47/105/17
f 13/106/18 48/107/18 33/108/18
f 21/103/17 27/109/17 34/110/17
f 34/111/19 49/112/19 22/113/19
f 22/39/3 50/114/3 23/73/3
f 23/73/3 50/114/3 35/115/3
f 37/78/14 14/76/14 35/75/14
f 14/41/4 37/116/4 36/77/4
f 40/88/14 17/79/14 37/78/14
f 41/117/15 24/82/15 36/81/15
f 8/118/20 28/119/20 39/120/20
f 38/121/21 25/122/21 51/123/21
f 39/124/21 51/123/21 25/122/21
f 17/49/9 41/91/9 40/125/9
f 52/126/14 26/89/14 40/88/14
f 27/109/17 26/127/17 34/110/17
f 32/128/17 27/109/17 21/103/17
f 38/129/9 28/52/9 30/93/9
f 29/130/22 42/131/22 53/132/22
f 42/133/4 18/56/4 43/95/4
f 18/54/10 44/134/10 42/94/10
f 54/135/4 43/95/4 19/34/4
f 20/57/5 47/136/5 44/96/5
f 44/137/9 46/102/9 20/66/9
f 29/58/3 53/138/3 45/97/3
f 13/22/3 45/97/3 48/139/3
f 19/140/23 46/141/23 55/142/23
f 47/105/17 32/128/17 21/103/17
f 47/105/17 33/104/17 56/143/17
f 57/144/18 33/108/18 48/107/18
f 34/110/17 26/127/17 49/145/17
f 50/146/19 22/113/19 49/112/19
f 50/114/3 58/147/3 35/115/3
f 35/148/24 59/149/24 37/150/24
f 36/77/4 37/116/4 60/151/4
f 36/152/25 60/153/25 41/154/25
f 51/155/20 39/120/20 28/119/20
f 51/156/9 28/52/9 38/129/9
f 26/127/17 52/157/17 49/145/17
f 43/158/22 53/132/22 42/131/22
f 42/131/22 62/159/22 43/158/22
f 62/160/10 42/94/10 44/134/10
f 43/161/26 63/162/26 54/163/26
f 54/163/26 64/164/26 43/161/26
f 55/165/4 54/135/4 19/34/4
f 56/166/5 44/96/5 47/136/5
f 46/102/9 44/137/9 63/167/9
f 65/168/3 45/97/3 53/138/3
f 66/169/3 48/139/3 45/97/3
f 67/170/23 55/142/23 46/141/23
f 56/143/17 33/104/17 68/171/17
f 33/104/17 57/172/17 69/173/17
f 48/174/27 66/175/27 57/176/27
f 50/177/28 49/178/28 58/179/28
f 61/180/25 41/154/25 60/153/25
f 49/145/17 52/157/17 70/181/17
f 53/182/26 43/161/26 64/164/26
f 63/183/22 43/158/22 62/159/22
f 44/134/10 56/184/10 62/160/10
f 62/185/9 63/167/9 44/137/9
f 71/186/26 54/163/26 63/162/26
f 64/187/29 54/188/29 72/189/29
f 73/190/4 54/135/4 55/165/4
f 71/191/9 46/102/9 63/167/9
f 45/192/30 65/193/30 69/194/30
f 64/195/3 65/168/3 53/138/3
f 66/196/31 45/197/31 74/198/31
f 55/199/32 67/200/32 75/201/32
f 67/202/9 46/102/9 71/191/9
f 68/171/17 33/104/17 69/173/17
f 68/203/10 62/160/10 56/184/10
f 74/204/17 69/173/17 57/172/17
f 74/205/27 57/176/27 66/175/27
f 70/206/28 58/179/28 49/178/28
f 62/159/22 68/207/22 63/183/22
f 54/188/29 71/208/29 73/209/29
f 63/162/26 76/210/26 71/186/26
f 73/209/29 72/189/29 54/188/29
f 64/195/3 72/211/3 77/212/3
f 75/213/4 73/190/4 55/165/4
f 78/214/30 69/194/30 65/193/30
f 69/215/31 74/198/31 45/197/31
f 77/212/3 65/168/3 64/195/3
f 79/216/32 75/201/32 67/200/32
f 80/217/9 67/202/9 71/191/9
f 68/171/17 69/173/17 76/218/17
f 76/219/22 63/183/22 68/207/22
f 80/220/29 73/209/29 71/208/29
f 81/221/26 71/186/26 76/210/26
f 72/222/33 73/223/33 82/224/33
f 82/225/3 77/212/3 72/211/3
f 75/226/33 83/227/33 73/223/33
f 73/223/33 80/228/33 75/226/33
f 78/229/17 76/218/17 69/173/17
f 65/230/34 84/231/34 78/232/34
f 84/233/3 65/168/3 77/212/3
f 79/234/35 85/235/35 75/236/35
f 79/237/33 75/226/33 80/228/33
f 79/238/9 67/202/9 80/217/9
f 71/208/29 81/239/29 80/220/29
f 81/240/17 76/218/17 78/229/17
f 83/227/33 82/224/33 73/223/33
f 86/241/33 83/227/33 75/226/33
f 87/242/34 78/232/34 84/231/34
f 88/243/3 84/233/3 77/212/3
f 89/244/35 85/235/35 79/234/35
f 90/245/35 75/236/35 85/235/35
f 80/228/33 91/246/33 79/237/33
f 91/247/29 80/220/29 81/239/29
f 87/248/17 81/240/17 78/229/17
f 92/249/33 86/241/33 75/226/33
f 84/250/36 93/251/36 87/252/36
f 93/253/3 84/233/3 88/243/3
f 95/254/35 85/235/35 89/244/35
f 89/255/33 79/237/33 91/246/33
f 90/256/33 92/249/33 75/226/33
f 85/257/3 96/258/3 90/259/3
f 91/260/17 81/240/17 87/248/17
f 98/261/36 87/252/36 93/251/36
f 99/262/3 93/253/3 88/243/3
f 77/263/37 94/264/37 97/265/37
f 95/266/38 100/267/38 85/268/38
f 95/269/17 89/270/17 101/271/17
f 89/270/17 91/260/17 98/272/17
f 90/259/3 93/253/3 92/273/3
f 102/274/3 96/258/3 85/257/3
f 96/258/3 93/253/3 90/259/3
f 98/272/17 91/260/17 87/248/17
f 93/275/39 96/276/39 98/277/39
f 92/273/3 93/253/3 99/262/3
f 100/278/17 95/269/17 103/279/17
f 104/280/38 85/268/38 100/267/38
f 101/271/17 89/270/17 98/272/17
f 103/279/17 95/269/17 101/271/17
f 102/281/40 103/282/40 96/283/40
f 104/284/3 102/274/3 85/257/3
f 101/285/39 98/277/39 96/276/39
f 103/286/41 102/287/41 100/288/41
f 104/289/41 100/288/41 102/287/41
f 101/290/40 96/283/40 103/282/40
usemtl material-1
f 3//42 2//42 1//42
f 4//43 1//43 2//43
f 2//42 3//42 5//42
f 1//44 6//44 3//44
f 1//43 4//43 7//43
f 8//45 4//45 2//45
f 2//43 9//43 4//43
f 10//46 5//46 3//46
f 5//45 11//45 2//45
f 5//42 12//42 2//42
f 13//44 3//44 6//44
f 7//44 6//44 1//44
f 14//47 7//47 4//47
f 15//45 4//45 8//45
f 8//45 2//45 16//45
f 17//47 4//47 9//47
f 9//43 2//43 12//43
f 5//46 10//46 18//46
f 13//44 10//44 3//44
f 2//45 11//45 16//45
f 5//45 19//45 11//45
f 12//42 5//42 20//42
f 21//48 13//48 6//48
f 7//44 22//44 6//44
f 7//47 14//47 23//47
f 15//45 14//45 4//45
f 4//47 17//47 14//47
f 8//49 24//49 15//49
f 8//45 16//45 25//45
f 9//47 26//47 17//47
f 17//50 24//50 9//50
f 12//43 27//43 9//43
f 9//50 28//50 12//50
f 29//51 18//51 10//51
f 19//45 5//45 18//45
f 18//46 20//46 5//46
f 13//44 29//44 10//44
f 11//52 30//52 16//52
f 19//53 31//53 11//53
f 20//42 32//42 12//42
f 31//50 20//50 12//50
f 13//48 21//48 33//48
f 6//54 34//54 21//54
f 34//54 6//54 22//54
f 23//44 22//44 7//44
f 14//55 35//55 23//55
f 36//45 14//45 15//45
f 17//55 37//55 14//55
f 24//56 36//56 15//56
f 24//49 8//49 28//49
f 16//57 38//57 25//57
f 8//45 25//45 39//45
f 26//55 40//55 17//55
f 26//47 9//47 27//47
f 9//50 24//50 28//50
f 17//50 41//50 24//50
f 27//43 12//43 32//43
f 12//50 28//50 30//50
f 18//51 29//51 42//51
f 18//45 43//45 19//45
f 20//46 18//46 44//46
f 13//44 45//44 29//44
f 38//57 16//57 30//57
f 30//52 11//52 31//52
f 31//53 19//53 46//53
f 32//42 20//42 47//42
f 46//50 20//50 31//50
f 31//50 12//50 30//50
f 33//58 48//58 13//58
f 22//59 49//59 34//59
f 23//44 50//44 22//44
f 35//44 50//44 23//44
f 35//55 14//55 37//55
f 36//45 37//45 14//45
f 37//55 17//55 40//55
f 36//56 24//56 41//56
f 39//60 28//60 8//60
f 51//61 25//61 38//61
f 25//61 51//61 39//61
f 40//50 41//50 17//50
f 40//55 26//55 52//55
f 30//50 28//50 38//50
f 53//62 42//62 29//62
f 43//45 18//45 42//45
f 42//51 44//51 18//51
f 19//45 43//45 54//45
f 44//46 47//46 20//46
f 20//50 46//50 44//50
f 45//44 53//44 29//44
f 48//44 45//44 13//44
f 55//63 46//63 19//63
f 48//58 33//58 57//58
f 49//59 22//59 50//59
f 35//44 58//44 50//44
f 37//64 59//64 35//64
f 60//45 37//45 36//45
f 41//65 60//65 36//65
f 28//60 39//60 51//60
f 38//50 28//50 51//50
f 42//62 53//62 43//62
f 43//62 62//62 42//62
f 44//51 42//51 62//51
f 54//66 63//66 43//66
f 43//66 64//66 54//66
f 19//45 54//45 55//45
f 47//46 44//46 56//46
f 63//50 44//50 46//50
f 53//44 45//44 65//44
f 45//44 48//44 66//44
f 46//63 55//63 67//63
f 57//67 66//67 48//67
f 58//68 49//68 50//68
f 60//65 41//65 61//65
f 64//66 43//66 53//66
f 62//62 43//62 63//62
f 62//51 56//51 44//51
f 44//50 63//50 62//50
f 63//66 54//66 71//66
f 72//69 54//69 64//69
f 55//45 54//45 73//45
f 63//50 46//50 71//50
f 69//70 65//70 45//70
f 53//44 65//44 64//44
f 74//71 45//71 66//71
f 75//72 67//72 55//72
f 71//50 46//50 67//50
f 56//51 62//51 68//51
f 66//67 57//67 74//67
f 49//68 58//68 70//68
f 63//62 68//62 62//62
f 73//69 71//69 54//69
f 71//66 76//66 63//66
f 54//69 72//69 73//69
f 77//44 72//44 64//44
f 55//45 73//45 75//45
f 65//70 69//70 78//70
f 45//71 74//71 69//71
f 64//44 65//44 77//44
f 67//72 75//72 79//72
f 71//50 67//50 80//50
f 68//62 63//62 76//62
f 71//69 73//69 80//69
f 76//66 71//66 81//66
f 82//73 73//73 72//73
f 72//44 77//44 82//44
f 73//73 83//73 75//73
f 75//73 80//73 73//73
f 78//74 84//74 65//74
f 77//44 65//44 84//44
f 75//75 85//75 79//75
f 80//73 75//73 79//73
f 80//50 67//50 79//50
f 80//69 81//69 71//69
f 73//73 82//73 83//73
f 75//73 83//73 86//73
f 84//74 78//74 87//74
f 77//44 84//44 88//44
f 79//75 85//75 89//75
f 85//75 75//75 90//75
f 79//73 91//73 80//73
f 81//69 80//69 91//69
f 75//73 86//73 92//73
f 87//76 93//76 84//76
f 88//44 84//44 93//44
f 89//75 85//75 95//75
f 91//73 79//73 89//73
f 75//73 92//73 90//73
f 90//44 96//44 85//44
f 93//76 87//76 98//76
f 88//44 93//44 99//44
f 97//77 94//77 77//77
f 85//78 100//78 95//78
f 92//44 93//44 90//44
f 85//44 96//44 102//44
f 90//44 93//44 96//44
f 98//79 96//79 93//79
f 99//44 93//44 92//44
f 100//78 85//78 104//78
f 96//80 103//80 102//80
f 85//44 102//44 104//44
f 96//79 98//79 101//79
f 100//81 102//81 103//81
f 102//81 100//81 104//81
f 103//80 96//80 101//80
usemtl material-2
f 47//82 33//82 21//82
f 34//82 27//82 21//82
f 34//82 26//82 27//82
f 21//82 27//82 32//82
f 21//82 32//82 47//82
f 56//82 33//82 47//82
f 49//82 26//82 34//82
f 49//82 52//82 26//82
f 68//82 33//82 56//82
f 69//82 57//82 33//82
f 70//82 52//82 49//82
f 69//82 33//82 68//82
f 57//82 69//82 74//82
f 76//82 69//82 68//82
f 69//82 76//82 78//82
f 78//82 76//82 81//82
f 78//82 81//82 87//82
f 87//82 81//82 91//82
f 101//82 89//82 95//82
f 98//82 91//82 89//82
f 87//82 91//82 98//82
f 103//82 95//82 100//82
f 98//82 89//82 101//82
f 101//82 95//82 103//82