mtllib new-0.mtl
v 0.406716 -0.003603 -0.231191
v 0.368819 -0.036145 -0.182211
v 0.395042 -0.053086 -0.218713
v 0.393604 -0.034368 -0.182146
v 0.408716 -0.033284 -0.182107
v 0.410160 -0.052002 -0.218673
v 0.366290 0.000625 -0.223434
v 0.430123 0.005203 -0.223267
v 0.432653 -0.031568 -0.182044
v 0.369449 -0.046990 -0.125851
v 0.368223 -0.028145 -0.173503
v 0.396325 -0.072864 -0.167005
v 0.394234 -0.045213 -0.125786
v 0.409345 -0.044129 -0.125747
v 0.411443 -0.071780 -0.166965
v 0.432057 -0.023567 -0.173335
v 0.433283 -0.042412 -0.125684
v 0.386843 0.036878 0.445166
v 0.368661 -0.036333 -0.116429
v 0.396504 -0.077376 -0.111812
v 0.401955 0.037961 0.445205
v 0.425900 0.039679 0.445268
v 0.411622 -0.076292 -0.111772
v 0.362066 0.035101 0.445101
v 0.388942 0.012078 0.323438
v 0.395690 -0.068026 -0.057112
v 0.404060 0.013162 0.323478
v 0.432495 -0.031755 -0.116261
v 0.410809 -0.066942 -0.057072
v 0.386106 0.044538 0.516165
v 0.401218 0.045621 0.516201
v 0.361187 0.046905 0.457584
v 0.425165 0.047339 0.516268
v 0.425020 0.051483 0.457751
v 0.361332 0.042761 0.516101
v 0.426691 0.025291 0.537018
v 0.360636 0.051974 0.528899
v 0.424470 0.056551 0.529066
v 0.362858 0.020713 0.536851
v 0.426824 0.023110 0.545773
v 0.362991 0.018533 0.545606
vn -0.997435 -0.071530 -0.002614
vn -0.997434 -0.071537 -0.002625
vn 0.997434 0.071542 0.002629
vn 0.062524 -0.852911 -0.518299
vn 0.997434 0.071549 0.002612
vn 0.070731 -0.979380 -0.189239
vn 0.067737 -0.931301 -0.357896
vn -0.063247 0.863663 0.500086
vn 0.070424 -0.987235 0.142854
vn 0.071514 -0.994104 -0.081507
vn -0.071174 0.987278 0.142183
vn 0.070833 -0.991655 0.107722
vn 0.070065 -0.983107 0.169091
vn -0.070408 0.987062 -0.144052
vn 0.070101 -0.983516 0.166678
vn 0.069453 -0.975944 0.206664
vn 0.050861 -0.682586 -0.729033
vn -0.071162 0.994916 -0.071259
vn -0.034238 0.444726 0.895012
vn 0.070033 -0.967720 -0.242104
vn 0.997435 0.071530 0.002614
vn 0.997434 0.071537 0.002625
vn -0.997434 -0.071542 -0.002629
vn -0.062524 0.852911 0.518299
vn -0.070731 0.979380 0.189239
vn -0.067737 0.931301 0.357896
vn 0.063247 -0.863663 -0.500086
vn -0.070424 0.987235 -0.142854
vn -0.071514 0.994104 0.081507
vn 0.071174 -0.987278 -0.142183
vn -0.070833 0.991655 -0.107722
vn -0.070065 0.983107 -0.169091
vn -0.070101 0.983516 -0.166678
vn -0.069453 0.975944 -0.206664
vn -0.050861 0.682586 0.729033
vn 0.071162 -0.994916 0.071259
vn 0.034238 -0.444726 -0.895012
vn -0.070033 0.967720 0.242104
vn -0.997434 -0.071549 -0.002612
vn 0.070408 -0.987062 0.144052
vt -3.137946 0.076012
vt -1.211083 0.416952
vt -1.183249 0.388251
vt -1.241721 0.389262
vt 3.137952 0.076011
vt -3.156030 0.103106
vt -2.995446 0.085152
vt -2.995463 0.085151
vt 2.995471 0.085150
vt -0.407101 0.429630
vt -0.395738 0.399203
vt -0.316560 0.425345
vt -2.961510 0.089059
vt -2.936497 0.066355
vt -0.462307 0.432243
vt -0.486278 0.403487
vt -1.006228 0.426461
vt -0.990700 0.398567
vt -0.948323 0.425011
vt 2.995443 0.085148
vt -0.549752 0.436381
vt -0.541483 0.406100
vt 2.936503 0.066354
vt 1.071197 0.388019
vt 1.286135 0.420238
vt -2.775867 0.079857
vt -2.775884 0.079856
vt -1.048605 0.400017
vt 2.961507 0.089054
vt -0.628930 0.410238
vt 2.775891 0.079855
vt 1.318017 0.392441
vt 1.611021 0.044037
vt 2.533956 -0.212415
vt 2.620454 -0.206980
vt -2.739146 0.085061
vt -2.721460 0.064152
vt 1.663762 0.047351
vt 2.673195 -0.203666
vt 0.714498 0.415619
vt 0.616531 0.390481
vt 0.758877 0.410749
vt 2.775864 0.079853
vt 1.747331 0.052602
vt 2.756738 -0.198417
vt 2.721466 0.064151
vt 0.077127 0.397888
vt 0.198751 0.436989
vt -0.023937 0.422968
vt 1.524549 0.038604
vt -1.025594 0.107830
vt -0.551308 0.119938
vt -0.551291 0.119940
vt -2.508335 0.068717
vt 0.551315 0.119937
vt 1.025601 0.107829
vt 0.572152 0.395351
vt 2.739143 0.085057
vt 0.551288 0.119935
vt 2.508342 0.068716
vt 0.299815 0.411910
vt 1.421643 0.093467
vt 1.495504 0.057819
vt 1.576023 0.064531
vt -0.274677 0.123678
vt 1.470762 0.097560
vt 1.625134 0.068625
vt -0.502647 0.125703
vt 2.485064 -0.220596
vt 2.454912 -0.192832
vt 2.400554 -0.195717
vt 1.548575 0.104049
vt 1.702950 0.075112
vt 0.274699 0.123677
vt 2.539421 -0.217711
vt 0.502644 0.125699
vt -2.508818 -0.208598
vt -1.723740 0.058137
vt -2.731975 -0.194694
vt 1.341129 0.086756
vt 1.810551 -0.020599
vt 1.563479 0.069745
vt 1.509259 0.066827
vt 2.277243 -0.210870
vt 1.835788 -0.029511
vt 1.780003 -0.031933
vt -0.274657 0.123680
vt -1.500584 0.044233
vt 2.333028 -0.208448
vt 0.274654 0.123676
vt 1.864788 -0.017678
vt -1.559686 0.133402
vt -1.404633 0.131494
vt -1.500941 0.132679
vt -1.664337 0.119852
vt -1.652779 0.134545
vt -0.224788 0.128178
vt -1.361834 0.095424
vt -1.339496 0.142073
vt -1.537353 0.117562
vt 0.224785 0.128174
vt 0.193827 0.112910
vt -0.193830 0.112915
vt -1.163976 0.119935
vt -1.416191 0.116802
vt 0.159718 0.111846
vt -0.159721 0.111850
vt 1.414746 0.141836
vt 1.674948 0.126142
vt 1.663294 0.144326
vt -1.562734 0.110864
vt -1.333619 0.097804
vt -1.323644 0.102018
vt -1.572710 0.106650
vt 1.426401 0.123653
usemtl material-3
f 4/3/4 1/2/4 5/4/4
f 4/10/6 10/11/6 2/12/6
f 2/7/1 11/13/1 7/6/1
f 12/14/2 4/8/2 3/1/2
f 5/15/6 13/16/6 4/10/6
f 6/17/7 12/18/7 3/19/7
f 9/21/6 14/22/6 5/15/6
f 5/9/3 15/23/3 6/5/3
f 10/11/6 4/10/6 13/16/6
f 10/26/1 11/13/1 2/7/1
f 12/14/2 13/27/2 4/8/2
f 13/16/6 5/15/6 14/22/6
f 12/18/7 6/17/7 15/28/7
f 14/22/6 9/21/6 17/30/6
f 14/31/3 15/23/3 5/9/3
f 8/25/8 11/24/8 16/32/8
f 18/33/9 10/34/9 13/35/9
f 10/26/1 19/36/1 11/13/1
f 20/37/2 13/27/2 12/14/2
f 21/38/9 13/35/9 14/39/9
f 15/40/10 20/41/10 12/42/10
f 16/29/5 17/43/5 9/20/5
f 22/44/9 14/39/9 17/45/9
f 14/31/3 23/46/3 15/23/3
f 19/47/11 16/48/11 11/49/11
f 10/34/9 18/33/9 24/50/9
f 25/51/2 18/52/2 13/27/2
f 13/35/9 21/38/9 18/33/9
f 24/53/1 19/36/1 10/26/1
f 26/54/2 13/27/2 20/37/2
f 14/39/9 22/44/9 21/38/9
f 21/55/3 27/56/3 14/31/3
f 20/41/10 15/40/10 23/57/10
f 28/58/5 17/43/5 16/29/5
f 28/58/5 22/59/5 17/43/5
f 14/31/3 29/60/3 23/46/3
f 16/48/11 19/47/11 28/61/11
f 30/62/12 24/63/12 18/64/12
f 18/52/2 25/51/2 30/65/2
f 25/51/2 13/27/2 26/54/2
f 31/66/12 18/64/12 21/67/12
f 24/53/1 32/68/1 19/36/1
f 20/69/13 29/70/13 26/71/13
f 33/72/12 21/67/12 22/73/12
f 27/56/3 21/55/3 31/74/3
f 14/31/3 27/56/3 29/60/3
f 29/70/13 20/69/13 23/75/13
f 34/76/5 22/59/5 28/58/5
f 19/77/14 34/78/14 28/79/14
f 24/63/12 30/62/12 35/80/12
f 18/64/12 31/66/12 30/62/12
f 25/81/15 31/82/15 30/83/15
f 26/84/16 27/85/16 25/86/16
f 21/67/12 33/72/12 31/66/12
f 35/87/1 32/68/1 24/53/1
f 34/78/14 19/77/14 32/88/14
f 27/85/16 26/84/16 29/89/16
f 34/76/5 33/90/5 22/59/5
f 31/82/15 25/81/15 27/91/15
f 31/92/17 35/93/17 30/94/17
f 36/95/17 31/92/17 33/96/17
f 35/87/1 37/97/1 32/68/1
f 32/98/18 38/99/18 34/100/18
f 38/101/5 33/90/5 34/76/5
f 36/95/17 35/93/17 31/92/17
f 38/101/5 36/102/5 33/90/5
f 39/103/1 37/97/1 35/87/1
f 38/99/18 32/98/18 37/104/18
f 35/93/17 36/95/17 39/105/17
f 36/102/5 38/101/5 40/106/5
f 37/97/1 39/103/1 41/107/1
f 37/108/19 40/109/19 38/110/19
f 36/111/20 41/112/20 39/113/20
f 41/112/20 36/111/20 40/114/20
f 40/109/19 37/108/19 41/115/19
usemtl material-4
f 5//24 1//24 4//24
f 2//25 10//25 4//25
f 7//21 11//21 2//21
f 3//22 4//22 12//22
f 4//25 13//25 5//25
f 3//26 12//26 6//26
f 5//25 14//25 9//25
f 6//23 15//23 5//23
f 13//25 4//25 10//25
f 2//21 11//21 10//21
f 4//22 13//22 12//22
f 14//25 5//25 13//25
f 15//26 6//26 12//26
f 17//25 9//25 14//25
f 5//23 15//23 14//23
f 16//27 11//27 8//27
f 13//28 10//28 18//28
f 11//21 19//21 10//21
f 12//22 13//22 20//22
f 14//28 13//28 21//28
f 12//29 20//29 15//29
f 17//28 14//28 22//28
f 15//23 23//23 14//23
f 11//30 16//30 19//30
f 24//28 18//28 10//28
f 13//22 18//22 25//22
f 18//28 21//28 13//28
f 10//21 19//21 24//21
f 20//22 13//22 26//22
f 21//28 22//28 14//28
f 14//23 27//23 21//23
f 23//29 15//29 20//29
f 23//23 29//23 14//23
f 28//30 19//30 16//30
f 18//31 24//31 30//31
f 30//22 25//22 18//22
f 26//22 13//22 25//22
f 21//31 18//31 31//31
f 19//21 32//21 24//21
f 26//32 29//32 20//32
f 22//31 21//31 33//31
f 31//23 21//23 27//23
f 29//23 27//23 14//23
f 23//32 20//32 29//32
f 35//31 30//31 24//31
f 30//31 31//31 18//31
f 30//33 31//33 25//33
f 25//34 27//34 26//34
f 31//31 33//31 21//31
f 24//21 32//21 35//21
f 29//34 26//34 27//34
f 27//33 25//33 31//33
f 30//35 35//35 31//35
f 33//35 31//35 36//35
f 32//21 37//21 35//21
f 34//36 38//36 32//36
f 31//35 35//35 36//35
f 35//21 37//21 39//21
f 37//36 32//36 38//36
f 39//35 36//35 35//35
f 41//21 39//21 37//21
f 38//37 40//37 37//37
f 39//38 41//38 36//38
f 40//38 36//38 41//38
f 41//37 37//37 40//37
usemtl material-5
f 9//39 17//39 16//39
f 16//39 17//39 28//39
f 17//39 22//39 28//39
f 28//39 22//39 34//39
f 28//40 34//40 19//40
f 32//40 19//40 34//40
f 22//39 33//39 34//39
f 34//39 33//39 38//39
f 33//39 36//39 38//39
f 40//39 38//39 36//39