mtllib new-4.mtl
v -0.337929 0.536363 -0.310674
v -0.337699 0.539967 -0.321911
v -0.345189 0.544364 -0.323242
v -0.345196 0.550722 -0.325467
v -0.335655 0.568542 -0.323581
v -0.291562 0.530048 -0.364053
v -0.291562 0.536404 -0.366283
v -0.336430 0.557900 -0.328222
v -0.293826 0.538801 -0.339098
v -0.337936 0.536269 -0.310703
v -0.283217 0.555034 -0.364053
v -0.335622 0.569024 -0.324171
v -0.299341 0.548241 -0.338989
v -0.283217 0.521661 -0.352346
v -0.234985 0.526619 -0.394175
v -0.234985 0.546692 -0.387831
v -0.293826 0.545159 -0.341328
v -0.234985 0.520263 -0.391945
v -0.234985 0.534982 -0.370337
v -0.234985 0.528624 -0.368107
v -0.234985 0.513319 -0.376124
v -0.174790 0.523335 -0.403541
v -0.174790 0.543406 -0.397197
v -0.174790 0.531696 -0.379703
v -0.174790 0.516977 -0.401311
v -0.174790 0.525339 -0.377473
v -0.174790 0.510033 -0.385489
v -0.004915 0.516977 -0.401311
v -0.004915 0.523335 -0.403541
v -0.004915 0.531696 -0.379703
v -0.004915 0.543406 -0.397197
v -0.004915 0.510033 -0.385489
v -0.004915 0.525339 -0.377473
v 0.327870 0.539967 -0.321911
v 0.335359 0.544364 -0.323242
v 0.335366 0.550722 -0.325467
v 0.325826 0.568542 -0.323581
v 0.281732 0.530048 -0.364053
v 0.281732 0.536404 -0.366283
v 0.326600 0.557900 -0.328222
v 0.283997 0.538801 -0.339098
v 0.328106 0.536269 -0.310703
v 0.273387 0.555034 -0.364053
v 0.325793 0.569024 -0.324171
v 0.289511 0.548241 -0.338989
v 0.225155 0.526619 -0.394175
v 0.273387 0.521661 -0.352346
v 0.225155 0.546692 -0.387831
v 0.283997 0.545159 -0.341328
v 0.225155 0.520263 -0.391945
v 0.225155 0.534982 -0.370337
v 0.225155 0.528624 -0.368107
v 0.164960 0.523335 -0.403541
v 0.164960 0.543406 -0.397197
v 0.225155 0.513319 -0.376124
v 0.164960 0.531696 -0.379703
v 0.164960 0.516977 -0.401311
v 0.164960 0.525339 -0.377473
v -0.004915 0.516977 -0.401311
v -0.004915 0.523335 -0.403541
v -0.004915 0.531696 -0.379703
v 0.164960 0.510033 -0.385489
v -0.004915 0.543406 -0.397197
v -0.004915 0.510033 -0.385489
v -0.004915 0.525339 -0.377473
vn 0.446022 0.847104 0.288927
vn 0.627765 0.257701 0.734508
vn -0.506578 -0.289899 -0.811996
vn 0.515890 -0.325918 0.792234
vn -0.529937 0.288343 -0.797512
vn 0.463060 0.293429 0.836346
vn 0.385628 -0.278045 0.879762
vn -0.573634 -0.618777 -0.536712
vn 0.335792 0.862523 0.378547
vn -0.385624 -0.766739 -0.513230
vn -0.463060 -0.293361 -0.836370
vn -0.335773 0.437048 -0.834413
vn 0.162687 0.326612 0.931052
vn 0.130778 -0.298777 0.945320
vn -0.130776 -0.823877 -0.551475
vn 0.111807 0.909950 0.399362
vn -0.162692 -0.326564 -0.931068
vn -0.111798 0.461073 -0.880291
vn 0.000000 0.330983 0.943637
vn 0.000000 -0.301377 0.953505
vn 0.000000 -0.831014 -0.556252
vn 0.000000 0.915692 0.401881
vn 0.000000 -0.330963 -0.943644
vn 0.000000 0.463978 -0.885847
vn -0.446022 -0.847104 -0.288927
vn -0.627765 -0.257701 -0.734508
vn 0.506578 0.289899 0.811996
vn -0.515890 0.325918 -0.792234
vn 0.529937 -0.288343 0.797512
vn -0.463060 -0.293429 -0.836346
vn -0.385628 0.278045 -0.879762
vn 0.573634 0.618777 0.536712
vn -0.335792 -0.862523 -0.378547
vn 0.385624 0.766739 0.513230
vn 0.463060 0.293361 0.836370
vn 0.335773 -0.437048 0.834413
vn -0.162687 -0.326612 -0.931052
vn -0.130778 0.298777 -0.945320
vn 0.130776 0.823877 0.551475
vn -0.111807 -0.909950 -0.399362
vn 0.162692 0.326564 0.931068
vn 0.111798 -0.461073 0.880291
vn 0.000000 -0.330983 -0.943637
vn 0.000000 0.301377 -0.953505
vn 0.000000 0.831014 0.556252
vn 0.000000 -0.915692 -0.401881
vn 0.000000 0.330963 0.943644
vn 0.000000 -0.463978 0.885847
vn -0.446022 0.847104 0.288927
vn -0.627765 0.257701 0.734508
vn 0.506578 -0.289899 -0.811996
vn -0.515890 -0.325918 0.792234
vn 0.529937 0.288343 -0.797512
vn -0.463060 0.293429 0.836346
vn -0.385628 -0.278045 0.879762
vn 0.573634 -0.618777 -0.536712
vn -0.335792 0.862523 0.378547
vn 0.385624 -0.766739 -0.513230
vn 0.463060 -0.293361 -0.836370
vn 0.335773 0.437048 -0.834413
vn -0.162687 0.326612 0.931052
vn -0.130778 -0.298777 0.945320
vn 0.130776 -0.823877 -0.551475
vn -0.111807 0.909950 0.399362
vn 0.162692 -0.326564 -0.931068
vn 0.111798 0.461073 -0.880291
vn 0.000000 0.330983 0.943637
vn 0.000000 -0.301377 0.953505
vn 0.000000 -0.831014 -0.556252
vn 0.000000 0.915692 0.401881
vn 0.000000 -0.330963 -0.943644
vn 0.000000 0.463978 -0.885847
vn 0.446022 -0.847104 -0.288927
vn 0.627765 -0.257701 -0.734508
vn -0.506578 0.289899 0.811996
vn 0.515890 0.325918 -0.792234
vn -0.529937 -0.288343 0.797512
vn 0.463060 -0.293429 -0.836346
vn 0.385628 0.278045 -0.879762
vn -0.573634 0.618777 0.536712
vn 0.335792 -0.862523 -0.378547
vn -0.385624 0.766739 0.513230
vn -0.463060 0.293361 0.836370
vn -0.335773 -0.437048 0.834413
vn 0.162687 -0.326612 -0.931052
vn 0.130778 0.298777 -0.945320
vn -0.130776 0.823877 0.551475
vn 0.111807 -0.909950 -0.399362
vn -0.162692 0.326564 0.931068
vn -0.111798 -0.461073 0.880291
vn 0.000000 -0.330983 -0.943637
vn 0.000000 0.301377 -0.953505
vn 0.000000 0.831014 0.556252
vn 0.000000 -0.915692 -0.401881
vn 0.000000 0.330963 0.943644
vn 0.000000 -0.463978 0.885847
vt -2.262754 0.520163
vt -2.498288 0.511072
vt -2.251243 0.524192
vt -1.298488 0.485865
vt -1.292878 0.482660
vt -1.560659 0.478648
vt 0.747612 0.493230
vt 0.781746 0.509606
vt 0.952017 0.494476
vt -2.225604 0.516774
vt -1.555014 0.475444
vt -1.087961 0.205155
vt -1.110466 0.214752
vt -0.826073 0.212530
vt -0.860549 0.216228
vt 0.933563 0.499275
vt 1.056468 0.231681
vt 0.852102 0.230393
vt -2.477683 0.503386
vt -0.819425 0.499443
vt -0.815217 0.496205
vt -1.064911 0.494458
vt -0.492358 0.238126
vt -0.466067 0.228680
vt -0.701661 0.233896
vt -0.854575 0.221959
vt 1.706346 0.568588
vt 1.708113 0.568886
vt 1.846848 0.556002
vt 0.956615 0.497706
vt 1.119462 0.222963
vt -1.619908 0.567640
vt -1.613963 0.559568
vt -1.856926 0.558223
vt -1.060703 0.491220
vt -0.711584 0.223719
vt 1.561672 0.587582
vt 1.520729 0.578699
vt 1.355785 0.593911
vt 1.961076 0.560213
vt 1.868182 0.554091
vt 0.764567 0.500533
vt 1.019879 0.495349
vt 0.760359 0.497295
vt 0.300750 0.134757
vt 0.555624 0.129247
vt 0.358366 0.125476
vt -1.816020 0.551540
vt 0.225915 0.511832
vt 0.227410 0.508557
vt -0.011393 0.510140
vt 0.368174 0.219848
vt 0.364787 0.209604
vt 0.130859 0.218171
vt -0.012781 0.607917
vt 0.002946 0.617979
vt 0.223837 0.605093
vt 1.269553 0.586419
vt 1.015671 0.492110
vt 0.567284 0.120959
vt -0.163650 0.597842
vt -0.147032 0.589688
vt -0.399332 0.593984
vt -0.009898 0.506864
vt 0.127472 0.207928
vt 0.239564 0.615155
vt -0.241892 0.511930
vt -0.004584 0.510237
vt -0.243388 0.508654
vt -0.421076 0.112381
vt -0.183820 0.110578
vt -0.417141 0.103981
vt -0.382713 0.585829
vt 0.661856 0.506097
vt 0.000000 0.506097
vt 0.661856 0.509379
vt 0.661856 0.208401
vt 0.000000 0.208401
vt 0.661856 0.218653
vt -0.661856 0.599230
vt -0.661856 0.609483
vt 0.000000 0.599230
vt -0.006080 0.506961
vt -0.179885 0.102177
vt 0.661856 0.587922
vt 0.661856 0.579507
vt 0.000000 0.587922
vt 0.000000 0.509379
vt 0.000000 0.218653
vt 0.000000 0.609483
vt -0.661856 0.509372
vt 0.000000 0.509372
vt -0.661856 0.506091
vt -0.661856 0.103320
vt -0.661856 0.111734
vt 0.000000 0.103320
vt 0.000000 0.579507
vt 0.000000 0.506091
vt 0.000000 0.111734
vt -2.251243 0.524192
vt -2.498288 0.511072
vt -2.262754 0.520163
vt -1.560659 0.478648
vt -1.292878 0.482660
vt 0.952017 0.494476
vt 0.781746 0.509606
vt -1.555014 0.475444
vt -2.225604 0.516774
vt -0.826073 0.212530
vt -1.110466 0.214752
vt -1.087961 0.205155
vt -0.860549 0.216228
vt 0.933563 0.499275
vt 0.852102 0.230393
vt 1.056468 0.231681
vt -1.064911 0.494458
vt -0.815217 0.496205
vt -0.819425 0.499443
vt -2.477683 0.503386
vt -0.701661 0.233896
vt -0.466067 0.228680
vt -0.492358 0.238126
vt -0.854575 0.221959
vt 1.846848 0.556002
vt 1.708113 0.568886
vt 0.956615 0.497706
vt 1.119462 0.222963
vt -1.060703 0.491220
vt -0.711584 0.223719
vt -1.856926 0.558223
vt -1.613963 0.559568
vt -1.619908 0.567640
vt 1.355785 0.593911
vt 1.520729 0.578699
vt 1.561672 0.587582
vt 1.868182 0.554091
vt 1.961076 0.560213
vt 0.760359 0.497295
vt 1.019879 0.495349
vt 0.764567 0.500533
vt 0.358366 0.125476
vt 0.555624 0.129247
vt 0.300750 0.134757
vt -0.011393 0.510140
vt 0.227410 0.508557
vt 0.225915 0.511832
vt 0.130859 0.218171
vt 0.364787 0.209604
vt 0.368174 0.219848
vt -1.816020 0.551540
vt 1.269553 0.586419
vt 0.223837 0.605093
vt 0.002946 0.617979
vt -0.012781 0.607917
vt 1.015671 0.492110
vt 0.567284 0.120959
vt -0.009898 0.506864
vt 0.127472 0.207928
vt 0.239564 0.615155
vt -0.399332 0.593984
vt -0.147032 0.589688
vt -0.163650 0.597842
vt -0.243388 0.508654
vt -0.004584 0.510237
vt -0.241892 0.511930
vt -0.417141 0.103981
vt -0.183820 0.110578
vt -0.421076 0.112381
vt 0.661856 0.509379
vt 0.000000 0.506097
vt 0.661856 0.506097
vt 0.661856 0.218653
vt 0.000000 0.208401
vt 0.661856 0.208401
vt 0.000000 0.599230
vt -0.661856 0.609483
vt -0.661856 0.599230
vt -0.382713 0.585829
vt -0.006080 0.506961
vt -0.179885 0.102177
vt 0.000000 0.509379
vt 0.000000 0.587922
vt 0.661856 0.579507
vt 0.661856 0.587922
vt 0.000000 0.218653
vt 0.000000 0.609483
vt -0.661856 0.506091
vt 0.000000 0.509372
vt -0.661856 0.509372
vt 0.000000 0.103320
vt -0.661856 0.111734
vt -0.661856 0.103320
vt 0.000000 0.579507
vt 0.000000 0.506091
vt 0.000000 0.111734
usemtl material-0
f 2/1/1 6/2/1 3/3/1
f 4/4/2 3/5/2 7/6/2
f 1/7/3 5/8/3 9/9/3
f 2/1/1 10/10/1 6/2/1
f 6/11/2 7/6/2 3/5/2
f 7/12/4 11/13/4 4/14/4
f 8/15/4 4/14/4 11/13/4
f 13/16/3 9/9/3 5/8/3
f 14/19/1 6/2/1 10/10/1
f 7/20/6 6/21/6 15/22/6
f 11/23/7 7/24/7 16/25/7
f 12/26/4 8/15/4 11/13/4
f 5/27/8 12/28/8 13/29/8
f 17/30/3 9/9/3 13/16/3
f 14/31/5 10/18/5 9/17/5
f 6/32/9 14/33/9 18/34/9
f 18/35/6 15/22/6 6/21/6
f 15/36/7 16/25/7 7/24/7
f 16/37/10 19/38/10 11/39/10
f 11/40/8 17/41/8 12/28/8
f 13/29/8 12/28/8 17/41/8
f 17/42/11 19/43/11 9/44/11
f 9/45/12 20/46/12 14/47/12
f 21/48/9 18/34/9 14/33/9
f 15/49/13 18/50/13 22/51/13
f 16/52/14 15/53/14 23/54/14
f 19/55/15 16/56/15 24/57/15
f 17/58/10 11/39/10 19/38/10
f 20/59/11 9/44/11 19/43/11
f 21/60/12 14/47/12 20/46/12
f 18/61/16 21/62/16 25/63/16
f 25/64/13 22/51/13 18/50/13
f 22/65/14 23/54/14 15/53/14
f 23/66/15 24/57/15 16/56/15
f 19/67/17 24/68/17 20/69/17
f 20/70/18 26/71/18 21/72/18
f 27/73/16 25/63/16 21/62/16
f 25/74/19 28/75/19 22/76/19
f 22/77/20 29/78/20 23/79/20
f 24/80/21 23/81/21 30/82/21
f 26/83/17 20/69/17 24/68/17
f 27/84/18 21/72/18 26/71/18
f 25/85/22 27/86/22 28/87/22
f 29/88/19 22/76/19 28/75/19
f 31/89/20 23/79/20 29/78/20
f 31/90/21 30/82/21 23/81/21
f 24/91/23 30/92/23 26/93/23
f 27/94/24 26/95/24 32/96/24
f 32/97/22 28/87/22 27/86/22
f 33/98/23 26/93/23 30/92/23
f 33/99/24 32/96/24 26/95/24
usemtl material-1
f 3//25 6//25 2//25
f 7//26 3//26 4//26
f 9//27 5//27 1//27
f 6//25 10//25 2//25
f 3//26 7//26 6//26
f 4//28 11//28 7//28
f 11//28 4//28 8//28
f 5//27 9//27 13//27
f 10//25 6//25 14//25
f 15//30 6//30 7//30
f 16//31 7//31 11//31
f 11//28 8//28 12//28
f 13//32 12//32 5//32
f 13//27 9//27 17//27
f 9//29 10//29 14//29
f 18//33 14//33 6//33
f 6//30 15//30 18//30
f 7//31 16//31 15//31
f 11//34 19//34 16//34
f 12//32 17//32 11//32
f 17//32 12//32 13//32
f 9//35 19//35 17//35
f 14//36 20//36 9//36
f 14//33 18//33 21//33
f 22//37 18//37 15//37
f 23//38 15//38 16//38
f 24//39 16//39 19//39
f 19//34 11//34 17//34
f 19//35 9//35 20//35
f 20//36 14//36 21//36
f 25//40 21//40 18//40
f 18//37 22//37 25//37
f 15//38 23//38 22//38
f 16//39 24//39 23//39
f 20//41 24//41 19//41
f 21//42 26//42 20//42
f 21//40 25//40 27//40
f 22//43 28//43 25//43
f 23//44 29//44 22//44
f 30//45 23//45 24//45
f 24//41 20//41 26//41
f 26//42 21//42 27//42
f 28//46 27//46 25//46
f 28//43 22//43 29//43
f 29//44 23//44 31//44
f 23//45 30//45 31//45
f 26//47 30//47 24//47
f 32//48 26//48 27//48
f 27//46 28//46 32//46
f 30//47 26//47 33//47
f 26//48 32//48 33//48
usemtl material-3
f 35/100/49 38/101/49 34/102/49
f 35/104/50 39/103/50 38/107/50
f 36/109/52 43/110/52 39/111/52
f 43/110/52 36/109/52 40/112/52
f 37/106/51 41/105/51 45/113/51
f 46/116/54 38/117/54 39/118/54
f 42/108/49 38/101/49 47/119/49
f 48/120/55 39/121/55 43/122/55
f 43/110/52 40/112/52 44/123/52
f 45/113/51 41/105/51 49/126/51
f 41/115/53 42/114/53 47/127/53
f 38/117/54 46/116/54 50/128/54
f 39/121/55 48/120/55 46/129/55
f 50/130/57 47/131/57 38/132/57
f 43/133/58 51/134/58 48/135/58
f 44/125/56 49/136/56 43/137/56
f 49/136/56 44/125/56 45/124/56
f 41/138/59 51/139/59 49/140/59
f 47/141/60 52/142/60 41/143/60
f 53/144/61 50/145/61 46/146/61
f 54/147/62 46/148/62 48/149/62
f 47/131/57 50/130/57 55/150/57
f 51/134/58 43/133/58 49/151/58
f 56/152/63 48/153/63 51/154/63
f 51/139/59 41/138/59 52/155/59
f 52/142/60 47/141/60 55/156/60
f 50/145/61 53/144/61 57/157/61
f 46/148/62 54/147/62 53/158/62
f 48/153/63 56/152/63 54/159/63
f 57/160/64 55/161/64 50/162/64
f 52/163/65 56/164/65 51/165/65
f 55/166/66 58/167/66 52/168/66
f 53/169/67 59/170/67 57/171/67
f 54/172/68 60/173/68 53/174/68
f 61/175/69 54/176/69 56/177/69
f 55/161/64 57/160/64 62/178/64
f 56/164/65 52/163/65 58/179/65
f 58/167/66 55/166/66 62/180/66
f 59/170/67 53/169/67 60/181/67
f 59/182/70 62/183/70 57/184/70
f 60/173/68 54/172/68 63/185/68
f 54/176/69 61/175/69 63/186/69
f 58/187/71 61/188/71 56/189/71
f 64/190/72 58/191/72 62/192/72
f 62/183/70 59/182/70 64/193/70
f 61/188/71 58/187/71 65/194/71
f 58/191/72 64/190/72 65/195/72
usemtl material-4
f 34//73 38//73 35//73
f 38//74 39//74 35//74
f 39//76 43//76 36//76
f 40//76 36//76 43//76
f 45//75 41//75 37//75
f 39//78 38//78 46//78
f 47//73 38//73 42//73
f 43//79 39//79 48//79
f 44//76 40//76 43//76
f 49//75 41//75 45//75
f 47//77 42//77 41//77
f 50//78 46//78 38//78
f 46//79 48//79 39//79
f 38//81 47//81 50//81
f 48//82 51//82 43//82
f 43//80 49//80 44//80
f 45//80 44//80 49//80
f 49//83 51//83 41//83
f 41//84 52//84 47//84
f 46//85 50//85 53//85
f 48//86 46//86 54//86
f 55//81 50//81 47//81
f 49//82 43//82 51//82
f 51//87 48//87 56//87
f 52//83 41//83 51//83
f 55//84 47//84 52//84
f 57//85 53//85 50//85
f 53//86 54//86 46//86
f 54//87 56//87 48//87
f 50//88 55//88 57//88
f 51//89 56//89 52//89
f 52//90 58//90 55//90
f 57//91 59//91 53//91
f 53//92 60//92 54//92
f 56//93 54//93 61//93
f 62//88 57//88 55//88
f 58//89 52//89 56//89
f 62//90 55//90 58//90
f 60//91 53//91 59//91
f 57//94 62//94 59//94
f 63//92 54//92 60//92
f 63//93 61//93 54//93
f 56//95 61//95 58//95
f 62//96 58//96 64//96
f 64//94 59//94 62//94
f 65//95 58//95 61//95
f 65//96 64//96 58//96