# SSTK version 0.8.0
# 11
mtllib original-11.mtl
o mesh2/mesh2-geometry#mesh2-geometry
v 0.566009 -0.718125 0.246159
v 0.582942 -0.747897 0.233953
v 0.577738 -0.747897 0.249970
v 0.571214 -0.718125 0.230142
v 0.571214 -0.777669 0.230142
v 0.567127 -0.747897 0.255376
v 0.542899 -0.705793 0.220942
v 0.566009 -0.777669 0.246159
v 0.557744 -0.724080 0.252328
v 0.537695 -0.705793 0.236959
v 0.542899 -0.790001 0.220942
v 0.557744 -0.771714 0.252328
v 0.514584 -0.718125 0.211742
v 0.537695 -0.790001 0.236959
v 0.535093 -0.781580 0.244968
v 0.535093 -0.714214 0.244968
v 0.509380 -0.718125 0.227759
v 0.514584 -0.777669 0.211742
v 0.512441 -0.724080 0.237608
v 0.497652 -0.747897 0.223948
v 0.509380 -0.777669 0.227759
v 0.512441 -0.771714 0.237608
v 0.503058 -0.747897 0.234559
v 0.502856 -0.747897 0.207931
vn -0.4987608562079797 -0.6511301743338908 -0.572072639082311
vn -0.9510565608316645 0 -0.3090168573056277
vn -0.755267480518519 0 -0.6554166864455074
vn -0.67249838818659 -0.7071069444464487 -0.21850786485169194
vn 0.755267480518519 0 0.6554166864455074
vn 0.9510565608316645 0 0.3090168573056277
vn 0.4987608562079797 0.6511301743338908 0.572072639082311
vn 0.67249838818659 0.7071069444464487 0.21850786485169194
vn -0.6724988637150012 0.7071064444461886 -0.2185080193601628
vn 0.6724988637150012 -0.7071064444461886 0.2185080193601628
vn -0.45398684793109056 0 -0.8910083848682867
vn 0.45398684793109056 0 0.8910083848682867
vn 0 -1 0
vn 0 1 0
vn -0.49876135971548485 0.6511304282405247 -0.5720719111039029
vn 0.49876135971548485 -0.6511304282405247 0.5720719111039029
vn -0.2570173677122495 -0.49999803513666713 -0.8270090915786465
vn 0.2570173677122495 0.49999803513666713 0.8270090915786465
vn 0.12050044483809975 -0.9208369618587237 -0.37086241716924556
vn -0.12050044483809975 0.9208369618587237 0.37086241716924556
vn 0.3090168573056277 0 -0.9510565608316645
vn -0.3090168573056277 0 0.9510565608316645
vn -0.25701785846867725 0.4999983886901264 -0.827008725307933
vn 0.25701785846867725 -0.4999983886901264 0.827008725307933
vn 0.6724979126578425 -0.7071074444463553 0.21850771034311126
vn -0.6724979126578425 0.7071074444463553 -0.21850771034311126
vn 0.12050018281010484 0.9208373209366437 -0.37086161072960333
vn -0.12050018281010484 -0.9208373209366437 0.37086161072960333
vn 0.21850879190022426 -0.7071039444417057 -0.6725012413499959
vn -0.21850879190022426 0.7071039444417057 0.6725012413499959
vn 0.7397617998436107 -0.6511304282405246 -0.16965153966720378
vn -0.7397617998436107 0.6511304282405246 0.16965153966720378
vn 0.21850848288448382 0.7071049444447014 -0.6725002902968721
vn -0.21850848288448382 -0.7071049444447014 0.6725002902968721
vn 0.6940351983026157 -0.49999838869012597 -0.5179930065399786
vn -0.6940351983026157 0.49999838869012597 0.5179930065399786
vn 0.9962685440348381 0 -0.08630752091621847
vn -0.9962685440348381 0 0.08630752091621847
vn 0.7397617998436107 0.6511304282405246 -0.16965153966720348
vn -0.7397617998436107 -0.6511304282405246 0.16965153966720348
vn 0.8910051746752174 0 -0.4539931482985015
vn -0.8910051746752174 0 0.4539931482985015
vn 0.6940356370670461 0.49999924224657377 -0.5179915947520687
vn -0.6940356370670461 -0.49999924224657377 0.5179915947520687
usemtl material_0_0
f 1//1 2//2 3//3
f 2//2 1//1 4//4
f 3//5 2//6 1//7
f 4//8 1//7 2//6
f 5//9 3//3 2//2
f 2//6 3//5 5//10
f 6//11 1//1 3//3
f 3//5 1//7 6//12
f 1//1 7//13 4//4
f 4//8 7//14 1//7
f 3//3 5//9 8//15
f 8//16 5//10 3//5
f 1//1 6//11 9//17
f 9//18 6//12 1//7
f 8//15 6//11 3//3
f 3//5 6//12 8//16
f 7//13 1//1 10//19
f 10//20 1//7 7//14
f 11//14 8//15 5//9
f 5//10 8//16 11//13
f 12//21 9//21 6//21
f 6//22 9//22 12//22
f 9//17 10//19 1//1
f 1//7 10//20 9//18
f 6//11 8//15 12//23
f 12//24 8//16 6//12
f 10//19 13//25 7//13
f 7//14 13//26 10//20
f 8//15 11//14 14//27
f 14//28 11//13 8//16
f 9//21 12//21 15//21
f 15//22 12//22 9//22
f 10//19 9//17 16//29
f 16//30 9//18 10//20
f 14//27 12//23 8//15
f 8//16 12//24 14//28
f 13//25 10//19 17//31
f 17//32 10//20 13//26
f 18//8 14//27 11//14
f 11//13 14//28 18//4
f 12//23 14//27 15//33
f 15//34 14//28 12//24
f 9//21 15//21 16//21
f 16//22 15//22 9//22
f 19//35 10//19 16//29
f 16//30 10//20 19//36
f 10//19 19//35 17//31
f 17//32 19//36 10//20
f 20//37 13//25 17//31
f 17//32 13//26 20//38
f 14//27 18//8 21//39
f 21//40 18//4 14//28
f 21//39 15//33 14//27
f 14//28 15//34 21//40
f 16//21 15//21 22//21
f 22//22 15//22 16//22
f 16//21 22//21 19//21
f 19//22 22//22 16//22
f 23//41 17//31 19//35
f 19//36 17//32 23//42
f 13//25 20//37 24//6
f 24//2 20//38 13//26
f 17//31 23//41 20//37
f 20//38 23//42 17//32
f 24//6 21//39 18//8
f 18//4 21//40 24//2
f 15//33 21//39 22//43
f 22//44 21//40 15//34
f 19//21 22//21 23//21
f 23//22 22//22 19//22
f 21//39 24//6 20//37
f 20//38 24//2 21//40
f 23//41 21//39 20//37
f 20//38 21//40 23//42
f 21//39 23//41 22//43
f 22//44 23//42 21//40
