# SSTK version 0.8.0
# 35
mtllib original-35.mtl
o Group4/mesh6/mesh6-geometry#mesh6-geometry
v 0.449420 -0.028718 0.124460
v 0.449420 -0.021404 0.128683
v 0.435351 -0.028718 0.124460
v 0.449420 -0.014091 0.124460
v 0.405633 -0.021404 0.128683
v 0.434487 -0.028718 0.116015
v 0.449420 -0.014091 0.116015
v 0.407586 -0.028718 0.124460
v 0.407853 -0.028718 0.116015
v 0.431755 -0.025604 0.114218
v 0.449420 -0.028718 0.116015
v 0.408348 -0.014091 0.116015
v 0.405633 -0.014091 0.124460
v 0.407824 -0.028718 0.117669
v 0.405633 -0.028718 0.124460
v 0.408291 -0.021699 0.111963
v 0.431755 -0.023982 0.127194
v 0.449420 -0.021404 0.111793
v 0.408298 -0.021404 0.111793
v 0.405633 -0.028718 0.116015
v 0.407897 -0.027624 0.115384
v 0.405633 -0.021404 0.111793
v 0.405633 -0.014091 0.116015
vn 0 -0.8660253028382762 0.5000001748438415
vn 0 0 1
vn 0 0.8660253028382762 -0.5000001748438415
vn 0 0 -1
vn 1 0 0
vn -1 0 0
vn 0 -0.866025302838276 -0.500000174843842
vn 0 0.866025302838276 0.500000174843842
vn 0 -0.944911112042842 0.3273270388128057
vn 0 0.944911112042842 -0.3273270388128057
vn 0.7714646916047369 0.6313587476124971 -0.07891996845151204
vn -0.7714646916047369 -0.6313587476124971 0.07891996845151204
vn 0 0.7559288061961315 -0.6546538321608538
vn 0 -0.7559288061961315 0.6546538321608538
vn 0 -1 0
vn 0 1 0
vn 0 -0.5000001748438415 -0.8660253028382762
vn 0 0.5000001748438415 0.8660253028382762
usemtl material_0_0
f 1//1 2//2 3//1
f 3//3 2//4 1//3
f 2//5 1//5 4//5
f 4//6 1//6 2//6
f 5//2 3//1 2//2
f 2//4 3//3 5//4
f 3//1 6//7 1//1
f 1//3 6//8 3//3
f 7//5 4//5 1//5
f 1//6 4//6 7//6
f 2//2 4//8 5//2
f 5//4 4//7 2//4
f 8//9 3//1 5//2
f 5//4 3//3 8//10
f 9//7 6//7 3//1
f 3//3 6//8 9//8
f 6//11 10//11 3//11
f 3//12 10//12 6//12
f 11//7 1//1 6//7
f 6//8 1//3 11//8
f 7//3 12//13 4//8
f 4//7 12//14 7//1
f 11//5 7//5 1//5
f 1//6 7//6 11//6
f 13//8 5//2 4//8
f 4//7 5//4 13//7
f 8//9 14//15 3//1
f 3//3 14//16 8//10
f 15//1 8//9 5//2
f 5//4 8//10 15//3
f 9//7 16//17 6//7
f 6//8 16//18 9//8
f 14//15 9//7 3//1
f 3//3 9//8 14//16
f 17//11 3//11 10//11
f 10//12 3//12 17//12
f 11//7 6//7 18//4
f 18//2 6//8 11//8
f 12//13 7//3 19//4
f 19//2 7//1 12//14
f 13//8 4//8 12//13
f 12//14 4//7 13//7
f 18//5 7//5 11//5
f 11//6 7//6 18//6
f 5//6 13//6 15//6
f 15//5 13//5 5//5
f 8//9 20//7 14//15
f 14//16 20//8 8//10
f 15//1 20//7 8//9
f 8//10 20//8 15//3
f 21//17 16//17 9//7
f 9//8 16//18 21//18
f 16//17 19//4 6//7
f 6//8 19//2 16//18
f 9//7 14//15 20//7
f 20//8 14//16 9//8
f 19//4 18//4 6//7
f 6//8 18//2 19//2
f 18//4 19//4 7//3
f 7//1 19//2 18//2
f 19//4 22//4 12//13
f 12//14 22//2 19//2
f 23//3 13//8 12//13
f 12//14 13//7 23//1
f 20//6 15//6 13//6
f 13//5 15//5 20//5
f 16//17 21//17 20//7
f 20//8 21//18 16//18
f 9//7 20//7 21//17
f 21//18 20//8 9//8
f 19//4 16//17 22//4
f 22//2 16//18 19//2
f 23//3 12//13 22//4
f 22//2 12//14 23//1
f 23//6 20//6 13//6
f 13//5 20//5 23//5
f 22//4 16//17 20//7
f 20//8 16//18 22//2
f 22//6 20//6 23//6
f 23//5 20//5 22//5
