# SSTK version 0.8.0
# 13
mtllib original-13.mtl
o mesh4/mesh4-geometry#mesh4-geometry
v 0.493366 -0.656057 0.205223
v 0.542740 -0.683528 0.215502
v 0.540658 -0.649765 0.221909
v 0.504298 -0.683528 0.203012
v 0.552135 -0.649765 0.186586
v 0.524018 -0.582471 0.209377
v 0.511612 -0.683528 0.180502
v 0.550053 -0.683528 0.192993
v 0.546410 -0.649765 0.204205
v 0.486049 -0.598576 0.197040
v 0.531307 -0.582471 0.186944
v 0.504067 -0.656057 0.172288
v 0.546383 -0.649765 0.204290
v 0.493272 -0.544307 0.199382
v 0.500558 -0.544307 0.176958
v 0.476413 -0.594261 0.193899
v 0.493338 -0.598576 0.174608
v 0.023511 -0.503881 0.046752
v 0.030799 -0.503881 0.024320
v 0.483696 -0.594261 0.171484
v 0.023511 -0.594261 0.046752
v 0.030799 -0.594261 0.024320
vt -0.389675 0.061599
vt -0.194348 0.047956
vt -0.194348 0.064723
vt -0.351828 0.047956
vt 0.118388 0.051854
vt 0.236849 0.068297
vt 0.092142 0.068297
vt -0.27522 0.101881
vt -0.392943 0.065898
vt -0.197566 0.068975
vt -0.097033 0.07774
vt -0.210602 0.063549
vt -0.118388 0.063549
vt 0.210602 0.051854
vt 0.164671 0.068297
vt -0.430665 0.094006
vt 0.092142 0.072372
vt 0.210446 0.10652
vt 0.118545 0.10652
vt -0.231958 0.07774
vt 0.194348 0.056003
vt 0.389675 0.069645
vt 0.194348 0.07277
vt 0.164671 0.072372
vt 0.236849 0.072372
vt 0.16432 0.068297
vt -0.397057 0.119657
vt -0.42664 0.093227
vt -0.271092 0.101071
vt -0.118548 0.100668
vt -0.231958 0.072294
vt -0.097033 0.072294
vt 0.16432 0.072372
vt 0.210427 0.123381
vt 0.118545 0.099022
vt 0.210446 0.099022
vt 0.351828 0.056003
vt 0.380993 0.062214
vt 0.26327 0.098197
vt 0.185616 0.065291
vt -0.466125 0.095328
vt 0.118564 0.123381
vt -0.210443 0.100668
vt 0.426642 0.093227
vt 0.397059 0.119657
vt 0.271094 0.101071
vt 0.418715 0.090322
vt -2.321492 0.139345
vt -0.118583 0.09095
vt -0.210443 0.085586
vt -0.118548 0.085586
vt 0.210444 0.300586
vt 0.118564 0.059228
vt 0.210427 0.059228
vt 0.466127 0.095328
vt 0.118547 0.300586
vt -2.321492 0.095328
vt -0.210408 0.09095
vt 2.321494 0.139345
vt -0.210443 0.290187
vt -0.118583 0.058266
vt -0.118548 0.290187
vt -0.210408 0.058266
vt 2.321494 0.095328
vn -0.8697357495020847 -0.21120996506308526 0.44603820093810065
vn 0.45821482931673463 -0.13835809687840656 0.878006951693676
vn 0.4410837246178958 0.06329703430984482 0.8952310502461266
vn -0.8219256474829028 -0.36246004776587126 0.4393870091199481
vn 0.8830477038539809 0.06329703430984511 -0.4649948797199709
vn 0.3522063314223484 0.36273699041914464 0.8627702914957563
vn -0.4066868546364732 -0.36246004776587093 -0.8385872143310167
vn 0.8867829944936623 -0.13835809687840628 -0.4409908816574772
vn 0.9414329423695087 0.14189908404537416 0.3058899556516575
vn -0.7431781914558435 -0.37627130624359906 0.5532685422488408
vn 0.7920644195828488 0.3627369904191449 -0.49097436899755353
vn -0.44145657686326645 -0.21120996506308498 -0.8720702043999768
vn 0.23527055946436953 0.7821449382406781 0.5769723212025064
vn 0.5294736075799453 0.7821449382406784 -0.32849200060391626
vn -0.3097873998224711 -0.8727528180046659 0.3772721637971016
vn -0.27604095197997597 -0.3762713062435987 -0.8844327543277243
vn -0.16364621239532587 0.7047500118637559 0.6903240818243992
vn 0.2733695589987294 0.704750011863756 -0.6546728228595378
vn -0.02886839758399913 -0.8727528180046658 -0.4873080486569529
vn -0.21850406062575603 -0.7071069444407921 0.6724996242479713
vn 0.2185116690741315 -0.7071069444407918 -0.6724971521144489
vn -0.4410837246178958 -0.06329703430984482 -0.8952310502461266
vn -0.45821482931673463 0.13835809687840656 -0.878006951693676
vn 0.8697357495020847 0.21120996506308526 -0.44603820093810065
vn 0.8219256474829028 0.36246004776587126 -0.4393870091199481
vn -0.8830477038539809 -0.06329703430984511 0.4649948797199709
vn -0.3522063314223484 -0.36273699041914464 -0.8627702914957563
vn 0.4066868546364732 0.36246004776587093 0.8385872143310167
vn -0.8867829944936623 0.13835809687840628 0.4409908816574772
vn -0.9414329423695087 -0.14189908404537416 -0.3058899556516575
vn 0.7431781914558435 0.37627130624359906 -0.5532685422488408
vn -0.7920644195828488 -0.3627369904191449 0.49097436899755353
vn 0.44145657686326645 0.21120996506308498 0.8720702043999768
vn -0.23527055946436953 -0.7821449382406781 -0.5769723212025064
vn -0.5294736075799453 -0.7821449382406784 0.32849200060391626
vn 0.3097873998224711 0.8727528180046659 -0.3772721637971016
vn 0.27604095197997597 0.3762713062435987 0.8844327543277243
vn 0.16364621239532587 -0.7047500118637559 -0.6903240818243992
vn -0.2733695589987294 -0.704750011863756 0.6546728228595378
vn 0.02886839758399913 0.8727528180046658 0.4873080486569529
vn 0.21850406062575603 0.7071069444407921 -0.6724996242479713
vn -0.2185116690741315 0.7071069444407918 0.6724971521144489
usemtl material_0_0
f 1/1/1 2/2/2 3/3/3
f 2/2/2 1/1/1 4/4/4
f 2/5/2 5/6/5 3/7/3
f 6/8/6 1/9/1 3/10/3
f 1/11/1 7/12/7 4/13/4
f 5/6/5 2/5/2 8/14/8
f 3/7/3 5/6/5 9/15/9
f 1/9/1 6/8/6 10/16/10
f 3/17/3 11/18/11 6/19/6
f 7/12/7 1/11/1 12/20/12
f 8/21/8 12/22/12 5/23/5
f 11/18/11 9/24/9 5/25/5
f 3/7/3 9/15/9 13/26/9
f 14/27/13 10/28/10 6/29/6
f 10/30/10 12/31/12 1/32/1
f 13/33/9 11/18/11 3/17/3
f 15/34/14 6/35/6 11/36/11
f 12/22/12 8/21/8 7/37/7
f 12/38/12 11/39/11 5/40/5
f 9/24/9 11/18/11 13/33/9
f 10/28/10 14/27/13 16/41/15
f 6/35/6 15/34/14 14/42/13
f 12/31/12 10/30/10 17/43/16
f 17/44/16 15/45/14 11/46/11
f 11/39/11 12/38/12 17/47/16
f 16/41/15 14/27/13 18/48/17
f 16/49/15 17/50/16 10/51/10
f 19/52/18 14/53/13 15/54/14
f 15/45/14 17/44/16 20/55/19
f 14/53/13 19/52/18 18/56/17
f 16/41/15 18/48/17 21/57/20
f 17/50/16 16/49/15 20/58/19
f 15/45/14 20/55/19 19/59/18
f 22/60/21 16/61/15 21/62/20
f 16/61/15 22/60/21 20/63/19
f 19/59/18 20/55/19 22/64/21
usemtl material_1_0
f 3//22 2//23 1//24
f 4//25 1//24 2//23
f 3//22 5//26 2//23
f 3//22 1//24 6//27
f 4//25 7//28 1//24
f 8//29 2//23 5//26
f 9//30 5//26 3//22
f 10//31 6//27 1//24
f 6//27 11//32 3//22
f 12//33 1//24 7//28
f 5//26 12//33 8//29
f 5//26 9//30 11//32
f 13//30 9//30 3//22
f 6//27 10//31 14//34
f 1//24 12//33 10//31
f 3//22 11//32 13//30
f 11//32 6//27 15//35
f 7//28 8//29 12//33
f 5//26 11//32 12//33
f 13//30 11//32 9//30
f 16//36 14//34 10//31
f 14//34 15//35 6//27
f 17//37 10//31 12//33
f 11//32 15//35 17//37
f 17//37 12//33 11//32
f 18//38 14//34 16//36
f 10//31 17//37 16//36
f 15//35 14//34 19//39
f 20//40 17//37 15//35
f 18//38 19//39 14//34
f 21//41 18//38 16//36
f 20//40 16//36 17//37
f 19//39 20//40 15//35
f 21//41 16//36 22//42
f 20//40 22//42 16//36
f 22//42 20//40 19//39
