# SSTK version 0.8.0
# 41
mtllib original-41.mtl
o Group10/mesh11/mesh11-geometry#mesh11-geometry
v 0.440067 0.044141 0.529829
v 0.439562 0.035388 0.533323
v 0.439021 0.043130 0.533323
v 0.440739 0.034532 0.529829
v 0.440032 0.028683 0.537203
v 0.439486 0.052464 0.534645
v 0.438890 0.044998 0.526336
v 0.441322 0.026209 0.534645
v 0.438553 0.049834 0.537203
v 0.438196 0.054937 0.532089
v 0.439693 0.033520 0.526336
v 0.440389 0.023580 0.532089
v 0.440301 0.024812 0.543925
v 0.441659 0.021405 0.542988
v 0.439149 0.057269 0.542988
v 0.437794 0.060676 0.542052
v 0.435897 0.045401 0.524054
v 0.440790 0.017842 0.542052
v 0.438282 0.053706 0.543925
v 0.435129 0.056397 0.530418
v 0.436785 0.032704 0.524054
v 0.437999 0.015360 0.541441
v 0.440301 0.024812 0.551685
v 0.441659 0.021405 0.552622
v 0.438282 0.053706 0.551685
v 0.439149 0.057269 0.552622
v 0.434685 0.062745 0.541441
v 0.437555 0.021708 0.530418
v 0.440790 0.017842 0.553558
v 0.437794 0.060676 0.553558
v 0.434685 0.062745 0.554170
v 0.437999 0.015360 0.554170
v 0.440032 0.028683 0.558407
v 0.441322 0.026209 0.560963
v 0.438553 0.049834 0.558407
v 0.439486 0.052464 0.560963
v 0.440389 0.023580 0.563522
v 0.438196 0.054937 0.563522
v 0.435129 0.056397 0.565192
v 0.437555 0.021708 0.565192
v 0.439562 0.035388 0.562287
v 0.440739 0.034532 0.565780
v 0.439021 0.043130 0.562287
v 0.440067 0.044141 0.565780
v 0.436785 0.032704 0.571555
v 0.439693 0.033520 0.569275
v 0.438890 0.044998 0.569275
v 0.435897 0.045401 0.571555
vn -0.958698139119573 0.009373001360144505 -0.28427104125142655
vn -0.9742387811752777 -0.1195099731567484 -0.19124895704338538
vn -0.9813979479790402 -0.01721699908737851 -0.1912109898644793
vn -0.9480476605060897 -0.14270394889801039 -0.2843258981834828
vn 0.9813979479790402 0.01721699908737851 0.1912109898644793
vn 0.9742387811752777 0.1195099731567484 0.19124895704338538
vn 0.958698139119573 -0.009373001360144505 0.28427104125142655
vn 0.9480476605060897 0.14270394889801039 0.2843258981834828
vn -0.9680147884123187 -0.20815795450104743 -0.14006296938517962
vn 0.9680147884123187 0.20815795450104743 0.14006296938517962
vn -0.9678957730129816 0.1409539669440434 -0.2081099511948924
vn 0.9678957730129816 -0.1409539669440434 0.2081099511948924
vn -0.9480035795908418 -0.14268593672336713 0.2844818738414204
vn -0.9586539977644188 0.00930799997829368 0.28442199933672785
vn 0.9480035795908418 0.14268593672336713 -0.2844818738414204
vn 0.9586539977644188 -0.00930799997829368 -0.28442199933672785
vn -0.9387744535215787 -0.27449013260607785 -0.20822510059346636
vn 0.9387744535215787 0.27449013260607785 0.20822510059346636
vn -0.9875842375802057 0.07128901714978708 -0.1399830336753025
vn 0.9875842375802057 -0.07128901714978708 0.1399830336753025
vn -0.9388019054419992 -0.2743879723630961 0.20823597902605667
vn 0.9388019054419992 0.2743879723630961 -0.20823597902605667
vn -0.9678550306563246 0.1410490044676567 0.20823500659573982
vn 0.9678550306563246 -0.1410490044676567 -0.20823500659573982
vn -0.9643960339771195 -0.2594390091404256 -0.051300001807376115
vn 0.9643960339771195 0.2594390091404256 0.051300001807376115
vn -0.9333690178880174 -0.35072200672158726 -0.07626500146161885
vn 0.9333690178880174 0.35072200672158726 0.07626500146161885
vn -0.9732159247309967 0.21689598322515685 -0.07620299410642252
vn 0.9732159247309967 -0.21689598322515685 0.07620299410642252
vn -0.9334732107325345 -0.3504630791173995 0.07618001719771691
vn 0.9334732107325345 0.3504630791173995 -0.07618001719771691
vn -0.6084757428113529 -0.24525689633557293 0.7547226809961488
vn -0.6366399312922307 0.1582089829256918 0.754757918544643
vn 0.6084757428113529 0.24525689633557293 -0.7547226809961488
vn 0.6366399312922307 -0.1582089829256918 -0.754757918544643
vn -0.5840321616735574 -0.5946931646247688 0.5524911529422795
vn 0.5840321616735574 0.5946931646247688 -0.5524911529422795
vn -0.9731363405097099 0.21723907601402975 0.07624202667781414
vn 0.9731363405097099 -0.21723907601402975 -0.07624202667781414
vn -0.9911600780295757 0.12237000963364057 -0.05125700403523339
vn 0.9911600780295757 -0.12237000963364057 0.05125700403523339
vn -0.5698831936925026 -0.7964552707000597 0.2022180687300909
vn 0.5698831936925026 0.7964552707000597 -0.2022180687300909
vn -0.6610501119736353 0.5076470859890778 0.5525460935944094
vn 0.6610501119736353 -0.5076470859890778 -0.5525460935944094
vn -0.6751947395713623 0.7093717263889935 0.20224692199155714
vn 0.6751947395713623 -0.7093717263889935 -0.20224692199155714
vn -0.9644200781132075 -0.25934902100597484 0.051303004155286935
vn 0.9644200781132075 0.25934902100597484 -0.051303004155286935
vn -0.9731406332024419 0.21722091812478114 -0.07623897126389796
vn 0.9731406332024419 -0.21722091812478114 0.07623897126389796
vn -0.9911612805378329 0.12236403463386006 0.05124801450521448
vn 0.9911612805378329 -0.12236403463386006 -0.05124801450521448
vn -0.9334798858144137 -0.35044595713257704 -0.07617699068184071
vn 0.9334798858144137 0.35044595713257704 0.07617699068184071
vn -0.6751947395713624 0.7093717263889936 -0.2022469219915569
vn 0.6751947395713624 -0.7093717263889936 0.2022469219915569
vn -0.9334173923840186 -0.35059214737967903 0.07627003206190698
vn 0.9334173923840186 0.35059214737967903 -0.07627003206190698
vn -0.9732189470422925 0.21688698819809488 0.07618999585412153
vn 0.9732189470422925 -0.21688698819809488 -0.07618999585412153
vn -0.5698831936925026 -0.7964552707000597 -0.20221806873009124
vn 0.5698831936925026 0.7964552707000597 0.20221806873009124
vn -0.9680196092512194 -0.20810391599720646 0.14010994344351183
vn 0.9680196092512194 0.20810391599720646 -0.14010994344351183
vn -0.9678736025542544 0.14100108778088907 -0.20818112960413937
vn 0.9678736025542544 -0.14100108778088907 0.20818112960413937
vn -0.9875781237272515 0.0713050089333416 0.14001801754194843
vn 0.9875781237272515 -0.0713050089333416 -0.14001801754194843
vn -0.9388270175081852 -0.2743430051162227 -0.2081820038823863
vn 0.9388270175081852 0.2743430051162227 0.2081820038823863
vn -0.6609927762414243 0.5076578281482089 -0.5526048129328027
vn 0.6609927762414243 -0.5076578281482089 0.5526048129328027
vn -0.9387821336638096 -0.27441003907050415 0.2082960296571907
vn 0.9387821336638096 0.27441003907050415 -0.2082960296571907
vn -0.9678814129897636 0.14097706015414896 0.2081610888212107
vn 0.9678814129897636 -0.14097706015414896 -0.2081610888212107
vn -0.5839742107560388 -0.5946952146252442 -0.5525501994151268
vn 0.5839742107560388 0.5946952146252442 0.5525501994151268
vn -0.9742264503820693 -0.11952705525701186 0.1913010884379397
vn 0.9742264503820693 0.11952705525701186 -0.1913010884379397
vn -0.9586751618042487 0.009296001568970043 -0.28435104799248956
vn 0.9586751618042487 -0.009296001568970043 0.28435104799248956
vn -0.9813889073711217 -0.01717699837874054 0.19126098194773747
vn 0.9813889073711217 0.01717699837874054 -0.19126098194773747
vn -0.9480316469407559 -0.14264094687866685 -0.28441089408170545
vn 0.9480316469407559 0.14264094687866685 0.28441089408170545
vn -0.636436154447799 0.1582260383976669 -0.7549261832024885
vn 0.636436154447799 -0.1582260383976669 0.7549261832024885
vn -0.94802078655741 -0.14272896786521883 0.28440293596796595
vn 0.94802078655741 0.14272896786521883 -0.28440293596796595
vn -0.9586762026406831 0.009432001993694284 0.28434306010316285
vn 0.9586762026406831 -0.009432001993694284 -0.28434306010316285
vn -0.6082712611470277 -0.2452451052902451 -0.7548913240949195
vn 0.6082712611470277 0.2452451052902451 0.7548913240949195
usemtl material_0_0
f 1//1 2//2 3//3
f 2//2 1//1 4//4
f 3//5 2//6 1//7
f 4//8 1//7 2//6
f 5//9 3//3 2//2
f 2//6 3//5 5//10
f 3//3 6//11 1//1
f 1//7 6//12 3//5
f 7//13 4//14 1//13
f 1//15 4//16 7//15
f 8//17 2//2 4//4
f 4//8 2//6 8//18
f 5//9 9//19 3//3
f 3//5 9//20 5//10
f 2//2 8//17 5//9
f 5//10 8//18 2//6
f 6//11 3//3 9//19
f 9//20 3//5 6//12
f 10//21 1//13 6//21
f 6//22 1//15 10//22
f 4//14 7//13 11//14
f 11//16 7//15 4//16
f 1//13 10//21 7//13
f 7//15 10//22 1//15
f 4//14 12//23 8//23
f 8//24 12//24 4//16
f 13//25 9//19 5//9
f 5//10 9//20 13//26
f 14//27 5//9 8//17
f 8//18 5//10 14//28
f 9//19 15//29 6//11
f 6//12 15//30 9//20
f 6//21 16//31 10//21
f 10//22 16//32 6//22
f 17//33 11//34 7//33
f 7//35 11//36 17//35
f 12//23 4//14 11//14
f 11//16 4//16 12//24
f 10//37 17//33 7//33
f 7//35 17//35 10//38
f 18//39 8//23 12//23
f 12//24 8//24 18//40
f 13//25 19//41 9//19
f 9//20 19//42 13//26
f 5//9 14//27 13//25
f 13//26 14//28 5//10
f 8//23 18//39 14//39
f 14//40 18//40 8//24
f 15//29 9//19 19//41
f 19//42 9//20 15//30
f 16//31 6//21 15//31
f 15//32 6//22 16//32
f 16//43 20//37 10//37
f 10//38 20//38 16//44
f 11//34 17//33 21//34
f 21//36 17//35 11//36
f 21//34 12//45 11//34
f 11//36 12//46 21//36
f 17//33 10//37 20//37
f 20//38 10//38 17//35
f 12//45 22//47 18//47
f 18//48 22//48 12//46
f 23//49 19//41 13//25
f 13//26 19//42 23//50
f 14//27 23//49 13//25
f 13//26 23//50 14//28
f 18//39 24//51 14//39
f 14//40 24//52 18//40
f 25//53 15//29 19//41
f 19//42 15//30 25//54
f 26//55 16//31 15//31
f 15//32 16//32 26//56
f 20//37 16//43 27//43
f 27//44 16//44 20//38
f 12//45 21//34 28//45
f 28//46 21//36 12//46
f 22//47 12//45 28//45
f 28//46 12//46 22//48
f 22//47 29//57 18//47
f 18//48 29//58 22//48
f 23//49 25//53 19//41
f 19//42 25//54 23//50
f 23//49 14//27 24//59
f 24//60 14//28 23//50
f 24//51 18//39 29//51
f 29//52 18//40 24//52
f 15//29 25//53 26//61
f 26//62 25//54 15//30
f 16//31 26//55 30//55
f 30//56 26//56 16//32
f 16//43 31//63 27//43
f 27//44 31//64 16//44
f 29//57 22//47 32//57
f 32//58 22//48 29//58
f 33//65 25//53 23//49
f 23//50 25//54 33//66
f 24//59 33//65 23//49
f 23//50 33//66 24//60
f 29//51 34//67 24//51
f 24//52 34//68 29//52
f 35//69 26//61 25//53
f 25//54 26//62 35//70
f 36//71 30//55 26//55
f 26//56 30//56 36//72
f 31//63 16//43 30//63
f 30//64 16//44 31//64
f 32//57 37//73 29//57
f 29//58 37//74 32//58
f 33//65 35//69 25//53
f 25//54 35//70 33//66
f 33//65 24//59 34//75
f 34//76 24//60 33//66
f 34//67 29//51 37//67
f 37//68 29//52 34//68
f 26//61 35//69 36//77
f 36//78 35//70 26//62
f 30//55 36//71 38//71
f 38//72 36//72 30//56
f 30//63 39//79 31//63
f 31//64 39//80 30//64
f 37//73 32//57 40//73
f 40//74 32//58 37//74
f 41//81 35//69 33//65
f 33//66 35//70 41//82
f 34//75 41//81 33//65
f 33//66 41//82 34//76
f 37//67 42//83 34//67
f 34//68 42//84 37//68
f 43//85 36//77 35//69
f 35//70 36//78 43//86
f 44//87 38//71 36//71
f 36//72 38//72 44//88
f 39//79 30//63 38//79
f 38//80 30//64 39//80
f 45//89 37//73 40//73
f 40//74 37//74 45//90
f 35//69 41//81 43//85
f 43//86 41//82 35//70
f 41//81 34//75 42//91
f 42//92 34//76 41//82
f 42//83 37//67 46//83
f 46//84 37//68 42//84
f 36//77 43//85 44//93
f 44//94 43//86 36//78
f 38//71 44//87 47//87
f 47//88 44//88 38//72
f 38//79 48//95 39//79
f 39//80 48//96 38//80
f 37//73 45//89 46//89
f 46//90 45//90 37//74
f 42//91 43//85 41//81
f 41//82 43//86 42//92
f 46//83 44//87 42//83
f 42//84 44//88 46//84
f 43//85 42//91 44//93
f 44//94 42//92 43//86
f 44//87 46//83 47//87
f 47//88 46//84 44//88
f 48//95 38//79 47//95
f 47//96 38//80 48//96
f 48//95 46//89 45//89
f 45//90 46//90 48//96
f 46//89 48//95 47//95
f 47//96 48//96 46//90
