# SSTK version 0.8.0
# 4
mtllib original-4.mtl
o mesh1/mesh1-geometry#mesh1-geometry
v 0.011926 -0.718125 0.636487
v 0.028767 -0.747897 0.648819
v 0.011926 -0.747897 0.648819
v 0.028767 -0.718125 0.636487
v 0.028767 -0.777669 0.636487
v 0.028767 -0.705793 0.606715
v 0.037188 -0.747897 0.640398
v 0.011926 -0.777669 0.636487
v 0.011926 -0.705793 0.606715
v 0.037188 -0.724080 0.630532
v 0.028767 -0.790001 0.606715
v 0.037188 -0.771714 0.630532
v 0.011926 -0.718125 0.576943
v 0.037188 -0.714214 0.606715
v 0.011926 -0.790001 0.606715
v 0.028767 -0.718125 0.576943
v 0.011926 -0.777669 0.576943
v 0.037188 -0.781580 0.606715
v 0.011926 -0.747897 0.564611
v 0.037188 -0.724080 0.582898
v 0.028767 -0.777669 0.576943
v 0.037188 -0.771714 0.582898
v 0.028767 -0.747897 0.564611
v 0.037188 -0.747897 0.573032
vn 0 -0.7071067811865474 -0.7071067811865476
vn -0.38994795646757746 0 -0.9208368972009976
vn 0 0 -1
vn -0.3899480006816291 -0.6511300011381751 -0.6511300011381753
vn 0 0 1
vn 0.38994795646757746 0 0.9208368972009976
vn 0 0.7071067811865474 0.7071067811865476
vn 0.3899480006816291 0.6511300011381751 0.6511300011381753
vn -0.38994715274057484 0.6511302550448409 -0.6511302550448406
vn 0.38994715274057484 -0.6511302550448409 0.6511302550448406
vn -0.38994795646757746 -0.9208368972009976 0
vn 0.38994795646757746 0.9208368972009976 0
vn -0.7071097811792554 0 -0.7071037811811121
vn 0.7071097811792554 0 0.7071037811811121
vn 0 0.7071062811861719 -0.7071072811865694
vn 0 -0.7071062811861719 0.7071072811865694
vn 0 -1 0
vn 0 1 0
vn -0.7071098047995369 -0.4999978619736091 -0.4999978619736094
vn 0.7071098047995369 0.4999978619736091 0.4999978619736094
vn -0.3899471085265848 0.9208372562791732 0
vn 0.3899471085265848 -0.9208372562791732 0
vn -0.7071093048034206 0.4999982155270274 -0.4999982155270271
vn 0.7071093048034206 -0.4999982155270274 0.4999982155270271
vn 0 -0.7071072811865696 0.7071062811861717
vn 0 0.7071072811865696 -0.7071062811861717
vn -0.7071097811792554 -0.7071037811811121 0
vn 0.7071097811792554 0.7071037811811121 0
vn -1 0 0
vn 1 0 0
vn -0.38994715274057484 -0.6511302550448409 0.6511302550448406
vn 0.38994715274057484 0.6511302550448409 -0.6511302550448406
vn -0.7071087811831 0.7071047811843378 0
vn 0.7071087811831 -0.7071047811843378 0
vn -0.7071093048034206 -0.4999982155270274 0.4999982155270271
vn 0.7071093048034206 0.4999982155270274 -0.4999982155270271
vn -0.3899471527405749 0.6511302550448407 0.651130255044841
vn 0.3899471527405749 -0.6511302550448407 -0.651130255044841
vn -0.7071080976990113 0.4999990690833761 0.4999990690833764
vn 0.7071080976990113 -0.4999990690833761 -0.4999990690833764
vn -0.3899471085265848 0 0.9208372562791732
vn 0.3899471085265848 0 -0.9208372562791732
vn -0.7071087811831 0 0.7071047811843378
vn 0.7071087811831 0 -0.7071047811843378
usemtl material_0_0
f 1//1 2//2 3//3
f 2//2 1//1 4//4
f 3//5 2//6 1//7
f 4//8 1//7 2//6
f 5//9 3//3 2//2
f 2//6 3//5 5//10
f 1//1 6//11 4//4
f 4//8 6//12 1//7
f 4//4 7//13 2//2
f 2//6 7//14 4//8
f 3//3 5//9 8//15
f 8//16 5//10 3//5
f 7//13 5//9 2//2
f 2//6 5//10 7//14
f 6//11 1//1 9//17
f 9//18 1//7 6//12
f 6//11 10//19 4//4
f 4//8 10//20 6//12
f 7//13 4//4 10//19
f 10//20 4//8 7//14
f 11//21 8//15 5//9
f 5//10 8//16 11//22
f 5//9 7//13 12//23
f 12//24 7//14 5//10
f 13//25 6//11 9//17
f 9//18 6//12 13//26
f 10//19 6//11 14//27
f 14//28 6//12 10//20
f 10//29 12//29 7//29
f 7//30 12//30 10//30
f 8//15 11//21 15//18
f 15//17 11//22 8//16
f 12//23 11//21 5//9
f 5//10 11//22 12//24
f 6//11 13//25 16//31
f 16//32 13//26 6//12
f 16//31 14//27 6//11
f 6//12 14//28 16//32
f 12//29 10//29 14//29
f 14//30 10//30 12//30
f 11//21 17//7 15//18
f 15//17 17//1 11//22
f 11//21 12//23 18//33
f 18//34 12//24 11//22
f 19//5 16//31 13//25
f 13//26 16//32 19//3
f 14//27 16//31 20//35
f 20//36 16//32 14//28
f 12//29 14//29 18//29
f 18//30 14//30 12//30
f 17//7 11//21 21//37
f 21//38 11//22 17//1
f 22//39 11//21 18//33
f 18//34 11//22 22//40
f 16//31 19//5 23//41
f 23//42 19//3 16//32
f 16//31 24//43 20//35
f 20//36 24//44 16//32
f 18//29 14//29 20//29
f 20//30 14//30 18//30
f 11//21 22//39 21//37
f 21//38 22//40 11//22
f 23//41 17//7 21//37
f 21//38 17//1 23//42
f 18//29 20//29 22//29
f 22//30 20//30 18//30
f 17//7 23//41 19//5
f 19//3 23//42 17//1
f 24//43 16//31 23//41
f 23//42 16//32 24//44
f 22//29 20//29 24//29
f 24//30 20//30 22//30
f 24//43 21//37 22//39
f 22//40 21//38 24//44
f 21//37 24//43 23//41
f 23//42 24//44 21//38
