# SSTK version 0.8.0
# 5
mtllib original-5.mtl
o mesh2/mesh2-geometry#mesh2-geometry
v -0.038599 -0.718125 0.636487
v -0.021757 -0.747897 0.648819
v -0.038599 -0.747897 0.648819
v -0.021757 -0.718125 0.636487
v -0.021757 -0.777669 0.636487
v -0.047019 -0.747897 0.640398
v -0.021757 -0.705793 0.606715
v -0.038599 -0.777669 0.636487
v -0.047019 -0.724080 0.630532
v -0.038599 -0.705793 0.606715
v -0.021757 -0.790001 0.606715
v -0.047019 -0.771714 0.630532
v -0.021757 -0.718125 0.576943
v -0.038599 -0.790001 0.606715
v -0.047019 -0.781580 0.606715
v -0.047019 -0.714214 0.606715
v -0.038599 -0.718125 0.576943
v -0.021757 -0.777669 0.576943
v -0.047019 -0.724080 0.582898
v -0.038599 -0.747897 0.564611
v -0.038599 -0.777669 0.576943
v -0.047019 -0.771714 0.582898
v -0.047019 -0.747897 0.573032
v -0.021757 -0.747897 0.564611
vn 0.3899480006816291 -0.6511300011381751 -0.6511300011381753
vn 0 0 -1
vn 0.38994795646757746 0 -0.9208368972009976
vn 0 -0.7071067811865474 -0.7071067811865476
vn -0.38994795646757746 0 0.9208368972009976
vn 0 0 1
vn -0.3899480006816291 0.6511300011381751 0.6511300011381753
vn 0 0.7071067811865474 0.7071067811865476
vn 0 0.7071062811861719 -0.7071072811865694
vn 0 -0.7071062811861719 0.7071072811865694
vn 0.7071097811792554 0 -0.7071037811811121
vn -0.7071097811792554 0 0.7071037811811121
vn 0 -1 0
vn 0 1 0
vn 0.38994715274057484 0.6511302550448409 -0.6511302550448406
vn -0.38994715274057484 -0.6511302550448409 0.6511302550448406
vn 0.7071098047995369 -0.4999978619736091 -0.4999978619736094
vn -0.7071098047995369 0.4999978619736091 0.4999978619736094
vn 0.38994795646757746 -0.9208368972009976 0
vn -0.38994795646757746 0.9208368972009976 0
vn 1 0 0
vn -1 0 0
vn 0.7071093048034206 0.4999982155270274 -0.4999982155270271
vn -0.7071093048034206 -0.4999982155270274 0.4999982155270271
vn 0 -0.7071072811865696 0.7071062811861717
vn 0 0.7071072811865696 -0.7071062811861717
vn 0.3899471085265848 0.9208372562791732 0
vn -0.3899471085265848 -0.9208372562791732 0
vn 0.7071097811792554 -0.7071037811811121 0
vn -0.7071097811792554 0.7071037811811121 0
vn 0.38994715274057484 -0.6511302550448409 0.6511302550448406
vn -0.38994715274057484 0.6511302550448409 -0.6511302550448406
vn 0.7071087811831 0.7071047811843378 0
vn -0.7071087811831 -0.7071047811843378 0
vn 0.7071093048034206 -0.4999982155270274 0.4999982155270271
vn -0.7071093048034206 0.4999982155270274 -0.4999982155270271
vn 0.3899471085265848 0 0.9208372562791732
vn -0.3899471085265848 0 -0.9208372562791732
vn 0.3899471527405749 0.6511302550448407 0.651130255044841
vn -0.3899471527405749 -0.6511302550448407 -0.651130255044841
vn 0.7071087811831 0 0.7071047811843378
vn -0.7071087811831 0 -0.7071047811843378
vn 0.7071080976990113 0.4999990690833761 0.4999990690833764
vn -0.7071080976990113 -0.4999990690833761 -0.4999990690833764
usemtl material_0_0
f 1//1 2//2 3//3
f 2//2 1//1 4//4
f 3//5 2//6 1//7
f 4//8 1//7 2//6
f 5//9 3//3 2//2
f 2//6 3//5 5//10
f 6//11 1//1 3//3
f 3//5 1//7 6//12
f 1//1 7//13 4//4
f 4//8 7//14 1//7
f 3//3 5//9 8//15
f 8//16 5//10 3//5
f 1//1 6//11 9//17
f 9//18 6//12 1//7
f 8//15 6//11 3//3
f 3//5 6//12 8//16
f 7//13 1//1 10//19
f 10//20 1//7 7//14
f 11//14 8//15 5//9
f 5//10 8//16 11//13
f 12//21 9//21 6//21
f 6//22 9//22 12//22
f 9//17 10//19 1//1
f 1//7 10//20 9//18
f 6//11 8//15 12//23
f 12//24 8//16 6//12
f 10//19 13//25 7//13
f 7//14 13//26 10//20
f 8//15 11//14 14//27
f 14//28 11//13 8//16
f 9//21 12//21 15//21
f 15//22 12//22 9//22
f 10//19 9//17 16//29
f 16//30 9//18 10//20
f 14//27 12//23 8//15
f 8//16 12//24 14//28
f 13//25 10//19 17//31
f 17//32 10//20 13//26
f 18//8 14//27 11//14
f 11//13 14//28 18//4
f 12//23 14//27 15//33
f 15//34 14//28 12//24
f 9//21 15//21 16//21
f 16//22 15//22 9//22
f 19//35 10//19 16//29
f 16//30 10//20 19//36
f 10//19 19//35 17//31
f 17//32 19//36 10//20
f 20//37 13//25 17//31
f 17//32 13//26 20//38
f 14//27 18//8 21//39
f 21//40 18//4 14//28
f 21//39 15//33 14//27
f 14//28 15//34 21//40
f 16//21 15//21 22//21
f 22//22 15//22 16//22
f 16//21 22//21 19//21
f 19//22 22//22 16//22
f 23//41 17//31 19//35
f 19//36 17//32 23//42
f 13//25 20//37 24//6
f 24//2 20//38 13//26
f 17//31 23//41 20//37
f 20//38 23//42 17//32
f 24//6 21//39 18//8
f 18//4 21//40 24//2
f 15//33 21//39 22//43
f 22//44 21//40 15//34
f 19//21 22//21 23//21
f 23//22 22//22 19//22
f 21//39 24//6 20//37
f 20//38 24//2 21//40
f 23//41 21//39 20//37
f 20//38 21//40 23//42
f 21//39 23//41 22//43
f 22//44 23//42 21//40
