# SSTK version 0.8.0
# 17
mtllib original-17.mtl
o mesh2/mesh2-geometry#mesh2-geometry
v 0.381620 -0.718125 -0.449475
v 0.375243 -0.747897 -0.469351
v 0.388868 -0.747897 -0.459452
v 0.367995 -0.718125 -0.459375
v 0.367995 -0.777669 -0.459375
v 0.390731 -0.747897 -0.447690
v 0.350495 -0.705793 -0.435289
v 0.381620 -0.777669 -0.449475
v 0.384932 -0.724080 -0.439709
v 0.364120 -0.705793 -0.425389
v 0.350495 -0.790001 -0.435289
v 0.384932 -0.771714 -0.439709
v 0.332996 -0.718125 -0.411203
v 0.364120 -0.790001 -0.425389
v 0.370933 -0.781580 -0.420440
v 0.370933 -0.714214 -0.420440
v 0.346621 -0.718125 -0.401303
v 0.332996 -0.777669 -0.411203
v 0.356933 -0.724080 -0.401171
v 0.339372 -0.747897 -0.391327
v 0.346621 -0.777669 -0.401303
v 0.356933 -0.771714 -0.401171
v 0.351134 -0.747897 -0.393190
v 0.325747 -0.747897 -0.401226
vn -0.698199152297878 -0.651129947224446 0.297569715458436
vn -0.5877850844899972 0 0.8090171162905558
vn -0.8567287646675898 0 0.5157672186084972
vn -0.41562684899491087 -0.7071067303657135 0.5720615301399592
vn 0.8567287646675898 0 -0.5157672186084972
vn 0.5877850844899972 0 -0.8090171162905558
vn 0.698199152297878 0.651129947224446 -0.297569715458436
vn 0.41562684899491087 0.7071067303657135 -0.5720615301399592
vn -0.415627142887445 0.7071062303653017 0.5720619346485065
vn 0.415627142887445 -0.7071062303653017 -0.5720619346485065
vn -0.9876889718352234 0 0.15643047949513944
vn 0.9876889718352234 0 -0.15643047949513944
vn 0 -1 0
vn 0 1 0
vn -0.6981986155416027 0.6511302011311214 0.2975704192804359
vn 0.6981986155416027 -0.6511302011311214 -0.2975704192804359
vn -0.8659552518431609 -0.49999780807005445 -0.011121768312134241
vn 0.8659552518431609 0.49999780807005445 0.011121768312134241
vn -0.31547460969658514 -0.9208368770738222 -0.2292056204758458
vn 0.31547460969658514 0.9208368770738222 0.2292056204758458
vn -0.8090171162905558 0 -0.5877850844899972
vn 0.8090171162905558 0 0.5877850844899972
vn -0.8659550551512073 0.49999816162345967 -0.01112118839108767
vn 0.8659550551512073 -0.49999816162345967 0.01112118839108767
vn 0.415626555102169 -0.7071072303657714 -0.5720611256311268
vn -0.415626555102169 0.7071072303657714 0.5720611256311268
vn -0.31547392369775495 0.9208372361520778 -0.22920512206873847
vn 0.31547392369775495 -0.9208372361520778 0.22920512206873847
vn -0.5720639571852344 -0.7071037303600622 -0.41562861234575155
vn 0.5720639571852344 0.7071037303600622 0.41562861234575155
vn 0.06725073505808103 -0.6511302011311213 -0.7559806874577506
vn -0.06725073505808103 0.6511302011311213 0.7559806874577506
vn -0.5720631481712868 0.7071047303633603 -0.41562802456296893
vn 0.5720631481712868 -0.7071047303633603 0.41562802456296893
vn -0.27817204731213147 -0.49999816162345945 -0.8201354464156138
vn 0.27817204731213147 0.49999816162345945 0.8201354464156138
vn 0.22578051923757297 0 -0.9741781957798131
vn -0.22578051923757297 0 0.9741781957798131
vn 0.06725073505808103 0.6511302011311216 -0.7559806874577504
vn -0.06725073505808103 -0.6511302011311216 0.7559806874577504
vn -0.15643746350476426 0 -0.9876878656803452
vn 0.15643746350476426 0 0.9876878656803452
vn -0.2781705690362935 0.4999990151797782 -0.8201354274394422
vn 0.2781705690362935 -0.4999990151797782 0.8201354274394422
usemtl material_0_0
f 1//1 2//2 3//3
f 2//2 1//1 4//4
f 3//5 2//6 1//7
f 4//8 1//7 2//6
f 5//9 3//3 2//2
f 2//6 3//5 5//10
f 6//11 1//1 3//3
f 3//5 1//7 6//12
f 1//1 7//13 4//4
f 4//8 7//14 1//7
f 3//3 5//9 8//15
f 8//16 5//10 3//5
f 1//1 6//11 9//17
f 9//18 6//12 1//7
f 8//15 6//11 3//3
f 3//5 6//12 8//16
f 7//13 1//1 10//19
f 10//20 1//7 7//14
f 11//14 8//15 5//9
f 5//10 8//16 11//13
f 12//21 9//21 6//21
f 6//22 9//22 12//22
f 9//17 10//19 1//1
f 1//7 10//20 9//18
f 6//11 8//15 12//23
f 12//24 8//16 6//12
f 10//19 13//25 7//13
f 7//14 13//26 10//20
f 8//15 11//14 14//27
f 14//28 11//13 8//16
f 9//21 12//21 15//21
f 15//22 12//22 9//22
f 10//19 9//17 16//29
f 16//30 9//18 10//20
f 14//27 12//23 8//15
f 8//16 12//24 14//28
f 13//25 10//19 17//31
f 17//32 10//20 13//26
f 18//8 14//27 11//14
f 11//13 14//28 18//4
f 12//23 14//27 15//33
f 15//34 14//28 12//24
f 9//21 15//21 16//21
f 16//22 15//22 9//22
f 19//35 10//19 16//29
f 16//30 10//20 19//36
f 10//19 19//35 17//31
f 17//32 19//36 10//20
f 20//37 13//25 17//31
f 17//32 13//26 20//38
f 14//27 18//8 21//39
f 21//40 18//4 14//28
f 21//39 15//33 14//27
f 14//28 15//34 21//40
f 16//21 15//21 22//21
f 22//22 15//22 16//22
f 16//21 22//21 19//21
f 19//22 22//22 16//22
f 23//41 17//31 19//35
f 19//36 17//32 23//42
f 13//25 20//37 24//6
f 24//2 20//38 13//26
f 17//31 23//41 20//37
f 20//38 23//42 17//32
f 24//6 21//39 18//8
f 18//4 21//40 24//2
f 15//33 21//39 22//43
f 22//44 21//40 15//34
f 19//21 22//21 23//21
f 23//22 22//22 19//22
f 21//39 24//6 20//37
f 20//38 24//2 21//40
f 23//41 21//39 20//37
f 20//38 21//40 23//42
f 21//39 23//41 22//43
f 22//44 23//42 21//40
