# SSTK version 0.8.0
# 30
mtllib original-30.mtl
o mesh3/mesh3-geometry#mesh3-geometry
v -0.503177 -0.739005 0.218121
v -0.515512 -0.731288 0.191140
v -0.521392 -0.739005 0.162061
v -0.511750 -0.718509 0.220907
v -0.529965 -0.718509 0.164846
v -0.522418 -0.761370 0.162394
v -0.516271 -0.722877 0.200777
v -0.521791 -0.722877 0.183788
v -0.504203 -0.761370 0.218454
v -0.517852 -0.718509 0.202128
v -0.515512 -0.683899 0.191140
v -0.523864 -0.718509 0.183625
v -0.523622 -0.712677 0.207056
v -0.516271 -0.683899 0.200777
v -0.521791 -0.683899 0.183788
v -0.546337 -0.704189 0.170166
v -0.528122 -0.704189 0.226226
v -0.523622 -0.683899 0.207056
v -0.533259 -0.705248 0.206297
v -0.538779 -0.705248 0.189308
v -0.531428 -0.683899 0.183030
v -0.531428 -0.712677 0.183030
v -0.535419 -0.704189 0.203769
v -0.539040 -0.704189 0.192623
v -0.533259 -0.683899 0.206297
v -0.538779 -0.683899 0.189308
v -0.548850 -0.699057 0.232961
v -0.539538 -0.703618 0.198946
v -0.539538 -0.703061 0.198946
v -0.567065 -0.699057 0.176901
v -0.539538 -0.683899 0.198946
v -0.587794 -0.704189 0.183636
v -0.569579 -0.704189 0.239696
v -0.604165 -0.718509 0.188955
v -0.585950 -0.718509 0.245016
v -0.594524 -0.739005 0.247801
v -0.612739 -0.739005 0.191741
v -0.593498 -0.761370 0.247468
v -0.611713 -0.761370 0.191408
vn -0.9351614164876748 -0.18206305758536728 0.3038522143665119
vn -0.8705688119463738 -0.40261326354365096 0.2828648152121612
vn -0.7596134100780517 -0.60172310331519 0.24681323742119463
vn 0.9351614164876748 0.18206305758536728 -0.3038522143665119
vn 0.8705688119463738 0.40261326354365096 -0.2828648152121612
vn 0.7596134100780517 0.60172310331519 -0.24681323742119463
vn -0.9499519321993244 0.04818299932505098 0.3086579418819677
vn 0.9499519321993244 -0.04818299932505098 -0.3086579418819677
vn 0.9510565608316645 0 -0.3090168573056277
vn 0.8910064587577912 0 0.4539906281542611
vn -0.9510565608316645 0 0.3090168573056277
vn -0.8910064587577912 0 -0.4539906281542611
vn 0.4539906281542611 0 -0.8910064587577912
vn -0.4539906281542611 0 0.8910064587577912
vn -0.6082052306290828 -0.7687871081306403 0.19761776187263969
vn 0.6082052306290828 0.7687871081306403 -0.19761776187263969
vn 0.6494484924729426 0 0.7604055862660546
vn -0.6494484924729426 0 -0.7604055862660546
vn 0.07845996537163473 0 -0.9969172652902956
vn -0.07845996537163473 0 0.9969172652902956
vn -0.4244097242230858 -0.8949079554551281 0.13789901104796567
vn 0.4244097242230858 0.8949079554551281 -0.13789901104796567
vn 0.30901590624891234 0 0.9510568698480462
vn -0.30901590624891234 0 -0.9510568698480462
vn -0.309017808362034 0 -0.9510562518143315
vn 0.309017808362034 0 0.9510562518143315
vn -0.45399125819110725 0 0.891006137737589
vn 0.45399125819110725 0 -0.891006137737589
vn -0.7604055862660546 0 0.6494484924729426
vn 0.7604055862660546 0 -0.6494484924729426
vn -0.8910067797775479 0 -0.45398999811718793
vn 0.8910067797775479 0 0.45398999811718793
vn -0.9969172652902956 0 -0.07845996537163473
vn 0.9969172652902956 0 0.07845996537163473
vn -9.510561216630562e-7 -1 3.090167143891223e-7
vn 9.510561216630562e-7 1 -3.090167143891223e-7
vn -0.21801336398655932 -0.9733716251823107 0.07083680126326222
vn 0.21801336398655932 0.9733716251823107 -0.07083680126326222
vn 0.4244097242230857 -0.8949079554551279 -0.13789901104796604
vn -0.4244097242230857 0.8949079554551279 0.13789901104796604
vn 0.7596154700038257 -0.6017202283245002 -0.24681390673132347
vn -0.7596154700038257 0.6017202283245002 0.24681390673132347
vn 0.9351617570027918 -0.18206112387761322 -0.3038523250065261
vn -0.9351617570027918 0.18206112387761322 0.3038523250065261
vn 0.9499519321993244 0.04818299932505113 -0.3086579418819677
vn -0.9499519321993244 -0.04818299932505113 0.3086579418819677
usemtl material_0_0
f 1//1 2//2 3//1
f 2//2 1//1 4//3
f 3//4 2//5 1//4
f 4//6 1//4 2//5
f 2//2 5//3 3//1
f 3//4 5//6 2//5
f 6//7 1//1 3//1
f 3//4 1//4 6//8
f 2//2 4//3 7//2
f 7//5 4//6 2//5
f 5//3 2//2 8//2
f 8//5 2//5 5//6
f 1//1 6//7 9//7
f 9//8 6//8 1//4
f 7//2 4//3 10//3
f 10//6 4//6 7//5
f 11//9 7//10 2//9
f 2//11 7//12 11//11
f 7//2 8//2 2//2
f 2//5 8//5 7//5
f 8//13 11//9 2//9
f 2//11 11//11 8//14
f 5//3 8//2 12//3
f 12//6 8//5 5//6
f 4//3 13//15 10//3
f 10//6 13//16 4//6
f 14//10 10//17 7//10
f 7//12 10//18 14//12
f 12//3 7//2 10//3
f 10//6 7//5 12//6
f 7//10 11//9 14//10
f 14//12 11//11 7//12
f 8//2 7//2 12//3
f 12//6 7//5 8//5
f 11//9 8//13 15//13
f 15//14 8//14 11//11
f 12//19 15//13 8//13
f 8//14 15//14 12//20
f 12//3 16//21 5//3
f 5//6 16//22 12//6
f 17//21 13//15 4//3
f 4//6 13//16 17//22
f 10//17 18//23 13//23
f 13//24 18//24 10//18
f 19//15 10//3 13//15
f 13//16 10//6 19//16
f 18//23 10//17 14//10
f 14//12 10//18 18//24
f 20//15 12//3 10//3
f 10//6 12//6 20//16
f 12//19 21//25 15//13
f 15//14 21//26 12//20
f 16//21 12//3 22//15
f 22//16 12//6 16//22
f 17//21 19//15 13//15
f 13//16 19//16 17//22
f 18//23 19//27 13//23
f 13//24 19//28 18//24
f 23//21 10//3 19//15
f 19//16 10//6 23//22
f 12//3 20//15 22//15
f 22//16 20//16 12//6
f 20//15 10//3 24//21
f 24//22 10//6 20//16
f 21//25 12//19 22//25
f 22//26 12//20 21//26
f 20//15 16//21 22//15
f 22//16 16//22 20//16
f 19//15 17//21 23//21
f 23//22 17//22 19//16
f 19//27 18//23 25//27
f 25//28 18//24 19//28
f 24//21 10//3 23//21
f 23//22 10//6 24//22
f 25//27 23//29 19//27
f 19//28 23//30 25//28
f 20//31 21//25 22//25
f 22//26 21//26 20//32
f 16//21 20//15 24//21
f 24//22 20//16 16//22
f 24//33 26//31 20//31
f 20//32 26//32 24//34
f 27//35 23//21 17//21
f 17//22 23//22 27//36
f 23//21 28//37 24//21
f 24//22 28//38 23//22
f 23//29 25//27 28//11
f 28//9 25//28 23//30
f 21//25 20//31 26//31
f 26//32 20//32 21//26
f 27//35 16//21 24//21
f 24//22 16//22 27//36
f 26//31 24//33 28//11
f 28//9 24//34 26//32
f 27//35 28//37 23//21
f 23//22 28//38 27//36
f 27//35 24//21 28//37
f 28//38 24//22 27//36
f 28//11 25//27 29//11
f 29//9 25//28 28//9
f 16//21 27//35 30//35
f 30//36 27//36 16//22
f 26//31 28//11 29//11
f 29//9 28//9 26//32
f 29//11 25//27 31//11
f 31//9 25//28 29//9
f 27//35 32//39 30//35
f 30//36 32//40 27//36
f 26//31 29//11 31//11
f 31//9 29//9 26//32
f 32//39 27//35 33//39
f 33//40 27//36 32//40
f 33//39 34//41 32//39
f 32//40 34//42 33//40
f 34//41 33//39 35//41
f 35//42 33//40 34//42
f 36//43 34//41 35//41
f 35//42 34//42 36//44
f 34//41 36//43 37//43
f 37//44 36//44 34//42
f 38//45 37//43 36//43
f 36//44 37//44 38//46
f 37//43 38//45 39//45
f 39//46 38//46 37//44
