# SSTK version 0.8.0
# 55
mtllib original-55.mtl
o Obj_000028_1_1/Obj_000028_1/mesh53/mesh53-geometry#mesh53-geometry
v 0.525116 -0.638816 0.246522
v 0.531284 -0.684492 0.244135
v 0.529377 -0.684492 0.247899
v 0.527631 -0.638816 0.241558
v 0.524225 -0.638816 0.251918
v 0.534424 -0.684492 0.240951
v 0.528701 -0.684492 0.251990
v 0.531772 -0.638816 0.237358
v 0.529382 -0.684492 0.256505
v 0.538467 -0.684492 0.238923
v 0.525122 -0.638816 0.257873
v 0.537105 -0.638816 0.234684
v 0.531259 -0.684492 0.260221
v 0.542533 -0.684492 0.238295
v 0.527598 -0.638816 0.262774
v 0.542469 -0.638816 0.233855
v 0.534476 -0.684492 0.263475
v 0.547021 -0.684492 0.239026
v 0.531842 -0.638816 0.267067
v 0.548387 -0.638816 0.234819
v 0.536715 -0.638816 0.269556
v 0.550715 -0.684492 0.240913
v 0.538171 -0.684492 0.265362
v 0.553260 -0.638816 0.237308
v 0.542634 -0.638816 0.270520
v 0.557504 -0.638816 0.241600
v 0.542658 -0.684492 0.266093
v 0.553932 -0.684492 0.244167
v 0.547997 -0.638816 0.269691
v 0.559980 -0.638816 0.246502
v 0.546724 -0.684492 0.265465
v 0.555810 -0.684492 0.247883
v 0.553330 -0.638816 0.267017
v 0.556490 -0.684492 0.252398
v 0.550768 -0.684492 0.263437
v 0.560877 -0.638816 0.252457
v 0.557471 -0.638816 0.262817
v 0.555815 -0.684492 0.256489
v 0.553908 -0.684492 0.260253
v 0.559986 -0.638816 0.257852
vn -0.9458649635118408 -0.09756799623616819 -0.30954798805872225
vn -0.807866335876154 -0.0974030404960042 -0.5812612416634804
vn 0.9458649635118408 0.09756799623616819 0.30954798805872225
vn 0.807866335876154 0.0974030404960042 0.5812612416634804
vn -0.9952065929391898 -0.09754496010202228 -0.006986997142168556
vn 0.9952065929391898 0.09754496010202228 0.006986997142168556
vn -0.5852148372555803 -0.09728897294457259 -0.8050207761289859
vn 0.5852148372555803 0.09728897294457259 0.8050207761289859
vn -0.948200332434828 -0.09748003417606739 0.3023471060015534
vn 0.948200332434828 0.09748003417606739 -0.3023471060015534
vn -0.3027471158318255 -0.09702503712202865 -0.9481193627529079
vn 0.3027471158318255 0.09702503712202865 0.9481193627529079
vn -0.8078641332063042 -0.09724301603411062 0.5812910958473527
vn 0.8078641332063042 0.09724301603411062 -0.5812910958473527
vn 0.004038000819524464 -0.09674301963428784 -0.9953012019993854
vn -0.004038000819524464 0.09674301963428784 0.9953012019993854
vn -0.5877272849202654 -0.09705704705161801 0.8032163893857451
vn 0.5877272849202654 0.09705704705161801 -0.8032163893857451
vn 0.3101189407854299 -0.09638898159534483 -0.9457988194077719
vn -0.3101189407854299 0.09638898159534483 0.9457988194077719
vn -0.31010406794303347 -0.09671702119046008 0.9457702072159108
vn 0.31010406794303347 0.09671702119046008 -0.9457702072159108
vn 0.5877816790357301 -0.0961509474957797 -0.8032855613576044
vn -0.5877816790357301 0.0961509474957797 0.8032855613576044
vn -0.004033001607066768 -0.09646303843850297 0.9953283966175432
vn 0.004033001607066768 0.09646303843850297 -0.9953283966175432
vn 0.8079759062647005 -0.09584498888078373 -0.5813679325540565
vn -0.8079759062647005 0.09584498888078373 0.5813679325540565
vn 0.3027740844988088 -0.09616602683821104 0.9481982646251049
vn -0.3027740844988088 0.09616602683821104 -0.9481982646251049
vn 0.9483627352750114 -0.09572997327803465 -0.3023969155892392
vn -0.9483627352750114 0.09572997327803465 0.3023969155892392
vn 0.5852957959460211 -0.09592396655764984 0.8051257193058489
vn -0.5852957959460211 0.09592396655764984 -0.8051257193058489
vn 0.9953938489186355 -0.09561498548751081 0.006989998939054527
vn -0.9953938489186355 0.09561498548751081 -0.006989998939054527
vn 0.8080038638190402 -0.09566998387578242 0.5813579020179476
vn -0.8080038638190402 0.09566998387578242 -0.5813579020179476
vn 0.9460422373071565 -0.095646023992043 0.3096060776622174
vn -0.9460422373071565 0.095646023992043 -0.3096060776622174
usemtl material_0_0
f 1//1 2//2 3//1
f 2//2 1//1 4//2
f 3//3 2//4 1//3
f 4//4 1//3 2//4
f 3//1 5//5 1//1
f 1//3 5//6 3//3
f 4//2 6//7 2//2
f 2//4 6//8 4//4
f 5//5 3//1 7//5
f 7//6 3//3 5//6
f 6//7 4//2 8//7
f 8//8 4//4 6//8
f 9//9 5//5 7//5
f 7//6 5//6 9//10
f 8//7 10//11 6//7
f 6//8 10//12 8//8
f 5//5 9//9 11//9
f 11//10 9//10 5//6
f 10//11 8//7 12//11
f 12//12 8//8 10//12
f 13//13 11//9 9//9
f 9//10 11//10 13//14
f 12//11 14//15 10//11
f 10//12 14//16 12//12
f 11//9 13//13 15//13
f 15//14 13//14 11//10
f 14//15 12//11 16//15
f 16//16 12//12 14//16
f 17//17 15//13 13//13
f 13//14 15//14 17//18
f 16//15 18//19 14//15
f 14//16 18//20 16//16
f 15//13 17//17 19//17
f 19//18 17//18 15//14
f 18//19 16//15 20//19
f 20//20 16//16 18//20
f 17//17 21//21 19//17
f 19//18 21//22 17//18
f 20//19 22//23 18//19
f 18//20 22//24 20//20
f 21//21 17//17 23//21
f 23//22 17//18 21//22
f 22//23 20//19 24//23
f 24//24 20//20 22//24
f 23//21 25//25 21//21
f 21//22 25//26 23//22
f 26//27 22//23 24//23
f 24//24 22//24 26//28
f 25//25 23//21 27//25
f 27//26 23//22 25//26
f 22//23 26//27 28//27
f 28//28 26//28 22//24
f 27//25 29//29 25//25
f 25//26 29//30 27//26
f 30//31 28//27 26//27
f 26//28 28//28 30//32
f 29//29 27//25 31//29
f 31//30 27//26 29//30
f 28//27 30//31 32//31
f 32//32 30//32 28//28
f 31//29 33//33 29//29
f 29//30 33//34 31//30
f 30//31 34//35 32//31
f 32//32 34//36 30//32
f 33//33 31//29 35//33
f 35//34 31//30 33//34
f 34//35 30//31 36//35
f 36//36 30//32 34//36
f 35//33 37//37 33//33
f 33//34 37//38 35//34
f 36//35 38//39 34//35
f 34//36 38//40 36//36
f 37//37 35//33 39//37
f 39//38 35//34 37//38
f 38//39 36//35 40//39
f 40//40 36//36 38//40
f 39//37 40//39 37//37
f 37//38 40//40 39//38
f 40//39 39//37 38//39
f 38//40 39//38 40//40
