# SSTK version 0.8.0
# 22
mtllib original-22.mtl
o Obj_000008_1_1_1/Obj_000008_1_1/mesh51/mesh51-geometry#mesh51-geometry
v 0.012706 -0.645355 0.669105
v 0.041381 -0.645337 0.667417
v 0.012691 -0.645337 0.667734
v 0.037810 -0.645355 0.668828
v 0.041312 -0.645337 0.661158
v 0.012851 -0.647417 0.682278
v 0.041433 -0.645547 0.672079
v 0.034473 -0.645337 0.647606
v 0.037956 -0.647417 0.682001
v 0.041486 -0.646203 0.676857
v 0.041105 -0.645337 0.642382
v 0.026852 -0.645337 0.649407
v 0.012986 -0.652731 0.694426
v 0.040796 -0.645337 0.642385
v 0.019193 -0.645337 0.647775
v 0.038090 -0.652731 0.694149
v 0.041539 -0.647339 0.681692
v 0.012757 -0.645337 0.642694
v 0.013099 -0.660856 0.704739
v 0.041592 -0.648980 0.686514
v 0.012415 -0.645337 0.642698
v 0.038204 -0.660856 0.704462
v 0.041644 -0.651133 0.691246
v 0.038297 -0.672203 0.712908
v 0.041742 -0.656940 0.700117
v 0.041695 -0.653794 0.695807
v 0.013193 -0.672203 0.713185
v 0.041826 -0.664518 0.707695
v 0.041786 -0.660533 0.704102
v 0.038349 -0.683911 0.717601
v 0.041861 -0.668829 0.710841
v 0.013244 -0.683911 0.717879
v 0.041914 -0.678123 0.715655
v 0.041890 -0.673391 0.713502
v 0.038368 -0.697221 0.719338
v 0.041932 -0.682945 0.717295
v 0.013264 -0.697221 0.719615
v 0.041952 -0.692559 0.719088
v 0.041944 -0.687780 0.718432
v 0.041954 -0.697221 0.719298
vn 0.0009286023200624758 0.9964519793651587 0.08415812805064239
vn 0.004263654432874456 0.999803558838302 0.01935626475183192
vn 0.00007336710943666136 0.999978137085097 0.006612107764286104
vn -0.03362330799878119 0.9943046973867922 0.10113180465995152
vn -0.00007336710943666136 -0.999978137085097 -0.006612107764286104
vn -0.004263654432874456 -0.999803558838302 -0.01935626475183192
vn -0.0009286023200624758 -0.9964519793651587 -0.08415812805064239
vn 0.03362330799878119 -0.9943046973867922 -0.10113180465995152
vn 0 1 0
vn 0 -1 0
vn 0.0030895674459360937 0.9599999610493002 0.2799830876291264
vn -0.0030895674459360937 -0.9599999610493002 -0.2799830876291264
vn -0.028814144055277276 0.995449049581202 0.09083465632809673
vn 0.028814144055277276 -0.995449049581202 -0.09083465632809673
vn -0.034344452827072915 0.9597394325171037 0.2787842897864889
vn 0.034344452827072915 -0.9597394325171037 -0.2787842897864889
vn -0.061289081257722346 0.9828822728399256 0.17374143505682957
vn 0.061289081257722346 -0.9828822728399256 -0.17374143505682957
vn 0.00567114369520679 0.8578172688078657 0.513923507405725
vn -0.00567114369520679 -0.8578172688078657 -0.513923507405725
vn -0.040304329908167714 0.8593732256932004 0.5097580013617417
vn 0.040304329908167714 -0.8593732256932004 -0.5097580013617417
vn 0.0028813843723413295 0.961231184617722 0.2757286842940176
vn -0.0028813843723413295 -0.961231184617722 -0.2757286842940176
vn 0.007908789885978035 0.6973570950353848 0.7166802167259458
vn -0.007908789885978035 -0.6973570950353848 -0.7166802167259458
vn -0.055853800241039725 0.9236187801737694 0.37922117808602446
vn 0.055853800241039725 -0.9236187801737694 -0.37922117808602446
vn -0.031841427367581866 0.700106125112145 0.7133284917088706
vn 0.031841427367581866 -0.700106125112145 -0.7133284917088706
vn -0.0233917325282347 0.8877121067842204 0.4598043522173845
vn 0.0233917325282347 -0.8877121067842204 -0.4598043522173845
vn -0.03862322179261149 0.49476214153050024 0.8681697242167065
vn 0.03862322179261149 -0.49476214153050024 -0.8681697242167065
vn -0.04669704825534839 0.7782251746684946 0.6262467270943847
vn 0.04669704825534839 -0.7782251746684946 -0.6262467270943847
vn -0.004875620179271596 0.8368068890069797 0.547476445921035
vn 0.004875620179271596 -0.8368068890069797 -0.547476445921035
vn 0.00962680660760316 0.4886941666988949 0.8724020495327902
vn -0.00962680660760316 -0.4886941666988949 -0.8724020495327902
vn -0.06248828471295702 0.6179520228536518 0.7837285957043498
vn 0.06248828471295702 -0.6179520228536518 -0.7837285957043498
vn 0.007255253031184969 0.7071060417223267 0.7070702985299527
vn -0.007255253031184969 -0.7071060417223267 -0.7070702985299527
vn -0.03460886607028053 0.24263816278773673 0.9694993286992628
vn 0.03460886607028053 -0.24263816278773673 -0.9694993286992628
vn -0.03251172172050539 0.5468610146273393 0.8365919068647064
vn 0.03251172172050539 -0.5468610146273393 -0.8365919068647064
vn 0.010675861782707161 0.2527291462213514 0.9674781675187422
vn -0.010675861782707161 -0.2527291462213514 -0.9674781675187422
vn -0.03871302918810397 0.3693021610542867 0.9285026737773645
vn 0.03871302918810397 -0.3693021610542867 -0.9285026737773645
vn 0.005082523127406768 0.4596492035916524 0.8880860192550153
vn -0.005082523127406768 -0.4596492035916524 -0.8880860192550153
vn -0.02558121128769214 0.10117597517376599 0.9945396038754273
vn 0.02558121128769214 -0.10117597517376599 -0.9945396038754273
vn 0.007735449037650052 0.27573723893011143 0.9612019235807763
vn -0.007735449037650052 -0.27573723893011143 -0.9612019235807763
vn 0.010942130256954086 0.1293490206243651 0.9915387539823934
vn -0.010942130256954086 -0.1293490206243651 -0.9915387539823934
vn -0.05670400167799489 0.10321001268838462 0.9930419676300521
vn 0.05670400167799489 -0.10321001268838462 -0.9930419676300521
vn -0.03048366358410511 0.18258709906859347 0.9827169976693223
vn 0.03048366358410511 -0.18258709906859347 -0.9827169976693223
vn 0.01104315494265976 0.044960007422404545 0.9989277483689647
vn -0.01104315494265976 -0.044960007422404545 -0.9989277483689647
usemtl material_0_0
f 1//1 2//2 3//3
f 2//2 1//1 4//4
f 3//5 2//6 1//7
f 4//8 1//7 2//6
f 5//9 3//3 2//2
f 2//6 3//5 5//10
f 6//11 4//4 1//1
f 1//7 4//8 6//12
f 7//13 2//2 4//4
f 4//8 2//6 7//14
f 5//9 8//9 3//3
f 3//5 8//10 5//10
f 4//4 6//11 9//15
f 9//16 6//12 4//8
f 10//17 7//13 4//4
f 4//8 7//14 10//18
f 11//9 8//9 5//9
f 5//10 8//10 11//10
f 12//9 3//3 8//9
f 8//10 3//5 12//10
f 13//19 9//15 6//11
f 6//12 9//16 13//20
f 9//15 10//17 4//4
f 4//8 10//18 9//16
f 8//9 11//9 14//9
f 14//10 11//10 8//10
f 15//9 3//3 12//9
f 12//10 3//5 15//10
f 9//15 13//19 16//21
f 16//22 13//20 9//16
f 17//23 10//17 9//15
f 9//16 10//18 17//24
f 18//9 3//3 15//9
f 15//10 3//5 18//10
f 19//25 16//21 13//19
f 13//20 16//22 19//26
f 16//21 20//27 9//15
f 9//16 20//28 16//22
f 20//27 17//23 9//15
f 9//16 17//24 20//28
f 3//3 18//9 21//9
f 21//10 18//10 3//5
f 16//21 19//25 22//29
f 22//30 19//26 16//22
f 16//21 23//31 20//27
f 20//28 23//32 16//22
f 19//25 24//33 22//29
f 22//30 24//34 19//26
f 22//29 25//35 16//21
f 16//22 25//36 22//30
f 26//37 23//31 16//21
f 16//22 23//32 26//38
f 24//33 19//25 27//39
f 27//40 19//26 24//34
f 28//41 22//29 24//33
f 24//34 22//30 28//42
f 29//43 25//35 22//29
f 22//30 25//36 29//44
f 25//35 26//37 16//21
f 16//22 26//38 25//36
f 27//39 30//45 24//33
f 24//34 30//46 27//40
f 29//43 22//29 28//41
f 28//42 22//30 29//44
f 28//41 24//33 31//47
f 31//48 24//34 28//42
f 30//45 27//39 32//49
f 32//50 27//40 30//46
f 33//51 24//33 30//45
f 30//46 24//34 33//52
f 31//47 24//33 34//53
f 34//54 24//34 31//48
f 32//49 35//55 30//45
f 30//46 35//56 32//50
f 34//53 24//33 33//51
f 33//52 24//34 34//54
f 33//51 30//45 36//57
f 36//58 30//46 33//52
f 35//55 32//49 37//59
f 37//60 32//50 35//56
f 38//61 30//45 35//55
f 35//56 30//46 38//62
f 36//57 30//45 39//63
f 39//64 30//46 36//58
f 39//63 30//45 38//61
f 38//62 30//46 39//64
f 38//61 35//55 40//65
f 40//66 35//56 38//62
