# SSTK version 0.8.0
# 32
mtllib original-32.mtl
o Obj_000008_1_1_1/Obj_000008_1_1/mesh51/mesh51-geometry#mesh51-geometry
v -0.530673 -0.644716 0.254646
v -0.520455 -0.644697 0.281492
v -0.529368 -0.644697 0.254220
v -0.522873 -0.644716 0.278509
v -0.514505 -0.644697 0.279548
v -0.543194 -0.646778 0.258738
v -0.524886 -0.644907 0.282940
v -0.503631 -0.644697 0.268956
v -0.535395 -0.646778 0.282602
v -0.529429 -0.645564 0.284425
v -0.496657 -0.644697 0.273714
v -0.507636 -0.644697 0.262227
v -0.554742 -0.652091 0.262513
v -0.496753 -0.644697 0.273421
v -0.508378 -0.644697 0.254432
v -0.546942 -0.652091 0.286376
v -0.534025 -0.646700 0.285927
v -0.505464 -0.644697 0.246767
v -0.564545 -0.660217 0.265717
v -0.538608 -0.648340 0.287425
v -0.505570 -0.644697 0.246442
v -0.556745 -0.660217 0.289580
v -0.543106 -0.650494 0.288895
v -0.564774 -0.671564 0.292204
v -0.551539 -0.656301 0.291652
v -0.547441 -0.653155 0.290312
v -0.572573 -0.671564 0.268341
v -0.558742 -0.663879 0.294006
v -0.555327 -0.659894 0.292890
v -0.569236 -0.683272 0.293662
v -0.561733 -0.668190 0.294983
v -0.577035 -0.683272 0.269799
v -0.566309 -0.677483 0.296479
v -0.564262 -0.672751 0.295810
v -0.570886 -0.696582 0.294202
v -0.567868 -0.682305 0.296989
v -0.578685 -0.696582 0.270338
v -0.569572 -0.691920 0.297546
v -0.568948 -0.687141 0.297342
v -0.569772 -0.696582 0.297611
vn -0.07999891573483892 0.9964519744406886 0.026146435980901463
vn -0.017183992206389068 0.9998035585642754 0.009876977982266586
vn -0.006285205425986969 0.9999781370545912 0.002054654613949119
vn -0.1065609426166921 0.9943046895075232 -0.0017175366052051243
vn 0.006285205425986969 -0.9999781370545912 -0.002054654613949119
vn 0.017183992206389068 -0.9998035585642754 -0.009876977982266586
vn 0.07999891573483892 -0.9964519744406886 -0.026146435980901463
vn 0.1065609426166921 -0.9943046895075232 0.0017175366052051243
vn 0 1 0
vn 0 -1 0
vn -0.26614585014371006 0.9599999085388439 0.08698598770315372
vn 0.26614585014371006 -0.9599999085388439 -0.08698598770315372
vn -0.09529508620935043 0.9954490432742443 -0.0002208817424108577
vn 0.09529508620935043 -0.9954490432742443 0.0002208817424108577
vn -0.2762384107448036 0.9597393796860023 0.050918204103369266
vn 0.2762384107448036 -0.9597393796860023 -0.050918204103369266
vn -0.1841266544676995 0.9828822495642308 -0.006313367254447323
vn 0.1841266544676995 -0.9828822495642308 0.006313367254447323
vn -0.4885244509625394 0.8578171107185031 0.15966735849981697
vn 0.4885244509625394 -0.8578171107185031 -0.15966735849981697
vn -0.49835087342438467 0.8593730689190615 0.11456149167057429
vn 0.49835087342438467 -0.8593730689190615 -0.11456149167057429
vn -0.2621501032863438 0.9612311336262821 0.08551041512290693
vn 0.2621501032863438 -0.9612311336262821 -0.08551041512290693
vn -0.6812603595843105 0.6973568451062742 0.2226606230173618
vn 0.6812603595843105 -0.6973568451062742 -0.2226606230173618
vn -0.37850036641438023 0.9236186854941676 0.06054747253358857
vn 0.37850036641438023 -0.9236186854941676 -0.06054747253358857
vn -0.6899944854118295 0.7001058760742659 0.183737237346025
vn 0.6899944854118295 -0.7001058760742659 -0.183737237346025
vn -0.4456241503683284 0.8877119755041268 0.11570032478375278
vn 0.4456241503683284 -0.8877119755041268 -0.11570032478375278
vn -0.8397314790960043 0.4947618808417866 0.22374477486889954
vn 0.8397314790960043 -0.4947618808417866 -0.22374477486889954
vn -0.6113871093247051 0.7782249605460304 0.1434284258252537
vn 0.6113871093247051 -0.7782249605460304 -0.1434284258252537
vn -0.523695947262921 0.8368067140027409 0.15967804551761908
vn 0.523695947262921 -0.8368067140027409 -0.15967804551761908
vn -0.8292860725336739 0.4886939071727119 0.2710403567624994
vn 0.8292860725336739 -0.4886939071727119 -0.2710403567624994
vn -0.766347262632737 0.6179517563542999 0.17563456343768657
vn 0.766347262632737 -0.6179517563542999 -0.17563456343768657
vn -0.6722897227789709 0.7071057950540105 0.2191527395375432
vn 0.6722897227789709 -0.7071057950540105 -0.2191527395375432
vn -0.9351837221579835 0.24263800346970882 0.2579887692962092
vn 0.9351837221579835 -0.24263800346970882 -0.2579887692962092
vn -0.8077753356000378 0.5468607471927954 0.22009618437397738
vn 0.8077753356000378 -0.5468607471927954 -0.22009618437397738
vn -0.9196632410144782 0.25272898115890935 0.30057875042844506
vn 0.9196632410144782 -0.25272898115890935 -0.30057875042844506
vn -0.8973093673366486 0.36930193853880683 0.24176843772788592
vn 0.8973093673366486 -0.36930193853880683 -0.24176843772788592
vn -0.845610836527711 0.4596489506568556 0.2714132555844617
vn 0.845610836527711 -0.4596489506568556 -0.2714132555844617
vn -0.9563596437659239 0.1011759053076687 0.2741161577891552
vn 0.9563596437659239 -0.1011759053076687 -0.2741161577891552
vn -0.9145589878218784 0.27573706117973584 0.29589006554155217
vn 0.9145589878218784 -0.27573706117973584 -0.29589006554155217
vn -0.9425344386614293 0.12934893188974264 0.3080546798153973
vn 0.9425344386614293 -0.12934893188974264 -0.3080546798153973
vn -0.964272780883909 0.10320994144763795 0.24397891718914594
vn 0.964272780883909 -0.10320994144763795 -0.24397891718914594
vn -0.9465536988863631 0.18258697592766898 0.26589112686611666
vn 0.9465536988863631 -0.18258697592766898 -0.26589112686611666
vn -0.9495523927165015 0.04495997611801186 0.31036889991401273
vn 0.9495523927165015 -0.04495997611801186 -0.31036889991401273
usemtl material_0_0
f 1//1 2//2 3//3
f 2//2 1//1 4//4
f 3//5 2//6 1//7
f 4//8 1//7 2//6
f 5//9 3//3 2//2
f 2//6 3//5 5//10
f 6//11 4//4 1//1
f 1//7 4//8 6//12
f 7//13 2//2 4//4
f 4//8 2//6 7//14
f 5//9 8//9 3//3
f 3//5 8//10 5//10
f 4//4 6//11 9//15
f 9//16 6//12 4//8
f 10//17 7//13 4//4
f 4//8 7//14 10//18
f 11//9 8//9 5//9
f 5//10 8//10 11//10
f 12//9 3//3 8//9
f 8//10 3//5 12//10
f 13//19 9//15 6//11
f 6//12 9//16 13//20
f 9//15 10//17 4//4
f 4//8 10//18 9//16
f 8//9 11//9 14//9
f 14//10 11//10 8//10
f 15//9 3//3 12//9
f 12//10 3//5 15//10
f 9//15 13//19 16//21
f 16//22 13//20 9//16
f 17//23 10//17 9//15
f 9//16 10//18 17//24
f 18//9 3//3 15//9
f 15//10 3//5 18//10
f 19//25 16//21 13//19
f 13//20 16//22 19//26
f 16//21 20//27 9//15
f 9//16 20//28 16//22
f 20//27 17//23 9//15
f 9//16 17//24 20//28
f 3//3 18//9 21//9
f 21//10 18//10 3//5
f 16//21 19//25 22//29
f 22//30 19//26 16//22
f 16//21 23//31 20//27
f 20//28 23//32 16//22
f 19//25 24//33 22//29
f 22//30 24//34 19//26
f 22//29 25//35 16//21
f 16//22 25//36 22//30
f 26//37 23//31 16//21
f 16//22 23//32 26//38
f 24//33 19//25 27//39
f 27//40 19//26 24//34
f 28//41 22//29 24//33
f 24//34 22//30 28//42
f 29//43 25//35 22//29
f 22//30 25//36 29//44
f 25//35 26//37 16//21
f 16//22 26//38 25//36
f 27//39 30//45 24//33
f 24//34 30//46 27//40
f 29//43 22//29 28//41
f 28//42 22//30 29//44
f 28//41 24//33 31//47
f 31//48 24//34 28//42
f 30//45 27//39 32//49
f 32//50 27//40 30//46
f 33//51 24//33 30//45
f 30//46 24//34 33//52
f 31//47 24//33 34//53
f 34//54 24//34 31//48
f 32//49 35//55 30//45
f 30//46 35//56 32//50
f 34//53 24//33 33//51
f 33//52 24//34 34//54
f 33//51 30//45 36//57
f 36//58 30//46 33//52
f 35//55 32//49 37//59
f 37//60 32//50 35//56
f 38//61 30//45 35//55
f 35//56 30//46 38//62
f 36//57 30//45 39//63
f 39//64 30//46 36//58
f 39//63 30//45 38//61
f 38//62 30//46 39//64
f 38//61 35//55 40//65
f 40//66 35//56 38//62
