# SSTK version 0.8.0
# 24
mtllib original-24.mtl
o Obj_000028_1_1/Obj_000028_1/mesh53/mesh53-geometry#mesh53-geometry
v 0.026459 -0.639455 0.613309
v 0.030692 -0.685131 0.618391
v 0.026516 -0.685131 0.617787
v 0.031967 -0.639455 0.614106
v 0.021062 -0.639455 0.614189
v 0.034712 -0.685131 0.620349
v 0.022424 -0.685131 0.618454
v 0.037270 -0.639455 0.616689
v 0.018363 -0.685131 0.620541
v 0.037925 -0.685131 0.623533
v 0.015706 -0.639455 0.616942
v 0.041508 -0.639455 0.620888
v 0.015441 -0.685131 0.623507
v 0.039820 -0.685131 0.627185
v 0.011852 -0.639455 0.620854
v 0.044007 -0.639455 0.625705
v 0.013385 -0.685131 0.627595
v 0.040561 -0.685131 0.631671
v 0.009140 -0.639455 0.626247
v 0.044984 -0.639455 0.631622
v 0.008339 -0.639455 0.631659
v 0.039953 -0.685131 0.635775
v 0.012778 -0.685131 0.631699
v 0.044183 -0.639455 0.637035
v 0.009316 -0.639455 0.637576
v 0.041471 -0.639455 0.642427
v 0.013519 -0.685131 0.636185
v 0.037897 -0.685131 0.639863
v 0.011815 -0.639455 0.642393
v 0.037617 -0.639455 0.646339
v 0.015413 -0.685131 0.639837
v 0.034976 -0.685131 0.642829
v 0.016053 -0.639455 0.646592
v 0.030915 -0.685131 0.644916
v 0.018627 -0.685131 0.643021
v 0.032261 -0.639455 0.649092
v 0.021356 -0.639455 0.649175
v 0.026823 -0.685131 0.645583
v 0.022647 -0.685131 0.644979
v 0.026864 -0.639455 0.649972
vn -0.008872963240533929 -0.0975680295752353 -0.9951893036644527
vn 0.29268901754730225 -0.09740307377978656 -0.9512338199546126
vn 0.008872963240533929 0.0975680295752353 0.9951893036644527
vn -0.29268901754730225 0.09740307377978656 0.9512338199546126
vn -0.31134062993315376 -0.09754499343336911 -0.945278787664735
vn 0.31134062993315376 0.09754499343336911 0.945278787664735
vn 0.5758565876897775 -0.09728900619012215 -0.8117413625588041
vn -0.5758565876897775 0.09728900619012215 0.8117413625588041
vn -0.5894439553579203 -0.09748006748565463 -0.8019061415995031
vn 0.5894439553579203 0.09748006748565463 0.8019061415995031
vn 0.8017016153745846 -0.09702507027910294 -0.5897971309214014
vn -0.8017016153745846 0.09702507027910294 0.5897971309214014
vn -0.8089317020251869 -0.09724304926425549 -0.5798045281199724
vn 0.8089317020251869 0.09724304926425549 0.5798045281199724
vn 0.9444262548350396 -0.09674305269681009 -0.31416529237514945
vn -0.9444262548350396 0.09674305269681009 0.31416529237514945
vn -0.9488934382050344 -0.09705708021942296 -0.3003017917207776
vn 0.9488934382050344 0.09705708021942296 0.3003017917207776
vn 0.9953090416753553 -0.09638901453914614 -0.008310802335383371
vn -0.9953090416753553 0.09638901453914614 0.008310802335383371
vn -0.9952771772973906 -0.09671705424426467 0.008315754280316655
vn 0.9952771772973906 0.09671705424426467 -0.008315754280316655
vn 0.9489763633722444 -0.09615098035974606 0.30033123503333664
vn -0.9489763633722444 0.09615098035974606 -0.30033123503333664
vn -0.9444504269518872 -0.09646307140713978 0.31417871806521014
vn 0.9444504269518872 0.09646307140713978 -0.31417871806521014
vn 0.8090402223905526 -0.09584502164211717 0.5798858942763371
vn -0.8090402223905526 0.09584502164211717 -0.5798858942763371
vn -0.8017677656433041 -0.09616605970723495 0.5898478947455251
vn 0.8017677656433041 0.09616605970723495 -0.5898478947455251
vn 0.5895430409801866 -0.0957300060007816 0.8020441189753368
vn -0.5895430409801866 0.0957300060007816 -0.8020441189753368
vn -0.5759301649816908 -0.09592399934547763 0.8118516067691995
vn 0.5759301649816908 0.09592399934547763 -0.8118516067691995
vn 0.3113976124582884 -0.09561501817167796 0.9454571884835966
vn -0.3113976124582884 0.09561501817167796 -0.9454571884835966
vn -0.2927366726380705 -0.09567001657840236 0.9513950222807975
vn 0.2927366726380705 0.09567001657840236 -0.9513950222807975
vn 0.008874555908516586 -0.09564605668662415 0.9953758456471231
vn -0.008874555908516586 0.09564605668662415 -0.9953758456471231
usemtl material_0_0
f 1//1 2//2 3//1
f 2//2 1//1 4//2
f 3//3 2//4 1//3
f 4//4 1//3 2//4
f 3//1 5//5 1//1
f 1//3 5//6 3//3
f 4//2 6//7 2//2
f 2//4 6//8 4//4
f 5//5 3//1 7//5
f 7//6 3//3 5//6
f 6//7 4//2 8//7
f 8//8 4//4 6//8
f 9//9 5//5 7//5
f 7//6 5//6 9//10
f 8//7 10//11 6//7
f 6//8 10//12 8//8
f 5//5 9//9 11//9
f 11//10 9//10 5//6
f 10//11 8//7 12//11
f 12//12 8//8 10//12
f 13//13 11//9 9//9
f 9//10 11//10 13//14
f 12//11 14//15 10//11
f 10//12 14//16 12//12
f 11//9 13//13 15//13
f 15//14 13//14 11//10
f 14//15 12//11 16//15
f 16//16 12//12 14//16
f 17//17 15//13 13//13
f 13//14 15//14 17//18
f 16//15 18//19 14//15
f 14//16 18//20 16//16
f 15//13 17//17 19//17
f 19//18 17//18 15//14
f 18//19 16//15 20//19
f 20//20 16//16 18//20
f 17//17 21//21 19//17
f 19//18 21//22 17//18
f 20//19 22//23 18//19
f 18//20 22//24 20//20
f 21//21 17//17 23//21
f 23//22 17//18 21//22
f 22//23 20//19 24//23
f 24//24 20//20 22//24
f 23//21 25//25 21//21
f 21//22 25//26 23//22
f 26//27 22//23 24//23
f 24//24 22//24 26//28
f 25//25 23//21 27//25
f 27//26 23//22 25//26
f 22//23 26//27 28//27
f 28//28 26//28 22//24
f 27//25 29//29 25//25
f 25//26 29//30 27//26
f 30//31 28//27 26//27
f 26//28 28//28 30//32
f 29//29 27//25 31//29
f 31//30 27//26 29//30
f 28//27 30//31 32//31
f 32//32 30//32 28//28
f 31//29 33//33 29//29
f 29//30 33//34 31//30
f 30//31 34//35 32//31
f 32//32 34//36 30//32
f 33//33 31//29 35//33
f 35//34 31//30 33//34
f 34//35 30//31 36//35
f 36//36 30//32 34//36
f 35//33 37//37 33//33
f 33//34 37//38 35//34
f 36//35 38//39 34//35
f 34//36 38//40 36//36
f 37//37 35//33 39//37
f 39//38 35//34 37//38
f 38//39 36//35 40//39
f 40//40 36//36 38//40
f 39//37 40//39 37//37
f 37//38 40//40 39//38
f 40//39 39//37 38//39
f 38//40 39//38 40//40
