# SSTK version 0.8.0
# 27
mtllib original-27.mtl
o Obj_000008_1_1_1/Obj_000008_1_1/mesh51/mesh51-geometry#mesh51-geometry
v -0.301541 -0.646213 -0.394490
v -0.324501 -0.646194 -0.377228
v -0.300770 -0.646194 -0.393355
v -0.322306 -0.646213 -0.380379
v -0.320983 -0.646194 -0.372051
v -0.308946 -0.648275 -0.405386
v -0.327121 -0.646404 -0.381084
v -0.307790 -0.646194 -0.364540
v -0.329710 -0.648275 -0.391274
v -0.329808 -0.647061 -0.385037
v -0.310428 -0.646194 -0.356521
v -0.302437 -0.646194 -0.370255
v -0.315775 -0.653588 -0.415434
v -0.310173 -0.646194 -0.356694
v -0.295153 -0.646194 -0.373130
v -0.336539 -0.653588 -0.401322
v -0.332525 -0.648197 -0.389036
v -0.286980 -0.646194 -0.372456
v -0.321571 -0.661714 -0.423964
v -0.335236 -0.649837 -0.393024
v -0.286697 -0.646194 -0.372648
v -0.342336 -0.661714 -0.409852
v -0.337895 -0.651991 -0.396937
v -0.347084 -0.673061 -0.416838
v -0.342882 -0.657798 -0.404276
v -0.340459 -0.654652 -0.400710
v -0.326319 -0.673061 -0.430950
v -0.347142 -0.665376 -0.410543
v -0.345122 -0.661391 -0.407572
v -0.349722 -0.684769 -0.420720
v -0.348910 -0.669687 -0.413145
v -0.328958 -0.684769 -0.434832
v -0.351617 -0.678980 -0.417127
v -0.350406 -0.674248 -0.415346
v -0.350698 -0.698079 -0.422156
v -0.352538 -0.683802 -0.418484
v -0.329933 -0.698079 -0.436268
v -0.353546 -0.693417 -0.419967
v -0.353177 -0.688638 -0.419424
v -0.353664 -0.698079 -0.420140
vn -0.04730668449094978 0.9964519766290149 -0.06960988345488861
vn -0.014255136436107645 0.9998035586860469 -0.013770806944564857
vn -0.003717116620676078 0.9999781370681471 -0.005468860004258559
vn -0.027902024557032033 0.9943046930088968 -0.10285744740222885
vn 0.003717116620676078 -0.9999781370681471 0.005468860004258559
vn 0.014255136436107645 -0.9998035586860469 0.013770806944564857
vn 0.04730668449094978 -0.9964519766290149 0.06960988345488861
vn 0.027902024557032033 -0.9943046930088968 0.10285744740222885
vn 0 1 0
vn 0 -1 0
vn -0.15738333996513865 0.9599999318733333 -0.23158284717269687
vn 0.15738333996513865 -0.9599999318733333 0.23158284717269687
vn -0.02621565121533538 0.9954490460769175 -0.09161842770922778
vn 0.02621565121533538 -0.9954490460769175 0.09161842770922778
vn -0.12552923754465653 0.9597394031629796 -0.2512820895683278
vn 0.12552923754465653 -0.9597394031629796 0.2512820895683278
vn -0.044997504606323915 0.9828822599074367 -0.17865522029443637
vn 0.044997504606323915 -0.9828822599074367 0.17865522029443637
vn -0.2888853469472991 0.8578171809699241 -0.4250822748033032
vn 0.2888853469472991 -0.8578171809699241 0.4250822748033032
vn -0.2482738668498716 0.8593731385860263 -0.44703232066173326
vn 0.2482738668498716 -0.8593731385860263 0.44703232066173326
vn -0.15485751884052254 0.9612311562857542 -0.22815304741359294
vn 0.15485751884052254 -0.9612311562857542 0.22815304741359294
vn -0.40285857166856504 0.6973569561692347 -0.5927885347369193
vn 0.40285857166856504 -0.6973569561692347 0.5927885347369193
vn -0.1631407733598465 0.9236187275676945 -0.34686241386720507
vn 0.1631407733598465 -0.9236187275676945 0.34686241386720507
vn -0.36788414168598293 0.7001059867411831 -0.6119745628905845
vn 0.36788414168598293 -0.7001059867411831 0.6119745628905845
vn -0.23474549844905856 0.8877120338421028 -0.3960579451668918
vn 0.23474549844905856 -0.8877120338421028 0.3960579451668918
vn -0.44784850654241104 0.49476199668606013 -0.7447430978686241
vn 0.44784850654241104 -0.49476199668606013 0.7447430978686241
vn -0.30735648628090284 0.7782250556973171 -0.5476292112606531
vn 0.30735648628090284 -0.7782250556973171 0.5476292112606531
vn -0.2986496127972417 0.8368067917707577 -0.45887122596910485
vn 0.2986496127972417 -0.8368067917707577 0.45887122596910485
vn -0.4903921574637669 0.48869402250038224 -0.7215910782918731
vn 0.4903921574637669 -0.48869402250038224 0.7215910782918731
vn -0.381273968549756 0.6179518747807013 -0.6875795527510514
vn 0.381273968549756 -0.6179518747807013 0.6875795527510514
vn -0.3970004841978431 0.707105904667947 -0.58514259384393
vn 0.3970004841978431 -0.707105904667947 0.58514259384393
vn -0.5072207885241499 0.24263807426709388 -0.8269545553444251
vn 0.5072207885241499 -0.24263807426709388 0.8269545553444251
vn -0.43548072961654716 0.5468608660347698 -0.7150522549662658
vn 0.43548072961654716 -0.5468608660347698 0.7150522549662658
vn -0.5438359596066988 0.2527290545089844 -0.8002315127796806
vn 0.5438359596066988 -0.2527290545089844 0.8002315127796806
vn -0.48113310571624224 0.36930203741973705 -0.7950641104599517
vn 0.48113310571624224 -0.36930203741973705 0.7950641104599517
vn -0.4952777272761224 0.4596490630554586 -0.7371721045294904
vn 0.4952777272761224 -0.4596490630554586 0.7371721045294904
vn -0.5285882480774062 0.10117593635460637 -0.8428273215180124
vn 0.5285882480774062 -0.10117593635460637 0.8428273215180124
vn -0.5379156373978675 0.2757371401680467 -0.7966277653802891
vn 0.5379156373978675 -0.2757371401680467 0.7966277653802891
vn -0.5573614535202108 0.12934897132143278 -0.8201323391672379
vn 0.5573614535202108 -0.12934897132143278 0.8201323391672379
vn -0.5018276454831929 0.1032099731054392 -0.8587879340561146
vn 0.5018276454831929 -0.1032099731054392 0.8587879340561146
vn -0.5179663840019636 0.1825870306487539 -0.8356870235218454
vn 0.5179663840019636 -0.1825870306487539 0.8356870235218454
vn -0.561531168832501 0.044959990028986915 -0.8262332271981069
vn 0.561531168832501 -0.044959990028986915 0.8262332271981069
usemtl material_0_0
f 1//1 2//2 3//3
f 2//2 1//1 4//4
f 3//5 2//6 1//7
f 4//8 1//7 2//6
f 5//9 3//3 2//2
f 2//6 3//5 5//10
f 6//11 4//4 1//1
f 1//7 4//8 6//12
f 7//13 2//2 4//4
f 4//8 2//6 7//14
f 5//9 8//9 3//3
f 3//5 8//10 5//10
f 4//4 6//11 9//15
f 9//16 6//12 4//8
f 10//17 7//13 4//4
f 4//8 7//14 10//18
f 11//9 8//9 5//9
f 5//10 8//10 11//10
f 12//9 3//3 8//9
f 8//10 3//5 12//10
f 13//19 9//15 6//11
f 6//12 9//16 13//20
f 9//15 10//17 4//4
f 4//8 10//18 9//16
f 8//9 11//9 14//9
f 14//10 11//10 8//10
f 15//9 3//3 12//9
f 12//10 3//5 15//10
f 9//15 13//19 16//21
f 16//22 13//20 9//16
f 17//23 10//17 9//15
f 9//16 10//18 17//24
f 18//9 3//3 15//9
f 15//10 3//5 18//10
f 19//25 16//21 13//19
f 13//20 16//22 19//26
f 16//21 20//27 9//15
f 9//16 20//28 16//22
f 20//27 17//23 9//15
f 9//16 17//24 20//28
f 3//3 18//9 21//9
f 21//10 18//10 3//5
f 16//21 19//25 22//29
f 22//30 19//26 16//22
f 16//21 23//31 20//27
f 20//28 23//32 16//22
f 19//25 24//33 22//29
f 22//30 24//34 19//26
f 22//29 25//35 16//21
f 16//22 25//36 22//30
f 26//37 23//31 16//21
f 16//22 23//32 26//38
f 24//33 19//25 27//39
f 27//40 19//26 24//34
f 28//41 22//29 24//33
f 24//34 22//30 28//42
f 29//43 25//35 22//29
f 22//30 25//36 29//44
f 25//35 26//37 16//21
f 16//22 26//38 25//36
f 27//39 30//45 24//33
f 24//34 30//46 27//40
f 29//43 22//29 28//41
f 28//42 22//30 29//44
f 28//41 24//33 31//47
f 31//48 24//34 28//42
f 30//45 27//39 32//49
f 32//50 27//40 30//46
f 33//51 24//33 30//45
f 30//46 24//34 33//52
f 31//47 24//33 34//53
f 34//54 24//34 31//48
f 32//49 35//55 30//45
f 30//46 35//56 32//50
f 34//53 24//33 33//51
f 33//52 24//34 34//54
f 33//51 30//45 36//57
f 36//58 30//46 33//52
f 35//55 32//49 37//59
f 37//60 32//50 35//56
f 38//61 30//45 35//55
f 35//56 30//46 38//62
f 36//57 30//45 39//63
f 39//64 30//46 36//58
f 39//63 30//45 38//61
f 38//62 30//46 39//64
f 38//61 35//55 40//65
f 40//66 35//56 38//62
