mtllib new-0.mtl
v -0.025204 -0.402781 0.113230
v -0.031779 -0.402781 0.059356
v -0.020743 -0.402781 0.085999
v -0.030495 -0.402781 0.069108
v -0.025204 -0.402781 0.005482
v -0.026731 -0.402781 0.078196
v -0.012939 -0.402781 0.091987
v -0.003852 -0.402781 0.095751
v -0.031779 -0.129065 0.059356
v -0.030495 -0.402781 0.049604
v -0.026731 -0.129065 0.078196
v -0.012939 -0.129065 0.091987
v 0.005900 -0.402781 0.097035
v -0.030495 -0.129065 0.069108
v -0.030495 -0.129065 0.049604
v -0.026731 -0.402781 0.040516
v -0.020743 -0.129065 0.085999
v -0.003852 -0.129065 0.095751
v 0.024740 -0.402781 0.091987
v 0.015652 -0.402781 0.095751
v 0.005900 -0.129065 0.097035
v -0.026731 -0.129065 0.040516
v -0.020743 -0.402781 0.032713
v -0.020743 -0.129065 0.032713
v -0.012939 -0.129065 0.026725
v 0.038531 -0.402781 0.078196
v 0.032544 -0.402781 0.085999
v 0.015652 -0.129065 0.095751
v -0.003852 -0.129065 0.022961
v -0.012939 -0.402781 0.026725
v -0.003852 -0.402781 0.022961
v 0.042296 -0.402781 0.069108
v 0.024740 -0.129065 0.091987
v 0.032544 -0.129065 0.085999
v 0.005900 -0.129065 0.021677
v 0.005900 -0.402781 0.021677
v 0.015652 -0.402781 0.022961
v 0.043580 -0.402781 0.059356
v 0.038531 -0.129065 0.078196
v 0.015652 -0.129065 0.022961
v 0.024740 -0.402781 0.026725
v 0.042296 -0.129065 0.069108
v 0.024740 -0.129065 0.026725
v 0.032544 -0.402781 0.032713
v 0.038531 -0.402781 0.040516
v 0.042296 -0.402781 0.049604
v 0.032544 -0.129065 0.032713
v 0.043580 -0.129065 0.059356
v 0.042296 -0.129065 0.049604
v 0.038531 -0.129065 0.040516
vn 0.000000 1.000000 0.000000
vn 0.000000 -1.000000 0.000000
vn -1.000000 0.000000 0.000000
vn -0.965926 0.000000 0.258819
vn 0.965926 0.000000 -0.258819
vn 1.000000 0.000000 0.000000
vn -0.866025 0.000000 0.500000
vn 0.866025 0.000000 -0.500000
vn -0.965926 0.000000 -0.258819
vn 0.965926 0.000000 0.258819
vn -0.707107 0.000000 0.707107
vn 0.707107 0.000000 -0.707107
vn -0.500000 0.000000 0.866025
vn 0.500000 0.000000 -0.866025
vn -0.866025 0.000000 -0.500000
vn 0.866025 0.000000 0.500000
vn -0.258819 0.000000 0.965926
vn 0.258819 0.000000 -0.965926
vn -0.707107 0.000000 -0.707107
vn 0.707107 0.000000 0.707107
vn -0.500000 0.000000 -0.866025
vn 0.500000 0.000000 0.866025
vn 0.000000 0.000000 1.000000
vn 0.000000 0.000000 -1.000000
vn -0.258819 0.000000 -0.965926
vn 0.258819 0.000000 0.965926
usemtl material-0
f 2//1 1//1 4//1
f 4//2 1//2 2//2
f 4//4 9//3 2//3
f 2//6 9//6 4//5
f 5//1 2//1 10//1
f 10//2 2//2 5//2
f 3//11 11//7 6//7
f 6//8 11//8 3//12
f 12//13 3//11 7//13
f 7//14 3//12 12//14
f 6//7 14//4 4//4
f 4//5 14//5 6//8
f 9//3 4//4 14//4
f 14//5 4//5 9//6
f 15//9 2//3 9//3
f 9//6 2//6 15//10
f 2//3 15//9 10//9
f 10//10 15//10 2//6
f 11//7 3//11 17//11
f 17//12 3//12 11//8
f 14//4 6//7 11//7
f 11//8 6//8 14//5
f 18//17 7//13 8//17
f 8//18 7//14 18//18
f 3//11 12//13 17//11
f 17//12 12//14 3//12
f 7//13 18//17 12//13
f 12//14 18//18 7//14
f 21//23 8//17 13//23
f 13//24 8//18 21//24
f 14//1 15//1 9//1
f 9//2 15//2 14//2
f 22//15 10//9 15//9
f 15//10 10//10 22//16
f 10//9 22//15 16//15
f 16//16 22//16 10//10
f 24//1 11//1 17//1
f 17//2 11//2 24//2
f 15//1 14//1 11//1
f 11//2 14//2 15//2
f 8//17 21//23 18//17
f 18//18 21//24 8//18
f 24//1 17//1 12//1
f 12//2 17//2 24//2
f 25//1 12//1 18//1
f 18//2 12//2 25//2
f 28//26 13//23 20//26
f 20//25 13//24 28//25
f 13//23 28//26 21//23
f 21//24 28//25 13//24
f 15//1 11//1 22//1
f 22//2 11//2 15//2
f 24//19 16//15 22//15
f 22//16 16//16 24//20
f 16//15 24//19 23//19
f 23//20 24//20 16//16
f 22//1 11//1 24//1
f 24//2 11//2 22//2
f 29//1 18//1 21//1
f 21//2 18//2 29//2
f 24//1 12//1 25//1
f 25//2 12//2 24//2
f 25//1 18//1 29//1
f 29//2 18//2 25//2
f 33//22 20//26 19//22
f 19//21 20//25 33//21
f 34//20 19//22 27//20
f 27//19 19//21 34//19
f 20//26 33//22 28//26
f 28//25 33//21 20//25
f 35//1 21//1 28//1
f 28//2 21//2 35//2
f 24//19 30//21 23//19
f 23//20 30//22 24//20
f 29//1 21//1 35//1
f 35//2 21//2 29//2
f 30//21 24//19 25//21
f 25//22 24//20 30//22
f 31//25 25//21 29//25
f 29//26 25//22 31//26
f 26//16 34//20 27//20
f 27//19 34//19 26//15
f 32//10 39//16 26//16
f 26//15 39//15 32//9
f 19//22 34//20 33//22
f 33//21 34//19 19//21
f 40//1 28//1 33//1
f 33//2 28//2 40//2
f 35//1 28//1 40//1
f 40//2 28//2 35//2
f 36//24 29//25 35//24
f 35//23 29//26 36//23
f 25//21 31//25 30//21
f 30//22 31//26 25//22
f 29//25 36//24 31//25
f 31//26 36//23 29//26
f 34//20 26//16 39//16
f 39//15 26//15 34//19
f 38//6 42//10 32//10
f 32//9 42//9 38//3
f 39//16 32//10 42//10
f 42//9 32//9 39//15
f 43//1 33//1 34//1
f 34//2 33//2 43//2
f 40//1 33//1 43//1
f 43//2 33//2 40//2
f 37//18 35//24 40//18
f 40//17 35//23 37//17
f 35//24 37//18 36//24
f 36//23 37//17 35//23
f 40//18 41//14 37//18
f 37//17 41//13 40//17
f 47//1 34//1 39//1
f 39//2 34//2 47//2
f 42//10 38//6 48//6
f 48//3 38//3 42//9
f 49//1 39//1 42//1
f 42//2 39//2 49//2
f 43//1 34//1 47//1
f 47//2 34//2 43//2
f 41//14 40//18 43//14
f 43//13 40//17 41//13
f 43//14 44//12 41//14
f 41//13 44//11 43//13
f 46//5 48//6 38//6
f 38//3 48//3 46//4
f 47//1 39//1 50//1
f 50//2 39//2 47//2
f 49//1 42//1 48//1
f 48//2 42//2 49//2
f 50//1 39//1 49//1
f 49//2 39//2 50//2
f 44//12 43//14 47//12
f 47//11 43//13 44//11
f 44//12 50//8 45//8
f 45//7 50//7 44//11
f 45//8 49//5 46//5
f 46//4 49//4 45//7
f 48//6 46//5 49//5
f 49//4 46//4 48//3
f 50//8 44//12 47//12
f 47//11 44//11 50//7
f 49//5 45//8 50//8
f 50//7 45//7 49//4