# SSTK version 0.8.0
# 24
mtllib original-24.mtl
o mesh25/mesh25-geometry#mesh25-geometry
v -0.013920 -0.109022 -0.197946
v -0.019072 -0.112979 -0.247712
v -0.019072 -0.112979 -0.197946
v -0.013920 -0.109022 -0.247712
v -0.023024 -0.118134 -0.197946
v -0.007920 -0.106533 -0.197946
v -0.050441 -0.105033 -0.247712
v 0.016118 -0.112963 -0.247712
v -0.023024 -0.118134 -0.247712
v -0.007920 -0.106533 -0.247712
v 0.020075 -0.118115 -0.247712
v 0.010963 -0.109011 -0.247712
v -0.025507 -0.124136 -0.197946
v -0.001480 -0.105683 -0.197946
v -0.055542 -0.118611 -0.247712
v -0.001480 -0.105683 -0.247712
v 0.051740 -0.115033 -0.247712
v 0.016118 -0.112963 -0.197946
v 0.045745 -0.101824 -0.247712
v 0.022563 -0.124115 -0.247712
v -0.025507 -0.124136 -0.247712
v 0.004961 -0.106528 -0.247712
v -0.050441 -0.105033 -0.272595
v 0.020075 -0.118115 -0.197946
v 0.010963 -0.109011 -0.197946
v -0.026352 -0.130577 -0.197946
v 0.004961 -0.106528 -0.197946
v -0.026352 -0.130577 -0.247712
v -0.055542 -0.118611 -0.272595
v -0.041999 -0.093237 -0.272595
v -0.041999 -0.093237 -0.247712
v 0.054111 -0.129343 -0.247712
v 0.051740 -0.115033 -0.272595
v 0.023414 -0.130555 -0.247712
v 0.022563 -0.124115 -0.197946
v -0.056955 -0.133047 -0.247712
v 0.045745 -0.101824 -0.272595
v 0.036536 -0.090617 -0.247712
v 0.054111 -0.129343 -0.272595
v -0.025502 -0.137017 -0.197946
v -0.025502 -0.137017 -0.247712
v 0.022569 -0.136996 -0.247712
v -0.056955 -0.133047 -0.272595
v -0.030793 -0.084028 -0.247712
v 0.036536 -0.090617 -0.272595
v 0.052698 -0.143779 -0.272595
v 0.023414 -0.130555 -0.197946
v -0.023013 -0.143017 -0.247712
v -0.054583 -0.147357 -0.247712
v -0.030793 -0.084028 -0.272595
v 0.024741 -0.082176 -0.247712
v 0.020086 -0.142998 -0.247712
v 0.052698 -0.143779 -0.247712
v -0.023013 -0.143017 -0.197946
v 0.022569 -0.136996 -0.197946
v -0.054583 -0.147357 -0.272595
v -0.017584 -0.078034 -0.247712
v 0.024741 -0.082176 -0.272595
v 0.047597 -0.157357 -0.272595
v -0.019056 -0.148169 -0.247712
v -0.019056 -0.148169 -0.197946
v 0.016134 -0.148153 -0.247712
v -0.048589 -0.160566 -0.247712
v -0.017584 -0.078034 -0.272595
v 0.011162 -0.077075 -0.272595
v 0.011162 -0.077075 -0.247712
v 0.020086 -0.142998 -0.197946
v 0.047597 -0.157357 -0.247712
v -0.013901 -0.152121 -0.247712
v -0.048589 -0.160566 -0.272595
v -0.007899 -0.154604 -0.247712
v -0.003274 -0.075662 -0.247712
v 0.010982 -0.152110 -0.247712
v 0.004982 -0.154599 -0.247712
v 0.039156 -0.169153 -0.272595
v 0.016134 -0.148153 -0.197946
v -0.039380 -0.171773 -0.247712
v -0.001458 -0.155449 -0.247712
v -0.003274 -0.075662 -0.272595
v 0.010982 -0.152110 -0.197946
v 0.039156 -0.169153 -0.247712
v -0.013901 -0.152121 -0.197946
v -0.039380 -0.171773 -0.272595
v -0.007899 -0.154604 -0.197946
v 0.004982 -0.154599 -0.197946
v -0.001458 -0.155449 -0.197946
v 0.027949 -0.178362 -0.247712
v -0.027584 -0.180214 -0.272595
v 0.027949 -0.178362 -0.272595
v -0.027584 -0.180214 -0.247712
v 0.014740 -0.184357 -0.247712
v -0.014006 -0.185315 -0.272595
v 0.014740 -0.184357 -0.272595
v -0.014006 -0.185315 -0.247712
v 0.000431 -0.186728 -0.247712
v 0.000431 -0.186728 -0.272595
vn -0.5003799564579389 0.8658059246593033 0
vn -0.707417213107699 0.7067962129206242 0
vn 0.707417213107699 -0.7067962129206242 0
vn 0.5003799564579389 -0.8658059246593033 0
vn -0.8662447641973792 0.4996198639972462 0
vn 0.8662447641973792 -0.4996198639972462 0
vn -0.2592430320951967 0.9658121195709282 0
vn 0.2592430320951967 -0.9658121195709282 0
vn 0 0 1
vn 0 0 -1
vn -0.9660393257745987 0.2583950871378147 0
vn 0.9660393257745987 -0.2583950871378147 0
vn -0.0004389999576977466 0.999999903639514 0
vn 0.0004389999576977466 -0.999999903639514 0
vn 0.7067962129206242 0.707417213107699 0
vn 0.8658059246593033 0.5003799564579389 0
vn -0.7067962129206242 -0.707417213107699 0
vn -0.8658059246593033 -0.5003799564579389 0
vn 0.4996198639972462 0.8662447641973792 0
vn -0.4996198639972462 -0.8662447641973792 0
vn -0.8822128052206674 0.4708508960431964 0
vn -0.9740174207668505 0.22647309783436112 0
vn 0.8822128052206674 -0.4708508960431964 0
vn 0.9740174207668505 -0.22647309783436112 0
vn 0.9658121195709282 0.2592430320951967 0
vn -0.9658121195709282 -0.2592430320951967 0
vn -0.999999903639514 -0.0004389999576977466 0
vn 0.999999903639514 0.0004389999576977466 0
vn 0.2583950871378147 0.9660393257745987 0
vn -0.2583950871378147 -0.9660393257745987 0
vn -0.7302872329729839 0.6831402179323529 0
vn 0.7302872329729839 -0.6831402179323529 0
vn 0.9567604177556547 0.2908771270073075 0
vn 0.8488752863791617 0.5285931783278105 0
vn -0.9567604177556547 -0.2908771270073075 0
vn -0.8488752863791617 -0.5285931783278105 0
vn -0.9994441342353507 -0.033338004477627685 0
vn 0.9994441342353507 0.033338004477627685 0
vn -0.5285931783278105 0.8488752863791617 0
vn 0.5285931783278105 -0.8488752863791617 0
vn 0.6831402179323529 0.7302872329729839 0
vn -0.6831402179323529 -0.7302872329729839 0
vn -0.2908771270073075 0.9567604177556547 0
vn 0.2908771270073075 -0.9567604177556547 0
vn 0.4708508960431964 0.8822128052206674 0
vn -0.4708508960431964 -0.8822128052206674 0
vn 0.22647309783436112 0.9740174207668505 0
vn -0.22647309783436112 -0.9740174207668505 0
vn -0.033338004477627685 0.9994441342353507 0
vn 0.033338004477627685 -0.9994441342353507 0
usemtl material_0_0
f 1//1 2//2 3//2
f 2//2 1//1 4//1
f 3//3 2//3 1//4
f 4//4 1//4 2//3
f 2//2 5//5 3//2
f 3//3 5//6 2//3
f 6//7 4//1 1//1
f 1//4 4//4 6//8
f 7//9 2//9 4//9
f 4//10 2//10 7//10
f 8//10 2//10 4//10
f 4//9 2//9 8//9
f 5//5 2//2 9//5
f 9//6 2//3 5//6
f 4//1 6//7 10//7
f 10//8 6//8 4//4
f 7//9 9//9 2//9
f 2//10 9//10 7//10
f 7//9 4//9 10//9
f 10//10 4//10 7//10
f 11//10 2//10 8//10
f 8//9 2//9 11//9
f 8//10 4//10 12//10
f 12//9 4//9 8//9
f 11//10 9//10 2//10
f 2//9 9//9 11//9
f 9//5 13//11 5//5
f 5//6 13//12 9//6
f 14//13 10//7 6//7
f 6//8 10//8 14//14
f 12//10 4//10 10//10
f 10//9 4//9 12//9
f 15//9 9//9 7//9
f 7//10 9//10 15//10
f 7//9 10//9 16//9
f 16//10 10//10 7//10
f 11//9 17//9 8//9
f 8//10 17//10 11//10
f 18//15 11//16 8//15
f 8//17 11//18 18//17
f 12//19 18//15 8//15
f 8//17 18//17 12//20
f 8//9 19//9 12//9
f 12//10 19//10 8//10
f 20//10 9//10 11//10
f 11//9 9//9 20//9
f 13//11 9//5 21//11
f 21//12 9//6 13//12
f 10//7 14//13 16//13
f 16//14 14//14 10//8
f 12//10 10//10 22//10
f 22//9 10//9 12//9
f 15//9 21//9 9//9
f 9//10 21//10 15//10
f 23//21 15//22 7//21
f 7//23 15//24 23//23
f 22//10 10//10 16//10
f 16//9 10//9 22//9
f 16//9 19//9 7//9
f 7//10 19//10 16//10
f 20//9 17//9 11//9
f 11//10 17//10 20//10
f 8//9 17//9 19//9
f 19//10 17//10 8//10
f 11//16 18//15 24//16
f 24//18 18//17 11//18
f 18//15 12//19 25//19
f 25//20 12//20 18//17
f 12//9 19//9 22//9
f 22//10 19//10 12//10
f 20//10 21//10 9//10
f 9//9 21//9 20//9
f 24//16 20//25 11//16
f 11//18 20//26 24//18
f 21//11 26//27 13//11
f 13//12 26//28 21//12
f 27//29 16//13 14//13
f 14//14 16//14 27//30
f 22//29 25//19 12//19
f 12//20 25//20 22//30
f 15//9 28//9 21//9
f 21//10 28//10 15//10
f 15//22 23//21 29//22
f 29//24 23//23 15//24
f 7//21 30//31 23//21
f 23//23 30//32 7//23
f 16//13 27//29 22//29
f 22//30 27//30 16//14
f 22//9 19//9 16//9
f 16//10 19//10 22//10
f 7//9 19//9 31//9
f 31//10 19//10 7//10
f 20//9 32//9 17//9
f 17//10 32//10 20//10
f 33//33 19//34 17//33
f 17//35 19//36 33//35
f 34//10 21//10 20//10
f 20//9 21//9 34//9
f 20//25 24//16 35//25
f 35//26 24//18 20//26
f 26//27 21//11 28//27
f 28//28 21//12 26//28
f 25//19 22//29 27//29
f 27//30 22//30 25//20
f 36//9 28//9 15//9
f 15//10 28//10 36//10
f 34//10 28//10 21//10
f 21//9 28//9 34//9
f 33//10 29//10 23//10
f 23//9 29//9 33//9
f 29//22 36//37 15//22
f 15//24 36//38 29//24
f 30//31 7//21 31//31
f 31//32 7//23 30//32
f 37//10 23//10 30//10
f 30//9 23//9 37//9
f 31//9 19//9 38//9
f 38//10 19//10 31//10
f 34//9 32//9 20//9
f 20//10 32//10 34//10
f 39//38 17//33 32//38
f 32//37 17//35 39//37
f 19//34 33//33 37//34
f 37//36 33//35 19//36
f 17//33 39//38 33//33
f 33//35 39//37 17//35
f 35//25 34//28 20//25
f 20//26 34//27 35//26
f 28//27 40//26 26//27
f 26//28 40//25 28//28
f 36//9 41//9 28//9
f 28//10 41//10 36//10
f 42//10 28//10 34//10
f 34//9 28//9 42//9
f 39//10 29//10 33//10
f 33//9 29//9 39//9
f 33//10 23//10 37//10
f 37//9 23//9 33//9
f 36//37 29//22 43//37
f 43//38 29//24 36//38
f 44//39 30//31 31//31
f 31//32 30//32 44//40
f 37//10 30//10 45//10
f 45//9 30//9 37//9
f 37//34 38//41 19//34
f 19//36 38//42 37//36
f 31//9 38//9 44//9
f 44//10 38//10 31//10
f 42//9 32//9 34//9
f 34//10 32//10 42//10
f 32//38 46//24 39//38
f 39//37 46//22 32//37
f 34//28 35//25 47//28
f 47//27 35//26 34//27
f 40//26 28//27 41//26
f 41//25 28//28 40//25
f 36//9 48//9 41//9
f 41//10 48//10 36//10
f 42//10 41//10 28//10
f 28//9 41//9 42//9
f 47//28 42//12 34//28
f 34//27 42//11 47//27
f 39//10 43//10 29//10
f 29//9 43//9 39//9
f 43//37 49//35 36//37
f 36//38 49//33 43//38
f 30//31 44//39 50//39
f 50//40 44//40 30//32
f 45//10 30//10 50//10
f 50//9 30//9 45//9
f 38//41 37//34 45//41
f 45//42 37//36 38//42
f 44//9 38//9 51//9
f 51//10 38//10 44//10
f 52//9 32//9 42//9
f 42//10 32//10 52//10
f 46//24 32//38 53//24
f 53//22 32//37 46//22
f 46//10 43//10 39//10
f 39//9 43//9 46//9
f 41//26 54//18 40//26
f 40//25 54//16 41//25
f 49//9 48//9 36//9
f 36//10 48//10 49//10
f 54//18 41//26 48//18
f 48//16 41//25 54//16
f 52//10 48//10 41//10
f 41//9 48//9 52//9
f 52//10 41//10 42//10
f 42//9 41//9 52//9
f 42//12 47//28 55//12
f 55//11 47//27 42//11
f 49//35 43//37 56//35
f 56//33 43//38 49//33
f 57//43 50//39 44//39
f 44//40 50//40 57//44
f 45//10 50//10 58//10
f 58//9 50//9 45//9
f 58//45 38//41 45//41
f 45//42 38//42 58//46
f 38//41 58//45 51//45
f 51//46 58//46 38//42
f 44//9 51//9 57//9
f 57//10 51//10 44//10
f 52//9 53//9 32//9
f 32//10 53//10 52//10
f 55//12 52//6 42//12
f 42//11 52//5 55//11
f 53//24 59//23 46//24
f 46//22 59//21 53//22
f 46//10 56//10 43//10
f 43//9 56//9 46//9
f 49//9 60//9 48//9
f 48//10 60//10 49//10
f 48//18 61//17 54//18
f 54//16 61//15 48//16
f 62//10 48//10 52//10
f 52//9 48//9 62//9
f 56//35 63//36 49//35
f 49//33 63//34 56//33
f 50//39 57//43 64//43
f 64//44 57//44 50//40
f 58//10 50//10 64//10
f 64//9 50//9 58//9
f 65//47 51//45 58//45
f 58//46 51//46 65//48
f 57//9 51//9 66//9
f 66//10 51//10 57//10
f 62//9 53//9 52//9
f 52//10 53//10 62//10
f 52//6 55//12 67//6
f 67//5 55//11 52//5
f 59//23 53//24 68//23
f 68//21 53//22 59//21
f 59//10 56//10 46//10
f 46//9 56//9 59//9
f 49//9 69//9 60//9
f 60//10 69//10 49//10
f 61//17 48//18 60//17
f 60//15 48//16 61//15
f 62//10 60//10 48//10
f 48//9 60//9 62//9
f 67//6 62//3 52//6
f 52//5 62//2 67//5
f 63//36 56//35 70//36
f 70//34 56//33 63//34
f 63//9 71//9 49//9
f 49//10 71//10 63//10
f 72//49 64//43 57//43
f 57//44 64//44 72//50
f 58//10 64//10 65//10
f 65//9 64//9 58//9
f 51//45 65//47 66//47
f 66//48 65//48 51//46
f 57//9 66//9 72//9
f 72//10 66//10 57//10
f 73//9 53//9 62//9
f 62//10 53//10 73//10
f 74//9 68//9 53//9
f 53//10 68//10 74//10
f 68//23 75//32 59//23
f 59//21 75//31 68//21
f 59//10 70//10 56//10
f 56//9 70//9 59//9
f 49//9 71//9 69//9
f 69//10 71//10 49//10
f 69//20 61//17 60//17
f 60//15 61//15 69//19
f 73//10 69//10 60//10
f 60//9 69//9 73//9
f 73//10 60//10 62//10
f 62//9 60//9 73//9
f 62//3 67//6 76//3
f 76//2 67//5 62//2
f 70//36 77//42 63//36
f 63//34 77//41 70//34
f 63//9 78//9 71//9
f 71//10 78//10 63//10
f 64//43 72//49 79//49
f 79//50 72//50 64//44
f 65//10 64//10 79//10
f 79//9 64//9 65//9
f 79//49 66//47 65//47
f 65//48 66//48 79//50
f 66//47 79//49 72//49
f 72//50 79//50 66//48
f 74//9 53//9 73//9
f 73//10 53//10 74//10
f 62//3 80//4 73//4
f 73//1 80//1 62//2
f 68//9 74//9 78//9
f 78//10 74//10 68//10
f 75//32 68//23 81//32
f 81//31 68//21 75//31
f 75//10 70//10 59//10
f 59//9 70//9 75//9
f 71//30 82//20 69//20
f 69//19 82//19 71//29
f 74//10 71//10 69//10
f 69//9 71//9 74//9
f 61//17 69//20 82//20
f 82//19 69//19 61//15
f 74//10 69//10 73//10
f 73//9 69//9 74//9
f 80//4 62//3 76//3
f 76//2 62//2 80//1
f 77//42 70//36 83//42
f 83//41 70//34 77//41
f 77//9 81//9 63//9
f 63//10 81//10 77//10
f 63//9 68//9 78//9
f 78//10 68//10 63//10
f 78//14 84//30 71//30
f 71//29 84//29 78//13
f 71//10 74//10 78//10
f 78//9 74//9 71//9
f 73//4 85//8 74//8
f 74//7 85//7 73//1
f 85//8 73//4 80//4
f 80//1 73//1 85//7
f 74//8 86//14 78//14
f 78//13 86//13 74//7
f 63//9 81//9 68//9
f 68//10 81//10 63//10
f 87//40 75//32 81//32
f 81//31 75//31 87//39
f 75//10 83//10 70//10
f 70//9 83//9 75//9
f 82//20 71//30 84//30
f 84//29 71//29 82//19
f 88//46 77//42 83//42
f 83//41 77//41 88//45
f 77//9 87//9 81//9
f 81//10 87//10 77//10
f 84//30 78//14 86//14
f 86//13 78//13 84//29
f 86//14 74//8 85//8
f 85//7 74//7 86//13
f 75//32 87//40 89//40
f 89//39 87//39 75//31
f 89//10 83//10 75//10
f 75//9 83//9 89//9
f 77//42 88//46 90//46
f 90//45 88//45 77//41
f 89//10 88//10 83//10
f 83//9 88//9 89//9
f 90//9 87//9 77//9
f 77//10 87//10 90//10
f 91//44 89//40 87//40
f 87//39 89//39 91//43
f 92//48 90//46 88//46
f 88//45 90//45 92//47
f 93//10 88//10 89//10
f 89//9 88//9 93//9
f 90//9 91//9 87//9
f 87//10 91//10 90//10
f 89//40 91//44 93//44
f 93//43 91//43 89//39
f 90//46 92//48 94//48
f 94//47 92//47 90//45
f 93//10 92//10 88//10
f 88//9 92//9 93//9
f 94//9 91//9 90//9
f 90//10 91//10 94//10
f 95//50 93//44 91//44
f 91//43 93//43 95//49
f 96//50 94//48 92//48
f 92//47 94//47 96//49
f 92//10 93//10 96//10
f 96//9 93//9 92//9
f 91//9 94//9 95//9
f 95//10 94//10 91//10
f 93//44 95//50 96//50
f 96//49 95//49 93//43
f 94//48 96//50 95//50
f 95//49 96//49 94//47
