# SSTK version 0.8.0
# 13
mtllib original-13.mtl
o mesh10/mesh10-geometry#mesh10-geometry
v -0.014357 -0.829292 -0.525614
v 0.011404 -0.829259 -0.525614
v -0.001474 -0.830971 -0.525614
v -0.026366 -0.824335 -0.525614
v -0.001474 -0.830971 -0.482068
v -0.014357 -0.829292 -0.482068
v -0.026366 -0.824335 -0.482068
v 0.023400 -0.824272 -0.525614
v 0.011404 -0.829259 -0.482068
v -0.036683 -0.816440 -0.482068
v -0.001485 -0.822586 -0.525614
v -0.036683 -0.816440 -0.525614
v -0.012197 -0.821190 -0.482068
v -0.012197 -0.821190 -0.525614
v 0.009223 -0.821163 -0.525614
v 0.023400 -0.824272 -0.482068
v -0.044605 -0.806143 -0.525614
v -0.001485 -0.822586 -0.482068
v -0.022183 -0.817068 -0.482068
v -0.012197 -0.821190 -0.519393
v 0.033697 -0.816350 -0.525614
v 0.009223 -0.821163 -0.519393
v 0.033697 -0.816350 -0.482068
v -0.044605 -0.806143 -0.482068
v -0.030761 -0.810503 -0.525614
v -0.022183 -0.817068 -0.525614
v -0.012197 -0.821190 -0.488289
v -0.030761 -0.810503 -0.482068
v -0.001485 -0.822586 -0.519393
v 0.019199 -0.817016 -0.525614
v 0.019199 -0.817016 -0.519393
v 0.009223 -0.821163 -0.482068
v -0.049592 -0.794146 -0.525614
v -0.037349 -0.801941 -0.525614
v -0.001485 -0.822586 -0.488289
v -0.022183 -0.817068 -0.488289
v -0.030761 -0.810503 -0.488289
v -0.022183 -0.817068 -0.519393
v 0.027761 -0.810429 -0.525614
v 0.041593 -0.806033 -0.482068
v 0.009223 -0.821163 -0.488289
v 0.019199 -0.817016 -0.482068
v -0.037349 -0.801941 -0.482068
v -0.049592 -0.794146 -0.482068
v -0.030761 -0.810503 -0.519393
v -0.037349 -0.801941 -0.519393
v -0.037349 -0.801941 -0.488289
v 0.027761 -0.810429 -0.519393
v 0.041593 -0.806033 -0.525614
v 0.027761 -0.810429 -0.482068
v 0.019199 -0.817016 -0.488289
v -0.051304 -0.781268 -0.482068
v -0.041495 -0.791966 -0.525614
v -0.041495 -0.791966 -0.519393
v 0.027761 -0.810429 -0.488289
v 0.034326 -0.801850 -0.525614
v 0.046550 -0.794024 -0.525614
v 0.034326 -0.801850 -0.482068
v -0.041495 -0.791966 -0.482068
v -0.051304 -0.781268 -0.525614
v 0.034326 -0.801850 -0.519393
v 0.034326 -0.801850 -0.488289
v 0.046550 -0.794024 -0.482068
v -0.041495 -0.791966 -0.488289
v -0.049624 -0.768385 -0.525614
v -0.042919 -0.781257 -0.482068
v -0.042919 -0.781257 -0.525614
v 0.038447 -0.791864 -0.519393
v 0.038447 -0.791864 -0.525614
v 0.048229 -0.781142 -0.482068
v 0.038447 -0.791864 -0.482068
v -0.049624 -0.768385 -0.482068
v -0.042919 -0.781257 -0.519393
v -0.042919 -0.781257 -0.488289
v 0.038447 -0.791864 -0.488289
v 0.048229 -0.781142 -0.525614
v -0.044668 -0.756376 -0.525614
v -0.041522 -0.770545 -0.525614
v -0.041522 -0.770545 -0.482068
v -0.041522 -0.770545 -0.519393
v 0.039844 -0.781152 -0.519393
v 0.039844 -0.781152 -0.525614
v 0.046517 -0.768263 -0.482068
v 0.039844 -0.781152 -0.482068
v 0.039844 -0.781152 -0.488289
v -0.041522 -0.770545 -0.488289
v -0.044668 -0.756376 -0.482068
v -0.037401 -0.760559 -0.525614
v -0.037401 -0.760559 -0.482068
v 0.038420 -0.770444 -0.525614
v 0.046517 -0.768263 -0.525614
v 0.038420 -0.770444 -0.482068
v -0.036772 -0.746059 -0.482068
v -0.030836 -0.751981 -0.525614
v -0.037401 -0.760559 -0.519393
v 0.038420 -0.770444 -0.519393
v 0.041530 -0.756267 -0.482068
v 0.034274 -0.760469 -0.482068
v 0.038420 -0.770444 -0.488289
v -0.037401 -0.760559 -0.488289
v -0.030836 -0.751981 -0.482068
v -0.036772 -0.746059 -0.525614
v -0.030836 -0.751981 -0.519393
v 0.034274 -0.760469 -0.525614
v 0.041530 -0.756267 -0.525614
v -0.030836 -0.751981 -0.488289
v -0.026475 -0.738137 -0.525614
v -0.022274 -0.745394 -0.482068
v -0.022274 -0.745394 -0.525614
v 0.034274 -0.760469 -0.519393
v 0.033608 -0.745970 -0.525614
v 0.027687 -0.751907 -0.482068
v 0.034274 -0.760469 -0.488289
v -0.022274 -0.745394 -0.488289
v -0.026475 -0.738137 -0.482068
v -0.022274 -0.745394 -0.519393
v 0.027687 -0.751907 -0.519393
v 0.027687 -0.751907 -0.525614
v 0.033608 -0.745970 -0.482068
v 0.027687 -0.751907 -0.488289
v -0.014479 -0.733150 -0.525614
v -0.012298 -0.741247 -0.525614
v -0.012298 -0.741247 -0.488289
v -0.012298 -0.741247 -0.482068
v 0.023291 -0.738074 -0.482068
v 0.019108 -0.745341 -0.525614
v 0.019108 -0.745341 -0.482068
v 0.019108 -0.745341 -0.488289
v -0.014479 -0.733150 -0.482068
v 0.023291 -0.738074 -0.525614
v -0.001590 -0.739823 -0.525614
v -0.001590 -0.739823 -0.482068
v -0.012298 -0.741247 -0.519393
v 0.019108 -0.745341 -0.519393
v -0.001600 -0.731438 -0.482068
v 0.011282 -0.733118 -0.525614
v -0.001590 -0.739823 -0.488289
v 0.009122 -0.741220 -0.488289
v 0.011282 -0.733118 -0.482068
v 0.009122 -0.741220 -0.482068
v 0.009122 -0.741220 -0.519393
v 0.009122 -0.741220 -0.525614
v -0.001600 -0.731438 -0.525614
v -0.001590 -0.739823 -0.519393
vn 0 0 -1
vn 0.2600420769499725 -0.9655972857333147 0
vn 0.001266000251454894 -0.9999991986213606 0
vn -0.25759592797296865 -0.9662527298236963 0
vn -0.4989029270671325 -0.866657873306328 0
vn -0.7062107145055488 -0.7080017137815151 0
vn 0.5010958709978955 -0.8653917772135695 0
vn 0 0 1
vn -0.8653917772135695 -0.5010958709978955 0
vn 0.7080017137815151 -0.7062107145055488 0
vn -0.9655972857333147 -0.2600420769499725 0
vn 0.866657873306328 -0.4989029270671325 0
vn -0.9999991986213606 -0.001266000251454894 0
vn 0.9662527298236963 -0.25759592797296865 0
vn -0.9662527298236963 0.25759592797296865 0
vn 0.9999991986213606 0.001266000251454894 0
vn -0.866657873306328 0.4989029270671325 0
vn 0.9655972857333147 0.2600420769499725 0
vn -0.7080017137815151 0.7062107145055488 0
vn 0.8653917772135695 0.5010958709978955 0
vn -0.5010958709978955 0.8653917772135695 0
vn 0.7062107145055488 0.7080017137815151 0
vn -0.2600420769499725 0.9655972857333147 0
vn 0.4989029270671325 0.866657873306328 0
vn -0.001266000251454894 0.9999991986213606 0
vn 0.25759592797296865 0.9662527298236963 0
usemtl material_0_0
f 1//1 2//1 3//1
f 2//1 1//1 4//1
f 2//2 5//3 3//3
f 3//3 6//4 1//4
f 1//4 7//5 4//5
f 2//1 4//1 8//1
f 5//3 2//2 9//2
f 6//4 3//3 5//3
f 7//5 1//4 6//4
f 10//6 4//5 7//5
f 8//1 4//1 11//1
f 8//7 9//2 2//2
f 9//8 6//8 5//8
f 6//8 9//8 7//8
f 4//5 10//6 12//6
f 7//8 13//8 10//8
f 11//1 4//1 14//1
f 15//1 8//1 11//1
f 9//2 8//7 16//7
f 7//8 9//8 16//8
f 10//6 17//9 12//6
f 14//1 4//1 12//1
f 7//8 18//8 13//8
f 10//8 13//8 19//8
f 8//1 15//1 21//1
f 8//7 23//10 16//7
f 7//8 16//8 18//8
f 17//9 10//6 24//9
f 25//1 12//1 17//1
f 14//1 12//1 26//1
f 10//8 19//8 28//8
f 21//1 15//1 30//1
f 23//10 8//7 21//10
f 32//8 16//8 23//8
f 16//8 32//8 18//8
f 10//8 28//8 24//8
f 24//9 33//11 17//9
f 26//1 12//1 25//1
f 25//1 17//1 34//1
f 20//1 22//1 29//1
f 21//1 30//1 39//1
f 21//10 40//12 23//10
f 22//1 38//1 31//1
f 32//8 23//8 42//8
f 24//8 28//8 43//8
f 33//11 24//9 44//11
f 34//1 17//1 33//1
f 41//8 27//8 35//8
f 27//8 41//8 36//8
f 22//1 20//1 38//1
f 21//1 39//1 49//1
f 40//12 21//10 49//12
f 50//8 23//8 40//8
f 31//1 38//1 45//1
f 42//8 23//8 50//8
f 24//8 43//8 44//8
f 52//13 33//11 44//11
f 34//1 33//1 53//1
f 36//8 41//8 51//8
f 36//8 51//8 37//8
f 37//8 55//8 47//8
f 31//1 45//1 48//1
f 49//1 39//1 56//1
f 57//14 40//12 49//12
f 50//8 40//8 58//8
f 44//8 43//8 59//8
f 33//11 52//13 60//13
f 44//8 59//8 52//8
f 53//1 33//1 60//1
f 48//1 45//1 46//1
f 61//1 46//1 54//1
f 37//8 51//8 55//8
f 47//8 55//8 62//8
f 49//1 56//1 57//1
f 40//12 57//14 63//14
f 58//8 40//8 63//8
f 52//13 65//15 60//13
f 52//8 59//8 66//8
f 53//1 60//1 67//1
f 48//1 46//1 61//1
f 61//1 54//1 68//1
f 47//8 62//8 64//8
f 57//1 56//1 69//1
f 57//14 70//16 63//14
f 58//8 63//8 71//8
f 65//15 52//13 72//15
f 67//1 60//1 65//1
f 52//8 66//8 72//8
f 68//1 54//1 73//1
f 64//8 62//8 75//8
f 57//1 69//1 76//1
f 70//16 57//14 76//16
f 71//8 63//8 70//8
f 72//15 77//17 65//15
f 67//1 65//1 78//1
f 72//8 66//8 79//8
f 64//8 75//8 74//8
f 68//1 73//1 81//1
f 76//1 69//1 82//1
f 76//16 83//18 70//16
f 71//8 70//8 84//8
f 77//17 72//15 87//17
f 88//1 65//1 77//1
f 78//1 65//1 88//1
f 72//8 79//8 89//8
f 81//1 73//1 80//1
f 74//8 75//8 85//8
f 76//1 82//1 90//1
f 83//18 76//16 91//18
f 92//8 70//8 83//8
f 84//8 70//8 92//8
f 74//8 85//8 86//8
f 72//8 89//8 87//8
f 93//19 77//17 87//17
f 88//1 77//1 94//1
f 81//1 80//1 96//1
f 76//1 90//1 91//1
f 91//18 97//20 83//18
f 92//8 83//8 98//8
f 86//8 85//8 99//8
f 87//8 89//8 101//8
f 77//17 93//19 102//19
f 87//8 101//8 93//8
f 94//1 77//1 102//1
f 96//1 80//1 95//1
f 91//1 90//1 104//1
f 97//20 91//18 105//20
f 98//8 83//8 97//8
f 86//8 99//8 100//8
f 93//19 107//21 102//19
f 93//8 101//8 108//8
f 94//1 102//1 109//1
f 110//1 95//1 103//1
f 96//1 95//1 110//1
f 91//1 104//1 105//1
f 111//22 97//20 105//20
f 98//8 97//8 112//8
f 100//8 99//8 113//8
f 107//21 93//19 115//21
f 109//1 102//1 107//1
f 93//8 108//8 115//8
f 110//1 103//1 117//1
f 100//8 113//8 106//8
f 105//1 104//1 118//1
f 97//20 111//22 119//22
f 105//1 118//1 111//1
f 112//8 97//8 119//8
f 106//8 120//8 114//8
f 115//21 121//23 107//21
f 109//1 107//1 122//1
f 115//8 108//8 124//8
f 117//1 103//1 116//1
f 106//8 113//8 120//8
f 111//22 125//24 119//22
f 111//1 118//1 126//1
f 112//8 119//8 127//8
f 114//8 120//8 128//8
f 121//23 115//21 129//23
f 130//1 107//1 121//1
f 122//1 107//1 131//1
f 114//8 128//8 123//8
f 115//8 124//8 132//8
f 117//1 116//1 134//1
f 125//24 111//22 130//24
f 127//8 119//8 125//8
f 111//1 126//1 130//1
f 115//8 125//8 129//8
f 135//25 121//23 129//23
f 130//1 131//1 107//1
f 130//1 121//1 136//1
f 123//8 128//8 138//8
f 132//8 125//8 115//8
f 134//1 116//1 133//1
f 130//24 139//26 125//24
f 127//8 125//8 140//8
f 130//1 126//1 142//1
f 129//8 125//8 139//8
f 121//23 135//25 143//25
f 129//8 139//8 135//8
f 130//1 142//1 131//1
f 136//1 121//1 143//1
f 139//26 130//24 136//26
f 123//8 138//8 137//8
f 140//8 125//8 132//8
f 134//1 133//1 141//1
f 139//26 143//25 135//25
f 143//25 139//26 136//26
f 141//1 133//1 144//1
usemtl material_1_0
f 3//8 2//8 1//8
f 4//8 1//8 2//8
f 3//25 5//25 2//23
f 1//26 6//26 3//25
f 4//24 7//24 1//26
f 8//8 4//8 2//8
f 9//23 2//23 5//25
f 5//25 3//25 6//26
f 6//26 1//26 7//24
f 7//24 4//24 10//22
f 11//8 4//8 8//8
f 2//23 9//23 8//21
f 5//1 6//1 9//1
f 7//1 9//1 6//1
f 12//22 10//22 4//24
f 10//1 13//1 7//1
f 14//8 4//8 11//8
f 11//8 8//8 15//8
f 16//21 8//21 9//23
f 16//1 9//1 7//1
f 12//22 17//20 10//22
f 12//8 4//8 14//8
f 13//1 18//1 7//1
f 19//1 13//1 10//1
f 20//26 11//25 14//26
f 14//4 11//3 20//4
f 21//8 15//8 8//8
f 11//25 22//23 15//23
f 15//2 22//2 11//3
f 16//21 23//19 8//21
f 18//1 16//1 7//1
f 24//20 10//22 17//20
f 17//8 12//8 25//8
f 26//8 12//8 14//8
f 18//25 27//26 13//26
f 13//4 27//4 18//3
f 27//26 19//24 13//26
f 13//4 19//5 27//4
f 28//1 19//1 10//1
f 11//25 20//26 29//25
f 29//3 20//4 11//3
f 26//24 20//26 14//26
f 14//4 20//4 26//5
f 30//8 15//8 21//8
f 21//19 8//21 23//19
f 22//23 11//25 29//25
f 29//3 11//3 22//2
f 31//21 15//23 22//23
f 22//2 15//2 31//7
f 23//1 16//1 32//1
f 18//1 32//1 16//1
f 24//1 28//1 10//1
f 17//20 33//18 24//20
f 25//8 12//8 26//8
f 34//8 17//8 25//8
f 27//26 18//25 35//25
f 35//3 18//3 27//4
f 19//24 27//26 36//24
f 36//5 27//4 19//5
f 19//24 37//22 28//22
f 28//6 37//6 19//5
f 27//26 29//25 20//26
f 20//4 29//3 27//4
f 29//8 22//8 20//8
f 20//26 26//24 38//24
f 38//5 26//5 20//4
f 15//23 31//21 30//21
f 30//7 31//7 15//2
f 39//8 30//8 21//8
f 23//19 40//17 21//19
f 29//25 41//23 22//23
f 22//2 41//2 29//3
f 41//23 31//21 22//23
f 22//2 31//7 41//2
f 31//8 38//8 22//8
f 42//1 23//1 32//1
f 32//23 35//25 18//25
f 18//3 35//3 32//2
f 43//1 28//1 24//1
f 44//18 24//20 33//18
f 33//8 17//8 34//8
f 45//22 26//24 25//22
f 25//6 26//5 45//6
f 46//20 25//22 34//20
f 34//9 25//6 46//9
f 29//25 27//26 35//25
f 35//3 27//4 29//3
f 35//1 27//1 41//1
f 27//26 38//24 36//24
f 36//5 38//5 27//4
f 36//1 41//1 27//1
f 37//22 19//24 36//24
f 36//5 19//5 37//6
f 47//20 28//22 37//22
f 37//6 28//6 47//9
f 38//24 27//26 20//26
f 20//4 27//4 38//5
f 38//8 20//8 22//8
f 26//24 45//22 38//24
f 38//5 45//6 26//5
f 48//19 30//21 31//21
f 31//7 30//7 48//10
f 30//21 48//19 39//19
f 39//10 48//10 30//7
f 49//8 39//8 21//8
f 49//17 21//19 40//17
f 40//1 23//1 50//1
f 41//23 29//25 35//25
f 35//3 29//3 41//2
f 31//21 41//23 51//21
f 51//7 41//2 31//7
f 45//8 38//8 31//8
f 50//1 23//1 42//1
f 42//21 41//23 32//23
f 32//2 41//2 42//7
f 35//25 32//23 41//23
f 41//2 32//2 35//3
f 28//22 47//20 43//20
f 43//9 47//9 28//6
f 44//1 43//1 24//1
f 44//18 33//18 52//16
f 53//8 33//8 34//8
f 25//22 46//20 45//22
f 45//6 46//9 25//6
f 34//20 54//18 46//20
f 46//9 54//11 34//9
f 45//22 36//24 38//24
f 38//5 36//5 45//6
f 51//1 41//1 36//1
f 36//24 45//22 37//22
f 37//6 45//6 36//5
f 37//1 51//1 36//1
f 45//22 47//20 37//22
f 37//6 47//9 45//6
f 47//1 55//1 37//1
f 31//21 55//19 48//19
f 48//10 55//10 31//7
f 48//8 45//8 31//8
f 48//19 56//17 39//19
f 39//10 56//12 48//10
f 56//8 39//8 49//8
f 49//17 40//17 57//15
f 58//1 40//1 50//1
f 41//23 42//21 51//21
f 51//7 42//7 41//2
f 55//19 31//21 51//21
f 51//7 31//7 55//10
f 50//19 51//21 42//21
f 42//7 51//7 50//10
f 47//20 59//18 43//20
f 43//9 59//11 47//9
f 59//1 43//1 44//1
f 60//16 52//16 33//18
f 52//1 59//1 44//1
f 60//8 33//8 53//8
f 54//18 34//20 53//18
f 53//11 34//9 54//11
f 47//20 45//22 46//20
f 46//9 45//6 47//9
f 46//8 45//8 48//8
f 54//18 47//20 46//20
f 46//9 47//9 54//11
f 54//8 46//8 61//8
f 55//1 51//1 37//1
f 62//1 55//1 47//1
f 55//19 61//17 48//19
f 48//10 61//12 55//10
f 56//17 48//19 61//17
f 61//12 48//10 56//12
f 57//8 56//8 49//8
f 63//15 57//15 40//17
f 63//1 40//1 58//1
f 58//17 55//19 50//19
f 50//10 55//10 58//12
f 51//21 50//19 55//19
f 55//10 50//10 51//7
f 59//18 47//20 64//18
f 64//11 47//9 59//11
f 60//16 65//14 52//16
f 66//1 59//1 52//1
f 67//8 60//8 53//8
f 67//16 54//18 53//18
f 53//11 54//11 67//13
f 61//8 46//8 48//8
f 47//20 54//18 64//18
f 64//11 54//11 47//9
f 68//8 54//8 61//8
f 61//17 55//19 62//17
f 62//12 55//10 61//12
f 55//19 58//17 62//17
f 62//12 58//12 55//10
f 64//1 62//1 47//1
f 61//17 69//15 56//17
f 56//12 69//14 61//12
f 69//8 56//8 57//8
f 63//15 70//13 57//15
f 71//1 63//1 58//1
f 64//18 66//16 59//18
f 59//11 66//13 64//11
f 72//14 52//16 65//14
f 65//8 60//8 67//8
f 72//1 66//1 52//1
f 54//18 67//16 73//16
f 73//13 67//13 54//11
f 54//18 74//16 64//18
f 64//11 74//13 54//11
f 73//8 54//8 68//8
f 62//17 68//15 61//17
f 61//12 68//14 62//12
f 69//15 61//17 68//15
f 68//14 61//12 69//14
f 58//17 75//15 62//17
f 62//12 75//14 58//12
f 75//1 62//1 64//1
f 76//8 69//8 57//8
f 76//13 57//15 70//13
f 70//1 63//1 71//1
f 75//15 58//17 71//15
f 71//14 58//12 75//14
f 66//16 64//18 74//16
f 74//13 64//11 66//13
f 65//14 77//12 72//14
f 78//8 65//8 67//8
f 79//1 66//1 72//1
f 67//16 80//14 73//16
f 73//13 80//15 67//13
f 74//16 54//18 73//16
f 73//13 54//11 74//13
f 74//1 75//1 64//1
f 81//8 73//8 68//8
f 68//15 62//17 75//15
f 75//14 62//12 68//14
f 68//15 82//13 69//15
f 69//14 82//16 68//14
f 82//8 69//8 76//8
f 70//13 83//11 76//13
f 84//1 70//1 71//1
f 71//15 85//13 75//15
f 75//14 85//16 71//14
f 86//14 66//16 74//16
f 74//13 66//13 86//15
f 87//12 72//14 77//12
f 77//8 65//8 88//8
f 88//8 65//8 78//8
f 80//14 67//16 78//14
f 78//15 67//13 80//15
f 66//16 86//14 79//14
f 79//15 86//15 66//13
f 89//1 79//1 72//1
f 80//14 74//16 73//16
f 73//13 74//13 80//15
f 80//8 73//8 81//8
f 85//1 75//1 74//1
f 75//15 81//13 68//15
f 68//14 81//16 75//14
f 82//13 68//15 81//13
f 81//16 68//14 82//16
f 90//8 82//8 76//8
f 91//11 76//13 83//11
f 83//1 70//1 92//1
f 92//1 70//1 84//1
f 85//13 71//15 84//13
f 84//16 71//14 85//16
f 81//13 75//15 85//13
f 85//16 75//14 81//16
f 74//16 80//14 86//14
f 86//15 80//15 74//13
f 86//1 85//1 74//1
f 87//1 89//1 72//1
f 87//12 77//12 93//10
f 94//8 77//8 88//8
f 95//12 78//14 88//12
f 88//17 78//15 95//17
f 78//14 95//12 80//14
f 80//15 95//17 78//15
f 86//14 89//12 79//14
f 79//15 89//17 86//15
f 96//8 80//8 81//8
f 81//13 90//11 82//13
f 82//16 90//18 81//16
f 91//8 90//8 76//8
f 83//11 97//9 91//11
f 98//1 83//1 92//1
f 99//11 84//13 92//11
f 92//18 84//16 99//18
f 84//13 99//11 85//13
f 85//16 99//18 84//16
f 99//11 81//13 85//13
f 85//16 81//16 99//18
f 80//14 100//12 86//14
f 86//15 100//17 80//15
f 99//1 85//1 86//1
f 101//1 89//1 87//1
f 102//10 93//10 77//12
f 93//1 101//1 87//1
f 102//8 77//8 94//8
f 103//10 88//12 94//10
f 94//19 88//17 103//19
f 88//12 103//10 95//12
f 95//17 103//19 88//17
f 100//12 80//14 95//12
f 95//17 80//15 100//17
f 95//8 80//8 96//8
f 89//12 86//14 100//12
f 100//17 86//15 89//17
f 81//13 99//11 96//11
f 96//18 99//18 81//16
f 90//11 81//13 96//11
f 96//18 81//16 90//18
f 104//8 90//8 91//8
f 105//9 91//11 97//9
f 97//1 83//1 98//1
f 98//9 99//11 92//11
f 92//18 99//18 98//20
f 100//1 99//1 86//1
f 89//12 106//10 101//10
f 101//19 106//19 89//17
f 102//10 107//7 93//10
f 108//1 101//1 93//1
f 109//8 102//8 94//8
f 109//7 103//10 94//10
f 94//19 103//19 109//21
f 106//10 95//12 103//10
f 103//19 95//17 106//19
f 103//8 95//8 110//8
f 95//12 106//10 100//12
f 100//17 106//19 95//17
f 110//8 95//8 96//8
f 106//10 89//12 100//12
f 100//17 89//17 106//19
f 99//11 110//9 96//11
f 96//18 110//20 99//18
f 110//9 90//11 96//11
f 96//18 90//18 110//20
f 90//11 110//9 104//9
f 104//20 110//20 90//18
f 105//8 104//8 91//8
f 105//9 97//9 111//6
f 112//1 97//1 98//1
f 99//11 98//9 113//9
f 113//20 98//20 99//18
f 113//1 99//1 100//1
f 114//7 101//10 106//10
f 106//19 101//19 114//21
f 115//7 93//10 107//7
f 107//8 102//8 109//8
f 101//10 114//7 108//7
f 108//21 114//21 101//19
f 115//1 108//1 93//1
f 103//10 109//7 116//7
f 116//21 109//21 103//19
f 116//7 106//10 103//10
f 103//19 106//19 116//21
f 117//8 103//8 110//8
f 106//1 113//1 100//1
f 110//9 99//11 113//9
f 113//20 99//18 110//20
f 110//9 118//6 104//9
f 104//20 118//22 110//20
f 118//8 104//8 105//8
f 119//6 111//6 97//9
f 111//8 118//8 105//8
f 119//1 97//1 112//1
f 120//6 98//9 112//6
f 112//22 98//20 120//22
f 98//9 120//6 113//9
f 113//20 120//22 98//20
f 106//10 116//7 114//7
f 114//21 116//21 106//19
f 114//1 120//1 106//1
f 107//7 121//2 115//7
f 122//8 107//8 109//8
f 123//2 108//7 114//7
f 114//21 108//21 123//23
f 124//1 108//1 115//1
f 122//2 116//7 109//7
f 109//21 116//21 122//23
f 116//8 103//8 117//8
f 110//9 120//6 117//6
f 117//22 120//22 110//20
f 118//6 110//9 117//6
f 117//22 110//20 118//22
f 120//1 113//1 106//1
f 120//6 110//9 113//9
f 113//20 110//20 120//22
f 119//6 125//5 111//6
f 126//8 118//8 111//8
f 127//1 119//1 112//1
f 127//5 120//6 112//6
f 112//22 120//22 127//24
f 116//7 123//2 114//7
f 114//21 123//23 116//21
f 128//1 120//1 114//1
f 129//2 115//7 121//2
f 121//8 107//8 130//8
f 131//8 107//8 122//8
f 108//7 123//2 124//2
f 124//23 123//23 108//21
f 123//1 128//1 114//1
f 132//1 124//1 115//1
f 116//7 122//2 133//2
f 133//23 122//23 116//21
f 134//8 116//8 117//8
f 120//6 134//5 117//6
f 117//22 134//24 120//22
f 134//5 118//6 117//6
f 117//22 118//22 134//24
f 130//5 111//6 125//5
f 125//1 119//1 127//1
f 118//6 134//5 126//5
f 126//24 134//24 118//22
f 130//8 126//8 111//8
f 120//6 127//5 128//5
f 128//24 127//24 120//22
f 123//2 116//7 133//2
f 133//23 116//21 123//23
f 134//5 120//6 128//5
f 128//24 120//22 134//24
f 129//1 125//1 115//1
f 129//2 121//2 135//3
f 107//8 131//8 130//8
f 136//8 121//8 130//8
f 131//3 133//2 122//2
f 122//23 133//23 131//25
f 137//3 124//2 123//2
f 123//23 124//23 137//25
f 138//1 128//1 123//1
f 124//2 137//3 132//3
f 132//25 137//25 124//23
f 115//1 125//1 132//1
f 133//8 116//8 134//8
f 125//5 139//4 130//5
f 140//1 125//1 127//1
f 141//4 126//5 134//5
f 134//24 126//24 141//26
f 142//8 126//8 130//8
f 140//4 128//5 127//5
f 127//24 128//24 140//26
f 133//2 137//3 123//2
f 123//23 137//25 133//23
f 128//5 141//4 134//5
f 134//24 141//26 128//24
f 139//1 125//1 129//1
f 143//3 135//3 121//2
f 135//1 139//1 129//1
f 131//8 142//8 130//8
f 143//8 121//8 136//8
f 136//4 130//5 139//4
f 133//2 131//3 144//3
f 144//25 131//25 133//23
f 137//1 138//1 123//1
f 141//4 128//5 138//4
f 138//26 128//24 141//26
f 128//5 140//4 138//4
f 138//26 140//26 128//24
f 138//4 132//3 137//3
f 137//25 132//25 138//26
f 132//1 125//1 140//1
f 141//8 133//8 134//8
f 126//5 141//4 142//4
f 142//26 141//26 126//24
f 137//3 133//2 144//3
f 144//25 133//23 137//25
f 135//3 143//3 139//4
f 141//4 131//3 142//4
f 142//26 131//25 141//26
f 136//4 139//4 143//3
f 131//3 141//4 144//3
f 144//25 141//26 131//25
f 144//8 133//8 141//8
f 137//3 141//4 138//4
f 138//26 141//26 137//25
f 132//3 138//4 140//4
f 140//26 138//26 132//25
f 141//4 137//3 144//3
f 144//25 137//25 141//26
