# SSTK version 0.8.0
# 12
mtllib original-12.mtl
o mesh9/mesh9-geometry#mesh9-geometry
v 0.045444 -0.725995 -0.475076
v 0.045444 -0.719774 -0.471620
v 0.045444 -0.731233 -0.471620
v 0.045444 -0.719774 -0.475076
v -0.028831 -0.719774 -0.471620
v 0.045444 -0.725995 -0.534600
v 0.045444 -0.719774 -0.534600
v -0.034947 -0.771455 -0.471620
v -0.028831 -0.719774 -0.538056
v -0.001550 -0.771604 -0.471620
v 0.045444 -0.731233 -0.538056
v 0.045444 -0.719774 -0.538056
v 0.000936 -0.771928 -0.471620
v -0.004034 -0.771934 -0.471620
v 0.003252 -0.772884 -0.471620
v 0.000936 -0.771928 -0.538056
v -0.006348 -0.772896 -0.471620
v -0.004034 -0.771934 -0.538056
v -0.034947 -0.771455 -0.538056
v 0.005243 -0.774407 -0.471620
v 0.003252 -0.772884 -0.538056
v -0.001550 -0.771604 -0.538056
v -0.008335 -0.774424 -0.471620
v -0.006348 -0.772896 -0.538056
v 0.006771 -0.776394 -0.471620
v 0.005243 -0.774407 -0.538056
v -0.032962 -0.774983 -0.471620
v -0.008335 -0.774424 -0.538056
v 0.007733 -0.778708 -0.471620
v 0.006771 -0.776394 -0.538056
v -0.009858 -0.776415 -0.471620
v 0.008064 -0.781193 -0.471620
v -0.030643 -0.778302 -0.471620
v -0.009858 -0.776415 -0.538056
v -0.032962 -0.774983 -0.538056
v 0.007740 -0.783678 -0.471620
v 0.008064 -0.781193 -0.538056
v -0.010814 -0.778732 -0.471620
v 0.007733 -0.778708 -0.538056
v 0.006783 -0.785995 -0.471620
v -0.011138 -0.781217 -0.471620
v -0.030643 -0.778302 -0.538056
v -0.010814 -0.778732 -0.538056
v 0.004791 -0.794424 -0.471620
v 0.006783 -0.785995 -0.538056
v -0.010808 -0.783701 -0.471620
v 0.007740 -0.783678 -0.538056
v -0.011138 -0.781217 -0.538056
v -0.028014 -0.781381 -0.471620
v 0.005260 -0.787985 -0.471620
v -0.009846 -0.786016 -0.471620
v 0.003274 -0.789513 -0.471620
v -0.010808 -0.783701 -0.538056
v 0.005260 -0.787985 -0.538056
v -0.025099 -0.784190 -0.471620
v 0.004791 -0.794424 -0.538056
v -0.028014 -0.781381 -0.538056
v -0.003291 -0.794113 -0.471620
v -0.008318 -0.788002 -0.471620
v -0.009846 -0.786016 -0.538056
v -0.021925 -0.786704 -0.471620
v 0.000743 -0.794465 -0.471620
v 0.000959 -0.790475 -0.471620
v 0.003274 -0.789513 -0.538056
v -0.006327 -0.789526 -0.471620
v -0.025099 -0.784190 -0.538056
v -0.008318 -0.788002 -0.538056
v 0.000959 -0.790475 -0.538056
v -0.007271 -0.793371 -0.471620
v -0.018522 -0.788898 -0.471620
v -0.006327 -0.789526 -0.538056
v -0.021925 -0.786704 -0.538056
v -0.003291 -0.794113 -0.538056
v -0.001525 -0.790806 -0.471620
v -0.004011 -0.790482 -0.471620
v -0.011160 -0.792247 -0.471620
v -0.004011 -0.790482 -0.538056
v 0.000743 -0.794465 -0.538056
v -0.018522 -0.788898 -0.538056
v -0.001525 -0.790806 -0.538056
v -0.007271 -0.793371 -0.538056
v -0.014923 -0.790751 -0.471620
v -0.011160 -0.792247 -0.538056
v -0.014923 -0.790751 -0.538056
vn 1 0 0
vn -1 0 0
vn 0 0 1
vn 0 0 -1
vn 0 1 0
vn 0 -1 0
vn 0.25759592797296865 0.9662527298236963 0
vn -0.001266000251454894 0.9999991986213606 0
vn -0.25759592797296865 -0.9662527298236963 0
vn 0.001266000251454894 -0.9999991986213606 0
vn -0.2600420769499725 0.9655972857333147 0
vn 0.2600420769499725 -0.9655972857333147 0
vn 0.4989029270671325 0.866657873306328 0
vn -0.4989029270671325 -0.866657873306328 0
vn -0.5010958709978955 0.8653917772135695 0
vn 0.5010958709978955 -0.8653917772135695 0
vn 0.7062107145055488 0.7080017137815151 0
vn -0.7062107145055488 -0.7080017137815151 0
vn -0.7080017137815151 0.7062107145055488 0
vn 0.7080017137815151 -0.7062107145055488 0
vn 0.8653917772135695 0.5010958709978955 0
vn -0.8653917772135695 -0.5010958709978955 0
vn -0.866657873306328 0.4989029270671325 0
vn 0.866657873306328 -0.4989029270671325 0
vn 0.9655972857333147 0.2600420769499725 0
vn -0.9655972857333147 -0.2600420769499725 0
vn 0.9999991986213606 0.001266000251454894 0
vn -0.9999991986213606 -0.001266000251454894 0
vn -0.9662527298236963 0.25759592797296865 0
vn 0.9662527298236963 -0.25759592797296865 0
usemtl material_0_0
f 1//1 2//1 3//1
f 2//1 1//1 4//1
f 3//2 2//2 1//2
f 4//2 1//2 2//2
f 5//3 3//3 2//3
f 2//4 3//4 5//4
f 6//1 4//1 1//1
f 1//2 4//2 6//2
f 7//5 2//5 4//5
f 4//6 2//6 7//6
f 8//3 3//3 5//3
f 5//4 3//4 8//4
f 2//5 9//5 5//5
f 5//6 9//6 2//6
f 4//1 6//1 7//1
f 7//2 6//2 4//2
f 9//5 2//5 7//5
f 7//6 2//6 9//6
f 10//3 3//3 8//3
f 8//4 3//4 10//4
f 11//1 7//1 6//1
f 6//2 7//2 11//2
f 12//5 9//5 7//5
f 7//6 9//6 12//6
f 13//3 3//3 10//3
f 10//4 3//4 13//4
f 8//3 14//3 10//3
f 10//4 14//4 8//4
f 7//1 11//1 12//1
f 12//2 11//2 7//2
f 11//4 9//4 12//4
f 12//3 9//3 11//3
f 15//3 3//3 13//3
f 13//4 3//4 15//4
f 16//7 10//8 13//7
f 13//9 10//10 16//9
f 14//3 13//3 10//3
f 10//4 13//4 14//4
f 8//3 17//3 14//3
f 14//4 17//4 8//4
f 10//8 18//11 14//11
f 14//12 18//12 10//10
f 11//4 19//4 9//4
f 9//3 19//3 11//3
f 20//3 3//3 15//3
f 15//4 3//4 20//4
f 21//13 13//7 15//13
f 15//14 13//9 21//14
f 14//3 15//3 13//3
f 13//4 15//4 14//4
f 10//8 16//7 22//8
f 22//10 16//9 10//10
f 13//7 21//13 16//7
f 16//9 21//14 13//9
f 8//3 23//3 17//3
f 17//4 23//4 8//4
f 14//11 24//15 17//15
f 17//16 24//16 14//12
f 17//3 15//3 14//3
f 14//4 15//4 17//4
f 18//11 10//8 22//8
f 22//10 10//10 18//12
f 24//15 14//11 18//11
f 18//12 14//12 24//16
f 11//4 22//4 19//4
f 19//3 22//3 11//3
f 25//3 3//3 20//3
f 20//4 3//4 25//4
f 26//17 15//13 20//17
f 20//18 15//14 26//18
f 17//3 20//3 15//3
f 15//4 20//4 17//4
f 15//13 26//17 21//13
f 21//14 26//18 15//14
f 11//4 16//4 22//4
f 22//3 16//3 11//3
f 16//4 18//4 22//4
f 22//3 18//3 16//3
f 11//4 21//4 16//4
f 16//3 21//3 11//3
f 21//4 18//4 16//4
f 16//3 18//3 21//3
f 27//3 23//3 8//3
f 8//4 23//4 27//4
f 17//15 28//19 23//19
f 23//20 28//20 17//16
f 23//3 20//3 17//3
f 17//4 20//4 23//4
f 28//19 17//15 24//15
f 24//16 17//16 28//20
f 18//4 19//4 22//4
f 22//3 19//3 18//3
f 24//4 19//4 18//4
f 18//3 19//3 24//3
f 21//4 24//4 18//4
f 18//3 24//3 21//3
f 29//3 3//3 25//3
f 25//4 3//4 29//4
f 30//21 20//17 25//21
f 25//22 20//18 30//22
f 23//3 25//3 20//3
f 20//4 25//4 23//4
f 20//17 30//21 26//17
f 26//18 30//22 20//18
f 11//4 26//4 21//4
f 21//3 26//3 11//3
f 26//4 24//4 21//4
f 21//3 24//3 26//3
f 27//3 31//3 23//3
f 23//4 31//4 27//4
f 28//19 31//23 23//19
f 23//20 31//24 28//20
f 28//4 19//4 24//4
f 24//3 19//3 28//3
f 26//4 28//4 24//4
f 24//3 28//3 26//3
f 32//3 3//3 29//3
f 29//4 3//4 32//4
f 29//25 30//21 25//21
f 25//22 30//22 29//26
f 31//3 29//3 25//3
f 25//4 29//4 31//4
f 31//3 25//3 23//3
f 23//4 25//4 31//4
f 11//4 30//4 26//4
f 26//3 30//3 11//3
f 30//4 28//4 26//4
f 26//3 28//3 30//3
f 33//3 31//3 27//3
f 27//4 31//4 33//4
f 31//23 28//19 34//23
f 34//24 28//20 31//24
f 28//4 35//4 19//4
f 19//3 35//3 28//3
f 36//3 3//3 32//3
f 32//4 3//4 36//4
f 37//27 29//25 32//27
f 32//28 29//26 37//28
f 38//3 32//3 29//3
f 29//4 32//4 38//4
f 30//21 29//25 39//25
f 39//26 29//26 30//22
f 38//3 29//3 31//3
f 31//4 29//4 38//4
f 11//4 39//4 30//4
f 30//3 39//3 11//3
f 30//4 34//4 28//4
f 28//3 34//3 30//3
f 33//3 38//3 31//3
f 31//4 38//4 33//4
f 34//4 35//4 28//4
f 28//3 35//3 34//3
f 34//23 38//29 31//23
f 31//24 38//30 34//24
f 40//3 3//3 36//3
f 36//4 3//4 40//4
f 36//30 37//27 32//27
f 32//28 37//28 36//29
f 41//3 36//3 32//3
f 32//4 36//4 41//4
f 29//25 37//27 39//25
f 39//26 37//28 29//26
f 41//3 32//3 38//3
f 38//4 32//4 41//4
f 39//4 34//4 30//4
f 30//3 34//3 39//3
f 11//4 37//4 39//4
f 39//3 37//3 11//3
f 33//3 41//3 38//3
f 38//4 41//4 33//4
f 34//4 42//4 35//4
f 35//3 42//3 34//3
f 38//29 34//23 43//29
f 43//30 34//24 38//30
f 40//3 44//3 3//3
f 3//4 44//4 40//4
f 45//24 36//30 40//24
f 40//23 36//29 45//23
f 46//3 40//3 36//3
f 36//4 40//4 46//4
f 37//27 36//30 47//30
f 47//29 36//29 37//28
f 46//3 36//3 41//3
f 41//4 36//4 46//4
f 37//4 43//4 39//4
f 39//3 43//3 37//3
f 38//29 48//28 41//28
f 41//27 48//27 38//30
f 39//4 43//4 34//4
f 34//3 43//3 39//3
f 11//4 47//4 37//4
f 37//3 47//3 11//3
f 49//3 41//3 33//3
f 33//4 41//4 49//4
f 43//4 42//4 34//4
f 34//3 42//3 43//3
f 48//28 38//29 43//29
f 43//30 38//30 48//27
f 50//3 44//3 40//3
f 40//4 44//4 50//4
f 36//30 45//24 47//30
f 47//29 45//23 36//29
f 50//20 45//24 40//24
f 40//23 45//23 50//19
f 51//3 40//3 46//3
f 46//4 40//4 51//4
f 47//4 48//4 37//4
f 37//3 48//3 47//3
f 49//3 46//3 41//3
f 41//4 46//4 49//4
f 48//28 46//26 41//28
f 41//27 46//25 48//27
f 37//4 48//4 43//4
f 43//3 48//3 37//3
f 11//4 45//4 47//4
f 47//3 45//3 11//3
f 48//4 42//4 43//4
f 43//3 42//3 48//3
f 52//3 44//3 50//3
f 50//4 44//4 52//4
f 51//3 50//3 40//3
f 40//4 50//4 51//4
f 45//4 53//4 47//4
f 47//3 53//3 45//3
f 45//24 50//20 54//20
f 54//19 50//19 45//23
f 55//3 51//3 46//3
f 46//4 51//4 55//4
f 53//26 51//22 46//26
f 46//25 51//21 53//25
f 47//4 53//4 48//4
f 48//3 53//3 47//3
f 55//3 46//3 49//3
f 49//4 46//4 55//4
f 46//26 48//28 53//26
f 53//25 48//27 46//25
f 56//4 45//4 11//4
f 11//3 45//3 56//3
f 48//4 57//4 42//4
f 42//3 57//3 48//3
f 58//3 44//3 52//3
f 52//4 44//4 58//4
f 52//16 54//20 50//20
f 50//19 54//19 52//15
f 59//3 52//3 50//3
f 50//4 52//4 59//4
f 59//3 50//3 51//3
f 51//4 50//4 59//4
f 45//4 60//4 53//4
f 53//3 60//3 45//3
f 56//4 54//4 45//4
f 45//3 54//3 56//3
f 54//4 60//4 45//4
f 45//3 60//3 54//3
f 61//3 51//3 55//3
f 55//4 51//4 61//4
f 51//22 53//26 60//22
f 60//21 53//25 51//21
f 53//4 57//4 48//4
f 48//3 57//3 53//3
f 44//3 58//3 62//3
f 62//4 58//4 44//4
f 58//3 52//3 63//3
f 63//4 52//4 58//4
f 54//20 52//16 64//16
f 64//15 52//15 54//19
f 65//3 52//3 59//3
f 59//4 52//4 65//4
f 61//3 59//3 51//3
f 51//4 59//4 61//4
f 60//22 59//18 51//22
f 51//21 59//17 60//21
f 60//4 66//4 53//4
f 53//3 66//3 60//3
f 56//4 64//4 54//4
f 54//3 64//3 56//3
f 54//4 67//4 60//4
f 60//3 67//3 54//3
f 53//4 66//4 57//4
f 57//3 66//3 53//3
f 68//12 52//16 63//12
f 63//11 52//15 68//11
f 65//3 63//3 52//3
f 52//4 63//4 65//4
f 58//3 63//3 69//3
f 69//4 63//4 58//4
f 52//16 68//12 64//16
f 64//15 68//11 52//15
f 64//4 67//4 54//4
f 54//3 67//3 64//3
f 70//3 65//3 59//3
f 59//4 65//4 70//4
f 59//18 71//14 65//14
f 65//13 71//13 59//17
f 70//3 59//3 61//3
f 61//4 59//4 70//4
f 59//18 60//22 67//18
f 67//17 60//21 59//17
f 60//4 72//4 66//4
f 66//3 72//3 60//3
f 56//4 73//4 64//4
f 64//3 73//3 56//3
f 67//4 72//4 60//4
f 60//3 72//3 67//3
f 74//10 68//12 63//12
f 63//11 68//11 74//8
f 75//3 63//3 65//3
f 65//4 63//4 75//4
f 69//3 63//3 76//3
f 76//4 63//4 69//4
f 64//4 73//4 68//4
f 68//3 73//3 64//3
f 68//4 71//4 64//4
f 64//3 71//3 68//3
f 64//4 71//4 67//4
f 67//3 71//3 64//3
f 70//3 75//3 65//3
f 65//4 75//4 70//4
f 71//14 59//18 67//18
f 67//17 59//17 71//13
f 77//9 65//14 71//14
f 71//13 65//13 77//7
f 73//4 56//4 78//4
f 78//3 56//3 73//3
f 67//4 79//4 72//4
f 72//3 79//3 67//3
f 68//12 74//10 80//10
f 80//8 74//8 68//11
f 76//3 63//3 74//3
f 74//4 63//4 76//4
f 63//3 75//3 74//3
f 74//4 75//4 63//4
f 65//14 77//9 75//9
f 75//7 77//7 65//13
f 68//4 73//4 81//4
f 81//3 73//3 68//3
f 68//4 77//4 71//4
f 71//3 77//3 68//3
f 71//4 79//4 67//4
f 67//3 79//3 71//3
f 82//3 75//3 70//3
f 70//4 75//4 82//4
f 77//4 79//4 71//4
f 71//3 79//3 77//3
f 74//10 77//9 80//10
f 80//8 77//7 74//8
f 68//4 83//4 80//4
f 80//3 83//3 68//3
f 77//4 68//4 80//4
f 80//3 68//3 77//3
f 74//3 82//3 76//3
f 76//4 82//4 74//4
f 82//3 74//3 75//3
f 75//4 74//4 82//4
f 77//9 74//10 75//9
f 75//7 74//8 77//7
f 68//4 81//4 83//4
f 83//3 81//3 68//3
f 77//4 84//4 79//4
f 79//3 84//3 77//3
f 80//4 84//4 77//4
f 77//3 84//3 80//3
f 84//4 80//4 83//4
f 83//3 80//3 84//3
