mtllib new-3.mtl
v -0.028943 -0.488403 0.095509
v -0.078530 -0.571813 0.060841
v -0.011775 -0.485726 0.094151
v -0.075715 -0.488403 0.061527
v -0.011775 -0.572720 0.094151
v -0.034239 -0.489747 0.098305
v 0.003871 -0.571813 0.097974
v -0.027421 -0.571813 0.097974
v -0.076738 -0.489747 0.067427
v -0.038770 -0.491300 0.102880
v -0.038544 -0.571778 0.109219
v -0.079689 -0.491300 0.073150
v -0.344503 -0.602196 0.455991
v -0.321184 -0.602196 0.472934
v -0.343067 -0.640091 0.449503
v -0.344521 -0.603154 0.461464
v -0.338317 -0.604207 0.471996
v -0.326383 -0.603154 0.474642
v -0.315457 -0.640091 0.469563
v -0.346740 -0.651046 0.455624
v -0.346830 -0.651089 0.461962
v -0.342113 -0.603900 0.467481
v -0.332850 -0.603900 0.474211
v -0.320144 -0.651046 0.474948
v -0.343447 -0.650986 0.449227
v -0.344137 -0.651122 0.468899
v -0.339830 -0.651136 0.474079
v -0.333573 -0.651122 0.476575
v -0.326143 -0.651089 0.476991
v -0.315077 -0.650986 0.469839
v -0.346138 -0.652677 0.455763
v -0.338155 -0.639041 0.444556
v -0.346227 -0.652689 0.461884
v -0.343629 -0.652698 0.468583
v -0.320462 -0.652677 0.474419
v -0.315568 -0.652660 0.469483
v -0.311784 -0.650927 0.463442
v -0.342956 -0.652660 0.449584
v -0.338381 -0.650927 0.444119
v -0.339472 -0.652702 0.473585
v -0.333430 -0.652698 0.475994
v -0.326256 -0.652689 0.476394
v -0.312386 -0.652643 0.463303
v -0.312270 -0.639041 0.463362
v -0.344532 -0.653353 0.456124
v -0.344613 -0.653353 0.461663
v -0.332329 -0.638276 0.442586
v -0.342263 -0.653353 0.467725
v -0.338502 -0.653353 0.472250
v -0.321301 -0.653353 0.473002
v -0.316872 -0.653353 0.468535
v -0.313992 -0.653353 0.462943
v -0.316825 -0.600879 0.468570
v -0.311695 -0.650884 0.457105
v -0.312298 -0.652631 0.457182
v -0.338063 -0.652643 0.444648
v -0.341652 -0.653353 0.450531
v -0.332381 -0.650884 0.442075
v -0.333035 -0.653353 0.474429
v -0.326544 -0.653353 0.474791
v -0.313912 -0.653353 0.457404
v -0.312197 -0.638276 0.457213
v -0.337224 -0.653353 0.446064
v -0.325109 -0.637681 0.443006
v -0.316261 -0.653353 0.451342
v -0.314387 -0.650850 0.450168
v -0.314895 -0.652622 0.450483
v -0.332269 -0.652631 0.442673
v -0.324952 -0.650850 0.442492
v -0.325489 -0.653353 0.444638
v -0.314827 -0.637681 0.450476
v -0.319023 -0.637438 0.445440
v -0.320023 -0.653353 0.446816
v -0.318694 -0.650836 0.444988
v -0.319053 -0.652618 0.445481
v -0.325095 -0.652622 0.443073
v -0.331980 -0.653353 0.444276
vn 0.000000 1.000000 0.000000
vn 0.000000 -1.000000 0.000000
vn 0.078843 0.000000 0.996887
vn -0.078843 0.000000 -0.996887
vn 0.239038 0.033043 0.970448
vn -0.239038 -0.033043 -0.970448
vn -0.986026 0.034613 -0.162957
vn 0.986026 -0.034613 0.162957
vn 0.445760 0.095035 0.890094
vn -0.445760 -0.095035 -0.890094
vn 0.121011 -0.955639 -0.268534
vn -0.121011 0.955639 0.268534
vn 0.710614 0.033733 0.702773
vn -0.710614 -0.033733 -0.702773
vn -0.043261 -0.997288 0.059543
vn 0.043261 0.997288 -0.059543
vn -0.893453 0.055285 -0.445742
vn 0.893453 -0.055285 0.445742
vn 0.699424 0.058072 0.712344
vn -0.699424 -0.058072 -0.712344
vn -0.001299 -0.999998 0.001788
vn 0.001299 0.999998 -0.001788
vn -0.829968 0.072606 -0.553065
vn 0.829968 -0.072606 0.553065
vn -0.139302 0.971511 0.191733
vn 0.139302 -0.971511 -0.191733
vn 0.786542 0.050685 0.615454
vn -0.786542 -0.050685 -0.615454
vn 0.115715 -0.988735 -0.094938
vn -0.115715 0.988735 0.094938
vn -0.830164 0.063369 -0.553907
vn 0.830164 -0.063369 0.553907
vn -0.161644 0.972134 0.169784
vn 0.161644 -0.972134 -0.169784
vn -0.136013 0.972859 0.187206
vn 0.136013 -0.972859 -0.187206
vn -0.111514 0.972131 0.206219
vn 0.111514 -0.972131 -0.206219
vn 0.785403 0.063923 0.615676
vn -0.785403 -0.063923 -0.615676
vn 0.087405 -0.988882 -0.120302
vn -0.087405 0.988882 0.120302
vn -0.889520 0.044146 -0.454758
vn 0.889520 -0.044146 0.454758
vn -0.998826 0.048162 0.005242
vn 0.998826 -0.048162 -0.005242
vn -0.147480 0.972625 0.179585
vn 0.147480 -0.972625 -0.179585
vn -0.140493 0.972781 0.184279
vn 0.140493 -0.972781 -0.184279
vn -0.131848 0.972781 0.190563
vn 0.131848 -0.972781 -0.190563
vn -0.125223 0.972624 0.195761
vn 0.125223 -0.972624 -0.195761
vn 0.304121 0.045707 0.951536
vn -0.304121 -0.045707 -0.951536
vn 0.707375 0.044146 0.705458
vn -0.707375 -0.044146 -0.705458
vn -0.888456 0.042545 -0.456985
vn 0.888456 -0.042545 0.456985
vn -0.998854 0.045842 -0.013765
vn 0.998854 -0.045842 0.013765
vn -0.931073 0.048599 0.361581
vn 0.931073 -0.048599 -0.361581
vn -0.925024 0.050956 0.376477
vn 0.925024 -0.050956 -0.376477
vn -0.762573 0.053199 0.644711
vn 0.762573 -0.053199 -0.644711
vn -0.377485 0.052048 0.924552
vn 0.377485 -0.052048 -0.924552
vn -0.071930 0.048471 0.996231
vn 0.071930 -0.048471 -0.996231
vn 0.321709 0.047961 0.945623
vn -0.321709 -0.047961 -0.945623
vn 0.709167 0.042543 0.703756
vn -0.709167 -0.042543 -0.703756
vn -0.833420 -0.344357 -0.432238
vn 0.833420 0.344357 0.432238
vn -0.713443 0.042584 -0.699418
vn 0.713443 -0.042584 0.699418
vn -0.935888 -0.351953 -0.015588
vn 0.935888 0.351953 0.015588
vn -0.874015 -0.349551 0.337508
vn 0.874015 0.349551 -0.337508
vn -0.767816 0.052085 0.638549
vn 0.767816 -0.052085 -0.638549
vn -0.370016 0.053091 0.927507
vn 0.370016 -0.053091 -0.927507
vn -0.056177 0.050763 0.997129
vn 0.056177 -0.050763 -0.997129
vn 0.304558 -0.347329 0.886909
vn -0.304558 0.347329 -0.886909
vn 0.670399 -0.337302 0.660902
vn -0.670399 0.337302 -0.660902
vn 0.888136 0.042547 0.457608
vn -0.888136 -0.042547 -0.457608
vn -0.836607 -0.337223 -0.431705
vn 0.836607 0.337223 0.431705
vn -0.937672 -0.347232 -0.014202
vn 0.937672 0.347232 0.014202
vn -0.709734 0.039396 -0.703367
vn 0.709734 -0.039396 0.703367
vn -0.874881 -0.346169 0.338749
vn 0.874881 0.346169 -0.338749
vn -0.719944 -0.352028 0.598128
vn 0.719944 0.352028 -0.598128
vn -0.719794 -0.353334 0.597538
vn 0.719794 0.353334 -0.597538
vn -0.346055 -0.352023 0.869670
vn 0.346055 0.352023 -0.869670
vn -0.050993 -0.346238 0.936760
vn 0.050993 0.346238 -0.936760
vn 0.302687 -0.352045 0.885689
vn -0.302687 0.352045 -0.885689
vn 0.667234 -0.344518 0.660384
vn -0.667234 0.344518 -0.660384
vn 0.837380 -0.337133 0.430275
vn -0.837380 0.337133 -0.430275
vn 0.885999 0.039333 0.462016
vn -0.885999 -0.039333 -0.462016
vn 0.840656 -0.329607 0.429717
vn -0.840656 0.329607 -0.429717
vn -0.666554 -0.337039 -0.664914
vn 0.666554 0.337039 0.664914
vn -0.346934 -0.920232 -0.181136
vn 0.346934 0.920232 0.181136
vn -0.381493 -0.924343 -0.007334
vn 0.381493 0.924343 0.007334
vn -0.324944 0.040972 -0.944845
vn 0.324944 -0.040972 0.944845
vn -0.356846 -0.924054 0.137061
vn 0.356846 0.924054 -0.137061
vn -0.290421 -0.926139 0.240669
vn 0.290421 0.926139 -0.240669
vn -0.346201 -0.353360 0.869069
vn 0.346201 0.353360 -0.869069
vn -0.051742 -0.349585 0.935475
vn 0.051742 0.349585 -0.935475
vn 0.126543 -0.922168 0.365505
vn -0.126543 0.922168 -0.365505
vn 0.284657 -0.917092 0.279127
vn -0.284657 0.917092 -0.279127
vn 0.362479 -0.913612 0.184178
vn -0.362479 0.913612 -0.184178
vn 0.885650 0.042614 0.462393
vn -0.885650 -0.042614 -0.462393
vn 0.999058 0.040953 0.014363
vn -0.999058 -0.040953 -0.014363
vn 0.943241 -0.331856 0.012932
vn -0.943241 0.331856 -0.012932
vn -0.669924 -0.329451 -0.665330
vn 0.669924 0.329451 0.665330
vn -0.354689 -0.916969 -0.182658
vn 0.354689 0.916969 0.182658
vn -0.387072 -0.922032 -0.005626
vn 0.387072 0.922032 0.005626
vn -0.360456 -0.922253 0.139716
vn 0.360456 0.922253 -0.139716
vn -0.322385 0.039635 -0.945778
vn 0.322385 -0.039635 0.945778
vn -0.291417 -0.925430 0.242188
vn 0.291417 0.925430 -0.242188
vn -0.139600 -0.926186 0.350272
vn 0.139600 0.926186 -0.350272
vn -0.139770 -0.925455 0.352134
vn 0.139770 0.925455 -0.352134
vn -0.020312 -0.922350 0.385820
vn 0.020312 0.922350 -0.385820
vn 0.123102 -0.924436 0.360922
vn -0.123102 0.924436 -0.360922
vn 0.277580 -0.920444 0.275194
vn -0.277580 0.920444 -0.275194
vn 0.354685 -0.916971 0.182656
vn -0.354685 0.916971 -0.182656
vn 0.403152 -0.915114 0.005862
vn -0.403152 0.915114 -0.005862
vn 0.999072 0.039609 0.016909
vn -0.999072 -0.039609 -0.016909
vn 0.945376 -0.325793 0.011107
vn -0.945376 0.325793 -0.011107
vn 0.408875 -0.912581 0.004077
vn -0.408875 0.912581 -0.004077
vn -0.301987 -0.331727 -0.893734
vn 0.301987 0.331727 0.893734
vn -0.281963 -0.916841 -0.282665
vn 0.281963 0.916841 0.282665
vn 0.054708 0.040177 -0.997694
vn -0.054708 -0.040177 0.997694
vn -0.021241 -0.924135 0.381476
vn 0.021241 0.924135 -0.381476
vn 0.931565 0.040169 -0.361348
vn -0.931565 -0.040169 0.361348
vn 0.883165 -0.320055 -0.342906
vn -0.883165 0.320055 0.342906
vn 0.386592 -0.909996 -0.149849
vn -0.386592 0.909996 0.149849
vn -0.304467 -0.325720 -0.895101
vn 0.304467 0.325720 0.895101
vn -0.289069 -0.913404 -0.286586
vn 0.289069 0.913404 0.286586
vn 0.055791 0.039577 -0.997658
vn -0.055791 -0.039577 0.997658
vn 0.931962 0.039564 -0.360391
vn -0.931962 -0.039564 0.360391
vn 0.884220 -0.315184 -0.344694
vn -0.884220 0.315184 0.344694
vn 0.390320 -0.907939 -0.152634
vn -0.390320 0.907939 0.152634
vn 0.054511 -0.319959 -0.945862
vn -0.054511 0.319959 0.945862
vn -0.128482 -0.914972 -0.382516
vn 0.128482 0.914972 0.382516
vn 0.369710 0.040614 -0.928259
vn -0.369710 -0.040614 0.928259
vn 0.768352 0.040610 -0.638738
vn -0.768352 -0.040610 0.638738
vn 0.729177 -0.317282 -0.606327
vn -0.729177 0.317282 0.606327
vn 0.319906 -0.909383 -0.265863
vn -0.319906 0.909383 0.265863
vn 0.053299 -0.315150 -0.947544
vn -0.053299 0.315150 0.947544
vn -0.132070 -0.912476 -0.387227
vn 0.132070 0.912476 0.387227
vn 0.370051 0.040435 -0.928131
vn -0.370051 -0.040435 0.928131
vn 0.154712 -0.908497 -0.388197
vn -0.154712 0.908497 0.388197
vn 0.768584 0.040430 -0.638470
vn -0.768584 -0.040430 0.638470
vn 0.729311 -0.315246 -0.607228
vn -0.729311 0.315246 0.607228
vn 0.320930 -0.908553 -0.267461
vn -0.320930 0.908553 0.267461
vn 0.351896 -0.317294 -0.880621
vn -0.351896 0.317294 0.880621
vn 0.024316 -0.909881 -0.414155
vn -0.024316 0.909881 0.414155
vn 0.023311 -0.907841 -0.418665
vn -0.023311 0.907841 0.418665
vn 0.154556 -0.909346 -0.386266
vn -0.154556 0.909346 0.386266
vn 0.351575 -0.315202 -0.881500
vn -0.351575 0.315202 0.881500
usemtl material-0
f 3//3 1//3 5//3
f 5//4 1//4 3//4
f 1//5 8//5 5//5
f 5//6 8//6 1//6
f 2//7 9//7 4//7
f 4//8 9//8 2//8
f 1//9 6//9 11//9
f 11//10 6//10 1//10
f 7//11 5//11 2//11
f 2//12 5//12 7//12
f 1//13 11//13 8//13
f 8//14 11//14 1//14
f 5//15 8//15 2//15
f 2//16 8//16 5//16
f 2//17 12//17 9//17
f 9//18 12//18 2//18
f 6//19 10//19 11//19
f 11//20 10//20 6//20
f 8//21 11//21 2//21
f 2//22 11//22 8//22
f 2//23 13//23 12//23
f 12//24 13//24 2//24
f 10//25 9//25 12//25
f 12//26 9//26 10//26
f 10//27 14//27 11//27
f 11//28 14//28 10//28
f 11//29 15//29 2//29
f 2//30 15//30 11//30
f 2//31 15//31 13//31
f 13//32 15//32 2//32
f 12//33 13//33 16//33
f 16//34 13//34 12//34
f 10//35 12//35 17//35
f 17//36 12//36 10//36
f 10//37 18//37 14//37
f 14//38 18//38 10//38
f 11//39 14//39 19//39
f 19//40 14//40 11//40
f 11//41 19//41 15//41
f 15//42 19//42 11//42
f 15//43 20//43 13//43
f 13//44 20//44 15//44
f 13//45 21//45 16//45
f 16//46 21//46 13//46
f 12//47 16//47 22//47
f 22//48 16//48 12//48
f 12//49 22//49 17//49
f 17//50 22//50 12//50
f 10//51 17//51 23//51
f 23//52 17//52 10//52
f 10//53 23//53 18//53
f 18//54 23//54 10//54
f 14//55 18//55 24//55
f 24//56 18//56 14//56
f 19//57 14//57 24//57
f 24//58 14//58 19//58
f 25//59 20//59 15//59
f 15//60 20//60 25//60
f 20//61 21//61 13//61
f 13//62 21//62 20//62
f 16//63 21//63 26//63
f 26//64 21//64 16//64
f 16//65 26//65 22//65
f 22//66 26//66 16//66
f 22//67 27//67 17//67
f 17//68 27//68 22//68
f 23//69 17//69 28//69
f 28//70 17//70 23//70
f 18//71 23//71 29//71
f 29//72 23//72 18//72
f 18//73 29//73 24//73
f 24//74 29//74 18//74
f 19//75 24//75 30//75
f 30//76 24//76 19//76
f 25//77 31//77 20//77
f 20//78 31//78 25//78
f 32//79 25//79 15//79
f 15//80 25//80 32//80
f 20//81 33//81 21//81
f 21//82 33//82 20//82
f 21//83 34//83 26//83
f 26//84 34//84 21//84
f 22//85 26//85 27//85
f 27//86 26//86 22//86
f 17//87 27//87 28//87
f 28//88 27//88 17//88
f 23//89 28//89 29//89
f 29//90 28//90 23//90
f 24//91 29//91 35//91
f 35//92 29//92 24//92
f 36//93 30//93 24//93
f 24//94 30//94 36//94
f 37//95 19//95 30//95
f 30//96 19//96 37//96
f 25//97 38//97 31//97
f 31//98 38//98 25//98
f 20//99 31//99 33//99
f 33//100 31//100 20//100
f 39//101 25//101 32//101
f 32//102 25//102 39//102
f 33//103 34//103 21//103
f 21//104 34//104 33//104
f 34//105 40//105 26//105
f 26//106 40//106 34//106
f 26//107 40//107 27//107
f 27//108 40//108 26//108
f 28//109 27//109 41//109
f 41//110 27//110 28//110
f 29//111 28//111 42//111
f 42//112 28//112 29//112
f 29//113 42//113 35//113
f 35//114 42//114 29//114
f 36//115 24//115 35//115
f 35//116 24//116 36//116
f 43//117 30//117 36//117
f 36//118 30//118 43//118
f 44//119 19//119 37//119
f 37//120 19//120 44//120
f 43//121 37//121 30//121
f 30//122 37//122 43//122
f 39//123 38//123 25//123
f 25//124 38//124 39//124
f 38//125 45//125 31//125
f 31//126 45//126 38//126
f 46//127 33//127 31//127
f 31//128 33//128 46//128
f 47//129 39//129 32//129
f 32//130 39//130 47//130
f 48//131 34//131 33//131
f 33//132 34//132 48//132
f 49//133 40//133 34//133
f 34//134 40//134 49//134
f 27//135 40//135 41//135
f 41//136 40//136 27//136
f 28//137 41//137 42//137
f 42//138 41//138 28//138
f 35//139 42//139 50//139
f 50//140 42//140 35//140
f 36//141 35//141 51//141
f 51//142 35//142 36//142
f 43//143 36//143 52//143
f 52//144 36//144 43//144
f 44//145 53//145 19//145
f 19//146 53//146 44//146
f 54//147 44//147 37//147
f 37//148 44//148 54//148
f 55//149 37//149 43//149
f 43//150 37//150 55//150
f 39//151 56//151 38//151
f 38//152 56//152 39//152
f 57//153 45//153 38//153
f 38//154 45//154 57//154
f 45//155 46//155 31//155
f 31//156 46//156 45//156
f 48//157 33//157 46//157
f 46//158 33//158 48//158
f 47//159 58//159 39//159
f 39//160 58//160 47//160
f 49//161 34//161 48//161
f 48//162 34//162 49//162
f 59//163 40//163 49//163
f 49//164 40//164 59//164
f 59//165 41//165 40//165
f 40//166 41//166 59//166
f 42//167 41//167 60//167
f 60//168 41//168 42//168
f 50//169 42//169 60//169
f 60//170 42//170 50//170
f 51//171 35//171 50//171
f 50//172 35//172 51//172
f 52//173 36//173 51//173
f 51//174 36//174 52//174
f 43//175 52//175 61//175
f 61//176 52//176 43//176
f 54//177 62//177 44//177
f 44//178 62//178 54//178
f 54//179 37//179 55//179
f 55//180 37//180 54//180
f 55//181 43//181 61//181
f 61//182 43//182 55//182
f 58//183 56//183 39//183
f 39//184 56//184 58//184
f 56//185 57//185 38//185
f 38//186 57//186 56//186
f 63//2 45//2 57//2
f 57//1 45//1 63//1
f 48//2 46//2 45//2
f 45//1 46//1 48//1
f 64//187 58//187 47//187
f 47//188 58//188 64//188
f 59//2 49//2 48//2
f 48//1 49//1 59//1
f 60//189 41//189 59//189
f 59//190 41//190 60//190
f 50//2 60//2 59//2
f 59//1 60//1 50//1
f 52//2 51//2 50//2
f 50//1 51//1 52//1
f 61//2 52//2 65//2
f 65//1 52//1 61//1
f 66//191 62//191 54//191
f 54//192 62//192 66//192
f 67//193 54//193 55//193
f 55//194 54//194 67//194
f 55//195 61//195 65//195
f 65//196 61//196 55//196
f 58//197 68//197 56//197
f 56//198 68//198 58//198
f 63//199 57//199 56//199
f 56//200 57//200 63//200
f 59//2 45//2 63//2
f 63//1 45//1 59//1
f 59//2 48//2 45//2
f 45//1 48//1 59//1
f 64//201 69//201 58//201
f 58//202 69//202 64//202
f 52//2 50//2 59//2
f 59//1 50//1 52//1
f 52//2 70//2 65//2
f 65//1 70//1 52//1
f 66//203 71//203 62//203
f 62//204 71//204 66//204
f 66//205 54//205 67//205
f 67//206 54//206 66//206
f 55//207 65//207 67//207
f 67//208 65//208 55//208
f 69//209 68//209 58//209
f 58//210 68//210 69//210
f 68//211 63//211 56//211
f 56//212 63//212 68//212
f 70//2 59//2 63//2
f 63//1 59//1 70//1
f 72//213 69//213 64//213
f 64//214 69//214 72//214
f 52//2 59//2 70//2
f 70//1 59//1 52//1
f 65//2 70//2 73//2
f 73//1 70//1 65//1
f 74//215 71//215 66//215
f 66//216 71//216 74//216
f 75//217 66//217 67//217
f 67//218 66//218 75//218
f 67//219 65//219 73//219
f 73//220 65//220 67//220
f 69//221 76//221 68//221
f 68//222 76//222 69//222
f 77//223 63//223 68//223
f 68//224 63//224 77//224
f 70//2 63//2 77//2
f 77//1 63//1 70//1
f 72//225 74//225 69//225
f 69//226 74//226 72//226
f 75//227 73//227 70//227
f 70//228 73//228 75//228
f 74//229 72//229 71//229
f 71//230 72//230 74//230
f 74//231 66//231 75//231
f 75//232 66//232 74//232
f 67//233 73//233 75//233
f 75//234 73//234 67//234
f 74//235 76//235 69//235
f 69//236 76//236 74//236
f 76//237 77//237 68//237
f 68//238 77//238 76//238
f 76//239 70//239 77//239
f 77//240 70//240 76//240
f 75//241 70//241 76//241
f 76//242 70//242 75//242
f 74//243 75//243 76//243
f 76//244 75//244 74//244