mtllib new-7.mtl
v 0.022485 -0.619254 0.015667
v 0.023156 -0.619254 0.022482
v 0.026332 -0.619254 0.022482
v 0.020497 -0.619254 0.009114
v 0.022485 -0.619254 0.029296
v 0.025600 -0.619254 0.015047
v -0.046035 -0.619254 0.029296
v -0.046707 -0.619254 0.022482
v 0.017269 -0.619254 0.003075
v 0.025600 -0.619254 0.029916
v 0.025600 -0.396962 0.015047
v 0.020497 -0.619254 0.035849
v -0.046035 -0.619254 0.015667
v 0.023431 -0.619254 0.007899
v -0.044048 -0.619254 0.009114
v 0.026332 -0.396962 0.022482
v -0.044048 -0.619254 0.035849
v -0.049150 -0.619254 0.029916
v -0.049882 -0.619254 0.022482
v 0.019910 -0.619254 0.001310
v 0.025600 -0.396962 0.029916
v 0.023431 -0.619254 0.037065
v 0.023431 -0.396962 0.007899
v -0.040820 -0.619254 0.041889
v -0.049150 -0.619254 0.015047
v 0.012925 -0.619254 -0.002219
v 0.019910 -0.396962 0.001310
v -0.040820 -0.619254 0.003075
v 0.023431 -0.396962 0.037065
v 0.008028 -0.396962 0.014279
v -0.046982 -0.619254 0.037065
v -0.049150 -0.396962 0.029916
v -0.049882 -0.396962 0.022482
v -0.046982 -0.619254 0.007899
v 0.015171 -0.619254 -0.004464
v -0.036475 -0.619254 -0.002219
v 0.019910 -0.619254 0.043653
v 0.006048 -0.396962 0.010573
v -0.043460 -0.619254 0.043653
v -0.049150 -0.396962 0.015047
v -0.046982 -0.396962 0.007899
v 0.007632 -0.619254 -0.006563
v 0.015171 -0.396962 -0.004464
v -0.043460 -0.619254 0.001310
v 0.019910 -0.396962 0.043653
v 0.003382 -0.396962 0.007325
v -0.036475 -0.619254 0.047182
v -0.043460 -0.396962 0.043653
v -0.046982 -0.396962 0.037065
v -0.032799 -0.396962 0.026663
v -0.032799 -0.396962 0.018300
v 0.009396 -0.619254 -0.009203
v 0.001593 -0.619254 -0.009791
v -0.031182 -0.619254 -0.006563
v -0.038721 -0.619254 -0.004464
v 0.015171 -0.396962 0.049427
v 0.015171 -0.619254 0.049427
v -0.038721 -0.619254 0.049427
v -0.031579 -0.396962 0.030685
v -0.033210 -0.396962 0.022482
v -0.031579 -0.396962 0.014279
v -0.043460 -0.396962 0.001310
v 0.000134 -0.396962 0.004659
v 0.009396 -0.396962 -0.009203
v -0.038721 -0.396962 -0.004464
v -0.031182 -0.619254 0.051526
v -0.038721 -0.396962 0.049427
v -0.029598 -0.396962 0.034390
v -0.029598 -0.396962 0.010573
v 0.002808 -0.619254 -0.012725
v 0.002808 -0.396962 -0.012725
v -0.032946 -0.619254 -0.009203
v -0.032946 -0.396962 -0.009203
v 0.009396 -0.396962 0.054167
v 0.009396 -0.619254 0.054167
v -0.025143 -0.619254 0.054754
v -0.032946 -0.619254 0.054167
v -0.026932 -0.396962 0.037639
v -0.026932 -0.396962 0.007325
v -0.004960 -0.619254 -0.011779
v -0.003572 -0.396962 0.002678
v -0.025143 -0.619254 -0.009791
v -0.023684 -0.396962 0.004659
v 0.001593 -0.619254 0.054754
v -0.032946 -0.396962 0.054167
v -0.023684 -0.396962 0.040304
v -0.004341 -0.619254 -0.014893
v -0.007593 -0.396962 0.001458
v -0.018590 -0.619254 -0.011779
v -0.011775 -0.619254 -0.012450
v -0.026358 -0.619254 -0.012725
v -0.019978 -0.396962 0.002678
v 0.002808 -0.619254 0.057688
v -0.004960 -0.619254 0.056742
v -0.026358 -0.619254 0.057688
v -0.026358 -0.396962 0.057688
v -0.004341 -0.396962 -0.014893
v -0.026358 -0.396962 -0.012725
v 0.002808 -0.396962 0.057688
v -0.018590 -0.619254 0.056742
v -0.019978 -0.396962 0.042285
v -0.011775 -0.619254 -0.015626
v -0.011775 -0.396962 -0.015626
v -0.011775 -0.396962 0.001046
v -0.019209 -0.619254 -0.014893
v -0.019209 -0.396962 -0.014893
v -0.015957 -0.396962 0.001458
v -0.004341 -0.396962 0.059857
v -0.004341 -0.619254 0.059857
v -0.011775 -0.619254 0.057413
v -0.019209 -0.619254 0.059857
v -0.015957 -0.396962 0.043505
v -0.019209 -0.396962 0.059857
v -0.011775 -0.396962 0.043917
v -0.011775 -0.619254 0.060589
v -0.011775 -0.396962 0.060589
vn 0.995185 0.000000 -0.098017
vn -0.995185 0.000000 0.098017
vn 0.000000 -1.000000 0.000000
vn 0.000000 1.000000 0.000000
vn 0.956940 0.000000 -0.290285
vn -0.956940 0.000000 0.290285
vn 0.995185 0.000000 0.098017
vn -0.995185 0.000000 -0.098017
vn 0.881921 0.000000 -0.471397
vn -0.881921 0.000000 0.471397
vn 0.956940 0.000000 0.290285
vn -0.956940 0.000000 -0.290285
vn 0.773010 0.000000 -0.634393
vn -0.773010 0.000000 0.634393
vn -0.881921 0.000000 -0.471397
vn 0.881921 0.000000 0.471397
vn 0.881922 0.000000 -0.471396
vn -0.881922 0.000000 0.471396
vn 0.634393 0.000000 -0.773010
vn -0.634393 0.000000 0.773010
vn -0.773010 0.000000 -0.634393
vn 0.773010 0.000000 0.634393
vn 0.881922 0.000000 0.471396
vn -0.881922 0.000000 -0.471396
vn 0.634393 0.000000 -0.773011
vn -0.634393 0.000000 0.773011
vn 0.471397 0.000000 -0.881921
vn -0.471397 0.000000 0.881921
vn -0.634393 0.000000 -0.773010
vn 0.634393 0.000000 0.773010
vn -0.471397 0.000000 -0.881921
vn 0.471397 0.000000 0.881921
vn 0.290285 0.000000 -0.956940
vn -0.290285 0.000000 0.956940
vn 0.634393 0.000000 0.773011
vn -0.634393 0.000000 -0.773011
vn -0.290285 0.000000 -0.956940
vn 0.290285 0.000000 0.956940
vn 0.098017 0.000000 -0.995185
vn -0.098017 0.000000 0.995185
vn -0.098017 0.000000 -0.995185
vn 0.098017 0.000000 0.995185
usemtl material-0
f 3//3 2//3 1//3
f 1//4 2//4 3//4
f 3//3 5//3 2//3
f 2//4 5//4 3//4
f 3//3 1//3 6//3
f 6//4 1//4 3//4
f 6//3 1//3 4//3
f 4//4 1//4 6//4
f 3//3 10//3 5//3
f 5//4 10//4 3//4
f 11//1 3//1 6//1
f 6//2 3//2 11//2
f 6//3 4//3 14//3
f 14//4 4//4 6//4
f 14//3 4//3 9//3
f 9//4 4//4 14//4
f 16//7 10//7 3//7
f 3//8 10//8 16//8
f 10//3 12//3 5//3
f 5//4 12//4 10//4
f 11//1 16//1 3//1
f 3//2 16//2 11//2
f 14//5 11//5 6//5
f 6//6 11//6 14//6
f 7//3 18//3 8//3
f 8//4 18//4 7//4
f 13//3 8//3 19//3
f 19//4 8//4 13//4
f 14//3 9//3 20//3
f 20//4 9//4 14//4
f 16//7 21//7 10//7
f 10//8 21//8 16//8
f 10//3 22//3 12//3
f 12//4 22//4 10//4
f 23//5 11//5 14//5
f 14//6 11//6 23//6
f 17//3 18//3 7//3
f 7//4 18//4 17//4
f 8//3 18//3 19//3
f 19//4 18//4 8//4
f 13//3 19//3 25//3
f 25//4 19//4 13//4
f 15//3 13//3 25//3
f 25//4 13//4 15//4
f 27//17 14//17 20//17
f 20//18 14//18 27//18
f 21//11 29//11 10//11
f 10//12 29//12 21//12
f 10//11 29//11 22//11
f 22//12 29//12 10//12
f 11//4 23//4 30//4
f 30//3 23//3 11//3
f 27//17 23//17 14//17
f 14//18 23//18 27//18
f 24//3 31//3 17//3
f 17//4 31//4 24//4
f 17//3 31//3 18//3
f 18//4 31//4 17//4
f 19//2 18//2 32//2
f 32//1 18//1 19//1
f 25//8 19//8 33//8
f 33//7 19//7 25//7
f 15//3 25//3 34//3
f 34//4 25//4 15//4
f 20//3 26//3 35//3
f 35//4 26//4 20//4
f 35//13 27//13 20//13
f 20//14 27//14 35//14
f 28//3 15//3 34//3
f 34//4 15//4 28//4
f 29//23 37//23 22//23
f 22//24 37//24 29//24
f 23//4 27//4 38//4
f 38//3 27//3 23//3
f 24//3 39//3 31//3
f 31//4 39//4 24//4
f 18//6 31//6 32//6
f 32//5 31//5 18//5
f 19//2 32//2 33//2
f 33//1 32//1 19//1
f 25//8 33//8 40//8
f 40//7 33//7 25//7
f 34//12 25//12 41//12
f 41//11 25//11 34//11
f 43//13 27//13 35//13
f 35//14 27//14 43//14
f 28//3 34//3 44//3
f 44//4 34//4 28//4
f 36//3 28//3 44//3
f 44//4 28//4 36//4
f 29//23 45//23 37//23
f 37//24 45//24 29//24
f 27//4 46//4 38//4
f 38//3 46//3 27//3
f 47//3 39//3 24//3
f 24//4 39//4 47//4
f 31//10 39//10 48//10
f 48//9 39//9 31//9
f 32//6 31//6 49//6
f 49//5 31//5 32//5
f 50//4 33//4 32//4
f 32//3 33//3 50//3
f 51//4 40//4 33//4
f 33//3 40//3 51//3
f 41//12 25//12 40//12
f 40//11 25//11 41//11
f 44//15 34//15 41//15
f 41//16 34//16 44//16
f 35//3 42//3 52//3
f 52//4 42//4 35//4
f 27//4 43//4 46//4
f 46//3 43//3 27//3
f 43//25 35//25 52//25
f 52//26 35//26 43//26
f 36//3 44//3 55//3
f 55//4 44//4 36//4
f 45//22 56//22 37//22
f 37//21 56//21 45//21
f 39//14 58//14 48//14
f 48//13 58//13 39//13
f 31//10 48//10 49//10
f 49//9 48//9 31//9
f 59//4 32//4 49//4
f 49//3 32//3 59//3
f 50//4 60//4 33//4
f 33//3 60//3 50//3
f 59//4 50//4 32//4
f 32//3 50//3 59//3
f 61//4 40//4 51//4
f 51//3 40//3 61//3
f 51//4 33//4 60//4
f 60//3 33//3 51//3
f 61//4 41//4 40//4
f 40//3 41//3 61//3
f 44//15 41//15 62//15
f 62//16 41//16 44//16
f 43//4 63//4 46//4
f 46//3 63//3 43//3
f 43//25 52//25 64//25
f 64//26 52//26 43//26
f 54//3 36//3 55//3
f 55//4 36//4 54//4
f 55//21 44//21 65//21
f 65//22 44//22 55//22
f 37//22 56//22 57//22
f 57//21 56//21 37//21
f 66//3 58//3 47//3
f 47//4 58//4 66//4
f 48//14 58//14 67//14
f 67//13 58//13 48//13
f 68//4 49//4 48//4
f 48//3 49//3 68//3
f 68//4 59//4 49//4
f 49//3 59//3 68//3
f 69//4 41//4 61//4
f 61//3 41//3 69//3
f 69//4 62//4 41//4
f 41//3 62//3 69//3
f 65//21 44//21 62//21
f 62//22 44//22 65//22
f 43//4 64//4 63//4
f 63//3 64//3 43//3
f 64//27 52//27 71//27
f 71//28 52//28 64//28
f 73//29 55//29 65//29
f 65//30 55//30 73//30
f 74//35 57//35 56//35
f 56//36 57//36 74//36
f 67//20 58//20 77//20
f 77//19 58//19 67//19
f 78//4 48//4 67//4
f 67//3 48//3 78//3
f 78//4 68//4 48//4
f 48//3 68//3 78//3
f 79//4 62//4 69//4
f 69//3 62//3 79//3
f 79//4 65//4 62//4
f 62//3 65//3 79//3
f 70//3 53//3 80//3
f 80//4 53//4 70//4
f 71//27 52//27 70//27
f 70//28 52//28 71//28
f 64//4 81//4 63//4
f 63//3 81//3 64//3
f 64//4 71//4 81//4
f 81//3 71//3 64//3
f 73//29 72//29 55//29
f 55//30 72//30 73//30
f 83//4 73//4 65//4
f 65//3 73//3 83//3
f 74//35 75//35 57//35
f 57//36 75//36 74//36
f 76//3 77//3 66//3
f 66//4 77//4 76//4
f 67//20 77//20 85//20
f 85//19 77//19 67//19
f 86//4 78//4 67//4
f 67//3 78//3 86//3
f 83//4 65//4 79//4
f 79//3 65//3 83//3
f 70//3 80//3 87//3
f 87//4 80//4 70//4
f 71//33 70//33 87//33
f 87//34 70//34 71//34
f 71//4 88//4 81//4
f 81//3 88//3 71//3
f 73//31 91//31 72//31
f 72//32 91//32 73//32
f 82//3 72//3 91//3
f 91//4 72//4 82//4
f 92//4 73//4 83//4
f 83//3 73//3 92//3
f 74//32 93//32 75//32
f 75//31 93//31 74//31
f 76//3 95//3 77//3
f 77//4 95//4 76//4
f 85//28 77//28 96//28
f 96//27 77//27 85//27
f 86//4 67//4 85//4
f 85//3 67//3 86//3
f 87//3 80//3 90//3
f 90//4 80//4 87//4
f 71//33 87//33 97//33
f 97//34 87//34 71//34
f 71//4 97//4 88//4
f 88//3 97//3 71//3
f 89//3 82//3 91//3
f 91//4 82//4 89//4
f 98//31 91//31 73//31
f 73//32 91//32 98//32
f 92//4 98//4 73//4
f 73//3 98//3 92//3
f 99//32 93//32 74//32
f 74//31 93//31 99//31
f 93//3 94//3 84//3
f 84//4 94//4 93//4
f 100//3 95//3 76//3
f 76//4 95//4 100//4
f 96//28 77//28 95//28
f 95//27 77//27 96//27
f 101//4 85//4 96//4
f 96//3 85//3 101//3
f 87//3 90//3 102//3
f 102//4 90//4 87//4
f 97//39 87//39 103//39
f 103//40 87//40 97//40
f 97//4 104//4 88//4
f 88//3 104//3 97//3
f 89//3 91//3 105//3
f 105//4 91//4 89//4
f 106//37 91//37 98//37
f 98//38 91//38 106//38
f 107//4 98//4 92//4
f 92//3 98//3 107//3
f 108//38 93//38 99//38
f 99//37 93//37 108//37
f 93//3 109//3 94//3
f 94//4 109//4 93//4
f 100//3 111//3 95//3
f 95//4 111//4 100//4
f 96//34 95//34 111//34
f 111//33 95//33 96//33
f 112//4 101//4 96//4
f 96//3 101//3 112//3
f 90//3 105//3 102//3
f 102//4 105//4 90//4
f 103//39 87//39 102//39
f 102//40 87//40 103//40
f 97//4 103//4 104//4
f 104//3 103//3 97//3
f 106//37 105//37 91//37
f 91//38 105//38 106//38
f 90//3 89//3 105//3
f 105//4 89//4 90//4
f 107//4 106//4 98//4
f 98//3 106//3 107//3
f 108//38 109//38 93//38
f 93//37 109//37 108//37
f 109//3 110//3 94//3
f 94//4 110//4 109//4
f 110//3 111//3 100//3
f 100//4 111//4 110//4
f 96//34 111//34 113//34
f 113//33 111//33 96//33
f 112//4 96//4 113//4
f 113//3 96//3 112//3
f 106//41 102//41 105//41
f 105//42 102//42 106//42
f 103//41 102//41 106//41
f 106//42 102//42 103//42
f 103//4 106//4 104//4
f 104//3 106//3 103//3
f 104//4 106//4 107//4
f 107//3 106//3 104//3
f 108//42 115//42 109//42
f 109//41 115//41 108//41
f 109//3 115//3 110//3
f 110//4 115//4 109//4
f 115//3 111//3 110//3
f 110//4 111//4 115//4
f 113//40 111//40 116//40
f 116//39 111//39 113//39
f 116//42 115//42 108//42
f 108//41 115//41 116//41
f 116//40 111//40 115//40
f 115//39 111//39 116//39
f 114//4 113//4 116//4
f 116//3 113//3 114//3