mtllib new-5.mtl
v -0.053773 -0.485726 -0.035105
v -0.040682 -0.488403 -0.046294
v -0.053773 -0.572720 -0.035105
v -0.086325 -0.488403 0.028872
v -0.068678 -0.571813 -0.029001
v -0.068460 -0.488403 -0.026112
v -0.028943 -0.488403 0.095509
v 0.019812 -0.571813 -0.047394
v -0.090621 -0.489747 0.024699
v 0.052165 -0.488403 0.061527
v -0.079729 -0.485726 0.044780
v -0.038041 -0.489747 -0.051669
v -0.078530 -0.571813 0.060841
v -0.074388 -0.489747 -0.025261
v -0.096372 -0.491300 0.021804
v -0.102331 -0.571778 0.023978
v 0.044910 -0.488403 -0.026112
v -0.011775 -0.485726 0.094151
v -0.079729 -0.572720 0.044780
v -0.075715 -0.488403 0.061527
v 0.017132 -0.488403 -0.046294
v -0.037065 -0.491300 -0.058033
v 0.064650 -0.571813 0.031081
v -0.088200 -0.571813 0.031081
v 0.056179 -0.485726 0.044780
v 0.030223 -0.485726 -0.035105
v 0.005392 -0.488403 0.095509
v -0.034239 -0.489747 0.098305
v 0.003871 -0.571813 0.097974
v 0.030223 -0.572720 -0.035105
v 0.062775 -0.488403 0.028872
v 0.056179 -0.572720 0.044780
v -0.076738 -0.489747 0.067427
v -0.038770 -0.491300 0.102880
v 0.014491 -0.489747 -0.051669
v 0.045128 -0.571813 -0.029001
v 0.050837 -0.489747 -0.025261
v 0.054980 -0.571813 0.060842
v 0.010688 -0.489747 0.098305
v 0.056138 -0.491300 0.073150
v 0.060735 -0.571778 -0.031561
v 0.015219 -0.491300 0.102880
vn -0.649741 0.000000 -0.760156
vn 0.649741 0.000000 0.760156
vn 0.380674 0.895351 0.231158
vn -0.380674 -0.895351 -0.231158
vn -0.221288 0.972554 -0.071901
vn 0.221288 -0.972554 0.071901
vn 0.000000 1.000000 0.000000
vn 0.000000 -1.000000 0.000000
vn 0.059940 -0.955639 0.288377
vn -0.059940 0.955639 -0.288377
vn -0.230728 0.970126 -0.074968
vn 0.230728 -0.970126 0.074968
vn 0.337479 0.895351 -0.290611
vn -0.337479 -0.895351 0.290611
vn -0.172100 0.895351 -0.410765
vn 0.172100 -0.895351 0.410765
vn -0.136764 0.972554 0.188239
vn 0.136764 -0.972554 -0.188239
vn 0.000000 0.970126 -0.242602
vn 0.000000 -0.970126 0.242602
vn 0.292786 -0.955639 0.032107
vn -0.292786 0.955639 -0.032107
vn -0.230831 0.970035 -0.075823
vn 0.230831 -0.970035 0.075823
vn -0.443843 0.895351 0.036744
vn 0.443843 -0.895351 -0.036744
vn -0.102210 0.895351 0.433474
vn 0.102210 -0.895351 -0.433474
vn 0.136764 0.972554 0.188239
vn -0.136764 -0.972554 -0.188239
vn -0.970871 0.030811 0.237613
vn 0.970871 -0.030811 -0.237613
vn -0.142598 0.970126 0.196269
vn 0.142598 -0.970126 -0.196269
vn 0.000000 0.972554 -0.232677
vn 0.000000 -0.972554 0.232677
vn -0.255740 -0.955639 0.146120
vn 0.255740 0.955639 -0.146120
vn -0.069997 -0.997288 -0.022744
vn 0.069997 0.997288 0.022744
vn -0.002102 -0.999998 -0.000683
vn 0.002102 0.999998 0.000683
vn 0.221288 0.972554 -0.071901
vn -0.221288 -0.972554 0.071901
vn 0.972460 0.000000 0.233071
vn -0.972460 0.000000 -0.233071
vn -0.138889 0.971490 0.192136
vn 0.138889 -0.971490 -0.192136
vn 0.000782 0.970035 -0.242963
vn -0.000782 -0.970035 0.242963
vn -0.217997 -0.955639 -0.198070
vn 0.217997 0.955639 0.198070
vn 0.069997 -0.997288 -0.022743
vn -0.069997 0.997288 0.022743
vn 0.230728 0.970126 -0.074968
vn -0.230728 -0.970126 0.074968
vn 0.996818 0.033043 0.072546
vn -0.996818 -0.033043 -0.072546
vn -0.143443 0.970035 0.196102
vn 0.143443 -0.970035 -0.196102
vn 0.043261 -0.997288 0.059543
vn -0.043261 0.997288 -0.059543
vn 0.002102 -0.999998 -0.000683
vn -0.002102 0.999998 0.000683
vn 0.142178 0.970035 0.197021
vn -0.142178 -0.970035 -0.197021
vn 0.139302 0.971511 0.191733
vn -0.139302 -0.971511 -0.191733
usemtl material-0
f 1//1 2//1 3//1
f 3//2 2//2 1//2
f 2//3 1//3 4//3
f 4//4 1//4 2//4
f 1//5 6//5 4//5
f 4//6 6//6 1//6
f 7//7 2//7 4//7
f 4//8 2//8 7//8
f 8//9 5//9 3//9
f 3//10 5//10 8//10
f 6//11 9//11 4//11
f 4//12 9//12 6//12
f 10//7 2//7 7//7
f 7//8 2//8 10//8
f 7//13 4//13 11//13
f 11//14 4//14 7//14
f 8//8 13//8 5//8
f 5//7 13//7 8//7
f 10//7 17//7 2//7
f 2//8 17//8 10//8
f 10//15 7//15 18//15
f 18//16 7//16 10//16
f 7//17 11//17 20//17
f 20//18 11//18 7//18
f 21//19 12//19 2//19
f 2//20 12//20 21//20
f 23//8 13//8 8//8
f 8//7 13//7 23//7
f 5//21 13//21 19//21
f 19//22 13//22 5//22
f 6//23 14//23 15//23
f 15//24 14//24 6//24
f 25//25 17//25 10//25
f 10//26 17//26 25//26
f 17//27 26//27 2//27
f 2//28 26//28 17//28
f 10//29 18//29 27//29
f 27//30 18//30 10//30
f 11//31 13//31 20//31
f 20//32 13//32 11//32
f 7//33 20//33 28//33
f 28//34 20//34 7//34
f 26//35 21//35 2//35
f 2//36 21//36 26//36
f 23//8 29//8 13//8
f 13//7 29//7 23//7
f 23//37 8//37 30//37
f 30//38 8//38 23//38
f 5//39 19//39 24//39
f 24//40 19//40 5//40
f 5//41 24//41 16//41
f 16//42 24//42 5//42
f 31//43 17//43 25//43
f 25//44 17//44 31//44
f 25//45 10//45 32//45
f 32//46 10//46 25//46
f 28//47 20//47 34//47
f 34//48 20//48 28//48
f 21//49 35//49 22//49
f 22//50 35//50 21//50
f 23//51 32//51 29//51
f 29//52 32//52 23//52
f 23//53 30//53 36//53
f 36//54 30//54 23//54
f 31//55 37//55 17//55
f 17//56 37//56 31//56
f 32//57 10//57 38//57
f 38//58 10//58 32//58
f 34//59 20//59 33//59
f 33//60 20//60 34//60
f 32//61 38//61 29//61
f 29//62 38//62 32//62
f 23//63 36//63 41//63
f 41//64 36//64 23//64
f 40//65 27//65 39//65
f 39//66 27//66 40//66
f 40//67 39//67 42//67
f 42//68 39//68 40//68