mtllib new-1.mtl
v -0.040682 -0.488403 -0.046294
v -0.053773 -0.572720 -0.035105
v -0.043362 -0.571813 -0.047394
v 0.019812 -0.571813 -0.047394
v -0.040973 -0.571778 -0.063029
v -0.038041 -0.489747 -0.051669
v 0.005377 -0.640091 -0.517320
v 0.017132 -0.488403 -0.046294
v -0.037065 -0.491300 -0.058033
v 0.030223 -0.485726 -0.035105
v -0.028751 -0.640091 -0.517320
v 0.002726 -0.602196 -0.523412
v -0.026099 -0.602196 -0.523412
v 0.030223 -0.572720 -0.035105
v 0.013515 -0.491300 -0.058033
v 0.004751 -0.651046 -0.524431
v 0.014491 -0.489747 -0.051669
v -0.022896 -0.603154 -0.527850
v -0.028124 -0.651046 -0.524431
v -0.000477 -0.603154 -0.527850
v 0.001098 -0.651089 -0.529610
v 0.005847 -0.650986 -0.517320
v -0.017412 -0.603900 -0.531303
v -0.029220 -0.650986 -0.517320
v -0.005962 -0.603900 -0.531303
v 0.000656 -0.652689 -0.529193
v 0.004311 -0.639041 -0.510430
v 0.004182 -0.652677 -0.524189
v -0.011687 -0.604207 -0.532725
v -0.024472 -0.651089 -0.529610
v -0.028614 -0.652660 -0.517320
v -0.028124 -0.650927 -0.510208
v -0.005157 -0.651122 -0.533640
v -0.005383 -0.652698 -0.533086
v 0.004751 -0.650927 -0.510208
v 0.005240 -0.652660 -0.517320
v -0.027556 -0.652677 -0.524189
v -0.018216 -0.651122 -0.533640
v -0.027556 -0.652643 -0.510450
v -0.027684 -0.639041 -0.510430
v -0.011687 -0.651136 -0.535299
v -0.000520 -0.653353 -0.528065
v -0.005984 -0.653353 -0.531588
v 0.000756 -0.638276 -0.505411
v 0.002671 -0.653353 -0.523537
v -0.024029 -0.652689 -0.529193
v -0.027002 -0.653353 -0.517320
v -0.026044 -0.653353 -0.511102
v -0.024029 -0.652631 -0.505446
v -0.024472 -0.650884 -0.505029
v -0.027060 -0.600879 -0.517320
v -0.011687 -0.652702 -0.534689
v -0.011687 -0.653353 -0.533039
v 0.001098 -0.650884 -0.505029
v 0.004182 -0.652643 -0.510450
v 0.003628 -0.653353 -0.517320
v -0.026044 -0.653353 -0.523537
v -0.017990 -0.652698 -0.533086
v -0.022854 -0.653353 -0.506574
v -0.024129 -0.638276 -0.505411
v -0.017390 -0.653353 -0.531588
v -0.005332 -0.637681 -0.501507
v 0.002671 -0.653353 -0.511102
v -0.022854 -0.653353 -0.528065
v -0.017390 -0.653353 -0.503051
v -0.017990 -0.652622 -0.501553
v -0.018216 -0.650850 -0.500999
v -0.005157 -0.650850 -0.500999
v 0.000656 -0.652631 -0.505446
v -0.005984 -0.653353 -0.503051
v -0.018041 -0.637681 -0.501507
v -0.011687 -0.637438 -0.499899
v -0.011687 -0.653353 -0.501600
v -0.011687 -0.652618 -0.499950
v -0.011687 -0.650836 -0.499340
v -0.005383 -0.652622 -0.501553
v -0.000520 -0.653353 -0.506574
vn -0.763801 0.033043 -0.644606
vn 0.763801 -0.033043 0.644606
vn 0.000000 1.000000 0.000000
vn 0.000000 -1.000000 0.000000
vn 0.000000 -0.997288 -0.073599
vn 0.000000 0.997288 0.073599
vn -0.987978 0.033733 -0.150867
vn 0.987978 -0.033733 0.150867
vn 0.000000 -0.999998 -0.002210
vn 0.000000 0.999998 0.002210
vn -0.883811 0.095035 -0.458091
vn 0.883811 -0.095035 0.458091
vn -0.037812 -0.988735 0.144822
vn 0.037812 0.988735 -0.144822
vn -0.984551 0.058072 -0.165186
vn 0.984551 -0.058072 0.165186
vn 0.000000 -0.988882 0.148702
vn 0.000000 0.988882 -0.148702
vn 0.997195 0.063369 -0.039838
vn -0.997195 -0.063369 0.039838
vn -0.000571 0.971490 -0.237078
vn 0.000571 -0.971490 0.237078
vn -0.998080 0.050685 -0.035595
vn 0.998080 -0.050685 0.035595
vn -0.997289 0.063922 -0.036444
vn 0.997289 -0.063922 0.036444
vn 0.996542 0.072606 -0.040404
vn -0.996542 -0.072606 0.040404
vn 0.986937 0.044146 -0.154941
vn -0.986937 -0.044146 0.154941
vn 0.645786 0.030811 -0.762897
vn -0.645786 -0.030811 0.762897
vn -0.030997 0.972131 -0.232381
vn 0.030997 -0.972131 0.232381
vn 0.763018 0.000000 -0.646378
vn -0.763018 0.000000 0.646378
vn -0.986936 0.044145 -0.154944
vn 0.986936 -0.044145 0.154944
vn 0.030981 0.972134 -0.232370
vn -0.030981 -0.972134 0.232370
vn 0.984819 0.055285 -0.164544
vn -0.984819 -0.055285 0.164544
vn 0.816182 0.045842 -0.575974
vn -0.816182 -0.045842 0.575974
vn 0.987385 0.042545 -0.152514
vn -0.987385 -0.042545 0.152514
vn 0.893495 0.034613 -0.447737
vn -0.893495 -0.034613 0.447737
vn 0.000000 0.971511 -0.236995
vn 0.000000 -0.971511 0.236995
vn -0.805337 0.045707 -0.591053
vn 0.805337 -0.045707 0.591053
vn -0.013758 0.972624 -0.231979
vn 0.013758 -0.972624 0.231979
vn -0.987385 0.042544 -0.152516
vn 0.987385 -0.042544 0.152516
vn 0.804990 0.048161 -0.591330
vn -0.804990 -0.048161 0.591330
vn 0.013755 0.972625 -0.231974
vn -0.013755 -0.972625 0.231974
vn 0.766307 -0.351970 -0.537485
vn -0.766307 0.351970 0.537485
vn 0.988295 0.042584 0.146489
vn -0.988295 -0.042584 -0.146489
vn 0.928313 -0.344358 -0.140185
vn -0.928313 0.344358 0.140185
vn 0.000000 0.972859 -0.231400
vn 0.000000 -0.972859 0.231400
vn -0.816091 0.047960 -0.575931
vn 0.816091 -0.047960 0.575931
vn -0.527377 0.048470 -0.848248
vn 0.527377 -0.048470 0.848248
vn -0.005345 0.972780 -0.231667
vn 0.005345 -0.972780 0.231667
vn -0.930829 -0.337311 -0.140634
vn 0.930829 0.337311 0.140634
vn -0.987492 0.042549 0.151821
vn 0.987492 -0.042549 -0.151821
vn 0.540718 0.048599 -0.839799
vn -0.540718 -0.048599 0.839799
vn 0.527070 0.050955 -0.848293
vn -0.527070 -0.050955 0.848293
vn 0.005344 0.972781 -0.231665
vn -0.005344 -0.972781 0.231665
vn 0.766938 -0.347234 -0.539662
vn -0.766938 0.347234 0.539662
vn 0.508685 -0.346174 -0.788291
vn -0.508685 0.346174 0.788291
vn 0.987615 0.039394 0.151868
vn -0.987615 -0.039394 -0.151868
vn 0.930580 -0.337220 -0.142490
vn -0.930580 0.337220 0.142490
vn -0.767703 -0.347329 -0.538511
vn 0.767703 0.347329 0.538511
vn -0.540650 0.050762 -0.839715
vn 0.540650 -0.050762 0.839715
vn -0.238055 0.052047 -0.969856
vn 0.238055 -0.052047 0.969856
vn -0.927968 -0.344516 -0.142072
vn 0.927968 0.344516 0.142072
vn -0.930361 -0.337141 0.144097
vn 0.930361 0.337141 -0.144097
vn -0.932687 -0.329605 0.146477
vn 0.932687 0.329605 -0.146477
vn -0.988355 0.039330 0.146993
vn 0.988355 -0.039330 -0.146993
vn 0.508714 -0.349518 -0.786796
vn -0.508714 0.349518 0.786796
vn 0.245852 0.052084 -0.967907
vn -0.245852 -0.052084 0.967907
vn 0.237982 0.053199 -0.969812
vn -0.237982 -0.053199 0.969812
vn 0.312949 -0.924340 -0.218307
vn -0.312949 0.924340 0.218307
vn 0.208131 -0.924056 -0.320628
vn -0.208131 0.924056 0.320628
vn 0.818256 0.040969 0.573392
vn -0.818256 -0.040969 -0.573392
vn 0.930080 -0.337039 0.146140
vn -0.930080 0.337039 -0.146140
vn 0.387142 -0.920233 -0.057381
vn -0.387142 0.920233 0.057381
vn -0.765477 -0.352036 -0.538623
vn 0.765477 0.352036 0.538623
vn -0.509359 -0.346239 -0.787827
vn 0.509359 0.346239 0.787827
vn -0.245837 0.053091 -0.967856
vn 0.245837 -0.053091 0.967856
vn -0.394363 -0.917091 -0.058502
vn 0.394363 0.917091 0.058502
vn -0.401507 -0.913613 0.064055
vn 0.401507 0.913613 -0.064055
vn -0.770701 -0.331846 0.543965
vn 0.770701 0.331846 -0.543965
vn -0.816698 0.040952 0.575610
vn 0.816698 -0.040952 -0.575610
vn -0.988295 0.042614 0.146482
vn 0.988295 -0.042614 -0.146482
vn 0.230867 -0.351987 -0.907086
vn -0.230867 0.351987 0.907086
vn 0.231104 -0.353362 -0.906491
vn -0.231104 0.353362 0.906491
vn 0.316455 -0.922033 -0.222962
vn -0.316455 0.922033 0.222962
vn 0.209493 -0.922253 -0.324904
vn -0.209493 0.922253 0.324904
vn 0.093401 -0.925433 -0.367219
vn -0.093401 0.925433 0.367219
vn 0.816736 0.039633 0.575649
vn -0.816736 -0.039633 -0.575649
vn 0.933052 -0.329447 0.144494
vn -0.933052 0.329447 -0.144494
vn 0.394312 -0.916969 -0.060708
vn -0.394312 0.916969 0.060708
vn -0.317220 -0.922165 -0.221323
vn 0.317220 0.922165 0.221323
vn -0.508007 -0.349566 -0.787231
vn 0.508007 0.349566 0.787231
vn -0.231228 -0.352003 -0.906988
vn 0.231228 0.352003 0.906988
vn -0.394311 -0.916970 0.060707
vn 0.394311 0.916970 -0.060707
vn -0.386329 -0.920441 -0.059480
vn 0.386329 0.920441 0.059480
vn -0.329601 -0.915115 0.232224
vn 0.329601 0.915115 -0.232224
vn -0.333183 -0.912581 0.237033
vn 0.333183 0.912581 -0.237033
vn -0.771354 -0.325797 0.546690
vn 0.771354 0.325797 -0.546690
vn -0.818204 0.039609 0.573562
vn 0.818204 -0.039609 -0.573562
vn 0.093488 -0.926140 -0.365411
vn -0.093488 0.926140 0.365411
vn -0.230737 -0.353394 -0.906572
vn 0.230737 0.353394 0.906572
vn 0.542168 0.040175 0.839309
vn -0.542168 -0.040175 -0.839309
vn 0.769646 -0.331716 0.545536
vn -0.769646 0.331716 -0.545536
vn 0.394258 -0.916842 0.062948
vn -0.394258 0.916842 -0.062948
vn -0.311731 -0.924437 -0.219635
vn 0.311731 0.924437 0.219635
vn -0.210348 -0.922351 -0.324072
vn 0.210348 0.922351 0.324072
vn -0.224682 -0.909996 0.348462
vn 0.224682 0.909996 -0.348462
vn -0.512941 -0.320058 0.796527
vn 0.512941 0.320058 -0.796527
vn -0.541257 0.040168 0.839897
vn 0.541257 -0.040168 -0.839897
vn -0.092946 -0.926187 -0.365430
vn 0.092946 0.926187 0.365430
vn -0.093900 -0.925458 -0.367030
vn 0.093900 0.925458 0.367030
vn 0.541268 0.039574 0.839919
vn -0.541268 -0.039574 -0.839919
vn 0.772451 -0.325717 0.545186
vn -0.772451 0.325717 -0.545186
vn 0.402320 -0.913401 0.061942
vn -0.402320 0.913401 -0.061942
vn -0.207040 -0.924137 -0.321101
vn 0.207040 0.924137 0.321101
vn -0.226063 -0.907936 0.352912
vn 0.226063 0.907936 -0.352912
vn -0.512743 -0.315180 0.798596
vn 0.512743 0.315180 -0.798596
vn -0.542139 0.039563 0.839357
vn 0.542139 -0.039563 -0.839357
vn 0.246514 0.040611 0.968288
vn -0.246514 -0.040611 -0.968288
vn 0.511858 -0.319960 0.797262
vn -0.511858 0.319960 -0.797262
vn 0.328790 -0.914968 0.233944
vn -0.328790 0.914968 -0.233944
vn -0.102536 -0.909379 0.403134
vn 0.102536 0.909379 -0.403134
vn -0.233522 -0.317282 0.919130
vn 0.233522 0.317282 -0.919130
vn -0.246168 0.040610 0.968376
vn 0.246168 -0.040610 -0.968376
vn 0.246169 0.040435 0.968383
vn -0.246169 -0.040435 -0.968383
vn 0.513837 -0.315128 0.797914
vn -0.513837 0.315128 -0.797914
vn 0.334453 -0.912476 0.235643
vn -0.334453 0.912476 -0.235643
vn 0.103010 -0.908498 0.404995
vn -0.103010 0.908498 -0.404995
vn -0.102427 -0.908553 0.405019
vn 0.102427 0.908553 -0.405019
vn -0.233103 -0.315259 0.919932
vn 0.233103 0.315259 -0.919932
vn -0.246510 0.040432 0.968297
vn 0.246510 -0.040432 -0.968297
vn 0.232933 -0.317278 0.919281
vn -0.232933 0.317278 -0.919281
vn 0.223762 -0.909882 0.349350
vn -0.223762 0.909882 -0.349350
vn 0.227227 -0.907841 0.352409
vn -0.227227 0.907841 -0.352409
vn 0.102003 -0.909345 0.403344
vn -0.102003 0.909345 -0.403344
vn 0.233699 -0.315212 0.919797
vn -0.233699 0.315212 -0.919797
usemtl material-0
f 3//1 2//1 1//1
f 1//2 2//2 3//2
f 4//5 2//5 3//5
f 3//6 2//6 4//6
f 5//7 3//7 1//7
f 1//8 3//8 5//8
f 4//9 3//9 5//9
f 5//10 3//10 4//10
f 5//11 1//11 6//11
f 6//12 1//12 5//12
f 4//13 5//13 7//13
f 7//14 5//14 4//14
f 5//15 6//15 9//15
f 9//16 6//16 5//16
f 7//17 5//17 11//17
f 11//18 5//18 7//18
f 12//19 4//19 7//19
f 7//20 4//20 12//20
f 8//21 9//21 6//21
f 6//22 9//22 8//22
f 13//23 5//23 9//23
f 9//24 5//24 13//24
f 13//25 11//25 5//25
f 5//26 11//26 13//26
f 12//27 15//27 4//27
f 4//28 15//28 12//28
f 16//29 12//29 7//29
f 7//30 12//30 16//30
f 10//31 4//31 8//31
f 8//32 4//32 10//32
f 18//33 13//33 9//33
f 9//34 13//34 18//34
f 4//35 10//35 14//35
f 14//36 10//36 4//36
f 19//37 11//37 13//37
f 13//38 11//38 19//38
f 15//39 12//39 20//39
f 20//40 12//40 15//40
f 15//41 17//41 4//41
f 4//42 17//42 15//42
f 21//43 12//43 16//43
f 16//44 12//44 21//44
f 16//45 7//45 22//45
f 22//46 7//46 16//46
f 17//47 8//47 4//47
f 4//48 8//48 17//48
f 17//49 15//49 9//49
f 9//50 15//50 17//50
f 18//51 19//51 13//51
f 13//52 19//52 18//52
f 23//53 18//53 9//53
f 9//54 18//54 23//54
f 19//55 24//55 11//55
f 11//56 24//56 19//56
f 21//57 20//57 12//57
f 12//58 20//58 21//58
f 15//59 20//59 25//59
f 25//60 20//60 15//60
f 21//61 16//61 26//61
f 26//62 16//62 21//62
f 7//63 27//63 22//63
f 22//64 27//64 7//64
f 16//65 22//65 28//65
f 28//66 22//66 16//66
f 15//67 29//67 9//67
f 9//68 29//68 15//68
f 30//69 19//69 18//69
f 18//70 19//70 30//70
f 18//71 23//71 30//71
f 30//72 23//72 18//72
f 29//73 23//73 9//73
f 9//74 23//74 29//74
f 19//75 31//75 24//75
f 24//76 31//76 19//76
f 24//77 32//77 11//77
f 11//78 32//78 24//78
f 20//79 21//79 33//79
f 33//80 21//80 20//80
f 20//81 33//81 25//81
f 25//82 33//82 20//82
f 15//83 25//83 29//83
f 29//84 25//84 15//84
f 26//85 16//85 28//85
f 28//86 16//86 26//86
f 21//87 26//87 34//87
f 34//88 26//88 21//88
f 22//89 27//89 35//89
f 35//90 27//90 22//90
f 28//91 22//91 36//91
f 36//92 22//92 28//92
f 30//93 37//93 19//93
f 19//94 37//94 30//94
f 23//95 38//95 30//95
f 30//96 38//96 23//96
f 23//97 29//97 38//97
f 38//98 29//98 23//98
f 19//99 37//99 31//99
f 31//100 37//100 19//100
f 31//101 39//101 24//101
f 24//102 39//102 31//102
f 24//103 39//103 32//103
f 32//104 39//104 24//104
f 11//105 32//105 40//105
f 40//106 32//106 11//106
f 21//107 34//107 33//107
f 33//108 34//108 21//108
f 25//109 33//109 41//109
f 41//110 33//110 25//110
f 25//111 41//111 29//111
f 29//112 41//112 25//112
f 28//113 42//113 26//113
f 26//114 42//114 28//114
f 26//115 43//115 34//115
f 34//116 43//116 26//116
f 27//117 44//117 35//117
f 35//118 44//118 27//118
f 22//119 35//119 36//119
f 36//120 35//120 22//120
f 36//121 45//121 28//121
f 28//122 45//122 36//122
f 30//123 46//123 37//123
f 37//124 46//124 30//124
f 30//125 38//125 46//125
f 46//126 38//126 30//126
f 29//127 41//127 38//127
f 38//128 41//128 29//128
f 47//129 31//129 37//129
f 37//130 31//130 47//130
f 48//131 39//131 31//131
f 31//132 39//132 48//132
f 39//133 49//133 32//133
f 32//134 49//134 39//134
f 40//135 32//135 50//135
f 50//136 32//136 40//136
f 11//137 40//137 51//137
f 51//138 40//138 11//138
f 33//139 34//139 52//139
f 52//140 34//140 33//140
f 33//141 52//141 41//141
f 41//142 52//142 33//142
f 28//143 45//143 42//143
f 42//144 45//144 28//144
f 26//145 42//145 43//145
f 43//146 42//146 26//146
f 34//147 43//147 53//147
f 53//148 43//148 34//148
f 35//149 44//149 54//149
f 54//150 44//150 35//150
f 36//151 35//151 55//151
f 55//152 35//152 36//152
f 36//153 56//153 45//153
f 45//154 56//154 36//154
f 46//155 57//155 37//155
f 37//156 57//156 46//156
f 38//157 58//157 46//157
f 46//158 58//158 38//158
f 38//159 41//159 58//159
f 58//160 41//160 38//160
f 48//161 31//161 47//161
f 47//162 31//162 48//162
f 57//163 47//163 37//163
f 37//164 47//164 57//164
f 59//165 39//165 48//165
f 48//166 39//166 59//166
f 59//167 49//167 39//167
f 39//168 49//168 59//168
f 32//169 49//169 50//169
f 50//170 49//170 32//170
f 40//171 50//171 60//171
f 60//172 50//172 40//172
f 34//173 53//173 52//173
f 52//174 53//174 34//174
f 41//175 52//175 58//175
f 58//176 52//176 41//176
f 45//4 43//4 42//4
f 42//3 43//3 45//3
f 43//4 61//4 53//4
f 53//3 61//3 43//3
f 62//177 54//177 44//177
f 44//178 54//178 62//178
f 55//179 35//179 54//179
f 54//180 35//180 55//180
f 36//181 55//181 56//181
f 56//182 55//182 36//182
f 56//4 63//4 45//4
f 45//3 63//3 56//3
f 64//183 57//183 46//183
f 46//184 57//184 64//184
f 58//185 64//185 46//185
f 46//186 64//186 58//186
f 57//4 48//4 47//4
f 47//3 48//3 57//3
f 65//4 59//4 48//4
f 48//3 59//3 65//3
f 65//187 49//187 59//187
f 59//188 49//188 65//188
f 50//189 49//189 66//189
f 66//190 49//190 50//190
f 60//191 50//191 67//191
f 67//192 50//192 60//192
f 52//193 53//193 61//193
f 61//194 53//194 52//194
f 52//195 61//195 58//195
f 58//196 61//196 52//196
f 45//4 61//4 43//4
f 43//3 61//3 45//3
f 62//197 68//197 54//197
f 54//198 68//198 62//198
f 55//199 54//199 69//199
f 69//200 54//200 55//200
f 55//201 63//201 56//201
f 56//202 63//202 55//202
f 45//4 63//4 61//4
f 61//3 63//3 45//3
f 61//4 57//4 64//4
f 64//3 57//3 61//3
f 61//203 64//203 58//203
f 58//204 64//204 61//204
f 61//4 48//4 57//4
f 57//3 48//3 61//3
f 70//4 65//4 48//4
f 48//3 65//3 70//3
f 65//205 66//205 49//205
f 49//206 66//206 65//206
f 67//207 50//207 66//207
f 66//208 50//208 67//208
f 71//209 60//209 67//209
f 67//210 60//210 71//210
f 72//211 68//211 62//211
f 62//212 68//212 72//212
f 68//213 69//213 54//213
f 54//214 69//214 68//214
f 55//215 69//215 63//215
f 63//216 69//216 55//216
f 63//4 70//4 61//4
f 61//3 70//3 63//3
f 70//4 48//4 61//4
f 61//3 48//3 70//3
f 70//4 73//4 65//4
f 65//3 73//3 70//3
f 73//217 66//217 65//217
f 65//218 66//218 73//218
f 67//219 66//219 74//219
f 74//220 66//220 67//220
f 71//221 67//221 75//221
f 75//222 67//222 71//222
f 72//223 75//223 68//223
f 68//224 75//224 72//224
f 68//225 76//225 69//225
f 69//226 76//226 68//226
f 63//227 69//227 77//227
f 77//228 69//228 63//228
f 63//4 77//4 70//4
f 70//3 77//3 63//3
f 70//229 74//229 73//229
f 73//230 74//230 70//230
f 73//231 74//231 66//231
f 66//232 74//232 73//232
f 75//233 67//233 74//233
f 74//234 67//234 75//234
f 72//235 71//235 75//235
f 75//236 71//236 72//236
f 75//237 76//237 68//237
f 68//238 76//238 75//238
f 69//239 76//239 77//239
f 77//240 76//240 69//240
f 77//241 76//241 70//241
f 70//242 76//242 77//242
f 76//243 74//243 70//243
f 70//244 74//244 76//244
f 75//245 74//245 76//245
f 76//246 74//246 75//246