mtllib new-8.mtl
v 0.025600 -0.396962 0.015047
v 0.026332 -0.396962 0.022482
v 0.025600 -0.396962 0.029916
v 0.009248 -0.396962 0.018300
v 0.023431 -0.396962 0.007899
v 0.009660 -0.396962 0.022482
v 0.023431 -0.396962 0.037065
v 0.008028 -0.396962 0.014279
v 0.009248 -0.396962 0.026663
v 0.008028 -0.396962 0.030685
v 0.008028 -0.276290 0.014279
v 0.009660 -0.276290 0.022482
v 0.006048 -0.396962 0.010573
v 0.009248 -0.276290 0.026663
v 0.006048 -0.396962 0.034390
v 0.019910 -0.396962 0.043653
v 0.009248 -0.276290 0.018300
v 0.003382 -0.396962 0.007325
v -0.032799 -0.396962 0.026663
v -0.032799 -0.396962 0.018300
v 0.006048 -0.276290 0.034390
v 0.015171 -0.396962 0.049427
v -0.031579 -0.276290 0.014279
v 0.006048 -0.276290 0.010573
v -0.032799 -0.276290 0.018300
v -0.033210 -0.276290 0.022482
v 0.003382 -0.276290 0.007325
v -0.031579 -0.396962 0.030685
v -0.033210 -0.396962 0.022482
v -0.031579 -0.396962 0.014279
v 0.000134 -0.396962 0.004659
v 0.008028 -0.276290 0.030685
v 0.003382 -0.396962 0.037639
v -0.029598 -0.276290 0.010573
v -0.032799 -0.276290 0.026663
v -0.029598 -0.396962 0.034390
v -0.029598 -0.396962 0.010573
v -0.031579 -0.276290 0.030685
v 0.003382 -0.276290 0.037639
v 0.000134 -0.396962 0.040304
v 0.009396 -0.396962 0.054167
v -0.026932 -0.276290 0.007325
v 0.000134 -0.276290 0.004659
v -0.026932 -0.396962 0.037639
v -0.029598 -0.276290 0.034390
v -0.026932 -0.396962 0.007325
v -0.003572 -0.396962 0.002678
v -0.023684 -0.396962 0.004659
v 0.000134 -0.276290 0.040304
v -0.023684 -0.276290 0.004659
v -0.003572 -0.276290 0.002678
v -0.032946 -0.396962 0.054167
v -0.023684 -0.396962 0.040304
v -0.007593 -0.396962 0.001458
v -0.019978 -0.396962 0.002678
v -0.026932 -0.276290 0.037639
v -0.003572 -0.396962 0.042285
v -0.019978 -0.276290 0.002678
v -0.023684 -0.276290 0.040304
v -0.003572 -0.276290 0.042285
v 0.002808 -0.396962 0.057688
v -0.015957 -0.276290 0.001458
v -0.019978 -0.396962 0.042285
v -0.007593 -0.276290 0.001458
v -0.011775 -0.396962 0.001046
v -0.015957 -0.396962 0.001458
v -0.007593 -0.276290 0.043505
v -0.007593 -0.396962 0.043505
v -0.004341 -0.396962 0.059857
v -0.015957 -0.396962 0.043505
v -0.019978 -0.276290 0.042285
v -0.011775 -0.276290 0.001046
v -0.019209 -0.396962 0.059857
v -0.015957 -0.276290 0.043505
v -0.011775 -0.396962 0.043917
v -0.011775 -0.396962 0.060589
v -0.011775 -0.276290 0.043917
vn 0.995185 0.000000 -0.098017
vn -0.995185 0.000000 0.098017
vn 0.000000 -1.000000 0.000000
vn 0.000000 1.000000 0.000000
vn 0.956940 0.000000 -0.290285
vn -0.956940 0.000000 0.290285
vn 0.995185 0.000000 0.098017
vn -0.995185 0.000000 -0.098017
vn 0.881921 0.000000 -0.471397
vn -0.881921 0.000000 0.471397
vn 0.956940 0.000000 0.290285
vn -0.956940 0.000000 -0.290285
vn 0.773010 0.000000 -0.634393
vn -0.773010 0.000000 0.634393
vn -0.881921 0.000000 -0.471397
vn 0.881921 0.000000 0.471397
vn 0.634393 0.000000 -0.773010
vn -0.634393 0.000000 0.773010
vn -0.773010 0.000000 -0.634393
vn 0.773010 0.000000 0.634393
vn 0.634393 0.000000 -0.773011
vn -0.634393 0.000000 0.773011
vn 0.471397 0.000000 -0.881921
vn -0.471397 0.000000 0.881921
vn -0.634393 0.000000 -0.773010
vn 0.634393 0.000000 0.773010
vn 0.773011 0.000000 -0.634393
vn -0.773011 0.000000 0.634393
vn 0.773011 0.000000 0.634393
vn -0.773011 0.000000 -0.634393
vn -0.471397 0.000000 -0.881921
vn 0.471397 0.000000 0.881921
vn 0.290285 0.000000 -0.956940
vn -0.290285 0.000000 0.956940
vn 0.634393 0.000000 0.773011
vn -0.634393 0.000000 -0.773011
vn -0.290285 0.000000 -0.956940
vn 0.290285 0.000000 0.956940
vn 0.098017 0.000000 -0.995185
vn -0.098017 0.000000 0.995185
vn -0.098017 0.000000 -0.995185
vn 0.098017 0.000000 0.995185
usemtl material-0
f 2//4 1//4 4//4
f 4//3 1//3 2//3
f 2//4 6//4 3//4
f 3//3 6//3 2//3
f 1//4 8//4 4//4
f 4//3 8//3 1//3
f 2//4 4//4 6//4
f 6//3 4//3 2//3
f 3//4 6//4 9//4
f 9//3 6//3 3//3
f 3//4 10//4 7//4
f 7//3 10//3 3//3
f 11//5 4//5 8//5
f 8//6 4//6 11//6
f 4//1 12//1 6//1
f 6//2 12//2 4//2
f 5//4 13//4 8//4
f 8//3 13//3 5//3
f 6//7 14//7 9//7
f 9//8 14//8 6//8
f 3//4 9//4 10//4
f 10//3 9//3 3//3
f 7//4 10//4 15//4
f 15//3 10//3 7//3
f 11//5 17//5 4//5
f 4//6 17//6 11//6
f 13//9 11//9 8//9
f 8//10 11//10 13//10
f 17//1 12//1 4//1
f 4//2 12//2 17//2
f 12//7 14//7 6//7
f 6//8 14//8 12//8
f 14//11 10//11 9//11
f 9//12 10//12 14//12
f 10//16 21//16 15//16
f 15//15 21//15 10//15
f 7//4 15//4 16//4
f 16//3 15//3 7//3
f 17//4 11//4 23//4
f 23//3 11//3 17//3
f 24//9 11//9 13//9
f 13//10 11//10 24//10
f 12//4 17//4 25//4
f 25//3 17//3 12//3
f 12//4 26//4 14//4
f 14//3 26//3 12//3
f 27//27 13//27 18//27
f 18//28 13//28 27//28
f 14//11 32//11 10//11
f 10//12 32//12 14//12
f 32//16 21//16 10//16
f 10//15 21//15 32//15
f 21//29 33//29 15//29
f 15//30 33//30 21//30
f 16//4 15//4 33//4
f 33//3 15//3 16//3
f 16//4 33//4 22//4
f 22//3 33//3 16//3
f 11//4 34//4 23//4
f 23//3 34//3 11//3
f 17//4 23//4 25//4
f 25//3 23//3 17//3
f 11//4 24//4 34//4
f 34//3 24//3 11//3
f 27//27 24//27 13//27
f 13//28 24//28 27//28
f 12//4 25//4 26//4
f 26//3 25//3 12//3
f 14//4 26//4 35//4
f 35//3 26//3 14//3
f 27//21 18//21 31//21
f 31//22 18//22 27//22
f 29//2 19//2 35//2
f 35//1 19//1 29//1
f 19//6 28//6 35//6
f 35//5 28//5 19//5
f 30//12 20//12 23//12
f 23//11 20//11 30//11
f 20//8 29//8 26//8
f 26//7 29//7 20//7
f 14//4 35//4 32//4
f 32//3 35//3 14//3
f 32//4 38//4 21//4
f 21//3 38//3 32//3
f 21//29 39//29 33//29
f 33//30 39//30 21//30
f 22//4 33//4 40//4
f 40//3 33//3 22//3
f 37//15 23//15 34//15
f 34//16 23//16 37//16
f 23//12 20//12 25//12
f 25//11 20//11 23//11
f 24//4 42//4 34//4
f 34//3 42//3 24//3
f 24//4 27//4 42//4
f 42//3 27//3 24//3
f 20//8 26//8 25//8
f 25//7 26//7 20//7
f 29//2 35//2 26//2
f 26//1 35//1 29//1
f 27//21 31//21 43//21
f 43//22 31//22 27//22
f 28//10 36//10 45//10
f 45//9 36//9 28//9
f 35//6 28//6 38//6
f 38//5 28//5 35//5
f 37//15 30//15 23//15
f 23//16 30//16 37//16
f 32//4 35//4 38//4
f 38//3 35//3 32//3
f 21//4 38//4 45//4
f 45//3 38//3 21//3
f 21//4 45//4 39//4
f 39//3 45//3 21//3
f 49//35 33//35 39//35
f 39//36 33//36 49//36
f 49//35 40//35 33//35
f 33//36 40//36 49//36
f 22//4 40//4 41//4
f 41//3 40//3 22//3
f 42//19 37//19 34//19
f 34//20 37//20 42//20
f 27//4 50//4 42//4
f 42//3 50//3 27//3
f 43//23 31//23 51//23
f 51//24 31//24 43//24
f 27//4 43//4 50//4
f 50//3 43//3 27//3
f 36//14 44//14 45//14
f 45//13 44//13 36//13
f 28//10 45//10 38//10
f 38//9 45//9 28//9
f 46//19 37//19 42//19
f 42//20 37//20 46//20
f 51//23 31//23 47//23
f 47//24 31//24 51//24
f 39//4 45//4 56//4
f 56//3 45//3 39//3
f 39//4 56//4 49//4
f 49//3 56//3 39//3
f 49//32 57//32 40//32
f 40//31 57//31 49//31
f 41//4 40//4 57//4
f 57//3 40//3 41//3
f 50//25 48//25 42//25
f 42//26 48//26 50//26
f 43//4 51//4 58//4
f 58//3 51//3 43//3
f 43//4 58//4 50//4
f 50//3 58//3 43//3
f 59//18 44//18 53//18
f 53//17 44//17 59//17
f 45//14 44//14 56//14
f 56//13 44//13 45//13
f 42//25 48//25 46//25
f 46//26 48//26 42//26
f 51//33 47//33 54//33
f 54//34 47//34 51//34
f 58//31 55//31 48//31
f 48//32 55//32 58//32
f 49//4 56//4 59//4
f 59//3 56//3 49//3
f 60//32 57//32 49//32
f 49//31 57//31 60//31
f 41//4 57//4 61//4
f 61//3 57//3 41//3
f 58//31 48//31 50//31
f 50//32 48//32 58//32
f 51//4 62//4 58//4
f 58//3 62//3 51//3
f 63//4 53//4 52//4
f 52//3 53//3 63//3
f 56//18 44//18 59//18
f 59//17 44//17 56//17
f 59//24 53//24 63//24
f 63//23 53//23 59//23
f 51//33 54//33 64//33
f 64//34 54//34 51//34
f 58//37 66//37 55//37
f 55//38 66//38 58//38
f 49//4 59//4 60//4
f 60//3 59//3 49//3
f 67//38 57//38 60//38
f 60//37 57//37 67//37
f 61//4 57//4 68//4
f 68//3 57//3 61//3
f 51//4 64//4 62//4
f 62//3 64//3 51//3
f 62//37 66//37 58//37
f 58//38 66//38 62//38
f 59//24 63//24 71//24
f 71//23 63//23 59//23
f 64//39 54//39 72//39
f 72//40 54//40 64//40
f 72//39 54//39 65//39
f 65//40 54//40 72//40
f 60//4 59//4 71//4
f 71//3 59//3 60//3
f 67//38 68//38 57//38
f 57//37 68//37 67//37
f 60//4 71//4 67//4
f 67//3 71//3 60//3
f 61//4 68//4 69//4
f 69//3 68//3 61//3
f 64//4 72//4 62//4
f 62//3 72//3 64//3
f 72//41 66//41 62//41
f 62//42 66//42 72//42
f 74//34 63//34 70//34
f 70//33 63//33 74//33
f 71//34 63//34 74//34
f 74//33 63//33 71//33
f 72//41 65//41 66//41
f 66//42 65//42 72//42
f 67//42 75//42 68//42
f 68//41 75//41 67//41
f 67//4 71//4 74//4
f 74//3 71//3 67//3
f 69//4 68//4 75//4
f 75//3 68//3 69//3
f 74//40 70//40 75//40
f 75//39 70//39 74//39
f 75//4 70//4 73//4
f 73//3 70//3 75//3
f 77//42 75//42 67//42
f 67//41 75//41 77//41
f 67//4 74//4 77//4
f 77//3 74//3 67//3
f 69//4 75//4 76//4
f 76//3 75//3 69//3
f 74//40 75//40 77//40
f 77//39 75//39 74//39