# SSTK version 0.8.0
# 22
mtllib original-22.mtl
o mesh18/mesh18-geometry#mesh18-geometry
v 0.119958 -0.319770 0.131345
v 0.119730 -0.320874 0.117862
v 0.080991 -0.320785 0.117120
v 0.135412 -0.168157 0.345691
v 0.081542 -0.312776 0.124957
v 0.120553 -0.316710 0.147422
v 0.124645 -0.285746 0.213426
v 0.120636 -0.312867 0.125782
v 0.081111 -0.320785 0.048389
v 0.121416 -0.311737 0.164881
v 0.134400 -0.179424 0.333083
v 0.121543 -0.303620 0.130518
v 0.053599 -0.320785 -0.015815
v 0.081455 -0.303523 0.129520
v 0.122450 -0.304891 0.182509
v 0.123559 -0.296213 0.199095
v 0.122450 -0.293869 0.131969
v 0.068237 -0.320785 0.002570
v 0.034784 -0.320785 -0.030023
v 0.081043 -0.293764 0.130756
v -0.148430 -0.277143 0.223128
v 0.123356 -0.284349 0.130034
v 0.077731 -0.320785 0.024261
v 0.068237 -0.268826 0.002570
v 0.053599 -0.268826 -0.015815
v 0.012762 -0.320785 -0.039186
v 0.080618 -0.284237 0.128609
v -0.147641 -0.285746 0.213426
v -0.157520 -0.177530 0.335462
v 0.126677 -0.253969 0.162828
v 0.077731 -0.268826 0.024261
v 0.034784 -0.268826 -0.030023
v -0.011498 -0.320785 -0.042433
v 0.080497 -0.275678 0.123028
v -0.146556 -0.296213 0.199095
v -0.144413 -0.311737 0.164881
v 0.135256 -0.171144 0.263043
v 0.125418 -0.265499 0.131637
v 0.081111 -0.268826 0.048389
v 0.012762 -0.268826 -0.039186
v -0.011498 -0.268826 -0.042433
v -0.035688 -0.320785 -0.039188
v 0.124263 -0.275796 0.124614
v -0.145447 -0.304891 0.182509
v -0.143550 -0.316710 0.147422
v 0.127317 -0.247906 0.172226
v 0.125723 -0.262634 0.141807
v 0.125170 -0.268946 0.115608
v -0.057543 -0.320785 -0.030030
v 0.080991 -0.268826 0.113957
v -0.142955 -0.319770 0.131345
v 0.126144 -0.258835 0.152446
v -0.035669 -0.268826 -0.039188
v -0.076163 -0.320785 -0.015827
v -0.142727 -0.320874 0.117862
v -0.057463 -0.268826 -0.030030
v -0.090647 -0.320785 0.002555
v -0.143633 -0.312867 0.125782
v -0.104126 -0.320785 0.117076
v -0.075977 -0.268826 -0.015827
v -0.100096 -0.320785 0.024250
v -0.144540 -0.303620 0.130518
v -0.103610 -0.320785 0.048389
v -0.090309 -0.268826 0.002555
v -0.104535 -0.312776 0.124929
v -0.104197 -0.303523 0.129496
v -0.158409 -0.168157 0.345691
v -0.099555 -0.268826 0.024250
v -0.103485 -0.293764 0.130728
v -0.149674 -0.253969 0.162828
v -0.102813 -0.268826 0.048389
v -0.145447 -0.293869 0.131969
v -0.149141 -0.258835 0.152446
v -0.150314 -0.247906 0.172226
v -0.102844 -0.268826 0.113913
v -0.102774 -0.284237 0.128575
v -0.146353 -0.284349 0.130034
v -0.148720 -0.262634 0.141807
v -0.151637 -0.235112 0.188428
v -0.102436 -0.275678 0.122987
v -0.147260 -0.275796 0.124614
v -0.148415 -0.265499 0.131637
v -0.158253 -0.171144 0.263043
v -0.148167 -0.268946 0.115608
vn 0.003856998470370636 0.9966486047436932 -0.08171096759462126
vn -0.003856998470370636 -0.9966486047436932 0.08171096759462126
vn -0.9960883346234811 0.0878300295054055 0.009691003255571972
vn 0.9960883346234811 -0.0878300295054055 -0.009691003255571972
vn -0.015302007224706699 -0.698767329916784 0.7151853376684001
vn 0.015302007224706699 0.698767329916784 -0.7151853376684001
vn 0.0431749824667727 0.9811596015541101 -0.18831292352670198
vn -0.0431749824667727 -0.9811596015541101 0.18831292352670198
vn -0.9980502675927824 0.05113801371089594 0.03578500959451703
vn 0.9980502675927824 -0.05113801371089594 -0.03578500959451703
vn -0.9909285305095856 0.13277207108167163 -0.02079001113026805
vn 0.9909285305095856 -0.13277207108167163 0.02079001113026805
vn -0.9975154814260254 0.07042603398937286 -0.0017430008412159684
vn 0.9975154814260254 -0.07042603398937286 0.0017430008412159684
vn -0.016653007768738178 -0.702177327570364 0.7118073320628243
vn 0.016653007768738178 0.702177327570364 -0.7118073320628243
vn -0.991362636728116 0.13061695213712468 0.01180399567458006
vn 0.991362636728116 -0.13061695213712468 -0.01180399567458006
vn 0.11420596352987317 0.9539456953703692 -0.2773889114196098
vn -0.11420596352987317 -0.9539456953703692 0.2773889114196098
vn -0.9966763333698508 0.07761902596213258 0.024730008271731663
vn 0.9966763333698508 -0.07761902596213258 -0.024730008271731663
vn -0.9312479628893039 -0.23136899077983025 0.28150598878184574
vn 0.9312479628893039 0.23136899077983025 -0.28150598878184574
vn -0.995416764967696 0.09554797743973975 0.00400599905412567
vn 0.995416764967696 -0.09554797743973975 -0.00400599905412567
vn 0 1 0
vn 0 -1 0
vn -0.9998927104906067 -0.012875996271878146 0.0069839979778500245
vn 0.9998927104906067 0.012875996271878146 -0.0069839979778500245
vn -0.019845994900641734 -0.4541958832959728 0.8906807711427226
vn 0.019845994900641734 0.4541958832959728 -0.8906807711427226
vn 0.22801591534728297 0.9030276647438175 -0.36407386483468995
vn -0.22801591534728297 -0.9030276647438175 0.36407386483468995
vn -0.99803789800153 0.047254995170586976 0.04107699580197233
vn 0.99803789800153 -0.047254995170586976 -0.04107699580197233
vn 0.7057762938987197 0.5000312082225391 -0.5018452089779234
vn -0.7057762938987197 -0.5000312082225391 0.5018452089779234
vn -0.9957729015683514 0.09161899094350902 0.006502999357181817
vn 0.9957729015683514 -0.09161899094350902 -0.006502999357181817
vn -0.02337099869607359 -0.44234997532018994 0.8965379499799075
vn 0.02337099869607359 0.44234997532018994 -0.8965379499799075
vn -0.998941192263233 -0.043952008459312034 0.013591002615819745
vn 0.998941192263233 0.043952008459312034 -0.013591002615819745
vn -0.9975597217676642 0.06035098316732858 0.03510499020876324
vn 0.9975597217676642 -0.06035098316732858 -0.03510499020876324
vn 0.39625583799915515 0.8023806719635794 -0.4462808175474967
vn -0.39625583799915515 -0.8023806719635794 0.4462808175474967
vn 0.6034400143751483 0.6214660148045636 -0.49964001190242435
vn -0.6034400143751483 -0.6214660148045636 0.49964001190242435
vn -0.08492099314097412 0.8431669318978314 -0.5309029571192352
vn 0.08492099314097412 -0.8431669318978314 0.5309029571192352
vn -0.9954077651226161 0.09563697743340584 0.004116999028548928
vn 0.9954077651226161 -0.09563697743340584 -0.004116999028548928
vn -0.02495400728400093 -0.14486104228451005 0.9891372887262494
vn 0.02495400728400093 0.14486104228451005 -0.9891372887262494
vn -0.782300800356079 0 0.6229008410351029
vn 0.782300800356079 0 -0.6229008410351029
vn -0.6026349772463117 0 0.798016969869274
vn 0.6026349772463117 0 -0.798016969869274
vn -0.029362990178932954 -0.12673695761017034 0.991501668371501
vn 0.029362990178932954 0.12673695761017034 -0.991501668371501
vn -0.9990527420296296 -0.04158598926187518 0.01281499669097605
vn 0.9990527420296296 0.04158598926187518 -0.01281499669097605
vn -0.16670001832458387 0.7309930803547844 -0.6617100727388144
vn 0.16670001832458387 -0.7309930803547844 0.6617100727388144
vn -0.0005519999859146165 0.7481769809087684 -0.6634989830694965
vn 0.0005519999859146165 -0.7481769809087684 0.6634989830694965
vn -0.028168993402399995 0.20160495278110135 0.9790617706890744
vn 0.028168993402399995 -0.20160495278110135 -0.9790617706890744
vn -0.9932014071078776 0.11619304762690091 -0.007081002902464713
vn 0.9932014071078776 -0.11619304762690091 0.007081002902464713
vn -0.9903316491136749 0 0.1387199508498655
vn 0.9903316491136749 0 -0.1387199508498655
vn -0.9161008438483343 0 0.4009479316574285
vn 0.9161008438483343 0 -0.4009479316574285
vn -0.6026360949899193 0 0.7980161257865037
vn 0.6026360949899193 0 -0.7980161257865037
vn -0.38413909662136675 0 0.9232752322286786
vn 0.38413909662136675 0 -0.9232752322286786
vn -0.031947991385480864 0.21830394113609644 0.9753577370026246
vn 0.031947991385480864 -0.21830394113609644 -0.9753577370026246
vn -0.9999010743871433 -0.014063001046209972 0.0002710000201609086
vn 0.9999010743871433 0.014063001046209972 -0.0002710000201609086
vn -0.127027022026424 0.7963741380908894 -0.5913141025335784
vn 0.127027022026424 -0.7963741380908894 0.5913141025335784
vn 0.9981343733192937 0.03527101319196099 0.04983701863989569
vn -0.9981343733192937 -0.03527101319196099 -0.04983701863989569
vn 0.998171739931877 0.04075298938203413 0.04463598837034026
vn -0.998171739931877 -0.04075298938203413 -0.04463598837034026
vn -0.9944332143426442 0.10535102270762527 -0.0019350004170748491
vn 0.9944332143426442 -0.10535102270762527 0.0019350004170748491
vn -0.9940695694427168 0.10874595289931059 -0.0000939999592861583
vn 0.9940695694427168 -0.10874595289931059 0.0000939999592861583
vn -0.9903315117344992 0 0.13872093160608914
vn 0.9903315117344992 0 -0.13872093160608914
vn -0.13267101725778072 0 0.9911601289296224
vn 0.13267101725778072 0 -0.9911601289296224
vn -0.026702993655075724 0.53709687237989 0.8430977996707126
vn 0.026702993655075724 -0.53709687237989 -0.8430977996707126
vn -0.02889098353602992 0.5457366890035774 0.8374585227614164
vn 0.02889098353602992 -0.5457366890035774 -0.8374585227614164
vn -0.999966141196729 0 -0.008229001161947387
vn 0.999966141196729 0 0.008229001161947387
vn -0.07272396151434429 0.8817075333987334 -0.4661577533084497
vn 0.07272396151434429 -0.8817075333987334 0.4661577533084497
vn 0.9980985594388939 0.045029980123748634 0.04208998142146527
vn -0.9980985594388939 -0.045029980123748634 -0.04208998142146527
vn 0.9979421553431809 0.05447500847977114 0.03382200526485214
vn -0.9979421553431809 -0.05447500847977114 -0.03382200526485214
vn 0.9953874650640446 -0.09574304473298006 -0.006088002844431286
vn -0.9953874650640446 0.09574304473298006 0.006088002844431286
vn 0.9931623413072495 -0.11670104010513624 0.003071001055371165
vn -0.9931623413072495 0.11670104010513624 -0.003071001055371165
vn -0.9939629529129941 0.10941599481663619 -0.008110999615757598
vn 0.9939629529129941 -0.10941599481663619 0.008110999615757598
vn -0.13267003485905626 0 0.9911602604273927
vn 0.13267003485905626 0 -0.9911602604273927
vn 0.13296398258590778 0 0.9911208701943947
vn -0.13296398258590778 0 -0.9911208701943947
vn 0.9959559037463442 -0.0811629921560436 0.03852799627648123
vn -0.9959559037463442 0.0811629921560436 -0.03852799627648123
vn -0.019675003051140682 0.7982611237919497 0.601990093354825
vn 0.019675003051140682 -0.7982611237919497 -0.601990093354825
vn -0.9975796513135515 0.0695089757043582 -0.0018279993610549098
vn 0.9975796513135515 -0.0695089757043582 0.0018279993610549098
vn -0.0397159832069738 0.9306496064953713 -0.3637498461964124
vn 0.0397159832069738 -0.9306496064953713 0.3637498461964124
vn 0.9975597217676642 0.06035098316732858 0.03510499020876324
vn -0.9975597217676642 -0.06035098316732858 -0.03510499020876324
vn 0.9974174480769229 0.06769403041066999 0.023999010781246045
vn -0.9974174480769229 -0.06769403041066999 -0.023999010781246045
vn -0.019640004312110722 0.9612982110602551 -0.2748090603363967
vn 0.019640004312110722 -0.9612982110602551 0.2748090603363967
vn 0.9944925637410702 -0.104789954031277 -0.0018989991669567463
vn -0.9944925637410702 0.104789954031277 0.0018989991669567463
vn 0.13306995257061713 -0.0000499999821790046 0.991106646745372
vn -0.13306995257061713 0.0000499999821790046 -0.991106646745372
vn 0.3864670797641082 -0.00014600003013359213 0.922303190356942
vn -0.3864670797641082 0.00014600003013359213 -0.922303190356942
vn -0.020405005715228648 0.7967502231614028 0.6039641691640459
vn 0.020405005715228648 -0.7967502231614028 -0.6039641691640459
vn 0.9960629479093954 0.0881199953916328 0.009667999494397497
vn -0.9960629479093954 -0.0881199953916328 -0.009667999494397497
vn -0.00743700383500729 0.9822925065344873 -0.18720609653575007
vn 0.00743700383500729 -0.9822925065344873 0.18720609653575007
vn 0.38738288571218726 -0.0005989998232800084 0.9219187280105063
vn -0.38738288571218726 0.0005989998232800084 -0.9219187280105063
vn 0.6064988532573169 -0.0009379997730506899 0.7950838076290984
vn -0.6064988532573169 0.0009379997730506899 -0.7950838076290984
vn 0.9912246129338028 0.13084394890636383 -0.01880499265678341
vn -0.9912246129338028 -0.13084394890636383 0.01880499265678341
vn -0.003964000072206244 0.9966480181544422 -0.08171300148844297
vn 0.003964000072206244 -0.9966480181544422 0.08171300148844297
vn 0.0000169999953633029 0.997480727940161 -0.070937980651881
vn -0.0000169999953633029 -0.997480727940161 0.070937980651881
vn 0.6086669099943003 -0.002172999678671132 0.79342288267379
vn -0.6086669099943003 0.002172999678671132 -0.79342288267379
vn 0.7854569413401142 -0.002803999790590432 0.6189099537782592
vn -0.7854569413401142 0.002803999790590432 -0.6189099537782592
vn 0.016114006430448632 -0.7022142802253357 0.711783284043938
vn -0.016114006430448632 0.7022142802253357 -0.711783284043938
vn 0.995433135784057 0.0953610130079106 0.004376000596917175
vn -0.995433135784057 -0.0953610130079106 -0.004376000596917175
vn 0.7886188883619352 -0.005128999273931358 0.6148609129593731
vn -0.7886188883619352 0.005128999273931358 -0.6148609129593731
vn 0.9167936047272729 -0.00596299742907219 0.39931682783578465
vn -0.9167936047272729 0.00596299742907219 -0.39931682783578465
vn 0.017225995849431252 -0.6995338314487428 0.7143918278687384
vn -0.017225995849431252 0.6995338314487428 -0.7143918278687384
vn 0.02365000174882309 -0.4538620335612833 0.8907580658679983
vn -0.02365000174882309 0.4538620335612833 -0.8907580658679983
vn 0.9968409871895966 0.0779609989981232 0.01516999980505035
vn -0.9968409871895966 -0.0779609989981232 -0.01516999980505035
vn 0.9990195978497369 0.0436289824373748 0.007506996978096519
vn -0.9990195978497369 -0.0436289824373748 -0.007506996978096519
vn 0.9198889702001973 -0.009574999689817978 0.39206198729915215
vn -0.9198889702001973 0.009574999689817978 -0.39206198729915215
vn 0.9895201498484899 -0.010300001559786037 0.1440270218108057
vn -0.9895201498484899 0.010300001559786037 -0.1440270218108057
vn 0.02059499637365395 -0.44313792197272484 0.8962168421950484
vn -0.02059499637365395 0.44313792197272484 -0.8962168421950484
vn 0.025416003720738014 -0.12704601859871292 0.991571145159581
vn -0.025416003720738014 0.12704601859871292 -0.991571145159581
vn 0.994625022642639 0.1035370023570199 -0.001074000024449588
vn -0.994625022642639 -0.1035370023570199 0.001074000024449588
vn 0.9988570291171822 -0.0447650013049222 0.01675500048841664
vn -0.9988570291171822 0.0447650013049222 -0.01675500048841664
vn 0.9909046827832211 -0.015203995132768655 0.1337039571975596
vn -0.9909046827832211 0.015203995132768655 -0.1337039571975596
vn 0.029599990026640245 -0.14441995133943888 0.9890736667435531
vn -0.029599990026640245 0.14441995133943888 -0.9890736667435531
vn 0.9968642061585172 -0.075621015638957 0.02330700482005223
vn -0.9968642061585172 0.075621015638957 -0.02330700482005223
vn 0.9949560107276157 0.10023000108067988 0.004060000043774943
vn -0.9949560107276157 -0.10023000108067988 -0.004060000043774943
vn 0.9933181814931548 0.11521802105194742 -0.006618001209201557
vn -0.9933181814931548 -0.11521802105194742 0.006618001209201557
vn 0.9998821864360501 -0.015342002860639433 0.0004860000906186099
vn -0.9998821864360501 0.015342002860639433 -0.0004860000906186099
vn 0.02829300889293264 0.2183320686251639 0.9754643066035995
vn -0.02829300889293264 -0.2183320686251639 -0.9754643066035995
vn -0.9955969278023001 -0.09351999321821092 0.006384999536978985
vn 0.9955969278023001 0.09351999321821092 -0.006384999536978985
vn 0.9973426021670968 -0.06965597221472582 0.021348991484038425
vn -0.9973426021670968 0.06965597221472582 -0.021348991484038425
vn 0.994927889972423 0.10053198888231873 0.0034369996199074106
vn -0.994927889972423 -0.10053198888231873 -0.0034369996199074106
vn 0.9944159110032603 0.10551099055713603 -0.0021039998116993658
vn -0.9944159110032603 -0.10551099055713603 0.0021039998116993658
vn 0.9993544305454661 0.02153900927951337 -0.028754012387906917
vn -0.9993544305454661 -0.02153900927951337 0.028754012387906917
vn 0.032260011252390655 0.20195507044254646 0.9788633414305296
vn -0.032260011252390655 -0.20195507044254646 -0.9788633414305296
vn -0.9954587729941141 -0.09317897875132836 0.01948099555752504
vn 0.9954587729941141 0.09317897875132836 -0.01948099555752504
vn 0.9993469156121518 -0.035660996988678556 0.005833999507359592
vn -0.9993469156121518 0.035660996988678556 -0.005833999507359592
vn 0.9948759248391165 0.10109399236255136 0.0013779998958948904
vn -0.9948759248391165 -0.10109399236255136 -0.0013779998958948904
vn 0.9944602155786115 0.10509602278266572 -0.0019250004173006498
vn -0.9944602155786115 -0.10509602278266572 0.0019250004173006498
vn 0.020400006605676212 0.7982722584865861 0.6019511949163434
vn -0.020400006605676212 -0.7982722584865861 -0.6019511949163434
vn 0.026643005007433364 0.5457841025776755 0.8375021574047766
vn -0.026643005007433364 -0.5457841025776755 -0.8375021574047766
vn 0.994791731340115 0.10065497281646743 0.016061995662193653
vn -0.994791731340115 -0.10065497281646743 -0.016061995662193653
vn 0.0291980101788077 0.5372471872913863 0.8429192938526752
vn -0.0291980101788077 -0.5372471872913863 -0.8429192938526752
vn 0.019840999988551745 0.7967319995402856 0.6040069996514882
vn -0.019840999988551745 -0.7967319995402856 -0.6040069996514882
vn 0.9929345651091533 0.11823894821306649 -0.01002499560919822
vn -0.9929345651091533 -0.11823894821306649 0.01002499560919822
usemtl material_0_0
f 1//1 2//1 3//1
f 3//2 2//2 1//2
f 2//3 1//3 4//3
f 4//4 1//4 2//4
f 5//5 3//5 2//5
f 2//6 3//6 5//6
f 6//7 1//7 3//7
f 3//8 1//8 6//8
f 1//9 7//9 4//9
f 4//10 7//10 1//10
f 2//11 4//11 8//11
f 8//12 4//12 2//12
f 9//13 3//13 5//13
f 5//14 3//14 9//14
f 5//15 2//15 8//15
f 8//16 2//16 5//16
f 1//17 6//17 10//17
f 10//18 6//18 1//18
f 10//19 6//19 3//19
f 3//20 6//20 10//20
f 1//21 10//21 7//21
f 7//22 10//22 1//22
f 7//23 11//23 4//23
f 4//24 11//24 7//24
f 8//25 4//25 12//25
f 12//26 4//26 8//26
f 9//27 13//27 3//27
f 3//28 13//28 9//28
f 9//29 5//29 14//29
f 14//30 5//30 9//30
f 12//31 5//31 8//31
f 8//32 5//32 12//32
f 15//33 10//33 3//33
f 3//34 10//34 15//34
f 10//35 16//35 7//35
f 7//36 16//36 10//36
f 3//37 11//37 7//37
f 7//38 11//38 3//38
f 12//39 4//39 17//39
f 17//40 4//40 12//40
f 9//27 18//27 13//27
f 13//28 18//28 9//28
f 3//27 13//27 19//27
f 19//28 13//28 3//28
f 14//41 5//41 12//41
f 12//42 5//42 14//42
f 9//43 14//43 20//43
f 20//44 14//44 9//44
f 10//45 15//45 16//45
f 16//46 15//46 10//46
f 16//47 15//47 3//47
f 3//48 15//48 16//48
f 7//49 16//49 3//49
f 3//50 16//50 7//50
f 11//51 3//51 21//51
f 21//52 3//52 11//52
f 22//53 17//53 4//53
f 4//54 17//54 22//54
f 17//55 14//55 12//55
f 12//56 14//56 17//56
f 9//27 23//27 18//27
f 18//28 23//28 9//28
f 13//57 18//57 24//57
f 24//58 18//58 13//58
f 25//59 19//59 13//59
f 13//60 19//60 25//60
f 3//27 19//27 26//27
f 26//28 19//28 3//28
f 20//61 14//61 17//61
f 17//62 14//62 20//62
f 9//63 20//63 27//63
f 27//64 20//64 9//64
f 3//65 28//65 21//65
f 21//66 28//66 3//66
f 11//67 21//67 29//67
f 29//68 21//68 11//68
f 22//69 20//69 17//69
f 17//70 20//70 22//70
f 22//71 4//71 30//71
f 30//72 4//72 22//72
f 23//73 9//73 31//73
f 31//74 9//74 23//74
f 18//75 23//75 31//75
f 31//76 23//76 18//76
f 18//75 31//75 24//75
f 24//76 31//76 18//76
f 13//57 24//57 25//57
f 25//58 24//58 13//58
f 32//77 19//77 25//77
f 25//78 19//78 32//78
f 32//79 26//79 19//79
f 19//80 26//80 32//80
f 3//27 26//27 33//27
f 33//28 26//28 3//28
f 27//81 20//81 22//81
f 22//82 20//82 27//82
f 9//83 27//83 34//83
f 34//84 27//84 9//84
f 3//85 35//85 28//85
f 28//86 35//86 3//86
f 35//87 21//87 28//87
f 28//88 21//88 35//88
f 36//89 29//89 21//89
f 21//90 29//90 36//90
f 30//91 4//91 37//91
f 37//92 4//92 30//92
f 22//93 30//93 38//93
f 38//94 30//94 22//94
f 31//95 9//95 39//95
f 39//96 9//96 31//96
f 40//79 26//79 32//79
f 32//80 26//80 40//80
f 41//97 33//97 26//97
f 26//98 33//98 41//98
f 3//27 33//27 42//27
f 42//28 33//28 3//28
f 43//99 27//99 22//99
f 22//100 27//100 43//100
f 34//101 27//101 43//101
f 43//102 27//102 34//102
f 9//103 34//103 39//103
f 39//104 34//104 9//104
f 3//105 44//105 35//105
f 35//106 44//106 3//106
f 36//107 21//107 35//107
f 35//108 21//108 36//108
f 45//109 29//109 36//109
f 36//110 29//110 45//110
f 30//111 37//111 46//111
f 46//112 37//112 30//112
f 38//113 30//113 47//113
f 47//114 30//114 38//114
f 48//115 22//115 38//115
f 38//116 22//116 48//116
f 41//117 26//117 40//117
f 40//118 26//118 41//118
f 41//119 42//119 33//119
f 33//120 42//120 41//120
f 3//27 42//27 49//27
f 49//28 42//28 3//28
f 48//121 43//121 22//121
f 22//122 43//122 48//122
f 43//123 50//123 34//123
f 34//124 50//124 43//124
f 39//125 34//125 50//125
f 50//126 34//126 39//126
f 3//127 36//127 44//127
f 44//128 36//128 3//128
f 36//129 35//129 44//129
f 44//130 35//130 36//130
f 51//131 29//131 45//131
f 45//132 29//132 51//132
f 3//133 45//133 36//133
f 36//134 45//134 3//134
f 47//135 30//135 52//135
f 52//136 30//136 47//136
f 53//137 42//137 41//137
f 41//138 42//138 53//138
f 53//139 49//139 42//139
f 42//140 49//140 53//140
f 3//27 49//27 54//27
f 54//28 49//28 3//28
f 48//141 50//141 43//141
f 43//142 50//142 48//142
f 55//143 29//143 51//143
f 51//144 29//144 55//144
f 3//145 51//145 45//145
f 45//146 51//146 3//146
f 56//147 49//147 53//147
f 53//148 49//148 56//148
f 56//149 54//149 49//149
f 49//150 54//150 56//150
f 3//27 54//27 57//27
f 57//28 54//28 3//28
f 55//151 58//151 29//151
f 29//152 58//152 55//152
f 59//153 55//153 51//153
f 51//154 55//154 59//154
f 3//155 59//155 51//155
f 51//156 59//156 3//156
f 60//157 54//157 56//157
f 56//158 54//158 60//158
f 60//159 57//159 54//159
f 54//160 57//160 60//160
f 3//27 57//27 61//27
f 61//28 57//28 3//28
f 58//161 55//161 59//161
f 59//162 55//162 58//162
f 58//163 62//163 29//163
f 29//164 62//164 58//164
f 3//27 63//27 59//27
f 59//28 63//28 3//28
f 60//165 64//165 57//165
f 57//166 64//166 60//166
f 64//167 61//167 57//167
f 57//168 61//168 64//168
f 3//27 61//27 63//27
f 63//28 61//28 3//28
f 65//169 58//169 59//169
f 59//170 58//170 65//170
f 66//171 62//171 58//171
f 58//172 62//172 66//172
f 62//173 67//173 29//173
f 29//174 67//174 62//174
f 63//175 65//175 59//175
f 59//176 65//176 63//176
f 64//177 68//177 61//177
f 61//178 68//178 64//178
f 68//179 63//179 61//179
f 61//180 63//180 68//180
f 66//181 58//181 65//181
f 65//182 58//182 66//182
f 69//183 62//183 66//183
f 66//184 62//184 69//184
f 62//185 70//185 67//185
f 67//186 70//186 62//186
f 63//187 66//187 65//187
f 65//188 66//188 63//188
f 68//189 71//189 63//189
f 63//190 71//190 68//190
f 69//191 72//191 62//191
f 62//192 72//192 69//192
f 63//193 69//193 66//193
f 66//194 69//194 63//194
f 62//195 73//195 70//195
f 70//196 73//196 62//196
f 70//197 74//197 67//197
f 67//198 74//198 70//198
f 71//199 75//199 63//199
f 63//200 75//200 71//200
f 76//201 72//201 69//201
f 69//202 72//202 76//202
f 77//203 62//203 72//203
f 72//204 62//204 77//204
f 63//205 76//205 69//205
f 69//206 76//206 63//206
f 62//207 78//207 73//207
f 73//208 78//208 62//208
f 74//209 79//209 67//209
f 67//210 79//210 74//210
f 63//211 75//211 80//211
f 80//212 75//212 63//212
f 76//213 77//213 72//213
f 72//214 77//214 76//214
f 81//215 62//215 77//215
f 77//216 62//216 81//216
f 63//217 80//217 76//217
f 76//218 80//218 63//218
f 62//219 82//219 78//219
f 78//220 82//220 62//220
f 79//221 83//221 67//221
f 67//222 83//222 79//222
f 80//223 75//223 84//223
f 84//224 75//224 80//224
f 80//225 77//225 76//225
f 76//226 77//226 80//226
f 81//227 82//227 62//227
f 62//228 82//228 81//228
f 80//229 81//229 77//229
f 77//230 81//230 80//230
f 80//231 84//231 81//231
f 81//232 84//232 80//232
f 84//233 82//233 81//233
f 81//234 82//234 84//234
