# SSTK version 0.8.0
# 24
mtllib original-24.mtl
o mesh20/mesh20-geometry#mesh20-geometry
v -0.163069 -0.115533 0.149599
v -0.326612 -0.115533 0.149599
v -0.163069 -0.115533 0.378242
v -0.163069 -0.153641 0.149599
v -0.326612 -0.115533 0.378242
v -0.163069 -0.153641 0.378242
v -0.326612 -0.153641 0.149599
v -0.326612 -0.153641 0.378242
vn 0 1 0
vn 0 -1 0
vn 0 0 -1
vn 0 0 1
vn 1 0 0
vn -1 0 0
usemtl material_0_0
f 1//1 2//1 3//1
f 3//2 2//2 1//2
f 1//3 4//3 2//3
f 2//4 4//4 1//4
f 3//1 2//1 5//1
f 5//2 2//2 3//2
f 1//5 3//5 6//5
f 6//6 3//6 1//6
f 1//5 6//5 4//5
f 4//6 6//6 1//6
f 2//3 4//3 7//3
f 7//4 4//4 2//4
f 7//6 5//6 2//6
f 2//5 5//5 7//5
f 5//4 8//4 3//4
f 3//3 8//3 5//3
f 3//4 8//4 6//4
f 6//3 8//3 3//3
f 6//2 8//2 4//2
f 4//1 8//1 6//1
f 4//2 8//2 7//2
f 7//1 8//1 4//1
f 7//6 8//6 5//6
f 5//5 8//5 7//5
