# SSTK version 0.8.0
# 17
mtllib original-17.mtl
o _72BNX_CBS_D3_4E_ARMAU_3D_V2_1/_72BNX_CBS_D3_4E_ARMAU_3D_V2/mesh14/mesh14-geometry#mesh14-geometry
v -0.550704 0.210072 -0.124370
v -0.550704 0.207440 -0.124330
v -0.550704 0.196218 0.248712
v -0.393512 0.204873 -0.123750
v -0.550704 0.204873 -0.123750
v -0.550704 0.200439 0.256571
v -0.393512 0.207440 -0.124330
v -0.550704 0.202480 -0.122655
v -0.550704 0.199003 0.255397
v -0.550704 0.202077 0.257443
v -0.393512 0.210072 -0.124370
v -0.393512 0.196218 0.248712
v -0.393512 0.202480 -0.122655
v -0.393512 0.200364 -0.121091
v -0.550704 0.200364 -0.121091
v -0.550704 0.197823 0.253966
v -0.393512 0.202077 0.257443
v -0.550704 0.219308 0.257160
v -0.550704 0.217940 -0.123650
v -0.550704 0.196218 -0.111720
v -0.550704 0.196946 0.252332
v -0.393512 0.199003 0.255397
v -0.393512 0.200439 0.256571
v -0.393512 0.203853 0.257978
v -0.550704 0.217031 0.257838
v -0.550704 0.231146 0.176733
v -0.393512 0.217940 -0.123650
v -0.550704 0.233928 0.106841
v -0.393512 0.198614 -0.119125
v -0.550704 0.198614 -0.119125
v -0.550704 0.196404 0.250558
v -0.393512 0.205699 0.258156
v -0.393512 0.217031 0.257838
v -0.550704 0.203853 0.257978
v -0.393512 0.219308 0.257160
v -0.550704 0.221419 0.256069
v -0.393512 0.233928 0.106841
v -0.550704 0.221350 -0.123003
v -0.550704 0.235276 0.053260
v -0.393512 0.196218 -0.111720
v -0.393512 0.197306 -0.116841
v -0.550704 0.197306 -0.116841
v -0.393512 0.196404 0.250558
v -0.393512 0.196946 0.252332
v -0.393512 0.197823 0.253966
v -0.393512 0.214668 0.258079
v -0.550704 0.214668 0.258079
v -0.393512 0.221419 0.256069
v -0.393512 0.223290 0.254605
v -0.550704 0.223290 0.254605
v -0.393512 0.235276 0.053260
v -0.393512 0.231146 0.176733
v -0.550704 0.224587 -0.121752
v -0.550704 0.196496 -0.114337
v -0.550704 0.205699 0.258156
v -0.550704 0.224855 0.252818
v -0.393512 0.221350 -0.123003
v -0.550704 0.235940 -0.000188
v -0.393512 0.235940 -0.000188
v -0.393512 0.196496 -0.114337
v -0.393512 0.224855 0.252818
v -0.393512 0.226059 0.250770
v -0.550704 0.226059 0.250770
v -0.472108 0.227233 0.246196
v -0.393512 0.224587 -0.121752
v -0.550704 0.227547 -0.119938
v -0.550704 0.227233 0.246188
v -0.550704 0.227233 0.246196
v -0.393512 0.227233 0.246196
v -0.550704 0.235926 -0.053408
v -0.393512 0.235926 -0.053408
v -0.472108 0.227233 0.246188
v -0.550704 0.226861 0.248534
v -0.393512 0.227233 0.246188
v -0.393512 0.226861 0.248534
v -0.393512 0.227547 -0.119938
v -0.550704 0.230131 -0.117621
v -0.393512 0.235267 -0.105028
v -0.550704 0.232256 -0.114877
v -0.393512 0.230131 -0.117621
v -0.550704 0.235267 -0.105028
v -0.393512 0.233852 -0.111795
v -0.550704 0.233852 -0.111795
v -0.393512 0.232256 -0.114877
v -0.393512 0.234867 -0.108476
v -0.550704 0.234867 -0.108476
vn -1 0 0
vn 1 0 0
vn 0.0034430016632576955 -0.015072007281039565 -0.9998804830258801
vn -0.0034430016632576955 0.015072007281039565 0.9998804830258801
vn -0.0034430001721672283 -0.2203710110196525 -0.9754100487753808
vn 0.0034430001721672283 0.2203710110196525 0.9754100487753808
vn 0 -0.220371978905995 -0.9754159066331941
vn 0 0.220371978905995 0.9754159066331941
vn 0 -0.015072006193239111 -0.9998864108634093
vn 0 0.015072006193239111 0.9998864108634093
vn 0 -0.41626474987470385 -0.9092434536535031
vn 0 0.41626474987470385 0.9092434536535031
vn 0.003443000606765214 -0.4162620733584958 -0.909238160236419
vn -0.003443000606765214 0.4162620733584958 0.909238160236419
vn 0.002301999916451217 -0.632909977029166 0.7742219719003882
vn -0.002301999916451217 0.632909977029166 -0.7742219719003882
vn 0 -0.4697430885799325 0.8828031664710914
vn 0 0.4697430885799325 -0.8828031664710914
vn 0 0.09111602591996204 -0.9958402832887172
vn 0 -0.09111602591996204 0.9958402832887172
vn -0.0034429992434027207 -0.5943368693947844 -0.8042088232755327
vn 0.0034429992434027207 0.5943368693947844 0.8042088232755327
vn 0 -0.594341067264554 -0.8042130910168218
vn 0 0.594341067264554 0.8042130910168218
vn 0 -0.7717983880244387 0.6358673196846006
vn 0 0.7717983880244387 -0.6358673196846006
vn -0.0023019994804744574 -0.4697418939865478 0.8828008007655651
vn 0.0023019994804744574 0.4697418939865478 -0.8828008007655651
vn 0 -0.28852693356480597 0.9574717795359247
vn 0 0.28852693356480597 -0.9574717795359247
vn 0 -0.7470400446576815 -0.66477903974016
vn 0 0.7470400446576815 0.66477903974016
vn 0 -1 0
vn 0 1 0
vn 0.002300999451388873 -0.8809767899548959 0.4731538871892439
vn -0.002300999451388873 0.8809767899548959 -0.4731538871892439
vn 0 -0.632911872810043 0.7742238444119917
vn 0 0.632911872810043 -0.7742238444119917
vn -0.002301999868279571 -0.09619399449578002 0.9953599430455058
vn 0.002301999868279571 0.09619399449578002 -0.9953599430455058
vn 0 0.2853859075970521 0.9584126896827936
vn 0 -0.2853859075970521 -0.9584126896827936
vn 0 0.18657494877529532 -0.9824407302679872
vn 0 -0.18657494877529532 0.9824407302679872
vn -0.0034420001221359357 -0.8677620307916685 -0.49696801763441373
vn 0.0034420001221359357 0.8677620307916685 0.49696801763441373
vn 0.003442999242247595 -0.7470358355886361 -0.6647748536930426
vn -0.003442999242247595 0.7470358355886361 0.6647748536930426
vn 0 -0.9949823069894008 0.10005103086949946
vn 0 0.9949823069894008 -0.10005103086949946
vn 0.0023009994276253134 -0.9949797524983199 0.10004997511252153
vn -0.0023009994276253134 0.9949797524983199 -0.10004997511252153
vn 0 -0.9563749575422129 0.29214198703050265
vn 0 0.9563749575422129 -0.29214198703050265
vn -0.002301000080335968 -0.7717960269461013 0.6358660222003086
vn 0.002301000080335968 0.7717960269461013 -0.6358660222003086
vn 0.0023020006470452813 -0.2885260810987782 0.9574692691250212
vn -0.0023020006470452813 0.2885260810987782 -0.9574692691250212
vn 0.002816000734817184 0.10181602656823358 0.9947992595864346
vn -0.002816000734817184 -0.10181602656823358 -0.9947992595864346
vn 0 0.45894288287664364 0.8884657732613425
vn 0 -0.45894288287664364 -0.8884657732613425
vn 0.0028160007085326192 0.4589411154739589 0.888462223545564
vn -0.0028160007085326192 -0.4589411154739589 -0.888462223545564
vn 0 0.9992087415996567 0.039772989714507545
vn 0 -0.9992087415996567 -0.039772989714507545
vn 0.0039760012466893025 0.3604261130128872 -0.9327792924762577
vn -0.0039760012466893025 -0.3604261130128872 0.9327792924762577
vn 0 0.9996839151583292 0.025140997866321534
vn 0 -0.9996839151583292 -0.025140997866321534
vn 0 -0.8677671123194433 -0.49697106432545407
vn 0 0.8677671123194433 0.49697106432545407
vn -0.0023010010804744283 -0.9563724490810472 0.29214113717986934
vn 0.0023010010804744283 0.9563724490810472 -0.29214113717986934
vn 0 -0.9944030582630713 -0.10565300619031569
vn 0 0.9944030582630713 0.10565300619031569
vn 0 -0.880979153085118 0.47315508221874614
vn 0 0.880979153085118 -0.47315508221874614
vn 0 -0.09619495287439295 0.9953625123750107
vn 0 0.09619495287439295 -0.9953625123750107
vn 0 0.00858100156633304 0.9999631825282961
vn 0 -0.00858100156633304 -0.9999631825282961
vn -0.002815999522178426 0.28538495157559995 0.9584088373762439
vn 0.002815999522178426 -0.28538495157559995 -0.9584088373762439
vn 0 0.10181701474829724 0.9948031440982406
vn 0 -0.10181701474829724 -0.9948031440982406
vn -0.0028159994735742918 0.6164348847630567 0.7874008528025112
vn 0.0028159994735742918 -0.6164348847630567 -0.7874008528025112
vn 0 0.6164377327558075 0.787403658636966
vn 0 -0.6164377327558075 -0.787403658636966
vn -0.003976000213920745 0.18657301003818813 -0.9824330528578469
vn 0.003976000213920745 -0.18657301003818813 0.9824330528578469
vn 0 0.9999228440055491 0.012421998062087934
vn 0 -0.9999228440055491 -0.012421998062087934
vn 0 -0.9514317001925012 -0.30785990298966576
vn 0 0.9514317001925012 0.30785990298966576
vn 0.0034420002942841537 -0.9514260813450306 -0.3078580263212469
vn -0.0034420002942841537 0.9514260813450306 0.3078580263212469
vn 0 0.7523320764068493 0.6587840669061135
vn 0 -0.7523320764068493 -0.6587840669061135
vn 0.0028159991867099843 0.7523287827195793 0.6587818097369237
vn -0.0028159991867099843 -0.7523287827195793 -0.6587818097369237
vn 0 0.9984170532031501 0.05624400299710262
vn 0 -0.9984170532031501 -0.05624400299710262
vn 0 0.3604288826065301 -0.9327866961867586
vn 0 -0.3604288826065301 0.9327866961867586
vn -0.0034420007123617045 -0.9943972058019586 -0.10565202186590342
vn 0.0034420007123617045 0.9943972058019586 0.10565202186590342
vn -0.002815999386131913 0.8619068121103687 0.5070588894647239
vn 0.002815999386131913 -0.8619068121103687 -0.5070588894647239
vn 0 0.8619101267779388 0.5070610745833657
vn 0 -0.8619101267779388 -0.5070610745833657
vn 0 0.522512696265287 -0.8526315043684347
vn 0 -0.522512696265287 0.8526315043684347
vn 0 0.9999999654155018 -0.00026299999090405497
vn 0 -0.9999999654155018 0.00026299999090405497
vn 0 0.9687436678992276 0.24806391495973573
vn 0 -0.9687436678992276 -0.24806391495973573
vn 0 0.9877056799532865 0.1563249493459569
vn 0 -0.9877056799532865 -0.1563249493459569
vn 0.003975998803606236 0.6675037991454672 -0.7445957759481862
vn -0.003975998803606236 -0.6675037991454672 0.7445957759481862
vn -0.005632001522639977 0.9412652544758021 0.3376210912775626
vn 0.005632001522639977 -0.9412652544758021 -0.3376210912775626
vn 0.005632001522639977 0.9412652544758021 0.3376210912775626
vn -0.005632001522639977 -0.9412652544758021 -0.3376210912775626
vn -0.0039760003791812345 0.522508049830289 -0.8526250813127262
vn 0.0039760003791812345 -0.522508049830289 0.8526250813127262
vn 0 0.9999186644888476 -0.012753995720543905
vn 0 -0.9999186644888476 0.012753995720543905
vn 0 0.6675088653351066 -0.7446018497821763
vn 0 -0.6675088653351066 0.7446018497821763
vn 0 0.7906733314610043 -0.612238256658596
vn 0 -0.7906733314610043 0.612238256658596
vn 0 0.9933163100975074 -0.11542403603354269
vn 0 -0.9933163100975074 0.11542403603354269
vn 0.0039760014262993195 0.8879933185472364 -0.4598391649567535
vn -0.0039760014262993195 -0.8879933185472364 0.4598391649567535
vn -0.003976001272809659 0.7906672531108138 -0.6122331959899586
vn 0.003976001272809659 -0.7906672531108138 0.6122331959899586
vn -0.003975999797778668 0.9562829513629724 -0.292415985127577
vn 0.003975999797778668 -0.9562829513629724 0.292415985127577
vn 0 0.8880001844159016 -0.45984309549815444
vn 0 -0.8880001844159016 0.45984309549815444
vn 0.003976001867987745 0.9933084666718235 -0.11542305422755246
vn -0.003976001867987745 -0.9933084666718235 0.11542305422755246
vn 0 0.9562905494732321 -0.2924181680200184
vn 0 -0.9562905494732321 0.2924181680200184
usemtl material_0_0
f 1//1 2//1 3//1
f 3//2 2//2 1//2
f 1//3 4//3 2//3
f 2//4 4//4 1//4
f 2//1 5//1 3//1
f 3//2 5//2 2//2
f 1//1 3//1 6//1
f 6//2 3//2 1//2
f 1//5 7//5 4//5
f 4//6 7//6 1//6
f 2//7 4//7 5//7
f 5//8 4//8 2//8
f 5//1 8//1 3//1
f 3//2 8//2 5//2
f 3//1 9//1 6//1
f 6//2 9//2 3//2
f 1//1 6//1 10//1
f 10//2 6//2 1//2
f 11//9 7//9 1//9
f 1//10 7//10 11//10
f 7//2 12//2 4//2
f 4//1 12//1 7//1
f 4//11 13//11 5//11
f 5//12 13//12 4//12
f 5//13 14//13 8//13
f 8//14 14//14 5//14
f 8//1 15//1 3//1
f 3//2 15//2 8//2
f 3//1 16//1 9//1
f 9//2 16//2 3//2
f 17//15 6//15 9//15
f 9//16 6//16 17//16
f 10//17 6//17 17//17
f 17//18 6//18 10//18
f 1//1 10//1 18//1
f 18//2 10//2 1//2
f 11//2 12//2 7//2
f 7//1 12//1 11//1
f 19//19 11//19 1//19
f 1//20 11//20 19//20
f 4//2 12//2 13//2
f 13//1 12//1 4//1
f 5//21 13//21 14//21
f 14//22 13//22 5//22
f 8//23 14//23 15//23
f 15//24 14//24 8//24
f 15//1 20//1 3//1
f 3//2 20//2 15//2
f 3//1 21//1 16//1
f 16//2 21//2 3//2
f 22//25 9//25 16//25
f 16//26 9//26 22//26
f 17//27 9//27 23//27
f 23//28 9//28 17//28
f 24//29 10//29 17//29
f 17//30 10//30 24//30
f 18//1 10//1 25//1
f 25//2 10//2 18//2
f 1//1 18//1 26//1
f 26//2 18//2 1//2
f 11//2 23//2 12//2
f 12//1 23//1 11//1
f 27//19 11//19 19//19
f 19//20 11//20 27//20
f 1//1 28//1 19//1
f 19//2 28//2 1//2
f 13//2 12//2 14//2
f 14//1 12//1 13//1
f 29//31 15//31 14//31
f 14//32 15//32 29//32
f 15//1 30//1 20//1
f 20//2 30//2 15//2
f 12//33 3//33 20//33
f 20//34 3//34 12//34
f 3//1 31//1 21//1
f 21//2 31//2 3//2
f 22//35 16//35 21//35
f 21//36 16//36 22//36
f 23//37 9//37 22//37
f 22//38 9//38 23//38
f 11//2 17//2 23//2
f 23//1 17//1 11//1
f 32//39 10//39 24//39
f 24//40 10//40 32//40
f 17//2 33//2 24//2
f 24//1 33//1 17//1
f 10//1 34//1 25//1
f 25//2 34//2 10//2
f 18//41 25//41 35//41
f 35//42 25//42 18//42
f 26//1 18//1 36//1
f 36//2 18//2 26//2
f 1//1 26//1 28//1
f 28//2 26//2 1//2
f 12//2 23//2 22//2
f 22//1 23//1 12//1
f 11//2 27//2 37//2
f 37//1 27//1 11//1
f 38//43 27//43 19//43
f 19//44 27//44 38//44
f 19//1 28//1 39//1
f 39//2 28//2 19//2
f 14//2 12//2 40//2
f 40//1 12//1 14//1
f 41//45 15//45 29//45
f 29//46 15//46 41//46
f 14//2 40//2 29//2
f 29//1 40//1 14//1
f 41//47 30//47 15//47
f 15//48 30//48 41//48
f 30//1 42//1 20//1
f 20//2 42//2 30//2
f 43//49 3//49 12//49
f 12//50 3//50 43//50
f 12//33 20//33 40//33
f 40//34 20//34 12//34
f 44//51 31//51 3//51
f 3//52 31//52 44//52
f 44//53 21//53 31//53
f 31//54 21//54 44//54
f 22//55 21//55 45//55
f 45//56 21//56 22//56
f 11//2 35//2 17//2
f 17//1 35//1 11//1
f 32//57 34//57 10//57
f 10//58 34//58 32//58
f 24//2 46//2 32//2
f 32//1 46//1 24//1
f 35//2 33//2 17//2
f 17//1 33//1 35//1
f 33//2 46//2 24//2
f 24//1 46//1 33//1
f 25//1 34//1 47//1
f 47//2 34//2 25//2
f 35//59 25//59 47//59
f 47//60 25//60 35//60
f 48//61 18//61 35//61
f 35//62 18//62 48//62
f 49//63 36//63 18//63
f 18//64 36//64 49//64
f 26//1 36//1 50//1
f 50//2 36//2 26//2
f 37//65 28//65 26//65
f 26//66 28//66 37//66
f 12//2 22//2 45//2
f 45//1 22//1 12//1
f 27//2 51//2 37//2
f 37//1 51//1 27//1
f 11//2 37//2 52//2
f 52//1 37//1 11//1
f 53//67 27//67 38//67
f 38//68 27//68 53//68
f 19//1 39//1 38//1
f 38//2 39//2 19//2
f 51//69 39//69 28//69
f 28//70 39//70 51//70
f 29//2 40//2 41//2
f 41//1 40//1 29//1
f 41//71 42//71 30//71
f 30//72 42//72 41//72
f 42//1 54//1 20//1
f 20//2 54//2 42//2
f 44//73 3//73 43//73
f 43//74 3//74 44//74
f 12//2 44//2 43//2
f 43//1 44//1 12//1
f 40//75 20//75 54//75
f 54//76 20//76 40//76
f 45//77 21//77 44//77
f 44//78 21//78 45//78
f 11//2 52//2 35//2
f 35//1 52//1 11//1
f 55//79 34//79 32//79
f 32//80 34//80 55//80
f 46//81 55//81 32//81
f 32//82 55//82 46//82
f 35//83 47//83 33//83
f 33//84 47//84 35//84
f 33//85 47//85 46//85
f 46//86 47//86 33//86
f 34//1 55//1 47//1
f 47//2 55//2 34//2
f 49//87 18//87 48//87
f 48//88 18//88 49//88
f 52//2 48//2 35//2
f 35//1 48//1 52//1
f 50//89 36//89 49//89
f 49//90 36//90 50//90
f 26//1 50//1 56//1
f 56//2 50//2 26//2
f 51//69 28//69 37//69
f 37//70 28//70 51//70
f 37//65 26//65 52//65
f 52//66 26//66 37//66
f 12//2 45//2 44//2
f 44//1 45//1 12//1
f 27//2 57//2 51//2
f 51//1 57//1 27//1
f 53//91 57//91 27//91
f 27//92 57//92 53//92
f 38//1 58//1 53//1
f 53//2 58//2 38//2
f 38//1 39//1 58//1
f 58//2 39//2 38//2
f 59//93 39//93 51//93
f 51//94 39//94 59//94
f 41//2 40//2 60//2
f 60//1 40//1 41//1
f 60//95 42//95 41//95
f 41//96 42//96 60//96
f 40//97 54//97 42//97
f 42//98 54//98 40//98
f 47//81 55//81 46//81
f 46//82 55//82 47//82
f 52//2 49//2 48//2
f 48//1 49//1 52//1
f 61//99 50//99 49//99
f 49//100 50//100 61//100
f 62//101 56//101 50//101
f 50//102 56//102 62//102
f 26//1 56//1 63//1
f 63//2 56//2 26//2
f 52//103 26//103 64//103
f 64//104 26//104 52//104
f 57//2 59//2 51//2
f 51//1 59//1 57//1
f 65//105 57//105 53//105
f 53//106 57//106 65//106
f 53//1 58//1 66//1
f 66//2 58//2 53//2
f 59//93 58//93 39//93
f 39//94 58//94 59//94
f 40//107 42//107 60//107
f 60//108 42//108 40//108
f 52//2 61//2 49//2
f 49//1 61//1 52//1
f 62//109 50//109 61//109
f 61//110 50//110 62//110
f 62//111 63//111 56//111
f 56//112 63//112 62//112
f 26//1 63//1 67//1
f 67//2 63//2 26//2
f 64//103 26//103 68//103
f 68//104 26//104 64//104
f 52//103 64//103 69//103
f 69//104 64//104 52//104
f 57//2 65//2 59//2
f 59//1 65//1 57//1
f 66//113 65//113 53//113
f 53//114 65//114 66//114
f 66//1 58//1 70//1
f 70//2 58//2 66//2
f 71//115 58//115 59//115
f 59//116 58//116 71//116
f 52//2 62//2 61//2
f 61//1 62//1 52//1
f 62//117 72//117 63//117
f 63//118 72//118 62//118
f 67//1 63//1 73//1
f 73//2 63//2 67//2
f 72//119 67//119 73//119
f 73//120 67//120 72//120
f 74//119 72//119 75//119
f 75//120 72//120 74//120
f 52//2 74//2 62//2
f 62//1 74//1 52//1
f 65//2 76//2 59//2
f 59//1 76//1 65//1
f 77//121 65//121 66//121
f 66//122 65//122 77//122
f 71//115 70//115 58//115
f 58//116 70//116 71//116
f 66//1 70//1 77//1
f 77//2 70//2 66//2
f 76//2 71//2 59//2
f 59//1 71//1 76//1
f 75//123 72//123 62//123
f 62//124 72//124 75//124
f 72//125 73//125 63//125
f 63//126 73//126 72//126
f 74//2 75//2 62//2
f 62//1 75//1 74//1
f 77//127 76//127 65//127
f 65//128 76//128 77//128
f 78//129 70//129 71//129
f 71//130 70//130 78//130
f 77//1 70//1 79//1
f 79//2 70//2 77//2
f 76//2 80//2 71//2
f 71//1 80//1 76//1
f 80//131 76//131 77//131
f 77//132 76//132 80//132
f 78//129 81//129 70//129
f 70//130 81//130 78//130
f 82//2 78//2 71//2
f 71//1 78//1 82//1
f 79//1 70//1 83//1
f 83//2 70//2 79//2
f 80//133 77//133 79//133
f 79//134 77//134 80//134
f 80//2 84//2 71//2
f 71//1 84//1 80//1
f 85//135 81//135 78//135
f 78//136 81//136 85//136
f 83//1 70//1 81//1
f 81//2 70//2 83//2
f 82//2 85//2 78//2
f 78//1 85//1 82//1
f 84//2 82//2 71//2
f 71//1 82//1 84//1
f 80//137 79//137 83//137
f 83//138 79//138 80//138
f 80//139 83//139 84//139
f 84//140 83//140 80//140
f 82//141 81//141 85//141
f 85//142 81//142 82//142
f 83//1 81//1 86//1
f 86//2 81//2 83//2
f 84//143 83//143 82//143
f 82//144 83//144 84//144
f 82//145 86//145 81//145
f 81//146 86//146 82//146
f 82//147 83//147 86//147
f 86//148 83//148 82//148
