# SSTK version 0.8.0
# 14
mtllib original-14.mtl
o mesh11/mesh11-geometry#mesh11-geometry
v 0.433291 -0.168713 -0.044858
v 0.431579 -0.072574 -0.024126
v 0.431986 -0.160177 -0.058922
v 0.442769 -0.170504 -0.045027
v 0.431669 -0.152800 -0.071662
v 0.431099 -0.172704 -0.045682
v 0.438745 -0.174865 -0.045899
v 0.465201 -0.072724 -0.023991
v 0.432800 -0.139351 -0.098361
v 0.429783 -0.163552 -0.059416
v 0.445329 -0.170311 -0.045495
v 0.449642 -0.167345 -0.045389
v 0.449816 -0.055670 -0.083213
v 0.433040 -0.056021 -0.081795
v 0.429430 -0.156102 -0.072116
v 0.410855 -0.181447 -0.047236
v 0.426043 -0.165875 -0.059498
v 0.446986 -0.169320 -0.045199
v 0.464860 -0.180646 -0.053573
v 0.458251 -0.055798 -0.082865
v 0.440847 -0.145657 -0.103984
v 0.430434 -0.142853 -0.099099
v 0.413579 -0.192796 -0.049875
v 0.422506 -0.212112 -0.057157
v 0.461462 -0.199405 -0.058493
v 0.467360 -0.163722 -0.095214
v 0.466663 -0.056171 -0.081661
v 0.426465 -0.144933 -0.099582
v 0.405673 -0.165890 -0.071591
v 0.356014 -0.196400 -0.040720
v 0.462628 -0.194762 -0.073660
v 0.464280 -0.180479 -0.099603
v 0.466145 -0.154292 -0.107496
v 0.463996 -0.164901 -0.110167
v 0.438614 -0.151186 -0.105236
v 0.358480 -0.206604 -0.045155
v 0.351730 -0.179760 -0.069021
v 0.451405 -0.212724 -0.061476
v 0.453229 -0.206670 -0.076419
v 0.458007 -0.177786 -0.113215
v 0.413846 -0.176022 -0.111586
v 0.365389 -0.235316 -0.062044
v 0.434688 -0.220601 -0.062524
v 0.454988 -0.192517 -0.102427
v 0.463353 -0.176205 -0.106079
v 0.451786 -0.185407 -0.114862
v 0.418756 -0.197843 -0.116217
v 0.348079 -0.165789 -0.100075
v 0.437633 -0.214038 -0.077510
v 0.433999 -0.193672 -0.116005
v 0.357455 -0.204706 -0.121399
v 0.439485 -0.199837 -0.103686
vn -0.9968250918923254 -0.033349003074278 0.07230200666516079
vn 0.9968250918923254 0.033349003074278 -0.07230200666516079
vn -0.022454994126650044 -0.21113594477507855 0.9771987444029525
vn 0.022454994126650044 0.21113594477507855 -0.9771987444029525
vn -0.9997678854221078 -0.011802998647323322 0.018023997934368843
vn 0.9997678854221078 0.011802998647323322 -0.018023997934368843
vn -0.8557651218631015 0.4032030574171274 0.32418104616419485
vn 0.8557651218631015 -0.4032030574171274 -0.32418104616419485
vn -0.016680006314217587 -0.18114806857361457 0.9833143722337261
vn 0.016680006314217587 0.18114806857361457 -0.9833143722337261
vn -0.004834999384867242 -0.20926097337677455 0.9778478755933119
vn 0.004834999384867242 0.20926097337677455 -0.9778478755933119
vn -0.9992838170031698 0.018451996620923082 -0.03303599395018505
vn 0.9992838170031698 -0.018451996620923082 0.03303599395018505
vn -0.8176628601101616 0.4891489163139647 0.3035799480620291
vn 0.8176628601101616 -0.4891489163139647 -0.3035799480620291
vn -0.02546199854062013 -0.18866198918664995 0.9817119437321997
vn 0.02546199854062013 0.18866198918664995 -0.9817119437321997
vn -0.7975130652170325 0.4639920379431825 0.3855960315323097
vn 0.7975130652170325 -0.4639920379431825 -0.3855960315323097
vn 0.19370292068380332 -0.36107685214862795 0.9121966264797311
vn -0.19370292068380332 0.36107685214862795 -0.9121966264797311
vn 0.16195996322820919 -0.24291794484730894 0.9564307828495886
vn -0.16195996322820919 0.24291794484730894 -0.9564307828495886
vn 0.003193001200713958 0.9611643614416007 0.27595810377282276
vn -0.003193001200713958 -0.9611643614416007 -0.27595810377282276
vn -0.9997029810386336 0.007497999857785443 -0.023188999560174246
vn 0.9997029810386336 -0.007497999857785443 0.023188999560174246
vn -0.8199839857318689 0.5244009908751606 0.22941199600811674
vn 0.8199839857318689 -0.5244009908751606 -0.22941199600811674
vn -0.804725690312644 0.502009806808591 0.3168638780593962
vn 0.804725690312644 -0.502009806808591 -0.3168638780593962
vn -0.013059999842437633 -0.14554799824403641 0.9892649880650126
vn 0.013059999842437633 0.14554799824403641 -0.9892649880650126
vn -0.4578999898389704 0.7189299840465843 0.5229409883956783
vn 0.4578999898389704 -0.7189299840465843 -0.5229409883956783
vn -0.5009260044126571 0.6762550059571302 0.5401410047581022
vn 0.5009260044126571 -0.6762550059571302 -0.5401410047581022
vn 0.18953387940380068 -0.5583256447497886 0.807681486090203
vn -0.18953387940380068 0.5583256447497886 -0.807681486090203
vn 0.021682005276652698 0.06697201629867999 0.9975192427617989
vn -0.021682005276652698 -0.06697201629867999 -0.9975192427617989
vn 0.27562912957921026 -0.2549201198434575 0.926846435730539
vn -0.27562912957921026 0.2549201198434575 -0.926846435730539
vn 0.003198998949648854 0.9611646844136421 0.2759569093930133
vn -0.003198998949648854 -0.9611646844136421 -0.2759569093930133
vn 0.003196000289249224 0.9611640869887177 0.2759590249752589
vn -0.003196000289249224 -0.9611640869887177 -0.2759590249752589
vn -0.46910406205215116 0.17350202295050227 -0.8659321145437758
vn 0.46910406205215116 -0.17350202295050227 0.8659321145437758
vn -0.8290030452594226 0.513576028038684 0.22134501208433136
vn 0.8290030452594226 -0.513576028038684 -0.22134501208433136
vn -0.47707778054093186 0.7522006539825132 0.4545227909163828
vn 0.47707778054093186 -0.7522006539825132 -0.4545227909163828
vn 0.00642500161058748 -0.22507505642069706 0.9743202442377579
vn -0.00642500161058748 0.22507505642069706 -0.9743202442377579
vn -0.3724989648729768 0.7705509273362803 0.5171999512275298
vn 0.3724989648729768 -0.7705509273362803 -0.5171999512275298
vn 0.15491000596542953 -0.3470910133661283 0.9249490356188631
vn -0.15491000596542953 0.3470910133661283 -0.9249490356188631
vn 0.3909819007521894 -0.44829488620371993 0.803843795950307
vn -0.3909819007521894 0.44829488620371993 -0.803843795950307
vn 0.2465559826402404 -0.2873809797657935 0.9255389348337314
vn -0.2465559826402404 0.2873809797657935 -0.9255389348337314
vn 0.9984505988770455 -0.01762299292004333 0.05278097879548354
vn -0.9984505988770455 0.01762299292004333 -0.05278097879548354
vn 0.0031959989812914663 0.9611646936336085 0.2759569120401283
vn -0.0031959989812914663 -0.9611646936336085 -0.2759569120401283
vn 0.0435130109292296 0.22057805540292824 -0.9743982447410994
vn -0.0435130109292296 -0.22057805540292824 0.9743982447410994
vn -0.08672799421225086 0.23226198450011334 -0.9687789353490242
vn 0.08672799421225086 -0.23226198450011334 0.9687789353490242
vn -0.30355900358639787 0.3884290045890947 -0.8700430102791232
vn 0.30355900358639787 -0.3884290045890947 0.8700430102791232
vn -0.46570686768105496 0.8010757723943783 0.37602489316194254
vn 0.46570686768105496 -0.8010757723943783 -0.37602489316194254
vn -0.31366477493792 0.7896174334303491 0.527369621599512
vn 0.31366477493792 -0.7896174334303491 -0.527369621599512
vn 0.1656510623509059 -0.1855250698314641 0.9685763645712436
vn -0.1656510623509059 0.1855250698314641 -0.9685763645712436
vn 0.07855195613337931 -0.31964282149839324 0.9442764726774495
vn -0.07855195613337931 0.31964282149839324 -0.9442764726774495
vn -0.33122407291286005 0.7616191676563882 0.5569801226088835
vn 0.33122407291286005 -0.7616191676563882 -0.5569801226088835
vn 0.13967895921228324 -0.3300679036167207 0.933565727389045
vn -0.13967895921228324 0.3300679036167207 -0.933565727389045
vn 0.9828966930895726 -0.18312694281843792 0.019457993924222847
vn -0.9828966930895726 0.18312694281843792 -0.019457993924222847
vn 0.9840397053288622 -0.1774699468565436 -0.013048996092472218
vn -0.9840397053288622 0.1774699468565436 0.013048996092472218
vn 0.9996503797467585 0.0031710012045985747 0.026250009971842552
vn -0.9996503797467585 -0.0031710012045985747 -0.026250009971842552
vn 0.14805998762855213 0.2510829790202606 -0.9565749200714727
vn -0.14805998762855213 -0.2510829790202606 0.9565749200714727
vn -0.05988098954352263 0.2393549582036017 -0.969083830777627
vn 0.05988098954352263 -0.2393549582036017 0.969083830777627
vn -0.32587693378523547 0.3319729325465929 -0.8852108201344743
vn 0.32587693378523547 -0.3319729325465929 0.8852108201344743
vn -0.15012106718977616 0.48646321772663453 -0.8607073852273208
vn 0.15012106718977616 -0.48646321772663453 0.8607073852273208
vn -0.3442288141808613 0.8561765378248993 0.3853157920015827
vn 0.3442288141808613 -0.8561765378248993 -0.3853157920015827
vn 0.16846805346797813 -0.3583141137208559 0.9182752914399626
vn -0.16846805346797813 0.3583141137208559 -0.9182752914399626
vn -0.16707206760321977 0.8386653393534181 0.5183892097584606
vn 0.16707206760321977 -0.8386653393534181 -0.5183892097584606
vn 0.15272098837358067 -0.2860039782269472 0.9459799279839697
vn -0.15272098837358067 0.2860039782269472 -0.9459799279839697
vn -0.18192598749759178 0.8106599442894239 0.5565369617533902
vn 0.18192598749759178 -0.8106599442894239 -0.5565369617533902
vn 0.13400202172675454 -0.31192005057394145 0.940611152508353
vn -0.13400202172675454 0.31192005057394145 -0.940611152508353
vn 0.7926378112297608 -0.5973668577344116 -0.12197597095087721
vn -0.7926378112297608 0.5973668577344116 0.12197597095087721
vn 0.9903282663958636 -0.13813503715798467 -0.012986003493202974
vn -0.9903282663958636 0.13813503715798467 0.012986003493202974
vn 0.970162191321339 -0.12372402439906045 -0.20851304111992264
vn -0.970162191321339 0.12372402439906045 0.20851304111992264
vn 0.9962018383742344 0.017211997207491395 -0.08535598615167521
vn -0.9962018383742344 -0.017211997207491395 0.08535598615167521
vn 0.0059569969370172095 0.24304987502804 -0.9699955012454164
vn -0.0059569969370172095 -0.24304987502804 0.9699955012454164
vn -0.049136991530404905 0.2514859566521241 -0.9666128333878601
vn 0.049136991530404905 -0.2514859566521241 0.9666128333878601
vn -0.06288599116106013 0.24443296564372716 -0.9676248639954966
vn 0.06288599116106013 -0.24443296564372716 0.9676248639954966
vn -0.19530289080178997 0.42124376447319933 -0.8856695048023906
vn 0.19530289080178997 -0.42124376447319933 0.8856695048023906
vn -0.1949410950457959 0.8491144139955981 0.49092023935386686
vn 0.1949410950457959 -0.8491144139955981 -0.49092023935386686
vn -0.9712616982013562 -0.23790692607554922 0.007141997780778036
vn 0.9712616982013562 0.23790692607554922 -0.007141997780778036
vn 0.12130298273337076 -0.4814139314741019 0.868058876437904
vn -0.12130298273337076 0.4814139314741019 -0.868058876437904
vn 0.1278449949886041 -0.3924779846152559 0.9108329642962593
vn -0.1278449949886041 0.3924779846152559 -0.9108329642962593
vn 0.805022091224706 -0.5775140654436088 -0.13570901537847876
vn -0.805022091224706 0.5775140654436088 0.13570901537847876
vn 0.7870644622505717 -0.5626343304405843 -0.25292714854656095
vn -0.7870644622505717 0.5626343304405843 0.25292714854656095
vn 0.7935741872422645 -0.5529681304717398 -0.2539020599076905
vn -0.7935741872422645 0.5529681304717398 0.2539020599076905
vn 0.963705911837296 -0.13758698741313014 -0.2287809790704307
vn -0.963705911837296 0.13758698741313014 0.2287809790704307
vn 0.9678069404905209 -0.1440729911410961 -0.2063799873099014
vn -0.9678069404905209 0.1440729911410961 0.2063799873099014
vn 0.8014038797104888 -0.24324096348989885 -0.5464299179816952
vn -0.8014038797104888 0.24324096348989885 0.5464299179816952
vn -0.05247700189260935 0.2516520090759559 -0.9663940348534846
vn 0.05247700189260935 -0.2516520090759559 0.9663940348534846
vn 0.034728005809492306 0.21494203595668915 -0.9760091632721946
vn -0.034728005809492306 -0.21494203595668915 0.9760091632721946
vn -0.09884397013622638 0.3930948812340651 -0.914169723801486
vn 0.09884397013622638 -0.3930948812340651 0.914169723801486
vn -0.23562901249811663 0.8756200464442018 0.42162602236367747
vn 0.23562901249811663 -0.8756200464442018 -0.42162602236367747
vn -0.9712619223335289 -0.23790598097596793 0.007142999428813593
vn 0.9712619223335289 0.23790598097596793 -0.007142999428813593
vn 0.09721798868703499 -0.4284989501368659 0.8982968954678913
vn -0.09721798868703499 0.4284989501368659 -0.8982968954678913
vn 0.42253910768114744 -0.857812218607467 -0.2926070745688744
vn -0.42253910768114744 0.857812218607467 0.2926070745688744
vn 0.42496988413835146 -0.8558387666684297 -0.29485691961169486
vn -0.42496988413835146 0.8558387666684297 0.29485691961169486
vn 0.4123978873310568 -0.8116217782613081 -0.4137608869586794
vn -0.4123978873310568 0.8116217782613081 0.4137608869586794
vn 0.7509639626331606 -0.4710899765592698 -0.46273897697480326
vn -0.7509639626331606 0.4710899765592698 0.46273897697480326
vn 0.7395022431376546 -0.5082831671161626 -0.4413441451075793
vn -0.7395022431376546 0.5082831671161626 0.4413441451075793
vn 0.7395030427484536 -0.5082760293819132 -0.44135102551317956
vn -0.7395030427484536 0.5082760293819132 0.44135102551317956
vn -0.054476020511832625 0.2509060944735643 -0.966477363907307
vn 0.054476020511832625 -0.2509060944735643 0.966477363907307
vn 0.05772398879840131 0.21966195737361308 -0.9738668110167813
vn -0.05772398879840131 -0.21966195737361308 0.9738668110167813
vn -0.055232004461586263 0.2509730202733506 -0.9664170780662081
vn 0.055232004461586263 -0.2509730202733506 0.9664170780662081
vn -0.08228796196873456 0.463570785750149 -0.8822305922569347
vn 0.08228796196873456 -0.463570785750149 0.8822305922569347
vn -0.9712619362070325 -0.23790598437421656 0.007140999530975544
vn 0.9712619362070325 0.23790598437421656 -0.007140999530975544
vn 0.19123395459255463 -0.912366783363551 -0.3619619140541447
vn -0.19123395459255463 0.912366783363551 0.3619619140541447
vn 0.41633103567728147 -0.8111930695147874 -0.4106510351905368
vn -0.41633103567728147 0.8111930695147874 0.4106510351905368
vn 0.38495897165912907 -0.7549979444166757 -0.53083396091974
vn -0.38495897165912907 0.7549979444166757 0.53083396091974
vn 0.13729897320349932 -0.872755829665134 -0.46845090857291377
vn -0.13729897320349932 0.872755829665134 0.46845090857291377
vn 0.2327420966311638 -0.8242963422359599 -0.5161072142802765
vn -0.2327420966311638 0.8242963422359599 0.5161072142802765
vn 0.1631850057025001 -0.8792860307266508 -0.44746701563673535
vn -0.1631850057025001 0.8792860307266508 0.44746701563673535
vn 0.3936289043353949 -0.7399098201778883 -0.545517867421445
vn -0.3936289043353949 0.7399098201778883 0.545517867421445
vn 0.1929939956251157 -0.8681049803213625 -0.4573259896331062
vn -0.1929939956251157 0.8681049803213625 0.4573259896331062
usemtl material_0_0
f 1//1 2//1 3//1
f 3//2 2//2 1//2
f 1//3 4//3 2//3
f 2//4 4//4 1//4
f 3//5 2//5 5//5
f 5//6 2//6 3//6
f 6//7 1//7 3//7
f 3//8 1//8 6//8
f 7//9 4//9 1//9
f 1//10 4//10 7//10
f 4//11 8//11 2//11
f 2//12 8//12 4//12
f 5//13 2//13 9//13
f 9//14 2//14 5//14
f 10//15 3//15 5//15
f 5//16 3//16 10//16
f 6//17 7//17 1//17
f 1//18 7//18 6//18
f 6//19 3//19 10//19
f 10//20 3//20 6//20
f 4//21 7//21 11//21
f 11//22 7//22 4//22
f 4//23 12//23 8//23
f 8//24 12//24 4//24
f 8//25 13//25 2//25
f 2//26 13//26 8//26
f 2//27 14//27 9//27
f 9//28 14//28 2//28
f 15//29 5//29 9//29
f 9//30 5//30 15//30
f 10//31 5//31 15//31
f 15//32 5//32 10//32
f 16//33 7//33 6//33
f 6//34 7//34 16//34
f 6//35 10//35 17//35
f 17//36 10//36 6//36
f 18//37 11//37 7//37
f 7//38 11//38 18//38
f 4//39 11//39 18//39
f 18//40 11//40 4//40
f 4//41 18//41 12//41
f 12//42 18//42 4//42
f 12//43 19//43 8//43
f 8//44 19//44 12//44
f 8//45 20//45 13//45
f 13//46 20//46 8//46
f 13//47 14//47 2//47
f 2//48 14//48 13//48
f 21//49 9//49 14//49
f 14//50 9//50 21//50
f 15//51 9//51 22//51
f 22//52 9//52 15//52
f 10//53 15//53 17//53
f 17//54 15//54 10//54
f 16//55 23//55 7//55
f 7//56 23//56 16//56
f 6//57 17//57 16//57
f 16//58 17//58 6//58
f 7//59 24//59 18//59
f 18//60 24//60 7//60
f 18//61 24//61 12//61
f 12//62 24//62 18//62
f 25//63 19//63 12//63
f 12//64 19//64 25//64
f 8//65 19//65 26//65
f 26//66 19//66 8//66
f 8//67 27//67 20//67
f 20//68 27//68 8//68
f 20//69 21//69 13//69
f 13//70 21//70 20//70
f 21//71 14//71 13//71
f 13//72 14//72 21//72
f 21//73 22//73 9//73
f 9//74 22//74 21//74
f 15//75 22//75 28//75
f 28//76 22//76 15//76
f 17//77 15//77 29//77
f 29//78 15//78 17//78
f 30//79 23//79 16//79
f 16//80 23//80 30//80
f 23//81 24//81 7//81
f 7//82 24//82 23//82
f 16//83 17//83 29//83
f 29//84 17//84 16//84
f 24//85 25//85 12//85
f 12//86 25//86 24//86
f 19//87 25//87 31//87
f 31//88 25//88 19//88
f 26//89 19//89 32//89
f 32//90 19//90 26//90
f 27//91 8//91 26//91
f 26//92 8//92 27//92
f 27//93 33//93 20//93
f 20//94 33//94 27//94
f 34//95 21//95 20//95
f 20//96 21//96 34//96
f 21//97 35//97 22//97
f 22//98 35//98 21//98
f 35//99 28//99 22//99
f 22//100 28//100 35//100
f 15//101 28//101 29//101
f 29//102 28//102 15//102
f 30//103 36//103 23//103
f 23//104 36//104 30//104
f 30//105 16//105 37//105
f 37//106 16//106 30//106
f 36//107 24//107 23//107
f 23//108 24//108 36//108
f 16//109 29//109 37//109
f 37//110 29//110 16//110
f 24//111 38//111 25//111
f 25//112 38//112 24//112
f 31//113 25//113 39//113
f 39//114 25//114 31//114
f 19//115 31//115 32//115
f 32//116 31//116 19//116
f 26//117 32//117 34//117
f 34//118 32//118 26//118
f 27//119 26//119 33//119
f 33//120 26//120 27//120
f 33//121 34//121 20//121
f 20//122 34//122 33//122
f 34//123 40//123 21//123
f 21//124 40//124 34//124
f 40//125 35//125 21//125
f 21//126 35//126 40//126
f 35//127 41//127 28//127
f 28//128 41//128 35//128
f 29//129 28//129 37//129
f 37//130 28//130 29//130
f 36//131 30//131 37//131
f 37//132 30//132 36//132
f 42//133 24//133 36//133
f 36//134 24//134 42//134
f 43//135 38//135 24//135
f 24//136 38//136 43//136
f 25//137 38//137 39//137
f 39//138 38//138 25//138
f 31//139 39//139 44//139
f 44//140 39//140 31//140
f 32//141 31//141 44//141
f 44//142 31//142 32//142
f 32//143 45//143 34//143
f 34//144 45//144 32//144
f 33//145 26//145 34//145
f 34//146 26//146 33//146
f 34//147 45//147 40//147
f 40//148 45//148 34//148
f 40//149 46//149 35//149
f 35//150 46//150 40//150
f 47//151 41//151 35//151
f 35//152 41//152 47//152
f 41//153 48//153 28//153
f 28//154 48//154 41//154
f 37//155 28//155 48//155
f 48//156 28//156 37//156
f 42//157 36//157 37//157
f 37//158 36//158 42//158
f 42//159 43//159 24//159
f 24//160 43//160 42//160
f 49//161 38//161 43//161
f 43//162 38//162 49//162
f 39//163 38//163 49//163
f 49//164 38//164 39//164
f 44//165 39//165 49//165
f 49//166 39//166 44//166
f 32//167 44//167 46//167
f 46//168 44//168 32//168
f 45//169 32//169 46//169
f 46//170 32//170 45//170
f 40//171 45//171 46//171
f 46//172 45//172 40//172
f 46//173 50//173 35//173
f 35//174 50//174 46//174
f 47//175 51//175 41//175
f 41//176 51//176 47//176
f 50//177 47//177 35//177
f 35//178 47//178 50//178
f 41//179 51//179 48//179
f 48//180 51//180 41//180
f 37//181 48//181 51//181
f 51//182 48//182 37//182
f 42//181 37//181 51//181
f 51//182 37//182 42//182
f 49//183 43//183 42//183
f 42//184 43//184 49//184
f 52//185 44//185 49//185
f 49//186 44//186 52//186
f 46//187 44//187 50//187
f 50//188 44//188 46//188
f 47//189 42//189 51//189
f 51//190 42//190 47//190
f 50//191 52//191 47//191
f 47//192 52//192 50//192
f 47//193 49//193 42//193
f 42//194 49//194 47//194
f 44//195 52//195 50//195
f 50//196 52//196 44//196
f 52//197 49//197 47//197
f 47//198 49//198 52//198
