mtllib new-5.mtl
v 0.005549 -0.459433 0.148282
v 0.075090 -0.459433 0.097758
v 0.005549 -0.454339 0.116876
v 0.005549 -0.447574 0.075163
v 0.005549 -0.459911 0.116876
v 0.047263 -0.454330 0.075169
v 0.026406 -0.313576 0.111288
v -0.015307 -0.313576 0.111288
v 0.005549 -0.562100 0.116876
v -0.015307 -0.562100 0.111288
v 0.026406 -0.562100 0.111288
v -0.030576 -0.562100 0.096020
v 0.005549 -0.562100 0.108551
v 0.041674 -0.313576 0.096020
v -0.011145 -0.562100 0.104078
v -0.023365 -0.562100 0.091857
v -0.063991 -0.459433 0.097758
v 0.028133 -0.459400 0.005721
v 0.022243 -0.562100 0.104078
v 0.041674 -0.562100 0.096020
v -0.027838 -0.562100 0.075163
v -0.036164 -0.454330 0.075168
v 0.005549 -0.454322 0.033449
v 0.005549 -0.685567 0.108551
v 0.034464 -0.562100 0.091857
v -0.011145 -0.685567 0.104078
v 0.047263 -0.562100 0.075163
v -0.023365 -0.685567 0.091857
v -0.036164 -0.562100 0.075163
v -0.063825 -0.459375 0.052621
v -0.017034 -0.459400 0.005721
v 0.022243 -0.685567 0.104078
v 0.038937 -0.562100 0.075163
v 0.047263 -0.313576 0.075163
v -0.030576 -0.313576 0.054306
v -0.030576 -0.562100 0.054306
v -0.027838 -0.685567 0.075163
v 0.034464 -0.685567 0.091857
v 0.038937 -0.685567 0.075163
v 0.041674 -0.562100 0.054306
v 0.041674 -0.313576 0.054306
v -0.023365 -0.562100 0.058469
v 0.034464 -0.685567 0.058469
v 0.034464 -0.562100 0.058469
v -0.015307 -0.313576 0.039038
v -0.015307 -0.562100 0.039038
v -0.023365 -0.685567 0.058469
v 0.026406 -0.562100 0.039038
v -0.011145 -0.562100 0.046248
v -0.011145 -0.685567 0.046248
v 0.022243 -0.562100 0.046248
v 0.005549 -0.562100 0.033449
v 0.022243 -0.685567 0.046248
v 0.005549 -0.562100 0.041775
v 0.005549 -0.685567 0.041775
vn -1.000000 0.000000 0.000000
vn 0.031969 0.978606 0.203244
vn 0.089364 0.988375 0.122999
vn 0.024594 0.986802 0.160050
vn 0.203175 0.978606 0.032401
vn 0.159878 0.987137 0.000671
vn 0.144590 0.988375 -0.046988
vn 0.258819 0.000000 0.965926
vn -0.258819 0.000000 0.965926
vn 0.000000 -1.000000 0.000000
vn 0.000000 1.000000 0.000000
vn -0.707107 0.000000 0.707107
vn 0.707107 0.000000 0.707107
vn -0.193399 0.979105 0.062849
vn 0.063095 0.979090 -0.193394
vn -0.000006 0.988375 -0.152038
vn -0.965920 0.000000 0.258840
vn -0.159877 0.987137 0.000668
vn -0.144594 0.988375 -0.046983
vn 0.000001 0.987164 -0.159707
vn 0.965920 0.000000 0.258841
vn -0.965926 0.000000 0.258819
vn -0.193506 0.979082 -0.062876
vn -0.063114 0.979090 -0.193389
vn 0.965926 0.000000 0.258819
vn -0.965931 0.000000 -0.258798
vn 0.965932 0.000000 -0.258797
vn -0.965926 0.000000 -0.258819
vn 0.965926 0.000000 -0.258819
vn -0.707107 0.000000 -0.707107
vn 0.707107 0.000000 -0.707107
vn -0.258818 0.000000 -0.965926
vn 0.258820 0.000000 -0.965926
vn -0.258819 0.000000 -0.965926
vn 0.258819 0.000000 -0.965926
vn 1.000000 0.000000 0.000000
vn -0.031969 -0.978606 -0.203244
vn -0.024594 -0.986802 -0.160050
vn -0.089364 -0.988375 -0.122999
vn -0.144590 -0.988375 0.046988
vn -0.159878 -0.987137 -0.000671
vn -0.203175 -0.978606 -0.032401
vn 0.193399 -0.979105 -0.062849
vn 0.000006 -0.988375 0.152038
vn -0.063095 -0.979090 0.193394
vn 0.965920 0.000000 -0.258840
vn 0.144594 -0.988375 0.046983
vn 0.159877 -0.987137 -0.000668
vn -0.000001 -0.987164 0.159707
vn -0.965920 0.000000 -0.258841
vn 0.193506 -0.979082 0.062876
vn 0.063114 -0.979090 0.193389
vn 0.965931 0.000000 0.258798
vn -0.965932 0.000000 0.258797
vn 0.258818 0.000000 0.965926
vn -0.258820 0.000000 0.965926
usemtl material-0
f 1//2 4//3 3//4
f 2//5 6//6 4//7
f 4//1 5//1 3//1
f 7//8 9//8 11//8
f 5//9 10//9 9//9
f 8//12 12//12 10//12
f 13//10 11//10 9//10
f 15//10 9//10 10//10
f 16//10 10//10 12//10
f 11//10 13//10 19//10
f 9//10 15//10 13//10
f 14//13 11//13 20//13
f 10//10 16//10 15//10
f 12//10 21//10 16//10
f 22//18 17//14 4//19
f 18//15 23//20 4//16
f 24//8 19//8 13//8
f 25//10 11//10 19//10
f 26//9 13//9 15//9
f 11//10 25//10 20//10
f 27//21 14//21 20//21
f 28//12 15//12 16//12
f 21//10 12//10 29//10
f 21//22 28//22 16//22
f 30//23 22//18 4//19
f 23//20 31//24 4//16
f 19//8 24//8 32//8
f 13//9 26//9 24//9
f 32//13 25//13 19//13
f 15//12 28//12 26//12
f 33//10 20//10 25//10
f 20//10 33//10 27//10
f 29//17 12//17 22//17
f 36//10 21//10 29//10
f 28//22 21//22 37//22
f 25//13 32//13 38//13
f 25//25 39//25 33//25
f 33//10 40//10 27//10
f 21//10 36//10 42//10
f 29//26 35//26 36//26
f 42//28 37//28 21//28
f 39//25 25//25 38//25
f 43//29 33//29 39//29
f 34//27 27//27 40//27
f 40//10 33//10 44//10
f 46//10 42//10 36//10
f 37//28 42//28 47//28
f 33//29 43//29 44//29
f 44//10 48//10 40//10
f 48//31 41//31 40//31
f 42//10 46//10 49//10
f 36//30 45//30 46//30
f 42//30 50//30 47//30
f 43//31 51//31 44//31
f 48//10 44//10 51//10
f 52//10 49//10 46//10
f 50//30 42//30 49//30
f 45//32 52//32 46//32
f 51//31 43//31 53//31
f 54//10 48//10 51//10
f 49//10 52//10 54//10
f 49//34 55//34 50//34
f 53//35 54//35 51//35
f 48//10 54//10 52//10
f 23//33 48//33 52//33
f 55//34 49//34 54//34
f 54//35 53//35 55//35
usemtl material-1
f 3//38 4//39 1//37
f 4//40 6//41 2//42
f 3//36 5//36 4//36
f 11//34 9//34 7//34
f 9//35 10//35 5//35
f 10//31 12//31 8//31
f 9//11 11//11 13//11
f 10//11 9//11 15//11
f 12//11 10//11 16//11
f 19//11 13//11 11//11
f 13//11 15//11 9//11
f 20//30 11//30 14//30
f 15//11 16//11 10//11
f 16//11 21//11 12//11
f 4//47 17//43 22//48
f 4//44 23//49 18//45
f 13//34 19//34 24//34
f 19//11 11//11 25//11
f 15//35 13//35 26//35
f 20//11 25//11 11//11
f 20//50 14//50 27//50
f 16//31 15//31 28//31
f 29//11 12//11 21//11
f 16//29 28//29 21//29
f 4//47 22//48 30//51
f 4//44 31//52 23//49
f 32//34 24//34 19//34
f 24//35 26//35 13//35
f 19//30 25//30 32//30
f 26//31 28//31 15//31
f 25//11 20//11 33//11
f 27//11 33//11 20//11
f 22//46 12//46 29//46
f 29//11 21//11 36//11
f 37//29 21//29 28//29
f 38//30 32//30 25//30
f 33//28 39//28 25//28
f 27//11 40//11 33//11
f 42//11 36//11 21//11
f 36//53 35//53 29//53
f 21//25 37//25 42//25
f 38//28 25//28 39//28
f 39//22 33//22 43//22
f 40//54 27//54 34//54
f 44//11 33//11 40//11
f 36//11 42//11 46//11
f 47//25 42//25 37//25
f 44//22 43//22 33//22
f 40//11 48//11 44//11
f 40//12 41//12 48//12
f 49//11 46//11 42//11
f 46//13 45//13 36//13
f 47//13 50//13 42//13
f 44//12 51//12 43//12
f 51//11 44//11 48//11
f 46//11 49//11 52//11
f 49//13 42//13 50//13
f 46//55 52//55 45//55
f 53//12 43//12 51//12
f 51//11 48//11 54//11
f 54//11 52//11 49//11
f 50//8 55//8 49//8
f 51//9 54//9 53//9
f 52//11 54//11 48//11
f 52//56 48//56 23//56
f 54//8 49//8 55//8
f 55//9 53//9 54//9