mtllib new-6.mtl
v 0.005549 -0.447574 0.075163
v 0.047263 -0.454330 0.075169
v 0.026406 -0.313576 0.111288
v -0.015307 -0.313576 0.111288
v 0.074924 -0.459375 0.052622
v 0.005549 -0.313576 0.116876
v 0.005549 -0.313576 0.098509
v -0.006124 -0.313576 0.095381
v 0.041674 -0.313576 0.096020
v 0.017222 -0.313576 0.095381
v -0.030576 -0.313576 0.096020
v -0.014669 -0.313576 0.086836
v 0.025768 -0.313576 0.086836
v 0.017206 -0.274251 0.095392
v 0.005549 -0.235175 0.098509
v -0.036164 -0.313576 0.075163
v -0.006124 -0.235175 0.095381
v -0.036164 -0.454330 0.075168
v 0.028895 -0.313576 0.075163
v -0.017797 -0.313576 0.075163
v -0.036164 -0.562100 0.075163
v -0.014669 -0.235175 0.086836
v 0.047263 -0.313576 0.075163
v 0.025768 -0.235175 0.086836
v 0.017222 -0.235175 0.095381
v -0.017797 -0.235175 0.075163
v -0.030576 -0.313576 0.054306
v 0.041674 -0.313576 0.054306
v 0.028895 -0.235175 0.075163
v -0.014669 -0.235175 0.063490
v -0.014669 -0.313576 0.063490
v 0.025768 -0.313576 0.063490
v -0.015307 -0.313576 0.039038
v 0.026406 -0.313576 0.039038
v 0.025768 -0.235175 0.063490
v -0.006124 -0.235175 0.054945
v -0.006124 -0.313576 0.054945
v 0.017222 -0.313576 0.054945
v 0.005549 -0.313576 0.033449
v 0.005549 -0.313576 0.051817
v 0.017222 -0.235175 0.054945
v 0.005549 -0.235175 0.051817
vn 0.159878 0.987137 0.000671
vn 0.144590 0.988375 -0.046988
vn 0.258819 0.000000 0.965926
vn -0.258819 0.000000 0.965926
vn 0.193507 0.979082 -0.062874
vn 0.000000 -1.000000 0.000000
vn 0.000000 1.000000 0.000000
vn -0.707107 0.000000 0.707107
vn 0.707107 0.000000 0.707107
vn 0.258645 0.000000 0.965972
vn 0.965920 0.000000 0.258841
vn 0.707031 0.000000 0.707182
vn -0.965926 0.000000 0.258819
vn 0.965926 0.000000 0.258819
vn -0.965931 0.000000 -0.258798
vn -0.965926 0.000000 -0.258819
vn 0.965926 0.000000 -0.258819
vn -0.707107 0.000000 -0.707107
vn 0.707107 0.000000 -0.707107
vn -0.258819 0.000000 -0.965926
vn 0.258819 0.000000 -0.965926
vn -0.144590 -0.988375 0.046988
vn -0.159878 -0.987137 -0.000671
vn -0.193507 -0.979082 0.062874
vn -0.258645 0.000000 -0.965972
vn -0.965920 0.000000 -0.258841
vn -0.707031 0.000000 -0.707182
vn 0.965931 0.000000 0.258798
usemtl material-0
f 2//1 5//5 1//2
f 7//7 3//7 10//7
f 8//7 6//7 7//7
f 12//7 4//7 8//7
f 3//7 13//7 10//7
f 14//10 7//10 10//10
f 15//4 8//4 7//4
f 17//8 12//8 8//8
f 9//7 19//7 13//7
f 13//12 14//12 10//12
f 7//10 14//10 15//10
f 8//4 15//4 17//4
f 20//7 11//7 12//7
f 12//8 17//8 22//8
f 19//14 24//14 13//14
f 14//12 13//12 24//12
f 15//10 14//10 25//10
f 12//13 26//13 20//13
f 16//15 21//15 18//15
f 26//13 12//13 22//13
f 23//11 9//11 2//11
f 24//14 19//14 29//14
f 14//12 24//12 25//12
f 30//16 20//16 26//16
f 21//15 16//15 27//15
f 19//7 28//7 32//7
f 32//17 29//17 19//17
f 20//16 30//16 31//16
f 29//17 32//17 35//17
f 36//18 31//18 30//18
f 33//7 31//7 37//7
f 38//19 35//19 32//19
f 31//18 36//18 37//18
f 34//7 40//7 38//7
f 35//19 38//19 41//19
f 36//20 40//20 37//20
f 39//7 37//7 40//7
f 42//21 38//21 40//21
f 38//21 42//21 41//21
f 40//20 36//20 42//20
usemtl material-1
f 1//22 5//24 2//23
f 10//6 3//6 7//6
f 7//6 6//6 8//6
f 8//6 4//6 12//6
f 10//6 13//6 3//6
f 10//25 7//25 14//25
f 7//21 8//21 15//21
f 8//19 12//19 17//19
f 13//6 19//6 9//6
f 10//27 14//27 13//27
f 15//25 14//25 7//25
f 17//21 15//21 8//21
f 12//6 11//6 20//6
f 22//19 17//19 12//19
f 13//16 24//16 19//16
f 24//27 13//27 14//27
f 25//25 14//25 15//25
f 20//17 26//17 12//17
f 18//28 21//28 16//28
f 22//17 12//17 26//17
f 2//26 9//26 23//26
f 29//16 19//16 24//16
f 25//27 24//27 14//27
f 26//14 20//14 30//14
f 27//28 16//28 21//28
f 32//6 28//6 19//6
f 19//13 29//13 32//13
f 31//14 30//14 20//14
f 35//13 32//13 29//13
f 30//9 31//9 36//9
f 37//6 31//6 33//6
f 32//8 35//8 38//8
f 37//9 36//9 31//9
f 38//6 40//6 34//6
f 41//8 38//8 35//8
f 37//3 40//3 36//3
f 40//6 37//6 39//6
f 40//4 38//4 42//4
f 41//4 42//4 38//4
f 42//3 36//3 40//3