mtllib new-3.mtl
v 0.353178 -0.041658 -0.104181
v 0.353178 -0.039785 -0.076719
v 0.353178 -0.035143 -0.115743
v 0.353178 -0.036407 -0.088246
v -0.340236 -0.035143 -0.115743
v -0.340236 -0.027354 -0.126489
v 0.353178 -0.031738 -0.099314
v -0.340236 -0.031738 -0.099314
v 0.353178 -0.027354 -0.126489
v -0.340236 -0.018392 -0.136278
v -0.340236 -0.025841 -0.109779
v 0.353178 -0.025841 -0.109779
v 0.353178 -0.018392 -0.136278
v 0.353178 -0.008375 -0.144984
v -0.340236 -0.018791 -0.119505
v 0.353178 -0.018791 -0.119505
v -0.340236 -0.008375 -0.144984
v 0.353178 -0.010680 -0.128365
v -0.340236 -0.010680 -0.128365
v 0.353178 0.002567 -0.152494
v 0.353178 -0.001614 -0.136245
v -0.340236 -0.001614 -0.136245
v -0.340236 0.002567 -0.152494
v 0.353178 0.014293 -0.158710
v 0.353178 0.008290 -0.143042
v -0.340236 0.008290 -0.143042
v -0.340236 0.014293 -0.158710
v 0.353178 0.026650 -0.163551
v 0.353178 0.018903 -0.148668
v -0.340236 0.018903 -0.148668
v -0.340236 0.026650 -0.163551
v 0.353178 0.039173 -0.166873
v 0.353178 0.030088 -0.153049
v -0.340236 0.030088 -0.153049
v -0.340236 0.039173 -0.166873
v 0.353178 0.527635 -0.267070
v 0.353178 0.041698 -0.156130
v -0.340236 0.041698 -0.156130
v -0.340236 0.527635 -0.267070
v 0.353178 0.532505 -0.268363
v 0.353178 0.530160 -0.256327
v -0.340236 0.530160 -0.256327
v -0.340236 0.532505 -0.268363
v 0.353178 0.536903 -0.270085
v 0.353178 0.535942 -0.257861
v -0.340236 0.535942 -0.257861
v -0.340236 0.536903 -0.270085
v 0.353178 0.541076 -0.272298
v 0.353178 0.541513 -0.260044
v -0.340236 0.541513 -0.260044
v -0.340236 0.541076 -0.272298
v 0.353178 0.544971 -0.274970
v -0.340236 0.546799 -0.262846
v -0.340236 0.544971 -0.274970
v 0.353178 0.546799 -0.262846
v 0.353178 0.548536 -0.278069
v -0.340236 0.551732 -0.266231
v -0.340236 0.548536 -0.278069
v 0.353178 0.551732 -0.266231
v -0.340236 0.551725 -0.281553
v 0.353178 0.551725 -0.281553
v -0.340236 0.556248 -0.270156
v 0.353178 0.554497 -0.285377
v 0.353178 0.556248 -0.270156
v -0.340236 0.554497 -0.285377
v 0.353178 0.560287 -0.274569
v -0.340236 0.556816 -0.289492
v 0.353178 0.556816 -0.289492
v -0.340236 0.560287 -0.274569
v 0.353178 0.563799 -0.279413
v 0.353178 0.558652 -0.293844
v -0.340236 0.558652 -0.293844
v -0.340236 0.563799 -0.279413
v 0.353178 0.560784 -0.303032
v 0.353178 0.559980 -0.298377
v -0.340236 0.559980 -0.298377
v 0.353178 0.566736 -0.284625
v -0.340236 0.560784 -0.303032
v 0.353178 0.561071 -0.308062
v -0.340236 0.566736 -0.284625
v 0.353178 0.572103 -0.422525
v -0.340236 0.561071 -0.308062
v 0.353178 0.569061 -0.290137
v -0.340236 0.572103 -0.422525
v -0.340236 0.561071 -0.422525
v 0.353178 0.561071 -0.422525
v -0.340236 0.569061 -0.290137
v 0.353178 0.570744 -0.295879
v -0.340236 0.570744 -0.295879
v 0.353178 0.571762 -0.301774
v -0.340236 0.571762 -0.301774
v 0.353178 0.572103 -0.307747
v -0.340236 0.572103 -0.307747
vn -0.447359 0.893991 0.025494
vn 0.447359 0.893991 0.025494
vn 0.447796 0.888328 0.101746
vn -0.447796 -0.842317 -0.299968
vn -0.447796 0.888328 0.101746
vn 0.447796 -0.802712 -0.393869
vn -0.447796 -0.802712 -0.393869
vn 0.447796 0.870980 0.202170
vn 0.447796 -0.842317 -0.299968
vn -0.447796 0.870980 0.202170
vn 0.447796 -0.752678 -0.482653
vn -0.447796 -0.870980 -0.202170
vn 0.447796 -0.870980 -0.202170
vn 0.447796 0.842317 0.299968
vn -0.447796 -0.752678 -0.482653
vn -0.447796 -0.888328 -0.101746
vn -0.447796 0.842317 0.299968
vn -0.447796 -0.692867 -0.565167
vn 0.447796 0.802712 0.393869
vn 0.447796 -0.888328 -0.101746
vn -0.447796 0.802712 0.393869
vn 0.447796 -0.692867 -0.565167
vn -0.447359 -0.893991 -0.025494
vn 0.447359 -0.893991 -0.025494
vn -0.447796 -0.624055 -0.640339
vn -0.447796 0.752678 0.482653
vn 0.447796 0.752678 0.482653
vn 0.447796 -0.624055 -0.640339
vn 0.447796 -0.547135 -0.707193
vn -0.447796 0.692867 0.565167
vn 0.447796 0.692867 0.565167
vn -0.447796 -0.547135 -0.707193
vn 0.447796 0.624055 0.640339
vn -0.447796 0.624055 0.640339
vn 0.447796 -0.463108 -0.764859
vn 0.447796 0.547135 0.707193
vn -0.447796 0.547135 0.707193
vn -0.447796 -0.463108 -0.764859
vn 0.447796 -0.373065 -0.812589
vn 0.447796 0.463108 0.764859
vn -0.447796 0.463108 0.764859
vn -0.447796 -0.373065 -0.812589
vn 0.447796 -0.278175 -0.849763
vn 0.447796 0.373065 0.812589
vn -0.447796 0.373065 0.812589
vn -0.447796 -0.278175 -0.849763
vn 0.447359 -0.204617 -0.870633
vn 0.447796 0.278175 0.849763
vn -0.447796 0.278175 0.849763
vn -0.447359 -0.204617 -0.870633
vn 0.447359 0.204617 0.870633
vn -0.447359 0.204617 0.870633
vn 0.577350 0.577350 -0.577350
vn -0.577350 0.577350 -0.577350
vn -0.577350 -0.577350 -0.577350
vn 0.577350 -0.577350 -0.577350
vn -0.577350 -0.577350 0.577350
vn 0.577350 -0.577350 0.577350
vn 0.577350 0.577350 0.577350
vn -0.577350 0.577350 0.577350
usemtl material-0
f 2//8 1//6 3//11
f 2//8 3//11 4//14
f 6//18 3//11 5//15
f 4//14 3//11 7//19
f 3//11 6//18 9//22
f 5//15 8//21 6//18
f 7//19 3//11 9//22
f 10//25 9//22 6//18
f 6//18 8//21 11//26
f 7//19 9//22 12//27
f 12//27 8//21 7//19
f 9//22 10//25 13//28
f 6//18 11//26 10//25
f 8//21 12//27 11//26
f 12//27 9//22 13//28
f 10//25 14//29 13//28
f 10//25 11//26 15//30
f 16//31 11//26 12//27
f 12//27 13//28 16//31
f 14//29 10//25 17//32
f 18//33 13//28 14//29
f 11//26 16//31 15//30
f 10//25 15//30 19//34
f 16//31 13//28 18//33
f 10//25 19//34 17//32
f 17//32 20//35 14//29
f 18//33 14//29 21//36
f 18//33 15//30 16//31
f 15//30 18//33 19//34
f 17//32 19//34 22//37
f 20//35 17//32 23//38
f 21//36 14//29 20//35
f 22//37 18//33 21//36
f 18//33 22//37 19//34
f 17//32 22//37 23//38
f 23//38 24//39 20//35
f 21//36 20//35 25//40
f 21//36 26//41 22//37
f 23//38 22//37 26//41
f 24//39 23//38 27//42
f 25//40 20//35 24//39
f 26//41 21//36 25//40
f 23//38 26//41 27//42
f 27//42 28//43 24//39
f 25//40 24//39 29//44
f 25//40 30//45 26//41
f 27//42 26//41 30//45
f 28//43 27//42 31//46
f 29//44 24//39 28//43
f 30//45 25//40 29//44
f 27//42 30//45 31//46
f 31//46 32//47 28//43
f 29//44 28//43 33//48
f 29//44 34//49 30//45
f 31//46 30//45 34//49
f 32//47 31//46 35//50
f 33//48 28//43 32//47
f 34//49 29//44 33//48
f 31//46 34//49 35//50
f 35//50 36//47 32//47
f 33//48 32//47 37//51
f 33//48 38//52 34//49
f 35//50 34//49 38//52
f 36//47 35//50 39//50
f 37//51 32//47 36//47
f 38//52 33//48 37//51
f 35//50 38//52 39//50
f 39//50 40//43 36//47
f 37//51 36//47 41//51
f 37//51 42//52 38//52
f 39//50 38//52 42//52
f 40//43 39//50 43//46
f 41//51 36//47 40//43
f 42//52 37//51 41//51
f 39//50 42//52 43//46
f 43//46 44//39 40//43
f 41//51 40//43 45//48
f 41//51 46//49 42//52
f 43//46 42//52 46//49
f 44//39 43//46 47//42
f 45//48 40//43 44//39
f 46//49 41//51 45//48
f 43//46 46//49 47//42
f 47//42 48//35 44//39
f 45//48 44//39 49//44
f 45//48 50//45 46//49
f 47//42 46//49 50//45
f 48//35 47//42 51//38
f 49//44 44//39 48//35
f 50//45 45//48 49//44
f 47//42 50//45 51//38
f 51//38 52//29 48//35
f 49//44 48//35 52//29
f 49//44 53//41 50//45
f 51//38 50//45 54//32
f 52//29 51//38 54//32
f 49//44 52//29 55//40
f 53//41 49//44 55//40
f 54//32 50//45 53//41
f 54//32 56//28 52//29
f 55//40 52//29 56//28
f 55//40 57//37 53//41
f 54//32 53//41 58//25
f 56//28 54//32 58//25
f 55//40 56//28 59//36
f 57//37 55//40 59//36
f 58//25 53//41 57//37
f 60//18 56//28 58//25
f 59//36 56//28 61//22
f 59//36 62//34 57//37
f 58//25 57//37 60//18
f 56//28 60//18 61//22
f 59//36 61//22 63//11
f 62//34 59//36 64//33
f 65//15 57//37 62//34
f 60//18 57//37 65//15
f 65//15 61//22 60//18
f 61//22 65//15 63//11
f 59//36 63//11 64//33
f 66//31 62//34 64//33
f 65//15 62//34 67//7
f 67//7 63//11 65//15
f 64//33 63//11 68//6
f 62//34 66//31 69//30
f 64//33 68//6 66//31
f 67//7 62//34 69//30
f 63//11 67//7 68//6
f 70//27 69//30 66//31
f 66//31 68//6 71//9
f 67//7 69//30 72//4
f 72//4 68//6 67//7
f 69//30 70//27 73//26
f 66//31 74//20 70//27
f 68//6 72//4 71//9
f 66//31 71//9 75//13
f 72//4 69//30 76//12
f 77//19 73//26 70//27
f 78//16 69//30 73//26
f 66//31 75//13 74//20
f 70//27 74//20 79//24
f 76//12 71//9 72//4
f 71//9 76//12 75//13
f 76//12 69//30 78//16
f 73//26 77//19 80//21
f 70//27 81//53 77//19
f 78//16 73//26 82//23
f 75//13 78//16 74//20
f 74//20 82//23 79//24
f 79//24 81//53 70//27
f 78//16 75//13 76//12
f 83//14 80//21 77//19
f 84//54 73//26 80//21
f 77//19 81//53 83//14
f 84//54 82//23 73//26
f 82//23 74//20 78//16
f 85//55 79//24 82//23
f 81//53 79//24 86//56
f 80//21 83//14 87//17
f 84//54 80//21 87//17
f 83//14 81//53 88//8
f 82//23 84//54 85//55
f 79//24 85//55 86//56
f 85//55 81//53 86//56
f 88//8 87//17 83//14
f 84//54 87//17 89//10
f 88//8 81//53 90//3
f 81//53 85//55 84//54
f 87//17 88//8 89//10
f 84//54 89//10 91//5
f 90//3 81//53 92//2
f 90//3 89//10 88//8
f 93//1 81//53 84//54
f 89//10 90//3 91//5
f 84//54 91//5 93//1
f 81//53 93//1 92//2
f 92//2 91//5 90//3
f 91//5 92//2 93//1
usemtl material-1
f 3//26 1//21 2//12
f 4//4 3//26 2//12
f 5//27 3//26 6//31
f 7//7 3//26 4//4
f 9//30 6//31 3//26
f 6//31 8//6 5//27
f 9//30 3//26 7//7
f 6//31 9//30 10//33
f 11//11 8//6 6//31
f 12//15 9//30 7//7
f 7//7 8//6 12//15
f 13//34 10//33 9//30
f 10//33 11//11 6//31
f 11//11 12//15 8//6
f 13//34 9//30 12//15
f 13//34 14//37 10//33
f 15//22 11//11 10//33
f 12//15 11//11 16//18
f 16//18 13//34 12//15
f 17//36 10//33 14//37
f 14//37 13//34 18//25
f 15//22 16//18 11//11
f 19//28 15//22 10//33
f 18//25 13//34 16//18
f 17//36 19//28 10//33
f 14//37 20//41 17//36
f 21//32 14//37 18//25
f 16//18 15//22 18//25
f 19//28 18//25 15//22
f 22//29 19//28 17//36
f 23//40 17//36 20//41
f 20//41 14//37 21//32
f 21//32 18//25 22//29
f 19//28 22//29 18//25
f 23//40 22//29 17//36
f 20//41 24//45 23//40
f 25//38 20//41 21//32
f 22//29 26//35 21//32
f 26//35 22//29 23//40
f 27//44 23//40 24//45
f 24//45 20//41 25//38
f 25//38 21//32 26//35
f 27//44 26//35 23//40
f 24//45 28//49 27//44
f 29//42 24//45 25//38
f 26//35 30//39 25//38
f 30//39 26//35 27//44
f 31//48 27//44 28//49
f 28//49 24//45 29//42
f 29//42 25//38 30//39
f 31//48 30//39 27//44
f 28//49 32//52 31//48
f 33//46 28//49 29//42
f 30//39 34//43 29//42
f 34//43 30//39 31//48
f 35//51 31//48 32//52
f 32//52 28//49 33//46
f 33//46 29//42 34//43
f 35//51 34//43 31//48
f 32//52 36//52 35//51
f 37//50 32//52 33//46
f 34//43 38//47 33//46
f 38//47 34//43 35//51
f 39//51 35//51 36//52
f 36//52 32//52 37//50
f 37//50 33//46 38//47
f 39//51 38//47 35//51
f 36//52 40//49 39//51
f 41//50 36//52 37//50
f 38//47 42//47 37//50
f 42//47 38//47 39//51
f 43//48 39//51 40//49
f 40//49 36//52 41//50
f 41//50 37//50 42//47
f 43//48 42//47 39//51
f 40//49 44//45 43//48
f 45//46 40//49 41//50
f 42//47 46//43 41//50
f 46//43 42//47 43//48
f 47//44 43//48 44//45
f 44//45 40//49 45//46
f 45//46 41//50 46//43
f 47//44 46//43 43//48
f 44//45 48//41 47//44
f 49//42 44//45 45//46
f 46//43 50//39 45//46
f 50//39 46//43 47//44
f 51//40 47//44 48//41
f 48//41 44//45 49//42
f 49//42 45//46 50//39
f 51//40 50//39 47//44
f 48//41 52//37 51//40
f 52//37 48//41 49//42
f 50//39 53//35 49//42
f 54//36 50//39 51//40
f 54//36 51//40 52//37
f 55//38 52//37 49//42
f 55//38 49//42 53//35
f 53//35 50//39 54//36
f 52//37 56//34 54//36
f 56//34 52//37 55//38
f 53//35 57//29 55//38
f 58//33 53//35 54//36
f 58//33 54//36 56//34
f 59//32 56//34 55//38
f 59//32 55//38 57//29
f 57//29 53//35 58//33
f 58//33 56//34 60//31
f 61//30 56//34 59//32
f 57//29 62//28 59//32
f 60//31 57//29 58//33
f 61//30 60//31 56//34
f 63//26 61//30 59//32
f 64//25 59//32 62//28
f 62//28 57//29 65//27
f 65//27 57//29 60//31
f 60//31 61//30 65//27
f 63//26 65//27 61//30
f 64//25 63//26 59//32
f 64//25 62//28 66//18
f 67//19 62//28 65//27
f 65//27 63//26 67//19
f 68//21 63//26 64//25
f 69//22 66//18 62//28
f 66//18 68//21 64//25
f 69//22 62//28 67//19
f 68//21 67//19 63//26
f 66//18 69//22 70//15
f 71//17 68//21 66//18
f 72//14 69//22 67//19
f 67//19 68//21 72//14
f 73//11 70//15 69//22
f 70//15 74//5 66//18
f 71//17 72//14 68//21
f 75//10 71//17 66//18
f 76//8 69//22 72//14
f 70//15 73//11 77//7
f 73//11 69//22 78//3
f 74//5 75//10 66//18
f 79//1 74//5 70//15
f 72//14 71//17 76//8
f 75//10 76//8 71//17
f 78//3 69//22 76//8
f 80//6 77//7 73//11
f 77//7 81//57 70//15
f 82//2 73//11 78//3
f 74//5 78//3 75//10
f 79//1 82//2 74//5
f 70//15 81//57 79//1
f 76//8 75//10 78//3
f 77//7 80//6 83//4
f 80//6 73//11 84//58
f 83//4 81//57 77//7
f 73//11 82//2 84//58
f 78//3 74//5 82//2
f 82//2 79//1 85//59
f 86//60 79//1 81//57
f 87//9 83//4 80//6
f 87//9 80//6 84//58
f 88//12 81//57 83//4
f 85//59 84//58 82//2
f 86//60 85//59 79//1
f 86//60 81//57 85//59
f 83//4 87//9 88//12
f 89//13 87//9 84//58
f 90//16 81//57 88//12
f 84//58 85//59 81//57
f 89//13 88//12 87//9
f 91//20 89//13 84//58
f 92//23 81//57 90//16
f 88//12 89//13 90//16
f 84//58 81//57 93//24
f 91//20 90//16 89//13
f 93//24 91//20 84//58
f 92//23 93//24 81//57
f 90//16 91//20 92//23
f 93//24 92//23 91//20