mtllib new-2.mtl
v -0.340236 -0.043166 0.463132
v -0.340236 -0.042514 0.444829
v -0.340236 -0.042514 -0.052889
v -0.340236 -0.042446 0.453995
v 0.353178 -0.042514 -0.052889
v -0.340236 -0.044669 0.472174
v 0.353178 -0.042446 0.453995
v 0.353178 -0.042514 0.444829
v 0.353178 -0.041830 -0.064882
v -0.340236 -0.046816 -0.091953
v 0.353178 -0.043166 0.463132
v -0.340236 -0.041830 -0.064882
v 0.353178 -0.041658 -0.104181
v -0.340236 -0.046945 0.481053
v -0.340236 -0.041658 -0.104181
v 0.353178 -0.044669 0.472174
v 0.353178 -0.039785 -0.076719
v 0.353178 -0.046816 -0.091953
v -0.340236 -0.049975 0.489703
v -0.340236 -0.039785 -0.076719
v 0.353178 -0.035143 -0.115743
v -0.340236 -0.050548 -0.079217
v 0.353178 -0.046945 0.481053
v 0.353178 -0.050548 -0.079217
v 0.353178 -0.036407 -0.088246
v -0.340236 -0.035143 -0.115743
v -0.340236 -0.052808 -0.066139
v 0.353178 -0.049975 0.489703
v -0.340236 -0.036407 -0.088246
v 0.353178 -0.031738 -0.099314
v -0.340236 -0.053481 0.453602
v 0.353178 -0.052808 -0.066139
v -0.340236 -0.053739 0.498061
v -0.340236 -0.031738 -0.099314
v -0.340236 -0.053546 -0.053204
v 0.353178 -0.053546 -0.053204
v 0.353178 -0.053739 0.498061
v 0.353178 -0.053481 0.453602
v -0.340236 -0.054126 0.461792
v -0.340236 -0.053546 0.444871
v -0.340236 -0.058207 0.506064
v -0.340236 -0.055474 0.469896
v 0.353178 -0.054126 0.461792
v 0.353178 -0.053546 0.444871
v 0.353178 -0.058207 0.506064
v -0.340236 -0.057513 0.477854
v 0.353178 -0.055474 0.469896
v -0.340236 -0.063346 0.513653
v 0.353178 -0.057513 0.477854
v -0.340236 -0.060229 0.485607
v 0.353178 -0.063346 0.513653
v 0.353178 -0.060229 0.485607
v -0.340236 -0.069120 0.520772
v -0.340236 -0.063602 0.493098
v 0.353178 -0.063602 0.493098
v 0.353178 -0.069120 0.520772
v -0.340236 -0.067607 0.500271
v -0.340236 -0.075484 0.527368
v 0.353178 -0.067607 0.500271
v -0.340236 -0.072214 0.507073
v 0.353178 -0.075484 0.527368
v 0.353178 -0.072214 0.507073
v 0.353178 -0.082392 0.533392
v -0.340236 -0.077389 0.513454
v 0.353178 -0.077389 0.513454
v -0.340236 -0.082392 0.533392
v 0.353178 -0.089793 0.538800
v 0.353178 -0.083093 0.519366
v -0.340236 -0.083093 0.519366
v -0.340236 -0.089793 0.538800
v 0.353178 -0.089285 0.524765
v -0.340236 -0.089285 0.524765
v -0.340236 -0.096301 0.529893
v 0.353178 -0.096301 0.529893
vn -0.447545 0.887647 0.108567
vn -0.447216 0.894420 -0.003335
vn -0.447359 0.893991 0.025494
vn -0.447545 0.893695 0.031825
vn 0.447359 0.893991 0.025494
vn -0.447545 0.875021 0.184505
vn 0.447545 0.893695 0.031825
vn 0.447216 0.894420 -0.003335
vn 0.447796 0.888328 0.101746
vn -0.447796 -0.842317 -0.299968
vn 0.447545 0.887647 0.108567
vn -0.447796 0.888328 0.101746
vn 0.447796 -0.802712 -0.393869
vn -0.447545 0.855911 0.259075
vn -0.447796 -0.802712 -0.393869
vn 0.447545 0.875021 0.184505
vn 0.447796 0.870980 0.202170
vn 0.447796 -0.842317 -0.299968
vn -0.447545 0.830458 0.331726
vn -0.447796 0.870980 0.202170
vn 0.447796 -0.752678 -0.482653
vn -0.447796 -0.870980 -0.202170
vn 0.447545 0.855911 0.259075
vn 0.447796 -0.870980 -0.202170
vn 0.447796 0.842317 0.299968
vn -0.447796 -0.752678 -0.482653
vn -0.447796 -0.888328 -0.101746
vn 0.447545 0.830458 0.331726
vn -0.447796 0.842317 0.299968
vn 0.447796 0.802712 0.393869
vn -0.447545 -0.893695 -0.031825
vn 0.447796 -0.888328 -0.101746
vn -0.447545 0.798852 0.401918
vn -0.447796 0.802712 0.393869
vn -0.447359 -0.893991 -0.025494
vn 0.447359 -0.893991 -0.025494
vn 0.447545 0.798852 0.401918
vn 0.447545 -0.893695 -0.031825
vn -0.447796 0.752678 0.482653
vn 0.447796 0.752678 0.482653
vn -0.447545 -0.887647 -0.108567
vn -0.447216 -0.894420 0.003335
vn -0.447545 0.761326 0.469133
vn -0.447545 -0.875021 -0.184505
vn 0.447545 -0.887647 -0.108567
vn 0.447216 -0.894420 0.003335
vn 0.447545 0.761326 0.469133
vn -0.447545 -0.855911 -0.259075
vn 0.447545 -0.875021 -0.184505
vn -0.447545 0.718159 0.532870
vn 0.447545 -0.855911 -0.259075
vn -0.447545 -0.830458 -0.331726
vn 0.447545 0.718159 0.532870
vn 0.447545 -0.830458 -0.331726
vn -0.447545 0.669670 0.592660
vn -0.447545 -0.798852 -0.401918
vn 0.447545 -0.798852 -0.401918
vn 0.447545 0.669670 0.592660
vn -0.447545 -0.761326 -0.469133
vn -0.447545 0.616219 0.648057
vn 0.447545 -0.761326 -0.469133
vn -0.447545 -0.718159 -0.532870
vn 0.447545 0.616219 0.648057
vn 0.447545 -0.718159 -0.532870
vn 0.447545 0.558201 0.698652
vn -0.447545 -0.669670 -0.592660
vn 0.447545 -0.669670 -0.592660
vn -0.447545 0.558201 0.698652
vn 0.577350 -0.125519 0.806791
vn 0.447545 -0.616219 -0.648057
vn -0.447545 -0.616219 -0.648057
vn -0.577350 -0.125519 0.806791
vn 0.447545 -0.558201 -0.698652
vn -0.447545 -0.558201 -0.698652
vn -0.577350 -0.806791 -0.125519
vn 0.577350 -0.806791 -0.125519
vn -0.577350 0.125519 -0.806791
vn 0.577350 0.125519 -0.806791
vn 0.577350 0.806791 0.125519
vn -0.577350 0.806791 0.125519
usemtl material-0
f 1//1 2//2 3//3
f 2//2 1//1 4//4
f 2//2 5//5 3//3
f 3//3 6//6 1//1
f 1//1 7//7 4//4
f 4//4 8//8 2//2
f 5//5 2//2 8//8
f 9//9 3//3 5//5
f 10//10 6//6 3//3
f 6//6 11//11 1//1
f 7//7 1//1 11//11
f 8//8 4//4 7//7
f 8//8 11//11 5//5
f 3//3 9//9 12//12
f 5//5 13//13 9//9
f 10//10 14//14 6//6
f 10//10 3//3 15//15
f 11//11 6//6 16//16
f 11//11 8//8 7//7
f 16//16 5//5 11//11
f 17//17 12//12 9//9
f 15//15 3//3 12//12
f 5//5 18//18 13//13
f 9//9 13//13 17//17
f 10//10 19//19 14//14
f 14//14 16//16 6//6
f 15//15 18//18 10//10
f 16//16 18//18 5//5
f 12//12 17//17 20//20
f 15//15 12//12 20//20
f 18//18 15//15 13//13
f 22//22 19//19 10//10
f 19//19 23//23 14//14
f 16//16 14//14 23//23
f 24//24 10//10 18//18
f 23//23 18//18 16//16
f 25//25 20//20 17//17
f 15//15 20//20 26//26
f 26//26 13//13 15//15
f 13//13 26//26 21//21
f 27//27 19//19 22//22
f 10//10 24//24 22//22
f 23//23 19//19 28//28
f 28//28 24//24 18//18
f 28//28 18//18 23//23
f 20//20 25//25 29//29
f 26//26 20//20 29//29
f 31//31 19//19 27//27
f 22//22 32//32 27//27
f 32//32 22//22 24//24
f 33//33 28//28 19//19
f 28//28 32//32 24//24
f 30//30 29//29 25//25
f 26//26 29//29 34//34
f 31//31 33//33 19//19
f 35//35 31//31 27//27
f 36//36 27//27 32//32
f 28//28 33//33 37//37
f 28//28 38//38 32//32
f 29//29 30//30 34//34
f 39//41 33//33 31//31
f 31//31 35//35 40//42
f 27//27 36//36 35//35
f 38//38 36//36 32//32
f 41//43 37//37 33//33
f 37//37 38//38 28//28
f 42//44 33//33 39//41
f 31//31 43//45 39//41
f 35//35 44//46 40//42
f 40//42 38//38 31//31
f 44//46 35//35 36//36
f 36//36 38//38 44//46
f 37//37 41//43 45//47
f 46//48 41//43 33//33
f 37//37 43//45 38//38
f 46//48 33//33 42//44
f 39//41 47//49 42//44
f 43//45 31//31 38//38
f 47//49 39//41 43//45
f 38//38 40//42 44//46
f 48//50 45//47 41//43
f 45//47 49//51 37//37
f 50//52 41//43 46//48
f 37//37 47//49 43//45
f 42//44 49//51 46//48
f 49//51 42//44 47//49
f 45//47 48//50 51//53
f 50//52 48//50 41//43
f 45//47 52//54 49//51
f 37//37 49//51 47//49
f 46//48 52//54 50//52
f 52//54 46//48 49//51
f 53//55 51//53 48//50
f 51//53 52//54 45//47
f 54//56 48//50 50//52
f 55//57 50//52 52//54
f 51//53 53//55 56//58
f 57//59 53//55 48//50
f 51//53 55//57 52//54
f 57//59 48//50 54//56
f 50//52 55//57 54//56
f 58//60 56//58 53//55
f 56//58 59//61 51//53
f 60//62 53//55 57//59
f 51//53 59//61 55//57
f 54//56 59//61 57//59
f 59//61 54//56 55//57
f 56//58 58//60 61//63
f 60//62 58//60 53//55
f 56//58 62//64 59//61
f 57//59 62//64 60//62
f 62//64 57//59 59//61
f 58//60 63//65 61//63
f 61//63 62//64 56//58
f 64//66 58//60 60//62
f 65//67 60//62 62//64
f 63//65 58//60 66//68
f 63//65 65//67 61//63
f 61//63 65//67 62//64
f 64//66 66//68 58//60
f 60//62 65//67 64//66
f 66//68 67//69 63//65
f 63//65 68//70 65//67
f 69//71 66//68 64//66
f 68//70 64//66 65//67
f 67//69 66//68 70//72
f 67//69 71//73 63//65
f 63//65 71//73 68//70
f 72//74 66//68 69//71
f 64//66 68//70 69//71
f 72//74 70//72 66//68
f 73//75 67//69 70//72
f 71//73 67//69 74//76
f 72//74 68//70 71//73
f 68//70 72//74 69//71
f 70//72 72//74 73//75
f 67//69 73//75 74//76
f 73//75 71//73 74//76
f 71//73 73//75 72//74
usemtl material-1
f 3//36 2//46 1//45
f 4//38 1//45 2//46
f 3//36 5//35 2//46
f 1//45 6//49 3//36
f 4//38 7//31 1//45
f 2//46 8//42 4//38
f 8//42 2//46 5//35
f 5//35 3//36 9//27
f 3//36 6//49 10//25
f 1//45 11//41 6//49
f 11//41 1//45 7//31
f 7//31 4//38 8//42
f 5//35 11//41 8//42
f 12//32 9//27 3//36
f 9//27 13//34 5//35
f 6//49 14//51 10//25
f 15//30 3//36 10//25
f 16//44 6//49 11//41
f 7//31 8//42 11//41
f 11//41 5//35 16//44
f 9//27 12//32 17//22
f 12//32 3//36 15//30
f 13//34 18//29 5//35
f 17//22 13//34 9//27
f 14//51 19//54 10//25
f 6//49 16//44 14//51
f 10//25 18//29 15//30
f 5//35 18//29 16//44
f 20//24 17//22 12//32
f 20//24 12//32 15//30
f 13//34 15//30 18//29
f 10//25 19//54 22//17
f 14//51 23//48 19//54
f 23//48 14//51 16//44
f 18//29 10//25 24//20
f 16//44 18//29 23//48
f 17//22 20//24 25//10
f 26//40 20//24 15//30
f 15//30 13//34 26//40
f 21//39 26//40 13//34
f 22//17 19//54 27//9
f 22//17 24//20 10//25
f 28//52 19//54 23//48
f 18//29 24//20 28//52
f 23//48 18//29 28//52
f 29//18 25//10 20//24
f 29//18 20//24 26//40
f 27//9 19//54 31//7
f 27//9 32//12 22//17
f 24//20 22//17 32//12
f 19//54 28//52 33//57
f 24//20 32//12 28//52
f 25//10 29//18 30//15
f 34//13 29//18 26//40
f 19//54 33//57 31//7
f 27//9 31//7 35//5
f 32//12 27//9 36//3
f 37//56 33//57 28//52
f 32//12 38//4 28//52
f 34//13 30//15 29//18
f 31//7 33//57 39//11
f 40//8 35//5 31//7
f 35//5 36//3 27//9
f 32//12 36//3 38//4
f 33//57 37//56 41//61
f 28//52 38//4 37//56
f 39//11 33//57 42//16
f 39//11 43//1 31//7
f 40//8 44//2 35//5
f 31//7 38//4 40//8
f 36//3 35//5 44//2
f 44//2 38//4 36//3
f 45//59 41//61 37//56
f 33//57 41//61 46//23
f 38//4 43//1 37//56
f 42//16 33//57 46//23
f 42//16 47//6 39//11
f 38//4 31//7 43//1
f 43//1 39//11 47//6
f 44//2 40//8 38//4
f 41//61 45//59 48//64
f 37//56 49//14 45//59
f 46//23 41//61 50//28
f 43//1 47//6 37//56
f 46//23 49//14 42//16
f 47//6 42//16 49//14
f 51//62 48//64 45//59
f 41//61 48//64 50//28
f 49//14 52//19 45//59
f 47//6 49//14 37//56
f 50//28 52//19 46//23
f 49//14 46//23 52//19
f 48//64 51//62 53//67
f 45//59 52//19 51//62
f 50//28 48//64 54//37
f 52//19 50//28 55//33
f 56//66 53//67 51//62
f 48//64 53//67 57//47
f 52//19 55//33 51//62
f 54//37 48//64 57//47
f 54//37 55//33 50//28
f 53//67 56//66 58//70
f 51//62 59//43 56//66
f 57//47 53//67 60//53
f 55//33 59//43 51//62
f 57//47 59//43 54//37
f 55//33 54//37 59//43
f 61//71 58//70 56//66
f 53//67 58//70 60//53
f 59//43 62//50 56//66
f 60//53 62//50 57//47
f 59//43 57//47 62//50
f 61//71 63//74 58//70
f 56//66 62//50 61//71
f 60//53 58//70 64//58
f 62//50 60//53 65//55
f 66//73 58//70 63//74
f 61//71 65//55 63//74
f 62//50 65//55 61//71
f 58//70 66//73 64//58
f 64//58 65//55 60//53
f 63//74 67//77 66//73
f 65//55 68//60 63//74
f 64//58 66//73 69//63
f 65//55 64//58 68//60
f 70//78 66//73 67//77
f 63//74 71//68 67//77
f 68//60 71//68 63//74
f 69//63 66//73 72//65
f 69//63 68//60 64//58
f 66//73 70//78 72//65
f 70//78 67//77 73//79
f 74//80 67//77 71//68
f 71//68 68//60 72//65
f 69//63 72//65 68//60
f 73//79 72//65 70//78
f 74//80 73//79 67//77
f 74//80 71//68 73//79
f 72//65 73//79 71//68