# SSTK version 0.8.0
# 24
mtllib original-24.mtl
o mesh35/mesh35-geometry#mesh35-geometry
v -0.142067 -0.746105 0.691860
v -0.144356 -0.748954 0.692093
v -0.142672 -0.749278 0.691922
v -0.143793 -0.746004 0.692035
v -0.145573 -0.749278 0.663347
v -0.142532 -0.739661 0.691907
v -0.147256 -0.748954 0.663518
v -0.144967 -0.746105 0.663286
v -0.145432 -0.739661 0.663333
v -0.144226 -0.740012 0.692079
v -0.146694 -0.746004 0.663461
v -0.147541 -0.733558 0.663547
v -0.146186 -0.734337 0.692278
v -0.147126 -0.740012 0.663505
v -0.144640 -0.733558 0.692121
v -0.149086 -0.734337 0.663704
v -0.151149 -0.728211 0.663913
v -0.152441 -0.729366 0.664044
v -0.149541 -0.729366 0.692619
v -0.148248 -0.728211 0.692488
v -0.153111 -0.723985 0.692981
v -0.156962 -0.725437 0.664503
v -0.154061 -0.725437 0.693078
v -0.156011 -0.723985 0.664407
v -0.158895 -0.721167 0.693568
v -0.159440 -0.722817 0.693624
v -0.162340 -0.722817 0.665049
v -0.161796 -0.721167 0.664994
v -0.165208 -0.719951 0.694209
v -0.165309 -0.721686 0.694219
v -0.168210 -0.721686 0.665645
v -0.168109 -0.719951 0.665635
v -0.171619 -0.720418 0.694860
v -0.174520 -0.720418 0.666285
v -0.171270 -0.722121 0.694825
v -0.174171 -0.722121 0.666250
v -0.177691 -0.722537 0.695476
v -0.180592 -0.722537 0.666902
v -0.176916 -0.724091 0.695398
v -0.179816 -0.724091 0.666823
v -0.183011 -0.726164 0.696016
v -0.185912 -0.726164 0.667442
v -0.181862 -0.727463 0.695900
v -0.184762 -0.727463 0.667325
v -0.187216 -0.731051 0.696443
v -0.190116 -0.731051 0.667868
v -0.185771 -0.732007 0.696297
v -0.188672 -0.732007 0.667722
v -0.190019 -0.736866 0.696728
v -0.192919 -0.736866 0.668153
v -0.188377 -0.737413 0.696561
v -0.191278 -0.737413 0.667986
v -0.191229 -0.743211 0.696851
v -0.194129 -0.743211 0.668276
v -0.189502 -0.743313 0.696675
v -0.192403 -0.743313 0.668101
v -0.189070 -0.749304 0.696631
v -0.190764 -0.749655 0.696803
v -0.191971 -0.749304 0.668057
v -0.193664 -0.749655 0.668229
vn 0.10098796421552715 0 0.994887647467594
vn -0.10098796421552715 0 -0.994887647467594
vn -0.18731304405406635 -0.9821162309834524 0.019014004471894726
vn 0.18731304405406635 0.9821162309834524 -0.019014004471894726
vn -0.9770952148021927 0.18827604139013876 0.09918202180393011
vn -0.9931852970568009 0.05847301748898978 0.10081603015357506
vn 0.9770952148021927 -0.18827604139013876 -0.09918202180393011
vn 0.9931852970568009 -0.05847301748898978 -0.10081603015357506
vn -0.974399831868785 -0.20189596516315703 0.09890898293340482
vn -0.8892110063725306 -0.44850500321421105 0.09026100064685544
vn 0.974399831868785 0.20189596516315703 -0.09890898293340482
vn 0.8892110063725306 0.44850500321421105 -0.09026100064685544
vn -0.7434233256945737 -0.6645502911402108 0.0754630330604375
vn 0.7434233256945737 0.6645502911402108 -0.0754630330604375
vn -0.5469730165563265 -0.8353070252839088 0.0555220016805955
vn 0.5469730165563265 0.8353070252839088 -0.0555220016805955
vn -0.31324706679383585 -0.9491392023854482 0.03179700678009238
vn 0.31324706679383585 0.9491392023854482 -0.03179700678009238
vn -0.058173999685220495 -0.9982889945982583 0.005904999968048045
vn 0.058173999685220495 0.9982889945982583 -0.005904999968048045
vn 0.20086398699747193 -0.9794069366000528 -0.02038899868015899
vn -0.20086398699747193 0.9794069366000528 0.02038899868015899
vn 0.44621293837688203 -0.8937798765667733 -0.045293993744786674
vn -0.44621293837688203 0.8937798765667733 0.045293993744786674
vn 0.6611527006668187 -0.7472436616896185 -0.06711196961543175
vn -0.6611527006668187 0.7472436616896185 0.06711196961543175
vn 0.8310366356898239 -0.5497837589855736 -0.08435596301999886
vn -0.8310366356898239 0.5497837589855736 0.08435596301999886
vn 0.9442867758631732 -0.3148569252652543 -0.09585197724848155
vn -0.9442867758631732 0.3148569252652543 0.09585197724848155
vn 0.9922817417090962 0.07232998117250837 -0.10072397378155304
vn -0.9922817417090962 -0.07232998117250837 0.10072397378155304
usemtl material_0_0
f 1//1 2//1 3//1
f 2//1 1//1 4//1
f 3//2 2//2 1//2
f 4//2 1//2 2//2
f 2//3 5//3 3//3
f 3//4 5//4 2//4
f 3//5 1//6 5//5
f 4//1 1//1 6//1
f 6//2 1//2 4//2
f 4//6 7//5 2//5
f 2//7 7//7 4//8
f 5//3 2//3 7//3
f 7//4 2//4 5//4
f 8//6 5//5 1//6
f 6//9 9//9 1//6
f 4//1 6//1 10//1
f 10//2 6//2 4//2
f 7//5 4//6 11//6
f 11//8 4//8 7//7
f 7//2 8//2 5//2
f 5//1 8//1 7//1
f 8//6 1//6 9//9
f 9//9 6//9 12//10
f 10//1 6//1 13//1
f 13//2 6//2 10//2
f 14//9 4//6 10//9
f 10//11 4//8 14//11
f 4//6 14//9 11//6
f 11//8 14//11 4//8
f 8//2 7//2 11//2
f 11//1 7//1 8//1
f 8//2 11//2 9//2
f 9//1 11//1 8//1
f 15//10 12//10 6//9
f 9//2 16//2 12//2
f 12//1 16//1 9//1
f 13//1 6//1 15//1
f 15//2 6//2 13//2
f 16//10 10//9 13//10
f 13//12 10//11 16//12
f 10//9 16//10 14//9
f 14//11 16//12 10//11
f 9//2 11//2 14//2
f 14//1 11//1 9//1
f 12//10 15//10 17//13
f 9//2 14//2 16//2
f 16//1 14//1 9//1
f 12//2 16//2 18//2
f 18//1 16//1 12//1
f 13//1 15//1 19//1
f 19//2 15//2 13//2
f 13//10 18//13 16//10
f 16//12 18//14 13//12
f 20//13 17//13 15//10
f 12//2 18//2 17//2
f 17//1 18//1 12//1
f 19//1 15//1 20//1
f 20//2 15//2 19//2
f 18//13 13//10 19//13
f 19//14 13//12 18//14
f 20//13 21//15 17//13
f 17//2 18//2 22//2
f 22//1 18//1 17//1
f 19//1 20//1 23//1
f 23//2 20//2 19//2
f 23//15 18//13 19//13
f 19//14 18//14 23//16
f 24//15 17//13 21//15
f 23//1 20//1 21//1
f 21//2 20//2 23//2
f 18//13 23//15 22//15
f 22//16 23//16 18//14
f 17//2 22//2 24//2
f 24//1 22//1 17//1
f 21//15 25//17 24//15
f 23//1 21//1 26//1
f 26//2 21//2 23//2
f 26//17 22//15 23//15
f 23//16 22//16 26//18
f 24//2 22//2 27//2
f 27//1 22//1 24//1
f 28//17 24//15 25//17
f 26//1 21//1 25//1
f 25//2 21//2 26//2
f 22//15 26//17 27//17
f 27//18 26//18 22//16
f 24//2 27//2 28//2
f 28//1 27//1 24//1
f 25//17 29//19 28//17
f 26//1 25//1 30//1
f 30//2 25//2 26//2
f 30//19 27//17 26//17
f 26//18 27//18 30//20
f 28//2 27//2 31//2
f 31//1 27//1 28//1
f 32//19 28//17 29//19
f 33//1 25//1 29//1
f 29//2 25//2 33//2
f 33//1 30//1 25//1
f 25//2 30//2 33//2
f 27//17 30//19 31//19
f 31//20 30//20 27//18
f 31//2 34//2 28//2
f 28//1 34//1 31//1
f 28//2 34//2 32//2
f 32//1 34//1 28//1
f 29//19 33//21 32//19
f 33//1 35//1 30//1
f 30//2 35//2 33//2
f 35//21 31//19 30//19
f 30//20 31//20 35//22
f 36//2 34//2 31//2
f 31//1 34//1 36//1
f 34//21 32//19 33//21
f 37//1 35//1 33//1
f 33//2 35//2 37//2
f 31//19 35//21 36//21
f 36//22 35//22 31//20
f 36//2 38//2 34//2
f 34//1 38//1 36//1
f 33//21 37//23 34//21
f 37//1 39//1 35//1
f 35//2 39//2 37//2
f 39//23 36//21 35//21
f 35//22 36//22 39//24
f 40//2 38//2 36//2
f 36//1 38//1 40//1
f 38//23 34//21 37//23
f 41//1 39//1 37//1
f 37//2 39//2 41//2
f 36//21 39//23 40//23
f 40//24 39//24 36//22
f 40//2 42//2 38//2
f 38//1 42//1 40//1
f 37//23 41//25 38//23
f 41//1 43//1 39//1
f 39//2 43//2 41//2
f 43//25 40//23 39//23
f 39//24 40//24 43//26
f 44//2 42//2 40//2
f 40//1 42//1 44//1
f 42//25 38//23 41//25
f 45//1 43//1 41//1
f 41//2 43//2 45//2
f 40//23 43//25 44//25
f 44//26 43//26 40//24
f 44//2 46//2 42//2
f 42//1 46//1 44//1
f 42//25 41//25 46//27
f 45//1 47//1 43//1
f 43//2 47//2 45//2
f 45//27 46//27 41//25
f 43//25 48//27 44//25
f 44//26 48//28 43//26
f 48//2 46//2 44//2
f 44//1 46//1 48//1
f 49//1 47//1 45//1
f 45//2 47//2 49//2
f 48//27 43//25 47//27
f 47//28 43//26 48//28
f 46//27 45//27 50//29
f 48//2 50//2 46//2
f 46//1 50//1 48//1
f 49//1 51//1 47//1
f 47//2 51//2 49//2
f 49//29 50//29 45//27
f 47//27 52//29 48//27
f 48//28 52//30 47//28
f 52//2 50//2 48//2
f 48//1 50//1 52//1
f 53//1 51//1 49//1
f 49//2 51//2 53//2
f 52//29 47//27 51//29
f 51//30 47//28 52//30
f 50//29 49//29 54//8
f 52//2 54//2 50//2
f 50//1 54//1 52//1
f 53//1 55//1 51//1
f 51//2 55//2 53//2
f 53//8 54//8 49//29
f 51//29 56//8 52//29
f 52//30 56//6 51//30
f 56//2 54//2 52//2
f 52//1 54//1 56//1
f 53//1 57//1 55//1
f 55//2 57//2 53//2
f 56//8 51//29 55//8
f 55//6 51//30 56//6
f 53//8 58//31 54//8
f 59//2 54//2 56//2
f 56//1 54//1 59//1
f 57//1 53//1 58//1
f 58//2 53//2 57//2
f 57//31 56//8 55//8
f 55//6 56//6 57//32
f 60//31 54//8 58//31
f 54//2 59//2 60//2
f 60//1 59//1 54//1
f 56//8 57//31 59//31
f 59//32 57//32 56//6
f 58//21 59//21 57//21
f 57//22 59//22 58//22
f 59//21 58//21 60//21
f 60//22 58//22 59//22
usemtl material_1_0
f 5//7 1//8 3//7
f 1//8 5//7 8//8
f 1//8 9//11 6//11
f 9//11 1//8 8//8
f 12//12 6//11 9//11
f 6//11 12//12 15//12
f 17//14 15//12 12//12
f 15//12 17//14 20//14
f 17//14 21//16 20//14
f 21//16 17//14 24//16
f 24//16 25//18 21//16
f 25//18 24//16 28//18
f 28//18 29//20 25//18
f 29//20 28//18 32//20
f 32//20 33//22 29//20
f 33//22 32//20 34//22
f 34//22 37//24 33//22
f 37//24 34//22 38//24
f 38//24 41//26 37//24
f 41//26 38//24 42//26
f 46//28 41//26 42//26
f 41//26 46//28 45//28
f 50//30 45//28 46//28
f 45//28 50//30 49//30
f 54//6 49//30 50//30
f 49//30 54//6 53//6
f 54//6 58//32 53//6
f 58//32 54//6 60//32
