# SSTK version 0.8.0
# 15
mtllib original-15.mtl
o mesh22/mesh22-geometry#mesh22-geometry
v -0.190589 -0.766061 -0.338824
v -0.182232 -0.765399 -0.346419
v -0.186378 -0.766473 -0.342651
v -0.194577 -0.764190 -0.335200
v -0.167061 -0.766473 -0.321396
v -0.171272 -0.766061 -0.317569
v -0.175260 -0.764190 -0.313944
v -0.178432 -0.762912 -0.349872
v -0.162915 -0.765399 -0.325164
v -0.178754 -0.760987 -0.310769
v -0.198071 -0.760987 -0.332024
v -0.159116 -0.762912 -0.328616
v -0.175239 -0.759180 -0.352774
v -0.200832 -0.756672 -0.329515
v -0.155922 -0.759180 -0.331519
v -0.181515 -0.756672 -0.308259
v -0.172869 -0.754459 -0.354927
v -0.202673 -0.751539 -0.327842
v -0.153552 -0.754459 -0.333672
v -0.183356 -0.751539 -0.306586
v -0.171485 -0.749070 -0.356186
v -0.152168 -0.749070 -0.334931
v -0.203468 -0.745936 -0.327119
v -0.184151 -0.745936 -0.305864
v -0.171179 -0.743380 -0.356463
v -0.151862 -0.743380 -0.335208
v -0.183845 -0.740246 -0.306142
v -0.203162 -0.740246 -0.327397
v -0.171974 -0.737778 -0.355741
v -0.182461 -0.734857 -0.307400
v -0.152657 -0.737778 -0.334486
v -0.201778 -0.734857 -0.328655
v -0.173815 -0.732644 -0.354068
v -0.180091 -0.730136 -0.309554
v -0.154498 -0.732644 -0.332813
v -0.199408 -0.730136 -0.330809
v -0.176576 -0.728329 -0.351558
v -0.196215 -0.726404 -0.333711
v -0.157260 -0.728329 -0.330303
v -0.176898 -0.726404 -0.312456
v -0.180070 -0.725127 -0.348383
v -0.160753 -0.725127 -0.327128
v -0.192415 -0.723917 -0.337164
v -0.173098 -0.723917 -0.315909
v -0.184058 -0.723256 -0.344759
v -0.164742 -0.723256 -0.323503
v -0.188269 -0.722843 -0.340932
v -0.168952 -0.722843 -0.319677
vn -0.6725602974855915 0 -0.7400423273341146
vn 0.23300706978912294 -0.9491392842814953 -0.2117600634253249
vn 0.04327199986079398 -0.9982889967885044 -0.03932699987348505
vn -0.14941101285390468 -0.9794070842588849 0.135787011681825
vn -0.3319130264571203 -0.8937800712441061 0.3016470240445869
vn -0.4917949458875592 -0.7472439177803827 0.4469499508218761
vn 0.406863007895787 -0.8353070162103857 -0.36976300717580585
vn 0.6725602974855915 0 0.7400423273341146
vn -0.6181628641089635 -0.5497838791407483 0.5617938765005849
vn 0.552992155136441 -0.6645501864329354 -0.5025661409899249
vn -0.702403190538481 -0.31485708541019114 0.6383531731638545
vn 0.6614351816000305 -0.4485051231391167 -0.6011211650405436
vn 0.724802910224105 -0.20189597499266132 -0.6587099184105478
vn -0.7387758308185073 -0.058472986609541415 0.6714098462454843
vn 0.7387758308185073 0.058472986609541415 -0.6714098462454843
vn -0.724802910224105 0.20189597499266132 0.6587099184105478
vn 0.702403190538481 0.31485708541019114 -0.6383531731638545
vn -0.6614351816000305 0.4485051231391167 0.6011211650405436
vn 0.6181628641089635 0.5497838791407483 -0.5617938765005849
vn -0.552992155136441 0.6645501864329354 0.5025661409899249
vn 0.4917949458875592 0.7472439177803827 -0.4469499508218761
vn -0.406863007895787 0.8353070162103857 0.36976300717580585
vn 0.3319130264571203 0.8937800712441061 -0.3016470240445869
vn -0.23300706978912294 0.9491392842814953 0.2117600634253249
vn 0.14941101285390468 0.9794070842588849 -0.135787011681825
vn -0.04327199986079398 0.9982889967885044 0.03932699987348505
usemtl material_0_0
f 1//1 2//1 3//1
f 2//1 1//1 4//1
f 2//2 5//3 3//3
f 3//3 6//4 1//4
f 1//4 7//5 4//5
f 2//1 4//1 8//1
f 5//3 2//2 9//2
f 6//4 3//3 5//3
f 7//5 1//4 6//4
f 10//6 4//5 7//5
f 8//1 4//1 11//1
f 8//7 9//2 2//2
f 9//8 6//8 5//8
f 6//8 9//8 7//8
f 4//5 10//6 11//6
f 7//8 12//8 10//8
f 8//1 11//1 13//1
f 9//2 8//7 12//7
f 7//8 9//8 12//8
f 10//6 14//9 11//6
f 10//8 12//8 15//8
f 13//1 11//1 14//1
f 13//10 12//7 8//7
f 14//9 10//6 16//9
f 12//7 13//10 15//10
f 10//8 15//8 16//8
f 13//1 14//1 17//1
f 16//9 18//11 14//9
f 13//10 19//12 15//10
f 16//8 15//8 19//8
f 17//1 14//1 18//1
f 19//12 13//10 17//12
f 18//11 16//9 20//11
f 16//8 19//8 20//8
f 17//1 18//1 21//1
f 17//12 22//13 19//12
f 20//11 23//14 18//11
f 20//8 19//8 22//8
f 21//1 18//1 23//1
f 22//13 17//12 21//13
f 23//14 20//11 24//14
f 20//8 22//8 24//8
f 21//1 23//1 25//1
f 21//13 26//15 22//13
f 27//16 23//14 24//14
f 24//8 22//8 26//8
f 25//1 23//1 28//1
f 26//15 21//13 25//15
f 23//14 27//16 28//16
f 24//8 26//8 27//8
f 25//1 28//1 29//1
f 29//17 26//15 25//15
f 30//18 28//16 27//16
f 27//8 26//8 31//8
f 29//1 28//1 32//1
f 26//15 29//17 31//17
f 28//16 30//18 32//18
f 27//8 31//8 30//8
f 29//1 32//1 33//1
f 33//19 31//17 29//17
f 34//20 32//18 30//18
f 30//8 31//8 35//8
f 33//1 32//1 36//1
f 31//17 33//19 35//19
f 32//18 34//20 36//20
f 30//8 35//8 34//8
f 33//1 36//1 37//1
f 37//21 35//19 33//19
f 34//20 38//22 36//20
f 34//8 35//8 39//8
f 37//1 36//1 38//1
f 35//19 37//21 39//21
f 38//22 34//20 40//22
f 34//8 39//8 40//8
f 37//1 38//1 41//1
f 37//21 42//23 39//21
f 40//22 43//24 38//22
f 40//8 39//8 42//8
f 41//1 38//1 43//1
f 42//23 37//21 41//23
f 43//24 40//22 44//24
f 40//8 42//8 44//8
f 41//1 43//1 45//1
f 41//23 46//25 42//23
f 44//24 47//26 43//24
f 44//8 42//8 46//8
f 45//1 43//1 47//1
f 46//25 41//23 45//25
f 47//26 44//24 48//26
f 44//8 46//8 48//8
f 48//26 45//25 47//26
f 45//25 48//26 46//25
usemtl material_1_0
f 3//8 2//8 1//8
f 4//8 1//8 2//8
f 3//26 5//26 2//24
f 1//25 6//25 3//26
f 4//23 7//23 1//25
f 8//8 4//8 2//8
f 9//24 2//24 5//26
f 5//26 3//26 6//25
f 6//25 1//25 7//23
f 7//23 4//23 10//21
f 11//8 4//8 8//8
f 2//24 9//24 8//22
f 5//1 6//1 9//1
f 7//1 9//1 6//1
f 11//21 10//21 4//23
f 10//1 12//1 7//1
f 13//8 11//8 8//8
f 12//22 8//22 9//24
f 12//1 9//1 7//1
f 11//21 14//19 10//21
f 15//1 12//1 10//1
f 14//8 11//8 13//8
f 8//22 12//22 13//20
f 16//19 10//21 14//19
f 15//20 13//20 12//22
f 16//1 15//1 10//1
f 17//8 14//8 13//8
f 14//19 18//17 16//19
f 15//20 19//18 13//20
f 19//1 15//1 16//1
f 18//8 14//8 17//8
f 17//18 13//20 19//18
f 20//17 16//19 18//17
f 20//1 19//1 16//1
f 21//8 18//8 17//8
f 19//18 22//16 17//18
f 18//17 23//15 20//17
f 22//1 19//1 20//1
f 23//8 18//8 21//8
f 21//16 17//18 22//16
f 24//15 20//17 23//15
f 24//1 22//1 20//1
f 25//8 23//8 21//8
f 22//16 26//14 21//16
f 24//15 23//15 27//13
f 26//1 22//1 24//1
f 28//8 23//8 25//8
f 25//14 21//16 26//14
f 28//13 27//13 23//15
f 27//1 26//1 24//1
f 29//8 28//8 25//8
f 25//14 26//14 29//11
f 27//13 28//13 30//12
f 31//1 26//1 27//1
f 32//8 28//8 29//8
f 31//11 29//11 26//14
f 32//12 30//12 28//13
f 30//1 31//1 27//1
f 33//8 32//8 29//8
f 29//11 31//11 33//9
f 30//12 32//12 34//10
f 35//1 31//1 30//1
f 36//8 32//8 33//8
f 35//9 33//9 31//11
f 36//10 34//10 32//12
f 34//1 35//1 30//1
f 37//8 36//8 33//8
f 33//9 35//9 37//6
f 36//10 38//7 34//10
f 39//1 35//1 34//1
f 38//8 36//8 37//8
f 39//6 37//6 35//9
f 40//7 34//10 38//7
f 40//1 39//1 34//1
f 41//8 38//8 37//8
f 39//6 42//5 37//6
f 38//7 43//2 40//7
f 42//1 39//1 40//1
f 43//8 38//8 41//8
f 41//5 37//6 42//5
f 44//2 40//7 43//2
f 44//1 42//1 40//1
f 45//8 43//8 41//8
f 42//5 46//4 41//5
f 43//2 47//3 44//2
f 46//1 42//1 44//1
f 47//8 43//8 45//8
f 45//4 41//5 46//4
f 48//3 44//2 47//3
f 48//1 46//1 44//1
f 47//3 45//4 48//3
f 46//4 48//3 45//4
