# SSTK version 0.8.0
# 23
mtllib original-23.mtl
o mesh34/mesh34-geometry#mesh34-geometry
v -0.162258 -0.766061 0.693910
v -0.173493 -0.765399 0.695050
v -0.167919 -0.766473 0.694484
v -0.156897 -0.764190 0.693366
v -0.170820 -0.766473 0.665910
v -0.165159 -0.766061 0.665335
v -0.159797 -0.764190 0.664791
v -0.178601 -0.762912 0.695569
v -0.176394 -0.765399 0.666476
v -0.155100 -0.760987 0.664314
v -0.152200 -0.760987 0.692889
v -0.181501 -0.762912 0.666994
v -0.182894 -0.759180 0.696004
v -0.148488 -0.756672 0.692512
v -0.185794 -0.759180 0.667430
v -0.151388 -0.756672 0.663937
v -0.186079 -0.754459 0.696328
v -0.146013 -0.751539 0.692261
v -0.188980 -0.754459 0.667753
v -0.148913 -0.751539 0.663686
v -0.187941 -0.749070 0.696517
v -0.190842 -0.749070 0.667942
v -0.144944 -0.745936 0.692152
v -0.147845 -0.745936 0.663578
v -0.188352 -0.743380 0.696558
v -0.191252 -0.743380 0.667984
v -0.148255 -0.740246 0.663619
v -0.145355 -0.740246 0.692194
v -0.187283 -0.737778 0.696450
v -0.150117 -0.734857 0.663808
v -0.190184 -0.737778 0.667875
v -0.147216 -0.734857 0.692383
v -0.184808 -0.732644 0.696199
v -0.153303 -0.730136 0.664132
v -0.187709 -0.732644 0.667624
v -0.150402 -0.730136 0.692706
v -0.181096 -0.728329 0.695822
v -0.154695 -0.726404 0.693142
v -0.183996 -0.728329 0.667247
v -0.157596 -0.726404 0.664567
v -0.176399 -0.725127 0.695345
v -0.179299 -0.725127 0.666770
v -0.159803 -0.723917 0.693661
v -0.162703 -0.723917 0.665086
v -0.171037 -0.723256 0.694801
v -0.173938 -0.723256 0.666226
v -0.165377 -0.722843 0.694226
v -0.168277 -0.722843 0.665652
vn 0.10098796421552715 0 0.994887647467594
vn -0.31324706679383585 -0.9491392023854482 0.03179700678009238
vn -0.058173999685220495 -0.9982889945982583 0.005904999968048045
vn 0.20086398699747193 -0.9794069366000528 -0.02038899868015899
vn 0.44621293837688203 -0.8937798765667733 -0.045293993744786674
vn 0.6611527006668187 -0.7472436616896185 -0.06711196961543175
vn -0.5469730165563265 -0.8353070252839088 0.0555220016805955
vn -0.10098796421552715 0 -0.994887647467594
vn 0.8310366356898239 -0.5497837589855736 -0.08435596301999886
vn -0.7434233256945737 -0.6645502911402108 0.0754630330604375
vn 0.9442867758631732 -0.3148569252652543 -0.09585197724848155
vn -0.8892110063725306 -0.44850500321421105 0.09026100064685544
vn -0.974399831868785 -0.20189596516315703 0.09890898293340482
vn 0.9931852970568009 -0.05847301748898978 -0.10081603015357506
vn -0.9931852970568009 0.05847301748898978 0.10081603015357506
vn 0.974399831868785 0.20189596516315703 -0.09890898293340482
vn -0.9442867758631732 0.3148569252652543 0.09585197724848155
vn 0.8892110063725306 0.44850500321421105 -0.09026100064685544
vn -0.8310366356898239 0.5497837589855736 0.08435596301999886
vn 0.7434233256945737 0.6645502911402108 -0.0754630330604375
vn -0.6611527006668187 0.7472436616896185 0.06711196961543175
vn 0.5469730165563265 0.8353070252839088 -0.0555220016805955
vn -0.44621293837688203 0.8937798765667733 0.045293993744786674
vn 0.31324706679383585 0.9491392023854482 -0.03179700678009238
vn -0.20086398699747193 0.9794069366000528 0.02038899868015899
vn 0.058173999685220495 0.9982889945982583 -0.005904999968048045
usemtl material_0_0
f 1//1 2//1 3//1
f 2//1 1//1 4//1
f 2//2 5//3 3//3
f 3//3 6//4 1//4
f 1//4 7//5 4//5
f 2//1 4//1 8//1
f 5//3 2//2 9//2
f 6//4 3//3 5//3
f 7//5 1//4 6//4
f 10//6 4//5 7//5
f 8//1 4//1 11//1
f 8//7 9//2 2//2
f 9//8 6//8 5//8
f 6//8 9//8 7//8
f 4//5 10//6 11//6
f 7//8 12//8 10//8
f 8//1 11//1 13//1
f 9//2 8//7 12//7
f 7//8 9//8 12//8
f 10//6 14//9 11//6
f 10//8 12//8 15//8
f 13//1 11//1 14//1
f 13//10 12//7 8//7
f 14//9 10//6 16//9
f 12//7 13//10 15//10
f 10//8 15//8 16//8
f 13//1 14//1 17//1
f 16//9 18//11 14//9
f 13//10 19//12 15//10
f 16//8 15//8 19//8
f 17//1 14//1 18//1
f 19//12 13//10 17//12
f 18//11 16//9 20//11
f 16//8 19//8 20//8
f 17//1 18//1 21//1
f 17//12 22//13 19//12
f 20//11 23//14 18//11
f 20//8 19//8 22//8
f 21//1 18//1 23//1
f 22//13 17//12 21//13
f 23//14 20//11 24//14
f 20//8 22//8 24//8
f 21//1 23//1 25//1
f 21//13 26//15 22//13
f 27//16 23//14 24//14
f 24//8 22//8 26//8
f 25//1 23//1 28//1
f 26//15 21//13 25//15
f 23//14 27//16 28//16
f 24//8 26//8 27//8
f 25//1 28//1 29//1
f 29//17 26//15 25//15
f 30//18 28//16 27//16
f 27//8 26//8 31//8
f 29//1 28//1 32//1
f 26//15 29//17 31//17
f 28//16 30//18 32//18
f 27//8 31//8 30//8
f 29//1 32//1 33//1
f 33//19 31//17 29//17
f 34//20 32//18 30//18
f 30//8 31//8 35//8
f 33//1 32//1 36//1
f 31//17 33//19 35//19
f 32//18 34//20 36//20
f 30//8 35//8 34//8
f 33//1 36//1 37//1
f 37//21 35//19 33//19
f 34//20 38//22 36//20
f 34//8 35//8 39//8
f 37//1 36//1 38//1
f 35//19 37//21 39//21
f 38//22 34//20 40//22
f 34//8 39//8 40//8
f 37//1 38//1 41//1
f 37//21 42//23 39//21
f 40//22 43//24 38//22
f 40//8 39//8 42//8
f 41//1 38//1 43//1
f 42//23 37//21 41//23
f 43//24 40//22 44//24
f 40//8 42//8 44//8
f 41//1 43//1 45//1
f 41//23 46//25 42//23
f 44//24 47//26 43//24
f 44//8 42//8 46//8
f 45//1 43//1 47//1
f 46//25 41//23 45//25
f 47//26 44//24 48//26
f 44//8 46//8 48//8
f 48//26 45//25 47//26
f 45//25 48//26 46//25
usemtl material_1_0
f 3//8 2//8 1//8
f 4//8 1//8 2//8
f 3//26 5//26 2//24
f 1//25 6//25 3//26
f 4//23 7//23 1//25
f 8//8 4//8 2//8
f 9//24 2//24 5//26
f 5//26 3//26 6//25
f 6//25 1//25 7//23
f 7//23 4//23 10//21
f 11//8 4//8 8//8
f 2//24 9//24 8//22
f 5//1 6//1 9//1
f 7//1 9//1 6//1
f 11//21 10//21 4//23
f 10//1 12//1 7//1
f 13//8 11//8 8//8
f 12//22 8//22 9//24
f 12//1 9//1 7//1
f 11//21 14//19 10//21
f 15//1 12//1 10//1
f 14//8 11//8 13//8
f 8//22 12//22 13//20
f 16//19 10//21 14//19
f 15//20 13//20 12//22
f 16//1 15//1 10//1
f 17//8 14//8 13//8
f 14//19 18//17 16//19
f 15//20 19//18 13//20
f 19//1 15//1 16//1
f 18//8 14//8 17//8
f 17//18 13//20 19//18
f 20//17 16//19 18//17
f 20//1 19//1 16//1
f 21//8 18//8 17//8
f 19//18 22//16 17//18
f 18//17 23//15 20//17
f 22//1 19//1 20//1
f 23//8 18//8 21//8
f 21//16 17//18 22//16
f 24//15 20//17 23//15
f 24//1 22//1 20//1
f 25//8 23//8 21//8
f 22//16 26//14 21//16
f 24//15 23//15 27//13
f 26//1 22//1 24//1
f 28//8 23//8 25//8
f 25//14 21//16 26//14
f 28//13 27//13 23//15
f 27//1 26//1 24//1
f 29//8 28//8 25//8
f 25//14 26//14 29//11
f 27//13 28//13 30//12
f 31//1 26//1 27//1
f 32//8 28//8 29//8
f 31//11 29//11 26//14
f 32//12 30//12 28//13
f 30//1 31//1 27//1
f 33//8 32//8 29//8
f 29//11 31//11 33//9
f 30//12 32//12 34//10
f 35//1 31//1 30//1
f 36//8 32//8 33//8
f 35//9 33//9 31//11
f 36//10 34//10 32//12
f 34//1 35//1 30//1
f 37//8 36//8 33//8
f 33//9 35//9 37//6
f 36//10 38//7 34//10
f 39//1 35//1 34//1
f 38//8 36//8 37//8
f 39//6 37//6 35//9
f 40//7 34//10 38//7
f 40//1 39//1 34//1
f 41//8 38//8 37//8
f 39//6 42//5 37//6
f 38//7 43//2 40//7
f 42//1 39//1 40//1
f 43//8 38//8 41//8
f 41//5 37//6 42//5
f 44//2 40//7 43//2
f 44//1 42//1 40//1
f 45//8 43//8 41//8
f 42//5 46//4 41//5
f 43//2 47//3 44//2
f 46//1 42//1 44//1
f 47//8 43//8 45//8
f 45//4 41//5 46//4
f 48//3 44//2 47//3
f 48//1 46//1 44//1
f 47//3 45//4 48//3
f 46//4 48//3 45//4
