# SSTK version 0.8.0
# 17
mtllib original-17.mtl
o Group12/mesh25/mesh25-geometry#mesh25-geometry
v 0.001352 -0.595670 0.149325
v -0.026464 -0.667156 0.158096
v 0.001352 -0.667156 0.149325
v -0.026464 -0.595670 0.158096
v -0.176007 -0.723270 -0.352076
v -0.176007 -0.694089 -0.352076
v -0.026161 -0.667156 0.159058
v -0.203823 -0.694089 -0.343305
v -0.203520 -0.723270 -0.342344
v -0.203520 -0.694089 -0.342344
v -0.026161 -0.595670 0.159058
vn 0.30072195485742786 0 0.9537118568345091
vn -0.30072195485742786 0 -0.9537118568345091
vn 0.7318750651160253 -0.555076049385951 0.3952840351690151
vn 0.6259501425398178 0.6931131578340135 -0.35746408140083624
vn 0.6913730136539258 -0.7032030138875565 -0.16585800327552977
vn -0.6913730136539258 0.7032030138875565 0.16585800327552977
vn -0.6259501425398178 -0.6931131578340135 0.35746408140083624
vn -0.7318750651160253 0.555076049385951 -0.3952840351690151
vn 0.7505441740114354 0.6041791400771374 0.26767706206013103
vn -0.05475200981098615 0.983286176194574 -0.17363903111429396
vn 0.05475200981098615 -0.983286176194574 0.17363903111429396
vn -0.7505441740114354 -0.6041791400771374 -0.26767706206013103
vn 0.9024369392420815 0 0.4308219709942655
vn -0.9024369392420815 0 -0.4308219709942655
vn 0.942757580470613 0 -0.33347885160111035
vn -0.942757580470613 0 0.33347885160111035
usemtl material_0_0
f 1//1 2//1 3//1
f 2//1 1//1 4//1
f 3//2 2//2 1//2
f 4//2 1//2 2//2
f 5//3 1//4 3//5
f 3//6 1//7 5//8
f 6//9 4//10 1//4
f 1//7 4//11 6//12
f 1//4 5//3 6//9
f 6//12 5//8 1//7
f 7//5 5//3 3//5
f 3//6 5//8 7//6
f 4//10 6//9 8//10
f 8//11 6//12 4//11
f 6//9 9//3 5//3
f 5//8 9//8 6//12
f 5//3 7//5 9//3
f 9//8 7//6 5//8
f 9//3 6//9 10//13
f 10//14 6//12 9//8
f 9//3 11//15 7//5
f 7//6 11//16 9//8
f 11//15 9//3 10//13
f 10//14 9//8 11//16
