# SSTK version 0.8.0
# 29
mtllib original-29.mtl
o Group18/mesh43/mesh43-geometry#mesh43-geometry
v 0.001119 -0.595670 0.196743
v 0.017973 -0.667156 0.172939
v 0.001119 -0.667156 0.196743
v 0.017973 -0.595670 0.172939
v 0.445529 -0.723270 0.488906
v 0.445529 -0.694089 0.488906
v 0.017151 -0.667156 0.172357
v 0.462384 -0.694089 0.465102
v 0.461561 -0.723270 0.464519
v 0.461561 -0.694089 0.464519
v 0.017151 -0.595670 0.172357
vn -0.8161317733683994 0 -0.5778658395324574
vn 0.8161317733683994 0 0.5778658395324574
vn -0.8219521915769403 -0.5550761293746614 0.1276130297434742
vn -0.28248400810602 0.6931130198892249 0.663172019030053
vn -0.450436166726951 -0.7032032602875706 0.550102203617893
vn 0.450436166726951 0.7032032602875706 -0.550102203617893
vn 0.28248400810602 -0.6931130198892249 -0.663172019030053
vn 0.8219521915769403 0.5550761293746614 -0.1276130297434742
vn -0.7596748987007775 0.6041789194354653 0.2405449679244131
vn 0.14859101581179374 0.9832861046329547 0.1052100111955557
vn -0.14859101581179374 -0.9832861046329547 -0.1052100111955557
vn 0.7596748987007775 -0.6041789194354653 -0.2405449679244131
vn -0.9792981744458269 0 0.2024230360583271
vn 0.9792981744458269 0 -0.2024230360583271
vn -0.5493369530948663 0 0.8356009286522179
vn 0.5493369530948663 0 -0.8356009286522179
usemtl material_0_0
f 1//1 2//1 3//1
f 2//1 1//1 4//1
f 3//2 2//2 1//2
f 4//2 1//2 2//2
f 5//3 1//4 3//5
f 3//6 1//7 5//8
f 6//9 4//10 1//4
f 1//7 4//11 6//12
f 1//4 5//3 6//9
f 6//12 5//8 1//7
f 7//5 5//3 3//5
f 3//6 5//8 7//6
f 4//10 6//9 8//10
f 8//11 6//12 4//11
f 6//9 9//3 5//3
f 5//8 9//8 6//12
f 5//3 7//5 9//3
f 9//8 7//6 5//8
f 9//3 6//9 10//13
f 10//14 6//12 9//8
f 9//3 11//15 7//5
f 7//6 11//16 9//8
f 11//15 9//3 10//13
f 10//14 9//8 11//16
