# SSTK version 0.8.0
# 1
mtllib original-1.mtl
o Group2/mesh1/mesh1-geometry#mesh1-geometry
v -0.009059 -0.280482 0.182787
v -0.003247 -0.280482 0.183073
v -0.006172 -0.280482 0.183313
v -0.000485 -0.280482 0.182085
v -0.006172 -0.122887 0.183313
v -0.009059 -0.122887 0.182787
v -0.011711 -0.280482 0.181533
v -0.003247 -0.122887 0.183073
v -0.011711 -0.122887 0.181533
v 0.001928 -0.280482 0.180415
v -0.000485 -0.122887 0.182085
v -0.013948 -0.122887 0.179634
v -0.013948 -0.280482 0.179634
v 0.003827 -0.280482 0.178178
v 0.001928 -0.122887 0.180415
v -0.015618 -0.280482 0.177221
v 0.003827 -0.122887 0.178178
v -0.015618 -0.122887 0.177221
v 0.005081 -0.280482 0.175525
v 0.005081 -0.122887 0.175525
v -0.016606 -0.280482 0.174459
v -0.016606 -0.122887 0.174459
v 0.005607 -0.280482 0.172639
v 0.005607 -0.122887 0.172639
v -0.016846 -0.280482 0.171534
v -0.016846 -0.122887 0.171534
v 0.005367 -0.280482 0.169714
v 0.005367 -0.122887 0.169714
v -0.016321 -0.280482 0.168647
v -0.016321 -0.122887 0.168647
v 0.004379 -0.280482 0.166951
v 0.004379 -0.122887 0.166951
v -0.015066 -0.280482 0.165995
v -0.015066 -0.122887 0.165995
v 0.002709 -0.280482 0.164539
v 0.002709 -0.122887 0.164539
v -0.013167 -0.280482 0.163758
v -0.013167 -0.122887 0.163758
v 0.000472 -0.280482 0.162640
v -0.010755 -0.122887 0.162088
v -0.010755 -0.280482 0.162088
v 0.000472 -0.122887 0.162640
v -0.002181 -0.280482 0.161385
v -0.007992 -0.122887 0.161100
v -0.007992 -0.280482 0.161100
v -0.002181 -0.122887 0.161385
v -0.005067 -0.280482 0.160860
v -0.005067 -0.122887 0.160860
vn 0 -1 0
vn 0 1 0
vn 0.21104889331723845 0 0.9774755058974977
vn -0.04913201442791295 0 0.9987922933013929
vn 0.04913201442791295 0 -0.9987922933013929
vn -0.21104889331723845 0 -0.9774755058974977
vn -0.3059640239959945 0 0.9520430746663613
vn 0.3059640239959945 0 -0.9520430746663613
vn 0.45684671046777847 0 0.8895454362396391
vn -0.45684671046777847 0 -0.8895454362396391
vn -0.5419461415875125 0 0.8404132195642853
vn 0.5419461415875125 0 -0.8404132195642853
vn -0.7409943219039347 0 0.6715112917190059
vn 0.7409943219039347 0 -0.6715112917190059
vn 0.6715112917190059 0 0.7409943219039347
vn -0.6715112917190059 0 -0.7409943219039347
vn -0.8895454362396391 0 0.45684671046777847
vn 0.8895454362396391 0 -0.45684671046777847
vn 0.8404132195642853 0 0.5419461415875125
vn -0.8404132195642853 0 -0.5419461415875125
vn 0.9520430746663613 0 0.3059640239959945
vn -0.9520430746663613 0 -0.3059640239959945
vn -0.9774755058974977 0 0.21104889331723845
vn 0.9774755058974977 0 -0.21104889331723845
vn 0.9987922933013929 0 0.04913201442791295
vn -0.9987922933013929 0 -0.04913201442791295
usemtl material_0_0
f 1//1 2//1 3//1
f 2//1 1//1 4//1
f 3//2 2//2 1//2
f 4//2 1//2 2//2
f 2//3 5//4 3//4
f 3//5 5//5 2//6
f 3//4 6//7 1//7
f 1//8 6//8 3//5
f 4//1 1//1 7//1
f 7//2 1//2 4//2
f 4//9 8//3 2//3
f 2//6 8//6 4//10
f 5//4 2//3 8//3
f 8//6 2//6 5//5
f 6//7 3//4 5//4
f 5//5 3//5 6//8
f 9//11 1//7 6//7
f 6//8 1//8 9//12
f 1//7 9//11 7//11
f 7//12 9//12 1//8
f 4//1 7//1 10//1
f 10//2 7//2 4//2
f 8//3 4//9 11//9
f 11//10 4//10 8//6
f 12//13 7//11 9//11
f 9//12 7//12 12//14
f 10//1 7//1 13//1
f 13//2 7//2 10//2
f 10//15 11//9 4//9
f 4//10 11//10 10//16
f 7//11 12//13 13//13
f 13//14 12//14 7//12
f 10//1 13//1 14//1
f 14//2 13//2 10//2
f 11//9 10//15 15//15
f 15//16 10//16 11//10
f 12//13 16//17 13//13
f 13//14 16//18 12//14
f 14//1 13//1 16//1
f 16//2 13//2 14//2
f 17//19 10//15 14//19
f 14//20 10//16 17//20
f 10//15 17//19 15//15
f 15//16 17//20 10//16
f 16//17 12//13 18//17
f 18//18 12//14 16//18
f 14//1 16//1 19//1
f 19//2 16//2 14//2
f 14//19 20//21 17//19
f 17//20 20//22 14//20
f 18//17 21//23 16//17
f 16//18 21//24 18//18
f 19//1 16//1 21//1
f 21//2 16//2 19//2
f 20//21 14//19 19//21
f 19//22 14//20 20//22
f 21//23 18//17 22//23
f 22//24 18//18 21//24
f 19//1 21//1 23//1
f 23//2 21//2 19//2
f 19//21 24//25 20//21
f 20//22 24//26 19//22
f 22//23 25//26 21//23
f 21//24 25//25 22//24
f 23//1 21//1 25//1
f 25//2 21//2 23//2
f 24//25 19//21 23//25
f 23//26 19//22 24//26
f 25//26 22//23 26//26
f 26//25 22//24 25//25
f 23//1 25//1 27//1
f 27//2 25//2 23//2
f 23//25 28//24 24//25
f 24//26 28//23 23//26
f 26//26 29//22 25//26
f 25//25 29//21 26//25
f 27//1 25//1 29//1
f 29//2 25//2 27//2
f 28//24 23//25 27//24
f 27//23 23//26 28//23
f 29//22 26//26 30//22
f 30//21 26//25 29//21
f 27//1 29//1 31//1
f 31//2 29//2 27//2
f 27//24 32//18 28//24
f 28//23 32//17 27//23
f 30//22 33//20 29//22
f 29//21 33//19 30//21
f 31//1 29//1 33//1
f 33//2 29//2 31//2
f 32//18 27//24 31//18
f 31//17 27//23 32//17
f 33//20 30//22 34//20
f 34//19 30//21 33//19
f 31//1 33//1 35//1
f 35//2 33//2 31//2
f 31//18 36//14 32//18
f 32//17 36//13 31//17
f 34//20 37//16 33//20
f 33//19 37//15 34//19
f 35//1 33//1 37//1
f 37//2 33//2 35//2
f 36//14 31//18 35//14
f 35//13 31//17 36//13
f 37//16 34//20 38//16
f 38//15 34//19 37//15
f 35//1 37//1 39//1
f 39//2 37//2 35//2
f 39//12 36//14 35//14
f 35//13 36//13 39//11
f 40//10 37//16 38//16
f 38//15 37//15 40//9
f 39//1 37//1 41//1
f 41//2 37//2 39//2
f 36//14 39//12 42//12
f 42//11 39//11 36//13
f 37//16 40//10 41//10
f 41//9 40//9 37//15
f 39//1 41//1 43//1
f 43//2 41//2 39//2
f 43//8 42//12 39//12
f 39//11 42//11 43//7
f 44//6 41//10 40//10
f 40//9 41//9 44//3
f 43//1 41//1 45//1
f 45//2 41//2 43//2
f 42//12 43//8 46//8
f 46//7 43//7 42//11
f 41//10 44//6 45//6
f 45//3 44//3 41//9
f 43//1 45//1 47//1
f 47//2 45//2 43//2
f 47//5 46//8 43//8
f 43//7 46//7 47//4
f 48//5 45//6 44//6
f 44//3 45//3 48//4
f 45//6 48//5 47//5
f 47//4 48//4 45//3
f 46//8 47//5 48//5
f 48//4 47//4 46//7
