# SSTK version 0.8.0
# 20
mtllib original-20.mtl
o mesh29/mesh29-geometry#mesh29-geometry
v 0.401621 -0.746105 -0.174619
v 0.403631 -0.748954 -0.173499
v 0.402152 -0.749278 -0.174323
v 0.403137 -0.746004 -0.173774
v 0.388172 -0.749278 -0.149233
v 0.402029 -0.739661 -0.174391
v 0.389651 -0.748954 -0.148409
v 0.387641 -0.746105 -0.149529
v 0.388049 -0.739661 -0.149302
v 0.403516 -0.740012 -0.173563
v 0.389157 -0.746004 -0.148685
v 0.389901 -0.733558 -0.148270
v 0.405237 -0.734337 -0.172604
v 0.389537 -0.740012 -0.148473
v 0.403880 -0.733558 -0.173360
v 0.391258 -0.734337 -0.147514
v 0.393069 -0.728211 -0.146505
v 0.394203 -0.729366 -0.145873
v 0.408183 -0.729366 -0.170963
v 0.407048 -0.728211 -0.171595
v 0.411317 -0.723985 -0.169216
v 0.398173 -0.725437 -0.143661
v 0.412152 -0.725437 -0.168751
v 0.397338 -0.723985 -0.144126
v 0.416397 -0.721167 -0.166386
v 0.416875 -0.722817 -0.166120
v 0.402895 -0.722817 -0.141030
v 0.402417 -0.721167 -0.141296
v 0.421940 -0.719951 -0.163298
v 0.422028 -0.721686 -0.163248
v 0.408049 -0.721686 -0.138158
v 0.407960 -0.719951 -0.138208
v 0.427569 -0.720418 -0.160161
v 0.413589 -0.720418 -0.135071
v 0.427262 -0.722121 -0.160332
v 0.413283 -0.722121 -0.135242
v 0.432901 -0.722537 -0.157190
v 0.418921 -0.722537 -0.132101
v 0.432220 -0.724091 -0.157570
v 0.418240 -0.724091 -0.132480
v 0.437571 -0.726164 -0.154588
v 0.423592 -0.726164 -0.129498
v 0.436562 -0.727463 -0.155150
v 0.422583 -0.727463 -0.130060
v 0.441263 -0.731051 -0.152531
v 0.427284 -0.731051 -0.127441
v 0.439995 -0.732007 -0.153238
v 0.426015 -0.732007 -0.128148
v 0.443724 -0.736866 -0.151160
v 0.429745 -0.736866 -0.126070
v 0.442283 -0.737413 -0.151963
v 0.428304 -0.737413 -0.126873
v 0.444787 -0.743211 -0.150568
v 0.430807 -0.743211 -0.125478
v 0.443271 -0.743313 -0.151412
v 0.429292 -0.743313 -0.126322
v 0.442892 -0.749304 -0.151624
v 0.444379 -0.749655 -0.150795
v 0.428912 -0.749304 -0.126534
v 0.430399 -0.749655 -0.125705
vn 0.48672824584820257 0 -0.8735534412350121
vn -0.48672824584820257 0 0.8735534412350121
vn 0.16446903324429352 -0.9821161985161494 0.09163901852308831
vn -0.16446903324429352 0.9821161985161494 -0.09163901852308831
vn 0.8579308294806882 0.1882759625789324 0.4780239049896512
vn 0.8720590251872451 0.05847300168884649 0.4858950140338629
vn -0.8579308294806882 -0.1882759625789324 -0.4780239049896512
vn -0.8720590251872451 -0.05847300168884649 -0.4858950140338629
vn 0.855564252418442 -0.20189605956570605 0.47670514064305347
vn 0.7807649683657464 -0.4485049818279239 0.43502798237397156
vn -0.855564252418442 0.20189605956570605 -0.47670514064305347
vn -0.7807649683657464 0.4485049818279239 -0.43502798237397156
vn 0.6527570879348715 -0.6645500895235422 0.3637050489958016
vn -0.6527570879348715 0.6645500895235422 -0.3637050489958016
vn 0.4802651588479676 -0.8353072762783448 0.2675950885072239
vn -0.4802651588479676 0.8353072762783448 -0.2675950885072239
vn 0.2750440542171019 -0.9491391870957586 0.1532500302088788
vn -0.2750440542171019 0.9491391870957586 -0.1532500302088788
vn 0.051079000935716226 -0.9982890182876567 0.028460000521358754
vn -0.051079000935716226 0.9982890182876567 -0.028460000521358754
vn -0.17636700086754928 -0.9794070048177032 -0.09826800048338029
vn 0.17636700086754928 0.9794070048177032 0.09826800048338029
vn -0.3917939771121801 -0.8937799477871645 -0.21829998724735172
vn 0.3917939771121801 0.8937799477871645 0.21829998724735172
vn -0.5805199410885491 -0.7472439241693168 -0.3234549671756299
vn 0.5805199410885491 0.7472439241693168 0.3234549671756299
vn -0.7296849326847438 -0.5497839492810586 -0.40656796249309074
vn 0.7296849326847438 0.5497839492810586 0.40656796249309074
vn -0.8291237551788609 -0.31485690703001074 -0.4619728635900588
vn 0.8291237551788609 0.31485690703001074 0.4619728635900588
vn -0.8712654598827829 0.07233003817819113 -0.4854532562383163
vn 0.8712654598827829 -0.07233003817819113 0.4854532562383163
usemtl material_0_0
f 1//1 2//1 3//1
f 2//1 1//1 4//1
f 3//2 2//2 1//2
f 4//2 1//2 2//2
f 2//3 5//3 3//3
f 3//4 5//4 2//4
f 3//5 1//6 5//5
f 4//1 1//1 6//1
f 6//2 1//2 4//2
f 4//6 7//5 2//5
f 2//7 7//7 4//8
f 5//3 2//3 7//3
f 7//4 2//4 5//4
f 8//6 5//5 1//6
f 6//9 9//9 1//6
f 4//1 6//1 10//1
f 10//2 6//2 4//2
f 7//5 4//6 11//6
f 11//8 4//8 7//7
f 7//2 8//2 5//2
f 5//1 8//1 7//1
f 8//6 1//6 9//9
f 9//9 6//9 12//10
f 10//1 6//1 13//1
f 13//2 6//2 10//2
f 14//9 4//6 10//9
f 10//11 4//8 14//11
f 4//6 14//9 11//6
f 11//8 14//11 4//8
f 8//2 7//2 11//2
f 11//1 7//1 8//1
f 8//2 11//2 9//2
f 9//1 11//1 8//1
f 15//10 12//10 6//9
f 9//2 16//2 12//2
f 12//1 16//1 9//1
f 13//1 6//1 15//1
f 15//2 6//2 13//2
f 16//10 10//9 13//10
f 13//12 10//11 16//12
f 10//9 16//10 14//9
f 14//11 16//12 10//11
f 9//2 11//2 14//2
f 14//1 11//1 9//1
f 12//10 15//10 17//13
f 9//2 14//2 16//2
f 16//1 14//1 9//1
f 12//2 16//2 18//2
f 18//1 16//1 12//1
f 13//1 15//1 19//1
f 19//2 15//2 13//2
f 13//10 18//13 16//10
f 16//12 18//14 13//12
f 20//13 17//13 15//10
f 12//2 18//2 17//2
f 17//1 18//1 12//1
f 19//1 15//1 20//1
f 20//2 15//2 19//2
f 18//13 13//10 19//13
f 19//14 13//12 18//14
f 20//13 21//15 17//13
f 17//2 18//2 22//2
f 22//1 18//1 17//1
f 19//1 20//1 23//1
f 23//2 20//2 19//2
f 23//15 18//13 19//13
f 19//14 18//14 23//16
f 24//15 17//13 21//15
f 23//1 20//1 21//1
f 21//2 20//2 23//2
f 18//13 23//15 22//15
f 22//16 23//16 18//14
f 17//2 22//2 24//2
f 24//1 22//1 17//1
f 21//15 25//17 24//15
f 23//1 21//1 26//1
f 26//2 21//2 23//2
f 26//17 22//15 23//15
f 23//16 22//16 26//18
f 24//2 22//2 27//2
f 27//1 22//1 24//1
f 28//17 24//15 25//17
f 26//1 21//1 25//1
f 25//2 21//2 26//2
f 22//15 26//17 27//17
f 27//18 26//18 22//16
f 24//2 27//2 28//2
f 28//1 27//1 24//1
f 25//17 29//19 28//17
f 26//1 25//1 30//1
f 30//2 25//2 26//2
f 30//19 27//17 26//17
f 26//18 27//18 30//20
f 28//2 27//2 31//2
f 31//1 27//1 28//1
f 32//19 28//17 29//19
f 33//1 25//1 29//1
f 29//2 25//2 33//2
f 33//1 30//1 25//1
f 25//2 30//2 33//2
f 27//17 30//19 31//19
f 31//20 30//20 27//18
f 31//2 34//2 28//2
f 28//1 34//1 31//1
f 28//2 34//2 32//2
f 32//1 34//1 28//1
f 29//19 33//21 32//19
f 33//1 35//1 30//1
f 30//2 35//2 33//2
f 35//21 31//19 30//19
f 30//20 31//20 35//22
f 36//2 34//2 31//2
f 31//1 34//1 36//1
f 34//21 32//19 33//21
f 37//1 35//1 33//1
f 33//2 35//2 37//2
f 31//19 35//21 36//21
f 36//22 35//22 31//20
f 36//2 38//2 34//2
f 34//1 38//1 36//1
f 33//21 37//23 34//21
f 37//1 39//1 35//1
f 35//2 39//2 37//2
f 39//23 36//21 35//21
f 35//22 36//22 39//24
f 40//2 38//2 36//2
f 36//1 38//1 40//1
f 38//23 34//21 37//23
f 41//1 39//1 37//1
f 37//2 39//2 41//2
f 36//21 39//23 40//23
f 40//24 39//24 36//22
f 40//2 42//2 38//2
f 38//1 42//1 40//1
f 37//23 41//25 38//23
f 41//1 43//1 39//1
f 39//2 43//2 41//2
f 43//25 40//23 39//23
f 39//24 40//24 43//26
f 44//2 42//2 40//2
f 40//1 42//1 44//1
f 42//25 38//23 41//25
f 45//1 43//1 41//1
f 41//2 43//2 45//2
f 40//23 43//25 44//25
f 44//26 43//26 40//24
f 44//2 46//2 42//2
f 42//1 46//1 44//1
f 42//25 41//25 46//27
f 45//1 47//1 43//1
f 43//2 47//2 45//2
f 45//27 46//27 41//25
f 43//25 48//27 44//25
f 44//26 48//28 43//26
f 48//2 46//2 44//2
f 44//1 46//1 48//1
f 49//1 47//1 45//1
f 45//2 47//2 49//2
f 48//27 43//25 47//27
f 47//28 43//26 48//28
f 46//27 45//27 50//29
f 48//2 50//2 46//2
f 46//1 50//1 48//1
f 49//1 51//1 47//1
f 47//2 51//2 49//2
f 49//29 50//29 45//27
f 47//27 52//29 48//27
f 48//28 52//30 47//28
f 52//2 50//2 48//2
f 48//1 50//1 52//1
f 53//1 51//1 49//1
f 49//2 51//2 53//2
f 52//29 47//27 51//29
f 51//30 47//28 52//30
f 50//29 49//29 54//8
f 52//2 54//2 50//2
f 50//1 54//1 52//1
f 53//1 55//1 51//1
f 51//2 55//2 53//2
f 53//8 54//8 49//29
f 51//29 56//8 52//29
f 52//30 56//6 51//30
f 56//2 54//2 52//2
f 52//1 54//1 56//1
f 53//1 57//1 55//1
f 55//2 57//2 53//2
f 56//8 51//29 55//8
f 55//6 51//30 56//6
f 53//8 58//31 54//8
f 59//2 54//2 56//2
f 56//1 54//1 59//1
f 57//1 53//1 58//1
f 58//2 53//2 57//2
f 57//31 56//8 55//8
f 55//6 56//6 57//32
f 60//31 54//8 58//31
f 54//2 59//2 60//2
f 60//1 59//1 54//1
f 56//8 57//31 59//31
f 59//32 57//32 56//6
f 58//21 59//21 57//21
f 57//22 59//22 58//22
f 59//21 58//21 60//21
f 60//22 58//22 59//22
usemtl material_1_0
f 5//7 1//8 3//7
f 1//8 5//7 8//8
f 1//8 9//11 6//11
f 9//11 1//8 8//8
f 12//12 6//11 9//11
f 6//11 12//12 15//12
f 17//14 15//12 12//12
f 15//12 17//14 20//14
f 17//14 21//16 20//14
f 21//16 17//14 24//16
f 24//16 25//18 21//16
f 25//18 24//16 28//18
f 28//18 29//20 25//18
f 29//20 28//18 32//20
f 32//20 33//22 29//20
f 33//22 32//20 34//22
f 34//22 37//24 33//22
f 37//24 34//22 38//24
f 38//24 41//26 37//24
f 41//26 38//24 42//26
f 46//28 41//26 42//26
f 41//26 46//28 45//28
f 50//30 45//28 46//28
f 45//28 50//30 49//30
f 54//6 49//30 50//30
f 49//30 54//6 53//6
f 54//6 58//32 53//6
f 58//32 54//6 60//32
