# SSTK version 0.8.0
# 25
mtllib original-25.mtl
o Group16/mesh37/mesh37-geometry#mesh37-geometry
v -0.026464 -0.595670 0.187263
v 0.001119 -0.667156 0.196743
v -0.026464 -0.667156 0.187263
v 0.001119 -0.595670 0.196743
v -0.181862 -0.723270 0.695900
v -0.181862 -0.694089 0.695900
v 0.001446 -0.667156 0.195790
v -0.154279 -0.694089 0.705380
v -0.153951 -0.723270 0.704427
v -0.153951 -0.694089 0.704427
v 0.001446 -0.595670 0.195790
vn 0.32503798653611427 0 -0.9457009608267027
vn -0.32503798653611427 0 0.9457009608267027
vn -0.3536070595755456 -0.5550760935189507 -0.7528961268475737
vn -0.7158486210115862 0.6931126330485948 -0.08459095521540311
vn -0.6545719406427646 -0.7032029362328575 -0.277562974830313
vn 0.6545719406427646 0.7032029362328575 0.277562974830313
vn 0.7158486210115862 -0.6931126330485948 0.08459095521540311
vn 0.3536070595755456 0.5550760935189507 0.7528961268475737
vn -0.44446888357628034 0.6041788417420192 -0.661373826760424
vn -0.05917900566349031 0.9832860941014672 0.1721810164778963
vn 0.05917900566349031 -0.9832860941014672 -0.1721810164778963
vn 0.44446888357628034 -0.6041788417420192 0.661373826760424
vn -0.4696471197776426 0 -0.8828542251609633
vn 0.4696471197776426 0 0.8828542251609633
vn -0.9563615535514036 0 -0.29218586360182697
vn 0.9563615535514036 0 0.29218586360182697
usemtl material_0_0
f 1//1 2//1 3//1
f 2//1 1//1 4//1
f 3//2 2//2 1//2
f 4//2 1//2 2//2
f 5//3 1//4 3//5
f 3//6 1//7 5//8
f 6//9 4//10 1//4
f 1//7 4//11 6//12
f 1//4 5//3 6//9
f 6//12 5//8 1//7
f 7//5 5//3 3//5
f 3//6 5//8 7//6
f 4//10 6//9 8//10
f 8//11 6//12 4//11
f 6//9 9//3 5//3
f 5//8 9//8 6//12
f 5//3 7//5 9//3
f 9//8 7//6 5//8
f 9//3 6//9 10//13
f 10//14 6//12 9//8
f 9//3 11//15 7//5
f 7//6 11//16 9//8
f 11//15 9//3 10//13
f 10//14 9//8 11//16
