# SSTK version 0.8.0
# 26
mtllib original-26.mtl
o mesh38/mesh38-geometry#mesh38-geometry
v -0.083231 -0.127728 0.025479
v -0.086435 -0.129243 -0.196293
v -0.086435 -0.129243 0.021425
v -0.083231 -0.127728 -0.198558
v -0.086435 -0.226166 0.021425
v -0.083231 -0.227464 0.025479
v 0.092970 -0.127728 0.025479
v -0.083231 -0.140519 -0.198204
v -0.086435 -0.224751 -0.009335
v 0.092970 -0.127728 -0.198558
v -0.086435 -0.141674 -0.195950
v -0.086435 -0.220892 -0.039082
v -0.083231 -0.226007 -0.006172
v 0.092970 -0.227464 0.025479
v 0.096174 -0.129243 0.021425
v -0.083231 -0.150796 -0.196810
v -0.086435 -0.151661 -0.194595
v 0.092970 -0.140519 -0.198204
v -0.086435 -0.215171 -0.067334
v -0.083231 -0.222036 -0.036784
v 0.092970 -0.226007 -0.006172
v 0.096174 -0.226166 0.021425
v 0.096174 -0.129243 -0.196293
v 0.092970 -0.150796 -0.196810
v -0.086435 -0.159787 -0.191745
v -0.086435 -0.208171 -0.093608
v -0.083231 -0.216150 -0.065856
v 0.092970 -0.222036 -0.036784
v 0.096174 -0.224751 -0.009335
v -0.083231 -0.159158 -0.193877
v 0.092970 -0.159158 -0.193877
v -0.086435 -0.166633 -0.186915
v 0.096174 -0.141674 -0.195950
v -0.086435 -0.200472 -0.117417
v -0.083231 -0.208946 -0.092892
v 0.092970 -0.216150 -0.065856
v 0.096174 -0.220892 -0.039082
v 0.096174 -0.151661 -0.194595
v -0.086435 -0.172780 -0.179623
v -0.083231 -0.166202 -0.188907
v -0.086435 -0.192658 -0.138279
v -0.083231 -0.201024 -0.117392
v 0.092970 -0.208946 -0.092892
v 0.096174 -0.215171 -0.067334
v 0.092970 -0.166202 -0.188907
v 0.096174 -0.159787 -0.191745
v -0.086435 -0.178811 -0.169381
v -0.086435 -0.185308 -0.155708
v -0.083231 -0.192982 -0.138859
v 0.092970 -0.201024 -0.117392
v 0.096174 -0.208171 -0.093608
v -0.083231 -0.172528 -0.181403
v 0.096174 -0.166633 -0.186915
v -0.083231 -0.185419 -0.156794
v 0.092970 -0.192982 -0.138859
v 0.096174 -0.200472 -0.117417
v -0.083231 -0.178734 -0.170864
v 0.092970 -0.172528 -0.181403
v 0.096174 -0.172780 -0.179623
v 0.092970 -0.185419 -0.156794
v 0.096174 -0.192658 -0.138279
v 0.096174 -0.178811 -0.169381
v 0.092970 -0.178734 -0.170864
v 0.096174 -0.185308 -0.155708
vn -0.2191599857194262 0.9756889364236231 0
vn -0.42766391345366256 0.9039378170701224 0
vn -1 0 0
vn -0.9446256682588591 0 0.3281498847577185
vn -0.784634998042728 0 0.6199579984535147
vn 0.2191599857194262 0.9756889364236231 0
vn -0.29154495940484537 -0.07786298915824114 -0.9533828672495488
vn -0.5698261617357768 -0.022716006447564347 -0.8214512331554117
vn -0.2985250245263692 -0.026383002167587762 -0.9540370783822585
vn 0 0 1
vn -0.5576758652875553 -0.06781698361809732 -0.8272838001609357
vn 0.2985250245263692 -0.026383002167587762 -0.9540370783822585
vn -0.14694001723297928 -0.9853411155598274 -0.08666901016445565
vn -0.3272989185081435 -0.9439217649795565 -0.04344098918393374
vn -0.290786998528327 -0.9530869951764267 -0.08407199957451181
vn -0.16595008018070898 -0.98509147595839 -0.04533602190462585
vn 0.42766391345366256 0.9039378170701224 0
vn -0.269967949315952 -0.22603295756435032 -0.93596282428142
vn 0.29154495940484537 -0.07786298915824114 -0.9533828672495488
vn -0.11504603182507313 -0.9799512710829776 -0.16266504499787518
vn -0.22859692803552673 -0.9603626976687469 -0.1595209497812977
vn 0.14694001723297928 -0.9853411155598274 -0.08666901016445565
vn 0.16595008018070898 -0.98509147595839 -0.04533602190462585
vn 0.9446256682588591 0 0.3281498847577185
vn 0.784634998042728 0 0.6199579984535147
vn -0.5196738852648533 -0.2014269555283572 -0.8302808166881308
vn 0.269967949315952 -0.22603295756435032 -0.93596282428142
vn 0.5698261617357768 -0.022716006447564347 -0.8214512331554117
vn -0.09472401850973809 -0.969259189400049 -0.22707704437244858
vn -0.1886059923285457 -0.956152961108957 -0.22405199088679767
vn 0.11504603182507313 -0.9799512710829776 -0.16266504499787518
vn 0.290786998528327 -0.9530869951764267 -0.08407199957451181
vn 0.3272989185081435 -0.9439217649795565 -0.04344098918393374
vn 1 0 0
vn -0.22978598080678203 -0.4473439626349259 -0.8643389278047976
vn 0.22978598080678203 -0.4473439626349259 -0.8643389278047976
vn -0.44716598481111325 -0.41266698598294055 -0.7935669730449111
vn 0.5576770156408887 -0.0678170019020294 -0.8272830232023938
vn -0.0835780117357745 -0.9558611342191623 -0.28168103955280954
vn -0.1665729913466999 -0.9458119508660163 -0.27873498551999687
vn 0.09472401850973809 -0.969259189400049 -0.22707704437244858
vn 0.22859692803552673 -0.9603626976687469 -0.1595209497812977
vn 0.5196737805883196 -0.2014279149550371 -0.830280649446866
vn -0.1744440400753828 -0.6666501531508904 -0.7246701664799461
vn -0.3436617758705643 -0.6367685847120813 -0.6902335498432852
vn -0.07927000216545829 -0.9412480257125432 -0.32828100896781676
vn -0.1580410085068736 -0.9323520501857151 -0.32518101750351935
vn 0.0835780117357745 -0.9558611342191623 -0.28168103955280954
vn 0.1886059923285457 -0.956152961108957 -0.22405199088679767
vn 0.1744440400753828 -0.6666501531508904 -0.7246701664799461
vn 0.44716598481111325 -0.41266698598294055 -0.7935669730449111
vn -0.248570021463028 -0.7908780682891605 -0.5592180482862439
vn -0.07984297142125145 -0.9261636684918143 -0.36857286807415707
vn -0.15917605400637497 -0.917285311223034 -0.36503512385169323
vn 0.07927000216545829 -0.9412480257125432 -0.32828100896781676
vn 0.1665729913466999 -0.9458119508660163 -0.27873498551999687
vn -0.12523695696652254 -0.809829721729193 -0.5731418030590536
vn -0.19208407517980092 -0.8669503393157596 -0.4598921799972358
vn -0.08431403449013838 -0.9093103719693967 -0.4074871666897909
vn -0.16802996883682889 -0.8995898331602858 -0.40311792523695056
vn 0.07984297142125145 -0.9261636684918143 -0.36857286807415707
vn 0.1580410085068736 -0.9323520501857151 -0.32518101750351935
vn 0.3436617758705643 -0.6367685847120813 -0.6902335498432852
vn -0.09648599234074927 -0.8792419302040198 -0.46650196296814284
vn 0.12523695696652254 -0.809829721729193 -0.5731418030590536
vn 0.08431403449013838 -0.9093103719693967 -0.4074871666897909
vn 0.15917605400637497 -0.917285311223034 -0.36503512385169323
vn 0.248570021463028 -0.7908780682891605 -0.5592180482862439
vn 0.09648599234074927 -0.8792419302040198 -0.46650196296814284
vn 0.16802996883682889 -0.8995898331602858 -0.40311792523695056
vn 0.19208407517980092 -0.8669503393157596 -0.4598921799972358
vn 0.42766391345366256 -0.9039378170701224 0
vn 0.2191599857194262 -0.9756889364236231 0
vn 0.9446256682588591 0 -0.3281498847577185
vn 0.784634998042728 0 -0.6199579984535147
vn -0.2191599857194262 -0.9756889364236231 0
vn 0.2985250245263692 0.026383002167587762 0.9540370783822585
vn 0.5698261617357768 0.022716006447564347 0.8214512331554117
vn 0.29154495940484537 0.07786298915824114 0.9533828672495488
vn 0 0 -1
vn 0.5576758652875553 0.06781698361809732 0.8272838001609357
vn -0.2985250245263692 0.026383002167587762 0.9540370783822585
vn 0.290786998528327 0.9530869951764267 0.08407199957451181
vn 0.3272989185081435 0.9439217649795565 0.04344098918393374
vn 0.14694001723297928 0.9853411155598274 0.08666901016445565
vn 0.16595008018070898 0.98509147595839 0.04533602190462585
vn -0.42766391345366256 -0.9039378170701224 0
vn 0.269967949315952 0.22603295756435032 0.93596282428142
vn -0.29154495940484537 0.07786298915824114 0.9533828672495488
vn 0.22859692803552673 0.9603626976687469 0.1595209497812977
vn 0.11504603182507313 0.9799512710829776 0.16266504499787518
vn -0.14694001723297928 0.9853411155598274 0.08666901016445565
vn -0.16595008018070898 0.98509147595839 0.04533602190462585
vn -0.784634998042728 0 -0.6199579984535147
vn -0.9446256682588591 0 -0.3281498847577185
vn 0.5196738852648533 0.2014269555283572 0.8302808166881308
vn -0.269967949315952 0.22603295756435032 0.93596282428142
vn -0.5698261617357768 0.022716006447564347 0.8214512331554117
vn 0.1886059923285457 0.956152961108957 0.22405199088679767
vn 0.09472401850973809 0.969259189400049 0.22707704437244858
vn -0.11504603182507313 0.9799512710829776 0.16266504499787518
vn -0.290786998528327 0.9530869951764267 0.08407199957451181
vn -0.3272989185081435 0.9439217649795565 0.04344098918393374
vn 0.22978598080678203 0.4473439626349259 0.8643389278047976
vn -0.22978598080678203 0.4473439626349259 0.8643389278047976
vn 0.44716598481111325 0.41266698598294055 0.7935669730449111
vn -0.5576770156408887 0.0678170019020294 0.8272830232023938
vn 0.1665729913466999 0.9458119508660163 0.27873498551999687
vn 0.0835780117357745 0.9558611342191623 0.28168103955280954
vn -0.09472401850973809 0.969259189400049 0.22707704437244858
vn -0.22859692803552673 0.9603626976687469 0.1595209497812977
vn -0.5196737805883196 0.2014279149550371 0.830280649446866
vn 0.3436617758705643 0.6367685847120813 0.6902335498432852
vn 0.1744440400753828 0.6666501531508904 0.7246701664799461
vn 0.1580410085068736 0.9323520501857151 0.32518101750351935
vn 0.07927000216545829 0.9412480257125432 0.32828100896781676
vn -0.0835780117357745 0.9558611342191623 0.28168103955280954
vn -0.1886059923285457 0.956152961108957 0.22405199088679767
vn -0.1744440400753828 0.6666501531508904 0.7246701664799461
vn -0.44716598481111325 0.41266698598294055 0.7935669730449111
vn 0.248570021463028 0.7908780682891605 0.5592180482862439
vn 0.15917605400637497 0.917285311223034 0.36503512385169323
vn 0.07984297142125145 0.9261636684918143 0.36857286807415707
vn -0.07927000216545829 0.9412480257125432 0.32828100896781676
vn -0.1665729913466999 0.9458119508660163 0.27873498551999687
vn 0.19208407517980092 0.8669503393157596 0.4598921799972358
vn 0.12523695696652254 0.809829721729193 0.5731418030590536
vn 0.16802996883682889 0.8995898331602858 0.40311792523695056
vn 0.08431403449013838 0.9093103719693967 0.4074871666897909
vn -0.07984297142125145 0.9261636684918143 0.36857286807415707
vn -0.1580410085068736 0.9323520501857151 0.32518101750351935
vn -0.3436617758705643 0.6367685847120813 0.6902335498432852
vn 0.09648599234074927 0.8792419302040198 0.46650196296814284
vn -0.12523695696652254 0.809829721729193 0.5731418030590536
vn -0.08431403449013838 0.9093103719693967 0.4074871666897909
vn -0.15917605400637497 0.917285311223034 0.36503512385169323
vn -0.248570021463028 0.7908780682891605 0.5592180482862439
vn -0.09648599234074927 0.8792419302040198 0.46650196296814284
vn -0.16802996883682889 0.8995898331602858 0.40311792523695056
vn -0.19208407517980092 0.8669503393157596 0.4598921799972358
usemtl material_0_0
f 1//1 2//2 3//2
f 2//2 1//1 4//1
f 2//3 5//4 3//4
f 3//4 6//5 1//5
f 7//6 4//1 1//1
f 8//7 2//8 4//9
f 5//4 2//3 9//3
f 6//5 3//4 5//4
f 6//10 7//10 1//10
f 4//1 7//6 10//6
f 2//8 8//7 11//11
f 10//12 8//7 4//9
f 9//3 2//3 12//3
f 13//13 5//14 9//15
f 5//14 13//13 6//16
f 7//10 6//10 14//10
f 15//17 10//6 7//6
f 16//18 11//11 8//7
f 17//3 2//3 11//3
f 8//7 10//12 18//19
f 12//3 2//3 19//3
f 20//20 9//15 12//21
f 9//15 20//20 13//13
f 21//22 6//16 13//13
f 6//16 21//22 14//23
f 22//24 7//25 14//25
f 10//6 15//17 23//17
f 7//25 22//24 15//24
f 11//11 16//18 17//26
f 8//7 24//27 16//18
f 25//3 2//3 17//3
f 23//28 18//19 10//12
f 24//27 8//7 18//19
f 19//3 2//3 26//3
f 27//29 12//21 19//30
f 12//21 27//29 20//20
f 28//31 13//13 20//20
f 13//13 28//31 21//22
f 29//32 14//23 21//22
f 14//23 29//32 22//33
f 15//24 29//34 23//34
f 29//34 15//24 22//24
f 30//35 17//26 16//18
f 31//36 16//18 24//27
f 32//3 2//3 25//3
f 17//26 30//35 25//37
f 18//19 23//28 33//38
f 33//38 24//27 18//19
f 26//3 2//3 34//3
f 35//39 19//30 26//40
f 19//30 35//39 27//29
f 36//41 20//20 27//29
f 20//20 36//41 28//31
f 37//42 21//22 28//31
f 21//22 37//42 29//32
f 23//34 29//34 37//34
f 16//18 31//36 30//35
f 38//43 31//36 24//27
f 39//3 2//3 32//3
f 25//37 40//44 32//45
f 40//44 25//37 30//35
f 23//34 38//34 33//34
f 24//27 33//38 38//43
f 34//3 2//3 41//3
f 42//46 26//40 34//47
f 26//40 42//46 35//39
f 43//48 27//29 35//39
f 27//29 43//48 36//41
f 44//49 28//31 36//41
f 28//31 44//49 37//42
f 23//34 37//34 44//34
f 45//50 30//35 31//36
f 31//36 38//43 46//51
f 47//3 2//3 39//3
f 40//44 39//52 32//45
f 30//35 45//50 40//44
f 23//34 46//34 38//34
f 41//3 2//3 48//3
f 49//53 34//47 41//54
f 34//47 49//53 42//46
f 50//55 35//39 42//46
f 35//39 50//55 43//48
f 51//56 36//41 43//48
f 36//41 51//56 44//49
f 23//34 44//34 51//34
f 46//51 45//50 31//36
f 48//3 2//3 47//3
f 52//57 47//58 39//52
f 39//52 40//44 52//57
f 45//50 52//57 40//44
f 23//34 53//34 46//34
f 54//59 41//54 48//60
f 41//54 54//59 49//53
f 55//61 42//46 49//53
f 42//46 55//61 50//55
f 56//62 43//48 50//55
f 43//48 56//62 51//56
f 23//34 51//34 56//34
f 45//50 46//51 53//63
f 57//64 48//60 47//58
f 47//58 52//57 57//64
f 52//57 45//50 58//65
f 23//34 59//34 53//34
f 48//60 57//64 54//59
f 60//66 49//53 54//59
f 49//53 60//66 55//61
f 61//67 50//55 55//61
f 50//55 61//67 56//62
f 23//34 56//34 61//34
f 53//63 58//65 45//50
f 58//65 57//64 52//57
f 23//34 62//34 59//34
f 58//65 53//63 59//68
f 63//69 54//59 57//64
f 54//59 63//69 60//66
f 64//70 55//61 60//66
f 55//61 64//70 61//67
f 23//34 61//34 64//34
f 57//64 58//65 63//69
f 23//34 64//34 62//34
f 63//69 59//68 62//71
f 59//68 63//69 58//65
f 62//71 60//66 63//69
f 60//66 62//71 64//70
usemtl material_1_0
f 3//72 2//72 1//73
f 4//73 1//73 2//72
f 3//74 5//74 2//34
f 1//75 6//75 3//74
f 1//73 4//73 7//76
f 4//77 2//78 8//79
f 9//34 2//34 5//74
f 5//74 3//74 6//75
f 1//80 7//80 6//80
f 10//76 7//76 4//73
f 11//81 8//79 2//78
f 4//77 8//79 10//82
f 12//34 2//34 9//34
f 9//83 5//84 13//85
f 6//86 13//85 5//84
f 14//80 6//80 7//80
f 7//76 10//76 15//87
f 8//79 11//81 16//88
f 11//34 2//34 17//34
f 18//89 10//82 8//79
f 19//34 2//34 12//34
f 12//90 9//83 20//91
f 13//85 20//91 9//83
f 13//85 6//86 21//92
f 14//93 21//92 6//86
f 14//94 7//94 22//95
f 23//87 15//87 10//76
f 15//95 22//95 7//94
f 17//96 16//88 11//81
f 16//88 24//97 8//79
f 17//34 2//34 25//34
f 10//82 18//89 23//98
f 18//89 8//79 24//97
f 26//34 2//34 19//34
f 19//99 12//90 27//100
f 20//91 27//100 12//90
f 20//91 13//85 28//101
f 21//92 28//101 13//85
f 21//92 14//93 29//102
f 22//103 29//102 14//93
f 23//3 29//3 15//95
f 22//95 15//95 29//3
f 16//88 17//96 30//104
f 24//97 16//88 31//105
f 25//34 2//34 32//34
f 25//106 30//104 17//96
f 33//107 23//98 18//89
f 18//89 24//97 33//107
f 34//34 2//34 26//34
f 26//108 19//99 35//109
f 27//100 35//109 19//99
f 27//100 20//91 36//110
f 28//101 36//110 20//91
f 28//101 21//92 37//111
f 29//102 37//111 21//92
f 37//3 29//3 23//3
f 30//104 31//105 16//88
f 24//97 31//105 38//112
f 32//34 2//34 39//34
f 32//113 40//114 25//106
f 30//104 25//106 40//114
f 33//3 38//3 23//3
f 38//112 33//107 24//97
f 41//34 2//34 34//34
f 34//115 26//108 42//116
f 35//109 42//116 26//108
f 35//109 27//100 43//117
f 36//110 43//117 27//100
f 36//110 28//101 44//118
f 37//111 44//118 28//101
f 44//3 37//3 23//3
f 31//105 30//104 45//119
f 46//120 38//112 31//105
f 39//34 2//34 47//34
f 32//113 39//121 40//114
f 40//114 45//119 30//104
f 38//3 46//3 23//3
f 48//34 2//34 41//34
f 41//122 34//115 49//123
f 42//116 49//123 34//115
f 42//116 35//109 50//124
f 43//117 50//124 35//109
f 43//117 36//110 51//125
f 44//118 51//125 36//110
f 51//3 44//3 23//3
f 31//105 45//119 46//120
f 47//34 2//34 48//34
f 39//121 47//126 52//127
f 52//127 40//114 39//121
f 40//114 52//127 45//119
f 46//3 53//3 23//3
f 48//128 41//122 54//129
f 49//123 54//129 41//122
f 49//123 42//116 55//130
f 50//124 55//130 42//116
f 50//124 43//117 56//131
f 51//125 56//131 43//117
f 56//3 51//3 23//3
f 53//132 46//120 45//119
f 47//126 48//128 57//133
f 57//133 52//127 47//126
f 58//134 45//119 52//127
f 53//3 59//3 23//3
f 54//129 57//133 48//128
f 54//129 49//123 60//135
f 55//130 60//135 49//123
f 55//130 50//124 61//136
f 56//131 61//136 50//124
f 61//3 56//3 23//3
f 45//119 58//134 53//132
f 52//127 57//133 58//134
f 59//3 62//3 23//3
f 59//137 53//132 58//134
f 57//133 54//129 63//138
f 60//135 63//138 54//129
f 60//135 55//130 64//139
f 61//136 64//139 55//130
f 64//3 61//3 23//3
f 63//138 58//134 57//133
f 62//3 64//3 23//3
f 62//140 59//137 63//138
f 58//134 63//138 59//137
f 63//138 60//135 62//140
f 64//139 62//140 60//135
