# SSTK version 0.8.0
# 44
mtllib original-44.mtl
o mesh56/mesh56-geometry#mesh56-geometry
v 0.387601 -0.708287 0.528192
v 0.380659 -0.675759 0.537426
v 0.380659 -0.719455 0.537426
v 0.387601 -0.675759 0.528192
v 0.369980 -0.708287 0.541944
v 0.387601 -0.707263 0.527807
v 0.384931 -0.675759 0.519876
v 0.369980 -0.675759 0.541944
v 0.378096 -0.675759 0.511096
v 0.371155 -0.675759 0.502274
v 0.369553 -0.707263 0.541896
v 0.384931 -0.699361 0.519876
v 0.378737 -0.689813 0.512639
v 0.363787 -0.675759 0.497706
v 0.362826 -0.675759 0.537146
v 0.371155 -0.686386 0.502274
v 0.378096 -0.689379 0.511096
v 0.363787 -0.684196 0.497706
v 0.362826 -0.699361 0.537146
v 0.355991 -0.675759 0.528300
v 0.353535 -0.683425 0.502045
v 0.357379 -0.689813 0.529309
v 0.355991 -0.689379 0.528300
v 0.353108 -0.675759 0.502223
v 0.349050 -0.686386 0.519544
v 0.349050 -0.675759 0.519544
v 0.353108 -0.683457 0.502223
v 0.346166 -0.684196 0.511457
v 0.346166 -0.675759 0.511457
v 0.352894 -0.683425 0.502588
vn 0.9485097554723195 0 0.31674791834176363
vn 0.6156470304459013 0 0.7880220389704489
vn 0.9942922706518614 0.0013510003677497566 0.10668202903943898
vn 0.14416803229126407 0 0.9895532216436188
vn -0.5406357517736393 -0.4633317872668187 -0.7021656776091293
vn -0.5612371485715595 -0.29160807719493764 -0.7745822050485904
vn -0.5781788932973843 -0.2764829489752145 -0.7676368583330149
vn 0.9775734253760161 0.0012610005487050093 -0.2105910916354693
vn 0 1 0
vn -0.10073595733122923 0.0022819990334125126 0.9949105785853181
vn -0.592674273243943 -0.27136212510760166 -0.7583533496278965
vn 0.877025048708657 -0.007043000391157582 -0.4803930266803089
vn -0.4262001507630025 0.0021570007630119918 0.9046263200003095
vn -0.5294268564356035 -0.5096868617884871 -0.6781788160986145
vn 0.8696611782275105 0 -0.49364910116796357
vn 0.8396041090948065 -0.010564001372644051 -0.5430960705677357
vn 0.8320438851538225 -0.01057899853979139 -0.5546089234478903
vn -0.6964379958934533 -0.007084999958223459 0.7175819957687778
vn -0.27741007195671435 -0.8918942313462448 -0.35716709264469143
vn -0.4393461618022146 -0.7059902600017878 -0.5554752045701684
vn 0.6665501619383815 0 -0.745460181109573
vn 0.8627210922072038 0 -0.5056800540468342
vn 0.5269508505522809 0 -0.8498957589623728
vn -0.709737867350005 0 0.7044658683353416
vn -0.4355849367256299 -0.7063258973969886 -0.5580049189425375
vn -0.15484297786759796 -0.9661478619041484 -0.20635397050490073
vn -0.15082801835320686 -0.9661971175697709 -0.20907902544136478
vn -0.3876700803826242 -0.00006000001244067919 -0.9217981911330312
vn -0.3896990989124636 -0.0001200000304579071 -0.9209422337512851
vn -0.7415031765230088 -0.011537002746510887 0.6708501597032789
vn -0.3067140077959033 -0.8669120220347365 -0.39292500998717167
vn -0.1596439889441752 -0.9656569331253626 -0.20498898580389843
vn -0.09552505338185063 -0.9880185521301157 -0.12122006774088409
vn -0.15956806046473768 -0.9655363658683505 -0.20561507791322237
vn -0.1576670112181659 -0.9666000687745638 -0.20205301437627474
vn -0.7272039395104516 -0.011510999042503783 0.6863249429108074
vn -0.6369759039628318 -0.0016789997468562167 -0.7708818837737618
vn -0.1597190312682777 -0.9657771890707018 -0.2043630400082587
vn -0.15885395459025328 -0.9660757238390821 -0.20362494179208807
vn -0.6922529463386304 0 0.7216549440594758
vn -0.6581712334319872 0 -0.7528682670179535
vn -0.17812700947876187 -0.9595300510599536 -0.21811201160650406
vn -0.8744952246661598 0 0.4850341246098905
vn -0.027907006595026446 -0.9990682361013321 -0.03292200778017941
vn 0.14257497969946298 -0.9753878611194094 0.1681989760509903
vn -0.8208811862534474 -0.0021050004776129584 -0.5710951295783586
vn -0.9419197887066928 0 0.33583792466417356
vn -0.7980302277618497 -0.003153000899882217 -0.6026091719876953
vn -0.796723680309907 0 -0.6043437575034898
vn -0.6156470304459013 0 -0.7880220389704489
vn -0.9485097554723195 0 -0.31674791834176363
vn -0.9942922706518614 -0.0013510003677497566 -0.10668202903943898
vn -0.14416803229126407 0 -0.9895532216436188
vn 0.5781788932973843 0.2764829489752145 0.7676368583330149
vn 0.5612371485715595 0.29160807719493764 0.7745822050485904
vn 0.5406357517736393 0.4633317872668187 0.7021656776091293
vn -0.9775734253760161 -0.0012610005487050093 0.2105910916354693
vn 0 -1 0
vn 0.10073595733122923 -0.0022819990334125126 -0.9949105785853181
vn 0.592674273243943 0.27136212510760166 0.7583533496278965
vn -0.877025048708657 0.007043000391157582 0.4803930266803089
vn 0.4262001507630025 -0.0021570007630119918 -0.9046263200003095
vn 0.5294268564356035 0.5096868617884871 0.6781788160986145
vn -0.8696611782275105 0 0.49364910116796357
vn -0.8320438851538225 0.01057899853979139 0.5546089234478903
vn -0.8396041090948065 0.010564001372644051 0.5430960705677357
vn 0.6964379958934533 0.007084999958223459 -0.7175819957687778
vn 0.27741007195671435 0.8918942313462448 0.35716709264469143
vn 0.4393461618022146 0.7059902600017878 0.5554752045701684
vn -0.6665501619383815 0 0.745460181109573
vn -0.8627210922072038 0 0.5056800540468342
vn -0.5269508505522809 0 0.8498957589623728
vn 0.709737867350005 0 -0.7044658683353416
vn 0.4355849367256299 0.7063258973969886 0.5580049189425375
vn 0.15082801835320686 0.9661971175697709 0.20907902544136478
vn 0.15484297786759796 0.9661478619041484 0.20635397050490073
vn 0.3896990989124636 0.0001200000304579071 0.9209422337512851
vn 0.3876700803826242 0.00006000001244067919 0.9217981911330312
vn 0.7415031765230088 0.011537002746510887 -0.6708501597032789
vn 0.3067140077959033 0.8669120220347365 0.39292500998717167
vn 0.15956806046473768 0.9655363658683505 0.20561507791322237
vn 0.09552505338185063 0.9880185521301157 0.12122006774088409
vn 0.1596439889441752 0.9656569331253626 0.20498898580389843
vn 0.1576670112181659 0.9666000687745638 0.20205301437627474
vn 0.7272039395104516 0.011510999042503783 -0.6863249429108074
vn 0.6369759039628318 0.0016789997468562167 0.7708818837737618
vn 0.1597190312682777 0.9657771890707018 0.2043630400082587
vn 0.15885395459025328 0.9660757238390821 0.20362494179208807
vn 0.6922529463386304 0 -0.7216549440594758
vn 0.6581712334319872 0 0.7528682670179535
vn 0.17812700947876187 0.9595300510599536 0.21811201160650406
vn 0.8744952246661598 0 -0.4850341246098905
vn -0.14257497969946298 0.9753878611194094 -0.1681989760509903
vn 0.027907006595026446 0.9990682361013321 0.03292200778017941
vn 0.8208811862534474 0.0021050004776129584 0.5710951295783586
vn 0.9419197887066928 0 -0.33583792466417356
vn 0.7980302277618497 0.003153000899882217 0.6026091719876953
vn 0.796723680309907 0 0.6043437575034898
usemtl material_0_0
f 1//1 2//2 3//2
f 2//2 1//1 4//3
f 2//2 5//4 3//2
f 6//5 1//6 3//7
f 6//8 4//3 1//1
f 7//9 2//9 4//9
f 5//4 2//2 8//10
f 6//5 3//7 5//11
f 7//12 4//3 6//8
f 9//9 2//9 7//9
f 10//9 8//9 2//9
f 8//10 11//13 5//4
f 6//5 5//11 11//14
f 7//12 6//8 12//15
f 10//9 2//9 9//9
f 9//16 7//12 13//17
f 14//9 8//9 10//9
f 15//18 11//13 8//10
f 11//14 13//19 6//5
f 6//5 13//19 12//20
f 13//17 7//12 12//15
f 9//16 16//21 10//21
f 9//16 13//17 17//22
f 14//9 15//9 8//9
f 10//21 18//23 14//23
f 15//18 19//24 11//13
f 19//25 13//19 11//14
f 16//21 9//16 17//22
f 18//23 10//21 16//21
f 13//19 16//26 17//27
f 14//9 20//9 15//9
f 21//28 14//29 18//29
f 22//30 19//24 15//18
f 13//19 19//25 22//31
f 16//32 21//33 18//34
f 23//35 16//26 13//19
f 24//9 20//9 14//9
f 20//36 22//30 15//18
f 14//29 21//28 24//37
f 13//19 22//31 23//35
f 25//38 21//33 16//32
f 16//26 23//35 25//39
f 24//9 26//9 20//9
f 20//36 23//40 22//30
f 24//37 21//28 27//41
f 21//33 25//38 28//42
f 23//40 26//43 25//43
f 26//9 24//9 29//9
f 26//43 23//40 20//36
f 21//33 30//44 27//45
f 27//41 30//46 24//37
f 25//43 29//47 28//47
f 21//33 28//42 30//44
f 29//47 25//43 26//43
f 24//37 30//46 29//48
f 30//46 28//49 29//48
usemtl material_1_0
f 3//50 2//50 1//51
f 4//52 1//51 2//50
f 3//50 5//53 2//50
f 3//54 1//55 6//56
f 1//51 4//52 6//57
f 4//58 2//58 7//58
f 8//59 2//50 5//53
f 5//60 3//54 6//56
f 6//57 4//52 7//61
f 7//58 2//58 9//58
f 2//58 8//58 10//58
f 5//53 11//62 8//59
f 11//63 5//60 6//56
f 12//64 6//57 7//61
f 9//58 2//58 10//58
f 13//65 7//61 9//66
f 10//58 8//58 14//58
f 8//59 11//62 15//67
f 6//56 13//68 11//63
f 12//69 13//68 6//56
f 12//64 7//61 13//65
f 10//70 16//70 9//66
f 17//71 13//65 9//66
f 8//58 15//58 14//58
f 14//72 18//72 10//70
f 11//62 19//73 15//67
f 11//63 13//68 19//74
f 17//71 9//66 16//70
f 16//70 10//70 18//72
f 17//75 16//76 13//68
f 15//58 20//58 14//58
f 18//77 14//77 21//78
f 15//67 19//73 22//79
f 22//80 19//74 13//68
f 18//81 21//82 16//83
f 13//68 16//76 23//84
f 14//58 20//58 24//58
f 15//67 22//79 20//85
f 24//86 21//78 14//77
f 23//84 22//80 13//68
f 16//83 21//82 25//87
f 25//88 23//84 16//76
f 20//58 26//58 24//58
f 22//79 23//89 20//85
f 27//90 21//78 24//86
f 28//91 25//87 21//82
f 25//92 26//92 23//89
f 29//58 24//58 26//58
f 20//85 23//89 26//92
f 27//93 30//94 21//82
f 24//86 30//95 27//90
f 28//96 29//96 25//92
f 30//94 28//91 21//82
f 26//92 25//92 29//96
f 29//97 30//95 24//86
f 29//97 28//98 30//95
