# SSTK version 0.8.0
# 3
mtllib original-3.mtl
o mesh1/mesh1-geometry#mesh1-geometry
v -0.442361 -0.022779 0.093429
v -0.468631 -0.022779 0.093429
v -0.443963 -0.020039 0.078322
v -0.443963 -0.025519 0.109113
v -0.448448 -0.017876 0.064167
v -0.433177 0.234840 0.123510
v -0.431255 0.234840 0.139787
v -0.448448 -0.027970 0.122980
v -0.455496 -0.015866 0.054091
v -0.438730 0.234840 0.109197
v -0.433177 0.234840 0.156063
v -0.455496 -0.029845 0.133161
v -0.464039 -0.015136 0.048772
v -0.447167 0.234840 0.098574
v -0.433177 0.253099 0.123510
v -0.431255 0.253099 0.139787
v -0.433177 0.253099 0.156063
v -0.438730 0.234840 0.170376
v -0.464039 -0.030710 0.137798
v -0.473223 -0.015136 0.048772
v -0.457632 0.234840 0.092921
v -0.438730 0.253099 0.109197
v -0.431255 0.261588 0.139787
v -0.447167 0.234840 0.181000
v -0.473223 -0.030710 0.137798
v -0.481766 -0.015866 0.054091
v -0.468738 0.234840 0.092921
v -0.457632 0.253099 0.092921
v -0.447167 0.253099 0.098574
v -0.438730 0.261588 0.104275
v -0.433177 0.261588 0.120891
v -0.433177 0.261588 0.158682
v -0.438730 0.253099 0.177969
v -0.457632 0.234840 0.186652
v -0.481766 -0.029845 0.133161
v -0.488814 -0.017876 0.064167
v -0.479203 0.234840 0.098574
v -0.468738 0.253099 0.092921
v -0.447167 0.261588 0.091942
v -0.430615 0.268869 0.113837
v -0.428479 0.268869 0.139787
v -0.447167 0.253099 0.188592
v -0.468738 0.234840 0.186652
v -0.488814 -0.027970 0.122980
v -0.493300 -0.020039 0.078322
v -0.487640 0.234840 0.109197
v -0.479203 0.253099 0.098574
v -0.457632 0.261588 0.085379
v -0.468738 0.261588 0.085379
v -0.436595 0.268869 0.091017
v -0.445779 0.268869 0.074079
v -0.430615 0.268869 0.165736
v -0.438730 0.261588 0.182399
v -0.457632 0.253099 0.194246
v -0.479203 0.234840 0.181000
v -0.493300 -0.025519 0.109113
v -0.494901 -0.022779 0.093429
v -0.493193 0.234840 0.123510
v -0.479203 0.261588 0.091942
v -0.457205 0.268869 0.065067
v -0.447167 0.261588 0.194732
v -0.468738 0.253099 0.194246
v -0.487640 0.234840 0.170376
v -0.495115 0.234840 0.139787
v -0.487640 0.253099 0.109197
v -0.487640 0.261588 0.104275
v -0.480592 0.268869 0.074079
v -0.436595 0.268869 0.188557
v -0.445779 0.268869 0.205494
v -0.457632 0.261588 0.201294
v -0.479203 0.253099 0.188592
v -0.487640 0.253099 0.177969
v -0.493193 0.234840 0.156063
v -0.493193 0.253099 0.123510
v -0.489775 0.268869 0.091017
v -0.469165 0.268869 0.065067
v -0.457205 0.268869 0.214506
v -0.468738 0.261588 0.201294
v -0.495115 0.253099 0.139787
v -0.493193 0.261588 0.120891
v -0.495756 0.268869 0.113837
v -0.480592 0.268869 0.205494
v -0.469165 0.268869 0.214506
v -0.479203 0.261588 0.194732
v -0.493193 0.253099 0.156063
v -0.495115 0.261588 0.139787
v -0.489775 0.268869 0.188557
v -0.487640 0.261588 0.182399
v -0.493193 0.261588 0.158682
v -0.497891 0.268869 0.139787
v -0.495756 0.268869 0.165736
vn 0.8137558701099258 -0.5658519096798571 -0.13271397881646194
vn 0 -0.9850046252998793 -0.1725279343696101
vn 0.7903081472545744 -0.5332970993668579 -0.3016740562095747
vn 0.0005429999172742405 -0.9849348499456795 -0.17292497365496898
vn 0.7059129712061634 -0.4986569796600315 -0.5030189794821078
vn 0.9765678947054787 -0.003966999572274115 -0.2151729767998357
vn 0.9994169295561002 -0.028815997968904463 0.018314998709067356
vn 0.9833042687189022 -0.07146101952897732 0.16735004573367776
vn 0.0035670017667613816 -0.984491487625646 -0.17539608687493133
vn 0.5095481304580959 -0.45374111616999147 -0.7310811871765471
vn 0.8880951540219119 0.024690004281975573 -0.4589960796034675
vn 0.9665309915399544 -0.05106699955301061 0.2514159977993558
vn 0.9088582243580423 -0.10769902658626197 0.4029610994737804
vn 0.005003002473437506 -0.984251486604705 -0.17670308736034954
vn 0.19848599865624977 -0.5986879959468822 -0.7759999947464803
vn 0.6828059901795429 0.0597549991405739 -0.7281519895273542
vn 0.9643441822316552 -0.06843501293213133 -0.2556500483100663
vn 0.9984514776363368 -0.00908900434797166 -0.05488202625430535
vn 0.9756819997692513 -0.04192999999008361 0.21514299994911867
vn 0.8781210762582329 -0.12134301053773096 0.46279504019028006
vn 0.7098621871573199 -0.14826303909000033 0.6885591815407178
vn 0.0019800007945418086 -0.98435739500646 -0.17617207069495955
vn -0.2900919389829383 -0.42157291132762764 -0.8591408192909166
vn 0.3062489660954851 0.09261098974713071 -0.9474358951103253
vn 0.8442283031514631 -0.19552107020908707 -0.4990491792021049
vn 0.9805607181231537 -0.1960799436338871 0.007302997900643964
vn 0.5990251965776383 -0.21880507180363135 0.7702552527689308
vn 0.32607404294036746 -0.1789050235598254 0.9282611222417869
vn -0.0019800007945418086 -0.98435739500646 -0.17617207069495955
vn -0.5996889403828266 -0.4489909553642397 -0.6624049341480105
vn -0.2442841011096989 0.08685203594823901 -0.9658063997492831
vn 0.23220791659220852 -0.34986287433120217 -0.9075656740074602
vn 0.5889700178257669 -0.3399820102898955 -0.7331620221898822
vn 0.7801976500826027 -0.5061077730114738 -0.367622835121747
vn 0.9367404964257576 -0.2949001562823792 -0.18855009992215202
vn 0.9551926964383765 -0.24907292084426474 0.1599049491819753
vn 0.9031554569269163 -0.17536089455438603 0.3918657643686395
vn 0.23643496828579763 -0.2790389625711114 0.9307178751581662
vn -0.2496018988548414 -0.17112793065452744 0.9531076137760923
vn -0.005003002473437506 -0.984251486604705 -0.17670308736034954
vn -0.7566747675310086 -0.489417849638869 -0.43348986682131296
vn -0.619802765321954 0.08827696657538966 -0.7797767047504729
vn -0.28005386069256266 -0.39733880235141117 -0.8738945652978607
vn 0.5084828887149726 -0.7046798457758997 -0.49484489169974355
vn 0.984748767589963 -0.0994069765390119 -0.14278696630092347
vn 0.9987204908094786 -0.037837980708575324 0.033550982894270574
vn 0.6384732292473658 -0.3726281337942051 0.6734242417967212
vn -0.2895109209076538 -0.25067593151709977 0.9237667476334254
vn -0.6084561106824358 -0.1352050245947428 0.7819851422485842
vn -0.0035670017667613816 -0.984491487625646 -0.17539608687493133
vn -0.8201079658687472 -0.5216339782906375 -0.23520399021128063
vn -0.8587279695735511 0.05844399792921242 -0.5090879819619949
vn -0.6599618478682523 -0.27502193660305035 -0.6991518388343334
vn 0.21496298679546896 -0.7773419522502172 -0.5912109636836854
vn -0.18770408591574617 -0.8404113846723464 -0.5084052327067882
vn 0.8737119545163042 -0.3689659807923693 -0.3170039834974071
vn 0.592739999978365 -0.6745729999753779 -0.44001199998393975
vn 0.974865914883486 -0.12312498924983459 0.18567898378818296
vn 0.833756988252781 -0.3990209943779938 0.3816169946232073
vn 0.26484906772959593 -0.5121701309767724 0.8170292089380893
vn -0.6735851271627803 -0.19451703672190243 0.7130541346139375
vn -0.8635138658773097 -0.08442798688647736 0.497207922772677
vn -0.802339716352902 -0.5856627929535978 0.11510895930611223
vn -0.8299244838510946 -0.5539643229646183 -0.06594603844694742
vn -0.9672901028519622 0.028682003049757605 -0.2520460268000555
vn -0.49264914946312394 -0.7080012147980431 -0.5059951535121221
vn 0.16004496909291877 -0.9272058209426651 -0.3386369346041349
vn 0.5586101845913696 -0.6081942009762865 0.5639631863602557
vn -0.21471306870958862 -0.5060631619435274 0.8353432673153179
vn -0.8817277365424367 -0.1262309622825729 0.45455686417979285
vn -0.9997822836862638 0.0033940009630411268 -0.02058800584180631
vn -0.8800100452901581 -0.1287800066277275 -0.4571630235281241
vn -0.7800082185318131 -0.49238013794819285 -0.3861981081995944
vn -0.46928311996426714 -0.7598311942379524 -0.4499221150149549
vn 0.8692540782672061 -0.27174102446742715 0.4129820371846977
vn 0 1 0
vn 0.586574895076425 -0.5684068983262253 0.5769258968023895
vn 0.22735003033327042 -0.7688031025744858 0.5977070797466814
vn -0.5644949946976986 -0.43363099592690424 0.7023599934027326
vn -0.8748112518533843 -0.20844306000961926 0.43732912590466816
vn -0.9750204814696206 -0.04246997741383502 0.21801688405538167
vn -0.9708085826635567 -0.035878984576148035 -0.23715689804971024
vn -0.780764054334934 -0.5100320354941507 -0.3609360251182609
vn -0.12789701895907182 -0.9344711385232084 -0.3322740492553121
vn -0.23319690527380396 -0.721041707107871 0.6524707349618739
vn -0.9984514500590818 -0.009086004095580883 0.054883024738913155
vn -0.938897010330684 -0.27537200302991816 -0.2065010022721306
vn -0.9561833525458232 -0.20451007540308316 -0.20949707724179614
vn -0.7171107711692724 -0.4398908596304092 0.5405998274940819
vn -0.3065121123874376 -0.6922942538404655 0.6532832395364694
vn 0.1777139676569494 -0.8642848427044946 0.47056291435991005
vn -0.559307928354337 -0.618260920802636 0.5522029292644657
vn -0.9805020173176268 -0.04684400082735879 0.19084400337068683
vn -0.9805601242913967 -0.19608302485460344 -0.0073000009253153695
vn -0.9313716205550879 -0.18602392421303168 0.31295687249998777
vn -0.8569419691535173 -0.377301986418638 0.3511319873606531
vn -0.9545292205621378 -0.24851105742320823 0.16467003805014535
vn -0.998720671187752 -0.037834987543456676 -0.03354898895455078
vn -0.9847473916764599 -0.09941903954323494 0.14278805679296136
vn -0.7903081472545744 0.5332970993668579 0.3016740562095747
vn 0 0.9850046252998793 0.1725279343696101
vn -0.8137558701099258 0.5658519096798571 0.13271397881646194
vn -0.0005429999172742405 0.9849348499456795 0.17292497365496898
vn -0.7059129712061634 0.4986569796600315 0.5030189794821078
vn -0.9765678947054787 0.003966999572274115 0.2151729767998357
vn -0.9833042687189022 0.07146101952897732 -0.16735004573367776
vn -0.9994169295561002 0.028815997968904463 -0.018314998709067356
vn -0.0035670017667613816 0.984491487625646 0.17539608687493133
vn -0.5095481304580959 0.45374111616999147 0.7310811871765471
vn -0.8880951540219119 -0.024690004281975573 0.4589960796034675
vn -0.9665309915399544 0.05106699955301061 -0.2514159977993558
vn -0.9088582243580423 0.10769902658626197 -0.4029610994737804
vn -0.005003002473437506 0.984251486604705 0.17670308736034954
vn -0.19848599865624977 0.5986879959468822 0.7759999947464803
vn -0.6828059901795429 -0.0597549991405739 0.7281519895273542
vn -0.9643441822316552 0.06843501293213133 0.2556500483100663
vn -0.9984514776363368 0.00908900434797166 0.05488202625430535
vn -0.9756819997692513 0.04192999999008361 -0.21514299994911867
vn -0.8781210762582329 0.12134301053773096 -0.46279504019028006
vn -0.7098621871573199 0.14826303909000033 -0.6885591815407178
vn -0.0019800007945418086 0.98435739500646 0.17617207069495955
vn 0.2900919389829383 0.42157291132762764 0.8591408192909166
vn -0.3062489660954851 -0.09261098974713071 0.9474358951103253
vn -0.8442283031514631 0.19552107020908707 0.4990491792021049
vn -0.9805607181231537 0.1960799436338871 -0.007302997900643964
vn -0.5990251965776383 0.21880507180363135 -0.7702552527689308
vn -0.32607404294036746 0.1789050235598254 -0.9282611222417869
vn 0.0019800007945418086 0.98435739500646 0.17617207069495955
vn 0.5996889403828266 0.4489909553642397 0.6624049341480105
vn 0.2442841011096989 -0.08685203594823901 0.9658063997492831
vn -0.23220791659220852 0.34986287433120217 0.9075656740074602
vn -0.5889700178257669 0.3399820102898955 0.7331620221898822
vn -0.7801976500826027 0.5061077730114738 0.367622835121747
vn -0.9367404964257576 0.2949001562823792 0.18855009992215202
vn -0.9551926964383765 0.24907292084426474 -0.1599049491819753
vn -0.9031554569269163 0.17536089455438603 -0.3918657643686395
vn -0.23643496828579763 0.2790389625711114 -0.9307178751581662
vn 0.2496018988548414 0.17112793065452744 -0.9531076137760923
vn 0.005003002473437506 0.984251486604705 0.17670308736034954
vn 0.7566747675310086 0.489417849638869 0.43348986682131296
vn 0.619802765321954 -0.08827696657538966 0.7797767047504729
vn 0.28005386069256266 0.39733880235141117 0.8738945652978607
vn -0.5084828887149726 0.7046798457758997 0.49484489169974355
vn -0.984748767589963 0.0994069765390119 0.14278696630092347
vn -0.9987204908094786 0.037837980708575324 -0.033550982894270574
vn -0.6384732292473658 0.3726281337942051 -0.6734242417967212
vn 0.2895109209076538 0.25067593151709977 -0.9237667476334254
vn 0.6084561106824358 0.1352050245947428 -0.7819851422485842
vn 0.0035670017667613816 0.984491487625646 0.17539608687493133
vn 0.8201079658687472 0.5216339782906375 0.23520399021128063
vn 0.8587279695735511 -0.05844399792921242 0.5090879819619949
vn 0.6599618478682523 0.27502193660305035 0.6991518388343334
vn -0.21496298679546896 0.7773419522502172 0.5912109636836854
vn 0.18770408591574617 0.8404113846723464 0.5084052327067882
vn -0.8737119545163042 0.3689659807923693 0.3170039834974071
vn -0.592739999978365 0.6745729999753779 0.44001199998393975
vn -0.974865914883486 0.12312498924983459 -0.18567898378818296
vn -0.833756988252781 0.3990209943779938 -0.3816169946232073
vn -0.26484906772959593 0.5121701309767724 -0.8170292089380893
vn 0.6735851271627803 0.19451703672190243 -0.7130541346139375
vn 0.8635138658773097 0.08442798688647736 -0.497207922772677
vn 0.802339716352902 0.5856627929535978 -0.11510895930611223
vn 0.8299244838510946 0.5539643229646183 0.06594603844694742
vn 0.9672901028519622 -0.028682003049757605 0.2520460268000555
vn 0.49264914946312394 0.7080012147980431 0.5059951535121221
vn -0.16004496909291877 0.9272058209426651 0.3386369346041349
vn -0.5586101845913696 0.6081942009762865 -0.5639631863602557
vn 0.21471306870958862 0.5060631619435274 -0.8353432673153179
vn 0.8817277365424367 0.1262309622825729 -0.45455686417979285
vn 0.9997822836862638 -0.0033940009630411268 0.02058800584180631
vn 0.8800100452901581 0.1287800066277275 0.4571630235281241
vn 0.7800082185318131 0.49238013794819285 0.3861981081995944
vn 0.46928311996426714 0.7598311942379524 0.4499221150149549
vn -0.8692540782672061 0.27174102446742715 -0.4129820371846977
vn -0.586574895076425 0.5684068983262253 -0.5769258968023895
vn 0 -1 0
vn -0.22735003033327042 0.7688031025744858 -0.5977070797466814
vn 0.5644949946976986 0.43363099592690424 -0.7023599934027326
vn 0.8748112518533843 0.20844306000961926 -0.43732912590466816
vn 0.9750204814696206 0.04246997741383502 -0.21801688405538167
vn 0.9708085826635567 0.035878984576148035 0.23715689804971024
vn 0.780764054334934 0.5100320354941507 0.3609360251182609
vn 0.12789701895907182 0.9344711385232084 0.3322740492553121
vn 0.23319690527380396 0.721041707107871 -0.6524707349618739
vn 0.9984514500590818 0.009086004095580883 -0.054883024738913155
vn 0.938897010330684 0.27537200302991816 0.2065010022721306
vn 0.9561833525458232 0.20451007540308316 0.20949707724179614
vn 0.7171107711692724 0.4398908596304092 -0.5405998274940819
vn 0.3065121123874376 0.6922942538404655 -0.6532832395364694
vn -0.1777139676569494 0.8642848427044946 -0.47056291435991005
vn 0.559307928354337 0.618260920802636 -0.5522029292644657
vn 0.9805020173176268 0.04684400082735879 -0.19084400337068683
vn 0.9805601242913967 0.19608302485460344 0.0073000009253153695
vn 0.9313716205550879 0.18602392421303168 -0.31295687249998777
vn 0.8569419691535173 0.377301986418638 -0.3511319873606531
vn 0.9545292205621378 0.24851105742320823 -0.16467003805014535
vn 0.998720671187752 0.037834987543456676 0.03354898895455078
vn 0.9847473916764599 0.09941903954323494 -0.14278805679296136
usemtl material_0_0
f 1//1 2//2 3//3
f 1//1 4//4 2//2
f 3//3 2//2 5//5
f 3//3 6//6 1//1
f 1//1 7//7 4//8
f 4//4 8//9 2//2
f 5//5 2//2 9//10
f 5//5 10//11 3//3
f 3//3 10//11 6//6
f 1//1 6//6 7//7
f 4//8 7//7 11//12
f 4//8 11//12 8//13
f 8//9 12//14 2//2
f 9//10 2//2 13//15
f 9//10 14//16 5//5
f 5//5 14//16 10//11
f 10//11 15//17 6//6
f 6//6 16//18 7//7
f 7//7 17//19 11//12
f 8//13 11//12 18//20
f 8//13 18//20 12//21
f 12//14 19//22 2//2
f 13//15 2//2 20//23
f 21//24 9//10 13//15
f 14//16 9//10 21//24
f 14//16 22//25 10//11
f 15//17 10//11 22//25
f 16//18 6//6 15//17
f 23//26 7//7 16//18
f 17//19 7//7 23//26
f 17//19 18//20 11//12
f 12//21 18//20 24//27
f 24//27 19//28 12//21
f 19//22 25//29 2//2
f 2//2 26//30 20//23
f 27//31 13//15 20//23
f 13//15 27//31 21//24
f 28//32 14//16 21//24
f 22//25 14//16 29//33
f 30//34 15//17 22//25
f 31//35 16//18 15//17
f 31//35 23//26 16//18
f 23//26 32//36 17//19
f 17//19 33//37 18//20
f 33//37 24//27 18//20
f 34//38 19//28 24//27
f 34//38 25//39 19//28
f 2//2 25//29 35//40
f 2//2 36//41 26//30
f 37//42 20//23 26//30
f 27//31 20//23 37//42
f 38//43 21//24 27//31
f 14//16 28//32 29//33
f 21//24 38//43 28//32
f 39//44 22//25 29//33
f 30//34 31//35 15//17
f 39//44 30//34 22//25
f 40//45 23//26 31//35
f 41//46 32//36 23//26
f 17//19 32//36 33//37
f 24//27 33//37 42//47
f 42//47 34//38 24//27
f 25//39 34//38 43//48
f 43//48 35//49 25//39
f 2//2 35//40 44//50
f 2//2 45//51 36//41
f 26//30 36//41 46//52
f 26//30 46//52 37//42
f 47//53 27//31 37//42
f 27//31 47//53 38//43
f 48//54 29//33 28//32
f 49//55 28//32 38//43
f 39//44 29//33 48//54
f 50//56 31//35 30//34
f 30//34 39//44 51//57
f 40//45 41//46 23//26
f 50//56 40//45 31//35
f 41//46 52//58 32//36
f 32//36 53//59 33//37
f 33//37 53//59 42//47
f 34//38 42//47 54//60
f 54//60 43//48 34//38
f 55//61 35//49 43//48
f 44//62 35//49 55//61
f 2//2 44//50 56//63
f 2//2 57//64 45//51
f 36//41 45//51 58//65
f 36//41 58//65 46//52
f 46//52 47//53 37//42
f 59//66 38//43 47//53
f 28//32 49//55 48//54
f 49//55 38//43 59//66
f 39//44 48//54 60//67
f 50//56 30//34 51//57
f 51//57 39//44 60//67
f 40//45 52//58 41//46
f 50//56 52//58 40//45
f 32//36 52//58 53//59
f 53//59 61//68 42//47
f 61//68 54//60 42//47
f 43//48 54//60 62//69
f 62//69 55//61 43//48
f 44//62 55//61 63//70
f 56//63 44//62 63//70
f 2//2 56//63 57//64
f 45//51 57//64 64//71
f 45//51 64//71 58//65
f 58//65 65//72 46//52
f 47//53 46//52 65//72
f 59//66 47//53 66//73
f 49//55 60//67 48//54
f 49//55 59//66 67//74
f 51//57 68//75 50//56
f 60//76 69//77 51//57
f 50//56 68//75 52//58
f 52//58 68//75 53//59
f 53//59 68//75 61//68
f 70//78 54//60 61//68
f 70//78 62//69 54//60
f 55//61 62//69 71//79
f 55//61 72//80 63//70
f 56//63 63//70 73//81
f 57//64 56//63 73//81
f 57//64 73//81 64//71
f 64//71 74//82 58//65
f 65//72 58//65 74//82
f 47//53 65//72 66//73
f 59//66 66//73 75//83
f 60//67 49//55 76//84
f 59//66 75//83 67//74
f 49//55 67//74 76//84
f 51//57 69//77 68//75
f 60//76 77//76 69//77
f 68//75 69//77 61//68
f 69//77 70//78 61//68
f 62//69 70//78 78//85
f 78//85 71//79 62//69
f 72//80 55//61 71//79
f 73//81 63//70 72//80
f 73//81 79//86 64//71
f 79//86 74//82 64//71
f 65//72 74//82 80//87
f 66//73 65//72 80//87
f 75//83 66//73 81//88
f 76//76 77//76 60//76
f 75//83 82//89 67//74
f 67//74 83//90 76//76
f 69//77 77//91 70//78
f 77//91 78//85 70//78
f 84//92 71//79 78//85
f 72//80 71//79 84//92
f 73//81 72//80 85//93
f 79//86 73//81 85//93
f 74//82 79//86 86//94
f 80//87 74//82 86//94
f 66//73 80//87 81//88
f 81//88 87//95 75//83
f 76//76 83//90 77//76
f 75//83 87//95 82//89
f 67//74 82//89 83//90
f 78//85 77//91 83//90
f 78//85 83//90 84//92
f 72//80 84//92 88//96
f 85//93 72//80 88//96
f 79//86 85//93 89//97
f 79//86 89//97 86//94
f 80//87 86//94 90//98
f 81//88 80//87 90//98
f 81//88 91//99 87//95
f 88//96 82//89 87//95
f 83//90 82//89 84//92
f 84//92 82//89 88//96
f 85//93 88//96 89//97
f 86//94 89//97 91//99
f 86//94 91//99 90//98
f 91//99 81//88 90//98
f 89//97 87//95 91//99
f 89//97 88//96 87//95
usemtl material_1_0
f 3//100 2//101 1//102
f 2//101 4//103 1//102
f 5//104 2//101 3//100
f 1//102 6//105 3//100
f 4//106 7//107 1//102
f 2//101 8//108 4//103
f 9//109 2//101 5//104
f 3//100 10//110 5//104
f 6//105 10//110 3//100
f 7//107 6//105 1//102
f 11//111 7//107 4//106
f 8//112 11//111 4//106
f 2//101 12//113 8//108
f 13//114 2//101 9//109
f 5//104 14//115 9//109
f 10//110 14//115 5//104
f 6//105 15//116 10//110
f 7//107 16//117 6//105
f 11//111 17//118 7//107
f 18//119 11//111 8//112
f 12//120 18//119 8//112
f 2//101 19//121 12//113
f 20//122 2//101 13//114
f 13//114 9//109 21//123
f 21//123 9//109 14//115
f 10//110 22//124 14//115
f 22//124 10//110 15//116
f 15//116 6//105 16//117
f 16//117 7//107 23//125
f 23//125 7//107 17//118
f 11//111 18//119 17//118
f 24//126 18//119 12//120
f 12//120 19//127 24//126
f 2//101 25//128 19//121
f 20//122 26//129 2//101
f 20//122 13//114 27//130
f 21//123 27//130 13//114
f 21//123 14//115 28//131
f 29//132 14//115 22//124
f 22//124 15//116 30//133
f 15//116 16//117 31//134
f 16//117 23//125 31//134
f 17//118 32//135 23//125
f 18//119 33//136 17//118
f 18//119 24//126 33//136
f 24//126 19//127 34//137
f 19//127 25//138 34//137
f 35//139 25//128 2//101
f 26//129 36//140 2//101
f 26//129 20//122 37//141
f 37//141 20//122 27//130
f 27//130 21//123 38//142
f 29//132 28//131 14//115
f 28//131 38//142 21//123
f 29//132 22//124 39//143
f 15//116 31//134 30//133
f 22//124 30//133 39//143
f 31//134 23//125 40//144
f 23//125 32//135 41//145
f 33//136 32//135 17//118
f 42//146 33//136 24//126
f 24//126 34//137 42//146
f 43//147 34//137 25//138
f 25//138 35//148 43//147
f 44//149 35//139 2//101
f 36//140 45//150 2//101
f 46//151 36//140 26//129
f 37//141 46//151 26//129
f 37//141 27//130 47//152
f 38//142 47//152 27//130
f 28//131 29//132 48//153
f 38//142 28//131 49//154
f 48//153 29//132 39//143
f 30//133 31//134 50//155
f 51//156 39//143 30//133
f 23//125 41//145 40//144
f 31//134 40//144 50//155
f 32//135 52//157 41//145
f 33//136 53//158 32//135
f 42//146 53//158 33//136
f 54//159 42//146 34//137
f 34//137 43//147 54//159
f 43//147 35//148 55//160
f 55//160 35//148 44//161
f 56//162 44//149 2//101
f 45//150 57//163 2//101
f 58//164 45//150 36//140
f 46//151 58//164 36//140
f 37//141 47//152 46//151
f 47//152 38//142 59//165
f 48//153 49//154 28//131
f 59//165 38//142 49//154
f 60//166 48//153 39//143
f 51//156 30//133 50//155
f 60//166 39//143 51//156
f 41//145 52//157 40//144
f 40//144 52//157 50//155
f 53//158 52//157 32//135
f 42//146 61//167 53//158
f 42//146 54//159 61//167
f 62//168 54//159 43//147
f 43//147 55//160 62//168
f 63//169 55//160 44//161
f 63//169 44//161 56//162
f 57//163 56//162 2//101
f 64//170 57//163 45//150
f 58//164 64//170 45//150
f 46//151 65//171 58//164
f 65//171 46//151 47//152
f 66//172 47//152 59//165
f 48//153 60//166 49//154
f 67//173 59//165 49//154
f 50//155 68//174 51//156
f 51//156 69//175 60//176
f 52//157 68//174 50//155
f 53//158 68//174 52//157
f 61//167 68//174 53//158
f 61//167 54//159 70//177
f 54//159 62//168 70//177
f 71//178 62//168 55//160
f 63//169 72//179 55//160
f 73//180 63//169 56//162
f 73//180 56//162 57//163
f 64//170 73//180 57//163
f 58//164 74//181 64//170
f 74//181 58//164 65//171
f 66//172 65//171 47//152
f 75//182 66//172 59//165
f 76//183 49//154 60//166
f 67//173 75//182 59//165
f 76//183 67//173 49//154
f 68//174 69//175 51//156
f 69//175 77//176 60//176
f 61//167 69//175 68//174
f 61//167 70//177 69//175
f 78//184 70//177 62//168
f 62//168 71//178 78//184
f 71//178 55//160 72//179
f 72//179 63//169 73//180
f 64//170 79//185 73//180
f 64//170 74//181 79//185
f 80//186 74//181 65//171
f 80//186 65//171 66//172
f 81//187 66//172 75//182
f 60//176 77//176 76//176
f 67//173 82//188 75//182
f 76//176 83//189 67//173
f 70//177 77//190 69//175
f 70//177 78//184 77//190
f 78//184 71//178 84//191
f 84//191 71//178 72//179
f 85//192 72//179 73//180
f 85//192 73//180 79//185
f 86//193 79//185 74//181
f 86//193 74//181 80//186
f 81//187 80//186 66//172
f 75//182 87//194 81//187
f 77//176 83//189 76//176
f 82//188 87//194 75//182
f 83//189 82//188 67//173
f 83//189 77//190 78//184
f 84//191 83//189 78//184
f 88//195 84//191 72//179
f 88//195 72//179 85//192
f 89//196 85//192 79//185
f 86//193 89//196 79//185
f 90//197 86//193 80//186
f 90//197 80//186 81//187
f 87//194 91//198 81//187
f 87//194 82//188 88//195
f 84//191 82//188 83//189
f 88//195 82//188 84//191
f 89//196 88//195 85//192
f 91//198 89//196 86//193
f 90//197 91//198 86//193
f 90//197 81//187 91//198
f 91//198 87//194 89//196
f 87//194 88//195 89//196
