# SSTK version 0.8.0
# 14
mtllib original-14.mtl
o mesh26/mesh26-geometry#mesh26-geometry
v -0.035817 -0.673565 -0.542085
v -0.034962 -0.673565 -0.519216
v -0.038380 -0.673565 -0.530544
v -0.027701 -0.673565 -0.550748
v -0.038380 -0.663722 -0.530544
v -0.035817 -0.649419 -0.542085
v -0.027701 -0.624334 -0.550748
v -0.026313 -0.673565 -0.511136
v -0.034962 -0.663722 -0.519216
v -0.016381 -0.673565 -0.554212
v -0.026313 -0.663722 -0.511136
v -0.027060 -0.547134 0.023656
v -0.026953 -0.546662 0.023529
v -0.035817 -0.624334 -0.542085
v -0.016381 -0.624334 -0.554212
v -0.014779 -0.673565 -0.508472
v -0.014779 -0.663722 -0.508472
v -0.020332 -0.549905 0.016392
v -0.023109 -0.549247 0.019412
v -0.026953 -0.453800 0.023512
v -0.034322 -0.620814 -0.541299
v -0.026846 -0.620814 -0.549328
v -0.004848 -0.624334 -0.551548
v -0.004848 -0.673565 -0.551548
v 0.002734 -0.552047 0.009341
v -0.012216 -0.551080 0.013915
v -0.016274 -0.620814 -0.552538
v -0.005595 -0.620814 -0.550068
v -0.003460 -0.673565 -0.511936
v -0.003460 -0.663722 -0.511936
v 0.003268 -0.552078 0.009177
v -0.024817 -0.450693 0.021226
v 0.002414 -0.620814 -0.542581
v 0.003802 -0.673565 -0.543468
v 0.003802 -0.624334 -0.543468
v -0.020332 -0.450965 0.016392
v 0.002520 -0.451232 0.009424
v 0.003802 -0.649419 -0.543468
v 0.004656 -0.673565 -0.520599
v 0.018005 -0.551120 0.012570
v 0.003268 -0.451170 0.009177
v 0.007326 -0.663722 -0.532140
v 0.033382 -0.454009 0.020307
v 0.007326 -0.673565 -0.532140
v 0.004656 -0.663722 -0.520599
v 0.027402 -0.549779 0.014729
v 0.027402 -0.451319 0.014729
v 0.033382 -0.546784 0.020307
v 0.031033 -0.450908 0.018146
v 0.029218 -0.549397 0.016481
v 0.033489 -0.547285 0.020431
vn 0 -1 0
vn -0.8492464484069675 0 0.5279966570615306
vn -0.9952576990495439 0.09692197069230278 0.008260997502002801
vn -0.9993069096256851 0 0.03722499663348314
vn -0.9706776997262387 0.04338098658033252 -0.236437926859239
vn -0.8843698230071054 0 -0.46678690657984523
vn -0.55211814956441 0.26316607128959324 -0.7911442143146674
vn -0.529052902725697 0 -0.8485888439742266
vn -0.03494400949678717 0 -0.9993892716055582
vn -0.4699038034063868 0 0.882717630697502
vn -0.4416608875538149 -0.8758397770125349 0.19452595047399088
vn -0.5894380473940628 -0.788001063359622 0.1778120142970643
vn -0.2747670800965389 -0.9393442738254711 0.20526905983737634
vn -0.9918653712761072 0.12703704755264358 -0.008042003010291145
vn -0.8970085788316974 0.22550689411878777 -0.3801608215048421
vn -0.0827769851745605 0.26417195268654353 -0.9609168278988507
vn 0.03494400949678717 0 0.9993892716055582
vn -0.09282699953205911 -0.9732829950936804 0.21000799894134944
vn -0.08018600265993012 -0.9741820323155669 0.21104400700075165
vn -0.9764159794523023 0.21442599548761943 -0.02516599947040667
vn -0.1446700372152145 -0.9672102488071309 0.20874605369825902
vn -0.9478666329998547 0.308950880378722 -0.07809096976431461
vn -0.8047984724454124 0.4508102646417068 -0.3860952266516709
vn -0.40909506152994746 0.4269740642190393 -0.8064331212915826
vn 0.4586332829426547 0.21883613500563381 -0.8612585313325138
vn -0.013366004661281329 -0.9774203408670953 0.21088107354299457
vn 0.007586000642473594 -0.977554082791014 0.21054801783173333
vn -0.03788298835965808 -0.9768416998449203 0.21058293529398064
vn -0.030178007596439207 0.4302751083092944 -0.9021932271010098
vn 0.4699038034063868 0 -0.882717630697502
vn 0.4953218550953461 0.4241998759018293 -0.7580967782214731
vn 0.529052902725697 0 0.8485888439742266
vn 0.0290669863813498 -0.977391542066269 0.20942990187656385
vn -0.8599964594377512 0.4922962630004874 -0.13435207177519506
vn 0.012050998306732423 0.971395863510634 -0.23715996667701095
vn 0 1 0
vn -0.08341098931163311 0.9724548753886679 -0.21765597210934765
vn 0.8469636599030811 0 -0.531650786516467
vn 0.828269221327646 0.2647060707339716 -0.493863131968642
vn 0.07626199028887505 -0.9755028757804474 0.20634497372423888
vn -0.16012594650921594 0.9453866841893768 -0.2839079051593023
vn -0.24221810861013984 0.929808416924328 -0.2771041242529628
vn -0.08711901641644765 0.9526941795228501 -0.2911770548685357
vn 0.9509307458233774 0.04616798765964487 -0.3059399182245653
vn 0.8173710245076444 0.4536660136024953 -0.3550940106469614
vn 0.8823071515252375 0 0.470674080832397
vn 0.053684981911251026 -0.9767616708875362 0.20749593008581416
vn -0.05051402848476767 0.95464253832117 -0.2934381654692411
vn 0.9937834025151545 0.09275403756845374 -0.061573024939112056
vn 0.9404603761517797 0.30866512345542524 -0.14233805693032342
vn 0.04675800750059286 -0.9768811567044496 0.20860703346328255
vn 0.12179102500022894 0.9480761946130426 -0.293800060308785
vn 0.9993102947685998 0 -0.0371340109534951
vn 0.989823634806122 0.12144495519307422 -0.07416397263731855
vn 0.842412872403944 0.5022399239282358 -0.19518097043691646
vn 0.1682149235152149 -0.9654635610183007 0.19895690953729792
vn 0.37197106135979335 -0.9113891503413996 0.1760890290473843
vn 0.169937002891818 0.9406690160073647 -0.29370600499799493
vn 0.9785421740337411 0.18733003331664938 -0.08580601526060111
vn 0.4511521493203328 -0.8771132903030577 0.1647240545196351
vn 0.5973631044372993 -0.7899771381121102 0.13817902415790984
vn 0.9993069096256851 0 -0.03722499663348314
vn 0.9952576990495439 -0.09692197069230278 -0.008260997502002801
vn 0.8492464484069675 0 -0.5279966570615306
vn 0.8843698230071054 0 0.46678690657984523
vn 0.9706776997262387 -0.04338098658033252 0.236437926859239
vn 0.55211814956441 -0.26316607128959324 0.7911442143146674
vn 0.2747670800965389 0.9393442738254711 -0.20526905983737634
vn 0.5894380473940628 0.788001063359622 -0.1778120142970643
vn 0.4416608875538149 0.8758397770125349 -0.19452595047399088
vn 0.9918653712761072 -0.12703704755264358 0.008042003010291145
vn 0.8970085788316974 -0.22550689411878777 0.3801608215048421
vn 0.0827769851745605 -0.26417195268654353 0.9609168278988507
vn 0.08018600265993012 0.9741820323155669 -0.21104400700075165
vn 0.09282699953205911 0.9732829950936804 -0.21000799894134944
vn 0.9764159794523023 -0.21442599548761943 0.02516599947040667
vn 0.1446700372152145 0.9672102488071309 -0.20874605369825902
vn 0.9478666329998547 -0.308950880378722 0.07809096976431461
vn 0.8047984724454124 -0.4508102646417068 0.3860952266516709
vn 0.40909506152994746 -0.4269740642190393 0.8064331212915826
vn -0.4586332829426547 -0.21883613500563381 0.8612585313325138
vn -0.007586000642473594 0.977554082791014 -0.21054801783173333
vn 0.013366004661281329 0.9774203408670953 -0.21088107354299457
vn 0.03788298835965808 0.9768416998449203 -0.21058293529398064
vn 0.030178007596439207 -0.4302751083092944 0.9021932271010098
vn -0.4953218550953461 -0.4241998759018293 0.7580967782214731
vn -0.0290669863813498 0.977391542066269 -0.20942990187656385
vn 0.8599964594377512 -0.4922962630004874 0.13435207177519506
vn 0.08341098931163311 -0.9724548753886679 0.21765597210934765
vn -0.012050998306732423 -0.971395863510634 0.23715996667701095
vn -0.8469636599030811 0 0.531650786516467
vn -0.828269221327646 -0.2647060707339716 0.493863131968642
vn -0.07626199028887505 0.9755028757804474 -0.20634497372423888
vn 0.24221810861013984 -0.929808416924328 0.2771041242529628
vn 0.16012594650921594 -0.9453866841893768 0.2839079051593023
vn 0.08711901641644765 -0.9526941795228501 0.2911770548685357
vn -0.9509307458233774 -0.04616798765964487 0.3059399182245653
vn -0.8173710245076444 -0.4536660136024953 0.3550940106469614
vn -0.8823071515252375 0 -0.470674080832397
vn -0.053684981911251026 0.9767616708875362 -0.20749593008581416
vn 0.05051402848476767 -0.95464253832117 0.2934381654692411
vn -0.9937834025151545 -0.09275403756845374 0.061573024939112056
vn -0.9404603761517797 -0.30866512345542524 0.14233805693032342
vn -0.04675800750059286 0.9768811567044496 -0.20860703346328255
vn -0.12179102500022894 -0.9480761946130426 0.293800060308785
vn -0.9993102947685998 0 0.0371340109534951
vn -0.989823634806122 -0.12144495519307422 0.07416397263731855
vn -0.842412872403944 -0.5022399239282358 0.19518097043691646
vn -0.37197106135979335 0.9113891503413996 -0.1760890290473843
vn -0.1682149235152149 0.9654635610183007 -0.19895690953729792
vn -0.169937002891818 -0.9406690160073647 0.29370600499799493
vn -0.9785421740337411 -0.18733003331664938 0.08580601526060111
vn -0.4511521493203328 0.8771132903030577 -0.1647240545196351
vn -0.5973631044372993 0.7899771381121102 -0.13817902415790984
usemtl material_0_0
f 1//1 2//1 3//1
f 2//1 1//1 4//1
f 2//2 5//3 3//4
f 3//4 6//5 1//6
f 1//6 7//7 4//8
f 2//1 4//1 8//1
f 5//3 2//2 9//2
f 6//5 3//4 5//3
f 6//5 7//7 1//6
f 7//7 10//9 4//8
f 8//1 4//1 10//1
f 11//10 2//2 8//10
f 2//2 11//10 9//2
f 12//11 5//12 9//13
f 6//5 5//3 13//14
f 7//7 6//5 14//15
f 10//9 7//7 15//16
f 8//1 10//1 16//1
f 8//10 17//17 11//10
f 18//18 9//13 11//19
f 5//3 12//20 13//14
f 19//21 12//11 9//13
f 20//22 6//5 13//14
f 6//5 20//22 14//15
f 7//7 14//15 21//23
f 22//24 15//16 7//7
f 23//25 10//9 15//16
f 16//1 10//1 24//1
f 17//17 8//10 16//17
f 25//26 11//19 17//27
f 18//18 19//21 9//13
f 26//28 18//18 11//19
f 14//15 20//22 21//23
f 7//7 21//23 22//24
f 27//29 15//16 22//24
f 10//9 23//25 24//30
f 15//16 28//31 23//25
f 16//1 24//1 29//1
f 16//17 30//32 17//17
f 25//26 26//28 11//19
f 31//33 25//26 17//27
f 21//23 20//22 32//34
f 33//35 22//36 21//37
f 28//31 15//16 27//29
f 22//36 33//35 27//36
f 23//25 34//38 24//30
f 28//31 35//39 23//25
f 29//1 24//1 34//1
f 30//32 16//17 29//32
f 31//33 17//27 30//40
f 36//41 21//37 32//42
f 37//43 33//35 21//37
f 27//36 33//35 28//36
f 34//38 23//25 38//44
f 33//45 35//39 28//31
f 38//44 23//25 35//39
f 29//1 34//1 39//1
f 39//46 30//32 29//32
f 40//47 31//33 30//40
f 37//43 21//37 36//41
f 41//48 33//35 37//43
f 42//49 34//38 38//44
f 35//39 33//45 43//50
f 43//50 38//44 35//39
f 39//1 34//1 44//1
f 30//32 39//46 45//46
f 46//51 40//47 30//40
f 47//52 33//35 41//48
f 34//38 42//49 44//53
f 38//44 48//54 42//49
f 33//45 49//55 43//50
f 38//44 43//50 48//54
f 44//53 45//46 39//46
f 50//56 30//40 45//57
f 50//56 46//51 30//40
f 49//58 33//35 47//52
f 45//46 44//53 42//49
f 42//49 48//54 51//59
f 51//60 50//56 45//57
f 51//60 45//57 42//61
usemtl material_1_0
f 3//36 2//36 1//36
f 4//36 1//36 2//36
f 3//62 5//63 2//64
f 1//65 6//66 3//62
f 4//32 7//67 1//65
f 8//36 4//36 2//36
f 9//64 2//64 5//63
f 5//63 3//62 6//66
f 1//65 7//67 6//66
f 4//32 10//17 7//67
f 10//36 4//36 8//36
f 8//30 2//64 11//30
f 9//64 11//30 2//64
f 9//68 5//69 12//70
f 13//71 5//63 6//66
f 14//72 6//66 7//67
f 15//73 7//67 10//17
f 16//36 10//36 8//36
f 11//30 17//9 8//30
f 11//74 9//68 18//75
f 13//71 12//76 5//63
f 9//68 12//70 19//77
f 13//71 6//66 20//78
f 14//72 20//78 6//66
f 21//79 14//72 7//67
f 7//67 15//73 22//80
f 15//73 10//17 23//81
f 24//36 10//36 16//36
f 16//9 8//30 17//9
f 17//82 11//74 25//83
f 9//68 19//77 18//75
f 11//74 18//75 26//84
f 21//79 20//78 14//72
f 22//80 21//79 7//67
f 22//80 15//73 27//85
f 24//10 23//81 10//17
f 23//81 28//86 15//73
f 29//36 24//36 16//36
f 17//9 30//8 16//9
f 11//74 26//84 25//83
f 17//82 25//83 31//87
f 32//88 20//78 21//79
f 21//89 22//1 33//90
f 27//85 15//73 28//86
f 27//1 33//90 22//1
f 24//10 34//91 23//81
f 23//81 35//92 28//86
f 34//36 24//36 29//36
f 29//8 16//9 30//8
f 30//93 17//82 31//87
f 32//94 21//89 36//95
f 21//89 33//90 37//96
f 28//1 33//90 27//1
f 38//97 23//81 34//91
f 28//86 35//92 33//98
f 35//92 23//81 38//97
f 39//36 34//36 29//36
f 29//8 30//8 39//99
f 30//93 31//87 40//100
f 36//95 21//89 37//96
f 37//96 33//90 41//101
f 38//97 34//91 42//102
f 43//103 33//98 35//92
f 35//92 38//97 43//103
f 44//36 34//36 39//36
f 45//99 39//99 30//8
f 30//93 40//100 46//104
f 41//101 33//90 47//105
f 44//106 42//102 34//91
f 42//102 48//107 38//97
f 43//103 49//108 33//98
f 48//107 43//103 38//97
f 39//99 45//99 44//106
f 45//109 30//93 50//110
f 30//93 46//104 50//110
f 47//105 33//90 49//111
f 42//102 44//106 45//99
f 51//112 48//107 42//102
f 45//109 50//110 51//113
f 42//114 45//109 51//113
