# SSTK version 0.8.0
# 39
mtllib original-39.mtl
o mesh51/mesh51-geometry#mesh51-geometry
v -0.534627 -0.683751 -0.117472
v -0.580439 -0.731426 -0.130613
v -0.534627 -0.731426 -0.117472
v -0.574352 -0.707589 -0.128852
v -0.574352 -0.755264 -0.128852
v -0.511774 -0.690139 -0.110902
v -0.557586 -0.690139 -0.124042
v -0.569867 -0.707589 -0.144256
v -0.557586 -0.772714 -0.124042
v -0.576061 -0.731426 -0.146017
v -0.494901 -0.707589 -0.106092
v -0.507289 -0.690139 -0.126306
v -0.530248 -0.683751 -0.132876
v -0.534627 -0.779101 -0.117472
v -0.569867 -0.755264 -0.144256
v -0.488814 -0.731426 -0.104331
v -0.490523 -0.707589 -0.121495
v -0.553101 -0.690139 -0.139447
v -0.566877 -0.708897 -0.146559
v -0.553101 -0.772714 -0.139447
v -0.511774 -0.772714 -0.110902
v -0.572644 -0.731426 -0.148223
v -0.494901 -0.755264 -0.106092
v -0.484436 -0.731426 -0.119735
v -0.507716 -0.692404 -0.129593
v -0.491911 -0.708897 -0.125047
v -0.551072 -0.692404 -0.142013
v -0.530248 -0.779101 -0.132876
v -0.566877 -0.753956 -0.146559
v -0.486038 -0.731426 -0.123383
v -0.529394 -0.686367 -0.135803
v -0.529394 -0.731426 -0.135803
v -0.551072 -0.770449 -0.142013
v -0.507289 -0.772714 -0.126306
v -0.490523 -0.755264 -0.121495
v -0.491911 -0.753956 -0.125047
v -0.529394 -0.776485 -0.135803
v -0.507716 -0.770449 -0.129593
vn -0.27552312094572223 -0.00021000009218344922 0.9612944219771019
vn -0.27552312094572223 0.00021000009218302226 0.9612944219771019
vn -0.2763329869110739 0 0.96106195447786
vn -0.2756700887100975 0 0.9612523093291204
vn -0.2756350743397543 -0.00041800011273632204 0.9612622592558305
vn -0.6891697987235101 0.4592928658605529 -0.5604418363193427
vn -0.9574439244059754 0.08961599292445925 -0.2743539783386568
vn -0.8320287239886611 0.49903983445204625 -0.24225491963606197
vn -0.9575553416285165 -0.08832403151150275 -0.2743840978924436
vn -0.8715234461152154 -0.4209187324908669 -0.2515438401347591
vn -0.27533786173307007 -0.00011399994275264862 0.9613475172383159
vn 0.40445903506134184 0.9070190786267662 0.11717201015729069
vn 0.08560899697603346 0.9960169648176933 0.024925999119539168
vn 0.5520609158002276 0.8184788751664299 0.15912597573026732
vn -0.08560899697603346 0.9960169648176933 -0.024925999119538727
vn -0.4044602383266478 0.9070185344572008 -0.11717206904319315
vn -0.6598957987723957 -0.41640587302183685 -0.6254148092869753
vn -0.4799740792974841 -0.8660801430868442 -0.1397500230883829
vn -0.2757379552018231 0 0.9612328438318768
vn 0.8710856339415832 0.4774377993651621 -0.11516495160395454
vn 0.8328560922063358 0.5003090553897187 0.23673102620873018
vn -0.35445107200497034 0.8111701647851799 -0.46515309449353476
vn -0.4825188431029922 0.31984189599942664 -0.8153997348626268
vn -0.5445100960371598 0.06750801190662556 -0.8360331474541053
vn -0.0852769887317553 -0.9960478683852316 -0.024828996719171298
vn -0.3454610005834836 -0.8166900013793892 -0.46224900078073883
vn -0.2756350743397543 0.0004180001127358952 0.9612622592558305
vn -0.5446789646478852 -0.06818799557429218 -0.8358679457484106
vn -0.27533786173307007 0.00011399994275222168 0.9613475172383159
vn 0.9881032244209941 -0.0435640098943897 -0.14749303349906404
vn 0.9618984835327953 0 0.2734068532010647
vn 0.5986623588101884 0.6195553713324818 -0.5076953042887947
vn 0.48665389114380986 0.6889748458880569 -0.5371048798587825
vn 0.24381498511814334 0.7570329537926026 -0.6061809630002304
vn 0.7741714042902189 0.4349322271316718 -0.4598832401616679
vn -0.2428629908786734 0.6227609766106553 -0.7437649720660475
vn 0.0852769887317553 -0.9960478683852316 0.024828996719170857
vn 0.4036379412987367 -0.9074158680340664 0.11693098299466974
vn -0.4215630201182525 -0.43803602090439336 -0.7939830378912536
vn 0.7864051603531402 -0.5752211172913367 0.22513904590731942
vn 0.909708684475785 0.0663009770041069 -0.40991985782301127
vn 0.17938491102501647 0.7590756234982047 -0.6257996896031178
vn 0.27577386834489725 0 -0.9612225411100654
vn -0.18729598195347108 -0.6582109365794044 -0.7291629297429677
vn 0.17920898969279525 -0.7590699563420925 -0.625856964003838
vn 0.5517921434414211 -0.8186762128194118 0.15904304134411854
vn 0.8335602109070145 -0.4990401262668993 0.2369310599481858
vn 0.84189015175366 -0.31866805744103777 -0.43551307850276383
vn 0.2753879529205058 0.0008089998616960358 -0.9613328356534364
vn 0.2753880430386106 0 -0.961333150240521
vn 0.2438178753290034 -0.7570026129230881 -0.6062176900236973
vn 0.4863020675731358 -0.6891310957568396 -0.5372230746487632
vn 0.7749445567605133 -0.43358975200277555 -0.4598487369836122
vn 0.2753879529205058 -0.000808999861695609 -0.9613328356534364
vn 0.5987230259962549 -0.6194240268950819 -0.507784022047729
vn 0.27552312094572223 0.00021000009218344922 -0.9612944219771019
vn 0.27552312094572223 -0.00021000009218302226 -0.9612944219771019
vn 0.2756350743397543 0.00041800011273632204 -0.9612622592558305
vn 0.2756700887100975 0 -0.9612523093291204
vn 0.2763329869110739 0 -0.96106195447786
vn 0.8320287239886611 -0.49903983445204625 0.24225491963606197
vn 0.9574439244059754 -0.08961599292445925 0.2743539783386568
vn 0.6891697987235101 -0.4592928658605529 0.5604418363193427
vn 0.8715234461152154 0.4209187324908669 0.2515438401347591
vn 0.9575553416285165 0.08832403151150275 0.2743840978924436
vn 0.27533786173307007 0.00011399994275264862 -0.9613475172383159
vn -0.5520609158002276 -0.8184788751664299 -0.15912597573026732
vn -0.08560899697603346 -0.9960169648176933 -0.024925999119539168
vn -0.40445903506134184 -0.9070190786267662 -0.11717201015729069
vn 0.4044602383266478 -0.9070185344572008 0.11717206904319315
vn 0.08560899697603346 -0.9960169648176933 0.024925999119538727
vn 0.4799740792974841 0.8660801430868442 0.1397500230883829
vn 0.6598957987723957 0.41640587302183685 0.6254148092869753
vn 0.2757379552018231 0 -0.9612328438318768
vn -0.8328560922063358 -0.5003090553897187 -0.23673102620873018
vn -0.8710856339415832 -0.4774377993651621 0.11516495160395454
vn 0.35445107200497034 -0.8111701647851799 0.46515309449353476
vn 0.5445100960371598 -0.06750801190662556 0.8360331474541053
vn 0.4825188431029922 -0.31984189599942664 0.8153997348626268
vn 0.3454610005834836 0.8166900013793892 0.46224900078073883
vn 0.0852769887317553 0.9960478683852316 0.024828996719171298
vn 0.2756350743397543 -0.0004180001127358952 -0.9612622592558305
vn 0.5446789646478852 0.06818799557429218 0.8358679457484106
vn 0.27533786173307007 -0.00011399994275222168 -0.9613475172383159
vn -0.9618984835327953 0 -0.2734068532010647
vn -0.9881032244209941 0.0435640098943897 0.14749303349906404
vn -0.24381498511814334 -0.7570329537926026 0.6061809630002304
vn -0.48665389114380986 -0.6889748458880569 0.5371048798587825
vn -0.5986623588101884 -0.6195553713324818 0.5076953042887947
vn -0.7741714042902189 -0.4349322271316718 0.4598832401616679
vn 0.2428629908786734 -0.6227609766106553 0.7437649720660475
vn -0.0852769887317553 0.9960478683852316 -0.024828996719170857
vn -0.4036379412987367 0.9074158680340664 -0.11693098299466974
vn 0.4215630201182525 0.43803602090439336 0.7939830378912536
vn -0.7864051603531402 0.5752211172913367 -0.22513904590731942
vn -0.909708684475785 -0.0663009770041069 0.40991985782301127
vn -0.17938491102501647 -0.7590756234982047 0.6257996896031178
vn -0.27577386834489725 0 0.9612225411100654
vn -0.17920898969279525 0.7590699563420925 0.625856964003838
vn 0.18729598195347108 0.6582109365794044 0.7291629297429677
vn -0.5517921434414211 0.8186762128194118 -0.15904304134411854
vn -0.8335602109070145 0.4990401262668993 -0.2369310599481858
vn -0.84189015175366 0.31866805744103777 0.43551307850276383
vn -0.2753880430386106 0 0.961333150240521
vn -0.2753879529205058 -0.0008089998616960358 0.9613328356534364
vn -0.2438178753290034 0.7570026129230881 0.6062176900236973
vn -0.4863020675731358 0.6891310957568396 0.5372230746487632
vn -0.7749445567605133 0.43358975200277555 0.4598487369836122
vn -0.2753879529205058 0.000808999861695609 0.9613328356534364
vn -0.5987230259962549 0.6194240268950819 0.507784022047729
usemtl material_0_0
f 1//1 2//1 3//1
f 2//1 1//1 4//1
f 5//2 3//2 2//2
f 1//3 3//4 6//5
f 4//1 1//1 7//1
f 8//6 2//7 4//8
f 9//2 3//2 5//2
f 10//9 5//10 2//7
f 6//5 3//4 11//11
f 12//12 1//13 6//14
f 13//15 7//16 1//13
f 7//16 8//6 4//8
f 10//9 2//7 8//6
f 3//2 9//2 14//2
f 15//17 9//18 5//10
f 10//9 15//17 5//10
f 11//11 3//4 16//19
f 17//20 6//14 11//21
f 12//12 13//15 1//13
f 17//20 12//12 6//14
f 13//15 18//22 7//16
f 8//6 7//16 18//22
f 8//6 19//23 10//24
f 14//25 9//18 20//26
f 3//4 14//3 21//27
f 9//18 15//17 20//26
f 22//28 15//17 10//24
f 3//4 23//29 16//19
f 24//30 11//21 16//31
f 11//21 24//30 17//20
f 12//32 25//33 13//34
f 12//32 17//20 26//35
f 13//34 27//36 18//22
f 18//22 27//36 8//6
f 27//36 19//23 8//6
f 19//23 22//28 10//24
f 28//37 14//25 20//26
f 21//38 14//25 28//37
f 3//4 21//27 23//29
f 29//39 20//26 15//17
f 22//28 29//39 15//17
f 23//40 24//30 16//31
f 30//41 17//20 24//30
f 25//33 12//32 26//35
f 25//33 31//42 13//34
f 26//35 17//20 30//41
f 27//36 13//34 31//42
f 26//43 19//43 27//43
f 32//43 22//43 19//43
f 33//44 28//45 20//26
f 34//46 21//38 28//37
f 23//40 21//38 34//46
f 29//39 33//44 20//26
f 32//43 29//43 22//43
f 24//30 23//40 35//47
f 36//48 30//41 24//30
f 26//43 27//43 25//43
f 25//43 27//43 31//43
f 26//49 30//50 32//50
f 32//43 19//43 26//43
f 28//45 33//44 37//51
f 34//52 28//45 37//51
f 35//47 23//40 34//46
f 36//43 33//43 29//43
f 36//43 29//43 32//43
f 36//48 24//30 35//53
f 32//50 30//50 36//54
f 33//43 38//43 37//43
f 34//52 37//51 38//55
f 38//55 35//53 34//52
f 38//43 33//43 36//43
f 38//55 36//48 35//53
usemtl material_1_0
f 3//56 2//56 1//56
f 4//56 1//56 2//56
f 2//57 3//57 5//57
f 6//58 3//59 1//60
f 7//56 1//56 4//56
f 4//61 2//62 8//63
f 5//57 3//57 9//57
f 2//62 5//64 10//65
f 11//66 3//59 6//58
f 6//67 1//68 12//69
f 1//68 7//70 13//71
f 4//61 8//63 7//70
f 8//63 2//62 10//65
f 14//57 9//57 3//57
f 5//64 9//72 15//73
f 5//64 15//73 10//65
f 16//74 3//59 11//66
f 11//75 6//67 17//76
f 1//68 13//71 12//69
f 6//67 12//69 17//76
f 7//70 18//77 13//71
f 18//77 7//70 8//63
f 10//78 19//79 8//63
f 20//80 9//72 14//81
f 21//82 14//60 3//59
f 20//80 15//73 9//72
f 10//78 15//73 22//83
f 16//74 23//84 3//59
f 16//85 11//75 24//86
f 17//76 24//86 11//75
f 13//87 25//88 12//89
f 26//90 17//76 12//89
f 18//77 27//91 13//87
f 8//63 27//91 18//77
f 8//63 19//79 27//91
f 10//78 22//83 19//79
f 20//80 14//81 28//92
f 28//92 14//81 21//93
f 23//84 21//82 3//59
f 15//73 20//80 29//94
f 15//73 29//94 22//83
f 16//85 24//86 23//95
f 24//86 17//76 30//96
f 26//90 12//89 25//88
f 13//87 31//97 25//88
f 30//96 17//76 26//90
f 31//97 13//87 27//91
f 27//98 19//98 26//98
f 19//98 22//98 32//98
f 20//80 28//99 33//100
f 28//92 21//93 34//101
f 34//101 21//93 23//95
f 20//80 33//100 29//94
f 22//98 29//98 32//98
f 35//102 23//95 24//86
f 24//86 30//96 36//103
f 25//98 27//98 26//98
f 31//98 27//98 25//98
f 32//104 30//104 26//105
f 26//98 19//98 32//98
f 37//106 33//100 28//99
f 37//106 28//99 34//107
f 34//101 23//95 35//102
f 29//98 33//98 36//98
f 32//98 29//98 36//98
f 35//108 24//86 36//103
f 36//109 30//104 32//104
f 37//98 38//98 33//98
f 38//110 37//106 34//107
f 34//107 35//108 38//110
f 36//98 33//98 38//98
f 35//108 36//103 38//110
