# SSTK version 0.8.0
# 13
mtllib original-13.mtl
o mesh25/mesh25-geometry#mesh25-geometry
v 0.540522 -0.673565 -0.159173
v 0.536464 -0.673565 -0.136638
v 0.535503 -0.673565 -0.148438
v 0.543298 -0.673565 -0.126934
v 0.535503 -0.663722 -0.148438
v 0.540522 -0.663722 -0.159173
v 0.550133 -0.673565 -0.165968
v 0.536464 -0.663722 -0.136638
v 0.554084 -0.673565 -0.121928
v 0.543298 -0.663722 -0.126934
v 0.049507 -0.552047 0.040058
v 0.035625 -0.549905 0.020302
v 0.550133 -0.663722 -0.165968
v 0.561986 -0.673565 -0.167001
v 0.554084 -0.663722 -0.121928
v 0.049828 -0.552078 0.040517
v 0.040430 -0.551080 0.027241
v 0.031887 -0.549247 0.018556
v 0.026655 -0.547134 0.016104
v 0.565831 -0.673565 -0.122960
v 0.565831 -0.663722 -0.122960
v 0.050789 -0.549397 0.067431
v 0.051109 -0.551120 0.055543
v 0.026761 -0.546662 0.016178
v 0.561986 -0.649419 -0.167001
v 0.572665 -0.673565 -0.161994
v 0.048440 -0.547285 0.072680
v 0.051964 -0.549779 0.065101
v 0.575549 -0.673565 -0.129755
v 0.575549 -0.649419 -0.129755
v 0.048440 -0.546784 0.072514
v 0.561986 -0.624334 -0.167001
v 0.572665 -0.624334 -0.161994
v 0.579500 -0.673565 -0.152291
v 0.026761 -0.453800 0.016187
v 0.579500 -0.624334 -0.152291
v 0.580568 -0.673565 -0.140490
v 0.575549 -0.624334 -0.129755
v 0.561666 -0.620814 -0.165350
v 0.571597 -0.620814 -0.160711
v 0.580568 -0.624334 -0.140490
v 0.048440 -0.454009 0.072514
v 0.029645 -0.450693 0.017509
v 0.577898 -0.620814 -0.151718
v 0.574267 -0.620814 -0.130832
v 0.035625 -0.450974 0.020302
v 0.578859 -0.620814 -0.140782
v 0.049828 -0.450908 0.069642
v 0.049294 -0.451232 0.039824
v 0.051964 -0.451319 0.065101
v 0.049828 -0.451170 0.040517
vn 0 -1 0
vn -0.9402456485715015 0 0.3404968727350614
vn -0.9841948464921891 0 -0.17708897237890384
vn -0.7671726285312672 0 -0.6414406894112861
vn -0.6410375777025319 0 0.7675094943864019
vn -0.34397108784317565 0 -0.9389802397963348
vn -0.19805002480002373 -0.977547122409436 0.07195700901052897
vn -0.2047379536770195 -0.9774147788550442 0.05237098815080319
vn -0.22562405536431437 -0.9741472390392013 -0.011443002807918918
vn -0.27934011764998146 -0.9401773959755374 -0.19502708213976871
vn -0.2286008768011914 -0.9732244755046543 -0.023994987068493297
vn -0.31522482186193274 0.09743994493529001 -0.9440014665312341
vn -0.1725789455291749 0 0.9849956891073371
vn -0.1732720364602523 -0.9755962052869263 0.1348660283787822
vn -0.19023592778493362 -0.9773876289759074 0.09232396495309075
vn -0.21200002817692562 -0.9768421298320961 0.028904003841631193
vn -0.24346598066283698 -0.9670929231891313 -0.07386199413354849
vn -0.349137905655968 -0.7963637848066071 -0.49386986654650294
vn -0.3201559581066351 -0.8786808850219776 -0.3541469536588118
vn 0.1748399756964583 0 -0.984596863136615
vn 0.36854689366133736 0.11819396589690877 0.9220647339520903
vn -0.051506014427094196 -0.9105052550371103 0.4102771149206872
vn -0.1377890218810362 -0.9656741533500335 0.22019903496782953
vn -0.18068598342233283 -0.9767509103845732 0.1153699894149768
vn -0.2987770255385649 0.1275990109067813 -0.9457540808402248
vn -0.2793300340056404 0.20927402547702162 -0.9371121140840356
vn -0.07241503514588547 0.04518602193056683 -0.9963504835683628
vn 0.34186590684890317 0 0.9397487439387067
vn 0.05375199165970724 -0.7891608775518351 0.6118299050669496
vn -0.016048993901784703 -0.875842667201746 0.48232981672676245
vn -0.18571699473483042 -0.9770259723008257 0.10454399703612524
vn 0.6425237836841243 0 -0.7662657420244212
vn 0.5833709278621056 0.04518699441231199 0.8109478997206218
vn 0.38119588492441303 0.15480795326650454 0.9114407248538599
vn 0.3948179958627022 0.2890529969710135 0.872104990861212
vn 0.08367798406449176 0.22429195728618037 -0.9709228150989331
vn 0.581057287332028 0.264377130734127 -0.76972538062814
vn 0.7655026675813043 0 0.6434327205900451
vn -0.21915888177575932 0.30754683409528927 -0.9259505005003039
vn 0.8866202926627674 0.26646808795793275 -0.37802012477992747
vn 0.938706698704298 0 -0.34471688935658257
vn 0.9849802495501953 0 0.17266704374615072
vn 0.7249898556208221 0.27105194602095883 0.6331828739038594
vn 0.11810402908371129 0.4511571110997083 -0.8845952178360222
vn 0.6392220241088984 0.42918001618695406 -0.6381220240674107
vn 0.9553871481686159 0.2710500420364766 0.117334018197041
vn 0.42572616680678216 0.3077231205711734 0.8509193334047257
vn -0.1376000537256075 0.4930521925110338 -0.8590493354137309
vn 0.8692792582729028 0.43615612958702127 -0.23264006912005009
vn 0.5905661233453582 0.4543300948911662 0.6669451392978429
vn 0.18132803044778945 0.9724721632931633 -0.14634902457427149
vn 0.18929194529378388 0.9301517311820028 -0.3146209090731544
vn 0.22078501595502978 0.9454820683252643 -0.23941101730103762
vn 0.22928496178393215 0.9713948380927788 -0.061809989697820596
vn 0 1 0
vn 0.8689980923310522 0.43605004633031974 0.23388602485039156
vn 0.4454019452124463 0.49282293937933225 0.7474909080533916
vn 0.24993210072103236 0.9526753839220647 -0.17304206973484318
vn 0.3171418851860955 0.9480406567837474 0.025296990841808167
vn 0.33186591263348914 0.9406557523644103 0.0709349813257659
vn 0.2635270845949748 0.9546453064512165 -0.13858504448726136
vn 0.9841948464921891 0 0.17708897237890384
vn 0.9402456485715015 0 -0.3404968727350614
vn 0.7671726285312672 0 0.6414406894112861
vn 0.6410375777025319 0 -0.7675094943864019
vn 0.34397108784317565 0 0.9389802397963348
vn 0.22562405536431437 0.9741472390392013 0.011443002807918918
vn 0.2047379536770195 0.9774147788550442 -0.05237098815080319
vn 0.19805002480002373 0.977547122409436 -0.07195700901052897
vn 0.2286008768011914 0.9732244755046543 0.023994987068493297
vn 0.27934011764998146 0.9401773959755374 0.19502708213976871
vn 0.31522482186193274 -0.09743994493529001 0.9440014665312341
vn 0.1725789455291749 0 -0.9849956891073371
vn 0.19023592778493362 0.9773876289759074 -0.09232396495309075
vn 0.1732720364602523 0.9755962052869263 -0.1348660283787822
vn 0.21200002817692562 0.9768421298320961 -0.028904003841631193
vn 0.24346598066283698 0.9670929231891313 0.07386199413354849
vn 0.3201559581066351 0.8786808850219776 0.3541469536588118
vn 0.349137905655968 0.7963637848066071 0.49386986654650294
vn -0.1748399756964583 0 0.984596863136615
vn -0.36854689366133736 -0.11819396589690877 -0.9220647339520903
vn 0.1377890218810362 0.9656741533500335 -0.22019903496782953
vn 0.051506014427094196 0.9105052550371103 -0.4102771149206872
vn 0.18068598342233283 0.9767509103845732 -0.1153699894149768
vn 0.2793300340056404 -0.20927402547702162 0.9371121140840356
vn 0.2987770255385649 -0.1275990109067813 0.9457540808402248
vn 0.07241503514588547 -0.04518602193056683 0.9963504835683628
vn -0.34186590684890317 0 -0.9397487439387067
vn 0.016048993901784703 0.875842667201746 -0.48232981672676245
vn -0.05375199165970724 0.7891608775518351 -0.6118299050669496
vn 0.18571699473483042 0.9770259723008257 -0.10454399703612524
vn -0.6425237836841243 0 0.7662657420244212
vn -0.5833709278621056 -0.04518699441231199 -0.8109478997206218
vn -0.3948179958627022 -0.2890529969710135 -0.872104990861212
vn -0.38119588492441303 -0.15480795326650454 -0.9114407248538599
vn -0.08367798406449176 -0.22429195728618037 0.9709228150989331
vn -0.581057287332028 -0.264377130734127 0.76972538062814
vn -0.7655026675813043 0 -0.6434327205900451
vn 0.21915888177575932 -0.30754683409528927 0.9259505005003039
vn -0.8866202926627674 -0.26646808795793275 0.37802012477992747
vn -0.938706698704298 0 0.34471688935658257
vn -0.9849802495501953 0 -0.17266704374615072
vn -0.7249898556208221 -0.27105194602095883 -0.6331828739038594
vn -0.11810402908371129 -0.4511571110997083 0.8845952178360222
vn -0.6392220241088984 -0.42918001618695406 0.6381220240674107
vn -0.9553871481686159 -0.2710500420364766 -0.117334018197041
vn -0.42572616680678216 -0.3077231205711734 -0.8509193334047257
vn 0.1376000537256075 -0.4930521925110338 0.8590493354137309
vn -0.8692792582729028 -0.43615612958702127 0.23264006912005009
vn -0.5905661233453582 -0.4543300948911662 -0.6669451392978429
vn -0.22078501595502978 -0.9454820683252643 0.23941101730103762
vn -0.18929194529378388 -0.9301517311820028 0.3146209090731544
vn -0.18132803044778945 -0.9724721632931633 0.14634902457427149
vn -0.22928496178393215 -0.9713948380927788 0.061809989697820596
vn -0.8689980923310522 -0.43605004633031974 -0.23388602485039156
vn -0.4454019452124463 -0.49282293937933225 -0.7474909080533916
vn -0.24993210072103236 -0.9526753839220647 0.17304206973484318
vn -0.33186591263348914 -0.9406557523644103 -0.0709349813257659
vn -0.3171418851860955 -0.9480406567837474 -0.025296990841808167
vn -0.2635270845949748 -0.9546453064512165 0.13858504448726136
usemtl material_0_0
f 1//1 2//1 3//1
f 2//1 1//1 4//1
f 2//2 5//3 3//3
f 3//3 6//4 1//4
f 4//1 1//1 7//1
f 4//5 8//2 2//2
f 5//3 2//2 8//2
f 6//4 3//3 5//3
f 6//4 7//6 1//4
f 4//1 7//1 9//1
f 8//2 4//5 10//5
f 8//7 11//8 5//9
f 6//10 5//9 12//11
f 7//6 6//4 13//12
f 9//1 7//1 14//1
f 15//13 4//5 9//13
f 4//5 15//13 10//5
f 10//14 16//15 8//7
f 8//7 16//15 11//8
f 5//9 11//8 17//16
f 5//9 17//16 12//11
f 6//10 12//11 18//17
f 13//18 6//10 19//19
f 13//12 14//20 7//6
f 9//1 14//1 20//1
f 9//13 21//21 15//13
f 15//22 22//23 10//14
f 10//14 23//24 16//15
f 6//10 18//17 19//19
f 24//25 13//12 19//26
f 14//20 13//12 25//27
f 20//1 14//1 26//1
f 21//21 9//13 20//28
f 21//29 27//30 15//22
f 15//22 27//30 22//23
f 10//14 22//23 28//31
f 10//14 28//31 23//24
f 24//25 25//27 13//12
f 25//27 26//32 14//20
f 20//1 26//1 29//1
f 20//28 30//33 21//21
f 31//34 27//35 21//21
f 24//25 32//36 25//27
f 26//32 25//27 33//37
f 29//1 26//1 34//1
f 30//33 20//28 29//38
f 31//34 21//21 30//33
f 32//36 24//25 35//39
f 33//37 25//27 32//36
f 36//40 26//32 33//37
f 26//32 36//40 34//41
f 29//1 34//1 37//1
f 37//42 30//33 29//38
f 38//43 31//34 30//33
f 35//39 39//44 32//36
f 39//44 33//37 32//36
f 33//37 40//45 36//40
f 41//46 34//41 36//40
f 34//41 41//46 37//42
f 30//33 37//42 38//43
f 31//34 38//43 42//47
f 43//48 39//44 35//39
f 40//45 33//37 39//44
f 40//45 44//49 36//40
f 36//40 44//49 41//46
f 38//43 37//42 41//46
f 42//47 38//43 45//50
f 39//51 43//52 46//53
f 45//54 40//55 39//51
f 40//55 45//54 44//55
f 44//49 47//56 41//46
f 47//56 38//43 41//46
f 47//56 45//50 38//43
f 48//57 42//47 45//50
f 39//51 46//53 49//58
f 45//54 39//51 49//58
f 44//55 45//54 47//55
f 45//54 50//59 48//60
f 45//54 49//58 51//61
f 45//54 51//61 50//59
usemtl material_1_0
f 3//55 2//55 1//55
f 4//55 1//55 2//55
f 3//62 5//62 2//63
f 1//64 6//64 3//62
f 7//55 1//55 4//55
f 2//63 8//63 4//65
f 8//63 2//63 5//62
f 5//62 3//62 6//64
f 1//64 7//66 6//64
f 9//55 7//55 4//55
f 10//65 4//65 8//63
f 5//67 11//68 8//69
f 12//70 5//67 6//71
f 13//72 6//64 7//66
f 14//55 7//55 9//55
f 9//73 4//65 15//73
f 10//65 15//73 4//65
f 8//69 16//74 10//75
f 11//68 16//74 8//69
f 17//76 11//68 5//67
f 12//70 17//76 5//67
f 18//77 12//70 6//71
f 19//78 6//71 13//79
f 7//66 14//80 13//72
f 20//55 14//55 9//55
f 15//73 21//81 9//73
f 10//75 22//82 15//83
f 16//74 23//84 10//75
f 19//78 18//77 6//71
f 19//85 13//72 24//86
f 25//87 13//72 14//80
f 26//55 14//55 20//55
f 20//88 9//73 21//81
f 15//83 27//89 21//90
f 22//82 27//89 15//83
f 28//91 22//82 10//75
f 23//84 28//91 10//75
f 13//72 25//87 24//86
f 14//80 26//92 25//87
f 29//55 26//55 20//55
f 21//81 30//93 20//88
f 21//81 27//94 31//95
f 25//87 32//96 24//86
f 33//97 25//87 26//92
f 34//55 26//55 29//55
f 29//98 20//88 30//93
f 30//93 21//81 31//95
f 35//99 24//86 32//96
f 32//96 25//87 33//97
f 33//97 26//92 36//100
f 34//101 36//100 26//92
f 37//55 34//55 29//55
f 29//98 30//93 37//102
f 30//93 31//95 38//103
f 32//96 39//104 35//99
f 32//96 33//97 39//104
f 36//100 40//105 33//97
f 36//100 34//101 41//106
f 37//102 41//106 34//101
f 38//103 37//102 30//93
f 42//107 38//103 31//95
f 35//99 39//104 43//108
f 39//104 33//97 40//105
f 36//100 44//109 40//105
f 41//106 44//109 36//100
f 41//106 37//102 38//103
f 45//110 38//103 42//107
f 46//111 43//112 39//113
f 39//113 40//1 45//114
f 44//1 45//114 40//1
f 41//106 47//115 44//109
f 41//106 38//103 47//115
f 38//103 45//110 47//115
f 45//110 42//107 48//116
f 49//117 46//111 39//113
f 49//117 39//113 45//114
f 47//1 45//114 44//1
f 48//118 50//119 45//114
f 51//120 49//117 45//114
f 50//119 51//120 45//114
