# SSTK version 0.8.0
# 15
mtllib original-15.mtl
o mesh27/mesh27-geometry#mesh27-geometry
v -0.582788 -0.673565 -0.111704
v -0.577235 -0.673565 -0.089500
v -0.583002 -0.673565 -0.099861
v -0.576595 -0.673565 -0.121857
v -0.583002 -0.624334 -0.099861
v -0.582788 -0.624334 -0.111704
v -0.576595 -0.624334 -0.121857
v -0.567091 -0.673565 -0.083399
v -0.577235 -0.649419 -0.089500
v -0.566236 -0.673565 -0.127601
v -0.567091 -0.663722 -0.083399
v -0.577235 -0.624334 -0.089500
v -0.581293 -0.620814 -0.100265
v -0.581187 -0.620814 -0.111242
v -0.566236 -0.649419 -0.127601
v -0.555237 -0.673565 -0.083192
v -0.555237 -0.663722 -0.083192
v -0.036564 -0.546662 0.076891
v -0.575954 -0.620814 -0.090663
v -0.575527 -0.620814 -0.120653
v -0.566236 -0.624334 -0.127601
v -0.554489 -0.673565 -0.127394
v -0.036457 -0.547134 0.077043
v -0.036564 -0.453800 0.076871
v -0.020973 -0.546784 0.018563
v -0.554489 -0.663722 -0.127394
v -0.544878 -0.673565 -0.088935
v -0.039234 -0.549247 0.071967
v -0.038059 -0.450693 0.074137
v -0.565916 -0.620814 -0.125975
v -0.020973 -0.454009 0.018563
v -0.544238 -0.673565 -0.121293
v -0.544878 -0.663722 -0.088935
v -0.041263 -0.549905 0.068356
v -0.041263 -0.450965 0.068357
v -0.040836 -0.451232 0.044528
v -0.020866 -0.547285 0.018475
v -0.544238 -0.663722 -0.121293
v -0.538791 -0.673565 -0.099089
v -0.040836 -0.451170 0.043682
v -0.023750 -0.450908 0.020099
v -0.538578 -0.663722 -0.110932
v -0.538578 -0.673565 -0.110932
v -0.538791 -0.663722 -0.099089
v -0.041156 -0.551080 0.059886
v -0.028128 -0.451319 0.022528
v -0.025885 -0.549397 0.021282
v -0.040836 -0.552047 0.044242
v -0.028128 -0.549779 0.022528
v -0.040836 -0.552078 0.043682
v -0.033040 -0.551120 0.030753
vn 0 -1 0
vn -0.7188569887092728 0 0.6951579890815013
vn -0.9441431799636206 0.22996304383337493 0.23603104498999986
vn -0.9701569101959745 0 0.24247797755466333
vn -0.938271684128545 0.2675249099370855 -0.21926392618426346
vn -0.9602515331812522 0 -0.2791361549908118
vn -0.7043020799985084 0.2577000292709884 -0.6614750751339814
vn -0.6922799958321284 0 -0.7216289956554327
vn -0.5262750776808387 0.04499400664134065 0.8491231253348281
vn -0.24189604281318441 0 -0.9703021717337966
vn -0.30149607948990403 0.10088402659822822 0.9481152499720409
vn -0.2757978985808574 0 0.9612156465322353
vn -0.6365807890416175 0.22999992377964773 0.7361147560567631
vn -0.8876678289624038 0.4382959155482746 0.1412179727898413
vn -0.8459901909349317 0.4212760950794978 -0.3268440737667547
vn 0.004364997869423235 0.044931978068482425 -0.998980512392736
vn 0.2419428741982061 0 0.9702904954830337
vn -0.31492417002351125 0.13218107136286114 0.939867507422386
vn -0.5401490213545219 0.4617070182533563 0.7036090278168319
vn -0.5711444060801045 0.4160662958205372 -0.7075895030917161
vn -0.21542108023025722 0.2650270987052536 -0.9398693500398366
vn 0.2736851001706808 0 -0.9618193520326801
vn 0.04960699612881899 -0.8771649315486831 0.4776199627279722
vn -0.010658995060910626 -0.7918306330871492 0.6106477170424008
vn 0.11099600045946795 -0.9398960038906995 0.32291700133671475
vn -0.3675221375538225 0.3106801162793561 0.8765873280834688
vn -0.32675493052455723 0.22343595249249407 0.9183178047449934
vn -0.23275707507976356 0.9724613136839793 0.011964003859193674
vn 0 1 0
vn 0.23363697901250793 0.1288329884269978 -0.9637509134267412
vn 0.24736506835254354 0.09833702717273714 -0.9639192663526183
vn 0.6950446180334698 0 0.7189666048869781
vn 0.15403108068311852 -0.9673175066911995 0.20142310550756504
vn -0.3936580082689834 0.49317701035942957 0.7757640162953113
vn -0.221518982820982 0.9713899246677429 -0.08562099336000639
vn -0.08620202379447724 0.45380212526369884 -0.8869232448187875
vn 0.1547410546856531 0.310281109653674 -0.937966331478298
vn 0.7200083811404975 0 -0.6939653673544812
vn 0.17134595487253615 -0.973379743640524 0.15222495990844126
vn -0.3381538282429223 0.9300695275936252 0.14360592705883465
vn -0.3193731059231422 0.9454643135722736 0.06401602123152533
vn -0.3032398958355974 0.9528706726842157 -0.009112996869640334
vn 0.21388294304351455 0.21387494304564517 -0.9531587461762425
vn 0.9613242602607942 0 0.27541907456462933
vn 0.17598700107448864 -0.9741980059479659 0.14130400086273137
vn -0.29359411299837723 0.9548183674900866 -0.04609101773949107
vn 0.07707200883703852 0.49709905699713286 -0.8642640990960951
vn 0.2971028579233676 -0.8740685820143854 -0.38436181619553306
vn 0.28313201954970035 -0.9099120628276102 -0.3031440209314893
vn 0.31680693981080565 -0.7850218508560677 -0.5323288988644393
vn 0.9711034103446883 0 -0.2386591008466177
vn 0.1885870423358156 -0.9768442192912952 0.10104602268377345
vn -0.24200902636797392 0.9481931033099111 -0.20581902242490968
vn -0.22738497249153616 0.9410128861586206 -0.2505809696853424
vn 0.24154010534182213 -0.9652304209616915 -0.09994304358771956
vn 0.219781988953318 -0.9755099509689201 -0.00872999956121299
vn 0.19672395239713722 -0.9774457634796577 0.0768079814141603
vn 0.20291096141354217 -0.9775578141032247 0.056637989229465904
vn 0.21305502226062906 -0.976853102064548 0.019120001997715057
vn 0.2084220086035565 -0.9773740403455125 0.036059001488497375
vn 0.21401705088448608 -0.9767482322307104 0.0126330030036103
vn 0.9701569101959745 0 -0.24247797755466333
vn 0.9441431799636206 -0.22996304383337493 -0.23603104498999986
vn 0.7188569887092728 0 -0.6951579890815013
vn 0.9602515331812522 0 0.2791361549908118
vn 0.938271684128545 -0.2675249099370855 0.21926392618426346
vn 0.6922799958321284 0 0.7216289956554327
vn 0.7043020799985084 -0.2577000292709884 0.6614750751339814
vn 0.5262750776808387 -0.04499400664134065 -0.8491231253348281
vn 0.24189604281318441 0 0.9703021717337966
vn 0.2757978985808574 0 -0.9612156465322353
vn 0.30149607948990403 -0.10088402659822822 -0.9481152499720409
vn 0.6365807890416175 -0.22999992377964773 -0.7361147560567631
vn 0.8876678289624038 -0.4382959155482746 -0.1412179727898413
vn 0.8459901909349317 -0.4212760950794978 0.3268440737667547
vn -0.004364997869423235 -0.044931978068482425 0.998980512392736
vn -0.2419428741982061 0 -0.9702904954830337
vn 0.31492417002351125 -0.13218107136286114 -0.939867507422386
vn 0.5401490213545219 -0.4617070182533563 -0.7036090278168319
vn 0.5711444060801045 -0.4160662958205372 0.7075895030917161
vn 0.21542108023025722 -0.2650270987052536 0.9398693500398366
vn -0.2736851001706808 0 0.9618193520326801
vn -0.11099600045946795 0.9398960038906995 -0.32291700133671475
vn 0.010658995060910626 0.7918306330871492 -0.6106477170424008
vn -0.04960699612881899 0.8771649315486831 -0.4776199627279722
vn 0.3675221375538225 -0.3106801162793561 -0.8765873280834688
vn 0.32675493052455723 -0.22343595249249407 -0.9183178047449934
vn 0.23275707507976356 -0.9724613136839793 -0.011964003859193674
vn -0.23363697901250793 -0.1288329884269978 0.9637509134267412
vn -0.24736506835254354 -0.09833702717273714 0.9639192663526183
vn -0.6950446180334698 0 -0.7189666048869781
vn -0.15403108068311852 0.9673175066911995 -0.20142310550756504
vn 0.3936580082689834 -0.49317701035942957 -0.7757640162953113
vn 0.221518982820982 -0.9713899246677429 0.08562099336000639
vn 0.08620202379447724 -0.45380212526369884 0.8869232448187875
vn -0.1547410546856531 -0.310281109653674 0.937966331478298
vn -0.7200083811404975 0 0.6939653673544812
vn -0.17134595487253615 0.973379743640524 -0.15222495990844126
vn 0.3193731059231422 -0.9454643135722736 -0.06401602123152533
vn 0.3381538282429223 -0.9300695275936252 -0.14360592705883465
vn 0.3032398958355974 -0.9528706726842157 0.009112996869640334
vn -0.21388294304351455 -0.21387494304564517 0.9531587461762425
vn -0.9613242602607942 0 -0.27541907456462933
vn -0.17598700107448864 0.9741980059479659 -0.14130400086273137
vn 0.29359411299837723 -0.9548183674900866 0.04609101773949107
vn -0.07707200883703852 -0.49709905699713286 0.8642640990960951
vn -0.31680693981080565 0.7850218508560677 0.5323288988644393
vn -0.28313201954970035 0.9099120628276102 0.3031440209314893
vn -0.2971028579233676 0.8740685820143854 0.38436181619553306
vn -0.9711034103446883 0 0.2386591008466177
vn -0.1885870423358156 0.9768442192912952 -0.10104602268377345
vn 0.24200902636797392 -0.9481931033099111 0.20581902242490968
vn 0.22738497249153616 -0.9410128861586206 0.2505809696853424
vn -0.24154010534182213 0.9652304209616915 0.09994304358771956
vn -0.219781988953318 0.9755099509689201 0.00872999956121299
vn -0.20291096141354217 0.9775578141032247 -0.056637989229465904
vn -0.19672395239713722 0.9774457634796577 -0.0768079814141603
vn -0.21305502226062906 0.976853102064548 -0.019120001997715057
vn -0.2084220086035565 0.9773740403455125 -0.036059001488497375
vn -0.21401705088448608 0.9767482322307104 -0.0126330030036103
usemtl material_0_0
f 1//1 2//1 3//1
f 2//1 1//1 4//1
f 2//2 5//3 3//4
f 3//4 6//5 1//6
f 1//6 7//7 4//8
f 2//1 4//1 8//1
f 9//9 5//3 2//2
f 6//5 3//4 5//3
f 7//7 1//6 6//5
f 7//7 10//10 4//8
f 8//1 4//1 10//1
f 11//11 2//2 8//12
f 5//3 9//9 12//13
f 2//2 11//11 9//9
f 6//5 5//3 13//14
f 7//7 6//5 14//15
f 10//10 7//7 15//16
f 8//1 10//1 16//1
f 8//12 17//17 11//11
f 18//18 12//13 9//9
f 19//19 5//3 12//13
f 18//18 9//9 11//11
f 5//3 19//19 13//14
f 6//5 13//14 14//15
f 7//7 14//15 20//20
f 15//16 7//7 21//21
f 15//16 22//22 10//10
f 16//1 10//1 22//1
f 17//17 8//12 16//17
f 23//23 11//24 17//25
f 12//13 18//18 24//26
f 24//26 19//19 12//13
f 18//18 11//11 23//27
f 19//28 14//29 13//29
f 14//29 19//28 20//29
f 20//20 21//21 7//7
f 21//21 25//30 15//16
f 22//22 15//16 26//31
f 16//1 22//1 27//1
f 27//32 17//17 16//17
f 23//23 17//25 28//33
f 29//34 19//19 24//26
f 20//29 19//28 30//35
f 30//36 21//21 20//20
f 25//30 21//21 31//37
f 25//30 26//31 15//16
f 26//31 32//38 22//22
f 27//1 22//1 32//1
f 17//17 27//32 33//32
f 28//33 17//25 34//39
f 29//40 35//41 19//28
f 36//42 30//35 19//28
f 31//37 21//21 30//36
f 25//30 37//43 26//31
f 32//38 26//31 38//38
f 27//1 32//1 39//1
f 39//44 33//32 27//32
f 34//39 17//25 33//45
f 36//42 19//28 35//41
f 40//46 30//35 36//42
f 41//47 31//37 30//36
f 37//48 38//49 26//50
f 42//51 32//38 38//38
f 39//1 32//1 43//1
f 33//32 39//44 44//44
f 45//52 34//39 33//45
f 46//53 30//35 40//46
f 41//54 30//35 46//53
f 37//48 47//55 38//49
f 32//38 42//51 43//51
f 47//55 42//56 38//49
f 43//51 44//44 39//44
f 48//57 33//45 44//58
f 48//57 45//52 33//45
f 44//44 43//51 42//51
f 47//55 49//59 42//56
f 48//57 44//58 50//60
f 50//60 44//58 42//56
f 49//59 51//61 42//56
f 51//61 50//60 42//56
usemtl material_1_0
f 3//29 2//29 1//29
f 4//29 1//29 2//29
f 3//62 5//63 2//64
f 1//65 6//66 3//62
f 4//67 7//68 1//65
f 8//29 4//29 2//29
f 2//64 5//63 9//69
f 5//63 3//62 6//66
f 6//66 1//65 7//68
f 4//67 10//70 7//68
f 10//29 4//29 8//29
f 8//71 2//64 11//72
f 12//73 9//69 5//63
f 9//69 11//72 2//64
f 13//74 5//63 6//66
f 14//75 6//66 7//68
f 15//76 7//68 10//70
f 16//29 10//29 8//29
f 11//72 17//77 8//71
f 9//69 12//73 18//78
f 12//73 5//63 19//79
f 11//72 9//69 18//78
f 13//74 19//79 5//63
f 14//75 13//74 6//66
f 20//80 14//75 7//68
f 21//81 7//68 15//76
f 10//70 22//82 15//76
f 22//29 10//29 16//29
f 16//77 8//71 17//77
f 17//83 11//84 23//85
f 24//86 18//78 12//73
f 12//73 19//79 24//86
f 23//87 11//72 18//78
f 13//1 14//1 19//88
f 20//1 19//88 14//1
f 7//68 21//81 20//80
f 15//76 25//89 21//81
f 26//90 15//76 22//82
f 27//29 22//29 16//29
f 16//77 17//77 27//91
f 28//92 17//83 23//85
f 24//86 19//79 29//93
f 30//94 19//88 20//1
f 20//80 21//81 30//95
f 31//96 21//81 25//89
f 15//76 26//90 25//89
f 22//82 32//97 26//90
f 32//29 22//29 27//29
f 33//91 27//91 17//77
f 34//98 17//83 28//92
f 19//88 35//99 29//100
f 19//88 30//94 36//101
f 30//95 21//81 31//96
f 26//90 37//102 25//89
f 38//97 26//90 32//97
f 39//29 32//29 27//29
f 27//91 33//91 39//103
f 33//104 17//83 34//98
f 35//99 19//88 36//101
f 36//101 30//94 40//105
f 30//95 31//96 41//106
f 26//107 38//108 37//109
f 38//97 32//97 42//110
f 43//29 32//29 39//29
f 44//103 39//103 33//91
f 33//104 34//98 45//111
f 40//105 30//94 46//112
f 46//112 30//94 41//113
f 38//108 47//114 37//109
f 43//110 42//110 32//97
f 38//108 42//115 47//114
f 39//103 44//103 43//110
f 44//116 33//104 48//117
f 33//104 45//111 48//117
f 42//110 43//110 44//103
f 42//115 49//118 47//114
f 50//119 44//116 48//117
f 42//115 44//116 50//119
f 42//115 51//120 49//118
f 42//115 50//119 51//120
