# SSTK version 0.8.0
# 47
mtllib original-47.mtl
o mesh59/mesh59-geometry#mesh59-geometry
v 0.338264 -0.731426 0.514109
v 0.363680 -0.707589 0.546644
v 0.367631 -0.731426 0.551677
v 0.353001 -0.690139 0.532893
v 0.355030 -0.731426 0.561543
v 0.363680 -0.755264 0.546644
v 0.338264 -0.683751 0.514109
v 0.340293 -0.690139 0.542759
v 0.351079 -0.707589 0.556509
v 0.351079 -0.755264 0.556509
v 0.353001 -0.772714 0.532893
v 0.325663 -0.683751 0.523975
v 0.323634 -0.690139 0.495325
v 0.350972 -0.731426 0.561357
v 0.347234 -0.753956 0.556600
v 0.338264 -0.779101 0.514109
v 0.310926 -0.690139 0.505191
v 0.308897 -0.731426 0.476541
v 0.323207 -0.686367 0.525849
v 0.337089 -0.692404 0.543603
v 0.347234 -0.708897 0.556600
v 0.340293 -0.772714 0.542759
v 0.323634 -0.772714 0.495325
v 0.309431 -0.692404 0.508096
v 0.300247 -0.707589 0.491439
v 0.312848 -0.707589 0.481574
v 0.323207 -0.731426 0.525849
v 0.337089 -0.770449 0.543603
v 0.325663 -0.779101 0.523975
v 0.299179 -0.708897 0.495099
v 0.296296 -0.731426 0.486406
v 0.312848 -0.755264 0.481574
v 0.310926 -0.772714 0.505191
v 0.295549 -0.731426 0.490342
v 0.323207 -0.776485 0.525849
v 0.300247 -0.755264 0.491439
v 0.309431 -0.770449 0.508096
v 0.299179 -0.753956 0.495099
vn 0.7880110776025467 0 -0.6156610606296886
vn 0.788279697675087 -0.0006309997579957276 -0.6153167640106834
vn 0.7878588358823247 0 -0.6158558717120005
vn 0.7877339371998838 -0.0009079999276118419 -0.61601495088975
vn 0.5035440257572846 0.5750760294162895 0.6447720329813799
vn 0.6164528573303247 0 0.7873918177688146
vn 0.788279697675087 0.000630999757996001 -0.6153167640106834
vn 0.7878531637245709 0 -0.6158631279831459
vn 0.25863607864141525 0.9069342757642915 0.3325321011103913
vn 0.01878399584831474 0.8059578218652069 0.5916748692265559
vn 0.5336793427316525 0.5005183214354717 0.6816654377690932
vn 0.27409203547628264 -0.5283360683835987 0.8035761040084689
vn 0.5339673057340147 -0.49970928611887794 0.6820333905123112
vn 0.7877339371998838 0.0009079999276121155 -0.61601495088975
vn -0.054613979463481864 0.9960266254636805 -0.07034397354852522
vn -0.26919102966673747 0.9366071032206646 0.22428402471767112
vn 0.7883644295956619 -0.00048000026156167717 -0.6152083352394173
vn -0.12864902055721458 0.43727806987397994 0.8900771422281083
vn -0.045779979245559564 0 0.9989515471234209
vn -0.1286840540230571 -0.43726118356731214 0.8900803736660551
vn 0.35344191381090245 -0.8181068004993635 0.45362988937941623
vn -0.5605559180730769 0.8156028807972009 -0.1434189790388873
vn -0.3535500801065023 0.817981185336153 -0.45377210281456004
vn 0.7877899624870184 0 -0.6159439706699807
vn -0.4686238442964732 0.7599627474970992 0.45038685035584125
vn -0.24255902694091128 0.6218880690728005 0.7445940827016971
vn -0.10770802791490865 0.37987409845274245 0.918746238113331
vn 0.006628001363800899 -0.8167171680506006 0.5770001187255759
vn 0.05447901950027821 -0.9960463565258927 0.0701690251163753
vn 0.7883644295956619 0.00048000026156195033 -0.6152083352394173
vn -0.7118443008482442 0.6848122894236487 0.15591606589513288
vn -0.7702111228402115 0.47780107620402196 -0.4224700673793338
vn 0.7877892200858867 -0.0009600002681966154 -0.6159441720772714
vn -0.7878500838646763 -0.00005400000574830266 0.6158670655575129
vn -0.7884381132039524 0 0.6151140883180871
vn -0.7878500838646763 0.000054000005748029167 0.6158670655575129
vn -0.3141880571732772 -0.6904671256453502 0.6515681185668385
vn -0.2804559712172259 -0.9376109037744043 0.20549997890984628
vn -0.2583030928581704 -0.9071863261271924 -0.33210311938876824
vn -0.8952544366421054 0.4358882125955919 -0.09230904502185527
vn -0.533678978940761 0.5005179802493107 -0.6816659731011202
vn -0.8886107839547521 -0.04320198949643107 -0.4566228889826604
vn -0.6164528573303247 0 -0.7873918177688146
vn 0.7877892200858867 0.0009600002681968891 -0.6159441720772714
vn -0.7884977993667605 0.001459999628503005 0.6150358435041495
vn -0.7889541281462792 -0.000027000004385626006 0.6144520998026977
vn -0.5728671574580021 -0.8042842210651892 -0.15795604341572525
vn -0.7879220189837994 0.00015200000366207543 0.6157750148361756
vn -0.9784198891910184 0.06873499221555641 -0.1948589779316374
vn -0.5035460977947043 -0.5750741116863041 -0.6447721252224963
vn -0.7889541281462792 0.000027000004385353136 0.6144520998026977
vn -0.5541651114198943 -0.7562811520571474 0.347764069921103
vn -0.7889050851031406 0 0.6145150662908164
vn -0.7991700798610701 -0.49121404908702226 -0.34646203462195296
vn -0.7884977993667605 -0.001459999628503278 0.6150358435041495
vn -0.784750940482529 -0.6168219532186828 0.060799995388776396
vn -0.7879220189837994 -0.00015200000366234886 0.6157750148361756
vn -0.9350041598810499 -0.3223630551224753 -0.14781502527563248
vn -0.7878588358823247 0 0.6158558717120005
vn -0.788279697675087 0.0006309997579957276 0.6153167640106834
vn -0.7880110776025467 0 0.6156610606296886
vn -0.7877339371998838 0.0009079999276118419 0.61601495088975
vn -0.5035440257572846 -0.5750760294162895 -0.6447720329813799
vn -0.788279697675087 -0.000630999757996001 0.6153167640106834
vn -0.7878531637245709 0 0.6158631279831459
vn -0.01878399584831474 -0.8059578218652069 -0.5916748692265559
vn -0.25863607864141525 -0.9069342757642915 -0.3325321011103913
vn -0.5336793427316525 -0.5005183214354717 -0.6816654377690932
vn -0.27409203547628264 0.5283360683835987 -0.8035761040084689
vn -0.5339673057340147 0.49970928611887794 -0.6820333905123112
vn -0.7877339371998838 -0.0009079999276121155 0.61601495088975
vn 0.26919102966673747 -0.9366071032206646 -0.22428402471767112
vn 0.054613979463481864 -0.9960266254636805 0.07034397354852522
vn -0.7883644295956619 0.00048000026156167717 0.6152083352394173
vn 0.045779979245559564 0 -0.9989515471234209
vn 0.12864902055721458 -0.43727806987397994 -0.8900771422281083
vn 0.1286840540230571 0.43726118356731214 -0.8900803736660551
vn -0.35344191381090245 0.8181068004993635 -0.45362988937941623
vn 0.5605559180730769 -0.8156028807972009 0.1434189790388873
vn 0.3535500801065023 -0.817981185336153 0.45377210281456004
vn -0.7877899624870184 0 0.6159439706699807
vn 0.4686238442964732 -0.7599627474970992 -0.45038685035584125
vn 0.24255902694091128 -0.6218880690728005 -0.7445940827016971
vn 0.10770802791490865 -0.37987409845274245 -0.918746238113331
vn -0.006628001363800899 0.8167171680506006 -0.5770001187255759
vn -0.05447901950027821 0.9960463565258927 -0.0701690251163753
vn -0.7883644295956619 -0.00048000026156195033 0.6152083352394173
vn 0.7118443008482442 -0.6848122894236487 -0.15591606589513288
vn 0.7702111228402115 -0.47780107620402196 0.4224700673793338
vn -0.7877892200858867 0.0009600002681966154 0.6159441720772714
vn 0.7878500838646763 0.00005400000574830266 -0.6158670655575129
vn 0.7884381132039524 0 -0.6151140883180871
vn 0.7878500838646763 -0.000054000005748029167 -0.6158670655575129
vn 0.3141880571732772 0.6904671256453502 -0.6515681185668385
vn 0.2804559712172259 0.9376109037744043 -0.20549997890984628
vn 0.2583030928581704 0.9071863261271924 0.33210311938876824
vn 0.8952544366421054 -0.4358882125955919 0.09230904502185527
vn 0.533678978940761 -0.5005179802493107 0.6816659731011202
vn 0.8886107839547521 0.04320198949643107 0.4566228889826604
vn -0.7877892200858867 -0.0009600002681968891 0.6159441720772714
vn 0.7889541281462792 0.000027000004385626006 -0.6144520998026977
vn 0.7884977993667605 -0.001459999628503005 -0.6150358435041495
vn 0.5728671574580021 0.8042842210651892 0.15795604341572525
vn 0.7879220189837994 -0.00015200000366207543 -0.6157750148361756
vn 0.9784198891910184 -0.06873499221555641 0.1948589779316374
vn 0.5035460977947043 0.5750741116863041 0.6447721252224963
vn 0.7889541281462792 -0.000027000004385353136 -0.6144520998026977
vn 0.5541651114198943 0.7562811520571474 -0.347764069921103
vn 0.7889050851031406 0 -0.6145150662908164
vn 0.7991700798610701 0.49121404908702226 0.34646203462195296
vn 0.7884977993667605 0.001459999628503278 -0.6150358435041495
vn 0.784750940482529 0.6168219532186828 -0.060799995388776396
vn 0.7879220189837994 0.00015200000366234886 -0.6157750148361756
vn 0.9350041598810499 0.3223630551224753 0.14781502527563248
usemtl material_0_0
f 1//1 2//2 3//3
f 1//1 4//4 2//2
f 2//5 5//6 3//6
f 1//1 3//3 6//7
f 7//8 4//4 1//1
f 2//5 4//9 8//10
f 5//6 2//5 9//11
f 10//12 3//6 5//6
f 3//6 10//12 6//13
f 1//1 6//7 11//14
f 4//9 7//15 12//16
f 13//17 7//8 1//1
f 4//9 12//16 8//10
f 2//5 8//10 9//11
f 9//18 14//19 5//19
f 5//19 15//20 10//12
f 6//13 10//12 11//21
f 1//1 11//14 16//8
f 7//15 17//22 12//16
f 7//15 13//23 17//22
f 18//24 13//17 1//1
f 8//10 12//16 19//25
f 8//10 20//26 9//18
f 14//19 9//18 21//27
f 15//20 5//19 14//19
f 15//20 22//28 10//12
f 11//21 10//12 22//28
f 11//21 22//28 16//29
f 23//30 1//1 16//8
f 12//16 17//22 24//31
f 13//23 25//32 17//22
f 13//17 18//24 26//33
f 23//30 18//24 1//1
f 12//16 24//31 19//25
f 8//10 19//25 20//26
f 20//26 21//27 9//18
f 21//34 27//35 14//34
f 27//35 15//36 14//36
f 15//20 28//37 22//28
f 22//28 29//38 16//29
f 16//29 29//38 23//39
f 30//40 24//31 17//22
f 13//23 26//41 25//32
f 25//32 30//40 17//22
f 31//42 26//41 18//43
f 18//24 23//30 32//44
f 24//45 27//35 19//46
f 27//35 20//34 19//46
f 27//35 21//34 20//34
f 15//36 27//35 28//36
f 22//28 28//37 29//38
f 29//38 33//47 23//39
f 30//48 27//35 24//45
f 26//41 31//42 25//32
f 34//49 30//40 25//32
f 32//50 31//42 18//43
f 23//39 33//47 32//50
f 28//36 27//35 35//51
f 28//37 35//52 29//38
f 29//38 35//52 33//47
f 34//53 27//35 30//48
f 31//42 34//49 25//32
f 31//42 32//50 36//54
f 32//50 33//47 36//54
f 37//55 35//51 27//35
f 35//52 37//56 33//47
f 34//53 38//57 27//35
f 31//42 38//58 34//49
f 31//42 36//54 38//58
f 36//54 33//47 37//56
f 38//57 37//55 27//35
f 36//54 37//56 38//58
usemtl material_1_0
f 3//59 2//60 1//61
f 2//60 4//62 1//61
f 3//43 5//43 2//63
f 6//64 3//59 1//61
f 1//61 4//62 7//65
f 8//66 4//67 2//63
f 9//68 2//63 5//43
f 5//43 3//43 10//69
f 6//70 10//69 3//43
f 11//71 6//64 1//61
f 12//72 7//73 4//67
f 1//61 7//65 13//74
f 8//66 12//72 4//67
f 9//68 8//66 2//63
f 5//75 14//75 9//76
f 10//69 15//77 5//75
f 11//78 10//69 6//70
f 16//65 11//71 1//61
f 12//72 17//79 7//73
f 17//79 13//80 7//73
f 1//61 13//74 18//81
f 19//82 12//72 8//66
f 9//76 20//83 8//66
f 21//84 9//76 14//75
f 14//75 5//75 15//77
f 10//69 22//85 15//77
f 22//85 10//69 11//78
f 16//86 22//85 11//78
f 16//65 1//61 23//87
f 24//88 17//79 12//72
f 17//79 25//89 13//80
f 26//90 18//81 13//74
f 1//61 18//81 23//87
f 19//82 24//88 12//72
f 20//83 19//82 8//66
f 9//76 21//84 20//83
f 14//91 27//92 21//91
f 14//93 15//93 27//92
f 22//85 28//94 15//77
f 16//86 29//95 22//85
f 23//96 29//95 16//86
f 17//79 24//88 30//97
f 25//89 26//98 13//80
f 17//79 30//97 25//89
f 18//6 26//98 31//99
f 32//100 23//87 18//81
f 19//101 27//92 24//102
f 19//101 20//91 27//92
f 20//91 21//91 27//92
f 28//93 27//92 15//93
f 29//95 28//94 22//85
f 23//96 33//103 29//95
f 24//102 27//92 30//104
f 25//89 31//99 26//98
f 25//89 30//97 34//105
f 18//6 31//99 32//106
f 32//106 33//103 23//96
f 35//107 27//92 28//93
f 29//95 35//108 28//94
f 33//103 35//108 29//95
f 30//104 27//92 34//109
f 25//89 34//105 31//99
f 36//110 32//106 31//99
f 36//110 33//103 32//106
f 27//92 35//107 37//111
f 33//103 37//112 35//108
f 27//92 38//113 34//109
f 34//105 38//114 31//99
f 38//114 36//110 31//99
f 37//112 33//103 36//110
f 27//92 37//111 38//113
f 38//114 37//112 36//110
