# SSTK version 0.8.0
# 34
mtllib original-34.mtl
o mesh46/mesh46-geometry#mesh46-geometry
v -0.034749 -0.731426 -0.508610
v -0.033254 -0.707589 -0.467347
v -0.033040 -0.731426 -0.460964
v -0.033895 -0.690139 -0.484787
v -0.049059 -0.731426 -0.460405
v -0.033254 -0.755264 -0.467347
v -0.034749 -0.683751 -0.508610
v -0.049272 -0.707589 -0.466788
v -0.049272 -0.755264 -0.466788
v -0.033895 -0.772714 -0.484787
v -0.035496 -0.690139 -0.532432
v -0.049913 -0.690139 -0.484227
v -0.052369 -0.708897 -0.468946
v -0.052155 -0.731426 -0.462913
v -0.034749 -0.779101 -0.508610
v -0.050767 -0.683751 -0.508050
v -0.036137 -0.707589 -0.549872
v -0.053010 -0.692404 -0.485429
v -0.052369 -0.753956 -0.468946
v -0.049913 -0.772714 -0.484227
v -0.035496 -0.772714 -0.532432
v -0.051515 -0.690139 -0.531873
v -0.036137 -0.755264 -0.549872
v -0.053757 -0.686367 -0.507944
v -0.053757 -0.731426 -0.507944
v -0.050767 -0.779101 -0.508050
v -0.054505 -0.692404 -0.530460
v -0.052155 -0.707589 -0.549313
v -0.036351 -0.731426 -0.556255
v -0.053010 -0.770448 -0.485429
v -0.051515 -0.772714 -0.531873
v -0.055145 -0.708897 -0.546943
v -0.052369 -0.731426 -0.555697
v -0.053757 -0.776485 -0.507944
v -0.052155 -0.755264 -0.549313
v -0.055359 -0.731426 -0.552976
v -0.054505 -0.770448 -0.530460
v -0.055145 -0.753956 -0.546943
vn 0.9994225815353566 0 -0.03397798577319948
vn 0.9993518965425999 -0.0000559999942026209 -0.03599699627342915
vn 0.030211998625716628 0.5000039772558194 0.8654959606303206
vn 0.03487498892215334 0 0.9993916825487791
vn 0.9993518965425999 0.00005599999420263689 -0.03599699627342915
vn 0.9994326678521004 -0.000027999990694575164 -0.03367998880691226
vn 0.0174529907133621 0.8660355391873752 0.4996777341242967
vn 0.030212009667935275 -0.500005160003177 0.8654952769611293
vn 0.9994528884565664 -0.0009799998906276008 -0.03305999631035585
vn 0.0000029999999992605005 1 -0.000021999999994354955
vn -0.6297140017062102 0.43564900118039085 0.6431720017426746
vn -0.6292321957387502 0.31819709898333687 0.7090962205824957
vn -0.6274158243960603 0.0673329811545447 0.7757677828746524
vn -0.6273828469029195 -0.06744398354198411 0.7757848106891346
vn -0.6292220225701943 -0.3184760114237349 0.7089800254311139
vn 0.017452999434226124 -0.8660359719257125 0.4996769838019712
vn 0.9994326678521004 0.000027999990694590116 -0.03367998880691226
vn -0.017440993196889035 0.8660276621934189 -0.4996918050880037
vn 0.9994150415506812 -0.0009800000407434947 -0.03418500142124146
vn -0.6349998822249953 0.6210868848054732 0.4593759147984087
vn -0.6400932590269115 0.6878392783483208 0.34228313851191694
vn -0.6296351615502364 -0.43561211176828113 0.6432741650496983
vn 0.0000029999999992605005 -1 -0.000021999999994799044
vn 0.9994528884565664 0.0009799998906276158 -0.03305999631035585
vn -0.43426295449597585 0.7643519199077706 -0.4766359500559428
vn -0.030201995561016735 0.5000099265102966 -0.8654928727928961
vn 0.9994150415506812 0.0009800000407435099 -0.03418500142124146
vn -0.6569442619904092 0.7525653001242304 -0.04549401814308613
vn -0.6513643002151779 0.7534143472502594 0.08995204145908553
vn -0.9993671159900519 0 0.035572004128611535
vn -0.9993452217132565 -0.0010370002300673488 0.03616700802395904
vn -0.9993876149914921 -0.001036999600501692 0.034975986525696154
vn -0.9993452217132565 0.0010370002300673328 0.03616700802395904
vn -0.9993674714352262 0 0.035562016775798594
vn -0.634877819233169 -0.6208468232281719 0.459868869062935
vn -0.017441001912004823 -0.866028094940067 -0.49969105477963444
vn -0.6636492621225963 0.6867342712405188 -0.29659011714466643
vn -0.44285983512840693 0.4167638448436425 -0.7938407044622898
vn 0.9994349235462298 0 -0.03361299742870664
vn -0.9994493254582328 0 0.03318201080530881
vn -0.6402398910872008 -0.6875848830332266 0.3425199417330812
vn -0.6515327231331827 -0.7533176798799798 0.08954096194984475
vn -0.03020199556101673 -0.5000099265102962 -0.8654928727928963
vn -0.669692013531462 0.4383910088579097 -0.5994380121119448
vn -0.03487498892215334 0 -0.9993916825487791
vn -0.4459491716683896 -0.04356701677114792 -0.8939973441447908
vn -0.9993876149914921 0.0010369996005016764 0.034975986525696154
vn -0.6568360309547123 -0.752625035468961 -0.04606500217090558
vn -0.4427571121729714 -0.4920931246723009 -0.7495401898967808
vn -0.6635721227591952 -0.6866701270322684 -0.29691105492780806
vn -0.6719441431721617 0.0677640144385819 -0.737495157139216
vn -0.6643570705035691 -0.622249066034941 -0.4140480439400231
vn -0.6700749813618647 -0.32165399105319425 -0.6689829813922388
vn -0.9993518965425999 0.0000559999942026209 0.03599699627342915
vn -0.9994225815353566 0 0.03397798577319948
vn -0.030211998625716628 -0.5000039772558194 -0.8654959606303206
vn -0.9993518965425999 -0.00005599999420263689 0.03599699627342915
vn -0.9994326678521004 0.000027999990694575164 0.03367998880691226
vn -0.0174529907133621 -0.8660355391873752 -0.4996777341242967
vn -0.030212009667935275 0.500005160003177 -0.8654952769611293
vn -0.9994528884565664 0.0009799998906276008 0.03305999631035585
vn -0.0000029999999992605005 -1 0.000021999999994354955
vn 0.6274158243960603 -0.0673329811545447 -0.7757677828746524
vn 0.6292321957387502 -0.31819709898333687 -0.7090962205824957
vn 0.6297140017062102 -0.43564900118039085 -0.6431720017426746
vn 0.6292220225701943 0.3184760114237349 -0.7089800254311139
vn 0.6273828469029195 0.06744398354198411 -0.7757848106891346
vn -0.017452999434226124 0.8660359719257125 -0.4996769838019712
vn -0.9994326678521004 -0.000027999990694590116 0.03367998880691226
vn 0.017440993196889035 -0.8660276621934189 0.4996918050880037
vn -0.9994150415506812 0.0009800000407434947 0.03418500142124146
vn 0.6400932590269115 -0.6878392783483208 -0.34228313851191694
vn 0.6349998822249953 -0.6210868848054732 -0.4593759147984087
vn 0.6296351615502364 0.43561211176828113 -0.6432741650496983
vn -0.0000029999999992605005 1 0.000021999999994799044
vn -0.9994528884565664 -0.0009799998906276158 0.03305999631035585
vn 0.43426295449597585 -0.7643519199077706 0.4766359500559428
vn 0.030201995561016735 -0.5000099265102966 0.8654928727928961
vn -0.9994150415506812 -0.0009800000407435099 0.03418500142124146
vn 0.6513643002151779 -0.7534143472502594 -0.08995204145908553
vn 0.6569442619904092 -0.7525653001242304 0.04549401814308613
vn 0.9993876149914921 0.001036999600501692 -0.034975986525696154
vn 0.9993452217132565 0.0010370002300673488 -0.03616700802395904
vn 0.9993671159900519 0 -0.035572004128611535
vn 0.9993674714352262 0 -0.035562016775798594
vn 0.9993452217132565 -0.0010370002300673328 -0.03616700802395904
vn 0.634877819233169 0.6208468232281719 -0.459868869062935
vn 0.017441001912004823 0.866028094940067 0.49969105477963444
vn 0.6636492621225963 -0.6867342712405188 0.29659011714466643
vn 0.44285983512840693 -0.4167638448436425 0.7938407044622898
vn -0.9994349235462298 0 0.03361299742870664
vn 0.9994493254582328 0 -0.03318201080530881
vn 0.6402398910872008 0.6875848830332266 -0.3425199417330812
vn 0.6515327231331827 0.7533176798799798 -0.08954096194984475
vn 0.03020199556101673 0.5000099265102962 0.8654928727928963
vn 0.669692013531462 -0.4383910088579097 0.5994380121119448
vn 0.4459491716683896 0.04356701677114792 0.8939973441447908
vn 0.9993876149914921 -0.0010369996005016764 -0.034975986525696154
vn 0.6568360309547123 0.752625035468961 0.04606500217090558
vn 0.4427571121729714 0.4920931246723009 0.7495401898967808
vn 0.6635721227591952 0.6866701270322684 0.29691105492780806
vn 0.6719441431721617 -0.0677640144385819 0.737495157139216
vn 0.6643570705035691 0.622249066034941 0.4140480439400231
vn 0.6700749813618647 0.32165399105319425 0.6689829813922388
usemtl material_0_0
f 1//1 2//2 3//2
f 2//2 1//1 4//2
f 2//3 5//4 3//4
f 6//5 1//1 3//5
f 4//2 1//1 7//6
f 4//7 8//3 2//3
f 5//4 2//3 8//3
f 9//8 3//4 5//4
f 1//1 6//5 10//5
f 3//4 9//8 6//8
f 11//9 7//6 1//1
f 7//10 12//7 4//7
f 8//3 4//7 12//7
f 8//11 13//12 5//13
f 14//14 9//15 5//13
f 9//8 10//16 6//8
f 1//1 10//5 15//17
f 11//18 16//10 7//10
f 17//19 11//9 1//1
f 12//7 7//10 16//10
f 18//20 8//11 12//21
f 18//20 13//12 8//11
f 13//12 14//14 5//13
f 14//14 19//22 9//15
f 10//16 9//8 20//16
f 20//16 15//23 10//16
f 21//24 1//1 15//17
f 16//10 11//18 22//25
f 17//26 22//25 11//18
f 23//27 17//19 1//1
f 12//21 16//28 24//29
f 12//21 24//29 18//20
f 25//30 13//31 18//32
f 13//31 19//33 14//34
f 20//35 9//15 19//22
f 15//23 20//16 26//23
f 23//27 1//1 21//24
f 26//23 21//36 15//23
f 16//28 22//25 27//37
f 22//25 17//26 28//38
f 17//19 23//27 29//39
f 16//28 27//37 24//29
f 24//40 25//30 18//32
f 19//33 13//31 25//30
f 30//41 20//35 19//22
f 20//35 30//41 26//42
f 31//36 23//43 21//36
f 21//36 26//23 31//36
f 32//44 27//37 22//25
f 29//45 28//38 17//26
f 28//38 32//44 22//25
f 23//43 33//46 29//45
f 25//30 24//40 27//47
f 25//30 30//47 19//33
f 26//42 30//41 34//48
f 23//43 31//36 35//49
f 26//42 34//48 31//50
f 32//33 25//30 27//47
f 28//38 29//45 33//46
f 28//38 36//51 32//44
f 33//46 23//43 35//49
f 25//30 34//40 30//47
f 35//49 31//50 37//52
f 31//50 34//48 37//52
f 32//33 38//31 25//30
f 28//38 33//46 36//51
f 38//31 32//33 36//34
f 33//46 35//49 38//53
f 34//40 25//30 37//32
f 35//49 37//52 38//53
f 38//31 37//32 25//30
f 33//46 38//53 36//51
usemtl material_1_0
f 3//54 2//54 1//55
f 4//54 1//55 2//54
f 3//45 5//45 2//56
f 3//57 1//55 6//57
f 7//58 1//55 4//54
f 2//56 8//56 4//59
f 8//56 2//56 5//45
f 5//45 3//45 9//60
f 10//57 6//57 1//55
f 6//60 9//60 3//45
f 1//55 7//58 11//61
f 4//59 12//59 7//62
f 12//59 4//59 8//56
f 5//63 13//64 8//65
f 5//63 9//66 14//67
f 6//60 10//68 9//60
f 15//69 10//57 1//55
f 7//62 16//62 11//70
f 1//55 11//61 17//71
f 16//62 7//62 12//59
f 12//72 8//65 18//73
f 8//65 13//64 18//73
f 5//63 14//67 13//64
f 9//66 19//74 14//67
f 20//68 9//60 10//68
f 10//68 15//75 20//68
f 15//69 1//55 21//76
f 22//77 11//70 16//62
f 11//70 22//77 17//78
f 1//55 17//71 23//79
f 24//80 16//81 12//72
f 18//73 24//80 12//72
f 18//82 13//83 25//84
f 14//85 19//86 13//83
f 19//74 9//66 20//87
f 26//75 20//68 15//75
f 21//76 1//55 23//79
f 15//75 21//88 26//75
f 27//89 22//77 16//81
f 28//90 17//78 22//77
f 29//91 23//79 17//71
f 24//80 27//89 16//81
f 18//82 25//84 24//92
f 25//84 13//83 19//86
f 19//74 20//87 30//93
f 26//94 30//93 20//87
f 21//88 23//95 31//88
f 31//88 26//75 21//88
f 22//77 27//89 32//96
f 17//78 28//90 29//4
f 22//77 32//96 28//90
f 29//4 33//97 23//95
f 27//98 24//92 25//84
f 19//86 30//98 25//84
f 34//99 30//93 26//94
f 35//100 31//88 23//95
f 31//101 34//99 26//94
f 27//98 25//84 32//86
f 33//97 29//4 28//90
f 32//96 36//102 28//90
f 35//100 23//95 33//97
f 30//98 34//92 25//84
f 37//103 31//101 35//100
f 37//103 34//99 31//101
f 25//84 38//83 32//86
f 36//102 33//97 28//90
f 36//85 32//86 38//83
f 38//104 35//100 33//97
f 37//82 25//84 34//92
f 38//104 37//103 35//100
f 25//84 37//82 38//83
f 36//102 38//104 33//97
