# SSTK version 0.8.0
# 29
mtllib original-29.mtl
o mesh41/mesh41-geometry#mesh41-geometry
v 0.576296 -0.731100 -0.166830
v 0.570316 -0.707263 -0.164645
v 0.579713 -0.707263 -0.138805
v 0.575655 -0.733863 -0.166577
v 0.563375 -0.689813 -0.132837
v 0.585800 -0.731100 -0.140989
v 0.585053 -0.733863 -0.140736
v 0.487448 -0.733863 -0.134472
v 0.553977 -0.689813 -0.158677
v 0.496845 -0.733863 -0.108631
v 0.509126 -0.689813 -0.142372
v 0.540949 -0.683425 -0.124684
v 0.492787 -0.707263 -0.136403
v 0.486700 -0.731100 -0.134218
v 0.531552 -0.683425 -0.150524
v 0.518523 -0.689813 -0.116531
v 0.502185 -0.707263 -0.110563
v 0.496098 -0.731100 -0.108378
vn 0.9391596138157681 0.0008979996307409082 -0.3434798587604242
vn 0.8144397878376486 0.49895887002073236 -0.29618892284249926
vn 0.8519321529435594 0.4212150756188539 -0.31111005585219326
vn -0.3461301049258959 -0.0006680002024974037 -0.9381862844018334
vn -0.3546501012260196 -0.0033010009421881206 -0.9349932668704911
vn -0.34836004613924604 -0.0017750002350932633 -0.9373591241504121
vn 0.4704370277263832 0.8656900510216089 -0.171084010083264
vn 0.93851024985774 -0.006610001759767707 -0.34518809189874755
vn 0.9073072574634413 -0.2582330732779057 -0.3318270941614265
vn 0.9118879750065186 -0.24183299337172037 -0.3316279909105744
vn -0.33846107069741743 -0.0006110001276249001 -0.940980196551023
vn 0.3423361426949771 0.0005390002246696849 0.9395773916413072
vn 0.3382818600612805 -0.0006509997306979511 0.9410446107134512
vn 0.33639309785777555 -0.0008520002478496732 0.9417212739495836
vn 0.32883408089631777 -0.002563000630522791 0.9443842323275213
vn 0 -1 0
vn -0.34232811527815643 0.0005390001815072028 -0.9395803164013758
vn -0.34166395249009324 0.0007729998925111026 -0.939821869313549
vn 9.99999999999e-7 1 -9.999999997769552e-7
vn 0.3357209468590712 0.001095999826515088 0.9419608508979708
vn -0.3366620726264335 -0.0007910001706383212 -0.941625203132119
vn -0.903636643141761 -0.27467289152798857 0.3286268702208381
vn -0.9397618586645259 -0.0066609989982192065 0.3417649486002644
vn -0.3416640545671705 0 -0.9398221500990077
vn 0.3416801127583851 0.00006100002013050278 0.9398163101502414
vn 0.3416800113121712 0.0007730000255918902 0.9398160311149598
vn 0.33770892708763733 0.0012249997355187016 0.9412497967813671
vn -0.32937291659965906 -0.0024409993819156355 -0.9441967609204405
vn -0.8135165269162783 0.5006627088499497 0.29585082795406603
vn -0.4704379673826552 0.8656899399782557 0.17108198813820208
vn 0.32937291659965906 0.0024409993819156355 0.9441967609204405
vn -0.8519321529435594 -0.4212150756188539 0.31111005585219326
vn -0.8144397878376486 -0.49895887002073236 0.29618892284249926
vn -0.9391596138157681 -0.0008979996307409082 0.3434798587604242
vn 0.34836004613924604 0.0017750002350932633 0.9373591241504121
vn 0.3546501012260196 0.0033010009421881206 0.9349932668704911
vn 0.3461301049258959 0.0006680002024974037 0.9381862844018334
vn -0.4704370277263832 -0.8656900510216089 0.171084010083264
vn -0.93851024985774 0.006610001759767707 0.34518809189874755
vn -0.9118879750065186 0.24183299337172037 0.3316279909105744
vn -0.9073072574634413 0.2582330732779057 0.3318270941614265
vn 0.33846107069741743 0.0006110001276249001 0.940980196551023
vn -0.33639309785777555 0.0008520002478496732 -0.9417212739495836
vn -0.3382818600612805 0.0006509997306979511 -0.9410446107134512
vn -0.3423361426949771 -0.0005390002246696849 -0.9395773916413072
vn -0.32883408089631777 0.002563000630522791 -0.9443842323275213
vn 0 1 0
vn 0.34232811527815643 -0.0005390001815072028 0.9395803164013758
vn 0.34166395249009324 -0.0007729998925111026 0.939821869313549
vn -9.99999999999e-7 -1 9.999999997769552e-7
vn -0.3357209468590712 -0.001095999826515088 -0.9419608508979708
vn 0.3366620726264335 0.0007910001706383212 0.941625203132119
vn 0.903636643141761 0.27467289152798857 -0.3286268702208381
vn 0.9397618586645259 0.0066609989982192065 -0.3417649486002644
vn 0.3416640545671705 0 0.9398221500990077
vn -0.3416800113121712 -0.0007730000255918902 -0.9398160311149598
vn -0.3416801127583851 -0.00006100002013050278 -0.9398163101502414
vn -0.33770892708763733 -0.0012249997355187016 -0.9412497967813671
vn 0.8135165269162783 -0.5006627088499497 -0.29585082795406603
vn 0.4704379673826552 -0.8656899399782557 -0.17108198813820208
usemtl material_0_0
f 1//1 2//2 3//3
f 2//4 1//5 4//6
f 2//2 5//7 3//3
f 1//1 3//3 6//8
f 1//1 7//9 4//10
f 8//11 2//4 4//6
f 5//7 2//2 9//7
f 5//12 7//13 3//14
f 3//14 7//13 6//15
f 1//1 6//8 7//9
f 10//16 4//16 7//16
f 2//4 8//11 11//17
f 4//16 10//16 8//16
f 9//18 2//4 11//17
f 9//7 12//19 5//7
f 5//12 10//20 7//13
f 11//17 8//11 13//21
f 10//22 14//23 8//22
f 15//24 9//18 11//17
f 12//19 9//7 15//19
f 12//25 16//26 5//12
f 10//20 5//12 17//27
f 13//21 8//11 14//28
f 17//29 11//30 13//29
f 14//23 10//22 18//23
f 16//30 15//19 11//30
f 15//19 16//30 12//19
f 16//26 17//27 5//12
f 17//27 18//31 10//20
f 14//23 17//29 13//29
f 11//30 17//29 16//30
f 17//29 14//23 18//23
usemtl material_1_0
f 3//32 2//33 1//34
f 4//35 1//36 2//37
f 3//32 5//38 2//33
f 6//39 3//32 1//34
f 4//40 7//41 1//34
f 4//35 2//37 8//42
f 9//38 2//33 5//38
f 3//43 7//44 5//45
f 6//46 7//44 3//43
f 7//41 6//39 1//34
f 7//47 4//47 10//47
f 11//48 8//42 2//37
f 8//47 10//47 4//47
f 11//48 2//37 9//49
f 5//38 12//50 9//38
f 7//44 10//51 5//45
f 13//52 8//42 11//48
f 8//53 14//54 10//53
f 11//48 9//49 15//55
f 15//50 9//38 12//50
f 5//45 16//56 12//57
f 17//58 5//45 10//51
f 14//31 8//42 13//52
f 13//59 11//60 17//59
f 18//54 10//53 14//54
f 11//60 15//50 16//60
f 12//50 16//60 15//50
f 5//45 17//58 16//56
f 10//51 18//28 17//58
f 13//59 17//59 14//54
f 16//60 17//59 11//60
f 18//54 14//54 17//59
