# SSTK version 0.8.0
# 30
mtllib original-30.mtl
o mesh42/mesh42-geometry#mesh42-geometry
v 0.529843 -0.683751 -0.155340
v 0.529843 -0.731426 -0.155340
v 0.552162 -0.690139 -0.163492
v 0.484992 -0.731426 -0.139034
v 0.546716 -0.690139 -0.178551
v 0.490972 -0.755264 -0.141219
v 0.490972 -0.707589 -0.141219
v 0.563161 -0.707589 -0.184519
v 0.524290 -0.683751 -0.170398
v 0.507417 -0.772714 -0.147187
v 0.479546 -0.731426 -0.154093
v 0.507417 -0.690139 -0.147187
v 0.568607 -0.707589 -0.169461
v 0.559957 -0.708897 -0.186606
v 0.544473 -0.692404 -0.180965
v 0.529843 -0.779101 -0.155340
v 0.485526 -0.755264 -0.156277
v 0.501864 -0.690139 -0.162245
v 0.485526 -0.707589 -0.156277
v 0.574588 -0.731426 -0.171645
v 0.569141 -0.731426 -0.186704
v 0.523222 -0.686367 -0.173259
v 0.524290 -0.779101 -0.170398
v 0.552162 -0.772714 -0.163492
v 0.501864 -0.772714 -0.162245
v 0.480934 -0.731426 -0.157849
v 0.486594 -0.708897 -0.159913
v 0.565617 -0.731426 -0.188670
v 0.486594 -0.753956 -0.159913
v 0.502078 -0.692404 -0.165554
v 0.563161 -0.755264 -0.184519
v 0.559957 -0.753956 -0.186606
v 0.502078 -0.770449 -0.165554
v 0.546716 -0.772714 -0.178551
v 0.568607 -0.755264 -0.169461
v 0.523222 -0.776485 -0.173259
v 0.544473 -0.770449 -0.180965
vn 0.34232993062684663 0 0.9395798095941709
vn 0.34258912193674007 0 0.9394853343882561
vn 0.34310710480808554 0 0.9392962869245324
vn 0.34155196115307757 0 0.9398628931032901
vn 0.4699980372978708 0.86614506873511 -0.16998401348950667
vn 0.39549302283774523 0.9071690523844784 -0.14363000829391487
vn 0.08390901792250663 0.9960112127425397 -0.030347006481954146
vn 0.8142858622847294 0.500205915403182 -0.294503950192318
vn -9.99999999999e-7 1 0.0000010000000002210446
vn -0.9959144218988178 0.04343101839866453 -0.07917203353961609
vn -0.8142840616600344 -0.500207037877179 0.294507022300956
vn -0.9403852630511853 0 0.3401110951382696
vn -0.7690171213366844 0.5747620906868319 0.2797520441397008
vn 0.18812004218968661 0.6216641394206324 -0.7603581705255458
vn 0.392035058881122 0.3784920568470511 -0.8384821259345745
vn 0.3606850302394735 0.4366990366124123 -0.8241360690947467
vn 0.13432806633524538 0.6573503246193911 -0.7415163661831173
vn -0.22249502514038177 0.7594450858119836 -0.6113420690773782
vn -0.468497080577054 0.8664071490138116 0.17276902971463454
vn -0.5400841536634151 -0.8180972327630126 0.19755005620645597
vn -0.8772404797079485 -0.4773637168751861 -0.05072496991497864
vn -0.5400859970508605 0.8180969955327814 0.19754599892130026
vn -0.8617083105024274 0.4902631766582782 -0.13077004712083715
vn 0.9403852630511853 0 -0.3401110951382696
vn 0.4869620666229893 0 -0.8734231194960822
vn -0.28587201726881445 0.7567990457163398 -0.5878200355087397
vn 0.08390801732344128 -0.9960112056340048 -0.030350006265987287
vn 0.0004939999315414942 -0.9999998614200288 -0.0001819999747786673
vn -0.46966400995288504 -0.8656890183452491 0.1732000036703677
vn -0.9356190084088759 -0.06759200060748304 -0.3464800031139891
vn -0.8717341385477688 0.32055105094630454 -0.37057605889695466
vn -0.3415329304999341 0 -0.9398698087416826
vn -0.5231388139569615 0.6881557552722447 -0.5027598212043106
vn 0.39549020805044705 -0.9071694772229791 -0.143635075560257
vn -0.6333838382030692 -0.6204398415095933 -0.4624708818625222
vn -0.8074509918814841 -0.4363079956131412 -0.39706199600774034
vn -0.6336381544870204 0.6203491512470348 -0.4622441126995195
vn 0.8142840616600344 -0.5002070378771789 -0.29450702230095627
vn 0.392201933873583 -0.378188936236216 -0.8385408586195076
vn -0.28584812838457085 -0.756879339941457 -0.5877282639696871
vn -0.5227540580568075 -0.6884230764559268 -0.5027940558400597
vn 0.46956599259823123 -0.8664089863427952 -0.16983299732292267
vn -0.34236918464214766 0 -0.9395655067143914
vn 0.36065989068093807 -0.4366958676337904 -0.8241487501935466
vn -0.22290092076698412 -0.7594647300384364 -0.6111697827517943
vn 0.1881069957621375 -0.6216719859943517 -0.7603549828699628
vn 0.13410397335159863 -0.6575928693267745 -0.7413418526846391
vn -0.34310710480808554 0 -0.9392962869245324
vn -0.34258912193674007 0 -0.9394853343882561
vn -0.34232993062684663 0 -0.9395798095941709
vn -0.34155196115307757 0 -0.9398628931032901
vn -0.08390901792250663 -0.9960112127425397 0.030347006481954146
vn -0.39549302283774523 -0.9071690523844784 0.14363000829391487
vn -0.4699980372978708 -0.86614506873511 0.16998401348950667
vn -0.8142858622847294 -0.500205915403182 0.294503950192318
vn 9.99999999999e-7 -1 -0.0000010000000002210446
vn 0.8142840616600344 0.500207037877179 -0.294507022300956
vn 0.9959144218988178 -0.04343101839866453 0.07917203353961609
vn 0.7690171213366844 -0.5747620906868319 -0.2797520441397008
vn -0.3606850302394735 -0.4366990366124123 0.8241360690947467
vn -0.392035058881122 -0.3784920568470511 0.8384821259345745
vn -0.18812004218968661 -0.6216641394206324 0.7603581705255458
vn 0.22249502514038177 -0.7594450858119836 0.6113420690773782
vn -0.13432806633524538 -0.6573503246193911 0.7415163661831173
vn 0.468497080577054 -0.8664071490138116 -0.17276902971463454
vn 0.8772404797079485 0.4773637168751861 0.05072496991497864
vn 0.5400841536634151 0.8180972327630126 -0.19755005620645597
vn 0.5400859970508605 -0.8180969955327814 -0.19754599892130026
vn 0.8617083105024274 -0.4902631766582782 0.13077004712083715
vn -0.4869620666229893 0 0.8734231194960822
vn 0.28587201726881445 -0.7567990457163398 0.5878200355087397
vn -0.0004939999315414942 0.9999998614200288 0.0001819999747786673
vn -0.08390801732344128 0.9960112056340048 0.030350006265987287
vn 0.46966400995288504 0.8656890183452491 -0.1732000036703677
vn 0.9356190084088759 0.06759200060748304 0.3464800031139891
vn 0.8717341385477688 -0.32055105094630454 0.37057605889695466
vn 0.3415329304999341 0 0.9398698087416826
vn 0.5231388139569615 -0.6881557552722447 0.5027598212043106
vn -0.39549020805044705 0.9071694772229791 0.143635075560257
vn 0.8074509918814841 0.4363079956131412 0.39706199600774034
vn 0.6333838382030692 0.6204398415095933 0.4624708818625222
vn 0.6336381544870204 -0.6203491512470348 0.4622441126995195
vn -0.8142840616600344 0.5002070378771789 0.29450702230095627
vn -0.392201933873583 0.378188936236216 0.8385408586195076
vn 0.5227540580568075 0.6884230764559268 0.5027940558400597
vn 0.28584812838457085 0.756879339941457 0.5877282639696871
vn -0.46956599259823123 0.8664089863427952 0.16983299732292267
vn 0.34236918464214766 0 0.9395655067143914
vn -0.36065989068093807 0.4366958676337904 0.8241487501935466
vn 0.22290092076698412 0.7594647300384364 0.6111697827517943
vn -0.13410397335159863 0.6575928693267745 0.7413418526846391
vn -0.1881069957621375 0.6216719859943517 0.7603549828699628
usemtl material_0_0
f 1//1 2//2 3//3
f 4//4 2//2 1//1
f 3//5 5//6 1//7
f 6//4 2//2 4//4
f 4//4 1//1 7//4
f 3//5 8//8 5//6
f 5//6 9//9 1//7
f 10//4 2//2 6//4
f 11//10 6//11 4//12
f 7//4 1//1 12//4
f 7//13 11//10 4//12
f 8//8 3//5 13//8
f 5//14 8//15 14//16
f 15//17 9//18 5//14
f 9//9 12//19 1//7
f 2//2 10//4 16//1
f 10//20 6//11 17//21
f 6//11 11//10 17//21
f 12//19 18//22 7//13
f 11//10 7//13 19//23
f 20//24 8//8 13//8
f 21//25 14//16 8//15
f 5//14 14//16 15//17
f 9//18 15//17 22//26
f 12//19 9//9 18//22
f 10//20 23//27 16//28
f 2//2 16//1 24//3
f 10//20 17//21 25//29
f 26//30 17//21 11//10
f 18//22 19//23 7//13
f 27//31 11//10 19//23
f 8//8 20//24 21//24
f 14//16 21//25 28//25
f 14//32 22//32 15//32
f 9//18 22//26 18//33
f 23//27 10//20 25//29
f 24//34 16//28 23//27
f 25//35 17//21 29//36
f 29//36 17//21 26//30
f 27//31 26//30 11//10
f 30//37 19//23 18//33
f 30//37 27//31 19//23
f 20//24 31//38 21//24
f 21//25 32//39 28//25
f 28//32 22//32 14//32
f 22//26 30//37 18//33
f 23//40 25//35 33//41
f 24//34 23//27 34//42
f 33//41 25//35 29//36
f 22//43 29//43 26//43
f 22//43 26//43 27//43
f 22//43 27//43 30//43
f 31//38 20//24 35//38
f 32//39 21//25 31//44
f 32//32 22//32 28//32
f 23//40 33//41 36//45
f 23//40 37//46 34//47
f 31//38 24//34 34//42
f 22//43 33//43 29//43
f 24//34 31//38 35//38
f 32//39 31//44 37//46
f 37//32 22//32 32//32
f 33//43 22//43 36//43
f 37//46 23//40 36//45
f 31//44 34//47 37//46
f 22//32 37//32 36//32
usemtl material_1_0
f 3//48 2//49 1//50
f 1//50 2//49 4//51
f 1//52 5//53 3//54
f 4//51 2//49 6//51
f 7//51 1//50 4//51
f 5//53 8//55 3//54
f 1//52 9//56 5//53
f 6//51 2//49 10//51
f 4//24 6//57 11//58
f 12//51 1//50 7//51
f 4//24 11//58 7//59
f 13//55 3//54 8//55
f 14//60 8//61 5//62
f 5//62 9//63 15//64
f 1//52 12//65 9//56
f 16//50 10//51 2//49
f 17//66 6//57 10//67
f 17//66 11//58 6//57
f 7//59 18//68 12//65
f 19//69 7//59 11//58
f 13//55 8//55 20//12
f 8//61 14//60 21//70
f 15//64 14//60 5//62
f 22//71 15//64 9//63
f 18//68 9//56 12//65
f 16//72 23//73 10//67
f 24//48 16//50 2//49
f 25//74 17//66 10//67
f 11//58 17//66 26//75
f 7//59 19//69 18//68
f 19//69 11//58 27//76
f 21//12 20//12 8//55
f 28//70 21//70 14//60
f 15//77 22//77 14//77
f 18//78 22//71 9//63
f 25//74 10//67 23//73
f 23//73 16//72 24//79
f 29//80 17//66 25//81
f 26//75 17//66 29//80
f 11//58 26//75 27//76
f 18//78 19//69 30//82
f 19//69 27//76 30//82
f 21//12 31//83 20//12
f 28//70 32//84 21//70
f 14//77 22//77 28//77
f 18//78 30//82 22//71
f 33//85 25//81 23//86
f 34//87 23//73 24//79
f 29//80 25//81 33//85
f 26//88 29//88 22//88
f 27//88 26//88 22//88
f 30//88 27//88 22//88
f 35//83 20//12 31//83
f 31//89 21//70 32//84
f 28//77 22//77 32//77
f 36//90 33//85 23//86
f 34//91 37//92 23//86
f 34//87 24//79 31//83
f 29//88 33//88 22//88
f 35//83 31//83 24//79
f 37//92 31//89 32//84
f 32//77 22//77 37//77
f 36//88 22//88 33//88
f 36//90 23//86 37//92
f 37//92 34//91 31//89
f 36//77 37//77 22//77
