# SSTK version 0.8.0
# 19
mtllib original-19.mtl
o mesh31/mesh31-geometry#mesh31-geometry
v -0.012537 -0.319833 0.042113
v -0.016488 -0.319833 0.064649
v -0.017556 -0.319833 0.052849
v -0.009760 -0.319833 0.074353
v -0.017556 -0.193609 0.052849
v -0.012537 -0.193609 0.042113
v -0.002819 -0.319833 0.035319
v -0.016488 -0.193609 0.064649
v 0.001025 -0.319833 0.079359
v -0.009760 -0.193609 0.074353
v -0.002819 -0.193609 0.035319
v 0.008928 -0.319833 0.034286
v 0.001025 -0.193609 0.079359
v 0.012772 -0.319833 0.078326
v 0.012772 -0.193609 0.078326
v 0.008928 -0.193609 0.034286
v 0.019713 -0.319833 0.039293
v 0.022490 -0.319833 0.071532
v 0.022490 -0.193609 0.071532
v 0.019713 -0.193609 0.039293
v 0.026441 -0.319833 0.048996
v 0.026441 -0.193609 0.048996
v 0.027509 -0.319833 0.060796
v 0.027509 -0.193609 0.060796
vn 0 -1 -0.0000010000000002215446
vn -0.9399747799702594 0 0.3412439201214619
vn -0.9849802495501953 0 -0.17266704374615072
vn -0.7655026675813043 0 -0.6434327205900451
vn -0.6438949343159592 0 0.7651139219503502
vn -0.34189890505981574 0 -0.9397367390492399
vn 0 1 0
vn -0.1725760348783105 0 0.9849961990716919
vn 0.1725760348783105 0 -0.9849961990716919
vn 0.34189890505981574 0 0.9397367390492399
vn 0.6438949343159592 0 -0.7651139219503502
vn 0.7655026675813043 0 0.6434327205900451
vn 0.9399747799702594 0 -0.3412439201214619
vn 0.9849802495501953 0 0.17266704374615072
vn 0 1 0.0000010000000002215446
vn 0 -1 0
usemtl material_0_0
f 1//1 2//1 3//1
f 2//1 1//1 4//1
f 2//2 5//3 3//3
f 3//3 6//4 1//4
f 4//1 1//1 7//1
f 4//5 8//2 2//2
f 5//3 2//2 8//2
f 6//4 3//3 5//3
f 6//4 7//6 1//4
f 4//1 7//1 9//1
f 8//2 4//5 10//5
f 8//7 6//7 5//7
f 7//6 6//4 11//6
f 9//1 7//1 12//1
f 13//8 4//5 9//8
f 4//5 13//8 10//5
f 6//7 8//7 10//7
f 6//7 10//7 11//7
f 11//6 12//9 7//6
f 9//1 12//1 14//1
f 9//8 15//10 13//8
f 11//7 10//7 13//7
f 12//9 11//6 16//9
f 14//1 12//1 17//1
f 15//10 9//8 14//10
f 16//7 13//7 15//7
f 11//7 13//7 16//7
f 16//9 17//11 12//9
f 14//1 17//1 18//1
f 14//10 19//12 15//10
f 16//7 15//7 20//7
f 17//11 16//9 20//11
f 18//1 17//1 21//1
f 19//12 14//10 18//12
f 20//7 15//7 19//7
f 22//13 17//11 20//11
f 17//11 22//13 21//13
f 18//1 21//1 23//1
f 23//14 19//12 18//12
f 20//7 19//7 22//7
f 24//14 21//13 22//13
f 21//13 24//14 23//14
f 19//12 23//14 24//14
f 22//7 19//7 24//7
usemtl material_1_0
f 3//15 2//15 1//15
f 4//15 1//15 2//15
f 3//14 5//14 2//13
f 1//12 6//12 3//14
f 7//15 1//15 4//15
f 2//13 8//13 4//11
f 8//13 2//13 5//14
f 5//14 3//14 6//12
f 1//12 7//10 6//12
f 9//15 7//15 4//15
f 10//11 4//11 8//13
f 5//16 6//16 8//16
f 11//10 6//12 7//10
f 12//15 7//15 9//15
f 9//9 4//11 13//9
f 10//11 13//9 4//11
f 10//16 8//16 6//16
f 11//16 10//16 6//16
f 7//10 12//8 11//10
f 14//15 12//15 9//15
f 13//9 15//6 9//9
f 13//16 10//16 11//16
f 16//8 11//10 12//8
f 17//15 12//15 14//15
f 14//6 9//9 15//6
f 15//16 13//16 16//16
f 16//16 13//16 11//16
f 12//8 17//5 16//8
f 18//15 17//15 14//15
f 15//6 19//4 14//6
f 20//16 15//16 16//16
f 20//5 16//8 17//5
f 21//15 17//15 18//15
f 18//4 14//6 19//4
f 19//16 15//16 20//16
f 20//5 17//5 22//2
f 21//2 22//2 17//5
f 23//15 21//15 18//15
f 18//4 19//4 23//3
f 22//16 19//16 20//16
f 22//2 21//2 24//3
f 23//3 24//3 21//2
f 24//3 23//3 19//4
f 24//16 19//16 22//16
