# SSTK version 0.8.0
# 16
mtllib original-16.mtl
o mesh28/mesh28-geometry#mesh28-geometry
v -0.343048 -0.673565 0.531934
v -0.344650 -0.673565 0.554762
v -0.346999 -0.673565 0.543134
v -0.336961 -0.673565 0.563702
v -0.346999 -0.624334 0.543134
v -0.343048 -0.663722 0.531934
v -0.334184 -0.673565 0.524163
v -0.344650 -0.624334 0.554762
v -0.346999 -0.649419 0.543134
v -0.325748 -0.673565 0.567559
v -0.336961 -0.624334 0.563702
v -0.343155 -0.620814 0.554027
v -0.039447 -0.454009 0.069693
v -0.039447 -0.546784 0.069693
v -0.334184 -0.663722 0.524163
v -0.322544 -0.673565 0.521902
v -0.325748 -0.624334 0.567559
v -0.336000 -0.620814 0.562314
v -0.345290 -0.620814 0.543251
v -0.039447 -0.547285 0.069514
v -0.322544 -0.663722 0.521902
v -0.314108 -0.673565 0.565299
v -0.325641 -0.620814 0.565888
v -0.314856 -0.620814 0.563793
v -0.038807 -0.450908 0.072803
v -0.038380 -0.549397 0.075199
v -0.311332 -0.673565 0.525759
v -0.314108 -0.649419 0.565299
v -0.020866 -0.451232 0.096622
v -0.037846 -0.451319 0.077721
v -0.037846 -0.549779 0.077721
v -0.311332 -0.663722 0.525759
v -0.305138 -0.673565 0.557527
v -0.305138 -0.663722 0.557527
v -0.314108 -0.624334 0.565299
v -0.021721 -0.451170 0.096347
v 0.001666 -0.450965 0.104381
v -0.031545 -0.551120 0.084963
v -0.021721 -0.552078 0.096347
v -0.303536 -0.663722 0.534699
v -0.303536 -0.673565 0.534699
v 0.011277 -0.546662 0.102519
v 0.011170 -0.453800 0.102523
v 0.008180 -0.450693 0.103120
v -0.021187 -0.552047 0.096529
v -0.301293 -0.673565 0.546327
v 0.011384 -0.547134 0.102486
v -0.301293 -0.663722 0.546327
v -0.006343 -0.551080 0.101623
v 0.001666 -0.549905 0.104381
v 0.005724 -0.549247 0.103594
vn 0 -1 0
vn -0.89833051595628 0 0.4393202523236594
vn -0.9588140007402044 0.27197800020996704 -0.08187600006320822
vn -0.9975583443532097 0 -0.06983802410781073
vn -0.8390249296540553 0.0891119925286282 -0.5367459549978791
vn -0.8281207129978402 0 -0.5605498057300073
vn -0.5612382142920159 0 0.8276543160150314
vn -0.8439471563538844 0.2641500489377632 0.46688108649673254
vn -0.9486197535064065 0.044079988546058976 -0.313332918582175
vn -0.4401902576619212 0 -0.8979045255813846
vn -0.4989318600865539 0.2655279255390762 0.8249617686593036
vn -0.8426868515299661 0.4295899243120614 0.324547942819039
vn -0.8436865616125614 0.3141588367601264 -0.4353127738074059
vn -0.8443071027686446 0.11680601421757063 -0.5229740636561455
vn -0.06800898355209735 0.22091594657170552 0.9729187647005983
vn -0.06970199012225287 0 0.9975678586306784
vn -0.5717096987247903 0.42977377352109963 0.6988866317060617
vn -0.865972495990652 0.4629122651356217 -0.18921910837631592
vn -0.842388945025278 0.18166798814425672 -0.5073239668917853
vn -0.27305592360305914 -0.8744527553412699 -0.4009648878160547
vn -0.20096898236266142 -0.9098509201501218 -0.36301896814091233
vn -0.40841110591367435 -0.7850012035751734 -0.46580412079746436
vn 0.06966801619349622 0 -0.9975702318732564
vn 0.43752509711723786 0 0.8992061995963727
vn -0.14308304597123075 0.4288691377916017 0.8919632865793765
vn -0.0606990216563829 0.9724773469634471 0.22495208025909258
vn 0 1 0
vn -0.15063105136926427 0.9713723312642485 0.1837010626470332
vn -0.7960798891976283 0.5026129300438242 -0.3371009530806069
vn -0.021215003682871922 -0.9650861675365604 -0.26107204532145856
vn 0.05895498461339953 -0.9754567454165527 -0.21215194463068357
vn 0.5584017661288253 0 -0.8295706525572182
vn 0.6442008446171645 0.045499989025290045 0.7635018158414754
vn 0.5062561559745081 0.45162413914270877 0.7346702263475237
vn -0.10345098396334007 0.9529728522730189 0.284851955843108
vn -0.27072590618049497 0.948161671416526 0.16642394232612584
vn -0.3084351375172247 0.9410454195694284 0.13892906194216142
vn 0.08334496502354265 -0.9768225900676947 -0.19715791726092313
vn 0.8127058336180024 0.07934998375499676 0.5772458818227717
vn 0.5032299235852967 0.22478096586734997 0.8344058732967294
vn -0.13619897124056876 0.954894798366823 0.26386694428252183
vn -0.03779200227944358 0.9454690570264406 0.32351201951279
vn 0.07852397204602059 -0.9767626522793951 -0.19942092900755806
vn 0.09939698272768842 -0.9773868301585278 -0.18664196756704168
vn 0.11719006050213829 -0.9775525046845832 -0.17509309039594612
vn 0.8987823327522001 0 -0.43839516230509823
vn 0.8288411037970213 0 0.5594840700650336
vn 0.8027532396559949 0.10420903111082919 0.5871351752848293
vn 0.7227612357058484 0.30494909944955895 0.6201792022519442
vn 0.03199000168323395 0.930101048939593 0.3659080192531659
vn 0.13423496749842953 -0.9774317633398516 -0.1631199605046661
vn 0.18885203517445023 -0.9741881814464624 -0.12366202303254879
vn 0.99754664226288 0 0.07000497489503042
vn 0.7959990552339785 0.1386340096197448 0.5892080408848527
vn 0.6236777055250278 0.48204477239827587 0.6153527094557487
vn 0.15432595152267672 -0.9768466931500345 -0.14816895345673134
vn 0.4697310907440701 -0.8770671694344834 0.10052801942030606
vn 0.5764839021911552 -0.7927878654920546 0.19787296642798477
vn 0.3419469592568512 -0.9397038880338184 -0.005373999359685536
vn 0.19857498943600937 -0.9732779482225877 -0.11531699386525161
vn 0.24066214259861896 -0.9670405729968523 -0.08315204926976597
vn 0.9975583443532097 0 0.06983802410781073
vn 0.9588140007402044 -0.27197800020996704 0.08187600006320822
vn 0.89833051595628 0 -0.4393202523236594
vn 0.8281207129978402 0 0.5605498057300073
vn 0.8390249296540553 -0.0891119925286282 0.5367459549978791
vn 0.8439471563538844 -0.2641500489377632 -0.46688108649673254
vn 0.5612382142920159 0 -0.8276543160150314
vn 0.9486197535064065 -0.044079988546058976 0.313332918582175
vn 0.4401902576619212 0 0.8979045255813846
vn 0.4989318600865539 -0.2655279255390762 -0.8249617686593036
vn 0.8426868515299661 -0.4295899243120614 -0.324547942819039
vn 0.8436865616125614 -0.3141588367601264 0.4353127738074059
vn 0.8443071027686446 -0.11680601421757063 0.5229740636561455
vn 0.06970199012225287 0 -0.9975678586306784
vn 0.06800898355209735 -0.22091594657170552 -0.9729187647005983
vn 0.5717096987247903 -0.42977377352109963 -0.6988866317060617
vn 0.865972495990652 -0.4629122651356217 0.18921910837631592
vn 0.842388945025278 -0.18166798814425672 0.5073239668917853
vn 0.40841110591367435 0.7850012035751734 0.46580412079746436
vn 0.20096898236266142 0.9098509201501218 0.36301896814091233
vn 0.27305592360305914 0.8744527553412699 0.4009648878160547
vn -0.06966801619349622 0 0.9975702318732564
vn -0.43752509711723786 0 -0.8992061995963727
vn 0.14308304597123075 -0.4288691377916017 -0.8919632865793765
vn 0.0606990216563829 -0.9724773469634471 -0.22495208025909258
vn 0.15063105136926427 -0.9713723312642485 -0.1837010626470332
vn 0.7960798891976283 -0.5026129300438242 0.3371009530806069
vn 0.021215003682871922 0.9650861675365604 0.26107204532145856
vn -0.05895498461339953 0.9754567454165527 0.21215194463068357
vn -0.5584017661288253 0 0.8295706525572182
vn -0.6442008446171645 -0.045499989025290045 -0.7635018158414754
vn -0.5062561559745081 -0.45162413914270877 -0.7346702263475237
vn 0.10345098396334007 -0.9529728522730189 -0.284851955843108
vn 0.3084351375172247 -0.9410454195694284 -0.13892906194216142
vn 0.27072590618049497 -0.948161671416526 -0.16642394232612584
vn -0.08334496502354265 0.9768225900676947 0.19715791726092313
vn -0.8127058336180024 -0.07934998375499676 -0.5772458818227717
vn -0.5032299235852967 -0.22478096586734997 -0.8344058732967294
vn 0.13619897124056876 -0.954894798366823 -0.26386694428252183
vn 0.03779200227944358 -0.9454690570264406 -0.32351201951279
vn -0.07852397204602059 0.9767626522793951 0.19942092900755806
vn -0.11719006050213829 0.9775525046845832 0.17509309039594612
vn -0.09939698272768842 0.9773868301585278 0.18664196756704168
vn -0.8987823327522001 0 0.43839516230509823
vn -0.8288411037970213 0 -0.5594840700650336
vn -0.8027532396559949 -0.10420903111082919 -0.5871351752848293
vn -0.7227612357058484 -0.30494909944955895 -0.6201792022519442
vn -0.03199000168323395 -0.930101048939593 -0.3659080192531659
vn -0.13423496749842953 0.9774317633398516 0.1631199605046661
vn -0.18885203517445023 0.9741881814464624 0.12366202303254879
vn -0.99754664226288 0 -0.07000497489503042
vn -0.7959990552339785 -0.1386340096197448 -0.5892080408848527
vn -0.6236777055250278 -0.48204477239827587 -0.6153527094557487
vn -0.15432595152267672 0.9768466931500345 0.14816895345673134
vn -0.3419469592568512 0.9397038880338184 0.005373999359685536
vn -0.5764839021911552 0.7927878654920546 -0.19787296642798477
vn -0.4697310907440701 0.8770671694344834 -0.10052801942030606
vn -0.19857498943600937 0.9732779482225877 0.11531699386525161
vn -0.24066214259861896 0.9670405729968523 0.08315204926976597
usemtl material_0_0
f 1//1 2//1 3//1
f 2//1 1//1 4//1
f 2//2 5//3 3//4
f 3//4 6//5 1//6
f 4//1 1//1 7//1
f 4//7 8//8 2//2
f 5//3 2//2 8//8
f 3//4 5//3 9//9
f 6//5 3//4 9//9
f 6//5 7//10 1//6
f 4//1 7//1 10//1
f 8//8 4//7 11//11
f 5//3 8//8 12//12
f 13//13 9//9 5//3
f 14//14 6//5 9//9
f 7//10 6//5 15//10
f 10//1 7//1 16//1
f 17//15 4//7 10//16
f 4//7 17//15 11//11
f 8//8 11//11 18//17
f 12//12 8//8 18//17
f 5//3 12//12 19//18
f 9//9 13//13 14//14
f 13//13 5//3 19//18
f 20//19 6//5 14//14
f 20//20 15//21 6//22
f 21//23 7//10 15//10
f 7//10 21//23 16//23
f 10//1 16//1 22//1
f 22//24 17//15 10//16
f 23//25 11//11 17//15
f 18//17 11//11 23//25
f 24//26 12//27 18//27
f 12//27 24//26 19//28
f 13//13 19//18 25//29
f 26//30 15//21 20//20
f 26//30 21//31 15//21
f 21//23 27//32 16//23
f 22//1 16//1 27//1
f 17//15 22//24 28//33
f 17//15 24//34 23//25
f 24//26 18//27 23//27
f 29//35 19//28 24//26
f 30//36 25//37 19//28
f 31//38 21//31 26//30
f 27//32 21//23 32//32
f 22//1 27//1 33//1
f 22//24 34//39 28//33
f 17//15 28//33 35//40
f 24//34 17//15 35//40
f 29//35 36//41 19//28
f 37//42 29//35 24//26
f 36//41 30//36 19//28
f 38//43 21//31 31//38
f 39//44 32//45 21//31
f 40//46 27//32 32//32
f 33//1 27//1 41//1
f 34//39 22//24 33//47
f 42//48 28//33 34//39
f 42//48 35//40 28//33
f 43//49 24//34 35//40
f 44//50 37//42 24//26
f 39//44 21//31 38//43
f 45//51 32//45 39//44
f 27//32 40//46 41//46
f 45//51 40//52 32//45
f 33//1 41//1 46//1
f 46//53 34//39 33//47
f 47//54 42//48 34//39
f 35//40 42//48 43//49
f 43//49 44//55 24//34
f 48//53 41//46 40//46
f 49//56 40//52 45//51
f 41//46 48//53 46//53
f 34//39 46//53 48//53
f 47//57 34//58 48//59
f 50//60 48//59 40//52
f 50//60 40//52 49//56
f 47//57 48//59 51//61
f 51//61 48//59 50//60
usemtl material_1_0
f 3//27 2//27 1//27
f 4//27 1//27 2//27
f 3//62 5//63 2//64
f 1//65 6//66 3//62
f 7//27 1//27 4//27
f 2//64 8//67 4//68
f 8//67 2//64 5//63
f 9//69 5//63 3//62
f 9//69 3//62 6//66
f 1//65 7//70 6//66
f 10//27 7//27 4//27
f 11//71 4//68 8//67
f 12//72 8//67 5//63
f 5//63 9//69 13//73
f 9//69 6//66 14//74
f 15//70 6//66 7//70
f 16//27 7//27 10//27
f 10//75 4//68 17//76
f 11//71 17//76 4//68
f 18//77 11//71 8//67
f 18//77 8//67 12//72
f 19//78 12//72 5//63
f 14//74 13//73 9//69
f 19//78 5//63 13//73
f 14//74 6//66 20//79
f 6//80 15//81 20//82
f 15//70 7//70 21//83
f 16//83 21//83 7//70
f 22//27 16//27 10//27
f 10//75 17//76 22//84
f 17//76 11//71 23//85
f 23//85 11//71 18//77
f 18//1 12//1 24//86
f 19//87 24//86 12//1
f 25//88 19//78 13//73
f 20//82 15//81 26//89
f 15//81 21//90 26//89
f 16//83 27//91 21//83
f 27//27 16//27 22//27
f 28//92 22//84 17//76
f 23//85 24//93 17//76
f 23//1 18//1 24//86
f 24//86 19//87 29//94
f 19//87 25//95 30//96
f 26//89 21//90 31//97
f 32//91 21//83 27//91
f 33//27 27//27 22//27
f 28//92 34//98 22//84
f 35//99 28//92 17//76
f 35//99 17//76 24//93
f 19//87 36//100 29//94
f 24//86 29//94 37//101
f 19//87 30//96 36//100
f 31//97 21//90 38//102
f 21//90 32//103 39//104
f 32//91 27//91 40//105
f 41//27 27//27 33//27
f 33//106 22//84 34//98
f 34//98 28//92 42//107
f 28//92 35//99 42//107
f 35//99 24//93 43//108
f 24//86 37//101 44//109
f 38//102 21//90 39//104
f 39//104 32//103 45//110
f 41//105 40//105 27//91
f 32//103 40//111 45//110
f 46//27 41//27 33//27
f 33//106 34//98 46//112
f 34//98 42//107 47//113
f 43//108 42//107 35//99
f 24//93 44//114 43//108
f 40//105 41//105 48//112
f 45//110 40//111 49//115
f 46//112 48//112 41//105
f 48//112 46//112 34//98
f 48//116 34//117 47//118
f 40//111 48//116 50//119
f 49//115 40//111 50//119
f 51//120 48//116 47//118
f 50//119 48//116 51//120
