# SSTK version 0.8.0
# 41
mtllib original-41.mtl
o mesh53/mesh53-geometry#mesh53-geometry
v -0.346251 -0.707263 0.552678
v -0.327030 -0.731100 0.573350
v -0.323399 -0.707263 0.568055
v -0.349776 -0.731100 0.557974
v -0.326602 -0.733863 0.572737
v -0.336427 -0.689813 0.538211
v -0.349348 -0.733863 0.557360
v -0.274062 -0.733863 0.494916
v -0.313681 -0.689813 0.553589
v -0.296915 -0.733863 0.479539
v -0.286984 -0.689813 0.514064
v -0.323078 -0.683425 0.518449
v -0.300012 -0.707263 0.484220
v -0.277266 -0.707263 0.499598
v -0.273635 -0.731100 0.494303
v -0.300332 -0.683425 0.533826
v -0.309837 -0.689813 0.498688
v -0.296488 -0.731100 0.478925
vn -0.5068728897587066 0.42136390835630927 0.7520188364411851
vn -0.5572738145805436 0.08824997063694497 0.8256257252929007
vn -0.45697591894481754 0.5755188979184954 0.6781968797061957
vn -0.5600570969923766 -0.0017590003046291597 0.8284521434738398
vn 0.827296444438247 0.0005820003126607123 0.5617653017902321
vn 0.8226427125596374 0.0009969996516372896 0.5685578013396848
vn 0.8257318219107214 -0.0001659999641981698 0.5640628783460339
vn -0.32155091136675434 0.8182137744651314 0.4765828686332866
vn -0.8260786962302674 -0.0029999988968254835 -0.5635467927697938
vn -0.8276336430565842 -0.0010279995566422665 -0.5612677579353711
vn -0.8266980457374841 -0.002768000153140872 -0.5626390311282866
vn -0.5406201470000441 -0.26120607102455257 0.7996882174432527
vn 0.8279823140057282 0.000026000009860173094 0.5607542126615893
vn -0.28016704748201476 0.8658901467489096 0.4144160702342056
vn -0.8284810723516693 -0.00013300001161483364 -0.560017048906571
vn 0 -1 0
vn 0.8294449918635594 0.0012549999876889535 0.5585869945205408
vn -0.000033999999201816025 0.9999999765240009 -0.00021399999497591414
vn 0.8286707613088795 0.0012959996266989008 0.5597348387734404
vn -0.8286931894811338 0.00007900001806351998 -0.5597031279764147
vn -0.8280111111211685 0.0022750003053108735 -0.5607070752482962
vn 0.8270443721696378 0.0006630002983497452 0.5621362529610897
vn 0.538883208564817 -0.26119810109191227 -0.8008623099590011
vn 0.5582682177266013 -0.0005870002289320042 -0.8296603235704931
vn -0.8297032728803246 0.0012980004268982564 -0.5582031835869171
vn -0.8296841144748439 0.006936000956987987 -0.5581900770157231
vn 0.8286709928295098 0.000036999999679714716 0.5597359951566044
vn -0.8266980457374841 0.002768000153141122 -0.5626390311282866
vn 0.8226427125596374 -0.0009969996516375418 0.5685578013396848
vn 0.5074608083013876 0.42085784101656176 -0.7519057159597743
vn 0.45782293701867627 0.574901920912473 -0.6781489067090956
vn 0.3215169438690945 0.8181548571653104 -0.47670691677579846
vn 0.5566900733522724 0.08825301162865903 -0.8260191088404151
vn 0.27903608833921206 0.866243274241403 -0.41444113120669496
vn 0.45697591894481754 -0.5755188979184954 -0.6781968797061957
vn 0.5572738145805436 -0.08824997063694497 -0.8256257252929007
vn 0.5068728897587066 -0.42136390835630927 -0.7520188364411851
vn 0.5600570969923766 0.0017590003046291597 -0.8284521434738398
vn -0.8257318219107214 0.0001659999641981698 -0.5640628783460339
vn -0.8226427125596374 -0.0009969996516372896 -0.5685578013396848
vn -0.827296444438247 -0.0005820003126607123 -0.5617653017902321
vn 0.32155091136675434 -0.8182137744651314 -0.4765828686332866
vn 0.8266980457374841 0.002768000153140872 0.5626390311282866
vn 0.8276336430565842 0.0010279995566422665 0.5612677579353711
vn 0.8260786962302674 0.0029999988968254835 0.5635467927697938
vn 0.5406201470000441 0.26120607102455257 -0.7996882174432527
vn -0.8279823140057282 -0.000026000009860173094 -0.5607542126615893
vn 0.28016704748201476 -0.8658901467489096 -0.4144160702342056
vn 0.8284810723516693 0.00013300001161483364 0.560017048906571
vn 0 1 0
vn -0.8294449918635594 -0.0012549999876889535 -0.5585869945205408
vn 0.000033999999201816025 -0.9999999765240009 0.00021399999497591414
vn -0.8286707613088795 -0.0012959996266989008 -0.5597348387734404
vn 0.8286931894811338 -0.00007900001806351998 0.5597031279764147
vn 0.8280111111211685 -0.0022750003053108735 0.5607070752482962
vn -0.8270443721696378 -0.0006630002983497452 -0.5621362529610897
vn -0.538883208564817 0.26119810109191227 0.8008623099590011
vn -0.5582682177266013 0.0005870002289320042 0.8296603235704931
vn 0.8296841144748439 -0.006936000956987987 0.5581900770157231
vn 0.8297032728803246 -0.0012980004268982564 0.5582031835869171
vn -0.8286709928295098 -0.000036999999679714716 -0.5597359951566044
vn 0.8266980457374841 -0.002768000153141122 0.5626390311282866
vn -0.8226427125596374 0.0009969996516375418 -0.5685578013396848
vn -0.3215169438690945 -0.8181548571653104 0.47670691677579846
vn -0.45782293701867627 -0.574901920912473 0.6781489067090956
vn -0.5074608083013876 -0.42085784101656176 0.7519057159597743
vn -0.5566900733522724 -0.08825301162865903 0.8260191088404151
vn -0.27903608833921206 -0.866243274241403 0.41444113120669496
usemtl material_0_0
f 1//1 2//2 3//3
f 1//1 4//4 2//2
f 3//5 2//6 5//7
f 3//3 6//8 1//1
f 1//9 7//10 4//11
f 7//12 2//2 4//4
f 2//2 7//12 5//12
f 8//13 3//5 5//7
f 9//14 6//8 3//3
f 6//15 7//10 1//9
f 10//16 5//16 7//16
f 8//13 11//17 3//5
f 5//16 10//16 8//16
f 9//14 12//18 6//8
f 11//17 9//19 3//5
f 13//20 7//10 6//15
f 10//21 7//10 13//20
f 8//13 14//22 11//17
f 10//23 15//24 8//23
f 12//18 9//14 16//18
f 17//25 6//15 12//26
f 11//17 16//27 9//19
f 13//20 6//15 17//25
f 18//28 10//21 13//20
f 15//29 14//22 8//13
f 14//30 13//31 11//32
f 15//24 10//23 18//33
f 16//18 17//34 12//18
f 17//34 16//18 11//32
f 11//32 13//31 17//34
f 14//30 18//33 13//31
f 14//30 15//24 18//33
usemtl material_1_0
f 3//35 2//36 1//37
f 2//36 4//38 1//37
f 5//39 2//40 3//41
f 1//37 6//42 3//35
f 4//43 7//44 1//45
f 4//38 2//36 7//46
f 5//46 7//46 2//36
f 5//39 3//41 8//47
f 3//35 6//42 9//48
f 1//45 7//44 6//49
f 7//50 5//50 10//50
f 3//41 11//51 8//47
f 8//50 10//50 5//50
f 6//42 12//52 9//48
f 3//41 9//53 11//51
f 6//49 7//44 13//54
f 13//54 7//44 10//55
f 11//51 14//56 8//47
f 8//57 15//58 10//57
f 16//52 9//48 12//52
f 12//59 6//49 17//60
f 9//53 16//61 11//51
f 17//60 6//49 13//54
f 13//54 10//55 18//62
f 8//47 14//56 15//63
f 11//64 13//65 14//66
f 18//67 10//57 15//58
f 12//52 17//68 16//52
f 11//64 16//52 17//68
f 17//68 13//65 11//64
f 13//65 18//67 14//66
f 18//67 15//58 14//66
