mtllib new-4.mtl
v -0.070919 -0.592087 -0.013882
v -0.075124 -0.614309 -0.006633
v -0.075728 -0.568638 -0.009287
v -0.099307 -0.635210 0.001212
v -0.088175 -0.592306 -0.012334
v -0.063541 -0.548503 -0.001776
v -0.117945 -0.635053 0.067507
v -0.095742 -0.614599 -0.007460
v -0.094991 -0.569051 -0.009669
v -0.079740 -0.548801 0.001891
v -0.240977 -0.638750 0.013935
v -0.124999 -0.615306 -0.015625
v -0.130494 -0.593489 -0.023293
v -0.105094 -0.614265 0.083841
v -0.353357 -0.644444 0.001270
v -0.276274 -0.641077 -0.042029
v -0.123637 -0.570009 -0.017550
v -0.114401 -0.549905 -0.003803
v -0.084566 -0.548509 0.095041
v -0.104283 -0.592078 0.092487
v -0.130550 -0.614758 0.073519
v -0.257498 -0.619454 0.037826
v -0.334480 -0.644625 -0.064926
v -0.192191 -0.617621 -0.034501
v -0.219145 -0.597490 -0.048214
v -0.095086 -0.548722 0.081971
v -0.138972 -0.592912 0.077378
v -0.435990 -0.633194 -0.012343
v -0.341082 -0.626559 -0.076370
v -0.189429 -0.573095 -0.036055
v -0.182235 -0.553227 -0.022815
v -0.094029 -0.568502 0.099668
v -0.106466 -0.568745 0.086190
v -0.130199 -0.569414 0.075991
v -0.587339 -0.673562 -0.064423
v -0.316162 -0.602193 0.027506
v -0.446235 -0.652995 -0.066296
v -0.334993 -0.584854 -0.076971
v -0.395974 -0.612613 -0.097922
v -0.227712 -0.555051 0.037401
v -0.196542 -0.572211 0.057344
v -0.545668 -0.664950 -0.059122
v -0.592535 -0.660007 -0.057230
v -0.492291 -0.622576 -0.021995
v -0.568698 -0.674036 -0.130738
v -0.459393 -0.639160 -0.109604
v -0.317055 -0.564608 -0.060704
v -0.574092 -0.672837 -0.100785
v -0.581326 -0.642491 -0.046928
v -0.599057 -0.677265 -0.070409
v -0.371060 -0.586211 0.008277
v -0.450723 -0.601273 -0.109490
v -0.518797 -0.648949 -0.126310
v -0.344515 -0.565778 0.002526
v -0.597126 -0.677676 -0.082593
v -0.593998 -0.644282 -0.053092
v -0.600376 -0.661241 -0.062619
v -0.515581 -0.609695 -0.032337
v -0.483520 -0.625889 -0.122527
v -0.362729 -0.567946 -0.000576
v -0.581893 -0.677826 -0.131808
v -0.581783 -0.627924 -0.051774
v -0.607891 -0.681430 -0.080532
v -0.606982 -0.662515 -0.070115
v -0.496828 -0.591209 -0.038260
v -0.563508 -0.659713 -0.138810
v -0.451625 -0.585102 -0.098530
v -0.527155 -0.635446 -0.134784
v -0.594557 -0.681945 -0.127807
v -0.593054 -0.629891 -0.060851
v -0.605625 -0.645241 -0.065297
v -0.562894 -0.611455 -0.056860
v -0.508191 -0.613735 -0.125647
v -0.578216 -0.661422 -0.139227
v -0.577762 -0.618446 -0.064006
v -0.613551 -0.665527 -0.087897
v -0.612127 -0.685363 -0.093069
v -0.611442 -0.646713 -0.080658
v -0.545696 -0.605794 -0.063137
v -0.548486 -0.641586 -0.140740
v -0.518497 -0.601902 -0.117325
v -0.551484 -0.627008 -0.137772
v -0.562072 -0.643858 -0.143787
v -0.592082 -0.663404 -0.134157
v -0.600196 -0.631974 -0.074418
v -0.582856 -0.621727 -0.070561
v -0.604817 -0.685793 -0.119055
v -0.567330 -0.616420 -0.090530
v -0.550130 -0.613488 -0.126122
v -0.578920 -0.645078 -0.141892
v -0.613238 -0.667239 -0.101150
v -0.611697 -0.647890 -0.095601
v -0.611172 -0.687643 -0.106851
v -0.566719 -0.629042 -0.138074
v -0.602601 -0.665624 -0.125087
v -0.593335 -0.646171 -0.133719
v -0.585599 -0.624192 -0.078053
v -0.583652 -0.625498 -0.095252
v -0.609872 -0.667359 -0.113030
v -0.598947 -0.633522 -0.101252
v -0.558865 -0.617206 -0.126312
v -0.580588 -0.631000 -0.132287
v -0.585802 -0.625546 -0.086832
v -0.573108 -0.623230 -0.119383
v -0.603280 -0.647664 -0.121692
v -0.566193 -0.620343 -0.124073
v -0.593237 -0.633248 -0.117935
v -0.578368 -0.625087 -0.112370
vn -0.308418 -0.016818 -0.951102
vn -0.104735 -0.327413 -0.939059
vn -0.214355 0.342386 -0.914781
vn 0.088882 -0.885897 -0.455287
vn 0.094916 -0.089479 -0.991456
vn -0.187044 0.862993 -0.469315
vn 0.026605 -0.999594 -0.010223
vn 0.152039 -0.334002 -0.930229
vn 0.148702 0.313084 -0.938012
vn -0.019926 0.922455 -0.385590
vn 0.040050 -0.999186 -0.004809
vn 0.260786 -0.335997 -0.905040
vn 0.266892 -0.079876 -0.960411
vn -0.483391 -0.360086 0.797917
vn -0.311650 -0.407840 0.858220
vn 0.099722 -0.991315 -0.085729
vn 0.029620 -0.997805 0.059227
vn 0.245921 0.291049 -0.924561
vn 0.134536 0.738246 -0.660978
vn -0.625142 0.734683 0.263513
vn -0.606404 -0.065968 0.792416
vn -0.293457 -0.354677 0.887743
vn -0.213578 -0.423103 0.880550
vn -0.236300 -0.348868 0.906892
vn 0.046948 -0.993576 0.102968
vn 0.274563 -0.412124 -0.868774
vn 0.269461 -0.341580 -0.900397
vn 0.269806 0.016863 -0.962767
vn -0.325859 0.841735 0.430463
vn -0.318824 -0.095781 0.942962
vn -0.203925 -0.377176 0.903412
vn 0.279448 -0.331480 -0.901127
vn 0.232007 0.361947 -0.902866
vn 0.083968 0.864223 -0.496052
vn -0.812377 0.329557 0.481078
vn -0.608862 0.282154 0.741401
vn -0.337341 0.291453 0.895129
vn 0.062096 -0.912691 0.403905
vn -0.264922 -0.066391 0.961982
vn 0.097183 -0.993142 0.064994
vn 0.220463 0.346064 -0.911941
vn 0.281450 -0.102884 -0.954044
vn -0.214747 0.831351 0.512580
vn -0.274993 0.296995 0.914425
vn 0.172716 -0.983219 -0.058730
vn -0.333521 -0.404751 0.851434
vn -0.270796 -0.002053 0.962635
vn 0.266782 -0.867350 -0.420157
vn 0.297510 -0.385926 -0.873240
vn 0.013785 0.904981 -0.425229
vn 0.233554 -0.969497 0.074353
vn -0.329509 -0.029912 0.943678
vn -0.285086 -0.723681 0.628500
vn -0.295158 0.381830 0.875835
vn 0.194652 0.355481 -0.914190
vn 0.320716 -0.397616 -0.859676
vn -0.117067 0.991749 0.052236
vn 0.304327 -0.948325 0.089805
vn -0.595544 0.071428 0.800141
vn -0.629549 -0.263466 0.730927
vn -0.342700 0.427327 0.836629
vn 0.281941 -0.069808 -0.956889
vn -0.214351 0.924298 0.315796
vn 0.204904 -0.854045 -0.478144
vn -0.488764 0.540776 0.684596
vn 0.374974 -0.920632 0.108774
vn -0.827922 -0.182962 0.530160
vn -0.310829 0.887503 0.340183
vn 0.237004 -0.413557 -0.879090
vn -0.038540 0.876358 -0.480116
vn 0.275412 -0.029851 -0.960863
vn 0.393166 -0.911274 0.122475
vn -0.644313 0.653941 0.396511
vn -0.828926 0.206621 0.519797
vn -0.843549 -0.228893 0.485832
vn -0.411578 0.880341 0.235804
vn 0.130253 0.451784 -0.882567
vn -0.125590 -0.289698 -0.948843
vn -0.360072 -0.285138 -0.888282
vn -0.504819 0.851095 0.144207
vn -0.983533 -0.037155 0.176866
vn 0.485364 -0.861483 0.149225
vn -0.947370 0.250417 0.199454
vn -0.305410 0.950775 -0.052453
vn 0.256841 -0.058988 -0.964652
vn -0.132811 0.871800 -0.471514
vn 0.070751 0.434500 -0.897889
vn 0.042159 0.022063 -0.998867
vn -0.504536 -0.140609 -0.851864
vn -0.662175 0.748150 0.042382
vn -0.497929 0.866243 -0.041111
vn -0.989391 -0.106398 0.098920
vn 0.509937 -0.845678 0.157457
vn -0.419164 0.901412 -0.108437
vn -0.276417 0.885055 -0.374528
vn -0.334443 0.163091 -0.928197
vn -0.751932 -0.126830 -0.646925
vn -0.991281 0.013803 -0.131041
vn -0.923975 0.355279 -0.141585
vn 0.566150 -0.806026 0.172615
vn -0.221137 0.580807 -0.783429
vn -0.762830 -0.019745 -0.646297
vn -0.650132 0.296683 -0.699506
vn -0.484176 0.867094 -0.117140
vn -0.469175 0.874831 -0.120605
vn -0.960549 -0.065634 -0.270256
vn -0.917546 0.038360 -0.395774
vn -0.618794 0.770880 -0.151122
vn -0.390978 0.857108 -0.335414
vn -0.477722 0.690075 -0.543671
vn -0.467611 0.877562 -0.105943
vn -0.456112 0.882324 -0.116047
vn -0.830393 0.366688 -0.419508
vn -0.449030 0.873686 -0.187204
vn -0.569764 0.776137 -0.270148
vn -0.447161 0.886676 -0.117695
vn 0.324573 -0.942677 0.077541
vn 0.308418 0.016818 0.951102
vn 0.104735 0.327413 0.939059
vn 0.214355 -0.342386 0.914781
vn -0.088882 0.885897 0.455287
vn -0.094916 0.089479 0.991456
vn 0.187044 -0.862993 0.469315
vn -0.026605 0.999594 0.010223
vn -0.152039 0.334002 0.930229
vn -0.148702 -0.313084 0.938012
vn 0.019926 -0.922455 0.385590
vn -0.040050 0.999186 0.004809
vn -0.260786 0.335997 0.905040
vn -0.266892 0.079876 0.960411
vn 0.483391 0.360086 -0.797917
vn 0.311650 0.407840 -0.858220
vn -0.099722 0.991315 0.085729
vn -0.029620 0.997805 -0.059227
vn -0.245921 -0.291049 0.924561
vn -0.134536 -0.738246 0.660978
vn 0.625142 -0.734683 -0.263513
vn 0.606404 0.065968 -0.792416
vn 0.293457 0.354677 -0.887743
vn 0.236300 0.348868 -0.906892
vn 0.213578 0.423103 -0.880550
vn -0.046948 0.993576 -0.102968
vn -0.274563 0.412124 0.868774
vn -0.269461 0.341580 0.900397
vn -0.269806 -0.016863 0.962767
vn 0.325859 -0.841735 -0.430463
vn 0.318824 0.095781 -0.942962
vn 0.203925 0.377176 -0.903412
vn -0.279448 0.331480 0.901127
vn -0.232007 -0.361947 0.902866
vn -0.083968 -0.864223 0.496052
vn 0.812377 -0.329557 -0.481078
vn 0.608862 -0.282154 -0.741401
vn 0.337341 -0.291453 -0.895129
vn -0.062096 0.912691 -0.403905
vn 0.264922 0.066391 -0.961982
vn -0.097183 0.993142 -0.064994
vn -0.220463 -0.346064 0.911941
vn -0.281450 0.102884 0.954044
vn 0.214747 -0.831351 -0.512580
vn 0.274993 -0.296995 -0.914425
vn -0.172716 0.983219 0.058730
vn 0.333521 0.404751 -0.851434
vn 0.270796 0.002053 -0.962635
vn -0.266782 0.867350 0.420157
vn -0.297510 0.385926 0.873240
vn -0.013785 -0.904981 0.425229
vn -0.233554 0.969497 -0.074353
vn 0.329509 0.029912 -0.943678
vn 0.285086 0.723681 -0.628500
vn 0.295158 -0.381830 -0.875835
vn -0.194652 -0.355481 0.914190
vn -0.320716 0.397616 0.859676
vn 0.117067 -0.991749 -0.052236
vn -0.304327 0.948325 -0.089805
vn 0.595544 -0.071428 -0.800141
vn 0.629549 0.263466 -0.730927
vn 0.342700 -0.427327 -0.836629
vn -0.281941 0.069808 0.956889
vn 0.214351 -0.924298 -0.315796
vn -0.204904 0.854045 0.478144
vn 0.488764 -0.540776 -0.684596
vn -0.374974 0.920632 -0.108774
vn 0.827922 0.182962 -0.530160
vn 0.310829 -0.887503 -0.340183
vn -0.237004 0.413557 0.879090
vn 0.038540 -0.876358 0.480116
vn -0.275412 0.029851 0.960863
vn -0.393166 0.911274 -0.122475
vn 0.644313 -0.653941 -0.396511
vn 0.828926 -0.206621 -0.519797
vn 0.843549 0.228893 -0.485832
vn 0.411578 -0.880341 -0.235804
vn -0.130253 -0.451784 0.882567
vn 0.125590 0.289698 0.948843
vn 0.360072 0.285138 0.888282
vn 0.504819 -0.851095 -0.144207
vn 0.983533 0.037155 -0.176866
vn -0.485364 0.861483 -0.149225
vn 0.947370 -0.250417 -0.199454
vn 0.305410 -0.950775 0.052453
vn -0.256841 0.058988 0.964652
vn 0.132811 -0.871800 0.471514
vn -0.070751 -0.434500 0.897889
vn -0.042159 -0.022063 0.998867
vn 0.504536 0.140609 0.851864
vn 0.662175 -0.748150 -0.042382
vn 0.497929 -0.866243 0.041111
vn 0.989391 0.106398 -0.098920
vn -0.509937 0.845678 -0.157457
vn 0.419164 -0.901412 0.108437
vn 0.276417 -0.885055 0.374528
vn 0.334443 -0.163091 0.928197
vn 0.751932 0.126830 0.646925
vn 0.991281 -0.013803 0.131041
vn 0.923975 -0.355279 0.141585
vn -0.566150 0.806026 -0.172615
vn 0.221137 -0.580807 0.783429
vn 0.762830 0.019745 0.646297
vn 0.650132 -0.296683 0.699506
vn 0.484176 -0.867094 0.117140
vn 0.469175 -0.874831 0.120605
vn 0.960549 0.065634 0.270256
vn 0.917546 -0.038360 0.395774
vn 0.618794 -0.770880 0.151122
vn 0.390978 -0.857108 0.335414
vn 0.477722 -0.690075 0.543671
vn 0.467611 -0.877562 0.105943
vn 0.456112 -0.882324 0.116047
vn 0.830393 -0.366688 0.419508
vn 0.449030 -0.873686 0.187204
vn 0.569764 -0.776137 0.270148
vn 0.447161 -0.886676 0.117695
vn -0.324573 0.942677 -0.077541
usemtl material-0
f 1//1 2//2 5//5
f 3//3 1//1 5//5
f 5//5 2//2 8//8
f 3//3 5//5 9//9
f 4//4 7//7 11//11
f 2//2 4//4 8//8
f 12//12 5//5 8//8
f 13//13 9//9 5//5
f 10//10 3//3 9//9
f 6//6 3//3 10//10
f 7//7 15//16 11//11
f 4//4 11//11 16//17
f 12//12 8//8 4//4
f 13//13 5//5 12//12
f 13//13 17//18 9//9
f 18//19 10//10 9//9
f 21//22 7//15 14//14
f 15//23 7//15 22//24
f 16//17 11//11 15//16
f 4//4 16//17 23//25
f 23//26 12//12 4//4
f 24//27 13//13 12//12
f 25//28 17//18 13//13
f 17//18 18//19 9//9
f 10//10 18//19 26//29
f 10//10 26//29 19//20
f 27//30 14//14 20//21
f 22//24 7//15 21//22
f 27//30 21//22 14//14
f 28//31 15//23 22//24
f 16//17 15//16 23//25
f 23//26 24//27 12//12
f 29//32 13//13 24//27
f 25//28 30//33 17//18
f 29//32 25//28 13//13
f 30//33 18//19 17//18
f 18//19 31//34 26//29
f 27//30 20//21 34//37
f 22//24 21//22 27//30
f 35//38 15//23 28//31
f 28//31 22//24 36//39
f 23//25 15//16 37//40
f 29//32 24//27 23//26
f 38//41 30//33 25//28
f 39//42 25//28 29//32
f 30//33 31//34 18//19
f 26//29 31//34 40//43
f 33//36 32//35 26//29
f 34//37 20//21 33//36
f 41//44 27//30 34//37
f 36//39 22//24 27//30
f 15//16 35//38 42//45
f 35//38 28//31 43//46
f 44//47 28//31 36//39
f 15//16 42//45 37//40
f 23//25 37//40 45//48
f 46//49 29//32 23//26
f 38//41 31//34 30//33
f 39//42 38//41 25//28
f 46//49 39//42 29//32
f 31//34 47//50 40//43
f 40//43 34//37 26//29
f 34//37 33//36 26//29
f 36//39 27//30 41//44
f 40//43 41//44 34//37
f 48//51 42//45 35//38
f 43//46 28//31 49//52
f 50//53 35//38 43//46
f 49//52 28//31 44//47
f 44//47 36//39 51//54
f 37//40 42//45 45//48
f 45//48 46//49 23//26
f 38//41 47//50 31//34
f 52//55 38//41 39//42
f 53//56 39//42 46//49
f 40//43 47//50 54//57
f 51//54 36//39 41//44
f 51//54 41//44 40//43
f 45//48 42//45 48//51
f 48//51 35//38 55//58
f 43//46 49//52 56//59
f 55//58 35//38 50//53
f 50//53 43//46 57//60
f 49//52 44//47 58//61
f 58//61 44//47 51//54
f 45//48 53//56 46//49
f 52//55 47//50 38//41
f 59//62 52//55 39//42
f 53//56 59//62 39//42
f 47//50 60//63 54//57
f 40//43 54//57 60//63
f 60//63 51//54 40//43
f 45//48 48//51 61//64
f 61//64 48//51 55//58
f 56//59 49//52 62//65
f 57//60 43//46 56//59
f 55//58 50//53 63//66
f 64//67 50//53 57//60
f 62//65 49//52 58//61
f 58//61 51//54 65//68
f 66//69 53//56 45//48
f 52//55 67//70 47//50
f 68//71 52//55 59//62
f 68//71 59//62 53//56
f 47//50 67//70 60//63
f 65//68 51//54 60//63
f 61//64 66//69 45//48
f 61//64 55//58 69//72
f 70//73 56//59 62//65
f 71//74 57//60 56//59
f 63//75 50//53 64//67
f 69//72 55//58 63//66
f 64//67 57//60 71//74
f 62//65 58//61 72//76
f 72//76 58//61 65//68
f 66//69 68//71 53//56
f 73//77 67//70 52//55
f 68//71 73//77 52//55
f 60//63 67//70 65//68
f 66//69 61//64 74//78
f 74//78 61//64 69//79
f 71//74 56//59 70//73
f 75//80 70//73 62//65
f 76//81 63//75 64//67
f 69//72 63//66 77//82
f 78//83 64//67 71//74
f 72//76 75//80 62//65
f 65//68 79//84 72//76
f 66//69 80//85 68//71
f 67//70 73//77 81//86
f 82//87 73//77 68//71
f 67//70 81//86 65//68
f 83//88 66//69 74//78
f 74//78 69//79 84//89
f 85//90 71//74 70//73
f 86//91 70//73 75//80
f 77//92 63//75 76//81
f 76//81 64//67 78//83
f 69//72 77//82 87//93
f 78//83 71//74 85//90
f 88//94 75//80 72//76
f 81//86 79//84 65//68
f 89//95 72//76 79//84
f 83//88 80//85 66//69
f 80//85 82//87 68//71
f 81//86 73//77 82//87
f 83//88 74//78 90//96
f 84//89 69//79 87//97
f 90//96 74//78 84//89
f 86//91 85//90 70//73
f 88//94 86//91 75//80
f 91//98 77//92 76//81
f 92//99 76//81 78//83
f 87//93 77//82 93//100
f 92//99 78//83 85//90
f 89//95 88//94 72//76
f 81//86 89//95 79//84
f 83//88 82//87 80//85
f 81//86 82//87 89//95
f 94//101 83//88 90//96
f 84//89 87//97 95//102
f 90//96 84//89 96//103
f 97//104 85//90 86//91
f 88//94 98//105 86//91
f 93//106 77//92 91//98
f 91//98 76//81 92//99
f 99//107 87//97 93//106
f 100//108 92//99 85//90
f 89//95 101//109 88//94
f 82//87 83//88 94//101
f 82//87 94//101 89//95
f 94//101 90//96 102//110
f 95//102 87//97 99//107
f 96//103 84//89 95//102
f 102//110 90//96 96//103
f 103//111 85//90 97//104
f 98//105 97//104 86//91
f 104//112 98//105 88//94
f 91//98 99//107 93//106
f 92//99 99//107 91//98
f 100//108 105//113 92//99
f 103//111 100//108 85//90
f 89//95 94//101 101//109
f 101//109 106//114 88//94
f 94//101 102//110 101//109
f 105//113 95//102 99//107
f 96//103 95//102 105//113
f 102//110 96//103 107//115
f 98//105 103//111 97//104
f 104//112 108//116 98//105
f 106//114 104//112 88//94
f 105//113 99//107 92//99
f 107//115 105//113 100//108
f 108//116 100//108 103//111
f 101//109 102//110 106//114
f 107//115 96//103 105//113
f 106//114 102//110 107//115
f 108//117 103//117 98//117
f 104//112 107//115 108//116
f 106//114 107//115 104//112
f 108//116 107//115 100//108
usemtl material-1
f 5//122 2//119 1//118
f 5//122 1//118 3//120
f 8//125 2//119 5//122
f 9//126 5//122 3//120
f 11//128 7//124 4//121
f 8//125 4//121 2//119
f 8//125 5//122 12//129
f 5//122 9//126 13//130
f 9//126 3//120 10//127
f 10//127 3//120 6//123
f 11//128 15//133 7//124
f 16//134 11//128 4//121
f 4//121 8//125 12//129
f 12//129 5//122 13//130
f 9//126 17//135 13//130
f 9//126 10//127 18//136
f 14//131 7//132 21//139
f 22//140 7//132 15//141
f 15//133 11//128 16//134
f 23//142 16//134 4//121
f 4//121 12//129 23//143
f 12//129 13//130 24//144
f 13//130 17//135 25//145
f 9//126 18//136 17//135
f 26//146 18//136 10//127
f 19//137 26//146 10//127
f 20//138 14//131 27//147
f 21//139 7//132 22//140
f 14//131 21//139 27//147
f 22//140 15//141 28//148
f 23//142 15//133 16//134
f 12//129 24//144 23//143
f 24//144 13//130 29//149
f 17//135 30//150 25//145
f 13//130 25//145 29//149
f 17//135 18//136 30//150
f 26//146 31//151 18//136
f 34//154 20//138 27//147
f 27//147 21//139 22//140
f 28//148 15//141 35//155
f 36//156 22//140 28//148
f 37//157 15//133 23//142
f 23//143 24//144 29//149
f 25//145 30//150 38//158
f 29//149 25//145 39//159
f 18//136 31//151 30//150
f 40//160 31//151 26//146
f 26//146 32//152 33//153
f 33//153 20//138 34//154
f 34//154 27//147 41//161
f 27//147 22//140 36//156
f 42//162 35//155 15//133
f 43//163 28//148 35//155
f 36//156 28//148 44//164
f 37//157 42//162 15//133
f 45//165 37//157 23//142
f 23//143 29//149 46//166
f 30//150 31//151 38//158
f 25//145 38//158 39//159
f 29//149 39//159 46//166
f 40//160 47//167 31//151
f 26//146 34//154 40//160
f 26//146 33//153 34//154
f 41//161 27//147 36//156
f 34//154 41//161 40//160
f 35//155 42//162 48//168
f 49//169 28//148 43//163
f 43//163 35//155 50//170
f 44//164 28//148 49//169
f 51//171 36//156 44//164
f 45//165 42//162 37//157
f 23//143 46//166 45//165
f 31//151 47//167 38//158
f 39//159 38//158 52//172
f 46//166 39//159 53//173
f 54//174 47//167 40//160
f 41//161 36//156 51//171
f 40//160 41//161 51//171
f 48//168 42//162 45//165
f 55//175 35//155 48//168
f 56//176 49//169 43//163
f 50//170 35//155 55//175
f 57//177 43//163 50//170
f 58//178 44//164 49//169
f 51//171 44//164 58//178
f 46//166 53//173 45//165
f 38//158 47//167 52//172
f 39//159 52//172 59//179
f 39//159 59//179 53//173
f 54//174 60//180 47//167
f 60//180 54//174 40//160
f 40//160 51//171 60//180
f 61//181 48//168 45//165
f 55//175 48//168 61//181
f 62//182 49//169 56//176
f 56//176 43//163 57//177
f 63//183 50//170 55//175
f 57//177 50//170 64//184
f 58//178 49//169 62//182
f 65//185 51//171 58//178
f 45//165 53//173 66//186
f 47//167 67//187 52//172
f 59//179 52//172 68//188
f 53//173 59//179 68//188
f 60//180 67//187 47//167
f 60//180 51//171 65//185
f 45//165 66//186 61//181
f 69//189 55//175 61//181
f 62//182 56//176 70//190
f 56//176 57//177 71//191
f 64//184 50//170 63//192
f 63//183 55//175 69//189
f 71//191 57//177 64//184
f 72//193 58//178 62//182
f 65//185 58//178 72//193
f 53//173 68//188 66//186
f 52//172 67//187 73//194
f 52//172 73//194 68//188
f 65//185 67//187 60//180
f 74//195 61//181 66//186
f 69//196 61//181 74//195
f 70//190 56//176 71//191
f 62//182 70//190 75//197
f 64//184 63//192 76//198
f 77//199 63//183 69//189
f 71//191 64//184 78//200
f 62//182 75//197 72//193
f 72//193 79//201 65//185
f 68//188 80//202 66//186
f 81//203 73//194 67//187
f 68//188 73//194 82//204
f 65//185 81//203 67//187
f 74//195 66//186 83//205
f 84//206 69//196 74//195
f 70//190 71//191 85//207
f 75//197 70//190 86//208
f 76//198 63//192 77//209
f 78//200 64//184 76//198
f 87//210 77//199 69//189
f 85//207 71//191 78//200
f 72//193 75//197 88//211
f 65//185 79//201 81//203
f 79//201 72//193 89//212
f 66//186 80//202 83//205
f 68//188 82//204 80//202
f 82//204 73//194 81//203
f 90//213 74//195 83//205
f 87//214 69//196 84//206
f 84//206 74//195 90//213
f 70//190 85//207 86//208
f 75//197 86//208 88//211
f 76//198 77//209 91//215
f 78//200 76//198 92//216
f 93//217 77//199 87//210
f 85//207 78//200 92//216
f 72//193 88//211 89//212
f 79//201 89//212 81//203
f 80//202 82//204 83//205
f 89//212 82//204 81//203
f 90//213 83//205 94//218
f 95//219 87//214 84//206
f 96//220 84//206 90//213
f 86//208 85//207 97//221
f 86//208 98//222 88//211
f 91//215 77//209 93//223
f 92//216 76//198 91//215
f 93//223 87//214 99//224
f 85//207 92//216 100//225
f 88//211 101//226 89//212
f 94//218 83//205 82//204
f 89//212 94//218 82//204
f 102//227 90//213 94//218
f 99//224 87//214 95//219
f 95//219 84//206 96//220
f 96//220 90//213 102//227
f 97//221 85//207 103//228
f 86//208 97//221 98//222
f 88//211 98//222 104//229
f 93//223 99//224 91//215
f 91//215 99//224 92//216
f 92//216 105//230 100//225
f 85//207 100//225 103//228
f 101//226 94//218 89//212
f 88//211 106//231 101//226
f 101//226 102//227 94//218
f 99//224 95//219 105//230
f 105//230 95//219 96//220
f 107//232 96//220 102//227
f 97//221 103//228 98//222
f 98//222 108//233 104//229
f 88//211 104//229 106//231
f 92//216 99//224 105//230
f 100//225 105//230 107//232
f 103//228 100//225 108//233
f 106//231 102//227 101//226
f 105//230 96//220 107//232
f 107//232 102//227 106//231
f 98//234 103//234 108//234
f 108//233 107//232 104//229
f 104//229 107//232 106//231
f 100//225 107//232 108//233