mtllib new-6.mtl
v -0.472848 -0.089089 0.052008
v -0.472238 -0.091726 0.062064
v -0.505546 0.314490 0.159872
v -0.464512 -0.159128 0.037420
v -0.504019 0.313610 0.164506
v -0.508912 0.315314 0.156016
v -0.464502 -0.159126 0.037569
v -0.465970 -0.159423 0.032621
v -0.504445 0.312743 0.169372
v -0.513534 0.315937 0.153723
v -0.464930 -0.159213 0.042547
v -0.465640 -0.160024 0.032986
v -0.469123 -0.160060 0.028523
v -0.475193 -0.093207 0.066516
v -0.473557 -0.160957 0.025854
v -0.464975 -0.163098 0.042905
v -0.467148 -0.159661 0.047175
v -0.459306 -0.176474 0.038906
v -0.506634 0.311982 0.173772
v -0.477856 -0.159405 0.025868
v -0.464921 -0.159211 0.042714
v -0.459724 -0.173999 0.028807
v -0.470922 -0.160424 0.050466
v -0.483580 -0.094935 0.069927
v -0.518716 0.316250 0.153522
v -0.478572 -0.161970 0.025288
v -0.467141 -0.159660 0.047400
v -0.461696 -0.179497 0.042914
v -0.446131 -0.187112 0.036208
v -0.510361 0.311451 0.177021
v -0.523596 0.316228 0.155264
v -0.483401 -0.162947 0.026760
v -0.467913 -0.164797 0.047310
v -0.447714 -0.190816 0.040042
v -0.468805 -0.173206 0.022075
v -0.475878 -0.161426 0.052003
v -0.515242 0.311251 0.178722
v -0.486288 -0.160725 0.029389
v -0.470896 -0.160419 0.050707
v -0.451961 -0.198826 0.041663
v -0.468390 -0.185443 0.045065
v -0.459853 -0.183375 0.019293
v -0.473503 -0.160946 0.025768
v -0.480860 -0.162433 0.051428
v -0.520416 0.311494 0.178502
v -0.527328 0.315875 0.158543
v -0.487218 -0.163718 0.030035
v -0.476271 -0.166721 0.050665
v -0.475150 -0.169729 0.022686
v -0.469406 -0.179264 0.019930
v -0.489270 -0.161943 0.033912
v -0.483441 -0.162955 0.026713
v -0.482946 -0.173838 0.025368
v -0.475863 -0.161423 0.052244
v -0.467078 -0.192725 0.042632
v -0.477133 -0.178910 0.046529
v -0.461447 -0.187170 0.017823
v -0.485232 -0.163317 0.048819
v -0.529532 0.315198 0.162960
v -0.489444 -0.164168 0.034546
v -0.485696 -0.176254 0.029548
v -0.480836 -0.162428 0.051639
v -0.476102 -0.185210 0.022081
v -0.528432 0.313227 0.172416
v -0.489930 -0.164267 0.039636
v -0.489470 -0.164174 0.034616
v -0.478590 -0.161974 0.025205
v -0.478075 -0.190709 0.036186
v -0.485194 -0.163309 0.048994
v -0.466873 -0.194395 0.019632
v -0.488440 -0.163965 0.044685
v -0.529965 0.314274 0.167818
v -0.478490 -0.188232 0.026085
v -0.468616 -0.200124 0.033675
v -0.485117 -0.179005 0.039569
v -0.488533 -0.165762 0.043651
v -0.468843 -0.197837 0.023524
v -0.488405 -0.163958 0.044820
v -0.489920 -0.164265 0.039744
vn -0.814662 -0.223922 0.534962
vn -0.983601 -0.044710 -0.174726
vn -0.932941 -0.159561 0.322740
vn 0.932941 0.159561 -0.322740
vn 0.983601 0.044710 0.174726
vn 0.814662 0.223922 -0.534962
vn -0.977922 -0.161706 0.132364
vn 0.977922 0.161706 -0.132364
vn -0.990182 -0.101837 0.095758
vn 0.990182 0.101837 -0.095758
vn -0.618698 -0.246985 0.745796
vn 0.618698 0.246985 -0.745796
vn -0.985810 -0.161064 -0.047306
vn 0.985810 0.161064 0.047306
vn -0.860207 -0.211967 0.463804
vn 0.860207 0.211967 -0.463804
vn -0.931053 0.023007 -0.364158
vn 0.931053 -0.023007 0.364158
vn -0.338718 -0.268483 0.901769
vn 0.338718 0.268483 -0.901769
vn -0.979479 -0.016089 -0.200902
vn 0.979479 0.016089 0.200902
vn -0.885426 -0.378949 0.269108
vn 0.885426 0.378949 -0.269108
vn -0.609446 -0.277719 0.742596
vn 0.609446 0.277719 -0.742596
vn -0.703728 0.121834 -0.699945
vn 0.703728 -0.121834 0.699945
vn -0.339943 -0.263390 0.902809
vn 0.339943 0.263390 -0.902809
vn -0.899279 -0.081513 -0.429712
vn 0.899279 0.081513 0.429712
vn -0.814482 0.072556 -0.575634
vn 0.814482 -0.072556 0.575634
vn -0.827309 -0.442265 -0.346353
vn 0.827309 0.442265 0.346353
vn -0.682554 0.139333 -0.717430
vn 0.682554 -0.139333 0.717430
vn 0.184532 -0.276024 0.943270
vn -0.184532 0.276024 -0.943270
vn -0.965830 0.000497 -0.259175
vn 0.965830 -0.000497 0.259175
vn -0.695009 -0.631271 0.344180
vn 0.695009 0.631271 -0.344180
vn -0.472769 0.179738 -0.862661
vn 0.472769 -0.179738 0.862661
vn -0.245080 0.230027 -0.941819
vn 0.245080 -0.230027 0.941819
vn 0.140450 -0.245362 0.959203
vn -0.140450 0.245362 -0.959203
vn 0.134548 -0.254015 0.957796
vn -0.134548 0.254015 -0.957796
vn -0.819438 0.081567 -0.567335
vn 0.819438 -0.081567 0.567335
vn -0.532624 -0.145863 -0.833688
vn 0.532624 0.145863 0.833688
vn -0.480781 -0.752662 -0.449834
vn 0.480781 0.752662 0.449834
vn -0.573306 -0.418129 0.704620
vn 0.573306 0.418129 -0.704620
vn -0.504893 0.188698 -0.842304
vn 0.504893 -0.188698 0.842304
vn 0.471244 -0.190924 0.861090
vn -0.471244 0.190924 -0.861090
vn 0.475872 -0.261723 0.839671
vn -0.475872 0.261723 -0.839671
vn -0.610890 0.116575 -0.783086
vn 0.610890 -0.116575 0.783086
vn -0.334206 -0.350879 -0.874752
vn 0.334206 0.350879 0.874752
vn -0.303123 -0.407885 0.861247
vn 0.303123 0.407885 -0.861247
vn -0.138059 0.242854 -0.960188
vn 0.138059 -0.242854 0.960188
vn -0.140496 0.245924 -0.959053
vn 0.140496 -0.245924 0.959053
vn 0.657441 -0.179528 0.731807
vn -0.657441 0.179528 -0.731807
vn -0.483110 0.260559 -0.835891
vn 0.483110 -0.260559 0.835891
vn -0.057272 0.134181 -0.989300
vn 0.057272 -0.134181 0.989300
vn -0.137545 0.194440 -0.971223
vn 0.137545 -0.194440 0.971223
vn -0.227120 -0.521264 0.822618
vn 0.227120 0.521264 -0.822618
vn -0.258885 -0.368214 0.892971
vn 0.258885 0.368214 -0.892971
vn 0.217756 0.270705 -0.937711
vn -0.217756 -0.270705 0.937711
vn 0.324597 0.269507 -0.906644
vn -0.324597 -0.269507 0.906644
vn 0.810726 -0.087496 0.578850
vn -0.810726 0.087496 -0.578850
vn 0.806904 -0.004865 0.590663
vn -0.806904 0.004865 -0.590663
vn -0.157413 0.287836 -0.944654
vn 0.157413 -0.287836 0.944654
vn 0.140684 -0.220960 0.965083
vn -0.140684 0.220960 -0.965083
vn 0.127935 -0.184329 0.974503
vn -0.127935 0.184329 -0.974503
vn 0.928908 -0.036239 0.368533
vn -0.928908 0.036239 -0.368533
vn 0.460164 -0.108088 0.881230
vn 0.568994 0.010237 0.822278
vn -0.568994 -0.010237 -0.822278
vn -0.460164 0.108088 -0.881230
vn -0.141123 0.292592 -0.945767
vn 0.141123 -0.292592 0.945767
vn 0.277550 0.530823 -0.800745
vn -0.277550 -0.530823 0.800745
vn 0.392343 0.416512 -0.820112
vn -0.392343 -0.416512 0.820112
vn 0.128900 -0.107964 0.985763
vn -0.128900 0.107964 -0.985763
vn 0.615536 0.250979 -0.747078
vn -0.615536 -0.250979 0.747078
vn 0.973527 0.020420 0.227658
vn -0.973527 -0.020420 -0.227658
vn 0.941728 0.032937 0.334760
vn -0.941728 -0.032937 -0.334760
vn 0.889933 0.262144 0.373229
vn -0.889933 -0.262144 -0.373229
vn 0.198353 0.321601 -0.925866
vn -0.198353 -0.321601 0.925866
vn 0.521138 0.163909 0.837585
vn -0.521138 -0.163909 -0.837585
vn 0.842365 0.203627 -0.498956
vn -0.842365 -0.203627 0.498956
vn 0.993935 0.106823 -0.026135
vn -0.993935 -0.106823 0.026135
vn 0.971157 0.103289 0.214909
vn -0.971157 -0.103289 -0.214909
vn 0.136729 -0.250686 0.958364
vn -0.136729 0.250686 -0.958364
vn 0.700166 0.653985 -0.286482
vn -0.700166 -0.653985 0.286482
vn 0.611595 0.383064 -0.692252
vn -0.611595 -0.383064 0.692252
vn 0.414442 0.275125 0.867493
vn -0.414442 -0.275125 -0.867493
vn 0.897440 0.171686 -0.406355
vn -0.897440 -0.171686 0.406355
vn 0.989879 0.107599 -0.092530
vn -0.989879 -0.107599 0.092530
vn 0.772136 0.489704 0.404964
vn -0.772136 -0.489704 -0.404964
vn -0.054719 -0.330382 0.942260
vn 0.054719 0.330382 -0.942260
vn 0.585895 0.793072 -0.166627
vn -0.585895 -0.793072 0.166627
vn 0.858936 0.449934 -0.244517
vn -0.858936 -0.449934 0.244517
vn 0.800470 0.327047 -0.502282
vn -0.800470 -0.327047 0.502282
vn 0.621436 0.643942 0.446269
vn -0.621436 -0.643942 -0.446269
vn 0.855592 0.237477 -0.459963
vn -0.855592 -0.237477 0.459963
vn 0.962390 0.234751 -0.136741
vn -0.962390 -0.234751 0.136741
usemtl material-0
f 1//1 2//2 3//3
f 3//4 2//5 1//6
f 4//7 2//2 1//1
f 1//6 2//5 4//8
f 2//2 5//9 3//3
f 3//4 5//10 2//5
f 1//1 3//3 6//11
f 6//12 3//4 1//6
f 7//13 2//2 4//7
f 4//8 2//5 7//14
f 8//15 4//7 1//1
f 1//6 4//8 8//16
f 2//2 9//17 5//9
f 5//10 9//18 2//5
f 10//19 1//1 6//11
f 6//12 1//6 10//20
f 2//2 7//13 11//21
f 11//22 7//14 2//5
f 12//23 7//13 4//7
f 4//8 7//14 12//24
f 13//25 8//15 1//1
f 1//6 8//16 13//26
f 2//2 14//27 9//17
f 9//18 14//28 2//5
f 15//29 1//1 10//19
f 10//20 1//6 15//30
f 16//31 11//21 7//13
f 7//14 11//22 16//32
f 11//21 17//33 2//2
f 2//5 17//34 11//22
f 7//13 12//23 18//35
f 18//36 12//24 7//14
f 1//1 15//29 13//25
f 13//26 15//30 1//6
f 17//33 14//27 2//2
f 2//5 14//28 17//34
f 14//27 19//37 9//17
f 9//18 19//38 14//28
f 10//19 20//39 15//29
f 15//30 20//40 10//20
f 11//21 16//31 21//41
f 21//42 16//32 11//22
f 7//13 18//35 16//31
f 16//32 18//36 7//14
f 22//43 18//35 12//23
f 12//24 18//36 22//44
f 14//27 17//33 23//45
f 23//46 17//34 14//28
f 19//37 14//27 24//47
f 24//48 14//28 19//38
f 25//49 20//39 10//19
f 10//20 20//40 25//50
f 20//39 26//51 15//29
f 15//30 26//52 20//40
f 21//41 16//31 27//53
f 27//54 16//32 21//42
f 18//35 28//55 16//31
f 16//32 28//56 18//36
f 29//57 18//35 22//43
f 22//44 18//36 29//58
f 13//59 22//43 12//23
f 12//24 22//44 13//60
f 14//27 23//45 24//47
f 24//48 23//46 14//28
f 19//37 24//47 30//61
f 30//62 24//48 19//38
f 25//49 31//63 20//39
f 20//40 31//64 25//50
f 20//39 32//65 26//51
f 26//52 32//66 20//40
f 16//31 33//67 27//53
f 27//54 33//68 16//32
f 18//35 34//69 28//55
f 28//56 34//70 18//36
f 16//31 28//55 33//67
f 33//68 28//56 16//32
f 13//59 35//71 22//43
f 22//44 35//72 13//60
f 24//47 23//45 36//73
f 36//74 23//46 24//48
f 30//61 24//47 37//75
f 37//76 24//48 30//62
f 31//63 38//77 20//39
f 20//40 38//78 31//64
f 20//39 38//77 32//65
f 32//66 38//78 20//40
f 27//53 33//67 39//79
f 39//80 33//68 27//54
f 33//67 28//55 41//83
f 41//84 28//56 33//68
f 13//59 43//87 35//71
f 35//72 43//88 13//60
f 22//43 35//71 42//85
f 42//86 35//72 22//44
f 24//47 36//73 44//89
f 44//90 36//74 24//48
f 45//91 37//75 24//47
f 24//48 37//76 45//92
f 31//63 46//93 38//77
f 38//78 46//94 31//64
f 38//77 47//95 32//65
f 32//66 47//96 38//78
f 39//79 33//67 48//97
f 48//98 33//68 39//80
f 28//55 40//81 41//83
f 41//84 40//82 28//56
f 33//67 41//83 48//97
f 48//98 41//84 33//68
f 43//87 49//99 35//71
f 35//72 49//100 43//88
f 35//71 50//101 42//85
f 42//86 50//102 35//72
f 45//91 24//47 44//89
f 44//90 24//48 45//92
f 38//77 46//93 51//103
f 51//104 46//94 38//78
f 38//77 51//103 47//95
f 47//96 51//104 38//78
f 52//105 47//95 53//106
f 53//107 47//96 52//108
f 39//79 48//97 54//109
f 54//110 48//98 39//80
f 48//97 41//83 56//113
f 56//114 41//84 48//98
f 49//99 50//101 35//71
f 35//72 50//102 49//100
f 45//91 44//89 58//117
f 58//118 44//90 45//92
f 51//103 46//93 59//119
f 59//120 46//94 51//104
f 47//95 51//103 60//121
f 60//122 51//104 47//96
f 53//106 47//95 61//123
f 61//124 47//96 53//107
f 52//105 53//106 49//99
f 49//100 53//107 52//108
f 54//109 48//97 62//125
f 62//126 48//98 54//110
f 56//113 41//83 55//111
f 55//112 41//84 56//114
f 62//125 48//97 56//113
f 56//114 48//98 62//126
f 49//99 53//106 50//101
f 50//102 53//107 49//100
f 50//101 63//127 57//115
f 57//116 63//128 50//102
f 64//129 45//91 58//117
f 58//118 45//92 64//130
f 51//103 59//119 65//131
f 65//132 59//120 51//104
f 51//103 66//133 60//121
f 60//122 66//134 51//104
f 60//121 61//123 47//95
f 47//96 61//124 60//122
f 63//127 53//106 61//123
f 61//124 53//107 63//128
f 67//135 52//105 49//99
f 49//100 52//108 67//136
f 56//113 55//111 68//137
f 68//138 55//112 56//114
f 62//125 56//113 69//139
f 69//140 56//114 62//126
f 53//106 63//127 50//101
f 50//102 63//128 53//107
f 71//143 64//129 58//117
f 58//118 64//130 71//144
f 65//131 59//119 72//145
f 72//146 59//120 65//132
f 66//133 51//103 65//131
f 65//132 51//104 66//134
f 61//123 60//121 66//133
f 66//134 60//122 61//124
f 63//127 61//123 73//147
f 73//148 61//124 63//128
f 15//149 67//135 49//99
f 49//100 67//136 15//150
f 55//111 74//151 68//137
f 68//138 74//152 55//112
f 56//113 68//137 75//153
f 75//154 68//138 56//114
f 76//155 69//139 56//113
f 56//114 69//140 76//156
f 63//127 73//147 70//141
f 70//142 73//148 63//128
f 71//143 65//131 64//129
f 64//130 65//132 71//144
f 65//131 72//145 64//129
f 64//130 72//146 65//132
f 65//131 61//123 66//133
f 66//134 61//124 65//132
f 73//147 61//123 75//153
f 75//154 61//124 73//148
f 77//157 68//137 74//151
f 74//152 68//138 77//158
f 73//147 75//153 68//137
f 68//138 75//154 73//148
f 76//155 56//113 75//153
f 75//154 56//114 76//156
f 76//155 78//159 69//139
f 69//140 78//160 76//156
f 65//131 71//143 79//161
f 79//162 71//144 65//132
f 61//123 65//131 79//161
f 79//162 65//132 61//124
f 61//123 79//161 75//153
f 75//154 79//162 61//124
f 77//157 73//147 68//137
f 68//138 73//148 77//158
f 75//153 79//161 76//155
f 76//156 79//162 75//154
f 76//155 71//143 78//159
f 78//160 71//144 76//156
f 71//143 76//155 79//161
f 79//162 76//156 71//144