mtllib new-10.mtl
v -0.459724 -0.173999 0.147471
v -0.465640 -0.160024 0.151650
v -0.464975 -0.163098 0.161569
v -0.467913 -0.164797 0.165974
v -0.477133 -0.178910 0.165193
v -0.468805 -0.173206 0.140739
v -0.464502 -0.159126 0.156233
v -0.469123 -0.160060 0.147187
v -0.476271 -0.166721 0.169329
v -0.464512 -0.159128 0.156084
v -0.467141 -0.159660 0.166065
v -0.464930 -0.159213 0.161211
v -0.470896 -0.160419 0.169371
v -0.480836 -0.162428 0.170303
v -0.485117 -0.179005 0.158233
v -0.473503 -0.160946 0.144432
v -0.475150 -0.169729 0.141350
v -0.472238 -0.091726 0.180728
v -0.464921 -0.159211 0.161378
v -0.475863 -0.161423 0.170908
v -0.485194 -0.163309 0.167658
v -0.488533 -0.165762 0.162315
v -0.482946 -0.173838 0.144032
v -0.472848 -0.089089 0.170672
v -0.467148 -0.159661 0.165839
v -0.485696 -0.176254 0.148212
v -0.489920 -0.164265 0.158408
v -0.483441 -0.162955 0.145377
v -0.503726 0.288197 0.271473
v -0.465970 -0.159423 0.151285
v -0.475193 -0.093207 0.185180
v -0.488405 -0.163958 0.163484
v -0.488440 -0.163965 0.163349
v -0.487218 -0.163718 0.148699
v -0.478590 -0.161974 0.143869
v -0.502163 0.286869 0.275971
v -0.507096 0.289147 0.267662
v -0.470922 -0.160424 0.169130
v -0.502525 0.285243 0.280627
v -0.489930 -0.164267 0.158300
v -0.473557 -0.160957 0.144518
v -0.483580 -0.094935 0.188592
v -0.504641 0.283536 0.284786
v -0.489470 -0.164174 0.153280
v -0.495810 -0.094220 0.181497
v -0.489444 -0.164168 0.153210
v -0.511706 0.289617 0.265330
v -0.475878 -0.161426 0.170667
v -0.508310 0.282095 0.287808
v -0.496420 -0.091583 0.171441
v -0.485232 -0.163317 0.167483
v -0.485078 -0.088374 0.163578
v -0.480860 -0.162433 0.170092
v -0.513154 0.281224 0.289335
v -0.527928 0.285089 0.278775
v -0.516878 0.289552 0.265030
v -0.477675 -0.161113 0.144074
v -0.518310 0.281177 0.289037
v -0.489065 -0.163870 0.152059
v -0.527589 0.286696 0.274108
v -0.526329 0.283451 0.283162
v -0.521755 0.289006 0.266658
v -0.478572 -0.161970 0.143952
v -0.493465 -0.090102 0.166989
v -0.522935 0.282017 0.286813
v -0.483401 -0.162947 0.145424
v -0.525455 0.288049 0.269826
v -0.486091 -0.162570 0.147558
vn -0.695009 -0.631271 0.344180
vn 0.695009 0.631271 -0.344180
vn -0.885426 -0.378949 0.269108
vn 0.885426 0.378949 -0.269108
vn -0.899279 -0.081513 -0.429712
vn 0.899279 0.081513 0.429712
vn -0.610890 0.116575 -0.783086
vn 0.610890 -0.116575 0.783086
vn 0.392343 0.416512 -0.820112
vn -0.392343 -0.416512 0.820112
vn -0.303123 -0.407885 0.861247
vn 0.303123 0.407885 -0.861247
vn -0.985810 -0.161064 -0.047306
vn 0.985810 0.161064 0.047306
vn -0.573306 -0.418129 0.704620
vn 0.573306 0.418129 -0.704620
vn -0.157413 0.287836 -0.944654
vn 0.157413 -0.287836 0.944654
vn -0.977922 -0.161706 0.132364
vn 0.977922 0.161706 -0.132364
vn -0.819438 0.081567 -0.567335
vn 0.819438 -0.081567 0.567335
vn -0.979479 -0.016089 -0.200902
vn 0.979479 0.016089 0.200902
vn -0.483110 0.260559 -0.835891
vn 0.483110 -0.260559 0.835891
vn 0.198353 0.321601 -0.925866
vn -0.198353 -0.321601 0.925866
vn 0.858936 0.449934 -0.244517
vn -0.858936 -0.449934 0.244517
vn -0.258885 -0.368214 0.892971
vn 0.258885 0.368214 -0.892971
vn 0.140684 -0.220960 0.965083
vn -0.140684 0.220960 -0.965083
vn -0.983613 -0.045092 -0.174561
vn 0.983613 0.045092 0.174561
vn -0.965830 0.000497 -0.259175
vn 0.965830 -0.000497 0.259175
vn -0.141123 0.292592 -0.945767
vn 0.141123 -0.292592 0.945767
vn 0.611595 0.383064 -0.692252
vn -0.611595 -0.383064 0.692252
vn 0.800470 0.327047 -0.502282
vn -0.800470 -0.327047 0.502282
vn 0.568994 0.010237 0.822278
vn -0.568994 -0.010237 -0.822278
vn -0.854794 -0.213134 0.473181
vn 0.854794 0.213134 -0.473181
vn -0.814482 0.072556 -0.575634
vn 0.814482 -0.072556 0.575634
vn 0.889933 0.262144 0.373229
vn -0.889933 -0.262144 -0.373229
vn 0.961495 0.238392 -0.136734
vn -0.961495 -0.238392 0.136734
vn 0.460164 -0.108088 0.881230
vn -0.460164 0.108088 -0.881230
vn -0.932677 -0.160219 0.323176
vn 0.932677 0.160219 -0.323176
vn -0.860207 -0.211967 0.463804
vn 0.860207 0.211967 -0.463804
vn -0.697794 0.125225 -0.705268
vn 0.697794 -0.125225 0.705268
vn 0.855592 0.237477 -0.459963
vn -0.855592 -0.237477 0.459963
vn 0.895492 0.181739 -0.406283
vn -0.895492 -0.181739 0.406283
vn 0.800802 0.035610 0.597869
vn -0.800802 -0.035610 -0.597869
vn 0.136729 -0.250686 0.958364
vn -0.136729 0.250686 -0.958364
vn -0.990017 -0.102572 0.096669
vn 0.990017 0.102572 -0.096669
vn -0.650492 -0.245643 0.718693
vn 0.650492 0.245643 -0.718693
vn -0.609446 -0.277719 0.742596
vn 0.609446 0.277719 -0.742596
vn -0.472769 0.179738 -0.862661
vn 0.472769 -0.179738 0.862661
vn -0.931161 0.022207 -0.363931
vn 0.931161 -0.022207 0.363931
vn 0.987553 0.153304 -0.035179
vn -0.987553 -0.153304 0.035179
vn -0.054719 -0.330382 0.942260
vn 0.054719 0.330382 -0.942260
vn -0.369001 -0.276730 0.887276
vn 0.369001 0.276730 -0.887276
vn -0.179826 0.237898 -0.954498
vn 0.179826 -0.237898 0.954498
vn -0.795292 0.096089 -0.598563
vn 0.795292 -0.096089 0.598563
vn 0.965976 0.144311 0.214627
vn -0.965976 -0.144311 -0.214627
vn 0.825966 0.210575 -0.522913
vn -0.825966 -0.210575 0.522913
vn 0.955336 0.058647 0.289643
vn -0.955336 -0.058647 -0.289643
vn -0.197452 -0.269532 0.942531
vn 0.197452 0.269532 -0.942531
vn -0.138059 0.242854 -0.960188
vn 0.138059 -0.242854 0.960188
vn -0.471985 0.192909 -0.860242
vn 0.471985 -0.192909 0.860242
vn 0.966438 0.019568 0.256152
vn -0.966438 -0.019568 -0.256152
vn 0.614961 0.246090 -0.749175
vn -0.614961 -0.246090 0.749175
vn 0.172957 -0.241459 0.954873
vn -0.172957 0.241459 -0.954873
vn 0.315082 0.265520 -0.911165
vn -0.315082 -0.265520 0.911165
vn -0.140558 0.245810 -0.959073
vn 0.140558 -0.245810 0.959073
vn 0.991635 0.102765 -0.078094
vn -0.991635 -0.102765 0.078094
vn 0.141902 -0.245488 0.958958
vn -0.141902 0.245488 -0.958958
vn 0.006179 -0.258390 0.966021
vn -0.006179 0.258390 -0.966021
vn 0.313233 0.271425 -0.910062
vn -0.313233 -0.271425 0.910062
vn 0.916578 -0.013898 0.399615
vn -0.916578 0.013898 -0.399615
vn 0.932199 -0.020669 0.361355
vn -0.932199 0.020669 -0.361355
vn 0.866975 0.193666 -0.459182
vn -0.866975 -0.193666 0.459182
vn 0.473466 -0.191362 0.859773
vn -0.473466 0.191362 -0.859773
vn 0.216423 -0.233646 0.947930
vn -0.216423 0.233646 -0.947930
vn 0.827547 -0.066480 0.557446
vn -0.827547 0.066480 -0.557446
vn 0.698837 -0.126610 0.703986
vn -0.698837 0.126610 -0.703986
vn 0.617795 0.252952 -0.744543
vn -0.617795 -0.252952 0.744543
vn 0.447692 -0.192960 0.873120
vn -0.447692 0.192960 -0.873120
vn 0.797665 -0.094505 0.595651
vn -0.797665 0.094505 -0.595651
vn 0.682373 -0.123743 0.720455
vn -0.682373 0.123743 -0.720455
usemtl material-0
f 8//15 1//1 2//3
f 2//4 1//2 8//16
f 8//15 6//11 1//1
f 1//2 6//12 8//16
f 2//3 7//13 10//19
f 10//20 7//14 2//4
f 3//5 4//7 11//21
f 11//22 4//8 3//6
f 3//5 12//23 7//13
f 7//14 12//24 3//6
f 13//25 4//7 9//17
f 9//18 4//8 13//26
f 8//15 16//31 6//11
f 6//12 16//32 8//16
f 7//13 18//35 10//19
f 10//20 18//36 7//14
f 11//21 4//7 13//25
f 13//26 4//8 11//22
f 19//37 3//5 11//21
f 11//22 3//6 19//38
f 12//23 3//5 19//37
f 19//38 3//6 12//24
f 18//35 7//13 12//23
f 12//24 7//14 18//36
f 13//25 9//17 20//39
f 20//40 9//18 13//26
f 20//39 9//17 14//27
f 14//28 9//18 20//40
f 14//27 5//9 21//41
f 21//42 5//10 14//28
f 16//31 17//33 6//11
f 6//12 17//34 16//32
f 10//19 18//35 24//47
f 24//48 18//36 10//20
f 12//23 25//49 18//35
f 18//36 25//50 12//24
f 15//29 27//53 22//43
f 22//44 27//54 15//30
f 28//55 23//45 17//33
f 17//34 23//46 28//56
f 24//47 18//35 29//57
f 29//58 18//36 24//48
f 30//59 10//19 24//47
f 24//48 10//20 30//60
f 25//49 31//61 18//35
f 18//36 31//62 25//50
f 22//43 32//63 21//41
f 21//42 32//64 22//44
f 26//51 27//53 15//29
f 15//30 27//54 26//52
f 33//65 22//43 27//53
f 27//54 22//44 33//66
f 28//55 34//67 23//45
f 23//46 34//68 28//56
f 35//69 28//55 17//33
f 17//34 28//56 35//70
f 18//35 36//71 29//57
f 29//58 36//72 18//36
f 24//47 29//57 37//73
f 37//74 29//58 24//48
f 8//75 30//59 24//47
f 24//48 30//60 8//76
f 31//61 25//49 38//77
f 38//78 25//50 31//62
f 18//35 31//61 39//79
f 39//80 31//62 18//36
f 22//43 33//65 32//63
f 32//64 33//66 22//44
f 26//51 40//81 27//53
f 27//54 40//82 26//52
f 40//81 33//65 27//53
f 27//54 33//66 40//82
f 23//45 34//67 26//51
f 26//52 34//68 23//46
f 41//83 35//69 17//33
f 17//34 35//70 41//84
f 18//35 39//79 36//71
f 36//72 39//80 18//36
f 41//85 24//47 37//73
f 37//74 24//48 41//86
f 24//47 41//85 8//75
f 8//76 41//86 24//48
f 31//61 38//77 42//87
f 42//88 38//78 31//62
f 31//61 43//89 39//79
f 39//80 43//90 31//62
f 40//81 26//51 44//91
f 44//92 26//52 40//82
f 33//65 40//81 45//93
f 45//94 40//82 33//66
f 46//95 26//51 34//67
f 34//68 26//52 46//96
f 47//97 41//85 37//73
f 37//74 41//86 47//98
f 42//87 38//77 48//99
f 48//100 38//78 42//88
f 49//101 31//61 42//87
f 42//88 31//62 49//102
f 43//89 31//61 49//101
f 49//102 31//62 43//90
f 26//51 46//95 44//91
f 44//92 46//96 26//52
f 46//95 40//81 44//91
f 44//92 40//82 46//96
f 40//81 50//103 45//93
f 45//94 50//104 40//82
f 33//65 45//93 51//105
f 51//106 45//94 33//66
f 47//97 52//107 41//85
f 41//86 52//108 47//98
f 42//87 48//99 53//109
f 53//110 48//100 42//88
f 49//101 42//87 54//111
f 54//112 42//88 49//102
f 40//81 46//95 50//103
f 50//104 46//96 40//82
f 50//103 55//113 45//93
f 45//94 55//114 50//104
f 45//93 53//109 51//105
f 51//106 53//110 45//94
f 47//97 56//115 52//107
f 52//108 56//116 47//98
f 52//107 57//117 41//85
f 41//86 57//118 52//108
f 58//119 42//87 53//109
f 53//110 42//88 58//120
f 54//111 42//87 58//119
f 58//120 42//88 54//112
f 59//121 50//103 46//95
f 46//96 50//104 59//122
f 50//103 60//123 55//113
f 55//114 60//124 50//104
f 45//93 55//113 61//125
f 61//126 55//114 45//94
f 58//119 53//109 45//93
f 45//94 53//110 58//120
f 56//115 62//127 52//107
f 52//108 62//128 56//116
f 52//107 63//129 57//117
f 57//118 63//130 52//108
f 34//131 50//103 59//121
f 59//122 50//104 34//132
f 64//133 60//123 50//103
f 50//104 60//124 64//134
f 45//93 61//125 65//135
f 65//136 61//126 45//94
f 65//135 58//119 45//93
f 45//94 58//120 65//136
f 62//127 64//133 52//107
f 52//108 64//134 62//128
f 52//107 66//137 63//129
f 63//130 66//138 52//108
f 34//131 64//133 50//103
f 50//104 64//134 34//132
f 64//133 67//139 60//123
f 60//124 67//140 64//134
f 62//127 67//139 64//133
f 64//134 67//140 62//128
f 52//107 64//133 66//137
f 66//138 64//134 52//108
f 68//141 64//133 34//131
f 34//132 64//134 68//142
f 64//133 68//141 66//137
f 66//138 68//142 64//134