mtllib new-0.mtl
v -0.006014 -0.634644 0.177749
v -0.084162 -0.634945 0.158771
v -0.085829 -0.614253 0.140984
v -0.026829 -0.634994 0.197008
v -0.092078 -0.592199 0.140557
v -0.071054 -0.548996 0.151280
v -0.001622 -0.614194 0.186162
v -0.089785 -0.635945 0.218966
v -0.092526 -0.614473 0.154682
v -0.088379 -0.568825 0.140174
v -0.023036 -0.614640 0.207898
v -0.162616 -0.643909 0.400541
v -0.219697 -0.643840 0.362047
v -0.156867 -0.618091 0.251170
v -0.101337 -0.592589 0.157287
v -0.079081 -0.549085 0.146327
v -0.001412 -0.592140 0.193199
v -0.014452 -0.592446 0.205867
v -0.035789 -0.615184 0.227016
v -0.104775 -0.619871 0.330459
v -0.126815 -0.594058 0.195485
v -0.094076 -0.569154 0.152896
v -0.116043 -0.551902 0.205415
v -0.027759 -0.549574 0.199634
v -0.008603 -0.568851 0.194223
v -0.064863 -0.595597 0.281276
v -0.053180 -0.616075 0.253091
v -0.195063 -0.631634 0.465838
v -0.251885 -0.655066 0.507126
v -0.259890 -0.630220 0.405675
v -0.050642 -0.571397 0.253357
v -0.167319 -0.608570 0.434903
v -0.297487 -0.671301 0.602570
v -0.296551 -0.661829 0.542401
v -0.354651 -0.671113 0.564448
v -0.228888 -0.605114 0.348556
v -0.157252 -0.574271 0.247755
v -0.194293 -0.562250 0.322759
v -0.033980 -0.570163 0.228385
v -0.101439 -0.576694 0.329528
v -0.268220 -0.637102 0.586113
v -0.284289 -0.656395 0.599641
v -0.345003 -0.651343 0.533284
v -0.330286 -0.629125 0.500647
v -0.179026 -0.568297 0.401148
v -0.189512 -0.592666 0.461567
v -0.292639 -0.658368 0.610386
v -0.331515 -0.669186 0.570014
v -0.357617 -0.656715 0.552216
v -0.257721 -0.590804 0.398420
v -0.271541 -0.580757 0.438618
v -0.183978 -0.572303 0.433828
v -0.276047 -0.625426 0.591383
v -0.281654 -0.642759 0.605797
v -0.306764 -0.674564 0.612043
v -0.359987 -0.674515 0.577280
v -0.364349 -0.658586 0.564950
v -0.354581 -0.639927 0.537374
v -0.340896 -0.619190 0.523106
v -0.227586 -0.574866 0.426727
v -0.260732 -0.599231 0.548945
v -0.294716 -0.643292 0.616243
v -0.305209 -0.659560 0.618204
v -0.361943 -0.642568 0.548134
v -0.273528 -0.582348 0.448464
v -0.279581 -0.609965 0.577213
v -0.282596 -0.627679 0.600249
v -0.318488 -0.677747 0.617198
v -0.356277 -0.676872 0.589570
v -0.365940 -0.659774 0.580047
v -0.367844 -0.643363 0.563803
v -0.352820 -0.626127 0.541035
v -0.346805 -0.617811 0.553530
v -0.260020 -0.596298 0.536568
v -0.306212 -0.604346 0.539546
v -0.289711 -0.616732 0.590705
v -0.292760 -0.629142 0.607792
v -0.310875 -0.643861 0.620725
v -0.319231 -0.661033 0.620912
v -0.359710 -0.677824 0.590632
v -0.360255 -0.628896 0.556184
v -0.312213 -0.619491 0.583148
v -0.305023 -0.630542 0.611490
v -0.331946 -0.680481 0.617426
v -0.362356 -0.661351 0.593599
v -0.367131 -0.643868 0.580528
v -0.360162 -0.630780 0.573720
v -0.296731 -0.620210 0.595026
v -0.317333 -0.632001 0.610894
v -0.326393 -0.644870 0.619069
v -0.332684 -0.662363 0.618900
v -0.354631 -0.680494 0.602711
v -0.347829 -0.621161 0.561413
v -0.304960 -0.623393 0.596947
v -0.344869 -0.681663 0.612372
v -0.354584 -0.662511 0.605054
v -0.360574 -0.644867 0.594903
v -0.342222 -0.626312 0.577114
v -0.313192 -0.625650 0.596215
v -0.339446 -0.645029 0.613092
v -0.344566 -0.662821 0.613201
v -0.352500 -0.632581 0.588833
v -0.346346 -0.624239 0.569678
v -0.321010 -0.626596 0.592789
v -0.340487 -0.632552 0.599001
v -0.335573 -0.626861 0.583074
vn 0.207368 -0.889183 0.407862
vn 0.017496 -0.999769 -0.012481
vn -0.889557 -0.349381 -0.294316
vn 0.565727 -0.711685 0.416482
vn -0.803589 -0.395986 -0.444342
vn -0.953700 -0.096673 -0.284800
vn -0.011358 0.999755 0.018975
vn 0.534495 -0.333448 0.776613
vn 0.019759 -0.999449 -0.026674
vn -0.815383 -0.313858 -0.486461
vn -0.924999 0.289714 -0.245852
vn 0.749627 -0.323541 0.577392
vn -0.027005 -0.994765 -0.098560
vn 0.073359 -0.996465 -0.040927
vn -0.764955 -0.365320 -0.530458
vn -0.866774 -0.010600 -0.498588
vn -0.475107 0.865201 -0.160312
vn 0.541240 -0.068748 0.838053
vn 0.775304 -0.015844 0.631390
vn 0.787391 -0.339458 0.514571
vn 0.780677 -0.379090 0.496825
vn 0.768669 -0.428659 0.474763
vn -0.734478 -0.428185 -0.526498
vn -0.821768 -0.127362 -0.555406
vn -0.839305 0.314619 -0.443376
vn -0.452481 0.858493 -0.241350
vn 0.382364 0.859542 0.339095
vn 0.600186 0.297327 0.742545
vn 0.830006 -0.084839 0.551265
vn 0.791706 -0.333469 0.511860
vn 0.787364 -0.403490 0.466106
vn 0.001632 -0.991356 -0.131193
vn -0.749625 -0.373355 -0.546505
vn 0.786165 0.297295 0.541813
vn 0.831409 -0.103143 0.546005
vn 0.441489 -0.884340 0.151756
vn 0.095569 -0.989946 -0.104280
vn -0.436480 -0.797571 -0.416372
vn -0.831550 0.010138 -0.555358
vn -0.788172 0.366488 -0.494440
vn -0.448894 0.871264 -0.198475
vn 0.767278 0.322182 0.554512
vn 0.760597 0.358186 0.541475
vn 0.833303 -0.063628 0.549142
vn 0.770234 -0.441825 0.459924
vn -0.693282 -0.443284 -0.568206
vn -0.824382 -0.072738 -0.561341
vn -0.054213 0.994991 0.083986
vn 0.732534 0.379701 0.564996
vn 0.651899 -0.391819 0.649235
vn 0.118373 -0.977125 -0.176674
vn -0.708622 -0.459772 -0.535225
vn -0.801441 0.366044 -0.472974
vn -0.430633 0.899425 -0.074768
vn 0.243284 0.913704 0.325511
vn 0.627514 0.495270 0.600777
vn 0.757463 -0.022019 0.652507
vn 0.387479 -0.898471 0.206420
vn -0.347941 -0.899004 -0.265948
vn -0.858240 -0.387477 -0.336581
vn -0.819027 -0.083035 -0.567715
vn -0.800019 0.460613 -0.384455
vn -0.096663 0.989848 0.104199
vn 0.266216 0.857264 0.440712
vn 0.447259 0.176918 0.876732
vn 0.370266 -0.227947 0.900524
vn -0.886584 -0.024014 -0.461944
vn -0.171330 0.974491 0.144962
vn 0.016576 0.905982 0.422991
vn 0.542119 0.505897 0.670951
vn 0.245789 -0.270473 0.930823
vn 0.167659 -0.954689 -0.245886
vn -0.974936 -0.219869 0.034013
vn -0.984514 0.131791 -0.115596
vn -0.763486 0.575511 -0.293046
vn -0.411379 0.900715 0.139571
vn -0.097558 0.974999 0.199649
vn -0.190979 0.957664 0.215422
vn 0.119830 0.842843 0.524649
vn 0.225381 0.677492 0.700149
vn 0.060686 0.285711 0.956392
vn 0.010619 -0.081335 0.996630
vn 0.172683 -0.948158 -0.266789
vn 0.184960 -0.944556 -0.271301
vn -0.950711 -0.259787 0.169290
vn -0.819964 0.551616 -0.152905
vn -0.247000 0.901849 0.354484
vn 0.003296 0.728484 0.685055
vn -0.147321 -0.132206 0.980213
vn -0.914104 -0.075140 0.398456
vn -0.948354 0.207988 0.239512
vn -0.669470 0.703482 0.238586
vn -0.140378 0.872849 0.467364
vn -0.224706 0.799982 0.556360
vn -0.236063 0.316425 0.918776
vn -0.325074 0.017975 0.945518
vn 0.194641 -0.934122 -0.299217
vn -0.831356 -0.124886 0.541526
vn -0.270514 0.896111 0.351864
vn -0.246946 0.886488 0.391352
vn -0.539111 -0.060021 0.840093
vn 0.198869 -0.931114 -0.305741
vn -0.718223 0.042886 0.694490
vn -0.748143 0.379452 0.544332
vn -0.239826 0.902835 0.356892
vn -0.268419 0.900667 0.341686
vn -0.493023 0.426589 0.758255
vn 0.211486 -0.921693 -0.325201
vn -0.533991 0.064616 0.843017
vn -0.381090 0.819481 0.428044
vn -0.168890 0.916211 0.363364
vn -0.244239 0.905614 0.346714
vn -0.282769 0.867584 0.409071
vn -0.217194 0.923733 0.315505
vn -0.207368 0.889183 -0.407862
vn -0.017496 0.999769 0.012481
vn 0.889557 0.349381 0.294316
vn -0.565727 0.711685 -0.416482
vn 0.803589 0.395986 0.444342
vn 0.953700 0.096673 0.284800
vn 0.011358 -0.999755 -0.018975
vn -0.534495 0.333448 -0.776613
vn -0.019759 0.999449 0.026674
vn 0.815383 0.313858 0.486461
vn 0.924999 -0.289714 0.245852
vn -0.749627 0.323541 -0.577392
vn 0.027005 0.994765 0.098560
vn -0.073359 0.996465 0.040927
vn 0.764955 0.365320 0.530458
vn 0.866774 0.010600 0.498588
vn 0.475107 -0.865201 0.160312
vn -0.541240 0.068748 -0.838053
vn -0.775304 0.015844 -0.631390
vn -0.787391 0.339458 -0.514571
vn -0.768669 0.428659 -0.474763
vn -0.780677 0.379090 -0.496825
vn 0.734478 0.428185 0.526498
vn 0.821768 0.127362 0.555406
vn 0.839305 -0.314619 0.443376
vn 0.452481 -0.858493 0.241350
vn -0.382364 -0.859542 -0.339095
vn -0.600186 -0.297327 -0.742545
vn -0.830006 0.084839 -0.551265
vn -0.791706 0.333469 -0.511860
vn -0.787364 0.403490 -0.466106
vn -0.001632 0.991356 0.131193
vn 0.749625 0.373355 0.546505
vn -0.786165 -0.297295 -0.541813
vn -0.831409 0.103143 -0.546005
vn -0.441489 0.884340 -0.151756
vn -0.095569 0.989946 0.104280
vn 0.436480 0.797571 0.416372
vn 0.831550 -0.010138 0.555358
vn 0.788172 -0.366488 0.494440
vn 0.448894 -0.871264 0.198475
vn -0.767278 -0.322182 -0.554512
vn -0.760597 -0.358186 -0.541475
vn -0.833303 0.063628 -0.549142
vn -0.770234 0.441825 -0.459924
vn 0.693282 0.443284 0.568206
vn 0.824382 0.072738 0.561341
vn 0.054213 -0.994991 -0.083986
vn -0.732534 -0.379701 -0.564996
vn -0.651899 0.391819 -0.649235
vn -0.118373 0.977125 0.176674
vn 0.708622 0.459772 0.535225
vn 0.801441 -0.366044 0.472974
vn 0.430633 -0.899425 0.074768
vn -0.243284 -0.913704 -0.325511
vn -0.627514 -0.495270 -0.600777
vn -0.757463 0.022019 -0.652507
vn -0.387479 0.898471 -0.206420
vn 0.347941 0.899004 0.265948
vn 0.858240 0.387477 0.336581
vn 0.819027 0.083035 0.567715
vn 0.800019 -0.460613 0.384455
vn 0.096663 -0.989848 -0.104199
vn -0.266216 -0.857264 -0.440712
vn -0.447259 -0.176918 -0.876732
vn -0.370266 0.227947 -0.900524
vn 0.886584 0.024014 0.461944
vn 0.171330 -0.974491 -0.144962
vn -0.016576 -0.905982 -0.422991
vn -0.542119 -0.505897 -0.670951
vn -0.245789 0.270473 -0.930823
vn -0.167659 0.954689 0.245886
vn 0.974936 0.219869 -0.034013
vn 0.984514 -0.131791 0.115596
vn 0.763486 -0.575511 0.293046
vn 0.411379 -0.900715 -0.139571
vn 0.097558 -0.974999 -0.199649
vn 0.190979 -0.957664 -0.215422
vn -0.119830 -0.842843 -0.524649
vn -0.225381 -0.677492 -0.700149
vn -0.060686 -0.285711 -0.956392
vn -0.010619 0.081335 -0.996630
vn -0.172683 0.948158 0.266789
vn -0.184960 0.944556 0.271301
vn 0.950711 0.259787 -0.169290
vn 0.819964 -0.551616 0.152905
vn 0.247000 -0.901849 -0.354484
vn -0.003296 -0.728484 -0.685055
vn 0.147321 0.132206 -0.980213
vn 0.914104 0.075140 -0.398456
vn 0.948354 -0.207988 -0.239512
vn 0.669470 -0.703482 -0.238586
vn 0.140378 -0.872849 -0.467364
vn 0.224706 -0.799982 -0.556360
vn 0.236063 -0.316425 -0.918776
vn 0.325074 -0.017975 -0.945518
vn -0.194641 0.934122 0.299217
vn 0.831356 0.124886 -0.541526
vn 0.270514 -0.896111 -0.351864
vn 0.246946 -0.886488 -0.391352
vn 0.539111 0.060021 -0.840093
vn -0.198869 0.931114 0.305741
vn 0.718223 -0.042886 -0.694490
vn 0.748143 -0.379452 -0.544332
vn 0.239826 -0.902835 -0.356892
vn 0.268419 -0.900667 -0.341686
vn 0.493023 -0.426589 -0.758255
vn -0.211486 0.921693 0.325201
vn 0.533991 -0.064616 -0.843017
vn 0.381090 -0.819481 -0.428044
vn 0.168890 -0.916211 -0.363364
vn 0.244239 -0.905614 -0.346714
vn 0.282769 -0.867584 -0.409071
vn 0.217194 -0.923733 -0.315505
usemtl material-0
f 1//1 4//4 2//2
f 7//8 4//4 1//1
f 4//4 8//9 2//2
f 3//3 2//5 9//10
f 7//8 11//12 4//4
f 4//4 12//13 8//9
f 2//2 8//9 13//14
f 9//10 2//5 14//15
f 5//6 9//10 15//16
f 18//19 11//12 7//8
f 11//12 19//20 4//4
f 20//21 12//22 4//4
f 8//9 12//13 13//14
f 14//15 2//5 13//23
f 21//24 9//10 14//15
f 15//16 9//10 21//24
f 10//11 5//6 15//16
f 6//7 16//17 23//26
f 17//18 18//19 7//8
f 18//19 26//29 11//12
f 26//29 19//20 11//12
f 19//20 27//30 4//4
f 20//21 28//31 12//22
f 27//30 20//21 4//4
f 12//13 29//32 13//14
f 14//15 13//23 30//33
f 21//24 14//15 30//33
f 22//25 15//16 21//24
f 10//11 15//16 22//25
f 16//17 22//25 23//26
f 24//27 6//7 23//26
f 25//28 18//19 17//18
f 31//34 26//29 18//19
f 26//29 27//30 19//20
f 32//35 28//31 20//21
f 28//31 33//36 12//22
f 32//35 20//21 27//30
f 12//13 33//36 29//32
f 13//14 29//32 34//37
f 30//33 13//23 35//38
f 21//24 30//33 36//39
f 22//25 21//24 36//39
f 23//26 22//25 37//40
f 24//27 23//26 38//41
f 24//27 39//42 25//28
f 25//28 39//42 18//19
f 31//34 40//43 26//29
f 39//42 31//34 18//19
f 26//29 32//35 27//30
f 32//35 41//44 28//31
f 28//31 42//45 33//36
f 29//32 33//36 34//37
f 13//14 34//37 35//38
f 30//33 35//38 43//46
f 36//39 30//33 44//47
f 22//25 36//39 37//40
f 23//26 37//40 38//41
f 24//27 38//41 45//48
f 24//27 31//34 39//42
f 24//27 40//43 31//34
f 40//43 32//35 26//29
f 46//49 41//44 32//35
f 28//31 41//44 42//45
f 42//45 47//50 33//36
f 34//37 33//36 48//51
f 34//37 48//51 35//38
f 43//46 35//38 49//52
f 44//47 30//33 43//46
f 50//53 36//39 44//47
f 37//40 36//39 50//53
f 38//41 37//40 50//53
f 38//41 51//54 45//48
f 24//27 45//48 52//55
f 24//27 52//55 40//43
f 40//43 46//49 32//35
f 46//49 53//56 41//44
f 41//44 54//57 42//45
f 54//57 47//50 42//45
f 47//50 55//58 33//36
f 33//36 55//58 48//51
f 48//51 56//59 35//38
f 49//52 35//38 57//60
f 58//61 43//46 49//52
f 44//47 43//46 58//61
f 50//53 44//47 59//62
f 38//41 50//53 51//54
f 45//48 51//54 60//63
f 45//48 60//63 52//55
f 52//55 46//49 40//43
f 46//49 61//64 53//56
f 53//56 54//57 41//44
f 54//57 62//65 47//50
f 47//50 63//66 55//58
f 48//51 55//58 56//59
f 57//60 35//38 56//59
f 64//67 49//52 57//60
f 58//61 49//52 64//67
f 59//62 44//47 58//61
f 51//54 50//53 59//62
f 60//63 51//54 65//68
f 52//55 60//63 65//68
f 52//55 61//64 46//49
f 61//64 66//69 53//56
f 53//56 67//70 54//57
f 67//70 62//65 54//57
f 62//65 63//66 47//50
f 63//66 68//71 55//58
f 55//58 69//72 56//59
f 57//60 56//59 70//73
f 64//67 57//60 71//74
f 72//75 58//61 64//67
f 59//62 58//61 72//75
f 51//54 59//62 72//75
f 51//54 73//76 65//68
f 52//55 65//68 74//77
f 52//55 74//77 61//64
f 61//64 75//78 66//69
f 66//69 76//79 53//56
f 53//56 76//79 67//70
f 67//70 77//80 62//65
f 62//65 78//81 63//66
f 63//66 79//82 68//71
f 55//58 68//83 69//72
f 56//59 69//72 80//84
f 70//73 56//59 80//85
f 71//74 57//60 70//73
f 81//86 64//67 71//74
f 72//75 64//67 81//86
f 51//54 72//75 73//76
f 65//68 73//76 75//78
f 65//68 75//78 74//77
f 74//77 75//78 61//64
f 75//78 73//76 66//69
f 66//69 82//87 76//79
f 76//79 77//80 67//70
f 77//80 83//88 62//65
f 83//88 78//81 62//65
f 78//81 79//82 63//66
f 79//82 84//89 68//71
f 68//83 80//84 69//72
f 70//73 80//85 85//90
f 71//74 70//73 86//91
f 81//86 71//74 87//92
f 72//75 81//86 73//76
f 66//69 73//76 82//87
f 76//79 82//87 88//93
f 76//79 88//93 77//80
f 88//93 83//88 77//80
f 83//88 89//94 78//81
f 78//81 90//95 79//82
f 84//89 79//82 91//96
f 68//83 84//97 80//84
f 80//85 92//98 85//90
f 86//91 70//73 85//90
f 71//74 86//91 87//92
f 73//76 81//86 87//92
f 82//87 73//76 93//99
f 88//93 82//87 94//100
f 88//93 94//100 83//88
f 94//100 89//94 83//88
f 89//94 90//95 78//81
f 91//96 79//82 90//95
f 95//101 84//89 91//96
f 84//97 92//102 80//84
f 85//90 92//98 96//103
f 86//91 85//90 97//104
f 87//92 86//91 97//104
f 73//76 87//92 93//99
f 82//87 93//99 98//105
f 82//87 98//105 94//100
f 94//100 99//106 89//94
f 100//107 90//95 89//94
f 100//107 91//96 90//95
f 84//97 95//108 92//102
f 95//101 91//96 101//109
f 92//98 95//101 96//103
f 85//90 96//103 97//104
f 87//92 97//104 102//110
f 93//99 87//92 102//110
f 93//99 103//111 98//105
f 94//100 98//105 104//112
f 94//100 104//112 99//106
f 99//106 104//112 89//94
f 89//94 105//113 100//107
f 101//109 91//96 100//107
f 96//103 95//101 101//109
f 97//104 96//103 100//107
f 97//104 100//107 102//110
f 93//99 102//110 103//111
f 103//111 102//110 98//105
f 104//112 98//105 106//114
f 104//112 105//113 89//94
f 102//110 100//107 105//113
f 96//103 101//109 100//107
f 98//105 102//110 105//113
f 106//114 98//105 105//113
f 104//112 106//114 105//113
usemtl material-1
f 2//116 4//118 1//115
f 1//115 4//118 7//122
f 2//116 8//123 4//118
f 9//124 2//119 3//117
f 4//118 11//126 7//122
f 8//123 12//127 4//118
f 13//128 8//123 2//116
f 14//129 2//119 9//124
f 15//130 9//124 5//120
f 7//122 11//126 18//133
f 4//118 19//134 11//126
f 4//118 12//135 20//136
f 13//128 12//127 8//123
f 13//137 2//119 14//129
f 14//129 9//124 21//138
f 21//138 9//124 15//130
f 15//130 5//120 10//125
f 23//140 16//131 6//121
f 7//122 18//133 17//132
f 11//126 26//143 18//133
f 11//126 19//134 26//143
f 4//118 27//144 19//134
f 12//135 28//145 20//136
f 4//118 20//136 27//144
f 13//128 29//146 12//127
f 30//147 13//137 14//129
f 30//147 14//129 21//138
f 21//138 15//130 22//139
f 22//139 15//130 10//125
f 23//140 22//139 16//131
f 23//140 6//121 24//141
f 17//132 18//133 25//142
f 18//133 26//143 31//148
f 19//134 27//144 26//143
f 20//136 28//145 32//149
f 12//135 33//150 28//145
f 27//144 20//136 32//149
f 29//146 33//150 12//127
f 34//151 29//146 13//128
f 35//152 13//137 30//147
f 36//153 30//147 21//138
f 36//153 21//138 22//139
f 37//154 22//139 23//140
f 38//155 23//140 24//141
f 25//142 39//156 24//141
f 18//133 39//156 25//142
f 26//143 40//157 31//148
f 18//133 31//148 39//156
f 27//144 32//149 26//143
f 28//145 41//158 32//149
f 33//150 42//159 28//145
f 34//151 33//150 29//146
f 35//152 34//151 13//128
f 43//160 35//152 30//147
f 44//161 30//147 36//153
f 37//154 36//153 22//139
f 38//155 37//154 23//140
f 45//162 38//155 24//141
f 39//156 31//148 24//141
f 31//148 40//157 24//141
f 26//143 32//149 40//157
f 32//149 41//158 46//163
f 42//159 41//158 28//145
f 33//150 47//164 42//159
f 48//165 33//150 34//151
f 35//152 48//165 34//151
f 49//166 35//152 43//160
f 43//160 30//147 44//161
f 44//161 36//153 50//167
f 50//167 36//153 37//154
f 50//167 37//154 38//155
f 45//162 51//168 38//155
f 52//169 45//162 24//141
f 40//157 52//169 24//141
f 32//149 46//163 40//157
f 41//158 53//170 46//163
f 42//159 54//171 41//158
f 42//159 47//164 54//171
f 33//150 55//172 47//164
f 48//165 55//172 33//150
f 35//152 56//173 48//165
f 57//174 35//152 49//166
f 49//166 43//160 58//175
f 58//175 43//160 44//161
f 59//176 44//161 50//167
f 51//168 50//167 38//155
f 60//177 51//168 45//162
f 52//169 60//177 45//162
f 40//157 46//163 52//169
f 53//170 61//178 46//163
f 41//158 54//171 53//170
f 47//164 62//179 54//171
f 55//172 63//180 47//164
f 56//173 55//172 48//165
f 56//173 35//152 57//174
f 57//174 49//166 64//181
f 64//181 49//166 58//175
f 58//175 44//161 59//176
f 59//176 50//167 51//168
f 65//182 51//168 60//177
f 65//182 60//177 52//169
f 46//163 61//178 52//169
f 53//170 66//183 61//178
f 54//171 67//184 53//170
f 54//171 62//179 67//184
f 47//164 63//180 62//179
f 55//172 68//185 63//180
f 56//173 69//186 55//172
f 70//187 56//173 57//174
f 71//188 57//174 64//181
f 64//181 58//175 72//189
f 72//189 58//175 59//176
f 72//189 59//176 51//168
f 65//182 73//190 51//168
f 74//191 65//182 52//169
f 61//178 74//191 52//169
f 66//183 75//192 61//178
f 53//170 76//193 66//183
f 67//184 76//193 53//170
f 62//179 77//194 67//184
f 63//180 78//195 62//179
f 68//185 79//196 63//180
f 69//186 68//197 55//172
f 80//198 69//186 56//173
f 80//199 56//173 70//187
f 70//187 57//174 71//188
f 71//188 64//181 81//200
f 81//200 64//181 72//189
f 73//190 72//189 51//168
f 75//192 73//190 65//182
f 74//191 75//192 65//182
f 61//178 75//192 74//191
f 66//183 73//190 75//192
f 76//193 82//201 66//183
f 67//184 77//194 76//193
f 62//179 83//202 77//194
f 62//179 78//195 83//202
f 63//180 79//196 78//195
f 68//185 84//203 79//196
f 69//186 80//198 68//197
f 85//204 80//199 70//187
f 86//205 70//187 71//188
f 87//206 71//188 81//200
f 73//190 81//200 72//189
f 82//201 73//190 66//183
f 88//207 82//201 76//193
f 77//194 88//207 76//193
f 77//194 83//202 88//207
f 78//195 89//208 83//202
f 79//196 90//209 78//195
f 91//210 79//196 84//203
f 80//198 84//211 68//197
f 85//204 92//212 80//199
f 85//204 70//187 86//205
f 87//206 86//205 71//188
f 87//206 81//200 73//190
f 93//213 73//190 82//201
f 94//214 82//201 88//207
f 83//202 94//214 88//207
f 83//202 89//208 94//214
f 78//195 90//209 89//208
f 90//209 79//196 91//210
f 91//210 84//203 95//215
f 80//198 92//216 84//211
f 96//217 92//212 85//204
f 97//218 85//204 86//205
f 97//218 86//205 87//206
f 93//213 87//206 73//190
f 98//219 93//213 82//201
f 94//214 98//219 82//201
f 89//208 99//220 94//214
f 89//208 90//209 100//221
f 90//209 91//210 100//221
f 92//216 95//222 84//211
f 101//223 91//210 95//215
f 96//217 95//215 92//212
f 97//218 96//217 85//204
f 102//224 97//218 87//206
f 102//224 87//206 93//213
f 98//219 103//225 93//213
f 104//226 98//219 94//214
f 99//220 104//226 94//214
f 89//208 104//226 99//220
f 100//221 105//227 89//208
f 100//221 91//210 101//223
f 101//223 95//215 96//217
f 100//221 96//217 97//218
f 102//224 100//221 97//218
f 103//225 102//224 93//213
f 98//219 102//224 103//225
f 106//228 98//219 104//226
f 89//208 105//227 104//226
f 105//227 100//221 102//224
f 100//221 101//223 96//217
f 105//227 102//224 98//219
f 105//227 98//219 106//228
f 105//227 106//228 104//226