mtllib new-7.mtl
v 0.499792 -0.176474 0.038906
v 0.508875 -0.185443 0.045065
v 0.505460 -0.163098 0.042905
v 0.506125 -0.160024 0.032986
v 0.508398 -0.164797 0.047310
v 0.504988 -0.159126 0.037569
v 0.509608 -0.160060 0.028523
v 0.516756 -0.166721 0.050665
v 0.517619 -0.178910 0.046529
v 0.505416 -0.159213 0.042547
v 0.507627 -0.159660 0.047400
v 0.504998 -0.159128 0.037420
v 0.513989 -0.160946 0.025768
v 0.511382 -0.160419 0.050707
v 0.505407 -0.159211 0.042714
v 0.512724 -0.091726 0.062064
v 0.513333 -0.089089 0.052008
v 0.516349 -0.161423 0.052244
v 0.521321 -0.162428 0.051639
v 0.525603 -0.179005 0.039569
v 0.507633 -0.159661 0.047175
v 0.506455 -0.159423 0.032621
v 0.554072 0.316699 0.153927
v 0.514051 -0.160958 0.025853
v 0.525679 -0.163309 0.048994
v 0.515679 -0.093207 0.066516
v 0.544522 0.314036 0.164786
v 0.549463 0.315950 0.156168
v 0.529018 -0.165762 0.043651
v 0.526181 -0.176254 0.029548
v 0.547409 0.312333 0.174210
v 0.511408 -0.160424 0.050466
v 0.546074 0.315025 0.160004
v 0.545046 0.313096 0.169774
v 0.518319 -0.159619 0.025811
v 0.527703 -0.163718 0.030035
v 0.528890 -0.163958 0.044820
v 0.530406 -0.164265 0.039744
v 0.551276 0.311903 0.177369
v 0.524066 -0.094935 0.069927
v 0.559233 0.317180 0.153766
v 0.526699 -0.161423 0.029202
v 0.528926 -0.163965 0.044685
v 0.530416 -0.164267 0.039636
v 0.516364 -0.161426 0.052003
v 0.564124 0.317345 0.155543
v 0.529930 -0.164168 0.034546
v 0.529956 -0.164174 0.034616
v 0.556032 0.311903 0.178935
v 0.521345 -0.162433 0.051428
v 0.567945 0.317140 0.158947
v 0.570505 0.315608 0.168537
v 0.560963 0.312386 0.178741
v 0.570164 0.316541 0.163511
v 0.568748 0.314449 0.173199
v 0.565394 0.313309 0.176707
v 0.525717 -0.163317 0.048819
vn 0.827309 -0.442265 -0.346353
vn -0.827309 0.442265 0.346353
vn 0.137545 0.194440 -0.971223
vn -0.137545 -0.194440 0.971223
vn 0.899279 -0.081513 -0.429712
vn -0.899279 0.081513 0.429712
vn 0.885426 -0.378949 0.269108
vn -0.885426 0.378949 -0.269108
vn 0.610890 0.116575 -0.783086
vn -0.610890 -0.116575 0.783086
vn 0.985810 -0.161064 -0.047306
vn -0.985810 0.161064 0.047306
vn 0.592493 -0.362490 0.719412
vn -0.592493 0.362490 -0.719412
vn 0.157413 0.287836 -0.944654
vn -0.157413 -0.287836 0.944654
vn -0.347045 0.415684 -0.840694
vn 0.347045 -0.415684 0.840694
vn 0.979479 -0.016089 -0.200902
vn -0.979479 0.016089 0.200902
vn 0.819438 0.081567 -0.567335
vn -0.819438 -0.081567 0.567335
vn 0.977922 -0.161706 0.132364
vn -0.977922 0.161706 -0.132364
vn 0.536584 -0.319318 0.781097
vn -0.536584 0.319318 -0.781097
vn 0.483110 0.260559 -0.835891
vn -0.483110 -0.260559 0.835891
vn 0.965830 0.000497 -0.259175
vn -0.965830 -0.000497 0.259175
vn 0.962416 -0.017336 -0.271025
vn -0.962416 0.017336 0.271025
vn 0.836170 -0.215289 0.504450
vn -0.836170 0.215289 -0.504450
vn 0.141123 0.292592 -0.945767
vn -0.141123 -0.292592 0.945767
vn -0.198353 0.321601 -0.925866
vn 0.198353 -0.321601 0.925866
vn -0.841555 0.448582 -0.300931
vn 0.841555 -0.448582 0.300931
vn 0.814482 0.072556 -0.575634
vn -0.814482 -0.072556 0.575634
vn 0.860207 -0.211967 0.463804
vn -0.860207 0.211967 -0.463804
vn 0.584900 -0.252332 0.770857
vn -0.584900 0.252332 -0.770857
vn -0.618817 0.374345 -0.690602
vn 0.618817 -0.374345 0.690602
vn 0.650745 0.139261 -0.746416
vn -0.650745 -0.139261 0.746416
vn 0.992949 -0.097172 0.067897
vn -0.992949 0.097172 -0.067897
vn -0.811247 -0.087057 0.578187
vn -0.243880 -0.206097 0.947653
vn -0.249563 -0.231343 0.940318
vn 0.249563 0.231343 -0.940318
vn 0.243880 0.206097 -0.947653
vn 0.811247 0.087057 -0.578187
vn 0.617761 -0.247085 0.746539
vn -0.617761 0.247085 -0.746539
vn -0.848222 0.292277 -0.441693
vn 0.848222 -0.292277 0.441693
vn -0.889933 0.262144 0.373229
vn 0.889933 -0.262144 -0.373229
vn 0.799401 0.094610 -0.593302
vn -0.799401 -0.094610 0.593302
vn 0.472769 0.179738 -0.862661
vn -0.472769 -0.179738 0.862661
vn 0.869891 -0.191907 0.454380
vn -0.869891 0.191907 -0.454380
vn 0.956028 0.001699 -0.293269
vn -0.956028 -0.001699 0.293269
vn -0.186112 -0.283611 0.940706
vn 0.186112 0.283611 -0.940706
vn -0.798573 -0.028831 0.601208
vn 0.798573 0.028831 -0.601208
vn -0.855592 0.237477 -0.459963
vn 0.855592 -0.237477 0.459963
vn -0.962389 0.234755 -0.136741
vn 0.962389 -0.234755 0.136741
vn 0.454168 0.197018 -0.868858
vn -0.454168 -0.197018 0.868858
vn 0.174321 0.238619 -0.955339
vn -0.174321 -0.238619 0.955339
vn -0.138630 -0.245575 0.959414
vn 0.138630 0.245575 -0.959414
vn -0.677315 -0.196396 0.708994
vn 0.677315 0.196396 -0.708994
vn -0.908084 0.169417 -0.382991
vn 0.908084 -0.169417 0.382991
vn -0.990555 0.136981 -0.006152
vn 0.990555 -0.136981 0.006152
vn 0.138059 0.242854 -0.960188
vn -0.138059 -0.242854 0.960188
vn -0.471364 -0.190916 0.861027
vn 0.471364 0.190916 -0.861027
vn -0.922982 -0.038225 0.382940
vn 0.922982 0.038225 -0.382940
vn -0.966654 0.139665 0.214647
vn 0.966654 -0.139665 -0.214647
vn 0.122741 0.247843 -0.960994
vn -0.122741 -0.247843 0.960994
vn -0.277450 0.271129 -0.921689
vn 0.277450 -0.271129 0.921689
vn -0.822727 -0.081937 0.562501
vn 0.822727 0.081937 -0.562501
vn -0.975722 0.128967 -0.177017
vn 0.975722 -0.128967 0.177017
vn -0.217567 0.269518 -0.938096
vn 0.217567 -0.269518 0.938096
vn -0.978246 0.026622 0.205731
vn 0.978246 -0.026622 -0.205731
vn -0.821788 0.210566 -0.529458
vn 0.821788 -0.210566 0.529458
vn -0.555200 0.258321 -0.790584
vn 0.555200 -0.258321 0.790584
vn -0.658357 0.245764 -0.711454
vn 0.658357 -0.245764 0.711454
usemtl material-0
f 6//11 3//5 1//1
f 1//2 3//6 6//12
f 4//7 6//11 1//1
f 1//2 6//12 4//8
f 5//9 8//15 2//3
f 2//4 8//16 5//10
f 10//19 3//5 6//11
f 6//12 3//6 10//20
f 3//5 11//21 5//9
f 5//10 11//22 3//6
f 6//11 4//7 12//23
f 12//24 4//8 6//12
f 14//27 8//15 5//9
f 5//10 8//16 14//28
f 3//5 10//19 15//29
f 15//30 10//20 3//6
f 6//11 16//31 10//19
f 10//20 16//32 6//12
f 15//29 11//21 3//5
f 3//6 11//22 15//30
f 11//21 14//27 5//9
f 5//10 14//28 11//22
f 16//31 6//11 12//23
f 12//24 6//12 16//32
f 17//33 7//13 13//25
f 13//26 7//14 17//34
f 14//27 18//35 8//15
f 8//16 18//36 14//28
f 19//37 9//17 8//15
f 8//16 9//18 19//38
f 10//19 16//31 21//41
f 21//42 16//32 10//20
f 12//23 17//33 16//31
f 16//32 17//34 12//24
f 7//13 17//33 22//43
f 22//44 17//34 7//14
f 13//25 23//45 17//33
f 17//34 23//46 13//26
f 18//35 19//37 8//15
f 8//16 19//38 18//36
f 19//37 25//47 9//17
f 9//18 25//48 19//38
f 21//41 16//31 26//49
f 26//50 16//32 21//42
f 22//43 17//33 12//23
f 12//24 17//34 22//44
f 17//33 27//51 16//31
f 16//32 27//52 17//34
f 13//53 24//54 23//55
f 23//56 24//57 13//58
f 23//45 28//59 17//33
f 17//34 28//60 23//46
f 16//31 31//65 26//49
f 26//50 31//66 16//32
f 26//49 32//67 21//41
f 21//42 32//68 26//50
f 17//33 33//69 27//51
f 27//52 33//70 17//34
f 16//31 27//51 34//71
f 34//72 27//52 16//32
f 23//55 24//54 35//73
f 35//74 24//57 23//56
f 17//33 28//59 33//69
f 33//70 28//60 17//34
f 29//61 25//47 37//77
f 37//78 25//48 29//62
f 20//39 29//61 38//79
f 38//80 29//62 20//40
f 16//31 34//71 31//65
f 31//66 34//72 16//32
f 31//65 39//81 26//49
f 26//50 39//82 31//66
f 26//49 40//83 32//67
f 32//68 40//84 26//50
f 41//85 23//55 35//73
f 35//74 23//56 41//86
f 43//89 29//61 37//77
f 37//78 29//62 43//90
f 29//61 43//89 38//79
f 38//80 43//90 29//62
f 44//91 30//63 38//79
f 38//80 30//64 44//92
f 39//81 40//83 26//49
f 26//50 40//84 39//82
f 40//83 45//93 32//67
f 32//68 45//94 40//84
f 46//95 41//85 35//73
f 35//74 41//86 46//96
f 42//87 36//75 47//97
f 47//98 36//76 42//88
f 43//89 44//91 38//79
f 38//80 44//92 43//90
f 30//63 44//91 48//99
f 48//100 44//92 30//64
f 49//101 40//83 39//81
f 39//82 40//84 49//102
f 40//83 50//103 45//93
f 45//94 50//104 40//84
f 46//95 35//73 42//87
f 42//88 35//74 46//96
f 42//87 47//97 51//105
f 51//106 47//98 42//88
f 44//91 43//89 52//107
f 52//108 43//90 44//92
f 44//91 47//97 48//99
f 48//100 47//98 44//92
f 53//109 40//83 49//101
f 49//102 40//84 53//110
f 53//109 50//103 40//83
f 40//84 50//104 53//110
f 46//95 42//87 51//105
f 51//106 42//88 46//96
f 47//97 54//111 51//105
f 51//106 54//112 47//98
f 43//89 55//113 52//107
f 52//108 55//114 43//90
f 44//91 52//107 54//111
f 54//112 52//108 44//92
f 47//97 44//91 54//111
f 54//112 44//92 47//98
f 56//115 50//103 53//109
f 53//110 50//104 56//116
f 43//89 57//117 55//113
f 55//114 57//118 43//90
f 56//115 57//117 50//103
f 50//104 57//118 56//116
f 57//117 56//115 55//113
f 55//114 56//116 57//118