# SSTK version 0.8.0
# 22
mtllib original-22.mtl
o Group_24_2/Group_24/mesh44/mesh44-geometry#mesh44-geometry
v -0.331284 -0.691033 0.607950
v -0.305030 -0.687423 0.588814
v -0.311218 -0.691033 0.583695
v -0.325096 -0.687423 0.613069
v -0.278411 -0.687905 0.610836
v -0.336894 -0.695982 0.603309
v -0.298476 -0.687905 0.635091
v -0.298454 -0.685263 0.594255
v -0.272303 -0.691737 0.615889
v -0.284939 -0.685508 0.605436
v -0.316829 -0.695982 0.579054
v -0.292369 -0.691737 0.640143
v -0.305004 -0.685508 0.629690
v -0.318519 -0.685263 0.618510
v -0.341758 -0.702120 0.599285
v -0.286866 -0.696887 0.644695
v -0.291688 -0.684618 0.599852
v -0.266801 -0.696887 0.620440
v -0.311753 -0.684618 0.624107
v -0.321692 -0.702120 0.575030
v -0.325661 -0.709261 0.571748
v -0.282137 -0.703199 0.648608
v -0.262071 -0.703199 0.624353
v -0.345726 -0.709261 0.596002
v -0.328613 -0.717188 0.569305
v -0.258258 -0.710481 0.627508
v -0.278324 -0.710481 0.651763
v -0.348679 -0.717188 0.593560
v -0.330460 -0.725660 0.567777
v -0.255477 -0.718512 0.629808
v -0.275543 -0.718512 0.654063
v -0.350526 -0.725660 0.592032
v -0.331146 -0.734419 0.567210
v -0.253813 -0.727047 0.631185
v -0.273878 -0.727047 0.655440
v -0.351211 -0.734419 0.591465
v -0.330649 -0.743200 0.567621
v -0.253316 -0.735828 0.631596
v -0.273381 -0.735828 0.655851
v -0.350714 -0.743200 0.591876
v -0.328984 -0.751735 0.568998
v -0.254001 -0.744587 0.631029
v -0.274067 -0.744587 0.655284
v -0.349050 -0.751735 0.593253
v -0.346269 -0.759766 0.595553
v -0.255848 -0.753059 0.629501
v -0.275914 -0.753059 0.653756
v -0.326203 -0.759766 0.571299
v -0.342456 -0.767048 0.598708
v -0.278866 -0.760986 0.651314
v -0.258801 -0.760986 0.627059
v -0.322390 -0.767048 0.574453
v -0.337726 -0.773360 0.602621
v -0.282835 -0.768127 0.648031
v -0.262769 -0.768127 0.623776
v -0.317660 -0.773360 0.578366
v -0.312158 -0.778510 0.582918
v -0.287698 -0.774265 0.644007
v -0.267633 -0.774265 0.619752
v -0.332224 -0.778510 0.607173
v -0.306050 -0.782342 0.587970
v -0.273243 -0.779214 0.615111
v -0.293309 -0.779214 0.639366
v -0.326116 -0.782342 0.612225
v -0.299523 -0.784739 0.593371
v -0.279431 -0.782824 0.609992
v -0.299497 -0.782824 0.634247
v -0.319588 -0.784739 0.617626
v -0.292773 -0.785629 0.598954
v -0.286008 -0.784984 0.604551
v -0.306073 -0.784984 0.628806
v -0.312839 -0.785629 0.623209
vn -0.3759133993708092 0.8729140099465421 -0.31098271240139824
vn -0.2534079486421351 0.9443710025413309 -0.20963735622275573
vn 0.6374241150725923 0 -0.7705131390988234
vn -0.48699676838949635 0.7749340238860813 -0.4028788976875227
vn -0.6374241150725923 0 0.7705131390988234
vn -0.12320272506532881 0.9871337069219636 -0.10192219186703143
vn 0.2736031868178643 0.9348312932797317 0.2263443157405397
vn 0.39452517951519694 0.8589680787999491 0.32637972107841795
vn 0.14436801436199168 0.9822901597541799 0.11943164772908225
vn -0.5832830856063644 0.6534079002228045 -0.48253389308103967
vn 0.010745575489227749 0.999902749826752 0.008889516089469847
vn 0.5034594764811694 0.7570059043713846 0.4164980387566895
vn -0.6618462534316467 0.5120290030053871 -0.5475270193331117
vn 0.5970969334601759 0.6320419965421602 0.49396170566092884
vn -0.7202998271048472 0.35509206346306654 -0.5958840369889672
vn 0.6725917717689193 0.48787395941172434 0.5564164881423567
vn -0.7568674840915318 0.18736599902234302 -0.6261354437622215
vn 0.7276502940589021 0.3288819543565856 0.6019648741036189
vn -0.7704382066166579 0.013945993994088773 -0.637362125511726
vn 0.7605994982518758 0.15989692513713838 0.629222835401484
vn -0.7605994982518758 -0.15989692513713838 -0.629222835401484
vn 0.7704382066166579 -0.013945993994088773 0.637362125511726
vn -0.7276502940589021 -0.3288819543565856 -0.6019648741036189
vn 0.7568674840915318 -0.18736599902234302 0.6261354437622215
vn -0.6725917717689193 -0.48787395941172434 -0.5564164881423567
vn 0.7202998271048472 -0.35509206346306654 0.5958840369889672
vn -0.5970969334601759 -0.6320419965421602 -0.49396170566092884
vn 0.6618462534316467 -0.5120290030053871 0.5475270193331117
vn -0.5034594764811694 -0.7570059043713846 -0.4164980387566895
vn 0.5832830856063644 -0.6534079002228045 0.48253389308103967
vn -0.39452517951519694 -0.8589680787999491 -0.32637972107841795
vn 0.48699676838949635 -0.7749340238860813 0.4028788976875227
vn -0.2736031868178643 -0.9348312932797317 -0.2263443157405397
vn 0.3759133993708092 -0.8729140099465421 0.31098271240139824
vn -0.14436801436199168 -0.9822901597541799 -0.11943164772908225
vn 0.2534079486421351 -0.9443710025413309 0.20963735622275573
vn -0.010745575489227749 -0.999902749826752 -0.008889516089469847
vn 0.12320272506532881 -0.9871337069219636 0.10192219186703143
usemtl material_0_0
f 1//1 2//2 3//1
f 2//2 1//1 4//2
f 5//3 3//3 2//3
f 3//1 6//4 1//1
f 1//5 7//5 4//5
f 4//2 8//6 2//2
f 9//3 3//3 5//3
f 5//3 2//3 10//3
f 6//4 3//1 11//4
f 6//5 12//5 1//5
f 1//5 12//5 7//5
f 4//5 7//5 13//5
f 8//6 4//2 14//6
f 10//3 2//3 8//3
f 9//3 11//3 3//3
f 7//7 9//8 5//7
f 13//9 5//7 10//9
f 11//4 15//10 6//4
f 6//5 16//5 12//5
f 9//8 7//7 12//8
f 5//7 13//9 7//7
f 4//5 13//5 14//5
f 14//6 17//11 8//6
f 10//3 8//3 17//3
f 18//3 11//3 9//3
f 10//9 19//11 13//9
f 15//10 11//4 20//10
f 15//5 16//5 6//5
f 18//12 12//8 16//12
f 12//8 18//12 9//8
f 14//5 13//5 19//5
f 17//11 14//6 19//11
f 19//11 10//9 17//11
f 18//3 20//3 11//3
f 21//13 15//10 20//10
f 15//5 22//5 16//5
f 22//14 18//12 16//12
f 23//3 20//3 18//3
f 15//10 21//13 24//13
f 23//3 21//3 20//3
f 24//5 22//5 15//5
f 18//12 22//14 23//14
f 25//15 24//13 21//13
f 26//3 21//3 23//3
f 24//5 27//5 22//5
f 22//14 26//16 23//14
f 24//13 25//15 28//15
f 26//3 25//3 21//3
f 28//5 27//5 24//5
f 26//16 22//14 27//16
f 29//17 28//15 25//15
f 30//3 25//3 26//3
f 28//5 31//5 27//5
f 27//16 30//18 26//16
f 28//15 29//17 32//17
f 30//3 29//3 25//3
f 32//5 31//5 28//5
f 30//18 27//16 31//18
f 33//19 32//17 29//17
f 34//3 29//3 30//3
f 32//5 35//5 31//5
f 31//18 34//20 30//18
f 32//17 33//19 36//19
f 34//3 33//3 29//3
f 36//5 35//5 32//5
f 34//20 31//18 35//20
f 37//21 36//19 33//19
f 38//3 33//3 34//3
f 36//5 39//5 35//5
f 35//20 38//22 34//20
f 36//19 37//21 40//21
f 38//3 37//3 33//3
f 40//5 39//5 36//5
f 38//22 35//20 39//22
f 41//23 40//21 37//21
f 42//3 37//3 38//3
f 40//5 43//5 39//5
f 39//22 42//24 38//22
f 40//21 41//23 44//23
f 42//3 41//3 37//3
f 44//5 43//5 40//5
f 42//24 39//22 43//24
f 41//23 45//25 44//23
f 46//3 41//3 42//3
f 44//5 47//5 43//5
f 43//24 46//26 42//24
f 45//25 41//23 48//25
f 45//5 47//5 44//5
f 46//3 48//3 41//3
f 46//26 43//24 47//26
f 48//25 49//27 45//25
f 45//5 50//5 47//5
f 51//3 48//3 46//3
f 47//26 51//28 46//26
f 49//27 48//25 52//27
f 49//5 50//5 45//5
f 51//28 47//26 50//28
f 51//3 52//3 48//3
f 52//27 53//29 49//27
f 49//5 54//5 50//5
f 50//28 55//30 51//28
f 55//3 52//3 51//3
f 53//29 52//27 56//29
f 53//5 54//5 49//5
f 55//30 50//28 54//30
f 55//3 56//3 52//3
f 57//31 53//29 56//29
f 53//5 58//5 54//5
f 58//32 55//30 54//30
f 59//3 56//3 55//3
f 53//29 57//31 60//31
f 59//3 57//3 56//3
f 60//5 58//5 53//5
f 55//30 58//32 59//32
f 61//33 60//31 57//31
f 62//3 57//3 59//3
f 60//5 63//5 58//5
f 63//34 59//32 58//32
f 60//31 61//33 64//33
f 62//3 61//3 57//3
f 59//32 63//34 62//34
f 64//5 63//5 60//5
f 65//35 64//33 61//33
f 66//3 61//3 62//3
f 67//36 62//34 63//34
f 64//5 67//5 63//5
f 64//33 65//35 68//35
f 66//3 65//3 61//3
f 62//34 67//36 66//36
f 68//5 67//5 64//5
f 69//37 68//35 65//35
f 70//3 65//3 66//3
f 71//38 66//36 67//36
f 68//5 71//5 67//5
f 68//35 69//37 72//37
f 65//3 70//3 69//3
f 66//36 71//38 70//38
f 71//5 68//5 72//5
f 70//38 72//37 69//37
f 72//37 70//38 71//38
usemtl material_1_0
f 3//34 2//36 1//34
f 4//36 1//34 2//36
f 2//5 3//5 5//5
f 1//34 6//32 3//34
f 4//3 7//3 1//3
f 2//36 8//38 4//36
f 5//5 3//5 9//5
f 10//5 2//5 5//5
f 11//32 3//34 6//32
f 1//3 12//3 6//3
f 7//3 12//3 1//3
f 13//3 7//3 4//3
f 14//38 4//36 8//38
f 8//5 2//5 10//5
f 3//5 11//5 9//5
f 5//33 9//31 7//33
f 10//35 5//33 13//35
f 6//32 15//30 11//32
f 12//3 16//3 6//3
f 12//31 7//33 9//31
f 7//33 13//35 5//33
f 14//3 13//3 4//3
f 8//38 17//37 14//38
f 17//5 8//5 10//5
f 9//5 11//5 18//5
f 13//35 19//37 10//35
f 20//30 11//32 15//30
f 6//3 16//3 15//3
f 16//29 12//31 18//29
f 9//31 18//29 12//31
f 19//3 13//3 14//3
f 19//37 14//38 17//37
f 17//37 10//35 19//37
f 11//5 20//5 18//5
f 20//30 15//30 21//28
f 16//3 22//3 15//3
f 16//29 18//29 22//27
f 18//5 20//5 23//5
f 24//28 21//28 15//30
f 20//5 21//5 23//5
f 15//3 22//3 24//3
f 23//27 22//27 18//29
f 21//28 24//28 25//26
f 23//5 21//5 26//5
f 22//3 27//3 24//3
f 23//27 26//25 22//27
f 28//26 25//26 24//28
f 21//5 25//5 26//5
f 24//3 27//3 28//3
f 27//25 22//27 26//25
f 25//26 28//26 29//24
f 26//5 25//5 30//5
f 27//3 31//3 28//3
f 26//25 30//23 27//25
f 32//24 29//24 28//26
f 25//5 29//5 30//5
f 28//3 31//3 32//3
f 31//23 27//25 30//23
f 29//24 32//24 33//22
f 30//5 29//5 34//5
f 31//3 35//3 32//3
f 30//23 34//21 31//23
f 36//22 33//22 32//24
f 29//5 33//5 34//5
f 32//3 35//3 36//3
f 35//21 31//23 34//21
f 33//22 36//22 37//20
f 34//5 33//5 38//5
f 35//3 39//3 36//3
f 34//21 38//19 35//21
f 40//20 37//20 36//22
f 33//5 37//5 38//5
f 36//3 39//3 40//3
f 39//19 35//21 38//19
f 37//20 40//20 41//18
f 38//5 37//5 42//5
f 39//3 43//3 40//3
f 38//19 42//17 39//19
f 44//18 41//18 40//20
f 37//5 41//5 42//5
f 40//3 43//3 44//3
f 43//17 39//19 42//17
f 44//18 45//16 41//18
f 42//5 41//5 46//5
f 43//3 47//3 44//3
f 42//17 46//15 43//17
f 48//16 41//18 45//16
f 44//3 47//3 45//3
f 41//5 48//5 46//5
f 47//15 43//17 46//15
f 45//16 49//14 48//16
f 47//3 50//3 45//3
f 46//5 48//5 51//5
f 46//15 51//13 47//15
f 52//14 48//16 49//14
f 45//3 50//3 49//3
f 50//13 47//15 51//13
f 48//5 52//5 51//5
f 49//14 53//12 52//14
f 50//3 54//3 49//3
f 51//13 55//10 50//13
f 51//5 52//5 55//5
f 56//12 52//14 53//12
f 49//3 54//3 53//3
f 54//10 50//13 55//10
f 52//5 56//5 55//5
f 56//12 53//12 57//8
f 54//3 58//3 53//3
f 54//10 55//10 58//4
f 55//5 56//5 59//5
f 60//8 57//8 53//12
f 56//5 57//5 59//5
f 53//3 58//3 60//3
f 59//4 58//4 55//10
f 57//8 60//8 61//7
f 59//5 57//5 62//5
f 58//3 63//3 60//3
f 58//4 59//4 63//1
f 64//7 61//7 60//8
f 57//5 61//5 62//5
f 62//1 63//1 59//4
f 60//3 63//3 64//3
f 61//7 64//7 65//9
f 62//5 61//5 66//5
f 63//1 62//1 67//2
f 63//3 67//3 64//3
f 68//9 65//9 64//7
f 61//5 65//5 66//5
f 66//2 67//2 62//1
f 64//3 67//3 68//3
f 65//9 68//9 69//11
f 66//5 65//5 70//5
f 67//2 66//2 71//6
f 67//3 71//3 68//3
f 72//11 69//11 68//9
f 69//5 70//5 65//5
f 70//6 71//6 66//2
f 72//3 68//3 71//3
f 69//11 72//11 70//6
f 71//6 70//6 72//11
