# SSTK version 0.8.0
# 54
mtllib original-54.mtl
o mesh53/mesh53-geometry#mesh53-geometry
v 0.009587 -0.248893 0.053648
v -0.429503 -0.284287 0.059592
v -0.429406 -0.285580 0.058595
v 0.009490 -0.247599 0.054645
v 0.009705 -0.250399 0.053021
v 0.009421 -0.246607 0.055944
v -0.429287 -0.287086 0.057967
v -0.429571 -0.283294 0.060891
v 0.009838 -0.252015 0.052806
v 0.009386 -0.245983 0.057456
v -0.428480 -0.288646 0.057744
v -0.429606 -0.282671 0.062403
v -0.429154 -0.288702 0.057752
v 0.009975 -0.253631 0.053018
v -0.429606 -0.282458 0.064025
v 0.009387 -0.245770 0.059078
v -0.429017 -0.290319 0.057964
v -0.429569 -0.282671 0.065646
v 0.010108 -0.255138 0.053642
v 0.009423 -0.245983 0.060700
v -0.428884 -0.291825 0.058588
v -0.429500 -0.283295 0.067157
v 0.010228 -0.256431 0.054637
v 0.009492 -0.246607 0.062211
v -0.428765 -0.293119 0.059583
v -0.429403 -0.284287 0.068454
v -0.428667 -0.294111 0.060880
v 0.009590 -0.247600 0.063508
v 0.010325 -0.257424 0.055933
v 0.009709 -0.248893 0.064502
v -0.428598 -0.294735 0.062391
v -0.429283 -0.285581 0.069448
v 0.010394 -0.258048 0.057444
v 0.009842 -0.250400 0.065127
v -0.428562 -0.294948 0.064012
v -0.429150 -0.287087 0.070073
v 0.010430 -0.258261 0.059066
v 0.009979 -0.252016 0.065339
v -0.428561 -0.294735 0.065634
v -0.429013 -0.288703 0.070285
v 0.010431 -0.258048 0.060688
v 0.010112 -0.253632 0.065123
v 0.010396 -0.257424 0.062200
v -0.428880 -0.290320 0.070070
v -0.428596 -0.294111 0.067146
v 0.010231 -0.255138 0.064496
v 0.010328 -0.256432 0.063499
v -0.428762 -0.291826 0.069442
v -0.428665 -0.293119 0.068445
vn 0.05139699826969438 -0.49831898322384266 0.8654689708635547
vn 0.06685199321689628 -0.7046959284983837 0.7063529283302569
vn 0.032439990301839264 -0.2579829228742111 0.9656047113257553
vn 0.07774999312686204 -0.8630499237059587 0.49909895587940456
vn 0.011272005262308704 -0.00006500003034533078 0.9999364668179487
vn 0.0833500280629173 -0.9625873240911744 0.2578340868095285
vn -0.010664002470204485 0.25785705972988704 0.966124223792558
vn 0.08326996000386568 -0.9965265213494928 -0.0010029995182406113
vn 0.07751498953063245 -0.9625538699950767 -0.2597719649145516
vn -0.031873002712998234 0.49820704240688696 0.8664720737532398
vn 0.06647799550349501 -0.8629849416285633 -0.5008369661238897
vn -0.05091000451658306 0.70460506251045 0.7077710627913283
vn 0.05091000451658306 -0.70460506251045 -0.7077710627913283
vn -0.06647799550349501 0.8629849416285633 0.5008369661238897
vn 0.031873002712998234 -0.49820704240688696 -0.8664720737532398
vn -0.07751498953063245 0.9625538699950767 0.2597719649145516
vn 0.01066399972041126 -0.257857993239479 -0.9661239746701621
vn -0.08326996000386568 0.9965265213494928 0.0010029995182406113
vn -0.011272005262308704 0.00006500003034533078 -0.9999364668179487
vn -0.0833500280629173 0.9625873240911744 -0.2578340868095285
vn -0.032439990301839264 0.2579829228742111 -0.9656047113257553
vn -0.07774999312686204 0.8630499237059587 -0.49909895587940456
vn -0.05139699826969438 0.49831898322384266 -0.8654689708635547
vn -0.06685199321689628 0.7046959284983837 -0.7063529283302569
vn 0.010664002470204485 -0.25785705972988704 -0.966124223792558
vn -0.01066399972041126 0.257857993239479 0.9661239746701621
usemtl material_0_0
f 1//1 2//2 3//1
f 2//2 1//1 4//2
f 3//1 5//3 1//1
f 6//4 2//2 4//2
f 5//3 3//1 7//3
f 2//2 6//4 8//4
f 7//3 9//5 5//3
f 10//6 8//4 6//4
f 7//3 11//5 9//5
f 8//4 10//6 12//6
f 11//5 7//3 13//5
f 11//5 14//7 9//5
f 10//6 15//8 12//6
f 13//5 14//7 11//5
f 15//8 10//6 16//8
f 14//7 13//5 17//7
f 16//8 18//9 15//8
f 17//7 19//10 14//7
f 18//9 16//8 20//9
f 19//10 17//7 21//10
f 20//9 22//11 18//9
f 21//10 23//12 19//10
f 22//11 20//9 24//11
f 23//12 21//10 25//12
f 24//11 26//13 22//11
f 27//14 23//12 25//12
f 26//13 24//11 28//13
f 23//12 27//14 29//14
f 30//15 26//13 28//13
f 31//16 29//14 27//14
f 26//13 30//15 32//15
f 29//14 31//16 33//16
f 34//17 32//15 30//15
f 35//18 33//16 31//16
f 32//15 34//17 36//17
f 33//16 35//18 37//18
f 38//19 36//17 34//17
f 39//20 37//18 35//18
f 36//17 38//19 40//19
f 37//18 39//20 41//20
f 42//21 40//19 38//19
f 39//20 43//22 41//20
f 40//19 42//21 44//21
f 43//22 39//20 45//22
f 46//23 44//21 42//21
f 45//22 47//24 43//22
f 44//21 46//23 48//23
f 47//24 45//22 49//24
f 47//24 48//23 46//23
f 48//23 47//24 49//24
usemtl material_1_0
f 3//23 2//24 1//23
f 4//24 1//23 2//24
f 1//23 5//21 3//23
f 4//24 2//24 6//22
f 7//21 3//23 5//21
f 8//22 6//22 2//24
f 5//21 9//19 7//21
f 6//22 8//22 10//20
f 9//19 11//19 7//21
f 12//20 10//20 8//22
f 13//19 7//21 11//19
f 9//19 14//25 11//19
f 12//20 15//18 10//20
f 11//19 14//25 13//19
f 16//18 10//20 15//18
f 17//25 13//19 14//25
f 15//18 18//16 16//18
f 14//25 19//15 17//25
f 20//16 16//18 18//16
f 21//15 17//25 19//15
f 18//16 22//14 20//16
f 19//15 23//13 21//15
f 24//14 20//16 22//14
f 25//13 21//15 23//13
f 22//14 26//12 24//14
f 25//13 23//13 27//11
f 28//12 24//14 26//12
f 29//11 27//11 23//13
f 28//12 26//12 30//10
f 27//11 29//11 31//9
f 32//10 30//10 26//12
f 33//9 31//9 29//11
f 30//10 32//10 34//26
f 31//9 33//9 35//8
f 36//26 34//26 32//10
f 37//8 35//8 33//9
f 34//26 36//26 38//5
f 35//8 37//8 39//6
f 40//5 38//5 36//26
f 41//6 39//6 37//8
f 38//5 40//5 42//3
f 41//6 43//4 39//6
f 44//3 42//3 40//5
f 45//4 39//6 43//4
f 42//3 44//3 46//1
f 43//4 47//2 45//4
f 48//1 46//1 44//3
f 49//2 45//4 47//2
f 46//1 48//1 47//2
f 49//2 47//2 48//1
