# SSTK version 0.8.0
# 14
mtllib original-14.mtl
o mesh36/mesh36-geometry#mesh36-geometry
v 0.087509 0.383801 -0.440646
v 0.082719 0.385187 -0.437675
v 0.082719 0.384760 -0.440779
v 0.091581 0.381123 -0.440278
v 0.077930 0.383804 -0.440647
v 0.082719 0.380645 -0.443261
v 0.094285 0.377089 -0.439722
v 0.085245 0.376039 -0.444308
v 0.071139 0.377522 -0.436619
v 0.087509 0.384656 -0.434439
v 0.073852 0.381984 -0.434071
v 0.073852 0.381129 -0.440278
v 0.080192 0.376039 -0.444309
v 0.087772 0.371703 -0.443713
v 0.091581 0.381978 -0.434070
v 0.082719 0.385615 -0.434571
v 0.077930 0.384659 -0.434440
v 0.071139 0.377950 -0.433515
v 0.071139 0.377095 -0.439723
v 0.074592 0.375266 -0.442520
v 0.082719 0.376567 -0.440477
v 0.086509 0.374399 -0.440178
v 0.095252 0.372343 -0.439068
v 0.094285 0.377944 -0.433515
v 0.070185 0.373198 -0.432861
v 0.070185 0.372343 -0.439068
v 0.077665 0.371703 -0.443713
v 0.080192 0.377133 -0.436371
v 0.085245 0.377133 -0.436371
v 0.087772 0.372797 -0.435773
v 0.091232 0.369768 -0.441762
v 0.078929 0.374399 -0.440178
v 0.086509 0.370064 -0.439581
v 0.085245 0.367368 -0.443114
v 0.094285 0.367597 -0.438414
v 0.095252 0.373198 -0.432861
v 0.071139 0.368447 -0.432206
v 0.071139 0.367592 -0.438414
v 0.077665 0.372797 -0.435773
v 0.085245 0.368461 -0.435176
v 0.082719 0.363217 -0.440860
v 0.091581 0.363563 -0.437859
v 0.073852 0.364413 -0.431651
v 0.082719 0.360354 -0.434254
v 0.080192 0.367368 -0.443114
v 0.078929 0.370064 -0.439581
v 0.073852 0.363557 -0.437858
v 0.080192 0.368461 -0.435176
v 0.082719 0.367896 -0.439282
v 0.077930 0.360882 -0.437489
v 0.087509 0.360886 -0.437490
v 0.077930 0.361737 -0.431282
v 0.082719 0.359927 -0.437358
v 0.094285 0.368452 -0.432207
v 0.082719 0.360782 -0.431150
v 0.091581 0.364418 -0.431651
v 0.087509 0.361741 -0.431283
vn -0.33898510188114017 -0.7327582202286844 0.59004617733693
vn 0.012968005303681831 -0.9967564076555125 0.07942603248382404
vn -0.0003119999825117775 -0.8335539532776353 0.5524379690347476
vn -0.4680160099366821 -0.612841013011534 -0.6367000135180967
vn 0.405568013668859 -0.8711710293610778 0.2767230093263956
vn 0.09437602641085156 -0.38178710684199163 0.9194192572967568
vn -0.4208351696923476 -0.3946161591201192 -0.8168083293596471
vn -0.29082987720118186 -0.24469389668144984 0.9249556094505257
vn -0.3676588234094653 -0.2516298791394304 0.8952705699918004
vn 0.8417331484005132 -0.5398900951845218 0.0019980003522543665
vn -0.6851922804256186 -0.415467170036414 0.5982462448415986
vn -0.39674409854231957 -0.8453222099590434 0.3578050888707443
vn 0.6242959923161648 -0.6395899921279264 0.44852999447949266
vn 0.6054311366076808 -0.5513421244031971 0.5739991295154561
vn 0.21766207962940093 -0.2212590809453266 0.9506143477723412
vn -0.4616987615374991 0.029486984770285714 0.886546542108138
vn -0.7021886176211858 -0.6692556355549351 0.24295686769714472
vn -0.00034299999022964543 -0.9906449717814785 0.13646399611282292
vn 0.35511586653736166 -0.851034680156973 0.38682385462059815
vn 0.924130296872747 -0.37850312159244404 0.05214001674974835
vn 0.8328147381705827 -0.28194891135781386 0.4763658502348874
vn 0.4479179331513889 -0.14065897900763377 0.8829408682272658
vn 0.4999991653652513 0.8579242837422032 -0.1181810390861395
vn -0.5000011534178775 0.8579232632409249 -0.1181800362617768
vn -0.0000010000001668025418 0.990645165242104 -0.13646302276237504
vn 0.866025094925882 0.4953230542928583 -0.06823200747897887
vn 1 -9.99999999999e-7 9.999999999989996e-7
vn -0.8831097799661608 -0.005853998541429717 0.46912988311255116
vn -0.946855885921863 -0.3186489616088568 0.043894994711487396
vn 0.9978090359480666 -0.06554100236124573 0.009028000325251757
vn 0.8595432451701334 0.21290906072869864 0.46460213251987903
vn 0.45875601565826063 0.18202600621291157 0.8697180296852164
vn -0.4999999153657715 0.8579238547805282 -0.11818097999568428
vn 0.4999999153657715 0.8579238547805282 -0.11818097999568428
vn 1 0 0
vn -0.4638982378035756 0.34872017876098366 0.81436641746062
vn -1 0 0
vn -0.866025832977841 0.49532190447197905 -0.06823098684093892
vn 0.8660250358348178 -0.4953230204957241 0.06823300282337925
vn -0.24912111904292888 0.48133423000633857 0.84039040158191
vn -0.858755530152221 0.39802078223234205 0.3226738234566488
vn -0.9109720540315761 0.28936401716275917 -0.2939360174339335
vn 0.9156847830436251 0.39062890744693674 0.09450097760955536
vn 0.46656624295486965 0.3303921720449952 0.8204614272385802
vn 0.4999999153657715 -0.8579238547805282 0.11818097999568428
vn 0.5000002852369941 -0.8579234894227554 0.11818206741975669
vn -0.10666401257478118 0.6141650724048457 0.7819360921836245
vn -0.36454196755649537 0.4973459557372064 0.7872459299366898
vn 0.5979001459952755 0.7016421713270062 0.38757409463785414
vn 0.29734496548211703 -0.0714499917055851 -0.9520928894743992
vn 0.043013981234445046 0.6930306976539892 -0.7196236860523616
vn 0.3623349896774386 0.044667998727453605 -0.9309769734773974
vn 0.2903860732545424 0.4857141225291742 0.824474207986837
vn -0.866025094925882 -0.4953230542928583 0.06823200747897887
vn -0.5989309309774067 0.5706429342374003 -0.5618259352534974
vn -0.04373298892827366 0.8617117818434716 0.5055098720218514
vn 0.46767179061917713 0.41869681254571084 -0.7784446514834015
vn 0.3670348417173597 0.48463779100145143 0.7939846575965723
vn -0.4999999153657715 -0.8579238547805282 0.11818097999568428
vn 0 -0.9906450300556753 0.1364640041402495
vn 0.33835886867533554 0.8651996641966084 0.3700578563722477
vn -0.3437339736521044 0.9101719302335037 0.23115798228127918
vn 0.3551160928909246 0.9239252416794723 0.1423190372276765
vn -0.00030799985526766804 0.951873552704728 0.30649085597676273
vn -0.2983388885928213 0.18965992917625396 0.9354266506883682
vn -0.36282602799456887 0.2947690227434941 0.884007068207336
vn -0.00033899999080598135 0.990644973132718 -0.13646399629895978
vn -0.4680160099366821 0.612841013011534 0.6367000135180967
vn -0.35578992083141453 0.9236227944800967 0.14259896826959428
vn 0.0003119999825117775 0.8335539532776353 -0.5524379690347476
vn -0.012968005303681831 0.9967564076555125 -0.07942603248382404
vn 0.33898510188114017 0.7327582202286844 -0.59004617733693
vn 0.4680160099366821 0.612841013011534 0.6367000135180967
vn -0.405568013668859 0.8711710293610778 -0.2767230093263956
vn -0.09437602641085156 0.38178710684199163 -0.9194192572967568
vn 0.4208351696923476 0.3946161591201192 0.8168083293596471
vn 0.3676588234094653 0.2516298791394304 -0.8952705699918004
vn 0.29082987720118186 0.24469389668144984 -0.9249556094505257
vn -0.8417331484005132 0.5398900951845218 -0.0019980003522543665
vn 0.6851922804256186 0.415467170036414 -0.5982462448415986
vn 0.39674409854231957 0.8453222099590434 -0.3578050888707443
vn -0.6242959923161648 0.6395899921279264 -0.44852999447949266
vn -0.6054311366076808 0.5513421244031971 -0.5739991295154561
vn -0.21766207962940093 0.2212590809453266 -0.9506143477723412
vn 0.4616987615374991 -0.029486984770285714 -0.886546542108138
vn 0.7021886176211858 0.6692556355549351 -0.24295686769714472
vn 0.00034299999022964543 0.9906449717814785 -0.13646399611282292
vn -0.35511586653736166 0.851034680156973 -0.38682385462059815
vn -0.924130296872747 0.37850312159244404 -0.05214001674974835
vn -0.8328147381705827 0.28194891135781386 -0.4763658502348874
vn -0.4479179331513889 0.14065897900763377 -0.8829408682272658
vn 0.0000010000001668025418 -0.990645165242104 0.13646302276237504
vn 0.5000011534178775 -0.8579232632409249 0.1181800362617768
vn -0.4999991653652513 -0.8579242837422032 0.1181810390861395
vn -1 9.99999999999e-7 -9.999999999989996e-7
vn 0.8831097799661608 0.005853998541429717 -0.46912988311255116
vn 0.946855885921863 0.3186489616088568 -0.043894994711487396
vn -0.9978090359480666 0.06554100236124573 -0.009028000325251757
vn -0.8595432451701334 -0.21290906072869864 -0.46460213251987903
vn -0.45875601565826063 -0.18202600621291157 -0.8697180296852164
vn 0.4638982378035756 -0.34872017876098366 -0.81436641746062
vn 0.866025832977841 -0.49532190447197905 0.06823098684093892
vn -0.8660250358348178 0.4953230204957241 -0.06823300282337925
vn 0.24912111904292888 -0.48133423000633857 -0.84039040158191
vn 0.858755530152221 -0.39802078223234205 -0.3226738234566488
vn 0.9109720540315761 -0.28936401716275917 0.2939360174339335
vn -0.9156847830436251 -0.39062890744693674 -0.09450097760955536
vn -0.46656624295486965 -0.3303921720449952 -0.8204614272385802
vn -0.5000002852369941 0.8579234894227554 -0.11818206741975669
vn 0.10666401257478118 -0.6141650724048457 -0.7819360921836245
vn 0.36454196755649537 -0.4973459557372064 -0.7872459299366898
vn -0.5979001459952755 -0.7016421713270062 -0.38757409463785414
vn -0.3623349896774386 -0.044667998727453605 0.9309769734773974
vn -0.043013981234445046 -0.6930306976539892 0.7196236860523616
vn -0.29734496548211703 0.0714499917055851 0.9520928894743992
vn -0.2903860732545424 -0.4857141225291742 -0.824474207986837
vn 0.5989309309774067 -0.5706429342374003 0.5618259352534974
vn 0.04373298892827366 -0.8617117818434716 -0.5055098720218514
vn -0.46767179061917713 -0.41869681254571084 0.7784446514834015
vn -0.3670348417173597 -0.48463779100145143 -0.7939846575965723
vn 0 0.9906450300556753 -0.1364640041402495
vn -0.33835886867533554 -0.8651996641966084 -0.3700578563722477
vn 0.3437339736521044 -0.9101719302335037 -0.23115798228127918
vn -0.3551160928909246 -0.9239252416794723 -0.1423190372276765
vn 0.00030799985526766804 -0.951873552704728 -0.30649085597676273
vn 0.36282602799456887 -0.2947690227434941 -0.884007068207336
vn 0.2983388885928213 -0.18965992917625396 -0.9354266506883682
vn 0.00033899999080598135 -0.990644973132718 0.13646399629895978
vn 0.4680160099366821 -0.612841013011534 -0.6367000135180967
vn 0.35578992083141453 -0.9236227944800967 -0.14259896826959428
usemtl material_0_0
f 1//1 2//2 3//3
f 4//4 2//2 1//1
f 3//3 2//2 5//5
f 3//3 6//6 1//1
f 2//2 4//4 7//7
f 1//1 8//8 4//9
f 2//2 9//10 5//5
f 3//3 5//5 6//6
f 1//1 6//6 8//8
f 4//9 8//8 7//11
f 7//11 10//12 2//2
f 2//2 11//13 9//10
f 5//5 9//10 12//14
f 5//5 12//14 6//6
f 6//6 13//15 8//8
f 7//11 8//8 14//16
f 7//11 15//17 10//12
f 10//12 16//18 2//2
f 2//2 17//19 11//13
f 9//10 11//13 18//20
f 12//14 9//10 19//21
f 12//14 20//22 6//6
f 6//6 20//22 13//15
f 8//23 13//24 21//25
f 8//23 22//26 14//27
f 7//11 14//16 23//28
f 7//11 24//29 15//17
f 2//2 16//18 17//19
f 9//10 18//20 25//30
f 19//21 9//10 26//31
f 12//14 19//21 20//22
f 13//15 20//22 27//32
f 21//25 13//24 28//33
f 29//34 8//23 21//25
f 8//23 29//34 22//26
f 14//27 22//26 30//35
f 23//28 14//16 31//36
f 7//11 23//28 24//29
f 26//31 9//10 25//30
f 19//21 26//31 20//22
f 20//22 26//31 27//32
f 13//24 27//37 32//38
f 13//24 32//38 28//33
f 29//34 21//25 28//33
f 22//26 29//34 30//35
f 14//27 30//35 33//39
f 14//16 34//40 31//36
f 23//28 31//36 35//41
f 23//28 36//42 24//29
f 26//31 25//30 37//43
f 26//31 38//44 27//32
f 27//37 39//37 32//38
f 32//38 39//37 28//33
f 33//39 30//35 40//45
f 14//27 33//39 34//46
f 31//36 34//40 41//47
f 31//36 42//48 35//41
f 23//28 35//41 36//42
f 26//31 37//43 43//49
f 26//50 44//51 38//52
f 27//32 38//44 45//53
f 27//37 46//54 39//37
f 34//46 33//39 40//45
f 34//40 45//53 41//47
f 31//36 41//47 42//48
f 35//41 42//55 36//42
f 44//56 26//31 43//49
f 38//52 44//51 47//57
f 38//44 47//58 45//53
f 27//37 45//59 46//54
f 46//54 48//59 39//37
f 34//46 40//45 49//60
f 34//46 49//60 45//59
f 45//53 50//61 41//47
f 42//48 41//47 51//62
f 36//42 42//55 44//51
f 44//56 43//49 52//63
f 44//51 50//61 47//57
f 45//53 47//58 50//61
f 45//59 48//59 46//54
f 40//45 48//59 49//60
f 49//60 48//59 45//59
f 41//47 50//61 53//64
f 51//62 41//47 53//64
f 42//55 51//62 44//51
f 36//65 44//56 54//66
f 55//67 44//56 52//63
f 44//51 53//64 50//61
f 51//62 53//64 44//51
f 54//66 44//56 56//68
f 57//69 44//56 55//67
f 56//68 44//56 57//69
usemtl material_1_0
f 3//70 2//71 1//72
f 1//72 2//71 4//73
f 5//74 2//71 3//70
f 1//72 6//75 3//70
f 7//76 4//73 2//71
f 4//77 8//78 1//72
f 5//74 9//79 2//71
f 6//75 5//74 3//70
f 8//78 6//75 1//72
f 7//80 8//78 4//77
f 2//71 10//81 7//80
f 9//79 11//82 2//71
f 12//83 9//79 5//74
f 6//75 12//83 5//74
f 8//78 13//84 6//75
f 14//85 8//78 7//80
f 10//81 15//86 7//80
f 2//71 16//87 10//81
f 11//82 17//88 2//71
f 18//89 11//82 9//79
f 19//90 9//79 12//83
f 6//75 20//91 12//83
f 13//84 20//91 6//75
f 21//92 13//93 8//94
f 14//95 22//54 8//94
f 23//96 14//85 7//80
f 15//86 24//97 7//80
f 17//88 16//87 2//71
f 25//98 18//89 9//79
f 26//99 9//79 19//90
f 20//91 19//90 12//83
f 27//100 20//91 13//84
f 28//45 13//93 21//92
f 21//92 8//94 29//59
f 22//54 29//59 8//94
f 30//37 22//54 14//95
f 31//101 14//85 23//96
f 24//97 23//96 7//80
f 25//98 9//79 26//99
f 20//91 26//99 19//90
f 27//100 26//99 20//91
f 32//102 27//35 13//93
f 28//45 32//102 13//93
f 28//45 21//92 29//59
f 30//37 29//59 22//54
f 33//103 30//37 14//95
f 31//101 34//104 14//85
f 35//105 31//101 23//96
f 24//97 36//106 23//96
f 37//107 25//98 26//99
f 27//100 38//108 26//99
f 32//102 39//35 27//35
f 28//45 39//35 32//102
f 40//33 30//37 33//103
f 34//109 33//103 14//95
f 41//110 34//104 31//101
f 35//105 42//111 31//101
f 36//106 35//105 23//96
f 43//112 37//107 26//99
f 38//113 44//114 26//115
f 45//116 38//108 27//100
f 39//35 46//26 27//35
f 40//33 33//103 34//109
f 41//110 45//116 34//104
f 42//111 41//110 31//101
f 36//106 42//117 35//105
f 43//112 26//99 44//118
f 47//119 44//114 38//113
f 45//116 47//120 38//108
f 46//26 45//34 27//35
f 39//35 48//34 46//26
f 49//121 40//33 34//109
f 45//34 49//121 34//109
f 41//110 50//122 45//116
f 51//123 41//110 42//111
f 44//114 42//117 36//106
f 52//124 43//112 44//118
f 47//119 50//122 44//114
f 50//122 47//120 45//116
f 46//26 48//34 45//34
f 49//121 48//34 40//33
f 45//34 48//34 49//121
f 53//125 50//122 41//110
f 53//125 41//110 51//123
f 44//114 51//123 42//117
f 54//126 44//118 36//127
f 52//124 44//118 55//128
f 50//122 53//125 44//114
f 44//114 53//125 51//123
f 56//129 44//118 54//126
f 55//128 44//118 57//130
f 57//130 44//118 56//129
