# SSTK version 0.8.0
# 55
mtllib original-55.mtl
o mesh54/mesh54-geometry#mesh54-geometry
v 0.036902 -0.269991 0.041494
v 0.040128 -0.353102 0.049796
v 0.040452 -0.270005 0.049798
v 0.036579 -0.353088 0.041492
v 0.041408 -0.353107 0.058736
v 0.031325 -0.269969 0.034392
v 0.041732 -0.270010 0.058737
v 0.031001 -0.353066 0.034390
v 0.040330 -0.353103 0.067702
v 0.023775 -0.353038 0.028974
v 0.040654 -0.270006 0.067703
v 0.024099 -0.269941 0.028976
v 0.036969 -0.353090 0.076083
v 0.015393 -0.353005 0.025612
v 0.037292 -0.269993 0.076085
v 0.015717 -0.269908 0.025614
v 0.031552 -0.353069 0.083309
v 0.006427 -0.352970 0.024535
v 0.031876 -0.269972 0.083311
v 0.006751 -0.269873 0.024536
v 0.024450 -0.353042 0.088887
v -0.002512 -0.352935 0.025814
v 0.024774 -0.269945 0.088889
v -0.002188 -0.269839 0.025816
v 0.016147 -0.353009 0.092437
v -0.010816 -0.352903 0.029364
v 0.016470 -0.269913 0.092438
v -0.010492 -0.269806 0.029366
v 0.007207 -0.352975 0.093716
v -0.017917 -0.352876 0.034942
v 0.007531 -0.269878 0.093718
v -0.017594 -0.269779 0.034944
v -0.001759 -0.352940 0.092639
v -0.023334 -0.352855 0.042168
v -0.001435 -0.269843 0.092640
v -0.023010 -0.269758 0.042169
v -0.010140 -0.352907 0.089277
v -0.026695 -0.352842 0.050549
v -0.009817 -0.269810 0.089279
v -0.026372 -0.269745 0.050551
v -0.017366 -0.352879 0.083861
v -0.027773 -0.352838 0.059515
v -0.017042 -0.269782 0.083862
v -0.027450 -0.269741 0.059517
v -0.022620 -0.269760 0.076760
v -0.026494 -0.352843 0.068455
v -0.022944 -0.352857 0.076759
v -0.026170 -0.269746 0.068457
vn -0.8603279586681252 0.0033399998395396186 0.5097299755115532
vn -0.9629396645999883 0.0037439986959335973 0.2696909060643814
vn -0.9999288868775513 0.003893999559469905 0.01127199872479322
vn -0.6990857344352066 0.002707998971300281 0.7150327283773514
vn -0.9687746971102162 0.0037779988187994634 -0.2479139224891044
vn -0.4902019168779387 0.0018909996793486912 0.8716068522042535
vn -0.87159996964566 0.003403999881452411 -0.4902059829280867
vn -0.24791296131095414 0.0009449998525240642 0.9687818488128851
vn -0.7150271174750324 0.0027990004598605744 -0.6990911148568347
vn 0.011272005262308704 -0.00006500003034533078 0.9999364668179487
vn -0.5097262042368815 0.0020030008025617115 -0.8603343447184041
vn 0.26968896946716503 -0.0010699998788601844 0.9629468909799739
vn -0.26968896946716503 0.0010699998788601844 -0.9629468909799739
vn 0.5097262042368815 -0.0020030008025617115 0.8603343447184041
vn -0.011272005262308704 0.00006500003034533078 -0.9999364668179487
vn 0.7150271174750324 -0.0027990004598605744 0.6990911148568347
vn 0.24791296131095414 -0.0009449998525240642 -0.9687818488128851
vn 0.87159996964566 -0.003403999881452411 0.4902059829280867
vn 0.4902019168779387 -0.0018909996793486912 -0.8716068522042535
vn 0.9687746971102162 -0.0037779988187994634 0.2479139224891044
vn 0.6990857344352066 -0.002707998971300281 -0.7150327283773514
vn 0.9999288868775513 -0.003893999559469905 -0.01127199872479322
vn 0.8603279586681252 -0.0033399998395396186 -0.5097299755115532
vn 0.9629396645999883 -0.0037439986959335973 -0.2696909060643814
usemtl material_0_0
f 1//1 2//2 3//2
f 2//2 1//1 4//1
f 5//3 3//2 2//2
f 6//4 4//1 1//1
f 3//2 5//3 7//3
f 4//1 6//4 8//4
f 9//5 7//3 5//3
f 6//4 10//6 8//4
f 7//3 9//5 11//5
f 10//6 6//4 12//6
f 13//7 11//5 9//5
f 12//6 14//8 10//6
f 11//5 13//7 15//7
f 14//8 12//6 16//8
f 17//9 15//7 13//7
f 16//8 18//10 14//8
f 15//7 17//9 19//9
f 18//10 16//8 20//10
f 21//11 19//9 17//9
f 20//10 22//12 18//10
f 19//9 21//11 23//11
f 22//12 20//10 24//12
f 25//13 23//11 21//11
f 24//12 26//14 22//12
f 23//11 25//13 27//13
f 26//14 24//12 28//14
f 29//15 27//13 25//13
f 28//14 30//16 26//14
f 27//13 29//15 31//15
f 30//16 28//14 32//16
f 33//17 31//15 29//15
f 32//16 34//18 30//16
f 31//15 33//17 35//17
f 34//18 32//16 36//18
f 37//19 35//17 33//17
f 36//18 38//20 34//18
f 35//17 37//19 39//19
f 38//20 36//18 40//20
f 41//21 39//19 37//19
f 40//20 42//22 38//20
f 39//19 41//21 43//21
f 42//22 40//20 44//22
f 41//21 45//23 43//21
f 44//22 46//24 42//22
f 45//23 41//21 47//23
f 46//24 44//22 48//24
f 47//23 48//24 45//23
f 48//24 47//23 46//24
usemtl material_1_0
f 3//24 2//24 1//23
f 4//23 1//23 2//24
f 2//24 3//24 5//22
f 1//23 4//23 6//21
f 7//22 5//22 3//24
f 8//21 6//21 4//23
f 5//22 7//22 9//20
f 8//21 10//19 6//21
f 11//20 9//20 7//22
f 12//19 6//21 10//19
f 9//20 11//20 13//18
f 10//19 14//17 12//19
f 15//18 13//18 11//20
f 16//17 12//19 14//17
f 13//18 15//18 17//16
f 14//17 18//15 16//17
f 19//16 17//16 15//18
f 20//15 16//17 18//15
f 17//16 19//16 21//14
f 18//15 22//13 20//15
f 23//14 21//14 19//16
f 24//13 20//15 22//13
f 21//14 23//14 25//12
f 22//13 26//11 24//13
f 27//12 25//12 23//14
f 28//11 24//13 26//11
f 25//12 27//12 29//10
f 26//11 30//9 28//11
f 31//10 29//10 27//12
f 32//9 28//11 30//9
f 29//10 31//10 33//8
f 30//9 34//7 32//9
f 35//8 33//8 31//10
f 36//7 32//9 34//7
f 33//8 35//8 37//6
f 34//7 38//5 36//7
f 39//6 37//6 35//8
f 40//5 36//7 38//5
f 37//6 39//6 41//4
f 38//5 42//3 40//5
f 43//4 41//4 39//6
f 44//3 40//5 42//3
f 43//4 45//1 41//4
f 42//3 46//2 44//3
f 47//1 41//4 45//1
f 48//2 44//3 46//2
f 45//1 48//2 47//1
f 46//2 47//1 48//2
