# SSTK version 0.8.0
# 24
mtllib original-24.mtl
o Group5/mesh39/mesh39-geometry#mesh39-geometry
v 0.599582 -0.706984 -0.224956
v 0.513266 -0.698399 -0.197240
v 0.601222 -0.698399 -0.218009
v 0.511626 -0.706984 -0.204187
v 0.603131 -0.691395 -0.209927
v 0.598260 -0.716887 -0.230556
v 0.515174 -0.691395 -0.189158
v 0.510303 -0.716887 -0.209787
v 0.605249 -0.686184 -0.200956
v 0.509338 -0.727809 -0.213872
v 0.517293 -0.686184 -0.180187
v 0.597295 -0.727809 -0.234641
v 0.607513 -0.682924 -0.191368
v 0.508761 -0.739417 -0.216317
v 0.519556 -0.682924 -0.170599
v 0.596718 -0.739417 -0.237086
v 0.609854 -0.681714 -0.181455
v 0.521897 -0.681714 -0.160686
v 0.564746 -0.682320 -0.163552
v 0.570174 -0.682337 -0.164629
v 0.559529 -0.682368 -0.161751
v 0.575649 -0.682419 -0.164951
v 0.570187 -0.682342 -0.164575
v 0.554683 -0.682479 -0.159283
v 0.559565 -0.682381 -0.161600
v 0.581004 -0.682561 -0.164508
v 0.551822 -0.682591 -0.157260
v 0.612200 -0.682591 -0.171517
v 0.575723 -0.682446 -0.164638
v 0.524244 -0.682591 -0.150748
v 0.554802 -0.682523 -0.158777
v 0.581762 -0.682591 -0.164330
v 0.550353 -0.682790 -0.156221
v 0.553495 -0.682591 -0.157655
v 0.586077 -0.683178 -0.163313
v 0.580049 -0.682591 -0.163925
v 0.546673 -0.683566 -0.152659
v 0.590713 -0.684043 -0.161402
v 0.581186 -0.682722 -0.163738
v 0.543753 -0.684506 -0.148706
v 0.550601 -0.683110 -0.155171
v 0.594772 -0.685059 -0.158834
v 0.586410 -0.683606 -0.161903
v 0.541786 -0.685529 -0.144692
v 0.547091 -0.684104 -0.150890
v 0.614481 -0.685529 -0.161857
v 0.591235 -0.684716 -0.159189
v 0.526525 -0.685529 -0.141088
v 0.544377 -0.685310 -0.146064
v 0.596161 -0.685529 -0.157531
v 0.593907 -0.685529 -0.156999
v 0.541683 -0.685624 -0.144480
v 0.544086 -0.685529 -0.145235
v 0.598130 -0.686711 -0.155686
v 0.540525 -0.687719 -0.140112
v 0.595517 -0.686398 -0.155679
v 0.600685 -0.688877 -0.152054
v 0.540314 -0.689934 -0.135732
v 0.542542 -0.687590 -0.140840
v 0.616627 -0.690437 -0.152769
v 0.540479 -0.690437 -0.134788
v 0.601846 -0.690437 -0.149278
v 0.599123 -0.688983 -0.151478
v 0.528671 -0.690437 -0.132000
v 0.541646 -0.690437 -0.135063
v 0.541643 -0.690276 -0.135377
v 0.600601 -0.690437 -0.148984
v 0.602360 -0.691482 -0.148049
v 0.541058 -0.693106 -0.131475
v 0.603103 -0.694911 -0.143792
v 0.542732 -0.696510 -0.127470
v 0.618573 -0.697168 -0.144527
v 0.543246 -0.697168 -0.126740
v 0.602961 -0.697168 -0.140841
v 0.530617 -0.697168 -0.123758
v 0.602892 -0.698731 -0.139412
v 0.532304 -0.705516 -0.116615
v 0.601734 -0.703264 -0.135044
v 0.545288 -0.700914 -0.123838
v 0.600607 -0.705516 -0.132743
v 0.548646 -0.705276 -0.120690
v 0.620260 -0.705516 -0.137384
v 0.548895 -0.705516 -0.120533
vn -0.19508853835506582 0.5285218281506793 -0.8261992128843673
vn -0.1721295260104344 0.6625535835460568 -0.7289678835214222
vn 0.1721295260104344 -0.6625535835460568 0.7289678835214222
vn 0.19508853835506582 -0.5285218281506793 0.8261992128843673
vn -0.1413990518642521 0.7882991782137188 -0.5988244431880401
vn 0.1413990518642521 -0.7882991782137188 0.5988244431880401
vn -0.21138135641137362 0.3923471063781778 -0.8951992349630101
vn 0.21138135641137362 -0.3923471063781778 0.8951992349630101
vn -0.10232038039317033 0.8954098247292621 -0.43332641915132375
vn 0.10232038039317033 -0.8954098247292621 0.43332641915132375
vn -0.22209914453303892 0.2568350696570254 -0.9405890266168128
vn 0.22209914453303892 -0.2568350696570254 0.9405890266168128
vn -0.05566411121945951 0.9702213320265961 -0.23573729786074377
vn 0.05566411121945951 -0.9702213320265961 0.23573729786074377
vn -0.2256618922127183 0.18909707926627292 -0.9556772493974837
vn 0.2256618922127183 -0.18909707926627292 0.9556772493974837
vn -0.004194227519244261 0.999833436487137 -0.017762537483112663
vn 0.004194227519244261 -0.999833436487137 0.017762537483112663
vn 0.02207880511949247 0.9953740969308383 0.09350365513504495
vn -0.02207880511949247 -0.9953740969308383 -0.09350365513504495
vn 0.04766104207608355 0.9782572725202304 0.20184433068456825
vn -0.04766104207608355 -0.9782572725202304 -0.20184433068456825
vn 0.0725154952164325 0.9489095561839207 0.3071028445591968
vn -0.0725154952164325 -0.9489095561839207 -0.3071028445591968
vn 0.09532638153650229 0.9099085951600179 0.40370686077533996
vn -0.09532638153650229 -0.9099085951600179 -0.40370686077533996
vn 0.11686472813121317 0.8610430708262857 0.4949216761275036
vn -0.11686472813121317 -0.8610430708262857 -0.4949216761275036
vn 0.13571471210216135 0.8069959579133524 0.5747512860625351
vn -0.13571471210216135 -0.8069959579133524 -0.5747512860625351
vn 0.1295726277423268 0.8258909158823312 0.5487395823184186
vn -0.1295726277423268 -0.8258909158823312 -0.5487395823184186
vn 0.15307746243512682 0.7458532919878762 0.648282467235749
vn -0.15307746243512682 -0.7458532919878762 -0.648282467235749
vn 0.167765073630734 0.6834228078770896 0.710484444406117
vn -0.167765073630734 -0.6834228078770896 -0.710484444406117
vn 0.18098344638963135 0.6162609987146493 0.7664642024231495
vn -0.18098344638963135 -0.6162609987146493 -0.7664642024231495
usemtl material_0_0
f 1//1 2//2 3//2
f 2//2 1//1 4//1
f 3//3 2//3 1//4
f 4//4 1//4 2//3
f 2//2 5//5 3//2
f 3//3 5//6 2//3
f 6//7 4//1 1//1
f 1//4 4//4 6//8
f 5//5 2//2 7//5
f 7//6 2//3 5//6
f 4//1 6//7 8//7
f 8//8 6//8 4//4
f 7//5 9//9 5//5
f 5//6 9//10 7//6
f 6//7 10//11 8//7
f 8//8 10//12 6//8
f 9//9 7//5 11//9
f 11//10 7//6 9//10
f 10//11 6//7 12//11
f 12//12 6//8 10//12
f 11//9 13//13 9//9
f 9//10 13//14 11//10
f 12//11 14//15 10//11
f 10//12 14//16 12//12
f 13//13 11//9 15//13
f 15//14 11//10 13//14
f 14//15 12//11 16//15
f 16//16 12//12 14//16
f 15//13 17//17 13//13
f 13//14 17//18 15//14
f 17//17 15//13 18//17
f 18//18 15//14 17//18
f 19//19 17//17 18//17
f 18//18 17//18 19//20
f 20//19 17//17 19//19
f 19//20 17//18 20//20
f 18//17 21//19 19//19
f 19//20 21//20 18//18
f 22//19 17//17 20//19
f 20//20 17//18 22//20
f 23//19 20//19 19//19
f 19//20 20//20 23//20
f 18//17 24//19 21//19
f 21//20 24//20 18//18
f 21//19 25//19 19//19
f 19//20 25//20 21//20
f 26//19 17//17 22//19
f 22//20 17//18 26//20
f 23//19 22//19 20//19
f 20//20 22//20 23//20
f 25//19 23//19 19//19
f 19//20 23//20 25//20
f 18//17 27//21 24//19
f 24//20 27//22 18//18
f 24//19 25//19 21//19
f 21//20 25//20 24//20
f 26//19 28//21 17//17
f 17//18 28//22 26//20
f 29//19 26//19 22//19
f 22//20 26//20 29//20
f 29//19 22//19 23//19
f 23//20 22//20 29//20
f 25//19 29//19 23//19
f 23//20 29//20 25//20
f 27//21 18//17 30//21
f 30//22 18//18 27//22
f 27//21 31//19 24//19
f 24//20 31//20 27//22
f 24//19 31//19 25//19
f 25//20 31//20 24//20
f 28//21 26//19 32//21
f 32//22 26//20 28//22
f 29//19 32//21 26//19
f 26//20 32//22 29//20
f 31//19 29//19 25//19
f 25//20 29//20 31//20
f 30//21 33//23 27//21
f 27//22 33//24 30//22
f 31//19 27//21 34//21
f 34//22 27//22 31//20
f 35//23 28//21 32//21
f 32//22 28//22 35//24
f 32//21 29//19 36//21
f 36//22 29//20 32//22
f 31//19 36//21 29//19
f 29//20 36//22 31//20
f 30//21 37//23 33//23
f 33//24 37//24 30//22
f 33//23 34//21 27//21
f 27//22 34//22 33//24
f 36//21 31//19 34//21
f 34//22 31//20 36//22
f 38//23 28//21 35//23
f 35//24 28//22 38//24
f 39//23 35//23 32//21
f 32//22 35//24 39//24
f 39//23 32//21 36//21
f 36//22 32//22 39//24
f 30//21 40//23 37//23
f 37//24 40//24 30//22
f 37//23 41//23 33//23
f 33//24 41//24 37//24
f 33//23 41//23 34//21
f 34//22 41//24 33//24
f 34//21 39//23 36//21
f 36//22 39//24 34//22
f 42//23 28//21 38//23
f 38//24 28//22 42//24
f 43//23 38//23 35//23
f 35//24 38//24 43//24
f 43//23 35//23 39//23
f 39//24 35//24 43//24
f 30//21 44//25 40//23
f 40//24 44//26 30//22
f 40//23 45//23 37//23
f 37//24 45//24 40//24
f 37//23 45//23 41//23
f 41//24 45//24 37//24
f 41//23 39//23 34//21
f 34//22 39//24 41//24
f 42//23 46//25 28//21
f 28//22 46//26 42//24
f 47//23 42//23 38//23
f 38//24 42//24 47//24
f 47//23 38//23 43//23
f 43//24 38//24 47//24
f 41//23 43//23 39//23
f 39//24 43//24 41//24
f 44//25 30//21 48//25
f 48//26 30//22 44//26
f 44//25 49//23 40//23
f 40//24 49//24 44//26
f 40//23 49//23 45//23
f 45//24 49//24 40//24
f 45//23 43//23 41//23
f 41//24 43//24 45//24
f 46//25 42//23 50//25
f 50//26 42//24 46//26
f 51//25 42//23 47//23
f 47//24 42//24 51//26
f 45//23 47//23 43//23
f 43//24 47//24 45//24
f 48//25 52//27 44//25
f 44//26 52//28 48//26
f 49//23 44//25 53//25
f 53//26 44//26 49//24
f 49//23 47//23 45//23
f 45//24 47//24 49//24
f 42//23 51//25 50//25
f 50//26 51//26 42//24
f 54//27 46//25 50//25
f 50//26 46//26 54//28
f 49//23 51//25 47//23
f 47//24 51//26 49//24
f 48//25 55//27 52//27
f 52//28 55//28 48//26
f 52//27 53//25 44//25
f 44//26 53//26 52//28
f 51//25 49//23 53//25
f 53//26 49//24 51//26
f 56//27 50//25 51//25
f 51//26 50//26 56//28
f 57//27 46//25 54//27
f 54//28 46//26 57//28
f 56//27 54//27 50//25
f 50//26 54//28 56//28
f 48//25 58//27 55//27
f 55//28 58//28 48//26
f 55//27 59//27 52//27
f 52//28 59//28 55//28
f 52//27 59//27 53//25
f 53//26 59//28 52//28
f 53//25 56//27 51//25
f 51//26 56//28 53//26
f 57//27 60//29 46//25
f 46//26 60//30 57//28
f 56//27 57//27 54//27
f 54//28 57//28 56//28
f 48//25 61//29 58//27
f 58//28 61//30 48//26
f 58//27 59//27 55//27
f 55//28 59//28 58//28
f 59//27 56//27 53//25
f 53//26 56//28 59//28
f 60//29 57//27 62//29
f 62//30 57//28 60//30
f 63//27 57//27 56//27
f 56//28 57//28 63//28
f 61//29 48//25 64//29
f 64//30 48//26 61//30
f 65//31 58//27 61//29
f 61//30 58//28 65//32
f 58//27 66//27 59//27
f 59//28 66//28 58//28
f 59//27 63//27 56//27
f 56//28 63//28 59//28
f 57//27 67//31 62//29
f 62//30 67//32 57//28
f 68//33 60//29 62//29
f 62//30 60//30 68//34
f 67//31 57//27 63//27
f 63//28 57//28 67//32
f 64//29 69//33 61//29
f 61//30 69//34 64//30
f 58//27 65//31 66//27
f 66//28 65//32 58//28
f 61//29 62//29 65//31
f 65//32 62//30 61//30
f 66//27 63//27 59//27
f 59//28 63//28 66//28
f 65//31 62//29 67//31
f 67//32 62//30 65//32
f 70//33 60//29 68//33
f 68//34 60//30 70//34
f 61//29 68//33 62//29
f 62//30 68//34 61//30
f 66//27 67//31 63//27
f 63//28 67//32 66//28
f 64//29 71//33 69//33
f 69//34 71//34 64//30
f 69//33 68//33 61//29
f 61//30 68//34 69//34
f 67//31 66//27 65//31
f 65//32 66//28 67//32
f 70//33 72//35 60//29
f 60//30 72//36 70//34
f 69//33 70//33 68//33
f 68//34 70//34 69//34
f 64//29 73//35 71//33
f 71//34 73//36 64//30
f 71//33 70//33 69//33
f 69//34 70//34 71//34
f 72//35 70//33 74//35
f 74//36 70//34 72//36
f 73//35 64//29 75//35
f 75//36 64//30 73//36
f 74//35 71//33 73//35
f 73//36 71//34 74//36
f 71//33 74//35 70//33
f 70//34 74//36 71//34
f 76//37 72//35 74//35
f 74//36 72//36 76//38
f 77//37 73//35 75//35
f 75//36 73//36 77//38
f 73//35 76//37 74//35
f 74//36 76//38 73//36
f 78//37 72//35 76//37
f 76//38 72//36 78//38
f 77//37 79//37 73//35
f 73//36 79//38 77//38
f 76//37 73//35 78//37
f 78//38 73//36 76//38
f 80//37 72//35 78//37
f 78//38 72//36 80//38
f 77//37 81//37 79//37
f 79//38 81//38 77//38
f 81//37 73//35 79//37
f 79//38 73//36 81//38
f 78//37 73//35 80//37
f 80//38 73//36 78//38
f 72//35 80//37 82//37
f 82//38 80//38 72//36
f 81//37 77//37 83//37
f 83//38 77//38 81//38
f 83//37 73//35 81//37
f 81//38 73//36 83//38
f 80//37 73//35 83//37
f 83//38 73//36 80//38
