# SSTK version 0.8.0
# 21
mtllib original-21.mtl
o Group_24_1/Group_24/mesh44/mesh44-geometry#mesh44-geometry
v -0.293742 -0.691033 0.562570
v -0.267488 -0.687423 0.543434
v -0.273676 -0.691033 0.538315
v -0.287554 -0.687423 0.567689
v -0.240869 -0.687905 0.565455
v -0.299352 -0.695982 0.557928
v -0.260934 -0.687905 0.589710
v -0.260912 -0.685263 0.548875
v -0.234761 -0.691737 0.570508
v -0.247397 -0.685508 0.560055
v -0.279287 -0.695982 0.533673
v -0.254827 -0.691737 0.594763
v -0.267462 -0.685508 0.584310
v -0.280977 -0.685263 0.573129
v -0.304216 -0.702120 0.553905
v -0.249324 -0.696887 0.599315
v -0.254146 -0.684618 0.554472
v -0.229259 -0.696887 0.575060
v -0.274211 -0.684618 0.578727
v -0.284150 -0.702120 0.529650
v -0.288119 -0.709261 0.526367
v -0.244595 -0.703199 0.603228
v -0.224529 -0.703199 0.578973
v -0.308184 -0.709261 0.550622
v -0.291071 -0.717188 0.523925
v -0.220716 -0.710481 0.582127
v -0.240782 -0.710481 0.606382
v -0.311137 -0.717188 0.548179
v -0.292918 -0.725660 0.522397
v -0.217935 -0.718512 0.584428
v -0.238001 -0.718512 0.608683
v -0.312984 -0.725660 0.546651
v -0.293604 -0.734419 0.521829
v -0.216271 -0.727047 0.585805
v -0.236336 -0.727047 0.610060
v -0.313669 -0.734419 0.546084
v -0.293107 -0.743200 0.522241
v -0.215774 -0.735828 0.586216
v -0.235839 -0.735828 0.610471
v -0.313172 -0.743200 0.546496
v -0.291442 -0.751735 0.523617
v -0.216459 -0.744587 0.585649
v -0.236525 -0.744587 0.609904
v -0.311508 -0.751735 0.547872
v -0.308727 -0.759766 0.550173
v -0.218306 -0.753059 0.584121
v -0.238372 -0.753059 0.608376
v -0.288661 -0.759766 0.525918
v -0.304914 -0.767048 0.553328
v -0.241324 -0.760986 0.605933
v -0.221259 -0.760986 0.581678
v -0.284848 -0.767048 0.529073
v -0.300184 -0.773360 0.557240
v -0.245293 -0.768127 0.602650
v -0.225227 -0.768127 0.578395
v -0.280118 -0.773360 0.532985
v -0.274616 -0.778510 0.537537
v -0.250156 -0.774265 0.598627
v -0.230091 -0.774265 0.574372
v -0.294682 -0.778510 0.561792
v -0.268508 -0.782342 0.542590
v -0.235701 -0.779214 0.569730
v -0.255767 -0.779214 0.593985
v -0.288574 -0.782342 0.566845
v -0.261981 -0.784739 0.547990
v -0.241889 -0.782824 0.564611
v -0.261955 -0.782824 0.588866
v -0.282046 -0.784739 0.572245
v -0.255232 -0.785629 0.553574
v -0.248466 -0.784984 0.559171
v -0.268531 -0.784984 0.583426
v -0.275297 -0.785629 0.577829
vn -0.3759133993708092 0.8729140099465421 -0.31098271240139824
vn -0.2534079486421351 0.9443710025413309 -0.20963735622275573
vn 0.6374241150725923 0 -0.7705131390988234
vn -0.48699676838949635 0.7749340238860813 -0.4028788976875227
vn -0.6374241150725923 0 0.7705131390988234
vn -0.12320272506532881 0.9871337069219636 -0.10192219186703143
vn 0.2736031868178643 0.9348312932797317 0.2263443157405397
vn 0.39452517951519694 0.8589680787999491 0.32637972107841795
vn 0.14436801436199168 0.9822901597541799 0.11943164772908225
vn -0.5832830856063644 0.6534079002228045 -0.48253389308103967
vn 0.010745575489227749 0.999902749826752 0.008889516089469847
vn 0.5034594764811694 0.7570059043713846 0.4164980387566895
vn -0.6618462534316467 0.5120290030053871 -0.5475270193331117
vn 0.5970969334601759 0.6320419965421602 0.49396170566092884
vn -0.7202998271048472 0.35509206346306654 -0.5958840369889672
vn 0.6725917717689193 0.48787395941172434 0.5564164881423567
vn -0.7568674840915318 0.18736599902234302 -0.6261354437622215
vn 0.7276502940589021 0.3288819543565856 0.6019648741036189
vn -0.7704382066166579 0.013945993994088773 -0.637362125511726
vn 0.7605994982518758 0.15989692513713838 0.629222835401484
vn -0.7605994982518758 -0.15989692513713838 -0.629222835401484
vn 0.7704382066166579 -0.013945993994088773 0.637362125511726
vn -0.7276502940589021 -0.3288819543565856 -0.6019648741036189
vn 0.7568674840915318 -0.18736599902234302 0.6261354437622215
vn -0.6725917717689193 -0.48787395941172434 -0.5564164881423567
vn 0.7202998271048472 -0.35509206346306654 0.5958840369889672
vn -0.5970969334601759 -0.6320419965421602 -0.49396170566092884
vn 0.6618462534316467 -0.5120290030053871 0.5475270193331117
vn -0.5034594764811694 -0.7570059043713846 -0.4164980387566895
vn 0.5832830856063644 -0.6534079002228045 0.48253389308103967
vn -0.39452517951519694 -0.8589680787999491 -0.32637972107841795
vn 0.48699676838949635 -0.7749340238860813 0.4028788976875227
vn -0.2736031868178643 -0.9348312932797317 -0.2263443157405397
vn 0.3759133993708092 -0.8729140099465421 0.31098271240139824
vn -0.14436801436199168 -0.9822901597541799 -0.11943164772908225
vn 0.2534079486421351 -0.9443710025413309 0.20963735622275573
vn -0.010745575489227749 -0.999902749826752 -0.008889516089469847
vn 0.12320272506532881 -0.9871337069219636 0.10192219186703143
usemtl material_0_0
f 1//1 2//2 3//1
f 2//2 1//1 4//2
f 5//3 3//3 2//3
f 3//1 6//4 1//1
f 1//5 7//5 4//5
f 4//2 8//6 2//2
f 9//3 3//3 5//3
f 5//3 2//3 10//3
f 6//4 3//1 11//4
f 6//5 12//5 1//5
f 1//5 12//5 7//5
f 4//5 7//5 13//5
f 8//6 4//2 14//6
f 10//3 2//3 8//3
f 9//3 11//3 3//3
f 7//7 9//8 5//7
f 13//9 5//7 10//9
f 11//4 15//10 6//4
f 6//5 16//5 12//5
f 9//8 7//7 12//8
f 5//7 13//9 7//7
f 4//5 13//5 14//5
f 14//6 17//11 8//6
f 10//3 8//3 17//3
f 18//3 11//3 9//3
f 10//9 19//11 13//9
f 15//10 11//4 20//10
f 15//5 16//5 6//5
f 18//12 12//8 16//12
f 12//8 18//12 9//8
f 14//5 13//5 19//5
f 17//11 14//6 19//11
f 19//11 10//9 17//11
f 18//3 20//3 11//3
f 21//13 15//10 20//10
f 15//5 22//5 16//5
f 22//14 18//12 16//12
f 23//3 20//3 18//3
f 15//10 21//13 24//13
f 23//3 21//3 20//3
f 24//5 22//5 15//5
f 18//12 22//14 23//14
f 25//15 24//13 21//13
f 26//3 21//3 23//3
f 24//5 27//5 22//5
f 22//14 26//16 23//14
f 24//13 25//15 28//15
f 26//3 25//3 21//3
f 28//5 27//5 24//5
f 26//16 22//14 27//16
f 29//17 28//15 25//15
f 30//3 25//3 26//3
f 28//5 31//5 27//5
f 27//16 30//18 26//16
f 28//15 29//17 32//17
f 30//3 29//3 25//3
f 32//5 31//5 28//5
f 30//18 27//16 31//18
f 33//19 32//17 29//17
f 34//3 29//3 30//3
f 32//5 35//5 31//5
f 31//18 34//20 30//18
f 32//17 33//19 36//19
f 34//3 33//3 29//3
f 36//5 35//5 32//5
f 34//20 31//18 35//20
f 37//21 36//19 33//19
f 38//3 33//3 34//3
f 36//5 39//5 35//5
f 35//20 38//22 34//20
f 36//19 37//21 40//21
f 38//3 37//3 33//3
f 40//5 39//5 36//5
f 38//22 35//20 39//22
f 41//23 40//21 37//21
f 42//3 37//3 38//3
f 40//5 43//5 39//5
f 39//22 42//24 38//22
f 40//21 41//23 44//23
f 42//3 41//3 37//3
f 44//5 43//5 40//5
f 42//24 39//22 43//24
f 41//23 45//25 44//23
f 46//3 41//3 42//3
f 44//5 47//5 43//5
f 43//24 46//26 42//24
f 45//25 41//23 48//25
f 45//5 47//5 44//5
f 46//3 48//3 41//3
f 46//26 43//24 47//26
f 48//25 49//27 45//25
f 45//5 50//5 47//5
f 51//3 48//3 46//3
f 47//26 51//28 46//26
f 49//27 48//25 52//27
f 49//5 50//5 45//5
f 51//28 47//26 50//28
f 51//3 52//3 48//3
f 52//27 53//29 49//27
f 49//5 54//5 50//5
f 50//28 55//30 51//28
f 55//3 52//3 51//3
f 53//29 52//27 56//29
f 53//5 54//5 49//5
f 55//30 50//28 54//30
f 55//3 56//3 52//3
f 57//31 53//29 56//29
f 53//5 58//5 54//5
f 58//32 55//30 54//30
f 59//3 56//3 55//3
f 53//29 57//31 60//31
f 59//3 57//3 56//3
f 60//5 58//5 53//5
f 55//30 58//32 59//32
f 61//33 60//31 57//31
f 62//3 57//3 59//3
f 60//5 63//5 58//5
f 63//34 59//32 58//32
f 60//31 61//33 64//33
f 62//3 61//3 57//3
f 59//32 63//34 62//34
f 64//5 63//5 60//5
f 65//35 64//33 61//33
f 66//3 61//3 62//3
f 67//36 62//34 63//34
f 64//5 67//5 63//5
f 64//33 65//35 68//35
f 66//3 65//3 61//3
f 62//34 67//36 66//36
f 68//5 67//5 64//5
f 69//37 68//35 65//35
f 70//3 65//3 66//3
f 71//38 66//36 67//36
f 68//5 71//5 67//5
f 68//35 69//37 72//37
f 65//3 70//3 69//3
f 66//36 71//38 70//38
f 71//5 68//5 72//5
f 70//38 72//37 69//37
f 72//37 70//38 71//38
usemtl material_1_0
f 3//34 2//36 1//34
f 4//36 1//34 2//36
f 2//5 3//5 5//5
f 1//34 6//32 3//34
f 4//3 7//3 1//3
f 2//36 8//38 4//36
f 5//5 3//5 9//5
f 10//5 2//5 5//5
f 11//32 3//34 6//32
f 1//3 12//3 6//3
f 7//3 12//3 1//3
f 13//3 7//3 4//3
f 14//38 4//36 8//38
f 8//5 2//5 10//5
f 3//5 11//5 9//5
f 5//33 9//31 7//33
f 10//35 5//33 13//35
f 6//32 15//30 11//32
f 12//3 16//3 6//3
f 12//31 7//33 9//31
f 7//33 13//35 5//33
f 14//3 13//3 4//3
f 8//38 17//37 14//38
f 17//5 8//5 10//5
f 9//5 11//5 18//5
f 13//35 19//37 10//35
f 20//30 11//32 15//30
f 6//3 16//3 15//3
f 16//29 12//31 18//29
f 9//31 18//29 12//31
f 19//3 13//3 14//3
f 19//37 14//38 17//37
f 17//37 10//35 19//37
f 11//5 20//5 18//5
f 20//30 15//30 21//28
f 16//3 22//3 15//3
f 16//29 18//29 22//27
f 18//5 20//5 23//5
f 24//28 21//28 15//30
f 20//5 21//5 23//5
f 15//3 22//3 24//3
f 23//27 22//27 18//29
f 21//28 24//28 25//26
f 23//5 21//5 26//5
f 22//3 27//3 24//3
f 23//27 26//25 22//27
f 28//26 25//26 24//28
f 21//5 25//5 26//5
f 24//3 27//3 28//3
f 27//25 22//27 26//25
f 25//26 28//26 29//24
f 26//5 25//5 30//5
f 27//3 31//3 28//3
f 26//25 30//23 27//25
f 32//24 29//24 28//26
f 25//5 29//5 30//5
f 28//3 31//3 32//3
f 31//23 27//25 30//23
f 29//24 32//24 33//22
f 30//5 29//5 34//5
f 31//3 35//3 32//3
f 30//23 34//21 31//23
f 36//22 33//22 32//24
f 29//5 33//5 34//5
f 32//3 35//3 36//3
f 35//21 31//23 34//21
f 33//22 36//22 37//20
f 34//5 33//5 38//5
f 35//3 39//3 36//3
f 34//21 38//19 35//21
f 40//20 37//20 36//22
f 33//5 37//5 38//5
f 36//3 39//3 40//3
f 39//19 35//21 38//19
f 37//20 40//20 41//18
f 38//5 37//5 42//5
f 39//3 43//3 40//3
f 38//19 42//17 39//19
f 44//18 41//18 40//20
f 37//5 41//5 42//5
f 40//3 43//3 44//3
f 43//17 39//19 42//17
f 44//18 45//16 41//18
f 42//5 41//5 46//5
f 43//3 47//3 44//3
f 42//17 46//15 43//17
f 48//16 41//18 45//16
f 44//3 47//3 45//3
f 41//5 48//5 46//5
f 47//15 43//17 46//15
f 45//16 49//14 48//16
f 47//3 50//3 45//3
f 46//5 48//5 51//5
f 46//15 51//13 47//15
f 52//14 48//16 49//14
f 45//3 50//3 49//3
f 50//13 47//15 51//13
f 48//5 52//5 51//5
f 49//14 53//12 52//14
f 50//3 54//3 49//3
f 51//13 55//10 50//13
f 51//5 52//5 55//5
f 56//12 52//14 53//12
f 49//3 54//3 53//3
f 54//10 50//13 55//10
f 52//5 56//5 55//5
f 56//12 53//12 57//8
f 54//3 58//3 53//3
f 54//10 55//10 58//4
f 55//5 56//5 59//5
f 60//8 57//8 53//12
f 56//5 57//5 59//5
f 53//3 58//3 60//3
f 59//4 58//4 55//10
f 57//8 60//8 61//7
f 59//5 57//5 62//5
f 58//3 63//3 60//3
f 58//4 59//4 63//1
f 64//7 61//7 60//8
f 57//5 61//5 62//5
f 62//1 63//1 59//4
f 60//3 63//3 64//3
f 61//7 64//7 65//9
f 62//5 61//5 66//5
f 63//1 62//1 67//2
f 63//3 67//3 64//3
f 68//9 65//9 64//7
f 61//5 65//5 66//5
f 66//2 67//2 62//1
f 64//3 67//3 68//3
f 65//9 68//9 69//11
f 66//5 65//5 70//5
f 67//2 66//2 71//6
f 67//3 71//3 68//3
f 72//11 69//11 68//9
f 69//5 70//5 65//5
f 70//6 71//6 66//2
f 72//3 68//3 71//3
f 69//11 72//11 70//6
f 71//6 70//6 72//11
