# SSTK version 0.8.0
# 46
mtllib original-46.mtl
o mesh47/mesh47-geometry#mesh47-geometry
v 0.210062 -0.090307 -0.196792
v 0.191941 -0.093936 -0.260497
v 0.120416 -0.091224 -0.201091
v 0.288677 -0.088503 -0.188443
v 0.007395 -0.095070 -0.267646
v 0.126352 -0.090315 -0.136328
v 0.283971 -0.091475 -0.244982
v 0.220700 -0.089313 -0.132889
v -0.009175 -0.091555 -0.202623
v -0.010046 -0.090671 -0.137557
v 0.327865 -0.086667 -0.180172
v 0.303465 -0.087332 -0.126245
v -0.177100 -0.093937 -0.260502
v -0.010712 -0.091474 -0.007349
v 0.130893 -0.091072 -0.006689
v 0.329497 -0.088537 -0.227061
v 0.228860 -0.089911 -0.004863
v -0.138738 -0.090965 -0.199882
v -0.146420 -0.090034 -0.135360
v -0.152307 -0.090749 -0.006174
v 0.366914 -0.083833 -0.167566
v 0.344782 -0.085327 -0.119698
v 0.314829 -0.087599 -0.001414
v -0.268242 -0.088701 -0.189352
v -0.151467 -0.093761 0.252106
v -0.010611 -0.094661 0.252962
v 0.130213 -0.094168 0.252491
v 0.374436 -0.083725 -0.198127
v 0.227720 -0.092691 0.251111
v -0.269140 -0.091477 -0.244993
v -0.282738 -0.087549 -0.126967
v -0.293887 -0.087850 -0.001788
v -0.292432 -0.090039 0.248525
v 0.405410 -0.079676 -0.156913
v 0.386027 -0.082241 -0.109744
v 0.357759 -0.085276 0.001901
v 0.313313 -0.089719 0.248206
v -0.332742 -0.085383 -0.174449
v -0.350761 -0.083928 -0.115179
v -0.290301 -0.092733 0.345098
v -0.150309 -0.096772 0.351746
v -0.010477 -0.097739 0.353385
v 0.129306 -0.097212 0.352477
v 0.226126 -0.095613 0.349864
v -0.314684 -0.088538 -0.227070
v -0.364561 -0.083660 0.004163
v -0.362551 -0.084718 0.242869
v -0.359819 -0.086977 0.334974
v 0.426001 -0.077544 -0.114797
v 0.400623 -0.081718 0.006882
v 0.355941 -0.086765 0.245094
v 0.311125 -0.092388 0.344513
v -0.411209 -0.077544 -0.114797
v -0.431067 -0.076182 -0.029070
v -0.347665 -0.095559 0.483994
v -0.280650 -0.102027 0.501423
v -0.145140 -0.106585 0.513086
v -0.009886 -0.107662 0.516002
v 0.125288 -0.107077 0.514383
v 0.445859 -0.076182 -0.029070
v 0.218986 -0.105279 0.509752
v -0.390619 -0.079676 -0.156913
v -0.435290 -0.074251 0.143079
v -0.428374 -0.076101 0.315177
v -0.422387 -0.079288 0.401188
v 0.450082 -0.074251 0.143079
v 0.353404 -0.089190 0.338927
v 0.301254 -0.101639 0.500402
v -0.359644 -0.083725 -0.198127
v -0.401459 -0.088175 0.486122
v -0.301568 -0.105054 0.536661
v -0.198625 -0.110742 0.552709
v 0.007391 -0.113207 0.559761
v 0.213367 -0.110743 0.552712
v 0.398344 -0.082268 0.240189
v -0.352113 -0.098565 0.517483
v 0.443166 -0.076101 0.315177
v 0.342046 -0.098044 0.490771
v 0.395385 -0.084332 0.330216
v 0.316319 -0.105058 0.536672
v 0.437179 -0.079288 0.401188
v 0.366881 -0.098568 0.517492
v 0.382377 -0.092595 0.475838
v 0.416250 -0.088175 0.486122
vn -0.013278006580336048 0.9994874953276349 -0.029128014435308443
vn -0.011817994188502788 0.9985735089515977 -0.052069974394596166
vn -0.004691999767666253 0.9994309505111788 -0.03340299834598355
vn 0.004691999767666253 -0.9994309505111788 0.03340299834598355
vn 0.011817994188502788 -0.9985735089515977 0.052069974394596166
vn 0.013278006580336048 -0.9994874953276349 0.029128014435308443
vn -0.026913998797159593 0.9991579553456337 -0.030967998615978015
vn 0.026913998797159593 -0.9991579553456337 0.030967998615978015
vn -0.0006669997628759568 0.998611644985135 -0.05267198127466604
vn 0.0006669997628759568 -0.998611644985135 0.05267198127466604
vn -0.0064280019606405316 0.9999723050070992 -0.0037510011441134424
vn 0.0064280019606405316 -0.9999723050070992 0.0037510011441134424
vn -0.034170989616787585 0.9982956966574165 -0.0473079856249738
vn 0.034170989616787585 -0.9982956966574165 0.0473079856249738
vn -0.0169789923225938 0.9998495478971323 -0.0035489983952459872
vn 0.0169789923225938 -0.9998495478971323 0.0035489983952459872
vn 0.001994000288675431 0.9994441446915382 -0.033278004817723444
vn -0.001994000288675431 -0.9994441446915382 0.033278004817723444
vn 0.0011420001025927258 0.9999920898352933 -0.0038100003422749835
vn -0.0011420001025927258 -0.9999920898352933 0.0038100003422749835
vn -0.05120502010273641 0.9983673919521265 -0.02531000993653446
vn 0.05120502010273641 -0.9983673919521265 0.02531000993653446
vn -0.036006008693327804 0.9993492412839095 -0.002159000521271086
vn 0.036006008693327804 -0.9993492412839095 0.002159000521271086
vn 0.009651995772634297 0.9985575626533524 -0.05281697686730455
vn -0.009651995772634297 -0.9985575626533524 0.05281697686730455
vn 0.0013809999050224254 0.9999579312283957 0.00906799937635312
vn -0.0013809999050224254 -0.9999579312283957 -0.00906799937635312
vn -0.007345999937507581 0.9999329914935703 0.008946999923888097
vn 0.007345999937507581 -0.9999329914935703 -0.008946999923888097
vn -0.06699103286748355 0.9971634892334569 -0.03431001683335591
vn 0.06699103286748355 -0.9971634892334569 0.03431001683335591
vn -0.019639996177880356 0.999772805435233 0.008282998388054345
vn 0.019639996177880356 -0.999772805435233 -0.008282998388054345
vn 0.010858996755891491 0.999495701402203 -0.029839991085348527
vn -0.010858996755891491 -0.999495701402203 0.029839991085348527
vn 0.011682000881167519 0.999924075423776 -0.003921000295758881
vn -0.011682000881167519 -0.999924075423776 0.003921000295758881
vn 0.013777999832507744 0.9998699878450804 0.008376999898165222
vn -0.013777999832507744 -0.9998699878450804 -0.008376999898165222
vn -0.0849820353128899 0.9962954139942064 -0.01317200547341045
vn 0.0849820353128899 -0.9962954139942064 0.01317200547341045
vn -0.06218700351623983 0.9980640564335375 0.000957000054111877
vn 0.06218700351623983 -0.9980640564335375 -0.000957000054111877
vn -0.041240982171300435 0.999122568073912 0.007298996844604423
vn 0.041240982171300435 -0.999122568073912 -0.007298996844604423
vn 0.03138599109658024 0.9990147166045404 -0.03137699109913309
vn -0.03138599109658024 -0.9990147166045404 0.03137699109913309
vn 0.01615699949640249 0.9996599688415988 0.020466999362064326
vn -0.01615699949640249 -0.9996599688415988 -0.020466999362064326
vn 0.0015549996437045274 0.9997717709233201 0.021306995117950298
vn -0.0015549996437045274 -0.9997717709233201 -0.021306995117950298
vn -0.00869999743967813 0.9997417057860568 0.02099599382109011
vn 0.00869999743967813 -0.9997417057860568 -0.02099599382109011
vn -0.09771803173139527 0.9950023231011867 -0.020532006667236192
vn 0.09771803173139527 -0.9950023231011867 0.020532006667236192
vn -0.023478010495553463 0.9995294468272451 0.01974000882452639
vn 0.023478010495553463 -0.9995294468272451 -0.01974000882452639
vn 0.03505100587304188 0.9982291672602985 -0.04806200805312633
vn -0.03505100587304188 -0.9982291672602985 0.04806200805312633
vn 0.03633501281634232 0.999335352492623 -0.0029360010356067976
vn -0.03633501281634232 -0.999335352492623 0.0029360010356067976
vn 0.042382010054094726 0.999080237007337 0.006515001545524905
vn -0.042382010054094726 -0.999080237007337 -0.006515001545524905
vn 0.05003901808765717 0.9985963609636903 0.017361006275501654
vn -0.05003901808765717 -0.9985963609636903 -0.017361006275501654
vn -0.10907801065005024 0.9940310970542189 -0.002041000199276925
vn 0.10907801065005024 -0.9940310970542189 0.002041000199276925
vn -0.09839104180685453 0.9951254228338579 0.006678002837517621
vn 0.09839104180685453 -0.9951254228338579 -0.006678002837517621
vn -0.07017899768388258 0.9975139670790472 0.006386999789210071
vn 0.07017899768388258 -0.9975139670790472 -0.006386999789210071
vn -0.049165009380832174 0.9986401905435622 0.017337003307952778
vn 0.049165009380832174 -0.9986401905435622 -0.017337003307952778
vn 0.06290801974255276 0.9976763131028019 -0.026164008211104095
vn -0.06290801974255276 -0.9976763131028019 0.026164008211104095
vn 0.07868903050514629 0.9968963864639063 0.002373000919934547
vn -0.07868903050514629 -0.9968963864639063 -0.002373000919934547
vn 0.052499995077994445 0.9977759064560188 0.04107299614930433
vn -0.052499995077994445 -0.9977759064560188 -0.04107299614930433
vn 0.016807005101515067 0.9988553031875904 0.044784013593517843
vn -0.016807005101515067 -0.9988553031875904 -0.044784013593517843
vn 0.0015079992297435962 0.9989554897531457 0.04566897667318344
vn -0.0015079992297435962 -0.9989554897531457 -0.04566897667318344
vn -0.009301996500529111 0.9989276241970054 0.045354982937164036
vn 0.009301996500529111 -0.9989276241970054 -0.045354982937164036
vn -0.025145010598410473 0.9987144209497282 0.04401401855153884
vn 0.025145010598410473 -0.9987144209497282 -0.04401401855153884
vn 0.0829360013962276 0.9962350167716167 -0.025247000425033035
vn -0.0829360013962276 -0.9962350167716167 0.025247000425033035
vn 0.08902197298766623 0.9960236977720931 0.0034469989540619754
vn -0.08902197298766623 -0.9960236977720931 -0.0034469989540619754
vn 0.10556900519853463 0.9943570489651252 0.010452000514688092
vn -0.10556900519853463 -0.9943570489651252 -0.010452000514688092
vn 0.11586796589635488 0.9927657077973268 0.03147799073502162
vn -0.11586796589635488 -0.9927657077973268 -0.03147799073502162
vn -0.11562599993496041 0.9932549994412943 0.008667999995124472
vn 0.11562599993496041 -0.9932549994412943 -0.008667999995124472
vn -0.1090329619958045 0.9940366535216266 0.0017159994018767217
vn 0.1090329619958045 -0.9940366535216266 -0.0017159994018767217
vn -0.09050904527983124 0.9957784981676937 0.015274007641275036
vn 0.09050904527983124 -0.9957784981676937 -0.015274007641275036
vn -0.052621991088992785 0.9977638310386872 0.04120999302150059
vn 0.052621991088992785 -0.9977638310386872 -0.04120999302150059
vn 0.10252004547190482 0.9947294412038863 -0.0017260007655529174
vn -0.10252004547190482 -0.9947294412038863 0.0017260007655529174
vn 0.10921402968219303 0.9940122701526916 0.003450000937641603
vn -0.10921402968219303 -0.9940122701526916 -0.003450000937641603
vn 0.10783998893599517 0.9910718983194973 0.07840299195612808
vn -0.10783998893599517 -0.9910718983194973 -0.07840299195612808
vn 0.04336798309800408 0.9950536121933535 0.08937296516827911
vn -0.04336798309800408 -0.9950536121933535 -0.08937296516827911
vn 0.012717996548081846 0.9956537297597015 0.09225997495880121
vn -0.012717996548081846 -0.9956537297597015 -0.09225997495880121
vn 0.0004279999933844041 0.9962389846011341 0.08664699866069757
vn -0.0004279999933844041 -0.9962389846011341 -0.08664699866069757
vn -0.009720996547515784 0.9958066463318639 0.09096496769311546
vn 0.009720996547515784 -0.9958066463318639 -0.09096496769311546
vn -0.11896394070053512 0.9928895050784634 0.004243997884512099
vn 0.11896394070053512 -0.9928895050784634 -0.004243997884512099
vn -0.026202988335873353 0.9960835565984839 0.0844449624097558
vn 0.026202988335873353 -0.9960835565984839 -0.0844449624097558
vn 0.10558595853978098 0.9943456095523748 -0.011331995550288626
vn -0.10558595853978098 -0.9943456095523748 0.011331995550288626
vn 0.1297840372132419 0.9915422843069429 0.00004600001318989783
vn -0.1297840372132419 -0.9915422843069429 -0.00004600001318989783
vn 0.1452489784634998 0.989247853321264 0.017070997468832397
vn -0.1452489784634998 -0.989247853321264 -0.017070997468832397
vn 0.15146096277688265 0.9873817573405955 0.04622598863947954
vn -0.15146096277688265 -0.9873817573405955 -0.04622598863947954
vn -0.12776894692855967 0.9917915880391178 0.004953997942256046
vn 0.12776894692855967 -0.9917915880391178 -0.004953997942256046
vn -0.08903998165019726 0.9953327948768621 0.037208992331785824
vn 0.08903998165019726 -0.9953327948768621 -0.037208992331785824
vn -0.05144197644243521 0.994993544348283 0.08568296076196856
vn 0.05144197644243521 -0.994993544348283 -0.08568296076196856
vn 0.08452402738726847 0.9958303226665037 -0.03431701111931373
vn -0.08452402738726847 -0.9958303226665037 0.03431701111931373
vn 0.1388880059637122 0.9863830423543022 0.08808300378219638
vn -0.1388880059637122 -0.9863830423543022 -0.08808300378219638
vn 0.06358599880496475 0.9918359813594347 0.11053599792258668
vn -0.06358599880496475 -0.9918359813594347 -0.11053599792258668
vn 0.02262199516286371 0.9926617877446122 0.11878897460000984
vn -0.02262199516286371 -0.9926617877446122 -0.11878897460000984
vn 0.0006030001627672529 0.9928072679875092 0.11972203231645304
vn -0.0006030001627672529 -0.9928072679875092 -0.11972203231645304
vn -0.022180001180807842 0.9928380528562172 0.11739100624960407
vn 0.022180001180807842 -0.9928380528562172 -0.11739100624960407
vn -0.1250019730825155 0.9919867863890603 0.018349996048576723
vn 0.1250019730825155 -0.9919867863890603 -0.018349996048576723
vn 0.11421797892672773 0.9880138177109735 0.10384098084128912
vn -0.11421797892672773 -0.9880138177109735 -0.10384098084128912
vn -0.15691306744203545 0.9874864244266939 0.015775006780178468
vn 0.15691306744203545 -0.9874864244266939 -0.015775006780178468
vn -0.08991897671521422 0.9927917429136329 0.07924097948031351
vn 0.08991897671521422 -0.9927917429136329 -0.07924097948031351
vn -0.14076603016665618 0.9894992120531672 0.032806007030443105
vn 0.14076603016665618 -0.9894992120531672 -0.032806007030443105
vn -0.06197003323909253 0.9920235320952766 0.10976805887669394
vn 0.06197003323909253 -0.9920235320952766 -0.10976805887669394
vn -0.16536807804969975 0.9852644650207983 0.043673020612600824
vn 0.16536807804969975 -0.9852644650207983 -0.043673020612600824
vn -0.1122810158422349 0.9888751395248532 0.09756501376588803
vn 0.1122810158422349 -0.9888751395248532 -0.09756501376588803
vn -0.13994406521835784 0.9877854603392471 0.06852403193436506
vn 0.13994406521835784 -0.9877854603392471 -0.06852403193436506
vn -0.1514560619088896 0.9855984028713143 0.07521203074352577
vn 0.1514560619088896 -0.9855984028713143 -0.07521203074352577
usemtl material_0_0
f 1//1 2//2 3//3
f 3//4 2//5 1//6
f 4//7 2//2 1//1
f 1//6 2//5 4//8
f 2//2 5//9 3//3
f 3//4 5//10 2//5
f 1//1 3//3 6//11
f 6//12 3//4 1//6
f 4//7 7//13 2//2
f 2//5 7//14 4//8
f 4//7 1//1 8//15
f 8//16 1//6 4//8
f 3//3 5//9 9//17
f 9//18 5//10 3//4
f 6//11 3//3 10//19
f 10//20 3//4 6//12
f 8//15 1//1 6//11
f 6//12 1//6 8//16
f 11//21 7//13 4//7
f 4//8 7//14 11//22
f 12//23 4//7 8//15
f 8//16 4//8 12//24
f 5//9 13//25 9//17
f 9//18 13//26 5//10
f 3//3 9//17 10//19
f 10//20 9//18 3//4
f 6//11 10//19 14//27
f 14//28 10//20 6//12
f 8//15 6//11 15//29
f 15//30 6//12 8//16
f 16//31 7//13 11//21
f 11//22 7//14 16//32
f 11//21 4//7 12//23
f 12//24 4//8 11//22
f 12//23 8//15 17//33
f 17//34 8//16 12//24
f 9//17 13//25 18//35
f 18//36 13//26 9//18
f 9//17 19//37 10//19
f 10//20 19//38 9//18
f 10//19 20//39 14//27
f 14//28 20//40 10//20
f 15//29 6//11 14//27
f 14//28 6//12 15//30
f 17//33 8//15 15//29
f 15//30 8//16 17//34
f 21//41 16//31 11//21
f 11//22 16//32 21//42
f 22//43 11//21 12//23
f 12//24 11//22 22//44
f 23//45 12//23 17//33
f 17//34 12//24 23//46
f 18//35 13//25 24//47
f 24//48 13//26 18//36
f 9//17 18//35 19//37
f 19//38 18//36 9//18
f 10//19 19//37 20//39
f 20//40 19//38 10//20
f 14//27 20//39 25//49
f 25//50 20//40 14//28
f 15//29 14//27 26//51
f 26//52 14//28 15//30
f 17//33 15//29 27//53
f 27//54 15//30 17//34
f 28//55 16//31 21//41
f 21//42 16//32 28//56
f 21//41 11//21 22//43
f 22//44 11//22 21//42
f 22//43 12//23 23//45
f 23//46 12//24 22//44
f 23//45 17//33 29//57
f 29//58 17//34 23//46
f 13//25 30//59 24//47
f 24//48 30//60 13//26
f 18//35 24//47 31//61
f 31//62 24//48 18//36
f 18//35 31//61 19//37
f 19//38 31//62 18//36
f 19//37 32//63 20//39
f 20//40 32//64 19//38
f 25//49 20//39 33//65
f 33//66 20//40 25//50
f 26//51 14//27 25//49
f 25//50 14//28 26//52
f 15//29 26//51 27//53
f 27//54 26//52 15//30
f 17//33 27//53 29//57
f 29//58 27//54 17//34
f 34//67 28//55 21//41
f 21//42 28//56 34//68
f 35//69 21//41 22//43
f 22//44 21//42 35//70
f 36//71 22//43 23//45
f 23//46 22//44 36//72
f 23//45 29//57 37//73
f 37//74 29//58 23//46
f 24//47 30//59 38//75
f 38//76 30//60 24//48
f 24//47 39//77 31//61
f 31//62 39//78 24//48
f 19//37 31//61 32//63
f 32//64 31//62 19//38
f 20//39 32//63 33//65
f 33//66 32//64 20//40
f 25//49 33//65 40//79
f 40//80 33//66 25//50
f 26//51 25//49 41//81
f 41//82 25//50 26//52
f 27//53 26//51 42//83
f 42//84 26//52 27//54
f 29//57 27//53 43//85
f 43//86 27//54 29//58
f 34//67 21//41 35//69
f 35//70 21//42 34//68
f 35//69 22//43 36//71
f 36//72 22//44 35//70
f 36//71 23//45 37//73
f 37//74 23//46 36//72
f 37//73 29//57 44//87
f 44//88 29//58 37//74
f 30//59 45//89 38//75
f 38//76 45//90 30//60
f 24//47 38//75 39//77
f 39//78 38//76 24//48
f 31//61 39//77 46//91
f 46//92 39//78 31//62
f 31//61 46//91 32//63
f 32//64 46//92 31//62
f 33//65 32//63 47//93
f 47//94 32//64 33//66
f 40//79 33//65 48//95
f 48//96 33//66 40//80
f 41//81 25//49 40//79
f 40//80 25//50 41//82
f 42//83 26//51 41//81
f 41//82 26//52 42//84
f 27//53 42//83 43//85
f 43//86 42//84 27//54
f 29//57 43//85 44//87
f 44//88 43//86 29//58
f 49//97 34//67 35//69
f 35//70 34//68 49//98
f 50//99 35//69 36//71
f 36//72 35//70 50//100
f 36//71 37//73 51//101
f 51//102 37//74 36//72
f 37//73 44//87 52//103
f 52//104 44//88 37//74
f 45//89 53//105 38//75
f 38//76 53//106 45//90
f 38//75 53//105 39//77
f 39//78 53//106 38//76
f 39//77 54//107 46//91
f 46//92 54//108 39//78
f 32//63 46//91 47//93
f 47//94 46//92 32//64
f 33//65 47//93 48//95
f 48//96 47//94 33//66
f 40//79 48//95 55//109
f 55//110 48//96 40//80
f 41//81 40//79 56//111
f 56//112 40//80 41//82
f 42//83 41//81 57//113
f 57//114 41//82 42//84
f 43//85 42//83 58//115
f 58//116 42//84 43//86
f 44//87 43//85 59//117
f 59//118 43//86 44//88
f 60//119 49//97 35//69
f 35//70 49//98 60//120
f 60//119 35//69 50//99
f 50//100 35//70 60//120
f 50//99 36//71 51//101
f 51//102 36//72 50//100
f 51//101 37//73 52//103
f 52//104 37//74 51//102
f 52//103 44//87 61//121
f 61//122 44//88 52//104
f 45//89 62//123 53//105
f 53//106 62//124 45//90
f 39//77 53//105 54//107
f 54//108 53//106 39//78
f 46//91 54//107 63//125
f 63//126 54//108 46//92
f 47//93 46//91 63//125
f 63//126 46//92 47//94
f 48//95 47//93 64//127
f 64//128 47//94 48//96
f 55//109 48//95 65//129
f 65//130 48//96 55//110
f 56//111 40//79 55//109
f 55//110 40//80 56//112
f 57//113 41//81 56//111
f 56//112 41//82 57//114
f 58//115 42//83 57//113
f 57//114 42//84 58//116
f 43//85 58//115 59//117
f 59//118 58//116 43//86
f 44//87 59//117 61//121
f 61//122 59//118 44//88
f 66//131 60//119 50//99
f 50//100 60//120 66//132
f 66//131 50//99 51//101
f 51//102 50//100 66//132
f 51//101 52//103 67//133
f 67//134 52//104 51//102
f 52//103 61//121 68//135
f 68//136 61//122 52//104
f 45//89 69//137 62//123
f 62//124 69//138 45//90
f 47//93 63//125 64//127
f 64//128 63//126 47//94
f 48//95 64//127 65//129
f 65//130 64//128 48//96
f 55//109 65//129 70//139
f 70//140 65//130 55//110
f 56//111 55//109 71//141
f 71//142 55//110 56//112
f 57//113 56//111 72//143
f 72//144 56//112 57//114
f 73//145 58//115 57//113
f 57//114 58//116 73//146
f 59//117 58//115 73//145
f 73//146 58//116 59//118
f 61//121 59//117 74//147
f 74//148 59//118 61//122
f 66//131 51//101 75//149
f 75//150 51//102 66//132
f 67//133 52//103 68//135
f 68//136 52//104 67//134
f 75//149 51//101 67//133
f 67//134 51//102 75//150
f 68//135 61//121 74//147
f 74//148 61//122 68//136
f 55//109 70//139 76//151
f 76//152 70//140 55//110
f 71//141 55//109 76//151
f 76//152 55//110 71//142
f 72//143 56//111 71//141
f 71//142 56//112 72//144
f 73//145 57//113 72//143
f 72//144 57//114 73//146
f 74//147 59//117 73//145
f 73//146 59//118 74//148
f 66//131 75//149 77//153
f 77//154 75//150 66//132
f 67//133 68//135 78//155
f 78//156 68//136 67//134
f 75//149 67//133 79//157
f 79//158 67//134 75//150
f 80//159 68//135 74//147
f 74//148 68//136 80//160
f 77//153 75//149 79//157
f 79//158 75//150 77//154
f 78//155 68//135 80//159
f 80//160 68//136 78//156
f 79//157 67//133 78//155
f 78//156 67//134 79//158
f 77//153 79//157 81//161
f 81//162 79//158 77//154
f 82//163 78//155 80//159
f 80//160 78//156 82//164
f 79//157 78//155 83//165
f 83//166 78//156 79//158
f 81//161 79//157 83//165
f 83//166 79//158 81//162
f 83//165 78//155 82//163
f 82//164 78//156 83//166
f 81//161 83//165 84//167
f 84//168 83//166 81//162
f 84//167 83//165 82//163
f 82//164 83//166 84//168
