# SSTK version 0.8.0
# 32
mtllib original-32.mtl
o Group_24_2/Group_24/mesh44/mesh44-geometry#mesh44-geometry
v -0.014103 -0.691033 -0.567264
v -0.025752 -0.687423 -0.536937
v -0.017776 -0.691033 -0.536000
v -0.022079 -0.687423 -0.568201
v -0.060064 -0.687905 -0.540968
v -0.006871 -0.695982 -0.566415
v -0.056391 -0.687905 -0.572232
v -0.034229 -0.685263 -0.537933
v -0.067936 -0.691737 -0.541893
v -0.051650 -0.685508 -0.539979
v -0.010544 -0.695982 -0.535151
v -0.064264 -0.691737 -0.573157
v -0.047977 -0.685508 -0.571243
v -0.030556 -0.685263 -0.569197
v -0.000602 -0.702120 -0.565678
v -0.071356 -0.696887 -0.573990
v -0.042950 -0.684618 -0.538957
v -0.075029 -0.696887 -0.542726
v -0.039277 -0.684618 -0.570221
v -0.004275 -0.702120 -0.534414
v 0.000840 -0.709261 -0.533813
v -0.077452 -0.703199 -0.574706
v -0.081125 -0.703199 -0.543442
v 0.004513 -0.709261 -0.565077
v 0.004646 -0.717188 -0.533366
v -0.086040 -0.710481 -0.544019
v -0.082367 -0.710481 -0.575283
v 0.008318 -0.717188 -0.564630
v 0.007026 -0.725660 -0.533087
v -0.089625 -0.718512 -0.544440
v -0.085952 -0.718512 -0.575704
v 0.010699 -0.725660 -0.564351
v 0.007910 -0.734419 -0.532983
v -0.091770 -0.727047 -0.544692
v -0.088097 -0.727047 -0.575956
v 0.011582 -0.734419 -0.564247
v 0.007269 -0.743200 -0.533058
v -0.092411 -0.735828 -0.544768
v -0.088738 -0.735828 -0.576032
v 0.010942 -0.743200 -0.564322
v 0.005124 -0.751735 -0.533310
v -0.091527 -0.744587 -0.544664
v -0.087854 -0.744587 -0.575928
v 0.008797 -0.751735 -0.564574
v 0.005212 -0.759766 -0.564995
v -0.089146 -0.753059 -0.544384
v -0.085474 -0.753059 -0.575648
v 0.001539 -0.759766 -0.533731
v 0.000297 -0.767048 -0.565572
v -0.081668 -0.760986 -0.575201
v -0.085341 -0.760986 -0.543937
v -0.003376 -0.767048 -0.534309
v -0.005799 -0.773360 -0.566289
v -0.076553 -0.768127 -0.574600
v -0.080226 -0.768127 -0.543336
v -0.009472 -0.773360 -0.535025
v -0.016564 -0.778510 -0.535858
v -0.070284 -0.774265 -0.573864
v -0.073957 -0.774265 -0.542600
v -0.012892 -0.778510 -0.567122
v -0.024437 -0.782342 -0.536783
v -0.066725 -0.779214 -0.541750
v -0.063052 -0.779214 -0.573014
v -0.020764 -0.782342 -0.568047
v -0.032851 -0.784739 -0.537771
v -0.058749 -0.782824 -0.540813
v -0.055076 -0.782824 -0.572077
v -0.029179 -0.784739 -0.569035
v -0.041551 -0.785629 -0.538793
v -0.050272 -0.784984 -0.539818
v -0.046599 -0.784984 -0.571081
v -0.037878 -0.785629 -0.570057
vn 0.4845420114444664 0.872914126146801 0.0569207125633325
vn 0.32663583803920193 0.9443710596685497 0.0383709651810936
vn -0.11667095581193385 0 0.9931706238456361
vn 0.6277254692832144 0.77493419701793 0.0737409350723511
vn 0.11667095581193385 0 -0.9931706238456361
vn 0.15880489821698046 0.9871337210368226 0.018655323483945396
vn -0.35266694510308505 0.9348313592025131 -0.04142892326912667
vn -0.5085320899706155 0.8589682047465657 -0.059738904447432975
vn -0.18608637054655774 0.9822901790401596 -0.02186016601173132
vn 0.7518359626747748 0.6534081096356353 0.08832059494410202
vn -0.01385074881038721 0.9999027499355139 -0.0016270921265889406
vn -0.6489454581776821 0.7570060851255836 -0.07623371559484533
vn 0.8531018183526391 0.512029214290546 0.10021662155763793
vn -0.7696416470005929 0.6320422088156548 -0.09041228609897589
vn 0.9284469555325531 0.35509223701435305 0.10906765778394509
vn -0.866952510920278 0.4878741673196035 -0.10184370707720986
vn 0.9755817239719158 0.18736610013156352 0.11460473102570187
vn -0.9379215176271968 0.32888211839505976 -0.11018066514536022
vn 0.9930740377921186 0.013946001792127443 0.11665960953677079
vn -0.9803921945543789 0.15989701227611794 -0.1151698325171132
vn 0.9803921945543789 -0.15989701227611794 0.1151698325171132
vn -0.9930740377921186 -0.013946001792127443 -0.11665960953677079
vn 0.9379215176271968 -0.32888211839505976 0.11018066514536022
vn -0.9755817239719158 -0.18736610013156352 -0.11460473102570187
vn 0.866952510920278 -0.4878741673196035 0.10184370707720986
vn -0.9284469555325531 -0.35509223701435305 -0.10906765778394509
vn 0.7696416470005929 -0.6320422088156548 0.09041228609897589
vn -0.8531018183526391 -0.512029214290546 -0.10021662155763793
vn 0.6489454581776821 -0.7570060851255836 0.07623371559484533
vn -0.7518359626747748 -0.6534081096356353 -0.08832059494410202
vn 0.5085320899706155 -0.8589682047465657 0.059738904447432975
vn -0.6277254692832144 -0.77493419701793 -0.0737409350723511
vn 0.35266694510308505 -0.9348313592025131 0.04142892326912667
vn -0.4845420114444664 -0.872914126146801 -0.0569207125633325
vn 0.18608637054655774 -0.9822901790401596 0.02186016601173132
vn -0.32663583803920193 -0.9443710596685497 -0.0383709651810936
vn 0.01385074881038721 -0.9999027499355139 0.0016270921265889406
vn -0.15880489821698046 -0.9871337210368226 -0.018655323483945396
usemtl material_0_0
f 1//1 2//2 3//1
f 2//2 1//1 4//2
f 5//3 3//3 2//3
f 3//1 6//4 1//1
f 1//5 7//5 4//5
f 4//2 8//6 2//2
f 9//3 3//3 5//3
f 5//3 2//3 10//3
f 6//4 3//1 11//4
f 6//5 12//5 1//5
f 1//5 12//5 7//5
f 4//5 7//5 13//5
f 8//6 4//2 14//6
f 10//3 2//3 8//3
f 9//3 11//3 3//3
f 7//7 9//8 5//7
f 13//9 5//7 10//9
f 11//4 15//10 6//4
f 6//5 16//5 12//5
f 9//8 7//7 12//8
f 5//7 13//9 7//7
f 4//5 13//5 14//5
f 14//6 17//11 8//6
f 10//3 8//3 17//3
f 18//3 11//3 9//3
f 10//9 19//11 13//9
f 15//10 11//4 20//10
f 15//5 16//5 6//5
f 18//12 12//8 16//12
f 12//8 18//12 9//8
f 14//5 13//5 19//5
f 17//11 14//6 19//11
f 19//11 10//9 17//11
f 18//3 20//3 11//3
f 21//13 15//10 20//10
f 15//5 22//5 16//5
f 22//14 18//12 16//12
f 23//3 20//3 18//3
f 15//10 21//13 24//13
f 23//3 21//3 20//3
f 24//5 22//5 15//5
f 18//12 22//14 23//14
f 25//15 24//13 21//13
f 26//3 21//3 23//3
f 24//5 27//5 22//5
f 22//14 26//16 23//14
f 24//13 25//15 28//15
f 26//3 25//3 21//3
f 28//5 27//5 24//5
f 26//16 22//14 27//16
f 29//17 28//15 25//15
f 30//3 25//3 26//3
f 28//5 31//5 27//5
f 27//16 30//18 26//16
f 28//15 29//17 32//17
f 30//3 29//3 25//3
f 32//5 31//5 28//5
f 30//18 27//16 31//18
f 33//19 32//17 29//17
f 34//3 29//3 30//3
f 32//5 35//5 31//5
f 31//18 34//20 30//18
f 32//17 33//19 36//19
f 34//3 33//3 29//3
f 36//5 35//5 32//5
f 34//20 31//18 35//20
f 37//21 36//19 33//19
f 38//3 33//3 34//3
f 36//5 39//5 35//5
f 35//20 38//22 34//20
f 36//19 37//21 40//21
f 38//3 37//3 33//3
f 40//5 39//5 36//5
f 38//22 35//20 39//22
f 41//23 40//21 37//21
f 42//3 37//3 38//3
f 40//5 43//5 39//5
f 39//22 42//24 38//22
f 40//21 41//23 44//23
f 42//3 41//3 37//3
f 44//5 43//5 40//5
f 42//24 39//22 43//24
f 41//23 45//25 44//23
f 46//3 41//3 42//3
f 44//5 47//5 43//5
f 43//24 46//26 42//24
f 45//25 41//23 48//25
f 45//5 47//5 44//5
f 46//3 48//3 41//3
f 46//26 43//24 47//26
f 48//25 49//27 45//25
f 45//5 50//5 47//5
f 51//3 48//3 46//3
f 47//26 51//28 46//26
f 49//27 48//25 52//27
f 49//5 50//5 45//5
f 51//28 47//26 50//28
f 51//3 52//3 48//3
f 52//27 53//29 49//27
f 49//5 54//5 50//5
f 50//28 55//30 51//28
f 55//3 52//3 51//3
f 53//29 52//27 56//29
f 53//5 54//5 49//5
f 55//30 50//28 54//30
f 55//3 56//3 52//3
f 57//31 53//29 56//29
f 53//5 58//5 54//5
f 58//32 55//30 54//30
f 59//3 56//3 55//3
f 53//29 57//31 60//31
f 59//3 57//3 56//3
f 60//5 58//5 53//5
f 55//30 58//32 59//32
f 61//33 60//31 57//31
f 62//3 57//3 59//3
f 60//5 63//5 58//5
f 63//34 59//32 58//32
f 60//31 61//33 64//33
f 62//3 61//3 57//3
f 59//32 63//34 62//34
f 64//5 63//5 60//5
f 65//35 64//33 61//33
f 66//3 61//3 62//3
f 67//36 62//34 63//34
f 64//5 67//5 63//5
f 64//33 65//35 68//35
f 66//3 65//3 61//3
f 62//34 67//36 66//36
f 68//5 67//5 64//5
f 69//37 68//35 65//35
f 70//3 65//3 66//3
f 71//38 66//36 67//36
f 68//5 71//5 67//5
f 68//35 69//37 72//37
f 65//3 70//3 69//3
f 66//36 71//38 70//38
f 71//5 68//5 72//5
f 70//38 72//37 69//37
f 72//37 70//38 71//38
usemtl material_1_0
f 3//34 2//36 1//34
f 4//36 1//34 2//36
f 2//5 3//5 5//5
f 1//34 6//32 3//34
f 4//3 7//3 1//3
f 2//36 8//38 4//36
f 5//5 3//5 9//5
f 10//5 2//5 5//5
f 11//32 3//34 6//32
f 1//3 12//3 6//3
f 7//3 12//3 1//3
f 13//3 7//3 4//3
f 14//38 4//36 8//38
f 8//5 2//5 10//5
f 3//5 11//5 9//5
f 5//33 9//31 7//33
f 10//35 5//33 13//35
f 6//32 15//30 11//32
f 12//3 16//3 6//3
f 12//31 7//33 9//31
f 7//33 13//35 5//33
f 14//3 13//3 4//3
f 8//38 17//37 14//38
f 17//5 8//5 10//5
f 9//5 11//5 18//5
f 13//35 19//37 10//35
f 20//30 11//32 15//30
f 6//3 16//3 15//3
f 16//29 12//31 18//29
f 9//31 18//29 12//31
f 19//3 13//3 14//3
f 19//37 14//38 17//37
f 17//37 10//35 19//37
f 11//5 20//5 18//5
f 20//30 15//30 21//28
f 16//3 22//3 15//3
f 16//29 18//29 22//27
f 18//5 20//5 23//5
f 24//28 21//28 15//30
f 20//5 21//5 23//5
f 15//3 22//3 24//3
f 23//27 22//27 18//29
f 21//28 24//28 25//26
f 23//5 21//5 26//5
f 22//3 27//3 24//3
f 23//27 26//25 22//27
f 28//26 25//26 24//28
f 21//5 25//5 26//5
f 24//3 27//3 28//3
f 27//25 22//27 26//25
f 25//26 28//26 29//24
f 26//5 25//5 30//5
f 27//3 31//3 28//3
f 26//25 30//23 27//25
f 32//24 29//24 28//26
f 25//5 29//5 30//5
f 28//3 31//3 32//3
f 31//23 27//25 30//23
f 29//24 32//24 33//22
f 30//5 29//5 34//5
f 31//3 35//3 32//3
f 30//23 34//21 31//23
f 36//22 33//22 32//24
f 29//5 33//5 34//5
f 32//3 35//3 36//3
f 35//21 31//23 34//21
f 33//22 36//22 37//20
f 34//5 33//5 38//5
f 35//3 39//3 36//3
f 34//21 38//19 35//21
f 40//20 37//20 36//22
f 33//5 37//5 38//5
f 36//3 39//3 40//3
f 39//19 35//21 38//19
f 37//20 40//20 41//18
f 38//5 37//5 42//5
f 39//3 43//3 40//3
f 38//19 42//17 39//19
f 44//18 41//18 40//20
f 37//5 41//5 42//5
f 40//3 43//3 44//3
f 43//17 39//19 42//17
f 44//18 45//16 41//18
f 42//5 41//5 46//5
f 43//3 47//3 44//3
f 42//17 46//15 43//17
f 48//16 41//18 45//16
f 44//3 47//3 45//3
f 41//5 48//5 46//5
f 47//15 43//17 46//15
f 45//16 49//14 48//16
f 47//3 50//3 45//3
f 46//5 48//5 51//5
f 46//15 51//13 47//15
f 52//14 48//16 49//14
f 45//3 50//3 49//3
f 50//13 47//15 51//13
f 48//5 52//5 51//5
f 49//14 53//12 52//14
f 50//3 54//3 49//3
f 51//13 55//10 50//13
f 51//5 52//5 55//5
f 56//12 52//14 53//12
f 49//3 54//3 53//3
f 54//10 50//13 55//10
f 52//5 56//5 55//5
f 56//12 53//12 57//8
f 54//3 58//3 53//3
f 54//10 55//10 58//4
f 55//5 56//5 59//5
f 60//8 57//8 53//12
f 56//5 57//5 59//5
f 53//3 58//3 60//3
f 59//4 58//4 55//10
f 57//8 60//8 61//7
f 59//5 57//5 62//5
f 58//3 63//3 60//3
f 58//4 59//4 63//1
f 64//7 61//7 60//8
f 57//5 61//5 62//5
f 62//1 63//1 59//4
f 60//3 63//3 64//3
f 61//7 64//7 65//9
f 62//5 61//5 66//5
f 63//1 62//1 67//2
f 63//3 67//3 64//3
f 68//9 65//9 64//7
f 61//5 65//5 66//5
f 66//2 67//2 62//1
f 64//3 67//3 68//3
f 65//9 68//9 69//11
f 66//5 65//5 70//5
f 67//2 66//2 71//6
f 67//3 71//3 68//3
f 72//11 69//11 68//9
f 69//5 70//5 65//5
f 70//6 71//6 66//2
f 72//3 68//3 71//3
f 69//11 72//11 70//6
f 71//6 70//6 72//11
