# SSTK version 0.8.0
# 37
mtllib original-37.mtl
o Group_24_2/Group_24/mesh44/mesh44-geometry#mesh44-geometry
v -0.597777 -0.691033 -0.096741
v -0.573301 -0.687423 -0.075380
v -0.569680 -0.691033 -0.082548
v -0.601398 -0.687423 -0.089573
v -0.588877 -0.687905 -0.044544
v -0.594494 -0.695982 -0.103241
v -0.616975 -0.687905 -0.058737
v -0.577149 -0.685263 -0.067762
v -0.592451 -0.691737 -0.037468
v -0.585058 -0.685508 -0.052105
v -0.566397 -0.695982 -0.089048
v -0.620549 -0.691737 -0.051661
v -0.613155 -0.685508 -0.066299
v -0.605247 -0.685263 -0.081955
v -0.591648 -0.702120 -0.108875
v -0.623769 -0.696887 -0.045287
v -0.581108 -0.684618 -0.059924
v -0.595671 -0.696887 -0.031094
v -0.609206 -0.684618 -0.074117
v -0.563551 -0.702120 -0.094682
v -0.561229 -0.709261 -0.099279
v -0.626536 -0.703199 -0.039808
v -0.598439 -0.703199 -0.025615
v -0.589326 -0.709261 -0.113472
v -0.559501 -0.717188 -0.102699
v -0.600670 -0.710481 -0.021198
v -0.628768 -0.710481 -0.035391
v -0.587599 -0.717188 -0.116892
v -0.558420 -0.725660 -0.104839
v -0.602298 -0.718512 -0.017976
v -0.630395 -0.718512 -0.032169
v -0.586518 -0.725660 -0.119032
v -0.558019 -0.734419 -0.105633
v -0.603271 -0.727047 -0.016048
v -0.631369 -0.727047 -0.030241
v -0.586117 -0.734419 -0.119826
v -0.558310 -0.743200 -0.105057
v -0.603562 -0.735828 -0.015473
v -0.631660 -0.735828 -0.029666
v -0.586407 -0.743200 -0.119250
v -0.559284 -0.751735 -0.103129
v -0.603161 -0.744587 -0.016267
v -0.631259 -0.744587 -0.030460
v -0.587381 -0.751735 -0.117322
v -0.589009 -0.759766 -0.114101
v -0.602080 -0.753059 -0.018406
v -0.630178 -0.753059 -0.032599
v -0.560911 -0.759766 -0.099908
v -0.591240 -0.767048 -0.109683
v -0.628450 -0.760986 -0.036020
v -0.600353 -0.760986 -0.021827
v -0.563142 -0.767048 -0.095490
v -0.594008 -0.773360 -0.104204
v -0.626128 -0.768127 -0.040617
v -0.598031 -0.768127 -0.026423
v -0.565910 -0.773360 -0.090011
v -0.569130 -0.778510 -0.083637
v -0.623282 -0.774265 -0.046251
v -0.595185 -0.774265 -0.032057
v -0.597227 -0.778510 -0.097830
v -0.572704 -0.782342 -0.076562
v -0.591901 -0.779214 -0.038557
v -0.619999 -0.779214 -0.052750
v -0.600801 -0.782342 -0.090755
v -0.576524 -0.784739 -0.069000
v -0.588281 -0.782824 -0.045725
v -0.616378 -0.782824 -0.059918
v -0.604621 -0.784739 -0.083193
v -0.580473 -0.785629 -0.061181
v -0.584432 -0.784984 -0.053344
v -0.612530 -0.784984 -0.067537
v -0.608571 -0.785629 -0.075375
vn 0.2199715222573443 0.8729141241519851 -0.43546924260131115
vn 0.1482855581349359 0.9443710586878439 -0.29355527036899093
vn 0.8925856705109865 0 0.450877833562987
vn 0.2849736938439119 0.7749341940457659 -0.564151565375472
vn -0.8925856705109865 0 -0.450877833562987
vn 0.0720939659490595 0.9871337207945122 -0.14272167790534723
vn -0.16010311389981793 0.9348313580708134 0.3169500353163896
vn -0.23086249546893192 0.8589682025844335 0.45702968736694244
vn -0.08447916034811855 0.9822901787090762 0.16724017543212552
vn 0.3413171546722671 0.6534081060406333 -0.6756925683229174
vn -0.006287938373184947 0.9999027499336469 0.012447992052767629
vn -0.29460710664254136 0.757006082022566 0.5832224656994568
vn 0.38728964731790844 0.5120292106634011 -0.7667025606503374
vn -0.3494005475179491 0.6320422051715432 0.6916949531954462
vn 0.42149469823677177 0.3550922340349875 -0.8344169968824546
vn -0.3935775600223127 0.4878741637504362 0.7791505018875977
vn 0.44289285622761937 0.18736609839581536 -0.8767781150750007
vn -0.42579594301889684 0.3288821155790008 0.8429320073178672
vn 0.4508339855990212 0.013946001658258234 -0.8924988663671508
vn -0.44507670506769953 0.1598970107801973 0.8811013974280357
vn 0.44507670506769953 -0.1598970107801973 -0.8811013974280357
vn -0.4508339855990212 -0.013946001658258234 0.8924988663671508
vn 0.42579594301889684 -0.3288821155790008 -0.8429320073178672
vn -0.44289285622761937 -0.18736609839581536 0.8767781150750007
vn 0.3935775600223127 -0.4878741637504362 -0.7791505018875977
vn -0.42149469823677177 -0.3550922340349875 0.8344169968824546
vn 0.3494005475179491 -0.6320422051715432 -0.6916949531954462
vn -0.38728964731790844 -0.5120292106634011 0.7667025606503374
vn 0.29460710664254136 -0.757006082022566 -0.5832224656994568
vn -0.3413171546722671 -0.6534081060406333 0.6756925683229174
vn 0.23086249546893192 -0.8589682025844335 -0.45702968736694244
vn -0.2849736938439119 -0.7749341940457659 0.564151565375472
vn 0.16010311389981793 -0.9348313580708134 -0.3169500353163896
vn -0.2199715222573443 -0.8729141241519851 0.43546924260131115
vn 0.08447916034811855 -0.9822901787090762 -0.16724017543212552
vn -0.1482855581349359 -0.9443710586878439 0.29355527036899093
vn 0.006287938373184947 -0.9999027499336469 -0.012447992052767629
vn -0.0720939659490595 -0.9871337207945122 0.14272167790534723
usemtl material_0_0
f 1//1 2//2 3//1
f 2//2 1//1 4//2
f 5//3 3//3 2//3
f 3//1 6//4 1//1
f 1//5 7//5 4//5
f 4//2 8//6 2//2
f 9//3 3//3 5//3
f 5//3 2//3 10//3
f 6//4 3//1 11//4
f 6//5 12//5 1//5
f 1//5 12//5 7//5
f 4//5 7//5 13//5
f 8//6 4//2 14//6
f 10//3 2//3 8//3
f 9//3 11//3 3//3
f 7//7 9//8 5//7
f 13//9 5//7 10//9
f 11//4 15//10 6//4
f 6//5 16//5 12//5
f 9//8 7//7 12//8
f 5//7 13//9 7//7
f 4//5 13//5 14//5
f 14//6 17//11 8//6
f 10//3 8//3 17//3
f 18//3 11//3 9//3
f 10//9 19//11 13//9
f 15//10 11//4 20//10
f 15//5 16//5 6//5
f 18//12 12//8 16//12
f 12//8 18//12 9//8
f 14//5 13//5 19//5
f 17//11 14//6 19//11
f 19//11 10//9 17//11
f 18//3 20//3 11//3
f 21//13 15//10 20//10
f 15//5 22//5 16//5
f 22//14 18//12 16//12
f 23//3 20//3 18//3
f 15//10 21//13 24//13
f 23//3 21//3 20//3
f 24//5 22//5 15//5
f 18//12 22//14 23//14
f 25//15 24//13 21//13
f 26//3 21//3 23//3
f 24//5 27//5 22//5
f 22//14 26//16 23//14
f 24//13 25//15 28//15
f 26//3 25//3 21//3
f 28//5 27//5 24//5
f 26//16 22//14 27//16
f 29//17 28//15 25//15
f 30//3 25//3 26//3
f 28//5 31//5 27//5
f 27//16 30//18 26//16
f 28//15 29//17 32//17
f 30//3 29//3 25//3
f 32//5 31//5 28//5
f 30//18 27//16 31//18
f 33//19 32//17 29//17
f 34//3 29//3 30//3
f 32//5 35//5 31//5
f 31//18 34//20 30//18
f 32//17 33//19 36//19
f 34//3 33//3 29//3
f 36//5 35//5 32//5
f 34//20 31//18 35//20
f 37//21 36//19 33//19
f 38//3 33//3 34//3
f 36//5 39//5 35//5
f 35//20 38//22 34//20
f 36//19 37//21 40//21
f 38//3 37//3 33//3
f 40//5 39//5 36//5
f 38//22 35//20 39//22
f 41//23 40//21 37//21
f 42//3 37//3 38//3
f 40//5 43//5 39//5
f 39//22 42//24 38//22
f 40//21 41//23 44//23
f 42//3 41//3 37//3
f 44//5 43//5 40//5
f 42//24 39//22 43//24
f 41//23 45//25 44//23
f 46//3 41//3 42//3
f 44//5 47//5 43//5
f 43//24 46//26 42//24
f 45//25 41//23 48//25
f 45//5 47//5 44//5
f 46//3 48//3 41//3
f 46//26 43//24 47//26
f 48//25 49//27 45//25
f 45//5 50//5 47//5
f 51//3 48//3 46//3
f 47//26 51//28 46//26
f 49//27 48//25 52//27
f 49//5 50//5 45//5
f 51//28 47//26 50//28
f 51//3 52//3 48//3
f 52//27 53//29 49//27
f 49//5 54//5 50//5
f 50//28 55//30 51//28
f 55//3 52//3 51//3
f 53//29 52//27 56//29
f 53//5 54//5 49//5
f 55//30 50//28 54//30
f 55//3 56//3 52//3
f 57//31 53//29 56//29
f 53//5 58//5 54//5
f 58//32 55//30 54//30
f 59//3 56//3 55//3
f 53//29 57//31 60//31
f 59//3 57//3 56//3
f 60//5 58//5 53//5
f 55//30 58//32 59//32
f 61//33 60//31 57//31
f 62//3 57//3 59//3
f 60//5 63//5 58//5
f 63//34 59//32 58//32
f 60//31 61//33 64//33
f 62//3 61//3 57//3
f 59//32 63//34 62//34
f 64//5 63//5 60//5
f 65//35 64//33 61//33
f 66//3 61//3 62//3
f 67//36 62//34 63//34
f 64//5 67//5 63//5
f 64//33 65//35 68//35
f 66//3 65//3 61//3
f 62//34 67//36 66//36
f 68//5 67//5 64//5
f 69//37 68//35 65//35
f 70//3 65//3 66//3
f 71//38 66//36 67//36
f 68//5 71//5 67//5
f 68//35 69//37 72//37
f 65//3 70//3 69//3
f 66//36 71//38 70//38
f 71//5 68//5 72//5
f 70//38 72//37 69//37
f 72//37 70//38 71//38
usemtl material_1_0
f 3//34 2//36 1//34
f 4//36 1//34 2//36
f 2//5 3//5 5//5
f 1//34 6//32 3//34
f 4//3 7//3 1//3
f 2//36 8//38 4//36
f 5//5 3//5 9//5
f 10//5 2//5 5//5
f 11//32 3//34 6//32
f 1//3 12//3 6//3
f 7//3 12//3 1//3
f 13//3 7//3 4//3
f 14//38 4//36 8//38
f 8//5 2//5 10//5
f 3//5 11//5 9//5
f 5//33 9//31 7//33
f 10//35 5//33 13//35
f 6//32 15//30 11//32
f 12//3 16//3 6//3
f 12//31 7//33 9//31
f 7//33 13//35 5//33
f 14//3 13//3 4//3
f 8//38 17//37 14//38
f 17//5 8//5 10//5
f 9//5 11//5 18//5
f 13//35 19//37 10//35
f 20//30 11//32 15//30
f 6//3 16//3 15//3
f 16//29 12//31 18//29
f 9//31 18//29 12//31
f 19//3 13//3 14//3
f 19//37 14//38 17//37
f 17//37 10//35 19//37
f 11//5 20//5 18//5
f 20//30 15//30 21//28
f 16//3 22//3 15//3
f 16//29 18//29 22//27
f 18//5 20//5 23//5
f 24//28 21//28 15//30
f 20//5 21//5 23//5
f 15//3 22//3 24//3
f 23//27 22//27 18//29
f 21//28 24//28 25//26
f 23//5 21//5 26//5
f 22//3 27//3 24//3
f 23//27 26//25 22//27
f 28//26 25//26 24//28
f 21//5 25//5 26//5
f 24//3 27//3 28//3
f 27//25 22//27 26//25
f 25//26 28//26 29//24
f 26//5 25//5 30//5
f 27//3 31//3 28//3
f 26//25 30//23 27//25
f 32//24 29//24 28//26
f 25//5 29//5 30//5
f 28//3 31//3 32//3
f 31//23 27//25 30//23
f 29//24 32//24 33//22
f 30//5 29//5 34//5
f 31//3 35//3 32//3
f 30//23 34//21 31//23
f 36//22 33//22 32//24
f 29//5 33//5 34//5
f 32//3 35//3 36//3
f 35//21 31//23 34//21
f 33//22 36//22 37//20
f 34//5 33//5 38//5
f 35//3 39//3 36//3
f 34//21 38//19 35//21
f 40//20 37//20 36//22
f 33//5 37//5 38//5
f 36//3 39//3 40//3
f 39//19 35//21 38//19
f 37//20 40//20 41//18
f 38//5 37//5 42//5
f 39//3 43//3 40//3
f 38//19 42//17 39//19
f 44//18 41//18 40//20
f 37//5 41//5 42//5
f 40//3 43//3 44//3
f 43//17 39//19 42//17
f 44//18 45//16 41//18
f 42//5 41//5 46//5
f 43//3 47//3 44//3
f 42//17 46//15 43//17
f 48//16 41//18 45//16
f 44//3 47//3 45//3
f 41//5 48//5 46//5
f 47//15 43//17 46//15
f 45//16 49//14 48//16
f 47//3 50//3 45//3
f 46//5 48//5 51//5
f 46//15 51//13 47//15
f 52//14 48//16 49//14
f 45//3 50//3 49//3
f 50//13 47//15 51//13
f 48//5 52//5 51//5
f 49//14 53//12 52//14
f 50//3 54//3 49//3
f 51//13 55//10 50//13
f 51//5 52//5 55//5
f 56//12 52//14 53//12
f 49//3 54//3 53//3
f 54//10 50//13 55//10
f 52//5 56//5 55//5
f 56//12 53//12 57//8
f 54//3 58//3 53//3
f 54//10 55//10 58//4
f 55//5 56//5 59//5
f 60//8 57//8 53//12
f 56//5 57//5 59//5
f 53//3 58//3 60//3
f 59//4 58//4 55//10
f 57//8 60//8 61//7
f 59//5 57//5 62//5
f 58//3 63//3 60//3
f 58//4 59//4 63//1
f 64//7 61//7 60//8
f 57//5 61//5 62//5
f 62//1 63//1 59//4
f 60//3 63//3 64//3
f 61//7 64//7 65//9
f 62//5 61//5 66//5
f 63//1 62//1 67//2
f 63//3 67//3 64//3
f 68//9 65//9 64//7
f 61//5 65//5 66//5
f 66//2 67//2 62//1
f 64//3 67//3 68//3
f 65//9 68//9 69//11
f 66//5 65//5 70//5
f 67//2 66//2 71//6
f 67//3 71//3 68//3
f 72//11 69//11 68//9
f 69//5 70//5 65//5
f 70//6 71//6 66//2
f 72//3 68//3 71//3
f 69//11 72//11 70//6
f 71//6 70//6 72//11
