# SSTK version 0.8.0
# 2
mtllib original-2.mtl
o Group2/mesh1/mesh1-geometry#mesh1-geometry
v 0.143014 -0.282360 0.144116
v 0.143014 -0.272932 0.144116
v 0.143014 -0.277646 0.144737
v 0.143014 -0.286754 0.142296
v -0.114977 -0.277646 0.144737
v -0.114977 -0.282360 0.144116
v -0.114977 -0.286754 0.142296
v 0.143014 -0.268539 0.142296
v -0.114977 -0.272932 0.144116
v -0.114977 -0.290526 0.139402
v 0.143014 -0.264766 0.139402
v -0.114977 -0.268539 0.142296
v 0.143014 -0.290526 0.139402
v -0.114977 -0.264766 0.139402
v 0.143014 -0.293421 0.135629
v -0.114977 -0.261871 0.135629
v 0.143014 -0.261871 0.135629
v -0.114977 -0.293421 0.135629
v 0.143014 -0.295240 0.131236
v 0.143014 -0.260052 0.131236
v -0.114977 -0.260052 0.131236
v -0.114977 -0.295240 0.131236
v 0.143014 -0.295861 0.126522
v 0.143014 -0.259431 0.126522
v -0.114977 -0.259431 0.126522
v -0.114977 -0.295861 0.126522
v 0.143014 -0.295830 0.003211
v -0.114977 -0.259400 0.003211
v -0.114977 -0.295830 0.003211
v 0.143014 -0.259400 0.003211
v 0.143014 -0.294982 -0.001292
v -0.114977 -0.260247 -0.001292
v -0.114977 -0.294982 -0.001292
v 0.143014 -0.260247 -0.001292
v 0.143014 -0.293040 -0.005443
v -0.114977 -0.262189 -0.005443
v -0.114977 -0.293040 -0.005443
v 0.143014 -0.262189 -0.005443
v 0.143014 -0.290125 -0.008978
v -0.114977 -0.265105 -0.008978
v -0.114977 -0.290125 -0.008978
v 0.143014 -0.265105 -0.008978
v -0.114977 -0.286420 -0.011676
v 0.143014 -0.286420 -0.011676
v 0.143014 -0.268809 -0.011676
v -0.114977 -0.268809 -0.011676
v -0.114977 -0.282161 -0.013366
v -0.114977 -0.273068 -0.013366
v 0.143014 -0.282161 -0.013366
v 0.143014 -0.273068 -0.013366
v -0.114977 -0.277615 -0.013941
v 0.143014 -0.277615 -0.013941
vn 1 0 0
vn -1 0 0
vn 0 0.2588189595935752 0.9659258492011171
vn 0 0 1
vn 0 0 -1
vn 0 -0.2588189595935752 -0.9659258492011171
vn 0 -0.2588189595935757 0.9659258492011171
vn 0 0.2588189595935757 -0.9659258492011171
vn 0 -0.500000174843842 0.8660253028382761
vn 0 0.500000174843842 -0.8660253028382761
vn 0 -0.7071067811865478 0.7071067811865476
vn 0 0.7071067811865478 -0.7071067811865476
vn 0 0.5000001748438415 0.8660253028382763
vn 0 -0.5000001748438415 -0.8660253028382763
vn 0 0.7071067811865476 0.7071067811865478
vn 0 -0.7071067811865476 -0.7071067811865478
vn 0 -0.8660253028382763 0.5000001748438415
vn 0 0.8660253028382763 -0.5000001748438415
vn 0 0.8660253028382761 0.500000174843842
vn 0 -0.8660253028382761 -0.500000174843842
vn 0 -0.9659258492011171 0.2588189595935752
vn 0 0.9659258492011171 -0.2588189595935752
vn 0 0.9659258492011171 0.2588189595935757
vn 0 -0.9659258492011171 -0.2588189595935757
vn 0 -0.9978672465405962 0.06527601612758388
vn 0 0.9978672465405962 -0.06527601612758388
vn 0 0.9978506013083729 0.06552997381747165
vn 0 -0.9978506013083729 -0.06552997381747165
vn 0 -0.9956696603054486 -0.09296196828398498
vn 0 0.9956696603054486 0.09296196828398498
vn 0 0.9956933367868561 -0.09270803135789407
vn 0 -0.9956933367868561 0.09270803135789407
vn 0 -0.95177274399934 -0.30680391747819463
vn 0 0.95177274399934 0.30680391747819463
vn 0 0.9517727439993402 -0.3068039174781942
vn 0 -0.9517727439993402 0.3068039174781942
vn 0 -0.8453232623232915 -0.5342551657916919
vn 0 0.8453232623232915 0.5342551657916919
vn 0 0.8453232623232917 -0.5342551657916914
vn 0 -0.8453232623232917 0.5342551657916914
vn 0 -0.6855636824932511 -0.7280126628337535
vn 0 0.6855636824932511 0.7280126628337535
vn 0 0.6855636824932515 -0.7280126628337535
vn 0 -0.6855636824932515 0.7280126628337535
vn 0 -0.48256898168047513 -0.8758579667502426
vn 0 0.48256898168047513 0.8758579667502426
vn 0 0.4825689816804756 -0.8758579667502424
vn 0 -0.4825689816804756 0.8758579667502424
vn 0 -0.2491401158889219 -0.9684674504880659
vn 0 0.2491401158889219 0.9684674504880659
vn 0 0.24914011588892235 -0.9684674504880659
vn 0 -0.24914011588892235 0.9684674504880659
usemtl material_0_0
f 1//1 2//1 3//1
f 2//1 1//1 4//1
f 3//2 2//2 1//2
f 4//2 1//2 2//2
f 2//3 5//4 3//4
f 3//5 5//5 2//6
f 3//4 6//7 1//7
f 1//8 6//8 3//5
f 1//7 7//9 4//9
f 4//10 7//10 1//8
f 2//1 4//1 8//1
f 8//2 4//2 2//2
f 5//4 2//3 9//3
f 9//6 2//6 5//5
f 6//7 3//4 5//4
f 5//5 3//5 6//8
f 7//9 1//7 6//7
f 6//8 1//8 7//10
f 10//11 4//9 7//9
f 7//10 4//10 10//12
f 8//1 4//1 11//1
f 11//2 4//2 8//2
f 8//13 9//3 2//3
f 2//6 9//6 8//14
f 9//2 6//2 5//2
f 5//1 6//1 9//1
f 6//2 12//2 7//2
f 7//1 12//1 6//1
f 4//9 10//11 13//11
f 13//12 10//12 4//10
f 7//2 14//2 10//2
f 10//1 14//1 7//1
f 11//1 4//1 13//1
f 13//2 4//2 11//2
f 11//15 12//13 8//13
f 8//14 12//14 11//16
f 9//3 8//13 12//13
f 12//14 8//14 9//6
f 6//2 9//2 12//2
f 12//1 9//1 6//1
f 7//2 12//2 14//2
f 14//1 12//1 7//1
f 10//11 15//17 13//11
f 13//12 15//18 10//12
f 10//2 14//2 16//2
f 16//1 14//1 10//1
f 11//1 13//1 17//1
f 17//2 13//2 11//2
f 12//13 11//15 14//15
f 14//16 11//16 12//14
f 15//17 10//11 18//17
f 18//18 10//12 15//18
f 17//1 13//1 15//1
f 15//2 13//2 17//2
f 11//15 16//19 14//15
f 14//16 16//20 11//16
f 10//2 16//2 18//2
f 18//1 16//1 10//1
f 16//19 11//15 17//19
f 17//20 11//16 16//20
f 18//17 19//21 15//17
f 15//18 19//22 18//18
f 17//1 15//1 20//1
f 20//2 15//2 17//2
f 18//2 16//2 21//2
f 21//1 16//1 18//1
f 17//19 21//23 16//19
f 16//20 21//24 17//20
f 19//21 18//17 22//21
f 22//22 18//18 19//22
f 20//1 15//1 19//1
f 19//2 15//2 20//2
f 21//23 17//19 20//23
f 20//24 17//20 21//24
f 18//2 21//2 22//2
f 22//1 21//1 18//1
f 22//21 23//25 19//21
f 19//22 23//26 22//22
f 20//1 19//1 24//1
f 24//2 19//2 20//2
f 20//23 25//27 21//23
f 21//24 25//28 20//24
f 22//2 21//2 25//2
f 25//1 21//1 22//1
f 23//25 22//21 26//25
f 26//26 22//22 23//26
f 24//1 19//1 23//1
f 23//2 19//2 24//2
f 25//27 20//23 24//27
f 24//28 20//24 25//28
f 22//2 25//2 26//2
f 26//1 25//1 22//1
f 26//25 27//29 23//25
f 23//26 27//30 26//26
f 24//1 23//1 27//1
f 27//2 23//2 24//2
f 24//27 28//31 25//27
f 25//28 28//32 24//28
f 26//2 25//2 28//2
f 28//1 25//1 26//1
f 27//29 26//25 29//29
f 29//30 26//26 27//30
f 24//1 27//1 30//1
f 30//2 27//2 24//2
f 28//31 24//27 30//31
f 30//32 24//28 28//32
f 26//2 28//2 29//2
f 29//1 28//1 26//1
f 29//29 31//33 27//29
f 27//30 31//34 29//30
f 30//1 27//1 31//1
f 31//2 27//2 30//2
f 30//31 32//35 28//31
f 28//32 32//36 30//32
f 29//2 28//2 32//2
f 32//1 28//1 29//1
f 31//33 29//29 33//33
f 33//34 29//30 31//34
f 30//1 31//1 34//1
f 34//2 31//2 30//2
f 32//35 30//31 34//35
f 34//36 30//32 32//36
f 29//2 32//2 33//2
f 33//1 32//1 29//1
f 33//33 35//37 31//33
f 31//34 35//38 33//34
f 34//1 31//1 35//1
f 35//2 31//2 34//2
f 34//35 36//39 32//35
f 32//36 36//40 34//36
f 33//2 32//2 36//2
f 36//1 32//1 33//1
f 35//37 33//33 37//37
f 37//38 33//34 35//38
f 34//1 35//1 38//1
f 38//2 35//2 34//2
f 36//39 34//35 38//39
f 38//40 34//36 36//40
f 33//2 36//2 37//2
f 37//1 36//1 33//1
f 37//37 39//41 35//37
f 35//38 39//42 37//38
f 38//1 35//1 39//1
f 39//2 35//2 38//2
f 38//39 40//43 36//39
f 36//40 40//44 38//40
f 37//2 36//2 41//2
f 41//1 36//1 37//1
f 39//41 37//37 41//41
f 41//42 37//38 39//42
f 38//1 39//1 42//1
f 42//2 39//2 38//2
f 40//43 38//39 42//43
f 42//44 38//40 40//44
f 41//2 36//2 40//2
f 40//1 36//1 41//1
f 43//45 39//41 41//41
f 41//42 39//42 43//46
f 42//1 39//1 44//1
f 44//2 39//2 42//2
f 45//47 40//43 42//43
f 42//44 40//44 45//48
f 41//2 40//2 46//2
f 46//1 40//1 41//1
f 39//41 43//45 44//45
f 44//46 43//46 39//42
f 41//2 46//2 43//2
f 43//1 46//1 41//1
f 42//1 44//1 45//1
f 45//2 44//2 42//2
f 40//43 45//47 46//47
f 46//48 45//48 40//44
f 47//49 44//45 43//45
f 43//46 44//46 47//50
f 43//2 46//2 48//2
f 48//1 46//1 43//1
f 45//1 44//1 49//1
f 49//2 44//2 45//2
f 50//51 46//47 45//47
f 45//48 46//48 50//52
f 44//45 47//49 49//49
f 49//50 47//50 44//46
f 43//2 48//2 47//2
f 47//1 48//1 43//1
f 46//47 50//51 48//51
f 48//52 50//52 46//48
f 45//1 49//1 50//1
f 50//2 49//2 45//2
f 51//5 49//49 47//49
f 47//50 49//50 51//4
f 47//2 48//2 51//2
f 51//1 48//1 47//1
f 52//5 48//51 50//51
f 50//52 48//52 52//4
f 50//1 49//1 52//1
f 52//2 49//2 50//2
f 49//49 51//5 52//5
f 52//4 51//4 49//50
f 48//51 52//5 51//5
f 51//4 52//4 48//52
