# SSTK version 0.8.0
# 16
mtllib original-16.mtl
o mesh38/mesh38-geometry#mesh38-geometry
v -0.039886 0.383801 -0.440646
v -0.044677 0.380645 -0.443261
v -0.042150 0.376039 -0.444308
v -0.044677 0.384760 -0.440779
v -0.047203 0.376039 -0.444309
v -0.035814 0.381123 -0.440278
v -0.049466 0.383804 -0.440647
v -0.044677 0.385187 -0.437675
v -0.052804 0.375266 -0.442520
v -0.044677 0.376567 -0.440477
v -0.033110 0.377089 -0.439722
v -0.053543 0.381129 -0.440278
v -0.049730 0.371703 -0.443713
v -0.047203 0.377133 -0.436371
v -0.042150 0.377133 -0.436371
v -0.039623 0.371703 -0.443713
v -0.056256 0.377522 -0.436619
v -0.056256 0.377095 -0.439723
v -0.057210 0.372343 -0.439068
v -0.048467 0.374399 -0.440178
v -0.040887 0.374399 -0.440178
v -0.032143 0.372343 -0.439068
v -0.039886 0.384656 -0.434439
v -0.053543 0.381984 -0.434071
v -0.056256 0.367592 -0.438414
v -0.049730 0.372797 -0.435773
v -0.039623 0.372797 -0.435773
v -0.036163 0.369768 -0.441762
v -0.033110 0.377944 -0.433515
v -0.035814 0.381978 -0.434070
v -0.044677 0.385615 -0.434571
v -0.049466 0.384659 -0.434440
v -0.056256 0.377950 -0.433515
v -0.044677 0.360354 -0.434254
v -0.047203 0.367368 -0.443114
v -0.048467 0.370064 -0.439581
v -0.040887 0.370064 -0.439581
v -0.042150 0.367368 -0.443114
v -0.033110 0.367597 -0.438414
v -0.032143 0.373198 -0.432861
v -0.057210 0.373198 -0.432861
v -0.053543 0.364413 -0.431651
v -0.053543 0.363557 -0.437858
v -0.047203 0.368461 -0.435176
v -0.042150 0.368461 -0.435176
v -0.044677 0.363217 -0.440860
v -0.035814 0.363563 -0.437859
v -0.056256 0.368447 -0.432206
v -0.049466 0.361737 -0.431282
v -0.049466 0.360882 -0.437489
v -0.044677 0.360782 -0.431150
v -0.044677 0.359927 -0.437358
v -0.044677 0.367896 -0.439282
v -0.039886 0.360886 -0.437490
v -0.039886 0.361741 -0.431283
v -0.033110 0.368452 -0.432207
v -0.035814 0.364418 -0.431651
vn -0.33898510188114017 -0.7327582202286844 0.59004617733693
vn 0.09437602641085156 -0.38178710684199163 0.9194192572967568
vn -0.29082987720118186 -0.24469389668144984 0.9249556094505257
vn -0.0003119999825117775 -0.8335539532776353 0.5524379690347476
vn 0.21766207962940093 -0.2212590809453266 0.9506143477723412
vn -0.3676588234094653 -0.2516298791394304 0.8952705699918004
vn 0.405568013668859 -0.8711710293610778 0.2767230093263956
vn 0.012968005303681831 -0.9967564076555125 0.07942603248382404
vn 0.4479179331513889 -0.14065897900763377 0.8829408682272658
vn 0.4999991653652513 0.8579242837422032 -0.1181810390861395
vn -0.5000011534178775 0.8579232632409249 -0.1181800362617768
vn -0.0000010000001668025418 0.990645165242104 -0.13646302276237504
vn -0.6851922804256186 -0.415467170036414 0.5982462448415986
vn -0.4680160099366821 -0.612841013011534 -0.6367000135180967
vn 0.6054311366076808 -0.5513421244031971 0.5739991295154561
vn 0.45875601565826063 0.18202600621291157 0.8697180296852164
vn -0.4999999153657715 0.8579238547805282 -0.11818097999568428
vn 0.4999999153657715 0.8579238547805282 -0.11818097999568428
vn -0.4616987615374991 0.029486984770285714 0.886546542108138
vn -0.4208351696923476 -0.3946161591201192 -0.8168083293596471
vn 0.8417331484005132 -0.5398900951845218 0.0019980003522543665
vn 0.8328147381705827 -0.28194891135781386 0.4763658502348874
vn 0.8595432451701334 0.21290906072869864 0.46460213251987903
vn -1 0 0
vn -0.866025832977841 0.49532190447197905 -0.06823098684093892
vn 0.866025094925882 0.4953230542928583 -0.06823200747897887
vn 1 -9.99999999999e-7 9.999999999989996e-7
vn -0.8831097799661608 -0.005853998541429717 0.46912988311255116
vn -0.39674409854231957 -0.8453222099590434 0.3578050888707443
vn 0.6242959923161648 -0.6395899921279264 0.44852999447949266
vn 0.46656624295486965 0.3303921720449952 0.8204614272385802
vn 1 0 0
vn -0.4638982378035756 0.34872017876098366 0.81436641746062
vn -0.946855885921863 -0.3186489616088568 0.043894994711487396
vn -0.7021886176211858 -0.6692556355549351 0.24295686769714472
vn -0.00034299999022964543 -0.9906449717814785 0.13646399611282292
vn 0.35511586653736166 -0.851034680156973 0.38682385462059815
vn 0.924130296872747 -0.37850312159244404 0.05214001674974835
vn 0.29734496548211703 -0.0714499917055851 -0.9520928894743992
vn 0.043013981234445046 0.6930306976539892 -0.7196236860523616
vn 0.3623349896774386 0.044667998727453605 -0.9309769734773974
vn 0.2903860732545424 0.4857141225291742 0.824474207986837
vn -0.866025094925882 -0.4953230542928583 0.06823200747897887
vn 0.8660250358348178 -0.4953230204957241 0.06823300282337925
vn -0.24912111904292888 0.48133423000633857 0.84039040158191
vn -0.858755530152221 0.39802078223234205 0.3226738234566488
vn -0.9109720540315761 0.28936401716275917 -0.2939360174339335
vn 0.9978090359480666 -0.06554100236124573 0.009028000325251757
vn -0.04373298892827366 0.8617117818434716 0.5055098720218514
vn 0.5979001459952755 0.7016421713270062 0.38757409463785414
vn 0.46767179061917713 0.41869681254571084 -0.7784446514834015
vn 0.3670348417173597 0.48463779100145143 0.7939846575965723
vn -0.4999999153657715 -0.8579238547805282 0.11818097999568428
vn 0.4999999153657715 -0.8579238547805282 0.11818097999568428
vn 0.5000002852369941 -0.8579234894227554 0.11818206741975669
vn -0.10666401257478118 0.6141650724048457 0.7819360921836245
vn -0.36454196755649537 0.4973459557372064 0.7872459299366898
vn 0.9156847830436251 0.39062890744693674 0.09450097760955536
vn 0.3551160928909246 0.9239252416794723 0.1423190372276765
vn 0.33835886867533554 0.8651996641966084 0.3700578563722477
vn -0.5989309309774067 0.5706429342374003 -0.5618259352534974
vn -0.00033899999080598135 0.990644973132718 -0.13646399629895978
vn -0.00030799985526766804 0.951873552704728 0.30649085597676273
vn 0 -0.9906450300556753 0.1364640041402495
vn -0.3437339736521044 0.9101719302335037 0.23115798228127918
vn -0.35578992083141453 0.9236227944800967 0.14259896826959428
vn -0.2983388885928213 0.18965992917625396 0.9354266506883682
vn -0.36282602799456887 0.2947690227434941 0.884007068207336
vn -0.4680160099366821 0.612841013011534 0.6367000135180967
vn 0.29082987720118186 0.24469389668144984 -0.9249556094505257
vn -0.09437602641085156 0.38178710684199163 -0.9194192572967568
vn 0.33898510188114017 0.7327582202286844 -0.59004617733693
vn 0.0003119999825117775 0.8335539532776353 -0.5524379690347476
vn -0.21766207962940093 0.2212590809453266 -0.9506143477723412
vn 0.3676588234094653 0.2516298791394304 -0.8952705699918004
vn -0.405568013668859 0.8711710293610778 -0.2767230093263956
vn -0.012968005303681831 0.9967564076555125 -0.07942603248382404
vn -0.4479179331513889 0.14065897900763377 -0.8829408682272658
vn 0.0000010000001668025418 -0.990645165242104 0.13646302276237504
vn 0.5000011534178775 -0.8579232632409249 0.1181800362617768
vn -0.4999991653652513 -0.8579242837422032 0.1181810390861395
vn 0.6851922804256186 0.415467170036414 -0.5982462448415986
vn 0.4680160099366821 0.612841013011534 0.6367000135180967
vn -0.6054311366076808 0.5513421244031971 -0.5739991295154561
vn -0.45875601565826063 -0.18202600621291157 -0.8697180296852164
vn 0.4616987615374991 -0.029486984770285714 -0.886546542108138
vn 0.4208351696923476 0.3946161591201192 0.8168083293596471
vn -0.8417331484005132 0.5398900951845218 -0.0019980003522543665
vn -0.8328147381705827 0.28194891135781386 -0.4763658502348874
vn -0.8595432451701334 -0.21290906072869864 -0.46460213251987903
vn 0.866025832977841 -0.49532190447197905 0.06823098684093892
vn -1 9.99999999999e-7 -9.999999999989996e-7
vn 0.8831097799661608 0.005853998541429717 -0.46912988311255116
vn 0.39674409854231957 0.8453222099590434 -0.3578050888707443
vn -0.6242959923161648 0.6395899921279264 -0.44852999447949266
vn -0.46656624295486965 -0.3303921720449952 -0.8204614272385802
vn 0.4638982378035756 -0.34872017876098366 -0.81436641746062
vn 0.946855885921863 0.3186489616088568 -0.043894994711487396
vn 0.7021886176211858 0.6692556355549351 -0.24295686769714472
vn 0.00034299999022964543 0.9906449717814785 -0.13646399611282292
vn -0.35511586653736166 0.851034680156973 -0.38682385462059815
vn -0.924130296872747 0.37850312159244404 -0.05214001674974835
vn -0.3623349896774386 -0.044667998727453605 0.9309769734773974
vn -0.043013981234445046 -0.6930306976539892 0.7196236860523616
vn -0.29734496548211703 0.0714499917055851 0.9520928894743992
vn -0.2903860732545424 -0.4857141225291742 -0.824474207986837
vn -0.8660250358348178 0.4953230204957241 -0.06823300282337925
vn 0.24912111904292888 -0.48133423000633857 -0.84039040158191
vn 0.858755530152221 -0.39802078223234205 -0.3226738234566488
vn 0.9109720540315761 -0.28936401716275917 0.2939360174339335
vn -0.9978090359480666 0.06554100236124573 -0.009028000325251757
vn -0.5979001459952755 -0.7016421713270062 -0.38757409463785414
vn 0.04373298892827366 -0.8617117818434716 -0.5055098720218514
vn -0.46767179061917713 -0.41869681254571084 0.7784446514834015
vn -0.3670348417173597 -0.48463779100145143 -0.7939846575965723
vn -0.5000002852369941 0.8579234894227554 -0.11818206741975669
vn 0.10666401257478118 -0.6141650724048457 -0.7819360921836245
vn 0.36454196755649537 -0.4973459557372064 -0.7872459299366898
vn -0.9156847830436251 -0.39062890744693674 -0.09450097760955536
vn -0.3551160928909246 -0.9239252416794723 -0.1423190372276765
vn -0.33835886867533554 -0.8651996641966084 -0.3700578563722477
vn 0.5989309309774067 -0.5706429342374003 0.5618259352534974
vn 0.00033899999080598135 -0.990644973132718 0.13646399629895978
vn 0.00030799985526766804 -0.951873552704728 -0.30649085597676273
vn 0 0.9906450300556753 -0.1364640041402495
vn 0.3437339736521044 -0.9101719302335037 -0.23115798228127918
vn 0.35578992083141453 -0.9236227944800967 -0.14259896826959428
vn 0.36282602799456887 -0.2947690227434941 -0.884007068207336
vn 0.2983388885928213 -0.18965992917625396 -0.9354266506883682
vn 0.4680160099366821 -0.612841013011534 -0.6367000135180967
usemtl material_0_0
f 1//1 2//2 3//3
f 4//4 2//2 1//1
f 2//2 5//5 3//3
f 1//1 3//3 6//6
f 4//4 7//7 2//2
f 1//1 8//8 4//4
f 2//2 9//9 5//5
f 3//10 5//11 10//12
f 6//6 3//3 11//13
f 6//14 8//8 1//1
f 4//4 8//8 7//7
f 7//7 12//15 2//2
f 12//15 9//9 2//2
f 5//5 9//9 13//16
f 10//12 5//11 14//17
f 15//18 3//10 10//12
f 11//13 3//3 16//19
f 8//8 6//14 11//20
f 8//8 17//21 7//7
f 7//7 17//21 12//15
f 12//15 18//22 9//9
f 9//9 19//23 13//16
f 5//11 13//24 20//25
f 5//11 20//25 14//17
f 15//18 10//12 14//17
f 3//10 15//18 21//26
f 3//10 21//26 16//27
f 11//13 16//19 22//28
f 11//13 23//29 8//8
f 8//8 24//30 17//21
f 12//15 17//21 18//22
f 18//22 19//23 9//9
f 19//23 25//31 13//16
f 13//24 26//24 20//25
f 20//25 26//24 14//17
f 21//26 15//18 27//32
f 16//27 21//26 27//32
f 22//28 16//19 28//33
f 11//13 22//28 29//34
f 11//13 30//35 23//29
f 23//29 31//36 8//8
f 8//8 32//37 24//30
f 17//21 24//30 33//38
f 18//22 17//21 19//23
f 19//39 34//40 25//41
f 13//16 25//31 35//42
f 13//24 36//43 26//24
f 16//27 27//32 37//44
f 16//19 38//45 28//33
f 22//28 28//33 39//46
f 22//28 40//47 29//34
f 11//13 29//34 30//35
f 8//8 31//36 32//37
f 17//21 33//38 41//48
f 19//23 17//21 41//48
f 34//49 19//23 42//50
f 25//41 34//40 43//51
f 25//31 43//52 35//42
f 13//24 35//53 36//43
f 36//43 44//53 26//24
f 37//44 27//32 45//54
f 16//27 37//44 38//55
f 28//33 38//45 46//56
f 28//33 47//57 39//46
f 22//28 39//46 40//47
f 19//23 41//48 48//58
f 19//23 48//58 42//50
f 34//49 42//50 49//59
f 34//40 50//60 43//51
f 35//42 43//52 50//60
f 35//53 44//53 36//43
f 38//55 37//44 45//54
f 38//45 35//42 46//56
f 28//33 46//56 47//57
f 39//46 47//61 40//47
f 51//62 34//49 49//59
f 34//40 52//63 50//60
f 35//42 50//60 46//56
f 53//64 44//53 35//53
f 38//55 45//54 53//64
f 38//55 53//64 35//53
f 47//57 46//56 54//65
f 40//47 47//61 34//40
f 55//66 34//49 51//62
f 54//65 52//63 34//40
f 46//56 50//60 52//63
f 45//54 44//53 53//64
f 54//65 46//56 52//63
f 47//61 54//65 34//40
f 40//67 34//49 56//68
f 57//69 34//49 55//66
f 56//68 34//49 57//69
usemtl material_1_0
f 3//70 2//71 1//72
f 1//72 2//71 4//73
f 3//70 5//74 2//71
f 6//75 3//70 1//72
f 2//71 7//76 4//73
f 4//73 8//77 1//72
f 5//74 9//78 2//71
f 10//79 5//80 3//81
f 11//82 3//70 6//75
f 1//72 8//77 6//83
f 7//76 8//77 4//73
f 2//71 12//84 7//76
f 2//71 9//78 12//84
f 13//85 9//78 5//74
f 14//54 5//80 10//79
f 10//79 3//81 15//53
f 16//86 3//70 11//82
f 11//87 6//83 8//77
f 7//76 17//88 8//77
f 12//84 17//88 7//76
f 9//78 18//89 12//84
f 13//85 19//90 9//78
f 20//91 13//32 5//80
f 14//54 20//91 5//80
f 14//54 10//79 15//53
f 21//43 15//53 3//81
f 16//92 21//43 3//81
f 22//93 16//86 11//82
f 8//77 23//94 11//82
f 17//88 24//95 8//77
f 18//89 17//88 12//84
f 9//78 19//90 18//89
f 13//85 25//96 19//90
f 20//91 26//32 13//32
f 14//54 26//32 20//91
f 27//24 15//53 21//43
f 27//24 21//43 16//92
f 28//97 16//86 22//93
f 29//98 22//93 11//82
f 23//94 30//99 11//82
f 8//77 31//100 23//94
f 24//95 32//101 8//77
f 33//102 24//95 17//88
f 19//90 17//88 18//89
f 25//103 34//104 19//105
f 35//106 25//96 13//85
f 26//32 36//26 13//32
f 37//107 27//24 16//92
f 28//97 38//108 16//86
f 39//109 28//97 22//93
f 29//98 40//110 22//93
f 30//99 29//98 11//82
f 32//101 31//100 8//77
f 41//111 33//102 17//88
f 41//111 17//88 19//90
f 42//112 19//90 34//113
f 43//114 34//104 25//103
f 35//106 43//115 25//96
f 36//26 35//18 13//32
f 26//32 44//18 36//26
f 45//17 27//24 37//107
f 38//116 37//107 16//92
f 46//117 38//108 28//97
f 39//109 47//118 28//97
f 40//110 39//109 22//93
f 48//119 41//111 19//90
f 42//112 48//119 19//90
f 49//120 42//112 34//113
f 43//114 50//121 34//104
f 50//121 43//115 35//106
f 36//26 44//18 35//18
f 45//17 37//107 38//116
f 46//117 35//106 38//108
f 47//118 46//117 28//97
f 40//110 47//122 39//109
f 49//120 34//113 51//123
f 50//121 52//124 34//104
f 46//117 50//121 35//106
f 35//18 44//18 53//125
f 53//125 45//17 38//116
f 35//18 53//125 38//116
f 54//126 46//117 47//118
f 34//104 47//122 40//110
f 51//123 34//113 55//127
f 34//104 52//124 54//126
f 52//124 50//121 46//117
f 53//125 44//18 45//17
f 52//124 46//117 54//126
f 34//104 54//126 47//122
f 56//128 34//113 40//129
f 55//127 34//113 57//130
f 57//130 34//113 56//128
