mtllib new-12.mtl
v 0.523890 0.295969 0.310341
v 0.456139 0.295969 0.310341
v 0.523890 0.295969 -0.146498
v 0.456139 0.286440 0.337716
v 0.456139 0.295969 -0.146498
v 0.551266 0.286440 0.310341
v 0.523890 0.286440 0.337716
v 0.436781 0.286440 0.329698
v 0.428763 0.286440 -0.146498
v 0.523890 0.286440 -0.173873
v 0.543248 0.286440 0.329698
v 0.551266 0.286440 -0.146498
v 0.456139 0.263435 0.349056
v 0.428763 0.263435 0.337716
v 0.428763 0.286440 0.310341
v 0.436781 0.286440 -0.165855
v 0.456139 0.286440 -0.173873
v 0.543248 0.286440 -0.165855
v 0.551266 0.263435 0.337716
v 0.562606 0.263435 0.310341
v 0.523890 0.263435 0.349056
v 0.417424 0.263435 0.310341
v 0.417424 0.263435 -0.146498
v 0.428763 0.263435 -0.173873
v 0.523890 0.263435 -0.185213
v 0.551266 0.263435 -0.173873
v 0.562605 0.263435 -0.146498
v 0.456139 0.235782 0.349056
v 0.428763 0.235782 0.337716
v 0.417424 0.235782 0.310341
v 0.456139 0.263435 -0.185213
v 0.551266 0.235782 0.337716
v 0.523890 0.235782 0.349056
v 0.562606 0.235782 0.310341
v 0.417424 0.235782 -0.146498
v 0.428763 0.235782 -0.173873
v 0.456139 0.235782 -0.185213
v 0.523890 0.235782 -0.185213
v 0.551266 0.235782 -0.173873
v 0.562606 0.235782 -0.146498
v 0.456139 0.212777 0.337716
v 0.436781 0.212777 0.329698
v 0.428763 0.212777 0.310341
v 0.428763 0.212777 -0.146498
v 0.543248 0.212777 0.329698
v 0.523890 0.212777 0.337716
v 0.551266 0.212777 0.310341
v 0.436781 0.212777 -0.165855
v 0.456139 0.212777 -0.173873
v 0.523890 0.212777 -0.173873
v 0.543248 0.212777 -0.165855
v 0.551266 0.212777 -0.146498
v 0.456139 0.203248 0.310341
v 0.456139 0.203248 -0.146498
v 0.523890 0.203248 0.310341
v 0.523890 0.203248 -0.146498
v 0.483059 0.203232 0.246702
v 0.475181 0.203232 0.194129
v 0.512384 0.203240 0.232755
v 0.475180 0.203232 0.232616
v 0.493821 0.203232 0.251859
v 0.483059 0.203232 0.180042
v 0.472297 0.203232 0.213372
v 0.504584 0.203232 0.180042
v 0.504584 0.203232 0.246702
v 0.493821 0.191296 0.227670
v 0.493821 0.203232 0.174886
v 0.486897 0.191296 0.206224
v 0.512462 0.203232 0.232616
v 0.497820 0.191296 0.225754
v 0.489823 0.191296 0.200991
v 0.493821 0.191296 0.199075
v 0.497820 0.191296 0.200991
v 0.512462 0.203232 0.194129
vn -0.134553 -0.972406 -0.190584
vn 0.161441 -0.973587 -0.161444
vn -0.166700 -0.986008 0.000000
vn 0.166700 0.986008 0.000000
vn -0.161441 0.973587 0.161444
vn 0.134553 0.972406 0.190584
vn 0.173739 -0.825077 -0.537645
vn -0.173739 0.825077 0.537645
vn -0.161444 -0.973587 0.161442
vn 0.166698 -0.986008 0.000000
vn 0.134552 -0.972405 0.190588
vn -0.134552 0.972405 -0.190588
vn -0.166698 0.986008 0.000000
vn 0.161444 0.973587 -0.161442
vn -0.537646 -0.825077 -0.173735
vn 0.537646 0.825077 0.173735
vn -0.105048 -0.691106 -0.715079
vn 0.126040 -0.651779 -0.747862
vn -0.126040 0.651779 0.747862
vn 0.105048 0.691106 0.715079
vn 0.558332 -0.698309 -0.447918
vn -0.558332 0.698309 0.447918
vn 0.537642 -0.825079 0.173743
vn -0.537642 0.825079 -0.173743
vn -0.173742 -0.825078 0.537643
vn 0.173742 0.825078 -0.537643
vn -0.447918 -0.698310 -0.558330
vn 0.447918 0.698310 0.558330
vn -0.747862 -0.651779 -0.126039
vn -0.715079 -0.691105 0.105048
vn 0.715079 0.691105 -0.105048
vn 0.747862 0.651779 0.126039
vn 0.252922 -0.296386 -0.920970
vn -0.252922 0.296386 0.920970
vn 0.765340 -0.300235 -0.569310
vn -0.765340 0.300235 0.569310
vn 0.715079 -0.691105 -0.105050
vn -0.715079 0.691105 0.105050
vn 0.747863 -0.651778 0.126040
vn -0.747863 0.651778 -0.126040
vn 0.447914 -0.698308 0.558335
vn -0.447914 0.698308 -0.558335
vn -0.126039 -0.651777 0.747865
vn 0.105049 -0.691104 0.715080
vn -0.105049 0.691104 -0.715080
vn 0.126039 0.651777 -0.747865
vn -0.558334 -0.698308 0.447916
vn 0.558334 0.698308 -0.447916
vn -0.569311 -0.300235 -0.765339
vn 0.569311 0.300235 0.765339
vn -0.920969 -0.296388 -0.252922
vn 0.920969 0.296388 0.252922
vn -0.120523 -0.296420 -0.947422
vn 0.132839 -0.153471 -0.979184
vn -0.132839 0.153471 0.979184
vn 0.120523 0.296420 0.947422
vn 0.603399 -0.151118 -0.782990
vn -0.603399 0.151118 0.782990
vn 0.956785 -0.143429 -0.252963
vn -0.956785 0.143429 0.252963
vn 0.947423 -0.296420 -0.120523
vn -0.947423 0.296420 0.120523
vn 0.920970 -0.296385 0.252923
vn -0.920970 0.296385 -0.252923
vn 0.569310 -0.300234 0.765341
vn -0.569310 0.300234 -0.765341
vn -0.252922 -0.296385 0.920970
vn 0.252922 0.296385 -0.920970
vn -0.765339 -0.300233 0.569311
vn 0.765339 0.300233 -0.569311
vn -0.782989 -0.151119 -0.603399
vn 0.782989 0.151119 0.603399
vn -0.252963 -0.143429 -0.956785
vn 0.252963 0.143429 0.956785
vn -0.947422 -0.296422 0.120522
vn 0.947422 0.296422 -0.120522
vn -0.979183 -0.153472 -0.132839
vn 0.979183 0.153472 0.132839
vn 0.252964 0.143428 -0.956785
vn -0.252964 -0.143428 0.956785
vn 0.782991 0.151117 -0.603398
vn -0.782991 -0.151117 0.603398
vn 0.979184 0.153471 -0.132838
vn -0.979184 -0.153471 0.132838
vn 0.979183 -0.153471 0.132840
vn -0.979183 0.153471 -0.132840
vn 0.782989 -0.151117 0.603400
vn -0.782989 0.151117 -0.603400
vn 0.252964 -0.143428 0.956785
vn -0.252964 0.143428 -0.956785
vn 0.120522 -0.296422 0.947422
vn -0.120522 0.296422 -0.947422
vn -0.132839 -0.153472 0.979183
vn 0.132839 0.153472 -0.979183
vn -0.603399 -0.151117 0.782990
vn 0.603399 0.151117 -0.782990
vn -0.956785 -0.143429 0.252965
vn 0.956785 0.143429 -0.252965
vn -0.603399 0.151117 -0.782990
vn 0.603399 -0.151117 0.782990
vn -0.132839 0.153471 -0.979184
vn 0.132839 -0.153471 0.979184
vn -0.956785 0.143428 -0.252965
vn 0.956785 -0.143428 0.252965
vn 0.120521 0.296421 -0.947422
vn -0.120521 -0.296421 0.947422
vn 0.569310 0.300235 -0.765340
vn -0.569310 -0.300235 0.765340
vn 0.920971 0.296384 -0.252920
vn -0.920971 -0.296384 0.252920
vn 0.947423 0.296420 0.120522
vn -0.947423 -0.296420 -0.120522
vn 0.956785 0.143428 0.252965
vn -0.956785 -0.143428 -0.252965
vn 0.603399 0.151117 0.782990
vn -0.603399 -0.151117 -0.782990
vn 0.132839 0.153470 0.979184
vn -0.132839 -0.153470 -0.979184
vn -0.252963 0.143427 0.956785
vn 0.252963 -0.143427 -0.956785
vn -0.782988 0.151118 0.603401
vn 0.782988 -0.151118 -0.603401
vn -0.979184 0.153471 0.132839
vn 0.979184 -0.153471 -0.132839
vn -0.765339 0.300233 -0.569312
vn 0.765339 -0.300233 0.569312
vn -0.252922 0.296384 -0.920971
vn 0.252922 -0.296384 0.920971
vn -0.947422 0.296422 -0.120522
vn 0.947422 -0.296422 0.120522
vn 0.105047 0.691105 -0.715080
vn -0.105047 -0.691105 0.715080
vn 0.447915 0.698310 -0.558333
vn -0.447915 -0.698310 0.558333
vn 0.747864 0.651777 -0.126038
vn -0.747864 -0.651777 0.126038
vn 0.715080 0.691104 0.105048
vn -0.715080 -0.691104 -0.105048
vn 0.765340 0.300233 0.569311
vn -0.765340 -0.300233 -0.569311
vn 0.252922 0.296386 0.920970
vn -0.252922 -0.296386 -0.920970
vn -0.120522 0.296418 0.947423
vn 0.120522 -0.296418 -0.947423
vn -0.569309 0.300233 0.765341
vn 0.569309 -0.300233 -0.765341
vn -0.920969 0.296387 0.252924
vn 0.920969 -0.296387 -0.252924
vn -0.558333 0.698309 -0.447916
vn 0.558333 -0.698309 0.447916
vn -0.126039 0.651777 -0.747864
vn 0.126039 -0.651777 0.747864
vn -0.715079 0.691106 -0.105048
vn 0.715079 -0.691106 0.105048
vn 0.537644 0.825078 -0.173739
vn -0.537644 -0.825078 0.173739
vn 0.558333 0.698309 0.447916
vn -0.558333 -0.698309 -0.447916
vn 0.126040 0.651778 0.747863
vn -0.126040 -0.651778 -0.747863
vn -0.105048 0.691104 0.715080
vn 0.105048 -0.691104 -0.715080
vn -0.447915 0.698309 0.558333
vn 0.447915 -0.698309 -0.558333
vn -0.747862 0.651779 0.126040
vn 0.747862 -0.651779 -0.126040
vn -0.173739 0.825078 -0.537644
vn 0.173739 -0.825078 0.537644
vn 0.134555 0.972406 -0.190584
vn -0.134555 -0.972406 0.190584
vn 0.161434 0.973588 0.161446
vn -0.161434 -0.973588 -0.161446
vn 0.173739 0.825077 0.537645
vn -0.173739 -0.825077 -0.537645
vn -0.537644 0.825078 0.173738
vn 0.537644 -0.825078 -0.173738
vn -0.161439 0.973588 -0.161440
vn 0.161439 -0.973588 0.161440
vn 0.166706 0.986007 0.000005
vn -0.166706 -0.986007 -0.000005
vn -0.134559 0.972404 0.190587
vn 0.134559 -0.972404 -0.190587
vn -0.166720 0.986004 0.000008
vn 0.166720 -0.986004 -0.000008
vn 0.000014 1.000000 0.000011
vn -0.000014 -1.000000 -0.000011
vn -0.000042 1.000000 0.000017
vn 0.000042 -1.000000 -0.000017
vn -0.207392 -0.877268 0.432884
vn -0.519174 -0.803832 -0.290367
vn 0.519412 -0.803710 0.290277
vn 0.207392 -0.877269 0.432883
vn -0.207392 -0.877269 -0.432884
vn -0.519172 -0.803833 -0.290368
vn 0.207392 -0.877270 -0.432882
vn -0.207381 -0.877272 -0.432883
vn 0.207386 -0.877269 -0.432885
vn 0.519173 -0.803833 -0.290365
vn 0.207392 0.877268 -0.432884
vn 0.519174 0.803832 0.290367
vn -0.519412 0.803710 -0.290277
vn -0.207392 0.877269 -0.432883
vn 0.207392 0.877269 0.432884
vn 0.519172 0.803833 0.290368
vn -0.207392 0.877270 0.432882
vn 0.207381 0.877272 0.432883
vn -0.207386 0.877269 0.432885
vn -0.519173 0.803833 0.290365
usemtl material-0
f 1//1 2//2 3//3
f 3//4 2//5 1//6
f 1//1 4//7 2//2
f 2//5 4//8 1//6
f 3//9 2//10 5//11
f 5//12 2//13 3//14
f 6//15 1//1 3//3
f 3//4 1//6 6//16
f 7//17 4//18 1//1
f 1//6 4//19 7//20
f 4//7 8//21 2//2
f 2//5 8//22 4//8
f 5//11 2//10 9//23
f 9//24 2//13 5//12
f 3//9 5//11 10//25
f 10//26 5//12 3//14
f 6//15 11//27 1//1
f 1//6 11//28 6//16
f 6//29 3//9 12//30
f 12//31 3//14 6//32
f 7//17 13//33 4//18
f 4//19 13//34 7//20
f 11//27 7//17 1//1
f 1//6 7//20 11//28
f 4//7 14//35 8//21
f 8//22 14//36 4//8
f 2//2 8//21 15//37
f 15//38 8//22 2//5
f 2//2 15//37 9//39
f 9//40 15//38 2//5
f 5//11 9//23 16//41
f 16//42 9//24 5//12
f 10//43 5//11 17//44
f 17//45 5//12 10//46
f 18//47 3//9 10//25
f 10//26 3//14 18//48
f 6//15 19//49 11//27
f 11//28 19//50 6//16
f 12//30 3//9 18//47
f 18//48 3//14 12//31
f 12//30 20//51 6//29
f 6//32 20//52 12//31
f 7//17 21//53 13//54
f 13//55 21//56 7//20
f 4//18 13//33 14//57
f 14//58 13//34 4//19
f 7//17 11//27 21//53
f 21//56 11//28 7//20
f 22//59 8//21 14//35
f 14//36 8//22 22//60
f 15//37 8//21 22//61
f 22//62 8//22 15//38
f 9//39 15//37 23//63
f 23//64 15//38 9//40
f 24//65 16//41 9//23
f 9//24 16//42 24//66
f 5//11 16//41 17//44
f 17//45 16//42 5//12
f 10//43 17//44 25//67
f 25//68 17//45 10//46
f 10//25 26//69 18//47
f 18//48 26//70 10//26
f 20//51 19//71 6//29
f 6//32 19//72 20//52
f 11//27 19//49 21//73
f 21//74 19//50 11//28
f 18//47 27//75 12//30
f 12//31 27//76 18//48
f 27//75 20//77 12//30
f 12//31 20//78 27//76
f 21//53 28//79 13//54
f 13//55 28//80 21//56
f 14//57 13//33 29//81
f 29//82 13//34 14//58
f 22//59 14//35 30//83
f 30//84 14//36 22//60
f 23//85 15//37 22//61
f 22//62 15//38 23//86
f 24//87 9//39 23//63
f 23//64 9//40 24//88
f 16//41 24//65 31//89
f 31//90 24//66 16//42
f 16//41 31//91 17//44
f 17//45 31//92 16//42
f 17//44 31//91 25//93
f 25//94 31//92 17//45
f 10//43 25//67 26//95
f 26//96 25//68 10//46
f 26//69 27//97 18//47
f 18//48 27//98 26//70
f 20//51 32//99 19//71
f 19//72 32//100 20//52
f 21//73 19//49 33//101
f 33//102 19//50 21//74
f 27//75 34//103 20//77
f 20//78 34//104 27//76
f 21//73 33//101 28//105
f 28//106 33//102 21//74
f 13//54 28//79 29//107
f 29//108 28//80 13//55
f 30//109 14//57 29//81
f 29//82 14//58 30//110
f 35//111 22//59 30//83
f 30//84 22//60 35//112
f 23//85 22//61 35//113
f 35//114 22//62 23//86
f 24//87 23//63 36//115
f 36//116 23//64 24//88
f 31//89 24//65 37//117
f 37//118 24//66 31//90
f 31//91 38//119 25//93
f 25//94 38//120 31//92
f 25//67 39//121 26//95
f 26//96 39//122 25//68
f 26//69 40//123 27//97
f 27//98 40//124 26//70
f 34//103 32//125 20//77
f 20//78 32//126 34//104
f 19//71 32//99 33//127
f 33//128 32//100 19//72
f 40//123 34//129 27//97
f 27//98 34//130 40//124
f 33//101 41//131 28//105
f 28//106 41//132 33//102
f 29//107 28//79 42//133
f 42//134 28//80 29//108
f 43//135 30//109 29//81
f 29//82 30//110 43//136
f 44//137 35//111 30//83
f 30//84 35//112 44//138
f 36//139 23//85 35//113
f 35//114 23//86 36//140
f 24//87 36//115 37//141
f 37//142 36//116 24//88
f 31//89 37//117 38//143
f 38//144 37//118 31//90
f 25//93 38//119 39//145
f 39//146 38//120 25//94
f 39//121 40//147 26//95
f 26//96 40//148 39//122
f 34//103 45//149 32//125
f 32//126 45//150 34//104
f 33//127 32//99 46//151
f 46//152 32//100 33//128
f 40//123 47//153 34//129
f 34//130 47//154 40//124
f 33//127 46//151 41//131
f 41//132 46//152 33//128
f 28//105 41//131 42//133
f 42//134 41//132 28//106
f 43//155 29//107 42//133
f 42//134 29//108 43//156
f 44//137 30//109 43//135
f 43//136 30//110 44//138
f 48//157 35//111 44//137
f 44//138 35//112 48//158
f 36//139 35//113 48//157
f 48//158 35//114 36//140
f 37//141 36//115 49//159
f 49//160 36//116 37//142
f 38//143 37//117 50//161
f 50//162 37//118 38//144
f 38//119 51//163 39//145
f 39//146 51//164 38//120
f 39//121 52//165 40//147
f 40//148 52//166 39//122
f 34//129 47//153 45//149
f 45//150 47//154 34//130
f 32//125 45//149 46//167
f 46//168 45//150 32//126
f 40//147 52//165 47//153
f 47//154 52//166 40//148
f 46//151 53//169 41//131
f 41//132 53//170 46//152
f 41//131 53//169 42//133
f 42//134 53//170 41//132
f 53//169 43//155 42//133
f 42//134 43//156 53//170
f 54//171 44//137 43//135
f 43//136 44//138 54//172
f 54//171 48//157 44//137
f 44//138 48//158 54//172
f 36//139 48//157 49//173
f 49//174 48//158 36//140
f 37//141 49//159 50//161
f 50//162 49//160 37//142
f 38//143 50//161 51//163
f 51//164 50//162 38//144
f 39//145 51//163 52//175
f 52//176 51//164 39//146
f 47//153 55//177 45//149
f 45//150 55//178 47//154
f 45//149 55//177 46//167
f 46//168 55//178 45//150
f 47//153 52//165 55//177
f 55//178 52//166 47//154
f 46//167 55//177 53//169
f 53//170 55//178 46//168
f 53//169 54//179 43//155
f 43//156 54//180 53//170
f 54//171 49//173 48//157
f 48//158 49//174 54//172
f 56//181 50//161 49//159
f 49//160 50//162 56//182
f 51//163 50//161 56//181
f 56//182 50//162 51//164
f 52//175 51//163 56//181
f 56//182 51//164 52//176
f 52//175 56//181 55//183
f 55//184 56//182 52//176
f 57//185 53//169 55//177
f 55//178 53//170 57//186
f 58//185 54//179 53//169
f 53//170 54//180 58//186
f 56//181 49//173 54//171
f 54//172 49//174 56//182
f 56//181 59//187 55//183
f 55//184 59//188 56//182
f 60//185 53//169 57//185
f 57//186 53//170 60//186
f 57//185 55//177 61//185
f 61//186 55//178 57//186
f 62//185 54//179 58//185
f 58//186 54//180 62//186
f 58//185 53//169 63//185
f 63//186 53//170 58//186
f 64//187 56//181 54//171
f 54//172 56//182 64//188
f 56//181 64//187 59//187
f 59//188 64//188 56//182
f 65//185 55//177 59//185
f 59//186 55//178 65//186
f 53//169 60//185 63//185
f 63//186 60//186 53//170
f 61//185 55//177 65//185
f 65//186 55//178 61//186
f 66//189 61//189 57//189
f 67//185 54//179 62//185
f 62//186 54//180 67//186
f 68//190 58//190 62//190
f 54//179 67//185 64//185
f 64//186 67//186 54//180
f 65//191 69//191 59//191
f 65//192 61//192 70//192
f 67//193 71//193 62//193
f 71//194 68//194 62//194
f 64//195 72//195 67//195
f 72//196 71//196 67//196
f 64//197 73//197 72//197
f 74//198 73//198 64//198
usemtl material-1
f 57//199 61//199 66//199
f 62//200 58//200 68//200
f 59//201 69//201 65//201
f 70//202 61//202 65//202
f 62//203 71//203 67//203
f 62//204 68//204 71//204
f 67//205 72//205 64//205
f 67//206 71//206 72//206
f 72//207 73//207 64//207
f 64//208 73//208 74//208