mtllib new-3.mtl
v -0.018817 -0.563155 0.201266
v -0.052805 -0.603679 0.213031
v -0.054113 -0.589299 0.216953
v -0.018817 -0.637667 0.201266
v -0.018817 -0.548775 0.206495
v -0.050191 -0.618058 0.213031
v -0.055420 -0.578841 0.223489
v -0.018817 -0.652047 0.206495
v -0.018817 -0.538317 0.213031
v -0.046269 -0.631131 0.214338
v -0.054113 -0.573612 0.230025
v -0.018817 -0.662504 0.213031
v -0.018817 -0.533088 0.216953
v -0.042348 -0.641589 0.219567
v -0.051498 -0.573612 0.235254
v -0.018817 -0.669694 0.216953
v -0.016203 -0.533088 0.223489
v -0.039733 -0.648125 0.224796
v -0.048884 -0.578841 0.240483
v -0.012281 -0.538317 0.230025
v -0.016203 -0.669041 0.223489
v -0.037119 -0.648125 0.231332
v -0.044962 -0.589299 0.245712
v -0.012281 -0.662504 0.230025
v -0.009667 -0.548775 0.233947
v -0.037119 -0.641589 0.236561
v -0.003131 -0.563155 0.239829
v -0.042348 -0.603679 0.248326
v -0.009667 -0.652047 0.233947
v -0.037119 -0.631131 0.243097
v -0.038426 -0.618058 0.247019
v -0.003131 -0.637667 0.239829
v 0.000791 -0.603679 0.278393
v 0.000791 -0.618058 0.275778
v 0.003406 -0.589299 0.282314
v 0.003406 -0.652047 0.243097
v 0.003406 -0.548775 0.243097
v 0.003406 -0.631131 0.273164
v 0.009942 -0.578841 0.283622
v 0.011249 -0.662504 0.247019
v 0.011249 -0.538317 0.247019
v 0.009942 -0.641589 0.270549
v 0.015171 -0.573612 0.284929
v 0.013210 -0.669694 0.247019
v 0.015171 -0.533088 0.247019
v 0.015171 -0.648125 0.269242
v 0.023014 -0.573612 0.284929
v 0.024975 -0.669694 0.247019
v 0.023014 -0.533088 0.247019
v 0.023014 -0.648125 0.269242
v 0.026936 -0.472955 0.247019
v 0.028243 -0.578841 0.283622
v 0.026936 -0.538317 0.247019
v 0.026936 -0.662504 0.247019
v 0.011249 -0.472955 0.247019
v 0.040008 -0.472955 0.240483
v 0.028243 -0.641589 0.270549
v 0.011249 -0.431124 0.247019
v -0.001823 -0.670348 0.240483
v 0.026936 -0.431124 0.247019
v 0.040008 -0.670348 0.240483
v 0.034779 -0.589299 0.282314
v 0.034779 -0.652047 0.243097
v -0.001823 -0.431124 0.240483
v -0.001823 -0.472955 0.240483
v 0.040008 -0.431124 0.240483
v 0.050466 -0.472955 0.230025
v 0.034779 -0.548775 0.243097
v 0.034779 -0.631131 0.273164
v 0.013863 -0.431124 0.233947
v 0.004713 -0.431124 0.230025
v -0.012281 -0.670348 0.230025
v 0.024321 -0.431124 0.233947
v 0.050466 -0.670348 0.230025
v 0.041315 -0.563155 0.239829
v 0.037394 -0.603679 0.278393
v 0.037394 -0.618058 0.275778
v -0.001823 -0.431124 0.223489
v -0.012281 -0.431124 0.230025
v -0.012281 -0.472955 0.230025
v 0.033472 -0.431124 0.230025
v 0.050466 -0.431124 0.230025
v 0.057002 -0.472955 0.216953
v 0.041315 -0.637667 0.239829
v 0.057002 -0.669694 0.216953
v -0.005745 -0.431124 0.214338
v -0.018817 -0.431124 0.216953
v -0.018817 -0.472955 0.216953
v 0.040008 -0.431124 0.223489
v 0.057002 -0.431124 0.216953
v 0.057002 -0.472955 0.201266
v 0.080532 -0.603679 0.248326
v -0.018817 -0.670348 0.201266
v 0.057002 -0.670348 0.201266
v 0.076611 -0.618058 0.247019
v 0.083147 -0.589299 0.245712
v -0.005745 -0.431124 0.203880
v -0.018817 -0.431124 0.201266
v -0.018817 -0.472955 0.201266
v 0.043930 -0.431124 0.214338
v 0.057002 -0.431124 0.201266
v 0.050466 -0.472955 0.188193
v 0.047852 -0.652047 0.233947
v 0.047852 -0.548775 0.233947
v -0.012281 -0.670348 0.188194
v 0.050466 -0.670348 0.188193
v 0.075303 -0.631131 0.243097
v 0.087069 -0.578841 0.240483
v -0.001823 -0.431124 0.194730
v -0.012281 -0.431124 0.188194
v -0.012281 -0.472955 0.188194
v 0.043930 -0.431124 0.203880
v 0.050466 -0.431124 0.188193
v 0.040008 -0.472955 0.177736
v 0.050466 -0.662504 0.230025
v 0.050466 -0.538317 0.230025
v -0.001823 -0.669694 0.177736
v 0.040008 -0.669694 0.177736
v 0.075303 -0.641589 0.236561
v 0.089683 -0.573612 0.235254
v 0.004713 -0.431124 0.188194
v -0.001823 -0.431124 0.177736
v -0.001823 -0.472955 0.177736
v 0.040008 -0.431124 0.194730
v 0.040008 -0.431124 0.177736
v 0.026936 -0.472955 0.171200
v 0.054388 -0.669041 0.223489
v 0.054388 -0.533088 0.223489
v 0.011249 -0.670348 0.171200
v 0.026936 -0.670348 0.171200
v 0.075303 -0.648125 0.231332
v 0.092298 -0.573612 0.230025
v 0.013863 -0.431124 0.184272
v 0.011249 -0.431124 0.171200
v 0.011249 -0.472955 0.171200
v 0.033472 -0.431124 0.188194
v 0.026936 -0.431124 0.171200
v 0.057002 -0.533088 0.216953
v 0.077918 -0.648125 0.224796
v 0.093605 -0.578841 0.223489
v 0.057002 -0.538317 0.213031
v 0.024321 -0.431124 0.184272
v 0.057002 -0.662504 0.213031
v 0.080532 -0.641589 0.219567
v 0.092298 -0.589299 0.216953
v 0.057002 -0.652047 0.205187
v 0.057002 -0.548775 0.205187
v 0.084454 -0.631131 0.214338
v 0.090990 -0.603679 0.213031
v 0.057002 -0.563155 0.201266
v 0.088376 -0.618058 0.213031
v 0.057002 -0.637667 0.201266
vn -0.557091 0.283801 -0.780453
vn 0.557091 -0.283801 0.780453
vn -0.388666 -0.070667 -0.918665
vn 0.388666 0.070667 0.918665
vn -0.619180 0.359068 -0.698345
vn 0.619180 -0.359068 0.698345
vn -0.492581 -0.297408 -0.817871
vn 0.492581 0.297408 0.817871
vn -0.638245 0.408011 -0.652817
vn 0.638245 -0.408011 0.652817
vn -0.742473 0.587626 -0.321604
vn 0.742473 -0.587626 0.321604
vn -0.542680 -0.445167 -0.712267
vn 0.542680 0.445167 0.712267
vn 0.701811 -0.427418 0.569891
vn -0.701811 0.427418 -0.569891
vn -0.625995 -0.523669 -0.577842
vn 0.625995 0.523669 0.577842
vn 0.000000 0.000000 1.000000
vn 0.000000 0.000000 -1.000000
vn 0.657162 -0.678360 -0.328581
vn -0.657162 0.678360 0.328581
vn -0.556333 -0.397907 -0.729496
vn 0.556333 0.397907 0.729496
vn 0.684489 -0.675656 -0.273795
vn -0.684489 0.675656 0.273795
vn -0.731972 -0.579478 -0.358361
vn 0.731972 0.579478 0.358361
vn 0.418625 -0.569892 -0.707090
vn -0.418625 0.569892 0.707090
vn -0.619559 -0.716974 0.319521
vn 0.619559 0.716974 -0.319521
vn 0.391848 -0.545180 -0.741104
vn -0.391848 0.545180 0.741104
vn -0.634680 -0.729883 0.253874
vn 0.634680 0.729883 -0.253874
vn 0.171369 -0.388437 -0.905400
vn -0.171369 0.388437 0.905400
vn -0.296237 -0.580624 0.758367
vn 0.296237 0.580624 -0.758367
vn 0.070982 -0.334631 -0.939672
vn -0.070982 0.334631 0.939672
vn -0.305266 -0.594877 0.743596
vn 0.305266 0.594877 -0.743596
vn 0.083783 -0.344442 -0.935062
vn -0.083783 0.344442 0.935062
vn -0.040820 -0.341868 0.938861
vn 0.040820 0.341868 -0.938861
vn -0.023818 -0.183025 -0.982820
vn 0.023818 0.183025 0.982820
vn -0.120263 -0.526152 0.841844
vn 0.120263 0.526152 -0.841844
vn -0.235433 0.024118 -0.971591
vn 0.235433 -0.024118 0.971591
vn 0.108313 -0.275705 0.955121
vn -0.108313 0.275705 -0.955121
vn 0.447214 0.000000 0.894427
vn -0.447214 0.000000 -0.894427
vn 0.199604 0.000000 0.979877
vn -0.199604 0.000000 -0.979877
vn -0.017465 -0.371764 0.928163
vn 0.017465 0.371764 -0.928163
vn -0.994869 0.000000 0.101173
vn 0.994869 0.000000 -0.101173
vn -0.992510 -0.021853 0.120194
vn 0.992510 0.021853 -0.120194
vn -0.968494 0.115987 0.220376
vn 0.968494 -0.115987 -0.220376
vn -0.895469 -0.342385 0.284443
vn 0.895469 0.342385 -0.284443
vn 0.883823 -0.325333 -0.336178
vn -0.883823 0.325333 0.336178
vn 0.962209 0.223543 -0.155508
vn -0.962209 -0.223543 0.155508
vn 0.782420 -0.433074 -0.447510
vn -0.782420 0.433074 0.447510
vn 0.809764 0.481670 -0.335075
vn -0.809764 -0.481670 0.335075
vn 0.789021 -0.425623 -0.443047
vn -0.789021 0.425623 0.443047
vn 0.701757 0.551380 -0.451129
vn -0.701757 -0.551380 0.451129
vn 0.655316 -0.517837 -0.549915
vn -0.655316 0.517837 0.549915
vn 0.949457 0.258943 -0.177424
vn -0.949457 -0.258943 0.177424
vn 0.673395 -0.505046 -0.539877
vn -0.673395 0.505046 0.539877
vn 0.560708 0.568894 -0.601636
vn -0.560708 -0.568894 0.601636
vn 0.000000 -0.683157 -0.730271
vn 0.000000 0.683157 0.730271
vn 0.000000 0.717581 -0.696475
vn 0.000000 -0.717581 0.696475
vn -0.673395 -0.505046 -0.539877
vn 0.673395 0.505046 0.539877
vn -0.913271 0.249074 -0.322331
vn 0.913271 -0.249074 0.322331
vn 0.447209 -0.004457 0.894418
vn -0.447209 0.004457 -0.894418
vn -0.655316 -0.517837 -0.549915
vn 0.655316 0.517837 0.549915
vn -0.625459 0.600102 -0.498677
vn 0.625459 -0.600102 0.498677
vn 0.398726 0.000000 0.917070
vn -0.398726 0.000000 -0.917070
vn -0.804701 0.465218 -0.368821
vn 0.804701 -0.465218 0.368821
vn -0.447214 0.000000 0.894427
vn 0.447214 0.000000 -0.894427
vn 0.707112 0.000000 0.707101
vn -0.707112 0.000000 -0.707101
vn -0.789541 -0.426779 -0.441005
vn 0.789541 0.426779 0.441005
vn 0.000000 1.000000 0.000000
vn 0.000000 -1.000000 0.000000
vn -0.707107 0.000000 0.707107
vn 0.707107 0.000000 -0.707107
vn -0.883823 -0.325333 -0.336178
vn 0.883823 0.325333 0.336178
vn -0.962209 0.223543 -0.155508
vn 0.962209 -0.223543 0.155508
vn 0.894428 0.000000 0.447213
vn -0.894428 0.000000 -0.447213
vn 0.707107 0.000000 0.707107
vn -0.707107 0.000000 -0.707107
vn -0.968494 -0.115987 -0.220376
vn 0.968494 0.115987 0.220376
vn -0.895469 0.342385 -0.284443
vn 0.895469 -0.342385 0.284443
vn -0.894427 0.000000 0.447215
vn 0.894427 0.000000 -0.447215
vn -0.996256 0.015466 -0.085062
vn 0.996256 -0.015466 0.085062
vn -0.994102 0.000000 -0.108448
vn 0.994102 0.000000 0.108448
vn 1.000000 0.000000 0.000000
vn -1.000000 0.000000 0.000000
vn 0.177528 0.040971 -0.983262
vn -0.177528 -0.040971 0.983262
vn 0.023815 -0.183025 -0.982820
vn -0.023815 0.183025 0.982820
vn 0.894427 0.000000 -0.447214
vn -0.894427 0.000000 0.447214
vn -0.017473 0.371770 -0.928160
vn 0.017473 -0.371770 0.928160
vn 0.083791 0.344448 0.935059
vn -0.083791 -0.344448 -0.935059
vn -0.894427 0.000000 -0.447214
vn 0.894427 0.000000 0.447214
vn 0.152408 0.395675 0.905656
vn -0.152408 -0.395675 -0.905656
vn 0.707101 0.000000 -0.707112
vn -0.707101 0.000000 0.707112
vn 0.095281 0.328555 0.939667
vn -0.095281 -0.328555 -0.939667
vn 0.217800 -0.517275 0.827641
vn -0.217800 0.517275 -0.827641
vn 0.391848 0.545180 0.741104
vn -0.391848 -0.545180 -0.741104
vn 0.291606 -0.583212 0.758175
vn -0.291606 0.583212 -0.758175
vn 0.418626 0.569893 0.707089
vn -0.418626 -0.569893 -0.707089
vn 0.314977 -0.592898 0.741122
vn -0.314977 0.592898 -0.741122
vn 0.661901 0.672577 0.330950
vn -0.661901 -0.672577 -0.330950
vn 0.608871 -0.727483 0.316297
vn -0.608871 0.727483 -0.316297
vn 0.680414 0.680414 0.272165
vn -0.680414 -0.680414 -0.272165
vn 0.645019 -0.719294 0.258006
vn -0.645019 0.719294 -0.258006
vn 0.701810 0.427418 -0.569891
vn -0.701810 -0.427418 0.569891
vn 0.635476 -0.369732 -0.677841
vn -0.635476 0.369732 0.677841
vn 0.742473 0.587626 -0.321606
vn -0.742473 -0.587626 0.321606
vn 0.663201 -0.611039 -0.432198
vn -0.663201 0.611039 0.432198
vn 0.606441 0.365526 -0.706130
vn -0.606441 -0.365526 0.706130
vn 0.602833 -0.478720 -0.638294
vn -0.602833 0.478720 0.638294
vn 0.690858 0.433794 -0.578393
vn -0.690858 -0.433794 0.578393
vn 0.601317 -0.526153 -0.601316
vn -0.601317 0.526153 0.601316
vn 0.529197 0.223255 -0.818601
vn -0.529197 -0.223255 0.818601
vn 0.457059 -0.223215 -0.860972
vn -0.457059 0.223215 0.860972
vn 0.509311 0.183034 -0.840893
vn -0.509311 -0.183034 0.840893
vn 0.465690 -0.232845 -0.853766
vn -0.465690 0.232845 0.853766
usemtl material-0
f 1//1 3//1 5//1
f 5//2 3//2 1//2
f 4//3 6//3 2//3
f 2//4 6//4 4//4
f 5//5 3//5 7//5
f 7//6 3//6 5//6
f 8//7 6//7 4//7
f 4//8 6//8 8//8
f 5//9 7//9 9//9
f 9//10 7//10 5//10
f 9//11 7//11 11//11
f 11//12 7//12 9//12
f 12//13 10//13 8//13
f 8//14 10//14 12//14
f 13//15 11//15 9//15
f 9//16 11//16 13//16
f 10//17 12//17 14//17
f 14//18 12//18 10//18
f 15//21 11//21 13//21
f 13//22 11//22 15//22
f 16//23 14//23 12//23
f 12//24 14//24 16//24
f 17//25 15//25 13//25
f 13//26 15//26 17//26
f 14//27 16//27 18//27
f 18//28 16//28 14//28
f 20//29 15//29 17//29
f 17//30 15//30 20//30
f 18//31 16//31 21//31
f 21//32 16//32 18//32
f 20//33 19//33 15//33
f 15//34 19//34 20//34
f 22//35 18//35 21//35
f 21//36 18//36 22//36
f 20//37 23//37 19//37
f 19//38 23//38 20//38
f 24//39 22//39 21//39
f 21//40 22//40 24//40
f 25//41 23//41 20//41
f 20//42 23//42 25//42
f 24//43 26//43 22//43
f 22//44 26//44 24//44
f 27//45 23//45 25//45
f 25//46 23//46 27//46
f 29//47 26//47 24//47
f 24//48 26//48 29//48
f 27//49 28//49 23//49
f 23//50 28//50 27//50
f 29//51 30//51 26//51
f 26//52 30//52 29//52
f 27//53 31//53 28//53
f 28//54 31//54 27//54
f 29//55 31//55 30//55
f 30//56 31//56 29//56
f 27//59 31//59 32//59
f 32//60 31//60 27//60
f 32//61 31//61 29//61
f 29//62 31//62 32//62
f 27//63 32//63 33//63
f 33//64 32//64 27//64
f 33//65 32//65 34//65
f 34//66 32//66 33//66
f 27//67 33//67 35//67
f 35//68 33//68 27//68
f 34//69 32//69 36//69
f 36//70 32//70 34//70
f 37//71 35//71 27//71
f 27//72 35//72 37//72
f 34//73 38//73 36//73
f 36//74 38//74 34//74
f 37//75 39//75 35//75
f 35//76 39//76 37//76
f 38//77 40//77 36//77
f 36//78 40//78 38//78
f 41//79 39//79 37//79
f 37//80 39//80 41//80
f 38//81 42//81 40//81
f 40//82 42//82 38//82
f 41//83 43//83 39//83
f 39//84 43//84 41//84
f 42//85 44//85 40//85
f 40//86 44//86 42//86
f 45//87 43//87 41//87
f 41//88 43//88 45//88
f 46//89 44//89 42//89
f 42//90 44//90 46//90
f 47//91 43//91 45//91
f 45//92 43//92 47//92
f 46//93 48//93 44//93
f 44//94 48//94 46//94
f 47//91 45//91 49//91
f 49//92 45//92 47//92
f 50//93 48//93 46//93
f 46//94 48//94 50//94
f 51//19 44//19 48//19
f 48//20 44//20 51//20
f 49//95 53//95 47//95
f 47//96 53//96 49//96
f 50//97 54//97 48//97
f 48//98 54//98 50//98
f 51//19 55//19 44//19
f 44//20 55//20 51//20
f 56//99 51//99 48//99
f 48//100 51//100 56//100
f 53//101 52//101 47//101
f 47//102 52//102 53//102
f 57//103 54//103 50//103
f 50//104 54//104 57//104
f 51//19 58//19 55//19
f 55//20 58//20 51//20
f 56//57 60//57 51//57
f 51//58 60//58 56//58
f 56//105 48//105 61//105
f 61//106 48//106 56//106
f 57//107 63//107 54//107
f 54//108 63//108 57//108
f 60//19 58//19 51//19
f 51//20 58//20 60//20
f 58//109 64//109 55//109
f 55//110 64//110 58//110
f 55//109 65//109 59//109
f 59//110 65//110 55//110
f 66//57 60//57 56//57
f 56//58 60//58 66//58
f 56//111 61//111 67//111
f 67//112 61//112 56//112
f 53//113 68//113 62//113
f 62//114 68//114 53//114
f 60//115 70//115 58//115
f 58//116 70//116 60//116
f 58//115 71//115 64//115
f 64//116 71//116 58//116
f 55//109 64//109 65//109
f 65//110 64//110 55//110
f 65//117 72//117 59//117
f 59//118 72//118 65//118
f 60//115 66//115 73//115
f 73//116 66//116 60//116
f 66//111 56//111 67//111
f 67//112 56//112 66//112
f 67//111 61//111 74//111
f 74//112 61//112 67//112
f 68//119 75//119 62//119
f 62//120 75//120 68//120
f 77//121 63//121 69//121
f 69//122 63//122 77//122
f 60//115 73//115 70//115
f 70//116 73//116 60//116
f 58//115 70//115 71//115
f 71//116 70//116 58//116
f 64//115 71//115 78//115
f 78//116 71//116 64//116
f 64//117 79//117 65//117
f 65//118 79//118 64//118
f 80//117 72//117 65//117
f 65//118 72//118 80//118
f 66//115 81//115 73//115
f 73//116 81//116 66//116
f 66//111 67//111 82//111
f 82//112 67//112 66//112
f 67//123 74//123 83//123
f 83//124 74//124 67//124
f 75//127 76//127 62//127
f 62//128 76//128 75//128
f 77//129 84//129 63//129
f 63//130 84//130 77//130
f 64//115 78//115 79//115
f 79//116 78//116 64//116
f 65//117 79//117 80//117
f 80//118 79//118 65//118
f 80//131 16//131 72//131
f 72//132 16//132 80//132
f 66//115 82//115 81//115
f 81//116 82//116 66//116
f 82//123 67//123 83//123
f 83//124 67//124 82//124
f 83//123 74//123 85//123
f 85//124 74//124 83//124
f 75//133 77//133 76//133
f 76//134 77//134 75//134
f 75//135 84//135 77//135
f 77//136 84//136 75//136
f 79//115 78//115 86//115
f 86//116 78//116 79//116
f 87//131 80//131 79//131
f 79//132 80//132 87//132
f 88//131 16//131 80//131
f 80//132 16//132 88//132
f 81//115 82//115 89//115
f 89//116 82//116 81//116
f 82//123 83//123 90//123
f 90//124 83//124 82//124
f 83//137 85//137 91//137
f 91//138 85//138 83//138
f 79//115 86//115 87//115
f 87//116 86//116 79//116
f 87//131 88//131 80//131
f 80//132 88//132 87//132
f 82//115 90//115 89//115
f 89//116 90//116 82//116
f 90//137 83//137 91//137
f 91//138 83//138 90//138
f 91//137 85//137 94//137
f 94//138 85//138 91//138
f 92//139 95//139 84//139
f 84//140 95//140 92//140
f 96//141 92//141 75//141
f 75//142 92//142 96//142
f 87//115 86//115 97//115
f 97//116 86//116 87//116
f 98//138 88//138 87//138
f 87//137 88//137 98//137
f 99//138 93//138 88//138
f 88//137 93//137 99//137
f 89//115 90//115 100//115
f 100//116 90//116 89//116
f 90//137 91//137 101//137
f 101//138 91//138 90//138
f 91//143 94//143 102//143
f 102//144 94//144 91//144
f 95//145 103//145 84//145
f 84//146 103//146 95//146
f 96//147 104//147 75//147
f 75//148 104//148 96//148
f 87//115 97//115 98//115
f 98//116 97//116 87//116
f 98//138 99//138 88//138
f 88//137 99//137 98//137
f 99//149 105//149 93//149
f 93//150 105//150 99//150
f 90//115 101//115 100//115
f 100//116 101//116 90//116
f 101//143 91//143 102//143
f 102//144 91//144 101//144
f 102//143 94//143 106//143
f 106//144 94//144 102//144
f 108//151 104//151 96//151
f 96//152 104//152 108//152
f 97//115 109//115 98//115
f 98//116 109//116 97//116
f 110//149 99//149 98//149
f 98//150 99//150 110//150
f 111//149 105//149 99//149
f 99//150 105//150 111//150
f 100//115 101//115 112//115
f 112//116 101//116 100//116
f 101//143 102//143 113//143
f 113//144 102//144 101//144
f 106//153 114//153 102//153
f 102//154 114//154 106//154
f 108//155 116//155 104//155
f 104//156 116//156 108//156
f 98//115 109//115 110//115
f 110//116 109//116 98//116
f 110//149 111//149 99//149
f 99//150 111//150 110//150
f 111//126 117//126 105//126
f 105//125 117//125 111//125
f 112//115 101//115 113//115
f 113//116 101//116 112//116
f 102//153 114//153 113//153
f 113//154 114//154 102//154
f 106//153 118//153 114//153
f 114//154 118//154 106//154
f 107//157 115//157 119//157
f 119//158 115//158 107//158
f 120//159 116//159 108//159
f 108//160 116//160 120//160
f 109//115 121//115 110//115
f 110//116 121//116 109//116
f 122//126 111//126 110//126
f 110//125 111//125 122//125
f 123//126 117//126 111//126
f 111//125 117//125 123//125
f 112//115 113//115 124//115
f 124//116 113//116 112//116
f 113//153 114//153 125//153
f 125//154 114//154 113//154
f 118//110 126//110 114//110
f 114//109 126//109 118//109
f 119//161 115//161 127//161
f 127//162 115//162 119//162
f 120//163 128//163 116//163
f 116//164 128//164 120//164
f 121//115 122//115 110//115
f 110//116 122//116 121//116
f 123//126 111//126 122//126
f 122//125 111//125 123//125
f 129//58 117//58 123//58
f 123//57 117//57 129//57
f 124//115 113//115 125//115
f 125//116 113//116 124//116
f 114//110 126//110 125//110
f 125//109 126//109 114//109
f 118//110 130//110 126//110
f 126//109 130//109 118//109
f 119//165 127//165 131//165
f 131//166 127//166 119//166
f 120//167 132//167 128//167
f 128//168 132//168 120//168
f 121//115 133//115 122//115
f 122//116 133//116 121//116
f 134//58 123//58 122//58
f 122//57 123//57 134//57
f 129//58 123//58 135//58
f 135//57 123//57 129//57
f 124//115 125//115 136//115
f 136//116 125//116 124//116
f 125//110 126//110 137//110
f 137//109 126//109 125//109
f 130//20 135//20 126//20
f 126//19 135//19 130//19
f 131//169 127//169 85//169
f 85//170 127//170 131//170
f 132//171 138//171 128//171
f 128//172 138//172 132//172
f 133//115 134//115 122//115
f 122//116 134//116 133//116
f 135//58 123//58 134//58
f 134//57 123//57 135//57
f 130//20 129//20 135//20
f 135//19 129//19 130//19
f 136//115 125//115 137//115
f 137//116 125//116 136//116
f 126//20 135//20 137//20
f 137//19 135//19 126//19
f 131//173 85//173 139//173
f 139//174 85//174 131//174
f 138//175 132//175 141//175
f 141//176 132//176 138//176
f 142//115 134//115 133//115
f 133//116 134//116 142//116
f 137//20 135//20 134//20
f 134//19 135//19 137//19
f 136//115 137//115 142//115
f 142//116 137//116 136//116
f 139//177 85//177 143//177
f 143//178 85//178 139//178
f 141//179 132//179 140//179
f 140//180 132//180 141//180
f 142//115 137//115 134//115
f 134//116 137//116 142//116
f 144//181 139//181 143//181
f 143//182 139//182 144//182
f 140//183 145//183 141//183
f 141//184 145//184 140//184
f 144//185 143//185 146//185
f 146//186 143//186 144//186
f 141//187 145//187 147//187
f 147//188 145//188 141//188
f 148//189 144//189 146//189
f 146//190 144//190 148//190
f 145//191 150//191 147//191
f 147//192 150//192 145//192
f 151//193 148//193 146//193
f 146//194 148//194 151//194
f 145//195 149//195 150//195
f 150//196 149//196 145//196
f 151//197 146//197 152//197
f 152//198 146//198 151//198