mtllib new-14.mtl
v 0.019746 -0.563155 0.171200
v 0.019746 -0.637667 0.171200
v -0.007052 -0.603679 0.142440
v -0.005745 -0.618058 0.145055
v -0.010974 -0.589299 0.141133
v 0.011249 -0.652047 0.171200
v -0.254119 -0.637667 -0.190904
v 0.011249 -0.548775 0.171200
v -0.005745 -0.631131 0.148977
v -0.252812 -0.644203 -0.190904
v -0.017510 -0.578841 0.143748
v 0.003406 -0.662504 0.175121
v -0.261963 -0.641589 -0.209205
v -0.265885 -0.633745 -0.211820
v 0.003406 -0.538317 0.175121
v -0.009667 -0.641589 0.154205
v -0.254119 -0.653354 -0.188290
v -0.258041 -0.650739 -0.205284
v -0.022739 -0.573612 0.146362
v -0.001823 -0.669694 0.177736
v -0.256734 -0.659890 -0.184368
v -0.269806 -0.655968 -0.222278
v -0.276342 -0.650739 -0.227507
v -0.278957 -0.624595 -0.209205
v -0.265885 -0.618058 -0.186983
v -0.001823 -0.533088 0.177736
v -0.013588 -0.648125 0.158127
v -0.256734 -0.658583 -0.200055
v -0.264577 -0.661197 -0.214434
v -0.027968 -0.573612 0.150284
v -0.005745 -0.669041 0.180350
v -0.259348 -0.663812 -0.193519
v -0.271114 -0.679498 -0.228814
v -0.297258 -0.679498 -0.235350
v -0.286800 -0.624595 -0.202669
v -0.005745 -0.533088 0.180350
v -0.018817 -0.648125 0.162049
v -0.265885 -0.663812 -0.177832
v -0.260656 -0.666426 -0.206591
v -0.265885 -0.679498 -0.219663
v -0.306409 -0.679498 -0.230121
v -0.031890 -0.578841 0.154205
v -0.008359 -0.538317 0.184272
v -0.008359 -0.662504 0.184272
v -0.263270 -0.667733 -0.188290
v -0.261963 -0.670348 -0.198748
v -0.268499 -0.716101 -0.235350
v -0.310331 -0.716101 -0.234043
v -0.024046 -0.641589 0.164663
v -0.269806 -0.659890 -0.175217
v -0.271114 -0.667733 -0.181754
v -0.265885 -0.672962 -0.192211
v -0.261963 -0.679498 -0.211820
v -0.035811 -0.589299 0.159434
v -0.293337 -0.633745 -0.192211
v -0.012281 -0.652047 0.188194
v -0.267192 -0.679498 -0.193519
v -0.261963 -0.679498 -0.202669
v -0.306409 -0.728520 -0.231428
v -0.311638 -0.731134 -0.222278
v -0.012281 -0.548775 0.188194
v -0.030582 -0.631131 0.165971
v -0.278957 -0.663812 -0.179139
v -0.273728 -0.672962 -0.185675
v -0.037119 -0.603679 0.163356
v -0.292029 -0.641589 -0.186983
v -0.016203 -0.563155 0.196037
v -0.301180 -0.655968 -0.198748
v -0.307716 -0.679498 -0.202669
v -0.275035 -0.653354 -0.172603
v -0.034504 -0.618058 0.165971
v -0.275035 -0.679498 -0.186983
v -0.306409 -0.731134 -0.231428
v -0.315559 -0.716101 -0.201362
v -0.277650 -0.637667 -0.173910
v -0.276342 -0.644203 -0.173910
v -0.016203 -0.637667 0.196037
v -0.284186 -0.658583 -0.180446
v -0.282879 -0.670348 -0.184368
v -0.263270 -0.728520 -0.214434
v -0.264577 -0.731134 -0.224892
v -0.289415 -0.650739 -0.183061
v -0.301180 -0.679498 -0.194826
v -0.309023 -0.716101 -0.192211
v -0.285493 -0.679498 -0.184368
v -0.276342 -0.716101 -0.186983
v -0.290722 -0.666426 -0.185675
v -0.269806 -0.731134 -0.196133
v -0.263270 -0.731134 -0.214434
v -0.293337 -0.679498 -0.186983
v -0.277650 -0.728520 -0.190904
vn -0.849257 0.207981 -0.485290
vn 0.849257 -0.207981 0.485290
vn 0.453047 -0.311470 0.835305
vn -0.453047 0.311470 -0.835305
vn 0.688021 -0.068802 -0.722422
vn -0.688021 0.068802 0.722422
vn 0.646997 0.107833 -0.754829
vn -0.646997 -0.107833 0.754829
vn 0.545511 -0.322348 -0.773634
vn -0.545511 0.322348 0.773634
vn 0.519373 0.306902 -0.797535
vn -0.519373 -0.306902 0.797535
vn 0.668506 -0.213703 -0.712342
vn -0.668506 0.213703 0.712342
vn 0.349620 0.426995 -0.833931
vn -0.349620 -0.426995 0.833931
vn 0.338399 -0.542207 -0.769089
vn -0.338399 0.542207 0.769089
vn 0.890078 0.178016 -0.419608
vn -0.890078 -0.178016 0.419608
vn -0.259753 -0.503764 0.823863
vn 0.259753 0.503764 -0.823863
vn 0.380952 -0.523810 -0.761905
vn -0.380952 0.523810 0.761905
vn -0.147848 -0.556606 0.817515
vn 0.147848 0.556606 -0.817515
vn 0.358849 -0.538274 -0.762554
vn -0.358849 0.538274 0.762554
vn 0.707787 -0.509886 -0.488932
vn -0.707787 0.509886 0.488932
vn 0.739270 0.150871 -0.656291
vn -0.739270 -0.150871 0.656291
vn 0.209861 -0.592547 -0.777719
vn -0.209861 0.592547 0.777719
vn 0.921154 -0.387854 -0.032321
vn -0.921154 0.387854 0.032321
vn 0.825113 -0.021713 -0.564551
vn -0.825113 0.021713 0.564551
vn 0.439575 -0.680632 0.586100
vn -0.439575 0.680632 -0.586100
vn -0.463524 -0.721037 -0.515026
vn 0.463524 0.721037 0.515026
vn 0.856077 0.093633 -0.508296
vn -0.856077 -0.093633 0.508296
vn 0.159300 -0.968546 0.191160
vn -0.159300 0.968546 -0.191160
vn 0.407912 -0.677661 0.611869
vn -0.407912 0.677661 -0.611869
vn -0.408662 -0.732187 -0.544883
vn 0.408662 0.732187 0.544883
vn 0.885279 -0.464173 -0.028712
vn -0.885279 0.464173 0.028712
vn -0.889156 -0.437042 0.135634
vn 0.889156 0.437042 -0.135634
vn 0.934257 -0.355907 -0.022244
vn -0.934257 0.355907 0.022244
vn 0.858560 0.148934 -0.490606
vn -0.858560 -0.148934 0.490606
vn 0.490921 -0.144646 0.859112
vn -0.490921 0.144646 -0.859112
vn 0.829046 -0.551204 0.094108
vn -0.829046 0.551204 -0.094108
vn -0.786234 -0.617230 -0.029392
vn 0.786234 0.617230 0.029392
vn 0.335999 -0.851197 0.403198
vn -0.335999 0.851197 -0.403198
vn 0.811107 -0.551553 0.194666
vn -0.811107 0.551553 -0.194666
vn 0.801784 -0.534522 0.267261
vn -0.801784 0.534522 -0.267261
vn 0.985931 -0.136935 0.095854
vn -0.985931 0.136935 -0.095854
vn 0.899118 -0.411609 -0.148880
vn -0.899118 0.411609 0.148880
vn -0.872342 -0.420593 0.249241
vn 0.872342 0.420593 -0.249241
vn 0.476731 -0.667424 0.572078
vn -0.476731 0.667424 -0.572078
vn 0.870515 -0.257930 0.419137
vn -0.870515 0.257930 -0.419137
vn 1.000000 0.000000 0.000000
vn -1.000000 0.000000 0.000000
vn 0.899862 -0.401425 -0.170606
vn -0.899862 0.401425 0.170606
vn 0.825198 0.537464 -0.173726
vn -0.825198 -0.537464 0.173726
vn 0.616205 -0.271130 0.739446
vn -0.616205 0.271130 -0.739446
vn 0.903338 -0.367245 -0.221613
vn -0.903338 0.367245 0.221613
vn 0.850372 0.255112 -0.460201
vn -0.850372 -0.255112 0.460201
vn -0.165256 -0.477406 0.863003
vn 0.165256 0.477406 -0.863003
vn -0.026870 -0.591150 0.806114
vn 0.026870 0.591150 -0.806114
vn 0.868243 0.000000 0.496139
vn -0.868243 0.000000 -0.496139
vn 0.914931 -0.181494 -0.360502
vn -0.914931 0.181494 0.360502
vn 0.867087 -0.168109 -0.468935
vn -0.867087 0.168109 0.468935
vn 0.877071 0.391230 -0.278720
vn -0.877071 -0.391230 0.278720
vn 0.783342 0.235003 -0.575455
vn -0.783342 -0.235003 0.575455
vn -0.058266 -0.602084 0.796304
vn 0.058266 0.602084 -0.796304
vn 0.079002 -0.210672 0.974359
vn -0.079002 0.210672 -0.974359
vn 0.816057 0.043588 -0.576325
vn -0.816057 -0.043588 0.576325
vn 0.685043 -0.112729 -0.719728
vn -0.685043 0.112729 0.719728
vn 0.763885 -0.106095 -0.636571
vn -0.763885 0.106095 0.636571
vn 0.798671 -0.191518 -0.570479
vn -0.798671 0.191518 0.570479
vn 0.854199 0.000000 -0.519947
vn -0.854199 0.000000 0.519947
vn 0.241955 -0.069130 0.967822
vn -0.241955 0.069130 -0.967822
vn 0.992278 0.000000 -0.124035
vn -0.992278 0.000000 0.124035
vn 0.751770 -0.205842 -0.626475
vn -0.751770 0.205842 0.626475
vn 0.314007 0.331451 -0.889685
vn -0.314007 -0.331451 0.889685
vn 0.316070 0.031607 -0.948209
vn -0.316070 -0.031607 0.948209
usemtl material-0
f 2//5 4//5 3//5
f 3//6 4//6 2//6
f 1//7 3//7 5//7
f 5//8 3//8 1//8
f 2//9 6//9 4//9
f 4//10 6//10 2//10
f 1//11 5//11 8//11
f 8//12 5//12 1//12
f 6//13 9//13 4//13
f 4//14 9//14 6//14
f 8//15 5//15 11//15
f 11//16 5//16 8//16
f 6//17 12//17 9//17
f 9//18 12//18 6//18
f 7//19 10//19 13//19
f 13//20 10//20 7//20
f 8//21 15//21 11//21
f 11//22 15//22 8//22
f 12//23 16//23 9//23
f 9//24 16//24 12//24
f 15//25 19//25 11//25
f 11//26 19//26 15//26
f 12//27 20//27 16//27
f 16//28 20//28 12//28
f 9//29 16//29 21//29
f 21//30 16//30 9//30
f 14//31 13//31 23//31
f 23//32 13//32 14//32
f 15//25 26//25 19//25
f 19//26 26//26 15//26
f 20//33 27//33 16//33
f 16//34 27//34 20//34
f 17//35 21//35 28//35
f 28//36 21//36 17//36
f 18//37 29//37 22//37
f 22//38 29//38 18//38
f 26//39 30//39 19//39
f 19//40 30//40 26//40
f 31//41 27//41 20//41
f 20//42 27//42 31//42
f 22//43 29//43 33//43
f 33//44 29//44 22//44
f 25//45 35//45 24//45
f 24//46 35//46 25//46
f 36//47 30//47 26//47
f 26//48 30//48 36//48
f 31//49 37//49 27//49
f 27//50 37//50 31//50
f 36//51 43//51 30//51
f 30//52 43//52 36//52
f 37//53 31//53 44//53
f 44//54 31//54 37//54
f 32//55 46//55 39//55
f 39//56 46//56 32//56
f 40//57 47//57 33//57
f 33//58 47//58 40//58
f 34//59 41//59 48//59
f 48//60 41//60 34//60
f 43//61 42//61 30//61
f 30//62 42//62 43//62
f 49//63 37//63 44//63
f 44//64 37//64 49//64
f 38//65 51//65 45//65
f 45//66 51//66 38//66
f 32//67 45//67 52//67
f 52//68 45//68 32//68
f 32//69 52//69 46//69
f 46//70 52//70 32//70
f 39//71 46//71 53//71
f 53//72 46//72 39//72
f 43//73 54//73 42//73
f 42//74 54//74 43//74
f 49//75 44//75 56//75
f 56//76 44//76 49//76
f 51//77 52//77 45//77
f 45//78 52//78 51//78
f 46//79 52//79 57//79
f 57//80 52//80 46//80
f 46//81 58//81 53//81
f 53//82 58//82 46//82
f 43//83 61//83 54//83
f 54//84 61//84 43//84
f 62//85 56//85 49//85
f 49//86 56//86 62//86
f 51//77 64//77 52//77
f 52//78 64//78 51//78
f 52//87 64//87 57//87
f 57//88 64//88 52//88
f 46//2 57//2 58//2
f 58//1 57//1 46//1
f 61//89 67//89 54//89
f 54//90 67//90 61//90
f 71//91 56//91 62//91
f 62//92 56//92 71//92
f 50//93 70//93 63//93
f 63//94 70//94 50//94
f 51//95 63//95 64//95
f 64//96 63//96 51//96
f 59//97 60//97 73//97
f 73//98 60//98 59//98
f 67//99 65//99 54//99
f 54//100 65//100 67//100
f 55//101 66//101 68//101
f 68//102 66//102 55//102
f 71//103 77//103 56//103
f 56//104 77//104 71//104
f 71//105 62//105 76//105
f 76//106 62//106 71//106
f 64//107 63//107 79//107
f 79//108 63//108 64//108
f 64//109 79//109 72//109
f 72//110 79//110 64//110
f 67//111 71//111 65//111
f 65//112 71//112 67//112
f 75//113 82//113 66//113
f 66//114 82//114 75//114
f 68//115 83//115 69//115
f 69//116 83//116 68//116
f 69//117 84//117 74//117
f 74//118 84//118 69//118
f 67//119 77//119 71//119
f 71//120 77//120 67//120
f 72//121 79//121 85//121
f 85//122 79//122 72//122
f 83//125 84//125 69//125
f 69//126 84//126 83//126
f 79//127 87//127 78//127
f 78//128 87//128 79//128
f 80//123 89//123 81//123
f 81//124 89//124 80//124
f 85//129 90//129 87//129
f 87//130 90//130 85//130
f 88//3 86//3 91//3
f 91//4 86//4 88//4