mtllib new-5.mtl
v -0.007052 -0.603679 0.142440
v -0.005745 -0.618058 0.145055
v -0.010974 -0.589299 0.141133
v -0.254119 -0.637667 -0.190904
v -0.005745 -0.631131 0.148977
v -0.252812 -0.644203 -0.190904
v -0.256734 -0.628516 -0.192211
v -0.017510 -0.578841 0.143748
v -0.261963 -0.641589 -0.209205
v -0.265885 -0.633745 -0.211820
v -0.260656 -0.620673 -0.189597
v -0.009667 -0.641589 0.154205
v -0.254119 -0.653354 -0.188290
v -0.258041 -0.650739 -0.205284
v -0.271114 -0.627209 -0.211820
v -0.022739 -0.573612 0.146362
v -0.256734 -0.659890 -0.184368
v -0.269806 -0.655968 -0.222278
v -0.276342 -0.650739 -0.227507
v -0.284186 -0.646818 -0.228814
v -0.278957 -0.624595 -0.209205
v -0.265885 -0.618058 -0.186983
v -0.013588 -0.648125 0.158127
v -0.256734 -0.658583 -0.200055
v -0.264577 -0.661197 -0.214434
v -0.292029 -0.644203 -0.227507
v -0.269806 -0.618058 -0.184368
v -0.027968 -0.573612 0.150284
v -0.260656 -0.663812 -0.180446
v -0.259348 -0.663812 -0.193519
v -0.271114 -0.679498 -0.228814
v -0.278957 -0.679498 -0.235350
v -0.288108 -0.679498 -0.237965
v -0.297258 -0.679498 -0.235350
v -0.286800 -0.624595 -0.202669
v -0.299873 -0.644203 -0.220971
v -0.018817 -0.648125 0.162049
v -0.265885 -0.663812 -0.177832
v -0.260656 -0.666426 -0.206591
v -0.265885 -0.679498 -0.219663
v -0.306409 -0.679498 -0.230121
v -0.031890 -0.578841 0.154205
v -0.290722 -0.627209 -0.197440
v -0.263270 -0.667733 -0.188290
v -0.268499 -0.716101 -0.235350
v -0.277650 -0.716101 -0.241886
v -0.289415 -0.716101 -0.243194
v -0.301180 -0.716101 -0.240579
v -0.310331 -0.716101 -0.234043
v -0.303794 -0.646818 -0.214434
v -0.311638 -0.679498 -0.220971
v -0.273728 -0.620673 -0.180446
v -0.024046 -0.641589 0.164663
v -0.269806 -0.659890 -0.175217
v -0.271114 -0.667733 -0.181754
v -0.261963 -0.679498 -0.211820
v -0.260656 -0.716101 -0.226200
v -0.316867 -0.716101 -0.224892
v -0.277650 -0.628516 -0.176525
v -0.035811 -0.589299 0.159434
v -0.293337 -0.633745 -0.192211
v -0.305102 -0.650739 -0.206591
v -0.267192 -0.679498 -0.193519
v -0.261963 -0.679498 -0.202669
v -0.271114 -0.728520 -0.232736
v -0.278957 -0.731134 -0.237965
v -0.289415 -0.728520 -0.239272
v -0.298565 -0.731134 -0.236657
v -0.306409 -0.728520 -0.231428
v -0.311638 -0.731134 -0.222278
v -0.311638 -0.679498 -0.211820
v -0.318174 -0.716101 -0.213127
v -0.030582 -0.631131 0.165971
v -0.278957 -0.663812 -0.179139
v -0.273728 -0.672962 -0.185675
v -0.258041 -0.716101 -0.215742
v -0.264577 -0.728520 -0.224892
v -0.314252 -0.728520 -0.213127
v -0.037119 -0.603679 0.163356
v -0.292029 -0.641589 -0.186983
v -0.301180 -0.655968 -0.198748
v -0.307716 -0.679498 -0.202669
v -0.275035 -0.653354 -0.172603
v -0.034504 -0.618058 0.165971
v -0.275035 -0.679498 -0.186983
v -0.260656 -0.716101 -0.203977
v -0.271114 -0.731134 -0.232736
v -0.278957 -0.728520 -0.237965
v -0.289415 -0.731134 -0.239272
v -0.298565 -0.728520 -0.236657
v -0.306409 -0.731134 -0.231428
v -0.311638 -0.728520 -0.222278
v -0.315559 -0.716101 -0.201362
v -0.311638 -0.728520 -0.202669
v -0.277650 -0.637667 -0.173910
v -0.276342 -0.644203 -0.173910
v -0.284186 -0.658583 -0.180446
v -0.282879 -0.670348 -0.184368
v -0.265885 -0.716101 -0.193519
v -0.263270 -0.728520 -0.214434
v -0.264577 -0.731134 -0.224892
v -0.314252 -0.731134 -0.213127
v -0.311638 -0.731134 -0.202669
v -0.289415 -0.650739 -0.183061
v -0.295951 -0.661197 -0.190904
v -0.301180 -0.679498 -0.194826
v -0.309023 -0.716101 -0.192211
v -0.285493 -0.679498 -0.184368
v -0.276342 -0.716101 -0.186983
v -0.264577 -0.731134 -0.205284
v -0.305102 -0.728520 -0.194826
v -0.305102 -0.731134 -0.194826
v -0.290722 -0.666426 -0.185675
v -0.269806 -0.731134 -0.196133
v -0.263270 -0.731134 -0.214434
v -0.293337 -0.679498 -0.186983
v -0.298565 -0.716101 -0.185675
v -0.297258 -0.731134 -0.189597
v -0.286800 -0.716101 -0.184368
v -0.277650 -0.728520 -0.190904
v -0.269806 -0.728520 -0.196133
v -0.264577 -0.728520 -0.205284
v -0.297258 -0.728520 -0.189597
v -0.277650 -0.731134 -0.190904
v -0.286800 -0.731134 -0.188290
v -0.286800 -0.728520 -0.188290
vn -0.554700 0.000000 0.832050
vn 0.554700 0.000000 -0.832050
vn 0.554700 0.000000 0.832050
vn -0.554700 0.000000 -0.832050
vn 0.509603 -0.274743 0.815365
vn -0.509603 0.274743 -0.815365
vn 0.804594 -0.034640 -0.592814
vn -0.804594 0.034640 0.592814
vn 0.785209 0.159760 -0.598268
vn -0.785209 -0.159760 0.598268
vn 0.597505 0.341432 -0.725542
vn -0.597505 -0.341432 0.725542
vn 0.789593 0.157919 -0.592963
vn -0.789593 -0.157919 0.592963
vn 0.789035 0.139983 -0.598188
vn -0.789035 -0.139983 0.598188
vn 0.926710 0.314323 -0.205936
vn -0.926710 -0.314323 0.205936
vn 0.799895 -0.172449 -0.574830
vn -0.799895 0.172449 0.574830
vn 0.871053 0.183800 -0.455505
vn -0.871053 -0.183800 0.455505
vn 0.660963 0.513033 -0.547655
vn -0.660963 -0.513033 0.547655
vn -0.646806 -0.539114 0.539442
vn 0.646806 0.539114 -0.539442
vn 0.783396 -0.271634 -0.559022
vn -0.783396 0.271634 0.559022
vn 0.887162 0.202504 -0.414652
vn -0.887162 -0.202504 0.414652
vn 0.857143 0.285714 -0.428571
vn -0.857143 -0.285714 0.428571
vn 0.689672 0.551737 -0.468977
vn -0.689672 -0.551737 0.468977
vn -0.707232 -0.515049 0.484300
vn 0.707232 0.515049 -0.484300
vn -0.503020 -0.732430 0.458821
vn 0.503020 0.732430 -0.458821
vn 0.686409 -0.555884 -0.468867
vn -0.686409 0.555884 0.468867
vn 0.945932 -0.206583 -0.250074
vn -0.945932 0.206583 0.250074
vn 0.804835 0.093767 -0.586045
vn -0.804835 -0.093767 0.586045
vn -0.471200 -0.376960 0.797416
vn 0.471200 0.376960 -0.797416
vn -0.186186 -0.915417 0.356857
vn 0.186186 0.915417 -0.356857
vn -0.285841 -0.900204 0.328523
vn 0.285841 0.900204 -0.328523
vn 0.636716 -0.640050 -0.430034
vn -0.636716 0.640050 0.430034
vn 0.974764 0.013925 -0.222803
vn -0.974764 -0.013925 0.222803
vn 0.710615 0.219952 -0.668317
vn -0.710615 -0.219952 0.668317
vn 0.376912 0.492293 -0.784592
vn -0.376912 -0.492293 0.784592
vn -0.077850 -0.622799 0.778499
vn 0.077850 0.622799 -0.778499
vn -0.240966 -0.883541 0.401610
vn 0.240966 0.883541 -0.401610
vn 0.013211 -0.686951 0.726583
vn -0.013211 0.686951 -0.726583
vn 0.059462 -0.994238 0.089193
vn -0.059462 0.994238 -0.089193
vn 0.490323 -0.810571 -0.320248
vn -0.490323 0.810571 0.320248
vn 0.872478 -0.486965 -0.040580
vn -0.872478 0.486965 0.040580
vn 0.878900 -0.154401 -0.451327
vn -0.878900 0.154401 0.451327
vn 0.682217 0.134007 -0.718764
vn -0.682217 -0.134007 0.718764
vn -0.270504 -0.229340 0.935003
vn 0.270504 0.229340 -0.935003
vn 0.085575 -0.228199 0.969846
vn -0.085575 0.228199 -0.969846
vn 0.421368 -0.752845 0.505642
vn -0.421368 0.752845 -0.505642
vn 0.064227 -0.994254 0.085636
vn -0.064227 0.994254 -0.085636
vn 0.142148 -0.966608 0.213222
vn -0.142148 0.966608 -0.213222
vn 0.016961 -0.999281 0.033922
vn -0.016961 0.999281 -0.033922
vn 0.741249 -0.667124 0.074125
vn -0.741249 0.667124 -0.074125
vn 0.894427 -0.447214 0.000000
vn -0.894427 0.447214 0.000000
vn 0.880499 -0.047170 -0.471696
vn -0.880499 0.047170 0.471696
vn 0.865496 0.079484 -0.494569
vn -0.865496 -0.079484 0.494569
vn 0.630296 0.175082 -0.756355
vn -0.630296 -0.175082 0.756355
vn 0.267301 0.230851 -0.935552
vn -0.267301 -0.230851 0.935552
vn 0.262976 -0.289273 0.920415
vn -0.262976 0.289273 -0.920415
vn 0.479413 -0.257463 0.838973
vn -0.479413 0.257463 -0.838973
vn 0.610129 -0.302805 0.732155
vn -0.610129 0.302805 -0.732155
vn 0.608404 -0.714848 -0.344727
vn -0.608404 0.714848 0.344727
vn 0.452327 -0.885808 -0.103658
vn -0.452327 0.885808 0.103658
vn 0.022386 -0.999304 0.029849
vn -0.022386 0.999304 -0.029849
vn 0.193247 -0.901819 0.386494
vn -0.193247 0.901819 -0.386494
vn 0.753541 -0.653068 0.075354
vn -0.753541 0.653068 -0.075354
vn 0.907144 0.054429 -0.417286
vn -0.907144 -0.054429 0.417286
vn 0.632140 0.158035 -0.758567
vn -0.632140 -0.158035 0.758567
vn -0.272513 -0.126524 0.953797
vn 0.272513 0.126524 -0.953797
vn 0.270978 -0.164522 0.948422
vn -0.270978 0.164522 -0.948422
vn 0.733882 -0.655506 0.178127
vn -0.733882 0.655506 -0.178127
vn 0.834017 -0.278006 0.476581
vn -0.834017 0.278006 -0.476581
vn 0.410374 -0.892968 -0.184938
vn -0.410374 0.892968 0.184938
vn 0.461695 -0.878347 -0.123869
vn -0.461695 0.878347 0.123869
vn 0.720126 -0.661511 0.209339
vn -0.720126 0.661511 -0.209339
vn -0.501101 -0.767559 0.399688
vn 0.501101 0.767559 -0.399688
vn 0.890871 0.089087 -0.445435
vn -0.890871 -0.089087 0.445435
vn 0.740789 0.219213 -0.634962
vn -0.740789 -0.219213 0.634962
vn 0.571352 0.183649 -0.799893
vn -0.571352 -0.183649 0.799893
vn 0.108658 0.178509 -0.977920
vn -0.108658 -0.178509 0.977920
vn 0.214618 -0.145633 0.965780
vn -0.214618 0.145633 -0.965780
vn 0.572192 -0.175745 0.801068
vn -0.572192 0.175745 -0.801068
vn 0.804794 -0.147819 0.574853
vn -0.804794 0.147819 -0.574853
vn 0.867473 -0.289157 0.404820
vn -0.867473 0.289157 -0.404820
vn 0.854926 -0.174475 0.488529
vn -0.854926 0.174475 -0.488529
vn 0.699589 -0.567130 -0.434671
vn -0.699589 0.567130 0.434671
vn 0.665078 -0.610307 -0.430345
vn -0.665078 0.610307 0.430345
vn 0.865889 -0.489999 -0.100685
vn -0.865889 0.489999 0.100685
vn -0.592105 -0.659136 0.463629
vn 0.592105 0.659136 -0.463629
vn -0.110357 -0.625355 0.772497
vn 0.110357 0.625355 -0.772497
vn 0.875749 0.203299 -0.437874
vn -0.875749 -0.203299 0.437874
vn 0.727863 -0.284578 -0.623883
vn -0.727863 0.284578 0.623883
vn 0.562147 -0.254188 -0.787006
vn -0.562147 0.254188 0.787006
vn -0.105364 0.299455 0.948275
vn 0.105364 -0.299455 -0.948275
vn 0.208213 0.280635 0.936959
vn -0.208213 -0.280635 -0.936959
vn 0.547771 0.334429 0.766880
vn -0.547771 -0.334429 -0.766880
vn 0.759620 0.358578 0.542586
vn -0.759620 -0.358578 -0.542586
vn 0.972387 -0.233373 0.000000
vn -0.972387 0.233373 0.000000
vn 0.982331 -0.152027 0.109148
vn -0.982331 0.152027 -0.109148
vn 0.727349 -0.505066 -0.464621
vn -0.727349 0.505066 0.464621
vn 0.667424 -0.572078 -0.476731
vn -0.667424 0.572078 0.476731
vn 0.868628 -0.470845 -0.154242
vn -0.868628 0.470845 0.154242
vn 0.972152 -0.229536 0.047257
vn -0.972152 0.229536 -0.047257
vn -0.690203 -0.497107 0.525837
vn 0.690203 0.497107 -0.525837
vn -0.059362 -0.633198 0.771710
vn 0.059362 0.633198 -0.771710
vn 0.616205 -0.271130 0.739446
vn -0.616205 0.271130 -0.739446
vn 0.994309 0.106533 0.000000
vn -0.994309 -0.106533 0.000000
vn 0.962056 0.128847 -0.240514
vn -0.962056 -0.128847 0.240514
vn 0.733775 -0.296085 -0.611480
vn -0.733775 0.296085 0.611480
vn 0.595580 -0.283609 -0.751565
vn -0.595580 0.283609 0.751565
vn 0.056455 -0.256613 -0.964864
vn -0.056455 0.256613 0.964864
vn 0.183258 0.296032 0.937434
vn -0.183258 -0.296032 -0.937434
vn 0.596285 0.298142 0.745356
vn -0.596285 -0.298142 -0.745356
vn 0.764515 0.354735 0.538219
vn -0.764515 -0.354735 -0.538219
vn 0.922561 0.349372 0.163768
vn -0.922561 -0.349372 -0.163768
vn 0.984428 -0.175791 0.000000
vn -0.984428 0.175791 0.000000
vn 0.948275 0.299455 0.105364
vn -0.948275 -0.299455 -0.105364
vn 0.803235 -0.223595 -0.552104
vn -0.803235 0.223595 0.552104
vn 0.722965 -0.295758 -0.624379
vn -0.722965 0.295758 0.624379
vn 0.842884 -0.145087 -0.518166
vn -0.842884 0.145087 0.518166
vn 0.910605 -0.135999 -0.390259
vn -0.910605 0.135999 0.390259
vn 0.588955 0.658546 -0.468455
vn -0.588955 -0.658546 0.468455
vn 0.868166 0.013288 0.496095
vn -0.868166 -0.013288 -0.496095
vn 0.975828 0.027106 0.216851
vn -0.975828 -0.027106 -0.216851
vn 0.920756 -0.314995 -0.230189
vn -0.920756 0.314995 0.230189
vn 0.768221 0.000000 -0.640184
vn -0.768221 0.000000 0.640184
vn 0.274721 0.000000 0.961524
vn -0.274721 0.000000 -0.961524
vn 0.868243 0.000000 0.496139
vn -0.868243 0.000000 -0.496139
vn 0.962920 -0.164308 -0.213982
vn -0.962920 0.164308 0.213982
vn 0.927588 0.292923 -0.231897
vn -0.927588 -0.292923 0.231897
vn 0.811166 -0.160661 -0.562315
vn -0.811166 0.160661 0.562315
vn 0.688382 -0.199268 -0.697440
vn -0.688382 0.199268 0.697440
vn 0.841882 -0.147329 -0.519161
vn -0.841882 0.147329 0.519161
vn 0.899338 -0.206481 -0.385431
vn -0.899338 0.206481 0.385431
vn 0.809357 0.031844 -0.586453
vn -0.809357 -0.031844 0.586453
vn 0.510443 0.309912 -0.802124
vn -0.510443 -0.309912 0.802124
vn 0.640017 0.022858 0.768021
vn -0.640017 -0.022858 -0.768021
vn 0.893971 0.031928 0.446986
vn -0.893971 -0.031928 -0.446986
vn 0.910025 -0.361881 0.202228
vn -0.910025 0.361881 -0.202228
vn 0.911291 -0.395692 -0.113911
vn -0.911291 0.395692 0.113911
vn -0.124035 0.000000 0.992278
vn 0.124035 0.000000 -0.992278
vn 0.961524 0.000000 0.274721
vn -0.961524 0.000000 -0.274721
vn 0.970142 0.000000 -0.242536
vn -0.970142 0.000000 0.242536
vn 0.796117 0.159223 -0.583819
vn -0.796117 -0.159223 0.583819
vn 0.816026 -0.048002 -0.576018
vn -0.816026 0.048002 0.576018
vn 0.655406 -0.014248 -0.755142
vn -0.655406 0.014248 0.755142
vn 0.812541 0.042028 -0.581387
vn -0.812541 -0.042028 0.581387
vn -0.519509 -0.321601 0.791633
vn 0.519509 0.321601 -0.791633
vn 0.529904 -0.018925 0.847846
vn -0.529904 0.018925 -0.847846
vn 0.863023 -0.262659 0.431511
vn -0.863023 0.262659 -0.431511
vn 0.964236 -0.257130 0.064282
vn -0.964236 0.257130 -0.064282
vn 0.992278 0.000000 -0.124035
vn -0.992278 0.000000 0.124035
vn 0.733775 0.296085 -0.611480
vn -0.733775 -0.296085 0.611480
vn 0.533807 0.106761 -0.838840
vn -0.533807 -0.106761 0.838840
vn 0.790774 -0.035944 -0.611052
vn -0.790774 0.035944 0.611052
vn 0.796030 -0.099504 -0.597022
vn -0.796030 0.099504 0.597022
vn 0.760833 0.354674 -0.543452
vn -0.760833 -0.354674 0.543452
vn 0.543083 0.083551 -0.835512
vn -0.543083 -0.083551 0.835512
vn -0.144184 0.041196 0.988693
vn 0.144184 -0.041196 -0.988693
vn 0.242527 -0.008662 0.970106
vn -0.242527 0.008662 -0.970106
vn 0.828654 -0.298521 0.473516
vn -0.828654 0.298521 -0.473516
vn 0.731792 0.052271 -0.679521
vn -0.731792 -0.052271 0.679521
vn 0.706207 -0.050443 -0.706207
vn -0.706207 0.050443 0.706207
vn 0.522141 -0.171561 -0.835426
vn -0.522141 0.171561 0.835426
vn 0.552345 0.092057 -0.828517
vn -0.552345 -0.092057 0.828517
vn 0.989950 0.000000 0.141421
vn -0.989950 0.000000 -0.141421
vn 0.674453 -0.061314 -0.735767
vn -0.674453 0.061314 0.735767
vn 0.701536 -0.125274 -0.701536
vn -0.701536 0.125274 0.701536
vn 0.512022 0.258237 -0.819235
vn -0.512022 -0.258237 0.819235
vn -0.316208 0.011293 0.948623
vn 0.316208 -0.011293 -0.948623
vn 0.230189 -0.314995 0.920756
vn -0.230189 0.314995 -0.920756
vn 0.110287 -0.051205 -0.992580
vn -0.110287 0.051205 0.992580
vn 0.119758 0.260343 -0.958060
vn -0.119758 -0.260343 0.958060
vn 0.329158 -0.238356 0.913697
vn -0.329158 0.238356 -0.913697
vn -0.106897 -0.250976 0.962073
vn 0.106897 0.250976 -0.962073
usemtl material-0
f 1//7 2//7 4//7
f 4//8 2//8 1//8
f 3//9 1//9 4//9
f 4//10 1//10 3//10
f 2//13 6//13 4//13
f 4//14 6//14 2//14
f 3//15 4//15 7//15
f 7//16 4//16 3//16
f 2//19 5//19 6//19
f 6//20 5//20 2//20
f 7//21 4//21 10//21
f 10//22 4//22 7//22
f 3//23 7//23 11//23
f 11//24 7//24 3//24
f 8//25 11//25 3//25
f 3//26 11//26 8//26
f 5//27 13//27 6//27
f 6//28 13//28 5//28
f 9//29 6//29 14//29
f 14//30 6//30 9//30
f 10//31 4//31 9//31
f 9//32 4//32 10//32
f 15//33 7//33 10//33
f 10//34 7//34 15//34
f 11//35 15//35 7//35
f 7//36 15//36 11//36
f 16//37 11//37 8//37
f 8//38 11//38 16//38
f 5//39 17//39 13//39
f 13//40 17//40 5//40
f 6//41 13//41 14//41
f 14//42 13//42 6//42
f 9//43 14//43 18//43
f 18//44 14//44 9//44
f 10//45 15//45 20//45
f 20//46 15//46 10//46
f 11//47 21//47 15//47
f 15//48 21//48 11//48
f 16//49 22//49 11//49
f 11//50 22//50 16//50
f 23//51 17//51 12//51
f 12//52 17//52 23//52
f 14//53 13//53 24//53
f 24//54 13//54 14//54
f 9//55 18//55 19//55
f 19//56 18//56 9//56
f 10//57 19//57 20//57
f 20//58 19//58 10//58
f 15//59 26//59 20//59
f 20//60 26//60 15//60
f 22//61 21//61 11//61
f 11//62 21//62 22//62
f 15//63 21//63 26//63
f 26//64 21//64 15//64
f 16//65 27//65 22//65
f 22//66 27//66 16//66
f 23//67 29//67 17//67
f 17//68 29//68 23//68
f 24//69 17//69 30//69
f 30//70 17//70 24//70
f 14//71 24//71 25//71
f 25//72 24//72 14//72
f 18//73 32//73 19//73
f 19//74 32//74 18//74
f 19//75 20//75 33//75
f 33//76 20//76 19//76
f 20//77 26//77 34//77
f 34//78 26//78 20//78
f 21//79 36//79 26//79
f 26//80 36//80 21//80
f 28//81 27//81 16//81
f 16//82 27//82 28//82
f 27//83 35//83 22//83
f 22//84 35//84 27//84
f 23//85 38//85 29//85
f 29//86 38//86 23//86
f 17//87 29//87 30//87
f 30//88 29//88 17//88
f 24//89 30//89 39//89
f 39//90 30//90 24//90
f 24//91 39//91 25//91
f 25//92 39//92 24//92
f 25//93 40//93 31//93
f 31//94 40//94 25//94
f 18//95 31//95 32//95
f 32//96 31//96 18//96
f 19//97 32//97 33//97
f 33//98 32//98 19//98
f 20//99 34//99 33//99
f 33//100 34//100 20//100
f 26//101 41//101 34//101
f 34//102 41//102 26//102
f 35//79 36//79 21//79
f 21//80 36//80 35//80
f 26//103 36//103 41//103
f 41//104 36//104 26//104
f 42//105 27//105 28//105
f 28//106 27//106 42//106
f 27//107 43//107 35//107
f 35//108 43//108 27//108
f 37//109 38//109 23//109
f 23//110 38//110 37//110
f 38//111 44//111 29//111
f 29//112 44//112 38//112
f 29//113 44//113 30//113
f 30//114 44//114 29//114
f 25//115 39//115 40//115
f 40//116 39//116 25//116
f 31//117 46//117 32//117
f 32//118 46//118 31//118
f 32//119 33//119 47//119
f 47//120 33//120 32//120
f 33//121 34//121 48//121
f 48//122 34//122 33//122
f 35//123 50//123 36//123
f 36//124 50//124 35//124
f 36//125 51//125 41//125
f 41//126 51//126 36//126
f 42//127 52//127 27//127
f 27//128 52//128 42//128
f 52//129 43//129 27//129
f 27//130 43//130 52//130
f 35//131 43//131 50//131
f 50//132 43//132 35//132
f 37//133 54//133 38//133
f 38//134 54//134 37//134
f 39//135 56//135 40//135
f 40//136 56//136 39//136
f 40//137 57//137 45//137
f 45//138 57//138 40//138
f 45//139 46//139 31//139
f 31//140 46//140 45//140
f 46//141 47//141 32//141
f 32//142 47//142 46//142
f 33//143 48//143 47//143
f 47//144 48//144 33//144
f 34//145 49//145 48//145
f 48//146 49//146 34//146
f 41//147 58//147 49//147
f 49//148 58//148 41//148
f 36//149 50//149 51//149
f 51//150 50//150 36//150
f 51//151 58//151 41//151
f 41//152 58//152 51//152
f 42//153 59//153 52//153
f 52//154 59//154 42//154
f 52//155 61//155 43//155
f 43//156 61//156 52//156
f 43//157 62//157 50//157
f 50//158 62//158 43//158
f 53//159 54//159 37//159
f 37//160 54//160 53//160
f 38//161 54//161 55//161
f 55//162 54//162 38//162
f 56//163 57//163 40//163
f 40//164 57//164 56//164
f 57//165 65//165 45//165
f 45//166 65//166 57//166
f 45//167 66//167 46//167
f 46//168 66//168 45//168
f 46//169 47//169 67//169
f 67//170 47//170 46//170
f 47//171 48//171 68//171
f 68//172 48//172 47//172
f 48//173 49//173 69//173
f 69//174 49//174 48//174
f 58//175 70//175 49//175
f 49//176 70//176 58//176
f 50//177 71//177 51//177
f 51//178 71//178 50//178
f 51//179 72//179 58//179
f 58//180 72//180 51//180
f 42//181 60//181 59//181
f 59//182 60//182 42//182
f 52//183 59//183 61//183
f 61//184 59//184 52//184
f 43//185 61//185 62//185
f 62//186 61//186 43//186
f 50//187 62//187 71//187
f 71//188 62//188 50//188
f 73//189 54//189 53//189
f 53//190 54//190 73//190
f 54//191 74//191 55//191
f 55//192 74//192 54//192
f 64//195 76//195 56//195
f 56//196 76//196 64//196
f 56//197 76//197 57//197
f 57//198 76//198 56//198
f 57//199 77//199 65//199
f 65//200 77//200 57//200
f 45//201 65//201 66//201
f 66//202 65//202 45//202
f 46//203 66//203 67//203
f 67//204 66//204 46//204
f 47//205 68//205 67//205
f 67//206 68//206 47//206
f 68//207 48//207 69//207
f 69//208 48//208 68//208
f 49//209 70//209 69//209
f 69//210 70//210 49//210
f 58//211 78//211 70//211
f 70//212 78//212 58//212
f 71//213 72//213 51//213
f 51//214 72//214 71//214
f 72//215 78//215 58//215
f 58//216 78//216 72//216
f 60//217 79//217 59//217
f 59//218 79//218 60//218
f 59//219 80//219 61//219
f 61//220 80//220 59//220
f 61//221 81//221 62//221
f 62//222 81//222 61//222
f 62//223 82//223 71//223
f 71//224 82//224 62//224
f 73//225 54//225 83//225
f 83//226 54//226 73//226
f 63//193 75//193 85//193
f 85//194 75//194 63//194
f 63//227 86//227 64//227
f 64//228 86//228 63//228
f 64//229 86//229 76//229
f 76//230 86//230 64//230
f 76//231 77//231 57//231
f 57//232 77//232 76//232
f 77//233 87//233 65//233
f 65//234 87//234 77//234
f 87//2 66//2 65//2
f 65//1 66//1 87//1
f 65//1 88//1 66//1
f 66//2 88//2 65//2
f 67//235 68//235 89//235
f 89//236 68//236 67//236
f 67//235 90//235 68//235
f 68//236 90//236 67//236
f 92//237 70//237 69//237
f 69//238 70//238 92//238
f 71//239 93//239 72//239
f 72//240 93//240 71//240
f 72//241 94//241 78//241
f 78//242 94//242 72//242
f 79//243 95//243 59//243
f 59//244 95//244 79//244
f 95//245 80//245 59//245
f 59//246 80//246 95//246
f 62//247 81//247 82//247
f 82//248 81//248 62//248
f 82//249 93//249 71//249
f 71//250 93//250 82//250
f 73//251 83//251 96//251
f 96//252 83//252 73//252
f 83//253 74//253 97//253
f 97//254 74//254 83//254
f 99//255 63//255 85//255
f 85//256 63//256 99//256
f 63//257 99//257 86//257
f 86//258 99//258 63//258
f 86//259 100//259 76//259
f 76//260 100//260 86//260
f 76//261 100//261 77//261
f 77//262 100//262 76//262
f 77//233 101//233 87//233
f 87//234 101//234 77//234
f 88//263 89//263 66//263
f 66//264 89//264 88//264
f 88//263 67//263 89//263
f 89//264 67//264 88//264
f 90//3 91//3 68//3
f 68//4 91//4 90//4
f 90//3 69//3 91//3
f 91//4 69//4 90//4
f 92//265 102//265 70//265
f 70//266 102//266 92//266
f 93//17 94//17 72//17
f 72//18 94//18 93//18
f 94//267 103//267 78//267
f 78//268 103//268 94//268
f 79//269 96//269 95//269
f 95//270 96//270 79//270
f 80//271 105//271 81//271
f 81//272 105//272 80//272
f 83//273 97//273 96//273
f 96//274 97//274 83//274
f 79//275 84//275 96//275
f 96//276 84//276 79//276
f 74//277 97//277 98//277
f 98//278 97//278 74//278
f 99//279 85//279 109//279
f 109//280 85//280 99//280
f 99//281 110//281 86//281
f 86//282 110//282 99//282
f 86//283 110//283 100//283
f 100//284 110//284 86//284
f 100//285 101//285 77//285
f 77//286 101//286 100//286
f 78//265 102//265 92//265
f 92//266 102//266 78//266
f 93//287 111//287 94//287
f 94//288 111//288 93//288
f 94//233 112//233 103//233
f 103//234 112//234 94//234
f 78//267 103//267 102//267
f 102//268 103//268 78//268
f 96//289 104//289 95//289
f 95//290 104//290 96//290
f 80//291 104//291 105//291
f 105//292 104//292 80//292
f 81//293 105//293 106//293
f 106//294 105//294 81//294
f 107//295 111//295 93//295
f 93//296 111//296 107//296
f 96//297 97//297 104//297
f 104//298 97//298 96//298
f 98//299 113//299 108//299
f 108//300 113//300 98//300
f 85//301 108//301 109//301
f 109//302 108//302 85//302
f 99//5 109//5 114//5
f 114//6 109//6 99//6
f 99//303 114//303 110//303
f 110//304 114//304 99//304
f 111//233 112//233 94//233
f 94//234 112//234 111//234
f 104//305 113//305 105//305
f 105//306 113//306 104//306
f 116//307 106//307 105//307
f 105//308 106//308 116//308
f 117//309 107//309 106//309
f 106//310 107//310 117//310
f 118//11 111//11 107//11
f 107//12 111//12 118//12
f 97//311 113//311 104//311
f 104//312 113//312 97//312
f 109//301 108//301 119//301
f 119//302 108//302 109//302
f 121//237 114//237 110//237
f 110//238 114//238 121//238
f 122//313 115//313 100//313
f 100//314 115//314 122//314
f 118//2 112//2 111//2
f 111//1 112//1 118//1
f 113//315 116//315 105//315
f 105//316 116//316 113//316
f 116//317 117//317 106//317
f 106//318 117//318 116//318
f 118//319 107//319 117//319
f 117//320 107//320 118//320
f 123//1 111//1 118//1
f 118//2 111//2 123//2
f 108//321 116//321 119//321
f 119//322 116//322 108//322
f 109//323 119//323 120//323
f 120//324 119//324 109//324
f 114//3 120//3 124//3
f 124//4 120//4 114//4
f 114//4 120//4 121//4
f 121//3 120//3 114//3
f 121//237 110//237 122//237
f 122//238 110//238 121//238
f 122//313 110//313 115//313
f 115//314 110//314 122//314
f 119//325 117//325 116//325
f 116//326 117//326 119//326
f 125//327 118//327 117//327
f 117//328 118//328 125//328
f 125//263 123//263 118//263
f 118//264 123//264 125//264
f 120//329 119//329 125//329
f 125//330 119//330 120//330
f 120//235 126//235 124//235
f 124//236 126//236 120//236
f 119//331 117//331 125//331
f 125//332 117//332 119//332
f 126//263 123//263 125//263
f 125//264 123//264 126//264
f 124//235 126//235 125//235
f 125//236 126//236 124//236