# SSTK version 0.8.0
# 35
mtllib original-35.mtl
o mesh32/mesh32-geometry#mesh32-geometry
v -0.233746 0.491911 -0.456644
v -0.233746 0.492004 -0.453085
v -0.237138 0.503191 -0.455159
v -0.224867 0.484939 -0.457562
v -0.233746 0.492922 -0.460057
v -0.224867 0.485089 -0.451804
v -0.224867 0.486575 -0.463084
v -0.233746 0.494938 -0.462991
v -0.213891 0.484939 -0.457562
v -0.213891 0.486575 -0.463084
v -0.224867 0.489837 -0.467831
v -0.233746 0.497762 -0.465158
v -0.213891 0.485089 -0.451804
v -0.213891 0.489837 -0.467831
v -0.224867 0.494407 -0.471338
v -0.233746 0.501118 -0.466346
v -0.205011 0.491911 -0.456644
v -0.205011 0.492922 -0.460057
v -0.205011 0.494938 -0.462991
v -0.213891 0.494407 -0.471338
v -0.224867 0.499836 -0.473260
v -0.233746 0.504676 -0.466439
v -0.205011 0.492004 -0.453085
v -0.205011 0.497762 -0.465158
v -0.213891 0.499836 -0.473260
v -0.224867 0.505594 -0.473411
v -0.233746 0.508090 -0.465428
v -0.201619 0.503191 -0.455159
v -0.205011 0.501118 -0.466346
v -0.213891 0.505594 -0.473411
v -0.224867 0.511117 -0.471775
v -0.233746 0.511023 -0.463412
v -0.205011 0.504676 -0.466439
v -0.213891 0.511117 -0.471775
v -0.233746 0.513191 -0.460588
v -0.224867 0.515864 -0.468513
v -0.205011 0.508090 -0.465428
v -0.213891 0.515864 -0.468513
v -0.233746 0.514379 -0.457232
v -0.224867 0.519370 -0.463943
v -0.205011 0.511023 -0.463412
v -0.224867 0.521293 -0.458514
v -0.213891 0.519370 -0.463943
v -0.205011 0.513191 -0.460588
v -0.213891 0.521293 -0.458514
v -0.205011 0.514379 -0.457232
vn -0.9573490099937664 -0.2888350030151486 0.007564000078960533
vn 0.9573490099937664 0.2888350030151486 -0.007564000078960533
vn -0.6160999858158382 -0.7873979818721303 0.020620999525252873
vn 0.6160999858158382 0.7873979818721303 -0.020620999525252873
vn -0.9573483374538603 -0.2770360976519172 -0.08206802892800054
vn 0.9573483374538603 0.2770360976519172 0.08206802892800054
vn -0.6160999731109333 -0.7873979656348039 0.020621999099973316
vn 0.6160999731109333 0.7873979656348039 -0.020621999099973316
vn -0.6161011651487119 -0.7552332024436856 -0.22370105996408401
vn 0.6161011651487119 0.7552332024436856 0.22370105996408401
vn -0.6161096276616523 -0.7552195435922693 -0.223723864795208
vn 0.6161096276616523 0.7552195435922693 0.223723864795208
vn -0.9573483696892392 -0.23812409195389803 -0.16364906319465267
vn 0.9573483696892392 0.23812409195389803 0.16364906319465267
vn 0 -0.9996572187200251 0.026181005728273553
vn 0 0.9996572187200251 -0.026181005728273553
vn 0 -0.9588230875669196 -0.2840040259373791
vn 0 0.9588230875669196 0.2840040259373791
vn -0.61610806022549 -0.649128063453245 -0.4461430436111541
vn 0.61610806022549 0.649128063453245 0.4461430436111541
vn -0.6160990253749631 -0.6491490267361769 -0.44612501837432866
vn 0.6160990253749631 0.6491490267361769 0.44612501837432866
vn -0.9573482665023393 -0.17588904896320867 -0.22923206381259925
vn 0.9573482665023393 0.17588904896320867 0.22923206381259925
vn 0 -0.8241201126469254 -0.5664150774218664
vn 0 0.8241201126469254 0.5664150774218664
vn -0.6161000470044307 -0.47950303658296617 -0.624898047675661
vn 0.6161000470044307 0.47950303658296617 0.624898047675661
vn -0.6161051807594335 -0.4794871406769925 -0.6249051833412712
vn 0.6161051807594335 0.4794871406769925 0.6249051833412712
vn -0.9573477660103531 -0.09644997642623007 -0.2723649334300692
vn 0.9573477660103531 0.09644997642623007 0.2723649334300692
vn 0.61609824715125 -0.7873993158696295 0.020622008272633524
vn -0.61609824715125 0.7873993158696295 -0.020622008272633524
vn 0.61610593877848 -0.7552299249539388 -0.22369897777136938
vn -0.61610593877848 0.7552299249539388 0.22369897777136938
vn 0.6160989773996416 -0.6491339761878187 -0.4461469836339907
vn -0.6160989773996416 0.6491339761878187 0.4461469836339907
vn 0 -0.6087619527439421 -0.7933529384147907
vn 0 0.6087619527439421 0.7933529384147907
vn -0.6161057967045279 -0.2629259132427449 -0.7424847550034596
vn 0.6161057967045279 0.2629259132427449 0.7424847550034596
vn -0.6161043653586225 -0.2629301559213095 -0.7424844403037986
vn 0.6161043653586225 0.2629301559213095 0.7424844403037986
vn -0.9573478204393809 -0.007563998581292713 -0.28883894582522796
vn 0.9573478204393809 0.007563998581292713 0.28883894582522796
vn 0.6160998968685825 -0.7873978681943323 0.02062799654699726
vn -0.6160998968685825 0.7873978681943323 -0.02062799654699726
vn 0.6160970989063879 -0.7552291212422271 -0.22372603591630966
vn -0.6160970989063879 0.7552291212422271 0.22372603591630966
vn 0.6161081082027638 -0.6491431140044711 -0.44612107834912923
vn -0.6161081082027638 0.6491431140044711 0.44612107834912923
vn 0.616099462744471 -0.47951236015563525 -0.6248914693480355
vn -0.616099462744471 0.47951236015563525 0.6248914693480355
vn 0.6160951990446805 -0.4795051549159131 -0.6249012018896761
vn -0.6160951990446805 0.4795051549159131 0.6249012018896761
vn 0 -0.33380504703497016 -0.9426421328234704
vn 0 0.33380504703497016 0.9426421328234704
vn -0.6161039228385333 -0.02062099741740565 -0.7873949013858812
vn 0.6161039228385333 0.02062099741740565 0.7873949013858812
vn -0.9573477774884687 0.08206498092604908 -0.2770389356092329
vn 0.9573477774884687 -0.08206498092604908 0.2770389356092329
vn 0.9573495667927177 -0.2888328693011344 0.0075749965722617385
vn -0.9573495667927177 0.2888328693011344 -0.0075749965722617385
vn 0.9573492951608854 -0.2770330854122222 -0.08206702530212956
vn -0.9573492951608854 0.2770330854122222 0.08206702530212956
vn 0.9573492937406567 -0.23812107306198563 -0.16364805021164802
vn -0.9573492937406567 0.23812107306198563 0.16364805021164802
vn 0.9573497860227731 -0.17589396068594515 -0.22922194876660795
vn -0.9573497860227731 0.17589396068594515 0.22922194876660795
vn 0.6160942151459903 -0.2629120918114159 -0.7424992592878403
vn -0.6160942151459903 0.2629120918114159 0.7424992592878403
vn 0.6160999204291602 -0.2629279660421979 -0.7424889041057081
vn -0.6160999204291602 0.2629279660421979 0.7424889041057081
vn 0 -0.026180006413460723 -0.9996572448915634
vn 0 0.026180006413460723 0.9996572448915634
vn -0.6161048364990444 0.2237159406306073 -0.7552257995793367
vn 0.6161048364990444 -0.2237159406306073 0.7552257995793367
vn -0.9573479850514899 0.16364999744468717 -0.23812499628179723
vn 0.9573479850514899 -0.16364999744468717 0.23812499628179723
vn -0.6161041642798846 0.2237130596515295 -0.7552272013760736
vn 0.6161041642798846 -0.2237130596515295 0.7552272013760736
vn 0.9573494627225291 -0.09644104661353735 -0.27236213164272743
vn -0.9573494627225291 0.09644104661353735 0.27236213164272743
vn 0.6161022095918464 -0.020620007014721206 -0.7873962678643819
vn -0.6161022095918464 0.020620007014721206 0.7873962678643819
vn 0.6161028173052103 -0.020620993885195556 -0.7873957665112058
vn -0.6161028173052103 0.020620993885195556 0.7873957665112058
vn 0 0.28402404657071695 -0.9588171572148652
vn 0 -0.28402404657071695 0.9588171572148652
vn -0.9573480829154425 0.22922901985341168 -0.17589401523409331
vn 0.9573480829154425 -0.22922901985341168 0.17589401523409331
vn -0.6160950690011113 0.44612604996500527 -0.6491520727034131
vn 0.6160950690011113 -0.44612604996500527 0.6491520727034131
vn -0.616104228962549 0.4461451658007358 -0.6491302412359916
vn 0.616104228962549 -0.4461451658007358 0.6491302412359916
vn 0.9573487334775005 -0.00756399789420969 -0.2888359195891021
vn -0.9573487334775005 0.00756399789420969 0.2888359195891021
vn 0.6161030443332364 0.2237200160983338 -0.7552260543441807
vn -0.6161030443332364 -0.2237200160983338 0.7552260543441807
vn 0.6161048364990444 0.2237159406306073 -0.7552257995793367
vn -0.6161048364990444 -0.2237159406306073 0.7552257995793367
vn 0 0.5664150774218664 -0.8241201126469254
vn 0 -0.5664150774218664 0.8241201126469254
vn -0.9573482875046581 0.27236308179432267 -0.09645002896525007
vn 0.9573482875046581 -0.27236308179432267 0.09645002896525007
vn -0.6160936027771662 0.6249015970982621 -0.4795066908407979
vn 0.6160936027771662 -0.6249015970982621 0.4795066908407979
vn -0.6160968782426343 0.6249058765017386 -0.4794969052384743
vn 0.6160968782426343 -0.6249058765017386 0.4794969052384743
vn 0.9573481312500445 0.08207401125214259 -0.2770350379808137
vn -0.9573481312500445 -0.08207401125214259 0.2770350379808137
vn 0.6161060674938074 0.4461210488721177 -0.6491450711131972
vn -0.6161060674938074 -0.4461210488721177 0.6491450711131972
vn 0.6160970617520277 0.44614804471786706 -0.6491350650634599
vn -0.6160970617520277 -0.44614804471786706 0.6491350650634599
vn -0.6161012652251827 0.7424863196326335 -0.26293211318953813
vn 0.6161012652251827 -0.7424863196326335 0.26293211318953813
vn -0.6160952176094899 0.7424842622510565 -0.2629520928766676
vn 0.6160952176094899 -0.7424842622510565 0.2629520928766676
vn 0 0.7933590256266873 -0.6087540196636682
vn 0 -0.7933590256266873 0.6087540196636682
vn 0.9573479850514899 0.16364999744468717 -0.23812499628179723
vn -0.9573479850514899 -0.16364999744468717 0.23812499628179723
vn 0.6160969944831595 0.6249079944042615 -0.47949399570637086
vn -0.6160969944831595 -0.6249079944042615 0.47949399570637086
vn 0 0.9426318930207126 -0.33383396211318556
vn 0 -0.9426318930207126 0.33383396211318556
vn 0.6160978836690246 0.6249048820060963 -0.47949690946188145
vn -0.6160978836690246 -0.6249048820060963 0.47949690946188145
vn 0.9573479297263564 0.22923198317334154 -0.17589098708881046
vn -0.9573479297263564 -0.22923198317334154 0.17589098708881046
vn 0.6160998540576677 0.7424808241204207 -0.2629509377119261
vn -0.6160998540576677 -0.7424808241204207 0.2629509377119261
vn 0.616098804760168 0.7424827647094767 -0.26294791667260714
vn -0.616098804760168 -0.7424827647094767 0.26294791667260714
vn 0.9573482549605425 0.27236107253507436 -0.09645602568812389
vn -0.9573482549605425 -0.27236107253507436 0.09645602568812389
usemtl material_0_0
f 1//1 2//1 3//1
f 3//2 2//2 1//2
f 4//3 2//3 1//3
f 1//4 2//4 4//4
f 5//5 1//5 3//5
f 3//6 1//6 5//6
f 6//7 2//7 4//7
f 4//8 2//8 6//8
f 4//9 1//9 7//9
f 7//10 1//10 4//10
f 7//11 1//11 5//11
f 5//12 1//12 7//12
f 8//13 5//13 3//13
f 3//14 5//14 8//14
f 9//15 6//15 4//15
f 4//16 6//16 9//16
f 10//17 4//17 7//17
f 7//18 4//18 10//18
f 7//19 5//19 11//19
f 11//20 5//20 7//20
f 11//21 5//21 8//21
f 8//22 5//22 11//22
f 12//23 8//23 3//23
f 3//24 8//24 12//24
f 13//15 6//15 9//15
f 9//16 6//16 13//16
f 10//17 9//17 4//17
f 4//18 9//18 10//18
f 10//25 7//25 14//25
f 14//26 7//26 10//26
f 14//25 7//25 11//25
f 11//26 7//26 14//26
f 8//27 15//27 11//27
f 11//28 15//28 8//28
f 12//29 15//29 8//29
f 8//30 15//30 12//30
f 16//31 12//31 3//31
f 3//32 12//32 16//32
f 17//33 13//33 9//33
f 9//34 13//34 17//34
f 18//35 9//35 10//35
f 10//36 9//36 18//36
f 19//37 10//37 14//37
f 14//38 10//38 19//38
f 20//39 14//39 11//39
f 11//40 14//40 20//40
f 20//39 11//39 15//39
f 15//40 11//40 20//40
f 21//41 15//41 12//41
f 12//42 15//42 21//42
f 16//43 21//43 12//43
f 12//44 21//44 16//44
f 22//45 16//45 3//45
f 3//46 16//46 22//46
f 17//47 23//47 13//47
f 13//48 23//48 17//48
f 17//49 9//49 18//49
f 18//50 9//50 17//50
f 18//51 10//51 19//51
f 19//52 10//52 18//52
f 24//53 19//53 14//53
f 14//54 19//54 24//54
f 24//55 14//55 20//55
f 20//56 14//56 24//56
f 25//57 20//57 15//57
f 15//58 20//58 25//58
f 25//57 15//57 21//57
f 21//58 15//58 25//58
f 26//59 21//59 16//59
f 16//60 21//60 26//60
f 26//59 16//59 22//59
f 22//60 16//60 26//60
f 22//61 3//61 27//61
f 27//62 3//62 22//62
f 17//63 28//63 23//63
f 23//64 28//64 17//64
f 18//65 28//65 17//65
f 17//66 28//66 18//66
f 19//67 28//67 18//67
f 18//68 28//68 19//68
f 24//69 28//69 19//69
f 19//70 28//70 24//70
f 29//71 24//71 20//71
f 20//72 24//72 29//72
f 29//73 20//73 25//73
f 25//74 20//74 29//74
f 30//75 25//75 21//75
f 21//76 25//76 30//76
f 30//75 21//75 26//75
f 26//76 21//76 30//76
f 31//77 26//77 22//77
f 22//78 26//78 31//78
f 27//79 3//79 32//79
f 32//80 3//80 27//80
f 31//81 22//81 27//81
f 27//82 22//82 31//82
f 29//83 28//83 24//83
f 24//84 28//84 29//84
f 33//85 29//85 25//85
f 25//86 29//86 33//86
f 30//87 33//87 25//87
f 25//88 33//88 30//88
f 34//89 30//89 26//89
f 26//90 30//90 34//90
f 31//89 34//89 26//89
f 26//90 34//90 31//90
f 32//91 3//91 35//91
f 35//92 3//92 32//92
f 36//93 27//93 32//93
f 32//94 27//94 36//94
f 36//95 31//95 27//95
f 27//96 31//96 36//96
f 33//97 28//97 29//97
f 29//98 28//98 33//98
f 37//99 33//99 30//99
f 30//100 33//100 37//100
f 34//101 37//101 30//101
f 30//102 37//102 34//102
f 38//103 34//103 31//103
f 31//104 34//104 38//104
f 35//105 3//105 39//105
f 39//106 3//106 35//106
f 40//107 32//107 35//107
f 35//108 32//108 40//108
f 36//109 32//109 40//109
f 40//110 32//110 36//110
f 38//103 31//103 36//103
f 36//104 31//104 38//104
f 33//111 37//111 28//111
f 28//112 37//112 33//112
f 34//113 41//113 37//113
f 37//114 41//114 34//114
f 38//115 41//115 34//115
f 34//116 41//116 38//116
f 42//117 35//117 39//117
f 39//118 35//118 42//118
f 42//119 40//119 35//119
f 35//120 40//120 42//120
f 43//121 36//121 40//121
f 40//122 36//122 43//122
f 43//121 38//121 36//121
f 36//122 38//122 43//122
f 37//123 41//123 28//123
f 28//124 41//124 37//124
f 44//125 41//125 38//125
f 38//126 41//126 44//126
f 45//127 40//127 42//127
f 42//128 40//128 45//128
f 43//127 40//127 45//127
f 45//128 40//128 43//128
f 44//129 38//129 43//129
f 43//130 38//130 44//130
f 41//131 44//131 28//131
f 28//132 44//132 41//132
f 46//133 43//133 45//133
f 45//134 43//134 46//134
f 46//135 44//135 43//135
f 43//136 44//136 46//136
f 44//137 46//137 28//137
f 28//138 46//138 44//138
