# SSTK version 0.8.0
# 11
mtllib original-11.mtl
o mesh9/mesh9-geometry#mesh9-geometry
v 0.289690 -0.738324 -0.209206
v 0.289690 -0.821987 -0.209206
v 0.300148 -0.738324 -0.223585
v 0.280539 -0.815451 -0.197441
v 0.300148 -0.821987 -0.223585
v 0.343286 -0.738324 -0.190904
v 0.280539 -0.744860 -0.197441
v 0.324985 -0.815451 -0.164760
v 0.334136 -0.821987 -0.177832
v 0.307991 -0.744860 -0.235350
v 0.334136 -0.738324 -0.177832
v 0.352437 -0.744860 -0.203977
v 0.274003 -0.803686 -0.188290
v 0.317142 -0.803686 -0.155609
v 0.343286 -0.821987 -0.190904
v 0.307991 -0.815451 -0.235350
v 0.352437 -0.815451 -0.203977
v 0.324985 -0.744860 -0.164760
v 0.274003 -0.756625 -0.188290
v 0.317142 -0.756625 -0.155609
v 0.315834 -0.756625 -0.244501
v 0.358973 -0.756625 -0.213127
v 0.358973 -0.803686 -0.213127
v 0.270081 -0.787999 -0.183061
v 0.314527 -0.787999 -0.150380
v 0.314527 -0.772312 -0.150380
v 0.315834 -0.803686 -0.244501
v 0.270081 -0.772312 -0.183061
v 0.319756 -0.787999 -0.249730
v 0.362895 -0.772312 -0.218356
v 0.362895 -0.787999 -0.218356
v 0.319756 -0.772312 -0.249730
vn 0.8087359113301996 0 0.5881719355128323
vn -0.8087359113301996 0 -0.5881719355128323
vn 0.7893519481454991 0 0.6139409596686847
vn -0.7893519481454991 0 -0.6139409596686847
vn 0 -1 0
vn 0 1 0
vn 0.23798300027677413 0.9157570010650254 -0.32365600037641173
vn -0.23798300027677413 -0.9157570010650254 0.32365600037641173
vn 0.8320502943378438 0 0.5547001962252289
vn -0.8320502943378438 0 -0.5547001962252289
vn -0.22903012564321296 -0.9252825075990195 0.3023201658492604
vn 0.22903012564321296 0.9252825075990195 -0.3023201658492604
vn 0.2318109801536196 -0.9156519216069218 -0.3283979718843733
vn -0.2318109801536196 0.9156519216069218 0.3283979718843733
vn 0.8137337414768315 0 0.5812378153407752
vn -0.8137337414768315 0 -0.5812378153407752
vn 0.21859288983423886 0.9253755336321322 -0.30967284393204825
vn -0.21859288983423886 -0.9253755336321322 0.30967284393204825
vn 0.4143959533174696 0.7146019194986692 -0.563577936511822
vn -0.4143959533174696 -0.7146019194986692 0.563577936511822
vn -0.24204194153755942 -0.9076567807659691 0.3428919171784104
vn 0.24204194153755942 0.9076567807659691 -0.3428919171784104
vn -0.8192321084384846 0 -0.573462075906886
vn 0.8192321084384846 0 0.573462075906886
vn 0.22459692105486986 -0.9253406747455859 -0.30545189263459527
vn -0.22459692105486986 0.9253406747455859 0.30545189263459527
vn 0.4366091369149707 0.6908132166300781 -0.5763241807277991
vn -0.4366091369149707 -0.6908132166300781 0.5763241807277991
vn -0.7592569553063407 0 -0.650790961691191
vn 0.7592569553063407 0 0.650790961691191
vn -0.25375306937495673 0.907422248085193 0.33495409157495415
vn 0.25375306937495673 -0.907422248085193 -0.33495409157495415
vn -0.41688599473889865 -0.6909499912802112 0.5905879925467795
vn 0.41688599473889865 0.6909499912802112 -0.5905879925467795
vn -0.8137334036391285 0 -0.5812382883137338
vn 0.8137334036391285 0 0.5812382883137338
vn 0.4282571228389353 -0.6909211981800649 -0.5824291670608032
vn -0.4282571228389353 0.6909211981800649 0.5824291670608032
vn 0.8000000000000002 0 0.5999999999999998
vn -0.8000000000000002 0 -0.5999999999999998
vn 0.5670069941104984 0.343984996427028 -0.74844999222585
vn -0.5670069941104984 -0.343984996427028 0.74844999222585
vn -0.8944269909998286 0 -0.447213995499909
vn 0.8944269909998286 0 0.447213995499909
vn -0.2185928898342389 0.9253755336321322 0.30967284393204875
vn 0.2185928898342389 -0.9253755336321322 -0.30967284393204875
vn -0.4115289473302651 -0.7144609085593693 0.5658529275790347
vn 0.4115289473302651 0.7144609085593693 -0.5658529275790347
vn -0.4251951971124603 0.6909423203078059 0.5846432710295754
vn 0.4251951971124603 -0.6909423203078059 -0.5846432710295754
vn 0.4222088380540202 -0.7149397257716942 -0.557315786231261
vn -0.4222088380540202 0.7149397257716942 0.557315786231261
vn 0.5468257244092003 0.384600806167781 -0.7436826251966939
vn -0.5468257244092003 -0.384600806167781 0.7436826251966939
vn 0.5560709137331111 -0.34476394651453196 -0.7562558826771185
vn -0.5560709137331111 0.34476394651453196 0.7562558826771185
vn -0.40374483149531276 0.7140297019965528 0.5719717612850616
vn 0.40374483149531276 -0.7140297019965528 -0.5719717612850616
vn -0.542935928891686 -0.3845799496315675 0.7465379022259375
vn 0.542935928891686 0.3845799496315675 -0.7465379022259375
vn -0.5429359288916858 0.3845799496315671 0.7465379022259375
vn 0.5429359288916858 -0.3845799496315671 -0.7465379022259375
vn 0.557407775406796 -0.3846118450304957 -0.7357787035367938
vn -0.557407775406796 0.3846118450304957 0.7357787035367938
vn 0.5923901641214213 0 -0.8056512232052997
vn -0.5923901641214213 0 0.8056512232052997
vn -0.5881719355128323 0 0.8087359113301996
vn 0.5881719355128323 0 -0.8087359113301996
usemtl material_0_0
f 1//1 2//1 3//1
f 3//2 2//2 1//2
f 1//3 4//3 2//3
f 2//4 4//4 1//4
f 3//1 2//1 5//1
f 5//2 2//2 3//2
f 6//5 1//5 3//5
f 3//6 1//6 6//6
f 1//3 7//3 4//3
f 4//4 7//4 1//4
f 8//7 2//7 4//7
f 4//8 2//8 8//8
f 9//6 5//6 2//6
f 2//5 5//5 9//5
f 3//9 5//9 10//9
f 10//10 5//10 3//10
f 11//5 1//5 6//5
f 6//6 1//6 11//6
f 6//11 3//11 12//11
f 12//12 3//12 6//12
f 11//13 7//13 1//13
f 1//14 7//14 11//14
f 7//15 13//15 4//15
f 4//16 13//16 7//16
f 8//17 9//17 2//17
f 2//18 9//18 8//18
f 14//19 8//19 4//19
f 4//20 8//20 14//20
f 9//6 15//6 5//6
f 5//5 15//5 9//5
f 10//9 5//9 16//9
f 16//10 5//10 10//10
f 12//21 3//21 10//21
f 10//22 3//22 12//22
f 6//23 15//23 11//23
f 11//24 15//24 6//24
f 6//23 12//23 17//23
f 17//24 12//24 6//24
f 18//25 7//25 11//25
f 11//26 7//26 18//26
f 7//15 19//15 13//15
f 13//16 19//16 7//16
f 14//27 4//27 13//27
f 13//28 4//28 14//28
f 18//23 9//23 8//23
f 8//24 9//24 18//24
f 20//29 8//29 14//29
f 14//30 8//30 20//30
f 11//23 15//23 9//23
f 9//24 15//24 11//24
f 15//31 16//31 5//31
f 5//32 16//32 15//32
f 10//30 16//30 21//30
f 21//29 16//29 10//29
f 12//33 10//33 22//33
f 22//34 10//34 12//34
f 6//23 17//23 15//23
f 15//24 17//24 6//24
f 12//35 23//35 17//35
f 17//36 23//36 12//36
f 18//37 19//37 7//37
f 7//38 19//38 18//38
f 11//23 9//23 18//23
f 18//24 9//24 11//24
f 19//39 24//39 13//39
f 13//40 24//40 19//40
f 14//41 13//41 25//41
f 25//42 13//42 14//42
f 18//29 8//29 20//29
f 20//30 8//30 18//30
f 20//43 14//43 26//43
f 26//44 14//44 20//44
f 15//45 17//45 16//45
f 16//46 17//46 15//46
f 21//30 16//30 27//30
f 27//29 16//29 21//29
f 22//47 10//47 21//47
f 21//48 10//48 22//48
f 12//35 22//35 23//35
f 23//36 22//36 12//36
f 17//49 23//49 27//49
f 27//50 23//50 17//50
f 20//51 19//51 18//51
f 18//52 19//52 20//52
f 19//39 28//39 24//39
f 24//40 28//40 19//40
f 25//53 13//53 24//53
f 24//54 13//54 25//54
f 26//43 14//43 25//43
f 25//44 14//44 26//44
f 20//55 26//55 28//55
f 28//56 26//56 20//56
f 17//57 27//57 16//57
f 16//58 27//58 17//58
f 21//39 27//39 29//39
f 29//40 27//40 21//40
f 30//59 22//59 21//59
f 21//60 22//60 30//60
f 22//40 31//40 23//40
f 23//39 31//39 22//39
f 23//61 29//61 27//61
f 27//62 29//62 23//62
f 20//63 28//63 19//63
f 19//64 28//64 20//64
f 26//65 24//65 28//65
f 28//66 24//66 26//66
f 25//65 24//65 26//65
f 26//66 24//66 25//66
f 21//39 29//39 32//39
f 32//40 29//40 21//40
f 22//40 30//40 31//40
f 31//39 30//39 22//39
f 30//59 21//59 32//59
f 32//60 21//60 30//60
f 31//61 29//61 23//61
f 23//62 29//62 31//62
f 31//67 32//67 29//67
f 29//68 32//68 31//68
f 30//67 32//67 31//67
f 31//68 32//68 30//68
