# SSTK version 0.8.0
# 19
mtllib original-19.mtl
o mesh16/mesh16-geometry#mesh16-geometry
v -0.515371 0.191296 -0.035958
v -0.519209 0.203232 -0.009777
v -0.527087 0.203232 -0.023864
v -0.512445 0.191296 -0.030725
v -0.516443 0.191296 -0.043107
v -0.508447 0.203232 -0.004621
v -0.508447 0.191296 -0.043107
v -0.529971 0.203232 -0.043107
v -0.508447 0.191296 -0.028810
v -0.515371 0.191296 -0.050256
v -0.497684 0.203232 -0.009777
v -0.504449 0.191296 -0.030725
v -0.527088 0.203232 -0.062350
v -0.512445 0.191296 -0.055489
v -0.502347 0.203240 -0.007543
v -0.501522 0.191296 -0.035958
v -0.508447 0.191296 -0.057404
v -0.489806 0.203232 -0.023864
v -0.500450 0.191296 -0.043107
v -0.519209 0.203232 -0.076437
v -0.504449 0.191296 -0.055489
v -0.486922 0.203232 -0.043107
v -0.501522 0.191296 -0.050256
v -0.508447 0.203232 -0.081593
v -0.489806 0.203232 -0.062350
v -0.497684 0.203232 -0.076437
v -0.493294 0.203240 -0.068587
vn -0.519174015456849 -0.8038320239316875 0.2903660086447768
vn -0.5191767749070643 -0.8038306514932679 0.2903648741101582
vn -0.6583620666716715 -0.7462070755676481 0.0986630099915047
vn -0.20739190693487286 -0.8772686063341354 0.4328838057475479
vn 0 -1 0
vn -0.6583637560183376 -0.7462057234651647 0.09866196343706692
vn -0.20740106564109959 -0.8772662776491188 0.43288413700503714
vn -0.6583629296338447 -0.7462059202451425 -0.09866598945453045
vn 0.20747600058715707 -0.8772200024825327 0.43294200122522564
vn -0.6583618352156743 -0.7462078132283118 -0.09865897530620435
vn 0.20739591443872943 -0.8772686380824595 0.4328818214144247
vn -0.5191780274362232 -0.80383304247896 -0.2903560153440094
vn 0.5191730184194803 -0.8038330285187908 0.290365010301715
vn 0.519174050377018 -0.8038330779983389 0.29036302817479687
vn -0.5191718357088774 -0.8038327456283736 -0.29036790811352575
vn -0.20738598783017578 -0.8772679485201637 -0.4328879745972688
vn 0.6583611387476496 -0.7462081572611471 0.09866102079251618
vn 0.6583610088371799 -0.7462080100163502 0.09866300132435331
vn -0.2073920888733361 -0.8772683759341432 -0.43288418550303426
vn 0.2073811083270019 -0.8772704582484844 -0.43288522612068736
vn 0.6583609438809862 -0.746207936392865 -0.09866399158983254
vn 0.6583620666716715 -0.7462070755676481 -0.09866300999150503
vn 0.5191789197250808 -0.8038288757127925 -0.29036595510391
vn 0.20739304824647262 -0.8772672040813252 -0.4328861007036042
vn 0.5192730229801685 -0.803759035569955 -0.2903910128511095
vn 0.519174015456849 0.8038320239316875 -0.2903660086447768
vn 0.5191767749070643 0.8038306514932679 -0.2903648741101582
vn 0.6583620666716715 0.7462070755676481 -0.0986630099915047
vn 0.20739190693487286 0.8772686063341354 -0.4328838057475479
vn 0 1 0
vn 0.6583637560183376 0.7462057234651647 -0.09866196343706692
vn 0.20740106564109959 0.8772662776491188 -0.43288413700503714
vn 0.6583629296338447 0.7462059202451425 0.09866598945453045
vn -0.20747600058715707 0.8772200024825327 -0.43294200122522564
vn 0.6583618352156743 0.7462078132283118 0.09865897530620435
vn -0.20739591443872943 0.8772686380824595 -0.4328818214144247
vn 0.5191780274362232 0.80383304247896 0.2903560153440094
vn -0.5191730184194803 0.8038330285187908 -0.290365010301715
vn -0.519174050377018 0.8038330779983389 -0.29036302817479687
vn 0.5191718357088774 0.8038327456283736 0.29036790811352575
vn 0.20738598783017578 0.8772679485201637 0.4328879745972688
vn -0.6583611387476496 0.7462081572611471 -0.09866102079251618
vn -0.6583610088371799 0.7462080100163502 -0.09866300132435331
vn 0.2073920888733361 0.8772683759341432 0.43288418550303426
vn -0.2073811083270019 0.8772704582484844 0.43288522612068736
vn -0.6583609438809862 0.746207936392865 0.09866399158983254
vn -0.6583620666716715 0.7462070755676481 0.09866300999150503
vn -0.5191789197250808 0.8038288757127925 0.29036595510391
vn -0.20739304824647262 0.8772672040813252 0.4328861007036042
vn -0.5192730229801685 0.803759035569955 0.2903910128511095
usemtl material_0_0
f 1//1 2//1 3//1
f 4//2 2//2 1//2
f 1//3 3//3 5//3
f 6//4 2//4 4//4
f 7//5 4//5 1//5
f 5//6 3//6 8//6
f 7//5 1//5 5//5
f 6//7 4//7 9//7
f 9//5 4//5 7//5
f 10//8 5//8 8//8
f 7//5 5//5 10//5
f 11//9 6//9 9//9
f 12//5 9//5 7//5
f 10//10 8//10 13//10
f 7//5 10//5 14//5
f 6//9 11//9 15//9
f 11//11 9//11 12//11
f 16//5 12//5 7//5
f 14//12 10//12 13//12
f 7//5 14//5 17//5
f 18//13 11//13 12//13
f 18//14 12//14 16//14
f 19//5 16//5 7//5
f 14//15 13//15 20//15
f 17//16 14//16 20//16
f 21//5 7//5 17//5
f 22//17 18//17 16//17
f 22//18 16//18 19//18
f 19//5 7//5 23//5
f 17//19 20//19 24//19
f 23//5 7//5 21//5
f 21//20 17//20 24//20
f 22//21 19//21 25//21
f 25//22 19//22 23//22
f 26//23 23//23 21//23
f 26//24 21//24 24//24
f 23//25 27//25 25//25
f 27//25 23//25 26//25
usemtl material_1_0
f 3//26 2//26 1//26
f 1//27 2//27 4//27
f 5//28 3//28 1//28
f 4//29 2//29 6//29
f 1//30 4//30 7//30
f 8//31 3//31 5//31
f 5//30 1//30 7//30
f 9//32 4//32 6//32
f 7//30 4//30 9//30
f 8//33 5//33 10//33
f 10//30 5//30 7//30
f 9//34 6//34 11//34
f 7//30 9//30 12//30
f 13//35 8//35 10//35
f 14//30 10//30 7//30
f 15//34 11//34 6//34
f 12//36 9//36 11//36
f 7//30 12//30 16//30
f 13//37 10//37 14//37
f 17//30 14//30 7//30
f 12//38 11//38 18//38
f 16//39 12//39 18//39
f 7//30 16//30 19//30
f 20//40 13//40 14//40
f 20//41 14//41 17//41
f 17//30 7//30 21//30
f 16//42 18//42 22//42
f 19//43 16//43 22//43
f 23//30 7//30 19//30
f 24//44 20//44 17//44
f 21//30 7//30 23//30
f 24//45 17//45 21//45
f 25//46 19//46 22//46
f 23//47 19//47 25//47
f 21//48 23//48 26//48
f 24//49 21//49 26//49
f 25//50 27//50 23//50
f 26//50 23//50 27//50
