# SSTK version 0.8.0
# 40
mtllib original-40.mtl
o mesh37/mesh37-geometry#mesh37-geometry
v 0.488769 0.191296 -0.035958
v 0.474170 0.203232 -0.043107
v 0.487698 0.191296 -0.043107
v 0.477053 0.203232 -0.023864
v 0.477053 0.203232 -0.062350
v 0.495694 0.191296 -0.043107
v 0.491696 0.191296 -0.030725
v 0.488769 0.191296 -0.050256
v 0.484932 0.203232 -0.009777
v 0.484932 0.203232 -0.076437
v 0.495694 0.191296 -0.028810
v 0.491696 0.191296 -0.055489
v 0.499692 0.191296 -0.030725
v 0.495694 0.191296 -0.057404
v 0.495694 0.203232 -0.004621
v 0.495694 0.203232 -0.081593
v 0.502619 0.191296 -0.035958
v 0.499692 0.191296 -0.055489
v 0.506457 0.203232 -0.009777
v 0.503690 0.191296 -0.043107
v 0.506457 0.203232 -0.076437
v 0.502619 0.191296 -0.050256
v 0.514335 0.203232 -0.023864
v 0.514335 0.203232 -0.062350
v 0.517219 0.203232 -0.043107
vn -0.65836295800237 -0.7462069523987139 0.09865799370650798
vn -0.6583633193704779 -0.7462063619829286 0.098660047859754
vn -0.6583621316273417 -0.7462071491903295 -0.09866201972564774
vn 0 -1 0
vn -0.5191709544970041 -0.8038329295476642 0.29036897455046695
vn -0.6583661314967972 -0.746204149040862 -0.09865801970516572
vn -0.5191730184194803 -0.8038330285187908 0.290365010301715
vn -0.5191721022849614 -0.8038321583674102 -0.2903690572072108
vn -0.20739896495351848 -0.8772688517582448 0.43287992685152304
vn -0.5191708037456858 -0.8038326961392408 -0.2903698902358469
vn -0.2073910421076445 -0.8772681781161629 0.4328850878908326
vn -0.20739400523452106 -0.8772670221417812 -0.4328860109258268
vn 0.20740211240689402 -0.8772664754570656 0.4328832346121709
vn -0.20738397930505004 -0.877269912456801 -0.4328849568021961
vn 0.20739199671138517 -0.8772689860891459 0.4328829931357743
vn 0.519166780666099 -0.8038356604012088 0.290368877327015
vn 0.20739113188410682 -0.87726855787236 -0.43288427527963963
vn 0.20738703459610058 -0.877268146345007 -0.43288707221379474
vn 0.5191767749070643 -0.8038306514932679 0.2903648741101582
vn 0.6583660015892956 -0.7462040018013365 0.09866000023816508
vn 0.5191738996278601 -0.8038328445946091 -0.29036394386379916
vn 0.5191728676696021 -0.8038327951134964 -0.29036592598950983
vn 0.6583636910625812 -0.7462056498427079 0.09866295370237034
vn 0.6583637560183374 -0.7462057234651646 -0.09866196343706722
vn 0.6583632544159701 -0.7462062883617752 -0.09866103812628312
vn 0.65836295800237 0.7462069523987139 -0.09865799370650798
vn 0.6583633193704779 0.7462063619829286 -0.098660047859754
vn 0.6583621316273417 0.7462071491903295 0.09866201972564774
vn 0 1 0
vn 0.5191709544970041 0.8038329295476642 -0.29036897455046695
vn 0.6583661314967972 0.746204149040862 0.09865801970516572
vn 0.5191730184194803 0.8038330285187908 -0.290365010301715
vn 0.5191721022849614 0.8038321583674102 0.2903690572072108
vn 0.20739896495351848 0.8772688517582448 -0.43287992685152304
vn 0.5191708037456858 0.8038326961392408 0.2903698902358469
vn 0.2073910421076445 0.8772681781161629 -0.4328850878908326
vn 0.20739400523452106 0.8772670221417812 0.4328860109258268
vn -0.20740211240689402 0.8772664754570656 -0.4328832346121709
vn 0.20738397930505004 0.877269912456801 0.4328849568021961
vn -0.20739199671138517 0.8772689860891459 -0.4328829931357743
vn -0.519166780666099 0.8038356604012088 -0.290368877327015
vn -0.20739113188410682 0.87726855787236 0.43288427527963963
vn -0.20738703459610058 0.877268146345007 0.43288707221379474
vn -0.5191767749070643 0.8038306514932679 -0.2903648741101582
vn -0.6583660015892956 0.7462040018013365 -0.09866000023816508
vn -0.5191738996278601 0.8038328445946091 0.29036394386379916
vn -0.5191728676696021 0.8038327951134964 0.29036592598950983
vn -0.6583636910625812 0.7462056498427079 -0.09866295370237034
vn -0.6583637560183374 0.7462057234651646 0.09866196343706722
vn -0.6583632544159701 0.7462062883617752 0.09866103812628312
usemtl material_0_0
f 1//1 2//1 3//1
f 1//2 4//2 2//2
f 3//3 2//3 5//3
f 6//4 1//4 3//4
f 7//5 4//5 1//5
f 8//6 3//6 5//6
f 6//4 7//4 1//4
f 6//4 3//4 8//4
f 7//7 9//7 4//7
f 8//8 5//8 10//8
f 11//4 7//4 6//4
f 6//4 8//4 12//4
f 11//9 9//9 7//9
f 12//10 8//10 10//10
f 13//4 11//4 6//4
f 6//4 12//4 14//4
f 15//11 9//11 11//11
f 16//12 12//12 10//12
f 13//13 15//13 11//13
f 17//4 13//4 6//4
f 14//14 12//14 16//14
f 18//4 6//4 14//4
f 19//15 15//15 13//15
f 19//16 13//16 17//16
f 20//4 17//4 6//4
f 21//17 14//17 16//17
f 22//4 6//4 18//4
f 21//18 18//18 14//18
f 23//19 19//19 17//19
f 23//20 17//20 20//20
f 20//4 6//4 22//4
f 24//21 22//21 18//21
f 24//22 18//22 21//22
f 25//23 23//23 20//23
f 25//24 20//24 22//24
f 25//25 22//25 24//25
usemtl material_1_0
f 3//26 2//26 1//26
f 2//27 4//27 1//27
f 5//28 2//28 3//28
f 3//29 1//29 6//29
f 1//30 4//30 7//30
f 5//31 3//31 8//31
f 1//29 7//29 6//29
f 8//29 3//29 6//29
f 4//32 9//32 7//32
f 10//33 5//33 8//33
f 6//29 7//29 11//29
f 12//29 8//29 6//29
f 7//34 9//34 11//34
f 10//35 8//35 12//35
f 6//29 11//29 13//29
f 14//29 12//29 6//29
f 11//36 9//36 15//36
f 10//37 12//37 16//37
f 11//38 15//38 13//38
f 6//29 13//29 17//29
f 16//39 12//39 14//39
f 14//29 6//29 18//29
f 13//40 15//40 19//40
f 17//41 13//41 19//41
f 6//29 17//29 20//29
f 16//42 14//42 21//42
f 18//29 6//29 22//29
f 14//43 18//43 21//43
f 17//44 19//44 23//44
f 20//45 17//45 23//45
f 22//29 6//29 20//29
f 18//46 22//46 24//46
f 21//47 18//47 24//47
f 20//48 23//48 25//48
f 22//49 20//49 25//49
f 24//50 22//50 25//50
