# SSTK version 0.8.0
# 30
mtllib original-30.mtl
o mesh27/mesh27-geometry#mesh27-geometry
v 0.187592 0.521641 -0.372459
v 0.190984 0.510453 -0.370385
v 0.190984 0.511641 -0.367030
v 0.199863 0.505462 -0.363674
v 0.190984 0.513809 -0.364205
v 0.199863 0.508968 -0.359104
v 0.199863 0.503539 -0.369104
v 0.190984 0.516742 -0.362189
v 0.210839 0.508968 -0.359104
v 0.210839 0.505462 -0.363674
v 0.199863 0.513715 -0.355842
v 0.190984 0.520155 -0.361178
v 0.210839 0.513715 -0.355842
v 0.210839 0.503539 -0.369104
v 0.199863 0.519238 -0.354206
v 0.190984 0.523714 -0.361271
v 0.219719 0.516742 -0.362189
v 0.219719 0.513809 -0.364205
v 0.219719 0.511641 -0.367030
v 0.210839 0.519238 -0.354206
v 0.199863 0.524996 -0.354357
v 0.190984 0.527070 -0.362459
v 0.219719 0.520155 -0.361178
v 0.219719 0.510453 -0.370385
v 0.210839 0.524996 -0.354357
v 0.199863 0.530425 -0.356279
v 0.190984 0.529894 -0.364627
v 0.223111 0.521641 -0.372459
v 0.219719 0.523714 -0.361271
v 0.210839 0.530425 -0.356279
v 0.199863 0.534995 -0.359786
v 0.190984 0.531910 -0.367560
v 0.219719 0.527070 -0.362460
v 0.210839 0.534995 -0.359786
v 0.199863 0.538257 -0.364533
v 0.190984 0.532921 -0.370973
v 0.219719 0.529894 -0.364627
v 0.210839 0.538257 -0.364533
v 0.199863 0.539893 -0.370056
v 0.190984 0.532828 -0.374532
v 0.219719 0.531910 -0.367560
v 0.210839 0.539893 -0.370056
v 0.199863 0.539743 -0.375814
v 0.219719 0.532921 -0.370974
v 0.210839 0.539743 -0.375814
v 0.219719 0.532828 -0.374532
vn -0.957348832657832 -0.272362952391641 0.09644498314165947
vn 0.957348832657832 0.272362952391641 -0.09644498314165947
vn -0.6160950455497566 -0.742495054894889 0.2629220194386142
vn 0.6160950455497566 0.742495054894889 -0.2629220194386142
vn -0.9573484727261136 -0.2292228737520987 0.17589990312051645
vn 0.9573484727261136 0.2292228737520987 -0.17589990312051645
vn -0.6160968782426343 -0.6249058765017386 0.4794969052384743
vn 0.6160968782426343 0.6249058765017386 -0.4794969052384743
vn -0.6160992714823553 -0.742488327175326 0.26293111585983275
vn 0.6160992714823553 0.742488327175326 -0.26293111585983275
vn -0.6161071838655103 -0.6248801864836468 0.4795171431028018
vn 0.6161071838655103 0.6248801864836468 -0.4795171431028018
vn -0.957348555378641 -0.16365809494160713 0.2381171381369114
vn 0.957348555378641 0.16365809494160713 -0.2381171381369114
vn 0 -0.7933590256266873 0.6087540196636682
vn 0 0.7933590256266873 -0.6087540196636682
vn 0 -0.9426403366640563 0.3338101192203051
vn 0 0.9426403366640563 -0.3338101192203051
vn -0.6161052988003605 -0.4461392163697651 0.649133314818374
vn 0.6161052988003605 0.4461392163697651 -0.649133314818374
vn -0.6161030588014949 -0.44614704258072213 0.6491300619536251
vn 0.6161030588014949 0.44614704258072213 -0.6491300619536251
vn -0.9573489218559188 -0.08206499330140422 0.2770349773868824
vn 0.9573489218559188 0.08206499330140422 -0.2770349773868824
vn 0 -0.5664079892130434 0.8241249843049518
vn 0 0.5664079892130434 -0.8241249843049518
vn -0.6161020093721439 -0.2236960034028638 0.7552340114886198
vn 0.6161020093721439 0.2236960034028638 -0.7552340114886198
vn -0.616094203457443 -0.22372007388077023 0.7552332494063814
vn 0.616094203457443 0.22372007388077023 -0.7552332494063814
vn -0.9573490099937664 0.007564000078960533 0.2888350030151486
vn 0.9573490099937664 -0.007564000078960533 -0.2888350030151486
vn 0.6161029832315253 -0.4461399878574083 0.6491349823324934
vn -0.6161029832315253 0.4461399878574083 -0.6491349823324934
vn 0.6160991845115678 -0.6249041871485213 0.4794961436012047
vn -0.6160991845115678 0.6249041871485213 -0.4794961436012047
vn 0.6160958758810293 -0.7424908504174373 0.2629319470296037
vn -0.6160958758810293 0.7424908504174373 -0.2629319470296037
vn 0 -0.2839988846075848 0.958824610417175
vn 0 0.2839988846075848 -0.958824610417175
vn -0.6160958430123301 0.02059899475116034 0.7874017993617793
vn 0.6160958430123301 -0.02059899475116034 -0.7874017993617793
vn -0.6161028300095513 0.02061999431068643 0.7873957827476911
vn 0.6161028300095513 -0.02061999431068643 -0.7873957827476911
vn -0.9573491694838465 0.0964470170744509 0.2723610482173063
vn 0.9573491694838465 -0.0964470170744509 -0.2723610482173063
vn 0.616103320001375 -0.2237181161982132 0.7552263922612915
vn -0.616103320001375 0.2237181161982132 -0.7552263922612915
vn 0.6160960893669006 -0.44612606471215205 0.6491510941616451
vn -0.6160960893669006 0.44612606471215205 -0.6491510941616451
vn 0.6160959090482321 -0.6248999077485332 0.4795059292124628
vn -0.6160959090482321 0.6248999077485332 -0.4795059292124628
vn 0.6160996819986909 -0.7424916167611948 0.26292086429277345
vn -0.6160996819986909 0.7424916167611948 -0.26292086429277345
vn 0.616095684700484 -0.22369788551805075 0.7552386134912561
vn -0.616095684700484 0.22369788551805075 -0.7552386134912561
vn 0 0.02615199942376663 0.9996579779735364
vn 0 -0.02615199942376663 -0.9996579779735364
vn -0.6161032874941924 0.2629301226919004 0.7424853464682456
vn 0.6161032874941924 -0.2629301226919004 -0.7424853464682456
vn -0.6160960754283391 0.26291103218806805 0.7424980909036757
vn 0.6160960754283391 -0.26291103218806805 -0.7424980909036757
vn -0.957349161533059 0.1758920296781767 0.2292260386771982
vn 0.957349161533059 -0.1758920296781767 -0.2292260386771982
vn 0.9573491870746654 -0.08206501603624433 0.27703405413495275
vn -0.9573491870746654 0.08206501603624433 -0.27703405413495275
vn 0.9573490657751484 -0.16364801124351885 0.23812201636029273
vn -0.9573490657751484 0.16364801124351885 -0.23812201636029273
vn 0.9573489931425091 -0.2292259983580542 0.17589299874007838
vn -0.9573489931425091 0.2292259983580542 -0.17589299874007838
vn 0.957348832657832 -0.272362952391641 0.09644498314165947
vn -0.957348832657832 0.272362952391641 -0.09644498314165947
vn 0.6160943355127447 0.0206200112292486 0.7874024288037316
vn -0.6160943355127447 -0.0206200112292486 -0.7874024288037316
vn 0.6161008855882278 0.020598996174704794 0.78739785377787
vn -0.6161008855882278 -0.020598996174704794 -0.78739785377787
vn 0 0.3338101192203051 0.9426403366640563
vn 0 -0.3338101192203051 -0.9426403366640563
vn -0.6160971203160781 0.4795040936411647 0.6249001220351946
vn 0.6160971203160781 -0.4795040936411647 -0.6249001220351946
vn -0.6160978303174394 0.47950486793718483 0.624898827893513
vn 0.6160978303174394 -0.47950486793718483 -0.624898827893513
vn -0.9573490657751484 0.23812201636029273 0.16364801124351885
vn 0.9573490657751484 -0.23812201636029273 -0.16364801124351885
vn 0.9573492865093145 0.007564002263705706 0.2888340864404009
vn -0.9573492865093145 -0.007564002263705706 -0.2888340864404009
vn 0.6161027729781839 0.26293590311326465 0.7424837264092757
vn -0.6161027729781839 -0.26293590311326465 -0.7424837264092757
vn 0.6161043653586225 0.2629301559213095 0.7424844403037986
vn -0.6161043653586225 -0.2629301559213095 -0.7424844403037986
vn 0 0.6087619527439421 0.7933529384147907
vn 0 -0.6087619527439421 -0.7933529384147907
vn -0.6160970617520277 0.6491350650634599 0.44614804471786706
vn 0.6160970617520277 -0.6491350650634599 -0.44614804471786706
vn -0.6161060674938074 0.6491450711131972 0.4461210488721177
vn 0.6161060674938074 -0.6491450711131972 -0.4461210488721177
vn -0.9573490889597535 0.27703202574264807 0.08207300762647048
vn 0.9573490889597535 -0.27703202574264807 -0.08207300762647048
vn 0.9573490608864449 0.09645100613418767 0.2723600173218253
vn -0.9573490608864449 -0.09645100613418767 -0.2723600173218253
vn 0.6161048489896395 0.4794788824773427 0.6249118468310005
vn -0.6161048489896395 -0.4794788824773427 -0.6249118468310005
vn 0.6160961148917705 0.4795040894196091 0.6249011165337583
vn -0.6160961148917705 -0.4795040894196091 -0.6249011165337583
vn 0 0.8241201126469254 0.5664150774218664
vn 0 -0.8241201126469254 -0.5664150774218664
vn -0.6161029913948894 0.7552349894516329 0.223689996875722
vn 0.6161029913948894 -0.7552349894516329 -0.223689996875722
vn -0.616091049868568 0.7552340611312908 0.22372601810916787
vn 0.616091049868568 -0.7552340611312908 -0.22372601810916787
vn -0.9573490172346757 0.2888350051997522 -0.007563000136152846
vn 0.9573490172346757 -0.2888350051997522 0.007563000136152846
vn 0.9573495797466687 0.1758831065103565 0.22923113881657434
vn -0.9573495797466687 -0.1758831065103565 -0.22923113881657434
vn 0.616093773778417 0.6491527616395885 0.4461268361880556
vn -0.616093773778417 -0.6491527616395885 -0.4461268361880556
vn 0.6161029337424456 0.6491309301905159 0.4461459520201286
vn -0.6161029337424456 -0.6491309301905159 -0.4461459520201286
vn 0 0.9588269501362057 0.28399098523104943
vn 0 -0.9588269501362057 -0.28399098523104943
vn -0.6160963154361575 0.7874014031429288 -0.02060001054703283
vn 0.6160963154361575 -0.7874014031429288 0.02060001054703283
vn -0.6161022222955749 0.7873962841001108 -0.02061900743953493
vn 0.6161022222955749 -0.7873962841001108 0.02061900743953493
vn 0.9573497618549683 0.23811994076660054 0.16364695929208756
vn -0.9573497618549683 -0.23811994076660054 -0.16364695929208756
vn 0.6161026992834263 0.755229631376283 0.22370889080883574
vn -0.6161026992834263 -0.755229631376283 -0.22370889080883574
vn 0.6160960463057805 0.7552400567638448 0.22369201681269277
vn -0.6160960463057805 -0.7552400567638448 -0.22369201681269277
vn 0 0.9996579518299834 -0.026152998739778336
vn 0 -0.9996579518299834 0.026152998739778336
vn 0.9573492361077204 0.27703506832419766 0.08206102023842475
vn -0.9573492361077204 -0.27703506832419766 -0.08206102023842475
vn 0.6160943355127447 0.7874024288037316 -0.0206200112292486
vn -0.6160943355127447 -0.7874024288037316 0.0206200112292486
vn 0.6161008728968627 0.7873978375578743 -0.020599995750169638
vn -0.6161008728968627 -0.7873978375578743 0.020599995750169638
vn 0.9573492865093145 0.2888340864404009 -0.007564002263705706
vn -0.9573492865093145 -0.2888340864404009 0.007564002263705706
usemtl material_0_0
f 1//1 2//1 3//1
f 3//2 2//2 1//2
f 4//3 3//3 2//3
f 2//4 3//4 4//4
f 1//5 3//5 5//5
f 5//6 3//6 1//6
f 6//7 3//7 4//7
f 4//8 3//8 6//8
f 7//9 4//9 2//9
f 2//10 4//10 7//10
f 6//11 5//11 3//11
f 3//12 5//12 6//12
f 1//13 5//13 8//13
f 8//14 5//14 1//14
f 9//15 6//15 4//15
f 4//16 6//16 9//16
f 10//17 4//17 7//17
f 7//18 4//18 10//18
f 5//19 6//19 11//19
f 11//20 6//20 5//20
f 8//21 5//21 11//21
f 11//22 5//22 8//22
f 1//23 8//23 12//23
f 12//24 8//24 1//24
f 13//25 6//25 9//25
f 9//26 6//26 13//26
f 9//15 4//15 10//15
f 10//16 4//16 9//16
f 14//17 10//17 7//17
f 7//18 10//18 14//18
f 11//25 6//25 13//25
f 13//26 6//26 11//26
f 15//27 8//27 11//27
f 11//28 8//28 15//28
f 12//29 8//29 15//29
f 15//30 8//30 12//30
f 1//31 12//31 16//31
f 16//32 12//32 1//32
f 17//33 13//33 9//33
f 9//34 13//34 17//34
f 18//35 9//35 10//35
f 10//36 9//36 18//36
f 19//37 10//37 14//37
f 14//38 10//38 19//38
f 20//39 11//39 13//39
f 13//40 11//40 20//40
f 15//39 11//39 20//39
f 20//40 11//40 15//40
f 21//41 12//41 15//41
f 15//42 12//42 21//42
f 21//43 16//43 12//43
f 12//44 16//44 21//44
f 1//45 16//45 22//45
f 22//46 16//46 1//46
f 23//47 13//47 17//47
f 17//48 13//48 23//48
f 17//49 9//49 18//49
f 18//50 9//50 17//50
f 18//51 10//51 19//51
f 19//52 10//52 18//52
f 24//53 19//53 14//53
f 14//54 19//54 24//54
f 23//55 20//55 13//55
f 13//56 20//56 23//56
f 25//57 15//57 20//57
f 20//58 15//58 25//58
f 21//57 15//57 25//57
f 25//58 15//58 21//58
f 26//59 16//59 21//59
f 21//60 16//60 26//60
f 26//61 22//61 16//61
f 16//62 22//62 26//62
f 1//63 22//63 27//63
f 27//64 22//64 1//64
f 28//65 23//65 17//65
f 17//66 23//66 28//66
f 28//67 17//67 18//67
f 18//68 17//68 28//68
f 28//69 18//69 19//69
f 19//70 18//70 28//70
f 28//71 19//71 24//71
f 24//72 19//72 28//72
f 29//73 20//73 23//73
f 23//74 20//74 29//74
f 25//75 20//75 29//75
f 29//76 20//76 25//76
f 30//77 21//77 25//77
f 25//78 21//78 30//78
f 26//77 21//77 30//77
f 30//78 21//78 26//78
f 31//79 22//79 26//79
f 26//80 22//80 31//80
f 31//81 27//81 22//81
f 22//82 27//82 31//82
f 1//83 27//83 32//83
f 32//84 27//84 1//84
f 28//85 29//85 23//85
f 23//86 29//86 28//86
f 33//87 25//87 29//87
f 29//88 25//88 33//88
f 30//89 25//89 33//89
f 33//90 25//90 30//90
f 34//91 26//91 30//91
f 30//92 26//92 34//92
f 34//91 31//91 26//91
f 26//92 31//92 34//92
f 35//93 27//93 31//93
f 31//94 27//94 35//94
f 35//95 32//95 27//95
f 27//96 32//96 35//96
f 1//97 32//97 36//97
f 36//98 32//98 1//98
f 28//99 33//99 29//99
f 29//100 33//100 28//100
f 30//101 33//101 37//101
f 37//102 33//102 30//102
f 34//103 30//103 37//103
f 37//104 30//104 34//104
f 38//105 31//105 34//105
f 34//106 31//106 38//106
f 38//105 35//105 31//105
f 31//106 35//106 38//106
f 39//107 32//107 35//107
f 35//108 32//108 39//108
f 39//109 36//109 32//109
f 32//110 36//110 39//110
f 40//111 1//111 36//111
f 36//112 1//112 40//112
f 28//113 37//113 33//113
f 33//114 37//114 28//114
f 41//115 34//115 37//115
f 37//116 34//116 41//116
f 41//117 38//117 34//117
f 34//118 38//118 41//118
f 38//119 42//119 35//119
f 35//120 42//120 38//120
f 42//119 39//119 35//119
f 35//120 39//120 42//120
f 39//121 43//121 36//121
f 36//122 43//122 39//122
f 43//123 40//123 36//123
f 36//124 40//124 43//124
f 28//125 41//125 37//125
f 37//126 41//126 28//126
f 41//127 44//127 38//127
f 38//128 44//128 41//128
f 44//129 42//129 38//129
f 38//130 42//130 44//130
f 42//131 45//131 39//131
f 39//132 45//132 42//132
f 45//131 43//131 39//131
f 39//132 43//132 45//132
f 28//133 44//133 41//133
f 41//134 44//134 28//134
f 46//135 42//135 44//135
f 44//136 42//136 46//136
f 46//137 45//137 42//137
f 42//138 45//138 46//138
f 46//139 44//139 28//139
f 28//140 44//140 46//140
