# SSTK version 0.8.0
# 38
mtllib original-38.mtl
o mesh35/mesh35-geometry#mesh35-geometry
v -0.481739 0.295969 0.310341
v -0.549491 0.295969 0.310341
v -0.549491 0.295969 -0.146498
v -0.481739 0.286440 0.337716
v -0.576866 0.286440 0.310341
v -0.481739 0.295969 -0.146498
v -0.549491 0.286440 0.337716
v -0.462382 0.286440 0.329698
v -0.568848 0.286440 0.329698
v -0.576866 0.286440 -0.146498
v -0.549491 0.286440 -0.173873
v -0.454364 0.286440 -0.146498
v -0.481739 0.263435 0.349056
v -0.454364 0.263435 0.337716
v -0.454364 0.286440 0.310341
v -0.576866 0.263435 0.337716
v -0.588206 0.263435 0.310341
v -0.568848 0.286440 -0.165855
v -0.481739 0.286440 -0.173873
v -0.462382 0.286440 -0.165855
v -0.549491 0.263435 0.349056
v -0.443024 0.263435 0.310341
v -0.588206 0.263435 -0.146498
v -0.576866 0.263435 -0.173873
v -0.549491 0.263435 -0.185213
v -0.443024 0.263435 -0.146498
v -0.454364 0.263435 -0.173873
v -0.454364 0.235782 0.337716
v -0.481739 0.235782 0.349056
v -0.443024 0.235782 0.310341
v -0.549491 0.235782 0.349056
v -0.576866 0.235782 0.337716
v -0.588206 0.235782 0.310341
v -0.481739 0.263435 -0.185213
v -0.443024 0.235782 -0.146498
v -0.588206 0.235782 -0.146498
v -0.576866 0.235782 -0.173873
v -0.549491 0.235782 -0.185213
v -0.454364 0.235782 -0.173873
v -0.481739 0.235782 -0.185213
v -0.454364 0.212777 0.310341
v -0.462382 0.212777 0.329698
v -0.481739 0.212777 0.337716
v -0.454364 0.212777 -0.146498
v -0.549491 0.212777 0.337716
v -0.568848 0.212777 0.329698
v -0.576866 0.212777 0.310341
v -0.462382 0.212777 -0.165855
v -0.576866 0.212777 -0.146498
v -0.568848 0.212777 -0.165855
v -0.549491 0.212777 -0.173873
v -0.481739 0.212777 -0.173873
v -0.481739 0.203248 -0.146498
v -0.481739 0.203248 0.310341
v -0.549491 0.203248 0.310341
v -0.549491 0.203248 -0.146498
v -0.493294 0.203240 -0.068587
v -0.502347 0.203240 -0.007543
vn -0.1614410271362209 -0.9735881636480141 -0.16144002713605304
vn 0.13455296092111646 -0.9724057175793864 -0.19058494464746986
vn 0.16669800006101151 -0.986008000360879 0
vn -0.16669800006101151 0.986008000360879 0
vn -0.13455296092111646 0.9724057175793864 0.19058494464746986
vn 0.1614410271362209 0.9735881636480141 0.16144002713605304
vn -0.17373797877495364 -0.8250788992025921 -0.5376429343177799
vn 0.17373797877495364 0.8250788992025921 0.5376429343177799
vn 0.5376426540886234 -0.8250784691566473 -0.17374088821766792
vn -0.5376426540886234 0.8250784691566473 0.17374088821766792
vn -0.16669800006101151 -0.986008000360879 0
vn 0.16144100107309833 -0.9735880064714395 0.1614410010730981
vn -0.1345529352772954 -0.9724055322531173 0.19058590832429292
vn 0.1345529352772954 0.9724055322531173 -0.19058590832429292
vn -0.16144100107309833 0.9735880064714395 -0.1614410010730981
vn 0.16669800006101151 0.986008000360879 0
vn -0.12603903418342924 -0.6517781767707386 -0.7478632028302505
vn 0.10505100998683232 -0.6911050657009427 -0.7150790679800676
vn -0.10505100998683232 0.6911050657009427 0.7150790679800676
vn 0.12603903418342924 0.6517781767707386 0.7478632028302505
vn -0.5583328765487062 -0.6983098455988218 -0.44791490096289105
vn 0.5583328765487062 0.6983098455988218 0.44791490096289105
vn 0.44791786194524147 -0.6983087847711401 -0.5583318279140616
vn -0.44791786194524147 0.6983087847711401 0.5583318279140616
vn 0.7478622746876205 -0.6517792393966033 -0.12603904629377224
vn 0.7150783104784889 -0.6911063000701274 0.1050480456106106
vn -0.7150783104784889 0.6911063000701274 -0.1050480456106106
vn -0.7478622746876205 0.6517792393966033 0.12603904629377224
vn 0.17373899852834385 -0.8250779930111771 0.5376439954458864
vn -0.17373899852834385 0.8250779930111771 -0.5376439954458864
vn -0.5376409519730736 -0.8250789262965279 0.17374398447962414
vn 0.5376409519730736 0.8250789262965279 -0.17374398447962414
vn -0.25292184961903597 -0.2963848237770456 -0.9209704524141562
vn 0.25292184961903597 0.2963848237770456 0.9209704524141562
vn -0.7653397234185193 -0.3002318915010176 -0.5693117942598638
vn 0.7653397234185193 0.3002318915010176 0.5693117942598638
vn -0.7150778914004137 -0.6911068950409126 -0.10504698404641083
vn 0.7150778914004137 0.6911068950409126 0.10504698404641083
vn 0.5693101945000221 -0.3002361025731298 -0.7653392614716982
vn -0.5693101945000221 0.3002361025731298 0.7653392614716982
vn 0.9209697947043435 -0.2963859339318778 -0.2529229436203207
vn -0.9209697947043435 0.2963859339318778 0.2529229436203207
vn 0.5583323280870599 -0.6983094103403472 0.4479162632044078
vn -0.5583323280870599 0.6983094103403472 -0.4479162632044078
vn 0.12603902207283776 -0.6517771141437808 0.747864130971213
vn -0.10505002102229716 -0.6911051383019009 0.715079143099507
vn 0.10505002102229716 0.6911051383019009 -0.715079143099507
vn -0.12603902207283776 0.6517771141437808 -0.747864130971213
vn -0.747862180427382 -0.651779157246629 0.12604003040810619
vn 0.747862180427382 0.651779157246629 -0.12604003040810619
vn -0.44791607581517723 -0.6983081181970389 0.5583340945047535
vn 0.44791607581517723 0.6983081181970389 -0.5583340945047535
vn -0.603398987633338 -0.15111699690285704 -0.7829899839526205
vn 0.603398987633338 0.15111699690285704 0.7829899839526205
vn -0.13283894330315557 -0.15347093449723767 -0.9791835820757239
vn 0.12052404236059261 -0.2964201041827921 -0.9474223329905859
vn -0.12052404236059261 0.2964201041827921 0.9474223329905859
vn 0.13283894330315557 0.15347093449723767 0.9791835820757239
vn -0.9567850741862471 -0.143426011120823 -0.2529650196141495
vn 0.9567850741862471 0.143426011120823 0.2529650196141495
vn -0.9474221138758816 -0.296422035628597 -0.12052101448608454
vn 0.9474221138758816 0.296422035628597 0.12052101448608454
vn 0.25296393847652154 -0.1434299651163305 -0.9567847672999267
vn -0.25296393847652154 0.1434299651163305 0.9567847672999267
vn 0.7829890062462947 -0.1511180012055437 -0.6034000048136235
vn -0.7829890062462947 0.1511180012055437 0.6034000048136235
vn 0.97918339059927 -0.15347206122047782 -0.13283905298990736
vn 0.9474219996911405 -0.2964219999033665 0.12052199996070978
vn -0.9474219996911405 0.2964219999033665 -0.12052199996070978
vn -0.97918339059927 0.15347206122047782 0.13283905298990736
vn 0.7653386436664467 -0.3002328602147655 0.56931273493403
vn -0.7653386436664467 0.3002328602147655 -0.56931273493403
vn 0.2529219245810961 -0.29638391162114663 0.9209707253753199
vn -0.2529219245810961 0.29638391162114663 -0.9209707253753199
vn -0.9209694099544281 -0.29638613193142566 0.25292411258502046
vn 0.9209694099544281 0.29638613193142566 -0.25292411258502046
vn -0.5693079712952083 -0.3002359848619521 0.7653409614111271
vn 0.5693079712952083 0.3002359848619521 -0.7653409614111271
vn -0.7829899839526205 0.15111699690285735 -0.603398987633338
vn 0.7829899839526205 -0.15111699690285735 0.603398987633338
vn -0.25296397475900295 0.1434289856885133 -0.9567849045310503
vn 0.25296397475900295 -0.1434289856885133 0.9567849045310503
vn -0.9791830900427435 0.1534740141130106 -0.1328390122154776
vn 0.9791830900427435 -0.1534740141130106 0.1328390122154776
vn -0.97918326052496 -0.15347204083331378 0.1328400353438894
vn 0.97918326052496 0.15347204083331378 -0.1328400353438894
vn 0.13283894330315557 0.15347093449723812 -0.9791835820757239
vn -0.13283894330315557 -0.15347093449723812 0.9791835820757239
vn 0.6033979704513005 0.15111599259977465 -0.7829909616565421
vn -0.6033979704513005 -0.15111599259977465 0.7829909616565421
vn 0.9567851789906041 0.14342702683161362 -0.25296404732325356
vn -0.9567851789906041 -0.14342702683161362 0.25296404732325356
vn 0.9567845576953451 -0.14342793369579165 0.2529658830583262
vn -0.9567845576953451 0.14342793369579165 -0.2529658830583262
vn 0.6033978792679405 -0.15111696976346206 0.7829908433337267
vn -0.6033978792679405 0.15111696976346206 -0.7829908433337267
vn 0.13283894330315557 -0.15347093449723812 0.9791835820757239
vn -0.1205230568861129 -0.2964201399084126 0.9474224471773423
vn 0.1205230568861129 0.2964201399084126 -0.9474224471773423
vn -0.13283894330315557 0.15347093449723812 -0.9791835820757239
vn -0.7829881468615769 -0.15111802834453134 0.603401113177242
vn 0.7829881468615769 0.15111802834453134 -0.603401113177242
vn -0.25296397475900295 -0.1434289856885133 0.9567849045310503
vn 0.25296397475900295 0.1434289856885133 -0.9567849045310503
vn -0.9209709583085666 0.29638398658299364 -0.25292098855052
vn 0.9209709583085666 -0.29638398658299364 0.25292098855052
vn -0.5693101006380941 0.3002340530729789 -0.7653401352907183
vn 0.5693101006380941 -0.3002340530729789 0.7653401352907183
vn -0.12052396389910093 0.29641891121276776 -0.947422716215674
vn 0.12052396389910093 -0.29641891121276776 0.947422716215674
vn -0.9474219996911405 0.2964219999033665 0.12052199996070992
vn 0.9474219996911405 -0.2964219999033665 -0.12052199996070992
vn -0.9567847997286972 0.1434279699780907 0.25296494705014183
vn 0.9567847997286972 -0.1434279699780907 -0.25296494705014183
vn 0.25292098855052003 0.2963839865829938 -0.9209709583085665
vn -0.25292098855052003 -0.2963839865829938 0.9209709583085665
vn 0.7653401591352825 0.3002320624265088 -0.5693111183754498
vn -0.7653401591352825 -0.3002320624265088 0.5693111183754498
vn 0.97918326052496 0.15347204083331373 0.13284003534388947
vn 0.9474226112867937 0.29642087838298486 -0.12051995055248216
vn -0.9474226112867937 -0.29642087838298486 0.12051995055248216
vn -0.97918326052496 -0.15347204083331373 -0.13284003534388947
vn 0.7829882651848596 0.15111705118078478 0.6034012043617647
vn -0.7829882651848596 -0.15111705118078478 -0.6034012043617647
vn 0.2529640473232536 0.14342702683161335 0.9567851789906041
vn -0.2529640473232536 -0.14342702683161335 -0.9567851789906041
vn -0.6033978792679406 0.15111696976346176 0.7829908433337269
vn 0.6033978792679406 -0.15111696976346176 -0.7829908433337269
vn -0.13283894330315557 0.15347093449723767 0.9791835820757239
vn 0.13283894330315557 -0.15347093449723767 -0.9791835820757239
vn -0.7478645716700376 0.6517766267031913 -0.12603892781280013
vn 0.7478645716700376 -0.6517766267031913 0.12603892781280013
vn -0.44791706257536174 0.6983090975558827 -0.5583320780006716
vn 0.44791706257536174 -0.6983090975558827 0.5583320780006716
vn -0.10504902953889836 0.6911041943326526 -0.7150802010745027
vn 0.10504902953889836 -0.6911041943326526 0.7150802010745027
vn -0.7150797819975931 0.691104789306716 0.10504796797460882
vn 0.7150797819975931 -0.691104789306716 -0.10504796797460882
vn -0.7653390793832693 0.3002330311410722 0.5693120590507578
vn 0.7653390793832693 -0.3002330311410722 -0.5693120590507578
vn 0.12603892781280027 0.6517766267031914 -0.7478645716700375
vn -0.12603892781280027 -0.6517766267031914 0.7478645716700375
vn 0.5583339547018097 0.6983089433454994 -0.44791496366021233
vn -0.5583339547018097 -0.6983089433454994 0.44791496366021233
vn 0.7150799322315206 0.691104934503643 -0.10504599004473933
vn -0.7150799322315206 -0.691104934503643 0.10504599004473933
vn 0.9209695617696319 0.2963858589689719 0.2529238796497415
vn -0.9209695617696319 -0.2963858589689719 -0.2529238796497415
vn 0.5693121361100231 0.30023007177841343 0.7653401829760221
vn -0.5693121361100231 -0.30023007177841343 -0.7653401829760221
vn 0.12052100747646068 0.29641901838820595 0.9474230587729177
vn -0.12052100747646068 -0.29641901838820595 -0.9474230587729177
vn -0.25292098855052003 0.29638398658299336 0.9209709583085667
vn 0.25292098855052003 -0.29638398658299336 -0.9209709583085667
vn -0.5376447063842413 0.8250775494128971 -0.17373890511860354
vn 0.5376447063842413 -0.8250775494128971 0.17373890511860354
vn -0.5583327662654822 0.698308707667436 0.44791681248884824
vn 0.5583327662654822 -0.698308707667436 -0.44791681248884824
vn 0.1737380287133389 0.8250781363590248 -0.5376440888553704
vn -0.1737380287133389 -0.8250781363590248 0.5376440888553704
vn 0.7478631085699128 0.651778094620914 0.12604001829767206
vn -0.7478631085699128 -0.651778094620914 -0.12604001829767206
vn 0.44791687518596446 0.6983078054134145 0.5583338444177834
vn -0.44791687518596446 -0.6983078054134145 -0.5583338444177834
vn 0.10504697649122462 0.6911038453358144 0.7150808399699315
vn -0.10504697649122462 -0.6911038453358144 -0.7150808399699315
vn -0.12603802584756588 0.6517761336646336 0.7478651533703318
vn 0.12603802584756588 -0.6517761336646336 -0.7478651533703318
vn -0.16142697339966197 0.9735898395694456 0.1614439733968609
vn 0.16142697339966197 -0.9735898395694456 -0.1614439733968609
vn -0.13455696805328662 0.9724047691302286 -0.19058695475056447
vn 0.13455696805328662 -0.9724047691302286 0.19058695475056447
vn -0.17373904846668603 0.8250772301656386 0.5376451499828563
vn 0.17373904846668603 -0.8250772301656386 -0.5376451499828563
vn 0.16143702713361133 0.9735881636363312 -0.16144402713478764
vn -0.16143702713361133 -0.9735881636363312 0.16144402713478764
vn 0.5376459543299351 0.8250769299142557 0.17373798524191456
vn -0.5376459543299351 -0.8250769299142557 -0.17373798524191456
vn -0.16671096752529016 0.9860058079295383 -0.000005999998831002404
vn 0.16671096752529016 -0.9860058079295383 0.000005999998831002404
vn 0.13456497969165662 0.9724038532462802 0.1905859712370535
vn 0.16673706676370248 0.9860013948078556 0.0000020000008010454172
vn -0.16673706676370248 -0.9860013948078556 -0.0000020000008010454172
vn -0.13456497969165662 -0.9724038532462802 -0.1905859712370535
vn -0.000024999999990675 1 -0.000010999999995674955
vn 0.000024999999990675 -1 0.000010999999995674955
vn 0.0000769999997711175 0.9999999970275 0.000003999999988332045
vn -0.0000769999997711175 -0.9999999970275 -0.000003999999988332045
usemtl material_0_0
f 1//1 2//2 3//3
f 3//4 2//5 1//6
f 4//7 2//2 1//1
f 1//6 2//5 4//8
f 2//2 5//9 3//3
f 3//4 5//10 2//5
f 1//11 3//12 6//13
f 6//14 3//15 1//16
f 4//17 7//18 2//2
f 2//5 7//19 4//20
f 8//21 4//7 1//1
f 1//6 4//8 8//22
f 2//2 9//23 5//9
f 5//10 9//24 2//5
f 3//12 5//25 10//26
f 10//27 5//28 3//15
f 6//13 3//12 11//29
f 11//30 3//15 6//14
f 12//31 1//11 6//13
f 6//14 1//16 12//32
f 4//17 13//33 7//18
f 7//19 13//34 4//20
f 7//18 9//23 2//2
f 2//5 9//24 7//19
f 4//7 8//21 14//35
f 14//36 8//22 4//8
f 15//37 8//21 1//1
f 1//6 8//22 15//38
f 5//9 9//23 16//39
f 16//40 9//24 5//10
f 10//26 5//25 17//41
f 17//42 5//28 10//27
f 3//12 10//26 18//43
f 18//44 10//27 3//15
f 3//12 18//43 11//29
f 11//30 18//44 3//15
f 6//13 11//45 19//46
f 19//47 11//48 6//14
f 15//37 1//1 12//49
f 12//50 1//6 15//38
f 12//31 6//13 20//51
f 20//52 6//14 12//32
f 4//17 14//53 13//33
f 13//34 14//54 4//20
f 7//18 13//55 21//56
f 21//57 13//58 7//19
f 7//18 21//56 9//23
f 9//24 21//57 7//19
f 22//59 14//35 8//21
f 8//22 14//36 22//60
f 22//61 8//21 15//37
f 15//38 8//22 22//62
f 9//23 21//63 16//39
f 16//40 21//64 9//24
f 5//25 16//65 17//41
f 17//42 16//66 5//28
f 10//26 17//67 23//68
f 23//69 17//70 10//27
f 18//43 10//26 23//68
f 23//69 10//27 18//44
f 18//43 24//71 11//29
f 11//30 24//72 18//44
f 19//46 11//45 25//73
f 25//74 11//48 19//47
f 20//51 6//13 19//46
f 19//47 6//14 20//52
f 12//49 26//75 15//37
f 15//38 26//76 12//50
f 27//77 12//31 20//51
f 20//52 12//32 27//78
f 13//33 14//53 28//79
f 28//80 14//54 13//34
f 13//55 29//81 21//56
f 21//57 29//82 13//58
f 30//83 14//35 22//59
f 22//60 14//36 30//84
f 26//85 22//61 15//37
f 15//38 22//62 26//86
f 16//39 21//63 31//87
f 31//88 21//64 16//40
f 17//41 16//65 32//89
f 32//90 16//66 17//42
f 23//68 17//67 33//91
f 33//92 17//70 23//69
f 24//71 18//43 23//93
f 23//94 18//44 24//72
f 11//45 24//95 25//73
f 25//74 24//96 11//48
f 19//46 25//97 34//98
f 34//99 25//100 19//47
f 19//46 34//98 20//51
f 20//52 34//99 19//47
f 27//101 26//75 12//49
f 12//50 26//76 27//102
f 20//51 34//103 27//77
f 27//78 34//104 20//52
f 30//105 28//79 14//53
f 14//54 28//80 30//106
f 13//55 28//107 29//81
f 29//82 28//108 13//58
f 21//63 29//109 31//87
f 31//88 29//110 21//64
f 35//111 30//83 22//59
f 22//60 30//84 35//112
f 35//113 22//61 26//85
f 26//86 22//62 35//114
f 16//65 31//115 32//89
f 32//90 31//116 16//66
f 17//67 32//117 33//91
f 33//92 32//118 17//70
f 36//119 23//93 33//120
f 33//121 23//94 36//122
f 24//71 23//93 36//119
f 36//122 23//94 24//72
f 25//73 24//95 37//123
f 37//124 24//96 25//74
f 25//97 38//125 34//98
f 34//99 38//126 25//100
f 39//127 26//75 27//101
f 27//102 26//76 39//128
f 34//103 40//129 27//77
f 27//78 40//130 34//104
f 30//105 41//131 28//79
f 28//80 41//132 30//106
f 29//81 28//107 42//133
f 42//134 28//108 29//82
f 29//109 43//135 31//87
f 31//88 43//136 29//110
f 35//111 44//137 30//83
f 30//84 44//138 35//112
f 39//139 35//113 26//85
f 26//86 35//114 39//140
f 31//115 45//141 32//89
f 32//90 45//142 31//116
f 33//91 32//117 46//143
f 46//144 32//118 33//92
f 36//119 33//120 47//145
f 47//146 33//121 36//122
f 24//95 36//147 37//123
f 37//124 36//148 24//96
f 25//97 37//149 38//125
f 38//126 37//150 25//100
f 34//103 38//151 40//129
f 40//130 38//152 34//104
f 27//101 40//153 39//127
f 39//128 40//154 27//102
f 44//137 41//131 30//105
f 30//106 41//132 44//138
f 41//155 42//133 28//107
f 28//108 42//134 41//156
f 29//109 42//133 43//135
f 43//136 42//134 29//110
f 31//115 43//135 45//141
f 45//142 43//136 31//116
f 48//157 44//137 35//111
f 35//112 44//138 48//158
f 39//139 48//157 35//113
f 35//114 48//158 39//140
f 32//117 45//159 46//143
f 46//144 45//160 32//118
f 33//120 46//143 47//145
f 47//146 46//144 33//121
f 36//147 47//145 49//161
f 49//162 47//146 36//148
f 37//123 36//147 49//161
f 49//162 36//148 37//124
f 38//125 37//149 50//163
f 50//164 37//150 38//126
f 38//151 51//165 40//129
f 40//130 51//166 38//152
f 40//153 52//167 39//127
f 39//128 52//168 40//154
f 41//131 44//137 53//169
f 53//170 44//138 41//132
f 41//155 54//171 42//133
f 42//134 54//172 41//156
f 42//133 54//171 43//135
f 43//136 54//172 42//134
f 43//135 54//171 45//141
f 45//142 54//172 43//136
f 44//137 48//157 53//169
f 53//170 48//158 44//138
f 39//139 52//173 48//157
f 48//158 52//174 39//140
f 45//159 55//175 46//143
f 46//144 55//176 45//160
f 55//175 47//145 46//143
f 46//144 47//146 55//176
f 55//175 49//161 47//145
f 47//146 49//162 55//176
f 37//149 49//177 50//163
f 50//164 49//178 37//150
f 38//151 50//163 51//165
f 51//166 50//164 38//152
f 40//153 51//165 52//167
f 52//168 51//166 40//154
f 41//155 53//179 54//171
f 54//172 53//180 41//156
f 54//171 55//175 45//159
f 45//160 55//176 54//172
f 48//157 52//173 53//169
f 53//170 52//174 48//158
f 56//181 49//177 55//182
f 55//183 49//178 56//184
f 56//181 50//163 49//177
f 49//178 50//164 56//184
f 56//181 51//165 50//163
f 50//164 51//166 56//184
f 52//167 51//165 56//181
f 56//184 51//166 52//168
f 57//185 54//171 53//179
f 53//180 54//172 57//186
f 54//171 58//185 55//175
f 55//176 58//186 54//172
f 53//169 52//173 56//181
f 56//184 52//174 53//170
f 58//187 56//181 55//182
f 55//183 56//184 58//188
f 58//185 54//171 57//185
f 57//186 54//172 58//186
f 56//181 57//187 53//169
f 53//170 57//188 56//184
f 56//181 58//187 57//187
f 57//188 58//188 56//184
