# SSTK version 0.8.0
# 27
mtllib original-27.mtl
o mesh24/mesh24-geometry#mesh24-geometry
v -0.229447 -0.072083 0.009901
v -0.232839 -0.072083 0.021279
v -0.229447 -0.068567 0.010458
v -0.229447 -0.065395 0.012074
v -0.220567 -0.066394 0.003770
v -0.229447 -0.062878 0.014592
v -0.220567 -0.061262 0.006385
v -0.220567 -0.072083 0.002869
v -0.229447 -0.061262 0.017763
v -0.220567 -0.057189 0.010458
v -0.209592 -0.066394 0.003770
v -0.209592 -0.061262 0.006385
v -0.229447 -0.060705 0.021279
v -0.220567 -0.054574 0.015590
v -0.209592 -0.057189 0.010458
v -0.209592 -0.072083 0.002869
v -0.229447 -0.061262 0.024795
v -0.220567 -0.053673 0.021279
v -0.209592 -0.054574 0.015590
v -0.200712 -0.065395 0.012074
v -0.200712 -0.068567 0.010458
v -0.200712 -0.062878 0.014592
v -0.229447 -0.062878 0.027967
v -0.220567 -0.054574 0.026968
v -0.209592 -0.053673 0.021279
v -0.200712 -0.061262 0.017763
v -0.200712 -0.072083 0.009901
v -0.229447 -0.065395 0.030484
v -0.220567 -0.057189 0.032101
v -0.209592 -0.054574 0.026968
v -0.200712 -0.060705 0.021279
v -0.197320 -0.072083 0.021279
v -0.229447 -0.068567 0.032101
v -0.220567 -0.061262 0.036174
v -0.209592 -0.057189 0.032101
v -0.200712 -0.061262 0.024795
v -0.229447 -0.072083 0.032657
v -0.220567 -0.066394 0.038788
v -0.209592 -0.061262 0.036174
v -0.200712 -0.062878 0.027967
v -0.227070 -0.069515 0.034136
v -0.209592 -0.066394 0.038788
v -0.200712 -0.065395 0.030484
v -0.220567 -0.072083 0.039689
v -0.209592 -0.072083 0.039689
v -0.200712 -0.068567 0.032101
v -0.200712 -0.072083 0.032657
vn -0.9573484434419869 0.04519002093193222 -0.28538013218753705
vn 0.9573484434419869 -0.04519002093193222 0.28538013218753705
vn -0.9573486964530183 0.13117595840797994 -0.25744191837277514
vn 0.9573486964530183 -0.13117595840797994 0.25744191837277514
vn -0.6160930060691322 0.1231930012135744 -0.777980007663881
vn 0.6160930060691322 -0.1231930012135744 0.777980007663881
vn -0.9573482258939993 0.204312048209068 -0.20430604820765214
vn 0.9573482258939993 -0.204312048209068 0.20430604820765214
vn -0.6160971048292394 0.35759906084566434 -0.7018171194145438
vn 0.6160971048292394 -0.35759906084566434 0.7018171194145438
vn -0.6161040360273006 0.12322600720576435 -0.7779660454923437
vn 0.6161040360273006 -0.12322600720576435 0.7779660454923437
vn -0.6160958399441745 0.3575979070994732 -0.701818817674162
vn 0.6160958399441745 -0.3575979070994732 0.701818817674162
vn -0.9573480085424163 0.25744700229719963 -0.1311710011704388
vn 0.9573480085424163 -0.25744700229719963 0.1311710011704388
vn -0.6161008568141729 0.5569738705556673 -0.5569558705598504
vn 0.6161008568141729 -0.5569738705556673 0.5569558705598504
vn -0.616097002591612 0.5569670023428818 -0.5569670023428815
vn 0.616097002591612 -0.5569670023428818 0.5569670023428815
vn 0 0.1564439737874235 -0.9876868345106156
vn 0 -0.1564439737874235 0.9876868345106156
vn 0 0.45399389511357574 -0.8910047941507405
vn 0 -0.45399389511357574 0.8910047941507405
vn -0.9573483840863339 0.2853781144931517 -0.04520401813576524
vn 0.9573483840863339 -0.2853781144931517 0.04520401813576524
vn -0.6161047283979917 0.7018186906120712 -0.3575828423641083
vn 0.6161047283979917 -0.7018186906120712 0.3575828423641083
vn -0.6161011122406946 0.7018151278559898 -0.3575960651464993
vn 0.6161011122406946 -0.7018151278559898 0.3575960651464993
vn -0.00000999999690501144 0.7071067811511924 -0.7071067811511922
vn 0.00000999999690501144 -0.7071067811511924 0.7071067811511922
vn 0 0.7070927810522898 -0.7071207810436195
vn 0 -0.7070927810522898 0.7071207810436195
vn -0.9573481974296312 0.2853790588524452 0.045202009321808005
vn 0.9573481974296312 -0.2853790588524452 -0.045202009321808005
vn -0.6160992682487556 0.7779693387267569 -0.12322905365375664
vn 0.6160992682487556 -0.7779693387267569 0.12322905365375664
vn -0.6161031402491187 0.777968177095918 -0.12321702804900407
vn 0.6161031402491187 -0.777968177095918 0.12321702804900407
vn 0 0.8910047941507407 -0.4539938951135753
vn 0 -0.8910047941507407 0.4539938951135753
vn -0.0000069999959173970715 0.8910104803365547 -0.4539827352239533
vn 0.0000069999959173970715 -0.8910104803365547 0.4539827352239533
vn 0.6160968927569473 0.35759793775346893 -0.7018178778356252
vn -0.6160968927569473 -0.35759793775346893 0.7018178778356252
vn 0.6160950211681011 0.12322700423389528 -0.7779730267299868
vn -0.6160950211681011 -0.12322700423389528 0.7779730267299868
vn 0.616104711045418 0.5569517387883035 -0.5569737387779852
vn -0.616104711045418 -0.5569517387883035 0.5569737387779852
vn -0.9573487105332156 0.2574449221581927 0.13116996033906334
vn 0.9573487105332156 -0.2574449221581927 -0.13116996033906334
vn -0.6161037844764601 0.7779667278540607 0.1232229568945226
vn 0.6161037844764601 -0.7779667278540607 -0.1232229568945226
vn -0.6161006892271848 0.7779706075769429 0.12321393784856452
vn 0.6161006892271848 -0.7779706075769429 -0.12321393784856452
vn 0 0.9876885830917987 -0.15643293396889013
vn 0 -0.9876885830917987 0.15643293396889013
vn 0.6161049322561859 0.7018169228317246 -0.35758596068163767
vn -0.6161049322561859 -0.7018169228317246 0.35758596068163767
vn 0.6160956958256208 0.5569767250134182 -0.5569587250223048
vn -0.6160956958256208 -0.5569767250134182 0.5569587250223048
vn 0.6160958317011246 0.35759990231444816 -0.7018178082844555
vn -0.6160958317011246 -0.35759990231444816 0.7018178082844555
vn 0.6161066368576136 0.1231909273894411 -0.777969541453218
vn -0.6161066368576136 -0.1231909273894411 0.777969541453218
vn 0.6161036755891547 0.7018196304552163 -0.35758281171392586
vn -0.6161036755891547 -0.7018196304552163 0.35758281171392586
vn -0.9573487005667429 0.20430493609883998 0.20431093609696346
vn 0.9573487005667429 -0.20430493609883998 -0.20431093609696346
vn -0.6160958893377905 0.7018248739392802 0.35758593577095654
vn 0.6160958893377905 -0.7018248739392802 -0.35758593577095654
vn -0.6161031848599399 0.7018092105757796 0.35760410729805575
vn 0.6161031848599399 -0.7018092105757796 -0.35760410729805575
vn 0 0.9876893556151471 0.15642805632154097
vn 0 -0.9876893556151471 -0.15642805632154097
vn 0.6161003203756384 0.7779704045489945 -0.1232170640735675
vn -0.6161003203756384 -0.7779704045489945 0.1232170640735675
vn 0.6161042875722882 0.7779653631224196 -0.12322905751828492
vn -0.6161042875722882 -0.7779653631224196 0.12322905751828492
vn 0.9573482258939993 0.204312048209068 -0.20430604820765214
vn -0.9573482258939993 -0.204312048209068 0.20430604820765214
vn 0.9573486964530183 0.13117595840797994 -0.25744191837277514
vn -0.9573486964530183 -0.13117595840797994 0.25744191837277514
vn 0.9573484434419869 0.04519002093193222 -0.28538013218753705
vn -0.9573484434419869 -0.04519002093193222 0.28538013218753705
vn 0.9573480085424163 0.25744700229719963 -0.1311710011704388
vn -0.9573480085424163 -0.25744700229719963 0.1311710011704388
vn -0.9573486964530181 0.1311759584079798 0.2574419183727752
vn 0.9573486964530181 -0.1311759584079798 -0.2574419183727752
vn -0.6161040906547948 0.5569540819513434 0.5569720819539923
vn 0.6161040906547948 -0.5569540819513434 -0.5569720819539923
vn -0.6160973457188099 0.5569723125412019 0.5569613125350297
vn 0.6160973457188099 -0.5569723125412019 -0.5569613125350297
vn 0 0.8909991077993155 0.4540050549287131
vn 0 -0.8909991077993155 -0.4540050549287131
vn 0.6161029645928716 0.7779689552905144 0.12321299291901126
vn -0.6161029645928716 -0.7779689552905144 -0.12321299291901126
vn 0.6160997889624467 0.7779697335158491 0.12322395779111935
vn -0.6160997889624467 -0.7779697335158491 -0.12322395779111935
vn 0.9573483840863339 0.2853781144931517 -0.04520401813576524
vn -0.9573483840863339 -0.2853781144931517 0.04520401813576524
vn -0.9573488273258796 0.04520199184705301 0.2853769485274205
vn 0.9573488273258796 -0.04520199184705301 -0.2853769485274205
vn -0.6161017244165281 0.3575978400458066 0.7018136860774049
vn 0.6161017244165281 -0.3575978400458066 -0.7018136860774049
vn -0.6161042953786451 0.35759017143931804 0.7018153364710565
vn 0.6161042953786451 -0.35759017143931804 -0.7018153364710565
vn 0 0.7071137811497327 0.7070997811540658
vn 0 -0.7071137811497327 -0.7070997811540658
vn 0.61609791257294 0.7018129004095982 0.3576059492541103
vn -0.61609791257294 -0.7018129004095982 -0.3576059492541103
vn 0.6161047283979917 0.701818690612071 0.35758284236410864
vn -0.6161047283979917 -0.701818690612071 -0.35758284236410864
vn 0.9573481974296312 0.2853790588524452 0.045202009321808005
vn -0.9573481974296312 -0.2853790588524452 -0.045202009321808005
vn -0.6161388339672423 0.12296496686426578 0.7779797903554801
vn 0.6161388339672423 -0.12296496686426578 -0.7779797903554801
vn -0.6160419446141354 0.1232719889171089 0.7780079300524222
vn 0.6160419446141354 -0.1232719889171089 -0.7780079300524222
vn 0 0.45398791823496715 0.8910078395259386
vn 0 -0.45398791823496715 -0.8910078395259386
vn 0.6161018204109663 0.5569698376474931 0.5569588376506998
vn -0.6161018204109663 -0.5569698376474931 -0.5569588376506998
vn 0.6160956958256208 0.5569587250223048 0.5569767250134182
vn -0.6160956958256208 -0.5569587250223048 -0.5569767250134182
vn 0.9573487105332156 0.2574449221581927 0.13116996033906334
vn -0.9573487105332156 -0.2574449221581927 -0.13116996033906334
vn 0 0.1564189675397826 0.9876907950334398
vn 0 -0.1564189675397826 -0.9876907950334398
vn 0.6161024018402926 0.35759123323162717 0.7018164577455467
vn -0.6161024018402926 -0.35759123323162717 -0.7018164577455467
vn 0.6161046707605291 0.3575968089042498 0.7018116249596879
vn -0.6161046707605291 -0.3575968089042498 -0.7018116249596879
vn 0.9573487005667429 0.20430493609883998 0.20431093609696346
vn -0.9573487005667429 -0.20430493609883998 -0.20431093609696346
vn 0.6160968216760376 0.12320696433879642 0.7779747748218467
vn -0.6160968216760376 -0.12320696433879642 -0.7779747748218467
vn 0.6161034156108742 0.12322608312581741 0.7779665248004464
vn -0.6161034156108742 -0.12322608312581741 -0.7779665248004464
vn 0.9573486964530181 0.1311759584079798 0.2574419183727752
vn -0.9573486964530181 -0.1311759584079798 -0.2574419183727752
vn 0.9573488273258796 0.04520199184705301 0.2853769485274205
vn -0.9573488273258796 -0.04520199184705301 -0.2853769485274205
usemtl material_0_0
f 1//1 2//1 3//1
f 3//2 2//2 1//2
f 3//3 2//3 4//3
f 4//4 2//4 3//4
f 5//5 1//5 3//5
f 3//6 1//6 5//6
f 4//7 2//7 6//7
f 6//8 2//8 4//8
f 7//9 3//9 4//9
f 4//10 3//10 7//10
f 5//11 8//11 1//11
f 1//12 8//12 5//12
f 7//13 5//13 3//13
f 3//14 5//14 7//14
f 6//15 2//15 9//15
f 9//16 2//16 6//16
f 10//17 4//17 6//17
f 6//18 4//18 10//18
f 7//19 4//19 10//19
f 10//20 4//20 7//20
f 5//21 11//21 8//21
f 8//22 11//22 5//22
f 12//23 5//23 7//23
f 7//24 5//24 12//24
f 9//25 2//25 13//25
f 13//26 2//26 9//26
f 14//27 6//27 9//27
f 9//28 6//28 14//28
f 14//29 10//29 6//29
f 6//30 10//30 14//30
f 15//31 7//31 10//31
f 10//32 7//32 15//32
f 12//23 11//23 5//23
f 5//24 11//24 12//24
f 11//21 16//21 8//21
f 8//22 16//22 11//22
f 15//33 12//33 7//33
f 7//34 12//34 15//34
f 2//35 17//35 13//35
f 13//36 17//36 2//36
f 18//37 9//37 13//37
f 13//38 9//38 18//38
f 14//39 9//39 18//39
f 18//40 9//40 14//40
f 19//41 10//41 14//41
f 14//42 10//42 19//42
f 19//43 15//43 10//43
f 10//44 15//44 19//44
f 12//45 20//45 11//45
f 11//46 20//46 12//46
f 11//47 21//47 16//47
f 16//48 21//48 11//48
f 12//49 15//49 22//49
f 22//50 15//50 12//50
f 2//51 23//51 17//51
f 17//52 23//52 2//52
f 24//53 13//53 17//53
f 17//54 13//54 24//54
f 24//55 18//55 13//55
f 13//56 18//56 24//56
f 25//57 14//57 18//57
f 18//58 14//58 25//58
f 19//57 14//57 25//57
f 25//58 14//58 19//58
f 26//59 15//59 19//59
f 19//60 15//60 26//60
f 12//61 22//61 20//61
f 20//62 22//62 12//62
f 20//63 21//63 11//63
f 11//64 21//64 20//64
f 21//65 27//65 16//65
f 16//66 27//66 21//66
f 26//67 22//67 15//67
f 15//68 22//68 26//68
f 2//69 28//69 23//69
f 23//70 28//70 2//70
f 29//71 17//71 23//71
f 23//72 17//72 29//72
f 29//73 24//73 17//73
f 17//74 24//74 29//74
f 30//75 18//75 24//75
f 24//76 18//76 30//76
f 30//75 25//75 18//75
f 18//76 25//76 30//76
f 31//77 19//77 25//77
f 25//78 19//78 31//78
f 31//79 26//79 19//79
f 19//80 26//80 31//80
f 20//81 22//81 32//81
f 32//82 22//82 20//82
f 21//83 20//83 32//83
f 32//84 20//84 21//84
f 27//85 21//85 32//85
f 32//86 21//86 27//86
f 22//87 26//87 32//87
f 32//88 26//88 22//88
f 2//89 33//89 28//89
f 28//90 33//90 2//90
f 23//91 28//91 34//91
f 34//92 28//92 23//92
f 23//93 34//93 29//93
f 29//94 34//94 23//94
f 35//95 24//95 29//95
f 29//96 24//96 35//96
f 35//95 30//95 24//95
f 24//96 30//96 35//96
f 36//97 25//97 30//97
f 30//98 25//98 36//98
f 31//99 25//99 36//99
f 36//100 25//100 31//100
f 26//101 31//101 32//101
f 32//102 31//102 26//102
f 2//103 37//103 33//103
f 33//104 37//104 2//104
f 28//105 33//105 38//105
f 38//106 33//106 28//106
f 34//107 28//107 38//107
f 38//108 28//108 34//108
f 39//109 29//109 34//109
f 34//110 29//110 39//110
f 35//109 29//109 39//109
f 39//110 29//110 35//110
f 40//111 30//111 35//111
f 35//112 30//112 40//112
f 36//113 30//113 40//113
f 40//114 30//114 36//114
f 32//115 31//115 36//115
f 36//116 31//116 32//116
f 37//117 41//117 33//117
f 33//118 41//118 37//118
f 41//119 38//119 33//119
f 33//120 38//120 41//120
f 34//121 38//121 42//121
f 42//122 38//122 34//122
f 34//121 42//121 39//121
f 39//122 42//122 34//122
f 43//123 35//123 39//123
f 39//124 35//124 43//124
f 40//125 35//125 43//125
f 43//126 35//126 40//126
f 32//127 36//127 40//127
f 40//128 36//128 32//128
f 41//117 37//117 44//117
f 44//118 37//118 41//118
f 38//119 41//119 44//119
f 44//120 41//120 38//120
f 38//129 45//129 42//129
f 42//130 45//130 38//130
f 39//131 42//131 46//131
f 46//132 42//132 39//132
f 39//133 46//133 43//133
f 43//134 46//134 39//134
f 32//135 40//135 43//135
f 43//136 40//136 32//136
f 38//129 44//129 45//129
f 45//130 44//130 38//130
f 42//137 45//137 47//137
f 47//138 45//138 42//138
f 42//139 47//139 46//139
f 46//140 47//140 42//140
f 32//141 43//141 46//141
f 46//142 43//142 32//142
f 32//143 46//143 47//143
f 47//144 46//144 32//144
