# SSTK version 0.8.0
# 28
mtllib original-28.mtl
o mesh25/mesh25-geometry#mesh25-geometry
v 0.193851 -0.072083 0.009901
v 0.190459 -0.072083 0.021279
v 0.193851 -0.068567 0.010458
v 0.193851 -0.065395 0.012074
v 0.202731 -0.066394 0.003770
v 0.193851 -0.062878 0.014592
v 0.202731 -0.061262 0.006385
v 0.202731 -0.072083 0.002869
v 0.193851 -0.061262 0.017763
v 0.202731 -0.057189 0.010458
v 0.213706 -0.066394 0.003770
v 0.213706 -0.061262 0.006385
v 0.193851 -0.060705 0.021279
v 0.202731 -0.054574 0.015590
v 0.213706 -0.057189 0.010458
v 0.213706 -0.072083 0.002869
v 0.191577 -0.068515 0.022444
v 0.202731 -0.053673 0.021279
v 0.213706 -0.054574 0.015590
v 0.222586 -0.065395 0.012074
v 0.222586 -0.068567 0.010458
v 0.222586 -0.062878 0.014592
v 0.193851 -0.061262 0.024795
v 0.193851 -0.062878 0.027967
v 0.202731 -0.054574 0.026968
v 0.213706 -0.053673 0.021279
v 0.222586 -0.061262 0.017763
v 0.222586 -0.072083 0.009901
v 0.193851 -0.065395 0.030484
v 0.213706 -0.054574 0.026968
v 0.222586 -0.060705 0.021279
v 0.225978 -0.072083 0.021279
v 0.202731 -0.057189 0.032101
v 0.193851 -0.068567 0.032101
v 0.202731 -0.061262 0.036174
v 0.213706 -0.057189 0.032101
v 0.222586 -0.061262 0.024795
v 0.193851 -0.072083 0.032657
v 0.202731 -0.066394 0.038788
v 0.222586 -0.062878 0.027967
v 0.213706 -0.061262 0.036174
v 0.202731 -0.072083 0.039689
v 0.213706 -0.066394 0.038788
v 0.222586 -0.065395 0.030484
v 0.213706 -0.072083 0.039689
v 0.222586 -0.068567 0.032101
v 0.222586 -0.072083 0.032657
vn -0.9573484434419869 0.04519002093193222 -0.28538013218753705
vn 0.9573484434419869 -0.04519002093193222 0.28538013218753705
vn -0.9573488220336572 0.13117497561523023 -0.25744195214283266
vn 0.9573488220336572 -0.13117497561523023 0.25744195214283266
vn -0.6160930060691322 0.1231930012135744 -0.777980007663881
vn 0.6160930060691322 -0.1231930012135744 0.777980007663881
vn -0.9573484214856596 0.20431208995117567 -0.2043050899480937
vn 0.9573484214856596 -0.20431208995117567 0.2043050899480937
vn -0.6160971048292394 0.35759906084566434 -0.7018171194145438
vn 0.6160971048292394 -0.35759906084566434 0.7018171194145438
vn -0.6161030881415623 0.12322401762879907 -0.7779671112983169
vn 0.6161030881415623 -0.12322401762879907 0.7779671112983169
vn -0.6160958399441745 0.3575979070994732 -0.701818817674162
vn 0.6160958399441745 -0.3575979070994732 0.701818817674162
vn -0.9573482550084101 0.2574460685757898 -0.13117103493996762
vn 0.9573482550084101 -0.2574460685757898 0.13117103493996762
vn -0.6161008568141729 0.5569738705556673 -0.5569558705598504
vn 0.6161008568141729 -0.5569738705556673 0.5569558705598504
vn -0.616097002591612 0.5569670023428818 -0.5569670023428815
vn 0.616097002591612 -0.5569670023428818 0.5569670023428815
vn 0 0.1564439737874235 -0.9876868345106156
vn 0 -0.1564439737874235 0.9876868345106156
vn -0.00000299999930689524 0.45399389511153276 -0.8910047941467311
vn 0.00000299999930689524 -0.45399389511153276 0.8910047941467311
vn -0.9573483840863339 0.2853781144931517 -0.04520401813576524
vn 0.9573483840863339 -0.2853781144931517 0.04520401813576524
vn -0.6161047283979917 0.7018186906120712 -0.3575828423641083
vn 0.6161047283979917 -0.7018186906120712 0.3575828423641083
vn -0.6161011122406946 0.7018151278559898 -0.3575960651464993
vn 0.6161011122406946 -0.7018151278559898 0.3575960651464993
vn -0.00000999999690501144 0.7071067811511924 -0.7071067811511922
vn 0.00000999999690501144 -0.7071067811511924 0.7071067811511922
vn 0 0.4539879182349676 -0.8910078395259384
vn 0 -0.4539879182349676 0.8910078395259384
vn -0.000004999998452448219 0.7070997811452271 -0.7071137811408937
vn 0.000004999998452448219 -0.7070997811452271 0.7071137811408937
vn -0.9573424526938461 0.28540513495813113 0.04515902135412575
vn 0.9573424526938461 -0.28540513495813113 -0.04515902135412575
vn -0.6160992682487556 0.7779693387267569 -0.12322905365375664
vn 0.6160992682487556 -0.7779693387267569 0.12322905365375664
vn -0.6161031402491187 0.777968177095918 -0.12321702804900407
vn 0.6161031402491187 -0.777968177095918 0.12321702804900407
vn 0 0.8910047941507407 -0.4539938951135753
vn 0 -0.8910047941507407 0.4539938951135753
vn -0.0000069999959173970715 0.8910104803365547 -0.4539827352239533
vn 0.0000069999959173970715 -0.8910104803365547 0.4539827352239533
vn 0.6160981823607764 0.35759310584507203 -0.7018192077336035
vn -0.6160981823607764 -0.35759310584507203 0.7018192077336035
vn 0.6161040360273006 0.12322600720576435 -0.7779660454923437
vn -0.6161040360273006 -0.12322600720576435 0.7779660454923437
vn 0.6161050542486685 0.5569570490406274 -0.5569680490415957
vn -0.6161050542486685 -0.5569570490406274 0.5569680490415957
vn -0.9573388124085206 0.25744094955419333 0.13124997428143884
vn 0.9573388124085206 -0.25744094955419333 -0.13124997428143884
vn -0.6161006892271848 0.7779706075769429 0.12321393784856452
vn 0.6161006892271848 -0.7779706075769429 -0.12321393784856452
vn 0 0.9876885830917987 -0.15643293396889013
vn 0 -0.9876885830917987 0.15643293396889013
vn 0.6161001005977568 0.7018211145944139 -0.35758605838719265
vn -0.6161001005977568 -0.7018211145944139 0.35758605838719265
vn 0.6160989296800123 0.5569749364282769 -0.5569569364303312
vn -0.6160989296800123 -0.5569749364282769 0.5569569364303312
vn 0.6161060589967787 0.3575680342398228 -0.7018250672050169
vn -0.6161060589967787 -0.3575680342398228 0.7018250672050169
vn 0.6161046707605291 0.7018116249596879 -0.3575968089042498
vn -0.6161046707605291 -0.7018116249596879 0.3575968089042498
vn -0.6161037844764601 0.7779667278540607 0.1232229568945226
vn 0.6161037844764601 -0.7779667278540607 -0.1232229568945226
vn -0.9573488961573281 0.20430397783935297 0.20431097783859378
vn 0.9573488961573281 -0.20430397783935297 -0.20431097783859378
vn 0 0.9876893556151471 0.15642805632154097
vn 0 -0.9876893556151471 -0.15642805632154097
vn 0.6161003203756384 0.7779704045489945 -0.1232170640735675
vn -0.6161003203756384 -0.7779704045489945 0.1232170640735675
vn 0.6160976936824639 0.7779736131993955 -0.12320993874126562
vn -0.6160976936824639 -0.7779736131993955 0.12320993874126562
vn 0.9573488961573281 0.20431097783859378 -0.20430397783935297
vn -0.9573488961573281 -0.20431097783859378 0.20430397783935297
vn 0.957348599000263 0.13116494505960685 -0.2574478921641112
vn -0.957348599000263 -0.13116494505960685 0.2574478921641112
vn 0.9573481541550842 0.04520300727872449 -0.28537904595259384
vn -0.9573481541550842 -0.04520300727872449 0.28537904595259384
vn 0.9573488220336572 0.2574419521428328 -0.13117497561523012
vn -0.9573488220336572 -0.2574419521428328 0.13117497561523012
vn -0.6160958893377905 0.7018248739392802 0.35758593577095654
vn 0.6160958893377905 -0.7018248739392802 -0.35758593577095654
vn -0.6161031848599399 0.7018092105757796 0.35760410729805575
vn 0.6161031848599399 -0.7018092105757796 -0.35760410729805575
vn -0.9573488220336572 0.13117497561523012 0.2574419521428328
vn 0.9573488220336572 -0.13117497561523012 -0.2574419521428328
vn -0.6161040906547948 0.5569540819513434 0.5569720819539923
vn 0.6161040906547948 -0.5569540819513434 -0.5569720819539923
vn 0 0.8910047941507405 0.45399389511357574
vn 0 -0.8910047941507405 -0.45399389511357574
vn 0.6161029645928716 0.7779689552905144 0.12321299291901126
vn -0.6161029645928716 -0.7779689552905144 -0.12321299291901126
vn 0.6160997889624467 0.7779697335158491 0.12322395779111935
vn -0.6160997889624467 -0.7779697335158491 -0.12322395779111935
vn 0.9573489435480064 0.28537798317211693 -0.04519299733510453
vn -0.9573489435480064 -0.28537798317211693 0.04519299733510453
vn -0.6160973457188099 0.5569723125412019 0.5569613125350297
vn 0.6160973457188099 -0.5569723125412019 -0.5569613125350297
vn -0.000006000000725814132 0.8909991077832774 0.454005054920541
vn 0.000006000000725814132 -0.8909991077832774 -0.454005054920541
vn -0.9573491005307557 0.04520200474664011 0.28537602996719585
vn 0.9573491005307557 -0.04520200474664011 -0.28537602996719585
vn -0.6161017244165281 0.3575978400458066 0.7018136860774049
vn 0.6161017244165281 -0.3575978400458066 -0.7018136860774049
vn -0.6161042953786451 0.35759017143931804 0.7018153364710565
vn 0.6161042953786451 -0.35759017143931804 -0.7018153364710565
vn 0.6161006798516823 0.7018156353110742 0.35759581418021114
vn -0.6161006798516823 -0.7018156353110742 -0.35759581418021114
vn 0.6161047283979917 0.701818690612071 0.35758284236410864
vn -0.6161047283979917 -0.701818690612071 -0.35758284236410864
vn 0.9573485973938335 0.28537787998635544 0.045200980991047905
vn -0.9573485973938335 -0.28537787998635544 -0.045200980991047905
vn -0.000004999998452448219 0.7071137811408937 0.7070997811452271
vn 0.000004999998452448219 -0.7071137811408937 -0.7070997811452271
vn -0.6160950211681011 0.12322700423389495 0.7779730267299868
vn 0.6160950211681011 -0.12322700423389495 -0.7779730267299868
vn -0.6161019169245151 0.12320598338684453 0.7779708950980225
vn 0.6161019169245151 -0.12320598338684453 -0.7779708950980225
vn -0.0000029999994596746464 0.4539879182329242 0.8910078395219292
vn 0.0000029999994596746464 -0.4539879182329242 -0.8910078395219292
vn 0.6160989296800123 0.5569569364303312 0.5569749364282769
vn -0.6160989296800123 -0.5569569364303312 -0.5569749364282769
vn 0.9573487105332156 0.2574449221581927 0.13116996033906334
vn -0.9573487105332156 -0.2574449221581927 -0.13116996033906334
vn 0.6161050542486685 0.5569680490415957 0.5569570490406274
vn -0.6161050542486685 -0.5569680490415957 -0.5569570490406274
vn 0 0.1564189675397826 0.9876907950334398
vn 0 -0.1564189675397826 -0.9876907950334398
vn -0.0000010000001053145167 0.15641701647298054 0.9876911040182003
vn 0.0000010000001053145167 -0.15641701647298054 -0.9876911040182003
vn 0.9573488961573281 0.20430397783935297 0.20431097783859378
vn -0.9573488961573281 -0.20430397783935297 -0.20431097783859378
vn 0.6161042953786451 0.35759017143931804 0.7018153364710565
vn -0.6161042953786451 -0.35759017143931804 -0.7018153364710565
vn 0.6161069966838041 0.3575959980752394 0.7018099962225078
vn -0.6161069966838041 -0.3575959980752394 -0.7018099962225078
vn 0.6160969734896559 0.12320499469855063 0.7779749665241269
vn -0.6160969734896559 -0.12320499469855063 -0.7779749665241269
vn 0.9573488220336572 0.13117497561523012 0.2574419521428328
vn -0.9573488220336572 -0.13117497561523012 -0.2574419521428328
vn 0.6161040360273006 0.12322600720576402 0.7779660454923437
vn -0.6161040360273006 -0.12322600720576402 -0.7779660454923437
vn 0.9573491005307557 0.04520200474664011 0.28537602996719585
vn -0.9573491005307557 -0.04520200474664011 -0.28537602996719585
usemtl material_0_0
f 1//1 2//1 3//1
f 3//2 2//2 1//2
f 3//3 2//3 4//3
f 4//4 2//4 3//4
f 5//5 1//5 3//5
f 3//6 1//6 5//6
f 4//7 2//7 6//7
f 6//8 2//8 4//8
f 7//9 3//9 4//9
f 4//10 3//10 7//10
f 5//11 8//11 1//11
f 1//12 8//12 5//12
f 7//13 5//13 3//13
f 3//14 5//14 7//14
f 6//15 2//15 9//15
f 9//16 2//16 6//16
f 10//17 4//17 6//17
f 6//18 4//18 10//18
f 7//19 4//19 10//19
f 10//20 4//20 7//20
f 5//21 11//21 8//21
f 8//22 11//22 5//22
f 12//23 5//23 7//23
f 7//24 5//24 12//24
f 9//25 2//25 13//25
f 13//26 2//26 9//26
f 14//27 6//27 9//27
f 9//28 6//28 14//28
f 14//29 10//29 6//29
f 6//30 10//30 14//30
f 15//31 7//31 10//31
f 10//32 7//32 15//32
f 12//33 11//33 5//33
f 5//34 11//34 12//34
f 11//21 16//21 8//21
f 8//22 16//22 11//22
f 15//35 12//35 7//35
f 7//36 12//36 15//36
f 17//37 13//37 2//37
f 2//38 13//38 17//38
f 18//39 9//39 13//39
f 13//40 9//40 18//40
f 14//41 9//41 18//41
f 18//42 9//42 14//42
f 19//43 10//43 14//43
f 14//44 10//44 19//44
f 15//45 10//45 19//45
f 19//46 10//46 15//46
f 12//47 20//47 11//47
f 11//48 20//48 12//48
f 11//49 21//49 16//49
f 16//50 21//50 11//50
f 12//51 15//51 22//51
f 22//52 15//52 12//52
f 13//37 17//37 23//37
f 23//38 17//38 13//38
f 24//53 17//53 2//53
f 2//54 17//54 24//54
f 25//55 18//55 13//55
f 13//56 18//56 25//56
f 26//57 14//57 18//57
f 18//58 14//58 26//58
f 26//57 19//57 14//57
f 14//58 19//58 26//58
f 27//59 15//59 19//59
f 19//60 15//60 27//60
f 12//61 22//61 20//61
f 20//62 22//62 12//62
f 20//63 21//63 11//63
f 11//64 21//64 20//64
f 21//49 28//49 16//49
f 16//50 28//50 21//50
f 27//65 22//65 15//65
f 15//66 22//66 27//66
f 17//53 24//53 23//53
f 23//54 24//54 17//54
f 25//67 13//67 23//67
f 23//68 13//68 25//68
f 2//69 29//69 24//69
f 24//70 29//70 2//70
f 30//71 18//71 25//71
f 25//72 18//72 30//72
f 30//71 26//71 18//71
f 18//72 26//72 30//72
f 31//73 19//73 26//73
f 26//74 19//74 31//74
f 27//75 19//75 31//75
f 31//76 19//76 27//76
f 20//77 22//77 32//77
f 32//78 22//78 20//78
f 21//79 20//79 32//79
f 32//80 20//80 21//80
f 28//81 21//81 32//81
f 32//82 21//82 28//82
f 22//83 27//83 32//83
f 32//84 27//84 22//84
f 33//85 23//85 24//85
f 24//86 23//86 33//86
f 25//87 23//87 33//87
f 33//88 23//88 25//88
f 2//89 34//89 29//89
f 29//90 34//90 2//90
f 24//91 29//91 35//91
f 35//92 29//92 24//92
f 30//93 25//93 36//93
f 36//94 25//94 30//94
f 37//95 26//95 30//95
f 30//96 26//96 37//96
f 31//97 26//97 37//97
f 37//98 26//98 31//98
f 27//99 31//99 32//99
f 32//100 31//100 27//100
f 24//101 35//101 33//101
f 33//102 35//102 24//102
f 36//103 25//103 33//103
f 33//104 25//104 36//104
f 2//105 38//105 34//105
f 34//106 38//106 2//106
f 29//107 34//107 39//107
f 39//108 34//108 29//108
f 35//109 29//109 39//109
f 39//110 29//110 35//110
f 40//111 30//111 36//111
f 36//112 30//112 40//112
f 40//113 37//113 30//113
f 30//114 37//114 40//114
f 31//115 37//115 32//115
f 32//116 37//116 31//116
f 41//117 33//117 35//117
f 35//118 33//118 41//118
f 41//117 36//117 33//117
f 33//118 36//118 41//118
f 34//119 38//119 42//119
f 42//120 38//120 34//120
f 39//121 34//121 42//121
f 42//122 34//122 39//122
f 35//123 39//123 43//123
f 43//124 39//124 35//124
f 40//125 36//125 44//125
f 44//126 36//126 40//126
f 32//127 37//127 40//127
f 40//128 37//128 32//128
f 41//123 35//123 43//123
f 43//124 35//124 41//124
f 44//129 36//129 41//129
f 41//130 36//130 44//130
f 39//131 42//131 45//131
f 45//132 42//132 39//132
f 43//133 39//133 45//133
f 45//134 39//134 43//134
f 32//135 40//135 44//135
f 44//136 40//136 32//136
f 41//137 43//137 46//137
f 46//138 43//138 41//138
f 41//139 46//139 44//139
f 44//140 46//140 41//140
f 43//141 45//141 47//141
f 47//142 45//142 43//142
f 32//143 44//143 46//143
f 46//144 44//144 32//144
f 43//145 47//145 46//145
f 46//146 47//146 43//146
f 32//147 46//147 47//147
f 47//148 46//148 32//148
