# SSTK version 0.8.0
# 23
mtllib original-23.mtl
o mesh20/mesh20-geometry#mesh20-geometry
v 0.083064 -0.304756 0.115535
v 0.085105 -0.304756 0.120464
v 0.083064 -0.295281 0.120464
v 0.083064 -0.331553 0.115535
v 0.083064 -0.295281 0.233867
v 0.081620 -0.295281 0.116979
v 0.085105 -0.331553 0.120464
v 0.078135 -0.331553 0.113494
v 0.085105 -0.304756 0.233867
v 0.078135 -0.291357 0.233867
v 0.078135 -0.291357 0.120464
v 0.078135 -0.304756 0.113494
v 0.081620 -0.341027 0.116979
v 0.078135 -0.341027 0.115535
v 0.081620 -0.295281 0.237352
v 0.078135 -0.295281 0.115535
v 0.083064 -0.341027 0.120464
v 0.085105 -0.331553 0.233867
v -0.092053 -0.331553 0.113494
v -0.092053 -0.341027 0.115535
v 0.083064 -0.304756 0.238796
v 0.078135 -0.295281 0.238796
v -0.092053 -0.295281 0.115535
v -0.092053 -0.304756 0.113494
v 0.078135 -0.344952 0.120464
v -0.092053 -0.344952 0.120464
v -0.092053 -0.291357 0.233867
v -0.092053 -0.291357 0.120464
v 0.083064 -0.341027 0.233867
v 0.083064 -0.331553 0.238796
v -0.096981 -0.331553 0.115535
v -0.095538 -0.341027 0.116979
v 0.078135 -0.304756 0.240837
v -0.092053 -0.295281 0.238796
v -0.095538 -0.295281 0.116979
v -0.096981 -0.304756 0.115535
v -0.092053 -0.344952 0.233867
v 0.078135 -0.344952 0.233867
v -0.096981 -0.341027 0.120464
v -0.095538 -0.295281 0.237352
v -0.096981 -0.295281 0.120464
v 0.081620 -0.341027 0.237352
v 0.078135 -0.331553 0.240837
v -0.099023 -0.331553 0.120464
v -0.092053 -0.304756 0.240837
v -0.096981 -0.295281 0.233867
v -0.099023 -0.304756 0.120464
v -0.096981 -0.341027 0.233867
v -0.092053 -0.341027 0.238796
v 0.078135 -0.341027 0.238796
v -0.096981 -0.304756 0.238796
v -0.099023 -0.304756 0.233867
v -0.095538 -0.341027 0.237352
v -0.092053 -0.331553 0.240837
v -0.099023 -0.331553 0.233867
v -0.096981 -0.331553 0.238796
vn -0.9061021633317253 -0.1952350351925826 0.3753160676535421
vn 0.9061021633317253 0.1952350351925826 -0.3753160676535421
vn -0.9238806073868567 0 0.38268083737560327
vn 0.9238806073868567 0 -0.38268083737560327
vn -0.9775652004429218 -0.21063304318883547 0
vn 0.9775652004429218 0.21063304318883547 0
vn -0.9061031993603947 -0.1952340429553013 0.3753140825764258
vn 0.9061031993603947 0.1952340429553013 -0.3753140825764258
vn -0.923880107389982 0 0.382682044482198
vn 0.923880107389982 0 -0.382682044482198
vn -0.3826882264609913 0 0.9238775467171724
vn 0.3826882264609913 0 -0.9238775467171724
vn -0.6229180669347302 -0.7822870840594898 0
vn 0.6229180669347302 0.7822870840594898 0
vn -0.603165321859657 -0.7574764042027731 0.24984213332017
vn 0.603165321859657 0.7574764042027731 -0.24984213332017
vn -0.37532388768941033 -0.1952359415782891 0.9060987288622284
vn 0.37532388768941033 0.1952359415782891 -0.9060987288622284
vn -0.9061013042009114 0.1952350655453033 0.375318126003699
vn 0.9061013042009114 -0.1952350655453033 -0.375318126003699
vn -1 0 0
vn 1 0 0
vn -0.37532415449302464 0.1952370803645772 0.9060983729732728
vn 0.37532415449302464 -0.1952370803645772 -0.9060983729732728
vn -0.9061030224577638 -0.19523500483889958 -0.37531400930215786
vn 0.9061030224577638 0.19523500483889958 0.37531400930215786
vn -0.6031639129872784 -0.75747989072558 -0.2498349639586859
vn 0.6031639129872784 0.75747989072558 0.2498349639586859
vn -0.6229202654808872 -0.7822853334003016 0
vn 0.6229202654808872 0.7822853334003016 0
vn -0.24984111863283606 -0.7574783596758075 0.6031632864019005
vn 0.24984111863283606 0.7574783596758075 -0.6031632864019005
vn -0.37532209614739964 -0.19523705001446742 0.9060992321181883
vn 0.37532209614739964 0.19523705001446742 -0.9060992321181883
vn -0.9061031718891472 0.19523803703695192 0.37531207119726967
vn 0.9061031718891472 -0.19523803703695192 -0.37531207119726967
vn 0 0 1
vn 0 0 -1
vn 0 0.21063707163083434 0.9775643324379153
vn 0 -0.21063707163083434 -0.9775643324379153
vn -0.9061020001590209 -0.1952340000342635 -0.3753170000658682
vn 0.9061020001590209 0.1952340000342635 0.3753170000658682
vn -0.24983908925178266 -0.7574822706007421 -0.6031592154708273
vn 0.24983908925178266 0.7574822706007421 0.6031592154708273
vn 0 -0.7822879593863483 0.6229169676603319
vn 0 0.7822879593863483 -0.6229169676603319
vn 0 -0.21063591008786947 0.9775645827163824
vn 0 0.21063591008786947 -0.9775645827163824
vn -0.24984201765771014 0.7574790535352126 0.6031620426287806
vn 0.24984201765771014 -0.7574790535352126 -0.6031620426287806
vn -0.6031698638582438 0.757474829029997 0.24983594360941078
vn 0.6031698638582438 -0.757474829029997 -0.24983594360941078
vn -0.9775645827163826 0.2106359100878693 0
vn 0.9775645827163826 -0.2106359100878693 0
vn -0.9238806073868567 0 -0.38268083737560327
vn 0.9238806073868567 0 0.38268083737560327
vn 0 0.7822910726552865 0.6229130578530531
vn 0 -0.7822910726552865 -0.6229130578530531
vn -0.3753230285572044 -0.19523601485492303 -0.9060990689423625
vn 0.3753230285572044 0.19523601485492303 0.9060990689423625
vn 0 0.7822879593863481 0.6229169676603323
vn 0 -0.7822879593863481 -0.6229169676603323
vn -0.6229241752597413 0.7822822200951335 0
vn 0.6229241752597413 -0.7822822200951335 0
vn -0.9775647886260764 0.2106349544554619 0
vn 0.9775647886260764 -0.2106349544554619 0
vn 0.3826861658026441 0 0.9238784002796423
vn -0.3826861658026441 0 -0.9238784002796423
vn 0.3753220228704358 0.19523801189692602 0.9060990552136006
vn -0.3753220228704358 -0.19523801189692602 -0.9060990552136006
vn 0.24984092938359562 -0.7574787859020603 0.6031628295187644
vn -0.24984092938359562 0.7574787859020603 -0.6031628295187644
vn 0.37532209614739964 -0.19523705001446742 0.9060992321181883
vn -0.37532209614739964 0.19523705001446742 -0.9060992321181883
vn 0 1 0
vn 0 -1 0
vn -0.6229230759910136 0.7822830954315029 0
vn 0.6229230759910136 -0.7822830954315029 0
vn -0.9061018095242812 0.1952369589583647 -0.37531592110315953
vn 0.9061018095242812 -0.1952369589583647 0.37531592110315953
vn -0.38268787290402084 0 -0.9238776931673347
vn 0.38268787290402084 0 0.9238776931673347
vn 0.6031621885219904 0.75748023675503 0.2498380780884027
vn -0.6031621885219904 -0.75748023675503 -0.2498380780884027
vn 0 -0.21063495445546168 -0.9775647886260764
vn 0 0.21063495445546168 0.9775647886260764
vn 0.24983908925178266 -0.7574822706007421 -0.6031592154708273
vn -0.24983908925178266 0.7574822706007421 0.6031592154708273
vn 0.6031608036476671 -0.7574787534111643 0.2498459186654226
vn -0.6031608036476671 0.7574787534111643 -0.2498459186654226
vn 0.6229169676603321 0.7822879593863482 0
vn -0.6229169676603321 -0.7822879593863482 0
vn -0.6031689214788718 0.7574759013910364 -0.24983496747623612
vn 0.6031689214788718 -0.7574759013910364 0.24983496747623612
vn -0.9061038815790262 0.19523497448425484 -0.37531195094954595
vn 0.9061038815790262 -0.19523497448425484 0.37531195094954595
vn -0.38268993355948433 0 -0.9238768396015984
vn 0.38268993355948433 0 0.9238768396015984
vn 0.9238821680296987 0 0.3826770695988243
vn -0.9238821680296987 0 -0.3826770695988243
vn 0.906100254430722 0.1952380548223653 0.37531910538868135
vn -0.906100254430722 -0.1952380548223653 -0.37531910538868135
vn 0.3753221694240311 -0.19523608813144464 -0.9060994090219736
vn -0.3753221694240311 0.19523608813144464 0.9060994090219736
vn 0.6031621885219904 -0.75748023675503 -0.2498380780884027
vn -0.6031621885219904 0.75748023675503 0.2498380780884027
vn 0.6229169676603321 -0.7822879593863482 0
vn -0.6229169676603321 0.7822879593863482 0
vn 0.9061006377722979 -0.195232921952629 0.37532084995970266
vn -0.9061006377722979 0.195232921952629 -0.37532084995970266
vn 0.9061030087226005 -0.19523700187944906 0.37531300361295056
vn -0.9061030087226005 0.19523700187944906 -0.37531300361295056
vn -0.24984201765771014 0.7574790535352128 -0.6031620426287801
vn 0.24984201765771014 -0.7574790535352128 0.6031620426287801
vn -0.3753250136246736 0.1952370070872989 -0.9060980328922652
vn 0.3753250136246736 -0.1952370070872989 0.9060980328922652
vn 0.9061033625306685 0.1952350781132774 0.3753131501622584
vn -0.9061033625306685 -0.1952350781132774 -0.3753131501622584
vn 0.37532209614739964 -0.19523705001446703 -0.9060992321181883
vn -0.37532209614739964 0.19523705001446703 0.9060992321181883
vn 0.9061007872212833 -0.1952359541529414 -0.37531891186424565
vn -0.9061007872212833 0.1952359541529414 0.37531891186424565
vn 0.977565656621814 -0.21063092601410988 0
vn -0.977565656621814 0.21063092601410988 0
vn 0.603165953252831 0.7574769412932669 -0.2498389806367301
vn -0.603165953252831 -0.7574769412932669 0.2498389806367301
vn 0.24984092938359562 0.7574787859020603 -0.6031628295187644
vn -0.24984092938359562 -0.7574787859020603 0.6031628295187644
vn -0.37532408121563604 0.19523804224717423 -0.9060981960687975
vn 0.37532408121563604 -0.19523804224717423 0.9060981960687975
vn 0.3826861658026441 0 -0.9238784002796423
vn -0.3826861658026441 0 0.9238784002796423
vn 0.906103718409738 -0.19523393932706037 -0.3753128833638457
vn -0.906103718409738 0.19523393932706037 0.3753128833638457
vn 0.9061009641242923 0.19523499226996358 -0.37531898513980805
vn -0.9061009641242923 -0.19523499226996358 0.37531898513980805
vn 0.3753220228704358 0.1952380118969264 -0.9060990552136006
vn -0.3753220228704358 -0.1952380118969264 0.9060990552136006
vn 0 0.21063707163083473 -0.9775643324379151
vn 0 -0.21063707163083473 0.9775643324379151
vn 0.9238821680296987 0 -0.3826770695988243
vn -0.9238821680296987 0 0.3826770695988243
vn 0.9061030087226005 0.19523700187944906 -0.37531300361295056
vn -0.9061030087226005 -0.19523700187944906 0.37531300361295056
usemtl material_0_0
f 1//1 2//1 3//1
f 3//2 2//2 1//2
f 4//3 2//3 1//3
f 1//4 2//4 4//4
f 2//5 5//5 3//5
f 3//6 5//6 2//6
f 1//7 3//7 6//7
f 6//8 3//8 1//8
f 4//9 7//9 2//9
f 2//10 7//10 4//10
f 1//11 8//11 4//11
f 4//12 8//12 1//12
f 2//5 9//5 5//5
f 5//6 9//6 2//6
f 5//13 10//13 3//13
f 3//14 10//14 5//14
f 3//15 11//15 6//15
f 6//16 11//16 3//16
f 6//17 12//17 1//17
f 1//18 12//18 6//18
f 4//19 13//19 7//19
f 7//20 13//20 4//20
f 2//21 7//21 9//21
f 9//22 7//22 2//22
f 1//11 12//11 8//11
f 8//12 12//12 1//12
f 4//23 8//23 14//23
f 14//24 8//24 4//24
f 5//25 9//25 15//25
f 15//26 9//26 5//26
f 5//27 15//27 10//27
f 10//28 15//28 5//28
f 3//29 10//29 11//29
f 11//30 10//30 3//30
f 6//31 11//31 16//31
f 16//32 11//32 6//32
f 16//33 12//33 6//33
f 6//34 12//34 16//34
f 4//23 14//23 13//23
f 13//24 14//24 4//24
f 13//35 17//35 7//35
f 7//36 17//36 13//36
f 7//21 18//21 9//21
f 9//22 18//22 7//22
f 12//37 19//37 8//37
f 8//38 19//38 12//38
f 8//39 20//39 14//39
f 14//40 20//40 8//40
f 9//41 21//41 15//41
f 15//42 21//42 9//42
f 15//43 22//43 10//43
f 10//44 22//44 15//44
f 11//45 23//45 16//45
f 16//46 23//46 11//46
f 16//47 24//47 12//47
f 12//48 24//48 16//48
f 13//49 14//49 25//49
f 25//50 14//50 13//50
f 17//51 13//51 25//51
f 25//52 13//52 17//52
f 7//53 17//53 18//53
f 18//54 17//54 7//54
f 18//55 21//55 9//55
f 9//56 21//56 18//56
f 24//37 19//37 12//37
f 12//38 19//38 24//38
f 19//39 20//39 8//39
f 8//40 20//40 19//40
f 14//57 20//57 26//57
f 26//58 20//58 14//58
f 22//59 15//59 21//59
f 21//60 15//60 22//60
f 22//58 27//58 10//58
f 10//57 27//57 22//57
f 11//45 28//45 23//45
f 23//46 28//46 11//46
f 23//47 24//47 16//47
f 16//48 24//48 23//48
f 25//61 14//61 26//61
f 26//62 14//62 25//62
f 29//63 17//63 25//63
f 25//64 17//64 29//64
f 17//65 29//65 18//65
f 18//66 29//66 17//66
f 18//55 30//55 21//55
f 21//56 30//56 18//56
f 24//67 31//67 19//67
f 19//68 31//68 24//68
f 19//69 32//69 20//69
f 20//70 32//70 19//70
f 20//44 32//44 26//44
f 26//43 32//43 20//43
f 22//59 21//59 33//59
f 33//60 21//60 22//60
f 22//58 34//58 27//58
f 27//57 34//57 22//57
f 28//71 35//71 23//71
f 23//72 35//72 28//72
f 23//73 36//73 24//73
f 24//74 36//74 23//74
f 25//75 26//75 37//75
f 37//76 26//76 25//76
f 29//77 25//77 38//77
f 38//78 25//78 29//78
f 29//79 30//79 18//79
f 18//80 30//80 29//80
f 21//81 30//81 33//81
f 33//82 30//82 21//82
f 36//67 31//67 24//67
f 24//68 31//68 36//68
f 31//69 32//69 19//69
f 19//70 32//70 31//70
f 26//83 32//83 39//83
f 39//84 32//84 26//84
f 22//85 33//85 34//85
f 34//86 33//86 22//86
f 34//87 40//87 27//87
f 27//88 40//88 34//88
f 28//89 41//89 35//89
f 35//90 41//90 28//90
f 35//73 36//73 23//73
f 23//74 36//74 35//74
f 37//91 26//91 39//91
f 39//92 26//92 37//92
f 25//75 37//75 38//75
f 38//76 37//76 25//76
f 29//93 38//93 42//93
f 42//94 38//94 29//94
f 29//95 42//95 30//95
f 30//96 42//96 29//96
f 33//97 30//97 43//97
f 43//98 30//98 33//98
f 36//99 44//99 31//99
f 31//100 44//100 36//100
f 31//101 39//101 32//101
f 32//102 39//102 31//102
f 34//85 33//85 45//85
f 45//86 33//86 34//86
f 34//103 45//103 40//103
f 40//104 45//104 34//104
f 27//105 40//105 46//105
f 46//106 40//106 27//106
f 28//107 46//107 41//107
f 41//108 46//108 28//108
f 35//109 41//109 47//109
f 47//110 41//110 35//110
f 36//111 35//111 47//111
f 47//112 35//112 36//112
f 37//30 39//30 48//30
f 48//29 39//29 37//29
f 38//46 37//46 49//46
f 49//45 37//45 38//45
f 42//113 38//113 50//113
f 50//114 38//114 42//114
f 30//115 42//115 43//115
f 43//116 42//116 30//116
f 33//38 43//38 45//38
f 45//37 43//37 33//37
f 36//99 47//99 44//99
f 44//100 47//100 36//100
f 31//117 44//117 39//117
f 39//118 44//118 31//118
f 40//119 45//119 51//119
f 51//120 45//120 40//120
f 46//121 40//121 51//121
f 51//122 40//122 46//122
f 27//107 46//107 28//107
f 28//108 46//108 27//108
f 41//123 46//123 52//123
f 52//124 46//124 41//124
f 41//123 52//123 47//123
f 47//124 52//124 41//124
f 39//6 44//6 48//6
f 48//5 44//5 39//5
f 37//125 48//125 53//125
f 53//126 48//126 37//126
f 37//127 53//127 49//127
f 49//128 53//128 37//128
f 50//46 38//46 49//46
f 49//45 38//45 50//45
f 43//129 42//129 50//129
f 50//130 42//130 43//130
f 45//38 43//38 54//38
f 54//37 43//37 45//37
f 44//22 47//22 55//22
f 55//21 47//21 44//21
f 45//131 54//131 51//131
f 51//132 54//132 45//132
f 52//133 46//133 51//133
f 51//134 46//134 52//134
f 47//22 52//22 55//22
f 55//21 52//21 47//21
f 44//6 55//6 48//6
f 48//5 55//5 44//5
f 48//135 55//135 53//135
f 53//136 55//136 48//136
f 56//137 49//137 53//137
f 53//138 49//138 56//138
f 54//139 50//139 49//139
f 49//140 50//140 54//140
f 43//139 50//139 54//139
f 54//140 50//140 43//140
f 51//131 54//131 56//131
f 56//132 54//132 51//132
f 52//141 51//141 56//141
f 56//142 51//142 52//142
f 52//141 56//141 55//141
f 55//142 56//142 52//142
f 55//143 56//143 53//143
f 53//144 56//144 55//144
f 54//137 49//137 56//137
f 56//138 49//138 54//138
