# SSTK version 0.8.0
# 31
mtllib original-31.mtl
o mesh28/mesh28-geometry#mesh28-geometry
v 0.189286 0.491911 -0.456644
v 0.189286 0.492004 -0.453085
v 0.185894 0.503191 -0.455159
v 0.198165 0.484939 -0.457562
v 0.189286 0.492922 -0.460057
v 0.198165 0.485089 -0.451804
v 0.198165 0.486575 -0.463084
v 0.189286 0.494938 -0.462991
v 0.209141 0.484939 -0.457562
v 0.209141 0.486575 -0.463084
v 0.198165 0.489837 -0.467831
v 0.189286 0.497762 -0.465158
v 0.209141 0.485089 -0.451804
v 0.209141 0.489837 -0.467831
v 0.198165 0.494407 -0.471338
v 0.189286 0.501118 -0.466346
v 0.218021 0.491911 -0.456644
v 0.218021 0.492922 -0.460057
v 0.218021 0.494938 -0.462991
v 0.209141 0.494407 -0.471338
v 0.198165 0.499836 -0.473260
v 0.189286 0.504676 -0.466439
v 0.218021 0.492004 -0.453085
v 0.218021 0.497762 -0.465158
v 0.209141 0.499836 -0.473260
v 0.198165 0.505594 -0.473411
v 0.189286 0.508090 -0.465428
v 0.221413 0.503191 -0.455159
v 0.218021 0.501118 -0.466346
v 0.209141 0.505594 -0.473411
v 0.198165 0.511117 -0.471775
v 0.189286 0.511023 -0.463412
v 0.218021 0.504676 -0.466439
v 0.209141 0.511117 -0.471775
v 0.189286 0.513191 -0.460588
v 0.198165 0.515864 -0.468513
v 0.218021 0.508090 -0.465428
v 0.209141 0.515864 -0.468513
v 0.189286 0.514379 -0.457232
v 0.198165 0.519371 -0.463943
v 0.221147 0.503594 -0.455960
v 0.218021 0.511023 -0.463412
v 0.198165 0.521293 -0.458514
v 0.209141 0.519371 -0.463943
v 0.218021 0.513191 -0.460588
v 0.209141 0.521293 -0.458514
v 0.218021 0.514379 -0.457232
vn -0.9573492865093145 -0.2888340864404009 0.007564002263705706
vn 0.9573492865093145 0.2888340864404009 -0.007564002263705706
vn -0.6160988802787531 -0.78739884699149 0.020620995992897347
vn 0.6160988802787531 0.78739884699149 -0.020620995992897347
vn -0.9573486861572184 -0.27703490918104573 -0.08206797309607118
vn 0.9573486861572184 0.27703490918104573 0.08206797309607118
vn -0.61609824715125 -0.7873993158696295 0.020622008272633524
vn 0.61609824715125 0.7873993158696295 -0.020622008272633524
vn -0.6161000794285515 -0.755234097365919 -0.22370102883987425
vn 0.6161000794285515 0.755234097365919 0.22370102883987425
vn -0.6161079215445142 -0.7552209038297987 -0.22372397151087958
vn 0.6161079215445142 0.7552209038297987 0.22372397151087958
vn -0.9573486811402359 -0.23812292068948354 -0.16364894549419126
vn 0.9573486811402359 0.23812292068948354 0.16364894549419126
vn 0 -0.9996572187200251 0.026181005728273553
vn 0 0.9996572187200251 -0.026181005728273553
vn 0 -0.9588230875669196 -0.2840040259373791
vn 0 0.9588230875669196 0.2840040259373791
vn -0.6161059452540604 -0.6491239423201473 -0.446151960355831
vn 0.6161059452540604 0.6491239423201473 0.446151960355831
vn -0.616093773778417 -0.6491527616395885 -0.4461268361880556
vn 0.616093773778417 0.6491527616395885 0.4461268361880556
vn -0.9573489268618955 -0.1758959865621627 -0.22922398248809073
vn 0.9573489268618955 0.1758959865621627 0.22922398248809073
vn 0 -0.8241139864960682 -0.5664239907185767
vn 0 0.8241139864960682 0.5664239907185767
vn -0.6160971831946764 -0.47950914258062616 -0.6248961858110339
vn 0.6160971831946764 0.47950914258062616 0.6248961858110339
vn -0.6160949397810354 -0.47951495313077225 -0.6248939389209949
vn 0.6160949397810354 0.47951495313077225 0.6248939389209949
vn -0.9573489848150092 -0.09644899847017416 -0.2723609956799461
vn 0.9573489848150092 0.09644899847017416 0.2723609956799461
vn 0.6160999731109333 -0.7873979656348039 0.020621999099973316
vn -0.6160999731109333 0.7873979656348039 -0.020621999099973316
vn 0.6161070244930271 -0.7552290300237531 -0.2236990088930426
vn -0.6161070244930271 0.7552290300237531 0.2236990088930426
vn 0.6160981576379753 -0.6491291660894551 -0.4461551141554931
vn -0.6160981576379753 0.6491291660894551 0.4461551141554931
vn 0 -0.6087692563619191 -0.793347334090533
vn 0 0.6087692563619191 0.793347334090533
vn -0.6160959044062588 -0.26292895920381426 -0.7424918847945969
vn 0.6160959044062588 0.26292895920381426 0.7424918847945969
vn -0.616094798009349 -0.262931913796077 -0.7424917565692915
vn 0.616094798009349 0.262931913796077 0.7424917565692915
vn -0.9573488275345816 -0.0075509986396952045 -0.2888359479664975
vn 0.9573488275345816 0.0075509986396952045 0.2888359479664975
vn 0.6160978509570144 -0.7873998095165917 0.020614995012934217
vn -0.6160978509570144 0.7873998095165917 -0.020614995012934217
vn 0.6160960306689531 -0.7552270375948253 -0.22373601113746724
vn -0.6160960306689531 0.7552270375948253 0.22373601113746724
vn 0.6161100238237428 -0.6491420251010241 -0.44612001725056927
vn -0.6161100238237428 0.6491420251010241 0.44612001725056927
vn 0.6160978303174394 -0.47950486793718483 -0.624898827893513
vn -0.6160978303174394 0.47950486793718483 0.624898827893513
vn 0.6160991044626924 -0.4795080813029995 -0.6248951059540988
vn -0.6160991044626924 0.4795080813029995 0.6248951059540988
vn 0 -0.33380504703497016 -0.9426421328234704
vn 0 0.33380504703497016 0.9426421328234704
vn -0.6160938376944124 -0.020620994567543866 -0.7874027925642733
vn 0.6160938376944124 0.020620994567543866 0.7874027925642733
vn -0.6161061057555463 -0.02058500353344686 -0.787394135157396
vn 0.6161061057555463 0.02058500353344686 0.787394135157396
vn -0.957348617010369 0.08205196717491202 -0.2770398891695219
vn 0.957348617010369 -0.08205196717491202 0.2770398891695219
vn 0.9573487913779247 -0.28883593705789035 0.0075559983534233995
vn -0.9573487913779247 0.28883593705789035 -0.0075559983534233995
vn 0.9573480231754813 -0.27703600670648776 -0.08207200198679912
vn -0.9573480231754813 0.27703600670648776 0.08207200198679912
vn 0.9573479850514899 -0.23812499628179723 -0.16364999744468717
vn -0.9573479850514899 0.23812499628179723 0.16364999744468717
vn 0.9573479145231952 -0.17589498429521697 -0.2292289795332915
vn -0.9573479145231952 0.17589498429521697 0.2292289795332915
vn 0.6160998826243581 -0.26294794990473885 -0.7424818585468247
vn -0.6160998826243581 0.26294794990473885 0.7424818585468247
vn 0.6160931282317887 -0.2629290547252702 -0.7424941545405219
vn -0.6160931282317887 0.2629290547252702 0.7424941545405219
vn 0 -0.026180006413460723 -0.9996572448915634
vn 0 0.026180006413460723 0.9996572448915634
vn -0.6161037507857751 0.22371590950682121 -0.7552266945104862
vn 0.6161037507857751 -0.22371590950682121 0.7552266945104862
vn -0.957348809641739 0.16365396745921207 -0.23811895265267027
vn 0.957348809641739 -0.16365396745921207 0.23811895265267027
vn -0.6160918752919274 0.223683954722346 -0.7552458471246616
vn 0.6160918752919274 -0.223683954722346 0.7552458471246616
vn 0.9573482549605425 -0.09645602568812389 -0.27236107253507436
vn -0.9573482549605425 0.09645602568812389 0.27236107253507436
vn 0.6160926532646925 -0.020588988412571882 -0.7874045568508087
vn -0.6160926532646925 0.020588988412571882 0.7874045568508087
vn 0.6161028173052103 -0.020620993885195556 -0.7873957665112058
vn -0.6161028173052103 0.020620993885195556 0.7873957665112058
vn 0 0.28402404657071695 -0.9588171572148652
vn 0 -0.28402404657071695 0.9588171572148652
vn -0.9573487888940845 0.2292299494522802 -0.17588896121455347
vn 0.9573487888940845 -0.2292299494522802 0.17588896121455347
vn -0.6160931548667398 0.44614311214656227 -0.6491421631742369
vn 0.6160931548667398 -0.44614311214656227 0.6491421631742369
vn -0.6160957665265488 0.4461488309290328 -0.6491357540058332
vn 0.6160957665265488 -0.4461488309290328 0.6491357540058332
vn 0.9573484169076155 -0.007558003291371264 -0.2888371257832522
vn -0.9573484169076155 0.007558003291371264 0.2888371257832522
vn 0.6161050945468789 0.22370403432940017 -0.7552291158967138
vn -0.6161050945468789 -0.22370403432940017 0.7552291158967138
vn 0.6161008211056029 0.22371693504032988 -0.7552287807076493
vn -0.6161008211056029 -0.22371693504032988 0.7552287807076493
vn 0 0.5664150774218664 -0.8241201126469254
vn 0 -0.5664150774218664 0.8241201126469254
vn -0.9573489522728053 0.27235898642195167 -0.09645499519138097
vn 0.9573489522728053 -0.27235898642195167 0.09645499519138097
vn -0.6161002165900692 0.6249062196858203 -0.47949216856550136
vn 0.6161002165900692 -0.6249062196858203 0.47949216856550136
vn -0.6160931347928753 0.6248971367190724 -0.4795131049110053
vn 0.6160931347928753 -0.6248971367190724 0.4795131049110053
vn 0.9573414855038909 0.08206004161573496 -0.2770621405086369
vn -0.9573414855038909 -0.08206004161573496 0.2770621405086369
vn 0.6160992261272484 0.44613316374450834 -0.649143238255411
vn -0.6160992261272484 -0.44613316374450834 0.649143238255411
vn 0.6160938508729612 0.4461498920083165 -0.6491368428748232
vn -0.6160938508729612 -0.4461498920083165 0.6491368428748232
vn -0.6160947887343561 0.7424857453935143 -0.26294890983194164
vn 0.6160947887343561 -0.7424857453935143 0.26294890983194164
vn -0.6161003493505607 0.7424874210164742 -0.2629311490912063
vn 0.6161003493505607 -0.7424874210164742 0.2629311490912063
vn 0 0.7933459975576845 -0.6087709981258983
vn 0 -0.7933459975576845 0.6087709981258983
vn 0.9573221484208442 0.1637210253829005 -0.23818003692684034
vn -0.9573221484208442 -0.1637210253829005 0.23818003692684034
vn 0.6160910151321196 0.6249200153489732 -0.4794860117768957
vn -0.6160910151321196 -0.6249200153489732 0.4794860117768957
vn 0 0.9426403366640563 -0.3338101192203051
vn 0 -0.9426403366640563 0.3338101192203051
vn 0.6161021207153646 0.6248921224376252 -0.4795080939519479
vn -0.6161021207153646 -0.6248921224376252 0.4795080939519479
vn 0.9573483327475326 0.2292340796753614 -0.1758860611330806
vn -0.9573483327475326 -0.2292340796753614 0.1758860611330806
vn 0.616099891903743 0.7424878697286584 -0.26293095386811066
vn -0.616099891903743 -0.7424878697286584 0.26293095386811066
vn 0.6161057589067739 0.7424777094551647 -0.2629458971045574
vn -0.6161057589067739 -0.7424777094551647 0.2629458971045574
vn 0.9573482549605425 0.27236107253507436 -0.09645602568812389
vn -0.9573482549605425 -0.27236107253507436 0.09645602568812389
usemtl material_0_0
f 1//1 2//1 3//1
f 3//2 2//2 1//2
f 4//3 2//3 1//3
f 1//4 2//4 4//4
f 5//5 1//5 3//5
f 3//6 1//6 5//6
f 6//7 2//7 4//7
f 4//8 2//8 6//8
f 7//9 4//9 1//9
f 1//10 4//10 7//10
f 7//11 1//11 5//11
f 5//12 1//12 7//12
f 8//13 5//13 3//13
f 3//14 5//14 8//14
f 9//15 6//15 4//15
f 4//16 6//16 9//16
f 10//17 4//17 7//17
f 7//18 4//18 10//18
f 7//19 5//19 11//19
f 11//20 5//20 7//20
f 11//21 5//21 8//21
f 8//22 5//22 11//22
f 12//23 8//23 3//23
f 3//24 8//24 12//24
f 13//15 6//15 9//15
f 9//16 6//16 13//16
f 9//17 4//17 10//17
f 10//18 4//18 9//18
f 10//25 7//25 14//25
f 14//26 7//26 10//26
f 14//25 7//25 11//25
f 11//26 7//26 14//26
f 8//27 15//27 11//27
f 11//28 15//28 8//28
f 12//29 15//29 8//29
f 8//30 15//30 12//30
f 16//31 12//31 3//31
f 3//32 12//32 16//32
f 17//33 13//33 9//33
f 9//34 13//34 17//34
f 18//35 9//35 10//35
f 10//36 9//36 18//36
f 19//37 10//37 14//37
f 14//38 10//38 19//38
f 20//39 14//39 11//39
f 11//40 14//40 20//40
f 15//39 20//39 11//39
f 11//40 20//40 15//40
f 21//41 15//41 12//41
f 12//42 15//42 21//42
f 16//43 21//43 12//43
f 12//44 21//44 16//44
f 22//45 16//45 3//45
f 3//46 16//46 22//46
f 23//47 13//47 17//47
f 17//48 13//48 23//48
f 17//49 9//49 18//49
f 18//50 9//50 17//50
f 19//51 18//51 10//51
f 10//52 18//52 19//52
f 24//53 19//53 14//53
f 14//54 19//54 24//54
f 24//55 14//55 20//55
f 20//56 14//56 24//56
f 25//57 20//57 15//57
f 15//58 20//58 25//58
f 25//57 15//57 21//57
f 21//58 15//58 25//58
f 26//59 21//59 16//59
f 16//60 21//60 26//60
f 26//61 16//61 22//61
f 22//62 16//62 26//62
f 22//63 3//63 27//63
f 27//64 3//64 22//64
f 17//65 28//65 23//65
f 23//66 28//66 17//66
f 18//67 28//67 17//67
f 17//68 28//68 18//68
f 19//69 28//69 18//69
f 18//70 28//70 19//70
f 24//71 28//71 19//71
f 19//72 28//72 24//72
f 29//73 24//73 20//73
f 20//74 24//74 29//74
f 29//75 20//75 25//75
f 25//76 20//76 29//76
f 30//77 25//77 21//77
f 21//78 25//78 30//78
f 30//77 21//77 26//77
f 26//78 21//78 30//78
f 31//79 26//79 22//79
f 22//80 26//80 31//80
f 27//81 3//81 32//81
f 32//82 3//82 27//82
f 31//83 22//83 27//83
f 27//84 22//84 31//84
f 29//85 28//85 24//85
f 24//86 28//86 29//86
f 33//87 29//87 25//87
f 25//88 29//88 33//88
f 30//89 33//89 25//89
f 25//90 33//90 30//90
f 34//91 30//91 26//91
f 26//92 30//92 34//92
f 34//91 26//91 31//91
f 31//92 26//92 34//92
f 32//93 3//93 35//93
f 35//94 3//94 32//94
f 36//95 27//95 32//95
f 32//96 27//96 36//96
f 36//97 31//97 27//97
f 27//98 31//98 36//98
f 33//99 28//99 29//99
f 29//100 28//100 33//100
f 37//101 33//101 30//101
f 30//102 33//102 37//102
f 34//103 37//103 30//103
f 30//104 37//104 34//104
f 38//105 34//105 31//105
f 31//106 34//106 38//106
f 35//107 3//107 39//107
f 39//108 3//108 35//108
f 40//109 32//109 35//109
f 35//110 32//110 40//110
f 36//111 32//111 40//111
f 40//112 32//112 36//112
f 36//105 38//105 31//105
f 31//106 38//106 36//106
f 33//113 41//113 28//113
f 28//114 41//114 33//114
f 41//113 33//113 37//113
f 37//114 33//114 41//114
f 34//115 42//115 37//115
f 37//116 42//116 34//116
f 38//117 42//117 34//117
f 34//118 42//118 38//118
f 43//119 35//119 39//119
f 39//120 35//120 43//120
f 43//121 40//121 35//121
f 35//122 40//122 43//122
f 44//123 36//123 40//123
f 40//124 36//124 44//124
f 38//123 36//123 44//123
f 44//124 36//124 38//124
f 41//125 42//125 28//125
f 28//126 42//126 41//126
f 42//125 41//125 37//125
f 37//126 41//126 42//126
f 45//127 42//127 38//127
f 38//128 42//128 45//128
f 46//129 40//129 43//129
f 43//130 40//130 46//130
f 46//129 44//129 40//129
f 40//130 44//130 46//130
f 45//131 38//131 44//131
f 44//132 38//132 45//132
f 42//133 45//133 28//133
f 28//134 45//134 42//134
f 47//135 44//135 46//135
f 46//136 44//136 47//136
f 47//137 45//137 44//137
f 44//138 45//138 47//138
f 45//139 47//139 28//139
f 28//140 47//140 45//140
