# SSTK version 0.8.0
# 24
mtllib original-24.mtl
o mesh21/mesh21-geometry#mesh21-geometry
v -0.224867 0.102158 -0.369166
v -0.233746 0.098025 -0.363477
v -0.224867 0.106231 -0.365093
v -0.233746 0.094853 -0.365093
v -0.233746 0.100542 -0.360960
v -0.213891 0.106231 -0.365093
v -0.224867 0.097026 -0.371781
v -0.237138 0.091337 -0.354272
v -0.224867 0.108846 -0.359961
v -0.213891 0.102159 -0.369166
v -0.213891 0.108846 -0.359961
v -0.233746 0.091337 -0.365650
v -0.233746 0.102159 -0.357788
v -0.205724 0.101010 -0.361276
v -0.205011 0.102159 -0.357788
v -0.213891 0.097026 -0.371781
v -0.224867 0.091337 -0.372682
v -0.233746 0.087821 -0.365093
v -0.205011 0.100542 -0.360960
v -0.205011 0.098025 -0.363477
v -0.233746 0.084649 -0.363477
v -0.205011 0.094853 -0.365093
v -0.213891 0.091337 -0.372682
v -0.224867 0.085648 -0.371781
v -0.233746 0.082132 -0.360960
v -0.201619 0.091337 -0.354272
v -0.224867 0.080516 -0.369166
v -0.233746 0.080516 -0.357788
v -0.205011 0.091337 -0.365650
v -0.213891 0.085648 -0.371781
v -0.224867 0.076443 -0.365093
v -0.233746 0.079959 -0.354272
v -0.205011 0.087821 -0.365093
v -0.213891 0.080516 -0.369166
v -0.224867 0.073828 -0.359961
v -0.233746 0.080516 -0.350756
v -0.205011 0.084649 -0.363477
v -0.213891 0.076443 -0.365093
v -0.224867 0.072927 -0.354272
v -0.205011 0.082132 -0.360960
v -0.213891 0.073828 -0.359961
v -0.224867 0.073828 -0.348583
v -0.205011 0.080516 -0.357788
v -0.213891 0.072927 -0.354272
v -0.205011 0.079959 -0.354272
v -0.213891 0.073828 -0.348583
v -0.205011 0.080516 -0.350756
vn -0.6160950753746163 0.5569570681395244 -0.5569790681422156
vn 0.6160950753746163 -0.5569570681395244 0.5569790681422156
vn -0.6160939711008808 0.3575929832263865 -0.7018229670795907
vn 0.6160939711008808 -0.3575929832263865 0.7018229670795907
vn -0.6160995501513811 0.5569655933283788 -0.5569655933283786
vn 0.6160995501513811 -0.5569655933283788 0.5569655933283786
vn 0 0.7070927810522898 -0.7071207810436195
vn 0 -0.7070927810522898 0.7071207810436195
vn -0.6161029314884336 0.3576129602329048 -0.7018049219582442
vn 0.6161029314884336 -0.3576129602329048 0.7018049219582442
vn -0.9573488267299302 0.13117297625907082 -0.25744295340553275
vn 0.9573488267299302 -0.13117297625907082 0.25744295340553275
vn -0.9573487005753593 0.20430793609974057 -0.20430793609974046
vn 0.9573487005753593 -0.20430793609974057 0.20430793609974046
vn -0.6161000923706615 0.7018201052224927 -0.3575880536124656
vn 0.6161000923706615 -0.7018201052224927 0.3575880536124656
vn -0.000014999995355844655 0.7071137810701826 -0.7070997810745169
vn 0.000014999995355844655 -0.7071137810701826 0.7070997810745169
vn 0 0.8910104803583845 -0.45398273523507593
vn 0 -0.8910104803583845 0.45398273523507593
vn -0.0000159999933076202 0.454015810097031 -0.8909936273206095
vn 0.0000159999933076202 -0.454015810097031 0.8909936273206095
vn -0.6161040360273006 0.12322600720576435 -0.7779660454923437
vn 0.6161040360273006 -0.12322600720576435 0.7779660454923437
vn -0.9573488273258796 0.04520199184705313 -0.2853769485274205
vn 0.9573488273258796 -0.04520199184705313 0.2853769485274205
vn -0.9573488220336572 0.2574419521428328 -0.13117497561523012
vn 0.9573488220336572 -0.2574419521428328 0.13117497561523012
vn -0.6160958317011246 0.7018178082844557 -0.3575999023144478
vn 0.6160958317011246 -0.7018178082844557 0.3575999023144478
vn 0.6161681585557999 0.556945143316206 -0.5569101433071993
vn -0.6161681585557999 -0.556945143316206 0.5569101433071993
vn 0.6160967136201393 0.7018226737721934 -0.3575888337821997
vn -0.6160967136201393 -0.7018226737721934 0.3575888337821997
vn 0 0.4539879182349676 -0.8910078395259384
vn 0 -0.4539879182349676 0.8910078395259384
vn -0.6160969734896559 0.12320499469855097 -0.7779749665241269
vn 0.6160969734896559 -0.12320499469855097 0.7779749665241269
vn -0.95734887059947 -0.04520099389038541 -0.28537696142688296
vn 0.95734887059947 0.04520099389038541 0.28537696142688296
vn 0.6159899102755322 0.7020568977391018 -0.35731294795415686
vn -0.6159899102755322 -0.7020568977391018 0.35731294795415686
vn 0.6161042953786452 0.3575901714393184 -0.7018153364710564
vn -0.6161042953786452 -0.3575901714393184 0.7018153364710564
vn 0 0.15641701647305917 -0.987691104018694
vn 0 -0.15641701647305917 0.987691104018694
vn -0.6160952489240941 -0.12322404978683885 -0.7779733143285116
vn 0.6160952489240941 0.12322404978683885 0.7779733143285116
vn -0.9573488220336572 -0.13117497561523012 -0.2574419521428328
vn 0.9573488220336572 0.13117497561523012 0.2574419521428328
vn 0.6161050542227922 0.5569540490169711 -0.5569710490184671
vn -0.6161050542227922 -0.5569540490169711 0.5569710490184671
vn 0.616102156805104 0.3575980910128383 -0.7018131786195474
vn -0.616102156805104 -0.3575980910128383 0.7018131786195474
vn -0.6161019928316535 -0.12320499856650968 -0.7779709909483076
vn 0.6161019928316535 0.12320499856650968 0.7779709909483076
vn -0.6161017244165281 -0.3575978400458066 -0.7018136860774049
vn 0.6161017244165281 0.3575978400458066 0.7018136860774049
vn -0.957348700575359 -0.2043079360997404 -0.20430793609974052
vn 0.957348700575359 0.2043079360997404 0.20430793609974052
vn 0.9573493383986387 0.25744509100029095 -0.13116504636350734
vn -0.9573493383986387 -0.25744509100029095 0.13116504636350734
vn 0.9573495664212661 0.2043029074722557 -0.2043089074695382
vn -0.9573495664212661 -0.2043029074722557 0.2043089074695382
vn 0.9573495240174232 0.13117393478191 -0.2574398720040167
vn -0.9573495240174232 -0.13117393478191 0.2574398720040167
vn 0.6161008931034238 0.12320497862332219 -0.7779718650180032
vn -0.6161008931034238 -0.12320497862332219 0.7779718650180032
vn 0 -0.15641701647305875 -0.9876911040186942
vn 0 0.15641701647305875 0.9876911040186942
vn -0.6161042953786451 -0.35759017143931804 -0.7018153364710565
vn 0.6161042953786451 0.35759017143931804 0.7018153364710565
vn -0.6161027839940938 -0.5569638047282458 -0.556963804728246
vn 0.6161027839940938 0.5569638047282458 0.556963804728246
vn -0.9573488220336572 -0.25744195214283266 -0.13117497561523023
vn 0.9573488220336572 0.25744195214283266 0.13117497561523023
vn 0.9573497304199274 0.04520198727157426 -0.28537391964156933
vn -0.9573497304199274 -0.04520198727157426 0.28537391964156933
vn 0.6160939214354001 0.12322698428603451 -0.7779739007923855
vn -0.6160939214354001 -0.12322698428603451 0.7779739007923855
vn 0 -0.45398791823496715 -0.8910078395259386
vn 0 0.45398791823496715 0.8910078395259386
vn -0.6160998932788777 -0.5569709035212299 -0.5569599035231356
vn 0.6160998932788777 0.5569709035212299 0.5569599035231356
vn -0.616101103997567 -0.7018141184658822 -0.357598060362379
vn 0.616101103997567 0.7018141184658822 0.357598060362379
vn -0.95734887059947 -0.28537696142688296 -0.04520099389038554
vn 0.95734887059947 0.28537696142688296 0.04520099389038554
vn 0.9573497304199274 -0.04520198727157414 -0.28537391964156933
vn -0.9573497304199274 0.04520198727157414 0.28537391964156933
vn 0.6160952533304109 -0.1232050506603254 -0.7779763198938148
vn -0.6160952533304109 0.1232050506603254 0.7779763198938148
vn 0 -0.7071137811497327 -0.7070997811540658
vn 0 0.7071137811497327 0.7070997811540658
vn -0.6161000594314789 -0.7018160676999883 -0.3575960344951457
vn 0.6161000594314789 0.7018160676999883 0.3575960344951457
vn -0.6160997889624467 -0.7779697335158491 -0.12322395779111935
vn 0.6160997889624467 0.7779697335158491 0.12322395779111935
vn -0.95734887059947 -0.28537696142688296 0.04520099389038541
vn 0.95734887059947 0.28537696142688296 -0.04520099389038541
vn 0.9573496542905716 -0.13117095263273465 -0.25744090703527345
vn -0.9573496542905716 0.13117095263273465 0.25744090703527345
vn 0.6161023158852879 -0.12322606317992861 -0.777967398876046
vn -0.6161023158852879 0.12322606317992861 0.777967398876046
vn 0.6161030222579543 -0.3575910129186906 -0.7018160253545082
vn -0.6161030222579543 0.3575910129186906 0.7018160253545082
vn 0 -0.8910047941507405 -0.45399389511357574
vn 0 0.8910047941507405 0.45399389511357574
vn -0.6160961491913972 -0.7779741883911405 -0.1232140298370204
vn 0.6160961491913972 0.7779741883911405 0.1232140298370204
vn -0.6160952489240943 -0.7779733143285117 0.12322404978683887
vn 0.6160952489240943 0.7779733143285117 -0.12322404978683887
vn 0.9573499576133316 -0.20430499095439666 -0.20430499095439678
vn -0.9573499576133316 0.20430499095439666 0.20430499095439678
vn 0.61610218976166 -0.35759011013902225 -0.7018172161621923
vn -0.61610218976166 0.35759011013902225 0.7018172161621923
vn 0.6161005136991183 -0.5569705603716136 -0.5569595603802964
vn -0.6161005136991183 0.5569705603716136 0.5569595603802964
vn 0 -0.9876893556151471 -0.15642805632154097
vn 0 0.9876893556151471 0.15642805632154097
vn -0.61609602118477 -0.777973026750992 0.12322200423705013
vn 0.61609602118477 0.777973026750992 -0.12322200423705013
vn 0.9573497704768561 -0.257438938279408 -0.13117396855124164
vn -0.9573497704768561 0.257438938279408 0.13117396855124164
vn 0.6160983093073051 -0.556966279620535 -0.5569662796205352
vn -0.6160983093073051 0.556966279620535 0.5569662796205352
vn 0.6160987863064811 -0.7018167565752511 -0.35759687596772405
vn -0.6160987863064811 0.7018167565752511 0.35759687596772405
vn 0 -0.9876885830917987 0.15643293396889013
vn 0 0.9876885830917987 -0.15643293396889013
vn 0.9573494869082014 -0.28537584705271307 -0.045194975777736686
vn -0.9573494869082014 0.28537584705271307 0.045194975777736686
vn 0.6160981576407477 -0.7018161795733778 -0.3575990914987126
vn -0.6160981576407477 0.7018161795733778 0.3575990914987126
vn 0.61609724892367 -0.7779733143269556 -0.1232140497825524
vn -0.61609724892367 0.7779733143269556 0.1232140497825524
vn 0.9573494869082014 -0.28537584705271307 0.04519497577773656
vn -0.9573494869082014 0.28537584705271307 -0.04519497577773656
vn 0.6160990211386658 -0.777973026692644 -0.12320700422729415
vn -0.6160990211386658 0.777973026692644 0.12320700422729415
vn 0.616098741339007 -0.7779716733787752 0.12321694826897678
vn -0.616098741339007 0.7779716733787752 -0.12321694826897678
vn 0.6160951015170787 -0.7779761281910271 0.12320702030143828
vn -0.6160951015170787 0.7779761281910271 -0.12320702030143828
usemtl material_0_0
f 1//1 2//1 3//1
f 3//2 2//2 1//2
f 1//3 4//3 2//3
f 2//4 4//4 1//4
f 3//5 2//5 5//5
f 5//6 2//6 3//6
f 6//7 1//7 3//7
f 3//8 1//8 6//8
f 1//9 7//9 4//9
f 4//10 7//10 1//10
f 4//11 8//11 2//11
f 2//12 8//12 4//12
f 2//13 8//13 5//13
f 5//14 8//14 2//14
f 9//15 3//15 5//15
f 5//16 3//16 9//16
f 6//17 10//17 1//17
f 1//18 10//18 6//18
f 11//19 6//19 3//19
f 3//20 6//20 11//20
f 10//21 7//21 1//21
f 1//22 7//22 10//22
f 7//23 12//23 4//23
f 4//24 12//24 7//24
f 12//25 8//25 4//25
f 4//26 8//26 12//26
f 5//27 8//27 13//27
f 13//28 8//28 5//28
f 11//19 3//19 9//19
f 9//20 3//20 11//20
f 9//29 5//29 13//29
f 13//30 5//30 9//30
f 14//31 10//31 6//31
f 6//32 10//32 14//32
f 15//33 6//33 11//33
f 11//34 6//34 15//34
f 10//35 16//35 7//35
f 7//36 16//36 10//36
f 7//37 17//37 12//37
f 12//38 17//38 7//38
f 12//39 18//39 8//39
f 8//40 18//40 12//40
f 10//31 14//31 19//31
f 19//32 14//32 10//32
f 15//41 14//41 6//41
f 6//42 14//42 15//42
f 10//43 20//43 16//43
f 16//44 20//44 10//44
f 7//45 16//45 17//45
f 17//46 16//46 7//46
f 17//47 18//47 12//47
f 12//48 18//48 17//48
f 18//49 21//49 8//49
f 8//50 21//50 18//50
f 14//41 15//41 19//41
f 19//42 15//42 14//42
f 10//51 19//51 20//51
f 20//52 19//52 10//52
f 20//53 22//53 16//53
f 16//54 22//54 20//54
f 16//45 23//45 17//45
f 17//46 23//46 16//46
f 17//55 24//55 18//55
f 18//56 24//56 17//56
f 18//57 24//57 21//57
f 21//58 24//58 18//58
f 21//59 25//59 8//59
f 8//60 25//60 21//60
f 19//61 15//61 26//61
f 26//62 15//62 19//62
f 20//63 19//63 26//63
f 26//64 19//64 20//64
f 22//65 20//65 26//65
f 26//66 20//66 22//66
f 16//67 22//67 23//67
f 23//68 22//68 16//68
f 23//69 24//69 17//69
f 17//70 24//70 23//70
f 24//71 27//71 21//71
f 21//72 27//72 24//72
f 27//73 25//73 21//73
f 21//74 25//74 27//74
f 25//75 28//75 8//75
f 8//76 28//76 25//76
f 29//77 22//77 26//77
f 26//78 22//78 29//78
f 22//79 29//79 23//79
f 23//80 29//80 22//80
f 23//69 30//69 24//69
f 24//70 30//70 23//70
f 24//81 30//81 27//81
f 27//82 30//82 24//82
f 27//83 31//83 25//83
f 25//84 31//84 27//84
f 31//85 28//85 25//85
f 25//86 28//86 31//86
f 28//87 32//87 8//87
f 8//88 32//88 28//88
f 29//89 26//89 33//89
f 33//90 26//90 29//90
f 29//91 30//91 23//91
f 23//92 30//92 29//92
f 30//81 34//81 27//81
f 27//82 34//82 30//82
f 34//93 31//93 27//93
f 27//94 31//94 34//94
f 35//95 28//95 31//95
f 31//96 28//96 35//96
f 35//97 32//97 28//97
f 28//98 32//98 35//98
f 8//99 32//99 36//99
f 36//100 32//100 8//100
f 33//101 26//101 37//101
f 37//102 26//102 33//102
f 29//103 33//103 30//103
f 30//104 33//104 29//104
f 33//105 34//105 30//105
f 30//106 34//106 33//106
f 34//93 38//93 31//93
f 31//94 38//94 34//94
f 38//107 35//107 31//107
f 31//108 35//108 38//108
f 39//109 32//109 35//109
f 35//110 32//110 39//110
f 39//111 36//111 32//111
f 32//112 36//112 39//112
f 37//113 26//113 40//113
f 40//114 26//114 37//114
f 33//115 37//115 34//115
f 34//116 37//116 33//116
f 34//117 37//117 38//117
f 38//118 37//118 34//118
f 41//107 35//107 38//107
f 38//108 35//108 41//108
f 41//119 39//119 35//119
f 35//120 39//120 41//120
f 42//121 36//121 39//121
f 39//122 36//122 42//122
f 40//123 26//123 43//123
f 43//124 26//124 40//124
f 38//125 37//125 40//125
f 40//126 37//126 38//126
f 40//127 41//127 38//127
f 38//128 41//128 40//128
f 44//119 39//119 41//119
f 41//120 39//120 44//120
f 44//129 42//129 39//129
f 39//130 42//130 44//130
f 43//131 26//131 45//131
f 45//132 26//132 43//132
f 43//133 41//133 40//133
f 40//134 41//134 43//134
f 43//135 44//135 41//135
f 41//136 44//136 43//136
f 46//129 42//129 44//129
f 44//130 42//130 46//130
f 26//137 47//137 45//137
f 45//138 47//138 26//138
f 45//139 44//139 43//139
f 43//140 44//140 45//140
f 45//141 46//141 44//141
f 44//142 46//142 45//142
f 45//143 47//143 46//143
f 46//144 47//144 45//144
