mtllib new-7.mtl
v 0.325838 -0.031430 -0.294140
v 0.325838 -0.005503 -0.268608
v 0.325838 -0.030517 -0.284385
v 0.325838 -0.065943 -0.301668
v 0.325838 -0.083749 -0.293688
v 0.325838 -0.100211 -0.283213
v 0.325838 -0.047168 -0.306983
v 0.325838 -0.114982 -0.270463
v 0.386847 -0.047176 -0.307166
v 0.386847 -0.065950 -0.301851
v 0.386847 -0.083757 -0.293871
v 0.386847 -0.100219 -0.283396
v 0.325838 -0.127749 -0.255706
v 0.386847 -0.003373 -0.260858
v 0.386847 -0.027829 -0.309704
v 0.386847 -0.114989 -0.270646
v 0.325838 -0.028202 -0.263198
v 0.386847 -0.007923 -0.262121
v 0.386847 -0.018022 -0.263458
v 0.386847 -0.127756 -0.255890
v 0.325838 -0.038280 -0.261709
v 0.386847 -0.028209 -0.263381
v 0.325838 -0.138243 -0.239256
v 0.325838 -0.048053 -0.258835
v 0.386847 -0.038287 -0.261892
v 0.386847 -0.138250 -0.239439
v 0.325838 -0.057334 -0.254634
v 0.386847 -0.048061 -0.259018
v 0.386847 -0.057342 -0.254817
v 0.325838 -0.146242 -0.221459
v 0.325838 -0.065942 -0.249186
v 0.386847 -0.065950 -0.249369
v 0.386847 -0.146250 -0.221642
v 0.325838 -0.080491 -0.234992
v 0.325838 -0.073711 -0.242596
v 0.386847 -0.073718 -0.242779
v 0.386847 -0.080498 -0.235176
v 0.325838 -0.151578 -0.202690
v 0.325838 -0.086150 -0.226522
v 0.386847 -0.086157 -0.226705
v 0.386847 -0.151586 -0.202873
v 0.325838 -0.090579 -0.217348
v 0.386847 -0.090587 -0.217531
v 0.325838 -0.181494 -0.058298
v 0.325838 -0.093693 -0.207648
v 0.386847 -0.093701 -0.207831
v 0.386847 -0.181502 -0.058481
v 0.325838 -0.130029 -0.059840
v 0.386847 -0.130037 -0.060023
v 0.325838 -0.183428 -0.046486
v 0.325838 -0.131505 -0.052694
v 0.386847 -0.131513 -0.052878
v 0.386847 -0.183436 -0.046669
v 0.325838 -0.184363 -0.034554
v 0.325838 -0.132444 -0.045458
v 0.386847 -0.132452 -0.045641
v 0.386847 -0.184371 -0.034737
v 0.325838 -0.184293 -0.022585
v 0.325838 -0.132840 -0.038172
v 0.386847 -0.132848 -0.038355
v 0.386847 -0.184301 -0.022768
v 0.325838 -0.132692 -0.030877
v 0.386847 -0.132699 -0.031060
v 0.325838 -0.183219 -0.010664
v 0.325838 -0.132000 -0.023613
v 0.386847 -0.132007 -0.023796
v 0.386847 -0.183227 -0.010847
v 0.325838 -0.130767 -0.016421
v 0.386847 -0.130775 -0.016604
v 0.325838 -0.181148 0.001124
v 0.325838 -0.129001 -0.009341
v 0.386847 -0.129009 -0.009524
v 0.386847 -0.181155 0.000941
v 0.325838 -0.178094 0.012697
v 0.325838 -0.126712 -0.002413
v 0.386847 -0.126720 -0.002596
v 0.386847 -0.178102 0.012514
v 0.325838 -0.123913 0.004326
v 0.386847 -0.123920 0.004142
v 0.325838 -0.174079 0.023973
v 0.325838 -0.120618 0.010836
v 0.386847 -0.120626 0.010653
v 0.386847 -0.174087 0.023790
v 0.325838 -0.116847 0.017083
v 0.386847 -0.116855 0.016900
v 0.325838 -0.169132 0.034872
v 0.325838 -0.112620 0.023031
v 0.386847 -0.112628 0.022848
v 0.386847 -0.169140 0.034689
v 0.325838 -0.080982 0.063022
v 0.386847 -0.080989 0.062839
v 0.325838 -0.163288 0.045317
v 0.386847 -0.163296 0.045134
v 0.325838 -0.156587 0.055234
v 0.386847 -0.077770 0.068406
v 0.386847 -0.156595 0.055051
v 0.325838 -0.149077 0.064554
v 0.325838 -0.077763 0.068589
v 0.386847 -0.149085 0.064371
v 0.386847 -0.076102 0.074617
v 0.386847 -0.140819 0.073028
v 0.325838 -0.140812 0.073211
v 0.325838 -0.076094 0.074800
v 0.386847 -0.076098 0.081047
v 0.386847 -0.120055 0.092857
v 0.325838 -0.120048 0.093040
v 0.325838 -0.076090 0.081230
v 0.386847 -0.077758 0.087260
v 0.386847 -0.115505 0.097401
v 0.325838 -0.077750 0.087443
v 0.386847 -0.080969 0.092831
v 0.325838 -0.115498 0.097584
v 0.386847 -0.085514 0.097381
v 0.325838 -0.080962 0.093014
v 0.386847 -0.109934 0.100613
v 0.325838 -0.085506 0.097564
v 0.386847 -0.091080 0.100600
v 0.325838 -0.109926 0.100796
v 0.325838 -0.091073 0.100783
v 0.386847 -0.103721 0.102273
v 0.386847 -0.097291 0.102269
v 0.325838 -0.097283 0.102452
v 0.325838 -0.103714 0.102456
vn -1.000000 0.000000 0.000000
vn 1.000000 0.000000 0.000000
vn -0.002965 -0.201775 -0.979427
vn -0.002863 -0.341569 -0.939852
vn 0.002965 0.201775 0.979427
vn 0.002863 0.341569 0.939852
vn -0.002701 -0.474153 -0.880438
vn 0.002701 0.474153 0.880438
vn -0.002483 -0.596729 -0.802439
vn 0.002483 0.596729 0.802439
vn -0.002211 -0.706708 -0.707502
vn 0.002211 0.706708 0.707502
vn -0.003004 -0.057722 -0.998328
vn 0.003004 0.057722 0.998328
vn -0.001893 -0.801770 -0.597630
vn 0.001893 0.801770 0.597630
vn 0.003002 0.077074 0.997021
vn -0.003002 -0.077074 -0.997021
vn -0.001535 -0.879907 -0.475143
vn 0.001535 0.879907 0.475143
vn 0.002958 0.214644 0.976688
vn -0.002958 -0.214644 -0.976688
vn 0.002857 0.348063 0.937467
vn -0.002857 -0.348063 -0.937467
vn -0.001145 -0.939471 -0.342627
vn 0.001145 0.939471 0.342627
vn 0.002701 0.474751 0.880116
vn -0.002701 -0.474751 -0.880116
vn 0.002492 0.592258 0.805744
vn -0.002492 -0.592258 -0.805744
vn -0.000940 -0.961879 -0.273475
vn 0.000940 0.961879 0.273475
vn 0.002235 0.698311 0.715791
vn -0.002235 -0.698311 -0.715791
vn 0.001935 0.790860 0.611994
vn -0.001935 -0.790860 -0.611994
vn 0.001597 0.868114 0.496363
vn -0.001597 -0.868114 -0.496363
vn -0.000730 -0.979204 -0.202878
vn 0.000730 0.979204 0.202878
vn 0.001229 0.928579 0.371132
vn -0.001229 -0.928579 -0.371132
vn 0.001035 0.952138 0.305667
vn -0.001035 -0.952138 -0.305667
vn -0.000607 -0.986863 -0.161559
vn -0.000483 -0.992779 -0.119954
vn 0.000607 0.986863 0.161559
vn 0.000483 0.992779 0.119954
vn 0.000837 0.971087 0.238723
vn -0.000837 -0.971087 -0.238723
vn 0.000619 0.986193 0.165600
vn 0.000729 0.979323 0.202303
vn -0.000619 -0.986193 -0.165600
vn -0.000729 -0.979323 -0.202303
vn -0.000232 -0.999345 -0.036184
vn 0.000232 0.999345 0.036184
vn 0.000398 0.995800 0.091554
vn -0.000398 -0.995800 -0.091554
vn 0.000020 -0.998855 0.047841
vn -0.000020 0.998855 -0.047841
vn 0.000175 0.999856 0.016997
vn -0.000175 -0.999856 -0.016997
vn 0.000272 -0.991312 0.131529
vn -0.000272 0.991312 -0.131529
vn -0.000049 0.998337 -0.057655
vn 0.000049 -0.998337 0.057655
vn -0.000273 0.991252 -0.131986
vn 0.000273 -0.991252 0.131986
vn 0.000522 -0.976770 0.214288
vn -0.000522 0.976770 -0.214288
vn -0.000496 0.978640 -0.205580
vn 0.000496 -0.978640 0.205580
vn -0.000715 0.960573 -0.278028
vn 0.000715 -0.960573 0.278028
vn 0.000769 -0.955332 0.295534
vn -0.000769 0.955332 -0.295534
vn -0.000931 0.937150 -0.348927
vn 0.000931 -0.937150 0.348927
vn 0.001010 -0.927148 0.374694
vn -0.001010 0.927148 -0.374694
vn -0.001142 0.908502 -0.417880
vn 0.001142 -0.908502 0.417880
vn -0.001346 0.874789 -0.484503
vn 0.001346 -0.874789 0.484503
vn 0.001244 -0.892418 0.451208
vn -0.001244 0.892418 -0.451208
vn -0.001542 0.836199 -0.548425
vn 0.001542 -0.836199 0.548425
vn -0.001638 0.815141 -0.579261
vn 0.001638 -0.815141 0.579261
vn 0.001469 -0.851387 0.524536
vn -0.001469 0.851387 -0.524536
vn -0.001765 0.784248 -0.620445
vn 0.001765 -0.784248 0.620445
vn -0.001395 0.865691 -0.500576
vn -0.001036 0.923624 -0.383299
vn 0.001395 -0.865691 0.500576
vn 0.001036 -0.923624 0.383299
vn 0.001684 -0.804345 0.594161
vn -0.001684 0.804345 -0.594161
vn 0.001887 -0.751623 0.659590
vn -0.001887 0.751623 -0.659590
vn -0.000271 0.991357 -0.131188
vn 0.000271 -0.991357 0.131188
vn 0.001983 -0.723248 0.690586
vn -0.001983 0.723248 -0.690586
vn 0.000513 0.991532 0.129863
vn -0.000513 -0.991532 -0.129863
vn 0.002085 -0.690643 0.723193
vn -0.002085 0.690643 -0.723193
vn 0.001261 0.924135 0.382064
vn -0.001261 -0.924135 -0.382064
vn 0.002307 -0.608231 0.793756
vn 0.002036 -0.706634 0.707576
vn -0.002036 0.706634 -0.707576
vn -0.002307 0.608231 -0.793756
vn 0.001924 0.793760 0.608228
vn -0.001924 -0.793760 -0.608228
vn 0.002726 -0.382066 0.924131
vn -0.002726 0.382066 -0.924131
vn 0.002456 0.609291 0.792943
vn -0.002456 -0.609291 -0.792943
vn 0.002820 0.383301 0.923619
vn -0.002820 -0.383301 -0.923619
vn 0.002960 -0.129864 0.991527
vn -0.002960 0.129864 -0.991527
vn 0.002992 0.131188 0.991353
vn -0.002992 -0.131188 -0.991353
usemtl material-0
f 1//1 5//1 3//1
f 3//2 5//2 1//2
f 5//1 1//1 4//1
f 4//2 1//2 5//2
f 3//1 5//1 6//1
f 6//2 5//2 3//2
f 2//1 6//1 8//1
f 8//2 6//2 2//2
f 9//3 4//4 7//3
f 7//5 4//6 9//5
f 10//4 5//7 4//4
f 4//6 5//8 10//6
f 11//7 6//9 5//7
f 5//8 6//10 11//8
f 12//9 8//11 6//9
f 6//10 8//12 12//10
f 2//1 8//1 13//1
f 13//2 8//2 2//2
f 4//4 9//3 10//4
f 10//6 9//5 4//6
f 7//3 15//13 9//3
f 9//5 15//14 7//5
f 5//7 10//4 11//7
f 11//8 10//6 5//8
f 6//9 11//7 12//9
f 12//10 11//8 6//10
f 8//11 12//9 16//11
f 16//12 12//10 8//12
f 16//11 13//15 8//11
f 8//12 13//16 16//12
f 2//1 13//1 17//1
f 17//2 13//2 2//2
f 9//2 14//2 10//2
f 10//1 14//1 9//1
f 10//2 14//2 11//2
f 11//1 14//1 10//1
f 11//2 18//2 12//2
f 12//1 18//1 11//1
f 12//2 19//2 16//2
f 16//1 19//1 12//1
f 13//15 16//11 20//15
f 20//16 16//12 13//16
f 17//1 13//1 21//1
f 21//2 13//2 17//2
f 11//2 14//2 18//2
f 18//1 14//1 11//1
f 12//2 18//2 19//2
f 19//1 18//1 12//1
f 22//2 16//2 19//2
f 19//1 16//1 22//1
f 16//2 22//2 20//2
f 20//1 22//1 16//1
f 20//15 23//19 13//15
f 13//16 23//20 20//16
f 21//1 13//1 24//1
f 24//2 13//2 21//2
f 21//21 22//17 17//17
f 17//18 22//18 21//22
f 20//2 22//2 25//2
f 25//1 22//1 20//1
f 23//19 20//15 26//19
f 26//20 20//16 23//20
f 27//1 13//1 23//1
f 23//2 13//2 27//2
f 24//1 13//1 27//1
f 27//2 13//2 24//2
f 24//23 25//21 21//21
f 21//22 25//22 24//24
f 22//17 21//21 25//21
f 25//22 21//22 22//18
f 20//2 25//2 28//2
f 28//1 25//1 20//1
f 20//2 29//2 26//2
f 26//1 29//1 20//1
f 26//19 30//25 23//19
f 23//20 30//26 26//20
f 27//1 23//1 31//1
f 31//2 23//2 27//2
f 27//27 28//23 24//23
f 24//24 28//24 27//28
f 25//21 24//23 28//23
f 28//24 24//24 25//22
f 20//2 28//2 29//2
f 29//1 28//1 20//1
f 26//2 29//2 32//2
f 32//1 29//1 26//1
f 30//25 26//19 33//25
f 33//26 26//20 30//26
f 34//1 23//1 30//1
f 30//2 23//2 34//2
f 31//1 23//1 35//1
f 35//2 23//2 31//2
f 31//29 29//27 27//27
f 27//28 29//28 31//30
f 28//23 27//27 29//27
f 29//28 27//28 28//24
f 29//27 31//29 32//29
f 32//30 31//30 29//28
f 26//2 32//2 36//2
f 36//1 32//1 26//1
f 26//2 37//2 33//2
f 33//1 37//1 26//1
f 33//25 38//31 30//25
f 30//26 38//32 33//26
f 35//1 23//1 34//1
f 34//2 23//2 35//2
f 34//1 30//1 39//1
f 39//2 30//2 34//2
f 35//33 32//29 31//29
f 31//30 32//30 35//34
f 32//29 35//33 36//33
f 36//34 35//34 32//30
f 26//2 36//2 37//2
f 37//1 36//1 26//1
f 33//2 37//2 40//2
f 40//1 37//1 33//1
f 38//31 33//25 41//31
f 41//32 33//26 38//32
f 42//1 30//1 38//1
f 38//2 30//2 42//2
f 37//35 35//33 34//35
f 34//36 35//34 37//36
f 39//1 30//1 42//1
f 42//2 30//2 39//2
f 40//37 34//35 39//37
f 39//38 34//36 40//38
f 35//33 37//35 36//33
f 36//34 37//36 35//34
f 34//35 40//37 37//35
f 37//36 40//38 34//36
f 33//2 40//2 43//2
f 43//1 40//1 33//1
f 33//2 43//2 41//2
f 41//1 43//1 33//1
f 41//39 44//39 38//39
f 38//40 44//40 41//40
f 42//1 38//1 45//1
f 45//2 38//2 42//2
f 43//41 39//37 42//41
f 42//42 39//38 43//42
f 39//37 43//41 40//37
f 40//38 43//42 39//38
f 41//2 43//2 46//2
f 46//1 43//1 41//1
f 44//39 41//39 47//39
f 47//40 41//40 44//40
f 48//1 38//1 44//1
f 44//2 38//2 48//2
f 45//1 38//1 48//1
f 48//2 38//2 45//2
f 46//43 42//41 45//43
f 45//44 42//42 46//44
f 42//41 46//43 43//41
f 43//42 46//44 42//42
f 41//2 46//2 49//2
f 49//1 46//1 41//1
f 41//2 49//2 47//2
f 47//1 49//1 41//1
f 47//45 50//46 44//45
f 44//47 50//48 47//47
f 48//1 44//1 51//1
f 51//2 44//2 48//2
f 49//49 45//49 48//49
f 48//50 45//50 49//50
f 45//49 49//49 46//49
f 46//50 49//50 45//50
f 47//2 49//2 52//2
f 52//1 49//1 47//1
f 50//46 47//45 53//46
f 53//48 47//47 50//48
f 51//1 44//1 50//1
f 50//2 44//2 51//2
f 52//51 48//52 51//51
f 51//53 48//54 52//53
f 48//52 52//51 49//52
f 49//54 52//53 48//54
f 47//2 52//2 53//2
f 53//1 52//1 47//1
f 53//46 54//55 50//46
f 50//48 54//56 53//48
f 51//1 50//1 55//1
f 55//2 50//2 51//2
f 51//51 56//57 52//51
f 52//53 56//58 51//53
f 53//2 52//2 56//2
f 56//1 52//1 53//1
f 54//55 53//46 57//55
f 57//56 53//48 54//56
f 55//1 50//1 54//1
f 54//2 50//2 55//2
f 56//57 51//51 55//57
f 55//58 51//53 56//58
f 53//2 56//2 57//2
f 57//1 56//1 53//1
f 57//55 58//59 54//55
f 54//56 58//60 57//56
f 55//1 54//1 59//1
f 59//2 54//2 55//2
f 55//57 60//61 56//57
f 56//58 60//62 55//58
f 57//2 56//2 60//2
f 60//1 56//1 57//1
f 58//59 57//55 61//59
f 61//60 57//56 58//60
f 62//1 54//1 58//1
f 58//2 54//2 62//2
f 59//1 54//1 62//1
f 62//2 54//2 59//2
f 60//61 55//57 59//61
f 59//62 55//58 60//62
f 57//2 60//2 63//2
f 63//1 60//1 57//1
f 57//2 63//2 61//2
f 61//1 63//1 57//1
f 61//59 64//63 58//59
f 58//60 64//64 61//60
f 62//1 58//1 65//1
f 65//2 58//2 62//2
f 63//65 59//61 62//65
f 62//66 59//62 63//66
f 59//61 63//65 60//61
f 60//62 63//66 59//62
f 61//2 63//2 66//2
f 66//1 63//1 61//1
f 64//63 61//59 67//63
f 67//64 61//60 64//64
f 68//1 58//1 64//1
f 64//2 58//2 68//2
f 65//1 58//1 68//1
f 68//2 58//2 65//2
f 66//67 62//65 65//67
f 65//68 62//66 66//68
f 62//65 66//67 63//65
f 63//66 66//68 62//66
f 61//2 66//2 69//2
f 69//1 66//1 61//1
f 61//2 69//2 67//2
f 67//1 69//1 61//1
f 67//63 70//69 64//63
f 64//64 70//70 67//64
f 68//1 64//1 71//1
f 71//2 64//2 68//2
f 69//71 65//67 68//71
f 68//72 65//68 69//72
f 65//67 69//71 66//67
f 66//68 69//72 65//68
f 67//2 69//2 72//2
f 72//1 69//1 67//1
f 70//69 67//63 73//69
f 73//70 67//64 70//70
f 71//1 64//1 70//1
f 70//2 64//2 71//2
f 72//73 68//71 71//73
f 71//74 68//72 72//74
f 68//71 72//73 69//71
f 69//72 72//74 68//72
f 67//2 72//2 73//2
f 73//1 72//1 67//1
f 73//69 74//75 70//69
f 70//70 74//76 73//70
f 71//1 70//1 75//1
f 75//2 70//2 71//2
f 71//73 76//77 72//73
f 72//74 76//78 71//74
f 73//2 72//2 76//2
f 76//1 72//1 73//1
f 74//75 73//69 77//75
f 77//76 73//70 74//76
f 78//1 70//1 74//1
f 74//2 70//2 78//2
f 75//1 70//1 78//1
f 78//2 70//2 75//2
f 76//77 71//73 75//77
f 75//78 71//74 76//78
f 73//2 76//2 79//2
f 79//1 76//1 73//1
f 73//2 79//2 77//2
f 77//1 79//1 73//1
f 77//75 80//79 74//75
f 74//76 80//80 77//76
f 78//1 74//1 81//1
f 81//2 74//2 78//2
f 79//81 75//77 78//81
f 78//82 75//78 79//82
f 75//77 79//81 76//77
f 76//78 79//82 75//78
f 77//2 79//2 82//2
f 82//1 79//1 77//1
f 80//79 77//75 83//79
f 83//80 77//76 80//80
f 84//1 74//1 80//1
f 80//2 74//2 84//2
f 81//1 74//1 84//1
f 84//2 74//2 81//2
f 82//83 78//81 81//83
f 81//84 78//82 82//84
f 78//81 82//83 79//81
f 79//82 82//84 78//82
f 77//2 82//2 85//2
f 85//1 82//1 77//1
f 77//2 85//2 83//2
f 83//1 85//1 77//1
f 83//79 86//85 80//79
f 80//80 86//86 83//80
f 84//1 80//1 87//1
f 87//2 80//2 84//2
f 85//87 81//83 84//87
f 84//88 81//84 85//88
f 81//83 85//87 82//83
f 82//84 85//88 81//84
f 83//2 85//2 88//2
f 88//1 85//1 83//1
f 86//85 83//79 89//85
f 89//86 83//80 86//86
f 90//1 80//1 86//1
f 86//2 80//2 90//2
f 87//1 80//1 90//1
f 90//2 80//2 87//2
f 88//89 84//87 87//89
f 87//90 84//88 88//90
f 84//87 88//89 85//87
f 85//88 88//90 84//88
f 83//2 88//2 91//2
f 91//1 88//1 83//1
f 83//2 91//2 89//2
f 89//1 91//1 83//1
f 89//85 92//91 86//85
f 86//86 92//92 89//86
f 90//1 86//1 92//1
f 92//2 86//2 90//2
f 91//93 87//93 90//93
f 90//94 87//94 91//94
f 87//93 91//93 88//93
f 88//94 91//94 87//94
f 89//2 91//2 93//2
f 93//1 91//1 89//1
f 92//91 89//85 93//91
f 93//92 89//86 92//92
f 90//1 92//1 94//1
f 94//2 92//2 90//2
f 90//95 95//96 91//95
f 91//97 95//98 90//97
f 93//2 91//2 96//2
f 96//1 91//1 93//1
f 96//99 92//91 93//91
f 93//92 92//92 96//100
f 92//91 96//99 94//99
f 94//100 96//100 92//92
f 90//1 94//1 97//1
f 97//2 94//2 90//2
f 95//96 90//95 98//96
f 98//98 90//97 95//98
f 99//2 91//2 95//2
f 95//1 91//1 99//1
f 96//2 91//2 99//2
f 99//1 91//1 96//1
f 96//99 97//101 94//99
f 94//100 97//102 96//100
f 90//1 97//1 98//1
f 98//2 97//2 90//2
f 98//96 100//103 95//96
f 95//98 100//104 98//98
f 99//2 95//2 101//2
f 101//1 95//1 99//1
f 97//101 96//99 99//101
f 99//102 96//100 97//102
f 98//1 97//1 102//1
f 102//2 97//2 98//2
f 100//103 98//96 103//103
f 103//104 98//98 100//104
f 101//2 95//2 100//2
f 100//1 95//1 101//1
f 102//105 99//101 101//105
f 101//106 99//102 102//106
f 99//101 102//105 97//101
f 97//102 102//106 99//102
f 98//1 102//1 103//1
f 103//2 102//2 98//2
f 103//103 104//107 100//103
f 100//104 104//108 103//104
f 101//2 100//2 105//2
f 105//1 100//1 101//1
f 105//109 102//109 101//109
f 101//110 102//110 105//110
f 103//1 102//1 106//1
f 106//2 102//2 103//2
f 104//107 103//103 107//107
f 107//108 103//104 104//108
f 105//2 100//2 104//2
f 104//1 100//1 105//1
f 102//109 105//109 106//109
f 106//110 105//110 102//110
f 103//1 106//1 107//1
f 107//2 106//2 103//2
f 107//107 108//111 104//107
f 104//108 108//112 107//108
f 105//2 104//2 108//2
f 108//1 104//1 105//1
f 109//113 106//114 105//114
f 105//115 106//115 109//116
f 107//1 106//1 110//1
f 110//2 106//2 107//2
f 108//111 107//107 110//111
f 110//112 107//108 108//112
f 105//2 108//2 111//2
f 111//1 108//1 105//1
f 106//114 109//113 112//113
f 112//116 109//116 106//115
f 105//2 113//2 109//2
f 109//1 113//1 105//1
f 110//1 106//1 114//1
f 114//2 106//2 110//2
f 110//111 111//117 108//111
f 108//112 111//118 110//112
f 105//2 111//2 113//2
f 113//1 111//1 105//1
f 115//119 112//113 109//113
f 109//116 112//116 115//120
f 116//1 106//1 112//1
f 112//2 106//2 116//2
f 109//2 113//2 117//2
f 117//1 113//1 109//1
f 114//1 106//1 116//1
f 116//2 106//2 114//2
f 111//117 110//111 114//117
f 114//118 110//112 111//118
f 114//117 113//121 111//117
f 111//118 113//122 114//118
f 112//113 115//119 118//119
f 118//120 115//120 112//116
f 109//2 117//2 115//2
f 115//1 117//1 109//1
f 116//1 112//1 119//1
f 119//2 112//2 116//2
f 113//121 119//123 117//123
f 117//124 119//124 113//122
f 113//121 114//117 116//121
f 116//122 114//118 113//122
f 120//125 118//119 115//119
f 115//120 118//120 120//126
f 119//1 112//1 118//1
f 118//2 112//2 119//2
f 115//2 117//2 121//2
f 121//1 117//1 115//1
f 119//123 113//121 116//121
f 116//122 113//122 119//124
f 122//127 117//123 119//123
f 119//124 117//124 122//128
f 118//119 120//125 123//125
f 123//126 120//126 118//120
f 115//2 121//2 120//2
f 120//1 121//1 115//1
f 119//1 118//1 122//1
f 122//2 118//2 119//2
f 117//123 122//127 121//127
f 121//128 122//128 117//124
f 121//127 123//125 120//125
f 120//126 123//126 121//128
f 122//1 118//1 123//1
f 123//2 118//2 122//2
f 123//125 121//127 122//127
f 122//128 121//128 123//126