mtllib new-4.mtl
v 0.020875 -0.518693 0.012112
v 0.030810 -0.520822 -0.005097
v 0.011059 -0.518693 0.008046
v 0.031850 -0.520786 -0.003880
v 0.028739 -0.520978 -0.007522
v 0.022910 -0.522528 -0.025463
v 0.035492 -0.520759 -0.000769
v 0.031850 -0.441135 -0.003880
v 0.026237 -0.521283 -0.011606
v 0.030810 -0.441201 -0.005097
v 0.000526 -0.518693 0.006660
v 0.022910 -0.523598 -0.036180
v 0.023285 -0.522067 -0.020688
v 0.028739 -0.441488 -0.007522
v 0.024404 -0.521649 -0.016031
v 0.006319 -0.568783 -0.460089
v 0.022910 -0.446292 -0.036180
v 0.022910 -0.571334 -0.481710
v 0.023285 -0.443484 -0.020688
v 0.035492 -0.441085 -0.000769
v 0.026237 -0.442046 -0.011606
v 0.024404 -0.442717 -0.016031
v -0.010007 -0.518693 0.008046
v 0.011718 -0.569099 -0.462325
v 0.000526 -0.568620 -0.459327
v 0.022910 -0.444330 -0.025463
v 0.022147 -0.570702 -0.475917
v -0.005267 -0.568783 -0.460089
v 0.016354 -0.569546 -0.465883
v 0.006319 -0.587370 -0.460089
v 0.006319 -0.573416 -0.503331
v 0.000526 -0.587370 -0.459327
v 0.000526 -0.573416 -0.504094
v 0.022910 -0.533807 -0.481710
v 0.011059 -0.437298 0.008046
v 0.022910 -0.587370 -0.481710
v 0.022147 -0.571944 -0.487504
v 0.019911 -0.570092 -0.470518
v -0.019823 -0.518693 0.012112
v -0.010666 -0.569099 -0.462325
v 0.011718 -0.587370 -0.462325
v 0.011718 -0.573253 -0.501095
v -0.005267 -0.587370 -0.460089
v -0.005267 -0.573416 -0.503331
v 0.022147 -0.534925 -0.487504
v 0.022147 -0.587370 -0.475917
v 0.022147 -0.587370 -0.487504
v 0.019911 -0.572491 -0.492902
v -0.021858 -0.523598 -0.036180
v -0.010666 -0.587370 -0.462325
v -0.010666 -0.573253 -0.501095
v 0.016354 -0.587370 -0.465883
v 0.016354 -0.572937 -0.497538
v 0.006319 -0.587370 -0.503331
v 0.000526 -0.587370 -0.504094
v 0.006319 -0.537624 -0.503331
v 0.011718 -0.587370 -0.501095
v -0.005267 -0.587370 -0.503331
v 0.000526 -0.537624 -0.504094
v 0.019911 -0.535927 -0.492902
v 0.019911 -0.587370 -0.492902
v 0.019911 -0.587370 -0.470518
v -0.021858 -0.522528 -0.025463
v -0.015302 -0.587370 -0.465883
v -0.015302 -0.572937 -0.497538
v -0.015302 -0.569546 -0.465883
v 0.011718 -0.537325 -0.501095
v 0.016354 -0.587370 -0.497538
v -0.010666 -0.587370 -0.501095
v -0.005267 -0.537624 -0.503331
v 0.016354 -0.536746 -0.497538
v -0.029758 -0.520822 -0.005097
v -0.021858 -0.444330 -0.025463
v -0.022233 -0.522067 -0.020688
v -0.015302 -0.587370 -0.497538
v -0.010666 -0.537325 -0.501095
v -0.018859 -0.570092 -0.470518
v 0.000526 -0.437298 0.006660
v -0.030798 -0.520786 -0.003880
v -0.027687 -0.520978 -0.007522
v -0.021858 -0.446292 -0.036180
v -0.023351 -0.521649 -0.016031
v -0.018859 -0.587370 -0.470518
v -0.018859 -0.587370 -0.492902
v -0.015302 -0.536746 -0.497538
v -0.018859 -0.572491 -0.492902
v -0.021095 -0.570702 -0.475917
v -0.010007 -0.437298 0.008046
v -0.029758 -0.441201 -0.005097
v -0.034440 -0.520759 -0.000769
v -0.025184 -0.521283 -0.011606
v -0.021858 -0.533807 -0.481710
v -0.019823 -0.437298 0.012112
v -0.022233 -0.443484 -0.020688
v -0.023351 -0.442717 -0.016031
v -0.021095 -0.587370 -0.475917
v -0.021095 -0.571944 -0.487504
v -0.021858 -0.571334 -0.481710
v -0.030798 -0.441135 -0.003880
v -0.025184 -0.442046 -0.011606
v -0.027687 -0.441488 -0.007522
v -0.021095 -0.534925 -0.487504
v -0.021095 -0.587370 -0.487504
v -0.018859 -0.535927 -0.492902
v -0.034440 -0.441085 -0.000769
v -0.021858 -0.587370 -0.481710
vn 0.965926 0.000000 -0.258819
vn 0.866025 0.000000 -0.500000
vn -0.866025 0.000000 0.500000
vn -0.965926 0.000000 0.258819
vn 0.707107 0.000000 -0.707107
vn -0.707107 0.000000 0.707107
vn 1.000000 0.000000 0.000000
vn -1.000000 0.000000 0.000000
vn 0.000000 -1.000000 0.000000
vn 0.000000 1.000000 0.000000
vn 0.500000 0.000000 -0.866025
vn -0.500000 0.000000 0.866025
vn 0.965926 0.000000 0.258819
vn -0.965926 0.000000 -0.258819
vn 0.866025 0.000000 0.500000
vn -0.866025 0.000000 -0.500000
vn 0.707107 0.000000 0.707107
vn -0.707107 0.000000 -0.707107
vn 0.053267 0.994309 -0.092260
vn -0.053267 -0.994309 0.092260
vn 0.500000 0.000000 0.866025
vn -0.500000 0.000000 -0.866025
vn 0.258819 0.000000 -0.965926
vn -0.258819 0.000000 0.965926
vn 0.041116 0.994211 -0.099263
vn -0.041116 -0.994211 0.099263
vn -0.951057 0.000000 0.309017
vn 0.951057 0.000000 -0.309017
vn 0.000000 0.000000 -1.000000
vn 0.000000 0.000000 1.000000
vn 0.587785 0.000000 0.809017
vn -0.587785 0.000000 -0.809017
vn 0.027573 0.994309 -0.102903
vn -0.027573 -0.994309 0.102903
vn 0.760406 0.000000 -0.649448
vn -0.760406 0.000000 0.649448
vn 0.809017 0.000000 -0.587785
vn -0.809017 0.000000 0.587785
vn -0.891007 0.000000 -0.453990
vn 0.891007 0.000000 0.453990
vn 0.951057 0.000000 0.309017
vn -0.951057 0.000000 -0.309017
vn 0.258819 0.000000 0.965926
vn -0.258819 0.000000 -0.965926
vn 0.587785 0.000000 -0.809017
vn -0.587785 0.000000 0.809017
vn 0.891007 0.000000 -0.453990
vn -0.891007 0.000000 0.453990
vn 0.809017 0.000000 0.587785
vn -0.809017 0.000000 -0.587785
vn 0.987688 0.000000 0.156434
vn -0.987688 0.000000 -0.156434
vn 0.996917 0.000000 -0.078459
vn -0.996917 0.000000 0.078459
vn 0.987688 0.000000 -0.156434
vn -0.987688 0.000000 0.156434
vn 0.014024 0.994211 -0.106523
vn 0.000000 0.994309 -0.106533
vn 0.000000 -0.994309 0.106533
vn -0.014024 -0.994211 0.106523
vn 0.074373 0.980933 -0.179552
vn -0.074373 -0.980933 0.179552
vn -0.014024 0.994211 -0.106523
vn -0.027573 0.994309 -0.102903
vn 0.027573 -0.994309 0.102903
vn 0.014024 -0.994211 0.106523
vn 0.049886 0.981249 -0.186178
vn -0.049886 -0.981249 0.186178
vn 0.991445 0.000000 0.130526
vn -0.991445 0.000000 -0.130526
vn 0.991445 0.000000 -0.130526
vn -0.991445 0.000000 0.130526
vn 0.025367 0.980933 -0.192683
vn -0.025367 -0.980933 0.192683
vn -0.053267 0.994309 -0.092260
vn 0.053267 -0.994309 0.092260
vn -0.041116 0.994211 -0.099263
vn 0.041116 -0.994211 0.099263
vn 0.000000 0.981249 -0.192745
vn 0.000000 -0.981249 0.192745
vn -0.025367 0.980933 -0.192683
vn 0.025367 -0.980933 0.192683
vn -0.996917 0.000000 -0.078459
vn 0.996917 0.000000 0.078459
vn -0.049886 0.981249 -0.186178
vn 0.049886 -0.981249 0.186178
vn -0.760406 0.000000 -0.649448
vn 0.760406 0.000000 0.649448
vn -0.096373 0.981249 -0.166922
vn -0.074373 0.980933 -0.179552
vn 0.074373 -0.980933 0.179552
vn 0.096373 -0.981249 0.166922
usemtl material-0
f 2//35 8//5 4//5
f 4//6 8//6 2//36
f 1//19 5//25 9//25
f 9//26 5//26 1//20
f 5//37 10//35 2//35
f 2//36 10//36 5//38
f 3//33 6//25 12//33
f 12//34 6//26 3//34
f 1//19 13//25 6//25
f 6//26 13//26 1//20
f 8//5 7//45 4//5
f 4//6 7//46 8//6
f 2//35 10//35 8//5
f 8//6 10//36 2//36
f 9//47 14//37 5//37
f 5//38 14//38 9//48
f 1//19 9//25 15//25
f 15//26 9//26 1//20
f 10//35 5//37 14//37
f 14//38 5//38 10//36
f 3//33 16//57 11//58
f 11//59 16//60 3//34
f 12//7 17//7 6//7
f 6//8 17//8 12//8
f 18//57 3//33 12//33
f 12//34 3//34 18//60
f 1//19 15//25 13//25
f 13//26 15//26 1//20
f 6//53 19//55 13//55
f 13//56 19//56 6//54
f 7//45 8//5 20//45
f 20//46 8//6 7//46
f 14//37 9//47 21//47
f 21//48 9//48 14//38
f 22//28 9//47 15//28
f 15//27 9//48 22//27
f 3//33 24//57 16//57
f 16//60 24//60 3//34
f 11//58 16//57 25//58
f 25//59 16//60 11//59
f 18//7 17//7 12//7
f 12//8 17//8 18//8
f 6//7 17//7 26//7
f 26//8 17//8 6//8
f 3//33 18//57 27//57
f 27//60 18//60 3//34
f 13//55 22//28 15//28
f 15//27 22//27 13//56
f 19//55 6//53 26//53
f 26//54 6//54 19//56
f 22//28 13//55 19//55
f 19//56 13//56 22//27
f 9//47 22//28 21//47
f 21//48 22//27 9//48
f 11//58 28//63 23//64
f 23//65 28//66 11//59
f 3//33 29//57 24//57
f 24//60 29//60 3//34
f 30//43 24//21 16//43
f 16//44 24//22 30//44
f 24//57 31//57 16//57
f 16//60 31//60 24//60
f 32//30 16//43 25//30
f 25//29 16//44 32//29
f 16//57 33//58 25//58
f 25//59 33//59 16//60
f 28//63 11//58 25//58
f 25//59 11//59 28//66
f 17//7 18//7 34//7
f 34//8 18//8 17//8
f 35//67 26//61 17//67
f 17//68 26//62 35//68
f 27//13 36//69 18//69
f 18//70 36//70 27//14
f 37//57 27//57 18//57
f 18//60 27//60 37//60
f 3//33 27//57 38//57
f 38//60 27//60 3//34
f 23//64 28//63 40//63
f 40//66 28//66 23//65
f 3//33 38//57 29//57
f 29//60 38//60 3//34
f 41//21 29//17 24//21
f 24//22 29//18 41//22
f 29//57 42//57 24//57
f 24//60 42//60 29//60
f 24//21 30//43 41//21
f 41//22 30//44 24//22
f 16//43 32//30 30//43
f 30//44 32//29 16//44
f 24//57 42//57 31//57
f 31//60 42//60 24//60
f 16//57 31//57 33//58
f 33//59 31//60 16//60
f 25//30 43//24 32//30
f 32//29 43//23 25//29
f 44//63 25//58 33//58
f 33//59 25//59 44//66
f 43//24 25//30 28//24
f 28//23 25//29 43//23
f 25//58 44//63 28//63
f 28//66 44//66 25//59
f 37//1 34//71 18//71
f 18//72 34//72 37//4
f 45//73 17//67 34//73
f 34//74 17//68 45//74
f 17//67 45//73 35//67
f 35//68 45//74 17//68
f 36//69 27//13 46//13
f 46//14 27//14 36//70
f 47//1 18//71 36//71
f 36//72 18//72 47//4
f 27//57 37//57 48//57
f 48//60 37//60 27//60
f 18//71 47//1 37//1
f 37//4 47//4 18//72
f 38//15 46//13 27//13
f 27//14 46//14 38//16
f 27//57 48//57 38//57
f 38//60 48//60 27//60
f 49//64 39//75 23//64
f 23//65 39//76 49//65
f 50//12 28//24 40//12
f 40//11 28//23 50//11
f 28//63 51//63 40//63
f 40//66 51//66 28//66
f 23//64 40//63 49//64
f 49//65 40//66 23//65
f 52//17 38//15 29//17
f 29//18 38//16 52//18
f 38//57 53//57 29//57
f 29//60 53//60 38//60
f 29//17 41//21 52//17
f 52//18 41//22 29//18
f 29//57 53//57 42//57
f 42//60 53//60 29//60
f 54//9 41//9 30//9
f 30//10 41//10 54//10
f 55//9 30//9 32//9
f 32//10 30//10 55//10
f 56//23 42//11 31//23
f 31//24 42//12 56//24
f 57//11 31//23 42//11
f 42//12 31//24 57//12
f 33//29 56//23 31//23
f 31//24 56//24 33//30
f 54//23 33//29 31//23
f 31//24 33//30 54//24
f 58//9 32//9 43//9
f 43//10 32//10 58//10
f 44//44 59//29 33//29
f 33//30 59//30 44//43
f 55//29 44//44 33//29
f 33//30 44//43 55//30
f 28//24 50//12 43//24
f 43//23 50//11 28//23
f 28//63 44//63 51//63
f 51//66 44//66 28//66
f 34//71 37//1 45//1
f 45//4 37//4 34//72
f 35//67 45//73 60//73
f 60//74 45//74 35//68
f 46//9 47//9 36//9
f 36//10 47//10 46//10
f 48//2 45//1 37//1
f 37//4 45//4 48//3
f 37//1 61//2 48//2
f 48//3 61//3 37//4
f 61//2 37//1 47//1
f 47//4 37//4 61//3
f 46//13 38//15 62//15
f 62//16 38//16 46//14
f 38//57 48//57 53//57
f 53//60 48//60 38//60
f 39//75 49//64 63//77
f 63//78 49//65 39//76
f 40//12 64//6 50//12
f 50//11 64//5 40//11
f 40//63 51//63 65//63
f 65//66 51//66 40//66
f 49//64 40//63 66//63
f 66//66 40//66 49//65
f 38//15 52//17 62//15
f 62//16 52//18 38//16
f 57//9 52//9 41//9
f 41//10 52//10 57//10
f 67//11 53//5 42//11
f 42//12 53//6 67//12
f 68//5 42//11 53//5
f 53//6 42//12 68//6
f 57//9 41//9 54//9
f 54//10 41//10 57//10
f 54//9 30//9 55//9
f 55//10 30//10 54//10
f 55//9 32//9 58//9
f 58//10 32//10 55//10
f 42//11 56//23 67//11
f 67//12 56//24 42//12
f 31//23 57//11 54//23
f 54//24 57//12 31//24
f 42//11 68//5 57//11
f 57//12 68//6 42//12
f 56//23 33//29 59//29
f 59//30 33//30 56//24
f 33//29 54//23 55//29
f 55//30 54//24 33//30
f 58//9 43//9 69//9
f 69//10 43//10 58//10
f 59//29 44//44 70//44
f 70//43 44//43 59//30
f 44//44 55//29 58//44
f 58//43 55//30 44//43
f 69//9 43//9 50//9
f 50//10 43//10 69//10
f 51//22 70//44 44//44
f 44//43 70//43 51//21
f 58//44 51//22 44//44
f 44//43 51//21 58//43
f 45//1 48//2 60//2
f 60//3 48//3 45//4
f 35//67 60//73 71//73
f 71//74 60//74 35//68
f 47//9 46//9 61//9
f 61//10 46//10 47//10
f 61//2 53//5 48//2
f 48//3 53//6 61//3
f 61//9 46//9 62//9
f 62//10 46//10 61//10
f 53//5 60//2 48//2
f 48//3 60//3 53//6
f 73//8 49//8 63//8
f 63//7 49//7 73//7
f 74//77 39//75 63//77
f 63//78 39//76 74//78
f 64//6 40//12 66//6
f 66//5 40//11 64//5
f 75//9 50//9 64//9
f 64//10 50//10 75//10
f 65//18 76//22 51//22
f 51//21 76//21 65//17
f 69//22 65//18 51//22
f 51//21 65//17 69//21
f 40//63 65//63 66//63
f 66//66 65//66 40//66
f 49//64 66//63 77//63
f 77//66 66//66 49//65
f 68//9 62//9 52//9
f 52//10 62//10 68//10
f 68//9 52//9 57//9
f 57//10 52//10 68//10
f 53//5 67//11 71//5
f 71//6 67//12 53//6
f 53//5 61//2 68//5
f 68//6 61//3 53//6
f 35//67 67//73 56//73
f 56//74 67//74 35//68
f 78//79 56//73 59//79
f 59//80 56//74 78//80
f 51//22 58//44 69//22
f 69//21 58//43 51//21
f 70//81 78//79 59//79
f 59//80 78//80 70//82
f 69//9 50//9 75//9
f 75//10 50//10 69//10
f 70//44 51//22 76//22
f 76//21 51//21 70//43
f 60//2 53//5 71//5
f 71//6 53//6 60//3
f 35//67 71//73 67//73
f 67//74 71//74 35//68
f 61//9 62//9 68//9
f 68//10 62//10 61//10
f 39//75 80//77 72//75
f 72//76 80//78 39//76
f 81//8 49//8 73//8
f 73//7 49//7 81//7
f 74//52 73//83 63//83
f 63//84 73//84 74//51
f 82//77 39//75 74//77
f 74//78 39//76 82//78
f 66//6 83//3 64//6
f 64//5 83//2 66//5
f 75//9 64//9 84//9
f 84//10 64//10 75//10
f 76//22 65//18 85//18
f 85//17 65//17 76//21
f 65//18 69//22 75//18
f 75//17 69//21 65//17
f 66//63 65//63 86//63
f 86//66 65//66 66//66
f 83//3 66//6 77//3
f 77//2 66//5 83//2
f 66//63 86//63 77//63
f 77//66 86//66 66//66
f 49//64 77//63 87//63
f 87//66 77//66 49//65
f 35//67 56//73 78//79
f 78//80 56//74 35//68
f 78//79 70//81 88//85
f 88//86 70//82 78//80
f 88//85 70//81 76//81
f 76//82 70//82 88//86
f 89//87 72//87 79//18
f 79//17 72//88 89//88
f 80//77 39//75 91//77
f 91//78 39//76 80//78
f 89//87 80//50 72//87
f 72//88 80//49 89//88
f 92//8 49//8 81//8
f 81//7 49//7 92//7
f 93//89 81//85 73//90
f 73//91 81//86 93//92
f 73//83 74//52 94//52
f 94//51 74//51 73//84
f 91//77 39//75 82//77
f 82//78 39//76 91//78
f 95//42 74//52 82//42
f 82//41 74//51 95//41
f 84//9 64//9 83//9
f 83//10 64//10 84//10
f 84//16 65//18 75//18
f 75//17 65//17 84//15
f 86//16 85//18 65//18
f 65//17 85//17 86//15
f 81//85 76//81 85//81
f 85//82 76//82 81//86
f 65//18 84//16 86//16
f 86//15 84//15 65//17
f 77//3 96//4 83//3
f 83//2 96//1 77//2
f 77//63 86//63 97//63
f 97//66 86//66 77//66
f 96//4 77//3 87//4
f 87//1 77//2 96//1
f 77//63 97//63 87//63
f 87//66 97//66 77//66
f 49//64 87//63 98//63
f 98//66 87//66 49//65
f 88//85 76//81 81//85
f 81//86 76//82 88//86
f 89//87 79//18 99//18
f 99//17 79//17 89//88
f 90//32 99//18 79//18
f 79//17 99//17 90//31
f 80//50 100//39 91//39
f 91//40 100//40 80//49
f 80//50 89//87 101//50
f 101//49 89//88 80//49
f 49//8 92//8 98//8
f 98//7 92//7 49//7
f 81//85 102//81 92//81
f 92//82 102//82 81//86
f 81//85 93//89 88//85
f 88//86 93//92 81//86
f 93//89 73//90 94//90
f 94//91 73//91 93//92
f 74//52 95//42 94//52
f 94//51 95//41 74//51
f 91//39 95//42 82//42
f 82//41 95//41 91//40
f 84//9 83//9 103//9
f 103//10 83//10 84//10
f 85//18 86//16 104//16
f 104//15 86//15 85//17
f 81//85 85//81 104//81
f 104//82 85//82 81//86
f 103//14 86//16 84//16
f 84//15 86//15 103//13
f 103//9 83//9 96//9
f 96//10 83//10 103//10
f 102//14 86//16 97//14
f 97//13 86//15 102//13
f 86//16 103//14 97//14
f 97//13 103//13 86//15
f 98//72 96//4 87//4
f 87//1 96//1 98//71
f 87//63 97//63 98//63
f 98//66 97//66 87//66
f 99//18 90//32 105//32
f 105//31 90//31 99//17
f 100//39 80//50 101//50
f 101//49 80//49 100//40
f 95//42 91//39 100//39
f 100//40 91//40 95//41
f 92//70 97//14 98//70
f 98//69 97//13 92//69
f 81//85 104//81 102//81
f 102//82 104//82 81//86
f 97//14 92//70 102//14
f 102//13 92//69 97//13
f 93//89 94//90 95//90
f 95//91 94//91 93//92
f 86//16 102//14 104//16
f 104//15 102//13 86//15
f 103//9 96//9 106//9
f 106//10 96//10 103//10
f 106//70 97//14 103//14
f 103//13 97//13 106//69
f 96//4 98//72 106//72
f 106//71 98//71 96//1
f 97//14 106//70 98//70
f 98//69 106//69 97//13
f 93//89 100//90 101//90
f 101//91 100//91 93//92
f 93//89 95//90 100//90
f 100//91 95//91 93//92