mtllib new-6.mtl
v -0.324786 -0.005503 -0.268600
v -0.324786 -0.030517 -0.284377
v -0.324786 -0.024366 -0.294131
v -0.324786 -0.031430 -0.294131
v -0.324786 -0.100211 -0.283213
v -0.324786 -0.083749 -0.293688
v -0.324786 -0.065943 -0.301668
v -0.324786 -0.047168 -0.306983
v -0.324786 -0.114982 -0.270463
v -0.385795 -0.083757 -0.293871
v -0.324786 -0.127749 -0.255706
v -0.385795 -0.100219 -0.283396
v -0.385795 -0.003373 -0.260858
v -0.385795 -0.065950 -0.301851
v -0.385795 -0.047176 -0.307166
v -0.324786 -0.028202 -0.263198
v -0.385795 -0.127756 -0.255890
v -0.385795 -0.114989 -0.270646
v -0.385795 -0.007923 -0.262121
v -0.324786 -0.038280 -0.261709
v -0.385795 -0.138250 -0.239439
v -0.385795 -0.018022 -0.263458
v -0.385795 -0.028209 -0.263381
v -0.324786 -0.048053 -0.258835
v -0.324786 -0.138243 -0.239256
v -0.385795 -0.057342 -0.254817
v -0.385795 -0.038287 -0.261892
v -0.324786 -0.057334 -0.254634
v -0.385795 -0.146250 -0.221642
v -0.385795 -0.048061 -0.259018
v -0.385795 -0.065950 -0.249369
v -0.324786 -0.065942 -0.249186
v -0.324786 -0.146242 -0.221459
v -0.385795 -0.080498 -0.235176
v -0.385795 -0.073718 -0.242779
v -0.324786 -0.073711 -0.242596
v -0.324786 -0.080491 -0.234992
v -0.385795 -0.151586 -0.202873
v -0.385795 -0.086157 -0.226705
v -0.324786 -0.086150 -0.226522
v -0.324786 -0.151578 -0.202690
v -0.385795 -0.090587 -0.217531
v -0.324786 -0.090579 -0.217348
v -0.385795 -0.181502 -0.058481
v -0.385795 -0.093701 -0.207831
v -0.324786 -0.093693 -0.207648
v -0.324786 -0.181494 -0.058298
v -0.385795 -0.130037 -0.060023
v -0.324786 -0.130029 -0.059840
v -0.324786 -0.183428 -0.046486
v -0.385795 -0.131513 -0.052878
v -0.324786 -0.131505 -0.052694
v -0.385795 -0.183436 -0.046669
v -0.385795 -0.184371 -0.034737
v -0.324786 -0.132444 -0.045458
v -0.385795 -0.132452 -0.045641
v -0.324786 -0.184363 -0.034554
v -0.385795 -0.184301 -0.022768
v -0.385795 -0.132848 -0.038355
v -0.324786 -0.132840 -0.038172
v -0.324786 -0.184293 -0.022585
v -0.385795 -0.132699 -0.031060
v -0.324786 -0.132692 -0.030877
v -0.385795 -0.183227 -0.010847
v -0.385795 -0.132007 -0.023796
v -0.324786 -0.132000 -0.023613
v -0.324786 -0.183219 -0.010664
v -0.385795 -0.130775 -0.016604
v -0.324786 -0.130767 -0.016421
v -0.385795 -0.181155 0.000941
v -0.385795 -0.129009 -0.009524
v -0.324786 -0.129001 -0.009341
v -0.324786 -0.181148 0.001124
v -0.324786 -0.178094 0.012697
v -0.385795 -0.126720 -0.002596
v -0.324786 -0.126712 -0.002413
v -0.385795 -0.178102 0.012514
v -0.324786 -0.123913 0.004326
v -0.385795 -0.123920 0.004142
v -0.385795 -0.174087 0.023790
v -0.324786 -0.120618 0.010836
v -0.324786 -0.174079 0.023973
v -0.385795 -0.116855 0.016900
v -0.385795 -0.120626 0.010653
v -0.324786 -0.116847 0.017083
v -0.385795 -0.169140 0.034689
v -0.385795 -0.112628 0.022848
v -0.324786 -0.112620 0.023031
v -0.324786 -0.169132 0.034872
v -0.385795 -0.080989 0.062839
v -0.324786 -0.080982 0.063022
v -0.385795 -0.163296 0.045134
v -0.324786 -0.163288 0.045317
v -0.385795 -0.156595 0.055051
v -0.385795 -0.077770 0.068406
v -0.324786 -0.156587 0.055234
v -0.385795 -0.149085 0.064371
v -0.324786 -0.077763 0.068589
v -0.324786 -0.149077 0.064554
v -0.385795 -0.076102 0.074617
v -0.385795 -0.140819 0.073028
v -0.324786 -0.076094 0.074800
v -0.324786 -0.140812 0.073211
v -0.324786 -0.076090 0.081230
v -0.385795 -0.120055 0.092857
v -0.385795 -0.076098 0.081047
v -0.324786 -0.120048 0.093040
v -0.324786 -0.077750 0.087443
v -0.385795 -0.077758 0.087260
v -0.385795 -0.115505 0.097401
v -0.324786 -0.080962 0.093014
v -0.385795 -0.080969 0.092831
v -0.324786 -0.115498 0.097584
v -0.385795 -0.085514 0.097381
v -0.324786 -0.085506 0.097564
v -0.385795 -0.109934 0.100613
v -0.385795 -0.091080 0.100600
v -0.324786 -0.091073 0.100783
v -0.324786 -0.109926 0.100796
v -0.385795 -0.103721 0.102273
v -0.385795 -0.097291 0.102269
v -0.324786 -0.097283 0.102452
v -0.324786 -0.103714 0.102456
vn -1.000000 0.000000 0.000000
vn 1.000000 0.000000 0.000000
vn 0.002483 -0.596729 -0.802439
vn 0.002701 -0.474153 -0.880438
vn -0.002701 0.474153 0.880438
vn -0.002483 0.596729 0.802439
vn 0.002211 -0.706708 -0.707502
vn -0.002211 0.706708 0.707502
vn 0.002863 -0.341569 -0.939852
vn -0.002863 0.341569 0.939852
vn 0.002965 -0.201775 -0.979427
vn -0.002965 0.201775 0.979427
vn 0.001893 -0.801770 -0.597630
vn -0.001893 0.801770 0.597630
vn 0.001535 -0.879907 -0.475143
vn -0.001535 0.879907 0.475143
vn -0.002958 0.214644 0.976688
vn 0.002958 -0.214644 -0.976688
vn -0.002857 0.348063 0.937467
vn 0.002857 -0.348063 -0.937467
vn 0.001145 -0.939471 -0.342627
vn -0.001145 0.939471 0.342627
vn -0.002701 0.474751 0.880116
vn 0.002701 -0.474751 -0.880116
vn -0.002492 0.592258 0.805744
vn 0.002492 -0.592258 -0.805744
vn 0.000940 -0.961879 -0.273475
vn -0.000940 0.961879 0.273475
vn -0.002235 0.698311 0.715791
vn 0.002235 -0.698311 -0.715791
vn -0.001935 0.790860 0.611994
vn 0.001935 -0.790860 -0.611994
vn -0.001597 0.868114 0.496363
vn 0.001597 -0.868114 -0.496363
vn 0.000730 -0.979204 -0.202878
vn -0.000730 0.979204 0.202878
vn -0.001229 0.928579 0.371132
vn 0.001229 -0.928579 -0.371132
vn -0.001035 0.952138 0.305667
vn 0.001035 -0.952138 -0.305667
vn 0.000483 -0.992779 -0.119954
vn 0.000607 -0.986863 -0.161559
vn -0.000607 0.986863 0.161559
vn -0.000483 0.992779 0.119954
vn -0.000837 0.971087 0.238723
vn 0.000837 -0.971087 -0.238723
vn -0.000619 0.986193 0.165600
vn -0.000729 0.979323 0.202303
vn 0.000619 -0.986193 -0.165600
vn 0.000729 -0.979323 -0.202303
vn 0.000232 -0.999345 -0.036184
vn -0.000232 0.999345 0.036184
vn -0.000398 0.995800 0.091554
vn 0.000398 -0.995800 -0.091554
vn -0.000020 -0.998855 0.047841
vn 0.000020 0.998855 -0.047841
vn -0.000175 0.999856 0.016997
vn 0.000175 -0.999856 -0.016997
vn -0.000272 -0.991312 0.131529
vn 0.000272 0.991312 -0.131529
vn 0.000049 0.998337 -0.057655
vn -0.000049 -0.998337 0.057655
vn 0.000273 0.991252 -0.131986
vn -0.000273 -0.991252 0.131986
vn -0.000522 -0.976770 0.214288
vn 0.000522 0.976770 -0.214288
vn 0.000496 0.978640 -0.205580
vn -0.000496 -0.978640 0.205580
vn 0.000715 0.960573 -0.278028
vn -0.000715 -0.960573 0.278028
vn -0.000769 -0.955332 0.295534
vn 0.000769 0.955332 -0.295534
vn 0.000931 0.937150 -0.348927
vn -0.000931 -0.937150 0.348927
vn -0.001010 -0.927148 0.374694
vn 0.001010 0.927148 -0.374694
vn 0.001142 0.908502 -0.417880
vn -0.001142 -0.908502 0.417880
vn 0.001346 0.874789 -0.484503
vn -0.001346 -0.874789 0.484503
vn -0.001244 -0.892418 0.451208
vn 0.001244 0.892418 -0.451208
vn 0.001542 0.836199 -0.548425
vn -0.001542 -0.836199 0.548425
vn 0.001638 0.815141 -0.579261
vn -0.001638 -0.815141 0.579261
vn -0.001469 -0.851387 0.524536
vn 0.001469 0.851387 -0.524536
vn 0.001765 0.784248 -0.620445
vn -0.001765 -0.784248 0.620445
vn 0.001036 0.923624 -0.383299
vn 0.001395 0.865691 -0.500576
vn -0.001395 -0.865691 0.500576
vn -0.001036 -0.923624 0.383299
vn -0.001684 -0.804345 0.594161
vn 0.001684 0.804345 -0.594161
vn -0.001887 -0.751623 0.659590
vn 0.001887 0.751623 -0.659590
vn 0.000271 0.991357 -0.131188
vn -0.000271 -0.991357 0.131188
vn -0.001983 -0.723248 0.690586
vn 0.001983 0.723248 -0.690586
vn -0.000513 0.991532 0.129863
vn 0.000513 -0.991532 -0.129863
vn -0.002085 -0.690643 0.723193
vn 0.002085 0.690643 -0.723193
vn -0.001261 0.924135 0.382064
vn 0.001261 -0.924135 -0.382064
vn -0.002036 -0.706634 0.707576
vn -0.002307 -0.608231 0.793756
vn 0.002036 0.706634 -0.707576
vn 0.002307 0.608231 -0.793756
vn -0.001924 0.793760 0.608228
vn 0.001924 -0.793760 -0.608228
vn -0.002726 -0.382066 0.924131
vn 0.002726 0.382066 -0.924131
vn -0.002456 0.609291 0.792943
vn 0.002456 -0.609291 -0.792943
vn -0.002820 0.383301 0.923619
vn 0.002820 -0.383301 -0.923619
vn -0.002960 -0.129864 0.991527
vn 0.002960 0.129864 -0.991527
vn -0.002992 0.131188 0.991353
vn 0.002992 -0.131188 -0.991353
usemtl material-0
f 5//2 2//2 1//2
f 1//1 2//1 5//1
f 6//2 4//2 2//2
f 2//1 4//1 6//1
f 4//2 7//2 3//2
f 3//1 7//1 4//1
f 6//2 2//2 5//2
f 5//1 2//1 6//1
f 5//2 1//2 9//2
f 9//1 1//1 5//1
f 7//2 4//2 6//2
f 6//1 4//1 7//1
f 8//2 3//2 7//2
f 7//1 3//1 8//1
f 5//3 10//4 6//4
f 6//5 10//5 5//6
f 9//2 1//2 11//2
f 11//1 1//1 9//1
f 9//7 12//3 5//3
f 5//6 12//6 9//8
f 6//4 14//9 7//9
f 7//10 14//10 6//5
f 7//9 15//11 8//11
f 8//12 15//12 7//10
f 10//4 5//3 12//3
f 12//6 5//6 10//5
f 14//9 6//4 10//4
f 10//5 6//5 14//10
f 11//2 1//2 16//2
f 16//1 1//1 11//1
f 17//13 9//7 11//13
f 11//14 9//8 17//14
f 12//3 9//7 18//7
f 18//8 9//8 12//6
f 15//11 7//9 14//9
f 14//10 7//10 15//12
f 19//1 10//1 12//1
f 12//2 10//2 19//2
f 13//1 14//1 10//1
f 10//2 14//2 13//2
f 11//2 16//2 20//2
f 20//1 16//1 11//1
f 9//7 17//13 18//7
f 18//8 17//14 9//8
f 11//13 21//15 17//13
f 17//14 21//16 11//14
f 22//1 12//1 18//1
f 18//2 12//2 22//2
f 19//1 12//1 22//1
f 22//2 12//2 19//2
f 11//2 20//2 24//2
f 24//1 20//1 11//1
f 23//1 18//1 17//1
f 17//2 18//2 23//2
f 21//15 11//13 25//15
f 25//16 11//14 21//16
f 26//1 17//1 21//1
f 21//2 17//2 26//2
f 18//1 23//1 22//1
f 22//2 23//2 18//2
f 27//17 24//19 20//17
f 20//18 24//20 27//18
f 11//2 24//2 28//2
f 28//1 24//1 11//1
f 23//1 17//1 27//1
f 27//2 17//2 23//2
f 11//2 28//2 25//2
f 25//1 28//1 11//1
f 25//15 29//21 21//15
f 21//16 29//22 25//16
f 30//1 17//1 26//1
f 26//2 17//2 30//2
f 26//1 21//1 31//1
f 31//2 21//2 26//2
f 24//19 27//17 30//19
f 30//20 27//18 24//20
f 30//19 28//23 24//19
f 24//20 28//24 30//20
f 27//1 17//1 30//1
f 30//2 17//2 27//2
f 25//2 28//2 32//2
f 32//1 28//1 25//1
f 29//21 25//15 33//21
f 33//22 25//16 29//22
f 34//1 21//1 29//1
f 29//2 21//2 34//2
f 28//23 30//19 26//23
f 26//24 30//20 28//24
f 31//1 21//1 35//1
f 35//2 21//2 31//2
f 32//25 26//23 31//25
f 31//26 26//24 32//26
f 26//23 32//25 28//23
f 28//24 32//26 26//24
f 25//2 32//2 36//2
f 36//1 32//1 25//1
f 25//2 37//2 33//2
f 33//1 37//1 25//1
f 33//21 38//27 29//21
f 29//22 38//28 33//22
f 35//1 21//1 34//1
f 34//2 21//2 35//2
f 34//1 29//1 39//1
f 39//2 29//2 34//2
f 36//29 31//25 35//29
f 35//30 31//26 36//30
f 31//25 36//29 32//25
f 32//26 36//30 31//26
f 25//2 36//2 37//2
f 37//1 36//1 25//1
f 33//2 37//2 40//2
f 40//1 37//1 33//1
f 38//27 33//21 41//27
f 41//28 33//22 38//28
f 42//1 29//1 38//1
f 38//2 29//2 42//2
f 37//31 35//29 34//31
f 34//32 35//30 37//32
f 39//1 29//1 42//1
f 42//2 29//2 39//2
f 40//33 34//31 39//33
f 39//34 34//32 40//34
f 35//29 37//31 36//29
f 36//30 37//32 35//30
f 34//31 40//33 37//31
f 37//32 40//34 34//32
f 33//2 40//2 43//2
f 43//1 40//1 33//1
f 33//2 43//2 41//2
f 41//1 43//1 33//1
f 41//35 44//35 38//35
f 38//36 44//36 41//36
f 42//1 38//1 45//1
f 45//2 38//2 42//2
f 42//37 40//33 39//33
f 39//34 40//34 42//38
f 40//33 42//37 43//37
f 43//38 42//38 40//34
f 41//2 43//2 46//2
f 46//1 43//1 41//1
f 44//35 41//35 47//35
f 47//36 41//36 44//36
f 48//1 38//1 44//1
f 44//2 38//2 48//2
f 45//1 38//1 48//1
f 48//2 38//2 45//2
f 46//39 42//37 45//39
f 45//40 42//38 46//40
f 42//37 46//39 43//37
f 43//38 46//40 42//38
f 41//2 46//2 49//2
f 49//1 46//1 41//1
f 41//2 49//2 47//2
f 47//1 49//1 41//1
f 50//41 44//42 47//42
f 47//43 44//43 50//44
f 48//1 44//1 51//1
f 51//2 44//2 48//2
f 48//45 46//45 45//45
f 45//46 46//46 48//46
f 46//45 48//45 49//45
f 49//46 48//46 46//46
f 47//2 49//2 52//2
f 52//1 49//1 47//1
f 44//42 50//41 53//41
f 53//44 50//44 44//43
f 47//2 52//2 50//2
f 50//1 52//1 47//1
f 51//1 44//1 53//1
f 53//2 44//2 51//2
f 52//47 48//48 51//47
f 51//49 48//50 52//49
f 48//48 52//47 49//48
f 49//50 52//49 48//50
f 50//41 54//51 53//41
f 53//44 54//52 50//44
f 50//2 52//2 55//2
f 55//1 52//1 50//1
f 51//1 53//1 56//1
f 56//2 53//2 51//2
f 51//47 55//53 52//47
f 52//49 55//54 51//49
f 54//51 50//41 57//51
f 57//52 50//44 54//52
f 56//1 53//1 54//1
f 54//2 53//2 56//2
f 50//2 55//2 57//2
f 57//1 55//1 50//1
f 55//53 51//47 56//53
f 56//54 51//49 55//54
f 57//51 58//55 54//51
f 54//52 58//56 57//52
f 56//1 54//1 59//1
f 59//2 54//2 56//2
f 57//2 55//2 60//2
f 60//1 55//1 57//1
f 59//57 55//53 56//53
f 56//54 55//54 59//58
f 58//55 57//51 61//55
f 61//56 57//52 58//56
f 62//1 54//1 58//1
f 58//2 54//2 62//2
f 59//1 54//1 62//1
f 62//2 54//2 59//2
f 55//53 59//57 60//57
f 60//58 59//58 55//54
f 57//2 60//2 63//2
f 63//1 60//1 57//1
f 57//2 63//2 61//2
f 61//1 63//1 57//1
f 61//55 64//59 58//55
f 58//56 64//60 61//56
f 62//1 58//1 65//1
f 65//2 58//2 62//2
f 63//61 59//57 62//61
f 62//62 59//58 63//62
f 59//57 63//61 60//57
f 60//58 63//62 59//58
f 61//2 63//2 66//2
f 66//1 63//1 61//1
f 64//59 61//55 67//59
f 67//60 61//56 64//60
f 68//1 58//1 64//1
f 64//2 58//2 68//2
f 65//1 58//1 68//1
f 68//2 58//2 65//2
f 66//63 62//61 65//63
f 65//64 62//62 66//64
f 62//61 66//63 63//61
f 63//62 66//64 62//62
f 61//2 66//2 69//2
f 69//1 66//1 61//1
f 61//2 69//2 67//2
f 67//1 69//1 61//1
f 67//59 70//65 64//59
f 64//60 70//66 67//60
f 68//1 64//1 71//1
f 71//2 64//2 68//2
f 69//67 65//63 68//67
f 68//68 65//64 69//68
f 65//63 69//67 66//63
f 66//64 69//68 65//64
f 67//2 69//2 72//2
f 72//1 69//1 67//1
f 70//65 67//59 73//65
f 73//66 67//60 70//66
f 71//1 64//1 70//1
f 70//2 64//2 71//2
f 72//69 68//67 71//69
f 71//70 68//68 72//70
f 68//67 72//69 69//67
f 69//68 72//70 68//68
f 67//2 72//2 73//2
f 73//1 72//1 67//1
f 74//71 70//65 73//65
f 73//66 70//66 74//72
f 71//1 70//1 75//1
f 75//2 70//2 71//2
f 71//69 76//73 72//69
f 72//70 76//74 71//70
f 73//2 72//2 76//2
f 76//1 72//1 73//1
f 70//65 74//71 77//71
f 77//72 74//72 70//66
f 73//2 78//2 74//2
f 74//1 78//1 73//1
f 75//1 70//1 79//1
f 79//2 70//2 75//2
f 76//73 71//69 75//73
f 75//74 71//70 76//74
f 73//2 76//2 78//2
f 78//1 76//1 73//1
f 74//71 80//75 77//71
f 77//72 80//76 74//72
f 79//1 70//1 77//1
f 77//2 70//2 79//2
f 74//2 78//2 81//2
f 81//1 78//1 74//1
f 78//77 75//73 79//77
f 79//78 75//74 78//78
f 75//73 78//77 76//73
f 76//74 78//78 75//74
f 80//75 74//71 82//75
f 82//76 74//72 80//76
f 83//1 77//1 80//1
f 80//2 77//2 83//2
f 79//1 77//1 84//1
f 84//2 77//2 79//2
f 79//77 81//79 78//77
f 78//78 81//80 79//78
f 74//2 81//2 85//2
f 85//1 81//1 74//1
f 74//2 85//2 82//2
f 82//1 85//1 74//1
f 82//75 86//81 80//75
f 80//76 86//82 82//76
f 84//1 77//1 83//1
f 83//2 77//2 84//2
f 83//1 80//1 87//1
f 87//2 80//2 83//2
f 81//79 79//77 84//79
f 84//80 79//78 81//80
f 84//79 85//83 81//79
f 81//80 85//84 84//80
f 82//2 85//2 88//2
f 88//1 85//1 82//1
f 86//81 82//75 89//81
f 89//82 82//76 86//82
f 90//1 80//1 86//1
f 86//2 80//2 90//2
f 85//83 84//79 83//83
f 83//84 84//80 85//84
f 87//1 80//1 90//1
f 90//2 80//2 87//2
f 88//85 83//83 87//85
f 87//86 83//84 88//86
f 83//83 88//85 85//83
f 85//84 88//86 83//84
f 82//2 88//2 91//2
f 91//1 88//1 82//1
f 82//2 91//2 89//2
f 89//1 91//1 82//1
f 89//81 92//87 86//81
f 86//82 92//88 89//82
f 90//1 86//1 92//1
f 92//2 86//2 90//2
f 91//89 87//89 90//89
f 90//90 87//90 91//90
f 87//89 91//89 88//89
f 88//90 91//90 87//90
f 89//2 91//2 93//2
f 93//1 91//1 89//1
f 92//87 89//81 93//87
f 93//88 89//82 92//88
f 90//1 92//1 94//1
f 94//2 92//2 90//2
f 95//91 91//92 90//92
f 90//93 91//93 95//94
f 93//2 91//2 96//2
f 96//1 91//1 93//1
f 93//87 94//95 92//87
f 92//88 94//96 93//88
f 90//1 94//1 97//1
f 97//2 94//2 90//2
f 91//92 95//91 98//91
f 98//94 95//94 91//93
f 90//1 97//1 95//1
f 95//2 97//2 90//2
f 96//2 91//2 99//2
f 99//1 91//1 96//1
f 94//95 93//87 96//95
f 96//96 93//88 94//96
f 94//95 99//97 97//97
f 97//98 99//98 94//96
f 100//99 98//91 95//91
f 95//94 98//94 100//100
f 99//2 91//2 98//2
f 98//1 91//1 99//1
f 95//1 97//1 101//1
f 101//2 97//2 95//2
f 99//97 94//95 96//95
f 96//96 94//96 99//98
f 99//97 101//101 97//97
f 97//98 101//102 99//98
f 98//91 100//99 102//99
f 102//100 100//100 98//94
f 95//1 101//1 100//1
f 100//2 101//2 95//2
f 99//2 98//2 103//2
f 103//1 98//1 99//1
f 101//101 99//97 103//101
f 103//102 99//98 101//102
f 100//99 104//103 102//99
f 102//100 104//104 100//100
f 103//2 98//2 102//2
f 102//1 98//1 103//1
f 100//1 101//1 105//1
f 105//2 101//2 100//2
f 103//105 105//105 101//105
f 101//106 105//106 103//106
f 104//103 100//99 106//103
f 106//104 100//100 104//104
f 107//2 102//2 104//2
f 104//1 102//1 107//1
f 103//2 102//2 107//2
f 107//1 102//1 103//1
f 100//1 105//1 106//1
f 106//2 105//2 100//2
f 105//105 103//105 107//105
f 107//106 103//106 105//106
f 106//103 108//107 104//103
f 104//104 108//108 106//104
f 107//2 104//2 108//2
f 108//1 104//1 107//1
f 106//1 105//1 109//1
f 109//2 105//2 106//2
f 107//109 110//110 105//109
f 105//111 110//112 107//111
f 108//107 106//103 109//107
f 109//108 106//104 108//108
f 107//2 108//2 111//2
f 111//1 108//1 107//1
f 109//1 105//1 112//1
f 112//2 105//2 109//2
f 110//110 107//109 113//110
f 113//112 107//111 110//112
f 114//1 105//1 110//1
f 110//2 105//2 114//2
f 112//113 108//107 109//107
f 109//108 108//108 112//114
f 108//107 112//113 111//113
f 111//114 112//114 108//108
f 107//2 111//2 115//2
f 115//1 111//1 107//1
f 112//1 105//1 114//1
f 114//2 105//2 112//2
f 107//2 115//2 113//2
f 113//1 115//1 107//1
f 113//110 116//115 110//110
f 110//112 116//116 113//112
f 114//1 110//1 117//1
f 117//2 110//2 114//2
f 112//113 115//117 111//113
f 111//114 115//118 112//114
f 115//117 112//113 114//117
f 114//118 112//114 115//118
f 113//2 115//2 118//2
f 118//1 115//1 113//1
f 116//115 113//110 119//115
f 119//116 113//112 116//116
f 117//1 110//1 116//1
f 116//2 110//2 117//2
f 118//119 114//117 117//119
f 117//120 114//118 118//120
f 114//117 118//119 115//117
f 115//118 118//120 114//118
f 113//2 118//2 119//2
f 119//1 118//1 113//1
f 119//115 120//121 116//115
f 116//116 120//122 119//116
f 117//1 116//1 121//1
f 121//2 116//2 117//2
f 117//119 122//123 118//119
f 118//120 122//124 117//120
f 119//2 118//2 122//2
f 122//1 118//1 119//1
f 120//121 119//115 123//121
f 123//122 119//116 120//122
f 121//1 116//1 120//1
f 120//2 116//2 121//2
f 122//123 117//119 121//123
f 121//124 117//120 122//124
f 119//2 122//2 123//2
f 123//1 122//1 119//1
f 123//121 121//123 120//121
f 120//122 121//124 123//122
f 121//123 123//121 122//123
f 122//124 123//122 121//124