mtllib new-0.mtl
v -0.034719 -0.518693 0.027008
v -0.034440 -0.520759 -0.000769
v -0.034719 -0.518693 0.067706
v -0.038785 -0.528867 0.036824
v -0.043203 -0.520958 0.003628
v -0.038523 -0.520813 0.001734
v -0.034719 -0.528867 0.067706
v -0.038785 -0.518693 0.036824
v -0.038785 -0.528867 0.057890
v -0.047606 -0.521266 0.004685
v -0.042949 -0.520947 0.003567
v -0.028251 -0.437298 0.018580
v -0.034440 -0.441085 -0.000769
v -0.038523 -0.441185 0.001734
v -0.038785 -0.518693 0.057890
v -0.040171 -0.528867 0.047357
v -0.092710 -0.525867 -0.006472
v -0.047606 -0.442016 0.004685
v -0.052381 -0.521651 0.005060
v -0.042949 -0.441430 0.003567
v -0.054884 -0.521188 0.079348
v -0.040171 -0.518693 0.047357
v -0.412592 -0.560156 -0.063337
v -0.061813 -0.522558 0.003567
v -0.052381 -0.442721 0.005060
v -0.057156 -0.522085 0.004685
v -0.054556 -0.520982 0.075172
v -0.486013 -0.570290 -0.131111
v -0.092710 -0.450451 -0.006472
v -0.034719 -0.437298 0.027008
v -0.057156 -0.443517 0.004685
v -0.043203 -0.441451 0.003628
v -0.057251 -0.520741 0.062839
v -0.054931 -0.520822 0.070397
v -0.054884 -0.441872 0.079348
v -0.075647 -0.522511 0.046143
v -0.490456 -0.570890 -0.134906
v -0.482703 -0.569760 -0.126296
v -0.061813 -0.444384 0.003567
v -0.495730 -0.534149 -0.137422
v -0.057883 -0.520787 0.061315
v -0.056050 -0.520741 0.065740
v -0.054931 -0.441202 0.070397
v -0.054556 -0.441495 0.075172
v -0.509564 -0.533453 -0.094846
v -0.072715 -0.522180 0.047357
v -0.495730 -0.571521 -0.137422
v -0.486013 -0.587370 -0.131111
v -0.487669 -0.569148 -0.099499
v -0.483874 -0.568953 -0.103943
v -0.480752 -0.569338 -0.120787
v -0.412592 -0.513314 -0.063337
v -0.060385 -0.520998 0.057231
v -0.057883 -0.441138 0.061315
v -0.056050 -0.441053 0.065740
v -0.509564 -0.571141 -0.094846
v -0.075647 -0.444298 0.046143
v -0.071222 -0.522028 0.047976
v -0.492485 -0.569492 -0.096190
v -0.490456 -0.587370 -0.134906
v -0.481359 -0.568920 -0.109217
v -0.482703 -0.587370 -0.126296
v -0.480294 -0.569051 -0.114962
v -0.501476 -0.535282 -0.138487
v -0.038785 -0.437298 0.036824
v -0.063496 -0.521280 0.053589
v -0.057251 -0.441053 0.062839
v -0.514838 -0.534609 -0.097361
v -0.503818 -0.570524 -0.093781
v -0.067138 -0.521626 0.050478
v -0.497993 -0.569961 -0.094239
v -0.495730 -0.587370 -0.137422
v -0.487669 -0.587370 -0.099499
v -0.492485 -0.587370 -0.096190
v -0.483874 -0.587370 -0.103943
v -0.480752 -0.587370 -0.120787
v -0.501476 -0.572139 -0.138487
v -0.040171 -0.437298 0.047357
v -0.060385 -0.441524 0.057231
v -0.514838 -0.571772 -0.097361
v -0.512809 -0.537174 -0.136078
v -0.507301 -0.572701 -0.138028
v -0.509564 -0.587370 -0.094846
v -0.071222 -0.443413 0.047976
v -0.497993 -0.587370 -0.094239
v -0.481359 -0.587370 -0.109217
v -0.480294 -0.587370 -0.114962
v -0.507301 -0.536313 -0.138028
v -0.067138 -0.442676 0.050478
v -0.063496 -0.442041 0.053589
v -0.519281 -0.535711 -0.101156
v -0.514838 -0.587370 -0.097361
v -0.512809 -0.573170 -0.136078
v -0.517625 -0.537804 -0.132768
v -0.503818 -0.587370 -0.093781
v -0.072715 -0.443690 0.047357
v -0.501476 -0.587370 -0.138487
v -0.519281 -0.572372 -0.101156
v -0.519281 -0.587370 -0.101156
v -0.517625 -0.573514 -0.132768
v -0.507301 -0.587370 -0.138028
v -0.512809 -0.587370 -0.136078
v -0.522591 -0.572902 -0.105972
v -0.521419 -0.538162 -0.128325
v -0.517625 -0.587370 -0.132768
v -0.522591 -0.536681 -0.105972
v -0.521419 -0.573709 -0.128325
v -0.521419 -0.587370 -0.128325
v -0.524541 -0.573325 -0.111480
v -0.522591 -0.587370 -0.105972
v -0.523935 -0.573743 -0.123051
v -0.523935 -0.538222 -0.123051
v -0.524541 -0.537456 -0.111480
v -0.523935 -0.587370 -0.123051
v -0.525000 -0.573611 -0.117305
v -0.524541 -0.587370 -0.111480
v -0.525000 -0.537982 -0.117305
v -0.525000 -0.587370 -0.117305
vn 0.965926 0.000000 -0.258819
vn 0.866025 0.000000 -0.500000
vn -0.866025 0.000000 0.500000
vn -0.965926 0.000000 0.258819
vn 0.707107 0.000000 -0.707107
vn -0.707107 0.000000 0.707107
vn 1.000000 0.000000 0.000000
vn -1.000000 0.000000 0.000000
vn 0.000000 -1.000000 0.000000
vn 0.000000 1.000000 0.000000
vn -0.309017 0.000000 -0.951057
vn 0.309017 0.000000 0.951057
vn 0.965926 0.000000 0.258819
vn -0.965926 0.000000 -0.258819
vn -0.156434 0.000000 -0.987688
vn -0.233445 0.000000 -0.972370
vn 0.233445 0.000000 0.972370
vn 0.156434 0.000000 0.987688
vn 0.453990 0.000000 0.891007
vn -0.453990 0.000000 -0.891007
vn 0.233445 0.000000 -0.972370
vn 0.156434 0.000000 -0.987688
vn -0.156434 0.000000 0.987688
vn -0.233445 0.000000 0.972370
vn 0.309017 0.000000 -0.951057
vn -0.309017 0.000000 0.951057
vn -0.951057 0.000000 0.309017
vn 0.951057 0.000000 -0.309017
vn 0.000000 0.000000 -1.000000
vn 0.000000 0.000000 1.000000
vn 0.587785 0.000000 0.809017
vn -0.587785 0.000000 -0.809017
vn 0.809017 0.000000 -0.587785
vn -0.809017 0.000000 0.587785
vn 0.453990 0.000000 -0.891007
vn -0.453990 0.000000 0.891007
vn 0.951057 0.000000 0.309017
vn -0.951057 0.000000 -0.309017
vn 0.587785 0.000000 -0.809017
vn -0.587785 0.000000 0.809017
vn 0.891007 0.000000 -0.453990
vn -0.891007 0.000000 0.453990
vn 0.987688 0.000000 -0.156434
vn -0.987688 0.000000 0.156434
vn -0.996917 0.000000 -0.078459
vn 0.996917 0.000000 0.078459
vn -0.092260 0.994309 -0.053267
vn 0.092260 -0.994309 0.053267
vn -0.092260 0.994309 0.053267
vn 0.092260 -0.994309 -0.053267
vn -0.085239 0.994211 -0.065406
vn 0.085239 -0.994211 0.065406
vn -0.136292 0.981249 -0.136292
vn -0.118310 0.980933 -0.154185
vn 0.118310 -0.980933 0.154185
vn 0.136292 -0.981249 0.136292
vn -0.102903 0.994309 -0.027573
vn 0.102903 -0.994309 0.027573
vn -0.102903 0.994309 0.027573
vn 0.102903 -0.994309 -0.027573
vn -0.099263 0.994211 0.041116
vn 0.099263 -0.994211 -0.041116
vn -0.106533 0.994309 0.000000
vn 0.106533 -0.994309 0.000000
vn -0.099263 0.994211 -0.041116
vn 0.099263 -0.994211 0.041116
vn -0.166922 0.981249 -0.096373
vn -0.154185 0.980933 -0.118310
vn 0.154185 -0.980933 0.118310
vn 0.166922 -0.981249 0.096373
vn -0.106523 0.994211 -0.014024
vn 0.106523 -0.994211 0.014024
vn -0.106523 0.994211 0.014024
vn 0.106523 -0.994211 -0.014024
vn 0.743145 0.000000 -0.669131
vn 0.544639 0.000000 -0.838671
vn -0.743145 0.000000 0.669131
vn -0.544639 0.000000 0.838671
vn -0.186178 0.981249 -0.049886
vn -0.179552 0.980933 -0.074373
vn 0.179552 -0.980933 0.074373
vn 0.186178 -0.981249 0.049886
vn -0.923880 0.000000 0.382683
vn 0.923880 0.000000 -0.382683
vn -0.382683 0.000000 0.923880
vn 0.382683 0.000000 -0.923880
vn 0.430511 0.000000 -0.902585
vn -0.430511 0.000000 0.902585
vn 0.978148 0.000000 -0.207912
vn -0.978148 0.000000 0.207912
vn 0.182236 0.000000 -0.983255
vn 0.052336 0.000000 -0.998630
vn -0.182236 0.000000 0.983255
vn -0.052336 0.000000 0.998630
vn 0.669131 0.000000 0.743145
vn 0.838671 0.000000 0.544639
vn -0.669131 0.000000 -0.743145
vn -0.838671 0.000000 -0.544639
vn 0.998630 0.000000 0.052336
vn -0.998630 0.000000 -0.052336
vn -0.192745 0.981249 0.000000
vn 0.192745 -0.981249 0.000000
vn -0.192683 0.980933 0.025367
vn 0.192683 -0.980933 -0.025367
vn -0.192683 0.980933 -0.025367
vn 0.192683 -0.980933 0.025367
vn 0.207912 0.000000 0.978148
vn -0.207912 0.000000 -0.978148
usemtl material-0
f 14//20 2//32 6//20
f 6//19 2//31 14//19
f 15//4 7//3 3//3
f 3//2 7//2 15//1
f 17//47 8//57 1//47
f 1//48 8//58 17//48
f 4//9 9//9 16//9
f 16//10 9//10 4//10
f 18//15 5//16 10//15
f 10//18 5//17 18//18
f 5//16 18//15 11//11
f 11//12 18//18 5//17
f 2//32 14//20 13//32
f 13//31 14//19 2//31
f 6//20 20//11 14//20
f 14//19 20//12 6//19
f 20//11 6//20 11//11
f 11//12 6//19 20//12
f 7//3 15//4 9//4
f 9//1 15//1 7//2
f 15//59 21//49 3//49
f 3//50 21//50 15//60
f 8//14 16//8 22//8
f 22//7 16//7 8//13
f 8//57 17//47 23//57
f 23//58 17//48 8//58
f 1//47 24//51 17//47
f 17//48 24//52 1//48
f 9//4 22//8 16//8
f 16//7 22//7 9//1
f 10//15 25//29 18//15
f 18//18 25//30 10//18
f 25//29 10//15 19//29
f 19//30 10//18 25//30
f 1//47 19//51 26//51
f 26//52 19//52 1//48
f 11//11 18//15 20//11
f 20//12 18//18 11//12
f 12//53 13//54 14//54
f 14//55 13//55 12//56
f 12//53 14//54 20//54
f 20//55 14//55 12//56
f 22//8 9//4 15//4
f 15//1 9//1 22//7
f 23//57 22//63 8//57
f 8//58 22//64 23//58
f 23//57 17//47 28//65
f 28//66 17//48 23//58
f 1//47 26//51 24//51
f 24//52 26//52 1//48
f 17//25 29//25 24//25
f 24//26 29//26 17//26
f 30//67 18//68 25//68
f 25//69 18//69 30//70
f 19//29 31//22 25//29
f 25//30 31//23 19//30
f 31//22 19//29 26//22
f 26//23 19//30 31//23
f 20//11 18//15 32//16
f 32//17 18//18 20//12
f 12//53 20//54 32//53
f 32//56 20//55 12//56
f 22//63 33//59 15//59
f 15//60 33//60 22//64
f 15//59 34//61 27//61
f 27//62 34//62 15//60
f 22//63 23//57 36//71
f 36//72 23//58 22//64
f 28//65 17//47 37//65
f 37//66 17//48 28//66
f 23//57 28//65 38//65
f 38//66 28//66 23//58
f 39//21 26//22 24//21
f 24//24 26//23 39//24
f 17//25 40//25 29//25
f 29//26 40//26 17//26
f 24//25 29//25 39//25
f 39//26 29//26 24//26
f 30//67 32//53 18//68
f 18//69 32//56 30//70
f 30//67 25//68 31//68
f 31//69 25//69 30//70
f 26//22 39//21 31//22
f 31//23 39//24 26//23
f 32//53 30//67 12//53
f 12//56 30//70 32//56
f 33//59 22//63 41//73
f 41//74 22//64 33//60
f 42//61 15//59 33//59
f 33//60 15//60 42//62
f 34//61 15//59 42//61
f 42//62 15//60 34//62
f 27//8 43//44 34//44
f 34//43 43//43 27//7
f 27//8 35//45 44//8
f 44//7 35//46 27//7
f 45//26 23//26 36//26
f 36//25 23//25 45//25
f 22//63 36//71 46//63
f 46//64 36//72 22//64
f 37//65 17//47 47//65
f 47//66 17//48 37//66
f 48//75 37//76 28//75
f 28//77 37//78 48//77
f 49//65 28//65 37//65
f 37//66 28//66 49//66
f 50//65 38//65 28//65
f 28//66 38//66 50//66
f 38//41 48//75 28//75
f 28//77 48//77 38//42
f 23//57 38//65 51//65
f 51//66 38//66 23//58
f 40//25 17//25 47//25
f 47//26 17//26 40//26
f 52//79 29//67 40//80
f 40//81 29//70 52//82
f 30//67 39//68 29//67
f 29//70 39//69 30//70
f 30//67 31//68 39//68
f 39//69 31//69 30//70
f 41//73 22//63 53//73
f 53//74 22//64 41//74
f 33//83 54//42 41//42
f 41//41 54//41 33//84
f 55//27 33//83 42//27
f 42//28 33//84 55//28
f 34//44 55//27 42//27
f 42//28 55//28 34//43
f 43//44 27//8 44//8
f 44//7 27//7 43//43
f 55//27 34//44 43//44
f 43//43 34//43 55//28
f 23//26 45//26 56//26
f 56//25 45//25 23//25
f 45//26 36//26 52//26
f 52//25 36//25 45//25
f 46//85 57//85 36//85
f 36//86 57//86 46//86
f 58//73 22//63 46//63
f 46//64 22//64 58//74
f 59//65 37//65 47//65
f 47//66 37//66 59//66
f 60//76 47//87 37//76
f 37//78 47//88 60//78
f 37//76 48//75 60//76
f 60//78 48//77 37//78
f 50//65 28//65 49//65
f 49//66 28//66 50//66
f 49//65 37//65 59//65
f 59//66 37//66 49//66
f 61//65 38//65 50//65
f 50//66 38//66 61//66
f 48//75 38//41 62//41
f 62//42 38//42 48//77
f 61//65 51//65 38//65
f 38//66 51//66 61//66
f 51//89 62//41 38//41
f 38//42 62//42 51//90
f 23//57 51//65 63//65
f 63//66 51//66 23//58
f 47//91 64//92 40//91
f 40//93 64//94 47//93
f 65//79 29//67 52//79
f 52//82 29//70 65//82
f 52//79 40//80 45//80
f 45//81 40//81 52//82
f 29//67 65//79 30//67
f 30//70 65//82 29//70
f 53//73 22//63 66//73
f 66//74 22//64 53//74
f 54//42 53//34 41//42
f 41//41 53//33 54//41
f 54//42 33//83 67//83
f 67//84 33//84 54//41
f 67//83 33//83 55//27
f 55//28 33//84 67//84
f 68//78 56//88 45//88
f 45//87 56//87 68//76
f 23//57 69//65 56//65
f 56//66 69//66 23//58
f 52//26 36//26 57//26
f 57//25 36//25 52//25
f 57//85 46//85 58//36
f 58//35 46//86 57//86
f 70//73 22//63 58//73
f 58//74 22//64 70//74
f 59//65 47//65 71//65
f 71//66 47//66 59//66
f 47//87 60//76 72//87
f 72//88 60//78 47//88
f 48//9 73//9 60//9
f 60//10 73//10 48//10
f 73//95 50//96 49//95
f 49//97 50//98 73//97
f 49//65 23//57 50//65
f 50//66 23//58 49//66
f 74//19 49//95 59//19
f 59//20 49//97 74//20
f 59//65 23//57 49//65
f 49//66 23//58 59//66
f 50//65 23//57 61//65
f 61//66 23//58 50//66
f 75//96 61//37 50//96
f 50//98 61//38 75//98
f 62//9 75//9 48//9
f 48//10 75//10 62//10
f 51//65 61//65 63//65
f 63//66 61//66 51//66
f 62//41 51//89 76//89
f 76//90 51//90 62//42
f 63//99 76//89 51//89
f 51//90 76//90 63//100
f 61//65 23//57 63//65
f 63//66 23//58 61//66
f 64//92 47//91 77//92
f 77//94 47//93 64//94
f 45//80 40//80 64//80
f 64//81 40//81 45//81
f 52//79 78//101 65//79
f 65//82 78//102 52//82
f 66//73 22//63 70//73
f 70//74 22//64 66//74
f 79//34 66//6 53//34
f 53//33 66//5 79//33
f 53//34 54//42 79//34
f 79//33 54//41 53//33
f 56//88 68//78 80//78
f 80//76 68//76 56//87
f 45//80 81//80 68//80
f 68//81 81//81 45//81
f 69//65 23//57 71//65
f 71//66 23//58 69//66
f 69//65 82//65 56//65
f 56//66 82//66 69//66
f 83//93 69//94 56//93
f 56//91 69//92 83//91
f 78//101 52//79 57//105
f 57//106 52//82 78//102
f 57//85 58//36 84//36
f 84//35 58//35 57//86
f 70//40 84//36 58//36
f 58//35 84//35 70//39
f 71//65 47//65 77//65
f 77//66 47//66 71//66
f 85//107 59//19 71//107
f 71//108 59//20 85//108
f 71//65 23//57 59//65
f 59//66 23//58 71//66
f 60//9 74//9 72//9
f 72//10 74//10 60//10
f 72//91 77//92 47//91
f 47//93 77//94 72//93
f 48//9 75//9 73//9
f 73//10 75//10 48//10
f 60//9 73//9 74//9
f 74//10 73//10 60//10
f 50//96 73//95 75//96
f 75//98 73//97 50//98
f 49//95 74//19 73//95
f 73//97 74//20 49//97
f 59//19 85//107 74//19
f 74//20 85//108 59//20
f 61//37 75//96 86//37
f 86//38 75//98 61//38
f 62//9 86//9 75//9
f 75//10 86//10 62//10
f 61//37 87//99 63//99
f 63//100 87//100 61//38
f 76//9 86//9 62//9
f 62//10 86//10 76//10
f 76//89 63//99 87//99
f 87//100 63//100 76//90
f 77//92 88//108 64//92
f 64//94 88//107 77//94
f 45//80 64//80 88//80
f 88//81 64//81 45//81
f 66//6 89//40 70//40
f 70//39 89//39 66//5
f 66//6 79//34 90//6
f 90//5 79//33 66//5
f 91//77 80//78 68//78
f 68//76 80//76 91//75
f 92//78 56//88 80//78
f 80//76 56//87 92//76
f 56//65 93//65 80//65
f 80//66 93//66 56//66
f 45//80 88//80 81//80
f 81//81 88//81 45//81
f 68//80 81//80 94//80
f 94//81 81//81 68//81
f 71//65 77//65 69//65
f 69//66 77//66 71//66
f 95//94 71//107 69//94
f 69//92 71//108 95//92
f 69//65 77//65 82//65
f 82//66 77//66 69//66
f 56//65 82//65 93//65
f 93//66 82//66 56//66
f 69//94 83//93 95//94
f 95//92 83//91 69//92
f 56//88 92//78 83//88
f 83//87 92//76 56//87
f 78//101 57//105 96//101
f 96//102 57//106 78//102
f 57//85 84//36 96//85
f 96//86 84//35 57//86
f 84//36 70//40 89//40
f 89//39 70//39 84//35
f 71//107 95//94 85//107
f 85//108 95//92 71//108
f 72//9 74//9 85//9
f 85//10 74//10 72//10
f 77//92 72//91 97//92
f 97//94 72//93 77//94
f 87//99 61//37 86//37
f 86//38 61//38 87//100
f 86//9 76//9 87//9
f 87//10 76//10 86//10
f 88//108 77//92 82//108
f 82//107 77//94 88//107
f 89//40 66//6 90//6
f 90//5 66//5 89//39
f 80//78 91//77 98//77
f 98//75 91//75 80//76
f 68//80 94//80 91//80
f 91//81 94//81 68//81
f 80//78 99//77 92//78
f 92//76 99//75 80//76
f 80//65 93//65 100//65
f 100//66 93//66 80//66
f 82//108 81//20 88//108
f 88//107 81//19 82//107
f 93//20 94//97 81//20
f 81//19 94//95 93//19
f 97//92 82//108 77//92
f 77//94 82//107 97//94
f 81//20 82//108 93//20
f 93//19 82//107 81//19
f 101//108 93//20 82//108
f 82//107 93//19 101//107
f 101//9 95//9 83//9
f 83//10 95//10 101//10
f 102//9 83//9 92//9
f 92//10 83//10 102//10
f 84//103 78//101 96//101
f 96//102 78//102 84//104
f 89//103 78//101 84//103
f 84//104 78//102 89//104
f 97//9 85//9 95//9
f 95//10 85//10 97//10
f 72//9 85//9 97//9
f 97//10 85//10 72//10
f 90//103 78//101 89//103
f 89//104 78//102 90//104
f 91//77 103//42 98//77
f 98//75 103//41 91//75
f 99//77 80//78 98//77
f 98//75 80//76 99//75
f 80//65 100//65 98//65
f 98//66 100//66 80//66
f 91//80 94//80 104//80
f 104//81 94//81 91//81
f 105//9 92//9 99//9
f 99//10 92//10 105//10
f 94//97 93//20 100//97
f 100//95 93//19 94//95
f 102//20 100//97 93//20
f 93//19 100//95 102//19
f 82//108 97//92 101//108
f 101//107 97//94 82//107
f 93//20 101//108 102//20
f 102//19 101//107 93//19
f 97//9 95//9 101//9
f 101//10 95//10 97//10
f 101//9 83//9 102//9
f 102//10 83//10 101//10
f 102//9 92//9 105//9
f 105//10 92//10 102//10
f 103//42 91//77 106//42
f 106//41 91//75 103//41
f 103//42 99//77 98//77
f 98//75 99//75 103//41
f 98//65 107//65 103//65
f 103//66 107//66 98//66
f 98//65 100//65 107//65
f 107//66 100//66 98//66
f 100//97 104//98 94//97
f 94//95 104//96 100//95
f 91//80 104//80 106//80
f 106//81 104//81 91//81
f 105//9 99//9 108//9
f 108//10 99//10 105//10
f 100//97 102//20 105//97
f 105//95 102//19 100//95
f 106//42 109//90 103//42
f 103//41 109//89 106//41
f 99//77 103//42 110//42
f 110//41 103//41 99//75
f 103//65 107//65 111//65
f 111//66 107//66 103//66
f 104//98 100//97 107//98
f 107//96 100//95 104//96
f 105//97 107//98 100//97
f 100//95 107//96 105//95
f 106//80 104//80 112//80
f 112//81 104//81 106//81
f 108//9 99//9 110//9
f 110//10 99//10 108//10
f 107//98 105//97 108//98
f 108//96 105//95 107//96
f 109//90 106//42 113//90
f 113//89 106//41 109//89
f 109//90 110//42 103//42
f 103//41 110//41 109//89
f 103//65 111//65 109//65
f 109//66 111//66 103//66
f 112//38 107//98 111//38
f 111//37 107//96 112//37
f 107//98 114//38 111//38
f 111//37 114//37 107//96
f 107//98 112//38 104//98
f 104//96 112//37 107//96
f 106//80 112//80 113//80
f 113//81 112//81 106//81
f 108//9 110//9 114//9
f 114//10 110//10 108//10
f 114//38 107//98 108//98
f 108//96 107//96 114//37
f 113//90 115//100 109//90
f 109//89 115//99 113//89
f 110//42 109//90 116//90
f 116//89 109//89 110//41
f 109//65 111//65 115//65
f 115//66 111//66 109//66
f 111//38 117//100 112//38
f 112//37 117//99 111//37
f 118//100 111//38 114//38
f 114//37 111//37 118//99
f 113//80 112//80 117//80
f 117//81 112//81 113//81
f 114//9 110//9 116//9
f 116//10 110//10 114//10
f 115//100 113//90 117//100
f 117//99 113//89 115//99
f 115//100 116//90 109//90
f 109//89 116//89 115//99
f 117//100 111//38 115//100
f 115//99 111//37 117//99
f 111//38 118//100 115//100
f 115//99 118//99 111//37
f 114//9 116//9 118//9
f 118//10 116//10 114//10
f 116//90 115//100 118//100
f 118//99 115//99 116//89