# SSTK version 0.8.0
# 3
mtllib original-3.mtl
o mesh1/mesh1-geometry#mesh1-geometry
v 0.564267 -0.686052 -0.149606
v 0.574803 -0.677968 -0.083869
v 0.574803 -0.677968 -0.149606
v 0.564267 -0.686052 -0.083869
v 0.582887 -0.667432 -0.149606
v 0.513395 -0.686052 -0.149606
v 0.551998 -0.691134 -0.149606
v 0.513395 -0.686052 -0.083869
v 0.582887 -0.667432 -0.083869
v 0.502859 -0.677968 -0.149606
v 0.525664 -0.691134 -0.149606
v 0.551998 -0.691134 -0.083869
v 0.525664 -0.691134 -0.083869
v 0.502859 -0.677968 -0.083869
v 0.587970 -0.655162 -0.149606
v 0.494775 -0.667432 -0.149606
v 0.538831 -0.692868 -0.149606
v 0.494775 -0.667432 -0.083869
v 0.587970 -0.655162 -0.083869
v 0.538831 -0.692868 -0.083869
v 0.589703 -0.641996 -0.149606
v 0.489693 -0.655162 -0.149606
v 0.489693 -0.655162 -0.083869
v 0.589703 -0.641996 -0.083869
v 0.587970 -0.628829 -0.149606
v 0.487959 -0.641996 -0.149606
v 0.487959 -0.641996 -0.083869
v 0.587970 -0.628829 -0.083869
v 0.489693 -0.628829 -0.149606
v 0.489693 -0.628829 -0.083869
v 0.582887 -0.616560 -0.149606
v 0.494775 -0.616560 -0.149606
v 0.494775 -0.616560 -0.083869
v 0.582887 -0.616560 -0.083869
v 0.574803 -0.606024 -0.083869
v 0.574803 -0.606024 -0.149606
v 0.502859 -0.606024 -0.083869
v 0.502859 -0.606024 -0.149606
v 0.564267 -0.597939 -0.083869
v 0.513395 -0.597939 -0.083869
v 0.564267 -0.597939 -0.149606
v 0.513395 -0.597939 -0.149606
v 0.551998 -0.592857 -0.083869
v 0.525664 -0.592857 -0.149606
v 0.551998 -0.592857 -0.149606
v 0.525664 -0.592857 -0.083869
v 0.538831 -0.591124 -0.083869
v 0.538831 -0.591124 -0.149606
vn -0.5000001748438417 0.8660253028382762 0
vn -0.7071067811865476 0.7071067811865476 0
vn -0.8660253028382762 0.5000001748438417 0
vn 0 0 1
vn -0.2588189595935754 0.965925849201117 0
vn 0 0 -1
vn -0.965925849201117 0.2588189595935754 0
vn 0.5000001748438417 0.8660253028382762 0
vn 0.2588189595935754 0.965925849201117 0
vn 0.7071067811865476 0.7071067811865476 0
vn 0 1 0
vn 0.8660253028382762 0.5000001748438417 0
vn -1 0 0
vn 0.965925849201117 0.2588189595935754 0
vn -0.965925849201117 -0.2588189595935754 0
vn 1 0 0
vn -0.8660253028382762 -0.5000001748438417 0
vn 0.965925849201117 -0.2588189595935754 0
vn 0.8660253028382762 -0.5000001748438417 0
vn -0.7071067811865476 -0.7071067811865476 0
vn 0.7071067811865476 -0.7071067811865476 0
vn -0.5000001748438417 -0.8660253028382762 0
vn 0.5000001748438417 -0.8660253028382762 0
vn -0.2588189595935754 -0.965925849201117 0
vn 0.2588189595935754 -0.965925849201117 0
vn 0 -1 0
usemtl material_0_0
f 1//1 2//2 3//2
f 2//2 1//1 4//1
f 2//2 5//3 3//2
f 6//4 1//4 3//4
f 7//5 4//1 1//1
f 4//6 8//6 2//6
f 5//3 2//2 9//3
f 10//4 3//4 5//4
f 11//4 1//4 6//4
f 6//4 3//4 10//4
f 4//1 7//5 12//5
f 11//4 7//4 1//4
f 4//6 13//6 8//6
f 2//6 8//6 14//6
f 2//6 14//6 9//6
f 9//3 15//7 5//3
f 10//4 5//4 16//4
f 6//8 13//9 11//9
f 10//10 8//8 6//8
f 17//11 12//5 7//5
f 12//6 13//6 4//6
f 7//4 11//4 17//4
f 13//9 6//8 8//8
f 8//8 10//10 14//10
f 9//6 14//6 18//6
f 15//7 9//3 19//7
f 16//4 5//4 15//4
f 18//12 10//10 16//12
f 20//11 11//9 13//9
f 12//5 17//11 20//11
f 13//6 12//6 20//6
f 11//9 20//11 17//11
f 10//10 18//12 14//10
f 9//6 18//6 19//6
f 19//7 21//13 15//7
f 16//4 15//4 22//4
f 22//14 18//12 16//12
f 19//6 18//6 23//6
f 21//13 19//7 24//13
f 22//4 15//4 21//4
f 18//12 22//14 23//14
f 19//6 23//6 24//6
f 24//13 25//15 21//13
f 22//4 21//4 26//4
f 22//14 27//16 23//14
f 24//6 23//6 27//6
f 25//15 24//13 28//15
f 29//4 21//4 25//4
f 26//4 21//4 29//4
f 27//16 22//14 26//16
f 24//6 27//6 30//6
f 24//6 30//6 28//6
f 28//15 31//17 25//15
f 29//4 25//4 32//4
f 30//18 26//16 29//18
f 26//16 30//18 27//16
f 28//6 30//6 33//6
f 31//17 28//15 34//17
f 32//4 25//4 31//4
f 33//19 29//18 32//19
f 29//18 33//19 30//18
f 28//6 33//6 34//6
f 35//20 31//17 34//17
f 32//4 31//4 36//4
f 32//19 37//21 33//19
f 34//6 33//6 37//6
f 31//17 35//20 36//20
f 34//6 37//6 35//6
f 32//4 36//4 38//4
f 37//21 32//19 38//21
f 39//22 36//20 35//20
f 35//6 37//6 40//6
f 38//4 36//4 41//4
f 42//23 37//21 38//21
f 36//20 39//22 41//22
f 35//6 40//6 39//6
f 37//21 42//23 40//23
f 38//4 41//4 42//4
f 43//24 41//22 39//22
f 39//6 40//6 43//6
f 44//25 40//23 42//23
f 42//4 41//4 45//4
f 41//22 43//24 45//24
f 43//6 40//6 46//6
f 40//23 44//25 46//25
f 42//4 45//4 44//4
f 47//26 45//24 43//24
f 43//6 46//6 47//6
f 48//26 46//25 44//25
f 44//4 45//4 48//4
f 45//24 47//26 48//26
f 46//25 48//26 47//26
usemtl material_1_0
f 3//21 2//21 1//23
f 4//23 1//23 2//21
f 3//21 5//19 2//21
f 3//6 1//6 6//6
f 1//23 4//23 7//25
f 2//4 8//4 4//4
f 9//19 2//21 5//19
f 5//6 3//6 10//6
f 6//6 1//6 11//6
f 10//6 3//6 6//6
f 12//25 7//25 4//23
f 1//6 7//6 11//6
f 8//4 13//4 4//4
f 14//4 8//4 2//4
f 9//4 14//4 2//4
f 5//19 15//18 9//19
f 16//6 5//6 10//6
f 11//24 13//24 6//22
f 6//22 8//22 10//20
f 7//25 12//25 17//26
f 4//4 13//4 12//4
f 17//6 11//6 7//6
f 8//22 6//22 13//24
f 14//20 10//20 8//22
f 18//4 14//4 9//4
f 19//18 9//19 15//18
f 15//6 5//6 16//6
f 16//17 10//20 18//17
f 13//24 11//24 20//26
f 20//26 17//26 12//25
f 20//4 12//4 13//4
f 17//26 20//26 11//24
f 14//20 18//17 10//20
f 19//4 18//4 9//4
f 15//18 21//16 19//18
f 22//6 15//6 16//6
f 16//17 18//17 22//15
f 23//4 18//4 19//4
f 24//16 19//18 21//16
f 21//6 15//6 22//6
f 23//15 22//15 18//17
f 24//4 23//4 19//4
f 21//16 25//14 24//16
f 26//6 21//6 22//6
f 23//15 27//13 22//15
f 27//4 23//4 24//4
f 28//14 24//16 25//14
f 25//6 21//6 29//6
f 29//6 21//6 26//6
f 26//13 22//15 27//13
f 30//4 27//4 24//4
f 28//4 30//4 24//4
f 25//14 31//12 28//14
f 32//6 25//6 29//6
f 29//7 26//13 30//7
f 27//13 30//7 26//13
f 33//4 30//4 28//4
f 34//12 28//14 31//12
f 31//6 25//6 32//6
f 32//3 29//7 33//3
f 30//7 33//3 29//7
f 34//4 33//4 28//4
f 34//12 31//12 35//10
f 36//6 31//6 32//6
f 33//3 37//2 32//3
f 37//4 33//4 34//4
f 36//10 35//10 31//12
f 35//4 37//4 34//4
f 38//6 36//6 32//6
f 38//2 32//3 37//2
f 35//10 36//10 39//8
f 40//4 37//4 35//4
f 41//6 36//6 38//6
f 38//2 37//2 42//1
f 41//8 39//8 36//10
f 39//4 40//4 35//4
f 40//1 42//1 37//2
f 42//6 41//6 38//6
f 39//8 41//8 43//9
f 43//4 40//4 39//4
f 42//1 40//1 44//5
f 45//6 41//6 42//6
f 45//9 43//9 41//8
f 46//4 40//4 43//4
f 46//5 44//5 40//1
f 44//6 45//6 42//6
f 43//9 45//9 47//11
f 47//4 46//4 43//4
f 44//5 46//5 48//11
f 48//6 45//6 44//6
f 48//11 47//11 45//9
f 47//11 48//11 46//5
