# SSTK version 0.8.0
# 29
mtllib original-29.mtl
o Group15/mesh41/mesh41-geometry#mesh41-geometry
v 0.467038 -0.140218 -0.018518
v 0.470659 -0.140722 -0.086802
v 0.470659 -0.140722 -0.018644
v 0.467038 -0.140218 -0.086676
v 0.474312 -0.140570 -0.086764
v 0.474312 -0.140570 -0.018606
v 0.463566 -0.139075 -0.018233
v 0.477878 -0.139767 -0.018405
v 0.463566 -0.139075 -0.086391
v 0.477878 -0.139767 -0.086563
v 0.460354 -0.137328 -0.017797
v 0.481243 -0.138338 -0.018049
v 0.481243 -0.138338 -0.086207
v 0.460354 -0.137328 -0.085955
v 0.410595 -0.104156 -0.009527
v 0.484298 -0.136331 -0.017549
v 0.484298 -0.136331 -0.085707
v 0.410595 -0.104156 -0.077685
v 0.329200 -0.104156 -0.009527
v 0.486945 -0.133809 -0.016920
v 0.486945 -0.133809 -0.085078
v 0.329200 -0.104156 -0.077685
v 0.410595 -0.073633 -0.001916
v 0.489098 -0.130854 -0.016183
v 0.329200 -0.073633 -0.070074
v 0.462151 -0.108003 -0.010486
v 0.329200 -0.073633 -0.001916
v 0.489098 -0.130854 -0.084341
v 0.490687 -0.127562 -0.015362
v 0.410595 -0.073633 -0.070074
v 0.463114 -0.108527 -0.010616
v 0.490687 -0.127562 -0.083520
v 0.491662 -0.124038 -0.014484
v 0.462151 -0.108003 -0.078644
v 0.464156 -0.108870 -0.010702
v 0.491662 -0.124038 -0.082642
v 0.491990 -0.120397 -0.013576
v 0.463114 -0.108527 -0.078774
v 0.465242 -0.109021 -0.010740
v 0.491990 -0.120397 -0.081734
v 0.464156 -0.108870 -0.078860
v 0.465242 -0.109021 -0.078898
v 0.491990 -0.002412 -0.052317
v 0.466338 -0.108975 -0.010728
v 0.466338 -0.108975 -0.078886
v 0.491990 -0.002412 0.015841
v 0.471543 -0.104016 -0.077650
v 0.467408 -0.108734 -0.010668
v 0.467408 -0.108734 -0.078826
v 0.471641 -0.002412 -0.052317
v 0.471543 -0.104016 -0.009492
v 0.471251 -0.105073 -0.077913
v 0.471641 -0.102924 -0.077377
v 0.468417 -0.108306 -0.010561
v 0.468417 -0.108306 -0.078719
v 0.471641 -0.002412 0.015841
v 0.471251 -0.105073 -0.009755
v 0.471641 -0.102924 -0.009219
v 0.470774 -0.106061 -0.078160
v 0.469334 -0.107704 -0.010411
v 0.469334 -0.107704 -0.078569
v 0.470774 -0.106061 -0.010001
v 0.470128 -0.106947 -0.078381
v 0.470128 -0.106947 -0.010223
vn -0.2262269139032562 -0.9740746292896705 0
vn -0.04828398299892288 -0.9988336483047414 0
vn 0.1312179398470858 -0.9913535455438118 0
vn 0 -0.24192192963701717 0.9702957177895314
vn -0.396869095489494 -0.91787522084723 0
vn 0 0.24192192963701717 -0.9702957177895314
vn 0.30648394458280404 -0.9518758278856357 0
vn -0.47771571769851834 -0.8785144808503669 0
vn 0.47185781649712605 -0.8816746571216416 0
vn -0.5547001962252291 -0.8320502943378437 0
vn 0.6220018307346649 -0.7830157869179429 0
vn 0 -1 0
vn 0.7520696224776897 -0.6590836691545809 0
vn -1 0 0
vn 0.8578632034624426 -0.5138781218782871 0
vn 0.5547001962252291 0.8320502943378437 0
vn 0 1 0
vn 0.9359672430435817 -0.35208709142681904 0
vn 0.396869095489494 0.91787522084723 0
vn 0.47771571769851834 0.8785144808503669 0
vn 0.9838616370510495 -0.17893093399194332 0
vn 0.2262269139032562 0.9740746292896705 0
vn 0.9959572016365358 -0.08982901818633574 0
vn 0.04828398299892288 0.9988336483047414 0
vn 1 0 0
vn -0.1312179398470858 0.9913535455438118 0
vn -0.30648394458280404 0.9518758278856357 0
vn -0.9359672430435817 0.35208709142681904 0
vn -0.9838616370510495 0.17893093399194332 0
vn -0.9959572016365358 0.08982901818633574 0
vn -0.47185781649712605 0.8816746571216416 0
vn -0.8578632034624426 0.5138781218782871 0
vn -0.6220018307346649 0.7830157869179429 0
vn -0.7520696224776897 0.6590836691545809 0
usemtl material_0_0
f 1//1 2//2 3//2
f 2//2 1//1 4//1
f 5//3 3//2 2//2
f 6//4 1//4 3//4
f 7//5 4//1 1//1
f 4//6 5//6 2//6
f 3//2 5//3 6//3
f 1//4 6//4 8//4
f 4//1 7//5 9//5
f 1//4 8//4 7//4
f 5//6 4//6 10//6
f 10//7 6//3 5//3
f 6//3 10//7 8//7
f 11//8 9//5 7//5
f 10//6 4//6 9//6
f 7//4 8//4 12//4
f 13//9 8//7 10//7
f 9//5 11//8 14//8
f 7//4 12//4 11//4
f 10//6 9//6 13//6
f 8//7 13//9 12//9
f 15//10 14//10 11//10
f 13//6 9//6 14//6
f 11//4 12//4 16//4
f 17//11 12//9 13//9
f 14//10 15//10 18//10
f 11//4 16//4 15//4
f 13//6 14//6 17//6
f 12//9 17//11 16//11
f 19//12 18//12 15//12
f 17//6 14//6 18//6
f 15//4 16//4 20//4
f 21//13 16//11 17//11
f 18//12 19//12 22//12
f 15//4 23//4 19//4
f 17//6 18//6 21//6
f 16//11 21//13 20//13
f 15//4 20//4 24//4
f 19//14 25//14 22//14
f 25//6 18//6 22//6
f 15//4 26//4 23//4
f 19//4 23//4 27//4
f 21//6 18//6 28//6
f 28//15 20//13 21//13
f 20//13 28//15 24//15
f 15//4 24//4 29//4
f 25//14 19//14 27//14
f 18//6 25//6 30//6
f 15//4 31//4 26//4
f 26//16 30//16 23//16
f 23//17 25//17 27//17
f 28//6 18//6 32//6
f 32//18 24//15 28//15
f 24//15 32//18 29//18
f 15//4 29//4 33//4
f 25//17 23//17 30//17
f 34//6 18//6 30//6
f 15//4 35//4 31//4
f 31//19 34//20 26//20
f 30//16 26//16 34//16
f 32//6 18//6 36//6
f 36//21 29//18 32//18
f 29//18 36//21 33//21
f 15//4 33//4 37//4
f 38//6 18//6 34//6
f 15//4 39//4 35//4
f 35//22 38//19 31//19
f 34//20 31//19 38//19
f 36//6 18//6 40//6
f 40//23 33//21 36//21
f 33//21 40//23 37//23
f 15//4 37//4 39//4
f 41//6 18//6 38//6
f 42//24 35//22 39//24
f 38//19 35//22 41//22
f 40//6 18//6 42//6
f 43//25 37//25 40//25
f 37//4 44//4 39//4
f 42//6 18//6 41//6
f 35//22 42//24 41//22
f 39//24 45//26 42//24
f 45//6 40//6 42//6
f 37//25 43//25 46//25
f 40//6 47//6 43//6
f 44//4 37//4 48//4
f 45//26 39//24 44//26
f 49//6 40//6 45//6
f 50//17 46//17 43//17
f 51//4 37//4 46//4
f 47//6 40//6 52//6
f 43//6 47//6 53//6
f 48//4 37//4 54//4
f 48//27 45//26 44//26
f 55//6 40//6 49//6
f 45//26 48//27 49//27
f 46//17 50//17 56//17
f 43//6 53//6 50//6
f 57//4 37//4 51//4
f 51//4 46//4 58//4
f 52//6 40//6 59//6
f 57//28 47//29 52//28
f 51//29 53//30 47//29
f 54//4 37//4 60//4
f 55//31 48//27 54//31
f 61//6 40//6 55//6
f 48//27 55//31 49//27
f 50//14 58//14 56//14
f 58//4 46//4 56//4
f 58//14 50//14 53//14
f 62//4 37//4 57//4
f 47//29 57//28 51//29
f 53//30 51//29 58//30
f 59//6 40//6 63//6
f 62//32 52//28 59//32
f 52//28 62//32 57//28
f 60//4 37//4 64//4
f 60//33 55//31 54//31
f 63//6 40//6 61//6
f 55//31 60//33 61//33
f 64//4 37//4 62//4
f 64//34 59//32 63//34
f 59//32 64//34 62//32
f 64//34 61//33 60//33
f 61//33 64//34 63//34
usemtl material_1_0
f 3//24 2//24 1//22
f 4//22 1//22 2//24
f 2//24 3//24 5//26
f 3//6 1//6 6//6
f 1//22 4//22 7//19
f 2//4 5//4 4//4
f 6//26 5//26 3//24
f 8//6 6//6 1//6
f 9//19 7//19 4//22
f 7//6 8//6 1//6
f 10//4 4//4 5//4
f 5//26 6//26 10//27
f 8//27 10//27 6//26
f 7//19 9//19 11//20
f 9//4 4//4 10//4
f 12//6 8//6 7//6
f 10//27 8//27 13//31
f 14//20 11//20 9//19
f 11//6 12//6 7//6
f 13//4 9//4 10//4
f 12//31 13//31 8//27
f 11//16 14//16 15//16
f 14//4 9//4 13//4
f 16//6 12//6 11//6
f 13//31 12//31 17//33
f 18//16 15//16 14//16
f 15//6 16//6 11//6
f 17//4 14//4 13//4
f 16//33 17//33 12//31
f 15//17 18//17 19//17
f 18//4 14//4 17//4
f 20//6 16//6 15//6
f 17//33 16//33 21//34
f 22//17 19//17 18//17
f 19//6 23//6 15//6
f 21//4 18//4 17//4
f 20//34 21//34 16//33
f 24//6 20//6 15//6
f 22//25 25//25 19//25
f 22//4 18//4 25//4
f 23//6 26//6 15//6
f 27//6 23//6 19//6
f 28//4 18//4 21//4
f 21//34 20//34 28//32
f 24//32 28//32 20//34
f 29//6 24//6 15//6
f 27//25 19//25 25//25
f 30//4 25//4 18//4
f 26//6 31//6 15//6
f 23//10 30//10 26//10
f 27//12 25//12 23//12
f 32//4 18//4 28//4
f 28//32 24//32 32//28
f 29//28 32//28 24//32
f 33//6 29//6 15//6
f 30//12 23//12 25//12
f 30//4 18//4 34//4
f 31//6 35//6 15//6
f 26//8 34//8 31//5
f 34//10 26//10 30//10
f 36//4 18//4 32//4
f 32//28 29//28 36//29
f 33//29 36//29 29//28
f 37//6 33//6 15//6
f 34//4 18//4 38//4
f 35//6 39//6 15//6
f 31//5 38//5 35//1
f 38//5 31//5 34//8
f 40//4 18//4 36//4
f 36//29 33//29 40//30
f 37//30 40//30 33//29
f 39//6 37//6 15//6
f 38//4 18//4 41//4
f 39//2 35//1 42//2
f 41//1 35//1 38//5
f 42//4 18//4 40//4
f 40//14 37//14 43//14
f 39//6 44//6 37//6
f 41//4 18//4 42//4
f 41//1 42//2 35//1
f 42//2 45//3 39//2
f 42//4 40//4 45//4
f 46//14 43//14 37//14
f 43//4 47//4 40//4
f 48//6 37//6 44//6
f 44//3 39//2 45//3
f 45//4 40//4 49//4
f 43//12 46//12 50//12
f 46//6 37//6 51//6
f 52//4 40//4 47//4
f 53//4 47//4 43//4
f 54//6 37//6 48//6
f 44//3 45//3 48//7
f 49//4 40//4 55//4
f 49//7 48//7 45//3
f 56//12 50//12 46//12
f 50//4 53//4 43//4
f 51//6 37//6 57//6
f 58//6 46//6 51//6
f 59//4 40//4 52//4
f 52//18 47//21 57//18
f 47//21 53//23 51//21
f 60//6 37//6 54//6
f 54//9 48//7 55//9
f 55//4 40//4 61//4
f 49//7 55//9 48//7
f 56//25 58//25 50//25
f 56//6 46//6 58//6
f 53//25 50//25 58//25
f 57//6 37//6 62//6
f 51//21 57//18 47//21
f 58//23 51//21 53//23
f 63//4 40//4 59//4
f 59//15 52//18 62//15
f 57//18 62//15 52//18
f 64//6 37//6 60//6
f 54//9 55//9 60//11
f 61//4 40//4 63//4
f 61//11 60//11 55//9
f 62//6 37//6 64//6
f 63//13 59//15 64//13
f 62//15 64//13 59//15
f 60//11 61//11 64//13
f 63//13 64//13 61//11
