# SSTK version 0.8.0
# 27
mtllib original-27.mtl
o mesh40/mesh40-geometry#mesh40-geometry
v 0.346629 -0.023256 0.349345
v 0.385055 -0.065775 0.318983
v 0.346634 -0.065779 0.318983
v 0.385050 -0.023252 0.349345
v 0.385054 -0.065775 -0.116415
v 0.385050 -0.020963 0.310144
v 0.385050 -0.020021 0.290577
v 0.346633 -0.065779 -0.116415
v 0.385050 -0.025948 -0.062646
v 0.346629 -0.020967 0.310145
v 0.385049 -0.017993 0.231717
v 0.346629 -0.031153 -0.121273
v 0.385050 -0.031149 -0.121273
v 0.385049 -0.021946 -0.003888
v 0.385050 -0.019209 0.270916
v 0.385049 -0.017992 0.231668
v 0.385049 -0.021944 -0.003838
v 0.346629 -0.019214 0.270916
v 0.385049 -0.017170 0.172804
v 0.385050 -0.027546 -0.082171
v 0.346629 -0.024482 -0.043024
v 0.385049 -0.019148 0.054965
v 0.385049 -0.017555 0.113874
v 0.346629 -0.017996 0.231668
v 0.346629 -0.027550 -0.082171
v 0.385050 -0.024477 -0.043024
v 0.346629 -0.021948 -0.003838
v 0.385049 -0.017310 0.192407
v 0.385049 -0.019945 0.035378
v 0.346628 -0.017314 0.192407
v 0.346628 -0.019949 0.035378
v 0.385049 -0.017164 0.153140
v 0.385049 -0.018482 0.074618
v 0.346628 -0.017169 0.153140
v 0.346628 -0.018486 0.074618
v 0.346628 -0.017560 0.113874
vn -0.00006599999326648302 0.5810989407145459 -0.8138329169703283
vn 0.00006599999326648302 -0.5810989407145459 0.8138329169703283
vn -0.00011099999931618452 0.9999999938395001 0
vn 0.00011099999931618452 -0.9999999938395001 0
vn 0.00011100004369256729 -0.9982993929571733 -0.058295022946470584
vn -0.00011100004369256729 0.9982993929571733 0.058295022946470584
vn 0.9999999938375002 0.00011099999931596251 -0.0000019999999876749755
vn -0.9999999938375002 -0.00011099999931596251 0.0000019999999876749755
vn -0.000013999999184374072 0.1389389919055533 0.9903009423060591
vn 0.000013999999184374072 -0.1389389919055533 -0.9903009423060591
vn 0.00011100003633647836 -0.9990023270289597 -0.04465801461904933
vn -0.00011100003633647836 0.9990023270289597 0.04465801461904933
vn 0.000111000000675657 -0.9995190060840722 -0.031012000188770268
vn -0.000111000000675657 0.9995190060840722 0.031012000188770268
vn 0.00011100004665715892 -0.9957814185613727 0.09175703856865682
vn -0.00011100004665715892 0.9957814185613727 -0.09175703856865682
vn 0.00011099998072940601 -0.9979158267528462 0.06452898879718753
vn -0.00011099998072940601 0.9979158267528462 -0.06452898879718753
vn 0.00011100003303794375 -0.9998492975941894 -0.01736000516701557
vn -0.00011100003303794375 0.9998492975941894 0.01736000516701557
vn 0.00011099995636675822 -0.9969416081098078 0.07814996927983901
vn -0.00011099995636675822 0.9969416081098078 -0.07814996927983901
vn 0.00011099999474120889 -0.9987039526849034 0.05089599758872561
vn -0.00011099999474120889 0.9987039526849034 -0.05089599758872561
vn 0.00011100001446358032 -0.9999931303016133 -0.0037050004827710787
vn -0.00011100001446358032 0.9999931303016133 0.0037050004827710787
vn 0.00011099998032675372 -0.9993058228865491 0.03725399339723296
vn -0.00011099998032675372 0.9993058228865491 -0.03725399339723296
vn 0.0001110000534342176 -0.9999504813652783 0.009951004790305177
vn -0.0001110000534342176 0.9999504813652783 -0.009951004790305177
vn 0.00011100004223674511 -0.9997213804050545 0.023604008981586547
vn -0.00011100004223674511 0.9997213804050545 -0.023604008981586547
usemtl material_0_0
f 1//1 2//1 3//1
f 2//1 1//1 4//1
f 3//2 2//2 1//2
f 4//2 1//2 2//2
f 5//3 3//3 2//3
f 2//4 3//4 5//4
f 1//5 6//5 4//5
f 4//6 6//6 1//6
f 2//7 7//7 4//7
f 4//8 7//8 2//8
f 3//3 5//3 8//3
f 8//4 5//4 3//4
f 5//7 9//7 2//7
f 2//8 9//8 5//8
f 6//5 1//5 10//5
f 10//6 1//6 6//6
f 2//7 11//7 7//7
f 7//8 11//8 2//8
f 5//9 12//9 8//9
f 8//10 12//10 5//10
f 9//7 5//7 13//7
f 13//8 5//8 9//8
f 2//7 9//7 14//7
f 14//8 9//8 2//8
f 10//11 15//11 6//11
f 6//12 15//12 10//12
f 2//7 16//7 11//7
f 11//8 16//8 2//8
f 12//9 5//9 13//9
f 13//10 5//10 12//10
f 2//7 14//7 17//7
f 17//8 14//8 2//8
f 15//11 10//11 18//11
f 18//12 10//12 15//12
f 2//7 19//7 16//7
f 16//8 19//8 2//8
f 11//13 18//13 16//13
f 16//14 18//14 11//14
f 20//15 12//15 13//15
f 13//16 12//16 20//16
f 21//17 14//17 17//17
f 17//18 14//18 21//18
f 2//7 17//7 22//7
f 22//8 17//8 2//8
f 18//13 11//13 15//13
f 15//14 11//14 18//14
f 2//7 23//7 19//7
f 19//8 23//8 2//8
f 16//13 18//13 24//13
f 24//14 18//14 16//14
f 12//15 20//15 25//15
f 25//16 20//16 12//16
f 14//17 21//17 26//17
f 26//18 21//18 14//18
f 21//17 17//17 27//17
f 27//18 17//18 21//18
f 2//7 22//7 23//7
f 23//8 22//8 2//8
f 24//19 28//19 16//19
f 16//20 28//20 24//20
f 26//21 25//21 20//21
f 20//22 25//22 26//22
f 25//21 26//21 21//21
f 21//22 26//22 25//22
f 29//23 27//23 17//23
f 17//24 27//24 29//24
f 28//19 24//19 30//19
f 30//20 24//20 28//20
f 27//23 29//23 31//23
f 31//24 29//24 27//24
f 30//25 32//25 28//25
f 28//26 32//26 30//26
f 33//27 31//27 29//27
f 29//28 31//28 33//28
f 32//25 30//25 34//25
f 34//26 30//26 32//26
f 31//27 33//27 35//27
f 35//28 33//28 31//28
f 34//29 23//29 32//29
f 32//30 23//30 34//30
f 23//31 35//31 33//31
f 33//32 35//32 23//32
f 23//29 34//29 36//29
f 36//30 34//30 23//30
f 35//31 23//31 36//31
f 36//32 23//32 35//32
