mtllib new-2.mtl
v 0.069264 -0.605362 0.075386
v -0.008143 -0.605362 -0.463674
v -0.010575 -0.605362 0.235483
v -0.018520 -0.605362 -0.459376
v -0.027430 -0.605362 -0.452539
v -0.034267 -0.605362 -0.443629
v -0.038565 -0.605362 -0.433252
v -0.040031 -0.605362 -0.422117
v -0.040031 -0.605362 0.059135
v 0.002992 -0.605362 -0.465140
v 0.014127 -0.605362 -0.463674
v 0.024504 -0.605362 -0.459376
v 0.033414 -0.605362 -0.452539
v 0.040251 -0.605362 -0.443629
v 0.044549 -0.605362 -0.433252
v 0.046015 -0.605362 -0.422117
v 0.069264 -0.553734 0.075386
v 0.046015 -0.553734 -0.422117
v 0.049055 -0.536525 0.099332
v 0.044549 -0.553734 -0.433252
v 0.040251 -0.553734 -0.443629
v 0.033414 -0.553734 -0.452539
v 0.024504 -0.553734 -0.459376
v 0.024775 -0.536525 -0.420226
v 0.023793 -0.536525 -0.427691
v 0.021641 -0.536525 -0.432884
v 0.018219 -0.536525 -0.437344
v 0.014127 -0.553734 -0.463674
v 0.013759 -0.536525 -0.440766
v 0.008566 -0.536525 -0.442918
v 0.002992 -0.553734 -0.465140
v 0.002992 -0.536525 -0.443651
v -0.002581 -0.536525 -0.442918
v -0.007775 -0.536525 -0.440766
v -0.008143 -0.553734 -0.463674
v -0.012235 -0.536525 -0.437344
v -0.015657 -0.536525 -0.432884
v -0.017809 -0.536525 -0.427691
v -0.018520 -0.553734 -0.459376
v -0.018726 -0.536525 -0.420721
v -0.027430 -0.553734 -0.452539
v -0.018726 -0.536525 0.088417
v -0.034267 -0.553734 -0.443629
v -0.038565 -0.553734 -0.433252
v -0.040031 -0.553734 -0.422117
v -0.040031 -0.553734 0.059135
v -0.001597 -0.536525 0.197980
vn 0.000000 1.000000 0.000000
vn 0.000000 -1.000000 0.000000
vn 0.998910 0.000000 -0.046679
vn -0.998910 0.000000 0.046679
vn 0.627683 0.777916 -0.029332
vn 0.450631 0.892134 -0.032069
vn 0.258852 0.965352 -0.033020
vn 0.965926 0.000000 -0.258819
vn 0.991445 0.000000 -0.130526
vn -0.991445 0.000000 0.130526
vn -0.965926 0.000000 0.258819
vn 0.866025 0.000000 -0.500000
vn -0.866025 0.000000 0.500000
vn 0.707107 0.000000 -0.707107
vn -0.707107 0.000000 0.707107
vn 0.500000 0.000000 -0.866025
vn -0.500000 0.000000 0.866025
vn 0.624877 0.745999 -0.230248
vn 0.595767 0.704262 -0.386105
vn 0.771396 0.603558 -0.201657
vn -0.771396 -0.603558 0.201657
vn -0.595767 -0.704262 0.386105
vn -0.624877 -0.745999 0.230248
vn 0.868262 0.443867 -0.221591
vn 0.647474 0.669145 -0.364722
vn 0.400503 0.760922 -0.510485
vn 0.244190 0.777008 -0.580198
vn 0.258819 0.000000 -0.965926
vn -0.258819 0.000000 0.965926
vn -0.400503 -0.760922 0.510485
vn -0.244190 -0.777008 0.580198
vn 0.329586 0.757387 -0.563682
vn -0.329586 -0.757387 0.563682
vn 0.161787 0.780546 -0.603798
vn -0.085704 0.777008 -0.623629
vn 0.000000 0.780546 -0.625098
vn 0.000000 -0.780546 0.625098
vn 0.085704 -0.777008 0.623629
vn -0.161787 -0.780546 0.603798
vn -0.172464 0.757387 -0.629778
vn -0.254733 0.760922 -0.596748
vn -0.476448 0.701534 -0.529951
vn 0.000000 0.000000 -1.000000
vn -0.258819 0.000000 -0.965926
vn 0.258819 0.000000 0.965926
vn 0.000000 0.000000 1.000000
vn 0.254733 -0.760922 0.596748
vn 0.476448 -0.701534 0.529951
vn -0.531015 0.669145 -0.519873
vn 0.531015 -0.669145 0.519873
vn -0.781325 0.443867 -0.438764
vn -0.767354 0.529686 -0.361386
vn -0.543557 0.754176 -0.368462
vn -0.500000 0.000000 -0.866025
vn 0.500000 0.000000 0.866025
vn 0.767354 -0.529686 0.361386
vn 0.543557 -0.754176 0.368462
vn -0.707236 0.644452 -0.290687
vn -0.298842 0.871215 -0.389458
vn -0.707107 0.000000 -0.707107
vn 0.707107 0.000000 0.707107
vn 0.707236 -0.644452 0.290687
vn 0.298842 -0.871215 0.389458
vn -0.540983 0.840840 -0.018045
vn -0.329408 0.943888 -0.023776
vn -0.892361 0.451323 0.000000
vn -0.056644 0.997925 -0.030624
vn 0.056644 -0.997925 0.030624
vn 0.540983 -0.840840 0.018045
vn 0.329408 -0.943888 0.023776
vn -0.866025 0.000000 -0.500000
vn 0.866025 0.000000 0.500000
vn -0.965926 0.000000 -0.258819
vn 0.965926 0.000000 0.258819
vn -0.991445 0.000000 -0.130526
vn 0.991445 0.000000 0.130526
vn -1.000000 0.000000 0.000000
vn 1.000000 0.000000 0.000000
vn 0.860677 0.507560 -0.040220
vn -0.860677 -0.507560 0.040220
vn 0.060751 0.997620 -0.032605
vn 0.042138 0.998588 -0.032334
vn -0.042138 -0.998588 0.032334
vn -0.060751 -0.997620 0.032605
vn -0.258852 -0.965352 0.033020
vn 0.167110 0.985377 -0.033254
vn -0.167110 -0.985377 0.033254
vn -0.450631 -0.892134 0.032069
vn -0.627683 -0.777916 0.029332
vn -0.868262 -0.443867 0.221591
vn -0.647474 -0.669145 0.364722
vn 0.172464 -0.757387 0.629778
vn 0.781325 -0.443867 0.438764
vn 0.892361 -0.451323 0.000000
vn -0.628368 0.777916 0.000000
vn 0.628368 -0.777916 0.000000
vn -0.131985 0.990865 -0.027668
vn -0.190782 0.981311 -0.025117
vn 0.190782 -0.981311 0.025117
vn 0.131985 -0.990865 0.027668
vt 18.161139 18.449539
vt 15.912154 34.111404
vt 15.841501 13.798085
vt 15.610678 33.986526
vt 15.351795 33.787880
vt 15.153146 33.528996
vt 15.028271 33.227520
vt 14.985678 32.903996
vt 14.985678 18.921679
vt 16.235678 34.153996
vt 16.559202 34.111404
vt 16.860678 33.986526
vt 17.119562 33.787880
vt 17.318211 33.528996
vt 17.443085 33.227520
vt 17.485678 32.903996
vt 32.051907 0.000000
vt 17.581678 1.500000
vt 17.581678 0.000000
vt 32.051907 1.500000
vt 17.573978 17.753799
vt 17.581678 -13.839848
vt 32.051907 -13.839848
vt 16.914104 -13.044136
vt 30.666473 0.000000
vt 30.340158 1.500000
vt 30.340158 0.000000
vt 30.666473 1.500000
vt 24.349361 0.000000
vt 24.023045 1.500000
vt 24.023045 0.000000
vt 24.349361 1.500000
vt 16.383999 0.000000
vt 16.057682 1.500000
vt 16.057682 0.000000
vt 16.383999 1.500000
vt 6.986896 0.000000
vt 7.313212 1.500000
vt 6.986896 1.500000
vt 7.313212 0.000000
vt 6.986896 -31.792290
vt 7.313212 -31.792290
vt 6.614498 -30.764812
vt 31.495008 -4.283695
vt 30.584982 -3.764291
vt 30.366234 -3.764291
vt 24.947155 -15.839410
vt 24.267868 -15.216574
vt 24.104538 -15.216574
vt 16.699194 -23.854134
vt 16.302505 -23.122194
vt 16.139175 -23.122194
vt -2.571155 -29.287804
vt -2.244839 -29.287804
vt -2.647427 -28.458780
vt -2.571155 0.000000
vt -2.244839 1.500000
vt -2.571155 1.500000
vt -2.244839 0.000000
vt 7.068389 -25.369234
vt 7.628408 -26.101173
vt 7.231719 -25.369234
vt -2.244839 -28.502953
vt -2.326332 -27.707239
vt -2.489662 -27.707239
vt -11.638789 -27.047646
vt -11.883612 -26.251934
vt -11.965104 -27.047646
vt -11.720281 -26.251934
vt -20.554771 -23.750555
vt -20.309948 -22.954842
vt -20.473278 -22.954842
vt -28.069979 -17.482111
vt -27.509960 -16.750174
vt -27.673290 -16.750174
vt -20.554771 -24.414846
vt -20.228455 -24.414846
vt -20.152184 -23.585823
vt -20.554771 0.000000
vt -20.228455 1.500000
vt -20.554771 1.500000
vt -20.228455 0.000000
vt -32.992977 -10.933000
vt -33.389668 -11.664939
vt -32.829647 -10.933000
vt -36.749100 -3.650569
vt -35.906483 -3.027732
vt -36.069813 -3.027732
vt -37.604145 1.889947
vt -36.530788 2.409351
vt -36.694118 2.409351
vt -27.754782 -21.215401
vt -27.428467 -21.215401
vt -27.095255 -20.221973
vt -27.754782 0.000000
vt -27.428467 1.500000
vt -27.754782 1.500000
vt -27.428467 0.000000
vt -35.733372 4.433625
vt -34.619091 4.953029
vt -34.823345 4.953029
vt -33.074471 -14.475196
vt -32.748154 -14.475196
vt -32.386005 -13.456660
vt -33.074471 0.000000
vt -32.748154 1.500000
vt -33.074471 1.500000
vt -32.748154 0.000000
vt -33.787880 8.267152
vt -18.070925 8.827463
vt -32.863422 8.827463
vt -23.836155 1.479573
vt -36.151306 -8.301715
vt -35.824993 -8.301715
vt -36.151306 1.500000
vt -35.824993 0.000000
vt -35.824993 1.500000
vt -36.151306 0.000000
vt -36.449295 0.000000
vt -36.775612 1.500000
vt -36.775612 0.000000
vt -36.449295 1.500000
vt -34.578522 0.000000
vt -34.904835 1.500000
vt -34.904835 0.000000
vt -34.578522 1.500000
vt -18.921679 0.000000
vt -32.903996 1.500000
vt -32.903996 0.000000
vt -18.921679 1.500000
vt 16.102331 14.887687
vt 16.235678 33.529655
vt 16.073746 33.508339
vt 15.922848 33.445835
vt 15.793269 33.346405
vt 15.693840 33.216827
vt 15.631336 33.065929
vt 15.604676 32.863422
vt 15.604676 18.070925
vt 16.397612 33.508339
vt 16.548510 33.445835
vt 16.678087 33.346405
vt 16.777515 33.216827
vt 16.840019 33.065929
vt 16.868572 32.849052
vt 32.951916 -8.187829
vt 32.025829 -7.607525
vt 16.914104 -7.607525
vt 3.386676 -24.609039
vt 16.057682 -34.022743
vt 16.383999 -34.022743
vt 9.677101 -22.773479
vt 24.023045 -28.595596
vt 24.349361 -28.595596
vt 15.308049 -18.572884
vt 30.340158 -20.527857
vt 30.666473 -20.527857
vt -11.965104 0.000000
vt -11.638789 1.500000
vt -11.965104 1.500000
vt -11.638789 0.000000
vt -18.070925 13.395869
vt -32.903996 12.600157
vt -18.921679 12.600157
vt -19.953144 13.252245
vt -34.904835 10.653878
vt -34.578522 10.653878
vt -22.667009 7.635545
vt -36.775612 1.283130
vt -36.449295 1.283130
usemtl material-0
f 4/4/1 3/3/1 2/2/1
f 5/5/1 3/3/1 4/4/1
f 6/6/1 3/3/1 5/5/1
f 7/7/1 3/3/1 6/6/1
f 8/8/1 3/3/1 7/7/1
f 9/9/1 3/3/1 8/8/1
f 8/8/2 3/3/2 9/9/2
f 7/7/2 3/3/2 8/8/2
f 6/6/2 3/3/2 7/7/2
f 5/5/2 3/3/2 6/6/2
f 4/4/2 3/3/2 5/5/2
f 2/2/2 3/3/2 4/4/2
f 2/2/1 1/1/1 10/10/1
f 10/10/2 1/1/2 2/2/2
f 10/10/1 1/1/1 11/11/1
f 11/11/2 1/1/2 10/10/2
f 11/11/1 1/1/1 12/12/1
f 12/12/2 1/1/2 11/11/2
f 12/12/1 1/1/1 13/13/1
f 13/13/2 1/1/2 12/12/2
f 13/13/1 1/1/1 14/14/1
f 14/14/2 1/1/2 13/13/2
f 14/14/1 1/1/1 15/15/1
f 15/15/2 1/1/2 14/14/2
f 15/15/1 1/1/1 16/16/1
f 16/16/2 1/1/2 15/15/2
f 16/17/3 17/18/3 1/19/3
f 17/18/3 16/17/3 18/20/3
f 1/19/4 17/18/4 16/17/4
f 17/22/5 18/23/6 19/24/7
f 18/20/4 16/17/4 17/18/4
f 15/25/8 18/26/9 16/27/9
f 18/26/9 15/25/8 20/28/8
f 16/27/10 18/26/10 15/25/11
f 20/28/11 15/25/11 18/26/10
f 14/29/12 20/30/8 15/31/8
f 20/30/8 14/29/12 21/32/12
f 15/31/11 20/30/11 14/29/13
f 21/32/13 14/29/13 20/30/11
f 13/33/14 21/34/12 14/35/12
f 21/34/12 13/33/14 22/36/14
f 14/35/13 21/34/13 13/33/15
f 22/36/15 13/33/15 21/34/13
f 13/37/14 23/38/16 22/39/14
f 23/38/16 13/37/14 12/40/16
f 12/40/17 13/37/15 23/38/17
f 22/39/15 23/38/17 13/37/15
f 22/41/18 23/42/19 24/43/20
f 24/43/21 23/42/22 22/41/23
f 23/44/19 25/45/24 24/46/20
f 23/47/19 26/48/25 25/49/24
f 23/50/19 27/51/26 26/52/25
f 23/53/19 28/54/27 27/55/26
f 12/56/16 28/57/28 23/58/16
f 28/57/28 12/56/16 11/59/28
f 11/59/29 12/56/17 28/57/29
f 23/58/17 28/57/29 12/56/17
f 27/55/30 28/54/31 23/53/22
f 27/60/26 28/61/27 29/62/32
f 29/62/33 28/61/31 27/60/30
f 28/63/27 30/64/34 29/65/32
f 31/66/35 30/67/34 28/68/27
f 30/67/34 31/66/35 32/69/36
f 32/69/37 31/66/38 30/67/39
f 31/70/35 33/71/40 32/72/36
f 31/73/35 34/74/41 33/75/40
f 31/76/35 35/77/42 34/78/41
f 10/79/43 35/80/44 31/81/43
f 35/80/44 10/79/43 2/82/44
f 2/82/45 10/79/46 35/80/45
f 31/81/46 35/80/45 10/79/46
f 34/78/47 35/77/48 31/76/38
f 34/83/41 35/84/42 36/85/49
f 36/85/50 35/84/48 34/83/47
f 35/86/42 37/87/51 36/88/49
f 35/89/42 38/90/52 37/91/51
f 35/92/42 39/93/53 38/94/52
f 2/95/44 39/96/54 35/97/44
f 39/96/54 2/95/44 4/98/54
f 4/98/55 2/95/45 39/96/55
f 35/97/45 39/96/55 2/95/45
f 38/94/56 39/93/57 35/92/48
f 39/99/53 40/100/58 38/101/52
f 39/102/53 41/103/59 40/104/58
f 4/105/54 41/106/60 39/107/54
f 41/106/60 4/105/54 5/108/60
f 5/108/61 4/105/55 41/106/61
f 39/107/55 41/106/61 4/105/55
f 40/104/62 41/103/63 39/102/57
f 41/109/64 42/110/65 40/111/66
f 42/112/65 41/113/64 43/114/67
f 43/114/68 41/113/69 42/112/70
f 41/115/60 6/116/71 43/117/71
f 6/116/71 41/115/60 5/118/60
f 43/117/72 6/116/72 41/115/61
f 7/119/73 43/120/71 6/121/71
f 43/120/71 7/119/73 44/122/73
f 44/122/74 7/119/74 43/120/72
f 8/123/75 44/124/73 7/125/73
f 44/124/73 8/123/75 45/126/75
f 45/126/76 8/123/76 44/124/74
f 9/127/77 45/128/77 8/129/77
f 45/128/77 9/127/77 46/130/77
f 46/130/78 9/127/78 45/128/78
f 32/132/1 47/131/1 19/21/1
f 33/133/1 47/131/1 32/132/1
f 34/134/1 47/131/1 33/133/1
f 36/135/1 47/131/1 34/134/1
f 37/136/1 47/131/1 36/135/1
f 38/137/1 47/131/1 37/136/1
f 40/138/1 47/131/1 38/137/1
f 42/139/1 47/131/1 40/138/1
f 40/138/2 47/131/2 42/139/2
f 38/137/2 47/131/2 40/138/2
f 37/136/2 47/131/2 38/137/2
f 36/135/2 47/131/2 37/136/2
f 34/134/2 47/131/2 36/135/2
f 33/133/2 47/131/2 34/134/2
f 32/132/2 47/131/2 33/133/2
f 19/21/2 47/131/2 32/132/2
f 32/132/1 19/21/1 30/140/1
f 30/140/2 19/21/2 32/132/2
f 30/140/1 19/21/1 29/141/1
f 29/141/2 19/21/2 30/140/2
f 29/141/1 19/21/1 27/142/1
f 27/142/2 19/21/2 29/141/2
f 27/142/1 19/21/1 26/143/1
f 26/143/2 19/21/2 27/142/2
f 26/143/1 19/21/1 25/144/1
f 25/144/2 19/21/2 26/143/2
f 25/144/1 19/21/1 24/145/1
f 24/145/2 19/21/2 25/144/2
f 22/146/18 24/147/20 19/148/79
f 19/148/80 24/147/21 22/146/23
f 19/149/7 21/150/81 22/151/82
f 22/151/83 21/150/84 19/149/85
f 19/152/7 20/153/86 21/154/81
f 21/154/84 20/153/87 19/152/85
f 19/155/7 18/156/6 20/157/86
f 20/157/87 18/156/88 19/155/85
f 19/24/85 18/23/88 17/22/89
f 24/46/21 25/45/90 23/44/22
f 25/49/90 26/48/91 23/47/22
f 26/52/91 27/51/30 23/50/22
f 29/65/33 30/64/39 28/63/31
f 28/68/31 30/67/39 31/66/38
f 11/158/28 31/159/43 28/160/28
f 31/159/43 11/158/28 10/161/43
f 10/161/46 11/158/29 31/159/46
f 28/160/29 31/159/46 11/158/29
f 32/72/37 33/71/92 31/70/38
f 33/75/92 34/74/47 31/73/38
f 36/88/50 37/87/93 35/86/48
f 37/91/93 38/90/56 35/89/48
f 38/101/56 40/100/62 39/99/57
f 40/111/94 42/110/70 41/109/69
f 42/162/95 45/163/95 46/164/95
f 46/164/96 45/163/96 42/162/96
f 42/165/65 44/166/97 45/167/98
f 45/167/99 44/166/100 42/165/70
f 42/168/65 43/169/67 44/170/97
f 44/170/100 43/169/68 42/168/70
f 8/129/78 45/128/78 9/127/78
f 7/125/74 44/124/74 8/123/76
f 6/121/72 43/120/72 7/119/74
f 5/118/61 41/115/61 6/116/72