mtllib new-7.mtl
v -0.025049 -0.101585 0.121800
v -0.019803 -0.101585 0.114963
v -0.028346 -0.101585 0.129761
v -0.029471 -0.101585 0.138304
v -0.028346 -0.101585 0.146848
v -0.025049 -0.101585 0.154809
v -0.019803 -0.101585 0.161645
v -0.012966 -0.101585 0.166891
v -0.031552 -0.101585 0.118045
v -0.031552 -0.101585 0.158564
v -0.035600 -0.101585 0.127817
v -0.035600 -0.101585 0.148791
v -0.036981 -0.101585 0.138304
v -0.036981 -0.290888 0.138304
v -0.035600 -0.290888 0.127817
v -0.035600 -0.290888 0.148791
v -0.031552 -0.290888 0.158564
v -0.025113 -0.290888 0.166956
v -0.025113 -0.101585 0.166956
v -0.016721 -0.101585 0.173395
v -0.016721 -0.290888 0.173395
v -0.032968 -0.290888 0.101798
v -0.022276 -0.290888 0.093593
v -0.016721 -0.290888 0.103214
v -0.025113 -0.290888 0.109653
v -0.031552 -0.290888 0.118045
v -0.025113 -0.101585 0.109653
v -0.016721 -0.101585 0.103214
v -0.006949 -0.290888 0.099166
v -0.006949 -0.101585 0.099166
v -0.012966 -0.101585 0.109718
v -0.006949 -0.101585 0.177443
v -0.006949 -0.290888 0.177443
v 0.003538 -0.290888 0.097785
v 0.003538 -0.101585 0.097785
v -0.005005 -0.101585 0.106420
v -0.005005 -0.101585 0.170189
v 0.003538 -0.101585 0.178823
v 0.003538 -0.290888 0.178823
v 0.014025 -0.290888 0.099166
v 0.014025 -0.101585 0.099166
v 0.003538 -0.101585 0.105295
v 0.003538 -0.101585 0.171313
v 0.012081 -0.101585 0.170189
v 0.014025 -0.101585 0.177443
v 0.014025 -0.290888 0.177443
v 0.023797 -0.290888 0.103214
v 0.023797 -0.101585 0.103214
v 0.020042 -0.101585 0.109718
v 0.012081 -0.101585 0.106420
v 0.020042 -0.101585 0.166891
v 0.023797 -0.101585 0.173395
v 0.023797 -0.290888 0.173395
v 0.040044 -0.290888 0.101798
v 0.032189 -0.290888 0.109653
v 0.032189 -0.101585 0.109653
v 0.026879 -0.101585 0.114963
v 0.026879 -0.101585 0.161645
v 0.032189 -0.101585 0.166956
v 0.032189 -0.290888 0.166956
v 0.042676 -0.290888 0.148791
v 0.038628 -0.290888 0.158564
v 0.044057 -0.290888 0.138304
v 0.042676 -0.290888 0.127817
v 0.038628 -0.290888 0.118045
v 0.038628 -0.101585 0.118045
v 0.042676 -0.101585 0.127817
v 0.044057 -0.101585 0.138304
v 0.042676 -0.101585 0.148791
v 0.038628 -0.101585 0.158564
v 0.035422 -0.101585 0.146848
v 0.032125 -0.101585 0.154809
v 0.036547 -0.101585 0.138304
v 0.035422 -0.101585 0.129761
v 0.032125 -0.101585 0.121800
vn -0.707107 0.000000 -0.707107
vn -0.866025 0.000000 -0.500000
vn -0.965926 0.000000 -0.258819
vn -1.000000 0.000000 0.000000
vn -0.965926 0.000000 0.258819
vn -0.866025 0.000000 0.500000
vn -0.707107 0.000000 0.707107
vn -0.500000 0.000000 0.866025
vn 0.000000 1.000000 0.000000
vn 0.000000 -1.000000 0.000000
vn -0.500000 0.000000 -0.866025
vn -0.258819 0.000000 -0.965926
vn -0.258819 0.000000 0.965926
vn 0.000000 0.000000 -1.000000
vn 0.000000 0.000000 1.000000
vn 0.258819 0.000000 -0.965926
vn 0.258819 0.000000 0.965926
vn 0.500000 0.000000 -0.866025
vn 0.500000 0.000000 0.866025
vn 0.707107 0.000000 0.707107
vn 0.866025 0.000000 0.500000
vn 0.965926 0.000000 0.258819
vn 1.000000 0.000000 0.000000
vn 0.965926 0.000000 -0.258819
vn 0.866025 0.000000 -0.500000
vn 0.707107 0.000000 -0.707107
vt 0.821855 2.178145
vt 0.821855 0.821855
vt 1.020479 0.669445
vt 0.669445 1.020479
vt 0.669445 1.979521
vt 0.573636 1.748218
vt 0.573636 1.251782
vt 0.540957 1.500000
vt 0.480483 2.088618
vt 0.480483 0.911382
vt 0.362877 1.804691
vt 0.362877 1.195309
vt 0.322763 1.500000
vt -1.836617 14.500000
vt -1.529296 9.000000
vt -1.529296 14.500000
vt -1.836617 9.000000
vt -1.137718 9.000000
vt -1.445038 14.500000
vt -1.445038 9.000000
vt -1.137718 14.500000
vt -0.658134 9.000000
vt -0.965454 14.500000
vt -0.965454 9.000000
vt -0.658134 14.500000
vt -0.123228 9.000000
vt -0.430548 14.500000
vt -0.430548 9.000000
vt -0.123228 14.500000
vt 0.123228 9.000000
vt 0.430548 14.500000
vt 0.123228 14.500000
vt 0.430548 9.000000
vt 0.667568 0.667568
vt 0.911382 0.480483
vt 0.750000 2.799038
vt 0.911382 2.519517
vt 0.667568 2.332432
vt 0.439340 2.560660
vt -2.113505 14.500000
vt -1.806184 9.000000
vt -1.806184 14.500000
vt -2.113505 9.000000
vt -2.256832 14.500000
vt -1.949512 9.000000
vt -1.949512 14.500000
vt -2.256832 9.000000
vt 1.195309 2.637123
vt 1.020479 2.330555
vt 1.195309 0.362877
vt 0.658134 9.000000
vt 0.965454 14.500000
vt 0.658134 14.500000
vt 0.965454 9.000000
vt 1.500000 2.677237
vt 1.251782 2.426364
vt 1.251782 0.573636
vt 1.500000 0.322763
vt 1.137718 9.000000
vt 1.445038 14.500000
vt 1.137718 14.500000
vt 1.445038 9.000000
vt 1.804691 2.637123
vt 1.500000 2.459043
vt 1.500000 0.540957
vt 1.748218 0.573636
vt 1.804691 0.362877
vt 1.529296 9.000000
vt 1.836617 14.500000
vt 1.529296 14.500000
vt 1.836617 9.000000
vt 2.088618 2.519517
vt 1.979521 2.330555
vt 1.748218 2.426364
vt 1.979521 0.669445
vt 2.088618 0.480483
vt 2.178145 0.821855
vt 2.332432 0.667568
vt 2.330555 1.020479
vt 2.426364 1.251782
vt 2.519517 0.911382
vt 2.178145 2.178145
vt 2.332432 2.332432
vt 1.806184 9.000000
vt 2.113505 14.500000
vt 1.806184 14.500000
vt 2.113505 9.000000
vt 2.560660 2.560660
vt 1.949512 9.000000
vt 2.256832 14.500000
vt 1.949512 14.500000
vt 2.256832 9.000000
vt 2.637123 1.195309
vt 2.677237 1.500000
vt 2.637123 1.804691
vt 2.519517 2.088618
vt 2.459043 1.500000
vt 2.426364 1.748218
vt 2.330555 1.979521
usemtl material-0
f 5/7/9 3/6/9 4/8/9
f 9/9/9 4/8/9 3/6/9
f 9/9/9 10/10/9 4/8/9
f 11/11/9 10/10/9 9/9/9
f 11/11/9 12/12/9 10/10/9
f 12/12/9 11/11/9 13/13/9
f 11/14/3 14/15/4 13/16/4
f 14/15/4 11/14/3 15/17/3
f 16/18/5 13/19/4 14/20/4
f 13/19/4 16/18/5 12/21/5
f 17/22/6 12/23/5 16/24/5
f 12/23/5 17/22/6 10/25/6
f 18/26/7 10/27/6 17/28/6
f 10/27/6 18/26/7 19/29/7
f 18/30/7 20/31/8 19/32/7
f 20/31/8 18/30/7 21/33/8
f 23/36/9 25/38/9 24/37/9
f 22/39/9 15/11/9 26/9/9
f 9/40/2 15/41/3 11/42/3
f 15/41/3 9/40/2 26/43/2
f 27/44/1 26/45/2 9/46/2
f 26/45/2 27/44/1 25/47/1
f 27/46/1 24/47/11 25/45/1
f 24/47/11 27/46/1 28/44/11
f 28/42/11 29/43/12 24/41/11
f 29/43/12 28/42/11 30/40/12
f 28/37/9 31/49/9 30/48/9
f 28/37/9 2/1/9 31/49/9
f 28/37/9 1/5/9 2/1/9
f 27/38/9 1/5/9 28/37/9
f 27/38/9 3/6/9 1/5/9
f 9/9/9 3/6/9 27/38/9
f 10/10/9 5/7/9 4/8/9
f 5/7/9 10/10/9 19/34/9
f 6/4/9 19/34/9 20/35/9
f 6/4/9 20/35/9 7/2/9
f 8/3/9 20/35/9 32/50/9
f 21/51/8 32/52/13 20/53/8
f 32/52/13 21/51/8 33/54/13
f 30/16/12 34/17/14 29/15/12
f 34/17/14 30/16/12 35/14/14
f 30/48/9 36/56/9 35/55/9
f 30/48/9 31/49/9 36/56/9
f 8/3/9 32/50/9 37/57/9
f 37/57/9 32/50/9 38/58/9
f 33/59/13 38/60/15 32/61/13
f 38/60/15 33/59/13 39/62/15
f 35/21/14 40/20/16 34/18/14
f 40/20/16 35/21/14 41/19/16
f 35/55/9 42/64/9 41/63/9
f 35/55/9 36/56/9 42/64/9
f 37/57/9 38/58/9 43/65/9
f 43/65/9 38/58/9 44/66/9
f 44/66/9 38/58/9 45/67/9
f 39/68/15 45/69/17 38/70/15
f 45/69/17 39/68/15 46/71/17
f 41/25/16 47/24/18 40/22/16
f 47/24/18 41/25/16 48/23/18
f 41/63/9 49/73/9 48/72/9
f 41/63/9 50/74/9 49/73/9
f 41/63/9 42/64/9 50/74/9
f 42/64/9 43/65/9 44/66/9
f 49/73/9 44/66/9 51/75/9
f 44/66/9 45/67/9 51/75/9
f 51/75/9 45/67/9 52/76/9
f 46/84/17 52/85/19 45/86/17
f 52/85/19 46/84/17 53/87/19
f 48/29/18 55/28/26 47/26/18
f 55/28/26 48/29/18 56/27/26
f 48/72/9 57/82/9 56/83/9
f 57/82/9 51/75/9 58/77/9
f 51/75/9 52/76/9 58/77/9
f 58/77/9 52/76/9 59/78/9
f 53/89/19 59/90/20 52/91/19
f 59/90/20 53/89/19 60/92/20
f 54/88/9 65/96/9 64/95/9
f 55/33/26 66/32/25 65/30/25
f 66/32/25 55/33/26 56/31/26
f 67/53/24 65/54/25 66/52/25
f 65/54/25 67/53/24 64/51/24
f 68/61/23 64/62/24 67/60/24
f 64/62/24 68/61/23 63/59/23
f 69/70/22 63/71/23 68/69/23
f 63/71/23 69/70/22 61/68/22
f 70/86/21 61/87/22 69/85/22
f 61/87/22 70/86/21 62/84/21
f 59/91/20 62/92/21 70/90/21
f 62/92/21 59/91/20 60/89/20
f 71/80/9 59/78/9 70/81/9
f 72/79/9 59/78/9 71/80/9
f 58/77/9 59/78/9 72/79/9
f 71/80/9 70/81/9 73/97/9
f 73/97/9 70/81/9 66/96/9
f 66/96/9 70/81/9 67/95/9
f 67/95/9 70/81/9 69/93/9
f 67/95/9 69/93/9 68/94/9
f 66/96/9 74/98/9 73/97/9
f 56/83/9 74/98/9 66/96/9
f 56/83/9 57/82/9 75/99/9
f 57/82/9 58/77/9 72/79/9
f 75/99/9 72/79/9 74/98/9
f 74/98/9 72/79/9 71/80/9
f 74/98/9 71/80/9 73/97/9
usemtl material-1
f 4/8/10 3/6/10 5/7/10
f 13/13/10 11/11/10 12/12/10
f 13/16/23 14/15/23 11/14/22
f 12/21/24 16/18/24 13/19/23
f 10/25/25 17/22/25 12/23/24
f 19/29/26 18/26/26 10/27/25
f 21/33/18 18/30/26 20/31/18
f 15/17/22 11/14/22 14/15/23
f 11/42/22 15/41/22 9/40/21
f 26/43/21 9/40/21 15/41/22
f 9/46/21 26/45/21 27/44/20
f 25/47/20 27/44/20 26/45/21
f 25/45/20 24/47/19 27/46/20
f 24/37/10 25/38/10 23/36/10
f 26/9/10 15/11/10 22/39/10
f 24/41/19 29/43/17 28/42/19
f 30/40/17 28/42/19 29/43/17
f 3/6/10 4/8/10 9/9/10
f 4/8/10 10/10/10 9/9/10
f 4/8/10 5/7/10 10/10/10
f 19/34/10 10/10/10 5/7/10
f 20/35/10 19/34/10 6/4/10
f 19/32/26 20/31/18 18/30/26
f 7/2/10 20/35/10 6/4/10
f 32/50/10 20/35/10 8/3/10
f 33/54/16 21/51/18 32/52/16
f 29/15/17 34/17/15 30/16/17
f 35/14/15 30/16/17 34/17/15
f 30/48/10 31/49/10 28/37/10
f 36/56/10 31/49/10 30/48/10
f 1/5/10 3/6/10 27/38/10
f 27/38/10 3/6/10 9/9/10
f 28/37/10 1/5/10 27/38/10
f 2/1/10 1/5/10 28/37/10
f 37/57/10 32/50/10 8/3/10
f 38/58/10 32/50/10 37/57/10
f 39/62/14 33/59/16 38/60/14
f 34/18/15 40/20/13 35/21/15
f 41/19/13 35/21/15 40/20/13
f 35/55/10 36/56/10 30/48/10
f 42/64/10 36/56/10 35/55/10
f 43/65/10 38/58/10 37/57/10
f 44/66/10 38/58/10 43/65/10
f 45/67/10 38/58/10 44/66/10
f 46/71/12 39/68/14 45/69/12
f 40/22/13 47/24/8 41/25/13
f 48/23/8 41/25/13 47/24/8
f 41/63/10 42/64/10 35/55/10
f 50/74/10 42/64/10 41/63/10
f 44/66/10 43/65/10 42/64/10
f 51/75/10 44/66/10 49/73/10
f 51/75/10 45/67/10 44/66/10
f 52/76/10 45/67/10 51/75/10
f 53/87/11 46/84/12 52/85/11
f 47/26/8 55/28/7 48/29/8
f 56/27/7 48/29/8 55/28/7
f 48/72/10 49/73/10 41/63/10
f 58/77/10 51/75/10 57/82/10
f 58/77/10 52/76/10 51/75/10
f 59/78/10 52/76/10 58/77/10
f 60/92/1 53/89/11 59/90/1
f 65/30/6 66/32/6 55/33/7
f 64/51/5 67/53/5 65/54/6
f 63/59/4 68/61/4 64/62/5
f 61/68/3 69/70/3 63/71/4
f 62/84/2 70/86/2 61/87/3
f 60/89/1 59/91/1 62/92/2
f 70/90/2 62/92/2 59/91/1
f 72/79/10 59/78/10 58/77/10
f 71/80/10 59/78/10 72/79/10
f 70/81/10 59/78/10 71/80/10
f 73/97/10 70/81/10 71/80/10
f 66/96/10 70/81/10 73/97/10
f 67/95/10 70/81/10 66/96/10
f 69/93/10 70/81/10 67/95/10
f 69/85/3 61/87/3 70/86/2
f 68/94/10 69/93/10 67/95/10
f 68/69/4 63/71/4 69/70/3
f 67/60/5 64/62/5 68/61/4
f 66/52/6 65/54/6 67/53/5
f 56/83/10 57/82/10 48/72/10
f 75/99/10 57/82/10 56/83/10
f 72/79/10 58/77/10 57/82/10
f 49/73/10 50/74/10 41/63/10
f 74/98/10 72/79/10 75/99/10
f 71/80/10 72/79/10 74/98/10
f 73/97/10 71/80/10 74/98/10
f 73/97/10 74/98/10 66/96/10
f 66/96/10 74/98/10 56/83/10
f 56/31/7 55/33/7 66/32/6
f 64/95/10 65/96/10 54/88/10
f 52/91/11 59/90/1 53/89/11
f 45/86/12 52/85/11 46/84/12
f 38/70/14 45/69/12 39/68/14
f 32/61/16 38/60/14 33/59/16
f 31/49/10 2/1/10 28/37/10
f 28/44/19 27/46/20 24/47/19
f 14/20/23 13/19/23 16/18/24
f 16/24/24 12/23/24 17/22/25
f 17/28/25 10/27/25 18/26/26
f 20/53/18 32/52/16 21/51/18
f 9/9/10 10/10/10 11/11/10
f 10/10/10 12/12/10 11/11/10