mtllib new-5.mtl
v 0.151980 -0.605362 0.680274
v 0.069264 -0.605362 0.075386
v -0.008143 -0.605362 -0.463674
v -0.010575 -0.605362 0.235483
v -0.040031 -0.605362 0.059135
v -0.085813 -0.605362 0.157847
v 0.058762 -0.536525 0.166318
v 0.049055 -0.536525 0.099332
v -0.018726 -0.536525 0.088417
v -0.047833 -0.536525 0.149361
v -0.001597 -0.536525 0.197980
vn 0.000000 1.000000 0.000000
vn 0.000000 -1.000000 0.000000
vt 20.564377 0.875103
vt 18.161139 18.449539
vt 15.912154 34.111404
vt 15.841501 13.798085
vt 14.985678 18.921679
vt 13.655534 16.053699
vt 17.856024 15.807589
vt 17.573978 17.753799
vt 14.759014 16.300257
vt 16.102331 14.887687
vt 15.604676 18.070925
usemtl material-0
f 3/3/1 1/1/1 2/2/1
f 3/3/1 4/4/1 1/1/1
f 6/6/1 4/4/1 5/5/1
f 5/5/2 4/4/2 6/6/2
f 1/1/2 4/4/2 3/3/2
f 2/2/2 1/1/2 3/3/2
f 8/8/1 11/10/1 7/7/1
f 10/9/1 11/10/1 9/11/1
f 9/11/2 11/10/2 10/9/2
f 7/7/2 11/10/2 8/8/2