mtllib new-1.mtl
v 0.086386 -0.605362 0.183221
v 0.069264 -0.605362 0.075386
v 0.069264 -0.553734 0.075386
v 0.563123 -0.605362 0.014748
v 0.563123 -0.553734 0.014748
v 0.573609 -0.605362 0.100153
v 0.573609 -0.553734 0.100153
v 0.086386 -0.553734 0.183221
v 0.569144 -0.536525 0.079302
v 0.058762 -0.536525 0.166318
v 0.564333 -0.536525 0.036064
v 0.049055 -0.536525 0.099332
v 0.574354 -0.553734 0.014846
v 0.571363 -0.536525 0.036125
v 0.574354 -0.605362 0.014846
v 0.584483 -0.605362 0.097341
v 0.584483 -0.553734 0.097341
v 0.576433 -0.536525 0.077417
v 0.576780 -0.536525 0.037628
v 0.581326 -0.536525 0.074648
v 0.585335 -0.536525 0.070708
v 0.581624 -0.536525 0.040481
v 0.585564 -0.536525 0.044490
v 0.588189 -0.536525 0.065864
v 0.594258 -0.553734 0.091810
v 0.589691 -0.536525 0.060447
v 0.588332 -0.536525 0.049383
v 0.594854 -0.553734 0.023547
v 0.589740 -0.536525 0.054826
v 0.585177 -0.553734 0.017847
v 0.594854 -0.605362 0.023547
v 0.585177 -0.605362 0.017847
v 0.594258 -0.605362 0.091810
v 0.602269 -0.553734 0.083938
v 0.602269 -0.605362 0.083938
v 0.602726 -0.605362 0.031558
v 0.607969 -0.605362 0.074261
v 0.607969 -0.553734 0.074261
v 0.610971 -0.605362 0.063438
v 0.610971 -0.553734 0.063438
v 0.611069 -0.605362 0.052207
v 0.611069 -0.553734 0.052207
v 0.608257 -0.605362 0.041333
v 0.608257 -0.553734 0.041333
v 0.602726 -0.553734 0.031558
vn 0.000000 1.000000 0.000000
vn 0.000000 -1.000000 0.000000
vn -0.121869 0.000000 -0.992546
vn 0.121869 0.000000 0.992546
vn 0.168068 0.000000 0.985775
vn -0.168068 0.000000 -0.985775
vn 0.105608 0.777916 0.619430
vn -0.105608 -0.777916 -0.619430
vn -0.076579 0.777916 -0.623684
vn 0.076579 -0.777916 0.623684
vn 0.005483 0.777916 -0.628344
vn 0.086997 0.780546 -0.619015
vn -0.005483 -0.777916 0.628344
vn -0.086997 -0.780546 0.619015
vn 0.139173 0.000000 -0.990268
vn 0.008727 0.000000 -0.999962
vn -0.008727 0.000000 0.999962
vn -0.139173 0.000000 0.990268
vn 0.374607 0.000000 0.927184
vn 0.250380 0.000000 0.968148
vn -0.374607 0.000000 -0.927184
vn -0.250380 0.000000 -0.968148
vn 0.234166 0.780546 0.579581
vn 0.157331 0.777916 0.608353
vn 0.313079 0.777008 0.546114
vn -0.157331 -0.777916 -0.608353
vn -0.234166 -0.780546 -0.579581
vn 0.395825 0.757387 0.519314
vn 0.459730 0.760922 0.457871
vn -0.313079 -0.777008 -0.546114
vn -0.395825 -0.757387 -0.519314
vn -0.459730 -0.760922 -0.457871
vn 0.705556 0.644533 0.294565
vn 0.687097 0.669145 0.283096
vn -0.687097 -0.669145 -0.283096
vn -0.705556 -0.644533 -0.294565
vn 0.888796 0.443867 0.114125
vn -0.888796 -0.443867 -0.114125
vn 0.710589 0.644533 -0.282206
vn 0.890652 0.443867 -0.098596
vn -0.710589 -0.644533 0.282206
vn -0.890652 -0.443867 0.098596
vn 0.691933 0.669145 -0.271062
vn 0.467651 0.760922 -0.449778
vn 0.322562 0.777008 -0.540567
vn 0.615661 0.000000 -0.788011
vn 0.390731 0.000000 -0.920505
vn -0.390731 0.000000 0.920505
vn -0.615661 0.000000 0.788011
vn 0.601815 0.000000 0.798636
vn -0.601815 0.000000 -0.798636
vn 0.788011 0.000000 0.615661
vn -0.788011 0.000000 -0.615661
vn 0.920505 0.000000 0.390731
vn -0.920505 0.000000 -0.390731
vn 0.990268 0.000000 0.139173
vn -0.990268 0.000000 -0.139173
vn 0.992546 0.000000 -0.121869
vn -0.992546 0.000000 0.121869
vn 0.927184 0.000000 -0.374607
vn -0.927184 0.000000 0.374607
vn 0.798636 0.000000 -0.601815
vn -0.798636 0.000000 0.601815
vn -0.467651 -0.760922 0.449778
vn -0.322562 -0.777008 0.540567
vn 0.404828 0.757387 -0.512327
vn -0.404828 -0.757387 0.512327
vn 0.244245 0.780546 -0.575406
vn -0.244245 -0.780546 0.575406
vn -0.691933 -0.669145 0.271062
vt 18.658604 15.316494
vt 18.161139 18.449539
vt -20.274202 1.500000
vt -34.730541 0.000000
vt -20.274202 0.000000
vt -34.730541 1.500000
vt 32.509724 20.211325
vt 32.814396 17.729959
vt 35.327461 1.500000
vt 20.967405 0.000000
vt 35.327461 0.000000
vt 20.967405 1.500000
vt 35.301388 11.044252
vt 20.967405 10.248540
vt 35.327461 10.248540
vt 20.258778 11.044252
vt 32.544891 19.591995
vt 17.856024 15.807589
vt 32.684658 18.335770
vt 17.573978 17.753799
vt -34.689968 -10.785205
vt -20.274202 -11.580917
vt -19.606628 -10.785205
vt -34.730541 -11.580917
vt -32.372681 -14.204551
vt -32.658424 -15.000263
vt -32.332111 -15.000263
vt -32.576935 -14.204551
vt -32.658424 0.000000
vt -32.332111 1.500000
vt -32.658424 1.500000
vt -32.332111 0.000000
vt 32.836025 20.208477
vt 33.130318 17.811663
vt 36.534721 1.500000
vt 36.208408 0.000000
vt 36.534721 0.000000
vt 36.208408 1.500000
vt 36.453232 8.699954
vt 36.208408 7.904242
vt 36.534721 7.904242
vt 36.234482 8.699954
vt 32.749134 19.590214
vt 32.896435 18.390539
vt 32.906525 19.546566
vt 33.038589 18.470966
vt 37.606041 0.311142
vt 37.850864 1.106855
vt 37.687534 1.106855
vt 36.674591 -5.924165
vt 36.511261 -5.924165
vt 36.114574 -6.656104
vt 33.047256 19.463669
vt 33.155087 18.585445
vt 33.161736 19.347174
vt 33.237984 18.726175
vt 32.444553 -13.339839
vt 33.004570 -12.607900
vt 32.841240 -12.607900
vt 27.090908 -14.508701
vt 26.927580 -14.508701
vt 26.248293 -15.131538
vt 33.242161 19.205017
vt 33.281631 18.883568
vt 20.246637 -7.561103
vt 19.173281 -7.041699
vt 18.263254 -7.561103
vt 19.336611 -7.041699
vt 10.949407 -21.074688
vt 10.270121 -20.451851
vt 10.106790 -20.451851
vt 0.905993 -27.401892
vt 0.509304 -26.669952
vt 0.345973 -26.669952
vt -18.677412 -26.344833
vt -18.351095 -26.344833
vt -18.753683 -25.515812
vt -18.677412 0.000000
vt -18.351095 1.500000
vt -18.677412 1.500000
vt -18.351095 0.000000
vt 33.150475 20.121273
vt 33.414330 17.972347
vt 33.431637 19.955654
vt 37.932358 1.500000
vt 37.606041 0.000000
vt 37.932358 0.000000
vt 37.606041 1.500000
vt 37.932358 0.257252
vt 38.008629 1.086275
vt 37.606041 0.257252
vt 36.429768 0.000000
vt 36.756084 1.500000
vt 36.429768 1.500000
vt 36.756084 0.000000
vt 33.647072 18.201065
vt 33.660355 19.722910
vt 33.812691 18.482227
vt 33.086063 0.000000
vt 32.759747 1.500000
vt 32.759747 0.000000
vt 33.086063 1.500000
vt 27.172401 0.000000
vt 26.846087 1.500000
vt 26.846087 0.000000
vt 27.172401 1.500000
vt 19.418104 0.000000
vt 19.091787 1.500000
vt 19.091787 0.000000
vt 19.418104 1.500000
vt 10.351613 0.000000
vt 10.025298 1.500000
vt 10.025298 0.000000
vt 10.351613 1.500000
vt 0.590796 0.000000
vt 0.264481 1.500000
vt 0.264481 0.000000
vt 0.590796 1.500000
vt -9.199163 0.000000
vt -9.525479 1.500000
vt -9.525479 0.000000
vt -9.199163 1.500000
vt -9.443986 -25.810909
vt -8.883967 -26.542849
vt -9.280656 -25.810909
vt -18.351095 -25.632793
vt -18.432589 -24.837082
vt -18.595919 -24.837082
vt -26.241314 -21.032459
vt -26.486137 -20.236746
vt -26.567629 -21.032459
vt -26.322805 -20.236746
vt -26.567629 0.000000
vt -26.241314 1.500000
vt -26.567629 1.500000
vt -26.241314 0.000000
vt 33.283058 19.046890
vt 33.821037 19.438900
vt 33.899895 18.796675
vt 33.902740 19.122978
usemtl material-0
f 3/3/3 4/4/3 2/5/3
f 4/4/3 3/3/3 5/6/3
f 2/5/4 4/4/4 3/3/4
f 1/1/1 4/7/1 2/2/1
f 4/7/1 1/1/1 6/8/1
f 2/2/2 4/7/2 1/1/2
f 6/8/2 1/1/2 4/7/2
f 7/9/5 1/10/5 6/11/5
f 1/10/5 7/9/5 8/12/5
f 6/11/6 1/10/6 7/9/6
f 8/12/6 7/9/6 1/10/6
f 9/13/7 8/14/7 7/15/7
f 8/14/7 9/13/7 10/16/7
f 10/16/8 9/13/8 8/14/8
f 11/17/1 10/18/1 9/19/1
f 10/18/1 11/17/1 12/20/1
f 12/20/2 11/17/2 10/18/2
f 11/21/9 3/22/9 12/23/9
f 3/22/9 11/21/9 5/24/9
f 12/23/10 3/22/10 11/21/10
f 5/24/10 11/21/10 3/22/10
f 11/25/11 13/26/12 5/27/11
f 13/26/12 11/25/11 14/28/12
f 5/27/13 13/26/14 11/25/13
f 15/29/15 5/30/16 13/31/15
f 5/30/16 15/29/15 4/32/16
f 4/32/17 15/29/18 5/30/17
f 4/7/1 6/8/1 15/33/1
f 15/33/2 6/8/2 4/7/2
f 15/33/1 6/8/1 16/34/1
f 16/34/2 6/8/2 15/33/2
f 17/35/19 6/36/20 16/37/19
f 6/36/20 17/35/19 7/38/20
f 16/37/21 6/36/22 17/35/21
f 7/38/22 17/35/21 6/36/22
f 18/39/23 7/40/24 17/41/25
f 7/40/24 18/39/23 9/42/24
f 9/42/26 18/39/27 7/40/26
f 14/43/1 9/19/1 18/44/1
f 11/17/1 9/19/1 14/43/1
f 9/19/2 10/18/2 11/17/2
f 14/43/2 9/19/2 11/17/2
f 18/44/2 9/19/2 14/43/2
f 14/43/1 18/44/1 19/45/1
f 19/45/2 18/44/2 14/43/2
f 19/45/1 18/44/1 20/46/1
f 20/46/2 18/44/2 19/45/2
f 17/47/25 20/48/28 18/49/23
f 21/50/29 20/51/28 17/52/25
f 17/52/30 20/51/31 21/50/32
f 18/49/27 20/48/31 17/47/30
f 17/41/30 7/40/26 18/39/27
f 22/53/1 20/46/1 21/54/1
f 19/45/1 20/46/1 22/53/1
f 22/53/2 20/46/2 19/45/2
f 21/54/2 20/46/2 22/53/2
f 22/53/1 21/54/1 23/55/1
f 23/55/2 21/54/2 22/53/2
f 23/55/1 21/54/1 24/56/1
f 24/56/2 21/54/2 23/55/2
f 25/57/33 24/58/34 21/59/29
f 21/59/32 24/58/35 25/57/36
f 26/60/37 24/61/34 25/62/33
f 27/63/1 24/56/1 26/64/1
f 23/55/1 24/56/1 27/63/1
f 27/63/2 24/56/2 23/55/2
f 26/64/2 24/56/2 27/63/2
f 25/62/36 24/61/35 26/60/38
f 28/65/39 26/66/37 25/67/33
f 26/66/37 28/65/39 29/68/40
f 25/67/36 26/66/38 28/65/41
f 29/68/42 28/65/41 26/66/38
f 28/69/39 27/70/43 29/71/40
f 28/72/39 23/73/44 27/74/43
f 28/75/39 30/76/45 23/77/44
f 31/78/46 30/79/47 28/80/46
f 30/79/47 31/78/46 32/81/47
f 32/81/48 31/78/49 30/79/48
f 32/82/1 33/83/1 31/84/1
f 32/82/1 16/34/1 33/83/1
f 15/33/1 16/34/1 32/82/1
f 32/82/2 16/34/2 15/33/2
f 33/83/2 16/34/2 32/82/2
f 25/85/50 16/86/19 33/87/50
f 16/86/19 25/85/50 17/88/19
f 33/87/51 16/86/21 25/85/51
f 17/88/21 25/85/51 16/86/21
f 25/89/33 21/90/29 17/91/25
f 17/91/30 21/90/32 25/89/36
f 33/92/50 34/93/52 25/94/50
f 34/93/52 33/92/50 35/95/52
f 35/95/53 33/92/51 34/93/53
f 31/84/1 33/83/1 35/96/1
f 31/84/2 33/83/2 32/82/2
f 35/96/2 33/83/2 31/84/2
f 31/84/1 35/96/1 36/97/1
f 36/97/2 35/96/2 31/84/2
f 36/97/1 35/96/1 37/98/1
f 37/98/2 35/96/2 36/97/2
f 37/99/54 34/100/52 35/101/52
f 34/100/52 37/99/54 38/102/54
f 35/101/53 34/100/53 37/99/55
f 38/102/55 37/99/55 34/100/53
f 39/103/56 38/104/54 37/105/54
f 38/104/54 39/103/56 40/106/56
f 37/105/55 38/104/55 39/103/57
f 40/106/57 39/103/57 38/104/55
f 41/107/58 40/108/56 39/109/56
f 40/108/56 41/107/58 42/110/58
f 39/109/57 40/108/57 41/107/59
f 42/110/59 41/107/59 40/108/57
f 43/111/60 42/112/58 41/113/58
f 42/112/58 43/111/60 44/114/60
f 41/113/59 42/112/59 43/111/61
f 44/114/61 43/111/61 42/112/59
f 36/115/62 44/116/60 43/117/60
f 44/116/60 36/115/62 45/118/62
f 43/117/61 44/116/61 36/115/63
f 45/118/63 36/115/63 44/116/61
f 31/119/46 45/120/62 36/121/62
f 45/120/62 31/119/46 28/122/46
f 36/121/63 45/120/63 31/119/49
f 28/122/49 31/119/49 45/120/63
f 28/80/49 30/79/48 31/78/49
f 23/77/64 30/76/65 28/75/41
f 23/123/44 30/124/45 22/125/66
f 22/125/67 30/124/65 23/123/64
f 30/126/45 19/127/68 22/128/66
f 22/128/67 19/127/69 30/126/65
f 13/129/12 19/130/68 30/131/45
f 19/130/68 13/129/12 14/132/12
f 14/132/14 13/129/14 19/130/69
f 14/28/14 11/25/13 13/26/14
f 30/131/65 19/130/69 13/129/14
f 32/133/47 13/134/15 30/135/47
f 13/134/15 32/133/47 15/136/15
f 15/136/18 32/133/48 13/134/18
f 30/135/48 13/134/18 32/133/48
f 13/31/18 5/30/17 15/29/18
f 27/74/70 23/73/64 28/72/41
f 29/71/42 27/70/70 28/69/41
f 27/63/1 26/64/1 29/137/1
f 29/137/2 26/64/2 27/63/2
f 28/84/1 34/96/1 45/97/1
f 34/96/1 28/84/1 25/83/1
f 25/83/2 28/84/2 34/96/2
f 45/97/2 34/96/2 28/84/2
f 45/97/1 34/96/1 38/98/1
f 38/98/2 34/96/2 45/97/2
f 45/97/1 38/98/1 44/138/1
f 44/138/2 38/98/2 45/97/2
f 44/138/1 38/98/1 40/139/1
f 40/139/2 38/98/2 44/138/2
f 44/138/1 40/139/1 42/140/1
f 42/140/2 40/139/2 44/138/2
f 25/94/51 34/93/53 33/92/51
f 36/97/1 37/98/1 43/138/1
f 43/138/2 37/98/2 36/97/2
f 43/138/1 37/98/1 39/139/1
f 39/139/2 37/98/2 43/138/2
f 43/138/1 39/139/1 41/140/1
f 41/140/2 39/139/2 43/138/2
f 7/15/8 8/14/8 9/13/8
f 5/6/4 3/3/4 4/4/4