mtllib new-4.mtl
v -0.010575 -0.605362 0.235483
v -0.085813 -0.605362 0.157847
v -0.357101 -0.605362 0.558623
v -0.366245 -0.605362 0.565145
v -0.376765 -0.605362 0.569079
v -0.387944 -0.605362 0.570155
v -0.399022 -0.605362 0.568301
v -0.409242 -0.605362 0.563644
v -0.417908 -0.605362 0.556500
v -0.422929 -0.605362 0.504359
v -0.424430 -0.605362 0.547356
v -0.427586 -0.605362 0.514579
v -0.428363 -0.605362 0.536836
v -0.429440 -0.605362 0.525657
v -0.427586 -0.553734 0.514579
v -0.429440 -0.553734 0.525657
v -0.428363 -0.553734 0.536836
v -0.424430 -0.553734 0.547356
v -0.417908 -0.553734 0.556500
v -0.409242 -0.553734 0.563644
v -0.422929 -0.553734 0.504359
v -0.085813 -0.553734 0.157847
v -0.010575 -0.553734 0.235483
v -0.047833 -0.536525 0.149361
v -0.405077 -0.536525 0.516563
v -0.402192 -0.536525 0.541845
v -0.405457 -0.536525 0.537268
v -0.407036 -0.536525 0.520862
v -0.407425 -0.536525 0.532002
v -0.407964 -0.536525 0.526407
v -0.399022 -0.553734 0.568301
v -0.397854 -0.536525 0.545420
v -0.392739 -0.536525 0.547752
v -0.387944 -0.553734 0.570155
v -0.387194 -0.536525 0.548679
v -0.381599 -0.536525 0.548141
v -0.376765 -0.553734 0.569079
v -0.376333 -0.536525 0.546172
v -0.366245 -0.553734 0.565145
v -0.370610 -0.536525 0.542089
v -0.001597 -0.536525 0.197980
v -0.357101 -0.553734 0.558623
v -0.415785 -0.605362 0.495693
vn 0.000000 1.000000 0.000000
vn 0.000000 -1.000000 0.000000
vn -0.999391 0.000000 -0.034899
vn -0.956305 0.000000 -0.292372
vn 0.999391 0.000000 0.034899
vn 0.956305 0.000000 0.292372
vn -0.974370 0.000000 0.224951
vn 0.974370 0.000000 -0.224951
vn -0.882948 0.000000 0.469472
vn 0.882948 0.000000 -0.469472
vn -0.731354 0.000000 0.681998
vn 0.731354 0.000000 -0.681998
vn -0.529919 0.000000 0.848048
vn 0.529919 0.000000 -0.848048
vn -0.909961 0.000000 -0.414693
vn 0.909961 0.000000 0.414693
vn -0.716758 0.000000 -0.697322
vn 0.716758 0.000000 0.697322
vn -0.450388 0.777916 -0.438175
vn -0.514071 0.782456 -0.351416
vn 0.514071 -0.782456 0.351416
vn 0.450388 -0.777916 0.438175
vn -0.949440 0.270778 -0.158882
vn -0.738871 0.660480 0.133554
vn -0.839484 0.529686 0.121242
vn 0.839484 -0.529686 -0.121242
vn 0.738871 -0.660480 -0.133554
vn 0.949440 -0.270778 0.158882
vn -0.558546 0.750824 0.352547
vn 0.558546 -0.750824 -0.352547
vn -0.779499 0.529686 0.334385
vn 0.779499 -0.529686 -0.334385
vn -0.494653 0.701534 0.513000
vn 0.494653 -0.701534 -0.513000
vn -0.796162 0.443867 0.411229
vn 0.796162 -0.443867 -0.411229
vn -0.548835 0.669145 0.501025
vn 0.548835 -0.669145 -0.501025
vn -0.275404 0.760922 0.587495
vn 0.275404 -0.760922 -0.587495
vn -0.107416 0.777008 0.620258
vn -0.194338 0.757387 0.623376
vn 0.194338 -0.757387 -0.623376
vn 0.107416 -0.777008 -0.620258
vn -0.021816 0.780546 0.624717
vn 0.021816 -0.780546 -0.624717
vn 0.140616 0.780546 0.609077
vn -0.140616 -0.780546 -0.609077
vn 0.293466 0.780546 0.551929
vn 0.345858 0.774687 0.529379
vn -0.293466 -0.780546 -0.551929
vn 0.406313 0.767451 0.495911
vn 0.446891 0.755398 0.479232
vn -0.345858 -0.774687 -0.529379
vn -0.406313 -0.767451 -0.495911
vn -0.446891 -0.755398 -0.479232
vn 0.224951 0.000000 0.974370
vn 0.469472 0.000000 0.882948
vn -0.469472 0.000000 -0.882948
vn -0.224951 0.000000 -0.974370
vn -0.034899 0.000000 0.999391
vn 0.034899 0.000000 -0.999391
vn -0.292372 0.000000 0.956305
vn 0.292372 0.000000 -0.956305
vn 0.580703 0.000000 0.814116
vn -0.580703 0.000000 -0.814116
vn 0.278728 0.906195 0.317997
vn 0.112481 0.981061 0.157693
vn -0.278728 -0.906195 -0.317997
vn -0.112481 -0.981061 -0.157693
vn 0.428546 0.777916 0.459559
vn -0.428546 -0.777916 -0.459559
vn 0.681998 0.000000 0.731354
vn -0.681998 0.000000 -0.731354
vn -0.571790 0.777916 -0.260580
vn 0.571790 -0.777916 0.260580
vn -0.423808 0.904832 0.040808
vn -0.766951 0.637443 0.073849
vn 0.766951 -0.637443 -0.073849
vn 0.423808 -0.904832 -0.040808
vt 15.841501 13.798085
vt 13.655534 16.053699
vt 5.773531 4.409551
vt 5.507872 4.220059
vt 5.202222 4.105781
vt 4.877408 4.074505
vt 4.555568 4.128362
vt 4.258634 4.263683
vt 4.006841 4.471245
vt 3.860973 5.986142
vt 3.817348 4.736904
vt 3.725652 5.689208
vt 3.703070 5.042554
vt 3.671794 5.367368
vt -5.899778 0.000000
vt -6.226094 1.500000
vt -6.226094 0.000000
vt -5.899778 1.500000
vt -4.664416 0.000000
vt -4.990731 1.500000
vt -4.990731 0.000000
vt -4.664416 1.500000
vt -3.100062 0.000000
vt -3.426378 1.500000
vt -3.426378 0.000000
vt -3.100062 1.500000
vt -1.313326 0.000000
vt -1.639641 1.500000
vt -1.639641 0.000000
vt -1.313326 1.500000
vt 0.247715 0.000000
vt 0.574030 1.500000
vt 0.247715 1.500000
vt 0.574030 0.000000
vt -6.721961 0.000000
vt -7.048277 1.500000
vt -7.048277 0.000000
vt -6.721961 1.500000
vt -21.028921 1.500000
vt -6.982956 0.000000
vt -6.982956 1.500000
vt -21.028921 0.000000
vt -21.028921 -0.151888
vt -7.090502 0.643824
vt -21.975124 0.643824
vt -6.982956 -0.151888
vt 4.379638 5.631586
vt 4.463453 4.897043
vt 14.759014 16.300257
vt 4.368607 5.030013
vt 4.322710 5.506669
vt 4.311407 5.183000
vt 4.295753 5.345578
vt -6.144601 2.833627
vt -5.071244 2.314223
vt -5.981271 2.833627
vt -0.085497 6.931984
vt 0.247715 5.938556
vt 0.574030 5.938556
vt -4.909239 3.221859
vt -3.835882 2.702455
vt -4.745909 3.221859
vt 2.433387 5.633549
vt 1.773859 6.626977
vt 2.107071 5.633549
vt -3.344885 3.510285
vt -2.271529 2.990881
vt -3.181555 3.510285
vt -1.558149 5.467939
vt -0.715532 4.845102
vt -1.394819 5.467939
vt 0.492538 6.199260
vt 0.329208 6.199260
vt 0.889227 5.467321
vt 4.589483 4.793153
vt 4.738107 4.725421
vt 2.748583 5.209541
vt 2.351894 5.941480
vt 2.188564 5.941480
vt 4.056538 5.490645
vt 3.893208 5.490645
vt 4.138030 4.694933
vt 4.899198 4.698463
vt 5.061776 4.714118
vt 5.326970 4.529636
vt 5.571793 3.733924
vt 5.490301 4.529636
vt 5.245478 3.733924
vt 6.310651 2.516988
vt 6.555474 3.312700
vt 6.392144 3.312700
vt 6.636966 2.516988
vt 5.214763 4.771317
vt 5.381047 4.889927
vt 6.934645 1.127056
vt 7.220389 1.922768
vt 7.016137 1.922768
vt 21.929878 1.239828
vt 7.270371 1.239828
vt 6.906276 0.476780
vt 6.310651 0.000000
vt 6.636966 1.500000
vt 6.310651 1.500000
vt 6.636966 0.000000
vt 5.571793 1.500000
vt 5.245478 0.000000
vt 5.571793 0.000000
vt 5.245478 1.500000
vt 4.138030 1.500000
vt 3.811715 0.000000
vt 4.138030 0.000000
vt 3.811715 1.500000
vt 2.433387 1.500000
vt 2.107071 0.000000
vt 2.433387 0.000000
vt 2.107071 1.500000
vt 4.138030 4.752251
vt 3.735443 5.581274
vt 3.811715 4.752251
vt 7.260960 1.500000
vt 6.934645 0.000000
vt 7.260960 0.000000
vt 6.934645 1.500000
vt 21.754482 3.104568
vt 6.934645 0.523233
vt 7.260960 0.523233
vt 21.929878 1.183923
vt 7.229800 0.388211
vt 20.996012 0.388211
vt 7.229800 0.000000
vt 20.996012 1.500000
vt 7.229800 1.500000
vt 20.996012 0.000000
vt 16.102331 14.887687
vt -6.940731 2.540236
vt -7.048277 1.744523
vt -6.803454 2.540236
vt -5.588525 3.971295
vt -4.066622 3.971295
vt -5.067004 4.620226
vt -13.655534 16.053699
vt -3.860973 5.986142
vt -4.068535 6.237935
usemtl material-0
f 2/2/1 3/3/1 1/1/1
f 2/2/1 4/4/1 3/3/1
f 2/2/1 5/5/1 4/4/1
f 2/2/1 6/6/1 5/5/1
f 2/2/1 7/7/1 6/6/1
f 2/2/1 8/8/1 7/7/1
f 2/2/1 9/9/1 8/8/1
f 10/10/1 9/9/1 2/2/1
f 10/10/1 11/11/1 9/9/1
f 12/12/1 11/11/1 10/10/1
f 12/12/1 13/13/1 11/11/1
f 13/13/1 12/12/1 14/14/1
f 14/14/2 12/12/2 13/13/2
f 14/15/3 15/16/4 12/17/4
f 15/16/4 14/15/3 16/18/3
f 16/18/5 14/15/5 15/16/6
f 13/19/7 16/20/3 14/21/3
f 16/20/3 13/19/7 17/22/7
f 17/22/8 13/19/8 16/20/5
f 11/23/9 17/24/7 13/25/7
f 17/24/7 11/23/9 18/26/9
f 18/26/10 11/23/10 17/24/8
f 9/27/11 18/28/9 11/29/9
f 18/28/9 9/27/11 19/30/11
f 19/30/12 9/27/12 18/28/10
f 9/31/11 20/32/13 19/33/11
f 20/32/13 9/31/11 8/34/13
f 8/34/14 9/31/12 20/32/14
f 8/8/2 9/9/2 2/2/2
f 2/2/2 9/9/2 10/10/2
f 9/9/2 11/11/2 10/10/2
f 11/29/10 18/28/10 9/27/12
f 10/10/2 11/11/2 12/12/2
f 11/11/2 13/13/2 12/12/2
f 13/25/8 17/24/8 11/23/10
f 12/35/4 21/36/15 10/37/15
f 21/36/15 12/35/4 15/38/4
f 15/38/6 12/35/6 21/36/16
f 12/17/6 15/16/6 14/15/5
f 10/37/16 21/36/16 12/35/6
f 22/39/17 10/40/17 21/41/17
f 10/40/17 22/39/17 2/42/17
f 21/41/18 10/40/18 22/39/18
f 2/42/18 22/39/18 10/40/18
f 22/43/19 25/44/20 24/45/19
f 25/44/20 22/43/19 21/46/20
f 21/46/21 22/43/22 25/44/21
f 24/45/22 25/44/21 22/43/22
f 25/47/1 26/48/1 24/49/1
f 25/47/1 27/50/1 26/48/1
f 28/51/1 27/50/1 25/47/1
f 28/51/1 29/52/1 27/50/1
f 29/52/1 28/51/1 30/53/1
f 30/53/2 28/51/2 29/52/2
f 28/54/23 19/55/24 30/56/25
f 30/56/26 19/55/27 28/54/28
f 30/57/25 19/58/24 20/59/29
f 20/59/30 19/58/27 30/57/26
f 19/33/12 20/32/14 9/31/12
f 30/60/25 20/61/29 29/62/31
f 29/62/32 20/61/30 30/60/26
f 31/63/33 29/64/31 20/65/29
f 20/65/30 29/64/32 31/63/34
f 29/66/31 31/67/33 27/68/35
f 27/68/36 31/67/34 29/66/32
f 27/69/35 31/70/33 26/71/37
f 26/71/38 31/70/34 27/69/36
f 32/72/39 26/73/37 31/74/33
f 31/74/34 26/73/38 32/72/40
f 24/49/1 26/48/1 32/75/1
f 24/49/2 26/48/2 25/47/2
f 32/75/2 26/48/2 24/49/2
f 24/49/1 32/75/1 33/76/1
f 33/76/2 32/75/2 24/49/2
f 34/77/41 33/78/42 32/79/39
f 32/79/40 33/78/43 34/77/44
f 35/80/45 33/81/42 34/82/41
f 34/82/44 33/81/43 35/80/46
f 24/49/1 33/76/1 35/83/1
f 35/83/2 33/76/2 24/49/2
f 24/49/1 35/83/1 36/84/1
f 36/84/2 35/83/2 24/49/2
f 35/85/45 37/86/47 36/87/47
f 37/86/47 35/85/45 34/88/41
f 34/88/44 35/85/46 37/86/48
f 36/87/48 37/86/48 35/85/46
f 37/89/47 38/90/49 36/91/47
f 38/90/49 37/89/47 39/92/50
f 36/91/48 38/90/51 37/89/48
f 24/49/1 36/84/1 38/93/1
f 38/93/2 36/84/2 24/49/2
f 24/49/1 38/93/1 40/94/1
f 40/94/2 38/93/2 24/49/2
f 39/95/50 40/96/52 38/97/49
f 41/98/53 40/99/52 39/100/50
f 39/100/54 40/99/55 41/98/56
f 38/97/51 40/96/55 39/95/54
f 39/92/54 37/89/48 38/90/51
f 5/101/57 39/102/58 37/103/57
f 39/102/58 5/101/57 4/104/58
f 4/104/59 5/101/60 39/102/59
f 4/4/2 5/5/2 2/2/2
f 5/5/2 6/6/2 2/2/2
f 37/105/57 6/106/61 5/107/57
f 6/106/61 37/105/57 34/108/61
f 5/107/60 6/106/62 37/105/60
f 34/108/62 37/105/60 6/106/62
f 34/109/61 7/110/63 6/111/61
f 7/110/63 34/109/61 31/112/63
f 6/111/62 7/110/64 34/109/62
f 6/6/2 7/7/2 2/2/2
f 7/7/2 8/8/2 2/2/2
f 31/113/63 8/114/13 7/115/63
f 8/114/13 31/113/63 20/116/13
f 7/115/64 8/114/14 31/113/64
f 20/116/14 31/113/64 8/114/14
f 31/112/64 34/109/62 7/110/64
f 34/117/41 32/118/39 31/119/33
f 31/119/34 32/118/40 34/117/44
f 37/103/60 39/102/59 5/101/60
f 3/3/2 4/4/2 2/2/2
f 42/120/65 4/121/58 3/122/65
f 4/121/58 42/120/65 39/123/58
f 3/122/66 4/121/59 42/120/66
f 39/123/59 42/120/66 4/121/59
f 41/124/67 39/125/68 42/126/67
f 42/126/69 39/125/70 41/124/69
f 41/127/67 42/128/67 23/129/71
f 23/129/72 42/128/69 41/127/69
f 3/130/73 23/131/73 42/132/73
f 23/131/73 3/130/73 1/133/73
f 1/133/74 3/130/74 23/131/74
f 1/1/2 3/3/2 2/2/2
f 42/132/74 23/131/74 3/130/74
f 24/49/1 40/94/1 41/134/1
f 41/134/2 40/94/2 24/49/2
f 26/48/2 27/50/2 25/47/2
f 25/47/2 27/50/2 28/51/2
f 27/50/2 29/52/2 28/51/2
f 25/135/20 21/136/20 28/137/75
f 28/137/76 21/136/21 25/135/21
f 21/138/77 19/139/77 28/140/78
f 28/140/79 19/139/80 21/138/80
f 21/10/77 18/11/1 19/9/77
f 15/12/1 18/11/1 21/10/77
f 15/12/1 17/13/1 18/11/1
f 17/13/1 15/12/1 16/14/1
f 16/14/2 15/12/2 17/13/2
f 18/11/2 17/13/2 15/12/2
f 21/10/80 18/11/2 15/12/2
f 19/9/80 18/11/2 21/10/80
f 2/141/2 10/142/2 43/143/2
f 43/143/1 10/142/1 2/141/1
f 14/21/5 16/20/5 13/19/8