mtllib new-0.mtl
v 0.171683 -0.536525 0.672118
v 0.156709 -0.553734 0.690462
v 0.163913 -0.553734 0.699078
v 0.163913 -0.605362 0.699078
v 0.156709 -0.605362 0.690462
v 0.173102 -0.553734 0.705536
v 0.173102 -0.605362 0.705536
v 0.234089 -0.605362 0.654543
v 0.151980 -0.605362 0.680274
v 0.086386 -0.605362 0.183221
v 0.069264 -0.605362 0.075386
v -0.010575 -0.605362 0.235483
v -0.010575 -0.553734 0.235483
v 0.151980 -0.553734 0.680274
v 0.086386 -0.553734 0.183221
v 0.058762 -0.536525 0.166318
v -0.001597 -0.536525 0.197980
v 0.213342 -0.536525 0.659581
v 0.174853 -0.536525 0.678947
v 0.183649 -0.553734 0.709396
v 0.178459 -0.536525 0.683260
v 0.183058 -0.536525 0.686493
v 0.188337 -0.536525 0.688424
v 0.193936 -0.536525 0.688924
v 0.194836 -0.553734 0.710394
v 0.199474 -0.536525 0.687958
v 0.205900 -0.553734 0.708463
v 0.204573 -0.536525 0.685591
v 0.208886 -0.536525 0.681985
v 0.216088 -0.553734 0.703734
v 0.212119 -0.536525 0.677385
v 0.214050 -0.536525 0.672106
v 0.214550 -0.536525 0.666507
v 0.234089 -0.553734 0.654543
v 0.236020 -0.553734 0.665607
v 0.236020 -0.605362 0.665607
v 0.235022 -0.553734 0.676794
v 0.235022 -0.605362 0.676794
v 0.231162 -0.553734 0.687341
v 0.231162 -0.605362 0.687341
v 0.224704 -0.553734 0.696530
v 0.224704 -0.605362 0.696530
v 0.216088 -0.605362 0.703734
v 0.205900 -0.605362 0.708463
v 0.194836 -0.605362 0.710394
v 0.183649 -0.605362 0.709396
vn -0.526503 0.768295 0.364029
vn -0.514922 0.793575 0.324182
vn -0.385918 0.824026 0.414788
vn 0.385918 -0.824026 -0.414788
vn 0.514922 -0.793575 -0.324182
vn 0.526503 -0.768295 -0.364029
vn -0.844328 0.000000 0.535827
vn -0.676876 0.000000 0.736097
vn 0.676876 0.000000 -0.736097
vn 0.844328 0.000000 -0.535827
vn -0.463296 0.000000 0.886204
vn 0.463296 0.000000 -0.886204
vn 0.000000 1.000000 0.000000
vn 0.000000 -1.000000 0.000000
vn -0.939241 0.000000 0.343258
vn 0.939241 0.000000 -0.343258
vn -0.907044 0.000000 0.421036
vn 0.907044 0.000000 -0.421036
vn -0.590189 0.777916 0.215692
vn 0.590189 -0.777916 -0.215692
vn -0.569957 0.777916 0.264565
vn 0.569957 -0.777916 -0.264565
vn -0.426455 0.783319 0.452269
vn -0.531678 0.700009 0.476766
vn 0.426455 -0.783319 -0.452269
vn 0.531678 -0.700009 -0.476766
vn -0.301380 0.759834 0.576040
vn -0.508779 0.669145 0.541654
vn 0.508779 -0.669145 -0.541654
vn 0.301380 -0.759834 -0.576040
vn -0.305692 0.757387 0.576989
vn -0.136361 0.780546 0.610044
vn 0.305692 -0.757387 -0.576989
vn 0.136361 -0.780546 -0.610044
vn 0.026176 0.780546 0.624550
vn -0.026176 -0.780546 -0.624550
vn 0.186930 0.780546 0.596494
vn 0.268272 0.777008 0.569463
vn -0.186930 -0.780546 -0.596494
vn 0.352901 0.757387 0.549386
vn -0.352901 -0.757387 -0.549386
vn -0.268272 -0.777008 -0.569463
vn 0.421528 0.760922 0.493266
vn -0.421528 -0.760922 -0.493266
vn 0.689505 0.643528 0.332347
vn -0.689505 -0.643528 -0.332347
vn 0.662179 0.669145 0.337289
vn 0.876780 0.443867 0.185038
vn -0.662179 -0.669145 -0.337289
vn -0.876780 -0.443867 -0.185038
vn 0.803772 0.588887 0.084633
vn -0.803772 -0.588887 -0.084633
vn 0.685997 0.723183 0.080094
vn -0.685997 -0.723183 -0.080094
vn 0.619011 0.777916 -0.108035
vn 0.599614 0.777916 -0.187908
vn -0.599614 -0.777916 0.187908
vn -0.619011 -0.777916 0.108035
vn 0.954240 0.000000 -0.299041
vn -0.954240 0.000000 0.299041
vn 0.999123 0.000000 -0.041876
vn 0.985109 0.000000 -0.171929
vn -0.999123 0.000000 0.041876
vn -0.985109 0.000000 0.171929
vn 0.975917 0.000000 0.218143
vn -0.975917 0.000000 -0.218143
vn 0.886204 0.000000 0.463296
vn -0.886204 0.000000 -0.463296
vn 0.736097 0.000000 0.676876
vn -0.736097 0.000000 -0.676876
vn 0.535827 0.000000 0.844328
vn -0.535827 0.000000 -0.844328
vn -0.218143 0.000000 0.975917
vn 0.218143 0.000000 -0.975917
vn 0.041876 0.000000 0.999123
vn -0.041876 0.000000 -0.999123
vn 0.299041 0.000000 0.954240
vn -0.299041 0.000000 -0.954240
vt 12.705060 14.797364
vt 12.834860 13.956856
vt 13.161176 13.956856
vt 12.834860 1.500000
vt 13.161176 0.000000
vt 13.161176 1.500000
vt 12.834860 0.000000
vt 16.919346 0.000000
vt 17.245661 1.500000
vt 16.919346 1.500000
vt 17.245661 0.000000
vt 22.949978 1.622705
vt 20.911083 0.328782
vt 21.178057 0.141149
vt 20.701769 0.579120
vt 20.564377 0.875103
vt 18.658604 15.316494
vt 18.161139 18.449539
vt 6.236958 0.000000
vt -7.522004 1.500000
vt -7.522004 0.000000
vt 6.236958 1.500000
vt 8.190898 0.000000
vt 7.864583 1.500000
vt 7.864583 0.000000
vt 8.190898 1.500000
vt 17.856024 15.807589
vt 6.236958 16.201611
vt -8.455870 16.997322
vt -7.522004 16.201611
vt 6.210882 16.997322
vt 7.890659 16.535202
vt 7.864583 15.739490
vt 8.190898 15.739490
vt 16.102331 14.887687
vt 21.136814 1.112070
vt 22.347174 1.476314
vt 21.228914 0.913658
vt 7.890659 13.316585
vt 8.788692 12.693748
vt 8.109406 13.316585
vt 17.245661 11.129008
vt 16.653631 12.047644
vt 16.919346 11.129008
vt 20.166000 6.985447
vt 19.621964 7.880966
vt 19.839685 6.985447
vt 12.916353 11.666034
vt 13.758970 11.043197
vt 13.079683 11.666034
vt 17.560858 10.064021
vt 17.164167 10.795959
vt 17.000837 10.795959
vt 20.084509 7.503089
vt 19.921177 7.503089
vt 20.166000 6.707377
vt 21.467312 0.694441
vt 21.620693 0.638310
vt 21.333683 0.788356
vt 21.783377 0.623791
vt 21.478357 3.246443
vt 21.723181 2.450731
vt 21.641687 3.246443
vt 21.396864 2.450731
vt 21.484764 -1.974395
vt 21.729586 -1.178683
vt 21.566256 -1.178683
vt 21.811079 -1.974395
vt 21.944277 0.651873
vt 22.092422 0.720640
vt 20.097393 -6.266436
vt 20.342216 -5.470723
vt 20.178886 -5.470723
vt 17.574121 -8.579346
vt 17.410791 -8.579346
vt 17.014103 -9.311284
vt 22.217726 0.825409
vt 20.423708 -6.487187
vt 20.499981 -5.658164
vt 20.097393 -6.487187
vt 13.053927 -12.294218
vt 13.613947 -11.562280
vt 13.450616 -11.562280
vt 8.731568 -10.691556
vt 8.568238 -10.691556
vt 7.888951 -11.314393
vt 22.311642 0.959037
vt 22.367771 1.112420
vt 22.382290 1.275104
vt 3.259713 -4.080671
vt 3.096383 -4.080671
vt 2.186357 -4.600075
vt 9.410855 -12.227063
vt 8.889333 -11.578132
vt 7.888951 -12.227063
vt -2.347228 -16.861797
vt -2.387799 -16.066086
vt -2.592051 -16.066086
vt 9.035932 -16.471146
vt -5.273958 -15.675433
vt -5.314529 -16.471146
vt 9.744560 -15.675433
vt -5.314529 1.500000
vt 9.035932 0.000000
vt 9.035932 1.500000
vt -5.314529 0.000000
vt -2.673543 1.500000
vt -2.347228 0.000000
vt -2.347228 1.500000
vt -2.673543 0.000000
vt 3.014890 1.500000
vt 3.341206 0.000000
vt 3.341206 1.500000
vt 3.014890 0.000000
vt 8.486745 1.500000
vt 8.813061 0.000000
vt 8.813061 1.500000
vt 8.486745 0.000000
vt 13.369124 1.500000
vt 13.695439 0.000000
vt 13.695439 1.500000
vt 13.369124 0.000000
vt 17.655615 1.500000
vt 17.329300 0.000000
vt 17.655615 0.000000
vt 17.329300 1.500000
vt 22.426962 0.193494
vt 22.677299 0.402809
vt 22.130978 0.056103
vt 21.809523 0.000000
vt 21.484497 0.029008
vt 20.166000 1.500000
vt 19.839685 0.000000
vt 20.166000 0.000000
vt 19.839685 1.500000
vt 21.396864 0.000000
vt 21.723181 1.500000
vt 21.396864 1.500000
vt 21.723181 0.000000
vt 21.811079 1.500000
vt 21.484764 0.000000
vt 21.811079 0.000000
vt 21.484764 1.500000
vt 20.097393 0.000000
vt 20.423708 1.500000
vt 20.097393 1.500000
vt 20.423708 0.000000
vt 22.864931 0.669783
vt 22.977074 0.976224
vt 23.006081 1.301248
usemtl material-0
f 1/1/1 2/2/2 3/3/3
f 3/3/4 2/2/5 1/1/6
f 2/4/7 4/5/8 3/6/8
f 4/5/8 2/4/7 5/7/7
f 3/6/9 4/5/9 2/4/10
f 4/8/8 6/9/11 3/10/8
f 6/9/11 4/8/8 7/11/11
f 7/11/12 4/8/9 6/9/12
f 8/12/13 4/13/13 7/14/13
f 8/12/13 5/15/13 4/13/13
f 8/12/13 9/16/13 5/15/13
f 10/17/13 9/16/13 8/12/13
f 11/18/13 9/16/13 10/17/13
f 9/19/15 13/20/15 12/21/15
f 13/20/15 9/19/15 14/22/15
f 14/22/16 9/19/16 13/20/16
f 5/23/7 14/24/17 9/25/17
f 14/24/17 5/23/7 2/26/7
f 2/26/10 5/23/10 14/24/18
f 5/7/10 2/4/10 4/5/9
f 4/13/14 5/15/14 8/12/14
f 5/15/14 9/16/14 8/12/14
f 9/25/18 14/24/18 5/23/10
f 8/12/14 9/16/14 10/17/14
f 10/17/14 9/16/14 11/18/14
f 12/21/16 13/20/16 9/19/16
f 14/28/19 17/29/19 13/30/19
f 17/29/19 14/28/19 1/31/19
f 13/30/20 17/29/20 14/28/20
f 1/31/20 14/28/20 17/29/20
f 1/32/1 14/33/21 2/34/2
f 2/34/5 14/33/22 1/32/6
f 16/27/13 17/35/13 1/36/13
f 1/36/14 17/35/14 16/27/14
f 16/27/13 1/36/13 18/37/13
f 18/37/14 1/36/14 16/27/14
f 18/37/13 1/36/13 19/38/13
f 19/38/14 1/36/14 18/37/14
f 1/39/1 6/40/23 19/41/24
f 6/42/23 1/43/1 3/44/3
f 3/44/4 1/43/6 6/42/25
f 19/41/26 6/40/25 1/39/6
f 20/45/27 19/46/24 6/47/23
f 19/48/24 20/49/27 21/50/28
f 21/50/29 20/49/30 19/48/26
f 20/51/27 22/52/31 21/53/28
f 23/54/32 22/55/31 20/56/27
f 18/37/13 22/57/13 23/58/13
f 18/37/13 21/59/13 22/57/13
f 18/37/13 19/38/13 21/59/13
f 21/59/14 19/38/14 18/37/14
f 22/57/14 21/59/14 18/37/14
f 21/53/29 22/52/33 20/51/30
f 20/56/30 22/55/33 23/54/34
f 23/58/14 22/57/14 18/37/14
f 18/37/13 23/58/13 24/60/13
f 24/60/14 23/58/14 18/37/14
f 23/61/32 25/62/35 24/63/35
f 25/62/35 23/61/32 20/64/27
f 20/64/30 23/61/34 25/62/36
f 24/63/36 25/62/36 23/61/34
f 25/65/35 26/66/37 24/67/35
f 26/66/37 25/65/35 27/68/38
f 24/67/36 26/66/39 25/65/36
f 18/37/13 24/60/13 26/69/13
f 26/69/14 24/60/14 18/37/14
f 18/37/13 26/69/13 28/70/13
f 28/70/14 26/69/14 18/37/14
f 27/71/38 28/72/40 26/73/37
f 26/73/39 28/72/41 27/71/42
f 29/74/43 28/75/40 27/76/38
f 18/37/13 28/70/13 29/77/13
f 29/77/14 28/70/14 18/37/14
f 27/76/42 28/75/41 29/74/44
f 30/78/45 29/79/43 27/80/38
f 27/80/42 29/79/44 30/78/46
f 30/81/45 31/82/47 29/83/43
f 32/84/48 31/85/47 30/86/45
f 30/86/46 31/85/49 32/84/50
f 29/83/44 31/82/49 30/81/46
f 18/37/13 29/77/13 31/87/13
f 31/87/14 29/77/14 18/37/14
f 18/37/13 31/87/13 32/88/13
f 32/88/14 31/87/14 18/37/14
f 18/37/13 32/88/13 33/89/13
f 33/89/14 32/88/14 18/37/14
f 33/90/51 32/91/48 30/92/45
f 30/92/46 32/91/50 33/90/52
f 34/93/53 33/94/51 30/95/45
f 30/95/46 33/94/52 34/93/54
f 34/96/53 18/97/55 33/98/51
f 15/99/56 18/100/56 34/101/56
f 18/100/56 15/99/56 16/102/56
f 16/102/57 15/99/57 18/100/57
f 34/101/57 18/100/57 15/99/57
f 33/98/52 18/97/58 34/96/54
f 34/103/59 10/104/59 15/105/59
f 10/104/59 34/103/59 8/106/59
f 8/106/60 34/103/60 10/104/60
f 35/107/61 8/108/62 34/109/62
f 8/108/62 35/107/61 36/110/61
f 36/110/63 35/107/63 8/108/64
f 37/111/65 36/112/61 35/113/61
f 36/112/61 37/111/65 38/114/65
f 38/114/66 37/111/66 36/112/63
f 39/115/67 38/116/65 37/117/65
f 38/116/65 39/115/67 40/118/67
f 40/118/68 39/115/68 38/116/66
f 41/119/69 40/120/67 39/121/67
f 40/120/67 41/119/69 42/122/69
f 42/122/70 41/119/70 40/120/68
f 41/123/69 43/124/71 42/125/69
f 43/124/71 41/123/69 30/126/71
f 42/125/70 43/124/72 41/123/70
f 8/12/13 43/127/13 42/128/13
f 8/12/13 44/129/13 43/127/13
f 8/12/13 45/130/13 44/129/13
f 8/12/13 46/131/13 45/130/13
f 8/12/13 7/14/13 46/131/13
f 7/14/14 4/13/14 8/12/14
f 46/131/14 7/14/14 8/12/14
f 20/132/73 7/133/11 46/134/73
f 7/133/11 20/132/73 6/135/11
f 46/134/74 7/133/12 20/132/74
f 6/135/12 20/132/74 7/133/12
f 6/47/25 19/46/26 20/45/30
f 46/136/73 25/137/75 20/138/73
f 25/137/75 46/136/73 45/139/75
f 45/139/76 46/136/74 25/137/76
f 45/130/14 46/131/14 8/12/14
f 44/129/14 45/130/14 8/12/14
f 27/140/77 45/141/75 44/142/77
f 45/141/75 27/140/77 25/143/75
f 44/142/78 45/141/76 27/140/78
f 25/143/76 27/140/78 45/141/76
f 27/68/42 25/65/36 26/66/39
f 44/144/77 30/145/71 27/146/77
f 30/145/71 44/144/77 43/147/71
f 43/147/72 44/144/78 30/145/72
f 43/127/14 44/129/14 8/12/14
f 42/128/14 43/127/14 8/12/14
f 8/12/13 42/128/13 40/148/13
f 40/148/14 42/128/14 8/12/14
f 8/12/13 40/148/13 38/149/13
f 38/149/14 40/148/14 8/12/14
f 8/12/13 38/149/13 36/150/13
f 36/150/14 38/149/14 8/12/14
f 27/146/78 30/145/72 44/144/78
f 30/126/72 41/123/70 43/124/72
f 41/128/13 34/12/13 30/127/13
f 34/12/13 41/128/13 39/148/13
f 30/127/14 34/12/14 41/128/14
f 39/148/14 41/128/14 34/12/14
f 39/121/68 40/120/68 41/119/70
f 34/12/13 39/148/13 37/149/13
f 37/149/14 39/148/14 34/12/14
f 37/117/66 38/116/66 39/115/68
f 34/12/13 37/149/13 35/150/13
f 35/150/14 37/149/14 34/12/14
f 35/113/63 36/112/63 37/111/66
f 34/109/64 8/108/64 35/107/63
f 20/138/74 25/137/76 46/136/74
f 15/105/60 10/104/60 34/103/60
f 3/10/9 6/9/12 4/8/9