# SSTK version 0.8.0
# 24
mtllib original-24.mtl
o mesh49/mesh49-geometry#mesh49-geometry
v 0.204581 -0.597633 0.685296
v 0.201987 -0.651413 0.686371
v 0.204581 -0.651413 0.685296
v 0.201987 -0.597633 0.686371
v 0.204581 -0.651413 0.666667
v 0.201987 -0.651413 0.665592
v 0.199203 -0.651413 0.686737
v 0.199203 -0.651413 0.665226
v 0.196419 -0.651413 0.686371
v 0.196419 -0.651413 0.665592
v 0.193825 -0.651413 0.685296
v 0.193825 -0.651413 0.666667
v 0.191598 -0.651413 0.683587
v 0.191598 -0.651413 0.668376
v 0.189888 -0.651413 0.681359
v 0.189888 -0.651413 0.670603
v 0.188814 -0.651413 0.678765
v 0.188814 -0.651413 0.673198
v 0.188447 -0.651413 0.675981
v 0.188447 -0.597633 0.675981
v 0.188814 -0.597633 0.678765
v 0.189888 -0.597633 0.681359
v 0.191598 -0.597633 0.683587
v 0.193825 -0.597633 0.685296
v 0.193825 -0.597633 0.666667
v 0.196419 -0.597633 0.665592
v 0.196419 -0.597633 0.686371
v 0.191598 -0.597633 0.668376
v 0.189888 -0.597633 0.670603
v 0.188814 -0.597633 0.673198
v 0.199203 -0.597633 0.665226
v 0.199203 -0.597633 0.686737
v 0.201987 -0.597633 0.665592
v 0.204581 -0.597633 0.666667
v 0.206809 -0.597633 0.683587
v 0.206809 -0.651413 0.683587
v 0.206809 -0.651413 0.668376
v 0.206809 -0.597633 0.668376
v 0.208518 -0.597633 0.681359
v 0.208518 -0.651413 0.681359
v 0.209593 -0.651413 0.678765
v 0.209593 -0.597633 0.678765
v 0.209959 -0.651413 0.675981
v 0.209959 -0.597633 0.675981
v 0.209593 -0.651413 0.673198
v 0.209593 -0.597633 0.673198
v 0.208518 -0.651413 0.670603
v 0.208518 -0.597633 0.670603
vt 1.663446 2.361153
vt 1.598182 1.111153
vt 1.663446 1.111153
vt 1.598182 2.361153
vt -1.520976 0.504292
vt -1.581271 0.96228
vt -1.581271 0.529267
vt -1.520976 0.987255
vt -1.456271 0.495773
vt -1.456271 0.995773
vt -1.391566 0.504292
vt -1.391566 0.987255
vt -1.331271 0.529267
vt -1.331271 0.96228
vt -1.279494 0.568996
vt -1.279494 0.92255
vt -1.239765 0.620773
vt -1.239765 0.870773
vt -1.21479 0.681068
vt -1.21479 0.810478
vt -1.206271 0.745773
vt -0.51668 1.111153
vt -0.581943 2.361153
vt -0.581943 1.111153
vt -0.51668 2.361153
vt -0.099082 1.111153
vt -0.164345 2.361153
vt -0.164345 1.111153
vt -0.099082 2.361153
vt 0.327492 1.111153
vt 0.262228 2.361153
vt 0.262228 1.111153
vt 0.327492 2.361153
vt 0.668708 1.111153
vt 0.733971 2.361153
vt 0.668708 2.361153
vt 0.733971 1.111153
vt -1.598182 2.361153
vt -1.663446 1.111153
vt -1.598182 1.111153
vt -1.663446 2.361153
vt 1.331271 0.96228
vt 1.391566 0.504292
vt 1.391566 0.987255
vt 1.331271 0.529267
vt 1.279494 0.92255
vt 1.279494 0.568996
vt 1.239765 0.870773
vt 1.239765 0.620773
vt 1.21479 0.810478
vt 1.21479 0.681068
vt 1.206271 0.745773
vt -0.962106 2.361153
vt -0.896843 1.111153
vt -0.896843 2.361153
vt -0.962106 1.111153
vt -1.278927 2.361153
vt -1.213664 1.111153
vt -1.213664 2.361153
vt -1.278927 1.111153
vt -1.510815 2.361153
vt -1.445552 1.111153
vt -1.445552 2.361153
vt -1.510815 1.111153
vt -1.576704 2.361153
vt -1.641967 1.111153
vt -1.576704 1.111153
vt -1.641967 2.361153
vt 1.027392 1.111153
vt 1.092655 2.361153
vt 1.027392 2.361153
vt 1.092655 1.111153
vt -1.508524 2.361153
vt -1.573787 1.111153
vt -1.508524 1.111153
vt -1.573787 2.361153
vt 1.456271 0.495773
vt 1.456271 0.995773
vt 1.313838 1.111153
vt 1.379101 2.361153
vt 1.313838 2.361153
vt 1.379101 1.111153
vt -1.313838 2.361153
vt -1.379101 1.111153
vt -1.313838 1.111153
vt -1.379101 2.361153
vt 1.520976 0.504292
vt 1.520976 0.987255
vt 1.508524 1.111153
vt 1.573787 2.361153
vt 1.508524 2.361153
vt 1.573787 1.111153
vt -1.027392 2.361153
vt -1.092655 1.111153
vt -1.027392 1.111153
vt -1.092655 2.361153
vt 1.581271 0.529267
vt 1.581271 0.96228
vt 1.633048 0.568996
vt 1.576704 1.111153
vt 1.641967 2.361153
vt 1.576704 2.361153
vt 1.641967 1.111153
vt -1.633048 0.92255
vt -1.633048 0.568996
vt -0.668708 2.361153
vt -0.733971 1.111153
vt -0.668708 1.111153
vt -0.733971 2.361153
vt 1.633048 0.92255
vt 1.672777 0.620773
vt 1.445552 2.361153
vt 1.510815 1.111153
vt 1.510815 2.361153
vt 1.445552 1.111153
vt 1.278927 1.111153
vt 1.213664 2.361153
vt 1.213664 1.111153
vt 1.278927 2.361153
vt 0.962106 1.111153
vt 0.896843 2.361153
vt 0.896843 1.111153
vt 0.962106 2.361153
vt 0.581943 1.111153
vt 0.51668 2.361153
vt 0.51668 1.111153
vt 0.581943 2.361153
vt 0.164345 1.111153
vt 0.099082 2.361153
vt 0.099082 1.111153
vt 0.164345 2.361153
vt -0.262228 1.111153
vt -0.327492 2.361153
vt -0.327492 1.111153
vt -0.262228 2.361153
vt 1.672777 0.870773
vt 1.697752 0.681068
vt 1.697752 0.810478
vt 1.706271 0.745773
vt -1.672777 0.870773
vt -1.672777 0.620773
vt -1.697752 0.810478
vt -1.697752 0.681068
vt -1.706271 0.745773
vn 0.5000001748438417 0 0.8660253028382762
vn 0.2588189595935754 0 0.965925849201117
vn -0.5000001748438417 0 -0.8660253028382762
vn -0.2588189595935754 0 -0.965925849201117
vn 0 -1 0
vn 0 1 0
vn -0.965925849201117 0 0.2588189595935754
vn -1 0 0
vn 0.965925849201117 0 -0.2588189595935754
vn 1 0 0
vn -0.8660253028382762 0 0.5000001748438417
vn 0.8660253028382762 0 -0.5000001748438417
vn -0.7071067811865476 0 0.7071067811865476
vn 0.7071067811865476 0 -0.7071067811865476
vn -0.5000001748438417 0 0.8660253028382762
vn 0.5000001748438417 0 -0.8660253028382762
vn -0.965925849201117 0 -0.2588189595935754
vn 0.965925849201117 0 0.2588189595935754
vn -0.8660253028382762 0 -0.5000001748438417
vn 0.8660253028382762 0 0.5000001748438417
vn -0.7071067811865476 0 -0.7071067811865476
vn 0.7071067811865476 0 0.7071067811865476
vn -0.2588189595935754 0 0.965925849201117
vn 0.2588189595935754 0 -0.965925849201117
vn 0 0 -1
vn 0 0 1
usemtl material_0_0
f 1/1/1 2/2/2 3/3/1
f 2/2/2 1/1/1 4/4/2
f 3/3/3 2/2/4 1/1/3
f 2/5/5 5/6/5 3/7/5
f 2/5/5 6/8/5 5/6/5
f 7/9/5 6/8/5 2/5/5
f 7/9/5 8/10/5 6/8/5
f 9/11/5 8/10/5 7/9/5
f 9/11/5 10/12/5 8/10/5
f 11/13/5 10/12/5 9/11/5
f 11/13/5 12/14/5 10/12/5
f 13/15/5 12/14/5 11/13/5
f 13/15/5 14/16/5 12/14/5
f 15/17/5 14/16/5 13/15/5
f 15/17/5 16/18/5 14/16/5
f 17/19/5 16/18/5 15/17/5
f 17/19/5 18/20/5 16/18/5
f 18/20/5 17/19/5 19/21/5
f 19/21/6 17/19/6 18/20/6
f 17/22/7 20/23/8 19/24/8
f 20/23/8 17/22/7 21/25/7
f 21/25/9 17/22/9 20/23/10
f 15/26/11 21/27/7 17/28/7
f 21/27/7 15/26/11 22/29/11
f 22/29/12 15/26/12 21/27/9
f 13/30/13 22/31/11 15/32/11
f 22/31/11 13/30/13 23/33/13
f 23/33/14 13/30/14 22/31/12
f 13/34/13 24/35/15 23/36/13
f 24/35/15 13/34/13 11/37/15
f 11/37/16 13/34/14 24/35/16
f 11/13/6 12/14/6 13/15/6
f 10/12/6 12/14/6 11/13/6
f 25/38/3 10/39/4 12/40/3
f 10/39/4 25/38/3 26/41/4
f 12/40/1 10/39/2 25/38/1
f 26/41/2 25/38/1 10/39/2
f 25/42/6 27/43/6 26/44/6
f 25/42/6 24/45/6 27/43/6
f 28/46/6 24/45/6 25/42/6
f 28/46/6 23/47/6 24/45/6
f 29/48/6 23/47/6 28/46/6
f 29/48/6 22/49/6 23/47/6
f 30/50/6 22/49/6 29/48/6
f 30/50/6 21/51/6 22/49/6
f 21/51/6 30/50/6 20/52/6
f 20/52/5 30/50/5 21/51/5
f 30/53/17 19/54/8 20/55/8
f 19/54/8 30/53/17 18/56/17
f 20/55/10 19/54/10 30/53/18
f 19/24/10 20/23/10 17/22/9
f 18/56/18 30/53/18 19/54/10
f 29/57/19 18/58/17 30/59/17
f 18/58/17 29/57/19 16/60/19
f 30/59/18 18/58/18 29/57/20
f 16/60/20 29/57/20 18/58/18
f 28/61/21 16/62/19 29/63/19
f 16/62/19 28/61/21 14/64/21
f 29/63/20 16/62/20 28/61/22
f 14/64/22 28/61/22 16/62/20
f 28/65/21 12/66/3 14/67/21
f 12/66/3 28/65/21 25/68/3
f 14/67/22 12/66/1 28/65/22
f 12/14/6 14/16/6 13/15/6
f 13/15/6 14/16/6 15/17/6
f 14/16/6 16/18/6 15/17/6
f 15/17/6 16/18/6 17/19/6
f 16/18/6 18/20/6 17/19/6
f 17/28/9 21/27/9 15/26/12
f 15/32/12 22/31/12 13/30/14
f 25/68/1 28/65/22 12/66/1
f 25/42/5 24/45/5 28/46/5
f 27/43/5 24/45/5 25/42/5
f 11/69/15 27/70/23 24/71/15
f 27/70/23 11/69/15 9/72/23
f 9/72/24 11/69/16 27/70/24
f 9/11/6 10/12/6 11/13/6
f 8/10/6 10/12/6 9/11/6
f 26/73/4 8/74/25 10/75/4
f 8/74/25 26/73/4 31/76/25
f 10/75/2 8/74/26 26/73/2
f 31/76/26 26/73/2 8/74/26
f 26/44/6 32/77/6 31/78/6
f 26/44/6 27/43/6 32/77/6
f 26/44/5 27/43/5 25/42/5
f 32/77/5 27/43/5 26/44/5
f 9/79/23 32/80/26 27/81/23
f 32/80/26 9/79/23 7/82/26
f 7/82/25 9/79/24 32/80/25
f 7/9/6 8/10/6 9/11/6
f 6/8/6 8/10/6 7/9/6
f 31/83/25 6/84/24 8/85/25
f 6/84/24 31/83/25 33/86/24
f 8/85/26 6/84/23 31/83/26
f 33/86/23 31/83/26 6/84/23
f 31/78/6 4/87/6 33/88/6
f 31/78/6 32/77/6 4/87/6
f 31/78/5 32/77/5 26/44/5
f 4/87/5 32/77/5 31/78/5
f 7/89/26 4/90/2 32/91/26
f 4/90/2 7/89/26 2/92/2
f 2/92/4 7/89/25 4/90/4
f 2/5/6 6/8/6 7/9/6
f 5/6/6 6/8/6 2/5/6
f 33/93/24 5/94/16 6/95/24
f 5/94/16 33/93/24 34/96/16
f 6/95/23 5/94/15 33/93/23
f 34/96/15 33/93/23 5/94/15
f 33/88/6 1/97/6 34/98/6
f 33/88/6 4/87/6 1/97/6
f 33/88/5 4/87/5 31/78/5
f 1/97/5 4/87/5 33/88/5
f 4/4/4 1/1/3 2/2/4
f 34/98/5 1/97/5 33/88/5
f 34/98/6 1/97/6 35/99/6
f 35/99/5 1/97/5 34/98/5
f 3/100/1 35/101/22 1/102/1
f 35/101/22 3/100/1 36/103/22
f 36/103/21 3/100/3 35/101/21
f 3/7/5 37/104/5 36/105/5
f 3/7/5 5/6/5 37/104/5
f 3/7/6 5/6/6 2/5/6
f 37/104/6 5/6/6 3/7/6
f 34/106/16 37/107/14 5/108/16
f 37/107/14 34/106/16 38/109/14
f 5/108/15 37/107/13 34/106/15
f 38/109/13 34/106/15 37/107/13
f 34/98/6 35/99/6 38/110/6
f 38/110/5 35/99/5 34/98/5
f 38/110/6 35/99/6 39/111/6
f 39/111/5 35/99/5 38/110/5
f 35/112/22 40/113/20 39/114/20
f 40/113/20 35/112/22 36/115/22
f 36/115/21 35/112/21 40/113/19
f 39/114/19 40/113/19 35/112/21
f 41/116/18 39/117/20 40/118/20
f 39/117/20 41/116/18 42/119/18
f 40/118/19 39/117/19 41/116/17
f 42/119/17 41/116/17 39/117/19
f 43/120/10 42/121/18 41/122/18
f 42/121/18 43/120/10 44/123/10
f 41/122/17 42/121/17 43/120/8
f 44/123/8 43/120/8 42/121/17
f 45/124/9 44/125/10 43/126/10
f 44/125/10 45/124/9 46/127/9
f 43/126/8 44/125/8 45/124/7
f 46/127/7 45/124/7 44/125/8
f 47/128/12 46/129/9 45/130/9
f 46/129/9 47/128/12 48/131/12
f 45/130/7 46/129/7 47/128/11
f 48/131/11 47/128/11 46/129/7
f 37/132/14 48/133/12 47/134/12
f 48/133/12 37/132/14 38/135/14
f 47/134/11 48/133/11 37/132/13
f 38/135/13 37/132/13 48/133/11
f 38/110/6 39/111/6 48/136/6
f 48/136/5 39/111/5 38/110/5
f 48/136/6 39/111/6 42/137/6
f 42/137/5 39/111/5 48/136/5
f 48/136/6 42/137/6 46/138/6
f 46/138/5 42/137/5 48/136/5
f 46/138/6 42/137/6 44/139/6
f 44/139/5 42/137/5 46/138/5
f 36/105/5 37/104/5 47/140/5
f 36/105/6 37/104/6 3/7/6
f 47/140/6 37/104/6 36/105/6
f 36/105/5 47/140/5 40/141/5
f 40/141/6 47/140/6 36/105/6
f 40/141/5 47/140/5 45/142/5
f 45/142/6 47/140/6 40/141/6
f 40/141/5 45/142/5 41/143/5
f 41/143/6 45/142/6 40/141/6
f 41/143/5 45/142/5 43/144/5
f 43/144/6 45/142/6 41/143/6
f 1/102/3 35/101/21 3/100/3
f 32/91/25 4/90/4 7/89/25
f 27/81/24 32/80/25 9/79/24
f 24/71/16 27/70/24 11/69/16
f 24/45/5 23/47/5 28/46/5
f 23/36/14 24/35/16 13/34/14
f 28/46/5 23/47/5 29/48/5
f 23/47/5 22/49/5 29/48/5
f 29/48/5 22/49/5 30/50/5
f 22/49/5 21/51/5 30/50/5
