# SSTK version 0.8.0
# 23
mtllib original-23.mtl
o mesh48/mesh48-geometry#mesh48-geometry
v 0.168438 -0.697752 0.686555
v 0.158061 -0.693454 0.708067
v 0.158061 -0.693454 0.686555
v 0.168438 -0.697752 0.708067
v 0.149151 -0.686617 0.708067
v 0.149151 -0.686617 0.686555
v 0.142314 -0.677706 0.686555
v 0.142314 -0.677706 0.708067
v 0.209995 -0.686617 0.708067
v 0.201085 -0.693454 0.708067
v 0.190708 -0.697752 0.708067
v 0.179573 -0.699218 0.708067
v 0.190708 -0.697752 0.686555
v 0.179573 -0.699218 0.686555
v 0.216832 -0.677706 0.708067
v 0.138016 -0.667330 0.708067
v 0.138016 -0.667330 0.686555
v 0.216832 -0.677706 0.686555
v 0.209995 -0.686617 0.686555
v 0.201085 -0.693454 0.686555
v 0.221130 -0.667330 0.686555
v 0.136550 -0.656195 0.686555
v 0.136550 -0.656195 0.708067
v 0.221130 -0.667330 0.708067
v 0.222596 -0.656195 0.708067
v 0.138016 -0.645059 0.708067
v 0.138016 -0.645059 0.686555
v 0.222596 -0.656195 0.686555
v 0.221130 -0.645059 0.686555
v 0.142314 -0.634683 0.686555
v 0.142314 -0.634683 0.708067
v 0.221130 -0.645059 0.708067
v 0.216832 -0.634683 0.708067
v 0.149151 -0.625773 0.708067
v 0.149151 -0.625773 0.686555
v 0.216832 -0.634683 0.686555
v 0.209995 -0.625773 0.686555
v 0.158061 -0.618935 0.686555
v 0.158061 -0.618935 0.708067
v 0.168438 -0.614637 0.708067
v 0.168438 -0.614637 0.686555
v 0.179573 -0.613171 0.708067
v 0.179573 -0.613171 0.686555
v 0.190708 -0.614637 0.708067
v 0.190708 -0.614637 0.686555
v 0.201085 -0.618935 0.708067
v 0.201085 -0.618935 0.686555
v 0.209995 -0.625773 0.708067
vt -0.5 -0.671722
vt 0 -0.41067
vt -0.5 -0.41067
vt 0 -0.671722
vt 0 -0.054066
vt -0.5 -0.315118
vt 0 -0.315118
vt -0.5 -0.054066
vt 0 0.054066
vt -0.5 0.315118
vt -0.5 0.054066
vt 0 0.315118
vt -1.707107 0.292893
vt -0.292893 0.292893
vt -0.133975 0.5
vt -1.5 0.133975
vt -0.5 0.133975
vt -1.258819 0.034074
vt -0.741181 0.034074
vt -1 0
vt 0 0.991445
vt 0.5 1.252497
vt 0 1.252497
vt 0.5 0.991445
vt 0 -0.730392
vt -0.5 -0.991445
vt 0 -0.991445
vt -0.5 -0.730392
vt -1.866025 0.5
vt -0.034074 0.741181
vt -0.5 0.671722
vt 0 0.41067
vt 0 0.671722
vt -0.5 0.41067
vt -1.965926 0.741181
vt 0 1
vt 0 0.730392
vt -0.5 0.991445
vt -0.5 0.730392
vt -2 1
vt -0.034074 1.258819
vt -0.5 1.252497
vt -1.965926 1.258819
vt -0.133975 1.5
vt 0 1.176037
vt -0.5 1.437089
vt -0.5 1.176037
vt 0 1.437089
vt -1.866025 1.5
vt -0.292893 1.707107
vt -0.5 1.532641
vt 0 1.271589
vt 0 1.532641
vt -0.5 1.271589
vt -1.707107 1.707107
vt -0.5 1.866025
vt 0.5 -0.730392
vt 0.5 -0.991445
vt 0.5 -0.41067
vt 0.5 -0.671722
vt 0.5 -0.054066
vt 0.5 -0.315118
vt 0.5 0.054066
vt 0.5 0.315118
vt -1.5 1.866025
vt -0.741181 1.965926
vt -1.258819 1.965926
vt -1 2
vt 0.5 0.41067
vt 0.5 0.671722
vt 0.5 0.730392
vt 0.5 1.176037
vt 0.5 1.437089
vt 0.5 1.271589
vt 0.5 1.532641
vn -0.2588189595935754 -0.965925849201117 0
vn -0.5000001748438417 -0.8660253028382762 0
vn 0.5000001748438417 0.8660253028382762 0
vn 0.2588189595935754 0.965925849201117 0
vn -0.7071067811865476 -0.7071067811865476 0
vn 0.7071067811865476 0.7071067811865476 0
vn -0.8660253028382762 -0.5000001748438417 0
vn 0.8660253028382762 0.5000001748438417 0
vn 0 0 -1
vn 0 0 1
vn 0 -1 0
vn 0.2588189595935754 -0.965925849201117 0
vn 0 1 0
vn -0.2588189595935754 0.965925849201117 0
vn -0.965925849201117 -0.2588189595935754 0
vn 0.965925849201117 0.2588189595935754 0
vn -1 0 0
vn 1 0 0
vn -0.965925849201117 0.2588189595935754 0
vn 0.965925849201117 -0.2588189595935754 0
vn -0.8660253028382762 0.5000001748438417 0
vn 0.8660253028382762 -0.5000001748438417 0
vn -0.7071067811865476 0.7071067811865476 0
vn 0.7071067811865476 -0.7071067811865476 0
vn -0.5000001748438417 0.8660253028382762 0
vn 0.5000001748438417 -0.8660253028382762 0
usemtl material_0_0
f 1/1/1 2/2/2 3/3/2
f 2/2/2 1/1/1 4/4/1
f 3/3/3 2/2/3 1/1/4
f 5/5/5 3/6/2 2/7/2
f 3/6/2 5/5/5 6/8/5
f 6/8/6 5/5/6 3/6/3
f 5/9/5 7/10/7 6/11/5
f 7/10/7 5/9/5 8/12/7
f 8/12/8 5/9/6 7/10/8
f 9/13/9 5/14/9 8/15/9
f 10/16/9 5/14/9 9/13/9
f 10/16/9 2/17/9 5/14/9
f 11/18/9 2/17/9 10/16/9
f 11/18/9 4/19/9 2/17/9
f 4/19/9 11/18/9 12/20/9
f 12/20/10 11/18/10 4/19/10
f 12/21/11 13/22/12 11/23/12
f 13/22/12 12/21/11 14/24/11
f 14/24/13 12/21/13 13/22/14
f 4/25/1 14/26/11 12/27/11
f 14/26/11 4/25/1 1/28/1
f 1/28/4 4/25/4 14/26/13
f 4/4/4 1/1/4 2/2/3
f 2/17/10 4/19/10 11/18/10
f 10/16/10 2/17/10 11/18/10
f 5/14/10 2/17/10 10/16/10
f 2/7/3 3/6/3 5/5/6
f 9/13/10 5/14/10 10/16/10
f 8/15/10 5/14/10 9/13/10
f 9/13/9 8/15/9 15/29/9
f 15/29/10 8/15/10 9/13/10
f 15/29/9 8/15/9 16/30/9
f 16/30/10 8/15/10 15/29/10
f 17/31/15 8/32/7 16/33/15
f 8/32/7 17/31/15 7/34/7
f 16/33/16 8/32/8 17/31/16
f 7/34/8 17/31/16 8/32/8
f 18/29/9 7/15/9 17/30/9
f 19/13/9 7/15/9 18/29/9
f 19/13/9 6/14/9 7/15/9
f 20/16/9 6/14/9 19/13/9
f 20/16/9 3/17/9 6/14/9
f 13/18/9 3/17/9 20/16/9
f 13/18/9 1/19/9 3/17/9
f 1/19/9 13/18/9 14/20/9
f 14/20/10 13/18/10 1/19/10
f 3/17/10 1/19/10 13/18/10
f 20/16/10 3/17/10 13/18/10
f 6/14/10 3/17/10 20/16/10
f 19/13/10 6/14/10 20/16/10
f 7/15/10 6/14/10 19/13/10
f 6/11/6 7/10/8 5/9/6
f 18/29/10 7/15/10 19/13/10
f 17/30/10 7/15/10 18/29/10
f 18/29/9 17/30/9 21/35/9
f 21/35/10 17/30/10 18/29/10
f 21/35/9 17/30/9 22/36/9
f 22/36/10 17/30/10 21/35/10
f 16/37/15 22/38/17 17/39/15
f 22/38/17 16/37/15 23/21/17
f 23/21/18 16/37/16 22/38/18
f 24/35/9 16/30/9 23/36/9
f 15/29/9 16/30/9 24/35/9
f 24/35/10 16/30/10 15/29/10
f 23/36/10 16/30/10 24/35/10
f 24/35/9 23/36/9 25/40/9
f 25/40/10 23/36/10 24/35/10
f 25/40/9 23/36/9 26/41/9
f 26/41/10 23/36/10 25/40/10
f 27/42/19 23/21/17 26/23/19
f 23/21/17 27/42/19 22/38/17
f 26/23/20 23/21/18 27/42/20
f 22/38/18 27/42/20 23/21/18
f 28/40/9 22/36/9 27/41/9
f 21/35/9 22/36/9 28/40/9
f 28/40/10 22/36/10 21/35/10
f 27/41/10 22/36/10 28/40/10
f 28/40/9 27/41/9 29/43/9
f 29/43/10 27/41/10 28/40/10
f 29/43/9 27/41/9 30/44/9
f 30/44/10 27/41/10 29/43/10
f 26/45/19 30/46/21 27/47/19
f 30/46/21 26/45/19 31/48/21
f 31/48/22 26/45/20 30/46/22
f 32/43/9 26/41/9 31/44/9
f 25/40/9 26/41/9 32/43/9
f 32/43/10 26/41/10 25/40/10
f 31/44/10 26/41/10 32/43/10
f 32/43/9 31/44/9 33/49/9
f 33/49/10 31/44/10 32/43/10
f 33/49/9 31/44/9 34/50/9
f 34/50/10 31/44/10 33/49/10
f 35/51/23 31/52/21 34/53/23
f 31/52/21 35/51/23 30/54/21
f 34/53/24 31/52/22 35/51/24
f 30/54/22 35/51/24 31/52/22
f 36/49/9 30/44/9 35/50/9
f 29/43/9 30/44/9 36/49/9
f 36/49/10 30/44/10 29/43/10
f 35/50/10 30/44/10 36/49/10
f 36/49/9 35/50/9 37/55/9
f 37/55/10 35/50/10 36/49/10
f 37/55/9 35/50/9 38/56/9
f 38/56/10 35/50/10 37/55/10
f 35/54/23 39/53/25 38/51/25
f 39/53/25 35/54/23 34/52/23
f 34/52/24 35/54/24 39/53/26
f 38/51/26 39/53/26 35/54/24
f 40/48/14 38/47/25 39/45/25
f 38/47/25 40/48/14 41/46/14
f 39/45/26 38/47/26 40/48/12
f 41/46/12 40/48/12 38/47/26
f 42/23/13 41/38/14 40/21/14
f 41/38/14 42/23/13 43/42/13
f 40/21/12 41/38/12 42/23/11
f 43/42/11 42/23/11 41/38/12
f 44/27/4 43/57/13 42/25/13
f 43/57/13 44/27/4 45/58/4
f 42/25/11 43/57/11 44/27/1
f 45/58/1 44/27/1 43/57/11
f 46/4/3 45/59/4 44/2/4
f 45/59/4 46/4/3 47/60/3
f 44/2/1 45/59/1 46/4/2
f 47/60/2 46/4/2 45/59/1
f 48/7/6 47/61/3 46/5/3
f 47/61/3 48/7/6 37/62/6
f 46/5/2 47/61/2 48/7/5
f 37/62/5 48/7/5 47/61/2
f 48/12/6 36/63/8 37/64/6
f 36/63/8 48/12/6 33/9/8
f 33/9/7 48/12/5 36/63/7
f 33/49/9 34/50/9 48/55/9
f 48/55/10 34/50/10 33/49/10
f 48/55/9 34/50/9 39/56/9
f 39/56/10 34/50/10 48/55/10
f 48/55/9 39/56/9 46/65/9
f 46/65/10 39/56/10 48/55/10
f 46/65/9 39/56/9 40/66/9
f 40/66/10 39/56/10 46/65/10
f 46/65/9 40/66/9 44/67/9
f 44/67/10 40/66/10 46/65/10
f 44/67/9 40/66/9 42/68/9
f 42/68/10 40/66/10 44/67/10
f 37/64/5 36/63/7 48/12/5
f 33/33/8 29/69/16 36/70/8
f 29/69/16 33/33/8 32/32/16
f 32/32/15 33/33/7 29/69/15
f 36/70/7 29/69/15 33/33/7
f 32/21/16 28/71/18 29/24/16
f 28/71/18 32/21/16 25/37/18
f 25/37/17 32/21/15 28/71/17
f 29/24/15 28/71/17 32/21/15
f 25/23/18 21/24/20 28/22/18
f 21/24/20 25/23/18 24/21/20
f 24/21/19 25/23/17 21/24/19
f 28/22/17 21/24/19 25/23/17
f 24/48/20 18/72/22 21/73/20
f 18/72/22 24/48/20 15/45/22
f 15/45/21 24/48/19 18/72/21
f 21/73/19 18/72/21 24/48/19
f 15/53/22 19/74/24 18/75/22
f 19/74/24 15/53/22 9/52/24
f 9/52/23 15/53/21 19/74/23
f 18/75/21 19/74/23 15/53/21
f 10/52/26 19/75/24 9/53/24
f 19/75/24 10/52/26 20/74/26
f 20/74/25 10/52/25 19/75/23
f 11/45/12 20/73/26 10/48/26
f 20/73/26 11/45/12 13/72/12
f 13/72/14 11/45/14 20/73/25
f 11/23/14 13/22/14 12/21/13
f 10/48/25 20/73/25 11/45/14
f 9/53/23 19/75/23 10/52/25
f 37/55/9 38/56/9 47/65/9
f 47/65/10 38/56/10 37/55/10
f 47/65/9 38/56/9 41/66/9
f 41/66/10 38/56/10 47/65/10
f 47/65/9 41/66/9 45/67/9
f 45/67/10 41/66/10 47/65/10
f 45/67/9 41/66/9 43/68/9
f 43/68/10 41/66/10 45/67/10
f 27/47/20 30/46/22 26/45/20
f 17/39/16 22/38/18 16/37/16
f 12/27/13 14/26/13 4/25/4
