# SSTK version 0.8.0
# 2
mtllib original-2.mtl
o Group3/mesh3/mesh3-geometry#mesh3-geometry
v 0.110047 0.028400 -0.147893
v -0.103865 0.007009 -0.147893
v 0.110047 0.007009 -0.147893
v -0.103865 0.028400 -0.147893
v 0.110047 0.007009 -0.297632
v -0.103865 0.007009 -0.297632
v -0.103865 0.028400 -0.297632
v 0.110047 0.028400 -0.297632
v 0.110047 0.029882 -0.318694
v -0.103865 0.029882 -0.318694
v -0.103865 0.008673 -0.321480
v -0.103865 0.034299 -0.339342
v 0.110047 0.034299 -0.339342
v 0.110047 0.008673 -0.321480
v 0.110047 0.013634 -0.344867
v 0.110047 0.041562 -0.359168
v -0.103865 0.041562 -0.359168
v -0.103865 0.013634 -0.344867
v -0.103865 0.021795 -0.367338
v -0.103865 0.051531 -0.377781
v 0.110047 0.051531 -0.377781
v 0.110047 0.021795 -0.367338
v 0.110047 0.032997 -0.388457
v 0.110047 0.064007 -0.394816
v -0.103865 0.064007 -0.394816
v -0.103865 0.032997 -0.388457
v -0.103865 0.047024 -0.407816
v -0.103865 0.078745 -0.409936
v 0.110047 0.078745 -0.409936
v 0.110047 0.047024 -0.407816
v 0.110047 0.063604 -0.425039
v 0.110047 0.095455 -0.422843
v -0.103865 0.095455 -0.422843
v 0.110047 0.113808 -0.433283
v -0.103865 0.113808 -0.433283
v 0.110047 0.133442 -0.441051
v -0.103865 0.133442 -0.441051
v 0.110047 0.153970 -0.445993
v -0.103865 0.153970 -0.445993
v 0.110047 0.174988 -0.448013
v -0.103865 0.174988 -0.448013
v 0.110047 0.196082 -0.447069
v -0.103865 0.196082 -0.447069
v 0.110047 0.442080 -0.447069
v -0.103865 0.442080 -0.447069
v -0.103865 0.442080 -0.468461
v 0.110047 0.442080 -0.468461
v -0.103865 0.103094 -0.451790
v -0.103865 0.125238 -0.460800
v -0.103865 0.148419 -0.466646
v -0.103865 0.196082 -0.468461
v 0.110047 0.196082 -0.468461
v 0.110047 0.172187 -0.469216
v -0.103865 0.172187 -0.469216
v 0.110047 0.148419 -0.466646
v 0.110047 0.125238 -0.460800
v 0.110047 0.103094 -0.451790
v 0.110047 0.082416 -0.439793
v -0.103865 0.082416 -0.439793
v -0.103865 0.063604 -0.425039
vt 5 0.5
vt 0 0
vt 5 0
vt 0 0.5
vt -5 3.5
vt -5 0
vt 0 3.5
vt -3.5 0.5
vt -3.5 0
vt 5 3.5
vt -3.992319 0.534637
vt 0 4.019996
vt 5 3.52646
vt 5 4.019996
vt 0 3.52646
vt -4.057443 0.0389
vt -4.474938 0.637865
vt 5 4.015839
vt 0 4.509375
vt 0 4.015839
vt 5 4.509375
vt -4.604079 0.154847
vt -4.93835 0.80765
vt 0 4.914774
vt 5 4.421238
vt 5 4.914774
vt 0 4.421238
vt -5.129314 0.345592
vt -5.373424 1.040648
vt 5 4.73467
vt 0 5.228206
vt 0 4.73467
vt 5 5.228206
vt -5.622966 0.607439
vt -5.771589 1.332268
vt 0 5.443497
vt 5 4.949961
vt 5 5.443497
vt 0 4.949961
vt -6.075464 0.935312
vt -6.125 1.676765
vt 5 5.062869
vt 0 5.556405
vt 0 5.062869
vt 5 5.556405
vt -6.478039 1.322854
vt -6.426695 2.067351
vt 5 5.564705
vt 0 5.071169
vt 5 5.071169
vt 0 5.564705
vt 5 5.468234
vt 0 4.974699
vt 5 4.974699
vt 0 5.468234
vt 5 5.268893
vt 0 4.775357
vt 5 4.775357
vt 0 5.268893
vt 5 4.970608
vt 0 4.477073
vt 5 4.477073
vt 0 4.970608
vt 5 4.579257
vt 0 4.085722
vt 5 4.085722
vt 0 4.579257
vt 5 4.10255
vt 0 3.609015
vt 5 3.609015
vt 0 4.10255
vt 5 10.169396
vt 0 4.419396
vt 5 4.419396
vt 0 10.169396
vt 5 6.992969
vt 0 7.492969
vt 0 6.992969
vt 5 7.492969
vt -7.492969 10.169396
vt -6.992969 4.419396
vt -6.992969 10.169396
vt -7.015019 3.926354
vt -7.10332 2.245888
vt -7.313906 2.763487
vt -7.450562 3.305318
vt -7.492969 4.419396
vt -5 4.419396
vt -5 10.169396
vt -5 3.621471
vt 0 4.180269
vt -5 4.180269
vt 0 3.621471
vt -5 4.087161
vt 0 4.64596
vt -5 4.64596
vt 0 4.087161
vt -5 4.468209
vt 0 5.027007
vt -5 5.027007
vt 0 4.468209
vt -5 4.757226
vt 0 5.316024
vt -5 5.316024
vt 0 4.757226
vt -5 4.948611
vt 0 5.507409
vt -5 5.507409
vt 0 4.948611
vt -5 5.038654
vt 0 5.597452
vt -5 5.597452
vt 0 5.038654
vt -5 5.584407
vt 0 5.025609
vt 0 5.584407
vt -5 5.025609
vt -6.67073 2.496331
vt -6.822886 1.762554
vt -6.852297 2.955255
vt -6.967818 3.43508
vt -5 5.468527
vt 0 4.909729
vt 0 5.468527
vt -5 4.909729
vt -5 5.252058
vt 0 4.69326
vt 0 5.252058
vt -5 4.69326
vt -5 4.939197
vt 0 4.380399
vt 0 4.939197
vt -5 4.380399
vt -5 4.536008
vt 0 3.97721
vt 0 4.536008
vt -5 3.97721
vt -5 4.050307
vt 0 3.491509
vt 0 4.050307
vt -5 3.491509
vt -7.510637 3.860878
vn 0 0 1
vn 0 -1 0
vn -1 0 0
vn 0 1 0
vn 0 0.9901492364194466 0.14001603343184255
vn 0 0.9975342723682912 0.07018101916233357
vn 0 0.9607911622728369 0.27727304683003545
vn 0 0.9125039184951534 0.4090679634620513
vn 0 0.8462392192056044 0.532803138014679
vn 0 0.7633024133722585 0.6460413498686332
vn 0 0.6653270313924586 0.7465520352249388
vn 0 0.5542441128297023 0.8323541694456852
vn 0 0.4322418623033251 0.9017577127325018
vn 0 0.3017240907886415 0.9533952868762084
vn 0 0.16526097846476043 0.9862498714812945
vn 0 0.02554299296130975 0.9996737245274473
vn 0 -0.044678019620691935 0.9990014387190707
vn 0 0 -1
vn 0 -0.03803701259890646 -0.9992763309878558
vn 0 0.03161899982355039 -0.9994999944222902
vn 0 -0.17645899845201327 -0.9843079913651583
vn 0 -0.31145887911021813 -0.9502596311658233
vn 0 -0.4404219520457592 -0.8977909022462875
vn 0 -0.5608479019455676 -0.8279188552528894
vn 0 -0.6704020423667286 -0.74199804689131
vn 0 -0.7669608599694492 -0.6416938828405042
vn 0 -0.8486525439300021 -0.5289507157393172
vn 0 -0.9138934269871019 -0.40595418966894614
vn 0 -0.9614187829683869 -0.27508893790115524
vn 0 -0.9903078182963575 -0.13888997451619225
vn 0 -0.9975740027572947 -0.06961400019241332
vn 1 0 0
vn 0 -0.9975342723682912 -0.07018101916233357
vn 0 -0.9901492364194466 -0.14001603343184255
vn 0 -0.9607911622728369 -0.27727304683003545
vn 0 -0.9125039184951534 -0.4090679634620513
vn 0 -0.8462392192056044 -0.532803138014679
vn 0 -0.7633024133722585 -0.6460413498686332
vn 0 -0.6653270313924586 -0.7465520352249388
vn 0 -0.5542441128297023 -0.8323541694456852
vn 0 -0.4322418623033251 -0.9017577127325018
vn 0 -0.3017240907886415 -0.9533952868762084
vn 0 -0.16526097846476043 -0.9862498714812945
vn 0 -0.02554299296130975 -0.9996737245274473
vn 0 0.044678019620691935 -0.9990014387190707
vn 0 0.03803701259890646 0.9992763309878558
vn 0 -0.03161899982355039 0.9994999944222902
vn 0 0.17645899845201327 0.9843079913651583
vn 0 0.31145887911021813 0.9502596311658233
vn 0 0.4404219520457592 0.8977909022462875
vn 0 0.5608479019455676 0.8279188552528894
vn 0 0.6704020423667286 0.74199804689131
vn 0 0.7669608599694492 0.6416938828405042
vn 0 0.8486525439300021 0.5289507157393172
vn 0 0.9138934269871019 0.40595418966894614
vn 0 0.9614187829683869 0.27508893790115524
vn 0 0.9903078182963575 0.13888997451619225
vn 0 0.9975740027572947 0.06961400019241332
usemtl material_0_0
f 1/1/1 2/2/1 3/3/1
f 2/2/1 1/1/1 4/4/1
f 2/2/2 5/5/2 3/6/2
f 5/5/2 2/2/2 6/7/2
f 2/2/3 7/8/3 6/9/3
f 7/8/3 2/2/3 4/4/3
f 1/3/4 7/7/4 4/2/4
f 7/7/4 1/3/4 8/10/4
f 8/8/3 3/2/3 1/4/3
f 3/2/3 8/8/3 5/9/3
f 5/9/3 8/8/3 9/11/3
f 10/12/5 8/13/6 9/14/5
f 8/13/6 10/12/5 7/15/6
f 6/9/3 7/8/3 10/11/3
f 6/9/3 10/11/3 11/16/3
f 11/16/3 10/11/3 12/17/3
f 9/18/5 12/19/7 10/20/5
f 12/19/7 9/18/5 13/21/7
f 14/16/3 9/11/3 13/17/3
f 5/9/3 9/11/3 14/16/3
f 14/16/3 13/17/3 15/22/3
f 15/22/3 13/17/3 16/23/3
f 17/24/8 13/25/7 16/26/8
f 13/25/7 17/24/8 12/27/7
f 18/22/3 12/17/3 17/23/3
f 11/16/3 12/17/3 18/22/3
f 18/22/3 17/23/3 19/28/3
f 19/28/3 17/23/3 20/29/3
f 16/30/8 20/31/9 17/32/8
f 20/31/9 16/30/8 21/33/9
f 22/28/3 16/23/3 21/29/3
f 15/22/3 16/23/3 22/28/3
f 22/28/3 21/29/3 23/34/3
f 23/34/3 21/29/3 24/35/3
f 25/36/10 21/37/9 24/38/10
f 21/37/9 25/36/10 20/39/9
f 26/34/3 20/29/3 25/35/3
f 19/28/3 20/29/3 26/34/3
f 26/34/3 25/35/3 27/40/3
f 27/40/3 25/35/3 28/41/3
f 24/42/10 28/43/11 25/44/10
f 28/43/11 24/42/10 29/45/11
f 30/40/3 24/35/3 29/41/3
f 23/34/3 24/35/3 30/40/3
f 30/40/3 29/41/3 31/46/3
f 31/46/3 29/41/3 32/47/3
f 32/48/12 28/49/11 29/50/11
f 28/49/11 32/48/12 33/51/12
f 34/52/13 33/53/12 32/54/12
f 33/53/12 34/52/13 35/55/13
f 36/56/14 35/57/13 34/58/13
f 35/57/13 36/56/14 37/59/14
f 38/60/15 37/61/14 36/62/14
f 37/61/14 38/60/15 39/63/15
f 40/64/16 39/65/15 38/66/15
f 39/65/15 40/64/16 41/67/16
f 42/68/17 41/69/16 40/70/16
f 41/69/16 42/68/17 43/71/17
f 44/72/1 43/73/1 42/74/1
f 43/73/1 44/72/1 45/75/1
f 44/76/4 46/77/4 45/78/4
f 46/77/4 44/76/4 47/79/4
f 46/80/3 43/81/3 45/82/3
f 43/81/3 46/80/3 41/83/3
f 41/83/3 46/80/3 48/84/3
f 48/84/3 46/80/3 49/85/3
f 49/85/3 46/80/3 50/86/3
f 50/86/3 46/80/3 51/87/3
f 46/75/18 52/88/18 51/73/18
f 52/88/18 46/75/18 47/89/18
f 53/90/19 51/91/20 52/92/20
f 51/91/20 53/90/19 54/93/19
f 55/94/21 54/95/19 53/96/19
f 54/95/19 55/94/21 50/97/21
f 56/98/22 50/99/21 55/100/21
f 50/99/21 56/98/22 49/101/22
f 57/102/23 49/103/22 56/104/22
f 49/103/22 57/102/23 48/105/23
f 58/106/24 48/107/23 57/108/23
f 48/107/23 58/106/24 59/109/24
f 31/110/25 59/111/24 58/112/24
f 59/111/24 31/110/25 60/113/25
f 31/114/25 27/115/26 60/116/25
f 27/115/26 31/114/25 30/117/26
f 27/40/3 28/41/3 60/46/3
f 60/46/3 28/41/3 33/47/3
f 60/46/3 33/47/3 35/118/3
f 60/46/3 35/118/3 59/119/3
f 59/119/3 35/118/3 37/120/3
f 59/119/3 37/120/3 48/84/3
f 48/84/3 37/120/3 39/121/3
f 48/84/3 39/121/3 41/83/3
f 30/122/26 26/123/27 27/124/26
f 26/123/27 30/122/26 23/125/27
f 23/126/27 19/127/28 26/128/27
f 19/127/28 23/126/27 22/129/28
f 22/130/28 18/131/29 19/132/28
f 18/131/29 22/130/28 15/133/29
f 15/134/29 11/135/30 18/136/29
f 11/135/30 15/134/29 14/137/30
f 14/138/30 6/139/31 11/140/30
f 6/139/31 14/138/30 5/141/31
f 31/46/3 34/118/3 58/119/3
f 31/46/3 32/47/3 34/118/3
f 58/119/3 34/118/3 36/120/3
f 58/119/3 36/120/3 57/84/3
f 57/84/3 36/120/3 38/121/3
f 57/84/3 38/121/3 40/83/3
f 40/83/3 47/80/3 57/84/3
f 42/81/3 47/80/3 40/83/3
f 47/80/3 42/81/3 44/82/3
f 57/84/3 47/80/3 56/85/3
f 56/85/3 47/80/3 55/86/3
f 55/86/3 47/80/3 52/87/3
f 55/86/3 52/87/3 53/142/3
f 50/86/3 51/87/3 54/142/3
usemtl material_1_0
f 3/3/18 2/2/18 1/1/18
f 6/7/4 2/2/4 5/5/4
f 4/4/32 2/2/32 7/8/32
f 4/4/18 1/1/18 2/2/18
f 4/2/2 7/7/2 1/3/2
f 8/10/2 1/3/2 7/7/2
f 1/4/32 3/2/32 8/8/32
f 5/9/32 8/8/32 3/2/32
f 9/11/32 8/8/32 5/9/32
f 7/15/33 10/12/34 8/13/33
f 6/9/32 7/8/32 2/2/32
f 10/11/32 7/8/32 6/9/32
f 11/16/32 10/11/32 6/9/32
f 12/17/32 10/11/32 11/16/32
f 10/20/34 12/19/35 9/18/34
f 13/21/35 9/18/34 12/19/35
f 14/16/32 9/11/32 5/9/32
f 13/17/32 9/11/32 14/16/32
f 15/22/32 13/17/32 14/16/32
f 16/23/32 13/17/32 15/22/32
f 12/27/35 17/24/36 13/25/35
f 18/22/32 12/17/32 11/16/32
f 17/23/32 12/17/32 18/22/32
f 19/28/32 17/23/32 18/22/32
f 20/29/32 17/23/32 19/28/32
f 17/32/36 20/31/37 16/30/36
f 21/33/37 16/30/36 20/31/37
f 22/28/32 16/23/32 15/22/32
f 21/29/32 16/23/32 22/28/32
f 23/34/32 21/29/32 22/28/32
f 24/35/32 21/29/32 23/34/32
f 20/39/37 25/36/38 21/37/37
f 26/34/32 20/29/32 19/28/32
f 25/35/32 20/29/32 26/34/32
f 27/40/32 25/35/32 26/34/32
f 28/41/32 25/35/32 27/40/32
f 25/44/38 28/43/39 24/42/38
f 29/45/39 24/42/38 28/43/39
f 30/40/32 24/35/32 23/34/32
f 29/41/32 24/35/32 30/40/32
f 31/46/32 29/41/32 30/40/32
f 32/47/32 29/41/32 31/46/32
f 29/50/39 28/49/39 32/48/40
f 33/51/40 32/48/40 28/49/39
f 32/54/40 33/53/40 34/52/41
f 35/55/41 34/52/41 33/53/40
f 34/58/41 35/57/41 36/56/42
f 37/59/42 36/56/42 35/57/41
f 36/62/42 37/61/42 38/60/43
f 39/63/43 38/60/43 37/61/42
f 38/66/43 39/65/43 40/64/44
f 41/67/44 40/64/44 39/65/43
f 40/70/44 41/69/44 42/68/45
f 43/71/45 42/68/45 41/69/44
f 42/74/18 43/73/18 44/72/18
f 45/75/18 44/72/18 43/73/18
f 45/78/2 46/77/2 44/76/2
f 45/82/32 43/81/32 46/80/32
f 41/83/32 46/80/32 43/81/32
f 48/84/32 46/80/32 41/83/32
f 49/85/32 46/80/32 48/84/32
f 50/86/32 46/80/32 49/85/32
f 51/87/32 46/80/32 50/86/32
f 51/73/1 52/88/1 46/75/1
f 54/93/46 53/90/46 51/91/47
f 50/97/48 55/94/48 54/95/46
f 49/101/49 56/98/49 50/99/48
f 48/105/50 57/102/50 49/103/49
f 59/109/51 58/106/51 48/107/50
f 60/113/52 31/110/52 59/111/51
f 60/116/52 27/115/53 31/114/52
f 60/46/32 28/41/32 27/40/32
f 33/47/32 28/41/32 60/46/32
f 35/118/32 33/47/32 60/46/32
f 59/119/32 35/118/32 60/46/32
f 37/120/32 35/118/32 59/119/32
f 48/84/32 37/120/32 59/119/32
f 39/121/32 37/120/32 48/84/32
f 41/83/32 39/121/32 48/84/32
f 30/117/53 31/114/52 27/115/53
f 27/124/53 26/123/54 30/122/53
f 23/125/54 30/122/53 26/123/54
f 26/128/54 19/127/55 23/126/54
f 22/129/55 23/126/54 19/127/55
f 19/132/55 18/131/56 22/130/55
f 15/133/56 22/130/55 18/131/56
f 18/136/56 11/135/57 15/134/56
f 14/137/57 15/134/56 11/135/57
f 11/140/57 6/139/58 14/138/57
f 5/141/58 14/138/57 6/139/58
f 58/112/51 59/111/51 31/110/52
f 34/118/32 32/47/32 31/46/32
f 58/119/32 34/118/32 31/46/32
f 36/120/32 34/118/32 58/119/32
f 57/84/32 36/120/32 58/119/32
f 38/121/32 36/120/32 57/84/32
f 40/83/32 38/121/32 57/84/32
f 44/82/32 42/81/32 47/80/32
f 40/83/32 47/80/32 42/81/32
f 57/84/32 47/80/32 40/83/32
f 56/85/32 47/80/32 57/84/32
f 55/86/32 47/80/32 56/85/32
f 52/87/32 47/80/32 55/86/32
f 47/89/1 46/75/1 52/88/1
f 47/79/2 44/76/2 46/77/2
f 53/142/32 52/87/32 55/86/32
f 52/92/47 51/91/47 53/90/46
f 53/96/46 54/95/46 55/94/48
f 55/100/48 50/99/48 56/98/49
f 56/104/49 49/103/49 57/102/50
f 57/108/50 48/107/50 58/106/51
f 54/142/32 51/87/32 50/86/32
f 24/38/38 21/37/37 25/36/38
f 16/26/36 13/25/35 17/24/36
f 9/14/34 8/13/33 10/12/34
f 3/6/4 5/5/4 2/2/4
