mtllib new-6.mtl
v -0.326421 0.880898 -0.256060
v -0.323924 0.895583 -0.281150
v -0.345560 0.872799 -0.263037
v -0.312575 0.864581 -0.251265
v -0.353072 0.871814 -0.284517
v -0.345985 0.757242 -0.216555
v -0.326498 0.758167 -0.208260
v -0.352206 0.865000 -0.272234
v -0.354274 0.753131 -0.228819
v -0.311122 0.759629 -0.212267
v -0.349148 0.643092 -0.207378
v -0.349817 0.645511 -0.192949
v -0.340230 0.650203 -0.179528
v -0.319843 0.653508 -0.173275
v -0.304335 0.646492 -0.176117
vn -0.055983 0.558676 0.827494
vn 0.055983 -0.558676 -0.827494
vn -0.484484 0.850832 0.203372
vn 0.484484 -0.850832 -0.203372
vn -0.738336 0.476513 0.477279
vn 0.738336 -0.476513 -0.477279
vn 0.170215 0.378158 0.909958
vn -0.170215 -0.378158 -0.909958
vn -0.847659 0.527418 0.057486
vn 0.847659 -0.527418 -0.057486
vn -0.648164 0.250594 0.719087
vn 0.648164 -0.250594 -0.719087
vn -0.099105 0.333825 0.937411
vn 0.099105 -0.333825 -0.937411
vn -0.981823 0.133899 0.134520
vn 0.981823 -0.133899 -0.134520
vn -0.966601 0.081557 0.242963
vn 0.966601 -0.081557 -0.242963
vn 0.240317 0.324296 0.914921
vn -0.240317 -0.324296 -0.914921
vn -0.994190 -0.051218 -0.094672
vn 0.994190 0.051218 0.094672
vn -0.930311 0.079618 0.358026
vn 0.930311 -0.079618 -0.358026
vn -0.535113 0.246022 0.808163
vn 0.535113 -0.246022 -0.808163
vn 0.066296 0.315633 0.946563
vn -0.066296 -0.315633 -0.946563
vn 0.303970 0.306459 0.902045
vn -0.303970 -0.306459 -0.902045
usemtl material-0
f 2//3 3//5 1//1
f 1//2 3//6 2//4
f 2//3 5//9 3//5
f 3//6 5//10 2//4
f 1//1 3//5 6//11
f 6//12 3//6 1//2
f 1//1 7//13 4//7
f 4//8 7//14 1//2
f 5//9 8//15 3//5
f 3//6 8//16 5//10
f 3//5 9//17 6//11
f 6//12 9//18 3//6
f 1//1 6//11 7//13
f 7//14 6//12 1//2
f 4//7 7//13 10//19
f 10//20 7//14 4//8
f 5//9 11//21 8//15
f 8//16 11//22 5//10
f 8//15 9//17 3//5
f 3//6 9//18 8//16
f 9//17 12//23 6//11
f 6//12 12//24 9//18
f 7//13 6//11 13//25
f 13//26 6//12 7//14
f 10//19 7//13 14//27
f 14//28 7//14 10//20
f 8//15 11//21 9//17
f 9//18 11//22 8//16
f 9//17 11//21 12//23
f 12//24 11//22 9//18
f 6//11 12//23 13//25
f 13//26 12//24 6//12
f 7//13 13//25 14//27
f 14//28 13//26 7//14
f 10//19 14//27 15//29
f 15//30 14//28 10//20