mtllib new-7.mtl
v 0.351962 0.891270 -0.283090
v 0.320103 0.895591 -0.274736
v 0.330774 0.899093 -0.291100
v 0.343028 0.880898 -0.256300
v 0.198432 0.888938 -0.318141
v 0.193591 0.878080 -0.294405
v 0.192689 0.863865 -0.285326
v 0.070192 0.872016 -0.304083
v 0.069741 0.857738 -0.294910
v 0.074875 0.883582 -0.328422
v 0.328543 0.864581 -0.251265
v -0.053479 0.871937 -0.304054
v -0.053772 0.857738 -0.294914
v 0.169108 0.850264 -0.275713
v -0.051491 0.883416 -0.328749
v 0.159706 0.862671 -0.288776
v -0.176534 0.877811 -0.294344
v -0.176721 0.863865 -0.285327
v 0.003697 0.844291 -0.284896
v -0.179553 0.888725 -0.318648
v 0.009516 0.857786 -0.295652
v -0.301887 0.892116 -0.270409
v -0.326421 0.880898 -0.256060
v -0.157208 0.848485 -0.278552
v -0.312170 0.899864 -0.291489
v -0.144768 0.862015 -0.288839
v -0.323924 0.895583 -0.281150
v -0.312575 0.864581 -0.251265
v -0.353072 0.871814 -0.284517
vn -0.467586 -0.814463 -0.343530
vn -0.724254 0.558846 0.403915
vn -0.841369 0.175874 -0.511044
vn 0.841369 -0.175874 0.511044
vn 0.724254 -0.558846 -0.403915
vn 0.467586 0.814463 0.343530
vn -0.974698 -0.186507 -0.123204
vn 0.974698 0.186507 0.123204
vn -0.110668 0.934909 0.337192
vn 0.110668 -0.934909 -0.337192
vn -0.149947 0.702639 0.695567
vn 0.149947 -0.702639 -0.695567
vn -0.155479 0.538696 0.828030
vn 0.155479 -0.538696 -0.828030
vn -0.042244 0.754913 0.654463
vn 0.042244 -0.754913 -0.654463
vn -0.092125 0.540108 0.836538
vn 0.092125 -0.540108 -0.836538
vn -0.025578 0.905975 0.422557
vn 0.025578 -0.905975 -0.422557
vn -0.046138 0.540982 0.839767
vn 0.046138 -0.540982 -0.839767
vn 0.118301 -0.277278 -0.953479
vn -0.118301 0.277278 0.953479
vn 0.044718 0.751625 0.658073
vn -0.044718 -0.751625 -0.658073
vn -0.000024 0.540527 0.841326
vn 0.000024 -0.540527 -0.841326
vn -0.146531 0.595147 0.790145
vn 0.146531 -0.595147 -0.790145
vn 0.047983 0.907940 0.416344
vn -0.047983 -0.907940 -0.416344
vn 0.046049 0.540033 0.840383
vn -0.046049 -0.540033 -0.840383
vn -0.105662 0.659748 0.744022
vn 0.105662 -0.659748 -0.744022
vn 0.148143 0.755112 0.638639
vn -0.148143 -0.755112 -0.638639
vn 0.135043 0.535993 0.833352
vn -0.135043 -0.535993 -0.833352
vn -0.024594 0.650639 0.758989
vn 0.024594 -0.650639 -0.758989
vn 0.128285 0.925265 0.356969
vn -0.128285 -0.925265 -0.356969
vn 0.014354 0.608029 0.793785
vn -0.014354 -0.608029 -0.793785
vn 0.110855 0.852028 0.511624
vn -0.110855 -0.852028 -0.511624
vn -0.055983 0.558676 0.827494
vn 0.055983 -0.558676 -0.827494
vn 0.126272 0.523020 0.842915
vn -0.126272 -0.523020 -0.842915
vn 0.137490 0.949539 0.281908
vn -0.137490 -0.949539 -0.281908
vn 0.128403 0.522713 0.842783
vn -0.128403 -0.522713 -0.842783
vn -0.484484 0.850832 0.203372
vn 0.484484 -0.850832 -0.203372
vn 0.170215 0.378158 0.909958
vn -0.170215 -0.378158 -0.909958
vn -0.847659 0.527418 0.057486
vn 0.847659 -0.527418 -0.057486
vn -0.570677 0.747874 -0.339135
vn 0.570677 -0.747874 0.339135
usemtl material-0
f 1//1 2//2 3//3
f 3//4 2//5 1//6
f 1//1 4//7 2//2
f 2//5 4//8 1//6
f 3//3 5//9 2//2
f 2//5 5//10 3//4
f 2//2 6//11 4//7
f 4//8 6//12 2//5
f 2//2 5//9 6//11
f 6//12 5//10 2//5
f 4//7 6//11 7//13
f 7//14 6//12 4//8
f 5//9 8//15 6//11
f 6//12 8//16 5//10
f 6//11 9//17 7//13
f 7//14 9//18 6//12
f 5//9 10//19 8//15
f 8//16 10//20 5//10
f 6//11 8//15 9//21
f 9//22 8//16 6//12
f 10//19 12//25 8//15
f 8//16 12//26 10//20
f 8//15 13//27 9//21
f 9//22 13//28 8//16
f 4//7 14//29 11//23
f 11//24 14//30 4//8
f 10//19 15//31 12//25
f 12//26 15//32 10//20
f 8//15 12//25 13//33
f 13//34 12//26 8//16
f 4//7 16//35 14//29
f 14//30 16//36 4//8
f 15//31 17//37 12//25
f 12//26 17//38 15//32
f 12//25 18//39 13//33
f 13//34 18//40 12//26
f 16//35 19//41 14//29
f 14//30 19//42 16//36
f 15//31 20//43 17//37
f 17//38 20//44 15//32
f 17//37 18//39 12//25
f 12//26 18//40 17//38
f 16//35 21//45 19//41
f 19//42 21//46 16//36
f 17//37 20//43 22//47
f 22//48 20//44 17//38
f 23//49 18//39 17//37
f 17//38 18//40 23//50
f 21//45 24//51 19//41
f 19//42 24//52 21//46
f 20//43 25//53 22//47
f 22//48 25//54 20//44
f 22//47 23//49 17//37
f 17//38 23//50 22//48
f 26//55 24//51 21//45
f 21//46 24//52 26//56
f 22//47 27//57 23//49
f 23//50 27//58 22//48
f 23//49 24//51 26//55
f 26//56 24//52 23//50
f 23//49 28//59 24//51
f 24//52 28//60 23//50
f 25//63 29//61 27//57
f 27//58 29//62 25//64