mtllib new-1.mtl
v 0.044620 -0.536680 0.035653
v 0.039227 -0.536680 0.016223
v 0.053415 -0.536639 0.008433
v 0.039575 -0.536680 0.055177
v 0.060802 -0.536639 0.036001
v 0.033234 -0.536639 -0.011748
v 0.024842 -0.536680 0.002092
v 0.053268 -0.456218 0.008536
v 0.033158 -0.456216 -0.011585
v 0.025444 -0.536680 0.069562
v 0.053415 -0.536639 0.063569
v 0.060623 -0.456214 0.036017
v 0.005667 -0.536639 -0.019135
v 0.005682 -0.456214 -0.018955
v 0.005319 -0.536680 -0.002953
v -0.013509 -0.536680 0.069910
v 0.030397 -0.362412 -0.006479
v 0.048285 -0.362470 0.011622
v 0.005872 -0.362390 -0.013159
v 0.006014 -0.536680 0.074955
v -0.027894 -0.536680 0.055779
v 0.033234 -0.536639 0.083750
v 0.053252 -0.456216 0.063492
v 0.054789 -0.362742 0.036164
v -0.021901 -0.536639 -0.011748
v -0.021798 -0.456218 -0.011600
v -0.018770 -0.362380 -0.006665
v -0.014111 -0.536680 0.002440
v -0.028242 -0.536680 0.016825
v 0.005667 -0.536639 0.091137
v -0.021901 -0.536639 0.083750
v 0.048097 -0.362353 0.060721
v -0.033287 -0.536680 0.036349
v -0.042082 -0.536639 0.063569
v 0.033131 -0.456218 0.083602
v -0.042082 -0.536639 0.008433
v -0.041919 -0.456216 0.008510
v -0.036767 -0.362374 0.011283
v -0.049469 -0.536639 0.036001
v 0.005651 -0.456214 0.090957
v -0.021825 -0.456216 0.083587
v -0.043434 -0.362376 0.035840
v -0.041935 -0.456218 0.063466
v 0.030115 -0.362792 0.078689
v -0.049290 -0.456214 0.035985
v -0.036946 -0.362384 0.060378
v 0.005458 -0.362481 0.085165
v -0.019064 -0.362412 0.078480
vn 0.002213 -0.999997 -0.001296
vn 0.002538 -0.999997 -0.000705
vn -0.002213 0.999997 0.001296
vn -0.002538 0.999997 0.000705
vn 0.002565 -0.999997 -0.000016
vn 0.002580 -0.999996 -0.000691
vn -0.002580 0.999996 0.000691
vn -0.002565 0.999997 0.000016
vn 0.001888 -0.999996 -0.001888
vn -0.001888 0.999996 0.001888
vn 0.002551 -0.999997 0.000659
vn -0.002551 0.999997 -0.000659
vn 0.866092 0.002233 -0.499880
vn 0.866213 0.032148 -0.498639
vn 0.965922 0.002108 -0.258826
vn -0.965922 -0.002108 0.258826
vn -0.866213 -0.032148 0.498639
vn -0.866092 -0.002233 0.499880
vn 0.001846 -0.999997 -0.001879
vn 0.001269 -0.999997 -0.002230
vn -0.001269 0.999997 0.002230
vn -0.001846 0.999997 0.001879
vn 0.500126 0.002233 -0.865950
vn 0.500582 0.031910 -0.865101
vn 0.707105 0.002107 -0.707105
vn -0.707105 -0.002107 0.707105
vn -0.500582 -0.031910 0.865101
vn -0.500126 -0.002233 0.865950
vn 0.002580 -0.999996 0.000691
vn 0.002230 -0.999997 0.001269
vn -0.002230 0.999997 -0.001269
vn -0.002580 0.999996 -0.000691
vn 0.999481 0.032217 0.000835
vn 0.999997 0.002231 0.000138
vn -0.999997 -0.002231 -0.000138
vn -0.999481 -0.032217 -0.000835
vn 0.000691 -0.999996 -0.002580
vn -0.000691 0.999996 0.002580
vn 0.000962 0.031886 -0.999491
vn -0.000962 -0.031886 0.999491
vn 0.001879 -0.999997 0.001846
vn -0.001879 0.999997 -0.001846
vn 0.965922 0.002105 0.258826
vn -0.965922 -0.002105 -0.258826
vn 0.576808 0.061913 -0.814530
vn -0.576808 -0.061913 0.814530
vn 0.906653 0.062251 -0.417259
vn -0.906653 -0.062251 0.417259
vn 0.000659 -0.999997 -0.002551
vn -0.000016 -0.999997 -0.002565
vn 0.000016 0.999997 0.002565
vn -0.000659 0.999997 0.002551
vn 0.258826 0.002105 -0.965922
vn 0.000138 0.002231 -0.999997
vn -0.000138 -0.002231 0.999997
vn -0.258826 -0.002105 0.965922
vn 0.091634 0.061622 -0.993884
vn -0.091634 -0.061622 0.993884
vn 0.001888 -0.999996 0.001888
vn 0.001296 -0.999997 0.002213
vn -0.001296 0.999997 -0.002213
vn -0.001888 0.999996 -0.001888
vn 0.865164 0.032191 0.500455
vn 0.865950 0.002233 0.500126
vn -0.865950 -0.002233 -0.500126
vn -0.865164 -0.032191 -0.500455
vn 0.993898 0.062207 0.091092
vn -0.993898 -0.062207 -0.091092
vn -0.000691 -0.999996 -0.002580
vn 0.000691 0.999996 0.002580
vn -0.419943 0.041655 -0.906594
vn 0.419943 -0.041655 0.906594
vn -0.418413 0.061565 -0.906168
vn 0.418413 -0.061565 0.906168
vn 0.000016 -0.999997 0.002565
vn -0.000659 -0.999997 0.002551
vn 0.000659 0.999997 -0.002551
vn -0.000016 0.999997 -0.002565
vn -0.001269 -0.999997 0.002230
vn -0.001846 -0.999997 0.001879
vn 0.001846 0.999997 -0.001879
vn 0.001269 0.999997 -0.002230
vn 0.000705 -0.999997 0.002538
vn -0.000705 0.999997 -0.002538
vn 0.707105 0.002107 0.707105
vn -0.707105 -0.002107 -0.707105
vn -0.014268 -0.999897 0.001595
vn -0.000742 -0.999999 0.000921
vn -0.003417 -0.999993 0.001782
vn 0.003417 0.999993 -0.001782
vn 0.000742 0.999999 -0.000921
vn 0.014268 0.999897 -0.001595
vn -0.027796 -0.999611 0.002268
vn 0.027796 0.999611 -0.002268
vn -0.049992 -0.998747 0.002181
vn 0.049992 0.998747 -0.002181
vn -0.000705 -0.999997 -0.002538
vn -0.001296 -0.999997 -0.002213
vn 0.001296 0.999997 0.002213
vn 0.000705 0.999997 0.002538
vn -0.574681 0.021978 -0.818082
vn -0.258826 0.002108 -0.965922
vn -0.499880 0.002233 -0.866092
vn 0.499880 -0.002233 0.866092
vn 0.258826 -0.002108 0.965922
vn 0.574681 -0.021978 0.818082
vn -0.000235 -1.000000 0.000632
vn 0.000235 1.000000 -0.000632
vn 0.000691 -0.999996 0.002580
vn -0.000691 0.999996 -0.002580
vn -0.000691 -0.999996 0.002580
vn 0.000691 0.999996 -0.002580
vn -0.001888 -0.999996 0.001888
vn -0.002213 -0.999997 0.001296
vn 0.002213 0.999997 -0.001296
vn 0.001888 0.999996 -0.001888
vn 0.574681 0.021977 0.818082
vn 0.499880 0.002233 0.866092
vn -0.499880 -0.002233 -0.866092
vn -0.574681 -0.021977 -0.818082
vn 0.863448 0.062202 0.500588
vn -0.863448 -0.062202 -0.500588
vn -0.001888 -0.999996 -0.001888
vn 0.001888 0.999996 0.001888
vn -0.865166 0.032188 -0.500452
vn 0.865166 -0.032188 0.500452
vn -0.704860 0.059918 -0.706811
vn 0.704860 -0.059918 0.706811
vn 0.000045 -1.000000 0.000354
vn -0.000045 1.000000 -0.000354
vn -0.001879 -0.999997 -0.001846
vn -0.002230 -0.999997 -0.001269
vn 0.002230 0.999997 0.001269
vn 0.001879 0.999997 0.001846
vn -0.002551 -0.999997 -0.000659
vn -0.002565 -0.999997 0.000016
vn 0.002565 0.999997 -0.000016
vn 0.002551 0.999997 0.000659
vn 0.258826 0.002108 0.965922
vn -0.258826 -0.002108 -0.965922
vn -0.000971 0.031888 0.999491
vn -0.258826 0.002105 0.965922
vn -0.000138 0.002231 0.999997
vn 0.000138 -0.002231 -0.999997
vn 0.258826 -0.002105 -0.965922
vn 0.000971 -0.031888 -0.999491
vn -0.002538 -0.999997 0.000705
vn 0.002538 0.999997 -0.000705
vn -0.707105 0.002107 0.707105
vn -0.500126 0.002233 0.865950
vn -0.500586 0.031911 0.865099
vn 0.500586 -0.031911 -0.865099
vn 0.500126 -0.002233 -0.865950
vn 0.707105 -0.002107 -0.707105
vn -0.707105 0.002107 -0.707105
vn -0.865950 0.002233 -0.500126
vn 0.865950 -0.002233 0.500126
vn 0.707105 -0.002107 0.707105
vn -0.863454 0.062197 -0.500579
vn 0.863454 -0.062197 0.500579
vn 0.000241 -1.000000 0.000017
vn -0.000241 1.000000 -0.000017
vn -0.002580 -0.999996 -0.000691
vn 0.002580 0.999996 0.000691
vn -0.002580 -0.999996 0.000691
vn 0.002580 0.999996 -0.000691
vn 0.419935 0.041656 0.906598
vn -0.419935 -0.041656 -0.906598
vn -0.866213 0.032150 0.498640
vn -0.866092 0.002233 0.499880
vn 0.866092 -0.002233 -0.499880
vn 0.866213 -0.032150 -0.498640
vn 0.704840 0.059922 0.706831
vn 0.418387 0.061572 0.906179
vn -0.418387 -0.061572 -0.906179
vn -0.704840 -0.059922 -0.706831
vn -0.999481 0.032215 -0.000819
vn 0.999481 -0.032215 0.000819
vn -0.993902 0.062194 -0.091054
vn 0.993902 -0.062194 0.091054
vn -0.006500 -0.999868 -0.014863
vn 0.000372 -0.999999 -0.001164
vn 0.000369 -1.000000 -0.000452
vn -0.000369 1.000000 0.000452
vn -0.000372 0.999999 0.001164
vn 0.006500 0.999868 0.014863
vn -0.965922 0.002105 -0.258826
vn -0.999997 0.002231 -0.000138
vn 0.999997 -0.002231 0.000138
vn 0.965922 -0.002105 0.258826
vn -0.965922 0.002108 0.258826
vn 0.965922 -0.002108 -0.258826
vn -0.091660 0.061631 0.993881
vn 0.091660 -0.061631 -0.993881
vn -0.576814 0.061917 0.814526
vn 0.576814 -0.061917 -0.814526
vn -0.025781 -0.998406 -0.050202
vn -0.013372 -0.999503 -0.028562
vn 0.013372 0.999503 0.028562
vn 0.025781 0.998406 0.050202
vn -0.000290 -0.999990 -0.004391
vn 0.000290 0.999990 0.004391
vn -0.906639 0.062248 0.417289
vn 0.906639 -0.062248 -0.417289
usemtl material-0
f 3//1 1//2 2//1
f 2//3 1//4 3//3
f 5//5 1//5 3//6
f 3//7 1//8 5//8
f 3//1 2//1 6//9
f 6//10 2//3 3//3
f 5//5 4//11 1//5
f 1//8 4//12 5//8
f 3//13 8//14 5//15
f 5//16 8//17 3//18
f 2//19 7//20 6//20
f 6//21 7//21 2//22
f 6//23 9//24 3//25
f 3//26 9//27 6//28
f 5//29 11//30 4//30
f 4//31 11//31 5//32
f 9//24 8//14 3//13
f 3//18 8//17 9//27
f 8//14 12//33 5//34
f 5//35 12//36 8//17
f 6//20 7//20 13//37
f 13//38 7//21 6//21
f 14//39 9//24 6//23
f 6//28 9//27 14//40
f 11//30 10//41 4//30
f 4//31 10//42 11//31
f 5//34 12//33 11//43
f 11//44 12//36 5//35
f 9//24 17//45 8//14
f 8//17 17//46 9//27
f 8//14 18//47 12//33
f 12//36 18//48 8//17
f 7//49 15//50 13//50
f 13//51 15//51 7//52
f 14//39 6//53 13//54
f 13//55 6//56 14//40
f 19//57 9//24 14//39
f 14//40 9//27 19//58
f 11//59 22//60 10//60
f 10//61 22//61 11//62
f 12//33 23//63 11//64
f 11//65 23//66 12//36
f 19//57 17//45 9//24
f 9//27 17//46 19//58
f 17//45 18//47 8//14
f 8//17 18//48 17//46
f 18//47 24//67 12//33
f 12//36 24//68 18//48
f 13//50 15//50 25//69
f 25//70 15//51 13//51
f 14//39 13//54 26//71
f 26//72 13//55 14//40
f 27//73 19//57 14//39
f 14//40 19//58 27//74
f 20//75 30//75 16//76
f 16//77 30//78 20//78
f 16//79 31//79 21//80
f 21//81 31//82 16//82
f 22//60 20//83 10//60
f 10//61 20//84 22//61
f 23//63 22//85 11//64
f 11//65 22//86 23//66
f 12//33 24//67 23//63
f 23//66 24//68 12//36
f 32//87 19//88 17//89
f 17//90 19//91 32//92
f 18//93 32//87 17//89
f 17//90 32//92 18//94
f 24//95 32//87 18//93
f 18//94 32//92 24//96
f 15//97 28//98 25//98
f 25//99 28//99 15//100
f 26//101 13//102 25//103
f 25//104 13//105 26//106
f 27//73 14//39 26//71
f 26//72 14//40 27//74
f 32//87 27//107 19//88
f 19//91 27//108 32//92
f 22//109 30//75 20//75
f 20//78 30//78 22//110
f 30//111 31//79 16//79
f 16//82 31//82 30//112
f 31//113 34//114 21//114
f 21//115 34//115 31//116
f 23//63 35//117 22//118
f 22//119 35//120 23//66
f 24//67 32//121 23//63
f 23//66 32//122 24//68
f 28//98 36//123 25//98
f 25//99 36//124 28//99
f 37//125 26//101 25//103
f 25//104 26//106 37//126
f 38//127 27//73 26//71
f 26//72 27//74 38//128
f 32//129 38//129 27//129
f 27//130 38//130 32//130
f 28//131 29//132 36//132
f 36//133 29//133 28//134
f 29//135 33//136 39//136
f 39//137 33//137 29//138
f 35//117 30//139 22//118
f 22//119 30//140 35//120
f 40//141 31//142 30//143
f 30//144 31//145 40//146
f 21//114 34//114 33//147
f 33//148 34//115 21//115
f 34//149 31//150 41//151
f 41//152 31//153 34//154
f 32//121 35//117 23//63
f 23//66 35//120 32//122
f 37//125 25//155 36//156
f 36//157 25//158 37//126
f 38//159 26//101 37//125
f 37//126 26//106 38//160
f 32//161 42//161 38//161
f 38//162 42//162 32//162
f 29//132 39//163 36//132
f 36//133 39//164 29//133
f 33//136 34//165 39//136
f 39//137 34//166 33//137
f 40//141 30//143 35//167
f 35//168 30//144 40//146
f 40//141 41//151 31//150
f 31//153 41//152 40//146
f 43//169 34//170 41//151
f 41//152 34//171 43//172
f 32//173 44//174 35//167
f 35//168 44//175 32//176
f 36//156 45//177 37//125
f 37//126 45//178 36//157
f 37//125 42//179 38//159
f 38//160 42//180 37//126
f 32//181 46//182 42//183
f 42//184 46//185 32//186
f 36//187 39//188 45//177
f 45//178 39//189 36//190
f 39//191 34//170 43//169
f 43//172 34//171 39//192
f 44//174 40//141 35//167
f 35//168 40//146 44//175
f 47//193 41//151 40//141
f 40//146 41//152 47//194
f 43//169 41//151 48//195
f 48//196 41//152 43//172
f 32//181 44//197 47//198
f 47//199 44//200 32//186
f 37//125 45//177 42//179
f 42//180 45//178 37//126
f 32//181 48//201 46//182
f 46//185 48//202 32//186
f 42//179 45//177 46//203
f 46//204 45//178 42//180
f 45//177 39//188 43//169
f 43//172 39//189 45//178
f 47//193 40//141 44//174
f 44//175 40//146 47//194
f 48//195 41//151 47//193
f 47//194 41//152 48//196
f 46//203 43//169 48//195
f 48//196 43//172 46//204
f 32//181 47//198 48//201
f 48//202 47//199 32//186
f 45//177 43//169 46//203
f 46//204 43//172 45//178