mtllib new-0.mtl
v 0.034475 -0.691386 0.015684
v 0.044620 -0.536680 0.035653
v 0.039227 -0.536680 0.016223
v 0.041395 -0.669407 0.036986
v 0.024384 -0.669407 0.005552
v 0.037667 -0.691333 0.050793
v 0.039575 -0.536680 0.055177
v 0.024842 -0.536680 0.002092
v 0.002985 -0.691371 0.000969
v -0.012916 -0.691420 0.065176
v 0.008418 -0.691087 0.071201
v 0.025444 -0.536680 0.069562
v 0.005319 -0.536680 -0.002953
v -0.023516 -0.691259 0.017416
v -0.013509 -0.536680 0.069910
v 0.022677 -0.669407 0.067435
v -0.011344 -0.669407 0.004567
v -0.029459 -0.690969 0.038156
v 0.006014 -0.536680 0.074955
v -0.027894 -0.536680 0.055779
v -0.014111 -0.536680 0.002440
v -0.028242 -0.536680 0.016825
v -0.025768 -0.669407 0.053012
v -0.033287 -0.536680 0.036349
vn -0.865932 0.110992 0.487692
vn -0.994260 0.026086 0.103760
vn -0.809214 0.023493 0.587044
vn 0.809214 -0.023493 -0.587044
vn 0.994260 -0.026086 -0.103760
vn 0.865932 -0.110992 -0.487692
vn -0.996868 0.073751 -0.028533
vn 0.996868 -0.073751 0.028533
vn -0.524396 0.073054 0.848335
vn 0.524396 -0.073054 -0.848335
vn -0.854857 0.113040 -0.506401
vn 0.854857 -0.113040 0.506401
vn -0.913008 0.023488 -0.407264
vn 0.913008 -0.023488 0.407264
vn -0.407907 0.025960 0.912654
vn 0.407907 -0.025960 -0.912654
vn -0.023328 0.106310 0.994059
vn 0.023328 -0.106310 -0.994059
vn -0.005375 0.999902 -0.012903
vn -0.000977 0.999999 -0.000262
vn 0.005805 0.999968 -0.005418
vn -0.005805 -0.999968 0.005418
vn 0.000977 -0.999999 0.000262
vn 0.005375 -0.999902 0.012903
vn 0.002830 0.999995 0.001465
vn -0.002830 -0.999995 -0.001465
vn -0.008668 0.999663 -0.024484
vn 0.008668 -0.999663 0.024484
vn -0.586976 0.026084 -0.809184
vn 0.586976 -0.026084 0.809184
vn 0.099663 0.023928 0.994734
vn -0.099663 -0.023928 -0.994734
vn 0.019823 0.999803 -0.001038
vn -0.019823 -0.999803 0.001038
vn 0.419459 0.028283 -0.907333
vn -0.085282 0.081733 -0.992999
vn 0.655466 0.075009 -0.751490
vn -0.655466 -0.075009 0.751490
vn 0.085282 -0.081733 0.992999
vn -0.419459 -0.028283 0.907333
vn -0.471697 0.075455 -0.878526
vn 0.471697 -0.075455 0.878526
vn 0.451593 0.068871 0.889562
vn -0.451593 -0.068871 -0.889562
vn 0.752465 0.073335 0.654537
vn -0.752465 -0.073335 -0.654537
vn 0.034110 0.999409 -0.004211
vn -0.034110 -0.999409 0.004211
vn -0.103000 0.023172 -0.994411
vn 0.103000 -0.023172 0.994411
vn 0.815428 0.024576 -0.578336
vn -0.815428 -0.024576 0.578336
vn 0.578297 0.024569 0.815456
vn -0.578297 -0.024569 -0.815456
vn 0.906787 0.028096 0.420653
vn 0.994817 0.076127 -0.067410
vn -0.994817 -0.076127 0.067410
vn -0.906787 -0.028096 -0.420653
vn 0.890947 0.070540 -0.448596
vn -0.890947 -0.070540 0.448596
vn 0.994855 0.023612 -0.098521
vn -0.994855 -0.023612 0.098521
usemtl material-0
f 1//1 2//2 3//3
f 3//4 2//5 1//6
f 1//1 4//7 2//2
f 2//5 4//8 1//6
f 3//3 5//9 1//1
f 1//6 5//10 3//4
f 1//1 6//11 4//7
f 4//8 6//12 1//6
f 2//2 4//7 7//13
f 7//14 4//8 2//5
f 8//15 5//9 3//3
f 3//4 5//10 8//16
f 5//9 9//17 1//1
f 1//6 9//18 5//10
f 6//19 1//20 10//21
f 10//22 1//23 6//24
f 4//7 6//11 7//13
f 7//14 6//12 4//8
f 8//15 9//17 5//9
f 5//10 9//18 8//16
f 1//20 9//25 10//21
f 10//22 9//26 1//23
f 6//19 10//21 11//27
f 11//28 10//22 6//24
f 6//11 12//29 7//13
f 7//14 12//30 6//12
f 13//31 9//17 8//15
f 8//16 9//18 13//32
f 9//25 14//33 10//21
f 10//22 14//34 9//26
f 15//35 11//36 10//37
f 10//38 11//39 15//40
f 16//41 6//11 11//36
f 11//39 6//12 16//42
f 6//11 16//41 12//29
f 12//30 16//42 6//12
f 13//31 17//43 9//17
f 9//18 17//44 13//32
f 17//43 14//45 9//17
f 9//18 14//46 17//44
f 10//21 14//33 18//47
f 18//48 14//34 10//22
f 19//49 11//36 15//35
f 15//40 11//39 19//50
f 15//35 10//37 20//51
f 20//52 10//38 15//40
f 19//49 16//41 11//36
f 11//39 16//42 19//50
f 12//29 16//41 19//49
f 19//50 16//42 12//30
f 21//53 17//43 13//31
f 13//32 17//44 21//54
f 21//53 14//45 17//43
f 17//44 14//46 21//54
f 22//55 18//56 14//45
f 14//46 18//57 22//58
f 18//56 23//59 10//37
f 10//38 23//60 18//57
f 23//59 20//51 10//37
f 10//38 20//52 23//60
f 21//53 22//55 14//45
f 14//46 22//58 21//54
f 22//55 24//61 18//56
f 18//57 24//62 22//58
f 24//61 23//59 18//56
f 18//57 23//60 24//62
f 24//61 20//51 23//59
f 23//60 20//52 24//62