mtllib new-9.mtl
v -0.305331 0.407192 -0.137355
v -0.298155 0.310178 -0.148134
v -0.301166 0.406358 -0.133416
v -0.298155 0.310723 -0.151816
v -0.322913 0.494000 -0.154367
v -0.275817 -0.026361 -0.175700
v -0.305666 0.404567 -0.149131
v -0.330599 0.584468 -0.164549
v -0.285385 -0.034939 -0.178189
v -0.239526 -0.026361 -0.175700
v -0.298628 0.319467 -0.160382
v -0.331793 0.588658 -0.185847
v -0.334285 0.583875 -0.174301
v -0.230720 -0.035366 -0.177557
v -0.295102 -0.035547 -0.187640
v -0.217188 0.310178 -0.148134
v -0.298155 0.312909 -0.166547
v -0.289743 0.404057 -0.167199
v -0.336770 0.674213 -0.192001
v -0.282987 -0.058142 -0.160559
v -0.217188 0.311273 -0.155499
v -0.298002 -0.031136 -0.204868
v -0.286093 -0.036378 -0.219097
v -0.298155 0.313459 -0.170230
v -0.307998 0.566538 -0.198994
v -0.330558 0.762230 -0.214253
v -0.232308 -0.058114 -0.160630
v -0.294941 -0.073348 -0.159031
v -0.220158 -0.035674 -0.187716
v -0.275817 -0.019799 -0.219893
v -0.311913 0.742130 -0.237910
v -0.266725 0.402445 -0.183387
v -0.267403 -0.010637 -0.217902
v -0.330664 0.745530 -0.228001
v -0.334683 0.760380 -0.216993
v -0.216704 0.313218 -0.174883
v -0.298065 -0.079463 -0.181350
v -0.229346 -0.040038 -0.218564
v -0.297272 0.727639 -0.238354
v -0.280517 0.510531 -0.199364
v -0.271087 0.306692 -0.185969
v -0.330927 0.871743 -0.278288
v -0.335097 0.878661 -0.263907
v -0.220274 -0.073902 -0.158683
v -0.217240 -0.039595 -0.198742
v -0.283031 -0.071419 -0.205207
v -0.239526 -0.019799 -0.219893
v -0.284786 0.862541 -0.285072
v -0.308751 0.865601 -0.285015
v -0.237868 0.405607 -0.192260
v -0.240067 0.315435 -0.192603
v -0.220352 -0.033033 -0.209893
v -0.217188 0.315645 -0.184961
v -0.230404 -0.088096 -0.192989
v -0.283302 0.832662 -0.271482
v -0.284598 0.689704 -0.229005
v -0.259352 0.488600 -0.198703
v -0.217456 -0.079056 -0.181957
v -0.217188 0.316736 -0.192327
v -0.276639 0.574756 -0.210291
v -0.248415 0.474097 -0.183553
v -0.248241 0.446056 -0.195171
v -0.248914 0.445965 -0.166798
v -0.272721 0.575973 -0.199862
v -0.279929 0.576456 -0.189590
v -0.284544 0.705369 -0.233412
v -0.280446 0.707693 -0.228103
v -0.283015 0.708215 -0.224196
v -0.282233 0.836622 -0.267658
v -0.291947 0.839935 -0.255863
vn -0.692369 -0.063453 0.718748
vn -0.694863 -0.129983 0.707297
vn -0.667222 -0.030031 0.744253
vn 0.667222 0.030031 -0.744253
vn 0.694863 0.129983 -0.707297
vn 0.692369 0.063453 -0.718748
vn -0.987934 -0.153308 -0.021958
vn 0.069758 -0.986796 -0.146176
vn -0.992970 -0.113078 0.034994
vn 0.992970 0.113078 -0.034994
vn -0.069758 0.986796 0.146176
vn 0.987934 0.153308 0.021958
vn -0.766296 0.000309 0.642487
vn 0.766296 -0.000309 -0.642487
vn 0.997810 0.065438 0.009693
vn -0.997810 -0.065438 -0.009693
vn -0.972672 -0.111728 -0.203536
vn 0.972672 0.111728 0.203536
vn -0.964224 -0.190933 -0.183891
vn 0.964224 0.190933 0.183891
vn -0.856312 0.013997 0.516269
vn 0.856312 -0.013997 -0.516269
vn 0.456344 0.084442 -0.885788
vn 0.083402 -0.231021 0.969368
vn 0.546218 0.802022 -0.241676
vn -0.546218 -0.802022 0.241676
vn -0.083402 0.231021 -0.969368
vn -0.456344 -0.084442 0.885788
vn 0.000000 -0.081637 0.996662
vn 0.046362 -0.117767 0.991958
vn -0.046362 0.117767 -0.991958
vn 0.000000 0.081637 -0.996662
vn 0.981165 -0.099521 -0.165560
vn -0.981165 0.099521 0.165560
vn -0.816056 -0.182034 -0.548559
vn 0.816056 0.182034 0.548559
vn -0.996573 -0.066158 0.049650
vn 0.996573 0.066158 -0.049650
vn 0.057882 -0.326818 0.943313
vn -0.057882 0.326818 -0.943313
vn -0.400840 0.790155 0.463663
vn 0.400840 -0.790155 -0.463663
vn 0.984175 0.177195 -0.001294
vn -0.984175 -0.177195 0.001294
vn 0.034424 -0.770505 0.636503
vn -0.034424 0.770505 -0.636503
vn -0.743453 -0.225453 -0.629641
vn 0.743453 0.225453 0.629641
vn -0.991240 0.023022 0.130052
vn 0.991240 -0.023022 -0.130052
vn -0.004486 0.604697 0.796443
vn -0.001243 0.726633 0.687025
vn -0.001843 0.600823 0.799380
vn 0.001843 -0.600823 -0.799380
vn 0.001243 -0.726633 -0.687025
vn 0.004486 -0.604697 -0.796443
vn -0.666349 0.524258 0.530219
vn 0.666349 -0.524258 -0.530219
vn 0.435392 -0.074088 0.897187
vn -0.435392 0.074088 -0.897187
vn 0.997809 -0.065434 -0.009727
vn -0.997809 0.065434 0.009727
vn -0.960357 0.227931 0.160505
vn 0.960357 -0.227931 -0.160505
vn 0.998495 0.027326 0.047561
vn -0.998495 -0.027326 -0.047561
vn 0.073232 -0.986398 -0.147160
vn -0.073232 0.986398 0.147160
vn -0.476142 -0.204445 -0.855273
vn 0.476142 0.204445 0.855273
vn -0.243366 -0.111673 0.963484
vn 0.243366 0.111673 -0.963484
vn -0.528962 0.261579 0.807326
vn -0.344431 0.252878 0.904113
vn 0.344431 -0.252878 -0.904113
vn 0.528962 -0.261579 -0.807326
vn 0.000675 0.833333 0.552771
vn -0.000675 -0.833333 -0.552771
vn -0.388814 -0.796383 -0.463247
vn 0.388814 0.796383 0.463247
vn -0.702685 -0.572230 -0.422832
vn 0.749193 -0.082056 0.657249
vn -0.097328 -0.957568 0.271276
vn 0.097328 0.957568 -0.271276
vn -0.749193 0.082056 -0.657249
vn 0.702685 0.572230 0.422832
vn -0.044435 -0.736591 0.674877
vn 0.044435 0.736591 -0.674877
vn 0.287621 -0.132767 0.948497
vn 0.325099 0.194920 0.925374
vn 0.262980 -0.223848 -0.938474
vn -0.262980 0.223848 0.938474
vn -0.325099 -0.194920 -0.925374
vn -0.287621 0.132767 -0.948497
vn 0.997809 0.065429 0.009761
vn -0.997809 -0.065429 -0.009761
vn -0.370282 -0.266355 -0.889914
vn 0.370282 0.266355 0.889914
vn -0.393137 -0.081737 -0.915840
vn 0.393137 0.081737 0.915840
vn 0.242826 -0.100332 0.964867
vn -0.242826 0.100332 -0.964867
vn -0.637084 -0.251438 -0.728631
vn 0.637084 0.251438 0.728631
vn -0.763965 0.216150 0.607977
vn 0.763965 -0.216150 -0.607977
vn -0.655880 -0.524081 -0.543287
vn 0.655880 0.524081 0.543287
vn 0.980621 -0.177813 0.082247
vn 0.980508 0.014839 -0.195918
vn 0.999656 -0.010775 0.023890
vn -0.999656 0.010775 -0.023890
vn -0.980508 -0.014839 0.195918
vn -0.980621 0.177813 -0.082247
vn -0.627768 -0.506122 -0.591394
vn 0.627768 0.506122 0.591394
vn 0.176540 0.566199 -0.805141
vn -0.176540 -0.566199 0.805141
vn -0.068335 -0.151528 0.986088
vn 0.068335 0.151528 -0.986088
vn -0.319215 -0.231509 -0.918970
vn 0.319215 0.231509 0.918970
vn -0.156051 -0.163658 -0.974097
vn 0.156051 0.163658 0.974097
vn -0.677354 -0.617659 0.399610
vn 0.677354 0.617659 -0.399610
vn -0.745753 -0.241316 -0.620982
vn 0.745753 0.241316 0.620982
vn -0.953876 0.114975 0.277310
vn 0.953876 -0.114975 -0.277310
vn -0.846648 -0.467495 -0.254236
vn 0.846648 0.467495 0.254236
vn -0.998265 -0.044432 0.038642
vn 0.998265 0.044432 -0.038642
vn -0.719548 -0.379673 -0.581463
vn 0.719548 0.379673 0.581463
vn 0.144269 0.007593 -0.989509
vn -0.144269 -0.007593 0.989509
vn -0.075570 0.153413 0.985268
vn 0.075570 -0.153413 -0.985268
vn -0.180452 -0.323205 -0.928965
vn 0.180452 0.323205 0.928965
vn -0.303666 -0.340125 -0.890001
vn 0.303666 0.340125 0.890001
vn -0.157293 -0.064425 -0.985448
vn 0.157293 0.064425 0.985448
vn -0.742815 -0.662693 0.095204
vn 0.742815 0.662693 -0.095204
vn -0.123383 0.977690 -0.169997
vn 0.123383 -0.977690 0.169997
vn 0.284753 0.080510 -0.955214
vn -0.284753 -0.080510 0.955214
vn -0.067452 0.825813 0.559896
vn 0.067452 -0.825813 -0.559896
vn 0.575840 -0.314623 -0.754600
vn -0.575840 0.314623 0.754600
vn 0.055539 -0.221392 -0.973602
vn 0.017953 -0.202409 -0.979136
vn -0.017953 0.202409 0.979136
vn -0.055539 0.221392 0.973602
vn -0.100271 -0.126531 -0.986882
vn 0.100271 0.126531 0.986882
vn 0.018543 -0.081093 0.996534
vn -0.018543 0.081093 -0.996534
vn -0.960591 0.162252 0.225699
vn 0.960591 -0.162252 -0.225699
vn -0.722920 0.594241 0.352512
vn 0.722920 -0.594241 -0.352512
vn 0.998071 -0.028927 -0.054925
vn -0.739635 -0.612114 0.279744
vn -0.913770 -0.396257 -0.089465
vn 0.913770 0.396257 0.089465
vn 0.739635 0.612114 -0.279744
vn -0.998071 0.028927 0.054925
vn 0.997810 -0.065438 -0.009692
vn 0.086236 -0.985523 -0.145972
vn -0.086236 0.985523 0.145972
vn -0.997810 0.065438 0.009692
vn -0.140223 -0.280840 -0.949456
vn 0.140223 0.280840 0.949456
vn -0.094700 -0.161409 -0.982333
vn 0.094700 0.161409 0.982333
vn 0.057203 -0.997489 -0.041744
vn -0.057203 0.997489 0.041744
vn -0.975522 -0.218515 0.024649
vn 0.975522 0.218515 -0.024649
vn -0.946593 -0.194908 0.256852
vn 0.946593 0.194908 -0.256852
vn -0.937072 -0.234422 -0.258733
vn 0.937072 0.234422 0.258733
vn -0.822672 -0.273556 -0.498375
vn 0.822672 0.273556 0.498375
vn -0.926075 -0.104957 0.362448
vn 0.926075 0.104957 -0.362448
vn -0.811739 -0.242577 -0.531259
vn 0.811739 0.242577 0.531259
vn -0.897849 -0.025849 0.439545
vn 0.897849 0.025849 -0.439545
vn -0.813705 -0.203282 -0.544574
vn 0.813705 0.203282 0.544574
vn -0.860535 0.086666 0.501964
vn 0.860535 -0.086666 -0.501964
vn -0.826420 -0.166215 -0.537962
vn 0.826420 0.166215 0.537962
vn -0.881295 0.103644 0.461061
vn 0.881295 -0.103644 -0.461061
vn -0.817818 -0.175401 -0.548095
vn 0.817818 0.175401 0.548095
vn -0.912351 0.115495 0.392781
vn 0.912351 -0.115495 -0.392781
vn -0.809094 -0.183983 -0.558137
vn 0.809094 0.183983 0.558137
vn -0.974628 0.053200 0.217418
vn 0.974628 -0.053200 -0.217418
vn -0.783239 -0.195038 -0.590336
vn 0.783239 0.195038 0.590336
usemtl material-0
f 1//1 2//2 3//3
f 3//4 2//5 1//6
f 4//7 2//8 1//9
f 1//10 2//11 4//12
f 5//13 1//1 3//3
f 3//4 1//6 5//14
f 6//15 4//7 2//8
f 2//11 4//12 6//16
f 4//7 1//9 7//17
f 7//18 1//10 4//12
f 5//19 7//17 1//9
f 1//10 7//18 5//20
f 8//21 5//13 3//3
f 3//4 5//14 8//22
f 4//23 6//24 9//25
f 9//26 6//27 4//28
f 2//29 6//24 10//30
f 10//31 6//27 2//32
f 11//33 4//7 7//17
f 7//18 4//12 11//34
f 12//35 7//17 5//19
f 5//20 7//18 12//36
f 13//37 5//13 8//21
f 8//22 5//14 13//38
f 6//24 9//25 14//39
f 14//40 9//26 6//27
f 4//23 9//25 15//41
f 15//42 9//26 4//28
f 6//24 14//39 10//30
f 10//31 14//40 6//27
f 2//29 10//29 16//29
f 16//32 10//32 2//32
f 15//43 11//33 4//7
f 4//12 11//34 15//44
f 17//45 11//33 7//17
f 7//18 11//34 17//46
f 12//35 18//47 7//17
f 7//18 18//48 12//36
f 12//35 5//19 13//37
f 13//38 5//20 12//36
f 19//49 13//37 8//21
f 8//22 13//38 19//50
f 9//51 20//52 14//53
f 14//54 20//55 9//56
f 15//41 20//57 9//25
f 9//26 20//58 15//42
f 21//59 10//30 14//39
f 14//40 10//31 21//60
f 10//61 21//61 16//61
f 16//62 21//62 10//62
f 22//63 11//33 15//43
f 15//44 11//34 22//64
f 23//65 17//45 11//33
f 11//34 17//46 23//66
f 24//67 17//45 7//17
f 7//18 17//46 24//68
f 12//35 25//69 18//47
f 18//48 25//70 12//36
f 24//71 7//17 18//47
f 18//48 7//18 24//72
f 19//49 12//35 13//37
f 13//38 12//36 19//50
f 26//73 19//49 8//74
f 8//75 19//50 26//76
f 14//53 20//52 27//77
f 27//78 20//55 14//54
f 21//59 14//39 29//79
f 29//80 14//40 21//60
f 23//81 11//82 22//83
f 22//84 11//85 23//86
f 22//63 28//87 15//43
f 15//44 28//88 22//64
f 17//89 23//90 30//91
f 30//92 23//93 17//94
f 30//95 24//67 17//45
f 17//46 24//68 30//96
f 31//97 25//69 12//35
f 12//36 25//70 31//98
f 25//69 32//99 18//47
f 18//48 32//100 25//70
f 18//47 24//71 33//101
f 33//102 24//72 18//48
f 34//103 12//35 19//49
f 19//50 12//36 34//104
f 26//73 35//105 19//49
f 19//50 35//106 26//76
f 14//39 29//79 27//107
f 27//108 29//80 14//40
f 29//109 36//110 21//111
f 21//112 36//113 29//114
f 23//81 37//115 22//83
f 22//84 37//116 23//86
f 30//91 38//117 23//90
f 23//93 38//118 30//92
f 24//71 30//119 33//101
f 33//102 30//120 24//72
f 31//97 39//121 25//69
f 25//70 39//122 31//98
f 34//103 31//97 12//35
f 12//36 31//98 34//104
f 25//69 40//123 32//99
f 32//100 40//124 25//70
f 18//47 32//99 41//125
f 41//126 32//100 18//48
f 18//47 33//101 41//125
f 41//126 33//102 18//48
f 42//127 34//103 19//49
f 19//50 34//104 42//128
f 43//129 35//105 26//73
f 26//76 35//106 43//130
f 43//129 19//49 35//105
f 35//106 19//50 43//130
f 29//79 44//131 27//107
f 27//108 44//132 29//80
f 45//133 36//110 29//109
f 29//114 36//113 45//134
f 23//81 46//135 37//115
f 37//116 46//136 23//86
f 47//137 38//117 30//91
f 30//92 38//118 47//138
f 23//90 46//139 38//117
f 38//118 46//140 23//93
f 48//141 39//121 31//97
f 31//98 39//122 48//142
f 39//121 40//123 25//69
f 25//70 40//124 39//122
f 49//143 31//97 34//103
f 34//104 31//98 49//144
f 40//123 50//145 32//99
f 32//100 50//146 40//124
f 32//99 51//147 41//125
f 41//126 51//148 32//100
f 51//147 41//125 33//101
f 33//102 41//126 51//148
f 42//127 49//143 34//103
f 34//104 49//144 42//128
f 42//127 19//49 43//129
f 43//130 19//50 42//128
f 52//149 36//110 45//133
f 45//134 36//113 52//150
f 53//151 38//117 47//137
f 47//138 38//118 53//152
f 38//117 46//139 54//153
f 54//154 46//140 38//118
f 48//155 55//155 39//155
f 39//156 55//156 48//156
f 49//143 48//141 31//97
f 31//98 48//142 49//144
f 39//157 56//158 40//123
f 40//124 56//159 39//160
f 40//123 57//161 50//145
f 50//146 57//162 40//124
f 50//145 51//147 32//99
f 32//100 51//148 50//146
f 51//147 33//101 47//163
f 47//164 33//102 51//148
f 36//110 52//149 38//167
f 38//168 52//150 36//113
f 52//149 58//165 45//133
f 45//134 58//166 52//150
f 38//169 53//170 36//171
f 36//172 53//173 38//174
f 47//175 59//176 53//170
f 53//173 59//177 47//178
f 55//179 56//158 39//157
f 39//160 56//159 55//180
f 56//158 60//181 40//123
f 40//124 60//182 56//159
f 60//181 57//161 40//123
f 40//124 57//162 60//182
f 50//145 59//183 51//147
f 51//148 59//184 50//146
f 59//183 51//147 47//163
f 47//164 51//148 59//184
f 38//167 58//165 52//149
f 52//150 58//166 38//168
f 53//170 36//171 61//185
f 61//186 36//172 53//173
f 62//187 59//176 53//170
f 53//173 59//177 62//188
f 61//185 36//171 16//189
f 16//190 36//172 61//186
f 62//187 53//170 61//185
f 61//186 53//173 62//188
f 61//185 16//189 63//191
f 63//192 16//190 61//186
f 60//193 62//187 61//185
f 61//186 62//188 60//194
f 64//195 61//185 63//191
f 63//192 61//186 64//196
f 60//193 61//185 64//197
f 64//198 61//186 60//194
f 64//195 63//191 65//199
f 65//200 63//192 64//196
f 66//201 60//193 64//197
f 64//198 60//194 66//202
f 67//203 64//195 65//199
f 65//200 64//196 67//204
f 66//201 64//197 67//205
f 67//206 64//198 66//202
f 67//203 65//199 68//207
f 68//208 65//200 67//204
f 55//209 66//201 67//205
f 67//206 66//202 55//210
f 69//211 67//203 68//207
f 68//208 67//204 69//212
f 55//209 67//205 69//213
f 69//214 67//206 55//210
f 69//211 68//207 70//215
f 70//216 68//208 69//212