# SSTK version 0.8.0
# 29
mtllib original-29.mtl
o mesh29/mesh29-geometry#mesh29-geometry
v 0.028253 -0.204222 0.015584
v 0.035313 -0.362341 0.036001
v 0.035313 -0.204222 0.036001
v 0.026083 -0.362341 0.013414
v 0.028253 -0.362341 0.056418
v 0.005667 -0.204222 0.006355
v 0.026083 -0.204222 0.058588
v 0.005667 -0.362341 0.006355
v 0.005667 -0.362341 0.065647
v -0.014750 -0.204222 0.013414
v 0.005667 -0.204222 0.065647
v -0.016920 -0.362341 0.015584
v -0.014750 -0.362341 0.058588
v -0.023980 -0.204222 0.036001
v -0.016920 -0.204222 0.056418
v -0.023980 -0.362341 0.036001
vn -0.935745883918391 0.0037579995338107137 0.3526549562522738
vn -0.9450993549368549 0 0.3267831227250587
vn 0.9450993549368549 0 -0.3267831227250587
vn 0.935745883918391 -0.0037579995338107137 -0.3526549562522738
vn -0.9256709511884463 0.007513999603779213 0.37825498005423713
vn 0.9256709511884463 -0.007513999603779213 -0.37825498005423713
vn -0.9450993549368549 0 -0.3267831227250587
vn -0.935745883918391 -0.0037579995338107137 -0.3526549562522738
vn 0.935745883918391 0.0037579995338107137 0.3526549562522738
vn 0.9450993549368549 0 0.3267831227250587
vn -0.3526549562522738 -0.003757999533811 0.935745883918391
vn -0.37825498005423713 -0.0075139996037795025 0.9256709511884463
vn 0.37825498005423713 0.0075139996037795025 -0.9256709511884463
vn 0.3526549562522738 0.003757999533811 -0.935745883918391
vn -0.9256709511884463 -0.007513999603779213 -0.37825498005423713
vn 0.9256709511884463 0.007513999603779213 0.37825498005423713
vn -0.3267831227250587 0 0.9450993549368549
vn 0.3267831227250587 0 -0.9450993549368549
vn -0.3526549562522738 0.003757999533811 -0.935745883918391
vn -0.37825498005423713 0.0075139996037795025 -0.9256709511884463
vn 0.3526549562522738 -0.003757999533811 0.935745883918391
vn 0.37825498005423713 -0.0075139996037795025 0.9256709511884463
vn 0.3526549562522738 0.0037579995338105844 0.935745883918391
vn 0.3267831227250587 0 0.9450993549368549
vn -0.3267831227250587 0 -0.9450993549368549
vn -0.3526549562522738 -0.0037579995338105844 -0.935745883918391
vn 0.37825498005423713 0.007513999603779091 0.9256709511884463
vn -0.37825498005423713 -0.007513999603779091 -0.9256709511884463
vn 0.3526549562522738 -0.0037579995338105844 -0.935745883918391
vn -0.3526549562522738 0.0037579995338105844 0.935745883918391
vn 0.9256709511884463 -0.007513999603779381 0.37825498005423713
vn 0.935745883918391 -0.0037579995338108707 0.3526549562522738
vn -0.935745883918391 0.0037579995338108707 -0.3526549562522738
vn -0.9256709511884463 0.007513999603779381 -0.37825498005423713
vn 0.37825498005423713 -0.007513999603779091 -0.9256709511884463
vn -0.37825498005423713 0.007513999603779091 0.9256709511884463
vn 0.935745883918391 0.0037579995338108707 -0.3526549562522738
vn 0.9256709511884463 0.007513999603779381 -0.37825498005423713
vn -0.9256709511884463 -0.007513999603779381 0.37825498005423713
vn -0.935745883918391 -0.0037579995338108707 0.3526549562522738
usemtl material_0_0
f 1//1 2//1 3//2
f 3//3 2//4 1//4
f 4//5 2//1 1//1
f 1//4 2//4 4//6
f 2//7 5//8 3//8
f 3//9 5//9 2//10
f 6//11 4//11 1//12
f 1//13 4//14 6//14
f 3//8 5//8 7//15
f 7//16 5//9 3//9
f 6//11 8//17 4//11
f 4//14 8//18 6//14
f 7//19 5//20 9//19
f 9//21 5//22 7//21
f 10//23 8//23 6//24
f 6//25 8//26 10//26
f 7//19 9//19 11//25
f 11//24 9//21 7//21
f 10//23 12//27 8//23
f 8//26 12//28 10//26
f 11//29 9//18 13//29
f 13//30 9//17 11//30
f 10//31 14//32 12//32
f 12//33 14//33 10//34
f 11//29 13//29 15//35
f 15//36 13//30 11//30
f 12//32 14//32 16//10
f 16//7 14//33 12//33
f 16//37 15//37 13//38
f 13//39 15//40 16//40
f 14//3 15//37 16//37
f 16//40 15//40 14//2
