# SSTK version 0.8.0
# 5
mtllib original-5.mtl
o mesh5/mesh5-geometry#mesh5-geometry
v 0.453450 -0.668728 0.317104
v 0.465545 -0.703550 0.336594
v 0.476843 -0.653202 0.348498
v 0.424721 -0.680370 0.296040
v 0.477052 -0.680196 0.354903
v 0.461988 -0.631387 0.334826
v 0.434457 -0.633512 0.309750
v 0.439631 -0.707465 0.317600
v 0.449623 -0.709736 0.348685
v 0.467522 -0.672567 0.366461
v 0.456636 -0.635883 0.355573
v 0.409969 -0.658162 0.308912
v 0.416028 -0.696850 0.314960
v 0.428041 -0.629459 0.326985
vn 0.43158608573544766 0.5685201129376689 -0.7003701391299427
vn -0.7481269779339951 0.157084995366778 0.6446939809847513
vn -0.8939728765021254 0.2531309650312252 0.36977994891675253
vn 0.8939728765021254 -0.2531309650312252 -0.36977994891675253
vn 0.7481269779339951 -0.157084995366778 -0.6446939809847513
vn -0.43158608573544766 -0.5685201129376689 0.7003701391299427
vn -0.5954598903329712 0.5310499021954864 0.6028378889741507
vn 0.5954598903329712 -0.5310499021954864 -0.6028378889741507
vn -0.8937382648124527 0.0969810287352405 0.43798012977243667
vn 0.8937382648124527 -0.0969810287352405 -0.43798012977243667
vn 0.7107952133985249 0.16230604872834095 -0.6844172054791864
vn -0.7107952133985249 -0.16230604872834095 0.6844172054791864
vn 0.6039529779964834 0.16279999406878948 -0.7802159715747821
vn -0.6039529779964834 -0.16279999406878948 0.7802159715747821
vn -0.5951230264942825 0.27374801218698785 0.7555730336373567
vn 0.5951230264942825 -0.27374801218698785 -0.7555730336373567
vn -0.5226283746428876 0.6105234376499149 -0.5950804265796886
vn -0.6016802058176857 0.6549112240265031 -0.457244156410221
vn 0.5226283746428876 -0.6105234376499149 0.5950804265796886
vn 0.6016802058176857 -0.6549112240265031 0.457244156410221
vn 0.7188272868053157 0.4133991649423723 0.5589172230027067
vn 0.7061179902478044 0.2680769962975884 0.6553869909484503
vn 0.8077042331382066 0.1420370409980034 0.5722231651682349
vn -0.8077042331382066 -0.1420370409980034 -0.5722231651682349
vn -0.7061179902478044 -0.2680769962975884 -0.6553869909484503
vn -0.7188272868053157 -0.4133991649423723 -0.5589172230027067
vn 0.6786816321896071 0.6617666413566584 0.3185218273776204
vn 0.6501066611271153 0.5402847183726117 0.5342787215032819
vn -0.6501066611271153 -0.5402847183726117 -0.5342787215032819
vn -0.6786816321896071 -0.6617666413566584 -0.3185218273776204
vn -0.29574690890272026 0.32433390009722823 -0.898521723233338
vn 0.29574690890272026 -0.32433390009722823 0.898521723233338
vn 0.2278510933102824 0.6799722784643443 0.6969372854119065
vn -0.2278510933102824 -0.6799722784643443 -0.6969372854119065
vn -0.2555749346130782 0.9547777557273034 0.1519239611313992
vn 0.2555749346130782 -0.9547777557273034 -0.1519239611313992
vn -0.4293521508767338 0.5495181931037494 -0.7167192518591312
vn 0.4293521508767338 -0.5495181931037494 0.7167192518591312
vn 0.054214987663435174 0.9984717727987724 0.010716997561358422
vn 0.099866967216726 0.9762246795352653 -0.19238493684590313
vn -0.054214987663435174 -0.9984717727987724 -0.010716997561358422
vn -0.099866967216726 -0.9762246795352653 0.19238493684590313
vn 0.006185996776335642 0.9769564908856352 0.21334888881901623
vn -0.006185996776335642 -0.9769564908856352 -0.21334888881901623
vn 0.8043312034085504 0.21271605379408864 0.5548001403042575
vn -0.8043312034085504 -0.21271605379408864 -0.5548001403042575
vn -0.6452921229975301 0.6544401247412082 -0.39408907511634045
vn 0.6452921229975301 -0.6544401247412082 0.39408907511634045
vn 0.415485859458608 0.907107693163618 -0.06728397724066007
vn -0.415485859458608 -0.907107693163618 0.06728397724066007
vn 0.7062479657918213 -0.0014999999273450982 -0.7079629657087526
vn -0.7062479657918213 0.0014999999273450982 0.7079629657087526
vn -0.7071612790480172 0.000013000005129685037 0.7070522790050054
vn 0.7071612790480172 -0.000013000005129685037 -0.7070522790050054
vn -0.7068937801203704 0.0011519996416698341 0.707318779988174
vn 0.7068937801203704 -0.0011519996416698341 -0.707318779988174
vn 0.7071087655913617 0.00020999993038456165 -0.7071047655926878
vn -0.7071087655913617 -0.00020999993038456165 0.7071047655926878
vn -0.7070867804768117 -0.00003499998913400958 0.7071267804643931
vn 0.7070867804768117 0.00003499998913400958 -0.7071267804643931
vn 0.7081992442841648 -0.0013980004822220185 -0.7060112435294423
vn -0.7081992442841648 0.0013980004822220185 0.7060112435294423
usemtl material_0_0
f 1//1 2//2 3//3
f 3//4 2//5 1//6
f 1//1 4//7 2//2
f 2//5 4//8 1//6
f 2//2 5//9 3//3
f 3//4 5//10 2//5
f 1//1 6//11 3//3
f 3//4 6//12 1//6
f 7//13 1//1 4//7
f 4//8 1//6 7//14
f 4//7 8//15 2//2
f 2//5 8//16 4//8
f 5//17 2//18 9//17
f 9//19 2//20 5//19
f 3//21 10//22 5//23
f 5//24 10//25 3//26
f 6//11 1//1 7//13
f 7//14 1//6 6//12
f 6//27 11//28 3//21
f 3//26 11//29 6//30
f 7//31 4//31 12//31
f 12//32 4//32 7//32
f 4//33 13//33 8//33
f 8//34 13//34 4//34
f 2//35 8//35 9//35
f 9//36 8//36 2//36
f 10//37 5//17 9//17
f 9//19 5//19 10//38
f 11//28 10//22 3//21
f 3//26 10//25 11//29
f 6//39 7//40 14//39
f 14//41 7//42 6//41
f 6//39 14//39 11//43
f 11//44 14//41 6//41
f 4//45 12//45 13//45
f 13//46 12//46 4//46
f 7//47 12//47 14//47
f 14//48 12//48 7//48
f 9//49 8//49 13//49
f 13//50 8//50 9//50
f 14//51 10//51 9//51
f 9//52 10//52 14//52
f 13//53 10//53 11//53
f 11//54 10//54 13//54
f 14//55 9//55 11//55
f 11//56 9//56 14//56
f 12//57 10//57 13//57
f 13//58 10//58 12//58
f 14//59 12//59 10//59
f 10//60 12//60 14//60
f 13//61 11//61 9//61
f 9//62 11//62 13//62
