# SSTK version 0.8.0
# 9
mtllib original-9.mtl
o mesh9/mesh9-geometry#mesh9-geometry
v 0.142013 -0.185039 0.196098
v 0.142012 -0.190707 0.278563
v 0.143071 -0.212938 0.217584
v 0.142013 -0.150223 0.202195
v 0.145646 -0.210586 0.253582
v 0.149862 -0.182446 0.200190
v 0.142018 -0.129680 0.240631
v 0.150892 -0.189636 0.273629
v 0.152110 -0.212345 0.235694
v 0.151995 -0.202175 0.213313
v 0.151082 -0.157607 0.204234
v 0.150925 -0.141779 0.218068
v 0.142026 -0.155385 0.277285
v 0.228815 -0.191249 0.272299
v 0.151082 -0.168137 0.275691
v 0.228818 -0.206756 0.256885
v 0.228818 -0.202175 0.213313
v 0.228817 -0.180920 0.200849
v 0.151082 -0.136914 0.243791
v 0.151124 -0.145009 0.262939
v 0.228806 -0.160405 0.273497
v 0.228817 -0.212041 0.232821
v 0.228815 -0.150994 0.208437
v 0.228806 -0.136609 0.235754
v 0.228818 -0.142202 0.256885
vn 0.999798833742466 0.02000899667268421 0.0013899997688555721
vn 0.9936507977836373 0.10889597783874516 -0.028279994244781354
vn 0.985664393599034 0.1632990652091673 -0.04241601693771569
vn -0.985664393599034 -0.1632990652091673 0.04241601693771569
vn -0.9936507977836373 -0.10889597783874516 0.028279994244781354
vn -0.999798833742466 -0.02000899667268421 -0.0013899997688555721
vn 1 -0.0000019999999998000027 0.0000139999999986
vn -1 0.0000019999999998000027 -0.0000139999999986
vn 0.9549594615706108 0.2837398400205717 -0.08685695102793675
vn -0.9549594615706108 -0.2837398400205717 0.08685695102793675
vn -0.1991129141200302 0.5353757690855205 0.820808645974637
vn -0.5242662011030484 0.5070311944918795 0.6841522624336747
vn -0.38461689926673187 0.5205188636732643 0.7623188003445396
vn 0.38461689926673187 -0.5205188636732643 -0.7623188003445396
vn 0.5242662011030484 -0.5070311944918795 -0.6841522624336747
vn 0.1991129141200302 -0.5353757690855205 -0.820808645974637
vn -0.45364699698460836 -0.28777899808713314 0.8434379943936675
vn -0.4153837637893898 -0.15692391076422368 0.8960084904790927
vn -0.25156989379060946 -0.153856935043693 0.9555315965875447
vn 0.25156989379060946 0.153856935043693 -0.9555315965875447
vn 0.4153837637893898 0.15692391076422368 -0.8960084904790927
vn 0.45364699698460836 0.28777899808713314 -0.8434379943936675
vn 0.9999999884595002 -0.00013999999838433001 -0.000058999999319110544
vn -0.9999999884595002 0.00013999999838433001 0.000058999999319110544
vn -0.21254893055910667 0.7028287703820127 -0.6788627782118326
vn -0.14270898739587146 0.7070659375515858 -0.6925979388294065
vn -0.41684506072536764 0.6807570991716804 -0.6023370877475698
vn 0.41684506072536764 -0.6807570991716804 0.6023370877475698
vn 0.14270898739587146 -0.7070659375515858 0.6925979388294065
vn 0.21254893055910667 -0.7028287703820127 0.6788627782118326
vn 0.008915995602257584 0.9999515067820406 0.004181997937263705
vn 0.07582600129662465 0.9946320170082077 -0.07041000120401082
vn 0.01732099358757883 0.9956406314029543 -0.09164996607018046
vn -0.01732099358757883 -0.9956406314029543 0.09164996607018046
vn -0.07582600129662465 -0.9946320170082077 0.07041000120401082
vn -0.008915995602257584 -0.9999515067820406 -0.004181997937263705
vn -0.058264992559968774 0.7511809040794627 0.6575199160393149
vn 0.058264992559968774 -0.7511809040794627 -0.6575199160393149
vn -0.19629498186489633 -0.3711819657076135 0.9075749161518799
vn 0.19629498186489633 0.3711819657076135 -0.9075749161518799
vn -0.0039730012169344325 -0.8819302701361653 0.47136314437902443
vn 0.0039730012169344325 0.8819302701361653 -0.47136314437902443
vn 0.999999780819072 -0.0004209999077248292 -0.0005109998879985458
vn -0.999999780819072 0.0004209999077248292 0.0005109998879985458
vn -0.0011629996056536495 0.6980677633013173 -0.71603075721048
vn 0.0011629996056536495 -0.6980677633013173 0.71603075721048
vn -0.2942368664289981 -0.15171093112970044 -0.9436145716391855
vn -0.1869010101441461 0.07603200412667538 -0.9794320531591659
vn -0.3610720546538562 0.02647100400679727 -0.9321621410971993
vn 0.3610720546538562 -0.02647100400679727 0.9321621410971993
vn 0.1869010101441461 -0.07603200412667538 0.9794320531591659
vn 0.2942368664289981 0.15171093112970044 0.9436145716391855
vn -0.6673780836812084 0.6766980848498246 0.31094403898865375
vn 0.6673780836812084 -0.6766980848498246 -0.31094403898865375
vn -0.02661800077355904 0.986143028658796 -0.16374800475876247
vn 0.02661800077355904 -0.986143028658796 0.16374800475876247
vn -0.005846999757203339 0.6727959720621477 0.7398049692795994
vn 0.005846999757203339 -0.6727959720621477 -0.7398049692795994
vn -0.018322999317523257 -0.20325699242928716 0.9789539635369023
vn 0.018322999317523257 0.20325699242928716 -0.9789539635369023
vn -0.15782402698088777 -0.824997141037811 0.5426520927693677
vn 0.15782402698088777 0.824997141037811 -0.5426520927693677
vn -0.32148204524715435 -0.9408641324224021 -0.10688301504330466
vn -0.4162799939922472 -0.8651919875135493 -0.27955999596539033
vn -0.6476089384509256 -0.7479599289135177 0.14545998617541067
vn 0.6476089384509256 0.7479599289135177 -0.14545998617541067
vn 0.4162799939922472 0.8651919875135493 0.27955999596539033
vn 0.32148204524715435 0.9408641324224021 0.10688301504330466
vn -0.09162300249631453 -0.823276022430567 -0.5601980152628754
vn 0.028318001708071118 -0.8184040493640876 -0.5739450346189309
vn -0.028318001708071118 0.8184040493640876 0.5739450346189309
vn 0.09162300249631453 0.823276022430567 0.5601980152628754
vn -0.4523991431323255 -0.21300206739066954 -0.8660052739911219
vn 0.4523991431323255 0.21300206739066954 0.8660052739911219
vn -0.01698999396735542 -0.2725039032419198 -0.9620046584205857
vn -0.016250994727389997 0.03882998740167111 -0.9991136758391193
vn 0.016250994727389997 -0.03882998740167111 0.9991136758391193
vn 0.01698999396735542 0.2725039032419198 0.9620046584205857
vn -0.004292000126656925 0.7049540208031936 -0.7092400209296732
vn 0.004292000126656925 -0.7049540208031936 0.7092400209296732
vn -0.000009999997004581345 0.973689708339081 0.227877931740999
vn 0.000009999997004581345 -0.973689708339081 -0.227877931740999
vn -0.016963995358498827 0.5058088616061618 0.8624787640180802
vn 0.016963995358498827 -0.5058088616061618 -0.8624787640180802
vn -0.022376995867316087 -0.6326458831601224 0.7741178570324436
vn 0.022376995867316087 0.6326458831601224 -0.7741178570324436
vn -0.012150997961852528 -0.9999248322776223 0.001637999725249917
vn 0.012150997961852528 0.9999248322776223 -0.001637999725249917
vn -0.6398320890735906 -0.37019205153591966 -0.6734780937575859
vn 0.6398320890735906 0.37019205153591966 0.6734780937575859
vn -0.9999994503423538 -0.0002550001148374149 -0.0010170004579986318
vn 0.9999994503423538 0.0002550001148374149 0.0010170004579986318
vn -0.9999999789875007 0 -0.00020499999569243763
vn 0.9999999789875007 0 0.00020499999569243763
vn -0.999999997822 0 0.00006599999985625201
vn 0.999999997822 0 -0.00006599999985625201
vn -0.999999997335 0.000042999999885405016 -0.000058999999842764994
vn 0.999999997335 -0.000042999999885405016 0.000058999999842764994
vn -0.999999997535 -0.00004099999989893502 0.000056999999859495
vn 0.999999997535 0.00004099999989893502 -0.000056999999859495
vn -0.9999999942935001 -0.00007299999958342552 0.000077999999554893
vn -0.9999997964510622 -0.0006129998752245012 0.00017699996397183788
vn 0.9999997964510622 0.0006129998752245012 -0.00017699996397183788
vn 0.9999999942935001 0.00007299999958342552 -0.000077999999554893
vn -0.00948900184102785 -0.8551661659167902 -0.5182671005526381
vn 0.00948900184102785 0.8551661659167902 0.5182671005526381
vn -0.9999992974823353 -0.0011530003429974754 0.00027500008180772375
vn 0.9999992974823353 0.0011530003429974754 -0.00027500008180772375
usemtl material_0_0
f 1//1 2//2 3//3
f 3//4 2//5 1//6
f 1//1 4//7 2//2
f 2//5 4//8 1//6
f 3//3 2//2 5//9
f 5//10 2//5 3//4
f 6//11 1//12 3//13
f 3//14 1//15 6//16
f 4//17 1//18 6//19
f 6//20 1//21 4//22
f 4//23 7//23 2//23
f 2//24 7//24 4//24
f 8//25 5//26 2//27
f 2//28 5//29 8//30
f 9//31 3//32 5//33
f 5//34 3//35 9//36
f 6//11 3//13 10//37
f 10//38 3//14 6//16
f 4//17 6//19 11//39
f 11//40 6//20 4//22
f 12//41 7//41 4//41
f 4//42 7//42 12//42
f 7//43 13//43 2//43
f 2//44 13//44 7//44
f 8//25 14//45 5//26
f 5//29 14//46 8//30
f 15//47 8//48 2//49
f 2//50 8//51 15//52
f 9//53 10//53 3//53
f 3//54 10//54 9//54
f 16//55 9//31 5//33
f 5//34 9//36 16//56
f 6//11 10//37 17//57
f 17//58 10//38 6//16
f 11//39 6//19 18//59
f 18//60 6//20 11//40
f 12//61 4//17 11//39
f 11//40 4//22 12//62
f 19//63 7//64 12//65
f 12//66 7//67 19//68
f 20//69 13//70 7//64
f 7//67 13//71 20//72
f 13//73 15//47 2//49
f 2//50 15//52 13//74
f 21//75 14//76 8//48
f 8//51 14//77 21//78
f 14//45 16//79 5//26
f 5//29 16//80 14//46
f 21//75 8//48 15//47
f 15//52 8//51 21//78
f 22//81 10//37 9//31
f 9//36 10//38 22//82
f 16//55 22//81 9//31
f 9//36 22//82 16//56
f 17//57 10//37 22//81
f 22//82 10//38 17//58
f 18//83 6//11 17//57
f 17//58 6//16 18//84
f 23//85 11//39 18//59
f 18//60 11//40 23//86
f 12//61 11//39 23//85
f 23//86 11//40 12//62
f 20//69 7//64 19//63
f 19//68 7//67 20//72
f 24//87 19//63 12//61
f 12//62 19//68 24//88
f 20//89 15//47 13//73
f 13//74 15//52 20//90
f 25//91 14//91 21//91
f 21//92 14//92 25//92
f 16//93 14//93 25//93
f 25//94 14//94 16//94
f 20//69 21//75 15//47
f 15//52 21//78 20//72
f 22//95 16//95 25//95
f 25//96 16//96 22//96
f 17//97 22//97 25//97
f 25//98 22//98 17//98
f 18//99 17//99 25//99
f 25//100 17//100 18//100
f 18//101 25//102 23//102
f 23//103 25//103 18//104
f 23//85 24//87 12//61
f 12//62 24//88 23//86
f 24//87 20//69 19//63
f 19//68 20//72 24//88
f 25//105 21//75 20//69
f 20//72 21//78 25//106
f 23//102 25//102 24//107
f 24//108 25//103 23//103
f 25//105 20//69 24//87
f 24//88 20//72 25//106
