# SSTK version 0.8.0
# 16
mtllib original-16.mtl
o mesh16/mesh16-geometry#mesh16-geometry
v -0.205120 -0.028519 -0.146137
v -0.223789 -0.119308 -0.134566
v -0.205120 -0.117553 -0.134778
v -0.223795 -0.028519 -0.146137
v -0.205108 -0.139107 -0.111572
v -0.223788 -0.139281 -0.110786
v -0.205120 -0.083412 -0.086159
v -0.205150 -0.184193 0.100177
v -0.223782 -0.082120 -0.091965
v -0.205118 -0.062735 -0.099963
v -0.223857 -0.184308 0.100391
v -0.223795 -0.033618 -0.100924
v -0.205120 -0.033618 -0.100924
v -0.205120 -0.124521 0.108180
v -0.205123 -0.160196 0.158020
v -0.223795 -0.028507 -0.146213
v -0.223795 -0.124521 0.108180
v -0.205120 -0.028507 -0.146213
v -0.205122 -0.124209 0.123077
v -0.205120 -0.124715 0.109100
v -0.223799 -0.156128 0.163609
v -0.223790 -0.124019 0.122589
v -0.223795 -0.124715 0.109100
v -0.205132 -0.104722 0.209454
v -0.205120 -0.071925 0.169560
v -0.223802 -0.101148 0.211564
v -0.223782 -0.079934 0.164338
v -0.205092 -0.044461 0.237894
v -0.205122 -0.013178 0.197803
v -0.223799 -0.013155 0.198079
v -0.223749 -0.044967 0.238569
v -0.223795 -0.035804 0.284119
v -0.205120 -0.003739 0.291412
v -0.223795 -0.003739 0.291412
v -0.205120 -0.035804 0.284119
vn -0.0006400000017136 0.12655800033885883 0.9919590026559703
vn 0.0006400000017136 -0.12655800033885883 -0.9919590026559703
vn 0 0.12642895722801614 0.9919756644062576
vn 0 -0.12642895722801614 -0.9919756644062576
vn 0.014245998425717537 -0.850412906023426 -0.5259229418818369
vn 0.020581000097934687 -0.7492910035655012 -0.6619210031497512
vn 0.061039014085028806 -0.7313111687533626 -0.6793071567532015
vn -0.061039014085028806 0.7313111687533626 0.6793071567532015
vn -0.020581000097934687 0.7492910035655012 0.6619210031497512
vn -0.014245998425717537 0.850412906023426 0.5259229418818369
vn -0.00546700294027798 -0.9318295011590066 -0.3628551951517409
vn 0.00546700294027798 0.9318295011590066 0.3628551951517409
vn 0.9999999356950061 0.0002969999809014169 -0.0002009999870746962
vn -0.9999999356950061 -0.0002969999809014169 0.0002009999870746962
vn 0.004859000700092158 -0.9999201440700044 -0.01166600168085536
vn -0.004859000700092158 0.9999201440700044 0.01166600168085536
vn 0.9999999927110002 -0.00006299999954079299 -0.00010299999924923302
vn -0.9999999927110002 0.00006299999954079299 0.00010299999924923302
vn 0.9999999979659999 -0.000047999999902368 0.00004199999991457198
vn -0.9999999979659999 0.000047999999902368 -0.00004199999991457198
vn -0.9999999707310012 -0.00010699999686821708 -0.00021699999364862727
vn 0.9999999707310012 0.00010699999686821708 0.00021699999364862727
vn -0.02199800528418548 -0.9791062351930954 0.20215604856031438
vn 0.02199800528418548 0.9791062351930954 -0.20215604856031438
vn -0.9999999214535094 -0.00020699998374087652 0.00033799997345128606
vn 0.9999999214535094 0.00020699998374087652 -0.00033799997345128606
vn -0.9999999405750053 0.00019099998864982606 -0.00028699998294502645
vn 0.9999999405750053 -0.00019099998864982606 0.00028699998294502645
vn -0.9999999890375001 -0.00006299999930936254 0.000133999998531025
vn 0.9999999890375001 0.00006299999930936254 -0.000133999998531025
vn -0.003992998674552261 -0.2621139129931356 -0.9650286796655383
vn 0.21515405548479563 -0.5422541398386844 -0.812200209453466
vn -0.005996999627184536 -0.376448976597297 -0.9264179424073777
vn 0.005996999627184536 0.376448976597297 0.9264179424073777
vn -0.21515405548479563 0.5422541398386844 0.812200209453466
vn 0.003992998674552261 0.2621139129931356 0.9650286796655383
vn -0.9999998813350212 0.0004769999433968051 0.0000989999882521672
vn 0.9999998813350212 -0.0004769999433968051 -0.0000989999882521672
vn 0.0014969995568754723 -0.8555077467624728 0.5177878467304187
vn -0.0014969995568754723 0.8555077467624728 -0.5177878467304187
vn -0.11436595199713184 -0.10596095552496426 -0.9877715854022255
vn 0.11436595199713184 0.10596095552496426 0.9877715854022255
vn -0.9999999974475 -0.00007099999981877251 -0.000007999999979580016
vn 0.9999999974475 0.00007099999981877251 0.000007999999979580016
vn -0.9999994756648637 0.0010130004818489887 0.0001500000713498011
vn 0.9999994756648637 -0.0010130004818489887 -0.0001500000713498011
vn 0 -0.032984994950640646 -0.9994558470028109
vn 0 0.032984994950640646 0.9994558470028109
vn -1 -0.000008999999999630999 -9.999999999590019e-7
vn 1 0.000008999999999630999 9.999999999590019e-7
vn -0.0033689995834198586 -0.9783448790266849 -0.20695397440993593
vn -0.0011290004157601247 -0.991268365039599 -0.13185504855629007
vn -0.0016840004467906379 -0.9783172595622782 -0.2071050549480852
vn 0.0016840004467906379 0.9783172595622782 0.2071050549480852
vn 0.0011290004157601247 0.991268365039599 0.13185504855629007
vn 0.0033689995834198586 0.9783448790266849 0.20695397440993593
vn 0.9999998602350293 -0.0005089999288596299 0.00014299998001360907
vn -0.9999998602350293 0.0005089999288596299 -0.00014299998001360907
vn -0.01575299185675289 -0.7649166045890847 0.6439366671276507
vn 0.01575299185675289 0.7649166045890847 -0.6439366671276507
vn 0.999999893355517 -0.0003329999644873871 -0.00031999996587376553
vn -0.999999893355517 0.0003329999644873871 0.00031999996587376553
vn 0 -0.9936921892844682 -0.11214202136148732
vn 0 0.9936921892844682 0.11214202136148732
vn 0.9999994590968571 -0.0009890004540472458 -0.00032200014782933603
vn -0.9999994590968571 0.0009890004540472458 0.00032200014782933603
vn -0.0037130018040533335 -0.9987014852437026 -0.05080902468681569
vn 0.0037130018040533335 0.9987014852437026 0.05080902468681569
vn -0.005533998073468955 -0.9995956520143249 0.027890990290408636
vn 0.005533998073468955 0.9995956520143249 -0.027890990290408636
vn 0.017213990558283696 -0.5934746744845718 0.8046685586466584
vn -0.017213990558283696 0.5934746744845718 -0.8046685586466584
vn 0.9999994463383525 -0.0009210004110780336 -0.0005090002271864488
vn -0.9999994463383525 0.0009210004110780336 0.0005090002271864488
vn 1 -0.00003399999997747501 -0.000012999999991387509
vn -1 0.00003399999997747501 0.000012999999991387509
vn -0.00017800005281404745 -0.9937002948388707 -0.11207003325208056
vn 0.00017800005281404745 0.9937002948388707 0.11207003325208056
vn -0.011068002664444873 -0.9993322405732765 0.03482200838284215
vn 0.011068002664444873 0.9993322405732765 -0.03482200838284215
vn 0.008147996117753733 -0.5099767570132177 0.8601495901676327
vn -0.008147996117753733 0.5099767570132177 -0.8601495901676327
vn 0.9999999684735014 -0.00006699999788772465 0.0002419999923705873
vn -0.9999999684735014 0.00006699999788772465 -0.0002419999923705873
vn 0.9999999732350011 -0.00022899999387081526 0.00003299999911675499
vn -0.9999999732350011 0.00022899999387081526 -0.00003299999911675499
vn -0.010902999665703132 0.5202769840477879 -0.8539279738177147
vn -0.024929001891699984 0.6759060512901188 -0.7365660558932123
vn 0.002142999900721246 0.6061309719197713 -0.7953619631532671
vn -0.002142999900721246 -0.6061309719197713 0.7953619631532671
vn 0.024929001891699984 -0.6759060512901188 0.7365660558932123
vn 0.010902999665703132 -0.5202769840477879 0.8539279738177147
vn 0.025983008845929852 0.6873692340152392 -0.7258432471137383
vn -0.025983008845929852 -0.6873692340152392 0.7258432471137383
vn 0.9999999211550092 -0.00023099998178680722 0.00032299997453306793
vn -0.9999999211550092 0.00023099998178680722 -0.00032299997453306793
vn 0.03241800608821558 -0.42981008071984533 0.9023371694620944
vn -0.03241800608821558 0.42981008071984533 -0.9023371694620944
vn 0.9999999698135014 -0.00007799999764545316 0.0002329999929665458
vn 0.99999920007286 -0.0011230002246820463 -0.0005820001164425213
vn 0.9999999304590073 -0.00015099998949931 -0.00034099997628652155
vn -0.9999999304590073 0.00015099998949931 0.00034099997628652155
vn -0.99999920007286 0.0011230002246820463 0.0005820001164425213
vn -0.9999999698135014 0.00007799999764545316 -0.0002329999929665458
vn 0.021699996749470932 0.44204193378477574 -0.8967318656749569
vn -0.021699996749470932 -0.44204193378477574 0.8967318656749569
vn 0.9999999022475143 0.00003199999687192036 0.0004409999568911538
vn 0.9999984559568998 -0.001560000711294186 -0.00080900036886987
vn 0.9999998742790237 -0.00011099998604497153 -0.0004889999385224425
vn -0.9999998742790237 0.00011099998604497153 0.0004889999385224425
vn -0.9999984559568998 0.001560000711294186 0.00080900036886987
vn -0.9999999022475143 -0.00003199999687192036 -0.0004409999568911538
vn 0.044319978929201184 -0.4328317942212098 0.9003845719352167
vn -0.044319978929201184 0.4328317942212098 -0.9003845719352167
vn -0.00007700000144070854 -0.7883890147511526 -0.6151770115102697
vn 0.00007700000144070854 0.7883890147511526 0.6151770115102697
vn -0.012782000321748517 0.4332440109056186 -0.9011860226846548
vn 0.012782000321748517 -0.4332440109056186 0.9011860226846548
vn -0.9999964091281145 -0.0013500005523251635 -0.002315000947135374
vn 0.9999964091281145 0.0013500005523251635 0.002315000947135374
vn -0.016854994018728326 0.9815176516923282 -0.19062793235254463
vn -0.03370500700128904 0.9797992035263612 -0.1971230409468949
vn 0.016854994018728326 -0.9815176516923282 0.19062793235254463
vn 0.03370500700128904 -0.9797992035263612 0.1971230409468949
vn -0.9999996588001748 -0.0008199997202161433 0.00009999996588001731
vn 0.9999996588001748 0.0008199997202161433 -0.00009999996588001731
vn 0.00022100006417864895 -0.9949542889357624 0.1003290291356544
vn -0.00022100006417864895 0.9949542889357624 -0.1003290291356544
vn -0.999999749496094 -0.0005479998627238594 -0.00044799988777425025
vn 0.999999749496094 0.0005479998627238594 0.00044799988777425025
vn -0.999999404669341 0.0002420000979300787 -0.0010640004305686095
vn 0.999999404669341 -0.0002420000979300787 0.0010640004305686095
vn 0 0.9829133133872163 -0.1840690586876675
vn 0 -0.9829133133872163 0.1840690586876675
vn -0.999999788654067 0.0001439999695661858 -0.0006339998660066785
vn 0.999999788654067 -0.0001439999695661858 0.0006339998660066785
vn 0 -0.994949879795635 0.10037298787348817
vn 0 0.994949879795635 -0.10037298787348817
vn 0 -0.22176598128783104 0.9750999177230226
vn 0 0.22176598128783104 -0.9750999177230226
usemtl material_0_0
f 1//1 2//1 3//1
f 3//2 2//2 1//2
f 4//3 2//3 1//3
f 1//4 2//4 4//4
f 5//5 2//6 3//7
f 3//8 2//9 5//10
f 5//5 6//11 2//6
f 2//9 6//12 5//10
f 3//13 7//13 5//13
f 5//14 7//14 3//14
f 5//5 8//15 6//11
f 6//12 8//16 5//10
f 2//17 9//17 6//17
f 6//18 9//18 2//18
f 3//19 10//19 7//19
f 7//20 10//20 3//20
f 5//21 8//21 7//21
f 7//22 8//22 5//22
f 8//15 11//23 6//11
f 6//12 11//24 8//16
f 2//25 9//25 12//25
f 12//26 9//26 2//26
f 6//27 11//27 9//27
f 9//28 11//28 6//28
f 3//29 10//29 13//29
f 13//30 10//30 3//30
f 10//31 7//32 9//33
f 9//34 7//35 10//36
f 8//37 14//37 7//37
f 7//38 14//38 8//38
f 15//39 11//23 8//15
f 8//16 11//24 15//40
f 12//41 10//31 9//33
f 9//34 10//36 12//42
f 16//43 2//43 12//43
f 12//44 2//44 16//44
f 11//45 17//45 9//45
f 9//46 17//46 11//46
f 13//47 10//31 12//41
f 12//42 10//36 13//48
f 18//49 3//49 13//49
f 13//50 3//50 18//50
f 7//51 14//52 9//53
f 9//54 14//55 7//56
f 8//57 14//57 19//57
f 19//58 14//58 8//58
f 14//37 8//37 20//37
f 20//38 8//38 14//38
f 15//39 21//59 11//23
f 11//24 21//60 15//40
f 8//61 19//61 15//61
f 15//62 19//62 8//62
f 13//63 12//63 16//63
f 16//64 12//64 13//64
f 11//65 17//65 22//65
f 22//66 17//66 11//66
f 17//45 11//45 23//45
f 23//46 11//46 17//46
f 14//52 17//67 9//53
f 9//54 17//68 14//55
f 14//52 19//69 17//67
f 17//68 19//70 14//55
f 24//71 21//59 15//39
f 15//40 21//60 24//72
f 11//73 22//73 21//73
f 21//74 22//74 11//74
f 19//75 25//75 15//75
f 15//76 25//76 19//76
f 13//77 16//77 1//77
f 1//78 16//78 13//78
f 19//69 22//79 17//67
f 17//68 22//80 19//70
f 26//81 21//59 24//71
f 24//72 21//60 26//82
f 15//83 25//83 24//83
f 24//84 25//84 15//84
f 22//85 27//85 21//85
f 21//86 27//86 22//86
f 25//87 19//88 27//89
f 27//90 19//91 25//92
f 27//89 19//88 22//93
f 22//94 19//91 27//90
f 21//95 27//95 26//95
f 26//96 27//96 21//96
f 28//97 26//81 24//71
f 24//72 26//82 28//98
f 25//99 29//100 24//101
f 24//102 29//103 25//104
f 30//105 25//87 27//89
f 27//90 25//92 30//106
f 27//107 30//108 26//109
f 26//110 30//111 27//112
f 28//97 31//113 26//81
f 26//82 31//114 28//98
f 29//100 28//115 24//101
f 24//102 28//116 29//103
f 30//105 29//117 25//87
f 25//92 29//118 30//106
f 30//108 31//119 26//109
f 26//110 31//120 30//111
f 28//121 31//122 32//121
f 32//123 31//124 28//123
f 29//100 28//115 33//125
f 33//126 28//116 29//103
f 33//127 30//127 29//127
f 29//128 30//128 33//128
f 30//108 31//119 34//129
f 34//130 31//120 30//111
f 31//119 32//131 34//129
f 34//130 32//132 31//120
f 28//121 32//121 35//133
f 35//134 32//123 28//123
f 28//135 35//135 33//135
f 33//136 35//136 28//136
f 33//137 34//137 30//137
f 30//138 34//138 33//138
f 34//139 32//139 33//139
f 33//140 32//140 34//140
f 33//139 32//139 35//139
f 35//140 32//140 33//140
