# SSTK version 0.8.0
# 2
mtllib original-2.mtl
o mesh2/mesh2-geometry#mesh2-geometry
v 0.404937 -0.676367 -0.233976
v 0.416578 -0.653147 -0.218797
v 0.418874 -0.690470 -0.220846
v 0.413621 -0.640818 -0.238395
v 0.450734 -0.669170 -0.228997
v 0.425464 -0.706717 -0.244432
v 0.466265 -0.701612 -0.265218
v 0.443228 -0.627884 -0.234190
v 0.445200 -0.709221 -0.234166
v 0.450315 -0.626996 -0.257091
v 0.476835 -0.657548 -0.270611
v 0.485989 -0.665749 -0.252702
v 0.467775 -0.634505 -0.251412
v 0.471115 -0.700800 -0.252338
vn -0.3482778340350291 0.6289587002820676 -0.6950636687810412
vn 0.7261590110427002 0.08215200124928565 -0.6826010103803136
vn -0.7261590110427002 -0.08215200124928565 0.6826010103803136
vn 0.3482778340350291 -0.6289587002820676 0.6950636687810412
vn -0.9164693163936731 0.26153109028865534 0.3027961045346201
vn 0.9164693163936731 -0.26153109028865534 -0.3027961045346201
vn 0.36881489550645663 0.9092017424027259 -0.1932039452609828
vn -0.22871185934350768 0.6091826253561514 -0.759333533014197
vn -0.3099949428959919 0.10196298121745216 -0.9452548258750972
vn 0.3099949428959919 -0.10196298121745216 0.9452548258750972
vn 0.22871185934350768 -0.6091826253561514 0.759333533014197
vn -0.36881489550645663 -0.9092017424027259 0.1932039452609828
vn 0.5867983428035843 0.7340914288511994 -0.34172719963469605
vn 0.7812725377297701 0.5942316483997742 -0.1910548869549583
vn -0.5867983428035843 -0.7340914288511994 0.34172719963469605
vn -0.7812725377297701 -0.5942316483997742 0.1910548869549583
vn -0.4538898861496794 0.00010099997466612488 -0.8910577764937784
vn 0.4538898861496794 -0.00010099997466612488 0.8910577764937784
vn -0.4169570009179309 0.8779980019329127 0.23508800051754644
vn -0.4015261150509004 0.7466842139504453 0.5303201519547764
vn 0.4015261150509004 -0.7466842139504453 -0.5303201519547764
vn 0.4169570009179309 -0.8779980019329127 -0.23508800051754644
vn 0.5022781007574995 0.23583304730834967 0.8319251668850373
vn -0.5022781007574995 -0.23583304730834967 -0.8319251668850373
vn -0.5108111573638295 0.20178906216445985 -0.8356752574435912
vn 0.5108111573638295 -0.20178906216445985 0.8356752574435912
vn 0.4538950716929591 0.000007000001105455907 0.891055140742616
vn -0.4538950716929591 -0.000007000001105455907 -0.891055140742616
vn 0.34533189676615283 0.815162756314467 -0.4650328609826321
vn -0.34533189676615283 -0.815162756314467 0.4650328609826321
vn -0.45398114743426043 0.0000010000003249565025 -0.8910112893635368
vn 0.45398114743426043 -0.0000010000003249565025 0.8910112893635368
vn 0.4539699827661649 0.0001439999945332025 0.8910169661747691
vn -0.4539699827661649 -0.0001439999945332025 -0.8910169661747691
vn -0.38875604814802267 0.917435113625722 -0.08474401049567326
vn 0.38875604814802267 -0.917435113625722 0.08474401049567326
vn -0.03796800255490495 0.9992630672414133 -0.0056350003791846015
vn 0.03796800255490495 -0.9992630672414133 0.0056350003791846015
vn -0.45403094915807124 0.0001509999830913717 -0.8909859002282955
vn 0.45403094915807124 -0.0001509999830913717 0.8909859002282955
vn 0.45394209477267866 -0.000011000002296745567 0.8910311860268374
vn -0.45394209477267866 0.000011000002296745567 -0.8910311860268374
vn -0.1422840683165735 0.9793724702379694 0.14347406888794312
vn -0.00040200011610167034 0.9713262805287837 0.23775006866460746
vn 0.1422840683165735 -0.9793724702379694 -0.14347406888794312
vn 0.00040200011610167034 -0.9713262805287837 -0.23775006866460746
vn -0.8069991704789962 0.2585570546203127 0.5309431121620098
vn -0.8484414390422566 0.3193341652455738 0.4221052184264218
vn 0.8484414390422566 -0.3193341652455738 -0.4221052184264218
vn 0.8069991704789962 -0.2585570546203127 -0.5309431121620098
vn 0.35090196072494934 0.9252018964458583 0.1444619838309491
vn -0.35090196072494934 -0.9252018964458583 -0.1444619838309491
vn 0.6004611182650321 0.31977406298174615 0.7329331443563276
vn -0.6004611182650321 -0.31977406298174615 -0.7329331443563276
vn -0.6090930912899658 0.2506630375690031 -0.7524451127753533
vn 0.6090930912899658 -0.2506630375690031 0.7524451127753533
vn 0.684646887661094 0.6062659005220805 -0.4045989336121985
vn 0.4738490835824841 0.6661471175020336 -0.575947101591606
vn -0.684646887661094 -0.6062659005220805 0.4045989336121985
vn -0.4738490835824841 -0.6661471175020336 0.575947101591606
vn -0.2800268874916598 0.9589356147218029 0.045026981909198134
vn 0.2800268874916598 -0.9589356147218029 -0.045026981909198134
vn -0.8752422397774583 0.3746011026240464 0.3059820838254863
vn 0.8752422397774583 -0.3746011026240464 -0.3059820838254863
vn 0.8424656578069474 0.4994707971247431 -0.20194191797514735
vn -0.8424656578069474 -0.4994707971247431 0.20194191797514735
usemtl material_0_0
f 1//1 2//1 3//2
f 3//3 2//4 1//4
f 4//5 1//1 2//1
f 2//4 1//4 4//6
f 2//7 5//8 3//9
f 3//10 5//11 2//12
f 6//13 1//14 3//13
f 3//15 1//16 6//15
f 4//17 7//17 1//17
f 1//18 7//18 4//18
f 8//19 4//19 2//20
f 2//21 4//22 8//22
f 8//23 2//7 5//8
f 5//11 2//12 8//24
f 5//8 9//25 3//9
f 3//10 9//26 5//11
f 10//27 1//27 6//27
f 6//28 1//28 10//28
f 9//29 6//13 3//13
f 3//15 6//15 9//30
f 10//31 7//31 4//31
f 4//32 7//32 10//32
f 11//33 1//33 7//33
f 7//34 1//34 11//34
f 10//35 4//19 8//19
f 8//22 4//22 10//36
f 8//23 5//8 12//37
f 12//38 5//11 8//24
f 12//37 9//25 5//8
f 5//11 9//26 12//38
f 10//39 11//39 1//39
f 1//40 11//40 10//40
f 10//41 6//41 7//41
f 7//42 6//42 10//42
f 7//43 6//44 9//43
f 9//45 6//46 7//45
f 11//47 7//48 12//48
f 12//49 7//49 11//50
f 13//51 10//51 8//51
f 8//52 10//52 13//52
f 8//23 12//37 13//53
f 13//54 12//38 8//24
f 12//37 14//55 9//25
f 9//26 14//56 12//38
f 11//57 10//58 13//57
f 13//59 10//60 11//59
f 14//61 7//43 9//43
f 9//45 7//45 14//62
f 7//48 14//63 12//48
f 12//49 14//64 7//49
f 11//57 13//57 12//65
f 12//66 13//59 11//59
