# SSTK version 0.8.0
# 32
mtllib original-32.mtl
o mesh32/mesh32-geometry#mesh32-geometry
v -0.328946 -0.175714 0.209594
v -0.328955 -0.144048 0.236830
v -0.328955 -0.174481 0.266957
v -0.328955 -0.202183 0.251477
vn 0.999999974078001 0.00015999999585248015 0.0001619999958006362
vn -0.999999974078001 -0.00015999999585248015 -0.0001619999958006362
vn 0.9999999816375006 -0.00009399999827392509 0.00016699999693346257
vn -0.9999999816375006 0.00009399999827392509 -0.00016699999693346257
usemtl material_0_0
f 1//1 2//1 3//1
f 3//2 2//2 1//2
f 1//3 3//3 4//3
f 4//4 3//4 1//4
