# SSTK version 0.8.0
# 15
mtllib original-15.mtl
o mesh15/mesh15-geometry#mesh15-geometry
v -0.127883 -0.658313 -0.428218
v -0.110041 -0.686684 -0.432622
v -0.127962 -0.679364 -0.428720
v -0.111962 -0.643042 -0.439452
v -0.130223 -0.702665 -0.443010
v -0.130276 -0.634912 -0.443357
v -0.109156 -0.668078 -0.469916
v -0.118103 -0.709179 -0.477494
v -0.136923 -0.630433 -0.485297
v -0.137010 -0.707147 -0.485838
v -0.118132 -0.628274 -0.477107
v -0.140308 -0.658279 -0.506658
v -0.140190 -0.679364 -0.505923
v -0.122015 -0.657531 -0.509702
v -0.120509 -0.692697 -0.501314
vn 0.30197008777063844 0.6741561959502682 0.6740381959159706
vn 0.23543896947227885 0.5732579256696626 -0.7848208982377742
vn -0.0918719898910499 0.28381096877142964 -0.9544688949769299
vn 0.0918719898910499 -0.28381096877142964 0.9544688949769299
vn -0.23543896947227885 -0.5732579256696626 0.7848208982377742
vn -0.30197008777063844 -0.6741561959502682 -0.6740381959159706
vn 0.27560700414264894 0.3664250055077341 0.88869201335793
vn -0.27560700414264894 -0.3664250055077341 -0.88869201335793
vn 0.026898013814702398 0.5206892674237334 -0.8533224382626767
vn -0.026898013814702398 -0.5206892674237334 0.8533224382626767
vn 0.06466999944884994 0.5467159953406127 0.8348169928852723
vn -0.06466999944884994 -0.5467159953406127 -0.8348169928852723
vn 0.04063698844938468 0.9342947344370366 0.3541778993288426
vn 0.9914914307009965 0.12931005617191269 -0.014955006496411337
vn 0.07241198087310191 0.8917937644416261 0.4466098820324816
vn -0.07241198087310191 -0.8917937644416261 -0.4466098820324816
vn -0.9914914307009965 -0.12931005617191269 0.014955006496411337
vn -0.04063698844938468 -0.9342947344370366 -0.3541778993288426
vn -0.47989021800817694 0.815803370609358 -0.3227541466232075
vn 0.47989021800817694 -0.815803370609358 0.3227541466232075
vn 0.9876961676688464 0.0000620000105250024 -0.1563850265475334
vn -0.9876961676688464 -0.0000620000105250024 0.1563850265475334
vn -0.9877045658026992 0.00013399994109326914 0.15633193127610728
vn 0.9877045658026992 -0.00013399994109326914 -0.15633193127610728
vn 0.33404489155618505 0.8948057095116637 0.29620390384082484
vn 0.08543801875646664 0.971341213241474 0.22180304869309428
vn -0.08543801875646664 -0.971341213241474 -0.22180304869309428
vn -0.33404489155618505 -0.8948057095116637 -0.29620390384082484
vn 0.9672021330841211 0.18706902574013856 -0.17182902364315977
vn -0.9672021330841211 -0.18706902574013856 0.17182902364315977
vn -0.97193746457164 0.1847060882867607 0.14567506963051483
vn 0.97193746457164 -0.1847060882867607 -0.14567506963051483
vn 0.16164003816119704 0.9785122310145338 -0.12800903022133528
vn -0.16164003816119704 -0.9785122310145338 0.12800903022133528
vn -0.9876814323334434 0.00004800002101080306 0.15647806849445575
vn 0.9876814323334434 -0.00004800002101080306 -0.15647806849445575
vn 0.9876759010496948 -0.000014999998497190474 -0.15651298431974747
vn -0.9876759010496948 0.000014999998497190474 0.15651298431974747
vn 0.9876903067470262 -0.00002600000807478903 -0.1564220485800032
vn -0.9876903067470262 0.00002600000807478903 0.1564220485800032
vn -0.9876730448823334 0.00001500000068160279 0.15653100711316045
vn 0.9876730448823334 -0.00001500000068160279 -0.15653100711316045
vn -0.1694229977415067 0.9767759869790877 0.1311659982514919
vn 0.1694229977415067 -0.9767759869790877 -0.1311659982514919
vn 0.009872998732144141 0.9673478757765795 0.2532599674772437
vn -0.009872998732144141 -0.9673478757765795 -0.2532599674772437
vn -0.9584611370704956 0.10260401467350375 0.2661290380593826
vn 0.9584611370704956 -0.10260401467350375 -0.2661290380593826
vn -0.16633599342224328 0.8029369682478581 0.5723849773650367
vn -0.008122999741156555 0.5719489817745598 0.8202489738623567
vn 0.025556992499356043 0.7169287895907511 0.696677795534154
vn -0.025556992499356043 -0.7169287895907511 -0.696677795534154
vn 0.008122999741156555 -0.5719489817745598 -0.8202489738623567
vn 0.16633599342224328 -0.8029369682478581 -0.5723849773650367
vn 0.027796006412178074 0.6773591562579699 -0.7351271695843008
vn -0.15397498715101882 0.6131239488357285 -0.774835935341106
vn 0.15397498715101882 -0.6131239488357285 0.774835935341106
vn -0.027796006412178074 -0.6773591562579699 0.7351271695843008
vn 0.10615697815852246 0.295578939185526 0.949401804663447
vn -0.10615697815852246 -0.295578939185526 -0.949401804663447
vn 0.20848999006857957 0.7153509659242576 -0.6669369682304581
vn -0.20848999006857957 -0.7153509659242576 0.6669369682304581
vn 0.045549007342568906 0.13343602151008838 0.9900101595911358
vn 0.16262295726374948 0.03529699072418127 0.9860567408707319
vn -0.16262295726374948 -0.03529699072418127 -0.9860567408707319
vn -0.045549007342568906 -0.13343602151008838 -0.9900101595911358
usemtl material_0_0
f 1//1 2//2 3//3
f 3//4 2//5 1//6
f 4//7 1//1 2//2
f 2//5 1//6 4//8
f 3//3 2//2 5//9
f 5//10 2//5 3//4
f 6//11 1//1 4//7
f 4//8 1//6 6//12
f 7//13 4//14 2//15
f 2//16 4//17 7//18
f 2//19 8//19 5//19
f 5//20 8//20 2//20
f 9//21 3//21 5//21
f 5//22 3//22 9//22
f 10//23 1//23 6//23
f 6//24 1//24 10//24
f 4//25 11//26 6//26
f 6//27 11//27 4//28
f 11//29 4//14 7//13
f 7//18 4//17 11//30
f 8//31 2//15 7//13
f 7//18 2//16 8//32
f 8//33 10//33 5//33
f 5//34 10//34 8//34
f 12//35 3//35 9//35
f 9//36 3//36 12//36
f 10//37 9//37 5//37
f 5//38 9//38 10//38
f 13//39 1//39 10//39
f 10//40 1//40 13//40
f 10//41 6//41 9//41
f 9//42 6//42 10//42
f 11//26 9//43 6//26
f 6//27 9//44 11//27
f 14//45 11//29 7//13
f 7//18 11//30 14//46
f 15//47 8//31 7//13
f 7//18 8//32 15//48
f 8//49 15//50 10//51
f 10//52 15//53 8//54
f 9//55 14//55 12//56
f 12//57 14//58 9//58
f 13//59 10//51 15//50
f 15//53 10//52 13//60
f 11//61 14//55 9//55
f 9//58 14//58 11//62
f 14//45 15//47 7//13
f 7//18 15//48 14//46
f 14//63 12//64 13//59
f 13//60 12//65 14//66
f 14//63 13//59 15//50
f 15//53 13//60 14//66
