# SSTK version 0.8.0
# 10
mtllib original-10.mtl
o mesh10/mesh10-geometry#mesh10-geometry
v 0.327075 -0.174450 0.270601
v 0.238985 -0.186632 0.339675
v 0.141541 -0.175394 0.275960
v 0.311002 -0.183881 0.324096
vn -0.0000029999995526131 -0.9847998531377936 -0.17369297409734258
vn 0.0000029999995526131 0.9847998531377936 0.17369297409734258
vn 0.00006499997811675355 -0.9848146684469331 -0.17360894155186896
vn -0.00006499997811675355 0.9848146684469331 0.17360894155186896
usemtl material_0_0
f 1//1 2//1 3//1
f 3//2 2//2 1//2
f 1//3 4//3 2//3
f 2//4 4//4 1//4
