# SSTK version 0.8.0
# 25
mtllib original-25.mtl
o mesh25/mesh25-geometry#mesh25-geometry
v 0.431500 -0.586781 -0.285870
v 0.438971 -0.619042 -0.278981
v 0.442991 -0.588108 -0.268428
v 0.401727 -0.576020 -0.249120
v 0.397353 -0.580448 -0.259415
v 0.405518 -0.578270 -0.248674
v 0.393733 -0.591213 -0.267217
v 0.041449 -0.422688 0.007440
v 0.044899 -0.428203 0.018395
v 0.409637 -0.587078 -0.238518
v 0.030510 -0.445757 -0.001760
v 0.402391 -0.617291 -0.279369
v 0.034534 -0.428203 0.004130
v 0.432690 -0.613170 -0.247411
v 0.049266 -0.445800 0.024041
v 0.026742 -0.488186 -0.006790
v 0.052877 -0.488186 0.029180
v 0.027304 -0.508385 -0.005821
v 0.423116 -0.616672 -0.241282
v 0.402344 -0.615789 -0.253115
v 0.052129 -0.508385 0.028346
vn -0.8352636800736079 -0.07716697044316552 0.5444077914785178
vn 0.8352636800736079 0.07716697044316552 -0.5444077914785178
vn 0.47876402847951843 0.7770330462222004 0.4086620243094657
vn 0.5551172252172102 0.5709332316339392 0.6048802454066191
vn 0.3003010890388356 0.9538292828089936 -0.005381001595458927
vn -0.3003010890388356 -0.9538292828089936 0.005381001595458927
vn -0.5551172252172102 -0.5709332316339392 -0.6048802454066191
vn -0.47876402847951843 -0.7770330462222004 -0.4086620243094657
vn -0.14648696033089706 0.7681187919911551 -0.6233258312015176
vn 0.14648696033089706 -0.7681187919911551 0.6233258312015176
vn 0.3925268757224781 0.8541667295631686 0.34105989201738585
vn -0.3925268757224781 -0.8541667295631686 -0.34105989201738585
vn 0.7672516464393978 -0.4880897750812061 -0.416044808280564
vn -0.7672516464393978 0.4880897750812061 0.416044808280564
vn -0.06832897270377661 0.8162316739297955 -0.5736697708290113
vn 0.06832897270377661 -0.8162316739297955 0.5736697708290113
vn -0.23759803579022643 0.6558770987970706 -0.716500107928927
vn 0.23759803579022643 -0.6558770987970706 0.716500107928927
vn -0.7538035824374053 -0.3253148197948332 -0.5709206837437132
vn 0.7538035824374053 0.3253148197948332 0.5709206837437132
vn -0.4573727366153535 0.34744979991605246 -0.818589528603486
vn 0.4573727366153535 -0.34744979991605246 0.818589528603486
vn -0.6054881969190227 0.027695009007069404 -0.7953722586737918
vn 0.6054881969190227 -0.027695009007069404 0.7953722586737918
vn -0.33311611634731964 0.5418731892598111 -0.7716262695055681
vn 0.33311611634731964 -0.5418731892598111 0.7716262695055681
vn 0.5227280339592891 0.8161510530216629 0.24627801599957516
vn -0.5227280339592891 -0.8161510530216629 -0.24627801599957516
vn 0.6370389598248207 0.32450297953505775 0.6991989559046696
vn -0.6370389598248207 -0.32450297953505775 -0.6991989559046696
vn -0.6328676599371981 -0.2832398478049322 -0.7205926127993917
vn 0.6328676599371981 0.2832398478049322 0.7205926127993917
vn -0.6149821038907806 -0.12435902100834412 -0.7786731315435993
vn 0.6149821038907806 0.12435902100834412 0.7786731315435993
vn -0.5762959954420751 0.04590099963696918 -0.8159509935466437
vn 0.5762959954420751 -0.04590099963696918 0.8159509935466437
vn -0.5879600475539166 0.004200000339694121 -0.8088790654217369
vn 0.5879600475539166 -0.004200000339694121 0.8088790654217369
vn -0.598721192681982 -0.05499501769863675 -0.7990672571578638
vn 0.598721192681982 0.05499501769863675 0.7990672571578638
vn -0.5698849992847944 0.07946599990027035 -0.8178729989735695
vn 0.5698849992847944 -0.07946599990027035 0.8178729989735695
vn 0.18999595556204116 0.9733707723393101 -0.12826097000117326
vn 0.19407106445382524 0.9734413232940321 -0.1214430403330011
vn -0.18999595556204116 -0.9733707723393101 0.12826097000117326
vn -0.19407106445382524 -0.9734413232940321 0.1214430403330011
vn -0.14046401402807154 0.938129093690488 0.31651803161049935
vn 0.14046401402807154 -0.938129093690488 -0.31651803161049935
vn -0.5764673017965642 0.05501002879927057 -0.815266426814506
vn 0.5764673017965642 -0.05501002879927057 0.815266426814506
vn 0.07465798252402418 0.995588766952111 -0.05682598669814596
vn -0.07465798252402418 -0.995588766952111 0.05682598669814596
vn 0.18590893004378412 0.9732386337771836 -0.13507194917338036
vn -0.18590893004378412 -0.9732386337771836 0.13507194917338036
usemtl material_0_0
f 1//1 2//1 3//1
f 3//2 2//2 1//2
f 3//3 1//4 4//5
f 4//6 1//7 3//8
f 1//4 5//9 4//5
f 4//6 5//10 1//7
f 3//3 4//5 6//11
f 6//12 4//6 3//8
f 5//9 7//13 1//4
f 1//7 7//14 5//10
f 4//5 5//9 8//15
f 8//16 5//10 4//6
f 6//11 4//5 9//17
f 9//18 4//6 6//12
f 3//3 6//11 10//19
f 10//20 6//12 3//8
f 11//21 5//9 7//13
f 7//14 5//10 11//22
f 1//4 7//13 12//23
f 12//24 7//14 1//7
f 8//15 5//9 13//25
f 13//26 5//10 8//16
f 4//5 8//27 9//17
f 9//18 8//28 4//6
f 10//19 9//17 6//11
f 6//12 9//18 10//20
f 10//19 14//29 3//3
f 3//8 14//30 10//20
f 13//25 5//9 11//21
f 11//22 5//10 13//26
f 11//21 7//13 12//23
f 12//24 7//14 11//22
f 9//17 10//19 15//31
f 15//32 10//20 9//18
f 15//31 10//19 14//33
f 14//34 10//20 15//32
f 11//21 12//23 16//35
f 16//36 12//24 11//22
f 15//31 14//33 17//37
f 17//38 14//34 15//32
f 16//35 12//23 18//39
f 18//40 12//24 16//36
f 17//37 14//33 19//41
f 19//42 14//34 17//38
f 19//43 12//44 18//43
f 18//45 12//46 19//45
f 14//47 20//47 19//47
f 19//48 20//48 14//48
f 17//37 19//41 21//49
f 21//50 19//42 17//38
f 19//51 12//51 20//51
f 20//52 12//52 19//52
f 19//43 18//43 21//53
f 21//54 18//45 19//45
