# SSTK version 0.8.0
# 33
mtllib original-33.mtl
o mesh33/mesh33-geometry#mesh33-geometry
v -0.216874 -0.152958 0.267875
v -0.328955 -0.174481 0.266957
v -0.216874 -0.174481 0.274868
v -0.328955 -0.157607 0.261475
v -0.328955 -0.191352 0.261475
v -0.216874 -0.139653 0.249566
v -0.216874 -0.196004 0.267875
v -0.328955 -0.147179 0.247122
v -0.328955 -0.201779 0.247122
v -0.216874 -0.139653 0.226936
v -0.216874 -0.209305 0.249566
v -0.328955 -0.147179 0.229380
v -0.328955 -0.201779 0.229380
v -0.216874 -0.152958 0.208627
v -0.216874 -0.209305 0.226936
v -0.328955 -0.157607 0.215028
v -0.328955 -0.191352 0.215028
v -0.216874 -0.174481 0.201634
v -0.216874 -0.196004 0.208627
v -0.328946 -0.175714 0.209594
vn -0.06698199797885172 0.3083249906964475 0.9489199713668148
vn -0.07041199963864563 -0.000013999999928373494 0.9975179948807377
vn 0.07041199963864563 0.000013999999928373494 -0.9975179948807377
vn 0.06698199797885172 -0.3083249906964475 -0.9489199713668148
vn -0.07040198510026625 0.5862658759238754 0.8070538291967599
vn -0.06697498782786636 0.3082869439714732 0.9489328275395402
vn 0.06697498782786636 -0.3082869439714732 -0.9489328275395402
vn 0.07040198510026625 -0.5862658759238754 -0.8070538291967599
vn -0.06698101687298914 -0.3083520776760568 0.9489112390374135
vn 0.06698101687298914 0.3083520776760568 -0.9489112390374135
vn -0.06697101597104888 0.8071341924829636 0.5865571398804039
vn 0.06697101597104888 -0.8071341924829636 -0.5865571398804039
vn -0.06698697554326066 -0.30832488743152936 0.9489196535523444
vn -0.07042200252378376 -0.5863320210129676 0.8070040289214109
vn 0.07042200252378376 0.5863320210129676 -0.8070040289214109
vn 0.06698697554326066 0.30832488743152936 -0.9489196535523444
vn -0.07042701031097284 0.9486971388954378 0.3082430451287889
vn -0.0669930168482769 0.8072072030069865 0.5864541474891317
vn 0.0669930168482769 -0.8072072030069865 -0.5864541474891317
vn 0.07042701031097284 -0.9486971388954378 -0.3082430451287889
vn -0.06699600338393472 -0.8072070407716251 0.5864540296215003
vn 0.06699600338393472 0.8072070407716251 -0.5864540296215003
vn -0.06699800733584671 0.9977531092474858 0
vn 0.06699800733584671 -0.9977531092474858 0
vn -0.06699399711738235 -0.8072159652671123 0.586441974766575
vn -0.07042702864176283 -0.9486993858237857 0.30823612535565037
vn 0.07042702864176283 0.9486993858237857 -0.30823612535565037
vn 0.06699399711738235 0.8072159652671123 -0.586441974766575
vn -0.07042697711750416 0.9486776917642327 -0.30830289982901254
vn 0.07042697711750416 -0.9486776917642327 0.30830289982901254
vn -0.06699800733584671 -0.9977531092474858 0
vn 0.06699800733584671 0.9977531092474858 0
vn -0.06699101959802467 0.8071332361244414 -0.5865561715952732
vn 0.06699101959802467 -0.8071332361244414 0.5865561715952732
vn -0.07042701031097284 -0.9486971388954378 -0.3082430451287889
vn 0.07042701031097284 0.9486971388954378 0.3082430451287889
vn -0.07040200357226815 0.5863330297511252 -0.8070050409482437
vn -0.0715219820831378 0.48930187742573616 -0.8691767822638552
vn -0.06696798159284828 0.8072087781265899 -0.5864548388041128
vn 0.06696798159284828 -0.8072087781265899 0.5864548388041128
vn 0.0715219820831378 -0.48930187742573616 0.8691767822638552
vn 0.07040200357226815 -0.5863330297511252 0.8070050409482437
vn -0.0669930168482769 -0.8072072030069865 -0.5864541474891317
vn 0.0669930168482769 0.8072072030069865 0.5864541474891317
vn -0.07026698327259527 0.09968597626925794 -0.9925347637221648
vn 0.07026698327259527 -0.09968597626925794 0.9925347637221648
vn -0.06699598814050521 -0.8072158571082758 -0.5864418961892377
vn -0.07041898372666767 -0.5944708626219606 -0.8010278148881007
vn -0.06903196029527849 -0.5020287112509901 -0.8620915041557138
vn 0.06903196029527849 0.5020287112509901 0.8620915041557138
vn 0.07041898372666767 0.5944708626219606 0.8010278148881007
vn 0.06699598814050521 0.8072158571082758 0.5864418961892377
vn -0.07040502277423323 -0.12143503928114475 -0.9900993202719345
vn 0.07040502277423323 0.12143503928114475 0.9900993202719345
usemtl material_0_0
f 1//1 2//2 3//2
f 3//3 2//3 1//4
f 1//5 4//5 2//6
f 2//7 4//8 1//8
f 2//2 5//9 3//2
f 3//3 5//10 2//3
f 6//11 4//5 1//5
f 1//8 4//8 6//12
f 3//13 5//14 7//14
f 7//15 5//15 3//16
f 6//17 8//17 4//18
f 4//19 8//20 6//20
f 7//14 5//14 9//21
f 9//22 5//15 7//15
f 10//23 8//17 6//17
f 6//20 8//20 10//24
f 7//25 9//26 11//26
f 11//27 9//27 7//28
f 10//29 12//29 8//23
f 8//24 12//30 10//30
f 11//26 9//26 13//31
f 13//32 9//27 11//27
f 14//33 12//29 10//29
f 10//30 12//30 14//34
f 11//31 13//35 15//35
f 15//36 13//36 11//32
f 14//37 16//38 12//39
f 12//40 16//41 14//42
f 15//35 13//35 17//43
f 17//44 13//36 15//36
f 14//37 18//45 16//38
f 16//41 18//46 14//42
f 15//47 17//48 19//49
f 19//50 17//51 15//52
f 16//38 18//45 20//53
f 20//54 18//46 16//41
f 20//53 19//49 17//48
f 17//51 19//50 20//54
f 18//45 19//49 20//53
f 20//54 19//50 18//46
