# SSTK version 0.8.0
# 19
mtllib original-19.mtl
o mesh19/mesh19-geometry#mesh19-geometry
v -0.138258 -0.182711 0.200167
v -0.130679 -0.185039 0.196098
v -0.132533 -0.212978 0.216815
v -0.133351 -0.153025 0.204841
v -0.132588 -0.213163 0.249713
v -0.140662 -0.202175 0.213313
v -0.130685 -0.129680 0.240631
v -0.217483 -0.180920 0.200849
v -0.130680 -0.190707 0.278563
v -0.140777 -0.212345 0.235694
v -0.217485 -0.202175 0.213313
v -0.139592 -0.141779 0.218068
v -0.130680 -0.155385 0.277287
v -0.217484 -0.150994 0.208437
v -0.139154 -0.190316 0.273580
v -0.217485 -0.206756 0.256885
v -0.217473 -0.212041 0.232821
v -0.139749 -0.136914 0.243791
v -0.139791 -0.145009 0.262939
v -0.139749 -0.168137 0.275691
v -0.217473 -0.191249 0.272299
v -0.217484 -0.136609 0.235754
v -0.217482 -0.160405 0.273497
v -0.217485 -0.142202 0.256885
vn -0.22224802660220144 -0.5270600630869849 -0.8202520981809013
vn -0.5246330483979257 -0.4843470446815012 -0.7001200645867792
vn -0.4260261042217609 -0.4965711214796842 -0.7562531850075332
vn 0.4260261042217609 0.4965711214796842 0.7562531850075332
vn 0.5246330483979257 0.4843470446815012 0.7001200645867792
vn 0.22224802660220144 0.5270600630869849 0.8202520981809013
vn -0.03825700525769885 0.47219206489383236 -0.8806651210306965
vn -0.4123390160098873 0.20784700807007614 -0.8870040344397063
vn -0.21347706725030346 0.18631005869205622 -0.9590183021133496
vn 0.21347706725030346 -0.18631005869205622 0.9590183021133496
vn 0.4123390160098873 -0.20784700807007614 0.8870040344397063
vn 0.03825700525769885 -0.47219206489383236 0.8806651210306965
vn 0.998859123904986 -0.047735005921360776 -0.0013490001673387702
vn 0.997434091273203 -0.07156200654849638 -0.0020280001855782653
vn 0.9978665516781176 -0.06527397067368441 0.0012859994222256521
vn -0.9978665516781176 0.06527397067368441 -0.0012859994222256521
vn -0.997434091273203 0.07156200654849638 0.0020280001855782653
vn -0.998859123904986 0.047735005921360776 0.0013490001673387702
vn -0.08131098556868362 -0.7514488666306125 -0.654761883790907
vn 0.08131098556868362 0.7514488666306125 0.654761883790907
vn 0.9950614030566682 0.062287025229800695 -0.07728603130525429
vn 0.9803200227252887 0.12380900287007846 -0.15376600356452663
vn -0.9950614030566682 -0.062287025229800695 0.07728603130525429
vn -0.9803200227252887 -0.12380900287007846 0.15376600356452663
vn -0.020240006535246165 0.20122306497242312 -0.9793363162155059
vn 0.020240006535246165 -0.20122306497242312 0.9793363162155059
vn 0.9992374813318115 -0.0389530187636347 -0.002668001285173869
vn -0.9992374813318115 0.0389530187636347 0.002668001285173869
vn -0.08963102772046114 -0.9959583080230615 -0.00577300178543408
vn -0.0830140383484684 -0.9965014603354507 -0.009670004467074323
vn -0.04268999888807496 -0.9975079740184088 -0.056172998536890235
vn 0.04268999888807496 0.9975079740184088 0.056172998536890235
vn 0.0830140383484684 0.9965014603354507 0.009670004467074323
vn 0.08963102772046114 0.9959583080230615 0.00577300178543408
vn -0.7165223813831112 -0.6336713372840155 -0.2916441552333302
vn 0.7165223813831112 0.6336713372840155 0.2916441552333302
vn -0.00649600080438359 -0.6745800835315704 -0.7381730914061343
vn 0.00649600080438359 0.6745800835315704 0.7381730914061343
vn 0.2870669678229525 0.7923919111815881 -0.5382449396686662
vn 0.06520701160965299 0.8786961564457137 -0.47290708419780325
vn -0.06520701160965299 -0.8786961564457137 0.47290708419780325
vn -0.2870669678229525 -0.7923919111815881 0.5382449396686662
vn 0.9999999875870001 0.00015099999812563704 -0.00004499999944141498
vn -0.9999999875870001 -0.00015099999812563704 0.00004499999944141498
vn -0.018854999536110452 -0.5057909875560243 -0.8624499787811436
vn 0.018854999536110452 0.5057909875560243 0.8624499787811436
vn -0.03265800974479232 0.6711772002719235 -0.7405772209801291
vn 0.03265800974479232 -0.6711772002719235 0.7405772209801291
vn 1 0 0.0000099999999995
vn -1 0 -0.0000099999999995
vn -0.37679991857335804 -0.7187198446842992 0.5843488737219298
vn -0.1934470832435864 -0.7347663161825049 0.6501512797712082
vn -0.12649802787782818 -0.7283271605098498 0.6734521484164109
vn 0.12649802787782818 0.7283271605098498 -0.6734521484164109
vn 0.1934470832435864 0.7347663161825049 -0.6501512797712082
vn 0.37679991857335804 0.7187198446842992 -0.5843488737219298
vn -0.04446701278557978 -0.9938742857682175 0.101176029091097
vn 0.04446701278557978 0.9938742857682175 -0.101176029091097
vn -0.000010000002183895716 -0.9736892126435236 -0.22788004976661577
vn 0.000010000002183895716 0.9736892126435236 0.22788004976661577
vn -0.41629122668291524 0.8651884711207737 0.2795541522255243
vn -0.647608142664204 0.7479621647715954 -0.14545203204221333
vn -0.32147991511629365 0.9408647515736331 0.10688397177830658
vn 0.32147991511629365 -0.9408647515736331 -0.10688397177830658
vn 0.647608142664204 -0.7479621647715954 0.14545203204221333
vn 0.41629122668291524 -0.8651884711207737 -0.2795541522255243
vn 0.02827298270515317 0.8184184993657819 0.573926648923724
vn -0.0916309656727101 0.8232786915788662 0.5601927901375355
vn 0.0916309656727101 -0.8232786915788662 -0.5601927901375355
vn -0.02827298270515317 -0.8184184993657819 -0.573926648923724
vn -0.9999999950495 0.0000989999995099005 0.000009999999950495023
vn -0.9999997276576114 -0.0007339998001006867 -0.00007699997902963624
vn 0.9999997276576114 0.0007339998001006867 0.00007699997902963624
vn 0.9999999950495 -0.0000989999995099005 -0.000009999999950495023
vn -1 -0.000003999999997229991 -0.000036999999974377495
vn 1 0.000003999999997229991 0.000036999999974377495
vn -0.4520439905827937 0.21312699556003173 0.8661599819557224
vn -0.2978911511641583 0.15031807627855118 0.942690478366048
vn -0.36970108512349986 -0.030372006993140438 0.928654213822193
vn 0.36970108512349986 0.030372006993140438 -0.928654213822193
vn 0.2978911511641583 -0.15031807627855118 -0.942690478366048
vn 0.4520439905827937 -0.21312699556003173 -0.8661599819557224
vn -0.19264009034812726 -0.07879903695671783 0.9781004587287337
vn 0.19264009034812726 0.07879903695671783 -0.9781004587287337
vn 0.0020029994438332307 -0.7139098017708347 0.7002348055679292
vn -0.0020029994438332307 0.7139098017708347 -0.7002348055679292
vn 0.006709001238099329 -0.7049481300932549 0.7092271308829144
vn -0.006709001238099329 0.7049481300932549 -0.7092271308829144
vn -0.9999987570753314 -0.0015679996190937388 -0.00016499995991738994
vn 0.9999987570753314 0.0015679996190937388 0.00016499995991738994
vn -0.012148998097819368 0.9999248434407796 -0.0016459997422839723
vn 0.012148998097819368 -0.9999248434407796 0.0016459997422839723
vn -0.6393241595446424 0.37039609243309696 0.673848168160179
vn 0.6393241595446424 -0.37039609243309696 -0.673848168160179
vn -1 0.00001899999999562051 -0.000009999999997694999
vn 1 -0.00001899999999562051 0.000009999999997694999
vn -0.016891992541266325 0.27252087966720556 0.9620015752239692
vn 0.016891992541266325 -0.27252087966720556 -0.9620015752239692
vn -0.01589100122645163 -0.03884000299763293 0.9991190771110142
vn 0.01589100122645163 0.03884000299763293 -0.9991190771110142
vn -0.9999992972908353 -0.00033900010078169424 0.0011360003377227268
vn 0.9999992972908353 0.00033900010078169424 -0.0011360003377227268
vn -0.9999999971875 0 -0.0000749999997890625
vn 0.9999999971875 0 0.0000749999997890625
vn -0.9999999819500004 0 0.00018999999657050008
vn 0.9999999819500004 0 -0.00018999999657050008
vn -0.009491005348724007 0.8551714819380104 0.5182582920681708
vn 0.009491005348724007 -0.8551714819380104 -0.5182582920681708
usemtl material_0_0
f 1//1 2//2 3//3
f 3//4 2//5 1//6
f 4//7 2//8 1//9
f 1//10 2//11 4//12
f 2//13 5//14 3//15
f 3//16 5//17 2//18
f 1//1 3//3 6//19
f 6//20 3//4 1//6
f 2//21 4//22 7//21
f 7//23 4//24 2//23
f 4//7 1//9 8//25
f 8//26 1//10 4//12
f 2//13 9//27 5//14
f 5//17 9//28 2//18
f 3//29 5//30 10//31
f 10//32 5//33 3//34
f 6//35 3//35 10//35
f 10//36 3//36 6//36
f 1//1 6//19 11//37
f 11//38 6//20 1//6
f 7//39 4//7 12//40
f 12//41 4//12 7//42
f 2//21 7//21 13//43
f 13//44 7//23 2//23
f 8//45 1//1 11//37
f 11//38 1//6 8//46
f 14//47 4//7 8//25
f 8//26 4//12 14//48
f 2//13 13//49 9//27
f 9//28 13//50 2//18
f 9//51 15//52 5//53
f 5//54 15//55 9//56
f 5//30 16//57 10//31
f 10//32 16//58 5//33
f 6//19 10//31 17//59
f 17//60 10//32 6//20
f 6//19 17//59 11//37
f 11//38 17//60 6//20
f 4//7 14//47 12//40
f 12//41 14//48 4//12
f 7//61 12//62 18//63
f 18//64 12//65 7//66
f 13//67 7//61 19//68
f 19//69 7//66 13//70
f 8//71 11//72 16//72
f 16//73 11//73 8//74
f 8//75 16//75 14//75
f 14//76 16//76 8//76
f 13//77 20//78 9//79
f 9//80 20//81 13//82
f 20//78 15//83 9//79
f 9//80 15//84 20//81
f 5//53 15//52 21//85
f 21//86 15//55 5//54
f 21//85 16//87 5//53
f 5//54 16//88 21//86
f 10//31 16//57 17//59
f 17//60 16//58 10//32
f 11//72 17//89 16//72
f 16//73 17//90 11//73
f 12//40 14//47 22//91
f 22//92 14//48 12//41
f 12//40 22//91 18//63
f 18//64 22//92 12//41
f 7//61 18//63 19//68
f 19//69 18//64 7//66
f 19//93 20//78 13//77
f 13//82 20//81 19//94
f 14//95 16//95 22//95
f 22//96 16//96 14//96
f 23//97 15//83 20//78
f 20//81 15//84 23//98
f 23//97 21//99 15//83
f 15//84 21//100 23//98
f 16//101 21//101 23//101
f 23//102 21//102 16//102
f 18//63 22//91 19//68
f 19//69 22//92 18//64
f 19//68 23//97 20//78
f 20//81 23//98 19//69
f 22//103 16//103 24//103
f 24//104 16//104 22//104
f 16//105 23//105 24//105
f 24//106 23//106 16//106
f 19//68 22//91 24//107
f 24//108 22//92 19//69
f 24//107 23//97 19//68
f 19//69 23//98 24//108
