# SSTK version 0.8.0
# 8
mtllib original-8.mtl
o mesh8/mesh8-geometry#mesh8-geometry
v 0.240711 -0.186743 0.339379
v 0.246666 -0.205930 0.341473
v 0.141541 -0.194071 0.275960
v 0.294339 -0.185846 0.335191
v 0.141541 -0.175394 0.275960
v 0.297706 -0.204214 0.333357
v 0.323397 -0.180485 0.304890
v 0.324760 -0.198593 0.301472
v 0.327075 -0.174450 0.270601
v 0.327075 -0.193127 0.270601
vn 0.5364509035812737 0.036821993381818206 -0.8431278484608512
vn 0.5334229923597825 0.07359399894591336 -0.8426409879308532
vn -0.5364509035812737 -0.036821993381818206 0.8431278484608512
vn -0.5334229923597825 -0.07359399894591336 0.8426409879308532
vn -0.33455781064150375 -0.04352697536389105 -0.9413694671883271
vn -0.11765295954733106 -0.03116398928487161 -0.992565658725712
vn -0.07498798886034762 -0.13116898051452125 -0.9885198531529154
vn 0.07498798886034762 0.13116898051452125 0.9885198531529154
vn 0.11765295954733106 0.03116398928487161 0.992565658725712
vn 0.33455781064150375 0.04352697536389105 0.9413694671883271
vn 0.5387491491912432 0 -0.8424662332970453
vn -0.5387491491912432 0 0.8424662332970453
vn -0.5770378314893978 0.024866992738167948 -0.8163387616070752
vn 0.5770378314893978 -0.024866992738167948 0.8163387616070752
vn -0.8623259907532784 -0.017900999808047467 -0.5060369945737653
vn 0.8623259907532784 0.017900999808047467 0.5060369945737653
vn -0.9575312113491847 0.0035270007784903427 -0.28830806363622774
vn 0.9575312113491847 -0.0035270007784903427 0.28830806363622774
vn -0.9950994226611062 -0.02642501122382769 -0.09528304047076541
vn 0.9950994226611062 0.02642501122382769 0.09528304047076541
vn -0.9972005086410383 0 -0.07477396315599863
vn 0.9972005086410383 0 0.07477396315599863
usemtl material_0_0
f 1//1 2//2 3//1
f 3//3 2//4 1//3
f 4//5 2//6 1//7
f 1//8 2//9 4//10
f 5//11 1//1 3//1
f 3//3 1//3 5//12
f 4//5 6//13 2//6
f 2//9 6//14 4//10
f 7//15 6//13 4//5
f 4//10 6//14 7//16
f 8//17 6//13 7//15
f 7//16 6//14 8//18
f 9//19 8//17 7//15
f 7//16 8//18 9//20
f 10//21 8//17 9//19
f 9//20 8//18 10//22
