mtllib new-7.mtl
v -0.363730 -0.113800 -0.165517
v -0.387480 -0.136231 -0.143087
v -0.366369 -0.137550 -0.143087
v -0.365050 -0.121717 -0.128573
v -0.428382 -0.117758 -0.128573
v -0.428382 -0.132272 -0.143087
v -0.407271 -0.134911 -0.143087
v -0.405952 -0.174494 -0.180031
v -0.394077 -0.175814 -0.180031
v -0.387480 -0.145467 -0.128573
v -0.366369 -0.146786 -0.128573
v -0.365050 -0.129633 -0.116698
v -0.428382 -0.125675 -0.116698
v -0.429702 -0.142828 -0.128573
v -0.408591 -0.144147 -0.128573
v -0.407271 -0.189008 -0.160240
v -0.395397 -0.190327 -0.160240
v -0.388799 -0.157341 -0.106143
v -0.367688 -0.158661 -0.106143
v -0.366369 -0.140189 -0.096907
v -0.429702 -0.134911 -0.096907
v -0.431021 -0.154703 -0.106143
v -0.409910 -0.156022 -0.106143
v -0.408591 -0.204841 -0.129893
v -0.395397 -0.206161 -0.129893
v -0.388799 -0.166578 -0.069199
v -0.367688 -0.167897 -0.069199
v -0.366369 -0.148105 -0.063921
v -0.429702 -0.144147 -0.063921
v -0.431021 -0.163939 -0.069199
v -0.409910 -0.165258 -0.069199
v -0.409910 -0.218036 -0.083712
v -0.396716 -0.219355 -0.083712
v -0.388799 -0.169216 -0.045449
v -0.367688 -0.170536 -0.045449
v -0.366369 -0.149425 -0.045449
v -0.429702 -0.144147 -0.045449
v -0.431021 -0.165258 -0.045449
v -0.409910 -0.166578 -0.045449
v -0.409910 -0.219355 -0.049407
v -0.396716 -0.220674 -0.049407
v -0.392758 -0.153383 0.250105
v -0.386160 -0.128314 0.246146
v -0.365050 -0.129633 0.246146
v -0.427063 -0.104564 0.243508
v -0.428382 -0.125675 0.246146
v -0.407271 -0.126994 0.246146
v -0.404633 -0.152064 0.250105
v -0.363730 -0.109842 0.243508
v -0.386160 -0.117758 0.320035
v -0.391438 -0.138869 0.322674
v -0.365050 -0.119078 0.320035
v -0.363730 -0.097967 0.316076
v -0.425744 -0.094009 0.316076
v -0.428382 -0.115120 0.320035
v -0.407271 -0.116439 0.320035
v -0.403313 -0.137550 0.322674
v -0.363730 -0.107203 0.424270
v -0.384841 -0.105884 0.424270
v -0.390119 -0.119078 0.425590
v -0.362411 -0.087411 0.421631
v -0.425744 -0.082134 0.421631
v -0.427063 -0.103245 0.424270
v -0.405952 -0.104564 0.424270
v -0.401994 -0.117758 0.425590
v -0.362411 -0.086092 0.513992
v -0.363730 -0.107203 0.513992
v -0.384841 -0.105884 0.513992
v -0.388799 -0.109842 0.513992
v -0.425744 -0.082134 0.513992
v -0.427063 -0.103245 0.513992
v -0.405952 -0.104564 0.513992
v -0.401994 -0.108522 0.513992
v -0.425744 -0.086092 0.564130
v -0.365050 -0.121717 0.590519
v -0.365050 -0.128314 0.543019
v -0.390119 -0.126994 0.543019
v -0.427063 -0.101925 0.591838
v -0.428382 -0.124356 0.543019
v -0.403313 -0.125675 0.543019
v -0.425744 -0.090050 0.579964
v -0.362411 -0.091370 0.564130
v -0.363730 -0.105884 0.589200
v -0.428382 -0.117758 0.593158
v -0.362411 -0.094009 0.579964
v -0.365050 -0.134911 0.578644
v -0.428382 -0.132272 0.585241
v -0.366369 -0.138869 0.556214
v -0.429702 -0.136231 0.554894
v -0.366369 -0.140189 0.569408
v -0.429702 -0.138869 0.570727
vn 0.043998 0.703973 0.708862
vn -0.043998 -0.703973 -0.708862
vn -0.061533 -0.984525 -0.164087
vn 0.061533 0.984525 0.164087
vn -0.080582 -0.966988 -0.241747
vn 0.080582 0.966988 0.241747
vn 0.997785 -0.066519 0.000000
vn -0.997785 0.066519 0.000000
vn -0.995217 0.096552 -0.014854
vn 0.995217 -0.096552 0.014854
vn -0.992407 0.103769 0.066035
vn 0.992407 -0.103769 -0.066035
vn 0.052656 0.842491 0.536131
vn -0.052656 -0.842491 -0.536131
vn -0.998073 0.051625 0.034417
vn 0.998073 -0.051625 -0.034417
vn -0.051933 -0.830927 -0.553952
vn 0.051933 0.830927 0.553952
vn 0.997241 -0.052486 0.052486
vn -0.997241 0.052486 -0.052486
vn 0.998394 -0.017123 0.054003
vn -0.998394 0.017123 -0.054003
vn 0.088930 0.800373 0.592869
vn -0.088930 -0.800373 -0.592869
vn -0.988500 0.145593 0.040868
vn 0.988500 -0.145593 -0.040868
vn -0.998003 0.053292 0.033913
vn 0.998003 -0.053292 -0.033913
vn 0.998005 -0.052527 -0.035018
vn -0.998005 0.052527 0.035018
vn 0.050346 0.805528 0.590415
vn -0.050346 -0.805528 -0.590415
vn 0.996866 -0.023910 0.075409
vn -0.996866 0.023910 -0.075409
vn -0.987336 0.156680 0.024870
vn 0.987336 -0.156680 -0.024870
vn 0.055069 0.881104 0.469706
vn -0.055069 -0.881104 -0.469706
vn -0.995811 0.089512 -0.018648
vn 0.995811 -0.089512 0.018648
vn -0.056456 -0.903290 -0.425299
vn 0.056456 0.903290 0.425299
vn 0.996228 -0.085768 0.013195
vn -0.996228 0.085768 -0.013195
vn 0.999077 -0.000934 0.042951
vn -0.999077 0.000934 -0.042951
vn 0.098035 0.882314 0.460338
vn -0.098035 -0.882314 -0.460338
vn -0.992692 0.106991 0.055821
vn 0.992692 -0.106991 -0.055821
vn -0.996700 0.079471 -0.016556
vn 0.996700 -0.079471 0.016556
vn -0.073163 -0.877955 -0.473120
vn 0.073163 0.877955 0.473120
vn 0.996370 -0.080001 0.029091
vn -0.996370 0.080001 -0.029091
vn 0.998313 -0.001262 0.058056
vn -0.998313 0.001262 -0.058056
vn 0.088156 0.881556 0.463775
vn -0.088156 -0.881556 -0.463775
vn -0.992377 0.119563 0.029891
vn 0.992377 -0.119563 -0.029891
vn 0.060523 0.968364 0.242092
vn -0.060523 -0.968364 -0.242092
vn -0.997856 0.063639 0.015273
vn 0.997856 -0.063639 -0.015273
vn -0.079990 -0.959878 -0.268766
vn 0.079990 0.959878 0.268766
vn 0.998112 -0.059589 -0.014897
vn -0.998112 0.059589 0.014897
vn 0.999426 0.011519 0.031846
vn -0.999426 -0.011519 -0.031846
vn 0.095639 0.956391 0.275987
vn -0.095639 -0.956391 -0.275987
vn -0.989374 0.144802 0.013104
vn 0.989374 -0.144802 -0.013104
vn -0.997931 0.062371 0.015593
vn 0.997931 -0.062371 -0.015593
vn -0.060662 -0.970597 -0.232943
vn 0.060662 0.970597 0.232943
vn 0.997931 -0.061906 -0.017334
vn -0.997931 0.061906 0.017334
vn 1.000000 0.000000 0.000000
vn -1.000000 0.000000 0.000000
vn -0.989446 0.144016 0.016002
vn 0.989446 -0.144016 -0.016002
vn 0.061998 0.991972 0.110219
vn -0.061998 -0.991972 -0.110219
vn -0.997856 0.065280 0.004663
vn 0.997856 -0.065280 -0.004663
vn -0.062378 -0.998053 0.000000
vn 0.062378 0.998053 0.000000
vn 0.997842 -0.065552 -0.003642
vn -0.997842 0.065552 0.003642
vn 0.062283 0.996522 0.055362
vn -0.062283 -0.996522 -0.055362
vn 0.099431 0.994309 0.038243
vn -0.099431 -0.994309 -0.038243
vn -0.988422 0.151616 0.005831
vn 0.988422 -0.151616 -0.005831
vn -0.998029 0.062377 0.006931
vn 0.998029 -0.062377 -0.006931
vn -0.082836 -0.994031 -0.071002
vn 0.082836 0.994031 0.071002
vn 0.998053 -0.062378 0.000000
vn -0.998053 0.062378 0.000000
vn -0.987895 0.153635 -0.021461
vn 0.987895 -0.153635 0.021461
vn 0.061771 0.988337 -0.139195
vn -0.061771 -0.988337 0.139195
vn -0.998053 0.062378 0.000282
vn 0.998053 -0.062378 -0.000282
vn -0.082274 -0.987287 0.135996
vn 0.082274 0.987287 -0.135996
vn 0.998052 -0.062378 -0.000570
vn -0.998052 0.062378 0.000570
vn 0.061809 0.988943 -0.134805
vn -0.061809 -0.988943 0.134805
vn 0.999958 0.000686 -0.009142
vn -0.999958 -0.000686 0.009142
vn 0.097070 0.970704 -0.219798
vn -0.097070 -0.970704 0.219798
vn -0.967755 0.250507 -0.026381
vn 0.967755 -0.250507 0.026381
vn 0.107744 0.969693 -0.219285
vn -0.107744 -0.969693 0.219285
vn 0.998048 -0.062447 -0.000555
vn -0.998048 0.062447 0.000555
vn 0.994356 0.098411 -0.039632
vn -0.994356 -0.098411 0.039632
vn -0.967831 0.249074 -0.035582
vn 0.967831 -0.249074 0.035582
vn 0.108271 0.974436 -0.196856
vn -0.108271 -0.974436 0.196856
vn 0.061754 0.988060 -0.141151
vn -0.061754 -0.988060 0.141151
vn -0.997822 0.065101 -0.010653
vn 0.997822 -0.065101 0.010653
vn -0.082169 -0.986026 0.144916
vn 0.082169 0.986026 -0.144916
vn 0.998082 -0.061286 0.008755
vn -0.998082 0.061286 -0.008755
vn 0.994398 0.098701 -0.037820
vn -0.994398 -0.098701 0.037820
vn -0.970582 0.238880 -0.030129
vn 0.970582 -0.238880 0.030129
vn -0.998115 0.060755 -0.008679
vn 0.998115 -0.060755 0.008679
vn -0.062867 -0.984922 0.161169
vn 0.062867 0.984922 -0.161169
vn 0.992278 -0.124035 0.000000
vn -0.992278 0.124035 0.000000
vn 0.983124 0.181101 -0.025872
vn -0.983124 -0.181101 0.025872
vn 0.061973 0.991575 -0.113749
vn -0.061973 -0.991575 0.113749
vn -0.970475 0.240727 -0.015140
vn 0.970475 -0.240727 0.015140
vn 0.108440 0.975957 -0.189074
vn -0.108440 -0.975957 0.189074
vn -0.997962 0.063521 0.006122
vn 0.997962 -0.063521 -0.006122
vn -0.063302 -0.991738 0.111571
vn 0.063302 0.991738 -0.111571
vn 0.992312 -0.123751 0.001537
vn -0.992312 0.123751 -0.001537
vn 0.982836 0.178417 -0.046912
vn -0.982836 -0.178417 0.046912
vn -0.997729 0.067179 0.004976
vn 0.997729 -0.067179 -0.004976
vn -0.928892 0.365715 -0.058421
vn 0.928892 -0.365715 0.058421
vn -0.082628 -0.991532 0.100186
vn 0.082628 0.991532 -0.100186
vn 0.998082 -0.061515 0.006920
vn -0.998082 0.061515 -0.006920
vn 0.958096 0.282992 -0.044367
vn -0.958096 -0.282992 0.044367
vn -0.997793 0.066393 -0.000948
vn 0.997793 -0.066393 0.000948
vn -0.928477 0.371391 0.000000
vn 0.928477 -0.371391 0.000000
vn 0.109822 0.988400 -0.104905
vn -0.109822 -0.988400 0.104905
vn -0.083045 -0.996546 0.000000
vn 0.083045 0.996546 0.000000
vn 0.958217 0.284493 -0.029723
vn -0.958217 -0.284493 0.029723
vn -0.062372 -0.997951 0.014256
vn 0.062372 0.997951 -0.014256
vn -0.705693 0.705693 -0.063196
vn 0.705693 -0.705693 0.063196
vn 0.098970 0.989703 -0.103402
vn -0.098970 -0.989703 0.103402
vn 0.707107 0.707107 0.000000
vn -0.707107 -0.707107 0.000000
vn -0.062186 -0.994969 -0.078550
vn 0.062186 0.994969 0.078550
vn -0.998038 0.062377 -0.005377
vn 0.998038 -0.062377 0.005377
vn 0.050414 0.806616 0.588922
vn -0.050414 -0.806616 -0.588922
vn -0.659736 0.659736 0.359856
vn 0.659736 -0.659736 -0.359856
vn 0.085606 0.856057 0.509743
vn -0.085606 -0.856057 -0.509743
vn 0.998052 -0.062378 0.001057
vn -0.998052 0.062378 -0.001057
vn 0.644831 0.644831 0.410347
vn -0.644831 -0.644831 -0.410347
vn -0.082592 -0.991108 -0.104327
vn 0.082592 0.991108 0.104327
vn -0.998599 0.052405 -0.007278
vn 0.998599 -0.052405 0.007278
vn -0.996505 0.083414 0.004469
vn 0.996505 -0.083414 -0.004469
vn 0.042333 0.804334 0.592667
vn -0.042333 -0.804334 -0.592667
vn 0.992011 -0.125254 -0.015030
vn -0.992011 0.125254 0.015030
vn 0.996554 -0.082929 0.001406
vn -0.996554 0.082929 -0.001406
vn 0.042623 0.809840 0.585100
vn -0.042623 -0.809840 -0.585100
vn 0.998578 -0.052850 0.006954
vn -0.998578 0.052850 -0.006954
vn -0.046436 -0.079112 -0.995784
vn 0.046436 0.079112 0.995784
vn -0.992469 0.121626 0.014595
vn 0.992469 -0.121626 -0.014595
vn -0.986593 0.160471 0.029717
vn 0.986593 -0.160471 -0.029717
vn -0.049492 0.668145 -0.742383
vn 0.049492 -0.668145 0.742383
vn -0.006651 0.478842 -0.877876
vn 0.006651 -0.478842 0.877876
vn -0.070932 -0.607472 -0.791168
vn 0.070932 0.607472 0.791168
vn 0.990459 -0.135447 -0.025396
vn -0.990459 0.135447 0.025396
vn 0.048598 0.777570 0.626916
vn -0.048598 -0.777570 -0.626916
vn -0.977894 0.208064 0.020806
vn 0.977894 -0.208064 -0.020806
vn -0.005125 0.910530 -0.413411
vn 0.005125 -0.910530 0.413411
vn 0.989173 -0.144757 -0.024126
vn -0.989173 0.144757 0.024126
vn 0.014679 0.706215 0.707846
vn -0.014679 -0.706215 -0.707846
vn 0.039356 0.994266 0.099427
vn -0.039356 -0.994266 -0.099427
vn 0.007725 0.867741 -0.496956
vn -0.007725 -0.867741 0.496956
vn 0.023968 0.986111 0.164352
vn -0.023968 -0.986111 -0.164352
usemtl material-0
f 1//9 3//9 4//9
f 4//10 3//10 1//10
f 2//11 9//11 10//11
f 10//12 9//12 2//12
f 11//13 3//13 2//13
f 2//14 3//14 11//14
f 4//15 3//15 12//15
f 12//16 3//16 4//16
f 5//19 14//19 6//19
f 6//20 14//20 5//20
f 7//21 16//21 8//21
f 8//22 16//22 7//22
f 17//23 9//23 8//23
f 8//24 9//24 17//24
f 10//25 9//25 17//25
f 17//26 9//26 10//26
f 11//13 2//13 10//13
f 10//14 2//14 11//14
f 12//27 3//27 11//27
f 11//28 3//28 12//28
f 13//17 4//17 12//17
f 12//18 4//18 13//18
f 5//29 13//29 14//29
f 14//30 13//30 5//30
f 15//31 6//31 14//31
f 14//32 6//32 15//32
f 7//33 15//33 16//33
f 16//34 15//34 7//34
f 17//23 8//23 16//23
f 16//24 8//24 17//24
f 10//35 17//35 18//35
f 18//36 17//36 10//36
f 19//37 11//37 10//37
f 10//38 11//38 19//38
f 12//39 11//39 20//39
f 20//40 11//40 12//40
f 21//41 13//41 12//41
f 12//42 13//42 21//42
f 13//43 22//43 14//43
f 14//44 22//44 13//44
f 23//37 15//37 14//37
f 14//38 15//38 23//38
f 15//45 24//45 16//45
f 16//46 24//46 15//46
f 25//47 17//47 16//47
f 16//48 17//48 25//48
f 18//49 17//49 25//49
f 25//50 17//50 18//50
f 19//37 10//37 18//37
f 18//38 10//38 19//38
f 20//51 11//51 19//51
f 19//52 11//52 20//52
f 21//53 12//53 20//53
f 20//54 12//54 21//54
f 13//55 21//55 22//55
f 22//56 21//56 13//56
f 23//37 14//37 22//37
f 22//38 14//38 23//38
f 15//57 23//57 24//57
f 24//58 23//58 15//58
f 25//59 16//59 24//59
f 24//60 16//60 25//60
f 18//61 25//61 26//61
f 26//62 25//62 18//62
f 27//63 19//63 18//63
f 18//64 19//64 27//64
f 20//65 19//65 28//65
f 28//66 19//66 20//66
f 29//67 21//67 20//67
f 20//68 21//68 29//68
f 21//69 30//69 22//69
f 22//70 30//70 21//70
f 31//63 23//63 22//63
f 22//64 23//64 31//64
f 23//71 32//71 24//71
f 24//72 32//72 23//72
f 33//73 25//73 24//73
f 24//74 25//74 33//74
f 26//75 25//75 33//75
f 33//76 25//76 26//76
f 27//63 18//63 26//63
f 26//64 18//64 27//64
f 28//77 19//77 27//77
f 27//78 19//78 28//78
f 29//79 20//79 28//79
f 28//80 20//80 29//80
f 21//81 29//81 30//81
f 30//82 29//82 21//82
f 31//63 22//63 30//63
f 30//64 22//64 31//64
f 23//83 31//83 32//83
f 32//84 31//84 23//84
f 33//73 24//73 32//73
f 32//74 24//74 33//74
f 26//85 33//85 34//85
f 34//86 33//86 26//86
f 35//87 27//87 26//87
f 26//88 27//88 35//88
f 28//89 27//89 36//89
f 36//90 27//90 28//90
f 37//91 29//91 28//91
f 28//92 29//92 37//92
f 29//93 38//93 30//93
f 30//94 38//94 29//94
f 39//95 31//95 30//95
f 30//96 31//96 39//96
f 31//83 40//83 32//83
f 32//84 40//84 31//84
f 41//97 33//97 32//97
f 32//98 33//98 41//98
f 34//99 33//99 41//99
f 41//100 33//100 34//100
f 35//87 26//87 34//87
f 34//88 26//88 35//88
f 36//101 27//101 35//101
f 35//102 27//102 36//102
f 37//103 28//103 36//103
f 36//104 28//104 37//104
f 37//105 38//105 29//105
f 29//106 38//106 37//106
f 39//95 30//95 38//95
f 38//96 30//96 39//96
f 31//83 39//83 40//83
f 40//84 39//84 31//84
f 41//97 32//97 40//97
f 40//98 32//98 41//98
f 42//107 34//107 41//107
f 41//108 34//108 42//108
f 43//109 35//109 34//109
f 34//110 35//110 43//110
f 44//111 36//111 35//111
f 35//112 36//112 44//112
f 45//113 37//113 36//113
f 36//114 37//114 45//114
f 45//115 38//115 37//115
f 37//116 38//116 45//116
f 46//117 39//117 38//117
f 38//118 39//118 46//118
f 47//119 40//119 39//119
f 39//120 40//120 47//120
f 48//121 41//121 40//121
f 40//122 41//122 48//122
f 43//123 34//123 42//123
f 42//124 34//124 43//124
f 42//125 41//125 48//125
f 48//126 41//126 42//126
f 44//109 35//109 43//109
f 43//110 35//110 44//110
f 49//8 36//8 44//8
f 44//7 36//7 49//7
f 45//113 36//113 49//113
f 49//114 36//114 45//114
f 45//127 46//127 38//127
f 38//128 46//128 45//128
f 47//117 39//117 46//117
f 46//118 39//118 47//118
f 47//129 48//129 40//129
f 40//130 48//130 47//130
f 50//131 43//131 42//131
f 42//132 43//132 50//132
f 51//133 42//133 48//133
f 48//134 42//134 51//134
f 52//135 44//135 43//135
f 43//136 44//136 52//136
f 53//137 49//137 44//137
f 44//138 49//138 53//138
f 54//139 45//139 49//139
f 49//140 45//140 54//140
f 45//141 55//141 46//141
f 46//142 55//142 45//142
f 56//135 47//135 46//135
f 46//136 47//136 56//136
f 47//143 57//143 48//143
f 48//144 57//144 47//144
f 52//135 43//135 50//135
f 50//136 43//136 52//136
f 50//145 42//145 51//145
f 51//146 42//146 50//146
f 51//133 48//133 57//133
f 57//134 48//134 51//134
f 53//147 44//147 52//147
f 52//148 44//148 53//148
f 54//149 49//149 53//149
f 53//150 49//150 54//150
f 54//151 55//151 45//151
f 45//152 55//152 54//152
f 56//135 46//135 55//135
f 55//136 46//136 56//136
f 56//153 57//153 47//153
f 47//154 57//154 56//154
f 58//155 52//155 50//155
f 50//156 52//156 58//156
f 59//157 50//157 51//157
f 51//158 50//158 59//158
f 60//159 51//159 57//159
f 57//160 51//160 60//160
f 61//161 53//161 52//161
f 52//162 53//162 61//162
f 62//163 54//163 53//163
f 53//164 54//164 62//164
f 54//165 63//165 55//165
f 55//166 63//166 54//166
f 64//155 56//155 55//155
f 55//156 56//156 64//156
f 56//167 65//167 57//167
f 57//168 65//168 56//168
f 61//169 52//169 58//169
f 58//170 52//170 61//170
f 58//155 50//155 59//155
f 59//156 50//156 58//156
f 59//171 51//171 60//171
f 60//172 51//172 59//172
f 60//159 57//159 65//159
f 65//160 57//160 60//160
f 62//173 53//173 61//173
f 61//174 53//174 62//174
f 62//175 63//175 54//175
f 54//176 63//176 62//176
f 64//155 55//155 63//155
f 63//156 55//156 64//156
f 64//177 65//177 56//177
f 56//178 65//178 64//178
f 66//179 61//179 58//179
f 58//180 61//180 66//180
f 67//92 58//92 59//92
f 59//91 58//91 67//91
f 59//181 60//181 68//181
f 68//182 60//182 59//182
f 69//183 60//183 65//183
f 65//184 60//184 69//184
f 70//185 62//185 61//185
f 61//186 62//186 70//186
f 62//105 71//105 63//105
f 63//106 71//106 62//106
f 72//92 64//92 63//92
f 63//91 64//91 72//91
f 64//187 73//187 65//187
f 65//188 73//188 64//188
f 70//189 61//189 66//189
f 66//190 61//190 70//190
f 66//106 58//106 67//106
f 67//105 58//105 66//105
f 67//92 59//92 68//92
f 68//91 59//91 67//91
f 68//191 60//191 69//191
f 69//192 60//192 68//192
f 69//193 65//193 73//193
f 73//194 65//194 69//194
f 70//105 71//105 62//105
f 62//106 71//106 70//106
f 72//92 63//92 71//92
f 71//91 63//91 72//91
f 72//195 73//195 64//195
f 64//196 73//196 72//196
f 74//197 70//197 66//197
f 66//198 70//198 74//198
f 66//199 67//199 75//199
f 75//200 67//200 66//200
f 76//201 67//201 68//201
f 68//202 67//202 76//202
f 68//203 69//203 77//203
f 77//204 69//204 68//204
f 77//205 69//205 73//205
f 73//206 69//206 77//206
f 70//207 78//207 71//207
f 71//208 78//208 70//208
f 79//201 72//201 71//201
f 71//202 72//202 79//202
f 72//209 80//209 73//209
f 73//210 80//210 72//210
f 70//83 74//83 81//83
f 81//84 74//84 70//84
f 74//211 66//211 82//211
f 82//212 66//212 74//212
f 67//213 76//213 75//213
f 75//214 76//214 67//214
f 66//215 75//215 83//215
f 83//216 75//216 66//216
f 76//217 68//217 77//217
f 77//218 68//218 76//218
f 77//205 73//205 80//205
f 80//206 73//206 77//206
f 70//219 81//219 78//219
f 78//220 81//220 70//220
f 78//221 84//221 71//221
f 71//222 84//222 78//222
f 80//223 72//223 79//223
f 79//224 72//224 80//224
f 71//225 84//225 79//225
f 79//226 84//226 71//226
f 81//5 74//5 82//5
f 82//6 74//6 81//6
f 66//84 85//84 82//84
f 82//83 85//83 66//83
f 75//84 76//84 86//84
f 86//83 76//83 75//83
f 83//227 75//227 84//227
f 84//228 75//228 83//228
f 66//229 83//229 85//229
f 85//230 83//230 66//230
f 85//2 78//2 81//2
f 81//1 78//1 85//1
f 83//227 84//227 78//227
f 78//228 84//228 83//228
f 84//83 87//83 79//83
f 79//84 87//84 84//84
f 81//3 82//3 85//3
f 85//4 82//4 81//4
f 76//231 88//231 86//231
f 86//232 88//232 76//232
f 86//233 87//233 75//233
f 75//234 87//234 86//234
f 75//235 87//235 84//235
f 84//236 87//236 75//236
f 85//237 83//237 78//237
f 78//238 83//238 85//238
f 79//239 87//239 89//239
f 89//240 87//240 79//240
f 88//241 76//241 79//241
f 79//242 76//242 88//242
f 86//243 88//243 90//243
f 90//244 88//244 86//244
f 87//245 86//245 91//245
f 91//246 86//246 87//246
f 87//247 91//247 89//247
f 89//248 91//248 87//248
f 88//249 79//249 89//249
f 89//250 79//250 88//250
f 90//251 88//251 89//251
f 89//252 88//252 90//252
f 86//253 90//253 91//253
f 91//254 90//254 86//254
f 91//255 90//255 89//255
f 89//256 90//256 91//256