# SSTK version 0.8.0
# 2
mtllib original-2.mtl
o mesh1/mesh1-geometry#mesh1-geometry
v -0.467965 -0.756365 0.198647
v -0.483799 -0.834212 0.203925
v -0.467965 -0.827614 0.198647
v -0.483799 -0.749768 0.203925
v -0.466646 -0.834212 0.255382
v -0.457410 -0.768240 0.194688
v -0.452132 -0.756365 0.251424
v -0.499632 -0.834212 0.209202
v -0.452132 -0.827614 0.251424
v -0.482479 -0.834212 0.260660
v -0.440257 -0.768240 0.247466
v -0.457410 -0.815740 0.194688
v -0.466646 -0.749768 0.255382
v -0.499632 -0.749768 0.209202
v -0.482479 -0.749768 0.260660
v -0.433660 -0.784073 0.246146
v -0.450813 -0.784073 0.193369
v -0.440257 -0.815740 0.247466
v -0.514146 -0.827614 0.213161
v -0.496993 -0.827614 0.265938
v -0.496993 -0.756365 0.265938
v -0.433660 -0.799906 0.246146
v -0.450813 -0.799906 0.193369
v -0.514146 -0.756365 0.213161
v -0.524701 -0.815740 0.217119
v -0.508868 -0.815740 0.269896
v -0.508868 -0.768240 0.269896
v -0.524701 -0.768240 0.217119
v -0.531298 -0.799906 0.219758
v -0.514146 -0.799906 0.271216
v -0.531298 -0.784073 0.219758
v -0.514146 -0.784073 0.271216
vn 0.31622806601688475 0 0.9486831980504455
vn -0.31622806601688475 0 -0.9486831980504455
vn -0.3487430108260295 0.9299810288694015 0.11624800360868684
vn 0.3487430108260295 -0.9299810288694015 -0.11624800360868684
vn 0.35112311282114117 0 0.9363293008566976
vn -0.35112311282114117 0 -0.9363293008566976
vn -0.3522441048993668 -0.9299232769339829 0.10567303146975048
vn 0.3522441048993668 0.9299232769339829 -0.10567303146975048
vn -0.38477499019881917 0.9157639766732024 0.11543199705965851
vn 0.38477499019881917 -0.9157639766732024 -0.11543199705965851
vn 0 1 0
vn 0 -1 0
vn -0.6900530053154783 -0.6881360053007116 0.2242670017275287
vn 0.6900530053154783 0.6881360053007116 -0.2242670017275287
vn -0.3814930339845455 -0.9155830815628913 0.1271640113281521
vn 0.3814930339845455 0.9155830815628913 -0.1271640113281521
vn -0.6593799951347646 -0.7253189946482338 0.1978139985404294
vn 0.6593799951347646 0.7253189946482338 -0.1978139985404294
vn -0.2631169827151882 0 -0.9647639366222471
vn 0.2631169827151882 0 0.9647639366222471
vn -0.6954008659694932 0.6876738674587831 0.20861995979090578
vn 0.6954008659694932 -0.6876738674587831 -0.20861995979090578
vn -0.8762027913805214 -0.38881490742512576 0.28476593219866353
vn 0.8762027913805214 0.38881490742512576 -0.28476593219866353
vn 0.196115942830544 0 0.9805807141524284
vn -0.196115942830544 0 -0.9805807141524284
vn 0.3727931118974109 0.9195562760135935 -0.1242640372990369
vn -0.3727931118974109 -0.9195562760135935 0.1242640372990369
vn -0.6545558679152211 0.7254668536058819 0.21273095707238632
vn 0.6545558679152211 -0.7254668536058819 -0.21273095707238632
vn -0.3417431433787076 0 -0.939793394291341
vn 0.3417431433787076 0 0.939793394291341
vn 0.3823129559663431 0.9156408945392346 -0.12425198568902984
vn -0.3823129559663431 -0.9156408945392346 0.12425198568902984
vn -0.8762027913805214 0.38881490742512576 0.28476593219866353
vn 0.8762027913805214 -0.38881490742512576 -0.28476593219866353
vn 0.37379011438857657 -0.9195232813957759 -0.1214820371763639
vn -0.37379011438857657 0.9195232813957759 0.1214820371763639
vn -0.9510340834285177 0 0.30908602711426386
vn 0.9510340834285177 0 -0.30908602711426386
vn 0.3814930339845455 -0.9155830815628913 -0.1271640113281521
vn -0.3814930339845455 0.9155830815628913 0.1271640113281521
vn 0.6545558679152211 0.7254668536058819 -0.21273095707238632
vn -0.6545558679152211 -0.7254668536058819 0.21273095707238632
vn 0.6900530053154783 -0.6881360053007116 -0.2242670017275287
vn -0.6900530053154783 0.6881360053007116 0.2242670017275287
vn 0.6954008659694932 0.6876738674587831 -0.20861995979090578
vn -0.6954008659694932 -0.6876738674587831 0.20861995979090578
vn 0.6593799951347646 -0.7253189946482338 -0.1978139985404294
vn -0.6593799951347646 0.7253189946482338 0.1978139985404294
vn 0.37139084876782025 0 0.9284766219197542
vn -0.37139084876782025 0 -0.9284766219197542
vn 0.905950893075152 0.32463196168531494 -0.271784967922581
vn -0.905950893075152 -0.32463196168531494 0.271784967922581
vn -0.2425360956247253 0 -0.9701423824981127
vn 0.2425360956247253 0 0.9701423824981127
vn 0.8744459387463758 -0.4080749714149614 -0.26233398162389876
vn -0.8744459387463758 0.4080749714149614 0.26233398162389876
vn 0.8657749119796994 0.4088379584348778 -0.2885919706598659
vn -0.8657749119796994 -0.4088379584348778 0.2885919706598659
vn -0.24253586033030797 0 -0.9701424413218077
vn 0.24253586033030797 0 0.9701424413218077
vn 0.8974791843687191 -0.3240900665776672 -0.29916006145630814
vn -0.8974791843687191 0.3240900665776672 0.29916006145630814
vn 0.9486831980504455 0 -0.31622806601688475
vn -0.9486831980504455 0 0.31622806601688475
usemtl material_0_0
f 1//1 2//1 3//1
f 3//2 2//2 1//2
f 1//1 4//1 2//1
f 2//2 4//2 1//2
f 5//3 3//3 2//3
f 2//4 3//4 5//4
f 6//5 1//5 3//5
f 3//6 1//6 6//6
f 7//7 4//7 1//7
f 1//8 4//8 7//8
f 4//1 8//1 2//1
f 2//2 8//2 4//2
f 5//9 9//9 3//9
f 3//10 9//10 5//10
f 10//11 5//11 2//11
f 2//12 5//12 10//12
f 1//13 6//13 11//13
f 11//14 6//14 1//14
f 6//5 3//5 12//5
f 12//6 3//6 6//6
f 13//15 4//15 7//15
f 7//16 4//16 13//16
f 7//17 1//17 11//17
f 11//18 1//18 7//18
f 4//1 14//1 8//1
f 8//2 14//2 4//2
f 10//11 2//11 8//11
f 8//12 2//12 10//12
f 9//19 5//19 13//19
f 13//20 5//20 9//20
f 12//21 3//21 9//21
f 9//22 3//22 12//22
f 5//2 10//2 15//2
f 15//1 10//1 5//1
f 6//23 16//23 11//23
f 11//24 16//24 6//24
f 17//25 6//25 12//25
f 12//26 6//26 17//26
f 13//12 14//12 4//12
f 4//11 14//11 13//11
f 7//19 9//19 13//19
f 13//20 9//20 7//20
f 11//2 18//2 7//2
f 7//1 18//1 11//1
f 14//20 19//20 8//20
f 8//19 19//19 14//19
f 20//27 10//27 8//27
f 8//28 10//28 20//28
f 13//2 5//2 15//2
f 15//1 5//1 13//1
f 9//29 18//29 12//29
f 12//30 18//30 9//30
f 15//31 10//31 21//31
f 21//32 10//32 15//32
f 6//23 17//23 16//23
f 16//24 17//24 6//24
f 22//26 11//26 16//26
f 16//25 11//25 22//25
f 17//25 12//25 23//25
f 23//26 12//26 17//26
f 15//12 14//12 13//12
f 13//11 14//11 15//11
f 18//2 9//2 7//2
f 7//1 9//1 18//1
f 22//26 18//26 11//26
f 11//25 18//25 22//25
f 14//20 24//20 19//20
f 19//19 24//19 14//19
f 20//33 8//33 19//33
f 19//34 8//34 20//34
f 10//31 20//31 21//31
f 21//32 20//32 10//32
f 23//35 12//35 18//35
f 18//36 12//36 23//36
f 21//37 24//37 15//37
f 15//38 24//38 21//38
f 17//39 22//39 16//39
f 16//40 22//40 17//40
f 17//39 23//39 22//39
f 22//40 23//40 17//40
f 15//41 24//41 14//41
f 14//42 24//42 15//42
f 22//35 23//35 18//35
f 18//36 23//36 22//36
f 24//5 25//5 19//5
f 19//6 25//6 24//6
f 26//43 20//43 19//43
f 19//44 20//44 26//44
f 21//2 20//2 27//2
f 27//1 20//1 21//1
f 21//45 28//45 24//45
f 24//46 28//46 21//46
f 24//5 28//5 25//5
f 25//6 28//6 24//6
f 26//47 19//47 25//47
f 25//48 19//48 26//48
f 20//2 26//2 27//2
f 27//1 26//1 20//1
f 27//49 28//49 21//49
f 21//50 28//50 27//50
f 28//51 29//51 25//51
f 25//52 29//52 28//52
f 30//53 26//53 25//53
f 25//54 26//54 30//54
f 27//55 26//55 30//55
f 30//56 26//56 27//56
f 27//57 31//57 28//57
f 28//58 31//58 27//58
f 28//51 31//51 29//51
f 29//52 31//52 28//52
f 30//59 25//59 29//59
f 29//60 25//60 30//60
f 27//61 30//61 32//61
f 32//62 30//62 27//62
f 27//63 32//63 31//63
f 31//64 32//64 27//64
f 32//65 29//65 31//65
f 31//66 29//66 32//66
f 32//65 30//65 29//65
f 29//66 30//66 32//66
