# SSTK version 0.8.0
# 24
mtllib original-24.mtl
o mesh22/mesh22-geometry#mesh22-geometry
v 0.342168 -0.195605 -0.034893
v 0.223418 -0.303799 0.044273
v 0.342168 -0.199564 -0.045449
v 0.223418 -0.295882 0.048231
v 0.307862 -0.303799 0.044273
v 0.347445 -0.186369 -0.034893
v 0.384390 -0.195605 -0.034893
v 0.384390 -0.199564 -0.045449
v 0.389667 -0.186369 -0.034893
v 0.350084 -0.182411 -0.046768
v 0.307862 -0.295882 0.048231
v 0.392306 -0.179772 -0.029615
v 0.350084 -0.179772 -0.029615
v 0.392306 -0.182411 -0.046768
v 0.392306 -0.170536 -0.034893
v 0.350084 -0.170536 -0.034893
v 0.392306 -0.140189 0.185452
v 0.392306 -0.150744 0.190730
v 0.350084 -0.150744 0.190730
v 0.350084 -0.140189 0.185452
v 0.350084 -0.138869 0.202605
v 0.392306 -0.138869 0.202605
v 0.392306 -0.149425 0.198647
v 0.350084 -0.149425 0.198647
v 0.347445 -0.156022 0.205244
v 0.347445 -0.150744 0.215799
v 0.389667 -0.150744 0.215799
v 0.389667 -0.156022 0.205244
v 0.343487 -0.165258 0.205244
v 0.385709 -0.165258 0.205244
v 0.343487 -0.169216 0.217119
v 0.385709 -0.169216 0.217119
v 0.223418 -0.302479 0.104967
v 0.307862 -0.294563 0.099689
v 0.307862 -0.302479 0.104967
v 0.223418 -0.294563 0.099689
vn 0.7360007369732556 -0.6338767734695964 0.23770391505105393
vn -0.7360007369732556 0.6338767734695964 -0.23770391505105393
vn 0.70842727033271 -0.31563612044534617 0.6312722408906923
vn -0.70842727033271 0.31563612044534617 -0.6312722408906923
vn 0 0.6523698229791464 0.7579007943432684
vn 0 -0.6523698229791464 -0.7579007943432684
vn 0.8535949202080847 -0.4877689544045798 0.18291298290175245
vn -0.8535949202080847 0.4877689544045798 -0.18291298290175245
vn 0 -0.638189951899306 -0.7698789419738413
vn 0 0.638189951899306 0.7698789419738413
vn 0 0 -1
vn 0 0 1
vn 0.9079702091813789 -0.41416209541612414 0.06371701467935055
vn -0.9079702091813789 0.41416209541612414 -0.06371701467935055
vn 0 -0.6381893591851981 -0.7698794333028948
vn 0 0.6381893591851981 0.7698794333028948
vn 0 0.07669604006095986 0.9970545207956121
vn 0 -0.07669604006095986 -0.9970545207956121
vn -0.8562748605342434 0.23099496237669856 -0.4619899247533971
vn 0.8562748605342434 -0.23099496237669856 0.4619899247533971
vn 0 0.6246949256032116 -0.7808689070039848
vn 0 -0.6246949256032116 0.7808689070039848
vn -0.849228258834622 0.49440615068908483 -0.18540205650833064
vn 0.849228258834622 -0.49440615068908483 0.18540205650833064
vn -0.8679134473102891 0.49595068417721705 -0.027552982454183705
vn 0.8679134473102891 -0.49595068417721705 0.027552982454183705
vn -0.9479430300407891 0.157991005006814 0.2764830087618849
vn 0.9479430300407891 -0.157991005006814 -0.2764830087618849
vn 1 0 0
vn -1 0 0
vn -0.9018383486805338 0.4045631564174971 -0.1517110586565131
vn 0.9018383486805338 -0.4045631564174971 0.1517110586565131
vn -0.9733286846790304 0.16222094744666707 -0.16222094744666707
vn 0.9733286846790304 -0.16222094744666707 0.16222094744666707
vn 0 -0.7071067811865476 0.7071067811865476
vn 0 0.7071067811865476 -0.7071067811865476
vn 0 0.991434086244855 -0.13060801136159142
vn 0 -0.991434086244855 0.13060801136159142
vn 0 -0.9906487542349343 0.13643696615203946
vn 0 0.9906487542349343 -0.13643696615203946
vn 0 -0.9970545207956121 0.07669604006095986
vn 0 0.9970545207956121 -0.07669604006095986
vn 0 0.9863939238321439 -0.1643989873053573
vn 0 -0.9863939238321439 0.1643989873053573
vn 0.9549703050934844 -0.10417903328307078 0.27781008875464247
vn -0.9549703050934844 0.10417903328307078 -0.27781008875464247
vn 0 -0.74329394735212 -0.6689649526168796
vn 0 0.74329394735212 0.6689649526168796
vn -0.9874865998003992 0.05537297755894255 -0.14766194015690995
vn 0.9874865998003992 -0.05537297755894255 0.14766194015690995
vn 0 0.7071067811865476 0.7071067811865476
vn 0 -0.7071067811865476 -0.7071067811865476
vn 0.9874838522516896 -0.14106897889311987 0.07053498944648513
vn -0.9874838522516896 0.14106897889311987 -0.07053498944648513
vn -0.958314806683486 0.25555094844886234 -0.12777497422453205
vn 0.958314806683486 -0.25555094844886234 0.12777497422453205
vn 0.9018186918982056 -0.38649486795598337 0.19324793397782086
vn -0.9018186918982056 0.38649486795598337 -0.19324793397782086
vn 0 -0.07124697892194065 -0.9974587049068732
vn 0 0.07124697892194065 0.9974587049068732
vn -0.974274037060898 0.2015740076677746 -0.1007870038338873
vn 0.974274037060898 -0.2015740076677746 0.1007870038338873
vn 0.9742592969084888 -0.21386206517511588 -0.07128702172493705
vn -0.9742592969084888 0.21386206517511588 0.07128702172493705
vn -0.911321851441336 0.3905679363317683 0.13018897877731042
vn 0.911321851441336 -0.3905679363317683 -0.13018897877731042
vn 0.8032006144148024 -0.5651387286990018 -0.18837990956617393
vn -0.8032006144148024 0.5651387286990018 0.18837990956617393
vn 0 -0.6323762939611371 0.774661360102579
vn 0 0.6323762939611371 -0.774661360102579
vn -0.9012200697499299 0.4111230318188682 0.1370410106062894
vn 0.9012200697499299 -0.4111230318188682 -0.1370410106062894
vn 0 0.6439019880015304 -0.7651079857429779
vn 0 -0.6439019880015304 0.7651079857429779
vn 0.7990267978007012 -0.3335389155956533 -0.5003078733936065
vn -0.7990267978007012 0.3335389155956533 0.5003078733936065
vn -0.8987322449256901 0.2432350662872806 0.3648520994307846
vn 0.8987322449256901 -0.2432350662872806 -0.3648520994307846
usemtl material_0_0
f 1//1 2//1 3//1
f 3//2 2//2 1//2
f 1//3 4//3 2//3
f 2//4 4//4 1//4
f 3//5 2//5 5//5
f 5//6 2//6 3//6
f 6//7 1//7 3//7
f 3//8 1//8 6//8
f 7//9 4//9 1//9
f 1//10 4//10 7//10
f 8//5 3//5 5//5
f 5//6 3//6 8//6
f 9//11 1//11 6//11
f 6//12 1//12 9//12
f 10//13 6//13 3//13
f 3//14 6//14 10//14
f 7//15 11//15 4//15
f 4//16 11//16 7//16
f 9//11 7//11 1//11
f 1//12 7//12 9//12
f 8//17 10//17 3//17
f 3//18 10//18 8//18
f 8//19 5//19 11//19
f 11//20 5//20 8//20
f 12//21 9//21 6//21
f 6//22 9//22 12//22
f 13//13 6//13 10//13
f 10//14 6//14 13//14
f 7//23 8//23 11//23
f 11//24 8//24 7//24
f 14//25 7//25 9//25
f 9//26 7//26 14//26
f 14//17 10//17 8//17
f 8//18 10//18 14//18
f 15//27 9//27 12//27
f 12//28 9//28 15//28
f 12//21 6//21 13//21
f 13//22 6//22 12//22
f 16//29 13//29 10//29
f 10//30 13//30 16//30
f 14//31 8//31 7//31
f 7//32 8//32 14//32
f 15//33 14//33 9//33
f 9//34 14//34 15//34
f 14//35 16//35 10//35
f 10//36 16//36 14//36
f 17//30 15//30 12//30
f 12//29 15//29 17//29
f 18//37 12//37 13//37
f 13//38 12//38 18//38
f 19//29 13//29 16//29
f 16//30 13//30 19//30
f 15//35 16//35 14//35
f 14//36 16//36 15//36
f 20//39 15//39 17//39
f 17//40 15//40 20//40
f 17//30 12//30 18//30
f 18//29 12//29 17//29
f 18//37 13//37 19//37
f 19//38 13//38 18//38
f 20//29 19//29 16//29
f 16//30 19//30 20//30
f 20//39 16//39 15//39
f 15//40 16//40 20//40
f 21//41 20//41 17//41
f 17//42 20//42 21//42
f 22//30 17//30 18//30
f 18//29 17//29 22//29
f 23//43 18//43 19//43
f 19//44 18//44 23//44
f 20//29 24//29 19//29
f 19//30 24//30 20//30
f 21//29 24//29 20//29
f 20//30 24//30 21//30
f 21//41 17//41 22//41
f 22//42 17//42 21//42
f 22//30 18//30 23//30
f 23//29 18//29 22//29
f 23//43 19//43 24//43
f 24//44 19//44 23//44
f 21//45 25//45 24//45
f 24//46 25//46 21//46
f 26//47 21//47 22//47
f 22//48 21//48 26//48
f 22//49 23//49 27//49
f 27//50 23//50 22//50
f 23//51 24//51 28//51
f 28//52 24//52 23//52
f 21//53 26//53 25//53
f 25//54 26//54 21//54
f 28//51 24//51 25//51
f 25//52 24//52 28//52
f 26//47 22//47 27//47
f 27//48 22//48 26//48
f 23//55 28//55 27//55
f 27//56 28//56 23//56
f 26//57 29//57 25//57
f 25//58 29//58 26//58
f 28//12 25//12 30//12
f 30//11 25//11 28//11
f 27//59 31//59 26//59
f 26//60 31//60 27//60
f 27//61 28//61 32//61
f 32//62 28//62 27//62
f 26//63 31//63 29//63
f 29//64 31//64 26//64
f 30//12 25//12 29//12
f 29//11 25//11 30//11
f 28//65 30//65 32//65
f 32//66 30//66 28//66
f 27//59 32//59 31//59
f 31//60 32//60 27//60
f 29//67 31//67 33//67
f 33//68 31//68 29//68
f 30//69 29//69 34//69
f 34//70 29//70 30//70
f 30//71 35//71 32//71
f 32//72 35//72 30//72
f 32//73 33//73 31//73
f 31//74 33//74 32//74
f 29//75 33//75 36//75
f 36//76 33//76 29//76
f 29//69 36//69 34//69
f 34//70 36//70 29//70
f 30//77 34//77 35//77
f 35//78 34//78 30//78
f 32//73 35//73 33//73
f 33//74 35//74 32//74
