# SSTK version 0.8.0
# 5
mtllib original-5.mtl
o mesh4/mesh4-geometry#mesh4-geometry
v 0.472792 -0.834212 0.255382
v 0.458278 -0.827614 0.251424
v 0.458278 -0.756365 0.251424
v 0.489944 -0.834212 0.203925
v 0.446403 -0.768240 0.247466
v 0.472792 -0.749768 0.255382
v 0.505778 -0.834212 0.209202
v 0.474111 -0.827615 0.198647
v 0.446403 -0.815740 0.247466
v 0.463556 -0.768240 0.194688
v 0.474111 -0.756365 0.198647
v 0.488625 -0.834212 0.260660
v 0.505778 -0.749768 0.209202
v 0.489944 -0.749768 0.203925
v 0.439806 -0.784073 0.246146
v 0.456958 -0.784073 0.193369
v 0.488625 -0.749768 0.260660
v 0.520291 -0.827615 0.213161
v 0.520291 -0.756365 0.213161
v 0.463556 -0.815740 0.194688
v 0.439806 -0.799906 0.246146
v 0.456958 -0.799906 0.193369
v 0.503139 -0.827615 0.265938
v 0.503139 -0.756365 0.265938
v 0.530847 -0.815740 0.217119
v 0.530847 -0.768240 0.217119
v 0.515014 -0.768240 0.269896
v 0.515014 -0.815740 0.269896
v 0.537444 -0.799906 0.219758
v 0.520291 -0.784073 0.271216
v 0.520291 -0.799906 0.271216
v 0.537444 -0.784073 0.219758
vn 0.2631169827151882 0 -0.9647639366222471
vn -0.2631169827151882 0 0.9647639366222471
vn 0.3814930339845455 0.9155830815628913 0.1271640113281521
vn -0.3814930339845455 -0.9155830815628913 -0.1271640113281521
vn 0.31622806601688475 0 -0.9486831980504455
vn -0.31622806601688475 0 0.9486831980504455
vn 0 1 0
vn 0 -1 0
vn 0.3522441048993668 0.9299232769339829 0.10567303146975048
vn -0.3522441048993668 -0.9299232769339829 -0.10567303146975048
vn 0.6545558679152211 -0.7254668536058819 0.21273095707238632
vn -0.6545558679152211 0.7254668536058819 -0.21273095707238632
vn 0.38477499019881917 -0.9157639766732024 0.11543199705965851
vn -0.38477499019881917 0.9157639766732024 -0.11543199705965851
vn 0.659381038613025 0.7253180424742631 0.19781401158388992
vn -0.659381038613025 -0.7253180424742631 -0.19781401158388992
vn 0.196115942830544 0 -0.9805807141524284
vn -0.196115942830544 0 0.9805807141524284
vn 0.8762027913805214 -0.38881490742512576 0.28476593219866353
vn -0.8762027913805214 0.38881490742512576 -0.28476593219866353
vn 0.6954008659694932 -0.6876738674587831 0.20861995979090578
vn -0.6954008659694932 0.6876738674587831 -0.20861995979090578
vn 0.3487430108260295 -0.9299810288694015 0.11624800360868684
vn -0.3487430108260295 0.9299810288694015 -0.11624800360868684
vn -0.3814930339845455 0.9155830815628913 -0.1271640113281521
vn 0.3814930339845455 -0.9155830815628913 0.1271640113281521
vn 0.6900530053154783 0.6881360053007116 0.2242670017275287
vn -0.6900530053154783 -0.6881360053007116 -0.2242670017275287
vn -0.35112311282114117 0 0.9363293008566976
vn 0.35112311282114117 0 -0.9363293008566976
vn 0.3417431433787076 0 -0.939793394291341
vn -0.3417431433787076 0 0.939793394291341
vn -0.37379011438857657 0.9195232813957759 -0.1214820371763639
vn 0.37379011438857657 -0.9195232813957759 0.1214820371763639
vn -0.3823138098025589 -0.9156405444776411 -0.12425193818585652
vn 0.3823138098025589 0.9156405444776411 0.12425193818585652
vn 0.8762027913805214 0.38881490742512576 0.28476593219866353
vn -0.8762027913805214 -0.38881490742512576 -0.28476593219866353
vn 0.9510340834285177 0 0.30908602711426386
vn -0.9510340834285177 0 -0.30908602711426386
vn -0.6900530053154783 0.6881360053007116 -0.2242670017275287
vn 0.6900530053154783 -0.6881360053007116 0.2242670017275287
vn -0.3727931118974109 -0.9195562760135935 -0.1242640372990369
vn 0.3727931118974109 0.9195562760135935 0.1242640372990369
vn -0.6545558679152211 -0.7254668536058819 -0.21273095707238632
vn 0.6545558679152211 0.7254668536058819 0.21273095707238632
vn -0.6593799951347646 0.7253189946482338 -0.1978139985404294
vn 0.6593799951347646 -0.7253189946482338 0.1978139985404294
vn -0.6954008659694932 -0.6876738674587831 -0.20861995979090578
vn 0.6954008659694932 0.6876738674587831 0.20861995979090578
vn -0.37139084876782025 0 0.9284766219197542
vn 0.37139084876782025 0 -0.9284766219197542
vn -0.8744459387463758 0.4080749714149614 -0.26233398162389876
vn 0.8744459387463758 -0.4080749714149614 0.26233398162389876
vn -0.905950893075152 -0.32463196168531494 -0.271784967922581
vn 0.905950893075152 0.32463196168531494 0.271784967922581
vn 0.24253586033030797 0 -0.9701424413218077
vn -0.24253586033030797 0 0.9701424413218077
vn -0.8974791843687191 0.3240900665776672 -0.29916006145630814
vn 0.8974791843687191 -0.3240900665776672 0.29916006145630814
vn -0.8657749119796994 -0.4088379584348778 -0.2885919706598659
vn 0.8657749119796994 0.4088379584348778 0.2885919706598659
vn -0.9486831980504455 0 -0.31622806601688475
vn 0.9486831980504455 0 0.31622806601688475
usemtl material_0_0
f 1//1 2//1 3//1
f 3//2 2//2 1//2
f 1//3 4//3 2//3
f 2//4 4//4 1//4
f 2//5 5//5 3//5
f 3//6 5//6 2//6
f 1//1 3//1 6//1
f 6//2 3//2 1//2
f 1//7 7//7 4//7
f 4//8 7//8 1//8
f 2//9 4//9 8//9
f 8//10 4//10 2//10
f 2//5 9//5 5//5
f 5//6 9//6 2//6
f 3//11 5//11 10//11
f 10//12 5//12 3//12
f 6//13 3//13 11//13
f 11//14 3//14 6//14
f 12//5 1//5 6//5
f 6//6 1//6 12//6
f 12//7 7//7 1//7
f 1//8 7//8 12//8
f 13//6 4//6 7//6
f 7//5 4//5 13//5
f 14//6 8//6 4//6
f 4//5 8//5 14//5
f 2//15 8//15 9//15
f 9//16 8//16 2//16
f 9//17 15//17 5//17
f 5//18 15//18 9//18
f 5//19 16//19 10//19
f 10//20 16//20 5//20
f 3//21 10//21 11//21
f 11//22 10//22 3//22
f 6//23 11//23 14//23
f 14//24 11//24 6//24
f 12//5 6//5 17//5
f 17//6 6//6 12//6
f 12//25 18//25 7//25
f 7//26 18//26 12//26
f 13//6 14//6 4//6
f 4//5 14//5 13//5
f 19//2 13//2 7//2
f 7//1 13//1 19//1
f 14//6 11//6 8//6
f 8//5 11//5 14//5
f 9//27 8//27 20//27
f 20//28 8//28 9//28
f 9//17 21//17 15//17
f 15//18 21//18 9//18
f 5//19 15//19 16//19
f 16//20 15//20 5//20
f 10//18 16//18 22//18
f 22//17 16//17 10//17
f 11//29 10//29 20//29
f 20//30 10//30 11//30
f 17//8 6//8 14//8
f 14//7 6//7 17//7
f 23//31 12//31 17//31
f 17//32 12//32 23//32
f 23//33 18//33 12//33
f 12//34 18//34 23//34
f 19//2 7//2 18//2
f 18//1 7//1 19//1
f 17//8 14//8 13//8
f 13//7 14//7 17//7
f 24//35 13//35 19//35
f 19//36 13//36 24//36
f 11//29 20//29 8//29
f 8//30 20//30 11//30
f 21//37 9//37 20//37
f 20//38 9//38 21//38
f 15//39 21//39 22//39
f 22//40 21//40 15//40
f 15//39 22//39 16//39
f 16//40 22//40 15//40
f 10//18 22//18 20//18
f 20//17 22//17 10//17
f 23//31 17//31 24//31
f 24//32 17//32 23//32
f 25//41 18//41 23//41
f 23//42 18//42 25//42
f 26//29 19//29 18//29
f 18//30 19//30 26//30
f 24//43 17//43 13//43
f 13//44 17//44 24//44
f 27//45 24//45 19//45
f 19//46 24//46 27//46
f 21//37 20//37 22//37
f 22//38 20//38 21//38
f 28//5 23//5 24//5
f 24//6 23//6 28//6
f 26//29 18//29 25//29
f 25//30 18//30 26//30
f 28//47 25//47 23//47
f 23//48 25//48 28//48
f 19//49 26//49 27//49
f 27//50 26//50 19//50
f 28//5 24//5 27//5
f 27//6 24//6 28//6
f 29//51 26//51 25//51
f 25//52 26//52 29//52
f 29//53 25//53 28//53
f 28//54 25//54 29//54
f 27//55 26//55 30//55
f 30//56 26//56 27//56
f 31//57 28//57 27//57
f 27//58 28//58 31//58
f 32//51 26//51 29//51
f 29//52 26//52 32//52
f 31//59 29//59 28//59
f 28//60 29//60 31//60
f 26//61 32//61 30//61
f 30//62 32//62 26//62
f 31//57 27//57 30//57
f 30//58 27//58 31//58
f 32//63 29//63 31//63
f 31//64 29//64 32//64
f 30//63 32//63 31//63
f 31//64 32//64 30//64
