# SSTK version 0.8.0
# 27
mtllib original-27.mtl
o mesh25/mesh25-geometry#mesh25-geometry
v -0.343939 -0.138869 0.202605
v -0.386160 -0.140189 0.185452
v -0.343939 -0.140189 0.185452
v -0.386160 -0.138869 0.202605
v -0.343939 -0.170536 -0.034893
v -0.343939 -0.150744 0.190730
v -0.386160 -0.149425 0.198647
v -0.383522 -0.150744 0.215799
v -0.386160 -0.170536 -0.034893
v -0.343939 -0.149425 0.198647
v -0.386160 -0.150744 0.190730
v -0.341300 -0.150744 0.215799
v -0.386160 -0.179772 -0.029615
v -0.386160 -0.182411 -0.046768
v -0.343939 -0.179772 -0.029615
v -0.341300 -0.156022 0.205244
v -0.383522 -0.156022 0.205244
v -0.337341 -0.169216 0.217119
v -0.343939 -0.182411 -0.046768
v -0.342619 -0.186369 -0.034893
v -0.379563 -0.165258 0.205244
v -0.379563 -0.169216 0.217119
v -0.384841 -0.186369 -0.034893
v -0.336022 -0.199563 -0.045449
v -0.337341 -0.165258 0.205244
v -0.301717 -0.302479 0.104967
v -0.378244 -0.195605 -0.034893
v -0.378244 -0.199563 -0.045449
v -0.217273 -0.294563 0.099689
v -0.217273 -0.302479 0.104967
v -0.336022 -0.195605 -0.034893
v -0.301717 -0.303799 0.044273
v -0.301717 -0.294563 0.099689
v -0.217273 -0.303799 0.044273
v -0.217273 -0.295882 0.048231
v -0.301717 -0.295882 0.048231
vn 0 -0.9970545207956121 0.07669604006095986
vn 0 0.9970545207956121 -0.07669604006095986
vn 0 -0.9906487542349343 0.13643696615203946
vn 0 0.9906487542349343 -0.13643696615203946
vn -1 0 0
vn 1 0 0
vn 0 -0.74329394735212 -0.6689649526168796
vn 0 0.74329394735212 0.6689649526168796
vn 0.9874865998003992 0.05537297755894255 -0.14766194015690995
vn -0.9874865998003992 -0.05537297755894255 0.14766194015690995
vn 0 -0.7071067811865476 0.7071067811865476
vn 0 0.7071067811865476 -0.7071067811865476
vn 0 0.9863939238321439 -0.1643989873053573
vn 0 -0.9863939238321439 0.1643989873053573
vn -0.9549703050934844 -0.10417903328307078 0.27781008875464247
vn 0.9549703050934844 0.10417903328307078 -0.27781008875464247
vn 0.958314806683486 0.25555094844886234 -0.12777497422453205
vn -0.958314806683486 -0.25555094844886234 0.12777497422453205
vn -0.9874838522516896 -0.14106897889311987 0.07053498944648513
vn 0.9874838522516896 0.14106897889311987 -0.07053498944648513
vn 0 -0.07124697892194065 -0.9974587049068732
vn 0 0.07124697892194065 0.9974587049068732
vn -0.9861856979900452 -0.08218197483255481 -0.1438189559568178
vn 0.9861856979900452 0.08218197483255481 0.1438189559568178
vn 0 0.991434086244855 -0.13060801136159142
vn 0 -0.991434086244855 0.13060801136159142
vn 0 0.7071067811865476 0.7071067811865476
vn 0 -0.7071067811865476 -0.7071067811865476
vn 0.9018199242629114 0.3864929675413557 -0.19324598377071986
vn -0.9018199242629114 -0.3864929675413557 0.19324598377071986
vn -0.974274037060898 -0.2015740076677746 0.1007870038338873
vn 0.974274037060898 0.2015740076677746 -0.1007870038338873
vn 0.9743946703399278 0.22222992481451787 -0.03418898843308082
vn -0.9743946703399278 -0.22222992481451787 0.03418898843308082
vn 0 0.07669604006095986 0.9970545207956121
vn 0 -0.07669604006095986 -0.9970545207956121
vn -0.993126997829521 -0.08276099981912584 0.08276099981912584
vn 0.993126997829521 0.08276099981912584 -0.08276099981912584
vn 0 0.6246949256032116 -0.7808689070039848
vn 0 -0.6246949256032116 0.7808689070039848
vn 0.9742595052652372 0.21386111091150187 0.07128703697050062
vn -0.9742595052652372 -0.21386111091150187 -0.07128703697050062
vn 0 0 1
vn 0 0 -1
vn -0.9113232073725308 -0.3905650888734867 -0.13018802962441972
vn 0.9113232073725308 0.3905650888734867 0.13018802962441972
vn 0 0.6439019880015304 -0.7651079857429779
vn 0 -0.6439019880015304 0.7651079857429779
vn 0.8094236972626432 0.5781597837590308 0.10278396155716103
vn -0.8094236972626432 -0.5781597837590308 -0.10278396155716103
vn -0.9060754663706355 -0.4212457519090725 -0.039739976595306634
vn 0.9060754663706355 0.4212457519090725 0.039739976595306634
vn 0.9012200697499299 0.4111230318188682 0.1370410106062894
vn -0.9012200697499299 -0.4111230318188682 -0.1370410106062894
vn -0.7925471797421916 -0.5785171312022043 -0.19283904373406813
vn 0.7925471797421916 0.5785171312022043 0.19283904373406813
vn 0.9018383486805338 0.4045631564174971 -0.1517110586565131
vn -0.9018383486805338 -0.4045631564174971 0.1517110586565131
vn -0.7950661197858632 -0.5679050855614384 0.2129640320854829
vn 0.7950661197858632 0.5679050855614384 -0.2129640320854829
vn 0 0.6523698229791464 0.7579007943432684
vn 0 -0.6523698229791464 -0.7579007943432684
vn 0.8987322449256901 0.2432350662872806 0.3648520994307846
vn -0.8987322449256901 -0.2432350662872806 -0.3648520994307846
vn 0 -0.6323762939611371 0.774661360102579
vn 0 0.6323762939611371 -0.774661360102579
vn -0.8123215620235446 -0.32350682557600413 -0.48525973836427577
vn 0.8123215620235446 0.32350682557600413 0.48525973836427577
vn 0.860226218602435 0.47744612132957864 -0.17904204549852848
vn -0.860226218602435 -0.47744612132957864 0.17904204549852848
vn -0.7360012035069369 -0.6338761752690052 0.2377040657260152
vn 0.7360012035069369 0.6338761752690052 -0.2377040657260152
vn 0 -0.6381893591851981 -0.7698794333028948
vn 0 0.6381893591851981 0.7698794333028948
vn 0.8414911990859019 0.24161605716322487 -0.48323311432668636
vn -0.8414911990859019 -0.24161605716322487 0.48323311432668636
vn -0.7084277684631733 -0.31563589684010546 0.6312717936802109
vn 0.7084277684631733 0.31563589684010546 -0.6312717936802109
usemtl material_0_0
f 1//1 2//1 3//1
f 3//2 2//2 1//2
f 4//1 2//1 1//1
f 1//2 2//2 4//2
f 2//3 5//3 3//3
f 3//4 5//4 2//4
f 1//5 3//5 6//5
f 6//6 3//6 1//6
f 4//6 7//6 2//6
f 2//5 7//5 4//5
f 8//7 4//7 1//7
f 1//8 4//8 8//8
f 2//3 9//3 5//3
f 5//4 9//4 2//4
f 3//5 5//5 6//5
f 6//6 5//6 3//6
f 1//5 6//5 10//5
f 10//6 6//6 1//6
f 4//9 8//9 7//9
f 7//10 8//10 4//10
f 2//6 7//6 11//6
f 11//5 7//5 2//5
f 8//7 1//7 12//7
f 12//8 1//8 8//8
f 2//6 13//6 9//6
f 9//5 13//5 2//5
f 5//11 9//11 14//11
f 14//12 9//12 5//12
f 6//5 5//5 15//5
f 15//6 5//6 6//6
f 10//13 6//13 7//13
f 7//14 6//14 10//14
f 1//15 10//15 16//15
f 16//16 10//16 1//16
f 7//17 8//17 17//17
f 17//18 8//18 7//18
f 7//13 6//13 11//13
f 11//14 6//14 7//14
f 2//6 11//6 13//6
f 13//5 11//5 2//5
f 1//19 16//19 12//19
f 12//20 16//20 1//20
f 18//21 8//21 12//21
f 12//22 8//22 18//22
f 9//6 13//6 14//6
f 14//5 13//5 9//5
f 5//11 14//11 19//11
f 19//12 14//12 5//12
f 5//23 20//23 15//23
f 15//24 20//24 5//24
f 6//25 15//25 13//25
f 13//26 15//26 6//26
f 16//27 10//27 7//27
f 7//28 10//28 16//28
f 8//29 21//29 17//29
f 17//30 21//30 8//30
f 16//27 7//27 17//27
f 17//28 7//28 16//28
f 6//25 13//25 11//25
f 11//26 13//26 6//26
f 12//31 16//31 18//31
f 18//32 16//32 12//32
f 18//21 22//21 8//21
f 8//22 22//22 18//22
f 13//33 23//33 14//33
f 14//34 23//34 13//34
f 24//35 19//35 14//35
f 14//36 19//36 24//36
f 5//37 19//37 20//37
f 20//38 19//38 5//38
f 20//39 13//39 15//39
f 15//40 13//40 20//40
f 8//41 22//41 21//41
f 21//42 22//42 8//42
f 16//43 17//43 21//43
f 21//44 17//44 16//44
f 16//45 25//45 18//45
f 18//46 25//46 16//46
f 26//47 22//47 18//47
f 18//48 22//48 26//48
f 20//39 23//39 13//39
f 13//40 23//40 20//40
f 14//49 23//49 27//49
f 27//50 23//50 14//50
f 19//51 24//51 20//51
f 20//52 24//52 19//52
f 24//35 14//35 28//35
f 28//36 14//36 24//36
f 21//53 22//53 26//53
f 26//54 22//54 21//54
f 25//43 16//43 21//43
f 21//44 16//44 25//44
f 25//55 29//55 18//55
f 18//56 29//56 25//56
f 30//47 26//47 18//47
f 18//48 26//48 30//48
f 20//44 27//44 23//44
f 23//43 27//43 20//43
f 14//57 27//57 28//57
f 28//58 27//58 14//58
f 20//59 24//59 31//59
f 31//60 24//60 20//60
f 32//61 24//61 28//61
f 28//62 24//62 32//62
f 21//63 26//63 33//63
f 33//64 26//64 21//64
f 29//65 25//65 21//65
f 21//66 25//66 29//66
f 18//67 29//67 30//67
f 30//68 29//68 18//68
f 31//44 27//44 20//44
f 20//43 27//43 31//43
f 27//69 32//69 28//69
f 28//70 32//70 27//70
f 31//71 24//71 34//71
f 34//72 24//72 31//72
f 34//61 24//61 32//61
f 32//62 24//62 34//62
f 29//65 21//65 33//65
f 33//66 21//66 29//66
f 35//73 27//73 31//73
f 31//74 27//74 35//74
f 27//75 36//75 32//75
f 32//76 36//76 27//76
f 31//77 34//77 35//77
f 35//78 34//78 31//78
f 35//73 36//73 27//73
f 27//74 36//74 35//74
