# SSTK version 0.8.0
# 14
mtllib original-14.mtl
o mesh12/mesh12-geometry#mesh12-geometry
v -0.407271 -0.171855 -0.110101
v -0.448174 -0.169216 -0.110101
v -0.407271 -0.165258 -0.111420
v -0.448174 -0.175814 -0.112740
v -0.452132 -0.162619 -0.114059
v -0.407271 -0.178452 -0.112740
v -0.405952 -0.159980 -0.119337
v -0.452132 -0.175814 -0.120217
v -0.457410 -0.157341 -0.121976
v -0.408591 -0.182411 -0.118018
v -0.405952 -0.157341 -0.128573
v -0.458729 -0.175814 -0.127254
v -0.452132 -0.156022 -0.131212
v -0.407271 -0.179772 -0.127254
v -0.405952 -0.161300 -0.135170
v -0.452132 -0.170536 -0.132531
v -0.446854 -0.158661 -0.135170
v -0.407271 -0.174494 -0.136490
v -0.407271 -0.167897 -0.137809
v -0.448174 -0.165258 -0.137809
vn -0.012652003446988202 -0.19610005342668246 -0.9805022671339572
vn 0.012652003446988202 0.19610005342668246 0.9805022671339572
vn 0.023954007103897217 0.3712841101095172 -0.9282102752737929
vn -0.023954007103897217 -0.3712841101095172 0.9282102752737929
vn 0.02104400995640748 -0.5050672389589839 -0.862823408221696
vn -0.02104400995640748 0.5050672389589839 0.862823408221696
vn -0.016130000809363134 -0.8306990416824022 -0.5564880279231786
vn 0.016130000809363134 0.8306990416824022 0.5564880279231786
vn 0.06434500814073792 0.997346126181248 -0.03406500430980243
vn -0.06434500814073792 -0.997346126181248 0.03406500430980243
vn -0.01480499831704191 -0.8364849049125838 -0.5477899377299823
vn 0.01480499831704191 0.8364849049125838 0.5477899377299823
vn 0.1482759836255133 0.7730079146348081 -0.6168249318824843
vn -0.1482759836255133 -0.7730079146348081 0.6168249318824843
vn -0.03519899794165066 -0.9609269438073964 -0.27455498394471145
vn 0.03519899794165066 0.9609269438073964 0.27455498394471145
vn 0.15539596882189985 0.9770508039679661 -0.14568397077048095
vn -0.15539596882189985 -0.9770508039679661 0.14568397077048095
vn -0.019527999594676843 -0.9881379794902082 -0.15232199683840467
vn 0.019527999594676843 0.9881379794902082 0.15232199683840467
vn 0.07354602561351106 0.956095332974599 0.283677098794822
vn -0.07354602561351106 -0.956095332974599 -0.283677098794822
vn -0.05382198337697535 -0.856247735546215 0.513753841326123
vn 0.05382198337697535 0.856247735546215 -0.513753841326123
vn 0.05177401115561796 0.6730581450221716 0.7377751589665863
vn -0.05177401115561796 -0.6730581450221716 -0.7377751589665863
vn -0.05570697694614588 -0.8634466426700202 0.5013547925186237
vn 0.05570697694614588 0.8634466426700202 -0.5013547925186237
vn 0.1195240137655217 0.8620190992783143 0.4925820567304325
vn -0.1195240137655217 -0.8620190992783143 -0.4925820567304325
vn -0.023691000948042804 -0.36719801469416324 0.9298410372094496
vn 0.023691000948042804 0.36719801469416324 -0.9298410372094496
vn 0.1235570209639833 0.6538231109345036 0.7464911266575335
vn -0.1235570209639833 -0.6538231109345036 -0.7464911266575335
vn -0.023689996879080015 -0.36719595162560853 0.929841877502639
vn 0.023689996879080015 0.36719595162560853 -0.929841877502639
usemtl material_0_0
f 1//1 2//1 3//1
f 3//2 2//2 1//2
f 1//3 4//3 2//3
f 2//4 4//4 1//4
f 3//5 2//5 5//5
f 5//6 2//6 3//6
f 6//3 4//3 1//3
f 1//4 4//4 6//4
f 3//7 5//7 7//7
f 7//8 5//8 3//8
f 6//9 8//9 4//9
f 4//10 8//10 6//10
f 5//11 9//11 7//11
f 7//12 9//12 5//12
f 6//13 10//13 8//13
f 8//14 10//14 6//14
f 7//15 9//15 11//15
f 11//16 9//16 7//16
f 10//17 12//17 8//17
f 8//18 12//18 10//18
f 9//19 13//19 11//19
f 11//20 13//20 9//20
f 10//21 14//21 12//21
f 12//22 14//22 10//22
f 11//23 13//23 15//23
f 15//24 13//24 11//24
f 14//25 16//25 12//25
f 12//26 16//26 14//26
f 13//27 17//27 15//27
f 15//28 17//28 13//28
f 14//29 18//29 16//29
f 16//30 18//30 14//30
f 15//31 17//31 19//31
f 19//32 17//32 15//32
f 18//33 20//33 16//33
f 16//34 20//34 18//34
f 19//35 17//35 20//35
f 20//36 17//36 19//36
f 19//2 20//2 18//2
f 18//1 20//1 19//1
