# SSTK version 0.8.0
# 29
mtllib original-29.mtl
o mesh27/mesh27-geometry#mesh27-geometry
v -0.074774 -0.265535 0.119481
v -0.074774 -0.306438 0.102328
v -0.074774 -0.294563 0.102328
v -0.074774 -0.335465 0.119481
v -0.074774 -0.277410 0.090453
v -0.074774 -0.265535 0.029759
v -0.066857 -0.335465 0.127397
v -0.074774 -0.323590 0.090453
v -0.074774 -0.285327 0.098370
v -0.074774 -0.273452 0.079898
v -0.074774 -0.335465 0.029759
v -0.064218 -0.265535 0.036356
v -0.060260 -0.335465 0.116842
v -0.066857 -0.265535 0.127397
v -0.074774 -0.327549 0.079898
v -0.074774 -0.315674 0.098370
v -0.074774 -0.327549 0.069342
v -0.064218 -0.335465 0.112884
v -0.066857 -0.265535 0.021842
v -0.074774 -0.294563 0.046912
v -0.074774 -0.273452 0.069342
v -0.060260 -0.265535 0.032398
v -0.064218 -0.265535 0.112884
v 0.066406 -0.335465 0.116842
v 0.073003 -0.335465 0.127397
v -0.074774 -0.323590 0.058787
v -0.064218 -0.335465 0.036356
v -0.066857 -0.335465 0.021842
v -0.074774 -0.285327 0.050870
v -0.074774 -0.306438 0.046912
v -0.074774 -0.277410 0.058787
v -0.060260 -0.335465 0.032398
v -0.064218 -0.273452 0.069342
v 0.070364 -0.335465 0.036356
v 0.066406 -0.265535 0.116842
v -0.060260 -0.265535 0.116842
v 0.066406 -0.335465 0.032398
v 0.073003 -0.265535 0.127397
v -0.064218 -0.327549 0.079898
v 0.066406 -0.265535 0.032398
v 0.073003 -0.265535 0.021842
v -0.064218 -0.306438 0.046912
v -0.064218 -0.273452 0.079898
v -0.064218 -0.277410 0.058787
v 0.070364 -0.335465 0.112884
v 0.070364 -0.265535 0.112884
v 0.080919 -0.335465 0.119481
v -0.074774 -0.315674 0.050870
v -0.064218 -0.294563 0.102328
v -0.064218 -0.323590 0.090453
v -0.064218 -0.327549 0.069342
v 0.073003 -0.335465 0.021842
v -0.064218 -0.294563 0.046912
v -0.064218 -0.323590 0.058787
v -0.064218 -0.277410 0.090453
v 0.070364 -0.327549 0.069342
v 0.080919 -0.335465 0.029759
v 0.080919 -0.265535 0.119481
v -0.064218 -0.306438 0.102328
v -0.064218 -0.315674 0.098370
v 0.070364 -0.265535 0.036356
v 0.080919 -0.265535 0.029759
v -0.064218 -0.315674 0.050870
v -0.064218 -0.285327 0.050870
v 0.070364 -0.306438 0.102328
v 0.070364 -0.327549 0.079898
v 0.070364 -0.323590 0.058787
v 0.080919 -0.294563 0.102328
v -0.064218 -0.285327 0.098370
v 0.070364 -0.323590 0.090453
v 0.070364 -0.294563 0.102328
v 0.080919 -0.327549 0.079898
v 0.070364 -0.315674 0.050870
v 0.070364 -0.294563 0.046912
v 0.080919 -0.273452 0.069342
v 0.080919 -0.285327 0.098370
v 0.080919 -0.306438 0.102328
v 0.080919 -0.306438 0.046912
v 0.070364 -0.315674 0.098370
v 0.070364 -0.285327 0.098370
v 0.080919 -0.327549 0.069342
v 0.080919 -0.323590 0.090453
v 0.070364 -0.306438 0.046912
v 0.070364 -0.285327 0.050870
v 0.070364 -0.273452 0.079898
v 0.080919 -0.285327 0.050870
v 0.080919 -0.273452 0.079898
v 0.080919 -0.277410 0.090453
v 0.080919 -0.315674 0.098370
v 0.080919 -0.315674 0.050870
v 0.080919 -0.294563 0.046912
v 0.070364 -0.277410 0.090453
v 0.080919 -0.323590 0.058787
v 0.070364 -0.277410 0.058787
v 0.070364 -0.273452 0.069342
v 0.080919 -0.277410 0.058787
vn 1 0 0
vn -1 0 0
vn 0.7071067811865476 0 -0.7071067811865476
vn -0.7071067811865476 0 0.7071067811865476
vn 0 -1 0
vn 0 1 0
vn 0.7071067811865476 0 0.7071067811865476
vn -0.7071067811865476 0 -0.7071067811865476
vn 0 0 -1
vn 0 0 1
usemtl material_0_0
f 1//1 2//1 3//1
f 3//2 2//2 1//2
f 1//1 4//1 2//1
f 2//2 4//2 1//2
f 1//1 3//1 5//1
f 5//2 3//2 1//2
f 1//1 4//1 6//1
f 6//2 4//2 1//2
f 7//3 4//3 1//3
f 1//4 4//4 7//4
f 2//1 4//1 8//1
f 8//2 4//2 2//2
f 5//2 3//2 9//2
f 9//1 3//1 5//1
f 1//1 5//1 10//1
f 10//2 5//2 1//2
f 6//1 4//1 11//1
f 11//2 4//2 6//2
f 1//1 10//1 6//1
f 6//2 10//2 1//2
f 1//5 6//5 12//5
f 12//6 6//6 1//6
f 7//6 13//6 4//6
f 4//5 13//5 7//5
f 7//3 1//3 14//3
f 14//4 1//4 7//4
f 8//1 4//1 15//1
f 15//2 4//2 8//2
f 2//2 8//2 16//2
f 16//1 8//1 2//1
f 17//1 4//1 11//1
f 11//2 4//2 17//2
f 4//6 18//6 11//6
f 11//5 18//5 4//5
f 19//7 6//7 11//7
f 11//8 6//8 19//8
f 6//1 20//1 11//1
f 11//2 20//2 6//2
f 6//1 10//1 21//1
f 21//2 10//2 6//2
f 12//5 6//5 22//5
f 22//6 6//6 12//6
f 1//5 12//5 23//5
f 23//6 12//6 1//6
f 7//6 24//6 13//6
f 13//5 24//5 7//5
f 4//6 13//6 18//6
f 18//5 13//5 4//5
f 14//5 1//5 23//5
f 23//6 1//6 14//6
f 25//9 7//9 14//9
f 14//10 7//10 25//10
f 15//1 4//1 17//1
f 17//2 4//2 15//2
f 26//1 17//1 11//1
f 11//2 17//2 26//2
f 18//6 27//6 11//6
f 11//5 27//5 18//5
f 22//5 6//5 19//5
f 19//6 6//6 22//6
f 19//7 11//7 28//7
f 28//8 11//8 19//8
f 6//1 29//1 20//1
f 20//2 29//2 6//2
f 20//1 30//1 11//1
f 11//2 30//2 20//2
f 6//1 21//1 31//1
f 31//2 21//2 6//2
f 32//8 12//8 22//8
f 22//7 12//7 32//7
f 23//1 27//1 12//1
f 12//2 27//2 23//2
f 23//1 33//1 12//1
f 12//2 33//2 23//2
f 25//6 24//6 7//6
f 7//5 24//5 25//5
f 24//6 34//6 13//6
f 13//5 34//5 24//5
f 35//10 13//10 24//10
f 24//9 13//9 35//9
f 36//4 18//4 13//4
f 13//3 18//3 36//3
f 13//6 37//6 18//6
f 18//5 37//5 13//5
f 14//5 23//5 36//5
f 36//6 23//6 14//6
f 25//9 14//9 38//9
f 38//10 14//10 25//10
f 30//1 26//1 11//1
f 11//2 26//2 30//2
f 18//6 37//6 27//6
f 27//5 37//5 18//5
f 23//1 18//1 27//1
f 27//2 18//2 23//2
f 39//1 18//1 27//1
f 27//2 18//2 39//2
f 27//6 28//6 11//6
f 11//5 28//5 27//5
f 22//5 19//5 40//5
f 40//6 19//6 22//6
f 41//10 19//10 28//10
f 28//9 19//9 41//9
f 6//1 31//1 29//1
f 29//2 31//2 6//2
f 32//7 12//7 27//7
f 27//8 12//8 32//8
f 37//9 32//9 22//9
f 22//10 32//10 37//10
f 12//1 42//1 27//1
f 27//2 42//2 12//2
f 23//1 43//1 33//1
f 33//2 43//2 23//2
f 12//1 33//1 44//1
f 44//2 33//2 12//2
f 25//6 45//6 24//6
f 24//5 45//5 25//5
f 24//6 45//6 34//6
f 34//5 45//5 24//5
f 13//5 37//5 34//5
f 34//6 37//6 13//6
f 35//10 36//10 13//10
f 13//9 36//9 35//9
f 46//7 35//7 24//7
f 24//8 35//8 46//8
f 36//4 23//4 18//4
f 18//3 23//3 36//3
f 14//5 36//5 38//5
f 38//6 36//6 14//6
f 47//8 25//8 38//8
f 38//7 25//7 47//7
f 30//2 48//2 26//2
f 26//1 48//1 30//1
f 27//6 37//6 32//6
f 32//5 37//5 27//5
f 23//2 49//2 18//2
f 18//1 49//1 23//1
f 50//1 18//1 39//1
f 39//2 18//2 50//2
f 39//1 27//1 51//1
f 51//2 27//2 39//2
f 27//6 32//6 28//6
f 28//5 32//5 27//5
f 40//5 19//5 41//5
f 41//6 19//6 40//6
f 37//9 22//9 40//9
f 40//10 22//10 37//10
f 41//10 28//10 52//10
f 52//9 28//9 41//9
f 37//6 52//6 32//6
f 32//5 52//5 37//5
f 12//1 53//1 42//1
f 42//2 53//2 12//2
f 42//1 54//1 27//1
f 27//2 54//2 42//2
f 23//1 55//1 43//1
f 43//2 55//2 23//2
f 12//1 44//1 53//1
f 53//2 44//2 12//2
f 25//6 47//6 45//6
f 45//5 47//5 25//5
f 46//7 24//7 45//7
f 45//8 24//8 46//8
f 47//6 34//6 45//6
f 45//5 34//5 47//5
f 56//1 45//1 34//1
f 34//2 45//2 56//2
f 34//3 37//3 40//3
f 40//4 37//4 34//4
f 34//6 57//6 37//6
f 37//5 57//5 34//5
f 38//5 36//5 35//5
f 35//6 36//6 38//6
f 58//5 35//5 46//5
f 46//6 35//6 58//6
f 47//8 38//8 58//8
f 58//7 38//7 47//7
f 23//1 49//1 55//1
f 55//2 49//2 23//2
f 49//1 18//1 59//1
f 59//2 18//2 49//2
f 60//1 18//1 50//1
f 50//2 18//2 60//2
f 54//1 51//1 27//1
f 27//2 51//2 54//2
f 32//6 52//6 28//6
f 28//5 52//5 32//5
f 61//5 40//5 41//5
f 41//6 40//6 61//6
f 62//4 41//4 52//4
f 52//3 41//3 62//3
f 37//6 57//6 52//6
f 52//5 57//5 37//5
f 42//2 63//2 54//2
f 54//1 63//1 42//1
f 44//2 64//2 53//2
f 53//1 64//1 44//1
f 46//1 45//1 65//1
f 65//2 45//2 46//2
f 47//6 57//6 34//6
f 34//5 57//5 47//5
f 66//1 45//1 56//1
f 56//2 45//2 66//2
f 67//1 56//1 34//1
f 34//2 56//2 67//2
f 34//3 40//3 61//3
f 61//4 40//4 34//4
f 38//5 35//5 58//5
f 58//6 35//6 38//6
f 58//5 46//5 62//5
f 62//6 46//6 58//6
f 58//2 68//2 47//2
f 47//1 68//1 58//1
f 55//2 49//2 69//2
f 69//1 49//1 55//1
f 59//1 18//1 60//1
f 60//2 18//2 59//2
f 61//5 41//5 62//5
f 62//6 41//6 61//6
f 62//4 52//4 57//4
f 57//3 52//3 62//3
f 65//1 45//1 70//1
f 70//2 45//2 65//2
f 46//1 65//1 71//1
f 71//2 65//2 46//2
f 72//2 57//2 47//2
f 47//1 57//1 72//1
f 70//1 45//1 66//1
f 66//2 45//2 70//2
f 73//1 67//1 34//1
f 34//2 67//2 73//2
f 61//1 74//1 34//1
f 34//2 74//2 61//2
f 46//5 61//5 62//5
f 62//6 61//6 46//6
f 62//2 75//2 58//2
f 58//1 75//1 62//1
f 58//2 76//2 68//2
f 68//1 76//1 58//1
f 68//2 77//2 47//2
f 47//1 77//1 68//1
f 62//2 57//2 78//2
f 78//1 57//1 62//1
f 65//2 70//2 79//2
f 79//1 70//1 65//1
f 46//1 71//1 80//1
f 80//2 71//2 46//2
f 81//2 57//2 72//2
f 72//1 57//1 81//1
f 82//2 72//2 47//2
f 47//1 72//1 82//1
f 83//1 73//1 34//1
f 34//2 73//2 83//2
f 61//1 84//1 74//1
f 74//2 84//2 61//2
f 74//1 83//1 34//1
f 34//2 83//2 74//2
f 46//1 85//1 61//1
f 61//2 85//2 46//2
f 62//2 86//2 75//2
f 75//1 86//1 62//1
f 58//2 75//2 87//2
f 87//1 75//1 58//1
f 58//2 88//2 76//2
f 76//1 88//1 58//1
f 77//2 89//2 47//2
f 47//1 89//1 77//1
f 78//2 57//2 90//2
f 90//1 57//1 78//1
f 62//2 78//2 91//2
f 91//1 78//1 62//1
f 46//1 80//1 92//1
f 92//2 80//2 46//2
f 93//2 57//2 81//2
f 81//1 57//1 93//1
f 89//2 82//2 47//2
f 47//1 82//1 89//1
f 61//1 94//1 84//1
f 84//2 94//2 61//2
f 46//1 92//1 85//1
f 85//2 92//2 46//2
f 61//1 85//1 95//1
f 95//2 85//2 61//2
f 62//2 91//2 86//2
f 86//1 91//1 62//1
f 75//1 86//1 96//1
f 96//2 86//2 75//2
f 58//2 87//2 88//2
f 88//1 87//1 58//1
f 90//2 57//2 93//2
f 93//1 57//1 90//1
f 61//1 95//1 94//1
f 94//2 95//2 61//2
