# SSTK version 0.8.0
# 20
mtllib original-20.mtl
o mesh18/mesh18-geometry#mesh18-geometry
v -0.316890 -0.799906 -0.315273
v -0.324147 -0.801226 -0.326488
v -0.322168 -0.802545 -0.321870
v -0.314911 -0.794629 -0.313294
v -0.326786 -0.798587 -0.329127
v -0.314911 -0.744490 -0.313294
v -0.349216 -0.744490 -0.360794
v -0.267411 -0.744490 -0.347599
v -0.301717 -0.744490 -0.395099
v -0.267411 -0.796608 -0.348259
v -0.277307 -0.799906 -0.362113
v -0.274800 -0.802017 -0.358419
v -0.270710 -0.801556 -0.352217
vn -0.7823777271078699 0.4237878521834586 0.45638684081298225
vn 0.7823777271078699 -0.4237878521834586 -0.45638684081298225
vn -0.8400569542047165 0.11631599365909195 0.5298819711137501
vn 0.8400569542047165 -0.11631599365909195 -0.5298819711137501
vn -0.771517202190768 -0.1543020404377867 0.6172131617524572
vn 0.771517202190768 0.1543020404377867 -0.6172131617524572
vn -0.8 0 0.6
vn 0.8 0 -0.6
vn -0.8106616724891025 0.006590997337207954 0.5854777634643967
vn 0.8106616724891025 -0.006590997337207954 -0.5854777634643967
vn 0 1 0
vn 0 -1 0
vn 0.8106572029699438 0.007411001855544643 -0.5854741465892788
vn -0.8106572029699438 -0.007411001855544643 0.5854741465892788
vn 0.8124566998326466 0.010891995975882031 -0.5829197846365363
vn -0.8124566998326466 -0.010891995975882031 0.5829197846365363
vn 0.8172438037466879 -0.03604299134461908 -0.5751638618798792
vn -0.8172438037466879 0.03604299134461908 0.5751638618798792
vn 0.8326163058882999 -0.12307604521593195 -0.540002198387124
vn -0.8326163058882999 0.12307604521593195 0.540002198387124
usemtl material_0_0
f 1//1 2//1 3//1
f 3//2 2//2 1//2
f 4//3 2//3 1//3
f 1//4 2//4 4//4
f 4//5 5//5 2//5
f 2//6 5//6 4//6
f 6//7 5//7 4//7
f 4//8 5//8 6//8
f 7//9 5//9 6//9
f 6//10 5//10 7//10
f 6//11 8//11 7//11
f 7//12 8//12 6//12
f 8//11 9//11 7//11
f 7//12 9//12 8//12
f 8//13 10//13 9//13
f 9//14 10//14 8//14
f 9//15 10//15 11//15
f 11//16 10//16 9//16
f 10//17 12//17 11//17
f 11//18 12//18 10//18
f 10//19 13//19 12//19
f 12//20 13//20 10//20
