# SSTK version 0.8.0
# 3
mtllib original-3.mtl
o mesh2/mesh2-geometry#mesh2-geometry
v -0.260814 -0.756365 -0.335724
v -0.270050 -0.834212 -0.347599
v -0.260814 -0.827614 -0.335724
v -0.270050 -0.749768 -0.347599
v -0.314911 -0.834212 -0.315933
v -0.254217 -0.768240 -0.326488
v -0.280606 -0.834212 -0.362113
v -0.305675 -0.756365 -0.302739
v -0.305675 -0.827614 -0.302739
v -0.324147 -0.834212 -0.329127
v -0.254217 -0.815740 -0.326488
v -0.297758 -0.768240 -0.293502
v -0.280606 -0.749768 -0.362113
v -0.314911 -0.749768 -0.315933
v -0.324147 -0.749768 -0.329127
v -0.250259 -0.784073 -0.321211
v -0.295119 -0.784073 -0.288225
v -0.288522 -0.827614 -0.373988
v -0.333383 -0.827614 -0.342322
v -0.297758 -0.815740 -0.293502
v -0.333383 -0.756365 -0.342322
v -0.250259 -0.799906 -0.321211
v -0.295119 -0.799906 -0.288225
v -0.288522 -0.756365 -0.373988
v -0.296439 -0.815740 -0.383224
v -0.339980 -0.815740 -0.351558
v -0.339980 -0.768240 -0.351558
v -0.296439 -0.768240 -0.383224
v -0.300397 -0.799906 -0.388502
v -0.343939 -0.799906 -0.356835
v -0.300397 -0.784073 -0.388502
v -0.343939 -0.784073 -0.356835
vn -0.7893519481454989 0 0.6139409596686848
vn 0.7893519481454989 0 -0.6139409596686848
vn -0.23181098015361967 0.9156519216069219 -0.32839797188437303
vn 0.23181098015361967 -0.9156519216069219 0.32839797188437303
vn -0.8137334036391284 0 0.581238288313734
vn 0.8137334036391284 0 -0.581238288313734
vn -0.8087359113301995 0 0.5881719355128325
vn 0.8087359113301995 0 -0.5881719355128325
vn -0.23798300027677421 -0.9157570010650253 -0.3236560003764119
vn 0.23798300027677421 0.9157570010650253 0.3236560003764119
vn -0.22459712888363947 0.9253405310008014 -0.30545217528179563
vn 0.22459712888363947 -0.9253405310008014 0.30545217528179563
vn 0 1 0
vn 0 -1 0
vn -0.43660913691497094 -0.6908132166300782 -0.5763241807277992
vn 0.43660913691497094 0.6908132166300782 0.5763241807277992
vn -0.2185928898342389 -0.9253755336321321 -0.3096728439320484
vn 0.2185928898342389 0.9253755336321321 0.3096728439320484
vn -0.4143959533174697 -0.7146019194986691 -0.563577936511822
vn 0.4143959533174697 0.7146019194986691 0.563577936511822
vn -0.4282571228389354 0.690921198180065 -0.5824291670608029
vn 0.4282571228389354 -0.690921198180065 0.5824291670608029
vn 0.8192321084384845 0 -0.5734620759068862
vn -0.8192321084384845 0 0.5734620759068862
vn -0.8 0 0.6
vn 0.8 0 -0.6
vn -0.5670069941104985 -0.34398499642702784 -0.74844999222585
vn 0.5670069941104985 0.34398499642702784 0.74844999222585
vn -0.8320502943378437 0 0.5547001962252291
vn 0.8320502943378437 0 -0.5547001962252291
vn 0.22902991372570744 0.9252826514511799 0.3023198861177831
vn -0.22902991372570744 -0.9252826514511799 -0.3023198861177831
vn 0.7592569553063406 0 -0.6507909616911912
vn -0.7592569553063406 0 0.6507909616911912
vn -0.4222088380540203 0.7149397257716943 -0.5573157862312608
vn 0.4222088380540203 -0.7149397257716943 0.5573157862312608
vn -0.5468257244092004 -0.3846008061677808 -0.7436826251966939
vn 0.5468257244092004 0.3846008061677808 0.7436826251966939
vn 0.8944269909998285 0 -0.4472139954999092
vn -0.8944269909998285 0 0.4472139954999092
vn 0.24204194153755956 0.9076567807659692 0.34289191717841067
vn -0.24204194153755956 -0.9076567807659692 -0.34289191717841067
vn -0.5574077754067961 0.3846118450304959 -0.7357787035367935
vn 0.5574077754067961 -0.3846118450304959 0.7357787035367935
vn 0.2185928898342389 -0.9253755336321321 0.3096728439320484
vn -0.2185928898342389 0.9253755336321321 -0.3096728439320484
vn -0.5923901641214215 0 -0.8056512232052996
vn 0.5923901641214215 0 0.8056512232052996
vn 0.25375391998822977 -0.9074217138786361 0.33495489438455156
vn -0.25375391998822977 0.9074217138786361 -0.33495489438455156
vn 0.41688599473889876 0.6909499912802111 0.5905879925467795
vn -0.41688599473889876 -0.6909499912802111 -0.5905879925467795
vn 0.8137337414768314 0 -0.5812378153407755
vn -0.8137337414768314 0 0.5812378153407755
vn -0.5560709137331113 0.3447639465145321 -0.7562558826771183
vn 0.5560709137331113 -0.3447639465145321 0.7562558826771183
vn 0.4037448314953129 -0.7140297019965529 0.5719717612850613
vn -0.4037448314953129 0.7140297019965529 -0.5719717612850613
vn 0.41152894733026524 0.7144609085593692 0.5658529275790347
vn -0.41152894733026524 -0.7144609085593692 -0.5658529275790347
vn 0.4251951971124604 -0.690942320307806 0.5846432710295751
vn -0.4251951971124604 0.690942320307806 -0.5846432710295751
vn 0.5429370394340616 0.384580027932433 0.7465370542217348
vn -0.5429370394340616 -0.384580027932433 -0.7465370542217348
vn 0.5429359288916861 -0.38457994963156733 0.7465379022259375
vn -0.5429359288916861 0.38457994963156733 -0.7465379022259375
vn 0.5881719355128325 0 0.8087359113301995
vn -0.5881719355128325 0 -0.8087359113301995
usemtl material_0_0
f 1//1 2//1 3//1
f 3//2 2//2 1//2
f 4//1 2//1 1//1
f 1//2 2//2 4//2
f 5//3 3//3 2//3
f 2//4 3//4 5//4
f 1//5 3//5 6//5
f 6//6 3//6 1//6
f 4//7 7//7 2//7
f 2//8 7//8 4//8
f 8//9 4//9 1//9
f 1//10 4//10 8//10
f 9//11 3//11 5//11
f 5//12 3//12 9//12
f 5//13 2//13 10//13
f 10//14 2//14 5//14
f 6//5 3//5 11//5
f 11//6 3//6 6//6
f 12//15 1//15 6//15
f 6//16 1//16 12//16
f 13//7 7//7 4//7
f 4//8 7//8 13//8
f 10//13 2//13 7//13
f 7//14 2//14 10//14
f 8//17 14//17 4//17
f 4//18 14//18 8//18
f 12//19 8//19 1//19
f 1//20 8//20 12//20
f 9//21 11//21 3//21
f 3//22 11//22 9//22
f 14//23 9//23 5//23
f 5//24 9//24 14//24
f 15//23 5//23 10//23
f 10//24 5//24 15//24
f 6//25 11//25 16//25
f 16//26 11//26 6//26
f 6//27 17//27 12//27
f 12//28 17//28 6//28
f 13//29 18//29 7//29
f 7//30 18//30 13//30
f 14//14 13//14 4//14
f 4//13 13//13 14//13
f 10//31 7//31 19//31
f 19//32 7//32 10//32
f 14//23 8//23 9//23
f 9//24 8//24 14//24
f 8//33 12//33 20//33
f 20//34 12//34 8//34
f 20//35 11//35 9//35
f 9//36 11//36 20//36
f 14//23 5//23 15//23
f 15//24 5//24 14//24
f 15//23 10//23 21//23
f 21//24 10//24 15//24
f 16//25 11//25 22//25
f 22//26 11//26 16//26
f 16//37 17//37 6//37
f 6//38 17//38 16//38
f 12//39 17//39 23//39
f 23//40 17//40 12//40
f 13//29 24//29 18//29
f 18//30 24//30 13//30
f 19//41 7//41 18//41
f 18//42 7//42 19//42
f 14//14 15//14 13//14
f 13//13 15//13 14//13
f 21//23 10//23 19//23
f 19//24 10//24 21//24
f 8//33 20//33 9//33
f 9//34 20//34 8//34
f 12//39 23//39 20//39
f 20//40 23//40 12//40
f 22//43 11//43 20//43
f 20//44 11//44 22//44
f 15//45 21//45 24//45
f 24//46 21//46 15//46
f 22//47 23//47 16//47
f 16//48 23//48 22//48
f 16//47 23//47 17//47
f 17//48 23//48 16//48
f 15//49 24//49 13//49
f 13//50 24//50 15//50
f 24//34 25//34 18//34
f 18//33 25//33 24//33
f 19//51 18//51 26//51
f 26//52 18//52 19//52
f 21//53 19//53 27//53
f 27//54 19//54 21//54
f 22//55 20//55 23//55
f 23//56 20//56 22//56
f 21//57 28//57 24//57
f 24//58 28//58 21//58
f 24//34 28//34 25//34
f 25//33 28//33 24//33
f 26//59 18//59 25//59
f 25//60 18//60 26//60
f 27//53 19//53 26//53
f 26//54 19//54 27//54
f 21//61 27//61 28//61
f 28//62 27//62 21//62
f 28//25 29//25 25//25
f 25//26 29//26 28//26
f 25//63 30//63 26//63
f 26//64 30//64 25//64
f 27//26 26//26 30//26
f 30//25 26//25 27//25
f 28//65 27//65 31//65
f 31//66 27//66 28//66
f 28//25 31//25 29//25
f 29//26 31//26 28//26
f 25//63 29//63 30//63
f 30//64 29//64 25//64
f 27//26 30//26 32//26
f 32//25 30//25 27//25
f 31//65 27//65 32//65
f 32//66 27//66 31//66
f 31//67 32//67 29//67
f 29//68 32//68 31//68
f 29//67 32//67 30//67
f 30//68 32//68 29//68
