# SSTK version 0.8.0
# 32
mtllib original-32.mtl
o mesh30/mesh30-geometry#mesh30-geometry
v -0.391438 0.076198 -0.228850
v -0.392758 0.065643 -0.228850
v -0.438938 0.078837 -0.228850
v -0.427063 0.068282 -0.226211
v -0.425743 0.086754 -0.226211
v -0.392758 0.061685 -0.223572
v -0.391438 0.085434 -0.227531
v -0.424424 0.064323 -0.223572
v -0.420466 0.090712 -0.222253
v -0.427063 0.063004 -0.216975
v -0.391438 0.089393 -0.222253
v -0.392758 0.060365 -0.216975
v -0.421785 0.090712 -0.214336
v -0.429702 0.066962 -0.211697
v -0.391438 0.088073 -0.214336
v -0.392758 0.064323 -0.210378
v -0.427063 0.085434 -0.210378
v -0.392758 0.074879 -0.209059
v -0.391438 0.084115 -0.209059
v -0.440257 0.077518 -0.209059
vn 0 0 -1
vn -0.09829500941730125 -0.34403103296041065 -0.9337990894640267
vn 0.01620899639018397 0.29176793502197523 -0.9563517870161773
vn -0.10707297463810933 -0.7954008115970114 -0.5965508586976994
vn -0.03261799186884122 0.14134596476464623 -0.9894227533522744
vn -0.048002015336550345 -0.5760181840366871 -0.8160262607187999
vn 0 0.7071067811865476 -0.7071067811865476
vn -0.08088801026189851 -0.9706501231420209 -0.22648502873313822
vn 0.03633998126311049 0.7994715877925557 -0.5996036908444168
vn -0.0752159902901428 -0.9778028737725017 -0.19556097475444872
vn 0.045405997660229 0.9989399485246258 0.00756799961002099
vn -0.06255299717779648 -0.8131949633110837 0.5786199738944032
vn 0.08546001911616923 0.9827852198348278 0.1637980366392498
vn -0.07937294792334657 -0.8547874391732903 0.512872663503843
vn 0.04932500975488484 0.5672341121804835 0.8220781625803592
vn -0.0442549884443602 -0.12391296764446967 0.9913057411552353
vn 0.0074069982801359385 0.799977814249573 0.5999838606870637
vn -0.014215000070264746 -0.2558650012647407 0.9666080047779434
vn -0.028407996082125693 0.21022197100734397 0.977240865224324
vn 0 0 1
vn 0.09829500941730125 0.34403103296041065 0.9337990894640267
vn -0.01620899639018397 -0.29176793502197523 0.9563517870161773
vn 0.10707297463810933 0.7954008115970114 0.5965508586976994
vn 0.03261799186884122 -0.14134596476464623 0.9894227533522744
vn 0.048002015336550345 0.5760181840366871 0.8160262607187999
vn 0 -0.7071067811865476 0.7071067811865476
vn 0.08088801026189851 0.9706501231420209 0.22648502873313822
vn -0.03633998126311049 -0.7994715877925557 0.5996036908444168
vn 0.0752159902901428 0.9778028737725017 0.19556097475444872
vn -0.045405997660229 -0.9989399485246258 -0.00756799961002099
vn 0.06255299717779648 0.8131949633110837 -0.5786199738944032
vn -0.08546001911616923 -0.9827852198348278 -0.1637980366392498
vn 0.07937294792334657 0.8547874391732903 -0.512872663503843
vn -0.04932500975488484 -0.5672341121804835 -0.8220781625803592
vn 0.0442549884443602 0.12391296764446967 -0.9913057411552353
vn -0.0074069982801359385 -0.799977814249573 -0.5999838606870637
vn 0.014215000070264746 0.2558650012647407 -0.9666080047779434
vn 0.028407996082125693 -0.21022197100734397 -0.977240865224324
usemtl material_0_0
f 1//1 2//1 3//1
f 2//2 4//2 3//2
f 1//3 3//3 5//3
f 6//4 4//4 2//4
f 1//5 5//5 7//5
f 6//6 8//6 4//6
f 7//7 5//7 9//7
f 10//8 8//8 6//8
f 11//9 7//9 9//9
f 10//10 6//10 12//10
f 13//11 11//11 9//11
f 14//12 10//12 12//12
f 15//13 11//13 13//13
f 16//14 14//14 12//14
f 15//15 13//15 17//15
f 18//16 14//16 16//16
f 19//17 15//17 17//17
f 18//18 20//18 14//18
f 19//19 17//19 20//19
f 19//20 20//20 18//20
usemtl material_1_0
f 3//20 2//20 1//20
f 3//21 4//21 2//21
f 5//22 3//22 1//22
f 2//23 4//23 6//23
f 7//24 5//24 1//24
f 4//25 8//25 6//25
f 9//26 5//26 7//26
f 6//27 8//27 10//27
f 9//28 7//28 11//28
f 12//29 6//29 10//29
f 9//30 11//30 13//30
f 12//31 10//31 14//31
f 13//32 11//32 15//32
f 12//33 14//33 16//33
f 17//34 13//34 15//34
f 16//35 14//35 18//35
f 17//36 15//36 19//36
f 14//37 20//37 18//37
f 20//38 17//38 19//38
f 18//1 20//1 19//1
