# SSTK version 0.8.0
# 21
mtllib original-21.mtl
o mesh19/mesh19-geometry#mesh19-geometry
v 0.323168 -0.800170 -0.315405
v 0.328094 -0.802545 -0.321650
v 0.330293 -0.801226 -0.326488
v 0.332932 -0.798587 -0.329127
v 0.321057 -0.794629 -0.313294
v 0.355362 -0.744490 -0.360794
v 0.321057 -0.744490 -0.313294
v 0.307862 -0.744490 -0.395099
v 0.273557 -0.744490 -0.347599
v 0.283453 -0.799906 -0.362113
v 0.273557 -0.796608 -0.348259
v 0.280814 -0.802105 -0.358375
v 0.277075 -0.801666 -0.352437
vn 0.7869188505668786 0.4027159235256629 0.46752391121885395
vn -0.7869188505668786 -0.4027159235256629 -0.46752391121885395
vn 0.800514562487691 -0.261036857333216 0.539477705154475
vn -0.800514562487691 0.261036857333216 -0.539477705154475
vn 0.8071870167915081 0.08496500176748446 0.58414901215176
vn -0.8071870167915081 -0.08496500176748446 -0.58414901215176
vn 0.8019263290460777 0.017062007000875616 0.5971792450343394
vn -0.8019263290460777 -0.017062007000875616 -0.5971792450343394
vn 0.8106789383389517 0 0.5854909554669742
vn -0.8106789383389517 0 -0.5854909554669742
vn 0 1 0
vn 0 -1 0
vn -0.8106492702518668 0.008578002859709336 -0.5854691951819965
vn 0.8106492702518668 -0.008578002859709336 0.5854691951819965
vn -0.8128802583984176 0.007372002343412477 -0.5823841851283141
vn 0.8128802583984176 -0.007372002343412477 0.5823841851283141
vn -0.8146382160502298 -0.008294002199652614 -0.5799101537979923
vn 0.8146382160502298 0.008294002199652614 0.5799101537979923
vn -0.8409162469346717 -0.15721304616553916 -0.517826152059413
vn 0.8409162469346717 0.15721304616553916 0.517826152059413
usemtl material_0_0
f 1//1 2//1 3//1
f 3//2 2//2 1//2
f 4//3 1//3 3//3
f 3//4 1//4 4//4
f 5//5 1//5 4//5
f 4//6 1//6 5//6
f 6//7 5//7 4//7
f 4//8 5//8 6//8
f 7//9 5//9 6//9
f 6//10 5//10 7//10
f 7//11 6//11 8//11
f 8//12 6//12 7//12
f 7//11 8//11 9//11
f 9//12 8//12 7//12
f 8//13 10//13 9//13
f 9//14 10//14 8//14
f 9//15 10//15 11//15
f 11//16 10//16 9//16
f 11//17 10//17 12//17
f 12//18 10//18 11//18
f 11//19 12//19 13//19
f 13//20 12//20 11//20
