# SSTK version 0.8.0
# 15
mtllib original-15.mtl
o mesh13/mesh13-geometry#mesh13-geometry
v -0.035191 -0.439701 0.082537
v -0.035191 -0.481923 0.082537
v -0.035191 -0.439701 0.066703
v -0.028594 -0.481923 0.095731
v -0.035191 -0.481923 0.066703
v -0.021996 -0.439701 0.069342
v -0.028594 -0.439701 0.095731
v -0.035191 -0.719421 0.082537
v -0.035191 -0.719421 0.066703
v -0.028594 -0.439701 0.053509
v -0.018038 -0.439701 0.060106
v -0.021996 -0.439701 0.079898
v -0.018038 -0.481923 0.106286
v -0.028594 -0.719421 0.095731
v -0.028594 -0.719421 0.053509
v -0.028594 -0.481923 0.053509
v -0.018038 -0.439701 0.106286
v -0.018038 -0.439701 0.089134
v -0.018038 -0.439701 0.042953
v -0.011441 -0.439701 0.053509
v -0.018038 -0.719421 0.106286
v -0.004844 -0.481923 0.112884
v -0.018038 -0.719421 0.042953
v -0.018038 -0.481923 0.042953
v -0.004844 -0.439701 0.112884
v -0.011441 -0.439701 0.095731
v -0.004844 -0.439701 0.036356
v -0.002205 -0.439701 0.049551
v -0.004844 -0.719421 0.112884
v 0.010989 -0.481923 0.112884
v -0.004844 -0.719421 0.036356
v -0.004844 -0.481923 0.036356
v 0.010989 -0.439701 0.112884
v -0.002205 -0.439701 0.099689
v 0.008351 -0.439701 0.049551
v 0.010989 -0.439701 0.036356
v 0.010989 -0.719421 0.112884
v 0.024184 -0.481923 0.106286
v 0.010989 -0.719421 0.036356
v 0.010989 -0.481923 0.036356
v 0.024184 -0.439701 0.106286
v 0.008351 -0.439701 0.099689
v 0.017587 -0.439701 0.053509
v 0.024184 -0.439701 0.042953
v 0.024184 -0.719421 0.106286
v 0.034739 -0.481923 0.095731
v 0.024184 -0.719421 0.042953
v 0.024184 -0.481923 0.042953
v 0.034739 -0.439701 0.095731
v 0.017587 -0.439701 0.095731
v 0.024184 -0.439701 0.060106
v 0.034739 -0.439701 0.053509
v 0.034739 -0.719421 0.095731
v 0.041336 -0.481923 0.082537
v 0.034739 -0.719421 0.053509
v 0.034739 -0.481923 0.053509
v 0.041336 -0.439701 0.082537
v 0.024184 -0.439701 0.089134
v 0.028142 -0.439701 0.069342
v 0.041336 -0.439701 0.066703
v 0.041336 -0.719421 0.082537
v 0.041336 -0.481923 0.066703
v 0.041336 -0.719421 0.066703
v 0.028142 -0.439701 0.079898
vn 1 -9.999999999995e-7 0
vn -1 9.999999999995e-7 0
vn 0.8944269909993812 -9.999999899370001e-7 -0.44721399549968555
vn -0.8944269909993812 9.999999899370001e-7 0.44721399549968555
vn 0 -1 0
vn 0 1 0
vn 0.8944269909998285 0 -0.4472139954999092
vn -0.8944269909998285 0 0.4472139954999092
vn 1 0 0
vn -1 0 0
vn 0.8944269909993812 -9.999999899370001e-7 0.44721399549968555
vn -0.8944269909993812 9.999999899370001e-7 -0.44721399549968555
vn 0.7071067811861941 -9.999996905506437e-7 -0.7071067811861941
vn -0.7071067811861941 9.999996905506437e-7 0.7071067811861941
vn 0.8944269909998285 0 0.4472139954999092
vn -0.8944269909998285 0 -0.4472139954999092
vn 0.7071067811865476 0 -0.7071067811865476
vn -0.7071067811865476 0 0.7071067811865476
vn 0.7071067811861941 -9.999996905506437e-7 0.7071067811861941
vn -0.7071067811861941 9.999996905506437e-7 -0.7071067811861941
vn 0.4472139954999092 0 -0.8944269909998285
vn -0.4472139954999092 0 0.8944269909998285
vn 0.7071067811865476 0 0.7071067811865476
vn -0.7071067811865476 0 -0.7071067811865476
vn 0.4472139954999092 0 0.8944269909998285
vn -0.4472139954999092 0 -0.8944269909998285
vn 0 0 -1
vn 0 0 1
usemtl material_0_0
f 1//1 2//1 3//1
f 3//2 2//2 1//2
f 1//3 4//3 2//3
f 2//4 4//4 1//4
f 3//1 2//1 5//1
f 5//2 2//2 3//2
f 1//5 3//5 6//5
f 6//6 3//6 1//6
f 7//3 4//3 1//3
f 1//4 4//4 7//4
f 4//7 8//7 2//7
f 2//8 8//8 4//8
f 2//9 9//9 5//9
f 5//10 9//10 2//10
f 3//11 5//11 10//11
f 10//12 5//12 3//12
f 6//5 3//5 11//5
f 11//6 3//6 6//6
f 1//5 6//5 12//5
f 12//6 6//6 1//6
f 13//13 4//13 7//13
f 7//14 4//14 13//14
f 7//5 1//5 12//5
f 12//6 1//6 7//6
f 4//7 14//7 8//7
f 8//8 14//8 4//8
f 2//9 8//9 9//9
f 9//10 8//10 2//10
f 5//15 9//15 15//15
f 15//16 9//16 5//16
f 10//11 5//11 16//11
f 16//12 5//12 10//12
f 3//5 10//5 11//5
f 11//6 10//6 3//6
f 13//17 14//17 4//17
f 4//18 14//18 13//18
f 17//13 13//13 7//13
f 7//14 13//14 17//14
f 7//5 12//5 18//5
f 18//6 12//6 7//6
f 5//15 15//15 16//15
f 16//16 15//16 5//16
f 10//19 16//19 19//19
f 19//20 16//20 10//20
f 11//5 10//5 20//5
f 20//6 10//6 11//6
f 13//17 21//17 14//17
f 14//18 21//18 13//18
f 22//21 13//21 17//21
f 17//22 13//22 22//22
f 17//5 7//5 18//5
f 18//6 7//6 17//6
f 23//23 16//23 15//23
f 15//24 16//24 23//24
f 19//19 16//19 24//19
f 24//20 16//20 19//20
f 10//5 19//5 20//5
f 20//6 19//6 10//6
f 22//21 21//21 13//21
f 13//22 21//22 22//22
f 25//21 22//21 17//21
f 17//22 22//22 25//22
f 17//5 18//5 26//5
f 26//6 18//6 17//6
f 24//23 16//23 23//23
f 23//24 16//24 24//24
f 27//25 19//25 24//25
f 24//26 19//26 27//26
f 20//5 19//5 28//5
f 28//6 19//6 20//6
f 29//21 21//21 22//21
f 22//22 21//22 29//22
f 30//27 22//27 25//27
f 25//28 22//28 30//28
f 25//5 17//5 26//5
f 26//6 17//6 25//6
f 31//25 24//25 23//25
f 23//26 24//26 31//26
f 28//5 19//5 27//5
f 27//6 19//6 28//6
f 27//25 24//25 32//25
f 32//26 24//26 27//26
f 30//27 29//27 22//27
f 22//28 29//28 30//28
f 33//27 30//27 25//27
f 25//28 30//28 33//28
f 25//5 26//5 34//5
f 34//6 26//6 25//6
f 32//25 24//25 31//25
f 31//26 24//26 32//26
f 28//5 27//5 35//5
f 35//6 27//6 28//6
f 36//28 27//28 32//28
f 32//27 27//27 36//27
f 37//27 29//27 30//27
f 30//28 29//28 37//28
f 38//26 30//26 33//26
f 33//25 30//25 38//25
f 25//5 34//5 33//5
f 33//6 34//6 25//6
f 39//28 32//28 31//28
f 31//27 32//27 39//27
f 35//5 27//5 36//5
f 36//6 27//6 35//6
f 36//28 32//28 40//28
f 40//27 32//27 36//27
f 38//26 37//26 30//26
f 30//25 37//25 38//25
f 41//26 38//26 33//26
f 33//25 38//25 41//25
f 33//5 34//5 42//5
f 42//6 34//6 33//6
f 40//28 32//28 39//28
f 39//27 32//27 40//27
f 43//5 35//5 36//5
f 36//6 35//6 43//6
f 44//22 36//22 40//22
f 40//21 36//21 44//21
f 45//26 37//26 38//26
f 38//25 37//25 45//25
f 46//20 38//20 41//20
f 41//19 38//19 46//19
f 33//5 42//5 41//5
f 41//6 42//6 33//6
f 47//22 40//22 39//22
f 39//21 40//21 47//21
f 43//5 36//5 44//5
f 44//6 36//6 43//6
f 44//22 40//22 48//22
f 48//21 40//21 44//21
f 46//24 45//24 38//24
f 38//23 45//23 46//23
f 49//20 46//20 41//20
f 41//19 46//19 49//19
f 41//5 42//5 50//5
f 50//6 42//6 41//6
f 48//22 40//22 47//22
f 47//21 40//21 48//21
f 51//5 43//5 44//5
f 44//6 43//6 51//6
f 44//14 48//14 52//14
f 52//13 48//13 44//13
f 53//24 45//24 46//24
f 46//23 45//23 53//23
f 49//12 54//12 46//12
f 46//11 54//11 49//11
f 41//5 50//5 49//5
f 49//6 50//6 41//6
f 55//18 48//18 47//18
f 47//17 48//17 55//17
f 51//5 44//5 52//5
f 52//6 44//6 51//6
f 52//14 48//14 56//14
f 56//13 48//13 52//13
f 54//16 53//16 46//16
f 46//15 53//15 54//15
f 57//12 54//12 49//12
f 49//11 54//11 57//11
f 50//5 58//5 49//5
f 49//6 58//6 50//6
f 48//18 55//18 56//18
f 56//17 55//17 48//17
f 59//5 51//5 52//5
f 52//6 51//6 59//6
f 52//4 56//4 60//4
f 60//3 56//3 52//3
f 54//16 61//16 53//16
f 53//15 61//15 54//15
f 57//2 62//2 54//2
f 54//1 62//1 57//1
f 49//5 58//5 57//5
f 57//6 58//6 49//6
f 56//8 55//8 63//8
f 63//7 55//7 56//7
f 59//5 52//5 60//5
f 60//6 52//6 59//6
f 60//4 56//4 62//4
f 62//3 56//3 60//3
f 62//10 61//10 54//10
f 54//9 61//9 62//9
f 60//2 62//2 57//2
f 57//1 62//1 60//1
f 58//5 64//5 57//5
f 57//6 64//6 58//6
f 56//8 63//8 62//8
f 62//7 63//7 56//7
f 64//5 59//5 60//5
f 60//6 59//6 64//6
f 62//10 63//10 61//10
f 61//9 63//9 62//9
f 57//5 64//5 60//5
f 60//6 64//6 57//6
