# SSTK version 0.8.0
# 50
mtllib original-50.mtl
o mesh36/mesh36-geometry#mesh36-geometry
v 0.020388 -0.463004 0.183962
v 0.013934 -0.279254 0.187523
v 0.013925 -0.463003 0.187514
v 0.020397 -0.279255 0.183972
v 0.025765 -0.463004 0.178915
v 0.025774 -0.279255 0.178925
v 0.029718 -0.463003 0.172689
v 0.029727 -0.279254 0.172699
v 0.031999 -0.463003 0.165676
v 0.032008 -0.279254 0.165685
v 0.032463 -0.463003 0.158317
v 0.032473 -0.279254 0.158326
v 0.031081 -0.463002 0.151073
v 0.031090 -0.279253 0.151083
v 0.027944 -0.463002 0.144397
v 0.027953 -0.279253 0.144406
v 0.023245 -0.463001 0.138714
v 0.023254 -0.279252 0.138724
v 0.017289 -0.279252 0.134388
v 0.017280 -0.463001 0.134378
v 0.010437 -0.279251 0.131673
v 0.010428 -0.463000 0.131664
v 0.003114 -0.279251 0.130758
v 0.003105 -0.463000 0.130749
v -0.004205 -0.279251 0.131670
v -0.004214 -0.463000 0.131660
v -0.011058 -0.279250 0.134381
v -0.011068 -0.462999 0.134372
v -0.017026 -0.279250 0.138715
v -0.017035 -0.462999 0.138705
v -0.021725 -0.279250 0.144393
v -0.021735 -0.462999 0.144384
v -0.024858 -0.279251 0.151068
v -0.024868 -0.463000 0.151059
v -0.026262 -0.463000 0.158307
v -0.026252 -0.279251 0.158316
v -0.025791 -0.279251 0.165672
v -0.025801 -0.463000 0.165663
v -0.023514 -0.279252 0.172687
v -0.023523 -0.463001 0.172677
v -0.019565 -0.279252 0.178912
v -0.019574 -0.463001 0.178903
v -0.014194 -0.463002 0.183948
v -0.014185 -0.279253 0.183957
v -0.007733 -0.463002 0.187510
v -0.007724 -0.279253 0.187519
v -0.000594 -0.463003 0.189345
v -0.000584 -0.279254 0.189354
v 0.006781 -0.463003 0.189346
v 0.006791 -0.279254 0.189356
vt 7.647758 9.973992
vt 7.459259 14.672919
vt 7.459167 9.973997
vt 7.647851 14.672914
vt 2.270099 9.974139
vt 2.081516 14.673061
vt 2.081507 9.974139
vt 2.270108 14.673061
vt -3.244274 9.974091
vt -3.432941 14.67301
vt -3.432866 9.974088
vt -3.24435 14.673013
vt -8.548872 9.973861
vt -8.737619 14.672777
vt -8.737464 9.973855
vt -8.549027 14.672783
vt -13.310415 9.973506
vt -13.499206 14.672418
vt -13.49898 9.973496
vt -13.31064 14.672428
vt -17.234671 9.973115
vt -17.423528 14.672024
vt -17.423247 9.973102
vt -17.234952 14.672037
vt -20.056613 9.972782
vt -20.245575 14.671694
vt -20.245256 9.972772
vt -20.056931 14.671704
vt -21.624696 9.972593
vt -21.813595 14.671502
vt -21.813258 9.97258
vt -21.625033 14.671515
vt -22.012937 9.97258
vt -21.824678 14.671516
vt -22.01327 14.671502
vt -21.824345 9.972594
vt -20.835356 9.972771
vt -20.647194 14.671706
vt -20.835666 14.671693
vt -20.646885 9.972784
vt -18.336522 9.973108
vt -18.148077 14.67205
vt -18.336788 14.67203
vt -18.147812 9.973128
vt -14.750101 9.973507
vt -14.561685 14.672427
vt -14.750307 14.672429
vt -14.561479 9.973505
vt -10.178685 9.973857
vt -9.990342 14.672784
vt -10.178818 14.672779
vt -9.99021 9.973862
vt -4.997593 9.974089
vt -4.809052 14.673014
vt -4.997644 14.673011
vt -4.809001 9.974092
vt 0.491708 9.97414
vt 0.680242 14.67306
vt 0.491742 14.673062
vt 0.680208 9.974138
vt 5.968626 9.973995
vt 6.157305 14.672905
vt 5.968743 14.672917
vt 6.157188 9.973983
vt 11.182105 9.973689
vt 10.993554 14.67261
vt 10.993363 9.973688
vt 11.182296 14.672611
vt 15.392229 9.973309
vt 15.580976 14.672221
vt 15.392484 14.672231
vt 15.580721 9.973299
vt 18.793941 9.972936
vt 18.982835 14.671846
vt 18.794243 14.671858
vt 18.982532 9.972924
vt 21.008935 9.972667
vt 21.197786 14.671576
vt 21.009265 14.671589
vt 21.197455 9.972654
vt 22.086515 9.972561
vt 21.898242 14.671492
vt 21.897904 9.97257
vt 22.086853 14.671483
vt 21.59898 9.972654
vt 21.41064 14.671594
vt 21.410316 9.972672
vt 21.599304 14.671576
vt 19.749938 9.972926
vt 19.56171 14.671859
vt 19.56142 9.972937
vt 19.750228 14.671848
vt 16.671165 9.973301
vt 16.482811 14.672233
vt 16.482573 9.973311
vt 16.671403 14.672223
vt 12.550806 9.973689
vt 12.362384 14.672618
vt 12.362214 9.973696
vt 12.550976 14.672611
vt 15.17687 16.849963
vt 15.223689 16.478694
vt 15.22373 16.667286
vt 15.176765 16.296109
vt 15.086052 17.015248
vt 15.08568 16.130889
vt 14.956982 17.152754
vt 14.956665 15.993306
vt 14.797771 17.253842
vt 14.797469 15.892327
vt 14.618423 17.31216
vt 14.618095 15.834089
vt 14.430232 17.324041
vt 14.429972 15.822295
vt 14.245001 17.288682
vt 14.244627 15.857945
vt 14.074262 17.208466
vt 14.073933 15.938063
vt 13.928946 17.088304
vt 13.928718 16.05825
vt 13.818061 16.935755
vt 13.8179 16.210848
vt 13.748641 16.760533
vt 13.748556 16.386104
vt 13.725242 16.573279
vn 0.5876060928752637 -0.00007100001122204967 0.8091471278913778
vn 0.36791808108105983 -0.00006600001454495281 0.9298582049203141
vn -0.5876060928752637 0.00007100001122204967 -0.8091471278913778
vn -0.36791808108105983 0.00006600001454495281 -0.9298582049203141
vn 0.7703718430009306 -0.00007199998532665649 0.6375948700604103
vn -0.7703718430009306 0.00007199998532665649 -0.6375948700604103
vn 0.9047326533458695 -0.00006799997394537297 0.42597983678308793
vn -0.9047326533458695 0.00006799997394537297 -0.42597983678308793
vn 0.9822457088633972 -0.00005899998251246677 0.18759894439586872
vn -0.9822457088633972 0.00005899998251246677 -0.18759894439586872
vn 0.998029716979771 -0.00004699998667179267 -0.06274298220741037
vn -0.998029716979771 0.00004699998667179267 0.06274298220741037
vn 0.9511311942428858 -0.000032000006535138 -0.30878706306142684
vn -0.9511311942428858 0.000032000006535138 0.30878706306142684
vn 0.8445506037361052 -0.000014999992961989953 -0.5354757487543021
vn -0.8445506037361052 0.000014999992961989953 0.5354757487543021
vn 0.6847087828860688 0.0000029999990487319525 -0.7288167688998918
vn -0.6847087828860688 -0.0000029999990487319525 0.7288167688998918
vn 0.4819479240681466 0.000019999996848960744 -0.8761998619529702
vn -0.4819479240681466 -0.000019999996848960744 0.8761998619529702
vn 0.24814403761442047 0.000037000005608572266 -0.9687231468419718
vn -0.24814403761442047 -0.000037000005608572266 0.9687231468419718
vn 0.00019599999598033413 0.00005099999895406653 -0.9999999794915007
vn -0.00019599999598033413 -0.00005099999895406653 0.9999999794915007
vn -0.247738953933689 0.00006199998847128921 -0.9688268198495761
vn 0.247738953933689 -0.00006199998847128921 0.9688268198495761
vn -0.481559283684009 0.00006900004064755642 -0.8764135162905342
vn 0.481559283684009 -0.00006900004064755642 0.8764135162905342
vn -0.6843854079591836 0.00007200004291891438 -0.7291204346255395
vn 0.6843854079591836 -0.00007200004291891438 0.7291204346255395
vn -0.8445308471779344 0.00006999998733315343 -0.535506903097357
vn 0.8445308471779344 -0.00006999998733315343 0.535506903097357
vn -0.9509719944800831 0.000063999999628512 -0.3092769982048017
vn 0.9509719944800831 -0.000063999999628512 0.3092769982048017
vn -0.9979714504215422 0.0000540000243722145 -0.06366302873348688
vn 0.9979714504215422 -0.0000540000243722145 0.06366302873348688
vn -0.9823286911868514 0.00003999998742526593 0.1871639411615618
vn 0.9823286911868514 -0.00003999998742526593 -0.1871639411615618
vn -0.9049212252991705 0.000024000005975306235 0.4255791059568688
vn 0.9049212252991705 -0.000024000005975306235 -0.4255791059568688
vn -0.7703573967229913 0.0000060000030899153875 0.6376123283611883
vn 0.7703573967229913 -0.0000060000030899153875 -0.6376123283611883
vn -0.587976831968887 -0.000011999996570659472 0.8088777688401576
vn 0.587976831968887 0.000011999996570659472 -0.8088777688401576
vn -0.36877817195872026 -0.00002900001352250646 0.9295174334275736
vn 0.36877817195872026 0.00002900001352250646 -0.9295174334275736
vn -0.1255529891199551 -0.000043999996187092496 0.9920869140287281
vn 0.1255529891199551 0.000043999996187092496 -0.9920869140287281
vn 0.1251130616693693 -0.000057000028095833775 0.9921424890360826
vn -0.1251130616693693 0.000057000028095833775 -0.9921424890360826
vn 0.000050999999867348995 0.9999999973989999 0.000050999999867348995
vn -0.000050999999867348995 -0.9999999973989999 -0.000050999999867348995
usemtl material_0_2
f 1/1/1 2/2/2 3/3/2
f 3/3/4 2/2/4 1/1/3
f 2/2/2 1/1/1 4/4/1
f 4/4/3 1/1/3 2/2/4
f 5/5/5 4/6/1 1/7/1
f 1/7/3 4/6/3 5/5/6
f 4/6/1 5/5/5 6/8/5
f 6/8/6 5/5/6 4/6/3
f 7/9/7 6/10/5 5/11/5
f 5/11/6 6/10/6 7/9/8
f 6/10/5 7/9/7 8/12/7
f 8/12/8 7/9/8 6/10/6
f 9/13/9 8/14/7 7/15/7
f 7/15/8 8/14/8 9/13/10
f 8/14/7 9/13/9 10/16/9
f 10/16/10 9/13/10 8/14/8
f 11/17/11 10/18/9 9/19/9
f 9/19/10 10/18/10 11/17/12
f 10/18/9 11/17/11 12/20/11
f 12/20/12 11/17/12 10/18/10
f 13/21/13 12/22/11 11/23/11
f 11/23/12 12/22/12 13/21/14
f 12/22/11 13/21/13 14/24/13
f 14/24/14 13/21/14 12/22/12
f 15/25/15 14/26/13 13/27/13
f 13/27/14 14/26/14 15/25/16
f 14/26/13 15/25/15 16/28/15
f 16/28/16 15/25/16 14/26/14
f 17/29/17 16/30/15 15/31/15
f 15/31/16 16/30/16 17/29/18
f 16/30/15 17/29/17 18/32/17
f 18/32/18 17/29/18 16/30/16
f 17/33/17 19/34/19 18/35/17
f 18/35/18 19/34/20 17/33/18
f 19/34/19 17/33/17 20/36/19
f 20/36/20 17/33/18 19/34/20
f 20/37/19 21/38/21 19/39/19
f 19/39/20 21/38/22 20/37/20
f 21/38/21 20/37/19 22/40/21
f 22/40/22 20/37/20 21/38/22
f 22/41/21 23/42/23 21/43/21
f 21/43/22 23/42/24 22/41/22
f 23/42/23 22/41/21 24/44/23
f 24/44/24 22/41/22 23/42/24
f 24/45/23 25/46/25 23/47/23
f 23/47/24 25/46/26 24/45/24
f 25/46/25 24/45/23 26/48/25
f 26/48/26 24/45/24 25/46/26
f 26/49/25 27/50/27 25/51/25
f 25/51/26 27/50/28 26/49/26
f 27/50/27 26/49/25 28/52/27
f 28/52/28 26/49/26 27/50/28
f 28/53/27 29/54/29 27/55/27
f 27/55/28 29/54/30 28/53/28
f 29/54/29 28/53/27 30/56/29
f 30/56/30 28/53/28 29/54/30
f 30/57/29 31/58/31 29/59/29
f 29/59/30 31/58/32 30/57/30
f 31/58/31 30/57/29 32/60/31
f 32/60/32 30/57/30 31/58/32
f 32/61/31 33/62/33 31/63/31
f 31/63/32 33/62/34 32/61/32
f 33/62/33 32/61/31 34/64/33
f 34/64/34 32/61/32 33/62/34
f 35/65/35 33/66/33 34/67/33
f 34/67/34 33/66/34 35/65/36
f 33/66/33 35/65/35 36/68/35
f 36/68/36 35/65/36 33/66/34
f 35/69/35 37/70/37 36/71/35
f 36/71/36 37/70/38 35/69/36
f 37/70/37 35/69/35 38/72/37
f 38/72/38 35/69/36 37/70/38
f 38/73/37 39/74/39 37/75/37
f 37/75/38 39/74/40 38/73/38
f 39/74/39 38/73/37 40/76/39
f 40/76/40 38/73/38 39/74/40
f 40/77/39 41/78/41 39/79/39
f 39/79/40 41/78/42 40/77/40
f 41/78/41 40/77/39 42/80/41
f 42/80/42 40/77/40 41/78/42
f 43/81/43 41/82/41 42/83/41
f 42/83/42 41/82/42 43/81/44
f 41/82/41 43/81/43 44/84/43
f 44/84/44 43/81/44 41/82/42
f 45/85/45 44/86/43 43/87/43
f 43/87/44 44/86/44 45/85/46
f 44/86/43 45/85/45 46/88/45
f 46/88/46 45/85/46 44/86/44
f 47/89/47 46/90/45 45/91/45
f 45/91/46 46/90/46 47/89/48
f 46/90/45 47/89/47 48/92/47
f 48/92/48 47/89/48 46/90/46
f 49/93/49 48/94/47 47/95/47
f 47/95/48 48/94/48 49/93/50
f 48/94/47 49/93/49 50/96/49
f 50/96/50 49/93/50 48/94/48
f 3/97/2 50/98/49 49/99/49
f 49/99/50 50/98/50 3/97/4
f 50/98/49 3/97/2 2/100/2
f 2/100/4 3/97/4 50/98/50
f 2/101/51 48/102/51 50/103/51
f 50/103/52 48/102/52 2/101/52
f 2/101/51 46/104/51 48/102/51
f 48/102/52 46/104/52 2/101/52
f 4/105/51 46/104/51 2/101/51
f 2/101/52 46/104/52 4/105/52
f 4/105/51 44/106/51 46/104/51
f 46/104/52 44/106/52 4/105/52
f 6/107/51 44/106/51 4/105/51
f 4/105/52 44/106/52 6/107/52
f 6/107/51 41/108/51 44/106/51
f 44/106/52 41/108/52 6/107/52
f 8/109/51 41/108/51 6/107/51
f 6/107/52 41/108/52 8/109/52
f 8/109/51 39/110/51 41/108/51
f 41/108/52 39/110/52 8/109/52
f 10/111/51 39/110/51 8/109/51
f 8/109/52 39/110/52 10/111/52
f 10/111/51 37/112/51 39/110/51
f 39/110/52 37/112/52 10/111/52
f 12/113/51 37/112/51 10/111/51
f 10/111/52 37/112/52 12/113/52
f 12/113/51 36/114/51 37/112/51
f 37/112/52 36/114/52 12/113/52
f 14/115/51 36/114/51 12/113/51
f 12/113/52 36/114/52 14/115/52
f 14/115/51 33/116/51 36/114/51
f 36/114/52 33/116/52 14/115/52
f 16/117/51 33/116/51 14/115/51
f 14/115/52 33/116/52 16/117/52
f 16/117/51 31/118/51 33/116/51
f 33/116/52 31/118/52 16/117/52
f 18/119/51 31/118/51 16/117/51
f 16/117/52 31/118/52 18/119/52
f 18/119/51 29/120/51 31/118/51
f 31/118/52 29/120/52 18/119/52
f 19/121/51 29/120/51 18/119/51
f 18/119/52 29/120/52 19/121/52
f 19/121/51 27/122/51 29/120/51
f 29/120/52 27/122/52 19/121/52
f 21/123/51 27/122/51 19/121/51
f 19/121/52 27/122/52 21/123/52
f 21/123/51 25/124/51 27/122/51
f 27/122/52 25/124/52 21/123/52
f 25/124/51 21/123/51 23/125/51
f 23/125/52 21/123/52 25/124/52
