# SSTK version 0.8.0
# 51
mtllib original-51.mtl
o mesh37/mesh37-geometry#mesh37-geometry
v 0.022575 -0.305426 0.314929
v 0.022575 -0.323917 0.204391
v 0.042561 -0.305426 0.303344
v 0.001129 -0.323917 0.204391
v 0.001129 -0.305426 0.318880
v -0.020318 -0.305426 0.314929
v -0.020318 -0.323917 0.204391
v -0.040303 -0.305426 0.303344
v -0.035328 -0.323917 0.204391
v 0.037585 -0.323917 0.204391
vt 5.523997 26.723657
vt 6.941627 24.2328
vt 6.114725 26.723657
vt 17.071689 20.4932
vt 16.523243 17.627185
vt 17.071689 17.627185
vt 12.891028 23.212345
vt 13.42152 20.294453
vt 13.448704 23.212345
vt 19.608463 17.303718
vt 19.050786 17.303718
vt 19.07797 14.385826
vt 15.974798 20.4932
vt 15.974798 17.627185
vt 23.066288 10.45197
vt 22.475561 10.45197
vt 21.648658 7.961113
vt 15.463728 20.402754
vt 15.590959 17.82847
vt 15.974798 17.82847
vt 17.582759 20.402754
vt 17.071689 17.82847
vt 17.455527 17.82847
vn 0.09520302835670225 -0.9818162924389355 0.16423504891823779
vn -0.09520302835670225 0.9818162924389355 -0.16423504891823779
vn 0 -0.9862962367742483 0.16498403960673325
vn 0 0.9862962367742483 -0.16498403960673325
vn 0.029362009972382634 -0.9867823351463688 0.1593690541273976
vn -0.029362009972382634 0.9867823351463688 -0.1593690541273976
vn -0.029362009972382634 -0.9867823351463688 0.1593690541273976
vn 0.029362009972382634 0.9867823351463688 -0.1593690541273976
vn -0.09520302835670225 -0.9818162924389355 0.16423504891823779
vn 0.09520302835670225 0.9818162924389355 -0.16423504891823779
vn 0 -0.9829859086034489 0.18368098292161852
vn 0 0.9829859086034489 -0.18368098292161852
usemtl material_0_2
f 1/1/1 2/2/1 3/3/1
f 3/3/2 2/2/2 1/1/2
f 1/4/3 4/5/3 2/6/3
f 2/6/4 4/5/4 1/4/4
f 5/7/5 4/8/5 1/9/5
f 1/9/6 4/8/6 5/7/6
f 5/10/7 6/11/7 4/12/7
f 4/12/8 6/11/8 5/10/8
f 6/13/3 7/14/3 4/5/3
f 4/5/4 7/14/4 6/13/4
f 6/15/9 8/16/9 7/17/9
f 7/17/10 8/16/10 6/15/10
f 8/18/11 9/19/11 7/20/11
f 7/20/12 9/19/12 8/18/12
f 3/21/11 2/22/11 10/23/11
f 10/23/12 2/22/12 3/21/12
