mtllib new-4.mtl
v 0.093920 -0.595299 0.143802
v 0.027484 -0.595299 0.212627
v 0.354520 -0.617620 0.544313
v 0.427843 -0.617620 0.468074
v 0.354520 -0.662262 0.544313
v 0.363632 -0.617620 0.542056
v 0.427843 -0.662262 0.468074
v 0.027484 -0.662262 0.212627
v 0.372467 -0.617620 0.538880
v 0.093920 -0.662262 0.143802
v 0.425942 -0.617620 0.477267
v 0.363632 -0.662262 0.542056
v 0.380932 -0.617620 0.534820
v 0.425942 -0.662262 0.477267
v 0.423113 -0.617620 0.486219
v 0.372467 -0.662262 0.538880
v 0.388938 -0.617620 0.529917
v 0.423113 -0.662262 0.486219
v 0.419386 -0.617620 0.494836
v 0.380932 -0.662262 0.534820
v 0.396403 -0.617620 0.524223
v 0.419386 -0.662262 0.494836
v 0.414799 -0.617620 0.503027
v 0.388938 -0.662262 0.529917
v 0.403247 -0.617620 0.517798
v 0.414799 -0.662262 0.503027
v 0.409401 -0.617620 0.510708
v 0.396403 -0.662262 0.524223
v 0.409401 -0.662262 0.510708
v 0.403247 -0.662262 0.517798
vn -0.164073 0.750325 0.640384
vn 0.516954 0.706228 -0.483736
vn -0.479425 0.706731 0.520272
vn 0.639532 0.747369 -0.180105
vn -0.235188 0.498726 0.834242
vn 0.259102 0.447681 0.855832
vn 0.830335 0.495441 -0.255113
vn 0.112327 0.646801 0.754342
vn 0.345050 0.447681 0.824938
vn 0.745438 0.655950 0.118542
vn 0.865283 0.447681 0.225537
vn 0.427399 0.447681 0.785437
vn 0.837763 0.447681 0.312625
vn 0.505290 0.447681 0.737743
vn 0.801503 0.447681 0.396452
vn 0.577908 0.447681 0.682352
vn 0.756882 0.447681 0.476142
vn 0.644498 0.447681 0.619842
vn 0.704364 0.447681 0.550866
vn 0.479425 -0.706731 -0.520272
vn -0.516954 -0.706228 0.483736
vn 0.164073 -0.750325 -0.640384
vn -0.639532 -0.747369 0.180105
vn 0.235188 -0.498726 -0.834242
vn -0.259102 -0.447681 -0.855832
vn -0.830335 -0.495441 0.255113
vn -0.112327 -0.646801 -0.754342
vn -0.345050 -0.447681 -0.824938
vn -0.745438 -0.655950 -0.118542
vn -0.865283 -0.447681 -0.225537
vn -0.427399 -0.447681 -0.785437
vn -0.837763 -0.447681 -0.312625
vn -0.505290 -0.447681 -0.737743
vn -0.801503 -0.447681 -0.396452
vn -0.577908 -0.447681 -0.682352
vn -0.756882 -0.447681 -0.476142
vn -0.644498 -0.447681 -0.619842
vn -0.704364 -0.447681 -0.550866
vt 4.437550 -3.693616
vt 5.131686 -0.688086
vt 4.514828 -0.687462
vt 5.119650 -3.693052
vt 0.640856 1.439371
vt 3.644557 1.007560
vt 3.644557 1.295434
vt 5.845328 0.601819
vt 6.259388 1.078889
vt 5.786566 0.587259
vt -3.738844 1.007560
vt -0.737303 1.439371
vt -3.738844 1.295434
vt 0.640856 1.007560
vt 5.757958 1.007560
vt 5.818497 1.295434
vt 5.757958 1.295434
vt 4.106090 3.169956
vt 5.902298 0.622297
vt -0.737303 1.007560
vt 2.263383 1.295434
vt 2.323922 1.007560
vt 2.323922 1.295434
vt 3.677675 2.726137
vt 5.818497 1.007560
vt 5.704331 1.007560
vt 5.764870 1.295434
vt 5.704331 1.295434
vt 5.956883 0.648479
vt 2.263383 1.007560
vt 6.228889 0.961879
vt 6.247130 1.019604
vt 5.764870 1.007560
vt 5.590878 1.007560
vt 5.651417 1.295434
vt 5.590878 1.295434
vt 6.008511 0.680093
vt 2.794027 1.295434
vt 2.854566 1.007560
vt 2.854566 1.295434
vt 6.204854 0.906315
vt 5.651417 1.007560
vt 5.418782 1.007560
vt 5.479321 1.295434
vt 5.418782 1.295434
vt 6.056646 0.716809
vt 2.794027 1.007560
vt 6.175277 0.853493
vt 3.295206 1.295434
vt 3.355746 1.007560
vt 3.355746 1.295434
vt 5.479321 1.007560
vt 5.189839 1.007560
vt 5.250378 1.295434
vt 5.189839 1.295434
vt 6.100785 0.758243
vt 3.295206 1.007560
vt 6.140466 0.803963
vt 3.761693 1.295434
vt 3.822232 1.007560
vt 3.822232 1.295434
vt 5.250378 1.007560
vt 4.906437 1.007560
vt 4.966976 1.295434
vt 4.906437 1.295434
vt 3.761693 1.007560
vt 4.188619 1.295434
vt 4.249158 1.007560
vt 4.249158 1.295434
vt 4.966976 1.007560
vt 4.571532 1.295434
vt 4.632071 1.007560
vt 4.632071 1.295434
vt 4.188619 1.007560
vt 4.571532 1.007560
usemtl material-1
f 3/1/1 1/2/2 2/3/3
f 1/2/2 3/1/1 4/4/4
f 2/5/3 5/6/5 3/7/1
f 6/8/6 4/9/4 3/10/1
f 7/11/7 1/12/2 4/13/4
f 5/6/5 2/5/3 8/14/8
f 5/15/5 6/16/6 3/17/1
f 4/9/4 6/8/6 9/19/9
f 1/12/2 7/11/7 10/20/10
f 11/21/11 7/22/7 4/23/4
f 10/18/10 8/24/8 5/10/5
f 6/16/6 5/15/5 12/25/6
f 12/26/6 9/27/9 6/28/6
f 4/9/4 9/19/9 13/29/12
f 10/18/10 5/10/5 7/9/7
f 7/22/7 11/21/11 14/30/11
f 4/9/4 15/31/13 11/32/11
f 7/9/7 5/10/5 12/8/6
f 9/27/9 12/26/6 16/33/9
f 16/34/9 13/35/12 9/36/9
f 4/9/4 13/29/12 17/37/14
f 15/38/13 14/39/11 11/40/11
f 7/9/7 18/31/13 14/32/11
f 4/9/4 19/41/15 15/31/13
f 7/9/7 12/8/6 16/19/9
f 13/35/12 16/34/9 20/42/12
f 20/43/12 17/44/14 13/45/12
f 4/9/4 17/37/14 21/46/16
f 14/39/11 15/38/13 18/47/13
f 7/9/7 22/41/15 18/31/13
f 4/9/4 23/48/17 19/41/15
f 19/49/15 18/50/13 15/51/13
f 7/9/7 16/19/9 20/29/12
f 17/44/14 20/43/12 24/52/14
f 24/53/14 21/54/16 17/55/14
f 4/9/4 21/46/16 25/56/18
f 7/9/7 26/48/17 22/41/15
f 18/50/13 19/49/15 22/57/15
f 4/9/4 27/58/19 23/48/17
f 23/59/17 22/60/15 19/61/15
f 7/9/7 20/29/12 24/37/14
f 21/54/16 24/53/14 28/62/16
f 28/63/16 25/64/18 21/65/16
f 4/9/4 25/56/18 27/58/19
f 7/9/7 29/58/19 26/48/17
f 22/60/15 23/59/17 26/66/17
f 27/67/19 26/68/17 23/69/17
f 7/9/7 24/37/14 28/46/16
f 25/64/18 28/63/16 30/70/18
f 25/71/18 29/72/19 27/73/19
f 7/9/7 30/56/18 29/58/19
f 26/68/17 27/67/19 29/74/19
f 7/9/7 28/46/16 30/56/18
f 29/72/19 25/71/18 30/75/18
usemtl material-2
f 2//20 1//21 3//22
f 4//23 3//22 1//21
f 3//22 5//24 2//20
f 3//22 4//23 6//25
f 4//23 1//21 7//26
f 8//27 2//20 5//24
f 3//22 6//25 5//24
f 9//28 6//25 4//23
f 10//29 7//26 1//21
f 4//23 7//26 11//30
f 5//24 8//27 10//29
f 12//25 5//24 6//25
f 6//25 9//28 12//25
f 13//31 9//28 4//23
f 7//26 5//24 10//29
f 14//30 11//30 7//26
f 11//30 15//32 4//23
f 12//25 5//24 7//26
f 16//28 12//25 9//28
f 9//28 13//31 16//28
f 17//33 13//31 4//23
f 11//30 14//30 15//32
f 14//30 18//32 7//26
f 15//32 19//34 4//23
f 16//28 12//25 7//26
f 20//31 16//28 13//31
f 13//31 17//33 20//31
f 21//35 17//33 4//23
f 18//32 15//32 14//30
f 18//32 22//34 7//26
f 19//34 23//36 4//23
f 15//32 18//32 19//34
f 20//31 16//28 7//26
f 24//33 20//31 17//33
f 17//33 21//35 24//33
f 25//37 21//35 4//23
f 22//34 26//36 7//26
f 22//34 19//34 18//32
f 23//36 27//38 4//23
f 19//34 22//34 23//36
f 24//33 20//31 7//26
f 28//35 24//33 21//35
f 21//35 25//37 28//35
f 27//38 25//37 4//23
f 26//36 29//38 7//26
f 26//36 23//36 22//34
f 23//36 26//36 27//38
f 28//35 24//33 7//26
f 30//37 28//35 25//37
f 27//38 29//38 25//37
f 29//38 30//37 7//26
f 29//38 27//38 26//36
f 30//37 28//35 7//26
f 30//37 25//37 29//38