mtllib new-3.mtl
v 0.093920 -0.595299 0.143802
v 0.049191 -0.595299 0.060279
v 0.050500 -0.595369 0.059605
v 0.093920 -0.662262 0.143802
v 0.465811 -0.617620 -0.154552
v 0.465811 -0.662262 -0.154552
v 0.509663 -0.617620 -0.059766
v 0.049191 -0.662262 0.060279
v 0.509953 -0.617344 -0.059867
v 0.509663 -0.662262 -0.059766
v 0.474296 -0.662262 -0.150242
v 0.511871 -0.662262 -0.069023
v 0.474296 -0.617620 -0.150242
v 0.511871 -0.617620 -0.069023
v 0.511628 -0.662262 -0.097433
v 0.482197 -0.662262 -0.144937
v 0.512942 -0.662262 -0.078480
v 0.511628 -0.617620 -0.097433
v 0.509262 -0.662262 -0.106651
v 0.512861 -0.662262 -0.087996
v 0.482197 -0.617620 -0.144937
v 0.489397 -0.662262 -0.138714
v 0.512942 -0.617620 -0.078480
v 0.509262 -0.617620 -0.106651
v 0.512861 -0.617620 -0.087996
v 0.505797 -0.662262 -0.115515
v 0.489397 -0.617620 -0.138714
v 0.495791 -0.662262 -0.131665
v 0.505797 -0.617620 -0.115515
v 0.501285 -0.662262 -0.123894
v 0.495791 -0.617620 -0.131665
v 0.501285 -0.617620 -0.123894
vn 0.041936 0.998868 -0.022458
vn -0.041936 -0.998868 0.022458
vn 0.745438 0.655950 0.118542
vn -0.398777 0.917003 -0.009027
vn -0.294312 0.706045 -0.644113
vn -0.673518 0.739168 0.002056
vn -0.458309 0.000000 -0.888793
vn 0.641529 0.303838 0.704360
vn 0.436110 -0.063657 0.897639
vn 0.341180 0.646525 -0.682350
vn 0.683355 0.483803 0.546773
vn 0.430686 -0.127055 0.893514
vn 0.103846 0.992725 0.060938
vn 0.880674 0.447873 0.154345
vn 0.877907 0.447873 -0.169377
vn 0.542539 0.447873 -0.710676
vn 0.892882 0.447873 0.046591
vn 0.850944 0.447873 -0.274415
vn 0.891956 0.447873 -0.061848
vn 0.624587 0.447873 -0.639767
vn 0.811463 0.447873 -0.375416
vn 0.697446 0.447873 -0.559446
vn 0.760045 0.447873 -0.470894
vn -0.745438 -0.655950 -0.118542
vn 0.294312 -0.706045 0.644113
vn 0.398777 -0.917003 0.009027
vn 0.458309 0.000000 0.888793
vn 0.673518 -0.739168 -0.002056
vn -0.436110 0.063657 -0.897639
vn -0.641529 -0.303838 -0.704360
vn -0.341180 -0.646525 0.682350
vn -0.683355 -0.483803 -0.546773
vn -0.430686 0.127055 -0.893514
vn -0.103846 -0.992725 -0.060938
vn -0.880674 -0.447873 -0.154345
vn -0.877907 -0.447873 0.169377
vn -0.542539 -0.447873 0.710676
vn -0.892882 -0.447873 -0.046591
vn -0.850944 -0.447873 0.274415
vn -0.891956 -0.447873 0.061848
vn -0.624587 -0.447873 0.639767
vn -0.811463 -0.447873 0.375416
vn -0.697446 -0.447873 0.559446
vn -0.760045 -0.447873 0.470894
vt 4.106090 3.169956
vt 3.817658 3.708550
vt 0.856008 -5.041970
vt 1.419900 -8.067745
vt 1.466824 -5.051473
vt -8.115485 1.007560
vt -5.092769 1.439371
vt -5.102262 1.438919
vt 5.081764 1.007560
vt 8.066809 1.295434
vt 5.081764 1.439371
vt 0.747267 -8.030384
vt -8.115485 1.295434
vt -5.092769 1.007560
vt 8.066809 1.007560
vt 5.075235 1.291420
vt 8.060224 1.146307
vt 8.062190 1.148099
vt 6.504226 5.093888
vt 3.553482 1.007560
vt 3.492113 1.295434
vt 3.492113 1.007560
vt 6.787004 4.482663
vt 5.996556 1.007560
vt 5.935187 1.295434
vt 5.935187 1.007560
vt 3.553482 1.295434
vt 6.558942 5.066095
vt 5.996556 1.295434
vt 6.799678 4.725555
vt 6.801244 4.542357
vt -2.620911 1.295434
vt -2.682281 1.007560
vt -2.620911 1.007560
vt 6.609890 5.031883
vt 5.340506 1.007560
vt 5.279137 1.295434
vt 5.279137 1.007560
vt 6.784420 4.784998
vt 6.807629 4.664703
vt -2.682281 1.295434
vt 6.656321 4.991754
vt 5.340506 1.295434
vt 6.808153 4.603336
vt 6.762077 4.842155
vt 2.947877 1.007560
vt 2.886507 1.295434
vt 2.886507 1.007560
vt 3.804871 1.007560
vt 3.743502 1.295434
vt 3.743502 1.007560
vt -1.710703 1.295434
vt -1.772073 1.007560
vt -1.710703 1.007560
vt 6.697553 4.946300
vt 4.606344 1.007560
vt 4.544975 1.295434
vt 4.544975 1.007560
vt 2.947877 1.295434
vt 3.804871 1.295434
vt 6.732979 4.896188
vt 2.047968 1.007560
vt 1.986599 1.295434
vt 1.986599 1.007560
vt 4.606344 1.295434
vt -1.772073 1.295434
vt -0.774878 1.007560
vt -0.836247 1.295434
vt -0.836247 1.007560
vt 2.047968 1.295434
vt 1.118384 1.007560
vt 1.057014 1.295434
vt 1.057014 1.007560
vt -0.774878 1.295434
vt 0.172798 1.007560
vt 0.111429 1.295434
vt 0.111429 1.007560
vt 0.172798 1.295434
vt 1.118384 1.295434
usemtl material-1
f 1/3/1 5/4/4 3/5/5
f 6/6/6 2/7/7 3/8/5
f 4/9/3 7/10/8 1/11/9
f 5/4/4 1/3/1 9/12/1
f 6/6/6 3/8/5 5/13/4
f 2/7/7 6/6/6 8/14/10
f 7/10/8 4/9/3 10/15/11
f 1/16/9 7/17/8 9/18/12
f 4/1/3 6/19/6 8/2/10
f 11/20/13 5/21/4 6/22/6
f 6/19/6 4/1/3 10/23/11
f 12/24/14 7/25/8 10/26/11
f 5/21/4 11/20/13 13/27/13
f 6/19/6 10/23/11 11/28/13
f 7/25/8 12/24/14 14/29/14
f 15/30/15 10/23/11 12/31/14
f 13/32/13 16/33/16 11/34/13
f 7/23/8 13/28/13 5/19/4
f 11/28/13 10/23/11 16/35/16
f 17/36/17 14/37/14 12/38/14
f 18/30/15 7/23/8 14/31/14
f 19/39/18 10/23/11 15/30/15
f 15/30/15 12/31/14 20/40/19
f 16/33/16 13/32/13 21/41/16
f 13/28/13 7/23/8 21/35/16
f 16/35/16 10/23/11 22/42/20
f 14/37/14 17/36/17 23/43/17
f 20/40/19 12/31/14 17/44/17
f 24/39/18 7/23/8 18/30/15
f 18/30/15 14/31/14 25/40/19
f 26/45/21 10/23/11 19/39/18
f 19/46/18 18/47/15 15/48/15
f 15/49/15 25/50/19 20/51/19
f 21/52/16 22/53/20 16/54/16
f 21/35/16 7/23/8 27/42/20
f 22/42/20 10/23/11 28/55/22
f 20/56/19 23/57/17 17/58/17
f 25/40/19 14/31/14 23/44/17
f 29/45/21 7/23/8 24/39/18
f 18/47/15 19/46/18 24/59/18
f 25/50/19 15/49/15 18/60/15
f 30/61/23 10/23/11 26/45/21
f 26/62/21 24/63/18 19/64/18
f 23/57/17 20/56/19 25/65/19
f 22/53/20 21/52/16 27/66/20
f 27/42/20 7/23/8 31/55/22
f 28/55/22 10/23/11 30/61/23
f 22/67/20 31/68/22 28/69/22
f 32/61/23 7/23/8 29/45/21
f 24/63/18 26/62/21 29/70/21
f 30/71/23 29/72/21 26/73/21
f 31/68/22 22/67/20 27/74/20
f 31/55/22 7/23/8 32/61/23
f 28/75/22 32/76/23 30/77/23
f 32/76/23 28/75/22 31/78/22
f 29/72/21 30/71/23 32/79/23
usemtl material-2
f 3//25 5//26 1//2
f 3//25 2//27 6//28
f 1//29 7//30 4//24
f 9//2 1//2 5//26
f 5//26 3//25 6//28
f 8//31 6//28 2//27
f 10//32 4//24 7//30
f 9//33 7//30 1//29
f 8//31 6//28 4//24
f 6//28 5//26 11//34
f 10//32 4//24 6//28
f 10//32 7//30 12//35
f 13//34 11//34 5//26
f 11//34 10//32 6//28
f 14//35 12//35 7//30
f 12//35 10//32 15//36
f 11//34 16//37 13//34
f 5//26 13//34 7//30
f 16//37 10//32 11//34
f 12//35 14//35 17//38
f 14//35 7//30 18//36
f 15//36 10//32 19//39
f 20//40 12//35 15//36
f 21//37 13//34 16//37
f 21//37 7//30 13//34
f 22//41 10//32 16//37
f 23//38 17//38 14//35
f 17//38 12//35 20//40
f 18//36 7//30 24//39
f 25//40 14//35 18//36
f 19//39 10//32 26//42
f 15//36 18//36 19//39
f 20//40 25//40 15//36
f 16//37 22//41 21//37
f 27//41 7//30 21//37
f 28//43 10//32 22//41
f 17//38 23//38 20//40
f 23//38 14//35 25//40
f 24//39 7//30 29//42
f 24//39 19//39 18//36
f 18//36 15//36 25//40
f 26//42 10//32 30//44
f 19//39 24//39 26//42
f 25//40 20//40 23//38
f 27//41 21//37 22//41
f 31//43 7//30 27//41
f 30//44 10//32 28//43
f 28//43 31//43 22//41
f 29//42 7//30 32//44
f 29//42 26//42 24//39
f 26//42 29//42 30//44
f 27//41 22//41 31//43
f 32//44 7//30 31//43
f 30//44 32//44 28//43
f 31//43 28//43 32//44
f 32//44 30//44 29//42