mtllib new-0.mtl
v 0.027484 -0.595299 0.212627
v 0.027484 -0.662262 0.212627
v -0.192724 -0.617620 0.632837
v -0.058090 -0.595757 0.169893
v -0.192724 -0.662262 0.632837
v -0.201567 -0.662262 0.634745
v -0.058090 -0.662262 0.169893
v -0.201567 -0.617620 0.634745
v -0.210591 -0.617620 0.635383
v -0.210591 -0.662262 0.635383
v -0.219614 -0.617620 0.634737
v -0.219614 -0.662262 0.634737
v -0.228455 -0.617620 0.632822
v -0.228455 -0.662262 0.632822
v -0.236937 -0.617620 0.629675
v -0.236937 -0.662262 0.629675
v -0.273627 -0.662262 0.581191
v -0.244888 -0.617620 0.625361
v -0.244888 -0.662262 0.625361
v -0.273627 -0.617620 0.581191
v -0.271635 -0.662262 0.590015
v -0.252148 -0.617620 0.619965
v -0.252148 -0.662262 0.619965
v -0.271635 -0.617620 0.590015
v -0.268415 -0.662262 0.598469
v -0.258573 -0.617620 0.613596
v -0.258573 -0.662262 0.613596
v -0.268415 -0.617620 0.598469
v -0.264032 -0.662262 0.606382
v -0.264032 -0.617620 0.606382
vn 0.112327 0.646801 0.754342
vn 0.394967 0.729017 0.559049
vn 0.609651 0.707689 0.357074
vn 0.530009 0.483310 0.696780
vn -0.093997 0.995572 0.000848
vn 0.126080 0.448116 0.885040
vn -0.667151 0.658807 0.347682
vn 0.102137 0.690182 0.716392
vn -0.000256 0.691181 0.722682
vn -0.000383 0.448116 0.893975
vn -0.102420 0.691802 0.714787
vn -0.126838 0.448116 0.884932
vn -0.202439 0.692106 0.692826
vn -0.250742 0.448116 0.858091
vn -0.298419 0.692121 0.657202
vn -0.369603 0.448116 0.813994
vn -0.875088 0.470173 -0.114713
vn -0.388542 0.691848 0.608590
vn -0.481031 0.448116 0.753526
vn -0.883727 0.456232 -0.104304
vn -0.855882 0.448116 0.258181
vn -0.471106 0.691263 0.547919
vn -0.582785 0.448116 0.677904
vn -0.698702 0.683740 0.210513
vn -0.810755 0.448116 0.376655
vn -0.544580 0.690308 0.476348
vn -0.672819 0.448116 0.588648
vn -0.659254 0.686799 0.306090
vn -0.749322 0.448116 0.487554
vn -0.607646 0.688880 0.395235
vn -0.112327 -0.646801 -0.754342
vn -0.609651 -0.707689 -0.357074
vn -0.394967 -0.729017 -0.559049
vn -0.530009 -0.483310 -0.696780
vn 0.093997 -0.995572 -0.000848
vn -0.126080 -0.448116 -0.885040
vn 0.667151 -0.658807 -0.347682
vn -0.102137 -0.690182 -0.716392
vn 0.000256 -0.691181 -0.722682
vn 0.000383 -0.448116 -0.893975
vn 0.102420 -0.691802 -0.714787
vn 0.126838 -0.448116 -0.884932
vn 0.202439 -0.692106 -0.692826
vn 0.250742 -0.448116 -0.858091
vn 0.298419 -0.692121 -0.657202
vn 0.369603 -0.448116 -0.813994
vn 0.875088 -0.470173 0.114713
vn 0.388542 -0.691848 -0.608590
vn 0.481031 -0.448116 -0.753526
vn 0.883727 -0.456232 0.104304
vn 0.855882 -0.448116 -0.258181
vn 0.471106 -0.691263 -0.547919
vn 0.582785 -0.448116 -0.677904
vn 0.698702 -0.683740 -0.210513
vn 0.810755 -0.448116 -0.376655
vn 0.544580 -0.690308 -0.476348
vn 0.672819 -0.448116 -0.588648
vn 0.659254 -0.686799 -0.306090
vn 0.749322 -0.448116 -0.487554
vn 0.607646 -0.688880 -0.395235
vt 1.062475 1.295434
vt 4.121729 1.007560
vt 4.121729 1.439371
vt 3.677675 2.726137
vt 1.062475 1.007560
vt 1.647503 4.334289
vt 1.033883 4.271654
vt 1.898297 1.281937
vt 2.210359 1.295434
vt 2.152024 1.007560
vt 2.210359 1.007560
vt 3.125856 3.001708
vt 2.257666 0.016413
vt 3.688551 2.345969
vt 2.152024 -0.392747
vt 2.210359 -0.392747
vt 2.152024 1.295434
vt 2.200643 0.004111
vt 3.329641 2.839874
vt 2.137125 -0.088456
vt 2.195460 -0.088456
vt 2.195460 1.295434
vt 2.137125 1.007560
vt 2.195460 1.007560
vt 2.142453 0.000000
vt 2.903769 3.279661
vt 2.078660 0.212208
vt 2.136995 0.212208
vt 2.137125 1.295434
vt 2.084267 0.004161
vt 2.419498 3.656076
vt 1.977804 0.502807
vt 2.036139 0.502807
vt 2.078660 1.007560
vt 2.136995 1.295434
vt 2.078660 1.295434
vt 2.136995 1.007560
vt 2.027254 0.016512
vt 1.886569 3.961324
vt 1.836586 0.777281
vt 1.894921 0.777281
vt 1.977804 1.007560
vt 2.036139 1.295434
vt 1.977804 1.295434
vt 2.036139 1.007560
vt 1.972562 0.036802
vt -1.115308 1.007560
vt -4.109677 1.436418
vt -4.109677 1.007560
vt 1.315699 4.189173
vt 1.657846 1.030021
vt 1.716181 1.030021
vt 1.836586 1.007560
vt 1.894921 1.295434
vt 1.836586 1.295434
vt 1.894921 1.007560
vt 1.921290 0.064626
vt -1.115308 1.295434
vt 1.748808 0.292551
vt 1.735963 0.349454
vt 0.718368 4.335065
vt 1.445178 1.255965
vt 1.503513 1.255965
vt 1.657846 1.007560
vt 1.716181 1.295434
vt 1.657846 1.295434
vt 1.716181 1.007560
vt 1.874469 0.099422
vt 0.099697 1.007560
vt 0.041362 1.295434
vt 0.041362 1.007560
vt -2.239759 3.804445
vt 0.041362 1.859551
vt 0.099697 1.859551
vt 1.769573 0.238037
vt 0.106591 4.396207
vt 1.202859 1.450702
vt 1.261194 1.450702
vt 1.445178 1.007560
vt 1.503513 1.295434
vt 1.445178 1.295434
vt 1.503513 1.007560
vt 1.833042 0.140492
vt 0.099697 1.295434
vt -1.692422 4.071583
vt 0.349116 1.815970
vt 0.407450 1.815970
vt 0.407450 1.007560
vt 0.349116 1.295434
vt 0.349116 1.007560
vt 1.797840 0.187008
vt -0.507330 4.371664
vt 0.935763 1.610592
vt 0.994098 1.610592
vt 1.202859 1.007560
vt 1.261194 1.295434
vt 1.202859 1.295434
vt 1.261194 1.007560
vt 0.407450 1.295434
vt -1.111048 4.262437
vt 0.649261 1.732898
vt 0.707596 1.732898
vt 0.707596 1.007560
vt 0.649261 1.295434
vt 0.649261 1.007560
vt 0.935763 1.295434
vt 0.994098 1.007560
vt 0.994098 1.295434
vt 0.935763 1.007560
vt 0.707596 1.295434
usemtl material-1
f 3/1/2 2/2/1 1/3/3
f 2/2/1 3/1/2 5/5/4
f 1/6/3 4/7/5 3/8/2
f 3/9/2 6/10/6 5/11/4
f 7/12/7 5/13/4 2/4/1
f 4/14/5 8/15/8 3/16/2
f 6/10/6 3/9/2 8/17/8
f 7/12/7 6/18/6 5/13/4
f 4/19/5 9/20/9 8/21/8
f 8/22/8 10/23/10 6/24/6
f 7/12/7 10/25/10 6/18/6
f 4/26/5 11/27/11 9/28/9
f 10/23/10 8/22/8 9/29/9
f 7/12/7 12/30/12 10/25/10
f 4/31/5 13/32/13 11/33/11
f 12/34/12 9/35/9 11/36/11
f 9/35/9 12/34/12 10/37/10
f 7/12/7 14/38/14 12/30/12
f 4/39/5 15/40/15 13/41/13
f 14/42/14 11/43/11 13/44/13
f 11/43/11 14/42/14 12/45/12
f 7/12/7 16/46/16 14/38/14
f 17/47/17 4/48/5 7/49/7
f 4/50/5 18/51/18 15/52/15
f 16/53/16 13/54/13 15/55/15
f 13/54/13 16/53/16 14/56/14
f 7/12/7 19/57/19 16/46/16
f 4/48/5 17/47/17 20/58/20
f 21/59/21 7/12/7 17/60/17
f 4/61/5 22/62/22 18/63/18
f 19/64/19 15/65/15 18/66/18
f 15/65/15 19/64/19 16/67/16
f 7/12/7 23/68/23 19/57/19
f 21/69/21 20/70/20 17/71/17
f 4/72/5 20/73/20 24/74/24
f 7/12/7 21/59/21 25/75/25
f 4/76/5 26/77/26 22/78/22
f 23/79/23 18/80/18 22/81/22
f 18/80/18 23/79/23 19/82/19
f 7/12/7 27/83/27 23/68/23
f 20/70/20 21/69/21 24/84/24
f 4/85/5 24/86/24 28/87/28
f 25/88/25 24/89/24 21/90/21
f 7/12/7 25/75/25 29/91/29
f 4/92/5 30/93/30 26/94/26
f 27/95/27 22/96/22 26/97/26
f 22/96/22 27/95/27 23/98/23
f 7/12/7 29/91/29 27/83/27
f 24/89/24 25/88/25 28/99/28
f 4/100/5 28/101/28 30/102/30
f 29/103/29 28/104/28 25/105/25
f 30/106/30 27/107/27 26/108/26
f 27/107/27 30/106/30 29/109/29
f 28/104/28 29/103/29 30/110/30
usemtl material-2
f 1//32 2//31 3//33
f 5//34 3//33 2//31
f 3//33 4//35 1//32
f 5//34 6//36 3//33
f 2//31 5//34 7//37
f 3//33 8//38 4//35
f 8//38 3//33 6//36
f 5//34 6//36 7//37
f 8//38 9//39 4//35
f 6//36 10//40 8//38
f 6//36 10//40 7//37
f 9//39 11//41 4//35
f 9//39 8//38 10//40
f 10//40 12//42 7//37
f 11//41 13//43 4//35
f 11//41 9//39 12//42
f 10//40 12//42 9//39
f 12//42 14//44 7//37
f 13//43 15//45 4//35
f 13//43 11//41 14//44
f 12//42 14//44 11//41
f 14//44 16//46 7//37
f 7//37 4//35 17//47
f 15//45 18//48 4//35
f 15//45 13//43 16//46
f 14//44 16//46 13//43
f 16//46 19//49 7//37
f 20//50 17//47 4//35
f 17//47 7//37 21//51
f 18//48 22//52 4//35
f 18//48 15//45 19//49
f 16//46 19//49 15//45
f 19//49 23//53 7//37
f 17//47 20//50 21//51
f 24//54 20//50 4//35
f 25//55 21//51 7//37
f 22//52 26//56 4//35
f 22//52 18//48 23//53
f 19//49 23//53 18//48
f 23//53 27//57 7//37
f 24//54 21//51 20//50
f 28//58 24//54 4//35
f 21//51 24//54 25//55
f 29//59 25//55 7//37
f 26//56 30//60 4//35
f 26//56 22//52 27//57
f 23//53 27//57 22//52
f 27//57 29//59 7//37
f 28//58 25//55 24//54
f 30//60 28//58 4//35
f 25//55 28//58 29//59
f 26//56 27//57 30//60
f 29//59 30//60 27//57
f 30//60 29//59 28//58