mtllib new-7.mtl
v -0.454499 0.026935 -0.280394
v 0.437182 0.048468 -0.297636
v 0.437182 0.045852 -0.243393
v -0.454499 0.048468 -0.297636
v 0.437182 0.064690 -0.260090
v 0.437182 0.072541 -0.311258
v -0.454499 0.064690 -0.260090
v -0.454499 0.072541 -0.311258
v 0.437182 0.086308 -0.272986
v -0.454499 0.086308 -0.272986
v 0.437182 0.098527 -0.320909
v -0.454499 0.098527 -0.320909
v 0.437182 0.109950 -0.281632
v -0.454499 0.109950 -0.281632
v 0.437182 0.125755 -0.326336
v -0.454499 0.125755 -0.326336
v 0.437182 0.134787 -0.285724
v -0.454499 0.134787 -0.285724
v 0.437182 0.153516 -0.327401
v -0.454499 0.153516 -0.327401
v 0.437182 0.159953 -0.285120
v -0.454499 0.159953 -0.285120
v 0.437182 0.181091 -0.324074
v -0.454499 0.181091 -0.324074
v 0.437182 0.184566 -0.279841
v -0.454499 0.184566 -0.279841
v 0.437182 0.207765 -0.316442
v -0.454499 0.207765 -0.316442
v 0.437182 0.207765 -0.270071
v -0.454499 0.207765 -0.270071
v 0.437182 0.271445 -0.288623
v -0.454499 0.271445 -0.288623
v -0.454499 0.271445 -0.246780
v 0.437182 0.271445 -0.246780
v 0.437182 0.285814 -0.285349
v -0.454499 0.285668 -0.244161
v -0.454499 0.285814 -0.285349
v 0.437182 0.285668 -0.244161
v 0.437182 0.300310 -0.282662
v 0.437182 0.299981 -0.242070
v -0.454499 0.299981 -0.242070
v -0.454499 0.300310 -0.282662
v 0.437182 0.314906 -0.280567
v 0.437182 0.314364 -0.240512
v -0.454499 0.314364 -0.240512
v -0.454499 0.314906 -0.280567
v 0.437182 0.329579 -0.279068
v 0.437182 0.328797 -0.239488
v -0.454499 0.328797 -0.239488
v -0.454499 0.329579 -0.279068
v 0.437182 0.344301 -0.278168
v 0.437182 0.343260 -0.239000
v -0.454499 0.343260 -0.239000
v -0.454499 0.344301 -0.278168
v 0.437182 0.359050 -0.277868
v 0.437182 0.357730 -0.239048
v -0.454499 0.357730 -0.239048
v -0.454499 0.359050 -0.277868
v 0.437182 0.373798 -0.278168
v 0.437182 0.372189 -0.239632
v -0.454499 0.372189 -0.239632
v -0.454499 0.373798 -0.278168
v 0.437182 0.388521 -0.279068
v 0.437182 0.386614 -0.240752
v -0.454499 0.386614 -0.240752
v -0.454499 0.388521 -0.279068
v 0.437182 0.403193 -0.280567
v 0.437182 0.400987 -0.242405
v -0.454499 0.400987 -0.242405
v -0.454499 0.403193 -0.280567
v 0.437182 0.417789 -0.282662
v 0.437182 0.415285 -0.244590
v -0.454499 0.415285 -0.244590
v -0.454499 0.417789 -0.282662
v 0.437182 0.432285 -0.285349
v 0.437182 0.429490 -0.247303
v -0.454499 0.429490 -0.247303
v -0.454499 0.432285 -0.285349
v 0.437182 0.446655 -0.288623
v 0.437182 0.443580 -0.250541
v -0.454499 0.443580 -0.250541
v -0.454499 0.446655 -0.288623
v 0.437182 0.671804 -0.344783
v 0.437182 0.708628 -0.316653
v -0.454499 0.708628 -0.316653
v -0.454499 0.671804 -0.344783
v -0.454499 0.718411 -0.346060
v 0.437182 0.713790 -0.352082
v -0.454499 0.713790 -0.352082
v 0.437182 0.718411 -0.346060
v -0.454499 0.707768 -0.356703
v -0.454499 0.718411 -0.316984
v -0.454499 0.721316 -0.339048
v 0.437182 0.713790 -0.310962
v 0.437182 0.707768 -0.356703
v -0.454499 0.713790 -0.310962
v -0.454499 0.721316 -0.323997
v 0.437182 0.721316 -0.339048
v 0.437182 0.707768 -0.306341
v 0.437182 0.718411 -0.316984
v -0.454499 0.700755 -0.359608
v -0.454499 0.707768 -0.306341
v 0.437182 0.721316 -0.323997
v -0.454499 0.722306 -0.331522
v 0.437182 0.700755 -0.303436
v 0.437182 0.700755 -0.359608
v 0.437182 0.722306 -0.331522
v -0.454499 0.693230 -0.360599
v -0.454499 0.700755 -0.303436
v 0.437182 0.693230 -0.302446
v 0.437182 0.693230 -0.360599
v -0.454499 0.685704 -0.359608
v -0.454499 0.693230 -0.302446
v 0.437182 0.685704 -0.303436
v 0.437182 0.685704 -0.359608
v -0.454499 0.678692 -0.356703
v -0.454499 0.685704 -0.303436
v 0.437182 0.678692 -0.306341
v 0.437182 0.678692 -0.356703
v -0.454499 0.678692 -0.306341
v -0.454499 0.672670 -0.352082
v 0.437182 0.672670 -0.310962
v 0.437182 0.672670 -0.352082
v -0.454499 0.672670 -0.310962
v 0.437182 0.668049 -0.346060
v 0.437182 0.668049 -0.316984
v -0.454499 0.668049 -0.316984
v -0.454499 0.668049 -0.346060
v 0.437182 0.665144 -0.339048
v 0.437182 0.665144 -0.323997
v -0.454499 0.665144 -0.323997
v -0.454499 0.665144 -0.339048
v 0.437182 0.664153 -0.331522
v -0.454499 0.664153 -0.331522
vn 0.000000 -0.685808 -0.727782
vn 0.000000 -0.560568 -0.828109
vn 0.000000 0.730353 0.683069
vn 0.000000 -0.421659 -0.906754
vn 0.000000 0.590390 0.807118
vn 0.000000 0.429776 0.902935
vn 0.000000 -0.272675 -0.962106
vn 0.000000 0.254130 0.967170
vn 0.000000 -0.117273 -0.993100
vn 0.000000 0.069594 0.997575
vn 0.000000 0.040862 -0.999165
vn 0.000000 -0.117375 0.993088
vn 0.000000 0.198047 -0.980192
vn 0.000000 -0.300240 0.953864
vn 0.000000 0.275073 -0.961423
vn 0.000000 -0.388122 0.921608
vn 0.000000 0.400329 -0.916371
vn 0.000000 -0.343499 0.939153
vn 0.000000 0.222179 -0.975006
vn 0.000000 0.202258 -0.979332
vn 0.000000 -0.181107 0.983463
vn 0.000000 -0.162830 0.986654
vn 0.000000 0.162181 -0.986761
vn 0.000000 -0.126123 0.992015
vn 0.000000 0.121855 -0.992548
vn 0.000000 -0.089254 0.996009
vn 0.000000 0.081341 -0.996686
vn 0.000000 -0.052271 0.998633
vn 0.000000 0.040702 -0.999171
vn 0.000000 -0.015222 0.999884
vn 0.000000 0.000000 -1.000000
vn 0.000000 0.021846 0.999761
vn 0.000000 -0.040702 -0.999171
vn 0.000000 0.058887 0.998265
vn 0.000000 -0.081341 -0.996686
vn 0.000000 0.095853 0.995395
vn 0.000000 -0.121855 -0.992548
vn 0.000000 0.132696 0.991157
vn 0.000000 -0.162181 -0.986761
vn 0.000000 0.169370 0.985553
vn 0.000000 -0.202258 -0.979332
vn 0.000000 0.205827 0.978588
vn 0.000000 -0.222179 -0.975006
vn 0.000000 0.223957 0.974599
vn 0.000000 -0.242018 -0.970272
vn 0.000000 0.242018 0.970272
vn 1.000000 0.000000 0.000000
vn -1.000000 0.000000 0.000000
vn 0.000000 0.685808 0.727782
vn 0.000000 0.560568 0.828109
vn 0.000000 -0.730353 -0.683069
vn 0.000000 0.000000 1.000000
vn 0.000000 0.421659 0.906754
vn 0.000000 -0.590390 -0.807118
vn 0.000000 -0.429776 -0.902935
vn 0.000000 0.272675 0.962106
vn 0.000000 -0.254130 -0.967170
vn 0.000000 0.117273 0.993100
vn 0.000000 -0.069594 -0.997575
vn 0.000000 -0.040862 0.999165
vn 0.000000 0.117375 -0.993088
vn 0.000000 -0.198047 0.980192
vn 0.000000 0.300240 -0.953864
vn 0.000000 -0.275073 0.961423
vn 0.000000 0.388122 -0.921608
vn 0.000000 -0.400329 0.916371
vn 0.000000 0.343499 -0.939153
vn 0.000000 -0.222179 0.975006
vn 0.000000 -0.202258 0.979332
vn 0.000000 0.181107 -0.983463
vn 0.000000 0.162830 -0.986654
vn 0.000000 -0.162181 0.986761
vn 0.000000 0.126123 -0.992015
vn 0.000000 -0.121855 0.992548
vn 0.000000 0.089254 -0.996009
vn 0.000000 -0.081341 0.996686
vn 0.000000 0.052271 -0.998633
vn 0.000000 -0.040702 0.999171
vn 0.000000 0.015222 -0.999884
vn 0.000000 -0.021846 -0.999761
vn 0.000000 0.040702 0.999171
vn 0.000000 -0.058887 -0.998265
vn 0.000000 0.081341 0.996686
vn 0.000000 -0.095853 -0.995395
vn 0.000000 0.121855 0.992548
vn 0.000000 -0.132696 -0.991157
vn 0.000000 0.162181 0.986761
vn 0.000000 -0.169370 -0.985553
vn 0.000000 0.202258 0.979332
vn 0.000000 -0.205827 -0.978588
vn 0.000000 0.222179 0.975006
vn 0.000000 -0.223957 -0.974599
vn 0.000000 0.607040 -0.794671
vn 0.000000 -0.607040 0.794671
vn 0.000000 0.866025 -0.500000
vn 0.000000 0.707107 -0.707107
vn 0.000000 0.500000 -0.866025
vn 0.000000 0.965926 -0.258819
vn 0.000000 0.258819 -0.965926
vn 0.000000 0.707107 0.707107
vn 0.000000 0.866025 0.500000
vn 0.000000 0.965926 0.258819
vn 0.000000 1.000000 0.000000
vn 0.000000 0.500000 0.866025
vn 0.000000 0.258819 0.965926
vn 0.000000 0.000000 -1.000000
vn 0.000000 0.000000 1.000000
vn 0.000000 -0.258819 -0.965926
vn 0.000000 -0.258819 0.965926
vn 0.000000 -0.500000 -0.866025
vn 0.000000 -0.500000 0.866025
vn 0.000000 -0.707107 -0.707107
vn 0.000000 -0.707107 0.707107
vn 0.000000 -0.866025 -0.500000
vn 0.000000 -0.866025 0.500000
vn 0.000000 -0.965926 -0.258819
vn 0.000000 -0.965926 0.258819
vn 0.000000 -1.000000 0.000000
vn 1.000000 0.000000 0.000000
vn -1.000000 0.000000 0.000000
vt -0.406018 0.546177
vt 0.406018 0.546177
vt -0.755800 0.529303
vt -0.648133 0.650783
vt 0.648133 0.650783
vt -0.318171 0.701407
vt 0.318171 0.701407
vt -0.564969 0.790187
vt 0.564969 0.790187
vt -0.255941 0.868983
vt 0.255941 0.868983
vt -0.509217 0.942638
vt 0.509217 0.942638
vt -0.220940 1.044558
vt 0.220940 1.044558
vt -0.482827 1.102805
vt 0.482827 1.102805
vt -0.214077 1.223577
vt 0.214077 1.223577
vt -0.486722 1.265084
vt 0.486722 1.265084
vt -0.235530 1.401395
vt 0.235530 1.401395
vt -0.520766 1.423800
vt 0.520766 1.423800
vt -0.284742 1.573401
vt 0.284742 1.573401
vt -0.583768 1.573401
vt 0.583768 1.573401
vt -0.464135 1.984039
vt 0.733961 1.984039
vt -0.733961 1.984039
vt 0.464135 1.984039
vt -0.485251 2.076701
vt 0.750850 2.075754
vt -0.750850 2.075754
vt 0.485251 2.076701
vt -0.764329 2.168054
vt 0.764329 2.168054
vt -0.502577 2.170176
vt 0.502577 2.170176
vt -0.774377 2.260805
vt 0.774377 2.260805
vt -0.516083 2.264300
vt 0.516083 2.264300
vt -0.780980 2.353877
vt 0.780980 2.353877
vt -0.525748 2.358914
vt 0.525748 2.358914
vt -0.784130 2.447136
vt 0.784130 2.447136
vt -0.531553 2.453855
vt 0.531553 2.453855
vt -0.783821 2.540449
vt 0.783821 2.540449
vt -0.533489 2.548958
vt 0.533489 2.548958
vt -0.780054 2.633685
vt 0.780054 2.633685
vt -0.531553 2.644062
vt 0.531553 2.644062
vt -0.772834 2.726709
vt 0.772834 2.726709
vt -0.525748 2.739003
vt 0.525748 2.739003
vt -0.762171 2.819389
vt 0.762171 2.819389
vt -0.516083 2.833616
vt 0.516083 2.833616
vt -0.748082 2.911594
vt 0.748082 2.911594
vt -0.502577 2.927741
vt 0.502577 2.927741
vt -0.730585 3.003192
vt 0.730585 3.003192
vt -0.485251 3.021215
vt 0.485251 3.021215
vt -0.709706 3.094052
vt 0.709706 3.094052
vt -0.464135 3.113878
vt 0.464135 3.113878
vt -0.283384 4.803215
vt 0.283384 4.803215
vt -0.101989 4.565753
vt 0.101989 4.565753
vt 0.054917 4.836500
vt 0.281250 4.866297
vt 0.093750 4.866297
vt -0.320083 4.836500
vt -0.054917 4.836500
vt -0.093750 4.866297
vt 0.025120 4.797667
vt 0.320083 4.836500
vt 0.236029 4.885028
vt 0.138971 4.885028
vt -0.349880 4.797667
vt -0.281250 4.866297
vt -0.025120 4.797667
vt 0.349880 4.797667
vt -0.138971 4.885028
vt 0.187500 4.891417
vt -0.368611 4.752446
vt 0.006389 4.752446
vt -0.236029 4.885028
vt -0.006389 4.752446
vt 0.368611 4.752446
vt -0.187500 4.891417
vt -0.375000 4.703917
vt 0.000000 4.703917
vt 0.375000 4.703917
vt -0.368611 4.655389
vt 0.006389 4.655389
vt -0.006389 4.655389
vt 0.368611 4.655389
vt -0.349880 4.610167
vt 0.025120 4.610167
vt -0.025120 4.610167
vt 0.349880 4.610167
vt -0.320083 4.571335
vt 0.054917 4.571335
vt -0.054917 4.571335
vt 0.320083 4.571335
vt -0.281250 4.541538
vt -0.093750 4.541538
vt 0.093750 4.541538
vt 0.281250 4.541538
vt -0.236029 4.522806
vt 0.138971 4.522806
vt -0.138971 4.522806
vt 0.236029 4.522806
vt -0.187500 4.516417
vt 0.187500 4.516417
usemtl material-3
f 2//2 1//1 4//2
f 4//2 6//4 2//2
f 7//5 3//3 5//5
f 6//4 4//2 8//4
f 5//5 10//6 7//5
f 8//4 11//7 6//4
f 10//6 5//5 9//6
f 11//7 8//4 12//7
f 9//6 14//8 10//6
f 12//7 15//9 11//7
f 14//8 9//6 13//8
f 15//9 12//7 16//9
f 13//8 18//10 14//8
f 16//9 19//11 15//9
f 18//10 13//8 17//10
f 19//11 16//9 20//11
f 17//10 22//12 18//10
f 20//11 23//13 19//11
f 22//12 17//10 21//12
f 23//13 20//11 24//13
f 21//12 26//14 22//12
f 24//13 27//15 23//13
f 26//14 21//12 25//14
f 27//15 24//13 28//15
f 25//14 30//16 26//14
f 28//17 31//17 27//17
f 30//16 25//14 29//16
f 31//17 28//17 32//17
f 29//18 33//18 30//18
f 32//19 35//20 31//19
f 33//18 29//18 34//18
f 35//20 32//19 37//20
f 34//21 36//22 33//21
f 37//20 39//23 35//20
f 36//22 34//21 38//22
f 39//23 37//20 42//23
f 40//24 36//22 38//22
f 36//22 40//24 41//24
f 42//23 43//25 39//23
f 40//24 45//26 41//24
f 43//25 42//23 46//25
f 45//26 40//24 44//26
f 46//25 47//27 43//25
f 44//26 49//28 45//26
f 47//27 46//25 50//27
f 49//28 44//26 48//28
f 50//27 51//29 47//27
f 48//28 53//30 49//28
f 51//29 50//27 54//29
f 53//30 48//28 52//30
f 54//29 55//31 51//29
f 52//30 57//32 53//30
f 55//31 54//29 58//31
f 57//32 52//30 56//32
f 58//31 59//33 55//31
f 56//32 61//34 57//32
f 59//33 58//31 62//33
f 61//34 56//32 60//34
f 62//33 63//35 59//33
f 60//34 65//36 61//34
f 63//35 62//33 66//35
f 65//36 60//34 64//36
f 66//35 67//37 63//35
f 64//36 69//38 65//36
f 67//37 66//35 70//37
f 69//38 64//36 68//38
f 70//37 71//39 67//37
f 68//38 73//40 69//38
f 71//39 70//37 74//39
f 73//40 68//38 72//40
f 74//39 75//41 71//39
f 72//40 77//42 73//40
f 75//41 74//39 78//41
f 77//42 72//40 76//42
f 78//41 79//43 75//41
f 76//42 81//44 77//42
f 79//43 78//41 82//43
f 81//44 76//42 80//44
f 82//45 83//45 79//45
f 84//46 81//46 80//46
f 83//45 82//45 86//45
f 81//46 84//46 85//46
usemtl material-4
f 4//50 1//49 2//50
f 5//48 2//48 3//48
f 2//50 6//53 4//50
f 6//48 2//48 5//48
f 5//54 3//51 7//54
f 8//53 4//50 6//53
f 8//47 7//47 4//47
f 9//48 6//48 5//48
f 7//54 10//55 5//54
f 6//53 11//56 8//53
f 10//47 7//47 8//47
f 11//48 6//48 9//48
f 9//55 5//54 10//55
f 12//56 8//53 11//56
f 12//47 10//47 8//47
f 13//48 11//48 9//48
f 10//55 14//57 9//55
f 11//56 15//58 12//56
f 14//47 10//47 12//47
f 15//48 11//48 13//48
f 13//57 9//55 14//57
f 16//58 12//56 15//58
f 16//47 14//47 12//47
f 17//48 15//48 13//48
f 14//57 18//59 13//57
f 15//58 19//60 16//58
f 18//47 14//47 16//47
f 19//48 15//48 17//48
f 17//59 13//57 18//59
f 20//60 16//58 19//60
f 20//47 18//47 16//47
f 21//48 19//48 17//48
f 18//59 22//61 17//59
f 19//60 23//62 20//60
f 22//47 18//47 20//47
f 23//48 19//48 21//48
f 21//61 17//59 22//61
f 24//62 20//60 23//62
f 24//47 22//47 20//47
f 25//48 23//48 21//48
f 22//61 26//63 21//61
f 23//62 27//64 24//62
f 26//47 22//47 24//47
f 27//48 23//48 25//48
f 25//63 21//61 26//63
f 28//64 24//62 27//64
f 28//47 26//47 24//47
f 29//48 27//48 25//48
f 26//63 30//65 25//63
f 27//66 31//66 28//66
f 30//47 26//47 28//47
f 31//48 27//48 29//48
f 29//65 25//63 30//65
f 32//66 28//66 31//66
f 33//47 30//47 28//47
f 34//48 31//48 29//48
f 30//67 33//67 29//67
f 32//47 33//47 28//47
f 31//68 35//69 32//68
f 35//48 31//48 34//48
f 34//67 29//67 33//67
f 36//47 33//47 32//47
f 37//69 32//68 35//69
f 38//48 35//48 34//48
f 33//70 36//71 34//70
f 37//47 36//47 32//47
f 35//69 39//72 37//69
f 40//48 35//48 38//48
f 38//71 34//70 36//71
f 41//47 36//47 37//47
f 42//72 37//69 39//72
f 39//48 35//48 40//48
f 38//71 36//71 40//73
f 41//73 40//73 36//71
f 42//47 41//47 37//47
f 39//72 43//74 42//72
f 44//48 39//48 40//48
f 41//73 45//75 40//73
f 45//47 41//47 42//47
f 46//74 42//72 43//74
f 43//48 39//48 44//48
f 44//75 40//73 45//75
f 46//47 45//47 42//47
f 43//74 47//76 46//74
f 48//48 43//48 44//48
f 45//75 49//77 44//75
f 49//47 45//47 46//47
f 50//76 46//74 47//76
f 47//48 43//48 48//48
f 48//77 44//75 49//77
f 50//47 49//47 46//47
f 47//76 51//78 50//76
f 52//48 47//48 48//48
f 49//77 53//79 48//77
f 53//47 49//47 50//47
f 54//78 50//76 51//78
f 51//48 47//48 52//48
f 52//79 48//77 53//79
f 54//47 53//47 50//47
f 51//78 55//52 54//78
f 56//48 51//48 52//48
f 53//79 57//80 52//79
f 57//47 53//47 54//47
f 58//52 54//78 55//52
f 55//48 51//48 56//48
f 56//80 52//79 57//80
f 58//47 57//47 54//47
f 55//52 59//81 58//52
f 60//48 55//48 56//48
f 57//80 61//82 56//80
f 61//47 57//47 58//47
f 62//81 58//52 59//81
f 59//48 55//48 60//48
f 60//82 56//80 61//82
f 62//47 61//47 58//47
f 59//81 63//83 62//81
f 64//48 59//48 60//48
f 61//82 65//84 60//82
f 65//47 61//47 62//47
f 66//83 62//81 63//83
f 63//48 59//48 64//48
f 64//84 60//82 65//84
f 66//47 65//47 62//47
f 63//83 67//85 66//83
f 68//48 63//48 64//48
f 65//84 69//86 64//84
f 69//47 65//47 66//47
f 70//85 66//83 67//85
f 67//48 63//48 68//48
f 68//86 64//84 69//86
f 70//47 69//47 66//47
f 67//85 71//87 70//85
f 72//48 67//48 68//48
f 69//86 73//88 68//86
f 73//47 69//47 70//47
f 74//87 70//85 71//87
f 71//48 67//48 72//48
f 72//88 68//86 73//88
f 74//47 73//47 70//47
f 71//87 75//89 74//87
f 76//48 71//48 72//48
f 73//88 77//90 72//88
f 77//47 73//47 74//47
f 78//89 74//87 75//89
f 75//48 71//48 76//48
f 76//90 72//88 77//90
f 78//47 77//47 74//47
f 75//89 79//91 78//89
f 80//48 75//48 76//48
f 77//90 81//92 76//90
f 81//47 77//47 78//47
f 82//91 78//89 79//91
f 79//48 75//48 80//48
f 80//92 76//90 81//92
f 82//47 81//47 78//47
f 79//46 83//46 82//46
f 84//48 79//48 80//48
f 80//45 81//45 84//45
f 85//47 81//47 82//47
f 86//46 82//46 83//46
f 83//48 79//48 84//48
f 85//45 84//45 81//45
f 86//47 85//47 82//47
f 86//93 84//93 83//93
f 83//94 84//94 86//94
f 84//93 86//93 85//93
f 85//94 86//94 84//94
usemtl material-5
f 3/3/47 2/1/47 5/4/47
f 5/4/47 2/1/47 6/6/47
f 4/2/48 7/5/48 8/7/48
f 5/4/47 6/6/47 9/8/47
f 8/7/48 7/5/48 10/9/48
f 9/8/47 6/6/47 11/10/47
f 8/7/48 10/9/48 12/11/48
f 9/8/47 11/10/47 13/12/47
f 12/11/48 10/9/48 14/13/48
f 13/12/47 11/10/47 15/14/47
f 12/11/48 14/13/48 16/15/48
f 13/12/47 15/14/47 17/16/47
f 16/15/48 14/13/48 18/17/48
f 17/16/47 15/14/47 19/18/47
f 16/15/48 18/17/48 20/19/48
f 17/16/47 19/18/47 21/20/47
f 20/19/48 18/17/48 22/21/48
f 21/20/47 19/18/47 23/22/47
f 20/19/48 22/21/48 24/23/48
f 21/20/47 23/22/47 25/24/47
f 24/23/48 22/21/48 26/25/48
f 25/24/47 23/22/47 27/26/47
f 24/23/48 26/25/48 28/27/48
f 25/24/47 27/26/47 29/28/47
f 28/27/48 26/25/48 30/29/48
f 29/28/47 27/26/47 31/30/47
f 28/27/48 30/29/48 33/31/48
f 29/28/47 31/30/47 34/32/47
f 28/27/48 33/31/48 32/33/48
f 34/32/47 31/30/47 35/34/47
f 32/33/48 33/31/48 36/35/48
f 34/32/47 35/34/47 38/36/47
f 32/33/48 36/35/48 37/37/48
f 38/36/47 35/34/47 40/38/47
f 37/37/48 36/35/48 41/39/48
f 40/38/47 35/34/47 39/40/47
f 37/37/48 41/39/48 42/41/48
f 40/38/47 39/40/47 44/42/47
f 42/41/48 41/39/48 45/43/48
f 44/42/47 39/40/47 43/44/47
f 42/41/48 45/43/48 46/45/48
f 44/42/47 43/44/47 48/46/47
f 46/45/48 45/43/48 49/47/48
f 48/46/47 43/44/47 47/48/47
f 46/45/48 49/47/48 50/49/48
f 48/46/47 47/48/47 52/50/47
f 50/49/48 49/47/48 53/51/48
f 52/50/47 47/48/47 51/52/47
f 50/49/48 53/51/48 54/53/48
f 52/50/47 51/52/47 56/54/47
f 54/53/48 53/51/48 57/55/48
f 56/54/47 51/52/47 55/56/47
f 54/53/48 57/55/48 58/57/48
f 56/54/47 55/56/47 60/58/47
f 58/57/48 57/55/48 61/59/48
f 60/58/47 55/56/47 59/60/47
f 58/57/48 61/59/48 62/61/48
f 60/58/47 59/60/47 64/62/47
f 62/61/48 61/59/48 65/63/48
f 64/62/47 59/60/47 63/64/47
f 62/61/48 65/63/48 66/65/48
f 64/62/47 63/64/47 68/66/47
f 66/65/48 65/63/48 69/67/48
f 68/66/47 63/64/47 67/68/47
f 66/65/48 69/67/48 70/69/48
f 68/66/47 67/68/47 72/70/47
f 70/69/48 69/67/48 73/71/48
f 72/70/47 67/68/47 71/72/47
f 70/69/48 73/71/48 74/73/48
f 72/70/47 71/72/47 76/74/47
f 74/73/48 73/71/48 77/75/48
f 76/74/47 71/72/47 75/76/47
f 74/73/48 77/75/48 78/77/48
f 76/74/47 75/76/47 80/78/47
f 78/77/48 77/75/48 81/79/48
f 80/78/47 75/76/47 79/80/47
f 78/77/48 81/79/48 82/81/48
f 80/78/47 79/80/47 84/82/47
f 82/81/48 81/79/48 85/83/48
f 84/82/47 79/80/47 83/84/47
f 82/81/48 85/83/48 86/85/48
usemtl material-6
f 87//95 88//96 89//96
f 88//96 87//95 90//95
f 88//96 91//97 89//96
f 93//98 90//95 87//95
f 91//97 88//96 95//97
f 90//95 93//98 98//98
f 95//97 101//99 91//97
f 96//100 100//101 92//101
f 92//101 103//102 97//102
f 104//103 98//98 93//98
f 94//100 102//104 99//104
f 100//101 96//100 94//100
f 101//99 95//97 106//99
f 102//104 94//100 96//100
f 103//102 92//101 100//101
f 107//103 97//102 103//102
f 98//98 104//103 107//103
f 97//102 107//103 104//103
f 102//104 105//105 99//104
f 106//99 108//106 101//99
f 105//105 102//104 109//105
f 108//106 106//99 111//106
f 109//105 110//107 105//105
f 111//106 112//108 108//106
f 110//107 109//105 113//107
f 112//108 111//106 115//108
f 113//107 114//109 110//107
f 115//108 116//110 112//108
f 114//109 113//107 117//109
f 116//110 115//108 119//110
f 120//111 114//109 117//109
f 114//109 120//111 118//111
f 119//110 121//112 116//110
f 120//111 122//113 118//111
f 121//112 119//110 123//112
f 122//113 120//111 124//113
f 125//114 121//112 123//112
f 127//115 122//113 124//113
f 121//112 125//114 128//114
f 122//113 127//115 126//115
f 129//116 128//114 125//114
f 131//117 126//115 127//115
f 128//114 129//116 132//116
f 126//115 131//117 130//117
f 133//118 132//116 129//116
f 134//118 130//117 131//117
f 132//116 133//118 134//118
f 130//117 134//118 133//118
usemtl material-7
f 89//113 88//113 87//115
f 90//115 87//115 88//113
f 89//113 91//111 88//113
f 87//119 92//119 89//119
f 87//115 90//115 93//117
f 90//120 88//120 94//120
f 95//111 88//113 91//111
f 89//119 96//119 91//119
f 92//119 96//119 89//119
f 97//119 92//119 87//119
f 98//117 93//117 90//115
f 93//119 97//119 87//119
f 94//120 88//120 99//120
f 100//120 90//120 94//120
f 88//120 95//120 99//120
f 91//111 101//109 95//111
f 96//119 102//119 91//119
f 92//114 100//114 96//112
f 97//116 103//116 92//114
f 93//117 98//117 104//118
f 98//120 90//120 100//120
f 104//119 97//119 93//119
f 99//110 102//110 94//112
f 94//112 96//112 100//114
f 99//120 95//120 105//120
f 106//109 95//111 101//109
f 91//119 102//119 101//119
f 96//112 94//112 102//110
f 100//114 92//114 103//116
f 103//116 97//116 107//118
f 107//118 104//118 98//117
f 103//120 98//120 100//120
f 104//118 107//118 97//116
f 99//110 105//108 102//110
f 95//120 106//120 105//120
f 101//109 108//107 106//109
f 102//119 109//119 101//119
f 107//120 98//120 103//120
f 109//108 102//110 105//108
f 105//120 106//120 110//120
f 111//107 106//109 108//107
f 101//119 109//119 108//119
f 105//108 110//106 109//108
f 106//120 111//120 110//120
f 108//107 112//105 111//107
f 109//119 113//119 108//119
f 113//106 109//108 110//106
f 110//120 111//120 114//120
f 115//105 111//107 112//105
f 108//119 113//119 112//119
f 110//106 114//99 113//106
f 111//120 115//120 114//120
f 112//105 116//104 115//105
f 113//119 117//119 112//119
f 117//99 113//106 114//99
f 114//120 115//120 118//120
f 119//104 115//105 116//104
f 112//119 117//119 116//119
f 117//99 114//99 120//97
f 115//120 119//120 118//120
f 118//97 120//97 114//99
f 116//104 121//100 119//104
f 117//119 120//119 116//119
f 118//120 119//120 122//120
f 118//97 122//96 120//97
f 123//100 119//104 121//100
f 116//119 120//119 121//119
f 119//120 123//120 122//120
f 124//96 120//97 122//96
f 123//100 121//100 125//101
f 120//119 124//119 121//119
f 122//120 123//120 126//120
f 124//96 122//96 127//95
f 128//101 125//101 121//100
f 123//120 125//120 126//120
f 121//119 124//119 128//119
f 126//95 127//95 122//96
f 124//119 127//119 128//119
f 125//101 128//101 129//102
f 126//120 125//120 130//120
f 127//95 126//95 131//98
f 128//119 127//119 132//119
f 132//102 129//102 128//101
f 125//120 129//120 130//120
f 130//98 131//98 126//95
f 127//119 131//119 132//119
f 129//102 132//102 133//103
f 133//120 130//120 129//120
f 131//98 130//98 134//103
f 134//119 132//119 131//119
f 134//103 133//103 132//102
f 133//103 134//103 130//98
usemtl material-8
f 89/86/120 92/87/120 87/88/120
f 94/89/119 88/90/119 90/91/119
f 91/92/120 96/93/120 89/86/120
f 89/86/120 96/93/120 92/87/120
f 87/88/120 92/87/120 97/94/120
f 87/88/120 97/94/120 93/95/120
f 99/96/119 88/90/119 94/89/119
f 94/89/119 90/91/119 100/97/119
f 99/96/119 95/98/119 88/90/119
f 91/92/120 102/99/120 96/93/120
f 100/97/119 90/91/119 98/100/119
f 93/95/120 97/94/120 104/101/120
f 105/102/119 95/98/119 99/96/119
f 101/103/120 102/99/120 91/92/120
f 100/97/119 98/100/119 103/104/119
f 105/102/119 106/105/119 95/98/119
f 101/103/120 109/106/120 102/99/120
f 103/104/119 98/100/119 107/107/119
f 110/108/119 106/105/119 105/102/119
f 108/109/120 109/106/120 101/103/120
f 110/108/119 111/109/119 106/105/119
f 108/109/120 113/110/120 109/106/120
f 114/111/119 111/109/119 110/108/119
f 112/112/120 113/110/120 108/109/120
f 114/111/119 115/113/119 111/109/119
f 112/112/120 117/114/120 113/110/120
f 118/115/119 115/113/119 114/111/119
f 116/116/120 117/114/120 112/112/120
f 118/115/119 119/117/119 115/113/119
f 116/116/120 120/118/120 117/114/120
f 122/119/119 119/117/119 118/115/119
f 121/120/120 120/118/120 116/116/120
f 122/119/119 123/121/119 119/117/119
f 121/120/120 124/122/120 120/118/120
f 126/123/119 123/121/119 122/119/119
f 126/123/119 125/124/119 123/121/119
f 128/125/120 124/122/120 121/120/120
f 128/125/120 127/126/120 124/122/120
f 130/127/119 125/124/119 126/123/119
f 132/128/120 127/126/120 128/125/120
f 130/127/119 129/129/119 125/124/119
f 132/128/120 131/130/120 127/126/120
f 129/129/119 130/127/119 133/131/119
f 131/130/120 132/128/120 134/132/120