mtllib new-6.mtl
v -0.454499 0.007385 0.471686
v 0.437182 0.013407 0.467065
v -0.454499 0.013407 0.467065
v 0.437182 0.007385 0.471686
v 0.437182 0.018028 0.461043
v -0.454499 0.007385 0.421324
v 0.437182 0.000372 0.474591
v 0.437182 0.013407 0.425945
v -0.454499 0.018028 0.461043
v 0.437182 0.018028 0.431967
v -0.454499 0.000372 0.418419
v -0.454499 0.013407 0.425945
v -0.454499 0.000372 0.474591
v 0.437182 0.007385 0.421324
v 0.437182 0.020932 0.454030
v 0.437182 0.020932 0.438979
v 0.437182 -0.007154 0.475581
v 0.437182 0.000372 0.418419
v -0.454499 0.018028 0.431967
v -0.454499 0.020932 0.454030
v -0.454499 0.020932 0.438979
v -0.454499 -0.007154 0.417428
v -0.454499 -0.007154 0.475581
v 0.437182 0.021923 0.446505
v -0.454499 0.021923 0.446505
v 0.437182 -0.014679 0.474591
v 0.437182 -0.007154 0.417428
v -0.454499 -0.014679 0.418419
v -0.454499 -0.014679 0.474591
v -0.454499 -0.021692 0.471686
v 0.437182 -0.014679 0.418419
v -0.454499 -0.021692 0.421324
v 0.437182 -0.021692 0.471686
v 0.437182 -0.027714 0.467065
v -0.454499 -0.027714 0.425945
v 0.437182 -0.021692 0.421324
v -0.454499 -0.027714 0.467065
v -0.454499 -0.032335 0.461043
v 0.437182 -0.027714 0.425945
v -0.454499 -0.032335 0.431967
v 0.437182 -0.032335 0.461043
v 0.437182 -0.032335 0.431967
v -0.454499 -0.035239 0.454030
v -0.454499 -0.035239 0.438979
v 0.437182 -0.035239 0.438979
v 0.437182 -0.035239 0.454030
v -0.454499 -0.036230 0.446505
v 0.437182 -0.036230 0.446505
v -0.454499 0.009559 -0.151827
v 0.437182 0.011982 -0.176883
v -0.454499 0.011982 -0.176883
v 0.437182 0.009559 -0.151827
v 0.437182 0.019028 -0.201049
v -0.454499 0.008499 -0.259981
v -0.454499 0.011843 -0.126758
v 0.437182 0.008499 -0.259981
v -0.454499 0.019028 -0.201049
v 0.437182 0.026935 -0.280394
v -0.454499 0.026935 -0.280394
v -0.454499 0.011843 0.426857
v 0.437182 0.011843 -0.126758
v 0.437182 0.011843 0.426857
v 0.437182 0.030451 -0.223481
v -0.454499 -0.006360 -0.236925
v 0.437182 -0.006360 -0.236925
v -0.454499 0.030451 -0.223481
v 0.437182 0.048468 -0.297636
v -0.454499 -0.017259 -0.211826
v 0.437182 -0.017259 -0.211826
v 0.437182 0.045852 -0.243393
v -0.454499 0.048468 -0.297636
v -0.454499 -0.023913 -0.185334
v 0.437182 -0.026150 0.426857
v 0.437182 -0.023913 -0.185334
v -0.454499 0.045852 -0.243393
v -0.454499 -0.026150 -0.158136
v -0.454499 -0.026150 0.426857
v -0.454499 0.064690 -0.260090
v 0.437182 -0.026150 -0.158136
vn 0.000000 0.500000 0.866025
vn 0.000000 0.707107 0.707107
vn 0.000000 0.866025 0.500000
vn 0.000000 0.258819 0.965926
vn 0.000000 0.965926 0.258819
vn 0.000000 0.500000 -0.866025
vn 0.000000 0.258819 -0.965926
vn 0.000000 0.707107 -0.707107
vn 0.000000 0.000000 1.000000
vn 0.000000 0.866025 -0.500000
vn 0.000000 0.965926 -0.258819
vn 0.000000 1.000000 0.000000
vn 0.000000 0.000000 -1.000000
vn 0.000000 -0.258819 0.965926
vn 0.000000 -0.258819 -0.965926
vn 0.000000 -0.500000 0.866025
vn 0.000000 -0.500000 -0.866025
vn 0.000000 -0.707107 0.707107
vn 0.000000 -0.707107 -0.707107
vn 0.000000 -0.866025 0.500000
vn 0.000000 -0.866025 -0.500000
vn 0.000000 -0.965926 0.258819
vn 0.000000 -0.965926 -0.258819
vn 0.000000 -1.000000 0.000000
vn 1.000000 0.000000 0.000000
vn -1.000000 0.000000 0.000000
vn 0.000000 0.999996 0.002768
vn 0.000000 0.981992 0.188923
vn 0.000000 0.929640 0.368470
vn 0.000000 0.995873 -0.090755
vn 0.000000 0.844771 0.535128
vn 0.000000 -0.685808 -0.727782
vn 0.000000 -0.793945 -0.607989
vn 0.000000 1.000000 0.000000
vn 0.000000 -0.881824 -0.471578
vn 0.000000 -0.560568 -0.828109
vn 0.000000 0.730353 0.683069
vn 0.000000 -0.946733 -0.322021
vn 0.000000 -0.986569 -0.163346
vn 0.000000 0.590390 0.807118
vn 0.000000 -0.996633 -0.081987
vn 0.000000 -1.000000 0.000000
vn 0.000000 0.000000 -1.000000
vn 0.000000 -0.981992 -0.188923
vn 0.000000 -0.999996 -0.002768
vn 0.000000 -0.929640 -0.368470
vn 1.000000 0.000000 0.000000
vn 0.000000 -0.995873 0.090755
vn -1.000000 0.000000 0.000000
vn 0.000000 -0.844771 -0.535128
vn 0.000000 0.793945 0.607989
vn 0.000000 0.685808 0.727782
vn 0.000000 0.881824 0.471578
vn 0.000000 0.560568 0.828109
vn 0.000000 -0.730353 -0.683069
vn 0.000000 0.946733 0.322021
vn 0.000000 0.000000 1.000000
vn 0.000000 0.986569 0.163346
vn 0.000000 -0.590390 -0.807118
vn 0.000000 0.996633 0.081987
vt 5.042223 0.281250
vt 5.366982 0.281250
vt 5.337185 0.320083
vt -5.366982 0.281250
vt -5.072020 0.320083
vt -5.337185 0.320083
vt -5.110852 0.349880
vt -5.298352 0.349880
vt 5.023491 0.236029
vt 5.072020 0.320083
vt -5.385713 0.236029
vt -5.042223 0.281250
vt 5.298352 0.349880
vt -5.156074 0.368611
vt 5.385713 0.236029
vt -5.023491 0.236029
vt -5.253131 0.368611
vt 5.110852 0.349880
vt 5.017102 0.187500
vt -5.392102 0.187500
vt 5.253131 0.368611
vt -5.204602 0.375000
vt 5.392102 0.187500
vt -5.017102 0.187500
vt 5.156074 0.368611
vt 5.204602 0.375000
vt 5.023491 0.138971
vt -5.385713 0.138971
vt 5.385713 0.138971
vt -5.023491 0.138971
vt 5.042223 0.093750
vt 5.366982 0.093750
vt -5.366982 0.093750
vt 5.072020 0.054917
vt -5.042223 0.093750
vt -5.337185 0.054917
vt 5.337185 0.054917
vt -5.072020 0.054917
vt 5.110852 0.025120
vt 5.298352 0.025120
vt -5.298352 0.025120
vt 5.156074 0.006389
vt -5.110852 0.025120
vt 5.253131 0.006389
vt -5.253131 0.006389
vt -5.156074 0.006389
vt 5.204602 0.000000
vt -5.204602 0.000000
vt 1.184692 0.310895
vt 0.648836 0.288438
vt 1.346264 0.295268
vt -0.648836 0.288438
vt -1.184692 0.310895
vt -1.346264 0.295268
vt -0.517200 0.407320
vt -1.028855 0.356334
vt 0.517200 0.407320
vt 5.077903 0.310000
vt 1.507920 0.310000
vt -5.077903 0.310000
vt 1.028855 0.356334
vt -0.884205 0.429995
vt 0.797508 0.192615
vt -1.507920 0.310000
vt -0.797508 0.192615
vt 0.884205 0.429995
vt -0.406018 0.546177
vt 0.959361 0.122337
vt -0.959361 0.122337
vt 0.406018 0.546177
vt -0.755800 0.529303
vt 1.130195 0.079428
vt -1.130195 0.079428
vt 0.755800 0.529303
vt 1.305580 0.065000
vt -5.077903 0.065000
vt 0.648133 0.650783
vt 5.077903 0.065000
vt -1.305580 0.065000
usemtl material-0
f 1//1 2//2 3//2
f 2//2 1//1 4//1
f 5//3 3//2 2//2
f 1//1 7//4 4//1
f 3//2 5//3 9//3
f 7//4 1//1 13//4
f 15//5 9//3 5//3
f 14//6 11//7 6//6
f 8//8 6//6 12//8
f 13//4 17//9 7//4
f 6//6 8//8 14//6
f 8//8 19//10 10//10
f 9//3 15//5 20//5
f 10//10 21//11 16//11
f 11//7 14//6 18//7
f 19//10 8//8 12//8
f 17//9 13//4 23//9
f 21//11 10//10 19//10
f 24//12 20//5 15//5
f 25//12 16//11 21//11
f 18//7 22//13 11//7
f 23//9 26//14 17//9
f 20//5 24//12 25//12
f 16//11 25//12 24//12
f 22//13 18//7 27//13
f 26//14 23//9 29//14
f 27//13 28//15 22//13
f 30//16 26//14 29//14
f 28//15 27//13 31//15
f 26//14 30//16 33//16
f 31//15 32//17 28//15
f 30//16 34//18 33//16
f 32//17 31//15 36//17
f 34//18 30//16 37//18
f 36//17 35//19 32//17
f 38//20 34//18 37//18
f 35//19 36//17 39//19
f 34//18 38//20 41//20
f 35//19 42//21 40//21
f 42//21 35//19 39//19
f 43//22 41//20 38//20
f 45//23 40//21 42//21
f 41//20 43//22 46//22
f 40//21 45//23 44//23
f 47//24 46//22 43//22
f 48//24 44//23 45//23
f 46//22 47//24 48//24
f 44//23 48//24 47//24
usemtl material-1
f 3//19 2//19 1//17
f 4//17 1//17 2//19
f 2//19 3//19 5//21
f 3//25 1//25 6//25
f 4//17 7//15 1//17
f 2//26 8//26 4//26
f 9//21 5//21 3//19
f 5//26 10//26 2//26
f 6//25 1//25 11//25
f 12//25 3//25 6//25
f 13//15 1//17 7//15
f 4//26 14//26 7//26
f 8//26 14//26 4//26
f 10//26 8//26 2//26
f 5//21 9//21 15//23
f 9//25 3//25 12//25
f 16//26 10//26 5//26
f 1//25 13//25 11//25
f 6//16 11//14 14//16
f 12//18 6//16 8//18
f 7//15 17//13 13//15
f 14//26 18//26 7//26
f 14//16 8//18 6//16
f 10//20 19//20 8//18
f 20//23 15//23 9//21
f 15//26 16//26 5//26
f 19//25 9//25 12//25
f 16//22 21//22 10//20
f 11//25 13//25 22//25
f 18//14 14//16 11//14
f 12//18 8//18 19//20
f 23//13 13//15 17//13
f 7//26 18//26 17//26
f 19//20 10//20 21//22
f 15//23 20//23 24//24
f 20//25 9//25 19//25
f 24//26 16//26 15//26
f 21//22 16//22 25//24
f 13//25 23//25 22//25
f 11//14 22//9 18//14
f 17//13 26//7 23//13
f 18//26 27//26 17//26
f 21//25 20//25 19//25
f 25//24 24//24 20//23
f 24//24 25//24 16//22
f 25//25 20//25 21//25
f 22//25 23//25 28//25
f 27//9 18//14 22//9
f 29//7 23//13 26//7
f 17//26 27//26 26//26
f 23//25 29//25 28//25
f 22//9 28//4 27//9
f 29//7 26//7 30//6
f 27//26 31//26 26//26
f 28//25 29//25 32//25
f 31//4 27//9 28//4
f 33//6 30//6 26//7
f 29//25 30//25 32//25
f 26//26 31//26 33//26
f 28//4 32//1 31//4
f 33//6 34//8 30//6
f 32//25 30//25 35//25
f 31//26 36//26 33//26
f 36//1 31//4 32//1
f 37//8 30//6 34//8
f 33//26 36//26 34//26
f 30//25 37//25 35//25
f 32//1 35//2 36//1
f 37//8 34//8 38//10
f 36//26 39//26 34//26
f 35//25 37//25 40//25
f 39//2 36//1 35//2
f 41//10 38//10 34//8
f 37//25 38//25 40//25
f 34//26 39//26 41//26
f 40//3 42//3 35//2
f 39//2 35//2 42//3
f 38//10 41//10 43//11
f 40//25 38//25 44//25
f 39//26 42//26 41//26
f 42//3 40//3 45//5
f 46//11 43//11 41//10
f 38//25 43//25 44//25
f 44//5 45//5 40//3
f 41//26 42//26 46//26
f 42//26 45//26 46//26
f 43//11 46//11 47//12
f 47//25 44//25 43//25
f 45//5 44//5 48//12
f 48//26 46//26 45//26
f 48//12 47//12 46//11
f 47//12 48//12 44//5
usemtl material-2
f 6/1/26 1/2/26 3/3/26
f 4/4/25 8/5/25 2/6/25
f 2/6/25 10/7/25 5/8/25
f 11/9/26 1/2/26 6/1/26
f 6/1/26 3/3/26 12/10/26
f 7/11/25 14/12/25 4/4/25
f 4/4/25 14/12/25 8/5/25
f 2/6/25 8/5/25 10/7/25
f 12/10/26 3/3/26 9/13/26
f 5/8/25 10/7/25 16/14/25
f 11/9/26 13/15/26 1/2/26
f 7/11/25 18/16/25 14/12/25
f 5/8/25 16/14/25 15/17/25
f 12/10/26 9/13/26 19/18/26
f 22/19/26 13/15/26 11/9/26
f 17/20/25 18/16/25 7/11/25
f 19/18/26 9/13/26 20/21/26
f 15/17/25 16/14/25 24/22/25
f 22/19/26 23/23/26 13/15/26
f 17/20/25 27/24/25 18/16/25
f 19/18/26 20/21/26 21/25/26
f 21/25/26 20/21/26 25/26/26
f 28/27/26 23/23/26 22/19/26
f 26/28/25 27/24/25 17/20/25
f 28/27/26 29/29/26 23/23/26
f 26/28/25 31/30/25 27/24/25
f 32/31/26 29/29/26 28/27/26
f 32/31/26 30/32/26 29/29/26
f 33/33/25 31/30/25 26/28/25
f 35/34/26 30/32/26 32/31/26
f 33/33/25 36/35/25 31/30/25
f 34/36/25 36/35/25 33/33/25
f 35/34/26 37/37/26 30/32/26
f 34/36/25 39/38/25 36/35/25
f 40/39/26 37/37/26 35/34/26
f 40/39/26 38/40/26 37/37/26
f 41/41/25 39/38/25 34/36/25
f 44/42/26 38/40/26 40/39/26
f 41/41/25 42/43/25 39/38/25
f 44/42/26 43/44/26 38/40/26
f 46/45/25 42/43/25 41/41/25
f 46/45/25 45/46/25 42/43/25
f 43/44/26 44/42/26 47/47/26
f 45/46/25 46/45/25 48/48/25
usemtl material-3
f 49//27 50//28 51//28
f 50//28 49//27 52//27
f 53//29 51//28 50//28
f 55//30 52//27 49//27
f 51//28 53//29 57//29
f 52//27 55//30 61//30
f 63//31 57//29 53//29
f 59//32 56//33 54//33
f 60//34 61//34 55//34
f 56//33 59//32 58//32
f 57//29 63//31 66//31
f 65//35 54//33 56//33
f 54//33 65//35 64//35
f 61//34 60//34 62//34
f 59//32 67//36 58//32
f 70//37 66//31 63//31
f 64//35 69//38 68//38
f 69//38 64//35 65//35
f 66//31 70//37 75//37
f 68//38 74//39 72//39
f 74//39 68//38 69//38
f 70//37 78//40 75//37
f 72//39 79//41 76//41
f 79//41 72//39 74//39
f 76//42 73//42 77//42
f 73//42 76//42 79//42
usemtl material-4
f 51//44 50//44 49//45
f 52//45 49//45 50//44
f 50//44 51//44 53//46
f 49//47 54//47 51//47
f 49//45 52//45 55//48
f 52//49 50//49 56//49
f 57//46 53//46 51//44
f 53//49 58//49 50//49
f 59//47 51//47 54//47
f 49//47 60//47 54//47
f 61//48 55//48 52//45
f 55//47 60//47 49//47
f 58//49 56//49 50//49
f 52//49 56//49 62//49
f 53//46 57//46 63//50
f 57//47 51//47 59//47
f 63//49 58//49 53//49
f 54//51 56//51 59//52
f 54//47 60//47 64//47
f 55//42 61//42 60//42
f 61//49 52//49 62//49
f 58//52 59//52 56//51
f 56//49 65//49 62//49
f 66//50 63//50 57//46
f 66//47 57//47 59//47
f 67//49 58//49 63//49
f 56//51 54//51 65//53
f 64//47 60//47 68//47
f 64//53 65//53 54//51
f 62//42 60//42 61//42
f 58//52 67//54 59//52
f 65//49 69//49 62//49
f 63//50 66//50 70//55
f 71//47 66//47 59//47
f 70//49 67//49 63//49
f 68//47 60//47 72//47
f 68//56 69//56 64//53
f 65//53 64//53 69//56
f 60//57 73//57 62//57
f 62//43 73//43 60//43
f 69//49 74//49 62//49
f 75//55 70//55 66//50
f 75//47 66//47 71//47
f 72//47 60//47 76//47
f 72//58 74//58 68//56
f 69//56 68//56 74//58
f 73//57 60//57 77//57
f 77//43 60//43 73//43
f 62//49 74//49 73//49
f 75//55 78//59 70//55
f 78//47 75//47 71//47
f 77//47 76//47 60//47
f 76//60 79//60 72//58
f 74//58 72//58 79//60
f 77//34 73//34 76//34
f 79//49 73//49 74//49
f 79//34 76//34 73//34
usemtl material-5
f 51/49/49 54/50/49 49/51/49
f 56/52/47 50/53/47 52/54/47
f 50/53/47 58/55/47 53/56/47
f 54/50/49 51/49/49 59/57/49
f 54/50/49 60/58/49 49/51/49
f 49/51/49 60/58/49 55/59/49
f 50/53/47 56/52/47 58/55/47
f 62/60/47 56/52/47 52/54/47
f 59/57/49 51/49/49 57/61/49
f 53/56/47 58/55/47 63/62/47
f 64/63/49 60/58/49 54/50/49
f 62/60/47 52/54/47 61/64/47
f 62/60/47 65/65/47 56/52/47
f 59/57/49 57/61/49 66/66/49
f 63/62/47 58/55/47 67/67/47
f 68/68/49 60/58/49 64/63/49
f 62/60/47 69/69/47 65/65/47
f 59/57/49 66/66/49 71/70/49
f 63/62/47 67/67/47 70/71/47
f 72/72/49 60/58/49 68/68/49
f 62/60/47 74/73/47 69/69/47
f 71/70/49 66/66/49 75/74/49
f 76/75/49 60/58/49 72/72/49
f 73/76/47 74/73/47 62/60/47
f 71/70/49 75/74/49 78/77/49
f 60/58/49 76/75/49 77/78/49
f 74/73/47 73/76/47 79/79/47