mtllib new-1.mtl
v -0.058090 -0.595757 0.169893
v -0.036207 -0.595691 0.166137
v -0.043535 -0.595299 0.075995
v -0.058090 -0.662262 0.169893
v -0.039954 -0.595447 0.110563
v -0.043535 -0.662262 0.075995
v -0.041430 -0.595658 0.156379
v -0.039954 -0.617620 0.110563
v -0.044485 -0.595525 0.125527
v -0.041430 -0.617620 0.156379
v -0.514930 -0.662262 0.011818
v -0.044988 -0.595597 0.141154
v -0.044988 -0.617620 0.141154
v -0.514930 -0.662262 0.111439
v -0.514930 -0.617620 0.011818
v -0.044485 -0.617620 0.125527
v -0.521628 -0.662262 0.018443
v -0.522927 -0.617620 0.017706
v -0.521628 -0.662262 0.104814
v -0.514930 -0.617620 0.111439
v -0.522927 -0.662262 0.017706
v -0.527308 -0.662262 0.025959
v -0.522927 -0.617620 0.105551
v -0.522927 -0.662262 0.105551
v -0.529810 -0.662262 0.024863
v -0.529810 -0.617620 0.024863
v -0.527308 -0.662262 0.097298
v -0.529810 -0.617620 0.098394
v -0.535381 -0.617620 0.033082
v -0.528244 -0.662262 0.027659
v -0.535381 -0.617620 0.090175
v -0.535381 -0.662262 0.033082
v -0.539480 -0.617620 0.042127
v -0.531851 -0.662262 0.034211
v -0.539480 -0.617620 0.081130
v -0.529810 -0.662262 0.098394
v -0.539480 -0.662262 0.042127
v -0.541988 -0.617620 0.051735
v -0.528244 -0.662262 0.095598
v -0.541988 -0.617620 0.071522
v -0.535381 -0.662262 0.090175
v -0.541988 -0.662262 0.051735
v -0.542832 -0.617620 0.061628
v -0.531851 -0.662262 0.089046
v -0.539480 -0.662262 0.081130
v -0.542832 -0.662262 0.061628
v -0.535166 -0.662262 0.043030
v -0.541988 -0.662262 0.071522
v -0.535166 -0.662262 0.080227
v -0.537182 -0.662262 0.052232
v -0.537182 -0.662262 0.071025
v -0.537859 -0.662262 0.061628
vn 0.911084 0.000000 0.412221
vn -0.911084 0.000000 -0.412221
vn 0.986730 0.000000 0.162369
vn -0.986730 0.000000 -0.162369
vn 0.995132 0.000000 -0.098548
vn -0.995132 0.000000 0.098548
vn -0.002923 0.999996 0.000523
vn 0.002923 -0.999996 -0.000523
vn 0.935718 0.000000 -0.352749
vn -0.935718 0.000000 0.352749
vn 0.001118 -0.999997 -0.002266
vn 0.002235 -0.999987 -0.004531
vn -0.001118 0.999997 0.002266
vn -0.002235 0.999987 0.004531
vn 0.000000 1.000000 0.000000
vn 0.000000 -1.000000 0.000000
vn 0.701518 0.529344 -0.477145
vn -0.701518 -0.529344 0.477145
vn 0.685795 0.681112 -0.256459
vn -0.685795 -0.681112 0.256459
vn 0.698316 0.545880 0.463000
vn -0.698316 -0.545880 -0.463000
vn 0.929375 0.369130 0.002126
vn -0.929375 -0.369130 -0.002126
vn 0.725585 0.609900 0.318667
vn -0.725585 -0.609900 -0.318667
vn 0.947676 0.283844 0.146090
vn -0.947676 -0.283844 -0.146090
vn -0.667151 0.658807 0.347682
vn -0.549771 0.646897 -0.528466
vn -0.217475 0.474803 -0.852800
vn -0.330358 0.458929 0.824771
vn -0.194034 0.721031 -0.665180
vn -0.054746 0.995212 0.080964
vn 0.062297 0.707723 -0.703738
vn -0.477219 0.689715 -0.544569
vn -0.343863 0.440175 0.829460
vn -0.659229 0.000000 -0.751942
vn -0.484535 0.677271 0.553651
vn -0.659229 0.000000 0.751942
vn -0.777068 0.000000 -0.629417
vn -0.561451 0.691263 -0.454894
vn -0.566835 0.683709 0.459610
vn -0.629638 0.692186 -0.352753
vn -0.633450 0.687496 0.355093
vn -0.872450 0.000000 -0.488703
vn -0.679904 0.692625 -0.240833
vn -0.682351 0.689863 0.241839
vn -0.777068 0.000000 0.629417
vn -0.942621 0.000000 -0.333866
vn -0.710863 0.692641 -0.122156
vn -0.712060 0.691355 0.122471
vn -0.872450 0.000000 0.488703
vn -0.985551 0.000000 -0.169380
vn -0.721671 0.692236 0.000051
vn -0.942621 0.000000 0.333866
vn -1.000000 0.000000 0.000000
vn -0.985551 0.000000 0.169380
vn 0.667151 -0.658807 -0.347682
vn 0.549771 -0.646897 0.528466
vn 0.217475 -0.474803 0.852800
vn 0.330358 -0.458929 -0.824771
vn 0.194034 -0.721031 0.665180
vn 0.054746 -0.995212 -0.080964
vn -0.062297 -0.707723 0.703738
vn 0.477219 -0.689715 0.544569
vn 0.343863 -0.440175 -0.829460
vn 0.659229 0.000000 0.751942
vn 0.484535 -0.677271 -0.553651
vn 0.659229 0.000000 -0.751942
vn 0.777068 0.000000 0.629417
vn 0.561451 -0.691263 0.454894
vn 0.566835 -0.683709 -0.459610
vn 0.629638 -0.692186 0.352753
vn 0.633450 -0.687496 -0.355093
vn 0.872450 0.000000 0.488703
vn 0.679904 -0.692625 0.240833
vn 0.682351 -0.689863 -0.241839
vn 0.777068 0.000000 -0.629417
vn 0.942621 0.000000 0.333866
vn 0.710863 -0.692641 0.122156
vn 0.712060 -0.691355 -0.122471
vn 0.872450 0.000000 -0.488703
vn 0.985551 0.000000 0.169380
vn 0.721671 -0.692236 -0.000051
vn 0.942621 0.000000 -0.333866
vn 1.000000 0.000000 0.000000
vn 0.985551 0.000000 -0.169380
vt 1.291665 4.666623
vt 3.219714 3.607206
vt 3.125856 3.001708
vt 1.427476 4.377457
vt 0.179921 4.021052
vt 1.533158 4.207754
vt 1.475364 4.082071
vt 1.469146 4.285649
vt 0.179921 3.378647
vt 0.364156 1.295434
vt -2.703678 1.007560
vt 0.364156 1.007560
vt 0.136730 3.978332
vt 2.719608 1.436418
vt -0.250343 1.007560
vt 2.719608 1.007560
vt -2.703678 1.439371
vt -2.529084 1.007560
vt -2.465051 1.295434
vt -2.529084 1.295434
vt -3.767338 3.095128
vt -4.024990 0.034746
vt -3.157828 3.032328
vt 0.136730 3.421367
vt -0.250343 1.295434
vt -2.465051 1.007560
vt -4.296910 -0.484123
vt -2.529084 -3.055554
vt -2.465051 -3.055554
vt 0.100107 3.929864
vt 0.737307 4.389975
vt -1.922450 2.939905
vt -1.858418 2.939905
vt -1.858418 1.295434
vt -1.922450 1.007560
vt -1.858418 1.007560
vt -2.895779 1.007560
vt -2.959811 1.295434
vt -2.959811 1.007560
vt -4.330307 0.243221
vt -2.959811 -2.601020
vt -2.895779 -2.601020
vt 0.100107 3.469835
vt 0.003306 4.429327
vt -2.437602 2.551171
vt -2.373570 2.551171
vt -1.922450 1.295434
vt -2.895779 1.295434
vt -4.238565 0.968729
vt -3.305930 -2.077214
vt -3.241898 -2.077214
vt 0.094070 3.918900
vt -0.730789 4.352841
vt -2.883236 2.089209
vt -2.819204 2.089209
vt -2.437602 1.295434
vt -2.373570 1.007560
vt -2.373570 1.295434
vt -3.241898 1.007560
vt -3.305930 1.295434
vt -3.305930 1.007560
vt -3.241898 1.295434
vt -4.024335 1.670369
vt -3.557438 -1.500296
vt -3.493406 -1.500296
vt 0.070807 3.876648
vt -1.443766 4.158171
vt -3.246474 1.563163
vt -3.182442 1.563163
vt -2.883236 1.295434
vt -2.819204 1.007560
vt -2.819204 1.295434
vt -2.437602 1.007560
vt -3.493406 1.007560
vt -3.557438 1.295434
vt -3.557438 1.007560
vt -3.493406 1.295434
vt -3.693808 2.327310
vt -3.707067 -0.887474
vt -3.643035 -0.887474
vt -2.115021 3.848735
vt -3.516820 0.986183
vt -3.452788 0.986183
vt -3.246474 1.295434
vt -3.182442 1.007560
vt -3.182442 1.295434
vt -2.883236 1.007560
vt -3.643035 1.007560
vt -3.707067 1.295434
vt -3.707067 1.007560
vt -3.643035 1.295434
vt -3.256536 2.920331
vt -3.750493 -0.256683
vt -3.686460 -0.256683
vt -2.725155 3.432314
vt -3.686460 0.373859
vt -3.622428 0.373859
vt -3.516820 1.295434
vt -3.452788 1.007560
vt -3.452788 1.295434
vt -3.246474 1.007560
vt -3.686460 1.007560
vt -3.750493 1.295434
vt -3.750493 1.007560
vt -3.686460 1.295434
vt -3.622428 1.007560
vt -3.622428 1.295434
vt -3.516820 1.007560
usemtl material-0
f 5//14 7//14 2//7
f 2//8 7//12 5//12
f 9//14 7//14 5//14
f 5//12 7//12 9//12
f 8//2 9//4 5//2
f 5//1 9//3 8//1
f 9//12 12//12 3//11
f 13//23 1//17 10//19
f 10//20 1//18 13//24
f 7//14 9//14 12//14
f 12//12 9//12 7//12
f 12//12 7//12 1//8
f 7//10 13//6 10//10
f 10//9 13//5 7//9
f 9//4 8//2 16//4
f 16//3 8//1 9//3
f 1//8 3//11 12//12
f 9//4 13//6 12//6
f 12//5 13//5 9//3
f 3//21 1//17 13//23
f 13//24 1//18 3//22
f 13//6 7//10 12//6
f 12//5 7//9 13//5
f 3//21 16//27 8//25
f 8//26 16//28 3//22
f 13//6 9//4 16//4
f 16//3 9//3 13//5
f 3//21 13//23 16//27
f 16//28 13//24 3//22
f 34//15 39//15 27//15
f 27//16 39//16 34//16
f 34//15 44//15 39//15
f 39//16 44//16 34//16
f 47//15 44//15 34//15
f 34//16 44//16 47//16
f 47//15 49//15 44//15
f 44//16 49//16 47//16
f 50//15 49//15 47//15
f 47//16 49//16 50//16
f 50//15 51//15 49//15
f 49//16 51//16 50//16
f 51//15 50//15 52//15
f 52//16 50//16 51//16
usemtl material-1
f 11/5/31 4/3/29 6/2/30
f 3/1/13 12/8/14 9/4/14
f 11/5/31 14/9/32 4/3/29
f 15/10/33 6/11/30 11/12/31
f 1/7/7 7/6/14 12/8/14
f 12/8/14 3/1/13 1/7/7
f 17/13/15 14/9/32 11/5/31
f 1/14/34 14/15/32 4/16/29
f 6/11/30 15/10/33 3/17/35
f 11/18/31 18/19/36 15/20/33
f 3/21/35 15/22/33 1/23/34
f 17/13/15 19/24/15 14/9/32
f 14/15/32 1/14/34 20/25/37
f 18/19/36 11/18/31 21/26/38
f 1/27/34 15/28/33 18/29/36
f 22/30/15 19/24/15 17/13/15
f 1/31/34 23/32/39 20/33/37
f 20/34/37 24/35/40 14/36/32
f 25/37/41 18/38/36 21/39/38
f 1/40/34 18/41/36 26/42/42
f 22/30/15 27/43/15 19/24/15
f 1/44/34 28/45/43 23/46/39
f 24/35/40 20/34/37 23/47/39
f 18/38/36 25/37/41 26/48/42
f 1/49/34 26/50/42 29/51/44
f 30/52/15 27/43/15 22/30/15
f 1/53/34 31/54/45 28/55/43
f 28/56/43 24/57/40 23/58/39
f 32/59/46 26/60/42 25/61/41
f 26/60/42 32/59/46 29/62/44
f 1/63/34 29/64/44 33/65/47
f 27/43/15 30/52/15 34/66/15
f 1/67/34 35/68/48 31/69/45
f 31/70/45 36/71/49 28/72/43
f 24/57/40 28/56/43 36/73/49
f 37/74/50 29/75/44 32/76/46
f 29/75/44 37/74/50 33/77/47
f 1/78/34 33/79/47 38/80/51
f 1/81/34 40/82/52 35/83/48
f 35/84/48 41/85/53 31/86/45
f 36/71/49 31/70/45 41/87/53
f 42/88/54 33/89/47 37/90/50
f 33/89/47 42/88/54 38/91/51
f 1/92/34 38/93/51 43/94/55
f 1/95/34 43/96/55 40/97/52
f 40/98/52 45/99/56 35/100/48
f 41/85/53 35/84/48 45/101/56
f 46/102/57 38/103/51 42/104/54
f 38/103/51 46/102/57 43/105/55
f 43/105/55 48/106/58 40/107/52
f 45/99/56 40/98/52 48/108/58
f 48/106/58 43/105/55 46/102/57
usemtl material-2
f 6//60 4//59 11//61
f 4//59 14//62 11//61
f 11//61 6//60 15//63
f 11//61 14//62 17//16
f 4//59 14//62 1//64
f 3//65 15//63 6//60
f 15//63 18//66 11//61
f 1//64 15//63 3//65
f 14//62 19//16 17//16
f 20//67 1//64 14//62
f 21//68 11//61 18//66
f 18//66 15//63 1//64
f 17//16 19//16 22//16
f 20//67 23//69 1//64
f 14//62 24//70 20//67
f 21//68 18//66 25//71
f 26//72 18//66 1//64
f 19//16 27//16 22//16
f 23//69 28//73 1//64
f 23//69 20//67 24//70
f 26//72 25//71 18//66
f 29//74 26//72 1//64
f 22//16 27//16 30//16
f 28//73 31//75 1//64
f 23//69 24//70 28//73
f 25//71 26//72 32//76
f 29//74 32//76 26//72
f 33//77 29//74 1//64
f 34//16 30//16 27//16
f 31//75 35//78 1//64
f 28//73 36//79 31//75
f 36//79 28//73 24//70
f 32//76 29//74 37//80
f 33//77 37//80 29//74
f 38//81 33//77 1//64
f 35//78 40//82 1//64
f 31//75 41//83 35//78
f 41//83 31//75 36//79
f 37//80 33//77 42//84
f 38//81 42//84 33//77
f 43//85 38//81 1//64
f 40//82 43//85 1//64
f 35//78 45//86 40//82
f 45//86 35//78 41//83
f 42//84 38//81 46//87
f 43//85 46//87 38//81
f 40//82 48//88 43//85
f 48//88 40//82 45//86
f 46//87 43//85 48//88