# SSTK version 0.8.0
# 34
mtllib original-34.mtl
o Group27/mesh73/mesh73-geometry#mesh73-geometry
v -0.191628 -0.141998 0.327444
v -0.191628 -0.143329 -0.043950
v -0.191628 -0.143329 0.319868
v -0.191628 -0.141998 -0.051526
v 0.226892 -0.143329 -0.043950
v 0.226892 -0.143329 0.319868
v -0.191628 -0.138095 0.334504
v 0.226892 -0.141998 0.327444
v 0.226892 -0.138095 0.334504
v -0.191628 -0.138095 -0.058586
v 0.226892 -0.141998 -0.051526
v 0.226892 -0.131888 0.340567
v -0.191628 -0.131888 0.340567
v 0.226892 -0.138095 -0.058586
v 0.226892 -0.131888 -0.064649
v -0.191628 -0.131888 -0.064649
v -0.191628 -0.123798 0.345219
v 0.226892 -0.123798 -0.069301
v 0.226892 -0.123798 0.345219
v -0.191628 -0.123798 -0.069301
v -0.191628 -0.114377 0.348143
v 0.226892 -0.114377 -0.072225
v 0.226892 -0.114377 0.348143
v -0.191628 -0.114377 -0.072225
v -0.191628 -0.104267 0.349140
v 0.226892 -0.104267 -0.073223
v 0.226892 -0.104267 0.349140
v -0.191628 -0.104267 -0.073223
v -0.191628 -0.094157 0.348143
v 0.226892 -0.094157 -0.072225
v 0.226892 -0.094157 0.348143
v -0.191628 -0.094157 -0.072225
v -0.191628 -0.084736 0.345219
v 0.226892 -0.084736 -0.069301
v 0.226892 -0.084736 0.345219
v -0.191628 -0.084736 -0.069301
v -0.191628 -0.076646 0.340567
v 0.226892 -0.076646 -0.064649
v -0.191628 -0.076646 -0.064649
v 0.226892 -0.076646 0.340567
v 0.226892 -0.070438 0.334504
v -0.191628 -0.070438 0.334504
v 0.226892 -0.070438 -0.058586
v -0.191628 -0.070438 -0.058586
v 0.226892 -0.066536 0.327444
v 0.226892 -0.066536 -0.051526
v -0.191628 -0.066536 0.327444
v -0.191628 -0.066536 -0.051526
v 0.226892 -0.065205 0.319868
v 0.226892 -0.065205 -0.043950
v -0.191628 -0.065205 0.319868
v -0.191628 -0.065205 -0.043950
vn -1 0 0
vn 1 0 0
vn 0 -1 0
vn 0 1 0
vn 0 -0.9951683733310166 0.09818303683273476
vn 0 -0.9804296167501377 0.1968699230435619
vn 0 0.9951683733310166 -0.09818303683273476
vn 0 0.9804296167501377 -0.1968699230435619
vn 0 -0.9804296167501377 -0.19686992304356235
vn 0 -0.9951683733310166 -0.0981830368327352
vn 0 0.9951683733310166 0.0981830368327352
vn 0 0.9804296167501377 0.19686992304356235
vn 0 -0.9177800907129299 0.3970890392480838
vn 0 0.9177800907129299 -0.3970890392480838
vn 0 -0.8002326197339508 0.5996897150308131
vn 0 0.8002326197339508 -0.5996897150308131
vn 0 -0.9177800907129297 -0.39708903924808425
vn 0 0.9177800907129297 0.39708903924808425
vn 0 -0.6103041439387238 0.7921671868306724
vn 0 0.6103041439387238 -0.7921671868306724
vn 0 -0.8002326197339505 -0.5996897150308136
vn 0 0.8002326197339505 0.5996897150308136
vn 0 -0.6103041439387235 -0.7921671868306729
vn 0 0.6103041439387235 0.7921671868306729
vn 0 -0.33668003980214856 0.9416191113177471
vn 0 0.33668003980214856 -0.9416191113177471
vn 0 -0.33668003980214806 -0.9416191113177471
vn 0 0.33668003980214806 0.9416191113177471
vn 0 0 1
vn 0 0 -1
usemtl material_0_0
f 1//1 2//1 3//1
f 2//1 1//1 4//1
f 3//2 2//2 1//2
f 4//2 1//2 2//2
f 5//3 3//3 2//3
f 2//4 3//4 5//4
f 6//5 1//6 3//5
f 3//7 1//8 6//7
f 4//1 1//1 7//1
f 7//2 1//2 4//2
f 4//9 5//10 2//10
f 2//11 5//11 4//12
f 3//3 5//3 6//3
f 6//4 5//4 3//4
f 1//6 6//5 8//6
f 8//8 6//7 1//8
f 1//6 9//13 7//13
f 7//14 9//14 1//8
f 4//1 7//1 10//1
f 10//2 7//2 4//2
f 5//10 4//9 11//9
f 11//12 4//12 5//11
f 11//2 6//2 5//2
f 5//1 6//1 11//1
f 6//2 11//2 8//2
f 8//1 11//1 6//1
f 9//13 1//6 8//6
f 8//8 1//8 9//14
f 12//15 7//13 9//13
f 9//14 7//14 12//16
f 10//1 7//1 13//1
f 13//2 7//2 10//2
f 10//17 11//9 4//9
f 4//12 11//12 10//18
f 8//2 11//2 14//2
f 14//1 11//1 8//1
f 8//2 14//2 9//2
f 9//1 14//1 8//1
f 7//13 12//15 13//15
f 13//16 12//16 7//14
f 9//2 15//2 12//2
f 12//1 15//1 9//1
f 10//1 13//1 16//1
f 16//2 13//2 10//2
f 11//9 10//17 14//17
f 14//18 10//18 11//12
f 9//2 14//2 15//2
f 15//1 14//1 9//1
f 12//15 17//19 13//15
f 13//16 17//20 12//16
f 12//2 15//2 18//2
f 18//1 15//1 12//1
f 16//1 13//1 17//1
f 17//2 13//2 16//2
f 16//21 14//17 10//17
f 10//18 14//18 16//22
f 14//17 16//21 15//21
f 15//22 16//22 14//18
f 17//19 12//15 19//19
f 19//20 12//16 17//20
f 16//21 18//23 15//21
f 15//22 18//24 16//22
f 12//2 18//2 19//2
f 19//1 18//1 12//1
f 16//1 17//1 20//1
f 20//2 17//2 16//2
f 19//19 21//25 17//19
f 17//20 21//26 19//20
f 18//23 16//21 20//23
f 20//24 16//22 18//24
f 19//2 18//2 22//2
f 22//1 18//1 19//1
f 20//1 17//1 21//1
f 21//2 17//2 20//2
f 21//25 19//19 23//25
f 23//26 19//20 21//26
f 20//23 22//27 18//23
f 18//24 22//28 20//24
f 19//2 22//2 23//2
f 23//1 22//1 19//1
f 20//1 21//1 24//1
f 24//2 21//2 20//2
f 23//25 25//29 21//25
f 21//26 25//30 23//26
f 22//27 20//23 24//27
f 24//28 20//24 22//28
f 23//2 22//2 26//2
f 26//1 22//1 23//1
f 24//1 21//1 25//1
f 25//2 21//2 24//2
f 25//29 23//25 27//29
f 27//30 23//26 25//30
f 24//27 26//30 22//27
f 22//28 26//29 24//28
f 23//2 26//2 27//2
f 27//1 26//1 23//1
f 24//1 25//1 28//1
f 28//2 25//2 24//2
f 27//29 29//28 25//29
f 25//30 29//27 27//30
f 26//30 24//27 28//30
f 28//29 24//28 26//29
f 27//2 26//2 30//2
f 30//1 26//1 27//1
f 28//1 25//1 29//1
f 29//2 25//2 28//2
f 29//28 27//29 31//28
f 31//27 27//30 29//27
f 28//30 30//26 26//30
f 26//29 30//25 28//29
f 27//2 30//2 31//2
f 31//1 30//1 27//1
f 28//1 29//1 32//1
f 32//2 29//2 28//2
f 31//28 33//24 29//28
f 29//27 33//23 31//27
f 30//26 28//30 32//26
f 32//25 28//29 30//25
f 31//2 30//2 34//2
f 34//1 30//1 31//1
f 32//1 29//1 33//1
f 33//2 29//2 32//2
f 33//24 31//28 35//24
f 35//23 31//27 33//23
f 32//26 34//20 30//26
f 30//25 34//19 32//25
f 31//2 34//2 35//2
f 35//1 34//1 31//1
f 32//1 33//1 36//1
f 36//2 33//2 32//2
f 35//24 37//22 33//24
f 33//23 37//21 35//23
f 34//20 32//26 36//20
f 36//19 32//25 34//19
f 35//2 34//2 38//2
f 38//1 34//1 35//1
f 36//1 33//1 39//1
f 39//2 33//2 36//2
f 37//22 35//24 40//22
f 40//21 35//23 37//21
f 39//1 33//1 37//1
f 37//2 33//2 39//2
f 36//20 38//16 34//20
f 34//19 38//15 36//19
f 35//2 38//2 40//2
f 40//1 38//1 35//1
f 38//16 36//20 39//16
f 39//15 36//19 38//15
f 41//18 37//22 40//22
f 40//21 37//21 41//17
f 39//1 37//1 42//1
f 42//2 37//2 39//2
f 40//2 38//2 43//2
f 43//1 38//1 40//1
f 39//16 43//14 38//16
f 38//15 43//13 39//15
f 37//22 41//18 42//18
f 42//17 41//17 37//21
f 40//2 43//2 41//2
f 41//1 43//1 40//1
f 39//1 42//1 44//1
f 44//2 42//2 39//2
f 43//14 39//16 44//14
f 44//13 39//15 43//13
f 45//12 42//18 41//18
f 41//17 42//17 45//9
f 41//2 43//2 46//2
f 46//1 43//1 41//1
f 44//1 42//1 47//1
f 47//2 42//2 44//2
f 44//14 46//8 43//14
f 43//13 46//6 44//13
f 42//18 45//12 47//12
f 47//9 45//9 42//17
f 41//2 46//2 45//2
f 45//1 46//1 41//1
f 44//1 47//1 48//1
f 48//2 47//2 44//2
f 46//8 44//14 48//8
f 48//6 44//13 46//6
f 49//11 47//12 45//12
f 45//9 47//9 49//10
f 45//2 46//2 50//2
f 50//1 46//1 45//1
f 48//1 47//1 51//1
f 51//2 47//2 48//2
f 52//7 46//8 48//8
f 48//6 46//6 52//5
f 47//12 49//11 51//11
f 51//10 49//10 47//9
f 45//2 50//2 49//2
f 49//1 50//1 45//1
f 46//8 52//7 50//7
f 50//5 52//5 46//6
f 48//1 51//1 52//1
f 52//2 51//2 48//2
f 50//4 51//4 49//4
f 49//3 51//3 50//3
f 51//4 50//4 52//4
f 52//3 50//3 51//3
