# SSTK version 0.8.0
# 21
mtllib original-21.mtl
o mesh28/mesh28-geometry#mesh28-geometry
v -0.320022 -0.116527 0.268977
v -0.178599 -0.094720 0.230233
v -0.320324 -0.115143 0.268600
v -0.178298 -0.096104 0.230610
v -0.320656 -0.113965 0.268001
v -0.178047 -0.097600 0.230738
v -0.178931 -0.093542 0.229633
v -0.319772 -0.118023 0.269106
v -0.179271 -0.092650 0.228852
v -0.177865 -0.099106 0.230610
v -0.320996 -0.113073 0.267219
v -0.319590 -0.119529 0.268977
v -0.321321 -0.112528 0.266309
v -0.177763 -0.100519 0.230233
v -0.179596 -0.092106 0.227942
v -0.319488 -0.120942 0.268600
v -0.321608 -0.112368 0.265333
v -0.319474 -0.122166 0.268001
v -0.179884 -0.091945 0.226965
v -0.177749 -0.101744 0.229633
v -0.180114 -0.092180 0.225989
v -0.319548 -0.123118 0.267219
v -0.321839 -0.112603 0.264356
v -0.177824 -0.102695 0.228852
v -0.321996 -0.113217 0.263446
v -0.177982 -0.103309 0.227942
v -0.180272 -0.092794 0.225079
v -0.319706 -0.123732 0.266309
v -0.180346 -0.093746 0.224297
v -0.178212 -0.103544 0.226965
v -0.322071 -0.114169 0.262665
v -0.319937 -0.123967 0.265333
v -0.180332 -0.094970 0.223698
v -0.320224 -0.123807 0.264356
v -0.322057 -0.115393 0.262065
v -0.178500 -0.103384 0.225989
v -0.180231 -0.096383 0.223321
v -0.178824 -0.102839 0.225079
v -0.321955 -0.116806 0.261688
v -0.320549 -0.123262 0.263446
v -0.321773 -0.118312 0.261560
v -0.320889 -0.122370 0.262665
v -0.180049 -0.097889 0.223192
v -0.179164 -0.101947 0.224297
v -0.321523 -0.119808 0.261688
v -0.321221 -0.121192 0.262065
v -0.179798 -0.099385 0.223321
v -0.179497 -0.100769 0.223698
vn 0.18450199640553214 0.40336799214158464 0.896243982539375
vn 0.10027600925682982 0.6758660623915645 0.7301710674046501
vn -0.10027600925682982 -0.6758660623915645 -0.7301710674046501
vn -0.18450199640553214 -0.40336799214158464 -0.896243982539375
vn 0.023425011016480746 0.8440203969319137 0.5357992519794823
vn -0.023425011016480746 -0.8440203969319137 -0.5357992519794823
vn 0.256172953808178 0.03691499334367337 0.9659258258291005
vn -0.256172953808178 -0.03691499334367337 -0.9659258258291005
vn -0.04108901373632667 0.9369753132369898 0.34697111599471897
vn 0.04108901373632667 -0.9369753132369898 -0.34697111599471897
vn 0.29088298171495086 -0.3348639789502837 0.8962439436616593
vn -0.29088298171495086 0.3348639789502837 -0.8962439436616593
vn -0.09535901470121434 0.9808441512138119 0.1698570261863504
vn 0.09535901470121434 -0.9808441512138119 -0.1698570261863504
vn 0.2870211511587245 -0.6200553265500537 0.7301713845423052
vn -0.2870211511587245 0.6200553265500537 -0.7301713845423052
vn -0.14262903124881182 0.9897762168515798 0
vn 0.14262903124881182 -0.9897762168515798 0
vn 0.26077396688614146 -0.8030668980241626 0.5357989319626484
vn -0.26077396688614146 0.8030668980241626 -0.5357989319626484
vn -0.18545404618863418 0.9678612410526473 -0.16985704230409046
vn 0.18545404618863418 -0.9678612410526473 0.16985704230409046
vn 0.225128972026939 -0.9104548868728007 0.3469709568876466
vn -0.225128972026939 0.9104548868728007 -0.3469709568876466
usemtl material_0_0
f 1//1 2//2 3//2
f 2//2 1//1 4//1
f 3//3 2//3 1//4
f 4//4 1//4 2//3
f 2//2 5//5 3//2
f 3//3 5//6 2//3
f 1//1 6//7 4//1
f 4//4 6//8 1//4
f 5//5 2//2 7//5
f 7//6 2//3 5//6
f 6//7 1//1 8//7
f 8//8 1//4 6//8
f 9//9 5//5 7//5
f 7//6 5//6 9//10
f 8//7 10//11 6//7
f 6//8 10//12 8//8
f 5//5 9//9 11//9
f 11//10 9//10 5//6
f 10//11 8//7 12//11
f 12//12 8//8 10//12
f 9//9 13//13 11//9
f 11//10 13//14 9//10
f 12//11 14//15 10//11
f 10//12 14//16 12//12
f 13//13 9//9 15//13
f 15//14 9//10 13//14
f 14//15 12//11 16//15
f 16//16 12//12 14//16
f 15//13 17//17 13//13
f 13//14 17//18 15//14
f 18//19 14//15 16//15
f 16//16 14//16 18//20
f 17//17 15//13 19//17
f 19//18 15//14 17//18
f 14//15 18//19 20//19
f 20//20 18//20 14//16
f 21//21 17//17 19//17
f 19//18 17//18 21//22
f 22//23 20//19 18//19
f 18//20 20//20 22//24
f 17//17 21//21 23//21
f 23//22 21//22 17//18
f 20//19 22//23 24//23
f 24//24 22//24 20//20
f 21//21 25//24 23//21
f 23//22 25//23 21//22
f 22//23 26//22 24//23
f 24//24 26//21 22//24
f 25//24 21//21 27//24
f 27//23 21//22 25//23
f 26//22 22//23 28//22
f 28//21 22//24 26//21
f 29//20 25//24 27//24
f 27//23 25//23 29//19
f 28//22 30//18 26//22
f 26//21 30//17 28//21
f 25//24 29//20 31//20
f 31//19 29//19 25//23
f 30//18 28//22 32//18
f 32//17 28//21 30//17
f 33//16 31//20 29//20
f 29//19 31//19 33//15
f 34//14 30//18 32//18
f 32//17 30//17 34//13
f 31//20 33//16 35//16
f 35//15 33//15 31//19
f 30//18 34//14 36//14
f 36//13 34//13 30//17
f 37//12 35//16 33//16
f 33//15 35//15 37//11
f 34//14 38//10 36//14
f 36//13 38//9 34//13
f 35//16 37//12 39//12
f 39//11 37//11 35//15
f 38//10 34//14 40//10
f 40//9 34//13 38//9
f 37//12 41//8 39//12
f 39//11 41//7 37//11
f 42//6 38//10 40//10
f 40//9 38//9 42//5
f 41//8 37//12 43//8
f 43//7 37//11 41//7
f 38//10 42//6 44//6
f 44//5 42//5 38//9
f 43//8 45//4 41//8
f 41//7 45//1 43//7
f 46//3 44//6 42//6
f 42//5 44//5 46//2
f 45//4 43//8 47//4
f 47//1 43//7 45//1
f 44//6 46//3 48//3
f 48//2 46//2 44//5
f 48//3 45//4 47//4
f 47//1 45//1 48//2
f 45//4 48//3 46//3
f 46//2 48//2 45//1
