# SSTK version 0.8.0
# 30
mtllib original-30.mtl
o Group23/mesh54/mesh54-geometry#mesh54-geometry
v 0.474996 -0.713722 -0.124567
v 0.419194 -0.726435 -0.134322
v 0.419194 -0.713722 -0.124567
v 0.474996 -0.726435 -0.134322
v 0.385712 -0.726435 -0.134322
v 0.419194 -0.713722 -0.037759
v 0.419194 -0.703967 -0.111855
v 0.508478 -0.713722 -0.124567
v 0.419194 -0.741239 -0.140455
v 0.385712 -0.713722 -0.124567
v 0.385712 -0.741239 -0.140455
v 0.419194 -0.703967 -0.050472
v 0.419194 -0.726435 -0.028004
v 0.474996 -0.703967 -0.111855
v 0.385712 -0.703967 -0.111855
v 0.508478 -0.726435 -0.134322
v 0.474996 -0.741239 -0.140455
v 0.385712 -0.713722 -0.037759
v 0.385712 -0.726435 -0.028004
v 0.474996 -0.703967 -0.050472
v 0.474996 -0.726435 -0.028004
v 0.419194 -0.697835 -0.097050
v 0.385712 -0.697835 -0.097050
v 0.419194 -0.697835 -0.065276
v 0.508478 -0.726435 -0.028004
v 0.508478 -0.703967 -0.111855
v 0.419194 -0.757126 -0.142546
v 0.419194 -0.741239 -0.021872
v 0.385712 -0.757126 -0.142546
v 0.385712 -0.703967 -0.050472
v 0.385712 -0.741239 -0.021872
v 0.474996 -0.713722 -0.037759
v 0.474996 -0.697835 -0.065276
v 0.474996 -0.697835 -0.097050
v 0.385712 -0.697835 -0.065276
v 0.508478 -0.713722 -0.037759
v 0.508478 -0.741239 -0.021872
v 0.508478 -0.741239 -0.140455
v 0.474996 -0.757126 -0.142546
v 0.508478 -0.703967 -0.050472
v 0.508478 -0.697835 -0.065276
v 0.474996 -0.741239 -0.021872
v 0.419194 -0.695743 -0.081163
v 0.385712 -0.695743 -0.081163
v 0.474996 -0.695743 -0.081163
v 0.508478 -0.697835 -0.097050
v 0.474996 -0.773013 -0.140455
v 0.419194 -0.773013 -0.140455
v 0.419194 -0.757126 -0.019780
v 0.385712 -0.757126 -0.019780
v 0.508478 -0.695743 -0.081163
v 0.474996 -0.757126 -0.019780
v 0.508478 -0.757126 -0.019780
v 0.508478 -0.757126 -0.142546
v 0.508478 -0.773013 -0.140455
v 0.385712 -0.773013 -0.140455
v 0.419194 -0.787818 -0.134322
v 0.474996 -0.787818 -0.134322
v 0.385712 -0.787818 -0.134322
v 0.419194 -0.773013 -0.021872
v 0.474996 -0.773013 -0.021872
v 0.385712 -0.773013 -0.021872
v 0.508478 -0.773013 -0.021872
v 0.508478 -0.787818 -0.134322
v 0.508478 -0.787818 -0.028004
v 0.419194 -0.800531 -0.124567
v 0.385712 -0.800531 -0.124567
v 0.419194 -0.787818 -0.028004
v 0.474996 -0.800531 -0.124567
v 0.385712 -0.787818 -0.028004
v 0.474996 -0.787818 -0.028004
v 0.508478 -0.800531 -0.037759
v 0.508478 -0.800531 -0.124567
v 0.474996 -0.810285 -0.111855
v 0.419194 -0.810285 -0.111855
v 0.419194 -0.800531 -0.037759
v 0.385712 -0.800531 -0.037759
v 0.474996 -0.800531 -0.037759
v 0.508478 -0.810285 -0.111855
v 0.385712 -0.810285 -0.111855
v 0.508478 -0.810285 -0.050472
v 0.474996 -0.816418 -0.097050
v 0.508478 -0.816418 -0.097050
v 0.419194 -0.816418 -0.097050
v 0.419194 -0.810285 -0.050472
v 0.385712 -0.810285 -0.050472
v 0.474996 -0.810285 -0.050472
v 0.508478 -0.816418 -0.065276
v 0.385712 -0.816418 -0.097050
v 0.474996 -0.816418 -0.065276
v 0.474996 -0.818509 -0.081163
v 0.508478 -0.818509 -0.081163
v 0.419194 -0.818509 -0.081163
v 0.419194 -0.816418 -0.065276
v 0.385712 -0.816418 -0.065276
v 0.385712 -0.818509 -0.081163
vn 0 0.7071067811865478 -0.7071067811865476
vn 0 0.500000174843842 -0.8660253028382761
vn 0 -0.7071067811865478 0.7071067811865476
vn 0 -0.500000174843842 0.8660253028382761
vn -1 0 0
vn 1 0 0
vn 0 0.8660253028382763 -0.5000001748438415
vn 0 -0.8660253028382763 0.5000001748438415
vn 0 0.2588189595935757 -0.9659258492011171
vn 0 -0.2588189595935757 0.9659258492011171
vn 0 0.8660253028382761 0.500000174843842
vn 0 0.7071067811865476 0.7071067811865478
vn 0 -0.7071067811865476 -0.7071067811865478
vn 0 -0.8660253028382761 -0.500000174843842
vn 0 0.5000001748438415 0.8660253028382763
vn 0 -0.5000001748438415 -0.8660253028382763
vn 0 0.9659258492011171 -0.2588189595935752
vn 0 -0.9659258492011171 0.2588189595935752
vn 0 0 -1
vn 0 0 1
vn 0 0.9659258492011171 0.2588189595935757
vn 0 -0.9659258492011171 -0.2588189595935757
vn 0 0.2588189595935752 0.9659258492011171
vn 0 -0.2588189595935752 -0.9659258492011171
vn 0 1 0
vn 0 -1 0
usemtl material_0_0
f 1//1 2//2 3//1
f 2//2 1//1 4//2
f 3//3 2//4 1//3
f 4//4 1//3 2//4
f 5//2 3//1 2//2
f 2//4 3//3 5//4
f 6//5 3//5 2//5
f 2//6 3//6 6//6
f 7//7 1//1 3//1
f 3//3 1//3 7//8
f 8//1 4//2 1//1
f 1//3 4//4 8//3
f 4//2 9//9 2//2
f 2//4 9//10 4//4
f 3//1 5//2 10//1
f 10//3 5//4 3//3
f 2//2 11//9 5//2
f 5//4 11//10 2//4
f 12//5 3//5 6//5
f 6//6 3//6 12//6
f 6//5 2//5 13//5
f 13//6 2//6 6//6
f 1//1 7//7 14//7
f 14//8 7//8 1//3
f 3//1 15//7 7//7
f 7//8 15//8 3//3
f 12//5 7//5 3//5
f 3//6 7//6 12//6
f 4//2 8//1 16//2
f 16//4 8//3 4//4
f 14//7 8//1 1//1
f 1//3 8//3 14//8
f 9//9 4//2 17//9
f 17//10 4//4 9//10
f 13//5 2//5 9//5
f 9//6 2//6 13//6
f 11//9 2//2 9//9
f 9//10 2//4 11//10
f 5//6 10//6 18//6
f 15//7 3//1 10//1
f 10//3 3//3 15//8
f 11//6 5//6 19//6
f 12//11 18//12 6//12
f 6//13 18//13 12//14
f 6//12 20//11 12//11
f 12//14 20//14 6//13
f 21//15 6//12 13//15
f 13//16 6//13 21//16
f 18//12 13//15 6//12
f 6//13 13//16 18//13
f 22//17 14//7 7//7
f 7//8 14//8 22//18
f 23//17 7//7 15//7
f 15//8 7//8 23//18
f 24//5 7//5 12//5
f 12//6 7//6 24//6
f 16//5 25//5 8//5
f 16//2 17//9 4//2
f 4//4 17//10 16//4
f 8//1 14//7 26//7
f 26//8 14//8 8//3
f 17//9 27//19 9//9
f 9//10 27//20 17//10
f 13//5 9//5 28//5
f 28//6 9//6 13//6
f 9//9 29//19 11//9
f 11//10 29//20 9//10
f 18//6 10//6 30//6
f 19//6 5//6 18//6
f 10//6 15//6 30//6
f 31//6 11//6 19//6
f 18//12 12//11 30//11
f 30//14 12//14 18//13
f 20//11 6//12 32//12
f 32//13 6//13 20//14
f 33//21 12//11 20//11
f 20//14 12//14 33//22
f 6//12 21//15 32//12
f 32//13 21//16 6//13
f 28//23 21//15 13//15
f 13//16 21//16 28//24
f 13//15 18//12 19//15
f 19//16 18//13 13//16
f 14//7 22//17 34//17
f 34//18 22//18 14//8
f 7//7 23//17 22//17
f 22//18 23//18 7//8
f 24//5 22//5 7//5
f 7//6 22//6 24//6
f 15//6 23//6 35//6
f 24//21 30//11 12//11
f 12//14 30//14 24//22
f 12//11 33//21 24//21
f 24//22 33//22 12//14
f 25//5 36//5 8//5
f 37//5 25//5 16//5
f 17//9 16//2 38//9
f 38//10 16//4 17//10
f 34//17 26//7 14//7
f 14//8 26//8 34//18
f 8//5 36//5 26//5
f 27//19 17//9 39//19
f 39//20 17//10 27//20
f 29//19 9//9 27//19
f 27//20 9//10 29//20
f 28//5 9//5 27//5
f 27//6 9//6 28//6
f 13//15 31//23 28//23
f 28//24 31//24 13//16
f 29//6 11//6 31//6
f 30//6 15//6 35//6
f 31//23 13//15 19//15
f 19//16 13//16 31//24
f 32//12 40//11 20//11
f 20//14 40//14 32//13
f 20//11 41//21 33//21
f 33//22 41//22 20//14
f 25//15 32//12 21//15
f 21//16 32//13 25//16
f 21//15 28//23 42//23
f 42//24 28//24 21//16
f 43//25 34//17 22//17
f 22//18 34//18 43//26
f 44//25 22//17 23//17
f 23//18 22//18 44//26
f 22//5 24//5 43//5
f 43//6 24//6 22//6
f 44//6 35//6 23//6
f 30//11 24//21 35//21
f 35//22 24//22 30//14
f 45//25 24//21 33//21
f 33//22 24//22 45//26
f 32//12 25//15 36//12
f 36//13 25//16 32//13
f 25//15 42//23 37//23
f 37//24 42//24 25//16
f 38//5 37//5 16//5
f 38//9 39//19 17//9
f 17//10 39//20 38//10
f 26//7 34//17 46//17
f 46//18 34//18 26//8
f 36//5 40//5 26//5
f 47//24 27//19 39//19
f 39//20 27//20 47//23
f 48//24 29//19 27//19
f 27//20 29//20 48//23
f 28//5 27//5 49//5
f 49//6 27//6 28//6
f 31//23 49//20 28//23
f 28//24 49//19 31//24
f 50//6 29//6 31//6
f 40//11 32//12 36//12
f 36//13 32//13 40//14
f 41//21 20//11 40//11
f 40//14 20//14 41//22
f 51//25 33//21 41//21
f 41//22 33//22 51//26
f 42//23 25//15 21//15
f 21//16 25//16 42//24
f 28//23 52//20 42//23
f 42//24 52//19 28//24
f 34//17 43//25 45//25
f 45//26 43//26 34//18
f 22//17 44//25 43//25
f 43//26 44//26 22//18
f 24//21 45//25 43//25
f 43//26 45//26 24//22
f 43//25 35//21 24//21
f 24//22 35//22 43//26
f 35//21 43//25 44//25
f 44//26 43//26 35//22
f 33//21 51//25 45//25
f 45//26 51//26 33//22
f 42//23 53//20 37//23
f 37//24 53//19 42//24
f 53//5 37//5 38//5
f 39//19 38//9 54//19
f 54//20 38//10 39//20
f 45//25 46//17 34//17
f 34//18 46//18 45//26
f 26//5 40//5 46//5
f 27//19 47//24 48//24
f 48//23 47//23 27//20
f 39//19 55//24 47//24
f 47//23 55//23 39//20
f 29//19 48//24 56//24
f 56//23 48//23 29//20
f 49//5 27//5 48//5
f 48//6 27//6 49//6
f 52//20 28//23 49//20
f 49//19 28//24 52//19
f 49//20 31//23 50//20
f 50//19 31//24 49//19
f 56//6 29//6 50//6
f 40//5 41//5 46//5
f 51//5 46//5 41//5
f 53//20 42//23 52//20
f 52//19 42//24 53//19
f 46//17 45//25 51//25
f 51//26 45//26 46//18
f 54//5 53//5 38//5
f 55//24 39//19 54//19
f 54//20 39//20 55//23
f 47//24 57//16 48//24
f 48//23 57//15 47//23
f 55//24 58//16 47//24
f 47//23 58//15 55//23
f 48//24 59//16 56//24
f 56//23 59//15 48//23
f 49//5 48//5 60//5
f 60//6 48//6 49//6
f 49//20 61//10 52//20
f 52//19 61//9 49//19
f 50//20 60//10 49//20
f 49//19 60//9 50//19
f 62//6 56//6 50//6
f 52//20 63//10 53//20
f 53//19 63//9 52//19
f 63//5 53//5 54//5
f 55//5 63//5 54//5
f 57//16 47//24 58//16
f 58//15 47//23 57//15
f 59//16 48//24 57//16
f 57//15 48//23 59//15
f 60//5 48//5 57//5
f 57//6 48//6 60//6
f 58//16 55//24 64//16
f 64//15 55//23 58//15
f 59//6 56//6 62//6
f 61//10 49//20 60//10
f 60//9 49//19 61//9
f 63//10 52//20 61//10
f 61//9 52//19 63//9
f 60//10 50//20 62//10
f 62//9 50//19 60//9
f 65//5 63//5 55//5
f 58//16 66//13 57//16
f 57//15 66//12 58//15
f 57//16 67//13 59//16
f 59//15 67//12 57//15
f 60//5 57//5 68//5
f 68//6 57//6 60//6
f 64//5 65//5 55//5
f 64//16 69//13 58//16
f 58//15 69//12 64//15
f 70//6 59//6 62//6
f 60//10 71//4 61//10
f 61//9 71//2 60//9
f 61//10 65//4 63//10
f 63//9 65//2 61//9
f 62//10 68//4 60//10
f 60//9 68//2 62//9
f 66//13 58//16 69//13
f 69//12 58//15 66//12
f 67//13 57//16 66//13
f 66//12 57//15 67//12
f 68//5 57//5 66//5
f 66//6 57//6 68//6
f 67//6 59//6 70//6
f 71//4 60//10 68//4
f 68//2 60//9 71//2
f 72//5 65//5 64//5
f 69//13 64//16 73//13
f 73//12 64//15 69//12
f 68//4 62//10 70//4
f 70//2 62//9 68//2
f 65//4 61//10 71//4
f 71//2 61//9 65//2
f 74//14 66//13 69//13
f 69//12 66//12 74//11
f 75//14 67//13 66//13
f 66//12 67//12 75//11
f 68//5 66//5 76//5
f 76//6 66//6 68//6
f 77//6 67//6 70//6
f 68//4 78//3 71//4
f 71//2 78//1 68//2
f 71//4 72//3 65//4
f 65//2 72//1 71//2
f 73//5 72//5 64//5
f 79//14 69//13 73//13
f 73//12 69//12 79//11
f 70//4 76//3 68//4
f 68//2 76//1 70//2
f 66//13 74//14 75//14
f 75//11 74//11 66//12
f 69//13 79//14 74//14
f 74//11 79//11 69//12
f 67//13 75//14 80//14
f 80//11 75//11 67//12
f 76//5 66//5 75//5
f 75//6 66//6 76//6
f 78//3 68//4 76//3
f 76//1 68//2 78//1
f 80//6 67//6 77//6
f 76//3 70//4 77//3
f 77//1 70//2 76//1
f 72//3 71//4 78//3
f 78//1 71//2 72//1
f 81//5 72//5 73//5
f 79//5 81//5 73//5
f 82//22 75//14 74//14
f 74//11 75//11 82//21
f 83//22 74//14 79//14
f 79//11 74//11 83//21
f 84//22 80//14 75//14
f 75//11 80//11 84//21
f 76//5 75//5 85//5
f 85//6 75//6 76//6
f 85//8 78//3 76//3
f 76//1 78//1 85//7
f 86//6 80//6 77//6
f 86//8 76//3 77//3
f 77//1 76//1 86//7
f 87//8 72//3 78//3
f 78//1 72//1 87//7
f 72//3 87//8 81//8
f 81//7 87//7 72//1
f 88//5 81//5 79//5
f 75//14 82//22 84//22
f 84//21 82//21 75//11
f 74//14 83//22 82//22
f 82//21 83//21 74//11
f 83//5 88//5 79//5
f 80//14 84//22 89//22
f 89//21 84//21 80//11
f 85//5 75//5 84//5
f 84//6 75//6 85//6
f 76//3 86//8 85//8
f 85//7 86//7 76//1
f 78//3 85//8 87//8
f 87//7 85//7 78//1
f 89//6 80//6 86//6
f 90//18 81//8 87//8
f 87//7 81//7 90//17
f 81//8 90//18 88//18
f 88//17 90//17 81//7
f 91//26 84//22 82//22
f 82//21 84//21 91//25
f 92//26 82//22 83//22
f 83//21 82//21 92//25
f 92//5 88//5 83//5
f 93//26 89//22 84//22
f 84//21 89//21 93//25
f 85//5 84//5 94//5
f 94//6 84//6 85//6
f 95//18 85//8 86//8
f 86//7 85//7 95//17
f 94//18 87//8 85//8
f 85//7 87//7 94//17
f 95//6 89//6 86//6
f 87//8 94//18 90//18
f 90//17 94//17 87//7
f 91//26 88//18 90//18
f 90//17 88//17 91//25
f 84//22 91//26 93//26
f 93//25 91//25 84//21
f 82//22 92//26 91//26
f 91//25 92//25 82//21
f 88//18 91//26 92//26
f 92//25 91//25 88//17
f 89//22 93//26 96//26
f 96//25 93//25 89//21
f 94//5 84//5 93//5
f 93//6 84//6 94//6
f 85//8 95//18 94//18
f 94//17 95//17 85//7
f 96//6 89//6 95//6
f 93//26 90//18 94//18
f 94//17 90//17 93//25
f 90//18 93//26 91//26
f 91//25 93//25 90//17
f 94//18 96//26 93//26
f 93//25 96//25 94//17
f 96//26 94//18 95//18
f 95//17 94//17 96//25
usemtl material_1_0
f 18//5 10//5 5//5
f 19//5 5//5 11//5
f 8//6 25//6 16//6
f 30//5 10//5 18//5
f 18//5 5//5 19//5
f 30//5 15//5 10//5
f 19//5 11//5 31//5
f 35//5 23//5 15//5
f 8//6 36//6 25//6
f 16//6 25//6 37//6
f 26//6 36//6 8//6
f 31//5 11//5 29//5
f 35//5 15//5 30//5
f 23//5 35//5 44//5
f 16//6 37//6 38//6
f 26//6 40//6 36//6
f 31//5 29//5 50//5
f 38//6 37//6 53//6
f 46//6 40//6 26//6
f 50//5 29//5 56//5
f 46//6 41//6 40//6
f 41//6 46//6 51//6
f 38//6 53//6 54//6
f 50//5 56//5 62//5
f 54//6 53//6 63//6
f 54//6 63//6 55//6
f 62//5 56//5 59//5
f 55//6 63//6 65//6
f 55//6 65//6 64//6
f 62//5 59//5 70//5
f 70//5 59//5 67//5
f 64//6 65//6 72//6
f 70//5 67//5 77//5
f 64//6 72//6 73//6
f 77//5 67//5 80//5
f 73//6 72//6 81//6
f 73//6 81//6 79//6
f 77//5 80//5 86//5
f 79//6 81//6 88//6
f 79//6 88//6 83//6
f 86//5 80//5 89//5
f 83//6 88//6 92//6
f 86//5 89//5 95//5
f 95//5 89//5 96//5
