# SSTK version 0.8.0
# 18
mtllib original-18.mtl
o mesh26/mesh26-geometry#mesh26-geometry
v 0.342592 -0.116422 0.259178
v 0.204719 -0.096999 0.208277
v 0.342589 -0.115041 0.259671
v 0.204722 -0.098380 0.207784
v 0.204616 -0.095828 0.208966
v 0.342494 -0.117918 0.258917
v 0.342485 -0.113870 0.260361
v 0.204624 -0.099876 0.207522
v 0.204418 -0.094946 0.209806
v 0.342301 -0.119428 0.258903
v 0.342288 -0.112988 0.261200
v 0.204431 -0.101386 0.207509
v 0.342010 -0.112456 0.262133
v 0.342027 -0.120849 0.259139
v 0.204140 -0.094414 0.210739
v 0.204157 -0.102807 0.207745
v 0.341670 -0.112310 0.263095
v 0.341691 -0.122084 0.259609
v 0.203800 -0.094268 0.211701
v 0.203821 -0.104041 0.208215
v 0.341292 -0.112560 0.264021
v 0.203445 -0.105006 0.208885
v 0.203423 -0.094517 0.212626
v 0.341314 -0.123048 0.260280
v 0.203032 -0.095146 0.213453
v 0.203054 -0.105634 0.209712
v 0.340902 -0.113188 0.264847
v 0.340924 -0.123676 0.261106
v 0.340526 -0.114152 0.265518
v 0.340546 -0.123926 0.262032
v 0.202656 -0.096110 0.214123
v 0.202677 -0.105884 0.210638
v 0.202320 -0.097345 0.214593
v 0.202337 -0.105737 0.211599
v 0.340189 -0.115387 0.265987
v 0.340207 -0.123780 0.262994
v 0.202046 -0.098765 0.214829
v 0.202059 -0.105205 0.212532
v 0.339915 -0.116808 0.266223
v 0.339929 -0.123248 0.263926
v 0.201853 -0.100275 0.214816
v 0.201861 -0.104324 0.213372
v 0.339723 -0.118318 0.266210
v 0.339731 -0.122366 0.264766
v 0.339625 -0.119814 0.265948
v 0.339627 -0.121195 0.265456
v 0.201755 -0.101772 0.214554
v 0.201758 -0.103153 0.214061
vn 0.3648809452968704 0.41709193746937306 -0.8324038752056041
vn 0.3309160338206131 0.6875630702710122 -0.6463370660575904
vn -0.3309160338206131 -0.6875630702710122 0.6463370660575904
vn -0.3648809452968704 -0.41709193746937306 0.8324038752056041
vn 0.2765518791085528 0.8531216270677732 -0.4423828066174855
vn -0.2765518791085528 -0.8531216270677732 0.4423828066174855
vn 0.3547041445398401 0.051114020828661254 -0.9335803804284809
vn -0.3547041445398401 -0.051114020828661254 0.9335803804284809
vn 0.21691796669951552 0.9434498551648915 -0.25069696151388265
vn -0.21691796669951552 -0.9434498551648915 0.25069696151388265
vn 0.2933499707792642 -0.32223896790161666 -0.9000599103445869
vn -0.2933499707792642 0.32223896790161666 0.9000599103445869
vn 0.1567849242899894 0.9847905244536337 -0.07487396384404524
vn -0.1567849242899894 -0.9847905244536337 0.07487396384404524
vn 0.20534598846694824 -0.6102859657238998 -0.7651039570287027
vn -0.20534598846694824 0.6102859657238998 0.7651039570287027
vn 0.09590497738047808 0.9912487662105366 0.09070897860597264
vn -0.09590497738047808 -0.9912487662105366 -0.09070897860597264
vn 0.11695698554826946 -0.7964159015912733 -0.5933319266852418
vn -0.11695698554826946 0.7964159015912733 0.5933319266852418
vn 0.03203599804393008 0.9668139409677927 0.25346498452380894
vn -0.03203599804393008 -0.9668139409677927 -0.25346498452380894
vn 0.03790899143690948 -0.9067287951831358 -0.4200069051265412
vn -0.03790899143690948 0.9067287951831358 0.4200069051265412
usemtl material_0_0
f 1//1 2//2 3//2
f 2//2 1//1 4//1
f 3//3 2//3 1//4
f 4//4 1//4 2//3
f 5//5 3//2 2//2
f 2//3 3//3 5//6
f 6//7 4//1 1//1
f 1//4 4//4 6//8
f 3//2 5//5 7//5
f 7//6 5//6 3//3
f 4//1 6//7 8//7
f 8//8 6//8 4//4
f 9//9 7//5 5//5
f 5//6 7//6 9//10
f 10//11 8//7 6//7
f 6//8 8//8 10//12
f 7//5 9//9 11//9
f 11//10 9//10 7//6
f 8//7 10//11 12//11
f 12//12 10//12 8//8
f 9//9 13//13 11//9
f 11//10 13//14 9//10
f 14//15 12//11 10//11
f 10//12 12//12 14//16
f 13//13 9//9 15//13
f 15//14 9//10 13//14
f 12//11 14//15 16//15
f 16//16 14//16 12//12
f 15//13 17//17 13//13
f 13//14 17//18 15//14
f 18//19 16//15 14//15
f 14//16 16//16 18//20
f 17//17 15//13 19//17
f 19//18 15//14 17//18
f 16//15 18//19 20//19
f 20//20 18//20 16//16
f 19//17 21//21 17//17
f 17//18 21//22 19//18
f 18//19 22//23 20//19
f 20//20 22//24 18//20
f 21//21 19//17 23//21
f 23//22 19//18 21//22
f 22//23 18//19 24//23
f 24//24 18//20 22//24
f 25//24 21//21 23//21
f 23//22 21//22 25//23
f 24//23 26//22 22//23
f 22//24 26//21 24//24
f 21//21 25//24 27//24
f 27//23 25//23 21//22
f 26//22 24//23 28//22
f 28//21 24//24 26//21
f 25//24 29//20 27//24
f 27//23 29//19 25//23
f 30//18 26//22 28//22
f 28//21 26//21 30//17
f 29//20 25//24 31//20
f 31//19 25//23 29//19
f 26//22 30//18 32//18
f 32//17 30//17 26//21
f 33//16 29//20 31//20
f 31//19 29//19 33//15
f 30//18 34//14 32//18
f 32//17 34//13 30//17
f 29//20 33//16 35//16
f 35//15 33//15 29//19
f 34//14 30//18 36//14
f 36//13 30//17 34//13
f 37//12 35//16 33//16
f 33//15 35//15 37//11
f 36//14 38//10 34//14
f 34//13 38//9 36//13
f 35//16 37//12 39//12
f 39//11 37//11 35//15
f 38//10 36//14 40//10
f 40//9 36//13 38//9
f 41//8 39//12 37//12
f 37//11 39//11 41//7
f 40//10 42//6 38//10
f 38//9 42//5 40//9
f 39//12 41//8 43//8
f 43//7 41//7 39//11
f 42//6 40//10 44//6
f 44//5 40//9 42//5
f 41//8 45//4 43//8
f 43//7 45//1 41//7
f 46//3 42//6 44//6
f 44//5 42//5 46//2
f 45//4 41//8 47//4
f 47//1 41//7 45//1
f 42//6 46//3 48//3
f 48//2 46//2 42//5
f 48//3 45//4 47//4
f 47//1 45//1 48//2
f 45//4 48//3 46//3
f 46//2 48//2 45//1
