# SSTK version 0.8.0
# 27
mtllib original-27.mtl
o Group20/mesh43/mesh43-geometry#mesh43-geometry
v -0.037366 -0.713722 -0.397124
v -0.093169 -0.726435 -0.406879
v -0.093169 -0.713722 -0.397124
v -0.037366 -0.726435 -0.406879
v -0.126651 -0.726435 -0.406879
v -0.093169 -0.713722 -0.310316
v -0.093169 -0.703967 -0.384412
v -0.003885 -0.713722 -0.397124
v -0.093169 -0.741239 -0.413011
v -0.126651 -0.713722 -0.397124
v -0.126651 -0.741239 -0.413011
v -0.093169 -0.703967 -0.323029
v -0.093169 -0.726435 -0.300561
v -0.037366 -0.703967 -0.384412
v -0.126651 -0.703967 -0.384412
v -0.003885 -0.726435 -0.406879
v -0.037366 -0.741239 -0.413011
v -0.126651 -0.713722 -0.310316
v -0.126651 -0.726435 -0.300561
v -0.037366 -0.703967 -0.323029
v -0.037366 -0.726435 -0.300561
v -0.093169 -0.697835 -0.369607
v -0.126651 -0.697835 -0.369607
v -0.093169 -0.697835 -0.337833
v -0.003885 -0.726435 -0.300561
v -0.003885 -0.703967 -0.384412
v -0.037366 -0.757126 -0.415103
v -0.093169 -0.741239 -0.294429
v -0.093169 -0.757126 -0.415103
v -0.126651 -0.703967 -0.323029
v -0.126651 -0.741239 -0.294429
v -0.037366 -0.713722 -0.310316
v -0.037366 -0.697835 -0.337833
v -0.037366 -0.741239 -0.294429
v -0.037366 -0.697835 -0.369607
v -0.126651 -0.697835 -0.337833
v -0.003885 -0.713722 -0.310316
v -0.003885 -0.741239 -0.294429
v -0.003885 -0.741239 -0.413011
v -0.003885 -0.757126 -0.415103
v -0.126651 -0.757126 -0.415103
v -0.003885 -0.703967 -0.323029
v -0.003885 -0.697835 -0.337833
v -0.093169 -0.695743 -0.353720
v -0.126651 -0.695743 -0.353720
v -0.037366 -0.695743 -0.353720
v -0.003885 -0.697835 -0.369607
v -0.093169 -0.773013 -0.413011
v -0.037366 -0.773013 -0.413011
v -0.093169 -0.757126 -0.292337
v -0.037366 -0.757126 -0.292337
v -0.126651 -0.773013 -0.413011
v -0.126651 -0.757126 -0.292337
v -0.003885 -0.695743 -0.353720
v -0.003885 -0.757126 -0.292337
v -0.003885 -0.773013 -0.413011
v -0.003885 -0.773013 -0.294429
v -0.093169 -0.787818 -0.406879
v -0.126651 -0.787818 -0.406879
v -0.093169 -0.773013 -0.294429
v -0.037366 -0.787818 -0.406879
v -0.037366 -0.773013 -0.294429
v -0.126651 -0.773013 -0.294429
v -0.003885 -0.787818 -0.300561
v -0.003885 -0.787818 -0.406879
v -0.037366 -0.800531 -0.397124
v -0.126651 -0.800531 -0.397124
v -0.093169 -0.787818 -0.300561
v -0.126651 -0.787818 -0.300561
v -0.003885 -0.800531 -0.397124
v -0.037366 -0.787818 -0.300561
v -0.093169 -0.800531 -0.397124
v -0.003885 -0.800531 -0.310316
v -0.037366 -0.810285 -0.384412
v -0.003885 -0.810285 -0.384412
v -0.093169 -0.810285 -0.384412
v -0.126651 -0.800531 -0.310316
v -0.093169 -0.800531 -0.310316
v -0.037366 -0.800531 -0.310316
v -0.003885 -0.810285 -0.323029
v -0.126651 -0.810285 -0.384412
v -0.037366 -0.810285 -0.323029
v -0.037366 -0.816418 -0.369607
v -0.003885 -0.816418 -0.369607
v -0.003885 -0.816418 -0.337833
v -0.093169 -0.816418 -0.369607
v -0.093169 -0.810285 -0.323029
v -0.126651 -0.810285 -0.323029
v -0.037366 -0.816418 -0.337833
v -0.126651 -0.816418 -0.369607
v -0.093169 -0.816418 -0.337833
v -0.037366 -0.818509 -0.353720
v -0.003885 -0.818509 -0.353720
v -0.093169 -0.818509 -0.353720
v -0.126651 -0.816418 -0.337833
v -0.126651 -0.818509 -0.353720
vn 0 0.7071067811865478 -0.7071067811865476
vn 0 0.500000174843842 -0.8660253028382761
vn 0 -0.7071067811865478 0.7071067811865476
vn 0 -0.500000174843842 0.8660253028382761
vn -1 0 0
vn 1 0 0
vn 0 0.8660253028382763 -0.5000001748438415
vn 0 -0.8660253028382763 0.5000001748438415
vn 0 0.2588189595935757 -0.9659258492011171
vn 0 -0.2588189595935757 0.9659258492011171
vn 0 0.8660253028382761 0.500000174843842
vn 0 0.7071067811865476 0.7071067811865478
vn 0 -0.7071067811865476 -0.7071067811865478
vn 0 -0.8660253028382761 -0.500000174843842
vn 0 0.5000001748438415 0.8660253028382763
vn 0 -0.5000001748438415 -0.8660253028382763
vn 0 0.9659258492011171 -0.2588189595935752
vn 0 -0.9659258492011171 0.2588189595935752
vn 0 0 -1
vn 0 0 1
vn 0 0.9659258492011171 0.2588189595935757
vn 0 -0.9659258492011171 -0.2588189595935757
vn 0 0.2588189595935752 0.9659258492011171
vn 0 -0.2588189595935752 -0.9659258492011171
vn 0 1 0
vn 0 -1 0
usemtl material_0_0
f 1//1 2//2 3//1
f 2//2 1//1 4//2
f 3//3 2//4 1//3
f 4//4 1//3 2//4
f 5//2 3//1 2//2
f 2//4 3//3 5//4
f 6//5 3//5 2//5
f 2//6 3//6 6//6
f 7//7 1//1 3//1
f 3//3 1//3 7//8
f 8//1 4//2 1//1
f 1//3 4//4 8//3
f 4//2 9//9 2//2
f 2//4 9//10 4//4
f 3//1 5//2 10//1
f 10//3 5//4 3//3
f 2//2 11//9 5//2
f 5//4 11//10 2//4
f 12//5 3//5 6//5
f 6//6 3//6 12//6
f 6//5 2//5 13//5
f 13//6 2//6 6//6
f 1//1 7//7 14//7
f 14//8 7//8 1//3
f 3//1 15//7 7//7
f 7//8 15//8 3//3
f 12//5 7//5 3//5
f 3//6 7//6 12//6
f 4//2 8//1 16//2
f 16//4 8//3 4//4
f 14//7 8//1 1//1
f 1//3 8//3 14//8
f 9//9 4//2 17//9
f 17//10 4//4 9//10
f 13//5 2//5 9//5
f 9//6 2//6 13//6
f 11//9 2//2 9//9
f 9//10 2//4 11//10
f 5//6 10//6 18//6
f 15//7 3//1 10//1
f 10//3 3//3 15//8
f 11//6 5//6 19//6
f 12//11 18//12 6//12
f 6//13 18//13 12//14
f 6//12 20//11 12//11
f 12//14 20//14 6//13
f 21//15 6//12 13//15
f 13//16 6//13 21//16
f 18//12 13//15 6//12
f 6//13 13//16 18//13
f 22//17 14//7 7//7
f 7//8 14//8 22//18
f 23//17 7//7 15//7
f 15//8 7//8 23//18
f 24//5 7//5 12//5
f 12//6 7//6 24//6
f 16//5 25//5 8//5
f 16//2 17//9 4//2
f 4//4 17//10 16//4
f 8//1 14//7 26//7
f 26//8 14//8 8//3
f 27//19 9//9 17//9
f 17//10 9//10 27//20
f 13//5 9//5 28//5
f 28//6 9//6 13//6
f 29//19 11//9 9//9
f 9//10 11//10 29//20
f 18//6 10//6 30//6
f 19//6 5//6 18//6
f 10//6 15//6 30//6
f 31//6 11//6 19//6
f 18//12 12//11 30//11
f 30//14 12//14 18//13
f 20//11 6//12 32//12
f 32//13 6//13 20//14
f 33//21 12//11 20//11
f 20//14 12//14 33//22
f 6//12 21//15 32//12
f 32//13 21//16 6//13
f 13//15 34//23 21//15
f 21//16 34//24 13//16
f 13//15 18//12 19//15
f 19//16 18//13 13//16
f 14//7 22//17 35//17
f 35//18 22//18 14//8
f 7//7 23//17 22//17
f 22//18 23//18 7//8
f 24//5 22//5 7//5
f 7//6 22//6 24//6
f 15//6 23//6 36//6
f 24//21 30//11 12//11
f 12//14 30//14 24//22
f 12//11 33//21 24//21
f 24//22 33//22 12//14
f 25//5 37//5 8//5
f 38//5 25//5 16//5
f 17//9 16//2 39//9
f 39//10 16//4 17//10
f 35//17 26//7 14//7
f 14//8 26//8 35//18
f 8//5 37//5 26//5
f 9//9 27//19 29//19
f 29//20 27//20 9//10
f 17//9 40//19 27//19
f 27//20 40//20 17//10
f 28//5 9//5 29//5
f 29//6 9//6 28//6
f 19//15 28//23 13//15
f 13//16 28//24 19//16
f 34//23 13//15 28//23
f 28//24 13//16 34//24
f 11//9 29//19 41//19
f 41//20 29//20 11//10
f 30//6 15//6 36//6
f 41//6 11//6 31//6
f 28//23 19//15 31//23
f 31//24 19//16 28//24
f 32//12 42//11 20//11
f 20//14 42//14 32//13
f 20//11 43//21 33//21
f 33//22 43//22 20//14
f 25//15 32//12 21//15
f 21//16 32//13 25//16
f 38//23 21//15 34//23
f 34//24 21//16 38//24
f 44//25 35//17 22//17
f 22//18 35//18 44//26
f 45//25 22//17 23//17
f 23//18 22//18 45//26
f 22//5 24//5 44//5
f 44//6 24//6 22//6
f 45//6 36//6 23//6
f 30//11 24//21 36//21
f 36//22 24//22 30//14
f 46//25 24//21 33//21
f 33//22 24//22 46//26
f 32//12 25//15 37//12
f 37//13 25//16 32//13
f 21//15 38//23 25//15
f 25//16 38//24 21//16
f 39//5 38//5 16//5
f 40//19 17//9 39//9
f 39//10 17//10 40//20
f 26//7 35//17 47//17
f 47//18 35//18 26//8
f 37//5 42//5 26//5
f 27//19 48//24 29//19
f 29//20 48//23 27//20
f 40//19 49//24 27//19
f 27//20 49//23 40//20
f 28//5 29//5 50//5
f 50//6 29//6 28//6
f 28//23 51//20 34//23
f 34//24 51//19 28//24
f 29//19 52//24 41//19
f 41//20 52//23 29//20
f 53//6 41//6 31//6
f 31//23 50//20 28//23
f 28//24 50//19 31//24
f 42//11 32//12 37//12
f 37//13 32//13 42//14
f 43//21 20//11 42//11
f 42//14 20//14 43//22
f 54//25 33//21 43//21
f 43//22 33//22 54//26
f 34//23 55//20 38//23
f 38//24 55//19 34//24
f 35//17 44//25 46//25
f 46//26 44//26 35//18
f 22//17 45//25 44//25
f 44//26 45//26 22//18
f 24//21 46//25 44//25
f 44//26 46//26 24//22
f 44//25 36//21 24//21
f 24//22 36//22 44//26
f 36//21 44//25 45//25
f 45//26 44//26 36//22
f 33//21 54//25 46//25
f 46//26 54//26 33//22
f 55//5 38//5 39//5
f 40//5 55//5 39//5
f 46//25 47//17 35//17
f 35//18 47//18 46//26
f 26//5 42//5 47//5
f 48//24 27//19 49//24
f 49//23 27//20 48//23
f 52//24 29//19 48//24
f 48//23 29//20 52//23
f 50//5 29//5 48//5
f 48//6 29//6 50//6
f 49//24 40//19 56//24
f 56//23 40//20 49//23
f 51//20 28//23 50//20
f 50//19 28//24 51//19
f 55//20 34//23 51//20
f 51//19 34//24 55//19
f 52//6 41//6 53//6
f 50//20 31//23 53//20
f 53//19 31//24 50//19
f 42//5 43//5 47//5
f 54//5 47//5 43//5
f 47//17 46//25 54//25
f 54//26 46//26 47//18
f 57//5 55//5 40//5
f 49//24 58//16 48//24
f 48//23 58//15 49//23
f 48//24 59//16 52//24
f 52//23 59//15 48//23
f 50//5 48//5 60//5
f 60//6 48//6 50//6
f 56//5 57//5 40//5
f 56//24 61//16 49//24
f 49//23 61//15 56//23
f 60//10 51//20 50//20
f 50//19 51//19 60//9
f 62//10 55//20 51//20
f 51//19 55//19 62//9
f 63//6 52//6 53//6
f 63//10 50//20 53//20
f 53//19 50//19 63//9
f 55//20 62//10 57//10
f 57//9 62//9 55//19
f 58//16 49//24 61//16
f 61//15 49//23 58//15
f 59//16 48//24 58//16
f 58//15 48//23 59//15
f 60//5 48//5 58//5
f 58//6 48//6 60//6
f 59//6 52//6 63//6
f 50//20 63//10 60//10
f 60//9 63//9 50//19
f 64//5 57//5 56//5
f 61//16 56//24 65//16
f 65//15 56//23 61//15
f 51//20 60//10 62//10
f 62//9 60//9 51//19
f 62//10 64//4 57//10
f 57//9 64//2 62//9
f 66//13 58//16 61//16
f 61//15 58//15 66//12
f 58//16 67//13 59//16
f 59//15 67//12 58//15
f 60//5 58//5 68//5
f 68//6 58//6 60//6
f 69//6 59//6 63//6
f 63//10 68//4 60//10
f 60//9 68//2 63//9
f 65//5 64//5 56//5
f 70//13 61//16 65//16
f 65//15 61//15 70//12
f 60//10 71//4 62//10
f 62//9 71//2 60//9
f 64//4 62//10 71//4
f 71//2 62//9 64//2
f 58//16 66//13 72//13
f 72//12 66//12 58//15
f 61//16 70//13 66//13
f 66//12 70//12 61//15
f 67//13 58//16 72//13
f 72//12 58//15 67//12
f 67//6 59//6 69//6
f 68//5 58//5 72//5
f 72//6 58//6 68//6
f 71//4 60//10 68//4
f 68//2 60//9 71//2
f 68//4 63//10 69//4
f 69//2 63//9 68//2
f 73//5 64//5 65//5
f 70//5 73//5 65//5
f 71//4 73//3 64//4
f 64//2 73//1 71//2
f 74//14 72//13 66//13
f 66//12 72//12 74//11
f 75//14 66//13 70//13
f 70//12 66//12 75//11
f 76//14 67//13 72//13
f 72//12 67//12 76//11
f 77//6 67//6 69//6
f 68//5 72//5 78//5
f 78//6 72//6 68//6
f 68//4 79//3 71//4
f 71//2 79//1 68//2
f 69//4 78//3 68//4
f 68//2 78//1 69//2
f 80//5 73//5 70//5
f 73//3 71//4 79//3
f 79//1 71//2 73//1
f 72//13 74//14 76//14
f 76//11 74//11 72//12
f 66//13 75//14 74//14
f 74//11 75//11 66//12
f 75//5 80//5 70//5
f 67//13 76//14 81//14
f 81//11 76//11 67//12
f 78//5 72//5 76//5
f 76//6 72//6 78//6
f 81//6 67//6 77//6
f 78//3 69//4 77//3
f 77//1 69//2 78//1
f 79//3 68//4 78//3
f 78//1 68//2 79//1
f 73//3 82//8 80//8
f 80//7 82//7 73//1
f 82//8 73//3 79//3
f 79//1 73//1 82//7
f 83//22 76//14 74//14
f 74//11 76//11 83//21
f 84//22 74//14 75//14
f 75//11 74//11 84//21
f 85//5 80//5 75//5
f 86//22 81//14 76//14
f 76//11 81//11 86//21
f 78//5 76//5 87//5
f 87//6 76//6 78//6
f 88//6 81//6 77//6
f 88//8 78//3 77//3
f 77//1 78//1 88//7
f 87//8 79//3 78//3
f 78//1 79//1 87//7
f 89//18 80//8 82//8
f 82//7 80//7 89//17
f 79//3 87//8 82//8
f 82//7 87//7 79//1
f 76//14 83//22 86//22
f 86//21 83//21 76//11
f 74//14 84//22 83//22
f 83//21 84//21 74//11
f 84//5 85//5 75//5
f 80//8 89//18 85//18
f 85//17 89//17 80//7
f 81//14 86//22 90//22
f 90//21 86//21 81//11
f 87//5 76//5 86//5
f 86//6 76//6 87//6
f 78//3 88//8 87//8
f 87//7 88//7 78//1
f 90//6 81//6 88//6
f 82//8 91//18 89//18
f 89//17 91//17 82//7
f 91//18 82//8 87//8
f 87//7 82//7 91//17
f 92//26 86//22 83//22
f 83//21 86//21 92//25
f 93//26 83//22 84//22
f 84//21 83//21 93//25
f 93//5 85//5 84//5
f 92//26 85//18 89//18
f 89//17 85//17 92//25
f 94//26 90//22 86//22
f 86//21 90//21 94//25
f 87//5 86//5 91//5
f 91//6 86//6 87//6
f 95//18 87//8 88//8
f 88//7 87//7 95//17
f 95//6 90//6 88//6
f 94//26 89//18 91//18
f 91//17 89//17 94//25
f 87//8 95//18 91//18
f 91//17 95//17 87//7
f 86//22 92//26 94//26
f 94//25 92//25 86//21
f 83//22 93//26 92//26
f 92//25 93//25 83//21
f 85//18 92//26 93//26
f 93//25 92//25 85//17
f 89//18 94//26 92//26
f 92//25 94//25 89//17
f 90//22 94//26 96//26
f 96//25 94//25 90//21
f 91//5 86//5 94//5
f 94//6 86//6 91//6
f 96//6 90//6 95//6
f 91//18 96//26 94//26
f 94//25 96//25 91//17
f 96//26 91//18 95//18
f 95//17 91//17 96//25
usemtl material_1_0
f 18//5 10//5 5//5
f 19//5 5//5 11//5
f 8//6 25//6 16//6
f 30//5 10//5 18//5
f 18//5 5//5 19//5
f 30//5 15//5 10//5
f 19//5 11//5 31//5
f 36//5 23//5 15//5
f 8//6 37//6 25//6
f 16//6 25//6 38//6
f 26//6 37//6 8//6
f 36//5 15//5 30//5
f 31//5 11//5 41//5
f 23//5 36//5 45//5
f 16//6 38//6 39//6
f 26//6 42//6 37//6
f 31//5 41//5 53//5
f 39//6 38//6 55//6
f 39//6 55//6 40//6
f 47//6 42//6 26//6
f 53//5 41//5 52//5
f 47//6 43//6 42//6
f 43//6 47//6 54//6
f 40//6 55//6 57//6
f 40//6 57//6 56//6
f 53//5 52//5 63//5
f 63//5 52//5 59//5
f 56//6 57//6 64//6
f 63//5 59//5 69//5
f 56//6 64//6 65//6
f 69//5 59//5 67//5
f 65//6 64//6 73//6
f 65//6 73//6 70//6
f 69//5 67//5 77//5
f 70//6 73//6 80//6
f 70//6 80//6 75//6
f 77//5 67//5 81//5
f 75//6 80//6 85//6
f 77//5 81//5 88//5
f 75//6 85//6 84//6
f 88//5 81//5 90//5
f 84//6 85//6 93//6
f 88//5 90//5 95//5
f 95//5 90//5 96//5
