# SSTK version 0.8.0
# 6
mtllib original-6.mtl
o Group5/mesh6/mesh6-geometry#mesh6-geometry
v -0.454499 0.267176 0.248936
v -0.532037 0.269125 0.246580
v -0.454499 0.269125 0.246580
v -0.532037 0.267176 0.248936
v -0.532037 0.270571 0.243886
v -0.454499 0.267855 0.294517
v -0.532037 0.264803 0.250863
v -0.532037 0.267855 0.294517
v -0.454499 0.270571 0.243886
v -0.532037 0.272607 0.294146
v -0.454499 0.264803 0.250863
v -0.454499 0.272607 0.294146
v -0.532037 0.271459 0.240960
v -0.454499 0.263099 0.294195
v -0.532037 0.262096 0.252286
v -0.532037 0.263099 0.294195
v -0.454499 0.271459 0.240960
v -0.532037 0.271754 0.237917
v -0.454499 0.262096 0.252286
v -0.532037 0.277255 0.293090
v -0.454499 0.271754 0.237917
v -0.532037 0.299981 -0.243057
v -0.454499 0.259162 0.253148
v -0.454499 0.277255 0.293090
v -0.532037 0.259162 0.253148
v -0.454499 0.258440 0.293187
v -0.454499 0.299981 -0.243057
v -0.532037 0.271445 0.234875
v -0.532037 0.281701 0.291371
v -0.532037 0.258440 0.293187
v -0.454499 0.271445 0.234875
v -0.532037 0.271445 -0.289609
v -0.454499 0.256117 0.253416
v -0.532037 0.256117 0.253416
v -0.454499 0.281701 0.291371
v -0.532037 0.285851 0.289026
v -0.454499 0.255477 0.292200
v -0.454499 0.271445 -0.236433
v -0.532037 0.271445 -0.236433
v -0.454499 0.271445 -0.289609
v -0.454499 0.285851 0.289026
v -0.532037 0.289617 0.286105
v -0.532037 0.255477 0.292200
v -0.532037 0.239605 -0.303519
v -0.454499 0.253078 0.253080
v -0.532037 0.253078 0.253080
v -0.454499 0.289617 0.286105
v -0.532037 0.292920 0.282668
v -0.454499 0.252592 0.291004
v -0.454499 0.239605 -0.303519
v -0.532037 0.299981 0.260937
v -0.454499 0.292920 0.282668
v -0.532037 0.295689 0.278788
v -0.532037 0.252592 0.291004
v -0.454499 0.299981 0.260937
v -0.532037 0.299408 0.270038
v -0.454499 0.250164 0.252152
v -0.532037 0.250164 0.252152
v -0.454499 0.295689 0.278788
v -0.532037 0.297867 0.274548
v -0.532037 -0.001635 0.174803
v -0.532037 0.300278 0.265351
v -0.454499 0.299408 0.270038
v -0.454499 0.247490 0.250669
v -0.454499 0.297867 0.274548
v -0.532037 0.247490 0.250669
v -0.454499 -0.001635 0.174803
v -0.532037 -0.000198 0.147983
v -0.454499 0.300278 0.265351
v -0.454499 0.006616 0.147420
v -0.532037 0.006616 0.147420
v -0.454499 -0.004574 0.173009
v -0.454499 -0.000198 0.147983
v -0.532037 -0.003311 0.149453
v -0.532037 0.003176 0.147292
v -0.454499 0.003176 0.147292
v -0.532037 -0.004574 0.173009
v -0.454499 -0.003311 0.149453
v -0.532037 -0.007004 0.170569
v -0.454499 -0.005988 0.151619
v -0.532037 -0.005988 0.151619
v -0.454499 -0.007004 0.170569
v -0.532037 -0.008786 0.167623
v -0.532037 -0.008075 0.154357
v -0.454499 -0.008075 0.154357
v -0.454499 -0.008786 0.167623
v -0.532037 -0.009821 0.164339
v -0.532037 -0.009455 0.157512
v -0.454499 -0.009455 0.157512
v -0.454499 -0.009821 0.164339
v -0.532037 -0.010048 0.160904
v -0.454499 -0.010048 0.160904
vt -0.5 -1.606716
vt 0 -1.586999
vt -0.5 -1.586999
vt 0 -1.606716
vt 0 -2.253969
vt -0.5 -2.273686
vt 0 -2.273686
vt -3.856428 1.792053
vt -3.562502 1.787679
vt -3.547305 1.800242
vt -0.5 -0.8576
vt 0 -0.877317
vt 0 -0.8576
vt 3.562502 1.787679
vt 3.856428 1.792053
vt 3.547305 1.800242
vt -0.5 -2.253969
vt 3.854036 1.822697
vt 3.529934 1.809569
vt -3.57493 1.772372
vt -3.854036 1.822697
vt -0.5 -0.877317
vt 3.57493 1.772372
vt 0 -2.832433
vt -0.5 -2.85215
vt 0 -2.85215
vt -3.529934 1.809569
vt 3.511067 1.815296
vt -3.854352 1.761386
vt 0 1.51728
vt 0.5 1.486543
vt 0.5 1.51728
vt -0.5 -0.094287
vt 0 -0.114005
vt 0 -0.094287
vt 3.854352 1.761386
vt 0 1.486543
vt -0.5 -2.832433
vt -3.511067 1.815296
vt 3.491442 1.817199
vt -3.584103 1.754918
vt 0 2.048422
vt 0.5 2.017685
vt 0.5 2.048422
vt 0.5 0.923669
vt 0 0.954407
vt 0 0.923669
vt -0.5 -0.114005
vt 3.584103 1.754918
vt 0 2.017685
vt 0 -3.299777
vt -0.5 -3.319494
vt 0 -3.319494
vt -3.491442 1.817199
vt 0.38989 1.999219
vt -3.589663 1.736001
vt 0.5 0.954407
vt 3.847227 1.852671
vt -0.5 0.673097
vt 0 0.65338
vt 0 0.673097
vt 3.589663 1.736001
vt 0 2.53661
vt 0.5 2.505873
vt 0.5 2.53661
vt -0.5 -3.299777
vt -0.38989 1.999219
vt 3.471826 1.815203
vt -3.847852 1.731344
vt -0.5 0.65338
vt -3.847227 1.852671
vt 0.5 0.340956
vt 0 0.371693
vt 0 0.340956
vt 3.836145 1.881341
vt 3.847852 1.731344
vt 0 2.505873
vt 0 3.63773
vt 0.5 3.657447
vt 0 3.657447
vt -3.471826 1.815203
vt 0.089696 1.815203
vt -3.591392 1.71636
vt -0.5 1.414552
vt 0 1.394835
vt 0 1.414552
vt -3.836145 1.881341
vt 0.5 0.371693
vt 3.821023 1.908102
vt 3.591392 1.71636
vt 0 2.858642
vt 0.5 2.838502
vt 0.5 2.858642
vt 0.5 3.63773
vt -0.432601 1.815203
vt 0.432601 1.815203
vt 0 1.377229
vt -0.5 1.025125
vt 0 1.025125
vt -3.841487 1.712237
vt -0.5 1.394835
vt -3.821023 1.908102
vt 0.5 -0.249286
vt 0 -0.218548
vt 0 -0.249286
vt 3.802182 1.932387
vt 3.841487 1.712237
vt 0 2.838502
vt -0.432601 0
vt -3.471826 0.5
vt -3.471826 0
vt -0.089696 1.815203
vt -0.432601 0.5
vt 0 1.609884
vt -0.5 1.377229
vt -0.5 1.699308
vt 0 1.475252
vt 0 1.699308
vt -3.589222 1.696763
vt -0.5 2.10109
vt 0 2.081372
vt 0 2.10109
vt -3.802182 1.932387
vt 0.5 -0.218548
vt 0.5 -0.834585
vt 0 -0.803848
vt 0 -0.834585
vt 3.780019 1.953685
vt 3.589222 1.696763
vt 0 3.052826
vt 0.5 3.032687
vt 0.5 3.052826
vt 0 0.690275
vt 0.5 1.169127
vt 0 1.169127
vt 3.63989 0
vt 0.38989 0.5
vt 0.38989 0
vt -0.5 1.475252
vt -3.833775 1.693633
vt -0.5 2.081372
vt -3.780019 1.953685
vt 0.5 -0.803848
vt 0 -1.402577
vt 0.5 -1.371839
vt 0 -1.371839
vt 3.755003 1.971545
vt 3.833775 1.693633
vt 0 3.032687
vt 0.5 0.690275
vt 3.63989 0.5
vt 3.698574 1.995522
vt 3.63989 1.999219
vt -3.583239 1.677975
vt -0.5 2.70587
vt 0 2.686153
vt 0 2.70587
vt -3.755003 1.971545
vt 0.5 -1.402577
vt 0.5 -1.910523
vt 0 -1.94126
vt 0.5 -1.94126
vt 0 -1.910523
vt 3.727662 1.985589
vt 3.583239 1.677975
vt 0 1.33157
vt 0.5 3.134084
vt 0 3.134084
vt 0 3.794377
vt -0.5 3.76585
vt 0 3.76585
vt -3.698574 1.995522
vt -3.63989 1.999219
vt 3.668353 2.001133
vt -3.573677 1.660732
vt -0.5 2.686153
vt -3.727662 1.985589
vt 0.5 -2.408516
vt 0 -2.439253
vt 0.5 -2.439253
vt 0 -2.408516
vt 3.573677 1.660732
vt 0.5 1.33157
vt 2.911506 0.06352
vt 3.084457 0.054249
vt -0.5 3.794377
vt -3.668353 2.001133
vt 0 -2.886036
vt 0.5 -2.855299
vt 0 -2.855299
vt 0 -3.272168
vt 0.5 -3.241431
vt 0 -3.241431
vt -2.907873 0.10746
vt 0 3.185532
vt -0.5 3.205249
vt -0.5 3.185532
vt 0 3.205249
vt 0.5 -2.886036
vt 2.907873 0.10746
vt 0 1.653987
vt 0.5 1.631784
vt 0.5 1.653987
vt -3.084457 0.054249
vt -2.911506 0.06352
vt 2.920986 0.043443
vt 2.90705 0.085272
vt 0.5 -3.272168
vt -2.90705 0.085272
vt 0 1.244403
vt -0.5 2.934359
vt -0.5 1.244403
vt 0 2.934359
vt 0 1.631784
vt -3.072884 0.0353
vt -2.920986 0.043443
vt 3.072884 0.0353
vt -0.5 -1.185769
vt 0 -1.207972
vt 0 -1.185769
vt -0.5 -0.499826
vt 0 -0.522029
vt 0 -0.499826
vt 0 0.19299
vt -0.5 0.215193
vt -0.5 0.19299
vt 0 0.215193
vt 0 2.179931
vt 0.5 2.202135
vt 0 2.202135
vt -2.934953 0.026182
vt -0.5 -1.207972
vt -0.5 -0.522029
vt 2.934953 0.026182
vt 0.5 2.179931
vt 3.057152 0.019631
vt -3.057152 0.019631
vt 0 -1.825801
vt -0.5 -1.803598
vt -0.5 -1.825801
vt 0 -1.803598
vt 0 2.603388
vt 0.5 2.625592
vt 0 2.625592
vt 2.95261 0.012721
vt -2.95261 0.012721
vt -0.5 -2.340357
vt 0 -2.318154
vt -0.5 -2.318154
vt 0.5 2.603388
vt 3.038157 0.008135
vt 0 -2.340357
vt -3.038157 0.008135
vt 0 2.878056
vt 0.5 2.900259
vt 0 2.900259
vt 2.972953 0.003825
vt -0.5 -2.722356
vt 0 -2.700153
vt -0.5 -2.700153
vt -2.972953 0.003825
vt 0.5 2.878056
vt 3.016979 0.001464
vt 0 -2.722356
vt -3.016979 0.001464
vt 0 2.988303
vt 0.5 3.010506
vt 0 3.010506
vt 2.994824 0
vt -0.5 -2.950058
vt 0 -2.927855
vt -0.5 -2.927855
vt -2.994824 0
vt 0.5 2.988303
vt 0 -2.950058
vn 0 -0.7039688499413118 -0.7102308486064982
vn 0 -0.829950364734632 -0.557837245150278
vn 0 0.829950364734632 0.557837245150278
vn 0 0.7039688499413118 0.7102308486064982
vn 0 -0.9234851887691649 -0.3836340784184583
vn 0 0.9234851887691649 0.3836340784184583
vn 1 0 0
vn -1 0 0
vn 0 -0.550465111086898 -0.8348581684789873
vn 0 0.550465111086898 0.8348581684789873
vn 0 -0.9809158084541363 -0.1944329620325933
vn 0 0.9809158084541363 0.1944329620325933
vn 0 0.15006306475635295 0.988676426641159
vn 0 0.005149998654127631 0.9999867386689998
vn 0 -0.15006306475635295 -0.988676426641159
vn 0 -0.005149998654127631 -0.9999867386689998
vn 0 -0.3754411028338951 -0.926846253864614
vn 0 0.3754411028338951 0.926846253864614
vn 0 -0.1398719436816924 0.9901696013162117
vn 0 0.1398719436816924 -0.9901696013162117
vn 0 0.29180495294514175 0.9564778457636557
vn 0 -0.29180495294514175 -0.9564778457636557
vn 0 -0.9999971939144745 0.002369000459384546
vn 0 0.9999971939144745 -0.002369000459384546
vn 0 -0.1857380557729672 -0.9825992950525043
vn 0 0.1857380557729672 0.9825992950525043
vn 0 -0.21146395598462825 0.9773857965610773
vn 0 0.21146395598462825 -0.9773857965610773
vn 0 0.4273820540713122 0.9040711143808245
vn 0 -0.4273820540713122 -0.9040711143808245
vn 0 -0.9948640662101954 0.10122000673639389
vn 0 0.9948640662101954 -0.10122000673639389
vn 0 0.01122599984819664 -0.999936986478352
vn 0 -0.01122599984819664 0.999936986478352
vn 0 -0.3160279590295062 0.9487498770021763
vn 0 -0.3497150444206331 0.9368561189990033
vn 0 0.3160279590295062 -0.9487498770021763
vn 0 0.3497150444206331 -0.9368561189990033
vn 0 0.8525688559218435 -0.5226149116817455
vn 0 -0.8525688559218435 0.5226149116817455
vn 0 0.5539301124841065 0.8325631690648736
vn 0 -0.5539301124841065 -0.8325631690648736
vn 0 -1 0
vn 0 1 0
vn 0 0.40032917656882544 -0.9163714041739441
vn 0 -0.40032917656882544 0.9163714041739441
vn 0 0.2077499908980578 -0.9781819571438929
vn 0 -0.2077499908980578 0.9781819571438929
vn 0 0.6687738808806819 0.7434658675768454
vn 0 -0.6687738808806819 -0.7434658675768454
vn 0 -0.38295499955692136 0.9237669989312016
vn 0 0.38295499955692136 -0.9237669989312016
vn 0 -0.903412213533698 0.42877310134632274
vn 0 0.903412213533698 -0.42877310134632274
vn 0 0.769489032041139 0.6386600265934849
vn 0 -0.769489032041139 -0.6386600265934849
vn 0 0.3961531867337815 -0.9181844328024027
vn 0 -0.3961531867337815 0.9181844328024027
vn 0 0.8539462812741533 0.5203611713973716
vn 0 -0.8539462812741533 -0.5203611713973716
vn 0 -0.4157068460118203 0.9094986630990199
vn 0 0.4157068460118203 -0.9094986630990199
vn 0 0.9977456515887759 -0.06710897656564992
vn 0 -0.9977456515887759 0.06710897656564992
vn 0 0.9203614598377167 0.3910687704808285
vn 0 -0.9203614598377167 -0.3910687704808285
vn 0 0.9673319809469457 0.25351299500668156
vn 0 -0.9673319809469457 -0.25351299500668156
vn 0 0.9831982340577414 0.18254104345526986
vn 0 -0.9831982340577414 -0.18254104345526986
vn 0 0.48498715286554983 -0.8745212756447767
vn 0 -0.48498715286554983 0.8745212756447767
vn 0 -0.5212232313895474 0.8534203788636866
vn 0 -0.6192969105555731 0.785156886600584
vn 0 0.5212232313895474 -0.8534203788636866
vn 0 0.6192969105555731 -0.785156886600584
vn 0 0.3939771081607174 -0.9191202523311724
vn 0 -0.3939771081607174 0.9191202523311724
vn 0 -0.3160918628311754 -0.9487285882969468
vn 0 -0.5318079795017275 -0.8468649673580141
vn 0 0.3160918628311754 0.9487285882969468
vn 0 0.5318079795017275 0.8468649673580141
vn 0 -0.08238703387059336 -0.9966004097179599
vn 0 0.08238703387059336 0.9966004097179599
vn 0 0.0370739823260029 -0.999312523605349
vn 0 -0.0370739823260029 0.999312523605349
vn 0 -0.7876424608045729 0.6161325782148812
vn 0 0.7876424608045729 -0.6161325782148812
vn 0 -0.7172588320431051 -0.6968068368322463
vn 0 0.7172588320431051 0.6968068368322463
vn 0 -0.9111639577074149 0.41204398087456684
vn 0 0.9111639577074149 -0.41204398087456684
vn 0 -0.8618908186939593 -0.5070938933285009
vn 0 0.8618908186939593 0.5070938933285009
vn 0 -0.9828311928265848 0.1845070361993613
vn 0 0.9828311928265848 -0.1845070361993613
vn 0 -0.9574732440537375 -0.2885220735424108
vn 0 0.9574732440537375 0.2885220735424108
vn 0 -0.9985661875721882 -0.0535310100553464
vn 0 0.9985661875721882 0.0535310100553464
usemtl material_0_0
f 1/1/1 2/2/2 3/3/2
f 2/2/2 1/1/1 4/4/1
f 3/3/3 2/2/3 1/1/4
f 4/4/4 1/1/4 2/2/3
f 5/5/5 3/6/2 2/7/2
f 2/7/3 3/6/3 5/5/6
f 6/8/7 1/9/7 3/10/7
f 3/10/8 1/9/8 6/8/8
f 1/11/1 7/12/9 4/13/1
f 4/13/4 7/12/10 1/11/4
f 4/14/8 8/15/8 2/16/8
f 2/16/7 8/15/7 4/14/7
f 3/6/2 5/5/5 9/17/5
f 9/17/6 5/5/6 3/6/3
f 2/16/8 10/18/8 5/19/8
f 5/19/7 10/18/7 2/16/7
f 6/8/7 11/20/7 1/9/7
f 1/9/8 11/20/8 6/8/8
f 6/8/7 3/10/7 12/21/7
f 12/21/8 3/10/8 6/8/8
f 7/12/9 1/11/1 11/22/9
f 11/22/10 1/11/4 7/12/10
f 7/23/8 8/15/8 4/14/8
f 4/14/7 8/15/7 7/23/7
f 2/16/8 8/15/8 10/18/8
f 10/18/7 8/15/7 2/16/7
f 13/24/11 9/25/5 5/26/5
f 5/26/6 9/25/6 13/24/12
f 12/21/7 3/10/7 9/27/7
f 9/27/8 3/10/8 12/21/8
f 5/19/8 10/18/8 13/28/8
f 13/28/7 10/18/7 5/19/7
f 14/29/7 11/20/7 6/8/7
f 6/8/8 11/20/8 14/29/8
f 10/30/13 6/31/14 12/32/13
f 12/32/15 6/31/16 10/30/15
f 11/33/9 15/34/17 7/35/9
f 7/35/10 15/34/18 11/33/10
f 7/23/8 16/36/8 8/15/8
f 8/15/7 16/36/7 7/23/7
f 6/31/14 10/30/13 8/37/14
f 8/37/16 10/30/15 6/31/16
f 9/25/5 13/24/11 17/38/11
f 17/38/12 13/24/12 9/25/6
f 12/21/7 9/27/7 17/39/7
f 17/39/8 9/27/8 12/21/8
f 13/28/8 10/18/8 18/40/8
f 18/40/7 10/18/7 13/28/7
f 14/29/7 19/41/7 11/20/7
f 11/20/8 19/41/8 14/29/8
f 8/42/14 14/43/19 6/44/14
f 6/44/16 14/43/20 8/42/16
f 12/45/13 20/46/21 10/47/13
f 10/47/15 20/46/22 12/45/15
f 15/34/17 11/33/9 19/48/17
f 19/48/18 11/33/10 15/34/18
f 15/49/8 16/36/8 7/23/8
f 7/23/7 16/36/7 15/49/7
f 14/43/19 8/42/14 16/50/19
f 16/50/20 8/42/16 14/43/20
f 18/51/23 17/52/11 13/53/11
f 13/53/12 17/52/12 18/51/24
f 12/21/7 17/39/7 21/54/7
f 21/54/8 17/39/8 12/21/8
f 22/55/8 18/40/8 10/18/8
f 10/18/7 18/40/7 22/55/7
f 14/29/7 23/56/7 19/41/7
f 19/41/8 23/56/8 14/29/8
f 20/46/21 12/45/13 24/57/21
f 24/57/22 12/45/15 20/46/22
f 22/55/8 10/18/8 20/58/8
f 20/58/7 10/18/7 22/55/7
f 19/59/17 25/60/25 15/61/17
f 15/61/18 25/60/26 19/59/18
f 25/62/8 16/36/8 15/49/8
f 15/49/7 16/36/7 25/62/7
f 16/63/19 26/64/27 14/65/19
f 14/65/20 26/64/28 16/63/20
f 17/52/11 18/51/23 21/66/23
f 21/66/24 18/51/24 17/52/12
f 21/54/7 27/67/7 12/21/7
f 12/21/8 27/67/8 21/54/8
f 22/55/8 28/68/8 18/40/8
f 18/40/7 28/68/7 22/55/7
f 26/69/7 23/56/7 14/29/7
f 14/29/8 23/56/8 26/69/8
f 25/60/25 19/59/17 23/70/25
f 23/70/26 19/59/18 25/60/26
f 12/21/7 27/67/7 24/71/7
f 24/71/8 27/67/8 12/21/8
f 24/72/21 29/73/29 20/74/21
f 20/74/22 29/73/30 24/72/22
f 22/55/8 20/58/8 29/75/8
f 29/75/7 20/58/7 22/55/7
f 25/62/8 30/76/8 16/36/8
f 16/36/7 30/76/7 25/62/7
f 26/64/27 16/63/19 30/77/27
f 30/77/28 16/63/20 26/64/28
f 28/78/31 21/79/23 18/80/23
f 18/80/24 21/79/24 28/78/32
f 31/81/7 27/67/7 21/54/7
f 21/54/8 27/67/8 31/81/8
f 32/82/8 28/68/8 22/55/8
f 22/55/7 28/68/7 32/82/7
f 26/69/7 33/83/7 23/56/7
f 23/56/8 33/83/8 26/69/8
f 23/84/25 34/85/33 25/86/25
f 25/86/26 34/85/34 23/84/26
f 24/71/7 27/67/7 35/87/7
f 35/87/8 27/67/8 24/71/8
f 29/73/29 24/72/21 35/88/29
f 35/88/30 24/72/22 29/73/30
f 22/55/8 29/75/8 36/89/8
f 36/89/7 29/75/7 22/55/7
f 34/90/8 30/76/8 25/62/8
f 25/62/7 30/76/7 34/90/7
f 30/91/35 37/92/36 26/93/35
f 26/93/37 37/92/38 30/91/37
f 21/79/23 28/78/31 31/94/31
f 31/94/32 28/78/32 21/79/24
f 38/95/7 27/67/7 31/81/7
f 31/81/8 27/67/8 38/95/8
f 32/82/8 39/96/8 28/68/8
f 28/68/7 39/96/7 32/82/7
f 22/97/39 40/98/39 32/99/39
f 32/99/40 40/98/40 22/97/40
f 37/100/7 33/83/7 26/69/7
f 26/69/8 33/83/8 37/100/8
f 34/85/33 23/84/25 33/101/33
f 33/101/34 23/84/26 34/85/34
f 35/87/7 27/67/7 41/102/7
f 41/102/8 27/67/8 35/87/8
f 35/103/29 36/104/41 29/105/29
f 29/105/30 36/104/42 35/103/30
f 22/55/8 36/89/8 42/106/8
f 42/106/7 36/89/7 22/55/7
f 34/90/8 43/107/8 30/76/8
f 30/76/7 43/107/7 34/90/7
f 37/92/36 30/91/35 43/108/36
f 43/108/38 30/91/37 37/92/38
f 39/109/43 31/110/43 28/111/43
f 28/111/44 31/110/44 39/109/44
f 38/95/7 40/112/7 27/67/7
f 27/67/8 40/112/8 38/95/8
f 31/110/43 39/109/43 38/113/43
f 38/113/44 39/109/44 31/110/44
f 39/96/8 32/82/8 44/114/8
f 44/114/7 32/82/7 39/96/7
f 40/98/39 22/97/39 27/115/39
f 27/115/40 22/97/40 40/98/40
f 40/116/45 44/117/45 32/118/45
f 32/118/46 44/117/46 40/116/46
f 37/100/7 45/119/7 33/83/7
f 33/83/8 45/119/8 37/100/8
f 33/120/33 46/121/47 34/122/33
f 34/122/34 46/121/48 33/120/34
f 41/102/7 27/67/7 47/123/7
f 47/123/8 27/67/8 41/102/8
f 36/104/41 35/103/29 41/124/41
f 41/124/42 35/103/30 36/104/42
f 41/125/41 42/126/49 36/127/41
f 36/127/42 42/126/50 41/125/42
f 22/55/8 42/106/8 48/128/8
f 48/128/7 42/106/7 22/55/7
f 46/129/8 43/107/8 34/90/8
f 34/90/7 43/107/7 46/129/7
f 43/130/36 49/131/51 37/132/36
f 37/132/38 49/131/52 43/130/38
f 40/112/7 38/95/7 50/114/7
f 50/114/8 38/95/8 40/112/8
f 44/133/53 38/134/53 39/135/53
f 39/135/54 38/134/54 44/133/54
f 51/136/44 27/137/44 22/138/44
f 22/138/43 27/137/43 51/136/43
f 44/117/45 40/116/45 50/139/45
f 50/139/46 40/116/46 44/117/46
f 49/140/7 45/119/7 37/100/7
f 37/100/8 45/119/8 49/140/8
f 46/121/47 33/120/33 45/141/47
f 45/141/48 33/120/34 46/121/48
f 47/123/7 27/67/7 52/142/7
f 52/142/8 27/67/8 47/123/8
f 42/126/49 41/125/41 47/143/49
f 47/143/50 41/125/42 42/126/50
f 42/144/49 52/145/55 48/146/55
f 48/146/56 52/145/56 42/144/50
f 22/55/8 48/128/8 53/147/8
f 53/147/7 48/128/7 22/55/7
f 46/129/8 54/148/8 43/107/8
f 43/107/7 54/148/7 46/129/7
f 49/131/51 43/130/36 54/149/51
f 54/149/52 43/130/38 49/131/52
f 38/134/53 44/133/53 50/150/53
f 50/150/54 44/133/54 38/134/54
f 27/137/44 51/136/44 55/151/44
f 55/151/43 51/136/43 27/137/43
f 22/55/8 56/152/8 51/153/8
f 51/153/7 56/152/7 22/55/7
f 49/140/7 57/154/7 45/119/7
f 45/119/8 57/154/8 49/140/8
f 45/155/47 58/156/57 46/157/47
f 46/157/48 58/156/58 45/155/48
f 52/142/7 27/67/7 59/158/7
f 59/158/8 27/67/8 52/142/8
f 52/145/55 42/144/49 47/159/49
f 47/159/50 42/144/50 52/145/56
f 59/160/59 48/161/55 52/162/55
f 52/162/56 48/161/56 59/160/60
f 48/161/55 59/160/59 53/163/59
f 53/163/60 59/160/60 48/161/56
f 22/55/8 53/147/8 60/164/8
f 60/164/7 53/147/7 22/55/7
f 58/165/8 54/148/8 46/129/8
f 46/129/7 54/148/7 58/165/7
f 61/166/61 49/167/61 54/168/61
f 54/168/62 49/167/62 61/166/62
f 62/169/63 55/170/63 51/171/63
f 51/171/64 55/170/64 62/169/64
f 63/172/7 27/67/7 55/173/7
f 55/173/8 27/67/8 63/172/8
f 22/55/8 60/164/8 56/152/8
f 56/152/7 60/164/7 22/55/7
f 62/174/8 51/153/8 56/152/8
f 56/152/7 51/153/7 62/174/7
f 49/140/7 64/175/7 57/154/7
f 57/154/8 64/175/8 49/140/8
f 58/156/57 45/155/47 57/176/57
f 57/176/58 45/155/48 58/156/58
f 59/158/7 27/67/7 65/177/7
f 65/177/8 27/67/8 59/158/8
f 65/178/65 53/179/59 59/180/59
f 59/180/60 53/179/60 65/178/66
f 53/179/59 65/178/65 60/181/65
f 60/181/66 65/178/66 53/179/60
f 66/182/8 54/148/8 58/165/8
f 58/165/7 54/148/7 66/182/7
f 49/167/61 61/166/61 67/183/61
f 67/183/62 61/166/62 49/167/62
f 68/184/8 61/185/8 54/148/8
f 54/148/7 61/185/7 68/184/7
f 55/170/63 62/169/63 69/186/63
f 69/186/64 62/169/64 55/170/64
f 65/177/7 27/67/7 63/172/7
f 63/172/8 27/67/8 65/177/8
f 63/172/7 55/173/7 69/187/7
f 69/187/8 55/173/8 63/172/8
f 60/188/65 63/189/67 56/190/67
f 56/190/68 63/189/68 60/188/66
f 56/191/67 69/192/69 62/193/69
f 62/193/70 69/192/70 56/191/68
f 49/140/7 70/194/7 64/175/7
f 64/175/8 70/194/8 49/140/8
f 66/195/71 57/196/57 64/197/71
f 64/197/72 57/196/58 66/195/72
f 57/196/57 66/195/71 58/198/57
f 58/198/58 66/195/72 57/196/58
f 63/189/67 60/188/65 65/199/65
f 65/199/66 60/188/66 63/189/68
f 71/200/8 54/148/8 66/182/8
f 66/182/7 54/148/7 71/200/7
f 61/201/73 72/202/74 67/203/73
f 67/203/75 72/202/76 61/201/75
f 67/204/7 73/205/7 49/140/7
f 49/140/8 73/205/8 67/204/8
f 74/206/8 61/185/8 68/184/8
f 68/184/7 61/185/7 74/206/7
f 68/184/8 54/148/8 75/207/8
f 75/207/7 54/148/7 68/184/7
f 69/192/69 56/191/67 63/208/67
f 63/208/68 56/191/68 69/192/70
f 49/140/7 76/209/7 70/194/7
f 70/194/8 76/209/8 49/140/8
f 71/210/77 64/211/77 70/212/77
f 70/212/78 64/211/78 71/210/78
f 64/211/77 71/210/77 66/213/77
f 66/213/78 71/210/78 64/211/78
f 75/207/8 54/148/8 71/200/8
f 71/200/7 54/148/7 75/207/7
f 72/202/74 61/201/73 77/214/74
f 77/214/76 61/201/75 72/202/76
f 72/215/7 78/216/7 67/204/7
f 67/204/8 78/216/8 72/215/8
f 67/204/7 78/216/7 73/205/7
f 73/205/8 78/216/8 67/204/8
f 49/140/7 73/205/7 76/209/7
f 76/209/8 73/205/8 49/140/8
f 74/206/8 77/217/8 61/185/8
f 61/185/7 77/217/7 74/206/7
f 73/218/79 74/219/80 68/220/79
f 68/220/81 74/219/82 73/218/81
f 76/221/83 68/222/79 75/223/83
f 75/223/84 68/222/81 76/221/84
f 75/224/83 70/225/85 76/226/83
f 76/226/84 70/225/86 75/224/84
f 70/225/85 75/224/83 71/227/85
f 71/227/86 75/224/84 70/225/86
f 79/228/87 72/229/74 77/230/74
f 77/230/76 72/229/76 79/228/88
f 72/215/7 80/231/7 78/216/7
f 78/216/8 80/231/8 72/215/8
f 74/219/80 73/218/79 78/232/80
f 78/232/82 73/218/81 74/219/82
f 68/222/79 76/221/83 73/233/79
f 73/233/81 76/221/84 68/222/81
f 81/234/8 77/217/8 74/206/8
f 74/206/7 77/217/7 81/234/7
f 72/229/74 79/228/87 82/235/87
f 82/235/88 79/228/88 72/229/76
f 81/234/8 79/236/8 77/217/8
f 77/217/7 79/236/7 81/234/7
f 82/237/7 80/231/7 72/215/7
f 72/215/8 80/231/8 82/237/8
f 81/238/89 78/239/80 80/240/89
f 80/240/90 78/239/82 81/238/90
f 78/239/80 81/238/89 74/241/80
f 74/241/82 81/238/90 78/239/82
f 83/242/91 82/243/87 79/244/87
f 79/244/88 82/243/88 83/242/92
f 84/245/8 79/236/8 81/234/8
f 81/234/7 79/236/7 84/245/7
f 82/237/7 85/246/7 80/231/7
f 80/231/8 85/246/8 82/237/8
f 85/247/93 81/248/89 80/249/89
f 80/249/90 81/248/90 85/247/94
f 82/243/87 83/242/91 86/250/91
f 86/250/92 83/242/92 82/243/88
f 84/245/8 83/251/8 79/236/8
f 79/236/7 83/251/7 84/245/7
f 81/248/89 85/247/93 84/252/93
f 84/252/94 85/247/94 81/248/90
f 86/253/7 85/246/7 82/237/7
f 82/237/8 85/246/8 86/253/8
f 87/254/95 86/255/91 83/256/91
f 83/256/92 86/255/92 87/254/96
f 88/257/8 83/251/8 84/245/8
f 84/245/7 83/251/7 88/257/7
f 89/258/97 84/259/93 85/260/93
f 85/260/94 84/259/94 89/258/98
f 86/253/7 89/261/7 85/246/7
f 85/246/8 89/261/8 86/253/8
f 86/255/91 87/254/95 90/262/95
f 90/262/96 87/254/96 86/255/92
f 88/257/8 87/263/8 83/251/8
f 83/251/7 87/263/7 88/257/7
f 84/259/93 89/258/97 88/264/97
f 88/264/98 89/258/98 84/259/94
f 90/265/7 89/261/7 86/253/7
f 86/253/8 89/261/8 90/265/8
f 91/266/99 90/267/95 87/268/95
f 87/268/96 90/267/96 91/266/100
f 87/263/8 88/257/8 91/269/8
f 91/269/7 88/257/7 87/263/7
f 92/270/99 88/271/97 89/272/97
f 89/272/98 88/271/98 92/270/100
f 89/261/7 90/265/7 92/273/7
f 92/273/8 90/265/8 89/261/8
f 90/267/95 91/266/99 92/274/99
f 92/274/100 91/266/100 90/267/96
f 88/271/97 92/270/99 91/275/99
f 91/275/100 92/270/100 88/271/98
