mtllib new-10.mtl
v 0.476780 -0.087020 -0.153787
v 0.483851 -0.162660 -0.199950
v 0.476780 -0.092731 -0.143921
v 0.476780 -0.172092 -0.206845
v 0.483851 -0.103429 -0.148630
v 0.483852 -0.109738 0.254348
v 0.476780 -0.153889 0.297876
v 0.476780 -0.099145 0.249020
v 0.483851 -0.171317 -0.185018
v 0.476780 -0.096149 -0.133055
v 0.476780 -0.182016 -0.189726
v 0.483852 -0.147953 0.287776
v 0.483851 -0.176477 -0.168558
v 0.483851 -0.107592 -0.135392
v 0.476780 -0.187932 -0.170856
v 0.483852 -0.159898 0.278504
v 0.476780 -0.168218 0.286753
v 0.483852 -0.113718 0.239664
v 0.483851 -0.178138 -0.150600
v 0.476780 -0.097268 -0.121688
v 0.476780 -0.189757 -0.151124
v 0.476780 -0.179219 0.272331
v 0.476780 -0.102126 0.238021
v 0.483851 -0.108877 -0.122342
v 0.483852 -0.169084 0.266462
v 0.483852 -0.113949 0.226009
v 0.476780 -0.102330 0.225995
v 0.483852 -0.177286 0.236497
v 0.483852 -0.175032 0.252319
v 0.476780 -0.186323 0.255441
v 0.476780 -0.188902 0.237333
vn 1.000000 0.000000 -0.000001
vn -1.000000 0.000000 0.000001
vn 1.000000 -0.000001 -0.000001
vn -1.000000 0.000001 0.000001
vn -1.000000 0.000000 0.000000
vn 1.000000 0.000000 0.000000
vn 1.000000 -0.000001 0.000000
vn -1.000000 0.000001 0.000000
vn -1.000000 0.000000 0.000002
vn 1.000000 0.000000 -0.000002
vn -0.854210 0.449816 0.260750
vn 0.854210 -0.449816 -0.260750
vn -0.854212 -0.495972 -0.155995
vn 0.854212 0.495972 0.155995
vn -0.854209 0.449818 0.260750
vn 0.854209 -0.449818 -0.260750
vn -0.854212 -0.495971 -0.155996
vn 0.854212 0.495971 0.155996
vn 1.000000 0.000000 -0.000003
vn -1.000000 0.000000 0.000003
vn -0.854212 -0.501817 0.136018
vn 0.854212 0.501817 -0.136018
vn -0.854210 0.496115 0.155550
vn 0.854210 -0.496115 -0.155550
vn -0.854212 -0.517423 -0.050936
vn 0.854212 0.517423 0.050936
vn -0.854213 0.496109 0.155553
vn 0.854213 -0.496109 -0.155553
vn -0.854215 0.318816 -0.410699
vn 0.854215 -0.318816 0.410699
vn -0.854212 -0.501818 0.136019
vn 0.854212 0.501818 -0.136019
vn -0.854212 0.517715 0.047877
vn 0.854212 -0.517715 -0.047877
vn -0.854212 -0.517425 -0.050935
vn 0.854212 0.517425 0.050935
vn 1.000000 -0.000001 0.000003
vn -1.000000 0.000001 -0.000003
vn -0.854210 0.517720 0.047873
vn 0.854210 -0.517720 -0.047873
vn -0.854214 0.413390 -0.315321
vn 0.854214 -0.413390 0.315321
vn -0.854212 -0.519850 0.008817
vn 0.854212 0.519850 -0.008817
vn -0.854211 -0.519871 -0.007569
vn 0.854211 0.519871 0.007569
vn -0.854209 0.519928 -0.001144
vn 0.854209 -0.519928 0.001144
vn -0.854210 0.413391 -0.315329
vn 0.854210 -0.413391 0.315329
vn -0.854213 -0.519848 0.008815
vn 0.854213 0.519848 -0.008815
vn -0.854213 -0.519868 -0.007569
vn 0.854213 0.519868 0.007569
vn -0.854212 0.519924 -0.001143
vn 0.854212 -0.519924 0.001143
vn -0.854213 0.479256 -0.201577
vn 0.854213 -0.479256 0.201577
vn -0.854211 0.479258 -0.201582
vn 0.854211 -0.479258 0.201582
vn -0.854211 0.514731 -0.073316
vn 0.854211 -0.514731 0.073316
vn -0.854213 0.514729 -0.073314
vn 0.854213 -0.514729 0.073314
usemtl material-0
f 1//7 3//7 4//7
f 4//8 3//8 1//8
f 2//11 4//11 9//11
f 9//12 4//12 2//12
f 5//8 2//8 9//8
f 9//7 2//7 5//7
f 3//13 5//13 10//13
f 10//14 5//14 3//14
f 3//7 11//7 4//7
f 4//8 11//8 3//8
f 9//15 4//15 11//15
f 11//16 4//16 9//16
f 5//8 9//8 13//8
f 13//7 9//7 5//7
f 10//17 5//17 14//17
f 14//18 5//18 10//18
f 3//6 10//6 15//6
f 15//5 10//5 3//5
f 3//19 15//19 11//19
f 11//20 15//20 3//20
f 8//6 7//6 17//6
f 17//5 7//5 8//5
f 8//21 18//21 6//21
f 6//22 18//22 8//22
f 9//23 11//23 13//23
f 13//24 11//24 9//24
f 5//20 13//20 19//20
f 19//19 13//19 5//19
f 5//5 19//5 14//5
f 14//6 19//6 5//6
f 10//25 14//25 20//25
f 20//26 14//26 10//26
f 10//6 21//6 15//6
f 15//5 21//5 10//5
f 13//27 11//27 15//27
f 15//28 11//28 13//28
f 6//5 18//5 16//5
f 16//6 18//6 6//6
f 12//29 16//29 17//29
f 17//30 16//30 12//30
f 8//3 17//3 22//3
f 22//4 17//4 8//4
f 8//31 23//31 18//31
f 18//32 23//32 8//32
f 13//33 15//33 19//33
f 19//34 15//34 13//34
f 14//5 19//5 24//5
f 24//6 19//6 14//6
f 20//35 14//35 24//35
f 24//36 14//36 20//36
f 10//37 20//37 21//37
f 21//38 20//38 10//38
f 19//39 15//39 21//39
f 21//40 15//40 19//40
f 18//5 25//5 16//5
f 16//6 25//6 18//6
f 16//41 22//41 17//41
f 17//42 22//42 16//42
f 8//6 22//6 23//6
f 23//5 22//5 8//5
f 23//43 26//43 18//43
f 18//44 26//44 23//44
f 24//2 19//2 26//2
f 26//1 19//1 24//1
f 20//45 24//45 27//45
f 27//46 24//46 20//46
f 20//1 27//1 21//1
f 21//2 27//2 20//2
f 28//47 19//47 21//47
f 21//48 19//48 28//48
f 18//5 29//5 25//5
f 25//6 29//6 18//6
f 16//49 25//49 22//49
f 22//50 25//50 16//50
f 23//6 22//6 30//6
f 30//5 22//5 23//5
f 23//51 27//51 26//51
f 26//52 27//52 23//52
f 18//5 26//5 28//5
f 28//6 26//6 18//6
f 26//2 19//2 28//2
f 28//1 19//1 26//1
f 27//53 24//53 26//53
f 26//54 24//54 27//54
f 27//1 31//1 21//1
f 21//2 31//2 27//2
f 28//55 21//55 31//55
f 31//56 21//56 28//56
f 18//5 28//5 29//5
f 29//6 28//6 18//6
f 25//57 29//57 30//57
f 30//58 29//58 25//58
f 25//59 30//59 22//59
f 22//60 30//60 25//60
f 23//6 30//6 31//6
f 31//5 30//5 23//5
f 23//10 31//10 27//10
f 27//9 31//9 23//9
f 29//61 28//61 31//61
f 31//62 28//62 29//62
f 29//63 31//63 30//63
f 30//64 31//64 29//64