mtllib new-6.mtl
v -0.470178 -0.087020 -0.153788
v -0.477249 -0.096471 -0.160651
v -0.470178 -0.137397 0.304898
v -0.470178 -0.092731 -0.143921
v -0.477249 -0.162660 -0.199951
v -0.470178 -0.093612 0.256043
v -0.477249 -0.103428 -0.148631
v -0.470178 -0.099145 0.249020
v -0.470178 -0.153889 0.297876
v -0.477250 -0.109738 0.254347
v -0.470178 -0.182015 -0.189727
v -0.470178 -0.096149 -0.133055
v -0.477249 -0.171316 -0.185018
v -0.477250 -0.147953 0.287776
v -0.470178 -0.187932 -0.170857
v -0.477249 -0.107592 -0.135392
v -0.477249 -0.176477 -0.168558
v -0.477250 -0.113718 0.239664
v -0.470178 -0.168217 0.286753
v -0.477250 -0.159898 0.278504
v -0.470178 -0.189757 -0.151124
v -0.470178 -0.097268 -0.121688
v -0.477249 -0.178138 -0.150601
v -0.470178 -0.102126 0.238021
v -0.470178 -0.179219 0.272330
v -0.477249 -0.108877 -0.122343
v -0.477250 -0.169084 0.266461
v -0.477250 -0.113949 0.226008
v -0.477250 -0.177286 0.236496
v -0.470178 -0.102330 0.225994
v -0.477250 -0.175032 0.252318
v -0.470178 -0.186323 0.255441
v -0.470178 -0.188902 0.237332
vn -1.000000 -0.000001 -0.000001
vn 1.000000 0.000001 0.000001
vn -1.000000 0.000000 -0.000001
vn 1.000000 0.000000 0.000001
vn 1.000000 0.000000 0.000000
vn -1.000000 0.000000 0.000000
vn -1.000000 -0.000001 0.000000
vn 1.000000 0.000001 0.000000
vn -1.000000 -0.000001 -0.000004
vn 1.000000 0.000001 0.000004
vn 0.854211 -0.449985 -0.260455
vn -0.854211 0.449985 0.260455
vn 0.854211 -0.495974 -0.155993
vn -0.854211 0.495974 0.155993
vn 1.000000 -0.000002 0.000004
vn -1.000000 0.000002 -0.000004
vn 0.854213 -0.495970 -0.155996
vn -0.854213 0.495970 0.155996
vn 0.854212 -0.501818 0.136018
vn -0.854212 0.501818 -0.136018
vn 0.854209 0.496115 0.155553
vn -0.854209 -0.496115 -0.155553
vn -1.000000 0.000001 -0.000004
vn 1.000000 -0.000001 0.000004
vn 0.854212 -0.517424 -0.050937
vn -0.854212 0.517424 0.050937
vn 0.854209 -0.501820 0.136024
vn -0.854209 0.501820 -0.136024
vn 0.854212 0.318816 -0.410704
vn -0.854212 -0.318816 0.410704
vn 0.854208 0.517722 0.047873
vn -0.854208 -0.517722 -0.047873
vn 0.854212 0.517716 0.047877
vn -0.854212 -0.517716 -0.047877
vn 0.854211 -0.517426 -0.050935
vn -0.854211 0.517426 0.050935
vn 0.854209 -0.519855 0.008814
vn -0.854209 0.519855 -0.008814
vn -1.000000 -0.000002 -0.000006
vn 1.000000 0.000002 0.000006
vn 0.854212 0.413391 -0.315325
vn -0.854212 -0.413391 0.315325
vn 0.854212 0.519924 -0.001143
vn -0.854212 -0.519924 0.001143
vn 0.854211 -0.519872 -0.007569
vn -0.854211 0.519872 0.007569
vn 1.000000 0.000002 0.000004
vn -1.000000 -0.000002 -0.000004
vn 0.854208 -0.519857 0.008817
vn -0.854208 0.519857 -0.008817
vn 0.854210 0.519927 -0.001144
vn -0.854210 -0.519927 0.001144
vn 0.854208 -0.519877 -0.007569
vn -0.854208 0.519877 0.007569
vn 0.854211 0.479260 -0.201576
vn -0.854211 -0.479260 0.201576
vn 0.854212 0.479259 -0.201574
vn -0.854212 -0.479259 0.201574
vn 0.854210 0.514733 -0.073318
vn -0.854210 -0.514733 0.073318
vn 0.854211 0.514731 -0.073315
vn -0.854211 -0.514731 0.073315
usemtl material-0
f 1//11 4//11 2//11
f 2//12 4//12 1//12
f 4//11 7//11 2//11
f 2//12 7//12 4//12
f 6//6 8//6 3//6
f 3//5 8//5 6//5
f 4//13 12//13 7//13
f 7//14 12//14 4//14
f 7//15 13//15 5//15
f 5//16 13//16 7//16
f 8//6 9//6 3//6
f 3//5 9//5 8//5
f 4//7 11//7 15//7
f 15//8 11//8 4//8
f 4//7 15//7 12//7
f 12//8 15//8 4//8
f 12//17 16//17 7//17
f 7//18 16//18 12//18
f 7//5 17//5 13//5
f 13//6 17//6 7//6
f 8//19 10//19 18//19
f 18//20 10//20 8//20
f 8//6 19//6 9//6
f 9//5 19//5 8//5
f 13//21 17//21 11//21
f 11//22 17//22 13//22
f 17//21 15//21 11//21
f 11//22 15//22 17//22
f 12//23 15//23 21//23
f 21//24 15//24 12//24
f 12//25 22//25 16//25
f 16//26 22//26 12//26
f 7//5 16//5 23//5
f 23//6 16//6 7//6
f 7//5 23//5 17//5
f 17//6 23//6 7//6
f 10//5 20//5 18//5
f 18//6 20//6 10//6
f 8//27 18//27 24//27
f 24//28 18//28 8//28
f 8//6 25//6 19//6
f 19//5 25//5 8//5
f 14//29 19//29 20//29
f 20//30 19//30 14//30
f 17//31 23//31 15//31
f 15//32 23//32 17//32
f 23//33 21//33 15//33
f 15//34 21//34 23//34
f 12//6 21//6 22//6
f 22//5 21//5 12//5
f 22//35 26//35 16//35
f 16//36 26//36 22//36
f 16//5 26//5 23//5
f 23//6 26//6 16//6
f 18//5 20//5 27//5
f 27//6 20//6 18//6
f 24//37 18//37 28//37
f 28//38 18//38 24//38
f 8//39 24//39 25//39
f 25//40 24//40 8//40
f 20//41 19//41 25//41
f 25//42 19//42 20//42
f 29//43 21//43 23//43
f 23//44 21//44 29//44
f 22//3 21//3 30//3
f 30//4 21//4 22//4
f 22//45 30//45 26//45
f 26//46 30//46 22//46
f 26//4 28//4 23//4
f 23//3 28//3 26//3
f 20//41 25//41 27//41
f 27//42 25//42 20//42
f 18//47 27//47 31//47
f 31//48 27//48 18//48
f 18//8 29//8 28//8
f 28//7 29//7 18//7
f 24//49 28//49 30//49
f 30//50 28//50 24//50
f 24//9 32//9 25//9
f 25//10 32//10 24//10
f 29//51 33//51 21//51
f 21//52 33//52 29//52
f 28//2 29//2 23//2
f 23//1 29//1 28//1
f 30//3 21//3 33//3
f 33//4 21//4 30//4
f 30//53 28//53 26//53
f 26//54 28//54 30//54
f 27//55 25//55 32//55
f 32//56 25//56 27//56
f 27//57 32//57 31//57
f 31//58 32//58 27//58
f 18//8 31//8 29//8
f 29//7 31//7 18//7
f 24//6 30//6 33//6
f 33//5 30//5 24//5
f 24//6 33//6 32//6
f 32//5 33//5 24//5
f 31//59 33//59 29//59
f 29//60 33//60 31//60
f 31//61 32//61 33//61
f 33//62 32//62 31//62