mtllib new-7.mtl
v -0.470178 0.130716 0.252381
v -0.470178 0.170901 0.298046
v -0.477250 0.135467 0.265182
v -0.470178 0.127248 0.256828
v -0.470178 0.161163 0.305157
v -0.477250 0.162805 0.289572
v -0.477250 0.128713 0.270272
v -0.470178 0.149984 0.309661
v -0.477250 0.155479 0.294922
v -0.477250 0.147074 0.298308
v -0.470178 0.122745 0.260223
v -0.470178 0.138065 0.311083
v -0.477250 0.137458 0.299456
v -0.477250 0.120923 0.273807
v -0.470178 0.117496 0.262604
v -0.470178 -0.119649 0.307406
v -0.477250 0.112778 0.275185
v -0.477250 -0.118750 0.295800
v -0.470178 0.111880 0.263555
v -0.470178 -0.137397 0.304898
v -0.477250 -0.085966 0.272507
v -0.470178 -0.083284 0.260924
v -0.470178 -0.093612 0.256043
v -0.477250 -0.134255 0.293609
v -0.477250 -0.101047 0.265379
v -0.470178 -0.099145 0.249020
v -0.470178 -0.153889 0.297876
v -0.477250 -0.109738 0.254347
v -0.477250 -0.147953 0.287776
v -0.470178 -0.168217 0.286753
v -0.477250 -0.159898 0.278504
vn 1.000000 0.000000 0.000000
vn -1.000000 0.000000 0.000000
vn 1.000000 0.000001 0.000002
vn -1.000000 -0.000001 -0.000002
vn 0.854214 0.312958 0.415182
vn -0.854214 -0.312958 -0.415182
vn 0.854212 -0.194312 -0.482250
vn -0.854212 0.194312 0.482250
vn 0.854212 -0.306627 -0.419883
vn -0.854212 0.306627 0.419883
vn 1.000000 0.000000 0.000003
vn -1.000000 0.000000 -0.000003
vn 0.854215 0.214806 0.473472
vn -0.854215 -0.214806 -0.473472
vn 0.854212 -0.061592 -0.516264
vn -0.854212 0.061592 0.516264
vn 0.854213 -0.194309 -0.482250
vn -0.854213 0.194309 0.482250
vn 0.854211 -0.061596 -0.516266
vn -0.854211 0.061596 0.516266
vn 0.854216 0.214801 0.473472
vn -0.854216 -0.214801 -0.473472
vn 0.854211 0.007419 -0.519874
vn -0.854211 -0.007419 0.519874
vn 0.854215 0.086770 0.512628
vn -0.854215 -0.086770 -0.512628
vn 0.854212 0.007419 -0.519872
vn -0.854212 -0.007419 0.519872
vn 0.854210 0.086790 0.512633
vn -0.854210 -0.086790 -0.512633
vn 1.000000 0.000000 0.000002
vn -1.000000 0.000000 -0.000002
vn 0.854212 0.072747 -0.514811
vn -0.854212 -0.072747 0.514811
vn 0.854211 -0.007008 0.519880
vn -0.854211 0.007008 -0.519880
vn -1.000000 -0.000004 -0.000003
vn 1.000000 0.000004 0.000003
vn 0.854213 0.072749 -0.514809
vn -0.854213 -0.072749 0.514809
vn 0.854213 -0.007008 0.519876
vn -0.854213 0.007008 -0.519876
vn -1.000000 0.000001 -0.000001
vn 1.000000 -0.000001 0.000001
vn 0.854213 0.203690 -0.478363
vn -0.854213 -0.203690 0.478363
vn 0.854213 -0.222158 0.470070
vn -0.854213 0.222158 -0.470070
vn 0.854211 -0.222156 0.470074
vn -0.854211 0.222156 -0.470074
vn 0.854213 -0.408417 0.321739
vn -0.854213 0.408417 -0.321739
vn 0.854210 0.203687 -0.478370
vn -0.854210 -0.203687 0.478370
vn 0.854212 -0.408417 0.321741
vn -0.854212 0.408417 -0.321741
vn 0.854210 0.318815 -0.410709
vn -0.854210 -0.318815 0.410709
usemtl material-0
f 2//2 1//2 4//2
f 4//1 1//1 2//1
f 2//2 4//2 5//2
f 5//1 4//1 2//1
f 5//2 4//2 8//2
f 8//1 4//1 5//1
f 10//3 7//3 3//3
f 3//4 7//4 10//4
f 7//5 11//5 4//5
f 4//6 11//6 7//6
f 8//2 4//2 12//2
f 12//1 4//1 8//1
f 5//7 8//7 9//7
f 9//8 8//8 5//8
f 6//9 5//9 9//9
f 9//10 5//10 6//10
f 9//3 10//3 3//3
f 3//4 10//4 9//4
f 10//11 13//11 7//11
f 7//12 13//12 10//12
f 7//13 14//13 11//13
f 11//14 14//14 7//14
f 12//2 4//2 11//2
f 11//1 4//1 12//1
f 8//15 12//15 10//15
f 10//16 12//16 8//16
f 9//17 8//17 10//17
f 10//18 8//18 9//18
f 10//19 12//19 13//19
f 13//20 12//20 10//20
f 13//3 14//3 7//3
f 7//4 14//4 13//4
f 11//21 14//21 15//21
f 15//22 14//22 11//22
f 12//2 11//2 15//2
f 15//1 11//1 12//1
f 12//23 16//23 13//23
f 13//24 16//24 12//24
f 13//11 17//11 14//11
f 14//12 17//12 13//12
f 14//25 17//25 15//25
f 15//26 17//26 14//26
f 12//2 15//2 16//2
f 16//1 15//1 12//1
f 13//27 16//27 18//27
f 18//28 16//28 13//28
f 13//11 18//11 17//11
f 17//12 18//12 13//12
f 15//29 17//29 19//29
f 19//30 17//30 15//30
f 15//2 19//2 16//2
f 16//1 19//1 15//1
f 18//33 16//33 20//33
f 20//34 16//34 18//34
f 17//1 18//1 21//1
f 21//2 18//2 17//2
f 17//35 21//35 19//35
f 19//36 21//36 17//36
f 19//32 22//32 16//32
f 16//31 22//31 19//31
f 23//37 20//37 16//37
f 16//38 20//38 23//38
f 18//39 20//39 24//39
f 24//40 20//40 18//40
f 21//1 18//1 25//1
f 25//2 18//2 21//2
f 19//41 21//41 22//41
f 22//42 21//42 19//42
f 22//43 23//43 16//43
f 16//44 23//44 22//44
f 24//45 20//45 27//45
f 27//46 20//46 24//46
f 28//1 18//1 24//1
f 24//2 18//2 28//2
f 25//1 18//1 28//1
f 28//2 18//2 25//2
f 22//47 21//47 25//47
f 25//48 21//48 22//48
f 22//49 25//49 23//49
f 23//50 25//50 22//50
f 23//51 28//51 26//51
f 26//52 28//52 23//52
f 24//53 27//53 29//53
f 29//54 27//54 24//54
f 28//1 24//1 29//1
f 29//2 24//2 28//2
f 23//55 25//55 28//55
f 28//56 25//56 23//56
f 29//57 27//57 30//57
f 30//58 27//58 29//58
f 28//1 29//1 31//1
f 31//2 29//2 28//2