mtllib new-5.mtl
v -0.007652 -0.596703 0.176519
v -0.037522 -0.578034 0.187720
v -0.007652 -0.610393 0.181497
v -0.007652 -0.620350 0.187720
v -0.030054 -0.600437 0.193943
v -0.038766 -0.535719 0.208878
v -0.007652 -0.627195 0.191454
v -0.005163 -0.497137 0.197676
v -0.027565 -0.606660 0.198921
v -0.001429 -0.502115 0.203899
v -0.005163 -0.626573 0.197676
v -0.025076 -0.606660 0.205144
v -0.032544 -0.550654 0.218834
v -0.001429 -0.620350 0.203899
v 0.001060 -0.512072 0.207633
v -0.025076 -0.600437 0.210122
v 0.007283 -0.525762 0.213234
v 0.001060 -0.610393 0.207633
v 0.007283 -0.596703 0.213234
v 0.011017 -0.564344 0.249949
v 0.013506 -0.550654 0.253683
v 0.013506 -0.610393 0.216345
v 0.013506 -0.512072 0.216345
v 0.013506 -0.590480 0.244971
v 0.019729 -0.540697 0.254927
v 0.020973 -0.620350 0.220079
v 0.020973 -0.502115 0.220079
v 0.019729 -0.600437 0.242481
v 0.024707 -0.535719 0.256172
v 0.022840 -0.627195 0.220079
v 0.024707 -0.497137 0.220079
v 0.024707 -0.606660 0.241237
v 0.032175 -0.535719 0.256172
v 0.034042 -0.627195 0.220079
v 0.032175 -0.497137 0.220079
v 0.032175 -0.606660 0.241237
v 0.035908 -0.439886 0.220079
v 0.037153 -0.540697 0.254927
v 0.035908 -0.502115 0.220079
v 0.035908 -0.620350 0.220079
v 0.020973 -0.439886 0.220079
v 0.048354 -0.439886 0.213856
v 0.037153 -0.600437 0.242481
v 0.020973 -0.400059 0.220079
v 0.008528 -0.627818 0.213856
v 0.035908 -0.400059 0.220079
v 0.048354 -0.627818 0.213856
v 0.043376 -0.550654 0.253683
v 0.043376 -0.610393 0.216345
v 0.008528 -0.400059 0.213856
v 0.008528 -0.439886 0.213856
v 0.048354 -0.400059 0.213856
v 0.058311 -0.439886 0.203899
v 0.043376 -0.512072 0.216345
v 0.043376 -0.590480 0.244971
v 0.023463 -0.400059 0.207633
v 0.014751 -0.400059 0.203899
v -0.001429 -0.627818 0.203899
v 0.033419 -0.400059 0.207633
v 0.058311 -0.627818 0.203899
v 0.049599 -0.525762 0.213234
v 0.045865 -0.564344 0.249949
v 0.045865 -0.578034 0.247460
v 0.008528 -0.400059 0.197676
v -0.001429 -0.400059 0.203899
v -0.001429 -0.439886 0.203899
v 0.042131 -0.400059 0.203899
v 0.058311 -0.400059 0.203899
v 0.064534 -0.439886 0.191453
v 0.049599 -0.596703 0.213234
v 0.064534 -0.627195 0.191453
v 0.004794 -0.400059 0.188964
v -0.007652 -0.400059 0.191454
v -0.007652 -0.439886 0.191454
v 0.048354 -0.400059 0.197676
v 0.064534 -0.400059 0.191453
v 0.064534 -0.439886 0.176518
v -0.007652 -0.627818 0.176519
v 0.064534 -0.627818 0.176518
v 0.083203 -0.578034 0.220079
v 0.004794 -0.400059 0.179008
v -0.007652 -0.400059 0.176519
v -0.007652 -0.439886 0.176519
v 0.052088 -0.400059 0.188964
v 0.064534 -0.400059 0.176518
v 0.058311 -0.439886 0.164073
v 0.055822 -0.610393 0.207633
v 0.055822 -0.512072 0.207633
v -0.001429 -0.627818 0.164073
v 0.058311 -0.627818 0.164073
v 0.081958 -0.590480 0.216345
v 0.093159 -0.540697 0.213856
v 0.008528 -0.400059 0.170296
v -0.001429 -0.400059 0.164073
v -0.001429 -0.439886 0.164073
v 0.052088 -0.400059 0.179008
v 0.058311 -0.400059 0.164073
v 0.048354 -0.439886 0.154116
v 0.058311 -0.620350 0.203899
v 0.058311 -0.502115 0.203899
v 0.008528 -0.627195 0.154116
v 0.048354 -0.627195 0.154116
v 0.081958 -0.600437 0.210122
v 0.095648 -0.535719 0.208878
v 0.014751 -0.400059 0.164073
v 0.008528 -0.400059 0.154116
v 0.008528 -0.439886 0.154116
v 0.048354 -0.400059 0.170296
v 0.048354 -0.400059 0.154116
v 0.035908 -0.439886 0.147893
v 0.062045 -0.626573 0.197676
v 0.062045 -0.497137 0.197676
v 0.020973 -0.627818 0.147893
v 0.035908 -0.627818 0.147893
v 0.081958 -0.606660 0.205144
v 0.098138 -0.535719 0.203899
v 0.023463 -0.400059 0.160339
v 0.020973 -0.400059 0.147893
v 0.020973 -0.439886 0.147893
v 0.042131 -0.400059 0.164073
v 0.035908 -0.400059 0.147893
v 0.064534 -0.497137 0.191453
v 0.084447 -0.606660 0.198921
v 0.064534 -0.502115 0.187720
v 0.033419 -0.400059 0.160339
v 0.064534 -0.620350 0.187720
v 0.086936 -0.600437 0.193943
v 0.098138 -0.550654 0.191453
v 0.064534 -0.610393 0.180252
v 0.064534 -0.512072 0.180252
v 0.064534 -0.525762 0.176518
v 0.094404 -0.578034 0.187720
v 0.064534 -0.596703 0.176518
vn -0.492581 -0.297408 -0.817871
vn 0.492581 0.297408 0.817871
vn 0.000000 0.000000 1.000000
vn 0.000000 0.000000 -1.000000
vn -0.556333 -0.397907 -0.729496
vn 0.556333 0.397907 0.729496
vn 0.418625 -0.569892 -0.707090
vn -0.418625 0.569892 0.707090
vn -0.619559 -0.716974 0.319521
vn 0.619559 0.716974 -0.319521
vn -0.634680 -0.729883 0.253874
vn 0.634680 0.729883 -0.253874
vn -0.296237 -0.580624 0.758367
vn 0.296237 0.580624 -0.758367
vn 0.070982 -0.334631 -0.939672
vn -0.070982 0.334631 0.939672
vn -0.305266 -0.594877 0.743596
vn 0.305266 0.594877 -0.743596
vn 0.083783 -0.344442 -0.935062
vn -0.083783 0.344442 0.935062
vn -0.040820 -0.341868 0.938861
vn 0.040820 0.341868 -0.938861
vn 0.447214 0.000000 0.894427
vn -0.447214 0.000000 -0.894427
vn -0.994869 0.000000 0.101173
vn 0.994869 0.000000 -0.101173
vn -0.968494 0.115987 0.220376
vn 0.968494 -0.115987 -0.220376
vn 0.883823 -0.325333 -0.336178
vn -0.883823 0.325333 0.336178
vn 0.782420 -0.433074 -0.447510
vn -0.782420 0.433074 0.447510
vn 0.809764 0.481670 -0.335075
vn -0.809764 -0.481670 0.335075
vn 0.789021 -0.425623 -0.443047
vn -0.789021 0.425623 0.443047
vn 0.655316 -0.517837 -0.549915
vn -0.655316 0.517837 0.549915
vn 0.949457 0.258943 -0.177424
vn -0.949457 -0.258943 0.177424
vn 0.673395 -0.505046 -0.539877
vn -0.673395 0.505046 0.539877
vn 0.000000 -0.683157 -0.730271
vn 0.000000 0.683157 0.730271
vn 0.000000 0.717581 -0.696475
vn 0.000000 -0.717581 0.696475
vn -0.673395 -0.505046 -0.539877
vn 0.673395 0.505046 0.539877
vn -0.913271 0.249074 -0.322331
vn 0.913271 -0.249074 0.322331
vn 0.447209 -0.004457 0.894418
vn -0.447209 0.004457 -0.894418
vn -0.655316 -0.517837 -0.549915
vn 0.655316 0.517837 0.549915
vn -0.625459 0.600102 -0.498677
vn 0.625459 -0.600102 0.498677
vn 0.398726 0.000000 0.917070
vn -0.398726 0.000000 -0.917070
vn -0.804701 0.465218 -0.368821
vn 0.804701 -0.465218 0.368821
vn -0.447214 0.000000 0.894427
vn 0.447214 0.000000 -0.894427
vn 0.707112 0.000000 0.707101
vn -0.707112 0.000000 -0.707101
vn -0.789541 -0.426779 -0.441005
vn 0.789541 0.426779 0.441005
vn 0.000000 1.000000 0.000000
vn 0.000000 -1.000000 0.000000
vn -0.707107 0.000000 0.707107
vn 0.707107 0.000000 -0.707107
vn -0.883823 -0.325333 -0.336178
vn 0.883823 0.325333 0.336178
vn -0.962209 0.223543 -0.155508
vn 0.962209 -0.223543 0.155508
vn 0.894428 0.000000 0.447213
vn -0.894428 0.000000 -0.447213
vn 0.707107 0.000000 0.707107
vn -0.707107 0.000000 -0.707107
vn -0.968494 -0.115987 -0.220376
vn 0.968494 0.115987 0.220376
vn -0.895469 0.342385 -0.284443
vn 0.895469 -0.342385 0.284443
vn -0.894427 0.000000 0.447215
vn 0.894427 0.000000 -0.447215
vn -0.996256 0.015466 -0.085062
vn 0.996256 -0.015466 0.085062
vn -0.994102 0.000000 -0.108448
vn 0.994102 0.000000 0.108448
vn 1.000000 0.000000 0.000000
vn -1.000000 0.000000 0.000000
vn 0.894427 0.000000 -0.447214
vn -0.894427 0.000000 0.447214
vn -0.017473 0.371770 -0.928160
vn 0.017473 -0.371770 0.928160
vn -0.894427 0.000000 -0.447214
vn 0.894427 0.000000 0.447214
vn 0.707101 0.000000 -0.707112
vn -0.707101 0.000000 0.707112
vn 0.095281 0.328555 0.939667
vn -0.095281 -0.328555 -0.939667
vn 0.217800 -0.517275 0.827641
vn -0.217800 0.517275 -0.827641
vn 0.291606 -0.583212 0.758175
vn -0.291606 0.583212 -0.758175
vn 0.418626 0.569893 0.707089
vn -0.418626 -0.569893 -0.707089
vn 0.314977 -0.592898 0.741122
vn -0.314977 0.592898 -0.741122
vn 0.608871 -0.727483 0.316297
vn -0.608871 0.727483 -0.316297
vn 0.680414 0.680414 0.272165
vn -0.680414 -0.680414 -0.272165
vn 0.645019 -0.719294 0.258006
vn -0.645019 0.719294 -0.258006
vn 0.701810 0.427418 -0.569891
vn -0.701810 -0.427418 0.569891
vn 0.635476 -0.369732 -0.677841
vn -0.635476 0.369732 0.677841
vn 0.663201 -0.611039 -0.432198
vn -0.663201 0.611039 0.432198
vn 0.602833 -0.478720 -0.638294
vn -0.602833 0.478720 0.638294
vn 0.690858 0.433794 -0.578393
vn -0.690858 -0.433794 0.578393
vn 0.529197 0.223255 -0.818601
vn -0.529197 -0.223255 0.818601
vn 0.465690 -0.232845 -0.853766
vn -0.465690 0.232845 0.853766
usemtl material-0
f 3//1 2//1 1//1
f 1//2 2//2 3//2
f 7//5 5//5 4//5
f 4//6 5//6 7//6
f 10//7 6//7 8//7
f 8//8 6//8 10//8
f 9//9 7//9 11//9
f 11//10 7//10 9//10
f 12//11 9//11 11//11
f 11//12 9//12 12//12
f 14//13 12//13 11//13
f 11//14 12//14 14//14
f 15//15 13//15 10//15
f 10//16 13//16 15//16
f 14//17 16//17 12//17
f 12//18 16//18 14//18
f 17//19 13//19 15//19
f 15//20 13//20 17//20
f 18//21 16//21 14//21
f 14//22 16//22 18//22
f 17//25 19//25 20//25
f 20//26 19//26 17//26
f 17//27 20//27 21//27
f 21//28 20//28 17//28
f 23//29 21//29 17//29
f 17//30 21//30 23//30
f 23//31 25//31 21//31
f 21//32 25//32 23//32
f 24//33 26//33 22//33
f 22//34 26//34 24//34
f 27//35 25//35 23//35
f 23//36 25//36 27//36
f 27//37 29//37 25//37
f 25//38 29//38 27//38
f 28//39 30//39 26//39
f 26//40 30//40 28//40
f 31//41 29//41 27//41
f 27//42 29//42 31//42
f 33//43 29//43 31//43
f 31//44 29//44 33//44
f 32//45 34//45 30//45
f 30//46 34//46 32//46
f 33//43 31//43 35//43
f 35//44 31//44 33//44
f 36//45 34//45 32//45
f 32//46 34//46 36//46
f 37//3 30//3 34//3
f 34//4 30//4 37//4
f 35//47 39//47 33//47
f 33//48 39//48 35//48
f 36//49 40//49 34//49
f 34//50 40//50 36//50
f 37//3 41//3 30//3
f 30//4 41//4 37//4
f 42//51 37//51 34//51
f 34//52 37//52 42//52
f 39//53 38//53 33//53
f 33//54 38//54 39//54
f 43//55 40//55 36//55
f 36//56 40//56 43//56
f 37//3 44//3 41//3
f 41//4 44//4 37//4
f 42//23 46//23 37//23
f 37//24 46//24 42//24
f 42//57 34//57 47//57
f 47//58 34//58 42//58
f 43//59 49//59 40//59
f 40//60 49//60 43//60
f 46//3 44//3 37//3
f 37//4 44//4 46//4
f 44//61 50//61 41//61
f 41//62 50//62 44//62
f 41//61 51//61 45//61
f 45//62 51//62 41//62
f 52//23 46//23 42//23
f 42//24 46//24 52//24
f 42//63 47//63 53//63
f 53//64 47//64 42//64
f 39//65 54//65 48//65
f 48//66 54//66 39//66
f 46//67 56//67 44//67
f 44//68 56//68 46//68
f 44//67 57//67 50//67
f 50//68 57//68 44//68
f 41//61 50//61 51//61
f 51//62 50//62 41//62
f 51//69 58//69 45//69
f 45//70 58//70 51//70
f 46//67 52//67 59//67
f 59//68 52//68 46//68
f 52//63 42//63 53//63
f 53//64 42//64 52//64
f 53//63 47//63 60//63
f 60//64 47//64 53//64
f 54//71 61//71 48//71
f 48//72 61//72 54//72
f 63//73 49//73 55//73
f 55//74 49//74 63//74
f 46//67 59//67 56//67
f 56//68 59//68 46//68
f 44//67 56//67 57//67
f 57//68 56//68 44//68
f 50//67 57//67 64//67
f 64//68 57//68 50//68
f 50//69 65//69 51//69
f 51//70 65//70 50//70
f 66//69 58//69 51//69
f 51//70 58//70 66//70
f 52//67 67//67 59//67
f 59//68 67//68 52//68
f 52//63 53//63 68//63
f 68//64 53//64 52//64
f 53//75 60//75 69//75
f 69//76 60//76 53//76
f 61//79 62//79 48//79
f 48//80 62//80 61//80
f 63//81 70//81 49//81
f 49//82 70//82 63//82
f 50//67 64//67 65//67
f 65//68 64//68 50//68
f 51//69 65//69 66//69
f 66//70 65//70 51//70
f 66//83 7//83 58//83
f 58//84 7//84 66//84
f 52//67 68//67 67//67
f 67//68 68//68 52//68
f 68//75 53//75 69//75
f 69//76 53//76 68//76
f 69//75 60//75 71//75
f 71//76 60//76 69//76
f 61//85 63//85 62//85
f 62//86 63//86 61//86
f 61//87 70//87 63//87
f 63//88 70//88 61//88
f 65//67 64//67 72//67
f 72//68 64//68 65//68
f 73//83 66//83 65//83
f 65//84 66//84 73//84
f 74//83 7//83 66//83
f 66//84 7//84 74//84
f 67//67 68//67 75//67
f 75//68 68//68 67//68
f 68//75 69//75 76//75
f 76//76 69//76 68//76
f 69//89 71//89 77//89
f 77//90 71//90 69//90
f 65//67 72//67 73//67
f 73//68 72//68 65//68
f 73//83 74//83 66//83
f 66//84 74//84 73//84
f 74//90 78//90 7//90
f 7//89 78//89 74//89
f 68//67 76//67 75//67
f 75//68 76//68 68//68
f 76//89 69//89 77//89
f 77//90 69//90 76//90
f 77//89 71//89 79//89
f 79//90 71//90 77//90
f 73//67 72//67 81//67
f 81//68 72//68 73//68
f 82//90 74//90 73//90
f 73//89 74//89 82//89
f 83//90 78//90 74//90
f 74//89 78//89 83//89
f 75//67 76//67 84//67
f 84//68 76//68 75//68
f 76//89 77//89 85//89
f 85//90 77//90 76//90
f 77//91 79//91 86//91
f 86//92 79//92 77//92
f 80//93 87//93 70//93
f 70//94 87//94 80//94
f 73//67 81//67 82//67
f 82//68 81//68 73//68
f 82//90 83//90 74//90
f 74//89 83//89 82//89
f 83//95 89//95 78//95
f 78//96 89//96 83//96
f 76//67 85//67 84//67
f 84//68 85//68 76//68
f 85//91 77//91 86//91
f 86//92 77//92 85//92
f 86//91 79//91 90//91
f 90//92 79//92 86//92
f 81//67 93//67 82//67
f 82//68 93//68 81//68
f 94//95 83//95 82//95
f 82//96 83//96 94//96
f 95//95 89//95 83//95
f 83//96 89//96 95//96
f 84//67 85//67 96//67
f 96//68 85//68 84//68
f 85//91 86//91 97//91
f 97//92 86//92 85//92
f 90//97 98//97 86//97
f 86//98 98//98 90//98
f 92//99 100//99 88//99
f 88//100 100//100 92//100
f 82//67 93//67 94//67
f 94//68 93//68 82//68
f 94//95 95//95 83//95
f 83//96 95//96 94//96
f 95//78 101//78 89//78
f 89//77 101//77 95//77
f 96//67 85//67 97//67
f 97//68 85//68 96//68
f 86//97 98//97 97//97
f 97//98 98//98 86//98
f 90//97 102//97 98//97
f 98//98 102//98 90//98
f 91//101 99//101 103//101
f 103//102 99//102 91//102
f 93//67 105//67 94//67
f 94//68 105//68 93//68
f 106//78 95//78 94//78
f 94//77 95//77 106//77
f 107//78 101//78 95//78
f 95//77 101//77 107//77
f 96//67 97//67 108//67
f 108//68 97//68 96//68
f 97//97 98//97 109//97
f 109//98 98//98 97//98
f 102//62 110//62 98//62
f 98//61 110//61 102//61
f 103//103 99//103 111//103
f 111//104 99//104 103//104
f 104//105 112//105 100//105
f 100//106 112//106 104//106
f 105//67 106//67 94//67
f 94//68 106//68 105//68
f 107//78 95//78 106//78
f 106//77 95//77 107//77
f 113//24 101//24 107//24
f 107//23 101//23 113//23
f 108//67 97//67 109//67
f 109//68 97//68 108//68
f 98//62 110//62 109//62
f 109//61 110//61 98//61
f 102//62 114//62 110//62
f 110//61 114//61 102//61
f 103//107 111//107 115//107
f 115//108 111//108 103//108
f 105//67 117//67 106//67
f 106//68 117//68 105//68
f 118//24 107//24 106//24
f 106//23 107//23 118//23
f 113//24 107//24 119//24
f 119//23 107//23 113//23
f 108//67 109//67 120//67
f 120//68 109//68 108//68
f 109//62 110//62 121//62
f 121//61 110//61 109//61
f 114//4 119//4 110//4
f 110//3 119//3 114//3
f 115//109 111//109 71//109
f 71//110 111//110 115//110
f 116//111 122//111 112//111
f 112//112 122//112 116//112
f 117//67 118//67 106//67
f 106//68 118//68 117//68
f 119//24 107//24 118//24
f 118//23 107//23 119//23
f 114//4 113//4 119//4
f 119//3 113//3 114//3
f 120//67 109//67 121//67
f 121//68 109//68 120//68
f 110//4 119//4 121//4
f 121//3 119//3 110//3
f 115//113 71//113 123//113
f 123//114 71//114 115//114
f 122//115 116//115 124//115
f 124//116 116//116 122//116
f 125//67 118//67 117//67
f 117//68 118//68 125//68
f 121//4 119//4 118//4
f 118//3 119//3 121//3
f 120//67 121//67 125//67
f 125//68 121//68 120//68
f 123//117 71//117 126//117
f 126//118 71//118 123//118
f 125//67 121//67 118//67
f 118//68 121//68 125//68
f 127//119 123//119 126//119
f 126//120 123//120 127//120
f 127//121 126//121 129//121
f 129//122 126//122 127//122
f 124//123 128//123 130//123
f 130//124 128//124 124//124
f 128//125 131//125 130//125
f 130//126 131//126 128//126
f 132//127 129//127 133//127
f 133//128 129//128 132//128