mtllib new-13.mtl
v 0.476780 0.130716 0.252381
v 0.483852 0.135467 0.265182
v 0.476781 0.170901 0.298046
v 0.476780 0.127248 0.256829
v 0.483852 0.162805 0.289572
v 0.476781 0.161163 0.305158
v 0.483852 0.128713 0.270273
v 0.483852 0.155479 0.294922
v 0.476781 0.149984 0.309662
v 0.476780 0.122745 0.260223
v 0.483852 0.147074 0.298309
v 0.476781 0.138066 0.311084
v 0.483852 0.120923 0.273807
v 0.483852 0.137458 0.299456
v 0.476780 0.117496 0.262604
v 0.476780 -0.119649 0.307406
v 0.483852 0.112778 0.275186
v 0.476780 0.111880 0.263555
v 0.483852 -0.118750 0.295800
v 0.476780 -0.083284 0.260924
v 0.483852 -0.085966 0.272507
v 0.476780 -0.137397 0.304898
v 0.476780 -0.093612 0.256043
v 0.483852 -0.101047 0.265379
v 0.483852 -0.134255 0.293609
v 0.483852 -0.109738 0.254348
v 0.476780 -0.153889 0.297876
v 0.476780 -0.099145 0.249020
v 0.483852 -0.147953 0.287776
v 0.483852 -0.159898 0.278504
v 0.476780 -0.168218 0.286753
vn 1.000000 0.000000 -0.000001
vn -1.000000 0.000000 0.000001
vn 1.000000 -0.000001 -0.000001
vn -1.000000 0.000001 0.000001
vn -1.000000 0.000000 0.000000
vn 1.000000 0.000000 0.000000
vn 1.000000 -0.000001 0.000000
vn -1.000000 0.000001 0.000000
vn 1.000000 -0.000003 -0.000003
vn -1.000000 0.000003 0.000003
vn -0.854212 0.410028 0.319686
vn 0.854212 -0.410028 -0.319686
vn -0.854212 0.312962 0.415183
vn 0.854212 -0.312962 -0.415183
vn -0.854210 -0.306632 -0.419884
vn 0.854210 0.306632 0.419884
vn -0.854212 0.312960 0.415184
vn 0.854212 -0.312960 -0.415184
vn -1.000000 0.000001 0.000002
vn 1.000000 -0.000001 -0.000002
vn -0.854210 -0.306631 -0.419884
vn 0.854210 0.306631 0.419884
vn -0.854210 -0.194312 -0.482253
vn 0.854210 0.194312 0.482253
vn -0.854213 0.214806 0.473475
vn 0.854213 -0.214806 -0.473475
vn -1.000000 0.000000 0.000002
vn 1.000000 0.000000 -0.000002
vn -0.854212 -0.194308 -0.482252
vn 0.854212 0.194308 0.482252
vn -0.854211 -0.061593 -0.516265
vn 0.854211 0.061593 0.516265
vn -0.854214 0.214802 0.473475
vn 0.854214 -0.214802 -0.473475
vn -0.854210 -0.061597 -0.516267
vn 0.854210 0.061597 0.516267
vn -0.854213 0.086781 0.512630
vn 0.854213 -0.086781 -0.512630
vn -0.854210 0.007419 -0.519875
vn 0.854210 -0.007419 0.519875
vn -0.854211 0.086791 0.512632
vn 0.854211 -0.086791 -0.512632
vn -0.854211 0.007419 -0.519873
vn 0.854211 -0.007419 0.519873
vn -0.854211 -0.007008 0.519879
vn 0.854211 0.007008 -0.519879
vn -0.854211 0.072746 -0.514812
vn 0.854211 -0.072746 0.514812
vn -0.854213 -0.007008 0.519876
vn 0.854213 0.007008 -0.519876
vn -0.854213 0.072749 -0.514809
vn 0.854213 -0.072749 0.514809
vn -0.854211 -0.222157 0.470075
vn 0.854211 0.222157 -0.470075
vn -0.854212 -0.222159 0.470071
vn 0.854212 0.222159 -0.470071
vn -1.000000 0.000004 0.000002
vn 1.000000 -0.000004 -0.000002
vn -0.854212 0.203690 -0.478363
vn 0.854212 -0.203690 0.478363
vn -0.854211 -0.408416 0.321745
vn 0.854211 0.408416 -0.321745
vn -0.854209 0.203687 -0.478370
vn 0.854209 -0.203687 0.478370
vn -0.854213 -0.408416 0.321739
vn 0.854213 0.408416 -0.321739
vn -1.000000 0.000002 0.000004
vn 1.000000 -0.000002 -0.000004
vn -0.854209 0.318815 -0.410711
vn 0.854209 -0.318815 0.410711
usemtl material-0
f 3//7 4//7 1//7
f 1//8 4//8 3//8
f 2//11 1//11 4//11
f 4//12 1//12 2//12
f 3//1 6//1 4//1
f 4//2 6//2 3//2
f 2//13 4//13 7//13
f 7//14 4//14 2//14
f 5//4 2//4 8//4
f 8//3 2//3 5//3
f 3//15 5//15 6//15
f 6//16 5//16 3//16
f 6//1 9//1 4//1
f 4//2 9//2 6//2
f 7//17 4//17 10//17
f 10//18 4//18 7//18
f 11//4 2//4 7//4
f 7//3 2//3 11//3
f 8//19 2//19 11//19
f 11//20 2//20 8//20
f 5//21 8//21 6//21
f 6//22 8//22 5//22
f 6//23 8//23 9//23
f 9//24 8//24 6//24
f 9//1 12//1 4//1
f 4//2 12//2 9//2
f 12//1 10//1 4//1
f 4//2 10//2 12//2
f 7//25 10//25 13//25
f 13//26 10//26 7//26
f 11//27 7//27 14//27
f 14//28 7//28 11//28
f 8//29 11//29 9//29
f 9//30 11//30 8//30
f 9//31 11//31 12//31
f 12//32 11//32 9//32
f 12//1 15//1 10//1
f 10//2 15//2 12//2
f 10//33 15//33 13//33
f 13//34 15//34 10//34
f 14//19 7//19 13//19
f 13//20 7//20 14//20
f 11//35 14//35 12//35
f 12//36 14//36 11//36
f 12//1 16//1 15//1
f 15//2 16//2 12//2
f 13//37 15//37 17//37
f 17//38 15//38 13//38
f 14//27 13//27 17//27
f 17//28 13//28 14//28
f 12//39 14//39 16//39
f 16//40 14//40 12//40
f 15//6 16//6 18//6
f 18//5 16//5 15//5
f 15//41 18//41 17//41
f 17//42 18//42 15//42
f 14//27 17//27 19//27
f 19//28 17//28 14//28
f 14//43 19//43 16//43
f 16//44 19//44 14//44
f 18//1 16//1 20//1
f 20//2 16//2 18//2
f 17//45 18//45 21//45
f 21//46 18//46 17//46
f 17//5 21//5 19//5
f 19//6 21//6 17//6
f 19//47 22//47 16//47
f 16//48 22//48 19//48
f 20//1 16//1 23//1
f 23//2 16//2 20//2
f 18//49 20//49 21//49
f 21//50 20//50 18//50
f 21//5 24//5 19//5
f 19//6 24//6 21//6
f 19//51 25//51 22//51
f 22//52 25//52 19//52
f 23//9 16//9 22//9
f 22//10 16//10 23//10
f 20//53 23//53 24//53
f 24//54 23//54 20//54
f 20//55 24//55 21//55
f 21//56 24//56 20//56
f 24//57 26//57 19//57
f 19//58 26//58 24//58
f 26//2 25//2 19//2
f 19//1 25//1 26//1
f 25//59 27//59 22//59
f 22//60 27//60 25//60
f 23//6 22//6 28//6
f 28//5 22//5 23//5
f 23//61 26//61 24//61
f 24//62 26//62 23//62
f 26//2 29//2 25//2
f 25//1 29//1 26//1
f 25//63 29//63 27//63
f 27//64 29//64 25//64
f 28//6 22//6 27//6
f 27//5 22//5 28//5
f 23//65 28//65 26//65
f 26//66 28//66 23//66
f 26//67 30//67 29//67
f 29//68 30//68 26//68
f 29//69 31//69 27//69
f 27//70 31//70 29//70