mtllib new-11.mtl
v 0.476780 0.135686 -0.206727
v 0.483851 0.147307 -0.207396
v 0.476780 0.134818 -0.213951
v 0.483851 0.146127 -0.217213
v 0.476780 0.241504 -0.363481
v 0.483851 0.244809 -0.352336
v 0.476780 0.131736 -0.220463
v 0.476780 0.267184 -0.370123
v 0.483851 0.141375 -0.227255
v 0.483851 0.269844 -0.358811
v 0.476780 0.293129 -0.375619
v 0.476780 0.126519 -0.225678
v 0.483851 0.188092 -0.256634
v 0.483851 0.133421 -0.235206
v 0.476780 0.319288 -0.379842
v 0.483851 -0.120573 -0.229828
v 0.476780 0.119938 -0.229010
v 0.483851 0.123545 -0.240206
v 0.483851 0.195860 -0.265437
v 0.476780 0.345608 -0.382899
v 0.483851 0.295260 -0.364195
v 0.476780 -0.124724 -0.240689
v 0.483851 -0.076406 -0.179233
v 0.476780 0.112713 -0.230137
v 0.476780 0.197588 -0.249836
v 0.483851 0.112655 -0.241904
v 0.483851 0.205041 -0.272669
v 0.476780 0.372052 -0.384859
v 0.483851 0.320884 -0.368332
v 0.483851 0.294871 -0.305000
v 0.476780 -0.070271 -0.169295
v 0.483851 -0.137055 -0.222732
v 0.483851 -0.087337 -0.170828
v 0.483851 -0.064319 -0.185080
v 0.476780 0.105502 -0.228939
v 0.483851 0.102712 -0.240253
v 0.476780 0.203876 -0.256962
v 0.483851 0.215258 -0.277758
v 0.476780 0.211290 -0.262803
v 0.483851 0.346708 -0.371331
v 0.483851 0.316381 -0.312177
v 0.483851 0.274117 -0.297316
v 0.476780 -0.059949 -0.174288
v 0.476780 -0.079406 -0.162271
v 0.476780 -0.142791 -0.232911
v 0.476780 0.219702 -0.266992
v 0.483851 0.372653 -0.373254
v 0.476780 0.277967 -0.286353
v 0.476780 0.298727 -0.294040
v 0.483851 -0.151030 -0.212763
v 0.483851 -0.096471 -0.160650
v 0.476780 -0.087020 -0.153787
v 0.476780 0.398554 -0.385642
v 0.483851 0.359835 -0.323758
v 0.476780 0.319718 -0.301043
v 0.476780 -0.158793 -0.221495
v 0.476780 0.405849 -0.321018
v 0.483851 0.399516 -0.374048
v 0.483851 0.403796 -0.332455
v 0.483851 -0.162660 -0.199950
v 0.476780 -0.092731 -0.143921
v 0.476780 0.362461 -0.312435
v 0.476780 0.565835 -0.346833
v 0.476780 0.558578 -0.407542
v 0.476780 -0.172092 -0.206845
v 0.483851 -0.103429 -0.148630
v 0.483851 0.562640 -0.358086
v 0.483851 0.558288 -0.395776
v 0.483851 0.573021 -0.362394
v 0.476780 0.574242 -0.404606
v 0.483851 0.569210 -0.393729
v 0.476780 0.580257 -0.352818
v 0.483851 0.576945 -0.387457
v 0.483851 0.578912 -0.369830
v 0.476780 0.586664 -0.394533
v 0.483851 0.580258 -0.378896
v 0.476780 0.589947 -0.365051
v 0.476780 0.592201 -0.380226
vn 1.000000 0.000002 -0.000001
vn -1.000000 -0.000002 0.000001
vn 1.000000 0.000000 -0.000001
vn -1.000000 0.000000 0.000001
vn 1.000000 -0.000001 -0.000001
vn -1.000000 0.000001 0.000001
vn -1.000000 0.000000 0.000000
vn 1.000000 0.000000 0.000000
vn 1.000000 -0.000001 0.000000
vn -1.000000 0.000001 0.000000
vn 1.000000 0.000001 0.000000
vn -1.000000 -0.000001 0.000000
vn 1.000000 -0.000002 0.000000
vn -1.000000 0.000002 0.000000
vn 1.000000 -0.000003 -0.000003
vn -1.000000 0.000003 0.000003
vn -1.000000 0.000002 0.000001
vn 1.000000 -0.000002 -0.000001
vn -1.000000 0.000004 0.000004
vn 1.000000 -0.000004 -0.000004
vn -0.854209 0.130204 0.503363
vn 0.854209 -0.130204 -0.503363
vn -0.854213 0.130199 0.503358
vn 0.854213 -0.130199 -0.503358
vn -1.000000 -0.000021 -0.000016
vn 1.000000 0.000021 0.000016
vn -0.854213 0.107736 0.508639
vn 0.854213 -0.107736 -0.508639
vn -0.854209 0.165283 0.492959
vn 0.854209 -0.165283 -0.492959
vn 1.000000 0.000002 0.000001
vn -1.000000 -0.000002 -0.000001
vn -1.000000 0.000001 0.000002
vn 1.000000 -0.000001 -0.000002
vn -1.000000 0.000007 0.000006
vn 1.000000 -0.000007 -0.000006
vn 1.000000 0.000001 0.000001
vn -1.000000 -0.000001 -0.000001
vn -0.854213 0.082870 0.513277
vn 0.854213 -0.082870 -0.513277
vn -0.854211 0.234857 -0.463859
vn 0.854211 -0.234857 0.463859
vn -0.854212 -0.389853 -0.344001
vn 0.854212 0.389853 0.344001
vn -0.854212 0.059984 0.516454
vn 0.854212 -0.059984 -0.516454
vn -0.854211 0.082872 0.513279
vn 0.854211 -0.082872 -0.513279
vn -0.854209 0.205609 0.477548
vn 0.854209 -0.205609 -0.477548
vn -1.000000 0.000002 0.000003
vn 1.000000 -0.000002 -0.000003
vn -0.854212 0.080136 -0.513712
vn 0.854212 -0.080136 0.513712
vn 1.000000 -0.000010 -0.000010
vn -1.000000 0.000010 0.000010
vn -0.854210 0.080131 -0.513716
vn 0.854210 -0.080131 0.513716
vn -0.854213 -0.389849 -0.344002
vn 0.854213 0.389849 0.344002
vn -0.854213 -0.321737 -0.408418
vn 0.854213 0.321737 0.408418
vn 1.000000 -0.000015 -0.000020
vn -1.000000 0.000015 0.000020
vn -0.854211 0.038416 0.518505
vn 0.854211 -0.038416 -0.518505
vn -0.854211 0.059984 0.516454
vn 0.854211 -0.059984 -0.516454
vn -0.854208 0.205610 0.477549
vn 0.854208 -0.205610 -0.477549
vn -0.854211 -0.316928 -0.412165
vn 0.854211 0.316928 0.412165
vn -0.854213 -0.226390 -0.468047
vn 0.854213 0.226390 0.468047
vn -0.854210 -0.085214 -0.512898
vn 0.854210 0.085214 0.512898
vn -0.854211 -0.085211 -0.512896
vn 0.854211 0.085211 0.512896
vn -0.854212 -0.321740 -0.408418
vn 0.854212 0.321740 0.408418
vn -0.854212 -0.231786 -0.465399
vn 0.854212 0.231786 0.465399
vn -1.000000 0.000002 0.000002
vn 1.000000 -0.000002 -0.000002
vn -0.854208 0.038421 0.518511
vn 0.854208 -0.038421 -0.518511
vn -0.854209 -0.180535 -0.487580
vn 0.854209 0.180535 0.487580
vn -0.854210 -0.164561 -0.493198
vn 0.854210 0.164561 0.493198
vn -0.854210 -0.226397 -0.468048
vn 0.854210 0.226397 0.468048
vn -0.854213 -0.316924 -0.412165
vn 0.854213 0.316924 0.412165
vn -0.854209 0.301944 0.423270
vn 0.854209 -0.301944 -0.423270
vn -0.854211 -0.386937 -0.347279
vn 0.854211 0.386937 0.347279
vn -0.854210 -0.163075 -0.493692
vn 0.854210 0.163075 0.493692
vn -0.854211 -0.163074 -0.493691
vn 0.854211 0.163074 0.493691
vn -0.854212 -0.231788 -0.465399
vn 0.854212 0.231788 0.465399
vn -0.854212 -0.163948 -0.493399
vn 0.854212 0.163948 0.493399
vn -0.854208 0.015366 0.519705
vn 0.854208 -0.015366 -0.519705
vn -0.854209 -0.163951 -0.493404
vn 0.854209 0.163951 0.493404
vn -0.854210 -0.180533 -0.487578
vn 0.854210 0.180533 0.487578
vn -0.854210 0.301941 0.423269
vn 0.854210 -0.301941 -0.423269
vn -0.854212 -0.386936 -0.347279
vn 0.854212 0.386936 0.347279
vn -0.854210 0.015364 0.519701
vn 0.854210 -0.015364 -0.519701
vn -0.854211 -0.133895 -0.502391
vn 0.854211 0.133895 0.502391
vn -0.854211 0.384970 0.349460
vn 0.854211 -0.384970 -0.349460
vn -0.854212 -0.449984 -0.260455
vn 0.854212 0.449984 0.260455
vn -0.854210 0.070497 0.515126
vn 0.854210 -0.070497 -0.515126
vn -0.854213 -0.100901 -0.510039
vn 0.854213 0.100901 0.510039
vn -0.854213 -0.133893 -0.502388
vn 0.854213 0.133893 0.502388
vn -0.854209 0.384973 0.349460
vn 0.854209 -0.384973 -0.349460
vn -0.854212 -0.449984 -0.260454
vn 0.854212 0.449984 0.260454
vn -0.854216 -0.100898 -0.510034
vn 0.854216 0.100898 0.510034
vn -0.854212 -0.082823 -0.513286
vn 0.854212 0.082823 0.513286
vn -0.854210 0.070497 0.515127
vn 0.854210 -0.070497 -0.515127
vn -0.854216 -0.082821 -0.513279
vn 0.854216 0.082821 0.513279
vn -0.854212 -0.199282 -0.480217
vn 0.854212 0.199282 0.480217
vn -0.854209 -0.095796 0.511028
vn 0.854209 0.095796 -0.511028
vn -0.854213 -0.199280 -0.480216
vn 0.854213 0.199280 0.480216
vn -0.854214 -0.095803 0.511019
vn 0.854214 0.095803 -0.511019
vn -0.854213 -0.407557 -0.322828
vn 0.854213 0.407557 0.322828
vn -0.854213 -0.327468 0.403837
vn 0.854213 0.327468 -0.403837
vn -0.854211 -0.327467 0.403842
vn 0.854211 0.327467 -0.403842
vn -0.854214 -0.407554 -0.322829
vn 0.854214 0.407554 0.322829
vn 1.000000 -0.000005 -0.000002
vn -1.000000 0.000005 0.000002
vn -0.854209 -0.484888 0.187644
vn 0.854209 0.484888 -0.187644
vn -0.854212 -0.484886 0.187636
vn 0.854212 0.484886 -0.187636
vn -0.854213 -0.514284 -0.076371
vn 0.854213 0.514284 0.076371
vn -0.854209 -0.514291 -0.076365
vn 0.854209 0.514291 0.076365
usemtl material-0
f 5//11 1//11 3//11
f 3//12 1//12 5//12
f 6//12 4//12 2//12
f 2//11 4//11 6//11
f 8//15 1//15 5//15
f 5//16 1//16 8//16
f 5//11 3//11 7//11
f 7//12 3//12 5//12
f 6//19 9//19 4//19
f 4//20 9//20 6//20
f 10//4 6//4 2//4
f 2//3 6//3 10//3
f 11//8 1//8 8//8
f 8//7 1//7 11//7
f 8//21 5//21 6//21
f 6//22 5//22 8//22
f 5//8 7//8 12//8
f 12//7 7//7 5//7
f 6//7 14//7 9//7
f 9//8 14//8 6//8
f 10//23 8//23 6//23
f 6//24 8//24 10//24
f 10//25 2//25 13//25
f 13//26 2//26 10//26
f 15//8 1//8 11//8
f 11//7 1//7 15//7
f 11//27 8//27 10//27
f 10//28 8//28 11//28
f 6//29 5//29 16//29
f 16//30 5//30 6//30
f 5//31 12//31 17//31
f 17//32 12//32 5//32
f 6//7 18//7 14//7
f 14//8 18//8 6//8
f 10//35 13//35 19//35
f 19//36 13//36 10//36
f 20//37 1//37 15//37
f 15//38 1//38 20//38
f 15//39 11//39 21//39
f 21//40 11//40 15//40
f 21//27 11//27 10//27
f 10//28 11//28 21//28
f 5//29 22//29 16//29
f 16//30 22//30 5//30
f 6//4 16//4 23//4
f 23//3 16//3 6//3
f 5//3 17//3 24//3
f 24//4 17//4 5//4
f 6//7 26//7 18//7
f 18//8 26//8 6//8
f 14//41 18//41 17//41
f 17//42 18//42 14//42
f 25//43 19//43 13//43
f 13//44 19//44 25//44
f 10//33 19//33 27//33
f 27//34 19//34 10//34
f 28//8 1//8 20//8
f 20//7 1//7 28//7
f 20//45 15//45 29//45
f 29//46 15//46 20//46
f 29//47 15//47 21//47
f 21//48 15//48 29//48
f 21//17 10//17 30//17
f 30//18 10//18 21//18
f 5//3 31//3 22//3
f 22//4 31//4 5//4
f 16//49 22//49 32//49
f 32//50 22//50 16//50
f 23//6 16//6 33//6
f 33//5 16//5 23//5
f 6//51 23//51 34//51
f 34//52 23//52 6//52
f 18//53 24//53 17//53
f 17//54 24//54 18//54
f 5//55 24//55 35//55
f 35//56 24//56 5//56
f 6//4 36//4 26//4
f 26//3 36//3 6//3
f 18//57 26//57 24//57
f 24//58 26//58 18//58
f 37//59 19//59 25//59
f 25//60 19//60 37//60
f 27//61 19//61 37//61
f 37//62 19//62 27//62
f 10//6 27//6 38//6
f 38//5 27//5 10//5
f 28//63 39//63 1//63
f 1//64 39//64 28//64
f 28//65 20//65 40//65
f 40//66 20//66 28//66
f 40//67 20//67 29//67
f 29//68 20//68 40//68
f 29//4 21//4 41//4
f 41//3 21//3 29//3
f 30//33 10//33 42//33
f 42//34 10//34 30//34
f 41//4 21//4 30//4
f 30//3 21//3 41//3
f 5//34 43//34 31//34
f 31//33 43//33 5//33
f 31//5 44//5 22//5
f 22//6 44//6 31//6
f 22//69 45//69 32//69
f 32//70 45//70 22//70
f 33//4 16//4 32//4
f 32//3 16//3 33//3
f 23//71 33//71 44//71
f 44//72 33//72 23//72
f 34//73 23//73 31//73
f 31//74 23//74 34//74
f 6//4 34//4 36//4
f 36//3 34//3 6//3
f 24//75 26//75 35//75
f 35//76 26//76 24//76
f 5//8 35//8 43//8
f 43//7 35//7 5//7
f 26//77 36//77 35//77
f 35//78 36//78 26//78
f 39//79 27//79 37//79
f 37//80 27//80 39//80
f 38//81 27//81 39//81
f 39//82 27//82 38//82
f 42//83 10//83 38//83
f 38//84 10//84 42//84
f 28//5 46//5 39//5
f 39//6 46//6 28//6
f 47//85 28//85 40//85
f 40//86 28//86 47//86
f 40//4 29//4 41//4
f 41//3 29//3 40//3
f 30//87 42//87 48//87
f 48//88 42//88 30//88
f 41//89 30//89 49//89
f 49//90 30//90 41//90
f 43//91 34//91 31//91
f 31//92 34//92 43//92
f 31//93 23//93 44//93
f 44//94 23//94 31//94
f 44//3 45//3 22//3
f 22//4 45//4 44//4
f 32//95 45//95 50//95
f 50//96 45//96 32//96
f 33//6 32//6 51//6
f 51//5 32//5 33//5
f 44//97 33//97 52//97
f 52//98 33//98 44//98
f 36//99 34//99 43//99
f 43//100 34//100 36//100
f 35//101 36//101 43//101
f 43//102 36//102 35//102
f 46//103 38//103 39//103
f 39//104 38//104 46//104
f 42//105 38//105 46//105
f 46//106 38//106 42//106
f 28//3 48//3 46//3
f 46//4 48//4 28//4
f 53//107 28//107 47//107
f 47//108 28//108 53//108
f 47//7 40//7 54//7
f 54//8 40//8 47//8
f 54//12 40//12 41//12
f 41//11 40//11 54//11
f 48//109 42//109 46//109
f 46//110 42//110 48//110
f 49//111 30//111 48//111
f 48//112 30//112 49//112
f 55//89 41//89 49//89
f 49//90 41//90 55//90
f 44//5 52//5 45//5
f 45//6 52//6 44//6
f 45//113 56//113 50//113
f 50//114 56//114 45//114
f 51//4 32//4 50//4
f 50//3 32//3 51//3
f 52//115 33//115 51//115
f 51//116 33//116 52//116
f 28//3 49//3 48//3
f 48//4 49//4 28//4
f 57//13 28//13 53//13
f 53//14 28//14 57//14
f 58//117 53//117 47//117
f 47//118 53//118 58//118
f 59//7 47//7 54//7
f 54//8 47//8 59//8
f 54//119 41//119 55//119
f 55//120 41//120 54//120
f 28//3 55//3 49//3
f 49//4 55//4 28//4
f 52//5 56//5 45//5
f 45//6 56//6 52//6
f 50//121 56//121 60//121
f 60//122 56//122 50//122
f 51//6 50//6 60//6
f 60//5 50//5 51//5
f 52//123 51//123 61//123
f 61//124 51//124 52//124
f 57//3 62//3 28//3
f 28//4 62//4 57//4
f 63//8 57//8 53//8
f 53//7 57//7 63//7
f 64//125 53//125 58//125
f 58//126 53//126 64//126
f 59//7 58//7 47//7
f 47//8 58//8 59//8
f 59//127 54//127 62//127
f 62//128 54//128 59//128
f 62//129 54//129 55//129
f 55//130 54//130 62//130
f 28//5 62//5 55//5
f 55//6 62//6 28//6
f 52//5 65//5 56//5
f 56//6 65//6 52//6
f 56//131 65//131 60//131
f 60//132 65//132 56//132
f 51//10 60//10 66//10
f 66//9 60//9 51//9
f 61//133 51//133 66//133
f 66//134 51//134 61//134
f 57//135 59//135 62//135
f 62//136 59//136 57//136
f 63//137 67//137 57//137
f 57//138 67//138 63//138
f 63//3 53//3 64//3
f 64//4 53//4 63//4
f 64//139 58//139 68//139
f 68//140 58//140 64//140
f 67//7 58//7 59//7
f 59//8 58//8 67//8
f 67//141 59//141 57//141
f 57//142 59//142 67//142
f 69//143 67//143 63//143
f 63//144 67//144 69//144
f 70//3 63//3 64//3
f 64//4 63//4 70//4
f 67//7 68//7 58//7
f 58//8 68//8 67//8
f 70//145 64//145 68//145
f 68//146 64//146 70//146
f 69//7 71//7 67//7
f 67//8 71//8 69//8
f 72//147 69//147 63//147
f 63//148 69//148 72//148
f 72//3 63//3 70//3
f 70//4 63//4 72//4
f 71//7 68//7 67//7
f 67//8 68//8 71//8
f 70//149 68//149 71//149
f 71//150 68//150 70//150
f 73//7 71//7 69//7
f 69//8 71//8 73//8
f 72//151 74//151 69//151
f 69//152 74//152 72//152
f 75//1 72//1 70//1
f 70//2 72//2 75//2
f 75//153 70//153 71//153
f 71//154 70//154 75//154
f 75//155 71//155 73//155
f 73//156 71//156 75//156
f 76//7 73//7 69//7
f 69//8 73//8 76//8
f 77//157 74//157 72//157
f 72//158 74//158 77//158
f 76//7 69//7 74//7
f 74//8 69//8 76//8
f 78//159 72//159 75//159
f 75//160 72//160 78//160
f 78//161 75//161 73//161
f 73//162 75//162 78//162
f 78//163 73//163 76//163
f 76//164 73//164 78//164
f 77//165 76//165 74//165
f 74//166 76//166 77//166
f 78//8 77//8 72//8
f 72//7 77//7 78//7
f 78//167 76//167 77//167
f 77//168 76//168 78//168