# SSTK version 0.8.0
# 39
mtllib original-39.mtl
o mesh35/mesh35-geometry#mesh35-geometry
v 0.187248 0.489477 -0.448445
v 0.190477 0.478737 -0.449859
v 0.190477 0.478825 -0.446471
v 0.190477 0.479699 -0.453109
v 0.198931 0.472099 -0.450733
v 0.190477 0.481619 -0.455902
v 0.198931 0.473656 -0.455991
v 0.198931 0.472243 -0.445251
v 0.190477 0.484308 -0.457965
v 0.198931 0.476763 -0.460511
v 0.209381 0.473656 -0.455991
v 0.209381 0.472099 -0.450733
v 0.190477 0.487503 -0.459097
v 0.198931 0.481113 -0.463849
v 0.209381 0.476763 -0.460511
v 0.209381 0.472243 -0.445251
v 0.190477 0.490891 -0.459185
v 0.198931 0.486283 -0.465679
v 0.209381 0.481113 -0.463849
v 0.217835 0.481619 -0.455902
v 0.217835 0.479699 -0.453109
v 0.217835 0.478737 -0.449859
v 0.198931 0.491765 -0.465823
v 0.190477 0.494140 -0.458223
v 0.209381 0.486283 -0.465679
v 0.217835 0.484308 -0.457965
v 0.217835 0.478825 -0.446471
v 0.198931 0.497023 -0.464266
v 0.190477 0.496934 -0.456303
v 0.209381 0.491765 -0.465823
v 0.217835 0.487503 -0.459097
v 0.221064 0.489477 -0.448445
v 0.209381 0.497023 -0.464266
v 0.198931 0.501542 -0.461159
v 0.190477 0.498997 -0.453614
v 0.217835 0.490891 -0.459185
v 0.209381 0.501542 -0.461159
v 0.198931 0.504881 -0.456809
v 0.190477 0.500128 -0.450419
v 0.217835 0.494140 -0.458223
v 0.217835 0.496934 -0.456303
v 0.209381 0.504881 -0.456809
v 0.198931 0.506711 -0.451639
v 0.217835 0.498997 -0.453614
v 0.209381 0.506711 -0.451639
v 0.217835 0.500128 -0.450419
vn -0.9573492865093145 -0.2888340864404009 0.0075640022637059184
vn 0.9573492865093145 0.2888340864404009 -0.0075640022637059184
vn -0.9573486861572184 -0.27703490918104573 -0.08206797309607097
vn 0.9573486861572184 0.27703490918104573 0.08206797309607097
vn -0.6160988802787531 -0.78739884699149 0.020620995992897483
vn 0.6160988802787531 0.78739884699149 -0.020620995992897483
vn -0.9573486811402359 -0.23812292068948354 -0.16364894549419104
vn 0.9573486811402359 0.23812292068948354 0.16364894549419104
vn -0.6161079215445142 -0.7552209038297987 -0.22372397151087944
vn 0.6161079215445142 0.7552209038297987 0.22372397151087944
vn -0.6161000794285515 -0.755234097365919 -0.2237010288398741
vn 0.6161000794285515 0.755234097365919 0.2237010288398741
vn -0.61609824715125 -0.7873993158696295 0.02062200827263366
vn 0.61609824715125 0.7873993158696295 -0.02062200827263366
vn -0.9573489268618958 -0.17589598656216276 -0.22922398248809056
vn 0.9573489268618958 0.17589598656216276 0.22922398248809056
vn -0.6160937737784171 -0.6491527616395885 -0.4461268361880555
vn 0.6160937737784171 0.6491527616395885 0.4461268361880555
vn -0.6161059452540605 -0.6491239423201473 -0.4461519603558309
vn 0.6161059452540605 0.6491239423201473 0.4461519603558309
vn 0 -0.9588230875669196 -0.2840040259373791
vn 0 0.9588230875669196 0.2840040259373791
vn 0 -0.9996572187200251 0.026181005728273553
vn 0 0.9996572187200251 -0.026181005728273553
vn -0.9573489848150093 -0.09644899847017416 -0.27236099567994587
vn 0.9573489848150093 0.09644899847017416 0.27236099567994587
vn -0.6160949397810355 -0.47951495313077225 -0.6248939389209948
vn 0.6160949397810355 0.47951495313077225 0.6248939389209948
vn -0.6160971831946765 -0.47950914258062616 -0.6248961858110338
vn 0.6160971831946765 0.47950914258062616 0.6248961858110338
vn 0 -0.8241139864960682 -0.5664239907185767
vn 0 0.8241139864960682 0.5664239907185767
vn -0.9573488275345817 -0.0075509986396952045 -0.28883594796649725
vn 0.9573488275345817 0.0075509986396952045 0.28883594796649725
vn -0.6160947980093491 -0.262931913796077 -0.7424917565692913
vn 0.6160947980093491 0.262931913796077 0.7424917565692913
vn -0.6160959044062589 -0.26292895920381426 -0.7424918847945968
vn 0.6160959044062589 0.26292895920381426 0.7424918847945968
vn 0 -0.6087692563619191 -0.793347334090533
vn 0 0.6087692563619191 0.793347334090533
vn 0.6160981576379752 -0.6491291660894551 -0.4461551141554932
vn -0.6160981576379752 0.6491291660894551 0.4461551141554932
vn 0.6161070244930271 -0.7552290300237531 -0.22369900889304273
vn -0.6161070244930271 0.7552290300237531 0.22369900889304273
vn 0.6160999731109333 -0.7873979656348039 0.02062199909997318
vn -0.6160999731109333 0.7873979656348039 -0.02062199909997318
vn -0.6161061057555465 -0.02058500353344686 -0.7873941351573959
vn 0.6161061057555465 0.02058500353344686 0.7873941351573959
vn -0.9573486170103691 0.08205196717491202 -0.27703988916952166
vn 0.9573486170103691 -0.08205196717491202 0.27703988916952166
vn -0.6160938376944126 -0.020620994567543866 -0.7874027925642731
vn 0.6160938376944126 0.020620994567543866 0.7874027925642731
vn 0 -0.33380504703497016 -0.9426421328234704
vn 0 0.33380504703497016 0.9426421328234704
vn 0.6160991044626923 -0.4795080813029995 -0.6248951059540989
vn -0.6160991044626923 0.4795080813029995 0.6248951059540989
vn 0.6161100238237429 -0.6491420251010243 -0.4461200172505695
vn -0.6161100238237429 0.6491420251010243 0.4461200172505695
vn 0.6160978303174393 -0.47950486793718483 -0.6248988278935131
vn -0.6160978303174393 0.47950486793718483 0.6248988278935131
vn 0.616096030668953 -0.7552270375948251 -0.22373601113746733
vn -0.616096030668953 0.7552270375948251 0.22373601113746733
vn 0.6160978509570144 -0.7873998095165917 0.02061499501293408
vn -0.6160978509570144 0.7873998095165917 -0.02061499501293408
vn -0.6161037507857753 0.22371590950682121 -0.7552266945104861
vn 0.6161037507857753 -0.22371590950682121 0.7552266945104861
vn -0.6160918752919277 0.223683954722346 -0.7552458471246615
vn 0.6160918752919277 -0.223683954722346 0.7552458471246615
vn -0.957348809641739 0.16365396745921207 -0.23811895265267005
vn 0.957348809641739 -0.16365396745921207 0.23811895265267005
vn 0 -0.026180006413460723 -0.9996572448915634
vn 0 0.026180006413460723 0.9996572448915634
vn 0.6160931282317886 -0.2629290547252702 -0.742494154540522
vn -0.6160931282317886 0.2629290547252702 0.742494154540522
vn 0.616099882624358 -0.26294794990473885 -0.7424818585468248
vn -0.616099882624358 0.26294794990473885 0.7424818585468248
vn 0.9573479850514899 -0.23812499628179723 -0.1636499974446874
vn -0.9573479850514899 0.23812499628179723 0.1636499974446874
vn 0.9573479145231952 -0.17589498429521697 -0.22922897953329172
vn -0.9573479145231952 0.17589498429521697 0.22922897953329172
vn 0.9573480231754813 -0.27703600670648776 -0.08207200198679933
vn -0.9573480231754813 0.27703600670648776 0.08207200198679933
vn 0.957348791377925 -0.2888359370578904 0.007555998353423189
vn -0.957348791377925 0.2888359370578904 -0.007555998353423189
vn 0 0.28402404657071695 -0.9588171572148652
vn 0 -0.28402404657071695 0.9588171572148652
vn -0.616095766526549 0.4461488309290328 -0.6491357540058331
vn 0.616095766526549 -0.4461488309290328 0.6491357540058331
vn -0.6160931548667399 0.44614311214656227 -0.6491421631742368
vn 0.6160931548667399 -0.44614311214656227 0.6491421631742368
vn -0.9573487888940845 0.2292299494522802 -0.17588896121455325
vn 0.9573487888940845 -0.2292299494522802 0.17588896121455325
vn 0.6161028173052101 -0.020620993885195556 -0.7873957665112059
vn -0.6161028173052101 0.020620993885195556 0.7873957665112059
vn 0.6160926532646923 -0.020588988412571882 -0.7874045568508088
vn -0.6160926532646923 0.020588988412571882 0.7874045568508088
vn 0.9573482549605424 -0.09645602568812389 -0.2723610725350746
vn -0.9573482549605424 0.09645602568812389 0.2723610725350746
vn 0 0.5664150774218664 -0.8241201126469254
vn 0 -0.5664150774218664 0.8241201126469254
vn -0.6160931347928754 0.6248971367190724 -0.4795131049110052
vn 0.6160931347928754 -0.6248971367190724 0.4795131049110052
vn -0.6161002165900693 0.6249062196858203 -0.47949216856550125
vn 0.6161002165900693 -0.6249062196858203 0.47949216856550125
vn -0.9573489522728053 0.27235898642195167 -0.09645499519138076
vn 0.9573489522728053 -0.27235898642195167 0.09645499519138076
vn 0.6161008211056027 0.22371693504032988 -0.7552287807076494
vn -0.6161008211056027 -0.22371693504032988 0.7552287807076494
vn 0.6161050945468787 0.22370403432940017 -0.7552291158967139
vn -0.6161050945468787 -0.22370403432940017 0.7552291158967139
vn 0.9573484169076154 -0.007558003291371264 -0.28883712578325244
vn -0.9573484169076154 0.007558003291371264 0.28883712578325244
vn 0.6160938508729611 0.4461498920083165 -0.6491368428748233
vn -0.6160938508729611 -0.4461498920083165 0.6491368428748233
vn 0 0.7933459975576845 -0.6087709981258983
vn 0 -0.7933459975576845 0.6087709981258983
vn -0.6161003493505608 0.7424874210164742 -0.2629311490912062
vn 0.6161003493505608 -0.7424874210164742 0.2629311490912062
vn -0.6160947887343562 0.7424857453935143 -0.2629489098319415
vn 0.6160947887343562 -0.7424857453935143 0.2629489098319415
vn 0.6160992261272483 0.44613316374450834 -0.6491432382554111
vn -0.6160992261272483 -0.44613316374450834 0.6491432382554111
vn 0.9573480917398 0.08206100786366063 -0.2770390265478203
vn -0.9573480917398 -0.08206100786366063 0.2770390265478203
vn 0.6160910151321195 0.6249200153489732 -0.4794860117768958
vn -0.6160910151321195 -0.6249200153489732 0.4794860117768958
vn 0.6161021207153645 0.6248921224376252 -0.479508093951948
vn -0.6161021207153645 -0.6248921224376252 0.479508093951948
vn 0 0.9426403366640563 -0.3338101192203051
vn 0 -0.9426403366640563 0.3338101192203051
vn 0.9573486670600398 0.16365194308628273 -0.23812091718798883
vn -0.9573486670600398 -0.16365194308628273 0.23812091718798883
vn 0.9573483327475326 0.2292340796753614 -0.17588606113308083
vn -0.9573483327475326 -0.2292340796753614 0.17588606113308083
vn 0.6161057589067738 0.7424777094551647 -0.2629458971045575
vn -0.6161057589067738 -0.7424777094551647 0.2629458971045575
vn 0.6160998919037431 0.7424878697286587 -0.26293095386811083
vn -0.6160998919037431 -0.7424878697286587 0.26293095386811083
vn 0.9573482549605425 0.27236107253507436 -0.0964560256881241
vn -0.9573482549605425 -0.27236107253507436 0.0964560256881241
usemtl material_0_0
f 1//1 2//1 3//1
f 3//2 2//2 1//2
f 1//3 4//3 2//3
f 2//4 4//4 1//4
f 3//5 2//5 5//5
f 5//6 2//6 3//6
f 1//7 6//7 4//7
f 4//8 6//8 1//8
f 2//9 4//9 7//9
f 7//10 4//10 2//10
f 2//11 7//11 5//11
f 5//12 7//12 2//12
f 8//13 3//13 5//13
f 5//14 3//14 8//14
f 1//15 9//15 6//15
f 6//16 9//16 1//16
f 4//17 6//17 10//17
f 10//18 6//18 4//18
f 4//19 10//19 7//19
f 7//20 10//20 4//20
f 5//21 7//21 11//21
f 11//22 7//22 5//22
f 8//23 5//23 12//23
f 12//24 5//24 8//24
f 1//25 13//25 9//25
f 9//26 13//26 1//26
f 14//27 6//27 9//27
f 9//28 6//28 14//28
f 10//29 6//29 14//29
f 14//30 6//30 10//30
f 7//31 10//31 15//31
f 15//32 10//32 7//32
f 11//31 7//31 15//31
f 15//32 7//32 11//32
f 12//21 5//21 11//21
f 11//22 5//22 12//22
f 16//23 8//23 12//23
f 12//24 8//24 16//24
f 17//33 13//33 1//33
f 1//34 13//34 17//34
f 18//35 9//35 13//35
f 13//36 9//36 18//36
f 14//37 9//37 18//37
f 18//38 9//38 14//38
f 19//39 10//39 14//39
f 14//40 10//40 19//40
f 15//39 10//39 19//39
f 19//40 10//40 15//40
f 20//41 11//41 15//41
f 15//42 11//42 20//42
f 12//43 11//43 21//43
f 21//44 11//44 12//44
f 16//45 12//45 22//45
f 22//46 12//46 16//46
f 23//47 13//47 17//47
f 17//48 13//48 23//48
f 24//49 17//49 1//49
f 1//50 17//50 24//50
f 18//51 13//51 23//51
f 23//52 13//52 18//52
f 25//53 14//53 18//53
f 18//54 14//54 25//54
f 19//53 14//53 25//53
f 25//54 14//54 19//54
f 26//55 15//55 19//55
f 19//56 15//56 26//56
f 21//57 11//57 20//57
f 20//58 11//58 21//58
f 20//59 15//59 26//59
f 26//60 15//60 20//60
f 22//61 12//61 21//61
f 21//62 12//62 22//62
f 16//63 22//63 27//63
f 27//64 22//64 16//64
f 28//65 23//65 17//65
f 17//66 23//66 28//66
f 28//67 17//67 24//67
f 24//68 17//68 28//68
f 29//69 24//69 1//69
f 1//70 24//70 29//70
f 30//71 18//71 23//71
f 23//72 18//72 30//72
f 25//71 18//71 30//71
f 30//72 18//72 25//72
f 31//73 19//73 25//73
f 25//74 19//74 31//74
f 26//75 19//75 31//75
f 31//76 19//76 26//76
f 32//77 21//77 20//77
f 20//78 21//78 32//78
f 32//79 20//79 26//79
f 26//80 20//80 32//80
f 32//81 22//81 21//81
f 21//82 22//82 32//82
f 32//83 27//83 22//83
f 22//84 27//84 32//84
f 33//85 23//85 28//85
f 28//86 23//86 33//86
f 28//87 24//87 34//87
f 34//88 24//88 28//88
f 34//89 24//89 29//89
f 29//90 24//90 34//90
f 35//91 29//91 1//91
f 1//92 29//92 35//92
f 33//85 30//85 23//85
f 23//86 30//86 33//86
f 36//93 25//93 30//93
f 30//94 25//94 36//94
f 36//95 31//95 25//95
f 25//96 31//96 36//96
f 32//97 26//97 31//97
f 31//98 26//98 32//98
f 33//99 28//99 37//99
f 37//100 28//100 33//100
f 37//99 28//99 34//99
f 34//100 28//100 37//100
f 29//101 38//101 34//101
f 34//102 38//102 29//102
f 35//103 38//103 29//103
f 29//104 38//104 35//104
f 39//105 35//105 1//105
f 1//106 35//106 39//106
f 40//107 30//107 33//107
f 33//108 30//108 40//108
f 36//109 30//109 40//109
f 40//110 30//110 36//110
f 36//111 32//111 31//111
f 31//112 32//112 36//112
f 41//113 33//113 37//113
f 37//114 33//114 41//114
f 42//115 37//115 34//115
f 34//116 37//116 42//116
f 42//115 34//115 38//115
f 38//116 34//116 42//116
f 43//117 38//117 35//117
f 35//118 38//118 43//118
f 39//119 43//119 35//119
f 35//120 43//120 39//120
f 41//121 40//121 33//121
f 33//122 40//122 41//122
f 40//123 32//123 36//123
f 36//124 32//124 40//124
f 44//125 41//125 37//125
f 37//126 41//126 44//126
f 44//127 37//127 42//127
f 42//128 37//128 44//128
f 45//129 42//129 38//129
f 38//130 42//130 45//130
f 45//129 38//129 43//129
f 43//130 38//130 45//130
f 41//131 32//131 40//131
f 40//132 32//132 41//132
f 44//133 32//133 41//133
f 41//134 32//134 44//134
f 46//135 44//135 42//135
f 42//136 44//136 46//136
f 46//137 42//137 45//137
f 45//138 42//138 46//138
f 46//139 32//139 44//139
f 44//140 32//140 46//140
