# SSTK version 0.8.0
# 40
mtllib original-40.mtl
o mesh36/mesh36-geometry#mesh36-geometry
v 0.187248 0.097362 -0.352394
v 0.190477 0.086529 -0.352394
v 0.190477 0.087059 -0.349046
v 0.190477 0.087059 -0.355741
v 0.198931 0.079834 -0.352394
v 0.190477 0.088598 -0.358761
v 0.198931 0.080692 -0.357810
v 0.198931 0.080692 -0.346977
v 0.190477 0.090995 -0.361157
v 0.198931 0.083182 -0.362696
v 0.209381 0.080692 -0.357810
v 0.209381 0.079834 -0.352394
v 0.190477 0.094014 -0.362696
v 0.198931 0.087059 -0.366574
v 0.209381 0.083182 -0.362696
v 0.209381 0.080692 -0.346977
v 0.190477 0.097362 -0.363226
v 0.198931 0.091945 -0.369064
v 0.209381 0.087059 -0.366574
v 0.217835 0.088598 -0.358761
v 0.217835 0.087059 -0.355741
v 0.217835 0.086529 -0.352394
v 0.198931 0.097362 -0.369921
v 0.190477 0.100709 -0.362696
v 0.209381 0.091945 -0.369064
v 0.217835 0.090995 -0.361157
v 0.217835 0.087059 -0.349046
v 0.198931 0.102778 -0.369064
v 0.190477 0.103729 -0.361157
v 0.209381 0.097362 -0.369921
v 0.217835 0.094014 -0.362696
v 0.221064 0.097362 -0.352394
v 0.209381 0.102778 -0.369064
v 0.198931 0.107664 -0.366574
v 0.190477 0.106126 -0.358761
v 0.217835 0.097362 -0.363226
v 0.209381 0.107664 -0.366574
v 0.198931 0.111542 -0.362696
v 0.190477 0.107664 -0.355741
v 0.217835 0.100709 -0.362696
v 0.217835 0.103729 -0.361157
v 0.209381 0.111542 -0.362696
v 0.198931 0.114032 -0.357810
v 0.217835 0.106126 -0.358761
v 0.209381 0.114032 -0.357810
v 0.217835 0.107664 -0.355741
vn -0.9573487704785317 -0.2853779315815052 0.04519698916415889
vn 0.9573487704785317 0.2853779315815052 -0.04519698916415889
vn -0.9573488570151721 -0.28537795737737837 -0.045194993249902136
vn 0.9573488570151721 0.28537795737737837 0.045194993249902136
vn -0.6160991209005309 -0.7779721526657694 0.12321202417857552
vn 0.6160991209005309 0.7779721526657694 -0.12321202417857552
vn -0.9573490684949777 -0.25744101841900446 -0.131175009385113
vn 0.9573490684949777 0.25744101841900446 0.131175009385113
vn -0.6160968216760376 -0.7779747748218467 -0.12320696433879662
vn 0.6160968216760376 0.7779747748218467 0.12320696433879662
vn -0.6160989690776855 -0.7779719609531994 -0.12321399381582825
vn 0.6160989690776855 0.7779719609531994 0.12321399381582825
vn -0.6160981209163532 -0.7779721526859965 0.12321702418276032
vn 0.6160981209163532 0.7779721526859965 -0.12321702418276032
vn -0.9573490917623935 -0.20430701958293085 -0.20430701958293074
vn 0.9573490917623935 0.20430701958293085 0.20430701958293074
vn -0.6161000511889831 -0.7018150583106574 -0.35759802971121246
vn 0.6161000511889831 0.7018150583106574 0.35759802971121246
vn -0.6160987863064812 -0.7018167565752511 -0.35759687596772394
vn 0.6160987863064812 0.7018167565752511 0.35759687596772394
vn 0 -0.9876893556151471 -0.15642805632154097
vn 0 0.9876893556151471 0.15642805632154097
vn 0 -0.9876885830917987 0.15643293396889013
vn 0 0.9876885830917987 -0.15643293396889013
vn -0.9573489523077485 -0.13117199346540492 -0.25744298717496283
vn 0.9573489523077485 0.13117199346540492 0.25744298717496283
vn -0.6160989297299165 -0.5569659364744182 -0.5569659364744183
vn 0.6160989297299165 0.5569659364744182 0.5569659364744183
vn -0.6160989297293004 -0.5569669364737472 -0.5569649364739755
vn 0.6160989297293004 0.5569669364737472 0.5569649364739755
vn 0 -0.8910047941507405 -0.45399389511357574
vn 0 0.8910047941507405 0.45399389511357574
vn -0.9573491005307556 -0.0452020047466401 -0.2853760299671956
vn 0.9573491005307556 0.0452020047466401 0.2853760299671956
vn -0.6161038629871416 -0.3575899204770166 -0.7018158439259989
vn 0.6161038629871416 0.3575899204770166 0.7018158439259989
vn -0.6161019447328856 -0.357596967921944 -0.7018139370441344
vn 0.6161019447328856 0.357596967921944 0.7018139370441344
vn -0.000004999998452850229 -0.7071067811777088 -0.707106781177709
vn 0.000004999998452850229 0.7071067811777088 0.707106781177709
vn 0 -0.7071137811497327 -0.7070997811540658
vn 0 0.7071137811497327 0.7070997811540658
vn 0.6161009001664021 -0.7018158862770612 -0.357594942054963
vn -0.6161009001664021 0.7018158862770612 0.357594942054963
vn 0.6160989690776855 -0.7779719609531994 -0.12321399381582852
vn -0.6160989690776855 0.7779719609531994 0.12321399381582852
vn 0.6160992206464259 -0.7779712786184049 0.1232170441282821
vn -0.6160992206464259 0.7779712786184049 -0.1232170441282821
vn -0.6161029363029693 -0.12322598726003536 -0.7779669195683382
vn 0.6161029363029693 0.12322598726003536 0.7779669195683382
vn -0.9573491005307556 0.045202004746640226 -0.2853760299671956
vn 0.9573491005307556 -0.045202004746640226 0.2853760299671956
vn -0.6161037844764603 -0.12322295689452227 -0.7779667278540606
vn 0.6161037844764603 0.12322295689452227 0.7779667278540606
vn 0 -0.4539938951135753 -0.8910047941507407
vn 0 0.4539938951135753 0.8910047941507407
vn -0.00000299999945987249 -0.4539879182329242 -0.8910078395219292
vn 0.00000299999945987249 0.4539879182329242 0.8910078395219292
vn 0.6161056746627118 -0.556967705890774 -0.556956705896583
vn -0.6161056746627118 0.556967705890774 0.556956705896583
vn 0.6160989296800122 -0.5569569364303312 -0.556974936428277
vn -0.6160989296800122 0.5569569364303312 0.556974936428277
vn 0.6161000511889829 -0.7018150583106574 -0.3575980297112127
vn -0.6161000511889829 0.7018150583106574 0.3575980297112127
vn 0.6160991968110716 -0.7779722485209406 -0.1232110393594035
vn -0.6160991968110716 0.7779722485209406 0.1232110393594035
vn 0.6160974007462295 -0.7779735060400333 0.12321208014443219
vn -0.6160974007462295 0.7779735060400333 -0.12321208014443219
vn -0.6161029363029691 0.12322598726003567 -0.777966919568338
vn 0.6161029363029691 -0.12322598726003567 0.777966919568338
vn -0.9573489523077485 0.13117199346540503 -0.2574429871749627
vn 0.9573489523077485 -0.13117199346540503 0.2574429871749627
vn 0 -0.15644397378742306 -0.9876868345106156
vn 0 0.15644397378742306 0.9876868345106156
vn 0.6161049157938663 -0.35758995112639663 -0.7018149040794547
vn -0.6161049157938663 0.35758995112639663 0.7018149040794547
vn 0.616106996683804 -0.3575959980752394 -0.701809996222508
vn -0.616106996683804 0.3575959980752394 0.701809996222508
vn 0.9573482258939993 -0.20430604820765214 -0.20431204820906823
vn -0.9573482258939993 0.20430604820765214 0.20431204820906823
vn 0.9573483665070106 -0.25744309855837616 -0.13117605021885864
vn -0.9573483665070106 0.25744309855837616 0.13117605021885864
vn 0.95734855412028 -0.2853778670868589 -0.04520197894743209
vn -0.95734855412028 0.2853778670868589 0.04520197894743209
vn 0.9573487704785317 -0.2853779315815052 0.04519698916415846
vn -0.9573487704785317 0.2853779315815052 -0.04519698916415846
vn 0 0.1564439737874235 -0.9876868345106156
vn 0 -0.1564439737874235 0.9876868345106156
vn -0.6161030222579544 0.35759101291869094 -0.7018160253545078
vn 0.6161030222579544 -0.35759101291869094 0.7018160253545078
vn -0.6161028101793695 0.3575898898269297 -0.7018167837709838
vn 0.6161028101793695 -0.3575898898269297 0.7018167837709838
vn -0.9573490917623935 0.20430701958293096 -0.20430701958293063
vn 0.9573490917623935 -0.20430701958293096 0.20430701958293063
vn 0.616104187866214 -0.12322403757421845 -0.7779662372221692
vn -0.616104187866214 0.12322403757421845 0.7779662372221692
vn 0.6161046564425803 -0.12322593128572779 -0.7779655661843495
vn -0.6161046564425803 0.12322593128572779 0.7779655661843495
vn 0.9573481200438029 -0.13117601644842403 -0.25744403228142443
vn -0.9573481200438029 0.13117601644842403 0.25744403228142443
vn 0 0.4539879182349676 -0.8910078395259384
vn 0 -0.4539879182349676 0.8910078395259384
vn -0.6161011999920271 0.5569701807975629 -0.5569591807939919
vn 0.6161011999920271 -0.5569701807975629 0.5569591807939919
vn -0.6160983093073052 0.5569662796205352 -0.5569662796205349
vn 0.6160983093073052 -0.5569662796205352 0.5569662796205349
vn -0.9573490684949777 0.2574410184190046 -0.1311750093851129
vn 0.9573490684949777 -0.2574410184190046 0.1311750093851129
vn 0.6161040360273005 0.12322600720576438 -0.7779660454923439
vn -0.6161040360273005 -0.12322600720576438 0.7779660454923439
vn 0.9573484273618692 -0.045203020178700454 -0.2853781273932528
vn -0.9573484273618692 0.045203020178700454 0.2853781273932528
vn 0.6161030222579542 0.35759101291869094 -0.701816025354508
vn -0.6161030222579542 -0.35759101291869094 0.701816025354508
vn 0 0.7071137811497329 -0.7070997811540656
vn 0 -0.7071137811497329 0.7070997811540656
vn -0.6160992186949302 0.7018162491216529 -0.35759712693520157
vn 0.6160992186949302 -0.7018162491216529 0.35759712693520157
vn -0.6160987780633933 0.7018157471856609 -0.35759887118253914
vn 0.6160987780633933 -0.7018157471856609 0.35759887118253914
vn 0.6161051525664458 0.3575850885489854 -0.7018171737913592
vn -0.6161051525664458 -0.3575850885489854 0.7018171737913592
vn 0.9573484273618692 0.04520302017870058 -0.2853781273932528
vn -0.9573484273618692 -0.04520302017870058 0.2853781273932528
vn 0.6161014772830936 0.5569645274564575 -0.5569645274564574
vn -0.6161014772830936 -0.5569645274564575 0.5569645274564574
vn 0.6160992728574901 0.5569712466709235 -0.5569602466660517
vn -0.6160992728574901 -0.5569712466709235 0.5569602466660517
vn 0 0.8910047941507407 -0.4539938951135753
vn 0 -0.8910047941507407 0.4539938951135753
vn 0.9573487198960804 0.13116596162307512 -0.2574469246754176
vn -0.9573487198960804 -0.13116596162307512 0.2574469246754176
vn 0.9573490917623935 0.20430701958293096 -0.20430701958293107
vn -0.9573490917623935 -0.20430701958293096 0.20430701958293107
vn 0.6161000511889829 0.7018150583106576 -0.35759802971121235
vn -0.6161000511889829 -0.7018150583106576 0.35759802971121235
vn 0.616098786306481 0.7018167565752513 -0.3575968759677238
vn -0.616098786306481 -0.7018167565752513 0.3575968759677238
vn 0.9573490684949775 0.2574410184190045 -0.1311750093851133
vn -0.9573490684949775 -0.2574410184190045 0.1311750093851133
usemtl material_0_0
f 1//1 2//1 3//1
f 3//2 2//2 1//2
f 1//3 4//3 2//3
f 2//4 4//4 1//4
f 3//5 2//5 5//5
f 5//6 2//6 3//6
f 1//7 6//7 4//7
f 4//8 6//8 1//8
f 2//9 4//9 7//9
f 7//10 4//10 2//10
f 2//11 7//11 5//11
f 5//12 7//12 2//12
f 8//13 3//13 5//13
f 5//14 3//14 8//14
f 1//15 9//15 6//15
f 6//16 9//16 1//16
f 4//17 6//17 10//17
f 10//18 6//18 4//18
f 4//19 10//19 7//19
f 7//20 10//20 4//20
f 5//21 7//21 11//21
f 11//22 7//22 5//22
f 8//23 5//23 12//23
f 12//24 5//24 8//24
f 1//25 13//25 9//25
f 9//26 13//26 1//26
f 9//27 14//27 6//27
f 6//28 14//28 9//28
f 6//29 14//29 10//29
f 10//30 14//30 6//30
f 7//31 10//31 15//31
f 15//32 10//32 7//32
f 11//31 7//31 15//31
f 15//32 7//32 11//32
f 12//21 5//21 11//21
f 11//22 5//22 12//22
f 16//23 8//23 12//23
f 12//24 8//24 16//24
f 17//33 13//33 1//33
f 1//34 13//34 17//34
f 18//35 9//35 13//35
f 13//36 9//36 18//36
f 14//37 9//37 18//37
f 18//38 9//38 14//38
f 10//39 14//39 19//39
f 19//40 14//40 10//40
f 15//41 10//41 19//41
f 19//42 10//42 15//42
f 11//43 15//43 20//43
f 20//44 15//44 11//44
f 12//45 11//45 21//45
f 21//46 11//46 12//46
f 16//47 12//47 22//47
f 22//48 12//48 16//48
f 23//49 13//49 17//49
f 17//50 13//50 23//50
f 24//51 17//51 1//51
f 1//52 17//52 24//52
f 23//53 18//53 13//53
f 13//54 18//54 23//54
f 25//55 14//55 18//55
f 18//56 14//56 25//56
f 19//57 14//57 25//57
f 25//58 14//58 19//58
f 26//59 15//59 19//59
f 19//60 15//60 26//60
f 26//61 20//61 15//61
f 15//62 20//62 26//62
f 21//63 11//63 20//63
f 20//64 11//64 21//64
f 12//65 21//65 22//65
f 22//66 21//66 12//66
f 16//67 22//67 27//67
f 27//68 22//68 16//68
f 23//69 17//69 28//69
f 28//70 17//70 23//70
f 28//69 17//69 24//69
f 24//70 17//70 28//70
f 29//71 24//71 1//71
f 1//72 24//72 29//72
f 30//73 18//73 23//73
f 23//74 18//74 30//74
f 25//73 18//73 30//73
f 30//74 18//74 25//74
f 31//75 19//75 25//75
f 25//76 19//76 31//76
f 31//77 26//77 19//77
f 19//78 26//78 31//78
f 32//79 20//79 26//79
f 26//80 20//80 32//80
f 32//81 21//81 20//81
f 20//82 21//82 32//82
f 32//83 22//83 21//83
f 21//84 22//84 32//84
f 32//85 27//85 22//85
f 22//86 27//86 32//86
f 33//87 23//87 28//87
f 28//88 23//88 33//88
f 28//89 24//89 34//89
f 34//90 24//90 28//90
f 34//91 24//91 29//91
f 29//92 24//92 34//92
f 35//93 29//93 1//93
f 1//94 29//94 35//94
f 30//87 23//87 33//87
f 33//88 23//88 30//88
f 36//95 25//95 30//95
f 30//96 25//96 36//96
f 31//97 25//97 36//97
f 36//98 25//98 31//98
f 32//99 26//99 31//99
f 31//100 26//100 32//100
f 33//101 28//101 37//101
f 37//102 28//102 33//102
f 37//101 28//101 34//101
f 34//102 28//102 37//102
f 38//103 34//103 29//103
f 29//104 34//104 38//104
f 38//105 29//105 35//105
f 35//106 29//106 38//106
f 39//107 35//107 1//107
f 1//108 35//108 39//108
f 40//109 30//109 33//109
f 33//110 30//110 40//110
f 36//109 30//109 40//109
f 40//110 30//110 36//110
f 32//111 31//111 36//111
f 36//112 31//112 32//112
f 41//113 33//113 37//113
f 37//114 33//114 41//114
f 42//115 37//115 34//115
f 34//116 37//116 42//116
f 42//115 34//115 38//115
f 38//116 34//116 42//116
f 43//117 38//117 35//117
f 35//118 38//118 43//118
f 39//119 43//119 35//119
f 35//120 43//120 39//120
f 41//121 40//121 33//121
f 33//122 40//122 41//122
f 40//123 32//123 36//123
f 36//124 32//124 40//124
f 37//125 44//125 41//125
f 41//126 44//126 37//126
f 42//127 44//127 37//127
f 37//128 44//128 42//128
f 45//129 42//129 38//129
f 38//130 42//130 45//130
f 45//129 38//129 43//129
f 43//130 38//130 45//130
f 41//131 32//131 40//131
f 40//132 32//132 41//132
f 44//133 32//133 41//133
f 41//134 32//134 44//134
f 46//135 44//135 42//135
f 42//136 44//136 46//136
f 46//137 42//137 45//137
f 45//138 42//138 46//138
f 46//139 32//139 44//139
f 44//140 32//140 46//140
