# SSTK version 0.8.0
# 32
mtllib original-32.mtl
o mesh28/mesh28-geometry#mesh28-geometry
v -0.215509 0.489477 -0.448445
v -0.212280 0.478737 -0.449859
v -0.212280 0.478825 -0.446471
v -0.212280 0.479699 -0.453109
v -0.203826 0.472099 -0.450733
v -0.212280 0.481619 -0.455902
v -0.203826 0.473656 -0.455991
v -0.203826 0.472243 -0.445251
v -0.212280 0.484308 -0.457965
v -0.203826 0.476763 -0.460511
v -0.193376 0.473656 -0.455991
v -0.193376 0.472099 -0.450733
v -0.212280 0.487503 -0.459097
v -0.203826 0.481113 -0.463849
v -0.193376 0.476763 -0.460511
v -0.193376 0.472243 -0.445251
v -0.212280 0.490891 -0.459185
v -0.203826 0.486283 -0.465679
v -0.193376 0.481113 -0.463849
v -0.184922 0.481619 -0.455902
v -0.184922 0.479699 -0.453109
v -0.184922 0.478737 -0.449859
v -0.203826 0.491765 -0.465823
v -0.212280 0.494140 -0.458223
v -0.193376 0.486283 -0.465679
v -0.184922 0.484308 -0.457965
v -0.184922 0.478825 -0.446471
v -0.203826 0.497023 -0.464266
v -0.212280 0.496933 -0.456303
v -0.193376 0.491765 -0.465823
v -0.184922 0.487503 -0.459097
v -0.181693 0.489477 -0.448445
v -0.193376 0.497023 -0.464266
v -0.203826 0.501542 -0.461159
v -0.212280 0.498997 -0.453614
v -0.184922 0.490891 -0.459185
v -0.193376 0.501542 -0.461159
v -0.203826 0.504880 -0.456809
v -0.212280 0.500128 -0.450419
v -0.184922 0.494140 -0.458223
v -0.184922 0.496933 -0.456303
v -0.193376 0.504880 -0.456809
v -0.203826 0.506711 -0.451639
v -0.184922 0.498997 -0.453614
v -0.193376 0.506711 -0.451639
v -0.184922 0.500128 -0.450419
vn -0.9573490099937664 -0.2888350030151486 0.0075640000789607455
vn 0.9573490099937664 0.2888350030151486 -0.0075640000789607455
vn -0.9573483374538603 -0.2770360976519172 -0.08206802892800033
vn 0.9573483374538603 0.2770360976519172 0.08206802892800033
vn -0.6160999858158382 -0.7873979818721303 0.02062099952525301
vn 0.6160999858158382 0.7873979818721303 -0.02062099952525301
vn -0.9573483696892392 -0.23812409195389803 -0.16364906319465244
vn 0.9573483696892392 0.23812409195389803 0.16364906319465244
vn -0.6161096276616523 -0.7552195435922693 -0.22372386479520787
vn 0.6161096276616523 0.7552195435922693 0.22372386479520787
vn -0.6161011651487119 -0.7552332024436856 -0.22370105996408388
vn 0.6161011651487119 0.7552332024436856 0.22370105996408388
vn -0.6160999731109333 -0.7873979656348039 0.02062199909997345
vn 0.6160999731109333 0.7873979656348039 -0.02062199909997345
vn -0.9573482665023393 -0.17588904896320867 -0.22923206381259903
vn 0.9573482665023393 0.17588904896320867 0.22923206381259903
vn -0.6160990253749632 -0.6491490267361769 -0.44612501837432855
vn 0.6160990253749632 0.6491490267361769 0.44612501837432855
vn -0.6161080602254901 -0.649128063453245 -0.446143043611154
vn 0.6161080602254901 0.649128063453245 0.446143043611154
vn 0 -0.9588230875669196 -0.2840040259373791
vn 0 0.9588230875669196 0.2840040259373791
vn 0 -0.9996572187200251 0.026181005728273553
vn 0 0.9996572187200251 -0.026181005728273553
vn -0.957347766010353 -0.09644997642623004 -0.2723649334300689
vn 0.957347766010353 0.09644997642623004 0.2723649334300689
vn -0.6161051807594337 -0.4794871406769925 -0.6249051833412711
vn 0.6161051807594337 0.4794871406769925 0.6249051833412711
vn -0.6161000470044309 -0.4795030365829663 -0.624898047675661
vn 0.6161000470044309 0.4795030365829663 0.624898047675661
vn 0 -0.8241201126469254 -0.5664150774218664
vn 0 0.8241201126469254 0.5664150774218664
vn -0.957347820439381 -0.007563998581292713 -0.28883894582522773
vn 0.957347820439381 0.007563998581292713 0.28883894582522773
vn -0.6161043653586226 -0.2629301559213095 -0.7424844403037985
vn 0.6161043653586226 0.2629301559213095 0.7424844403037985
vn -0.616105796704528 -0.2629259132427449 -0.7424847550034595
vn 0.616105796704528 0.2629259132427449 0.7424847550034595
vn 0 -0.6087619527439421 -0.7933529384147907
vn 0 0.6087619527439421 0.7933529384147907
vn 0.6160989773996415 -0.6491339761878187 -0.4461469836339908
vn -0.6160989773996415 0.6491339761878187 0.4461469836339908
vn 0.61610593877848 -0.7552299249539388 -0.22369897777136952
vn -0.61610593877848 0.7552299249539388 0.22369897777136952
vn 0.61609824715125 -0.7873993158696295 0.02062200827263339
vn -0.61609824715125 0.7873993158696295 -0.02062200827263339
vn -0.6161039228385335 -0.02062099741740565 -0.7873949013858811
vn 0.6161039228385335 0.02062099741740565 0.7873949013858811
vn -0.9573477774884688 0.08206498092604908 -0.27703893560923265
vn 0.9573477774884688 -0.08206498092604908 0.27703893560923265
vn 0 -0.33380504703497016 -0.9426421328234704
vn 0 0.33380504703497016 0.9426421328234704
vn 0.6160951990446804 -0.4795051549159131 -0.6249012018896762
vn -0.6160951990446804 0.4795051549159131 0.6249012018896762
vn 0.6161081082027637 -0.6491431140044711 -0.44612107834912934
vn -0.6161081082027637 0.6491431140044711 0.44612107834912934
vn 0.6160994627444709 -0.47951236015563525 -0.6248914693480356
vn -0.6160994627444709 0.47951236015563525 0.6248914693480356
vn 0.6160970989063879 -0.7552291212422271 -0.2237260359163098
vn -0.6160970989063879 0.7552291212422271 0.2237260359163098
vn 0.6160998968685825 -0.7873978681943323 0.020627996546997124
vn -0.6160998968685825 0.7873978681943323 -0.020627996546997124
vn -0.6161048364990446 0.2237159406306073 -0.7552257995793366
vn 0.6161048364990446 -0.2237159406306073 0.7552257995793366
vn -0.6161041642798847 0.22371305965152943 -0.7552272013760732
vn 0.6161041642798847 -0.22371305965152943 0.7552272013760732
vn -0.9573479850514901 0.1636499974446872 -0.23812499628179706
vn 0.9573479850514901 -0.1636499974446872 0.23812499628179706
vn 0 -0.026180006413460723 -0.9996572448915634
vn 0 0.026180006413460723 0.9996572448915634
vn 0.6160999204291601 -0.2629279660421979 -0.7424889041057082
vn -0.6160999204291601 0.2629279660421979 0.7424889041057082
vn 0.6160942151459903 -0.26291209181141595 -0.7424992592878407
vn -0.6160942151459903 0.26291209181141595 0.7424992592878407
vn 0.9573492937406567 -0.23812107306198563 -0.16364805021164824
vn -0.9573492937406567 0.23812107306198563 0.16364805021164824
vn 0.9573497860227731 -0.17589396068594515 -0.22922194876660817
vn -0.9573497860227731 0.17589396068594515 0.22922194876660817
vn 0.9573492951608854 -0.2770330854122222 -0.08206702530212977
vn -0.9573492951608854 0.2770330854122222 0.08206702530212977
vn 0.9573495667927177 -0.2888328693011344 0.007574996572261526
vn -0.9573495667927177 0.2888328693011344 -0.007574996572261526
vn 0 0.28402404657071695 -0.9588171572148652
vn 0 -0.28402404657071695 0.9588171572148652
vn -0.6161042289625491 0.4461451658007358 -0.6491302412359915
vn 0.6161042289625491 -0.4461451658007358 0.6491302412359915
vn -0.6160950690011114 0.44612604996500527 -0.649152072703413
vn 0.6160950690011114 -0.44612604996500527 0.649152072703413
vn -0.9573480829154425 0.22922901985341168 -0.1758940152340931
vn 0.9573480829154425 -0.22922901985341168 0.1758940152340931
vn 0.6161028173052101 -0.020620993885195556 -0.7873957665112059
vn -0.6161028173052101 0.020620993885195556 0.7873957665112059
vn 0.6161022095918461 -0.020620007014721206 -0.787396267864382
vn -0.6161022095918461 0.020620007014721206 0.787396267864382
vn 0.9573494627225292 -0.09644104661353738 -0.2723621316427277
vn -0.9573494627225292 0.09644104661353738 0.2723621316427277
vn 0 0.5664150774218664 -0.8241201126469254
vn 0 -0.5664150774218664 0.8241201126469254
vn -0.6160968782426344 0.6249058765017386 -0.4794969052384742
vn 0.6160968782426344 -0.6249058765017386 0.4794969052384742
vn -0.6160936027771663 0.6249015970982621 -0.4795066908407978
vn 0.6160936027771663 -0.6249015970982621 0.4795066908407978
vn -0.9573482875046581 0.27236308179432267 -0.09645002896524986
vn 0.9573482875046581 -0.27236308179432267 0.09645002896524986
vn 0.6161048364990441 0.2237159406306073 -0.7552257995793368
vn -0.6161048364990441 -0.2237159406306073 0.7552257995793368
vn 0.6161030443332361 0.2237200160983338 -0.7552260543441808
vn -0.6161030443332361 -0.2237200160983338 0.7552260543441808
vn 0.9573487334775004 -0.00756399789420969 -0.2888359195891023
vn -0.9573487334775004 0.00756399789420969 0.2888359195891023
vn 0.6160970617520276 0.44614804471786706 -0.64913506506346
vn -0.6160970617520276 -0.44614804471786706 0.64913506506346
vn 0 0.7933590256266873 -0.6087540196636682
vn 0 -0.7933590256266873 0.6087540196636682
vn -0.61609521760949 0.7424842622510565 -0.2629520928766675
vn 0.61609521760949 -0.7424842622510565 0.2629520928766675
vn -0.6161012652251828 0.7424863196326335 -0.262932113189538
vn 0.6161012652251828 -0.7424863196326335 0.262932113189538
vn 0.6161060674938073 0.4461210488721177 -0.6491450711131973
vn -0.6161060674938073 -0.4461210488721177 0.6491450711131973
vn 0.9573481312500444 0.08207401125214259 -0.2770350379808139
vn -0.9573481312500444 -0.08207401125214259 0.2770350379808139
vn 0.6160969944831594 0.6249079944042615 -0.47949399570637097
vn -0.6160969944831594 -0.6249079944042615 0.47949399570637097
vn 0.6160978836690245 0.6249048820060963 -0.47949690946188156
vn -0.6160978836690245 -0.6249048820060963 0.47949690946188156
vn 0 0.9426318930207126 -0.33383396211318556
vn 0 -0.9426318930207126 0.33383396211318556
vn 0.9573479850514899 0.16364999744468717 -0.23812499628179745
vn -0.9573479850514899 -0.16364999744468717 0.23812499628179745
vn 0.9573479297263564 0.22923198317334154 -0.17589098708881068
vn -0.9573479297263564 -0.22923198317334154 0.17589098708881068
vn 0.6160988047601679 0.7424827647094767 -0.26294791667260725
vn -0.6160988047601679 -0.7424827647094767 0.26294791667260725
vn 0.6160998540576675 0.7424808241204207 -0.26295093771192624
vn -0.6160998540576675 -0.7424808241204207 0.26295093771192624
vn 0.9573482549605425 0.27236107253507436 -0.0964560256881241
vn -0.9573482549605425 -0.27236107253507436 0.0964560256881241
usemtl material_0_0
f 1//1 2//1 3//1
f 3//2 2//2 1//2
f 1//3 4//3 2//3
f 2//4 4//4 1//4
f 3//5 2//5 5//5
f 5//6 2//6 3//6
f 1//7 6//7 4//7
f 4//8 6//8 1//8
f 2//9 4//9 7//9
f 7//10 4//10 2//10
f 2//11 7//11 5//11
f 5//12 7//12 2//12
f 8//13 3//13 5//13
f 5//14 3//14 8//14
f 1//15 9//15 6//15
f 6//16 9//16 1//16
f 4//17 6//17 10//17
f 10//18 6//18 4//18
f 4//19 10//19 7//19
f 7//20 10//20 4//20
f 5//21 7//21 11//21
f 11//22 7//22 5//22
f 8//23 5//23 12//23
f 12//24 5//24 8//24
f 1//25 13//25 9//25
f 9//26 13//26 1//26
f 14//27 6//27 9//27
f 9//28 6//28 14//28
f 10//29 6//29 14//29
f 14//30 6//30 10//30
f 7//31 10//31 15//31
f 15//32 10//32 7//32
f 11//31 7//31 15//31
f 15//32 7//32 11//32
f 12//21 5//21 11//21
f 11//22 5//22 12//22
f 16//23 8//23 12//23
f 12//24 8//24 16//24
f 17//33 13//33 1//33
f 1//34 13//34 17//34
f 18//35 9//35 13//35
f 13//36 9//36 18//36
f 14//37 9//37 18//37
f 18//38 9//38 14//38
f 19//39 10//39 14//39
f 14//40 10//40 19//40
f 15//39 10//39 19//39
f 19//40 10//40 15//40
f 20//41 11//41 15//41
f 15//42 11//42 20//42
f 12//43 11//43 21//43
f 21//44 11//44 12//44
f 16//45 12//45 22//45
f 22//46 12//46 16//46
f 23//47 13//47 17//47
f 17//48 13//48 23//48
f 24//49 17//49 1//49
f 1//50 17//50 24//50
f 18//47 13//47 23//47
f 23//48 13//48 18//48
f 25//51 14//51 18//51
f 18//52 14//52 25//52
f 19//51 14//51 25//51
f 25//52 14//52 19//52
f 26//53 15//53 19//53
f 19//54 15//54 26//54
f 21//55 11//55 20//55
f 20//56 11//56 21//56
f 20//57 15//57 26//57
f 26//58 15//58 20//58
f 22//59 12//59 21//59
f 21//60 12//60 22//60
f 16//61 22//61 27//61
f 27//62 22//62 16//62
f 23//63 17//63 28//63
f 28//64 17//64 23//64
f 28//65 17//65 24//65
f 24//66 17//66 28//66
f 29//67 24//67 1//67
f 1//68 24//68 29//68
f 30//69 18//69 23//69
f 23//70 18//70 30//70
f 25//69 18//69 30//69
f 30//70 18//70 25//70
f 31//71 19//71 25//71
f 25//72 19//72 31//72
f 26//73 19//73 31//73
f 31//74 19//74 26//74
f 32//75 21//75 20//75
f 20//76 21//76 32//76
f 32//77 20//77 26//77
f 26//78 20//78 32//78
f 32//79 22//79 21//79
f 21//80 22//80 32//80
f 32//81 27//81 22//81
f 22//82 27//82 32//82
f 33//83 23//83 28//83
f 28//84 23//84 33//84
f 28//85 24//85 34//85
f 34//86 24//86 28//86
f 34//87 24//87 29//87
f 29//88 24//88 34//88
f 35//89 29//89 1//89
f 1//90 29//90 35//90
f 30//83 23//83 33//83
f 33//84 23//84 30//84
f 36//91 25//91 30//91
f 30//92 25//92 36//92
f 31//93 25//93 36//93
f 36//94 25//94 31//94
f 32//95 26//95 31//95
f 31//96 26//96 32//96
f 33//97 28//97 37//97
f 37//98 28//98 33//98
f 37//97 28//97 34//97
f 34//98 28//98 37//98
f 29//99 38//99 34//99
f 34//100 38//100 29//100
f 35//101 38//101 29//101
f 29//102 38//102 35//102
f 39//103 35//103 1//103
f 1//104 35//104 39//104
f 40//105 30//105 33//105
f 33//106 30//106 40//106
f 36//107 30//107 40//107
f 40//108 30//108 36//108
f 36//109 32//109 31//109
f 31//110 32//110 36//110
f 41//111 33//111 37//111
f 37//112 33//112 41//112
f 42//113 37//113 34//113
f 34//114 37//114 42//114
f 42//113 34//113 38//113
f 38//114 34//114 42//114
f 43//115 38//115 35//115
f 35//116 38//116 43//116
f 39//117 43//117 35//117
f 35//118 43//118 39//118
f 40//119 33//119 41//119
f 41//120 33//120 40//120
f 40//121 32//121 36//121
f 36//122 32//122 40//122
f 44//123 41//123 37//123
f 37//124 41//124 44//124
f 44//125 37//125 42//125
f 42//126 37//126 44//126
f 45//127 42//127 38//127
f 38//128 42//128 45//128
f 45//127 38//127 43//127
f 43//128 38//128 45//128
f 41//129 32//129 40//129
f 40//130 32//130 41//130
f 44//131 32//131 41//131
f 41//132 32//132 44//132
f 46//133 44//133 42//133
f 42//134 44//134 46//134
f 46//135 42//135 45//135
f 45//136 42//136 46//136
f 46//137 32//137 44//137
f 44//138 32//138 46//138
