# SSTK version 0.8.0
# 18
mtllib original-18.mtl
o mesh15/mesh15-geometry#mesh15-geometry
v -0.454457 -0.709960 0.368184
v -0.459435 -0.724895 0.369429
v -0.475614 -0.724895 0.320890
v -0.459435 -0.739830 0.369429
v -0.475614 -0.739830 0.320890
v -0.469392 -0.709960 0.318401
v -0.454457 -0.754765 0.368184
v -0.443255 -0.698759 0.364450
v -0.469392 -0.754765 0.318401
v -0.443255 -0.765966 0.364450
v -0.459435 -0.698759 0.314667
v -0.459435 -0.765966 0.314667
v -0.429565 -0.692536 0.359472
v -0.429565 -0.772189 0.359472
v -0.445744 -0.772189 0.310933
v -0.445744 -0.692536 0.310933
v -0.414630 -0.692536 0.354494
v -0.414630 -0.772189 0.354494
v -0.430810 -0.772189 0.305955
v -0.430810 -0.692536 0.305955
v -0.400940 -0.698759 0.350760
v -0.400940 -0.765966 0.350760
v -0.415875 -0.765966 0.300977
v -0.415875 -0.698759 0.300977
v -0.389738 -0.709960 0.347026
v -0.389738 -0.754765 0.347026
v -0.405918 -0.754765 0.297243
v -0.405918 -0.709960 0.297243
v -0.383515 -0.724895 0.345782
v -0.383515 -0.739830 0.345782
v -0.399695 -0.739830 0.295998
v -0.399695 -0.724895 0.295998
vn 0.897479184368719 -0.32409006657766715 -0.2991600614563084
vn -0.897479184368719 0.32409006657766715 0.2991600614563084
vn -0.2425358603303082 0 -0.9701424413218077
vn 0.2425358603303082 0 0.9701424413218077
vn 0.9486831980504454 0 -0.31622806601688497
vn -0.9486831980504454 0 0.31622806601688497
vn 0.8744459387463757 -0.40807497141496135 -0.26233398162389904
vn -0.8744459387463757 0.40807497141496135 0.26233398162389904
vn 0.37139084876782047 0 0.9284766219197541
vn -0.37139084876782047 0 -0.9284766219197541
vn 0.6593799951347646 -0.7253189946482338 -0.1978139985404297
vn -0.6593799951347646 0.7253189946482338 0.1978139985404297
vn 0.9059508930751521 0.32463196168531505 -0.2717849679225812
vn -0.9059508930751521 -0.32463196168531505 0.2717849679225812
vn -0.31622806601688497 0 -0.9486831980504454
vn 0.31622806601688497 0 0.9486831980504454
vn 0.8657749119796992 0.40883795843487786 -0.28859197065986597
vn -0.8657749119796992 -0.40883795843487786 0.28859197065986597
vn 0.6900530053154783 -0.6881360053007116 -0.22426700172752903
vn -0.6900530053154783 0.6881360053007116 0.22426700172752903
vn 0.6954008659694932 0.6876738674587831 -0.20861995979090578
vn -0.6954008659694932 -0.6876738674587831 0.20861995979090578
vn 0.6545558679152211 0.7254668536058819 -0.2127309570723863
vn -0.6545558679152211 -0.7254668536058819 0.2127309570723863
vn 0.3511231128211414 0 0.9363293008566975
vn -0.3511231128211414 0 -0.9363293008566975
vn 0.37379011438857657 -0.9195232813957759 -0.12148203717636419
vn -0.37379011438857657 0.9195232813957759 0.12148203717636419
vn -0.3417431433787079 0 -0.9397933942913411
vn 0.3417431433787079 0 0.9397933942913411
vn 0.38231295596634324 0.9156408945392348 -0.12425198568902975
vn -0.38231295596634324 -0.9156408945392348 0.12425198568902975
vn 0.3814930339845454 -0.9155830815628913 -0.1271640113281524
vn -0.3814930339845454 0.9155830815628913 0.1271640113281524
vn 0.3727931118974109 0.9195562760135935 -0.12426403729903678
vn -0.3727931118974109 -0.9195562760135935 0.12426403729903678
vn 0.26311698271518846 0 0.9647639366222472
vn -0.26311698271518846 0 -0.9647639366222472
vn 0 -1 0
vn 0 1 0
vn -0.3814930339845454 -0.9155830815628913 0.127164011328152
vn 0.3814930339845454 0.9155830815628913 -0.127164011328152
vn -0.3487430108260295 0.9299810288694015 0.11624800360868713
vn 0.3487430108260295 -0.9299810288694015 -0.11624800360868713
vn -0.3522441048993668 -0.9299232769339829 0.10567303146975035
vn 0.3522441048993668 0.9299232769339829 -0.10567303146975035
vn -0.3847749901988191 0.9157639766732022 0.11543199705965877
vn 0.3847749901988191 -0.9157639766732022 -0.11543199705965877
vn -0.6593820820901071 -0.7253170902987194 0.19781402462695738
vn 0.6593820820901071 0.7253170902987194 -0.19781402462695738
vn -0.31622896601645617 0 -0.9486828980497978
vn 0.31622896601645617 0 0.9486828980497978
vn -0.6954008659694932 0.6876738674587831 0.2086199597909061
vn 0.6954008659694932 -0.6876738674587831 -0.2086199597909061
vn -0.6900530053154783 -0.6881360053007116 0.2242670017275287
vn 0.6900530053154783 0.6881360053007116 -0.2242670017275287
vn -0.6545573891884845 0.725465431349178 0.2127311264862429
vn 0.6545573891884845 -0.725465431349178 -0.2127311264862429
vn -0.8762030408928347 -0.3888150181461918 0.28476501329012593
vn 0.8762030408928347 0.3888150181461918 -0.28476501329012593
vn -0.19611594283054423 0 -0.9805807141524284
vn 0.19611594283054423 0 0.9805807141524284
vn -0.8762030408928347 0.3888150181461917 0.28476501329012616
vn 0.8762030408928347 -0.3888150181461917 -0.28476501329012616
vn -0.9510343773795505 0 0.3090851226479375
vn 0.9510343773795505 0 -0.3090851226479375
usemtl material_0_0
f 1//1 2//1 3//1
f 3//2 2//2 1//2
f 1//3 4//3 2//3
f 2//4 4//4 1//4
f 2//5 5//5 3//5
f 3//6 5//6 2//6
f 1//7 3//7 6//7
f 6//8 3//8 1//8
f 7//3 4//3 1//3
f 1//4 4//4 7//4
f 2//5 4//5 5//5
f 5//6 4//6 2//6
f 6//9 3//9 5//9
f 5//10 3//10 6//10
f 1//11 6//11 8//11
f 8//12 6//12 1//12
f 4//13 7//13 9//13
f 9//14 7//14 4//14
f 10//15 7//15 1//15
f 1//16 7//16 10//16
f 4//17 9//17 5//17
f 5//18 9//18 4//18
f 6//9 5//9 9//9
f 9//10 5//10 6//10
f 8//19 6//19 11//19
f 11//20 6//20 8//20
f 10//15 1//15 8//15
f 8//16 1//16 10//16
f 7//21 12//21 9//21
f 9//22 12//22 7//22
f 7//23 10//23 12//23
f 12//24 10//24 7//24
f 11//25 6//25 9//25
f 9//26 6//26 11//26
f 8//27 11//27 13//27
f 13//28 11//28 8//28
f 14//29 10//29 8//29
f 8//30 10//30 14//30
f 11//25 9//25 12//25
f 12//26 9//26 11//26
f 10//31 15//31 12//31
f 12//32 15//32 10//32
f 13//33 11//33 16//33
f 16//34 11//34 13//34
f 14//29 8//29 13//29
f 13//30 8//30 14//30
f 10//35 14//35 15//35
f 15//36 14//36 10//36
f 16//37 11//37 12//37
f 12//38 11//38 16//38
f 16//37 12//37 15//37
f 15//38 12//38 16//38
f 13//39 16//39 17//39
f 17//40 16//40 13//40
f 18//15 14//15 13//15
f 13//16 14//16 18//16
f 14//40 19//40 15//40
f 15//39 19//39 14//39
f 20//16 16//16 15//16
f 15//15 16//15 20//15
f 17//39 16//39 20//39
f 20//40 16//40 17//40
f 18//15 13//15 17//15
f 17//16 13//16 18//16
f 14//40 18//40 19//40
f 19//39 18//39 14//39
f 20//16 15//16 19//16
f 19//15 15//15 20//15
f 17//41 20//41 21//41
f 21//42 20//42 17//42
f 22//38 18//38 17//38
f 17//37 18//37 22//37
f 18//43 23//43 19//43
f 19//44 23//44 18//44
f 24//16 20//16 19//16
f 19//15 20//15 24//15
f 21//45 20//45 24//45
f 24//46 20//46 21//46
f 22//38 17//38 21//38
f 21//37 17//37 22//37
f 18//47 22//47 23//47
f 23//48 22//48 18//48
f 24//16 19//16 23//16
f 23//15 19//15 24//15
f 21//49 24//49 25//49
f 25//50 24//50 21//50
f 26//51 22//51 21//51
f 21//52 22//52 26//52
f 27//53 23//53 22//53
f 22//54 23//54 27//54
f 28//25 24//25 23//25
f 23//26 24//26 28//26
f 24//55 28//55 25//55
f 25//56 28//56 24//56
f 26//51 21//51 25//51
f 25//52 21//52 26//52
f 22//57 26//57 27//57
f 27//58 26//58 22//58
f 28//25 23//25 27//25
f 27//26 23//26 28//26
f 28//59 29//59 25//59
f 25//60 29//60 28//60
f 30//61 26//61 25//61
f 25//62 26//62 30//62
f 31//63 27//63 26//63
f 26//64 27//64 31//64
f 32//62 28//62 27//62
f 27//61 28//61 32//61
f 28//59 32//59 29//59
f 29//60 32//60 28//60
f 30//61 25//61 29//61
f 29//62 25//62 30//62
f 31//63 26//63 30//63
f 30//64 26//64 31//64
f 32//62 27//62 31//62
f 31//61 27//61 32//61
f 32//65 30//65 29//65
f 29//66 30//66 32//66
f 32//65 31//65 30//65
f 30//66 31//66 32//66
