# SSTK version 0.8.0
# 36
mtllib original-36.mtl
o mesh32/mesh32-geometry#mesh32-geometry
v 0.194824 -0.054879 -0.005144
v 0.194824 -0.058226 -0.005674
v 0.191595 -0.058226 0.005158
v 0.203278 -0.052810 -0.011512
v 0.194824 -0.051859 -0.003606
v 0.203278 -0.058226 -0.012369
v 0.203278 -0.047924 -0.009022
v 0.194824 -0.049462 -0.001209
v 0.213728 -0.052810 -0.011512
v 0.213728 -0.047924 -0.009022
v 0.203278 -0.044046 -0.005144
v 0.194824 -0.047924 0.001811
v 0.213728 -0.058226 -0.012369
v 0.213728 -0.044046 -0.005144
v 0.203278 -0.041556 -0.000258
v 0.194824 -0.047394 0.005158
v 0.222182 -0.054879 -0.005144
v 0.222182 -0.051859 -0.003606
v 0.222182 -0.049462 -0.001209
v 0.213728 -0.041556 -0.000258
v 0.203278 -0.040699 0.005158
v 0.194824 -0.047924 0.008506
v 0.222182 -0.058226 -0.005674
v 0.222182 -0.047924 0.001811
v 0.213728 -0.040699 0.005158
v 0.203278 -0.041556 0.010575
v 0.194824 -0.049462 0.011526
v 0.225411 -0.058226 0.005158
v 0.222182 -0.047394 0.005158
v 0.213728 -0.041556 0.010575
v 0.194824 -0.051859 0.013922
v 0.203278 -0.044046 0.015461
v 0.222182 -0.047924 0.008506
v 0.213728 -0.044046 0.015461
v 0.194824 -0.054879 0.015461
v 0.203278 -0.047924 0.019339
v 0.222182 -0.049462 0.011526
v 0.194824 -0.058226 0.015991
v 0.203278 -0.052810 0.021828
v 0.213728 -0.047924 0.019339
v 0.222182 -0.051859 0.013922
v 0.203278 -0.058226 0.022686
v 0.213728 -0.052810 0.021828
v 0.213728 -0.058226 0.022686
v 0.222182 -0.054879 0.015461
v 0.222182 -0.058226 0.015991
vn -0.957348443441987 0.04519002093193222 -0.28538013218753683
vn 0.957348443441987 -0.04519002093193222 0.28538013218753683
vn -0.6160930060691324 0.1231930012135744 -0.7779800076638809
vn 0.6160930060691324 -0.1231930012135744 0.7779800076638809
vn -0.9573488220336573 0.13117497561523023 -0.25744195214283244
vn 0.9573488220336573 -0.13117497561523023 0.25744195214283244
vn -0.6161030881415626 0.12322401762879907 -0.7779671112983167
vn 0.6161030881415626 -0.12322401762879907 0.7779671112983167
vn -0.6160958399441746 0.3575979070994732 -0.7018188176741619
vn 0.6160958399441746 -0.3575979070994732 0.7018188176741619
vn -0.6160971048292395 0.35759906084566434 -0.7018171194145437
vn 0.6160971048292395 -0.35759906084566434 0.7018171194145437
vn -0.9573484214856596 0.20431208995117567 -0.2043050899480935
vn 0.9573484214856596 -0.20431208995117567 0.2043050899480935
vn 0 0.1564439737874235 -0.9876868345106156
vn 0 -0.1564439737874235 0.9876868345106156
vn -0.0000029999993070930828 0.45399389511153276 -0.8910047941467311
vn 0.0000029999993070930828 -0.45399389511153276 0.8910047941467311
vn -0.6160970025916122 0.5569670023428818 -0.5569670023428814
vn 0.6160970025916122 -0.5569670023428818 0.5569670023428814
vn -0.616100856814173 0.5569738705556673 -0.5569558705598503
vn 0.616100856814173 -0.5569738705556673 0.5569558705598503
vn -0.9573482550084101 0.2574460685757898 -0.1311710349399674
vn 0.9573482550084101 -0.2574460685757898 0.1311710349399674
vn 0 0.4539879182349676 -0.8910078395259384
vn 0 -0.4539879182349676 0.8910078395259384
vn -0.00000499999845260523 0.7070997811452271 -0.7071137811408937
vn 0.00000499999845260523 -0.7070997811452271 0.7071137811408937
vn -0.000009999996905168449 0.7071067811511924 -0.7071067811511922
vn 0.000009999996905168449 -0.7071067811511924 0.7071067811511922
vn -0.6161011122406947 0.7018151278559898 -0.35759606514649916
vn 0.6161011122406947 -0.7018151278559898 0.35759606514649916
vn -0.6161047283979918 0.7018186906120712 -0.3575828423641082
vn 0.6161047283979918 -0.7018186906120712 0.3575828423641082
vn -0.9573483840863339 0.2853781144931517 -0.04520401813576502
vn 0.9573483840863339 -0.2853781144931517 0.04520401813576502
vn 0.6161040360273005 0.12322600720576438 -0.7779660454923439
vn -0.6161040360273005 -0.12322600720576438 0.7779660454923439
vn 0.6160981823607763 0.35759310584507203 -0.7018192077336036
vn -0.6160981823607763 -0.35759310584507203 0.7018192077336036
vn 0.6161050542486683 0.5569570490406274 -0.5569680490415958
vn -0.6161050542486683 -0.5569570490406274 0.5569680490415958
vn -0.000006999995917497876 0.8910104803365547 -0.4539827352239533
vn 0.000006999995917497876 -0.8910104803365547 0.4539827352239533
vn 0 0.8910047941507407 -0.4539938951135753
vn 0 -0.8910047941507407 0.4539938951135753
vn -0.6161031402491187 0.777968177095918 -0.12321702804900393
vn 0.6161031402491187 -0.777968177095918 0.12321702804900393
vn -0.6160992682487556 0.7779693387267569 -0.1232290536537565
vn 0.6160992682487556 -0.7779693387267569 0.1232290536537565
vn -0.9573485973938335 0.28537787998635544 0.04520098099104812
vn 0.9573485973938335 -0.28537787998635544 -0.04520098099104812
vn 0.6161060589967786 0.3575680342398228 -0.701825067205017
vn -0.6161060589967786 -0.3575680342398228 0.701825067205017
vn 0.6160989296800122 0.5569749364282769 -0.5569569364303313
vn -0.6160989296800122 -0.5569749364282769 0.5569569364303313
vn 0.616104670760529 0.7018116249596879 -0.3575968089042499
vn -0.616104670760529 -0.7018116249596879 0.3575968089042499
vn 0.6161001005977567 0.7018211145944139 -0.35758605838719276
vn -0.6161001005977567 -0.7018211145944139 0.35758605838719276
vn 0 0.9876885830917987 -0.15643293396889013
vn 0 -0.9876885830917987 0.15643293396889013
vn -0.6161006892271848 0.7779706075769429 0.12321393784856466
vn 0.6161006892271848 -0.7779706075769429 -0.12321393784856466
vn -0.9573487105332154 0.25744492215819265 0.13116996033906353
vn 0.9573487105332154 -0.25744492215819265 -0.13116996033906353
vn -0.6161037844764601 0.7779667278540607 0.12322295689452274
vn 0.6161037844764601 -0.7779667278540607 -0.12322295689452274
vn 0.9573481541550841 0.04520300727872449 -0.28537904595259406
vn -0.9573481541550841 -0.04520300727872449 0.28537904595259406
vn 0.9573485990002631 0.13116494505960688 -0.25744789216411146
vn -0.9573485990002631 -0.13116494505960688 0.25744789216411146
vn 0.9573488961573281 0.20431097783859378 -0.2043039778393532
vn -0.9573488961573281 -0.20431097783859378 0.2043039778393532
vn 0.9573488220336572 0.2574419521428328 -0.13117497561523034
vn -0.9573488220336572 -0.2574419521428328 0.13117497561523034
vn 0.6160976936824639 0.7779736131993955 -0.12320993874126576
vn -0.6160976936824639 -0.7779736131993955 0.12320993874126576
vn 0.6161003203756383 0.7779704045489944 -0.12321706407356761
vn -0.6161003203756383 -0.7779704045489944 0.12321706407356761
vn 0 0.9876893556151471 0.15642805632154097
vn 0 -0.9876893556151471 -0.15642805632154097
vn -0.9573488961573281 0.20430397783935297 0.204310977838594
vn 0.9573488961573281 -0.20430397783935297 -0.204310977838594
vn -0.6160958893377904 0.7018248739392802 0.35758593577095665
vn 0.6160958893377904 -0.7018248739392802 -0.35758593577095665
vn -0.61610318485994 0.7018092105757797 0.357604107298056
vn 0.61610318485994 -0.7018092105757797 -0.357604107298056
vn 0.9573489435480064 0.28537798317211693 -0.04519299733510475
vn -0.9573489435480064 -0.28537798317211693 0.04519299733510475
vn 0.6160997889624467 0.7779697335158491 0.1232239577911192
vn -0.6160997889624467 -0.7779697335158491 -0.1232239577911192
vn 0.6161029645928716 0.7779689552905144 0.12321299291901112
vn -0.6161029645928716 -0.7779689552905144 -0.12321299291901112
vn 0 0.8910047941507405 0.45399389511357574
vn 0 -0.8910047941507405 -0.45399389511357574
vn -0.9573488220336571 0.13117497561523012 0.257441952142833
vn 0.9573488220336571 -0.13117497561523012 -0.257441952142833
vn -0.6161040906547947 0.5569540819513434 0.5569720819539924
vn 0.6161040906547947 -0.5569540819513434 -0.5569720819539924
vn -0.6160973457188098 0.5569723125412019 0.5569613125350298
vn 0.6160973457188098 -0.5569723125412019 -0.5569613125350298
vn -0.000006000000725713322 0.8909991077832774 0.454005054920541
vn 0.000006000000725713322 -0.8909991077832774 -0.454005054920541
vn 0.9573485973938335 0.28537787998635544 0.04520098099104769
vn -0.9573485973938335 -0.28537787998635544 -0.04520098099104769
vn 0.6161047283979918 0.701818690612071 0.35758284236410853
vn -0.6161047283979918 -0.701818690612071 -0.35758284236410853
vn 0.6161006798516824 0.7018156353110742 0.357595814180211
vn -0.6161006798516824 -0.7018156353110742 -0.357595814180211
vn -0.9573491005307556 0.04520200474664011 0.2853760299671961
vn 0.9573491005307556 -0.04520200474664011 -0.2853760299671961
vn -0.616101724416528 0.3575978400458066 0.701813686077405
vn 0.616101724416528 -0.3575978400458066 -0.701813686077405
vn -0.616104295378645 0.35759017143931804 0.7018153364710566
vn 0.616104295378645 -0.35759017143931804 -0.7018153364710566
vn -0.000004999998452291211 0.7071137811408937 0.7070997811452271
vn 0.000004999998452291211 -0.7071137811408937 -0.7070997811452271
vn 0.9573487105332156 0.2574449221581927 0.1311699603390631
vn -0.9573487105332156 -0.2574449221581927 -0.1311699603390631
vn 0.6160989296800125 0.5569569364303312 0.5569749364282768
vn -0.6160989296800125 -0.5569569364303312 -0.5569749364282768
vn -0.6160950211681009 0.12322700423389495 0.7779730267299869
vn 0.6160950211681009 -0.12322700423389495 -0.7779730267299869
vn -0.616101916924515 0.12320598338684456 0.7779708950980228
vn 0.616101916924515 -0.12320598338684456 -0.7779708950980228
vn -0.000002999999459476803 0.4539879182329242 0.8910078395219292
vn 0.000002999999459476803 -0.4539879182329242 -0.8910078395219292
vn 0.6161050542486686 0.5569680490415957 0.5569570490406273
vn -0.6161050542486686 -0.5569680490415957 -0.5569570490406273
vn 0.9573488961573281 0.20430397783935297 0.20431097783859356
vn -0.9573488961573281 -0.20430397783935297 -0.20431097783859356
vn 0 0.1564189675397826 0.9876907950334398
vn 0 -0.1564189675397826 -0.9876907950334398
vn -0.0000010000001050952053 0.15641701647298054 0.9876911040182003
vn 0.0000010000001050952053 -0.15641701647298054 -0.9876911040182003
vn 0.6161042953786452 0.35759017143931804 0.7018153364710564
vn -0.6161042953786452 -0.35759017143931804 -0.7018153364710564
vn 0.6161069966838042 0.3575959980752394 0.7018099962225077
vn -0.6161069966838042 -0.3575959980752394 -0.7018099962225077
vn 0.9573488220336573 0.13117497561523012 0.25744195214283255
vn -0.9573488220336573 -0.13117497561523012 -0.25744195214283255
vn 0.6160969734896561 0.12320499469855063 0.7779749665241268
vn -0.6160969734896561 -0.12320499469855063 -0.7779749665241268
vn 0.6161040360273008 0.12322600720576402 0.7779660454923436
vn -0.6161040360273008 -0.12322600720576402 -0.7779660454923436
vn 0.9573491005307556 0.0452020047466401 0.2853760299671956
vn -0.9573491005307556 -0.0452020047466401 -0.2853760299671956
usemtl material_0_0
f 1//1 2//1 3//1
f 3//2 2//2 1//2
f 4//3 2//3 1//3
f 1//4 2//4 4//4
f 5//5 1//5 3//5
f 3//6 1//6 5//6
f 6//7 2//7 4//7
f 4//8 2//8 6//8
f 4//9 1//9 7//9
f 7//10 1//10 4//10
f 7//11 1//11 5//11
f 5//12 1//12 7//12
f 8//13 5//13 3//13
f 3//14 5//14 8//14
f 9//15 6//15 4//15
f 4//16 6//16 9//16
f 10//17 4//17 7//17
f 7//18 4//18 10//18
f 11//19 7//19 5//19
f 5//20 7//20 11//20
f 11//21 5//21 8//21
f 8//22 5//22 11//22
f 12//23 8//23 3//23
f 3//24 8//24 12//24
f 13//15 6//15 9//15
f 9//16 6//16 13//16
f 9//25 4//25 10//25
f 10//26 4//26 9//26
f 10//27 7//27 14//27
f 14//28 7//28 10//28
f 14//29 7//29 11//29
f 11//30 7//30 14//30
f 15//31 11//31 8//31
f 8//32 11//32 15//32
f 12//33 15//33 8//33
f 8//34 15//34 12//34
f 16//35 12//35 3//35
f 3//36 12//36 16//36
f 17//37 13//37 9//37
f 9//38 13//38 17//38
f 18//39 9//39 10//39
f 10//40 9//40 18//40
f 14//41 19//41 10//41
f 10//42 19//42 14//42
f 20//43 14//43 11//43
f 11//44 14//44 20//44
f 15//45 20//45 11//45
f 11//46 20//46 15//46
f 21//47 15//47 12//47
f 12//48 15//48 21//48
f 21//49 12//49 16//49
f 16//50 12//50 21//50
f 16//51 3//51 22//51
f 22//52 3//52 16//52
f 23//37 13//37 17//37
f 17//38 13//38 23//38
f 17//53 9//53 18//53
f 18//54 9//54 17//54
f 10//55 19//55 18//55
f 18//56 19//56 10//56
f 24//57 19//57 14//57
f 14//58 19//58 24//58
f 24//59 14//59 20//59
f 20//60 14//60 24//60
f 25//61 20//61 15//61
f 15//62 20//62 25//62
f 21//61 25//61 15//61
f 15//62 25//62 21//62
f 26//63 21//63 16//63
f 16//64 21//64 26//64
f 22//65 3//65 27//65
f 27//66 3//66 22//66
f 26//67 16//67 22//67
f 22//68 16//68 26//68
f 17//69 28//69 23//69
f 23//70 28//70 17//70
f 18//71 28//71 17//71
f 17//72 28//72 18//72
f 19//73 28//73 18//73
f 18//74 28//74 19//74
f 24//75 28//75 19//75
f 19//76 28//76 24//76
f 29//77 24//77 20//77
f 20//78 24//78 29//78
f 29//79 20//79 25//79
f 25//80 20//80 29//80
f 30//81 25//81 21//81
f 21//82 25//82 30//82
f 26//81 30//81 21//81
f 21//82 30//82 26//82
f 27//83 3//83 31//83
f 31//84 3//84 27//84
f 32//85 22//85 27//85
f 27//86 22//86 32//86
f 32//87 26//87 22//87
f 22//88 26//88 32//88
f 29//89 28//89 24//89
f 24//90 28//90 29//90
f 33//91 29//91 25//91
f 25//92 29//92 33//92
f 30//93 33//93 25//93
f 25//94 33//94 30//94
f 34//95 30//95 26//95
f 26//96 30//96 34//96
f 31//97 3//97 35//97
f 35//98 3//98 31//98
f 36//99 27//99 31//99
f 31//100 27//100 36//100
f 32//101 27//101 36//101
f 36//102 27//102 32//102
f 32//103 34//103 26//103
f 26//104 34//104 32//104
f 29//105 33//105 28//105
f 28//106 33//106 29//106
f 37//107 33//107 30//107
f 30//108 33//108 37//108
f 34//109 37//109 30//109
f 30//110 37//110 34//110
f 35//111 3//111 38//111
f 38//112 3//112 35//112
f 39//113 31//113 35//113
f 35//114 31//114 39//114
f 36//115 31//115 39//115
f 39//116 31//116 36//116
f 36//117 40//117 32//117
f 32//118 40//118 36//118
f 40//117 34//117 32//117
f 32//118 34//118 40//118
f 33//119 37//119 28//119
f 28//120 37//120 33//120
f 34//121 41//121 37//121
f 37//122 41//122 34//122
f 42//123 35//123 38//123
f 38//124 35//124 42//124
f 39//125 35//125 42//125
f 42//126 35//126 39//126
f 43//127 36//127 39//127
f 39//128 36//128 43//128
f 40//127 36//127 43//127
f 43//128 36//128 40//128
f 34//129 40//129 41//129
f 41//130 40//130 34//130
f 37//131 41//131 28//131
f 28//132 41//132 37//132
f 44//133 39//133 42//133
f 42//134 39//134 44//134
f 43//135 39//135 44//135
f 44//136 39//136 43//136
f 45//137 40//137 43//137
f 43//138 40//138 45//138
f 45//139 41//139 40//139
f 40//140 41//140 45//140
f 41//141 45//141 28//141
f 28//142 45//142 41//142
f 46//143 43//143 44//143
f 44//144 43//144 46//144
f 45//145 43//145 46//145
f 46//146 43//146 45//146
f 45//147 46//147 28//147
f 28//148 46//148 45//148
