# SSTK version 0.8.0
# 38
mtllib original-38.mtl
o mesh34/mesh34-geometry#mesh34-geometry
v 0.188865 0.507042 -0.369709
v 0.192094 0.496391 -0.367735
v 0.192094 0.497522 -0.364540
v 0.200548 0.491638 -0.361345
v 0.192094 0.499585 -0.361851
v 0.200548 0.494977 -0.356995
v 0.200548 0.489808 -0.366515
v 0.192094 0.502378 -0.359931
v 0.210998 0.494977 -0.356995
v 0.210998 0.491638 -0.361345
v 0.200548 0.499496 -0.353889
v 0.192094 0.505628 -0.358969
v 0.210998 0.499496 -0.353889
v 0.210998 0.489808 -0.366515
v 0.200548 0.504754 -0.352331
v 0.192094 0.509016 -0.359058
v 0.219452 0.502378 -0.359931
v 0.219452 0.499585 -0.361851
v 0.219452 0.497522 -0.364540
v 0.210998 0.504754 -0.352331
v 0.200548 0.510236 -0.352475
v 0.192094 0.512211 -0.360189
v 0.219452 0.505628 -0.358969
v 0.219452 0.496391 -0.367735
v 0.210998 0.510236 -0.352475
v 0.192094 0.514900 -0.362252
v 0.200548 0.515405 -0.354305
v 0.222681 0.507042 -0.369709
v 0.219452 0.509016 -0.359058
v 0.210998 0.515405 -0.354305
v 0.192094 0.516819 -0.365045
v 0.200548 0.519756 -0.357644
v 0.219452 0.512211 -0.360189
v 0.192094 0.517782 -0.368295
v 0.200548 0.522862 -0.362163
v 0.210998 0.519756 -0.357644
v 0.219452 0.514900 -0.362252
v 0.192094 0.517693 -0.371683
v 0.200548 0.524420 -0.367421
v 0.210998 0.522862 -0.362163
v 0.200548 0.524276 -0.372903
v 0.210998 0.524420 -0.367421
v 0.219452 0.516819 -0.365045
v 0.210998 0.524276 -0.372903
v 0.219452 0.517782 -0.368295
v 0.219452 0.517693 -0.371683
vn -0.957348832657832 -0.272362952391641 0.09644498314165968
vn 0.957348832657832 0.272362952391641 -0.09644498314165968
vn -0.6160950455497566 -0.7424950548948892 0.2629220194386144
vn 0.6160950455497566 0.7424950548948892 -0.2629220194386144
vn -0.9573484727261136 -0.2292228737520987 0.17589990312051668
vn 0.9573484727261136 0.2292228737520987 -0.17589990312051668
vn -0.6160968782426341 -0.6249058765017386 0.47949690523847444
vn 0.6160968782426341 0.6249058765017386 -0.47949690523847444
vn -0.6160992714823552 -0.742488327175326 0.26293111585983286
vn 0.6160992714823552 0.742488327175326 -0.26293111585983286
vn -0.6161071838655102 -0.6248801864836468 0.4795171431028019
vn 0.6161071838655102 0.6248801864836468 -0.4795171431028019
vn -0.957348555378641 -0.16365809494160713 0.23811713813691163
vn 0.957348555378641 0.16365809494160713 -0.23811713813691163
vn 0 -0.7933590256266873 0.6087540196636682
vn 0 0.7933590256266873 -0.6087540196636682
vn 0 -0.9426403366640563 0.3338101192203051
vn 0 0.9426403366640563 -0.3338101192203051
vn -0.6161052988003604 -0.4461392163697651 0.6491333148183741
vn 0.6161052988003604 0.4461392163697651 -0.6491333148183741
vn -0.6161030588014947 -0.44614704258072213 0.6491300619536252
vn 0.6161030588014947 0.44614704258072213 -0.6491300619536252
vn -0.9573489218559187 -0.08206499330140422 0.2770349773868826
vn 0.9573489218559187 0.08206499330140422 -0.2770349773868826
vn 0 -0.5664079892130434 0.8241249843049518
vn 0 0.5664079892130434 -0.8241249843049518
vn -0.6161020093721437 -0.2236960034028638 0.7552340114886199
vn 0.6161020093721437 0.2236960034028638 -0.7552340114886199
vn -0.6160942034574429 -0.22372007388077028 0.7552332494063816
vn 0.6160942034574429 0.22372007388077028 -0.7552332494063816
vn -0.9573490099937663 0.007564000078960533 0.2888350030151488
vn 0.9573490099937663 -0.007564000078960533 -0.2888350030151488
vn 0.6161029832315255 -0.4461399878574083 0.6491349823324933
vn -0.6161029832315255 0.4461399878574083 -0.6491349823324933
vn 0.6160991845115679 -0.6249041871485213 0.47949614360120457
vn -0.6160991845115679 0.6249041871485213 -0.47949614360120457
vn 0.6160958758810293 -0.7424908504174371 0.26293194702960354
vn -0.6160958758810293 0.7424908504174371 -0.26293194702960354
vn 0 -0.2839988846075848 0.958824610417175
vn 0 0.2839988846075848 -0.958824610417175
vn -0.61609584301233 0.020598994751160345 0.7874017993617797
vn 0.61609584301233 -0.020598994751160345 -0.7874017993617797
vn -0.9573491694838464 0.0964470170744509 0.2723610482173065
vn 0.9573491694838464 -0.0964470170744509 -0.2723610482173065
vn -0.6161028300095511 0.02061999431068643 0.7873957827476912
vn 0.6161028300095511 -0.02061999431068643 -0.7873957827476912
vn 0.6161033200013751 -0.22371811619821313 0.7552263922612912
vn -0.6161033200013751 0.22371811619821313 -0.7552263922612912
vn 0.6160960893669007 -0.44612606471215205 0.649151094161645
vn -0.6160960893669007 0.44612606471215205 -0.649151094161645
vn 0.6160959090482321 -0.6248999077485331 0.4795059292124626
vn -0.6160959090482321 0.6248999077485331 -0.4795059292124626
vn 0.616099681998691 -0.7424916167611948 0.26292086429277334
vn -0.616099681998691 0.7424916167611948 -0.26292086429277334
vn 0.6160956847004843 -0.22369788551805075 0.755238613491256
vn -0.6160956847004843 0.22369788551805075 -0.755238613491256
vn 0 0.02615199942376663 0.9996579779735364
vn 0 -0.02615199942376663 -0.9996579779735364
vn -0.9573491615330588 0.17589202967817663 0.22922603867719837
vn 0.9573491615330588 -0.17589202967817663 -0.22922603867719837
vn -0.616096075428339 0.26291103218806805 0.7424980909036758
vn 0.616096075428339 -0.26291103218806805 -0.7424980909036758
vn -0.6161032874941923 0.2629301226919004 0.7424853464682457
vn 0.6161032874941923 -0.2629301226919004 -0.7424853464682457
vn 0.9573491870746655 -0.08206501603624433 0.2770340541349525
vn -0.9573491870746655 0.08206501603624433 -0.2770340541349525
vn 0.9573490657751484 -0.16364801124351885 0.2381220163602925
vn -0.9573490657751484 0.16364801124351885 -0.2381220163602925
vn 0.9573489931425091 -0.2292259983580542 0.17589299874007816
vn -0.9573489931425091 0.2292259983580542 -0.17589299874007816
vn 0.957348832657832 -0.272362952391641 0.09644498314165927
vn -0.957348832657832 0.272362952391641 -0.09644498314165927
vn 0.6160943355127447 0.020620011229248596 0.7874024288037312
vn -0.6160943355127447 -0.020620011229248596 -0.7874024288037312
vn 0.6161008855882281 0.020598996174704794 0.7873978537778699
vn -0.6161008855882281 -0.020598996174704794 -0.7873978537778699
vn 0 0.3338101192203051 0.9426403366640563
vn 0 -0.3338101192203051 -0.9426403366640563
vn -0.9573490657751484 0.23812201636029273 0.16364801124351908
vn 0.9573490657751484 -0.23812201636029273 -0.16364801124351908
vn -0.6160978303174393 0.47950486793718483 0.6248988278935131
vn 0.6160978303174393 -0.47950486793718483 -0.6248988278935131
vn -0.616097120316078 0.4795040936411647 0.6249001220351947
vn 0.616097120316078 -0.4795040936411647 -0.6249001220351947
vn 0.9573492865093146 0.007564002263705706 0.28883408644040065
vn -0.9573492865093146 -0.007564002263705706 -0.28883408644040065
vn 0.616102772978184 0.26293590311326465 0.7424837264092756
vn -0.616102772978184 -0.26293590311326465 -0.7424837264092756
vn 0.6161043653586226 0.2629301559213095 0.7424844403037985
vn -0.6161043653586226 -0.2629301559213095 -0.7424844403037985
vn -0.9573490889597535 0.27703202574264807 0.08207300762647068
vn 0.9573490889597535 -0.27703202574264807 -0.08207300762647068
vn -0.6161060674938073 0.6491450711131972 0.4461210488721178
vn 0.6161060674938073 -0.6491450711131972 -0.4461210488721178
vn -0.6160970617520276 0.6491350650634599 0.4461480447178672
vn 0.6160970617520276 -0.6491350650634599 -0.4461480447178672
vn 0 0.6087619527439421 0.7933529384147907
vn 0 -0.6087619527439421 -0.7933529384147907
vn 0.957349060886445 0.09645100613418767 0.2723600173218251
vn -0.957349060886445 -0.09645100613418767 -0.2723600173218251
vn 0.6161048489896396 0.4794788824773427 0.6249118468310004
vn -0.6161048489896396 -0.4794788824773427 -0.6249118468310004
vn -0.9573490172346757 0.2888350051997522 -0.007563000136152634
vn 0.9573490172346757 -0.2888350051997522 0.007563000136152634
vn -0.616091049868568 0.7552340611312908 0.223726018109168
vn 0.616091049868568 -0.7552340611312908 -0.223726018109168
vn -0.6161029913948894 0.7552349894516329 0.22368999687572214
vn 0.6161029913948894 -0.7552349894516329 -0.22368999687572214
vn 0 0.8241201126469254 0.5664150774218664
vn 0 -0.8241201126469254 -0.5664150774218664
vn 0.6160961148917706 0.4795040894196091 0.6249011165337582
vn -0.6160961148917706 -0.4795040894196091 -0.6249011165337582
vn 0.9573495797466687 0.1758831065103565 0.22923113881657411
vn -0.9573495797466687 -0.1758831065103565 -0.22923113881657411
vn -0.6161022222955749 0.7873962841001108 -0.020619007439534796
vn 0.6161022222955749 -0.7873962841001108 0.020619007439534796
vn -0.6160963154361575 0.7874014031429288 -0.020600010547032695
vn 0.6160963154361575 -0.7874014031429288 0.020600010547032695
vn 0 0.9588269501362057 0.28399098523104943
vn 0 -0.9588269501362057 -0.28399098523104943
vn 0.616102933742446 0.6491309301905162 0.4461459520201286
vn -0.616102933742446 -0.6491309301905162 -0.4461459520201286
vn 0.6160937737784171 0.6491527616395885 0.4461268361880555
vn -0.6160937737784171 -0.6491527616395885 -0.4461268361880555
vn 0.9573497618549683 0.23811994076660054 0.16364695929208734
vn -0.9573497618549683 -0.23811994076660054 -0.16364695929208734
vn 0 0.9996579518299834 -0.026152998739778336
vn 0 -0.9996579518299834 0.026152998739778336
vn 0.6160960463057805 0.7552400567638448 0.22369201681269263
vn -0.6160960463057805 -0.7552400567638448 -0.22369201681269263
vn 0.6161026992834263 0.755229631376283 0.2237088908088356
vn -0.6161026992834263 -0.755229631376283 -0.2237088908088356
vn 0.9573492361077204 0.27703506832419766 0.08206102023842454
vn -0.9573492361077204 -0.27703506832419766 -0.08206102023842454
vn 0.6161008728968627 0.7873978375578743 -0.020599995750169773
vn -0.6161008728968627 -0.7873978375578743 0.020599995750169773
vn 0.6160943355127447 0.7874024288037316 -0.020620011229248735
vn -0.6160943355127447 -0.7874024288037316 0.020620011229248735
vn 0.9573492865093145 0.2888340864404009 -0.0075640022637059184
vn -0.9573492865093145 -0.2888340864404009 0.0075640022637059184
usemtl material_0_0
f 1//1 2//1 3//1
f 3//2 2//2 1//2
f 4//3 3//3 2//3
f 2//4 3//4 4//4
f 1//5 3//5 5//5
f 5//6 3//6 1//6
f 6//7 3//7 4//7
f 4//8 3//8 6//8
f 4//9 2//9 7//9
f 7//10 2//10 4//10
f 6//11 5//11 3//11
f 3//12 5//12 6//12
f 1//13 5//13 8//13
f 8//14 5//14 1//14
f 9//15 6//15 4//15
f 4//16 6//16 9//16
f 10//17 4//17 7//17
f 7//18 4//18 10//18
f 11//19 5//19 6//19
f 6//20 5//20 11//20
f 11//21 8//21 5//21
f 5//22 8//22 11//22
f 1//23 8//23 12//23
f 12//24 8//24 1//24
f 13//25 6//25 9//25
f 9//26 6//26 13//26
f 9//15 4//15 10//15
f 10//16 4//16 9//16
f 10//17 7//17 14//17
f 14//18 7//18 10//18
f 13//25 11//25 6//25
f 6//26 11//26 13//26
f 11//27 15//27 8//27
f 8//28 15//28 11//28
f 15//29 12//29 8//29
f 8//30 12//30 15//30
f 16//31 1//31 12//31
f 12//32 1//32 16//32
f 17//33 13//33 9//33
f 9//34 13//34 17//34
f 9//35 10//35 18//35
f 18//36 10//36 9//36
f 10//37 14//37 19//37
f 19//38 14//38 10//38
f 13//39 20//39 11//39
f 11//40 20//40 13//40
f 20//39 15//39 11//39
f 11//40 15//40 20//40
f 21//41 12//41 15//41
f 15//42 12//42 21//42
f 22//43 1//43 16//43
f 16//44 1//44 22//44
f 21//45 16//45 12//45
f 12//46 16//46 21//46
f 23//47 13//47 17//47
f 17//48 13//48 23//48
f 18//49 17//49 9//49
f 9//50 17//50 18//50
f 10//51 19//51 18//51
f 18//52 19//52 10//52
f 19//53 14//53 24//53
f 24//54 14//54 19//54
f 23//55 20//55 13//55
f 13//56 20//56 23//56
f 25//57 15//57 20//57
f 20//58 15//58 25//58
f 25//57 21//57 15//57
f 15//58 21//58 25//58
f 26//59 1//59 22//59
f 22//60 1//60 26//60
f 27//61 22//61 16//61
f 16//62 22//62 27//62
f 27//63 16//63 21//63
f 21//64 16//64 27//64
f 28//65 23//65 17//65
f 17//66 23//66 28//66
f 28//67 17//67 18//67
f 18//68 17//68 28//68
f 28//69 18//69 19//69
f 19//70 18//70 28//70
f 28//71 19//71 24//71
f 24//72 19//72 28//72
f 29//73 20//73 23//73
f 23//74 20//74 29//74
f 29//75 25//75 20//75
f 20//76 25//76 29//76
f 30//77 21//77 25//77
f 25//78 21//78 30//78
f 31//79 1//79 26//79
f 26//80 1//80 31//80
f 32//81 26//81 22//81
f 22//82 26//82 32//82
f 32//83 22//83 27//83
f 27//84 22//84 32//84
f 30//77 27//77 21//77
f 21//78 27//78 30//78
f 29//85 23//85 28//85
f 28//86 23//86 29//86
f 29//87 33//87 25//87
f 25//88 33//88 29//88
f 33//89 30//89 25//89
f 25//90 30//90 33//90
f 34//91 1//91 31//91
f 31//92 1//92 34//92
f 35//93 31//93 26//93
f 26//94 31//94 35//94
f 32//95 35//95 26//95
f 26//96 35//96 32//96
f 36//97 32//97 27//97
f 27//98 32//98 36//98
f 36//97 27//97 30//97
f 30//98 27//98 36//98
f 33//99 29//99 28//99
f 28//100 29//100 33//100
f 37//101 30//101 33//101
f 33//102 30//102 37//102
f 34//103 38//103 1//103
f 1//104 38//104 34//104
f 31//105 39//105 34//105
f 34//106 39//106 31//106
f 35//107 39//107 31//107
f 31//108 39//108 35//108
f 32//109 40//109 35//109
f 35//110 40//110 32//110
f 36//109 40//109 32//109
f 32//110 40//110 36//110
f 37//111 36//111 30//111
f 30//112 36//112 37//112
f 37//113 33//113 28//113
f 28//114 33//114 37//114
f 34//115 41//115 38//115
f 38//116 41//116 34//116
f 39//117 41//117 34//117
f 34//118 41//118 39//118
f 35//119 42//119 39//119
f 39//120 42//120 35//120
f 40//119 42//119 35//119
f 35//120 42//120 40//120
f 36//121 43//121 40//121
f 40//122 43//122 36//122
f 36//123 37//123 43//123
f 43//124 37//124 36//124
f 43//125 37//125 28//125
f 28//126 37//126 43//126
f 39//127 44//127 41//127
f 41//128 44//128 39//128
f 42//127 44//127 39//127
f 39//128 44//128 42//128
f 40//129 45//129 42//129
f 42//130 45//130 40//130
f 40//131 43//131 45//131
f 45//132 43//132 40//132
f 45//133 43//133 28//133
f 28//134 43//134 45//134
f 42//135 46//135 44//135
f 44//136 46//136 42//136
f 42//137 45//137 46//137
f 46//138 45//138 42//138
f 45//139 28//139 46//139
f 46//140 28//140 45//140
