# SSTK version 0.8.0
# 12
mtllib original-12.mtl
o mesh10/mesh10-geometry#mesh10-geometry
v -0.412141 -0.687558 0.355738
v -0.428320 -0.739830 0.361339
v -0.464413 -0.687558 0.373162
v -0.412141 -0.734852 0.355738
v -0.429565 -0.687558 0.303466
v -0.414630 -0.739830 0.357605
v -0.481837 -0.687558 0.320890
v -0.422409 -0.742319 0.359472
v -0.430187 -0.736718 0.303466
v -0.446989 -0.738585 0.308444
v -0.442011 -0.741697 0.307822
v -0.433299 -0.741075 0.304710
v -0.437032 -0.742319 0.305955
vn -0.3162258247113308 -0.0037649979130055505 -0.948676474134546
vn 0.3162258247113308 0.0037649979130055505 0.948676474134546
vn -0.32711097603634165 0 -0.9449859307717506
vn 0.32711097603634165 0 0.9449859307717506
vn 0 -1 0
vn 0 1 0
vn -0.25640995527890287 -0.22435796086917037 -0.9401688360228172
vn 0.25640995527890287 0.22435796086917037 0.9401688360228172
vn -0.2618458891103844 0.09819195841650015 -0.9601015934047419
vn 0.2618458891103844 -0.09819195841650015 0.9601015934047419
vn 0.3162249323895358 -0.004002999144139071 0.9486757971683928
vn -0.3162249323895358 0.004002999144139071 -0.9486757971683928
vn 0.2876679022099025 -0.03696298743476745 0.9570166746708499
vn -0.2876679022099025 0.03696298743476745 -0.9570166746708499
vn 0.2547140850839433 0.2191730732119279 0.9418513146132401
vn -0.2547140850839433 -0.2191730732119279 -0.9418513146132401
vn 0.33425490192243995 0.030386991083804597 0.9419927235991225
vn -0.33425490192243995 -0.030386991083804597 -0.9419927235991225
vn 0.34050300360779984 -0.08512600090195276 0.9363820099214356
vn -0.34050300360779984 0.08512600090195276 -0.9363820099214356
usemtl material_0_0
f 1//1 2//1 3//1
f 3//2 2//2 1//2
f 4//3 2//3 1//3
f 1//4 2//4 4//4
f 3//5 5//5 1//5
f 1//6 5//6 3//6
f 4//7 6//7 2//7
f 2//8 6//8 4//8
f 3//5 7//5 5//5
f 5//6 7//6 3//6
f 6//9 8//9 2//9
f 2//10 8//10 6//10
f 5//11 7//11 9//11
f 9//12 7//12 5//12
f 9//13 7//13 10//13
f 10//14 7//14 9//14
f 9//15 10//15 11//15
f 11//16 10//16 9//16
f 9//17 11//17 12//17
f 12//18 11//18 9//18
f 12//19 11//19 13//19
f 13//20 11//20 12//20
