# SSTK version 0.8.0
# 21
mtllib original-21.mtl
o mesh17/mesh17-geometry#mesh17-geometry
v -0.077377 -0.266991 0.099589
v -0.080695 -0.270727 0.096271
v -0.077377 -0.270727 0.094897
v -0.082070 -0.270727 0.099589
v -0.082070 -0.279747 0.094897
v 0.084654 -0.266991 0.099589
v -0.082070 -0.270727 0.207558
v -0.084013 -0.279747 0.099589
v -0.077377 -0.279747 0.092953
v 0.084654 -0.270727 0.094897
v -0.084013 -0.279747 0.207558
v -0.077377 -0.266991 0.207558
v -0.084013 -0.305260 0.099589
v -0.082070 -0.305260 0.094897
v 0.087972 -0.270727 0.096271
v -0.082070 -0.279747 0.212250
v -0.080695 -0.270727 0.210875
v -0.084013 -0.305260 0.207558
v -0.077377 -0.305260 0.092953
v 0.084654 -0.279747 0.092953
v 0.089346 -0.270727 0.099589
v -0.082070 -0.305260 0.212250
v -0.077377 -0.270727 0.212250
v -0.082070 -0.314281 0.207558
v -0.082070 -0.314281 0.099589
v -0.080695 -0.314281 0.096271
v 0.089346 -0.279747 0.094897
v 0.084654 -0.266991 0.207558
v -0.077377 -0.279747 0.214193
v -0.077377 -0.305260 0.214193
v 0.084654 -0.270727 0.212250
v -0.080695 -0.314281 0.210875
v -0.077377 -0.314281 0.094897
v 0.084654 -0.305260 0.092953
v 0.089346 -0.270727 0.207558
v 0.091290 -0.279747 0.099589
v -0.077377 -0.314281 0.212250
v 0.084654 -0.279747 0.214193
v -0.077377 -0.318017 0.207558
v -0.077377 -0.318017 0.099589
v 0.089346 -0.305260 0.094897
v 0.087972 -0.270727 0.210875
v 0.084654 -0.305260 0.214193
v 0.084654 -0.314281 0.212250
v 0.089346 -0.279747 0.212250
v 0.084654 -0.314281 0.094897
v 0.091290 -0.279747 0.207558
v 0.091290 -0.305260 0.099589
v 0.084654 -0.318017 0.207558
v 0.089346 -0.305260 0.212250
v 0.084654 -0.318017 0.099589
v 0.087972 -0.314281 0.096271
v 0.087972 -0.314281 0.210875
v 0.091290 -0.305260 0.207558
v 0.089346 -0.314281 0.099589
v 0.089346 -0.314281 0.207558
vn 0.2498409293835957 -0.7574787859020602 0.6031628295187643
vn -0.2498409293835957 0.7574787859020602 -0.6031628295187643
vn 0.6031608036476671 -0.7574787534111643 0.24984591866542247
vn -0.6031608036476671 0.7574787534111643 -0.24984591866542247
vn 0.37532209614739986 -0.19523705001446742 0.9060992321181882
vn -0.37532209614739986 0.19523705001446742 -0.9060992321181882
vn 0 -0.7822879593863483 0.6229169676603319
vn 0 0.7822879593863483 -0.6229169676603319
vn 0.6229169676603321 -0.7822879593863482 0
vn -0.6229169676603321 0.7822879593863482 0
vn 0.906100637772298 -0.195232921952629 0.37532084995970244
vn -0.906100637772298 0.195232921952629 -0.37532084995970244
vn 0.9061030087226006 -0.19523700187944906 0.37531300361295034
vn -0.9061030087226006 0.19523700187944906 -0.37531300361295034
vn 0.977565656621814 -0.21063092601410988 0
vn -0.977565656621814 0.21063092601410988 0
vn 0.9238821680296988 0 0.3826770695988241
vn -0.9238821680296988 0 -0.3826770695988241
vn 0.3826861658026443 0 0.9238784002796422
vn -0.3826861658026443 0 -0.9238784002796422
vn 0 -0.21063591008786947 0.9775645827163824
vn 0 0.21063591008786947 -0.9775645827163824
vn -0.24984111863283592 -0.7574783596758075 0.6031632864019005
vn 0.24984111863283592 0.7574783596758075 -0.6031632864019005
vn 0.9061037184097379 -0.19523393932706037 -0.37531288336384594
vn -0.9061037184097379 0.19523393932706037 0.37531288336384594
vn 0.6031621885219903 -0.7574802367550297 -0.24983807808840278
vn -0.6031621885219903 0.7574802367550297 0.24983807808840278
vn 1 0 0
vn -1 0 0
vn -0.3753220961473994 -0.19523705001446742 0.9060992321181884
vn 0.3753220961473994 0.19523705001446742 -0.9060992321181884
vn -0.6031653218596569 -0.7574764042027728 0.24984213332017008
vn 0.6031653218596569 0.7574764042027728 -0.24984213332017008
vn 0.9061007872212832 -0.1952359541529414 -0.3753189118642459
vn -0.9061007872212832 0.1952359541529414 0.3753189118642459
vn 0.9238821680296986 0 -0.3826770695988245
vn -0.9238821680296986 0 0.3826770695988245
vn 0.24983908925178253 -0.7574822706007421 -0.6031592154708273
vn -0.24983908925178253 0.7574822706007421 0.6031592154708273
vn 0.9775652004429218 0.21063304318883547 0
vn -0.9775652004429218 -0.21063304318883547 0
vn 0.9061033625306688 0.19523507811327745 0.3753131501622583
vn -0.9061033625306688 -0.19523507811327745 -0.3753131501622583
vn 0.3753220228704361 0.19523801189692608 0.9060990552136007
vn -0.3753220228704361 -0.19523801189692608 -0.9060990552136007
vn 0 0 1
vn 0 0 -1
vn -0.3753238876894101 -0.1952359415782891 0.9060987288622285
vn 0.3753238876894101 0.1952359415782891 -0.9060987288622285
vn -0.6229202654808872 -0.7822853334003016 0
vn 0.6229202654808872 0.7822853334003016 0
vn -0.9061031993603949 -0.19523404295530133 0.37531408257642607
vn 0.9061031993603949 0.19523404295530133 -0.37531408257642607
vn 0.3753220961473994 -0.19523705001446703 -0.9060992321181884
vn -0.3753220961473994 0.19523705001446703 0.9060992321181884
vn 0.38268616580264386 0 -0.9238784002796424
vn -0.38268616580264386 0 0.9238784002796424
vn 0.3753221694240309 -0.19523608813144464 -0.9060994090219737
vn -0.3753221694240309 0.19523608813144464 0.9060994090219737
vn 0 -0.7822910726552865 -0.6229130578530531
vn 0 0.7822910726552865 0.6229130578530531
vn 0.9061030087226004 0.19523700187944906 -0.3753130036129508
vn -0.9061030087226004 -0.19523700187944906 0.3753130036129508
vn 0.9061009641242922 0.19523499226996358 -0.37531898513980827
vn -0.9061009641242922 -0.19523499226996358 0.37531898513980827
vn 0.9061002544307221 0.1952380548223653 0.37531910538868113
vn -0.9061002544307221 -0.1952380548223653 -0.37531910538868113
vn -0.3826882264609911 0 0.9238775467171725
vn 0.3826882264609911 0 -0.9238775467171725
vn -0.6229180669347302 -0.7822870840594898 0
vn 0.6229180669347302 0.7822870840594898 0
vn -0.9061021633317252 -0.1952350351925826 0.3753160676535423
vn 0.9061021633317252 0.1952350351925826 -0.3753160676535423
vn 0.3753220228704356 0.1952380118969264 -0.9060990552136007
vn -0.3753220228704356 -0.1952380118969264 0.9060990552136007
vn 0 -0.21063495445546168 -0.9775647886260764
vn 0 0.21063495445546168 0.9775647886260764
vn 0.603165953252831 0.7574769412932669 -0.24983898063673024
vn -0.603165953252831 -0.7574769412932669 0.24983898063673024
vn 0.6031621885219904 0.75748023675503 0.24983807808840255
vn -0.6031621885219904 -0.75748023675503 -0.24983807808840255
vn 0.2498390892517828 0.7574822706007421 0.6031592154708273
vn -0.2498390892517828 -0.7574822706007421 -0.6031592154708273
vn 0 0.21063707163083434 0.9775643324379153
vn 0 -0.21063707163083434 -0.9775643324379153
vn -0.6031639129872784 -0.75747989072558 -0.24983496395868576
vn 0.6031639129872784 0.75747989072558 0.24983496395868576
vn -0.9238806073868566 0 0.3826808373756035
vn 0.9238806073868566 0 -0.3826808373756035
vn 0 0.21063707163083473 -0.9775643324379151
vn 0 -0.21063707163083473 0.9775643324379151
vn -0.3753230285572047 -0.19523601485492306 -0.9060990689423626
vn 0.3753230285572047 0.19523601485492306 0.9060990689423626
vn 0.24984092938359548 0.7574787859020603 -0.6031628295187644
vn -0.24984092938359548 -0.7574787859020603 0.6031628295187644
vn 0.6229169676603321 0.7822879593863482 0
vn -0.6229169676603321 -0.7822879593863482 0
vn -0.3753241544930243 0.19523708036457715 0.9060983729732727
vn 0.3753241544930243 -0.19523708036457715 -0.9060983729732727
vn -0.9061030224577639 -0.19523500483889958 -0.37531400930215764
vn 0.9061030224577639 0.19523500483889958 0.37531400930215764
vn -0.9238801073899819 0 0.3826820444821982
vn 0.9238801073899819 0 -0.3826820444821982
vn -0.38268993355948455 0 -0.9238768396015983
vn 0.38268993355948455 0 0.9238768396015983
vn -0.38268787290402106 0 -0.9238776931673346
vn 0.38268787290402106 0 0.9238776931673346
vn 0 1 0
vn 0 -1 0
vn 0 0.7822879593863481 0.6229169676603323
vn 0 -0.7822879593863481 -0.6229169676603323
vn -0.906102000159021 -0.1952340000342635 -0.375317000065868
vn 0.906102000159021 0.1952340000342635 0.375317000065868
vn -0.9061013042009113 0.1952350655453033 0.37531812600369924
vn 0.9061013042009113 -0.1952350655453033 -0.37531812600369924
vn -0.37532408121563626 0.19523804224717423 -0.9060981960687974
vn 0.37532408121563626 -0.19523804224717423 0.9060981960687974
vn -0.24984201765771027 0.7574790535352128 -0.6031620426287801
vn 0.24984201765771027 -0.7574790535352128 0.6031620426287801
vn -0.3753250136246738 0.1952370070872989 -0.9060980328922651
vn 0.3753250136246738 -0.1952370070872989 0.9060980328922651
vn -0.9238806073868568 0 -0.38268083737560304
vn 0.9238806073868568 0 0.38268083737560304
vn -0.24984201765771 0.7574790535352126 0.6031620426287806
vn 0.24984201765771 -0.7574790535352126 -0.6031620426287806
vn -0.9061031718891471 0.19523803703695192 0.3753120711972699
vn 0.9061031718891471 -0.19523803703695192 -0.3753120711972699
vn -0.6031689214788718 0.7574759013910364 -0.249834967476236
vn 0.6031689214788718 -0.7574759013910364 0.249834967476236
vn -0.9061038815790263 0.19523497448425484 -0.3753119509495457
vn 0.9061038815790263 -0.19523497448425484 0.3753119509495457
vn -0.9061018095242813 0.1952369589583647 -0.3753159211031593
vn 0.9061018095242813 -0.1952369589583647 0.3753159211031593
vn -0.6229230759910136 0.7822830954315029 0
vn 0.6229230759910136 -0.7822830954315029 0
vn -0.6031698638582438 0.757474829029997 0.24983594360941092
vn 0.6031698638582438 -0.757474829029997 -0.24983594360941092
vn -0.9775645827163826 0.2106359100878693 0
vn 0.9775645827163826 -0.2106359100878693 0
vn -0.9775647886260764 0.2106349544554619 0
vn 0.9775647886260764 -0.2106349544554619 0
vn -0.6229241752597413 0.7822822200951335 0
vn 0.6229241752597413 -0.7822822200951335 0
usemtl material_0_0
f 1//1 2//1 3//1
f 3//2 2//2 1//2
f 1//3 4//3 2//3
f 2//4 4//4 1//4
f 3//5 2//5 5//5
f 5//6 2//6 3//6
f 1//7 3//7 6//7
f 6//8 3//8 1//8
f 7//9 4//9 1//9
f 1//10 4//10 7//10
f 4//11 8//11 2//11
f 2//12 8//12 4//12
f 2//13 8//13 5//13
f 5//14 8//14 2//14
f 3//5 5//5 9//5
f 9//6 5//6 3//6
f 6//7 3//7 10//7
f 10//8 3//8 6//8
f 7//15 11//15 4//15
f 4//16 11//16 7//16
f 12//9 7//9 1//9
f 1//10 7//10 12//10
f 4//15 11//15 8//15
f 8//16 11//16 4//16
f 8//17 13//17 5//17
f 5//18 13//18 8//18
f 9//19 5//19 14//19
f 14//20 5//20 9//20
f 10//21 3//21 9//21
f 9//22 3//22 10//22
f 6//23 10//23 15//23
f 15//24 10//24 6//24
f 7//25 16//25 11//25
f 11//26 16//26 7//26
f 17//27 7//27 12//27
f 12//28 7//28 17//28
f 11//29 18//29 8//29
f 8//30 18//30 11//30
f 8//29 18//29 13//29
f 13//30 18//30 8//30
f 5//17 13//17 14//17
f 14//18 13//18 5//18
f 9//19 14//19 19//19
f 19//20 14//20 9//20
f 10//21 9//21 20//21
f 20//22 9//22 10//22
f 15//31 10//31 20//31
f 20//32 10//32 15//32
f 21//33 6//33 15//33
f 15//34 6//34 21//34
f 17//35 16//35 7//35
f 7//36 16//36 17//36
f 16//37 22//37 11//37
f 11//38 22//38 16//38
f 23//39 17//39 12//39
f 12//40 17//40 23//40
f 11//37 22//37 18//37
f 18//38 22//38 11//38
f 18//41 24//41 13//41
f 13//42 24//42 18//42
f 13//43 25//43 14//43
f 14//44 25//44 13//44
f 19//45 14//45 26//45
f 26//46 14//46 19//46
f 20//47 9//47 19//47
f 19//48 9//48 20//48
f 27//49 15//49 20//49
f 20//50 15//50 27//50
f 28//51 6//51 21//51
f 21//52 6//52 28//52
f 21//53 15//53 27//53
f 27//54 15//54 21//54
f 29//55 16//55 17//55
f 17//56 16//56 29//56
f 30//57 22//57 16//57
f 16//58 22//58 30//58
f 29//59 17//59 23//59
f 23//60 17//60 29//60
f 23//61 12//61 31//61
f 31//62 12//62 23//62
f 22//63 32//63 18//63
f 18//64 32//64 22//64
f 18//65 32//65 24//65
f 24//66 32//66 18//66
f 13//41 24//41 25//41
f 25//42 24//42 13//42
f 14//67 25//67 26//67
f 26//68 25//68 14//68
f 19//45 26//45 33//45
f 33//46 26//46 19//46
f 20//47 19//47 34//47
f 34//48 19//48 20//48
f 27//69 20//69 34//69
f 34//70 20//70 27//70
f 35//71 28//71 21//71
f 21//72 28//72 35//72
f 21//73 27//73 36//73
f 36//74 27//74 21//74
f 30//57 16//57 29//57
f 29//58 16//58 30//58
f 37//75 22//75 30//75
f 30//76 22//76 37//76
f 38//77 29//77 23//77
f 23//78 29//78 38//78
f 31//61 12//61 28//61
f 28//62 12//62 31//62
f 38//77 23//77 31//77
f 31//78 23//78 38//78
f 37//75 32//75 22//75
f 22//76 32//76 37//76
f 32//79 39//79 24//79
f 24//80 39//80 32//80
f 39//52 25//52 24//52
f 24//51 25//51 39//51
f 40//81 26//81 25//81
f 25//82 26//82 40//82
f 40//83 33//83 26//83
f 26//84 33//84 40//84
f 34//85 19//85 33//85
f 33//86 19//86 34//86
f 27//69 34//69 41//69
f 41//70 34//70 27//70
f 42//87 28//87 35//87
f 35//88 28//88 42//88
f 21//42 36//42 35//42
f 35//41 36//41 21//41
f 27//89 41//89 36//89
f 36//90 41//90 27//90
f 43//48 30//48 29//48
f 29//47 30//47 43//47
f 44//91 37//91 30//91
f 30//92 37//92 44//92
f 43//48 29//48 38//48
f 38//47 29//47 43//47
f 31//84 28//84 42//84
f 42//83 28//83 31//83
f 45//93 38//93 31//93
f 31//94 38//94 45//94
f 37//95 39//95 32//95
f 32//96 39//96 37//96
f 39//97 40//97 25//97
f 25//98 40//98 39//98
f 40//62 46//62 33//62
f 33//61 46//61 40//61
f 46//85 34//85 33//85
f 33//86 34//86 46//86
f 41//99 34//99 46//99
f 46//100 34//100 41//100
f 35//101 47//101 42//101
f 42//102 47//102 35//102
f 35//42 36//42 47//42
f 47//41 36//41 35//41
f 36//103 41//103 48//103
f 48//104 41//104 36//104
f 44//91 30//91 43//91
f 43//92 30//92 44//92
f 37//8 44//8 49//8
f 49//7 44//7 37//7
f 50//105 43//105 38//105
f 38//106 43//106 50//106
f 45//93 31//93 42//93
f 42//94 31//94 45//94
f 45//107 50//107 38//107
f 38//108 50//108 45//108
f 37//8 49//8 39//8
f 39//7 49//7 37//7
f 39//109 51//109 40//109
f 40//110 51//110 39//110
f 40//111 51//111 46//111
f 46//112 51//112 40//112
f 41//99 46//99 52//99
f 52//100 46//100 41//100
f 42//113 47//113 45//113
f 45//114 47//114 42//114
f 36//30 48//30 47//30
f 47//29 48//29 36//29
f 41//115 52//115 48//115
f 48//116 52//116 41//116
f 53//117 44//117 43//117
f 43//118 44//118 53//118
f 44//119 53//119 49//119
f 49//120 53//120 44//120
f 50//121 53//121 43//121
f 43//122 53//122 50//122
f 45//123 54//123 50//123
f 50//124 54//124 45//124
f 39//109 49//109 51//109
f 51//110 49//110 39//110
f 51//125 52//125 46//125
f 46//126 52//126 51//126
f 47//123 54//123 45//123
f 45//124 54//124 47//124
f 47//30 48//30 54//30
f 54//29 48//29 47//29
f 48//127 52//127 55//127
f 55//128 52//128 48//128
f 53//129 56//129 49//129
f 49//130 56//130 53//130
f 50//131 56//131 53//131
f 53//132 56//132 50//132
f 54//133 56//133 50//133
f 50//134 56//134 54//134
f 56//135 51//135 49//135
f 49//136 51//136 56//136
f 55//137 52//137 51//137
f 51//138 52//138 55//138
f 48//139 55//139 54//139
f 54//140 55//140 48//140
f 54//141 55//141 56//141
f 56//142 55//142 54//142
f 56//143 55//143 51//143
f 51//144 55//144 56//144
