# SSTK version 0.8.0
# 16
mtllib original-16.mtl
o mesh13/mesh13-geometry#mesh13-geometry
v 0.002305 -0.698759 0.688041
v 0.002305 -0.754765 0.699243
v 0.002305 -0.765966 0.688041
v 0.002305 -0.709960 0.699243
v 0.054577 -0.754765 0.699243
v 0.002305 -0.692536 0.674351
v 0.054577 -0.698759 0.688041
v 0.002305 -0.739830 0.705465
v 0.054577 -0.765966 0.688041
v 0.054577 -0.739830 0.705465
v 0.054577 -0.692536 0.674351
v 0.002305 -0.772189 0.674351
v 0.054577 -0.709960 0.699243
v 0.002305 -0.724895 0.705465
v 0.054577 -0.692536 0.658171
v 0.002305 -0.692536 0.658171
v 0.054577 -0.772189 0.674351
v 0.054577 -0.724895 0.705465
v 0.054577 -0.772189 0.658171
v 0.002305 -0.772189 0.658171
v 0.054577 -0.698759 0.643236
v 0.054577 -0.765966 0.643236
v 0.002305 -0.698759 0.643236
v 0.002305 -0.765966 0.643236
v 0.054577 -0.709960 0.632035
v 0.054577 -0.754765 0.632035
v 0.002305 -0.754765 0.632035
v 0.002305 -0.709960 0.632035
v 0.054577 -0.724895 0.625812
v 0.054577 -0.739830 0.625812
v 0.002305 -0.739830 0.625812
v 0.002305 -0.724895 0.625812
vn 1 0 0
vn -1 0 0
vn 0 0.7071067811865478 -0.7071067811865476
vn 0 -0.7071067811865478 0.7071067811865476
vn 0 -0.7071067811865476 -0.7071067811865478
vn 0 0.7071067811865476 0.7071067811865478
vn 0 0.38461502958574323 -0.9230770710058601
vn 0 -0.38461502958574323 0.9230770710058601
vn 0 -0.9103663747228085 -0.4138031703286618
vn 0 0.9103663747228085 0.4138031703286618
vn 0 0.9103663747228085 -0.41380317032866126
vn 0 -0.9103663747228085 0.41380317032866126
vn 0 -1 0
vn 0 1 0
vn 0 -0.3846150295857428 -0.9230770710058603
vn 0 0.3846150295857428 0.9230770710058603
vn 0 0 -1
vn 0 0 1
vn 0 -0.9230770710058603 0.3846150295857428
vn 0 0.9230770710058603 -0.3846150295857428
vn 0 0.9230770710058601 0.38461502958574323
vn 0 -0.9230770710058601 -0.38461502958574323
vn -1 0 0.0000020000000002180444
vn 1 0 -0.0000020000000002180444
usemtl material_0_0
f 1//1 2//1 3//1
f 3//2 2//2 1//2
f 1//1 4//1 2//1
f 2//2 4//2 1//2
f 5//3 3//3 2//3
f 2//4 3//4 5//4
f 6//1 1//1 3//1
f 3//2 1//2 6//2
f 4//5 1//5 7//5
f 7//6 1//6 4//6
f 4//1 8//1 2//1
f 2//2 8//2 4//2
f 5//3 9//3 3//3
f 3//4 9//4 5//4
f 5//7 2//7 10//7
f 10//8 2//8 5//8
f 1//9 6//9 11//9
f 11//10 6//10 1//10
f 6//1 3//1 12//1
f 12//2 3//2 6//2
f 1//9 11//9 7//9
f 7//10 11//10 1//10
f 4//5 7//5 13//5
f 13//6 7//6 4//6
f 4//1 14//1 8//1
f 8//2 14//2 4//2
f 10//7 2//7 8//7
f 8//8 2//8 10//8
f 13//2 9//2 5//2
f 5//1 9//1 13//1
f 9//11 12//11 3//11
f 3//12 12//12 9//12
f 13//2 5//2 10//2
f 10//1 5//1 13//1
f 6//13 15//13 11//13
f 11//14 15//14 6//14
f 6//1 12//1 16//1
f 16//2 12//2 6//2
f 11//2 17//2 7//2
f 7//1 17//1 11//1
f 7//2 9//2 13//2
f 13//1 9//1 7//1
f 13//15 14//15 4//15
f 4//16 14//16 13//16
f 18//17 8//17 14//17
f 14//18 8//18 18//18
f 10//17 8//17 18//17
f 18//18 8//18 10//18
f 9//11 17//11 12//11
f 12//12 17//12 9//12
f 13//2 10//2 18//2
f 18//1 10//1 13//1
f 6//13 16//13 15//13
f 15//14 16//14 6//14
f 15//2 19//2 11//2
f 11//1 19//1 15//1
f 16//1 12//1 20//1
f 20//2 12//2 16//2
f 11//2 19//2 17//2
f 17//1 19//1 11//1
f 7//2 17//2 9//2
f 9//1 17//1 7//1
f 18//15 14//15 13//15
f 13//16 14//16 18//16
f 17//14 20//14 12//14
f 12//13 20//13 17//13
f 16//19 21//19 15//19
f 15//20 21//20 16//20
f 15//2 22//2 19//2
f 19//1 22//1 15//1
f 16//1 20//1 23//1
f 23//2 20//2 16//2
f 17//14 19//14 20//14
f 20//13 19//13 17//13
f 16//19 23//19 21//19
f 21//20 23//20 16//20
f 15//2 21//2 22//2
f 22//1 21//1 15//1
f 19//21 22//21 24//21
f 24//22 22//22 19//22
f 23//1 20//1 24//1
f 24//2 20//2 23//2
f 19//21 24//21 20//21
f 20//22 24//22 19//22
f 23//4 25//4 21//4
f 21//3 25//3 23//3
f 21//23 26//23 22//23
f 22//24 26//24 21//24
f 22//6 27//6 24//6
f 24//5 27//5 22//5
f 23//24 24//24 28//24
f 28//23 24//23 23//23
f 23//4 28//4 25//4
f 25//3 28//3 23//3
f 21//23 25//23 26//23
f 26//24 25//24 21//24
f 22//6 26//6 27//6
f 27//5 26//5 22//5
f 28//24 24//24 27//24
f 27//23 24//23 28//23
f 25//8 28//8 29//8
f 29//7 28//7 25//7
f 25//2 30//2 26//2
f 26//1 30//1 25//1
f 26//16 31//16 27//16
f 27//15 31//15 26//15
f 28//1 27//1 32//1
f 32//2 27//2 28//2
f 29//8 28//8 32//8
f 32//7 28//7 29//7
f 25//2 29//2 30//2
f 30//1 29//1 25//1
f 30//16 31//16 26//16
f 26//15 31//15 30//15
f 32//1 27//1 31//1
f 31//2 27//2 32//2
f 29//18 32//18 30//18
f 30//17 32//17 29//17
f 30//18 32//18 31//18
f 31//17 32//17 30//17
