# SSTK version 0.8.0
# 24
mtllib original-24.mtl
o mesh20/mesh20-geometry#mesh20-geometry
v 0.473824 0.192530 0.194851
v 0.459924 0.203894 0.188045
v 0.472805 0.192530 0.188045
v 0.462670 0.203894 0.206366
v 0.462670 0.203894 0.169724
v 0.480417 0.192530 0.188045
v 0.476611 0.192530 0.199833
v 0.473824 0.192530 0.181239
v 0.470171 0.203894 0.219777
v 0.470171 0.203894 0.156312
v 0.476611 0.192530 0.176257
v 0.480417 0.192530 0.201657
v 0.480417 0.192530 0.174433
v 0.484224 0.192530 0.199833
v 0.480417 0.203894 0.224687
v 0.480417 0.203894 0.151403
v 0.484224 0.192530 0.176257
v 0.487010 0.192530 0.194851
v 0.490664 0.203894 0.156312
v 0.487010 0.192530 0.181239
v 0.488030 0.192530 0.188045
v 0.490664 0.203894 0.219777
v 0.498165 0.203894 0.169724
v 0.498165 0.203894 0.206366
v 0.500910 0.203894 0.188045
vn -0.6583620300726615 -0.7462080340852913 0.09865600450640906
vn -0.6583627631412005 -0.7462067315376255 0.0986609645048005
vn -0.6583610088371799 -0.7462080100163502 -0.09866300132435349
vn 0 -1 0
vn -0.5191718357088771 -0.8038327456283736 0.2903679081135255
vn -0.6583672542789294 -0.7462032882035399 -0.09865703810396989
vn -0.519172867669602 -0.8038327951134966 0.2903659259895096
vn -0.5191738647061641 -0.8038317905258837 -0.29036692433198646
vn -0.20739696120318732 -0.8772688358932821 0.43288091902292186
vn -0.5191718357088774 -0.8038327456283734 -0.2903679081135256
vn -0.20739208887333602 -0.8772683759341434 0.43288418550303387
vn -0.20739190693487294 -0.8772686063341352 -0.4328838057475483
vn -0.20738092401211794 -0.8772716785528021 -0.4328828413843971
vn 0.20740202262590282 -0.8772660957027184 0.4328840472241889
vn 0.20739190454914216 -0.8772695962420247 -0.4328818007687946
vn 0.2073860752208095 -0.8772693181935347 -0.4328851570113712
vn 0.5191731342472874 -0.8038322078541555 0.2903670750828373
vn 0.20739199671138525 -0.8772689860891459 0.4328829931357742
vn 0.5191730184194802 -0.8038330285187906 -0.29036501030171546
vn 0.5191699225320657 -0.8038328800560858 -0.29037095667230123
vn 0.6583649437591771 -0.746204936255446 0.09865999157197025
vn 0.519174015456849 -0.8038320239316873 0.29036600864477663
vn 0.6583638209734548 -0.746205797086897 -0.09866097317147085
vn 0.658362159974124 -0.7462081813196556 -0.09865402397174722
vn 0.6583620666716715 -0.7462070755676481 0.09866300999150454
vn 0.6583620300726615 0.7462080340852913 -0.09865600450640906
vn 0.6583627631412005 0.7462067315376255 -0.0986609645048005
vn 0.6583610088371799 0.7462080100163502 0.09866300132435349
vn 0 1 0
vn 0.5191718357088771 0.8038327456283736 -0.2903679081135255
vn 0.6583672542789294 0.7462032882035399 0.09865703810396989
vn 0.519172867669602 0.8038327951134966 -0.2903659259895096
vn 0.5191738647061641 0.8038317905258837 0.29036692433198646
vn 0.20739696120318732 0.8772688358932821 -0.43288091902292186
vn 0.5191718357088774 0.8038327456283734 0.2903679081135256
vn 0.20739208887333602 0.8772683759341434 -0.43288418550303387
vn 0.20739190693487294 0.8772686063341352 0.4328838057475483
vn 0.20738092401211794 0.8772716785528021 0.4328828413843971
vn -0.20740202262590282 0.8772660957027184 -0.4328840472241889
vn -0.20739190454914216 0.8772695962420247 0.4328818007687946
vn -0.2073860752208095 0.8772693181935347 0.4328851570113712
vn -0.5191731342472874 0.8038322078541555 -0.2903670750828373
vn -0.20739199671138525 0.8772689860891459 -0.4328829931357742
vn -0.5191730184194802 0.8038330285187906 0.29036501030171546
vn -0.5191699225320657 0.8038328800560858 0.29037095667230123
vn -0.6583649437591771 0.746204936255446 -0.09865999157197025
vn -0.519174015456849 0.8038320239316873 -0.29036600864477663
vn -0.6583638209734548 0.746205797086897 0.09866097317147085
vn -0.658362159974124 0.7462081813196556 0.09865402397174722
vn -0.6583620666716715 0.7462070755676481 -0.09866300999150454
usemtl material_0_0
f 1//1 2//1 3//1
f 4//2 2//2 1//2
f 2//3 5//3 3//3
f 1//4 3//4 6//4
f 4//5 1//5 7//5
f 3//6 5//6 8//6
f 3//4 8//4 6//4
f 7//4 1//4 6//4
f 9//7 4//7 7//7
f 8//8 5//8 10//8
f 6//4 8//4 11//4
f 12//4 7//4 6//4
f 9//9 7//9 12//9
f 8//10 10//10 11//10
f 6//4 11//4 13//4
f 12//4 6//4 14//4
f 15//11 9//11 12//11
f 11//12 10//12 16//12
f 11//13 16//13 13//13
f 6//4 13//4 17//4
f 14//4 6//4 18//4
f 15//14 12//14 14//14
f 13//15 16//15 19//15
f 17//16 13//16 19//16
f 6//4 17//4 20//4
f 18//4 6//4 21//4
f 22//17 14//17 18//17
f 15//18 14//18 22//18
f 17//19 19//19 23//19
f 20//20 17//20 23//20
f 6//4 20//4 21//4
f 24//21 18//21 21//21
f 22//22 18//22 24//22
f 25//23 20//23 23//23
f 21//24 20//24 25//24
f 24//25 21//25 25//25
usemtl material_1_0
f 3//26 2//26 1//26
f 1//27 2//27 4//27
f 3//28 5//28 2//28
f 6//29 3//29 1//29
f 7//30 1//30 4//30
f 8//31 5//31 3//31
f 6//29 8//29 3//29
f 6//29 1//29 7//29
f 7//32 4//32 9//32
f 10//33 5//33 8//33
f 11//29 8//29 6//29
f 6//29 7//29 12//29
f 12//34 7//34 9//34
f 11//35 10//35 8//35
f 13//29 11//29 6//29
f 14//29 6//29 12//29
f 12//36 9//36 15//36
f 16//37 10//37 11//37
f 13//38 16//38 11//38
f 17//29 13//29 6//29
f 18//29 6//29 14//29
f 14//39 12//39 15//39
f 19//40 16//40 13//40
f 19//41 13//41 17//41
f 20//29 17//29 6//29
f 21//29 6//29 18//29
f 18//42 14//42 22//42
f 22//43 14//43 15//43
f 23//44 19//44 17//44
f 23//45 17//45 20//45
f 21//29 20//29 6//29
f 21//46 18//46 24//46
f 24//47 18//47 22//47
f 23//48 20//48 25//48
f 25//49 20//49 21//49
f 25//50 21//50 24//50
